999
LibreDWG 
  0
SECTION
  2
HEADER
  9
$ACADVER
  1
AC1015
  9
$ACADMAINTVER
 70
    13
  9
$DWGCODEPAGE
  3
ANSI_936
  9
$INSBASE
 10
0.0
 20
0.0
 30
0.0
  9
$EXTMIN
 10
51.17357454832552
 20
66.72360972342406
 30
0.0
  9
$EXTMAX
 10
567.5390314610534
 20
309.4100943024792
 30
0.0
  9
$LIMMIN
 10
0.0
 20
0.0
  9
$LIMMAX
 10
420.0
 20
297.0
  9
$ORTHOMODE
 70
     0
  9
$REGENMODE
 70
     1
  9
$FILLMODE
 70
     1
  9
$QTEXTMODE
 70
     0
  9
$MIRRTEXT
 70
     1
  9
$LTSCALE
 40
1.0
  9
$ATTMODE
 70
     1
  9
$TEXTSIZE
 40
2.5
  9
$TRACEWID
 40
1.0
  9
$TEXTSTYLE
  7
数字与字母
  9
$CLAYER
  8
轮廓线
  9
$CELTYPE
  6
ByLayer
  9
$CECOLOR
 62
   256
  9
$CELTSCALE
 40
1.0
  9
$DISPSILH
 70
     0
  9
$DIMSCALE
 40
1.0
  9
$DIMASZ
 40
3.5
  9
$DIMEXO
 40
0.0
  9
$DIMDLI
 40
7.5
  9
$DIMRND
 40
0.0
  9
$DIMDLE
 40
0.0
  9
$DIMEXE
 40
2.5
  9
$DIMTP
 40
0.0
  9
$DIMTM
 40
0.0
  9
$DIMTXT
 40
5.0
  9
$DIMCEN
 40
2.5
  9
$DIMTSZ
 40
0.0
  9
$DIMTOL
 70
     0
  9
$DIMLIM
 70
     0
  9
$DIMTIH
 70
     0
  9
$DIMTOH
 70
     1
  9
$DIMSE1
 70
     0
  9
$DIMSE2
 70
     0
  9
$DIMTAD
 70
     1
  9
$DIMZIN
 70
     8
  9
$DIMBLK
  1

  9
$DIMASO
 70
     1
  9
$DIMSHO
 70
     1
  9
$DIMPOST
  1

  9
$DIMAPOST
  1

  9
$DIMALT
 70
     0
  9
$DIMALTD
 70
     3
  9
$DIMALTF
 40
0.03937007874016
  9
$DIMLFAC
 40
1.0
  9
$DIMTOFL
 70
     1
  9
$DIMTVP
 40
0.0
  9
$DIMTIX
 70
     0
  9
$DIMSOXD
 70
     0
  9
$DIMSAH
 70
     0
  9
$DIMBLK1
  1

  9
$DIMBLK2
  1

  9
$DIMSTYLE
  2
机械标注
  9
$DIMCLRD
 70
     0
  9
$DIMCLRE
 70
     0
  9
$DIMCLRT
 70
     0
  9
$DIMTFAC
 40
1.0
  9
$DIMGAP
 40
0.625
  9
$DIMJUST
 70
     0
  9
$DIMSD1
 70
     0
  9
$DIMSD2
 70
     0
  9
$DIMTOLJ
 70
     0
  9
$DIMTZIN
 70
     8
  9
$DIMALTZ
 70
     0
  9
$DIMALTTZ
 70
     0
  9
$DIMUPT
 70
     0
  9
$DIMDEC
 70
     1
  9
$DIMTDEC
 70
     1
  9
$DIMALTU
 70
     2
  9
$DIMALTTD
 70
     3
  9
$DIMTXSTY
  7
数字与字母
  9
$DIMAUNIT
 70
     0
  9
$DIMADEC
 70
     0
  9
$DIMALTRND
 40
0.0
  9
$DIMAZIN
 70
     0
  9
$DIMDSEP
 70
    46
  9
$DIMATFIT
 70
     3
  9
$DIMFRAC
 70
     0
  9
$DIMLDRBLK
  1

  9
$DIMLUNIT
 70
     2
  9
$DIMLWD
 70
    -2
  9
$DIMLWE
 70
    -2
  9
$DIMTMOVE
 70
     0
  9
$LUNITS
 70
     2
  9
$LUPREC
 70
     1
  9
$AXISMODE
 70
     0
  9
$AXISUNIT
 10
0.0
 20
0.0
  9
$SKETCHINC
 40
1.0
  9
$FILLETRAD
 40
10.0
  9
$AUNITS
 70
     0
  9
$AUPREC
 70
     1
  9
$MENU
  1
.
  9
$ELEVATION
 40
0.0
  9
$PELEVATION
 40
0.0
  9
$THICKNESS
 40
0.0
  9
$LIMCHECK
 70
     0
  9
$CHAMFERA
 40
10.0
  9
$CHAMFERB
 40
10.0
  9
$CHAMFERC
 40
20.0
  9
$CHAMFERD
 40
0.0
  9
$SKPOLY
 70
     0
  9
$TDCREATE
 40
2451911.603956590
  9
$TDUCREATE
 40
2451911.315956590
  9
$TDUPDATE
 40
2453619.512660100
  9
$TDUUPDATE
 40
2453619.224660100
  9
$TDINDWG
 40
0.037415100
  9
$TDUSRTIMER
 40
0.037415100
  9
$USRTIMER
 70
     1
  9
$ANGBASE
 50
0.0
  9
$ANGDIR
 70
     0
  9
$PDMODE
 70
     0
  9
$PDSIZE
 40
0.0
  9
$PLINEWID
 40
0.0
  9
$SPLFRAME
 70
     0
  9
$SPLINETYPE
 70
     6
  9
$SPLINESEGS
 70
     8
  9
$HANDSEED
  5
359
  9
$SURFTAB1
 70
     6
  9
$SURFTAB2
 70
     6
  9
$SURFTYPE
 70
     6
  9
$SURFU
 70
     6
  9
$SURFV
 70
     6
  9
$UCSBASE
  2

  9
$UCSNAME
  2

  9
$UCSORG
 10
0.0
 20
0.0
 30
0.0
  9
$UCSXDIR
 10
1.0
 20
0.0
 30
0.0
  9
$UCSYDIR
 10
0.0
 20
1.0
 30
0.0
  9
$UCSORTHOREF
  2

  9
$UCSORTHOVIEW
 70
     0
  9
$UCSORGTOP
 10
0.0
 20
0.0
 30
0.0
  9
$UCSORGBOTTOM
 10
0.0
 20
0.0
 30
0.0
  9
$UCSORGLEFT
 10
0.0
 20
0.0
 30
0.0
  9
$UCSORGRIGHT
 10
0.0
 20
0.0
 30
0.0
  9
$UCSORGFRONT
 10
0.0
 20
0.0
 30
0.0
  9
$UCSORGBACK
 10
0.0
 20
0.0
 30
0.0
  9
$PUCSBASE
  2

  9
$PUCSNAME
  2

  9
$PUCSORG
 10
0.0
 20
0.0
 30
0.0
  9
$PUCSXDIR
 10
1.0
 20
0.0
 30
0.0
  9
$PUCSYDIR
 10
0.0
 20
1.0
 30
0.0
  9
$PUCSORTHOREF
  2

  9
$PUCSORTHOVIEW
 70
     0
  9
$PUCSORGTOP
 10
0.0
 20
0.0
 30
0.0
  9
$PUCSORGBOTTOM
 10
0.0
 20
0.0
 30
0.0
  9
$PUCSORGLEFT
 10
0.0
 20
0.0
 30
0.0
  9
$PUCSORGRIGHT
 10
0.0
 20
0.0
 30
0.0
  9
$PUCSORGFRONT
 10
0.0
 20
0.0
 30
0.0
  9
$PUCSORGBACK
 10
0.0
 20
0.0
 30
0.0
  9
$USERI1
 70
     0
  9
$USERI2
 70
     0
  9
$USERI3
 70
     0
  9
$USERI4
 70
     0
  9
$USERI5
 70
     0
  9
$USERR1
 40
0.0
  9
$USERR2
 40
0.0
  9
$USERR3
 40
0.0
  9
$USERR4
 40
0.0
  9
$USERR5
 40
0.0
  9
$WORLDVIEW
 70
     1
  9
$SHADEDGE
 70
     3
  9
$SHADEDIF
 70
    70
  9
$TILEMODE
 70
     1
  9
$MAXACTVP
 70
    64
  9
$PINSBASE
 10
0.0
 20
0.0
 30
0.0
  9
$PLIMCHECK
 70
     0
  9
$PEXTMIN
 10
26.66999878883362
 20
20.31999878883363
 30
0.0
  9
$PEXTMAX
 10
240.0299890995026
 20
182.8799890995026
 30
0.0
  9
$PLIMMIN
 10
-6.350006103515625
 20
-6.349999904632568
  9
$PLIMMAX
 10
273.0499877929688
 20
209.5499939918518
  9
$UNITMODE
 70
     0
  9
$VISRETAIN
 70
     1
  9
$PLINEGEN
 70
     0
  9
$PSLTSCALE
 70
     1
  9
$TREEDEPTH
 70
  3020
  9
$CMLSTYLE
  2
Standard
  9
$CMLJUST
 70
     0
  9
$CMLSCALE
 40
20.0
  9
$PROXYGRAPHICS
 70
     1
  9
$MEASUREMENT
 70
     1
  9
$CELWEIGHT
370
    -1
  9
$ENDCAPS
280
     0
  9
$JOINSTYLE
280
     0
  9
$LWDISPLAY
290
     1
  9
$INSUNITS
 70
     4
  9
$HYPERLINKBASE
  1

  9
$STYLESHEET
  1

  9
$XEDIT
290
     1
  9
$CEPSNTYPE
380
     0
  9
$PSTYLEMODE
290
     0
  9
$FINGERPRINTGUID
  2
{35BD88C3-9548-11D2-9A29-0060089B3A3F}
  9
$VERSIONGUID
  2
{08AA5122-DBE8-471A-BE9D-315283120364}
  9
$EXTNAMES
290
     1
  9
$PSVPSCALE
 40
0.0
  9
$OLESTARTUP
290
     0
  0
ENDSEC
  0
SECTION
  2
CLASSES
  0
CLASS
  1
ACDBDICTIONARYWDFLT
  2
AcDbDictionaryWithDefault
  3
AutoCAD 2000
 90
        0
280
     0
281
     0
  0
CLASS
  1
ACDBPLACEHOLDER
  2
AcDbPlaceHolder
  3
AutoCAD 2000
 90
        0
280
     0
281
     0
  0
CLASS
  1
LAYOUT
  2
AcDbLayout
  3
AutoCAD 2000
 90
        0
280
     0
281
     0
  0
CLASS
  1
DICTIONARYVAR
  2
AcDbDictionaryVar
  3
AutoCAD 2000
 90
        0
280
     0
281
     0
  0
ENDSEC
  0
SECTION
  2
TABLES
  0
TABLE
  2
VPORT
  5
8
330
0
100
AcDbSymbolTable
 70
     1
  0
VPORT
  5
357
330
8
100
AcDbSymbolTableRecord
100
AcDbViewportTableRecord
  2
*Active
 70
     0
 10
0.0
 20
0.0
 11
1.0
 21
1.0
 12
293.9066583174242
 22
208.9195816030014
 13
0.0
 23
0.0
 14
10.0
 24
10.0
 15
10.0
 25
10.0
 16
0.0
 26
0.0
 36
1.0
 17
0.0
 27
0.0
 37
0.0
 40
260.0190004131121
 41
1.841563786008231
 42
50.0
 43
0.0
 44
0.0
 50
0.0
 51
0.0
 71
     0
 72
   100
 73
     1
 74
     3
 75
     0
 76
     0
 77
     0
 78
     0
281
     0
 65
     1
110
0.0
120
0.0
130
0.0
111
1.0
121
0.0
131
0.0
112
0.0
122
1.0
132
0.0
 79
     0
146
0.0
  0
ENDTAB
  0
TABLE
  2
LTYPE
  5
5
330
0
100
AcDbSymbolTable
 70
     5
  0
LTYPE
  5
14
330
5
100
AcDbSymbolTableRecord
100
AcDbLinetypeTableRecord
  2
ByBlock
 70
     0
  3

 72
    65
 73
     0
 40
0.0
  0
LTYPE
  5
15
330
5
100
AcDbSymbolTableRecord
100
AcDbLinetypeTableRecord
  2
ByLayer
 70
     0
  3

 72
    65
 73
     0
 40
0.0
  0
LTYPE
  5
16
330
5
100
AcDbSymbolTableRecord
100
AcDbLinetypeTableRecord
  2
Continuous
 70
     0
  3
Solid line
 72
    65
 73
     0
 40
0.0
  0
LTYPE
  5
91
330
5
100
AcDbSymbolTableRecord
100
AcDbLinetypeTableRecord
  2
ACAD_ISO08W100
 70
     0
  3
ISO long-dash short-dash ____ __ ____ __ ____ _
 72
    65
 73
     4
 40
36.0
 49
24.0
 74
     0
 49
-3.0
 74
     0
 49
6.0
 74
     0
 49
-3.0
 74
     0
  0
LTYPE
  5
92
330
5
100
AcDbSymbolTableRecord
100
AcDbLinetypeTableRecord
  2
ACAD_ISO09W100
 70
     0
  3
ISO long-dash double-short-dash ____ __ __ ____
 72
    65
 73
     6
 40
45.0
 49
24.0
 74
     0
 49
-3.0
 74
     0
 49
6.0
 74
     0
 49
-3.0
 74
     0
 49
6.0
 74
     0
 49
-3.0
 74
     0
  0
LTYPE
  5
93
330
5
100
AcDbSymbolTableRecord
100
AcDbLinetypeTableRecord
  2
ACAD_ISO02W100
 70
     0
  3
ISO dash __ __ __ __ __ __ __ __ __ __ __ __ __
 72
    65
 73
     2
 40
15.0
 49
12.0
 74
     0
 49
-3.0
 74
     0
  0
LTYPE
  5
161
330
5
100
AcDbSymbolTableRecord
100
AcDbLinetypeTableRecord
  2
CENTER
 70
     0
  3
Center ____ _ ____ _ ____ _ ____ _ ____ _ ____
 72
    65
 73
     4
 40
50.8
 49
31.75
 74
     0
 49
-6.35
 74
     0
 49
6.35
 74
     0
 49
-6.35
 74
     0
  0
ENDTAB
  0
TABLE
  2
LAYER
  5
2
330
0
100
AcDbSymbolTable
 70
    11
  0
LAYER
  5
10
330
2
100
AcDbSymbolTableRecord
100
AcDbLayerTableRecord
  2
0
 70
     0
 62
    -7
  6
Continuous
370
    -3
390
F
  0
LAYER
  5
94
330
2
100
AcDbSymbolTableRecord
100
AcDbLayerTableRecord
  2
轮廓线
 70
     0
 62
    -7
  6
Continuous
370
    35
390
F
  0
LAYER
  5
95
330
2
100
AcDbSymbolTableRecord
100
AcDbLayerTableRecord
  2
点划线
 70
     0
 62
    -1
  6
ACAD_ISO08W100
370
    13
390
F
  0
LAYER
  5
96
330
2
100
AcDbSymbolTableRecord
100
AcDbLayerTableRecord
  2
双点划线
 70
     0
 62
    -3
  6
ACAD_ISO09W100
370
    -3
390
F
  0
LAYER
  5
97
330
2
100
AcDbSymbolTableRecord
100
AcDbLayerTableRecord
  2
隐藏线
 70
     0
 62
   -44
  6
ACAD_ISO02W100
370
    13
390
F
  0
LAYER
  5
98
330
2
100
AcDbSymbolTableRecord
100
AcDbLayerTableRecord
  2
剖面线
 70
     0
 62
  -142
  6
Continuous
370
    13
390
F
  0
LAYER
  5
99
330
2
100
AcDbSymbolTableRecord
100
AcDbLayerTableRecord
  2
波浪线
 70
     0
 62
    -7
  6
Continuous
370
    13
390
F
  0
LAYER
  5
9A
330
2
100
AcDbSymbolTableRecord
100
AcDbLayerTableRecord
  2
尺寸层
 70
     0
 62
    -5
  6
Continuous
370
    13
390
F
  0
LAYER
  5
9B
330
2
100
AcDbSymbolTableRecord
100
AcDbLayerTableRecord
  2
文本层
 70
     0
 62
  -212
  6
Continuous
370
    13
390
F
  0
LAYER
  5
9C
330
2
100
AcDbSymbolTableRecord
100
AcDbLayerTableRecord
  2
其它层
 70
     0
 62
    -7
  6
Continuous
370
    -3
390
F
  0
LAYER
  5
162
330
2
100
AcDbSymbolTableRecord
100
AcDbLayerTableRecord
  2
中心线层
 70
     0
 62
    -1
  6
CENTER
370
    25
390
F
  0
ENDTAB
  0
TABLE
  2
STYLE
  5
3
330
0
100
AcDbSymbolTable
 70
     4
  0
STYLE
  5
11
330
3
100
AcDbSymbolTableRecord
100
AcDbTextStyleTableRecord
  2
Standard
 70
     0
 40
0.0
 41
1.0
 50
0.0
 71
     0
 42
2.5
  3
txt
  4

  0
STYLE
  5
90
330
3
100
AcDbSymbolTableRecord
100
AcDbTextStyleTableRecord
  2

 70
     1
 40
0.0
 41
1.0
 50
0.0
 71
     0
 42
2.5
  3
ltypeshp.shx
  4

  0
STYLE
  5
9D
330
3
100
AcDbSymbolTableRecord
100
AcDbTextStyleTableRecord
  2
汉字
 70
     0
 40
0.0
 41
0.7
 50
0.0
 71
     0
 42
2.5
  3
SIMFANG.TTF
  4

1001
ACAD
1000
FangSong_GB2312
1071
    34353
  0
STYLE
  5
9F
330
3
100
AcDbSymbolTableRecord
100
AcDbTextStyleTableRecord
  2
数字与字母
 70
     0
 40
0.0
 41
0.7
 50
0.0
 71
     0
 42
2.5
  3
romant.shx
  4

  0
ENDTAB
  0
TABLE
  2
VIEW
  5
6
330
0
100
AcDbSymbolTable
 70
     0
  0
ENDTAB
  0
TABLE
  2
UCS
  5
7
330
0
100
AcDbSymbolTable
 70
     0
  0
ENDTAB
  0
TABLE
  2
APPID
  5
9
330
0
100
AcDbSymbolTable
 70
     1
  0
APPID
  5
12
330
9
100
AcDbSymbolTableRecord
100
AcDbRegAppTableRecord
  2
ACAD
 70
     0
  0
ENDTAB
  0
TABLE
  2
DIMSTYLE
  5
A
330
0
100
AcDbSymbolTable
 70
     3
100
AcDbDimStyleTable
 71
     2
340
A1
340
27
  0
DIMSTYLE
105
27
330
A
100
AcDbSymbolTableRecord
100
AcDbDimStyleTableRecord
  2
ISO-25
 70
     0
 41
2.5
 42
0.625
 43
3.75
 44
1.25
 73
     0
 74
     0
 77
     1
 78
     8
140
2.5
141
2.5
143
0.03937007874016
144
1.0
146
1.0
147
0.625
171
     3
172
     1
176
     0
177
     0
178
     0
271
     2
272
     2
273
     2
274
     3
277
     2
278
    44
283
     0
284
     8
289
     3
340
11
371
    -2
372
    -2
341
0
342
0
343
0
344
0
  0
DIMSTYLE
105
A1
330
A
100
AcDbSymbolTableRecord
100
AcDbDimStyleTableRecord
  2
机械标注
 70
     0
 41
3.5
 43
7.5
 44
2.5
 73
     0
 74
     1
 77
     1
 78
     8
140
5.0
141
2.5
143
0.03937007874016
144
1.0
146
1.0
147
0.625
171
     3
172
     1
176
     0
177
     0
178
     0
271
     1
272
     1
273
     2
274
     3
277
     2
278
    46
283
     0
284
     8
289
     3
340
9F
371
    -2
372
    -2
341
0
342
0
343
0
344
0
  0
DIMSTYLE
105
A2
330
A
100
AcDbSymbolTableRecord
100
AcDbDimStyleTableRecord
  2
机械标注$2
 70
     0
 41
3.5
 43
7.5
 44
2.5
 73
     1
 74
     1
 77
     1
 78
     8
140
5.0
141
2.5
143
0.03937007874016
144
1.0
146
1.0
147
0.625
171
     3
172
     1
176
     0
177
     0
178
     0
271
     1
272
     1
273
     2
274
     3
277
     2
278
    46
283
     0
284
     8
289
     3
340
9F
371
    -2
372
    -2
341
0
342
0
343
0
344
0
  0
ENDTAB
  0
TABLE
  2
BLOCK_RECORD
  5
1
330
0
100
AcDbSymbolTable
 70
     7
  0
BLOCK_RECORD
  5
1F
330
1
100
AcDbSymbolTableRecord
100
AcDbBlockTableRecord
  2
*Model_Space
340
22
  0
BLOCK_RECORD
  5
5E
330
1
100
AcDbSymbolTableRecord
100
AcDbBlockTableRecord
  2
*Paper_Space
340
5F
  0
BLOCK_RECORD
  5
59
330
1
100
AcDbSymbolTableRecord
100
AcDbBlockTableRecord
  2
*Paper_Space0
340
5A
  0
BLOCK_RECORD
  5
12D
330
1
100
AcDbSymbolTableRecord
100
AcDbBlockTableRecord
  2
A$C089D79E1
340
0
102
{BLKREFS
102
}
  0
BLOCK_RECORD
  5
163
330
1
100
AcDbSymbolTableRecord
100
AcDbBlockTableRecord
  2
A$C72811C8B
340
0
102
{BLKREFS
102
}
  0
BLOCK_RECORD
  5
255
330
1
100
AcDbSymbolTableRecord
100
AcDbBlockTableRecord
  2
A$C735E6741
340
0
102
{BLKREFS
102
}
  0
BLOCK_RECORD
  5
289
330
1
100
AcDbSymbolTableRecord
100
AcDbBlockTableRecord
  2
A$C3953539D
340
0
102
{BLKREFS
102
}
  0
ENDTAB
  0
ENDSEC
  0
SECTION
  2
BLOCKS
  0
BLOCK
  5
20
330
1F
100
AcDbEntity
  8
0
100
AcDbBlockBegin
  2
*Model_Space
 70
     0
 10
0.0
 20
0.0
 30
0.0
  3
*Model_Space
  1

  0
ENDBLK
  5
21
330
1F
100
AcDbEntity
  8
0
100
AcDbBlockEnd
  0
BLOCK
  5
5B
330
59
100
AcDbEntity
  8
0
100
AcDbBlockBegin
  2
*Paper_Space0
 70
     0
 10
0.0
 20
0.0
 30
0.0
  3
*Paper_Space0
  1

  0
VIEWPORT
  5
74
330
59
100
AcDbEntity
  8
0
100
AcDbViewport
 10
133.3499908447266
 20
101.5999970436096
 30
0.0
 40
402.4920940625619
 41
218.5599527535252
 68
     0
 69
     0
 12
133.3499908447266
 22
101.5999970436096
 13
0.0
 23
0.0
 14
0.5
 24
0.5
 15
0.5
 25
0.5
 16
0.0
 26
0.0
 36
1.0
 17
0.0
 27
0.0
 37
0.0
 42
50.0
 43
0.0
 44
0.0
 45
218.5599527535252
 50
0.0
 51
0.0
 72
   100
 90
    32800
  1

281
     0
 71
     1
 74
     0
110
0.0
120
0.0
130
0.0
111
1.0
121
0.0
131
0.0
112
0.0
122
1.0
132
0.0
 79
     0
146
0.0
348
0
340
0
345
0
346
0
  0
VIEWPORT
  5
76
330
59
100
AcDbEntity
  8
0
100
AcDbViewport
 10
133.3499939441681
 20
101.5999939441681
 30
0.0
 40
213.3599903106689
 41
162.5599903106689
 68
     0
 69
     0
 12
302.0919056307727
 22
184.7066679674853
 13
0.0
 23
0.0
 14
10.0
 24
10.0
 15
10.0
 25
10.0
 16
0.0
 26
0.0
 36
1.0
 17
0.0
 27
0.0
 37
0.0
 42
50.0
 43
0.0
 44
0.0
 45
243.0599522920634
 50
0.0
 51
0.0
 72
   100
 90
    32864
  1

281
     0
 71
     1
 74
     0
110
0.0
120
0.0
130
0.0
111
1.0
121
0.0
131
0.0
112
0.0
122
1.0
132
0.0
 79
     0
146
0.0
348
0
340
0
345
0
346
0
  0
ENDBLK
  5
5C
330
59
100
AcDbEntity
  8
0
100
AcDbBlockEnd
  0
BLOCK
  5
60
330
5E
100
AcDbEntity
 67
     1
  8
0
100
AcDbBlockBegin
  2
*Paper_Space
 70
     0
 10
0.0
 20
0.0
 30
0.0
  3
*Paper_Space
  1

  0
ENDBLK
  5
61
330
5E
100
AcDbEntity
 67
     1
  8
0
100
AcDbBlockEnd
  0
BLOCK
  5
15E
330
12D
100
AcDbEntity
  8
0
100
AcDbBlockBegin
  2
A$C089D79E1
 70
     0
 10
0.0
 20
0.0
 30
0.0
  3
A$C089D79E1
  1

  0
LINE
  5
12E
330
12D
100
AcDbEntity
  8
轮廓线
100
AcDbLine
 10
-29.10010719133831
 20
-35.63248714967654
 30
0.0
 11
-28.10010719133831
 21
-36.63248714967654
 31
0.0
  0
LINE
  5
12F
330
12D
100
AcDbEntity
  8
轮廓线
100
AcDbLine
 10
-44.10010719133831
 20
-8.632487149676535
 30
0.0
 11
-22.10010719133828
 21
-8.632487149676592
 31
0.0
  0
LINE
  5
130
330
12D
100
AcDbEntity
  8
轮廓线
100
AcDbLine
 10
-44.10010719133828
 20
0.4928793120127466
 30
0.0
 11
-22.10010719133828
 21
0.4928793120127466
 31
0.0
  0
LINE
  5
131
330
12D
100
AcDbEntity
  8
轮廓线
100
AcDbLine
 10
-45.60010719133828
 20
1.992879312012747
 30
0.0
 11
-22.10010719133828
 21
1.992879312012747
 31
0.0
  0
LINE
  5
132
330
12D
100
AcDbEntity
  8
轮廓线
100
AcDbLine
 10
-44.10010719133822
 20
15.36751285032346
 30
0.0
 11
-0.1001071913382816
 21
15.36751285032352
 31
0.0
  0
LINE
  5
133
330
12D
100
AcDbEntity
  8
轮廓线
100
AcDbLine
 10
-45.60010719133822
 20
13.86751285032346
 30
0.0
 11
-22.10010719133828
 21
13.86751285032346
 31
0.0
  0
LINE
  5
134
330
12D
100
AcDbEntity
  8
轮廓线
100
AcDbLine
 10
-31.10010719133828
 20
-24.63248714967654
 30
0.0
 11
-22.10010719133828
 21
-24.63248714967654
 31
0.0
  0
LINE
  5
135
330
12D
100
AcDbEntity
  8
轮廓线
100
AcDbLine
 10
-31.10010719133828
 20
-14.63248714967654
 30
0.0
 11
-22.1001071913383
 21
-14.63248714967654
 31
0.0
  0
LINE
  5
136
330
12D
100
AcDbEntity
  8
轮廓线
100
AcDbLine
 10
-45.60010719133822
 20
13.86751285032346
 30
0.0
 11
-45.6001071913383
 21
1.992879312012803
 31
0.0
  0
LINE
  5
137
330
12D
100
AcDbEntity
  8
轮廓线
100
AcDbLine
 10
-31.60010719133822
 20
13.86751285032346
 30
0.0
 11
-31.6001071913383
 21
1.992879312012803
 31
0.0
  0
LINE
  5
138
330
12D
100
AcDbEntity
  8
轮廓线
100
AcDbLine
 10
-33.60010719133822
 20
13.86751285032346
 30
0.0
 11
-33.6001071913383
 21
1.992879312012803
 31
0.0
  0
LINE
  5
139
330
12D
100
AcDbEntity
  8
轮廓线
100
AcDbLine
 10
-35.60010719133822
 20
13.86751285032346
 30
0.0
 11
-35.6001071913383
 21
1.992879312012803
 31
0.0
  0
LINE
  5
13A
330
12D
100
AcDbEntity
  8
轮廓线
100
AcDbLine
 10
-37.60010719133822
 20
13.86751285032346
 30
0.0
 11
-37.6001071913383
 21
1.992879312012803
 31
0.0
  0
LINE
  5
13B
330
12D
100
AcDbEntity
  8
轮廓线
100
AcDbLine
 10
-39.60010719133822
 20
13.86751285032346
 30
0.0
 11
-39.6001071913383
 21
1.992879312012803
 31
0.0
  0
LINE
  5
13C
330
12D
100
AcDbEntity
  8
轮廓线
100
AcDbLine
 10
-41.60010719133822
 20
13.86751285032346
 30
0.0
 11
-41.6001071913383
 21
1.992879312012803
 31
0.0
  0
LINE
  5
13D
330
12D
100
AcDbEntity
  8
轮廓线
100
AcDbLine
 10
-43.60010719133822
 20
13.86751285032346
 30
0.0
 11
-43.6001071913383
 21
1.992879312012803
 31
0.0
  0
LINE
  5
13E
330
12D
100
AcDbEntity
  8
轮廓线
100
AcDbLine
 10
-31.10010719133831
 20
-14.63248714967654
 30
0.0
 11
-31.10010719133828
 21
-24.63248714967654
 31
0.0
  0
LINE
  5
13F
330
12D
100
AcDbEntity
  8
轮廓线
100
AcDbLine
 10
-29.10010719133834
 20
-24.63248714967654
 30
0.0
 11
-29.10010719133831
 21
-35.63248714967654
 31
0.0
  0
LINE
  5
140
330
12D
100
AcDbEntity
  8
轮廓线
100
AcDbLine
 10
-45.60010719133828
 20
1.992879312012747
 30
0.0
 11
-44.10010719133828
 21
0.4928793120127466
 31
0.0
  0
LINE
  5
141
330
12D
100
AcDbEntity
  8
轮廓线
100
AcDbLine
 10
-44.10010719133828
 20
0.4928793120127466
 30
0.0
 11
-44.10010719133828
 21
-8.632487149676535
 31
0.0
  0
LINE
  5
142
330
12D
100
AcDbEntity
  8
轮廓线
100
AcDbLine
 10
-41.10010719133828
 20
-8.632487149676535
 30
0.0
 11
-31.10010719133828
 21
-14.63248714967654
 31
0.0
  0
LINE
  5
143
330
12D
100
AcDbEntity
  8
轮廓线
100
AcDbLine
 10
-45.60010719133822
 20
13.86751285032346
 30
0.0
 11
-44.10010719133822
 21
15.36751285032346
 31
0.0
  0
LINE
  5
144
330
12D
100
AcDbEntity
  8
点划线
100
AcDbLine
 10
-22.10010719133828
 20
20.3398595863228
 30
0.0
 11
-22.10010719133828
 21
-41.10745270571249
 31
0.0
  0
LINE
  5
145
330
12D
100
AcDbEntity
  8
轮廓线
100
AcDbLine
 10
-0.1001071913382816
 20
13.36751285032346
 30
0.0
 11
-0.1001071913382532
 21
-8.632487149676535
 31
0.0
  0
LINE
  5
146
330
12D
100
AcDbEntity
  8
轮廓线
100
AcDbLine
 10
-1.100107191338296
 20
2.992879312012747
 30
0.0
 11
-1.100107191338282
 21
10.36751285032358
 31
0.0
  0
LINE
  5
147
330
12D
100
AcDbEntity
  8
轮廓线
100
AcDbLine
 10
1.399892808661718
 20
13.86751285032352
 30
0.0
 11
1.39989280866169
 21
1.99287931201269
 31
0.0
  0
LINE
  5
148
330
12D
100
AcDbEntity
  8
轮廓线
100
AcDbLine
 10
-19.60010719133828
 20
-9.684768847575299
 30
0.0
 11
-19.60010719133828
 21
-36.63248714967654
 31
0.0
  0
LINE
  5
149
330
12D
100
AcDbEntity
  8
轮廓线
100
AcDbLine
 10
-13.10010719133828
 20
-14.63248714967654
 30
0.0
 11
-13.10010719133831
 21
-24.63248714967659
 31
0.0
  0
LINE
  5
14A
330
12D
100
AcDbEntity
  8
轮廓线
100
AcDbLine
 10
-26.60010719133828
 20
-24.63248714967654
 30
0.0
 11
-26.60010719133828
 21
-14.63248714967654
 31
0.0
  0
LINE
  5
14B
330
12D
100
AcDbEntity
  8
轮廓线
100
AcDbLine
 10
-28.10010719133831
 20
-36.63248714967654
 30
0.0
 11
-16.10010719133831
 21
-36.63248714967654
 31
0.0
  0
LINE
  5
14C
330
12D
100
AcDbEntity
  8
轮廓线
100
AcDbLine
 10
-28.10010719133834
 20
-24.63248714967654
 30
0.0
 11
-28.10010719133831
 21
-36.63248714967654
 31
0.0
  0
LINE
  5
14D
330
12D
100
AcDbEntity
  8
轮廓线
100
AcDbLine
 10
-15.10010719133831
 20
-24.63248714967654
 30
0.0
 11
-15.10010719133831
 21
-35.63248714967654
 31
0.0
  0
LINE
  5
14E
330
12D
100
AcDbEntity
  8
轮廓线
100
AcDbLine
 10
-16.10010719133831
 20
-24.63248714967654
 30
0.0
 11
-16.10010719133834
 21
-36.63248714967654
 31
0.0
  0
LINE
  5
14F
330
12D
100
AcDbEntity
  8
轮廓线
100
AcDbLine
 10
-16.10010719133831
 20
-36.63248714967654
 30
0.0
 11
-15.10010719133831
 21
-35.63248714967654
 31
0.0
  0
LINE
  5
150
330
12D
100
AcDbEntity
  8
轮廓线
100
AcDbLine
 10
-16.10010719133831
 20
-24.63248714967654
 30
0.0
 11
-13.10010719133831
 21
-24.63248714967654
 31
0.0
  0
LINE
  5
151
330
12D
100
AcDbEntity
  8
轮廓线
100
AcDbLine
 10
-19.60010719133828
 20
-9.684768847575356
 30
0.0
 11
-6.100107191338267
 21
-2.632487149676535
 31
0.0
  0
LINE
  5
152
330
12D
100
AcDbEntity
  8
轮廓线
100
AcDbLine
 10
-13.10010719133828
 20
-14.63248714967654
 30
0.0
 11
-3.100107191338253
 21
-8.632487149676535
 31
0.0
  0
LINE
  5
153
330
12D
100
AcDbEntity
  8
轮廓线
100
AcDbLine
 10
-22.10010719133828
 20
2.992879312012747
 30
0.0
 11
-1.100107191338296
 21
2.992879312012747
 31
0.0
  0
LINE
  5
154
330
12D
100
AcDbEntity
  8
轮廓线
100
AcDbLine
 10
-22.10010719133828
 20
-2.632487149676535
 30
0.0
 11
-0.1001071913382816
 21
-2.632487149676535
 31
0.0
  0
LINE
  5
155
330
12D
100
AcDbEntity
  8
轮廓线
100
AcDbLine
 10
-22.10010719133828
 20
-9.684768847575356
 30
0.0
 11
-19.60010719133828
 21
-9.684768847575356
 31
0.0
  0
LINE
  5
156
330
12D
100
AcDbEntity
  8
轮廓线
100
AcDbLine
 10
-3.100107191338267
 20
-2.632487149676592
 30
0.0
 11
-3.100107191338253
 21
-8.632487149676535
 31
0.0
  0
LINE
  5
157
330
12D
100
AcDbEntity
  8
轮廓线
100
AcDbLine
 10
-4.100107191338267
 20
-2.632487149676535
 30
0.0
 11
-4.100107191338253
 21
-9.232487149676558
 31
0.0
  0
LINE
  5
158
330
12D
100
AcDbEntity
  8
轮廓线
100
AcDbLine
 10
-0.1001071913382532
 20
-8.632487149676535
 30
0.0
 11
-3.100107191338253
 21
-8.632487149676535
 31
0.0
  0
LINE
  5
159
330
12D
100
AcDbEntity
  8
轮廓线
100
AcDbLine
 10
-5.100107191338267
 20
-2.632487149676592
 30
0.0
 11
-5.100107191338282
 21
2.992879312012747
 31
0.0
  0
LINE
  5
15A
330
12D
100
AcDbEntity
  8
轮廓线
100
AcDbLine
 10
-0.1001071913382816
 20
0.4928793120127466
 30
0.0
 11
1.39989280866169
 21
1.99287931201269
 31
0.0
  0
LINE
  5
15B
330
12D
100
AcDbEntity
  8
轮廓线
100
AcDbLine
 10
-22.10010719133828
 20
13.36751285032346
 30
0.0
 11
-0.1001071913382816
 21
13.36751285032352
 31
0.0
  0
LINE
  5
15C
330
12D
100
AcDbEntity
  8
轮廓线
100
AcDbLine
 10
-22.1001071913383
 20
10.36751285032341
 30
0.0
 11
-1.100107191338282
 21
10.36751285032358
 31
0.0
  0
LINE
  5
15D
330
12D
100
AcDbEntity
  8
轮廓线
100
AcDbLine
 10
-0.1001071913382816
 20
15.36751285032352
 30
0.0
 11
1.399892808661718
 21
13.86751285032352
 31
0.0
  0
ENDBLK
  5
15F
330
12D
100
AcDbEntity
  8
0
100
AcDbBlockEnd
  0
BLOCK
  5
177
330
163
100
AcDbEntity
  8
0
100
AcDbBlockBegin
  2
A$C72811C8B
 70
     0
 10
0.0
 20
0.0
 30
0.0
  3
A$C72811C8B
  1

  0
LINE
  5
164
330
163
100
AcDbEntity
  8
中心线层
100
AcDbLine
 10
-7.393539281712833
 20
76.05057792166366
 30
0.0
 11
-7.393539281712833
 21
-68.94942207833637
 31
0.0
  0
LINE
  5
165
330
163
100
AcDbEntity
  8
轮廓线
100
AcDbLine
 10
-13.39353928171283
 20
71.05057792166366
 30
0.0
 11
-13.39353928171283
 21
-58.94942207833634
 31
0.0
  0
LINE
  5
166
330
163
100
AcDbEntity
  8
轮廓线
100
AcDbLine
 10
-1.393539281712833
 20
71.05057792166366
 30
0.0
 11
-1.393539281712833
 21
-58.94942207833634
 31
0.0
  0
LINE
  5
167
330
163
100
AcDbEntity
  8
轮廓线
100
AcDbLine
 10
2.606460718287167
 20
63.05057792166355
 30
0.0
 11
2.606460718287167
 21
-63.94942207833645
 31
0.0
  0
LINE
  5
168
330
163
100
AcDbEntity
  8
轮廓线
100
AcDbLine
 10
-17.39353928171283
 20
63.0505779216636
 30
0.0
 11
-17.39353928171283
 21
-63.9494220783364
 31
0.0
  0
LINE
  5
169
330
163
100
AcDbEntity
  8
轮廓线
100
AcDbLine
 10
-17.39353928171283
 20
-63.9494220783364
 30
0.0
 11
2.606460718287224
 21
-63.94942207833634
 31
0.0
  0
LINE
  5
16A
330
163
100
AcDbEntity
  8
轮廓线
100
AcDbLine
 10
-17.39353928171283
 20
-58.94942207833634
 30
0.0
 11
-17.39353928171283
 21
-63.9494220783364
 31
0.0
  0
LINE
  5
16B
330
163
100
AcDbEntity
  8
轮廓线
100
AcDbLine
 10
-13.39353928171283
 20
-58.94942207833634
 30
0.0
 11
-13.39353928171283
 21
-63.9494220783364
 31
0.0
  0
LINE
  5
16C
330
163
100
AcDbEntity
  8
轮廓线
100
AcDbLine
 10
-1.393539281712833
 20
-58.94942207833634
 30
0.0
 11
-1.393539281712833
 21
-63.94942207833637
 31
0.0
  0
LINE
  5
16D
330
163
100
AcDbEntity
  8
轮廓线
100
AcDbLine
 10
2.606460718287224
 20
-58.94942207833634
 30
0.0
 11
2.606460718287224
 21
-63.94942207833634
 31
0.0
  0
LINE
  5
16E
330
163
100
AcDbEntity
  8
轮廓线
100
AcDbLine
 10
-12.4935392817128
 20
71.05057792166366
 30
0.0
 11
-12.49353928171286
 21
43.0505779216636
 31
0.0
  0
LINE
  5
16F
330
163
100
AcDbEntity
  8
轮廓线
100
AcDbLine
 10
-2.293539281712867
 20
71.05057792166366
 30
0.0
 11
-2.293539281712867
 21
43.05057792166355
 31
0.0
  0
LINE
  5
170
330
163
100
AcDbEntity
  8
轮廓线
100
AcDbLine
 10
-2.293539281712867
 20
43.05057792166355
 30
0.0
 11
-2.29353928171281
 21
35.05057792166366
 31
0.0
  0
LINE
  5
171
330
163
100
AcDbEntity
  8
轮廓线
100
AcDbLine
 10
-12.49353928171286
 20
43.0505779216636
 30
0.0
 11
-12.49353928171286
 21
35.0505779216636
 31
0.0
  0
LINE
  5
172
330
163
100
AcDbEntity
  8
轮廓线
100
AcDbLine
 10
-13.39353928171266
 20
35.0505779216636
 30
0.0
 11
-1.393539281712719
 21
35.05057792166366
 31
0.0
  0
LINE
  5
173
330
163
100
AcDbEntity
  8
轮廓线
100
AcDbLine
 10
2.606460718287167
 20
53.05057792166366
 30
0.0
 11
-17.39353928171283
 21
53.05057792166366
 31
0.0
  0
LINE
  5
174
330
163
100
AcDbEntity
  8
轮廓线
100
AcDbLine
 10
2.606460718287167
 20
63.05057792166355
 30
0.0
 11
-17.39353928171283
 21
63.0505779216636
 31
0.0
  0
LINE
  5
175
330
163
100
AcDbEntity
  8
轮廓线
100
AcDbLine
 10
2.606460718287167
 20
43.05057792166366
 30
0.0
 11
-17.39353928171283
 21
43.05057792166366
 31
0.0
  0
LINE
  5
176
330
163
100
AcDbEntity
  8
轮廓线
100
AcDbLine
 10
-13.39353928171283
 20
71.05057792166366
 30
0.0
 11
-1.39353928171289
 21
71.05057792166366
 31
0.0
  0
ENDBLK
  5
178
330
163
100
AcDbEntity
  8
0
100
AcDbBlockEnd
  0
BLOCK
  5
286
330
255
100
AcDbEntity
  8
0
100
AcDbBlockBegin
  2
A$C735E6741
 70
     0
 10
0.0
 20
0.0
 30
0.0
  3
A$C735E6741
  1

  0
LINE
  5
256
330
255
100
AcDbEntity
  8
轮廓线
100
AcDbLine
 10
14.1524945409698
 20
-25.67654544871436
 30
0.0
 11
15.1524945409698
 21
-26.67654544871436
 31
0.0
  0
LINE
  5
257
330
255
100
AcDbEntity
  8
轮廓线
100
AcDbLine
 10
-0.8475054590302022
 20
1.323454551285636
 30
0.0
 11
21.15249454096983
 21
1.323454551285579
 31
0.0
  0
LINE
  5
258
330
255
100
AcDbEntity
  8
轮廓线
100
AcDbLine
 10
-0.8475054590301738
 20
10.44882101297492
 30
0.0
 11
21.15249454096983
 21
10.44882101297492
 31
0.0
  0
LINE
  5
259
330
255
100
AcDbEntity
  8
轮廓线
100
AcDbLine
 10
-2.347505459030174
 20
11.94882101297492
 30
0.0
 11
21.15249454096983
 21
11.94882101297492
 31
0.0
  0
LINE
  5
25A
330
255
100
AcDbEntity
  8
轮廓线
100
AcDbLine
 10
-0.847505459030117
 20
25.32345455128564
 30
0.0
 11
43.15249454096983
 21
25.32345455128569
 31
0.0
  0
LINE
  5
25B
330
255
100
AcDbEntity
  8
轮廓线
100
AcDbLine
 10
-2.347505459030117
 20
23.82345455128564
 30
0.0
 11
21.15249454096983
 21
23.82345455128564
 31
0.0
  0
LINE
  5
25C
330
255
100
AcDbEntity
  8
轮廓线
100
AcDbLine
 10
12.15249454096983
 20
-14.67654544871436
 30
0.0
 11
21.15249454096983
 21
-14.67654544871436
 31
0.0
  0
LINE
  5
25D
330
255
100
AcDbEntity
  8
轮廓线
100
AcDbLine
 10
12.15249454096983
 20
-4.676545448714364
 30
0.0
 11
21.15249454096981
 21
-4.676545448714364
 31
0.0
  0
LINE
  5
25E
330
255
100
AcDbEntity
  8
轮廓线
100
AcDbLine
 10
-2.347505459030117
 20
23.82345455128564
 30
0.0
 11
-2.347505459030188
 21
11.94882101297497
 31
0.0
  0
LINE
  5
25F
330
255
100
AcDbEntity
  8
轮廓线
100
AcDbLine
 10
11.65249454096988
 20
23.82345455128564
 30
0.0
 11
11.65249454096981
 21
11.94882101297497
 31
0.0
  0
LINE
  5
260
330
255
100
AcDbEntity
  8
轮廓线
100
AcDbLine
 10
9.652494540969883
 20
23.82345455128564
 30
0.0
 11
9.652494540969812
 21
11.94882101297497
 31
0.0
  0
LINE
  5
261
330
255
100
AcDbEntity
  8
轮廓线
100
AcDbLine
 10
7.652494540969883
 20
23.82345455128564
 30
0.0
 11
7.652494540969812
 21
11.94882101297497
 31
0.0
  0
LINE
  5
262
330
255
100
AcDbEntity
  8
轮廓线
100
AcDbLine
 10
5.652494540969883
 20
23.82345455128564
 30
0.0
 11
5.652494540969812
 21
11.94882101297497
 31
0.0
  0
LINE
  5
263
330
255
100
AcDbEntity
  8
轮廓线
100
AcDbLine
 10
3.652494540969883
 20
23.82345455128564
 30
0.0
 11
3.652494540969812
 21
11.94882101297497
 31
0.0
  0
LINE
  5
264
330
255
100
AcDbEntity
  8
轮廓线
100
AcDbLine
 10
1.652494540969883
 20
23.82345455128564
 30
0.0
 11
1.652494540969812
 21
11.94882101297497
 31
0.0
  0
LINE
  5
265
330
255
100
AcDbEntity
  8
轮廓线
100
AcDbLine
 10
-0.347505459030117
 20
23.82345455128564
 30
0.0
 11
-0.347505459030188
 21
11.94882101297497
 31
0.0
  0
LINE
  5
266
330
255
100
AcDbEntity
  8
轮廓线
100
AcDbLine
 10
12.1524945409698
 20
-4.676545448714364
 30
0.0
 11
12.15249454096983
 21
-14.67654544871436
 31
0.0
  0
LINE
  5
267
330
255
100
AcDbEntity
  8
轮廓线
100
AcDbLine
 10
14.15249454096977
 20
-14.67654544871436
 30
0.0
 11
14.1524945409698
 21
-25.67654544871436
 31
0.0
  0
LINE
  5
268
330
255
100
AcDbEntity
  8
轮廓线
100
AcDbLine
 10
-2.347505459030174
 20
11.94882101297492
 30
0.0
 11
-0.8475054590301738
 21
10.44882101297492
 31
0.0
  0
LINE
  5
269
330
255
100
AcDbEntity
  8
轮廓线
100
AcDbLine
 10
-0.8475054590301738
 20
10.44882101297492
 30
0.0
 11
-0.8475054590301738
 21
1.323454551285636
 31
0.0
  0
LINE
  5
26A
330
255
100
AcDbEntity
  8
轮廓线
100
AcDbLine
 10
2.152494540969826
 20
1.323454551285636
 30
0.0
 11
12.15249454096983
 21
-4.676545448714364
 31
0.0
  0
LINE
  5
26B
330
255
100
AcDbEntity
  8
轮廓线
100
AcDbLine
 10
-2.347505459030117
 20
23.82345455128564
 30
0.0
 11
-0.847505459030117
 21
25.32345455128564
 31
0.0
  0
LINE
  5
26C
330
255
100
AcDbEntity
  8
点划线
100
AcDbLine
 10
21.15249454096983
 20
30.29580128728497
 30
0.0
 11
21.15249454096983
 21
-31.15151100475032
 31
0.0
  0
LINE
  5
26D
330
255
100
AcDbEntity
  8
轮廓线
100
AcDbLine
 10
43.15249454096983
 20
23.32345455128564
 30
0.0
 11
43.15249454096985
 21
1.323454551285636
 31
0.0
  0
LINE
  5
26E
330
255
100
AcDbEntity
  8
轮廓线
100
AcDbLine
 10
42.15249454096981
 20
12.94882101297492
 30
0.0
 11
42.15249454096983
 21
20.32345455128575
 31
0.0
  0
LINE
  5
26F
330
255
100
AcDbEntity
  8
轮廓线
100
AcDbLine
 10
44.65249454096983
 20
23.82345455128569
 30
0.0
 11
44.6524945409698
 21
11.94882101297486
 31
0.0
  0
LINE
  5
270
330
255
100
AcDbEntity
  8
轮廓线
100
AcDbLine
 10
23.65249454096983
 20
0.2711728533868722
 30
0.0
 11
23.65249454096983
 21
-26.67654544871436
 31
0.0
  0
LINE
  5
271
330
255
100
AcDbEntity
  8
轮廓线
100
AcDbLine
 10
30.15249454096983
 20
-4.676545448714364
 30
0.0
 11
30.1524945409698
 21
-14.67654544871442
 31
0.0
  0
LINE
  5
272
330
255
100
AcDbEntity
  8
轮廓线
100
AcDbLine
 10
16.65249454096983
 20
-14.67654544871436
 30
0.0
 11
16.65249454096983
 21
-4.676545448714364
 31
0.0
  0
LINE
  5
273
330
255
100
AcDbEntity
  8
轮廓线
100
AcDbLine
 10
15.1524945409698
 20
-26.67654544871436
 30
0.0
 11
27.1524945409698
 21
-26.67654544871436
 31
0.0
  0
LINE
  5
274
330
255
100
AcDbEntity
  8
轮廓线
100
AcDbLine
 10
15.15249454096977
 20
-14.67654544871436
 30
0.0
 11
15.1524945409698
 21
-26.67654544871436
 31
0.0
  0
LINE
  5
275
330
255
100
AcDbEntity
  8
轮廓线
100
AcDbLine
 10
28.1524945409698
 20
-14.67654544871436
 30
0.0
 11
28.1524945409698
 21
-25.67654544871436
 31
0.0
  0
LINE
  5
276
330
255
100
AcDbEntity
  8
轮廓线
100
AcDbLine
 10
27.1524945409698
 20
-14.67654544871436
 30
0.0
 11
27.15249454096977
 21
-26.67654544871436
 31
0.0
  0
LINE
  5
277
330
255
100
AcDbEntity
  8
轮廓线
100
AcDbLine
 10
27.1524945409698
 20
-26.67654544871436
 30
0.0
 11
28.1524945409698
 21
-25.67654544871436
 31
0.0
  0
LINE
  5
278
330
255
100
AcDbEntity
  8
轮廓线
100
AcDbLine
 10
27.1524945409698
 20
-14.67654544871436
 30
0.0
 11
30.1524945409698
 21
-14.67654544871436
 31
0.0
  0
LINE
  5
279
330
255
100
AcDbEntity
  8
轮廓线
100
AcDbLine
 10
23.65249454096983
 20
0.2711728533868154
 30
0.0
 11
37.15249454096984
 21
7.323454551285636
 31
0.0
  0
LINE
  5
27A
330
255
100
AcDbEntity
  8
轮廓线
100
AcDbLine
 10
30.15249454096983
 20
-4.676545448714364
 30
0.0
 11
40.15249454096985
 21
1.323454551285636
 31
0.0
  0
LINE
  5
27B
330
255
100
AcDbEntity
  8
轮廓线
100
AcDbLine
 10
21.15249454096983
 20
12.94882101297492
 30
0.0
 11
42.15249454096981
 21
12.94882101297492
 31
0.0
  0
LINE
  5
27C
330
255
100
AcDbEntity
  8
轮廓线
100
AcDbLine
 10
21.15249454096983
 20
7.323454551285636
 30
0.0
 11
43.15249454096983
 21
7.323454551285636
 31
0.0
  0
LINE
  5
27D
330
255
100
AcDbEntity
  8
轮廓线
100
AcDbLine
 10
21.15249454096983
 20
0.2711728533868154
 30
0.0
 11
23.65249454096983
 21
0.2711728533868154
 31
0.0
  0
LINE
  5
27E
330
255
100
AcDbEntity
  8
轮廓线
100
AcDbLine
 10
40.15249454096984
 20
7.323454551285579
 30
0.0
 11
40.15249454096985
 21
1.323454551285636
 31
0.0
  0
LINE
  5
27F
330
255
100
AcDbEntity
  8
轮廓线
100
AcDbLine
 10
39.15249454096984
 20
7.323454551285636
 30
0.0
 11
39.15249454096985
 21
0.723454551285613
 31
0.0
  0
LINE
  5
280
330
255
100
AcDbEntity
  8
轮廓线
100
AcDbLine
 10
43.15249454096985
 20
1.323454551285636
 30
0.0
 11
40.15249454096985
 21
1.323454551285636
 31
0.0
  0
LINE
  5
281
330
255
100
AcDbEntity
  8
轮廓线
100
AcDbLine
 10
38.15249454096984
 20
7.323454551285579
 30
0.0
 11
38.15249454096983
 21
12.94882101297492
 31
0.0
  0
LINE
  5
282
330
255
100
AcDbEntity
  8
轮廓线
100
AcDbLine
 10
43.15249454096983
 20
10.44882101297492
 30
0.0
 11
44.6524945409698
 21
11.94882101297486
 31
0.0
  0
LINE
  5
283
330
255
100
AcDbEntity
  8
轮廓线
100
AcDbLine
 10
21.15249454096983
 20
23.32345455128564
 30
0.0
 11
43.15249454096983
 21
23.32345455128569
 31
0.0
  0
LINE
  5
284
330
255
100
AcDbEntity
  8
轮廓线
100
AcDbLine
 10
21.15249454096981
 20
20.32345455128558
 30
0.0
 11
42.15249454096983
 21
20.32345455128575
 31
0.0
  0
LINE
  5
285
330
255
100
AcDbEntity
  8
轮廓线
100
AcDbLine
 10
43.15249454096983
 20
25.32345455128569
 30
0.0
 11
44.65249454096983
 21
23.82345455128569
 31
0.0
  0
ENDBLK
  5
287
330
255
100
AcDbEntity
  8
0
100
AcDbBlockEnd
  0
BLOCK
  5
29D
330
289
100
AcDbEntity
  8
0
100
AcDbBlockBegin
  2
A$C3953539D
 70
     0
 10
0.0
 20
0.0
 30
0.0
  3
A$C3953539D
  1

  0
LINE
  5
28A
330
289
100
AcDbEntity
  8
中心线层
100
AcDbLine
 10
7.653128403789083
 20
18.83129615195429
 30
0.0
 11
7.653128403789083
 21
-126.1687038480457
 31
0.0
  0
LINE
  5
28B
330
289
100
AcDbEntity
  8
轮廓线
100
AcDbLine
 10
1.653128403789083
 20
13.83129615195429
 30
0.0
 11
1.653128403789083
 21
-116.1687038480457
 31
0.0
  0
LINE
  5
28C
330
289
100
AcDbEntity
  8
轮廓线
100
AcDbLine
 10
13.65312840378908
 20
13.83129615195429
 30
0.0
 11
13.65312840378908
 21
-116.1687038480457
 31
0.0
  0
LINE
  5
28D
330
289
100
AcDbEntity
  8
轮廓线
100
AcDbLine
 10
17.65312840378908
 20
5.831296151954177
 30
0.0
 11
17.65312840378908
 21
-121.1687038480458
 31
0.0
  0
LINE
  5
28E
330
289
100
AcDbEntity
  8
轮廓线
100
AcDbLine
 10
-2.346871596210917
 20
5.831296151954234
 30
0.0
 11
-2.346871596210917
 21
-121.1687038480458
 31
0.0
  0
LINE
  5
28F
330
289
100
AcDbEntity
  8
轮廓线
100
AcDbLine
 10
-2.346871596210917
 20
-121.1687038480458
 30
0.0
 11
17.65312840378914
 21
-121.1687038480457
 31
0.0
  0
LINE
  5
290
330
289
100
AcDbEntity
  8
轮廓线
100
AcDbLine
 10
-2.346871596210917
 20
-116.1687038480457
 30
0.0
 11
-2.346871596210917
 21
-121.1687038480458
 31
0.0
  0
LINE
  5
291
330
289
100
AcDbEntity
  8
轮廓线
100
AcDbLine
 10
1.653128403789083
 20
-116.1687038480457
 30
0.0
 11
1.653128403789083
 21
-121.1687038480458
 31
0.0
  0
LINE
  5
292
330
289
100
AcDbEntity
  8
轮廓线
100
AcDbLine
 10
13.65312840378908
 20
-116.1687038480457
 30
0.0
 11
13.65312840378908
 21
-121.1687038480457
 31
0.0
  0
LINE
  5
293
330
289
100
AcDbEntity
  8
轮廓线
100
AcDbLine
 10
17.65312840378914
 20
-116.1687038480457
 30
0.0
 11
17.65312840378914
 21
-121.1687038480457
 31
0.0
  0
LINE
  5
294
330
289
100
AcDbEntity
  8
轮廓线
100
AcDbLine
 10
2.553128403789117
 20
13.83129615195429
 30
0.0
 11
2.55312840378906
 21
-14.16870384804577
 31
0.0
  0
LINE
  5
295
330
289
100
AcDbEntity
  8
轮廓线
100
AcDbLine
 10
12.75312840378905
 20
13.83129615195429
 30
0.0
 11
12.75312840378905
 21
-14.16870384804582
 31
0.0
  0
LINE
  5
296
330
289
100
AcDbEntity
  8
轮廓线
100
AcDbLine
 10
12.75312840378905
 20
-14.16870384804582
 30
0.0
 11
12.75312840378911
 21
-22.16870384804571
 31
0.0
  0
LINE
  5
297
330
289
100
AcDbEntity
  8
轮廓线
100
AcDbLine
 10
2.55312840378906
 20
-14.16870384804577
 30
0.0
 11
2.55312840378906
 21
-22.16870384804577
 31
0.0
  0
LINE
  5
298
330
289
100
AcDbEntity
  8
轮廓线
100
AcDbLine
 10
1.653128403789253
 20
-22.16870384804577
 30
0.0
 11
13.6531284037892
 21
-22.16870384804571
 31
0.0
  0
LINE
  5
299
330
289
100
AcDbEntity
  8
轮廓线
100
AcDbLine
 10
17.65312840378908
 20
-4.168703848045709
 30
0.0
 11
-2.346871596210917
 21
-4.168703848045709
 31
0.0
  0
LINE
  5
29A
330
289
100
AcDbEntity
  8
轮廓线
100
AcDbLine
 10
17.65312840378908
 20
5.831296151954177
 30
0.0
 11
-2.346871596210917
 21
5.831296151954234
 31
0.0
  0
LINE
  5
29B
330
289
100
AcDbEntity
  8
轮廓线
100
AcDbLine
 10
17.65312840378908
 20
-14.16870384804571
 30
0.0
 11
-2.346871596210917
 21
-14.16870384804571
 31
0.0
  0
LINE
  5
29C
330
289
100
AcDbEntity
  8
轮廓线
100
AcDbLine
 10
1.653128403789083
 20
13.83129615195429
 30
0.0
 11
13.65312840378903
 21
13.83129615195429
 31
0.0
  0
ENDBLK
  5
29E
330
289
100
AcDbEntity
  8
0
100
AcDbBlockEnd
  0
ENDSEC
  0
SECTION
  2
ENTITIES
  0
LINE
  5
215
102
{ACAD_REACTORS
330
310
102
}
330
1F
100
AcDbEntity
  8
点划线
100
AcDbLine
 10
259.6046102335868
 20
184.7557961492612
 30
0.0
 11
319.6046102335868
 21
184.7557961492612
 31
0.0
  0
ARC
  5
216
102
{ACAD_REACTORS
330
310
330
338
102
}
330
1F
100
AcDbEntity
  8
轮廓线
100
AcDbCircle
 10
289.6046102335868
 20
184.7557961492612
 30
0.0
 40
25.0
100
AcDbArc
 50
270.0
 51
90.0
  0
CIRCLE
  5
217
102
{ACAD_REACTORS
330
310
330
338
102
}
330
1F
100
AcDbEntity
  8
轮廓线
100
AcDbCircle
 10
289.6046102335868
 20
184.7557961492612
 30
0.0
 40
30.0
  0
ARC
  5
218
102
{ACAD_REACTORS
330
30B
330
332
102
}
330
1F
100
AcDbEntity
  8
轮廓线
100
AcDbCircle
 10
289.6046102335868
 20
184.7557961492612
 30
0.0
 40
33.0
100
AcDbArc
 50
270.0
 51
90.0
  0
LINE
  5
219
102
{ACAD_REACTORS
330
332
102
}
330
1F
100
AcDbEntity
  8
轮廓线
100
AcDbLine
 10
309.6046102335868
 20
114.7557961492612
 30
0.0
 11
269.6046102335868
 21
114.7557961492612
 31
0.0
  0
ARC
  5
21A
102
{ACAD_REACTORS
330
30B
102
}
330
1F
100
AcDbEntity
  8
轮廓线
100
AcDbCircle
 10
289.6046102335868
 20
184.7557961492612
 30
0.0
 40
55.0
100
AcDbArc
 50
58.70955478613779
 51
76.86344121305397
  0
LINE
  5
21B
102
{ACAD_REACTORS
330
310
330
332
330
338
102
}
330
1F
100
AcDbEntity
  8
点划线
100
AcDbLine
 10
289.6046102335868
 20
246.7557961492612
 30
0.0
 11
289.6046102335868
 21
109.7557961492612
 31
0.0
  0
LINE
  5
21C
330
1F
100
AcDbEntity
  8
点划线
100
AcDbLine
 10
247.1046102335868
 20
236.7557961492612
 30
0.0
 11
247.1046102335868
 21
109.7557961492612
 31
0.0
  0
ARC
  5
21D
330
1F
100
AcDbEntity
  8
轮廓线
100
AcDbCircle
 10
289.6046102335868
 20
184.7557961492612
 30
0.0
 40
35.0
100
AcDbArc
 50
90.0
 51
270.0
  0
ARC
  5
21E
330
1F
100
AcDbEntity
  8
轮廓线
100
AcDbCircle
 10
289.6046102335868
 20
184.7557961492612
 30
0.0
 40
40.0
100
AcDbArc
 50
90.0
 51
270.0
  0
LINE
  5
21F
330
1F
100
AcDbEntity
  8
轮廓线
100
AcDbLine
 10
219.8189872152182
 20
151.5136873986391
 30
0.0
 11
225.0924151116356
 21
194.7557961492612
 31
0.0
  0
LINE
  5
220
330
1F
100
AcDbEntity
  8
轮廓线
100
AcDbLine
 10
229.7775512121531
 20
148.5151935908994
 30
0.0
 11
235.0090869683078
 21
191.4137867913684
 31
0.0
  0
LINE
  5
221
330
1F
100
AcDbEntity
  8
轮廓线
100
AcDbLine
 10
268.6046102335868
 20
116.7557961492612
 30
0.0
 11
225.6046102335868
 21
116.7557961492612
 31
0.0
  0
LINE
  5
222
330
1F
100
AcDbEntity
  8
轮廓线
100
AcDbLine
 10
227.792075775069
 20
146.7557961492612
 30
0.0
 11
172.6046102335867
 21
146.7557961492612
 31
0.0
  0
LINE
  5
223
330
1F
100
AcDbEntity
  8
轮廓线
100
AcDbLine
 10
228.1579294336057
 20
149.7557961492612
 30
0.0
 11
179.6046102335868
 21
149.7557961492612
 31
0.0
  0
LINE
  5
224
330
1F
100
AcDbEntity
  8
点划线
100
AcDbLine
 10
199.6046102335868
 20
154.7557961492612
 30
0.0
 11
199.6046102335868
 21
109.7557961492612
 31
0.0
  0
LINE
  5
225
330
1F
100
AcDbEntity
  8
轮廓线
100
AcDbLine
 10
169.6046102335868
 20
143.7557961492612
 30
0.0
 11
169.6046102335868
 21
114.7557961492612
 31
0.0
  0
LINE
  5
226
330
1F
100
AcDbEntity
  8
轮廓线
100
AcDbLine
 10
224.6046102335868
 20
114.7557961492612
 30
0.0
 11
169.6046102335868
 21
114.7557961492612
 31
0.0
  0
LINE
  5
227
330
1F
100
AcDbEntity
  8
轮廓线
100
AcDbLine
 10
224.6046102335868
 20
114.7557961492612
 30
0.0
 11
225.6046102335868
 21
116.7557961492612
 31
0.0
  0
ARC
  5
228
330
1F
100
AcDbEntity
  8
轮廓线
100
AcDbCircle
 10
172.6046102335867
 20
143.7557961492612
 30
0.0
 40
3.0
100
AcDbArc
 50
90.0
 51
180.0
  0
LINE
  5
229
330
1F
100
AcDbEntity
  8
轮廓线
100
AcDbLine
 10
179.6046102335868
 20
149.7557961492612
 30
0.0
 11
179.6046102335868
 21
146.7557961492612
 31
0.0
  0
ARC
  5
22A
330
1F
100
AcDbEntity
  8
轮廓线
100
AcDbCircle
 10
217.8336954601172
 20
151.7557961492612
 30
0.0
 40
2.0
100
AcDbArc
 50
270.0
 51
353.0470425318273
  0
LINE
  5
22B
330
1F
100
AcDbEntity
  8
轮廓线
100
AcDbLine
 10
269.6046102335868
 20
114.7557961492612
 30
0.0
 11
268.6046102335868
 21
116.7557961492612
 31
0.0
  0
ARC
  5
22C
330
1F
100
AcDbEntity
  8
轮廓线
100
AcDbCircle
 10
227.792075775069
 20
148.7557961492612
 30
0.0
 40
2.0
100
AcDbArc
 50
270.0
 51
353.0470425318273
  0
ARC
  5
22D
330
1F
100
AcDbEntity
  8
轮廓线
100
AcDbCircle
 10
228.1579294336057
 20
151.7557961492612
 30
0.0
 40
2.0
100
AcDbArc
 50
270.0
 51
353.0470425318273
  0
LINE
  5
22E
330
1F
100
AcDbEntity
  8
轮廓线
100
AcDbLine
 10
244.6046102335868
 20
194.7557961492612
 30
0.0
 11
225.0924151116356
 21
194.7557961492612
 31
0.0
  0
LINE
  5
22F
330
1F
100
AcDbEntity
  8
轮廓线
100
AcDbLine
 10
244.6046102335868
 20
196.7557961492612
 30
0.0
 11
225.3363175506599
 21
196.7557961492612
 31
0.0
  0
LINE
  5
230
330
1F
100
AcDbEntity
  8
轮廓线
100
AcDbLine
 10
225.3363175506599
 20
196.7557961492611
 30
0.0
 11
229.6046102335868
 21
231.7557961492612
 31
0.0
  0
ARC
  5
231
330
1F
100
AcDbEntity
  8
轮廓线
100
AcDbCircle
 10
289.6046102335868
 20
184.7557961492612
 30
0.0
 40
55.0
100
AcDbArc
 50
90.0
 51
167.3977351585364
  0
LINE
  5
233
102
{ACAD_REACTORS
330
30B
102
}
330
1F
100
AcDbEntity
  8
轮廓线
100
AcDbLine
 10
297.3546102335868
 20
241.7557961492611
 30
0.0
 11
297.3546102335868
 21
226.7557961492611
 31
0.0
  0
LINE
  5
234
330
1F
100
AcDbEntity
  8
轮廓线
100
AcDbLine
 10
259.6046102335868
 20
184.7557961492612
 30
0.0
 11
244.6046102335868
 21
184.7557961492612
 31
0.0
  0
ARC
  5
235
330
1F
100
AcDbEntity
  8
轮廓线
100
AcDbCircle
 10
289.6046102335868
 20
184.7557961492612
 30
0.0
 40
55.0
100
AcDbArc
 50
169.5243183036099
 51
173.0470425318273
  0
LINE
  5
236
330
1F
100
AcDbEntity
  8
轮廓线
100
AcDbLine
 10
244.6046102335868
 20
184.7557961492612
 30
0.0
 11
244.6046102335868
 21
196.7557961492612
 31
0.0
  0
LINE
  5
237
330
1F
100
AcDbEntity
  8
轮廓线
100
AcDbLine
 10
261.0388965194153
 20
231.7557961492612
 30
0.0
 11
229.6046102335868
 21
231.7557961492612
 31
0.0
  0
LINE
  5
238
102
{ACAD_REACTORS
330
30B
102
}
330
1F
100
AcDbEntity
  8
轮廓线
100
AcDbLine
 10
294.6046102335868
 20
226.7557961492611
 30
0.0
 11
294.6046102335868
 21
217.3748090098613
 31
0.0
  0
LINE
  5
239
102
{ACAD_REACTORS
330
30B
102
}
330
1F
100
AcDbEntity
  8
轮廓线
100
AcDbLine
 10
297.3546102335868
 20
226.7557961492612
 30
0.0
 11
294.6046102335868
 21
226.7557961492612
 31
0.0
  0
LINE
  5
23A
102
{ACAD_REACTORS
330
30B
102
}
330
1F
100
AcDbEntity
  8
轮廓线
100
AcDbLine
 10
302.1046102335868
 20
241.7557961492612
 30
0.0
 11
297.3546102335868
 21
241.7557961492612
 31
0.0
  0
LINE
  5
23B
330
1F
100
AcDbEntity
  8
轮廓线
100
AcDbLine
 10
277.1046102335868
 20
241.7557961492612
 30
0.0
 11
277.1046102335868
 21
238.3165093633326
 31
0.0
  0
LINE
  5
23C
102
{ACAD_REACTORS
330
30B
102
}
330
1F
100
AcDbEntity
  8
轮廓线
100
AcDbLine
 10
302.1046102335868
 20
241.7557961492612
 30
0.0
 11
302.1046102335868
 21
238.3165093633326
 31
0.0
  0
LINE
  5
23D
330
1F
100
AcDbEntity
  8
点划线
100
AcDbLine
 10
332.1046102335868
 20
236.7557961492612
 30
0.0
 11
332.1046102335868
 21
109.7557961492612
 31
0.0
  0
LINE
  5
23E
102
{ACAD_REACTORS
330
332
102
}
330
1F
100
AcDbEntity
  8
轮廓线
100
AcDbLine
 10
354.116805355538
 20
194.7557961492612
 30
0.0
 11
359.3902332519553
 21
151.5136873986391
 31
0.0
  0
LINE
  5
23F
102
{ACAD_REACTORS
330
332
102
}
330
1F
100
AcDbEntity
  8
轮廓线
100
AcDbLine
 10
354.6046102335868
 20
114.7557961492612
 30
0.0
 11
409.6046102335868
 21
114.7557961492612
 31
0.0
  0
LINE
  5
240
102
{ACAD_REACTORS
330
332
102
}
330
1F
100
AcDbEntity
  8
轮廓线
100
AcDbLine
 10
399.6046102335868
 20
149.7557961492612
 30
0.0
 11
361.3755250070563
 21
149.7557961492612
 31
0.0
  0
LINE
  5
241
330
1F
100
AcDbEntity
  8
点划线
100
AcDbLine
 10
379.6046102335868
 20
154.7557961492611
 30
0.0
 11
379.6046102335868
 21
109.7557961492612
 31
0.0
  0
ARC
  5
242
102
{ACAD_REACTORS
330
332
102
}
330
1F
100
AcDbEntity
  8
轮廓线
100
AcDbCircle
 10
313.798864410353
 20
127.755796149261
 30
0.0
 40
2.0
100
AcDbArc
 50
90.0
 51
170.5376777919693
  0
ARC
  5
243
102
{ACAD_REACTORS
330
332
102
}
330
1F
100
AcDbEntity
  8
轮廓线
100
AcDbCircle
 10
350.4103560568206
 20
127.755796149261
 30
0.0
 40
2.0
100
AcDbArc
 50
9.462322208030704
 51
90.0
  0
LINE
  5
244
102
{ACAD_REACTORS
330
332
102
}
330
1F
100
AcDbEntity
  8
轮廓线
100
AcDbLine
 10
388.1046102335868
 20
149.7557961492612
 30
0.0
 11
388.1046102335868
 21
114.7557961492612
 31
0.0
  0
LINE
  5
245
102
{ACAD_REACTORS
330
332
102
}
330
1F
100
AcDbEntity
  8
轮廓线
100
AcDbLine
 10
371.1046102335868
 20
149.7557961492612
 30
0.0
 11
371.1046102335868
 21
114.7557961492612
 31
0.0
  0
LINE
  5
246
330
1F
100
AcDbEntity
  8
轮廓线
100
AcDbLine
 10
354.2712769002534
 20
116.7557961492612
 30
0.0
 11
309.9379435669201
 21
116.7557961492612
 31
0.0
  0
LINE
  5
247
102
{ACAD_REACTORS
330
332
102
}
330
1F
100
AcDbEntity
  8
轮廓线
100
AcDbLine
 10
309.6046102335868
 20
114.7557961492612
 30
0.0
 11
311.8260765626885
 21
128.0845941238719
 31
0.0
  0
LINE
  5
248
102
{ACAD_REACTORS
330
332
102
}
330
1F
100
AcDbEntity
  8
轮廓线
100
AcDbLine
 10
354.6046102335868
 20
114.7557961492612
 30
0.0
 11
352.383143904485
 21
128.0845941238719
 31
0.0
  0
LINE
  5
249
102
{ACAD_REACTORS
330
332
102
}
330
1F
100
AcDbEntity
  8
轮廓线
100
AcDbLine
 10
313.7988644103528
 20
129.7557961492612
 30
0.0
 11
350.4103560568207
 21
129.7557961492612
 31
0.0
  0
ARC
  5
24A
102
{ACAD_REACTORS
330
332
102
}
330
1F
100
AcDbEntity
  8
轮廓线
100
AcDbCircle
 10
361.3755250070563
 20
151.7557961492612
 30
0.0
 40
2.0
100
AcDbArc
 50
186.9529574681727
 51
270.0
  0
LINE
  5
24B
102
{ACAD_REACTORS
330
332
102
}
330
1F
100
AcDbEntity
  8
轮廓线
100
AcDbLine
 10
409.6046102335868
 20
143.7557961492612
 30
0.0
 11
409.6046102335868
 21
114.7557961492612
 31
0.0
  0
LINE
  5
24C
102
{ACAD_REACTORS
330
332
102
}
330
1F
100
AcDbEntity
  8
轮廓线
100
AcDbLine
 10
406.6046102335868
 20
146.7557961492612
 30
0.0
 11
399.6046102335868
 21
146.7557961492612
 31
0.0
  0
LINE
  5
24D
102
{ACAD_REACTORS
330
332
102
}
330
1F
100
AcDbEntity
  8
轮廓线
100
AcDbLine
 10
399.6046102335868
 20
149.7557961492612
 30
0.0
 11
399.6046102335868
 21
146.7557961492612
 31
0.0
  0
ARC
  5
24E
102
{ACAD_REACTORS
330
332
102
}
330
1F
100
AcDbEntity
  8
轮廓线
100
AcDbCircle
 10
406.6046102335868
 20
143.7557961492613
 30
0.0
 40
3.0
100
AcDbArc
 50
359.9999999999968
 51
90.0
  0
LINE
  5
24F
102
{ACAD_REACTORS
330
332
102
}
330
1F
100
AcDbEntity
  8
轮廓线
100
AcDbLine
 10
354.116805355538
 20
194.7557961492612
 30
0.0
 11
334.6046102335868
 21
194.7557961492612
 31
0.0
  0
LINE
  5
250
102
{ACAD_REACTORS
330
2FE
102
}
330
1F
100
AcDbEntity
  8
轮廓线
100
AcDbLine
 10
353.8729029165136
 20
196.7557961492612
 30
0.0
 11
334.6046102335869
 21
196.7557961492612
 31
0.0
  0
LINE
  5
251
102
{ACAD_REACTORS
330
2FE
102
}
330
1F
100
AcDbEntity
  8
轮廓线
100
AcDbLine
 10
349.6046102335868
 20
231.7557961492612
 30
0.0
 11
353.8729029165135
 21
196.7557961492612
 31
0.0
  0
LINE
  5
252
102
{ACAD_REACTORS
330
30B
330
332
102
}
330
1F
100
AcDbEntity
  8
轮廓线
100
AcDbLine
 10
319.6046102335868
 20
184.7557961492612
 30
0.0
 11
334.6046102335868
 21
184.7557961492612
 31
0.0
  0
LINE
  5
253
330
1F
100
AcDbEntity
  8
轮廓线
100
AcDbLine
 10
334.6046102335868
 20
184.7557961492612
 30
0.0
 11
334.6046102335868
 21
196.7557961492612
 31
0.0
  0
LINE
  5
254
102
{ACAD_REACTORS
330
2FE
330
30B
102
}
330
1F
100
AcDbEntity
  8
轮廓线
100
AcDbLine
 10
349.6046102335868
 20
231.7557961492612
 30
0.0
 11
318.1703239477582
 21
231.7557961492612
 31
0.0
  0
LINE
  5
2A3
330
1F
100
AcDbEntity
  8
中心线层
100
AcDbLine
 10
247.1046102335868
 20
264.7557961492612
 30
0.0
 11
247.1046102335868
 21
119.7557961492612
 31
0.0
  0
LINE
  5
2A4
330
1F
100
AcDbEntity
  8
轮廓线
100
AcDbLine
 10
241.1046102335868
 20
259.7557961492612
 30
0.0
 11
241.1046102335868
 21
231.7557961492612
 31
0.0
  0
LINE
  5
2A5
330
1F
100
AcDbEntity
  8
轮廓线
100
AcDbLine
 10
253.1046102335868
 20
259.7557961492612
 30
0.0
 11
253.1046102335868
 21
231.7557961492612
 31
0.0
  0
LINE
  5
2A6
330
1F
100
AcDbEntity
  8
轮廓线
100
AcDbLine
 10
257.1046102335868
 20
251.7557961492611
 30
0.0
 11
257.1046102335868
 21
231.7557961492612
 31
0.0
  0
LINE
  5
2A7
330
1F
100
AcDbEntity
  8
轮廓线
100
AcDbLine
 10
237.1046102335868
 20
251.7557961492611
 30
0.0
 11
237.1046102335868
 21
231.7557961492612
 31
0.0
  0
LINE
  5
2AD
330
1F
100
AcDbEntity
  8
轮廓线
100
AcDbLine
 10
242.0046102335868
 20
259.7557961492612
 30
0.0
 11
242.0046102335868
 21
231.7557961492611
 31
0.0
  0
LINE
  5
2AE
330
1F
100
AcDbEntity
  8
轮廓线
100
AcDbLine
 10
252.2046102335868
 20
259.7557961492612
 30
0.0
 11
252.2046102335868
 21
231.7557961492611
 31
0.0
  0
LINE
  5
2B2
330
1F
100
AcDbEntity
  8
轮廓线
100
AcDbLine
 10
257.1046102335868
 20
241.7557961492612
 30
0.0
 11
237.1046102335868
 21
241.7557961492612
 31
0.0
  0
LINE
  5
2B3
330
1F
100
AcDbEntity
  8
轮廓线
100
AcDbLine
 10
257.1046102335868
 20
251.7557961492611
 30
0.0
 11
237.1046102335868
 21
251.7557961492611
 31
0.0
  0
LINE
  5
2B4
330
1F
100
AcDbEntity
  8
轮廓线
100
AcDbLine
 10
257.1046102335868
 20
231.7557961492612
 30
0.0
 11
237.1046102335868
 21
231.7557961492612
 31
0.0
  0
LINE
  5
2B5
330
1F
100
AcDbEntity
  8
轮廓线
100
AcDbLine
 10
241.1046102335868
 20
259.7557961492612
 30
0.0
 11
253.1046102335868
 21
259.7557961492612
 31
0.0
  0
LINE
  5
2B7
330
1F
100
AcDbEntity
  8
轮廓线
100
AcDbLine
 10
267.6046102335868
 20
257.7557961492612
 30
0.0
 11
289.6046102335868
 21
257.7557961492611
 31
0.0
  0
LINE
  5
2B8
330
1F
100
AcDbEntity
  8
轮廓线
100
AcDbLine
 10
267.6046102335868
 20
266.8811626109505
 30
0.0
 11
289.6046102335868
 21
266.8811626109505
 31
0.0
  0
LINE
  5
2B9
330
1F
100
AcDbEntity
  8
轮廓线
100
AcDbLine
 10
266.1046102335868
 20
268.3811626109505
 30
0.0
 11
289.6046102335868
 21
268.3811626109505
 31
0.0
  0
LINE
  5
2BA
102
{ACAD_REACTORS
330
318
102
}
330
1F
100
AcDbEntity
  8
轮廓线
100
AcDbLine
 10
267.6046102335869
 20
281.7557961492612
 30
0.0
 11
311.6046102335868
 21
281.7557961492612
 31
0.0
  0
LINE
  5
2BB
330
1F
100
AcDbEntity
  8
轮廓线
100
AcDbLine
 10
266.1046102335869
 20
280.2557961492612
 30
0.0
 11
289.6046102335868
 21
280.2557961492612
 31
0.0
  0
LINE
  5
2BC
330
1F
100
AcDbEntity
  8
轮廓线
100
AcDbLine
 10
280.6046102335868
 20
241.7557961492612
 30
0.0
 11
289.6046102335868
 21
241.7557961492612
 31
0.0
  0
LINE
  5
2BD
330
1F
100
AcDbEntity
  8
轮廓线
100
AcDbLine
 10
280.6046102335868
 20
251.7557961492612
 30
0.0
 11
289.6046102335868
 21
251.7557961492612
 31
0.0
  0
LINE
  5
2BE
330
1F
100
AcDbEntity
  8
轮廓线
100
AcDbLine
 10
266.1046102335869
 20
280.2557961492612
 30
0.0
 11
266.1046102335868
 21
268.3811626109505
 31
0.0
  0
LINE
  5
2BF
330
1F
100
AcDbEntity
  8
轮廓线
100
AcDbLine
 10
280.1046102335869
 20
280.2557961492612
 30
0.0
 11
280.1046102335868
 21
268.3811626109505
 31
0.0
  0
LINE
  5
2C0
330
1F
100
AcDbEntity
  8
轮廓线
100
AcDbLine
 10
278.1046102335869
 20
280.2557961492612
 30
0.0
 11
278.1046102335868
 21
268.3811626109505
 31
0.0
  0
LINE
  5
2C1
330
1F
100
AcDbEntity
  8
轮廓线
100
AcDbLine
 10
276.1046102335869
 20
280.2557961492612
 30
0.0
 11
276.1046102335868
 21
268.3811626109505
 31
0.0
  0
LINE
  5
2C2
330
1F
100
AcDbEntity
  8
轮廓线
100
AcDbLine
 10
274.1046102335869
 20
280.2557961492612
 30
0.0
 11
274.1046102335868
 21
268.3811626109505
 31
0.0
  0
LINE
  5
2C3
330
1F
100
AcDbEntity
  8
轮廓线
100
AcDbLine
 10
272.1046102335869
 20
280.2557961492612
 30
0.0
 11
272.1046102335868
 21
268.3811626109505
 31
0.0
  0
LINE
  5
2C4
330
1F
100
AcDbEntity
  8
轮廓线
100
AcDbLine
 10
270.1046102335869
 20
280.2557961492612
 30
0.0
 11
270.1046102335868
 21
268.3811626109505
 31
0.0
  0
LINE
  5
2C5
330
1F
100
AcDbEntity
  8
轮廓线
100
AcDbLine
 10
268.1046102335869
 20
280.2557961492612
 30
0.0
 11
268.1046102335868
 21
268.3811626109505
 31
0.0
  0
LINE
  5
2C6
330
1F
100
AcDbEntity
  8
轮廓线
100
AcDbLine
 10
280.6046102335868
 20
251.7557961492612
 30
0.0
 11
280.6046102335868
 21
241.7557961492612
 31
0.0
  0
LINE
  5
2C8
330
1F
100
AcDbEntity
  8
轮廓线
100
AcDbLine
 10
266.1046102335868
 20
268.3811626109505
 30
0.0
 11
267.6046102335868
 21
266.8811626109505
 31
0.0
  0
LINE
  5
2C9
330
1F
100
AcDbEntity
  8
轮廓线
100
AcDbLine
 10
267.6046102335868
 20
266.8811626109505
 30
0.0
 11
267.6046102335868
 21
257.7557961492612
 31
0.0
  0
LINE
  5
2CA
330
1F
100
AcDbEntity
  8
轮廓线
100
AcDbLine
 10
270.6046102335868
 20
257.7557961492612
 30
0.0
 11
280.6046102335868
 21
251.7557961492612
 31
0.0
  0
LINE
  5
2CB
330
1F
100
AcDbEntity
  8
轮廓线
100
AcDbLine
 10
266.1046102335869
 20
280.2557961492612
 30
0.0
 11
267.6046102335869
 21
281.7557961492612
 31
0.0
  0
LINE
  5
2CC
102
{ACAD_REACTORS
330
318
102
}
330
1F
100
AcDbEntity
  8
点划线
100
AcDbLine
 10
289.6046102335868
 20
286.7281428852605
 30
0.0
 11
289.6046102335868
 21
225.2808305932252
 31
0.0
  0
LINE
  5
2CD
102
{ACAD_REACTORS
330
318
102
}
330
1F
100
AcDbEntity
  8
轮廓线
100
AcDbLine
 10
311.6046102335868
 20
279.7557961492612
 30
0.0
 11
311.6046102335869
 21
257.7557961492612
 31
0.0
  0
LINE
  5
2CE
330
1F
100
AcDbEntity
  8
轮廓线
100
AcDbLine
 10
310.6046102335868
 20
269.3811626109505
 30
0.0
 11
310.6046102335868
 21
276.7557961492613
 31
0.0
  0
LINE
  5
2CF
102
{ACAD_REACTORS
330
318
102
}
330
1F
100
AcDbEntity
  8
轮廓线
100
AcDbLine
 10
313.1046102335868
 20
280.2557961492612
 30
0.0
 11
313.1046102335868
 21
268.3811626109504
 31
0.0
  0
LINE
  5
2D0
330
1F
100
AcDbEntity
  8
轮廓线
100
AcDbLine
 10
292.1046102335868
 20
256.7035144513624
 30
0.0
 11
292.1046102335868
 21
229.7557961492612
 31
0.0
  0
LINE
  5
2D1
330
1F
100
AcDbEntity
  8
轮廓线
100
AcDbLine
 10
298.6046102335868
 20
251.7557961492612
 30
0.0
 11
298.6046102335868
 21
241.7557961492611
 31
0.0
  0
LINE
  5
2D2
330
1F
100
AcDbEntity
  8
轮廓线
100
AcDbLine
 10
285.1046102335868
 20
241.7557961492612
 30
0.0
 11
285.1046102335868
 21
251.7557961492612
 31
0.0
  0
LINE
  5
2D3
330
1F
100
AcDbEntity
  8
轮廓线
100
AcDbLine
 10
289.6046102335868
 20
229.7557961492612
 30
0.0
 11
292.1046102335868
 21
229.7557961492612
 31
0.0
  0
LINE
  5
2D8
330
1F
100
AcDbEntity
  8
轮廓线
100
AcDbLine
 10
297.3546102335869
 20
241.7557961492612
 30
0.0
 11
298.6046102335868
 21
241.7557961492612
 31
0.0
  0
LINE
  5
2D9
330
1F
100
AcDbEntity
  8
轮廓线
100
AcDbLine
 10
292.1046102335868
 20
256.7035144513624
 30
0.0
 11
305.6046102335868
 21
263.7557961492612
 31
0.0
  0
LINE
  5
2DA
330
1F
100
AcDbEntity
  8
轮廓线
100
AcDbLine
 10
298.6046102335868
 20
251.7557961492612
 30
0.0
 11
308.6046102335869
 21
257.7557961492612
 31
0.0
  0
LINE
  5
2DB
330
1F
100
AcDbEntity
  8
轮廓线
100
AcDbLine
 10
289.6046102335868
 20
269.3811626109505
 30
0.0
 11
310.6046102335868
 21
269.3811626109505
 31
0.0
  0
LINE
  5
2DC
330
1F
100
AcDbEntity
  8
轮廓线
100
AcDbLine
 10
289.6046102335868
 20
263.7557961492612
 30
0.0
 11
306.6046102335868
 21
263.7557961492612
 31
0.0
  0
LINE
  5
2DD
330
1F
100
AcDbEntity
  8
轮廓线
100
AcDbLine
 10
289.6046102335868
 20
256.7035144513624
 30
0.0
 11
292.1046102335868
 21
256.7035144513624
 31
0.0
  0
LINE
  5
2E0
330
1F
100
AcDbEntity
  8
轮廓线
100
AcDbLine
 10
311.6046102335869
 20
257.7557961492612
 30
0.0
 11
308.6046102335869
 21
257.7557961492612
 31
0.0
  0
LINE
  5
2E1
330
1F
100
AcDbEntity
  8
轮廓线
100
AcDbLine
 10
306.6046102335868
 20
263.7557961492611
 30
0.0
 11
306.6046102335868
 21
269.3811626109505
 31
0.0
  0
LINE
  5
2E2
102
{ACAD_REACTORS
330
318
102
}
330
1F
100
AcDbEntity
  8
轮廓线
100
AcDbLine
 10
311.6046102335868
 20
266.8811626109505
 30
0.0
 11
313.1046102335868
 21
268.3811626109504
 31
0.0
  0
LINE
  5
2E3
102
{ACAD_REACTORS
330
318
102
}
330
1F
100
AcDbEntity
  8
轮廓线
100
AcDbLine
 10
289.6046102335868
 20
279.7557961492612
 30
0.0
 11
311.6046102335868
 21
279.7557961492612
 31
0.0
  0
LINE
  5
2E4
330
1F
100
AcDbEntity
  8
轮廓线
100
AcDbLine
 10
289.6046102335868
 20
276.7557961492611
 30
0.0
 11
310.6046102335868
 21
276.7557961492613
 31
0.0
  0
LINE
  5
2E5
102
{ACAD_REACTORS
330
318
102
}
330
1F
100
AcDbEntity
  8
轮廓线
100
AcDbLine
 10
311.6046102335868
 20
281.7557961492612
 30
0.0
 11
313.1046102335868
 21
280.2557961492612
 31
0.0
  0
LINE
  5
2E6
330
1F
100
AcDbEntity
  8
中心线层
100
AcDbLine
 10
332.1046102335868
 20
264.7557961492612
 30
0.0
 11
332.1046102335868
 21
119.7557961492612
 31
0.0
  0
LINE
  5
2E7
102
{ACAD_REACTORS
330
30B
330
332
102
}
330
1F
100
AcDbEntity
  8
轮廓线
100
AcDbLine
 10
326.1046102335868
 20
259.7557961492612
 30
0.0
 11
326.1046102335868
 21
129.7557961492612
 31
0.0
  0
LINE
  5
2E8
102
{ACAD_REACTORS
330
2FE
330
332
102
}
330
1F
100
AcDbEntity
  8
轮廓线
100
AcDbLine
 10
338.1046102335868
 20
259.7557961492612
 30
0.0
 11
338.1046102335868
 21
129.7557961492612
 31
0.0
  0
LINE
  5
2E9
330
1F
100
AcDbEntity
  8
轮廓线
100
AcDbLine
 10
342.1046102335868
 20
251.7557961492611
 30
0.0
 11
342.1046102335868
 21
231.7557961492612
 31
0.0
  0
LINE
  5
2EA
330
1F
100
AcDbEntity
  8
轮廓线
100
AcDbLine
 10
322.1046102335868
 20
251.7557961492611
 30
0.0
 11
322.1046102335868
 21
231.7557961492612
 31
0.0
  0
LINE
  5
2EB
330
1F
100
AcDbEntity
  8
轮廓线
100
AcDbLine
 10
322.1046102335868
 20
124.7557961492611
 30
0.0
 11
342.1046102335869
 21
124.7557961492612
 31
0.0
  0
LINE
  5
2EC
330
1F
100
AcDbEntity
  8
轮廓线
100
AcDbLine
 10
322.1046102335868
 20
129.7557961492612
 30
0.0
 11
322.1046102335868
 21
124.7557961492611
 31
0.0
  0
LINE
  5
2ED
330
1F
100
AcDbEntity
  8
轮廓线
100
AcDbLine
 10
326.1046102335868
 20
129.7557961492612
 30
0.0
 11
326.1046102335868
 21
124.7557961492611
 31
0.0
  0
LINE
  5
2EE
330
1F
100
AcDbEntity
  8
轮廓线
100
AcDbLine
 10
338.1046102335868
 20
129.7557961492612
 30
0.0
 11
338.1046102335868
 21
124.7557961492612
 31
0.0
  0
LINE
  5
2EF
330
1F
100
AcDbEntity
  8
轮廓线
100
AcDbLine
 10
342.1046102335869
 20
129.7557961492612
 30
0.0
 11
342.1046102335869
 21
124.7557961492612
 31
0.0
  0
LINE
  5
2F0
330
1F
100
AcDbEntity
  8
轮廓线
100
AcDbLine
 10
327.0046102335868
 20
259.7557961492612
 30
0.0
 11
327.0046102335868
 21
231.7557961492611
 31
0.0
  0
LINE
  5
2F1
330
1F
100
AcDbEntity
  8
轮廓线
100
AcDbLine
 10
337.2046102335868
 20
259.7557961492612
 30
0.0
 11
337.2046102335868
 21
231.7557961492611
 31
0.0
  0
LINE
  5
2F2
330
1F
100
AcDbEntity
  8
轮廓线
100
AcDbLine
 10
337.2046102335868
 20
231.7557961492611
 30
0.0
 11
337.2046102335868
 21
223.7557961492612
 31
0.0
  0
LINE
  5
2F3
330
1F
100
AcDbEntity
  8
轮廓线
100
AcDbLine
 10
327.0046102335868
 20
231.7557961492611
 30
0.0
 11
327.0046102335868
 21
223.7557961492611
 31
0.0
  0
LINE
  5
2F4
330
1F
100
AcDbEntity
  8
轮廓线
100
AcDbLine
 10
326.104610233587
 20
223.7557961492611
 30
0.0
 11
338.1046102335869
 21
223.7557961492612
 31
0.0
  0
LINE
  5
2F5
330
1F
100
AcDbEntity
  8
轮廓线
100
AcDbLine
 10
342.1046102335868
 20
241.7557961492612
 30
0.0
 11
322.1046102335868
 21
241.7557961492612
 31
0.0
  0
LINE
  5
2F6
330
1F
100
AcDbEntity
  8
轮廓线
100
AcDbLine
 10
342.1046102335868
 20
251.7557961492611
 30
0.0
 11
322.1046102335868
 21
251.7557961492611
 31
0.0
  0
LINE
  5
2F7
102
{ACAD_REACTORS
330
30B
102
}
330
1F
100
AcDbEntity
  8
轮廓线
100
AcDbLine
 10
342.1046102335868
 20
231.7557961492612
 30
0.0
 11
322.1046102335868
 21
231.7557961492612
 31
0.0
  0
LINE
  5
2F8
330
1F
100
AcDbEntity
  8
轮廓线
100
AcDbLine
 10
326.1046102335868
 20
259.7557961492612
 30
0.0
 11
338.1046102335868
 21
259.7557961492612
 31
0.0
  0
LINE
  5
2F9
330
1F
100
AcDbEntity
  8
轮廓线
100
AcDbLine
 10
292.1046102335868
 20
241.7557961492612
 30
0.0
 11
277.1046102335868
 21
241.7557961492612
 31
0.0
  0
HATCH
  5
2FE
330
1F
100
AcDbEntity
  8
剖面线
100
AcDbHatch
 10
0.0
 20
0.0
 30
0.0
210
0.0
220
0.0
230
1.0
  2
ANSI31
 70
     0
 71
     1
 91
        1
 92
        7
 72
     0
 73
     1
 93
        4
 10
349.6046102335868
 20
231.7557961492612
 10
338.1046102335868
 20
231.7557961492612
 10
338.1046102335869
 20
196.7557961492612
 10
353.8729029165136
 20
196.7557961492612
 97
        4
330
254
330
2E8
330
250
330
251
 75
     0
 76
     1
 52
90.0
 41
1.5
 77
     0
 78
     1
 53
135.0
 43
0.0
 44
0.0
 45
-3.367596045400933
 46
-3.367596045400932
 79
     0
 47
0.1961214750289717
 98
        1
 10
344.4775649619399
 20
209.3537974455354
  0
HATCH
  5
30B
330
1F
100
AcDbEntity
  8
剖面线
100
AcDbHatch
 10
0.0
 20
0.0
 30
0.0
210
0.0
220
0.0
230
1.0
  2
ANSI31
 70
     0
 71
     1
 91
        1
 92
        7
 72
     1
 73
     1
 93
       11
 10
326.1046102335868
 20
231.7557961492612
 42
0.0
 10
322.1046102335868
 20
231.7557961492612
 42
0.0
 10
318.1703239477582
 20
231.7557961492612
 42
0.07937735780869856
 10
302.1046102335868
 20
238.3165093633326
 42
0.0
 10
302.1046102335868
 20
241.7557961492612
 42
0.0
 10
297.3546102335868
 20
241.7557961492612
 42
0.0
 10
297.3546102335868
 20
226.7557961492612
 42
0.0
 10
294.6046102335868
 20
226.7557961492612
 42
0.0
 10
294.6046102335868
 20
217.3748090098614
 42
-0.3703342021360415
 10
322.6046102335867
 20
184.7557961492612
 42
0.0
 10
326.1046102335868
 20
184.7557961492612
 42
0.0
 97
       11
330
2F7
330
254
330
21A
330
23C
330
23A
330
233
330
239
330
238
330
218
330
252
330
2E7
 75
     0
 76
     1
 52
90.0
 41
1.5
 77
     0
 78
     1
 53
135.0
 43
0.0
 44
0.0
 45
-3.367596045400933
 46
-3.367596045400932
 79
     0
 47
0.1229173064102349
 98
        1
 10
308.6706287765093
 20
218.967094156691
  0
HATCH
  5
310
330
1F
100
AcDbEntity
  8
剖面线
100
AcDbHatch
 10
0.0
 20
0.0
 30
0.0
210
0.0
220
0.0
230
1.0
  2
ANSI31
 70
     0
 71
     1
 91
        1
 92
        7
 72
     1
 73
     1
 93
        4
 10
319.6046102335868
 20
184.7557961492612
 42
0.0
 10
314.6046102335868
 20
184.7557961492612
 42
-0.4142135623730951
 10
289.6046102335868
 20
159.7557961492612
 42
0.0
 10
289.6046102335868
 20
154.7557961492612
 42
0.4142135623730951
 97
        4
330
215
330
216
330
21B
330
217
 75
     0
 76
     1
 52
90.0
 41
1.0
 77
     0
 78
     1
 53
135.0
 43
0.0
 44
0.0
 45
-2.245064030267288
 46
-2.245064030267288
 79
     0
 47
0.1571328066519944
 98
        1
 10
307.4467359411566
 20
164.5302544486502
  0
HATCH
  5
318
330
1F
100
AcDbEntity
  8
剖面线
100
AcDbHatch
 10
0.0
 20
0.0
 30
0.0
210
0.0
220
0.0
230
1.0
  2
ANSI31
 70
     0
 71
     1
 91
        1
 92
        7
 72
     0
 73
     1
 93
        7
 10
311.6046102335868
 20
281.7557961492612
 10
289.6046102335868
 20
281.7557961492612
 10
289.6046102335869
 20
279.7557961492612
 10
311.6046102335868
 20
279.7557961492612
 10
311.6046102335868
 20
266.8811626109505
 10
313.1046102335868
 20
268.3811626109504
 10
313.1046102335868
 20
280.2557961492613
 97
        7
330
2BA
330
2CC
330
2E3
330
2CD
330
2E2
330
2CF
330
2E5
 75
     0
 76
     1
 52
90.0
 41
0.7
 77
     0
 78
     1
 53
135.0
 43
0.0
 44
0.0
 45
-1.571544821187102
 46
-1.571544821187101
 79
     0
 47
0.05432901166743149
 98
        1
 10
304.2966301927273
 20
280.586036414723
  0
HATCH
  5
332
330
1F
100
AcDbEntity
  8
剖面线
100
AcDbHatch
 10
0.0
 20
0.0
 30
0.0
210
0.0
220
0.0
230
1.0
  2
ANSI31
 70
     0
 71
     1
 91
        3
 92
        7
 72
     1
 73
     1
 93
        8
 10
326.1046102335869
 20
184.7557961492612
 42
0.0
 10
322.6046102335868
 20
184.7557961492612
 42
-0.414213562373095
 10
289.6046102335868
 20
151.7557961492612
 42
0.0
 10
289.6046102335867
 20
114.7557961492612
 42
0.0
 10
309.6046102335868
 20
114.7557961492612
 42
0.0
 10
311.8260765626885
 20
128.0845941238717
 42
-0.3666293647016127
 10
313.7988644103528
 20
129.7557961492612
 42
0.0
 10
326.1046102335868
 20
129.7557961492612
 42
0.0
 97
        8
330
252
330
218
330
21B
330
219
330
247
330
242
330
249
330
2E7
 92
        7
 72
     1
 73
     1
 93
       10
 10
354.116805355538
 20
194.7557961492612
 42
0.0
 10
338.1046102335868
 20
194.7557961492612
 42
0.0
 10
338.1046102335868
 20
129.7557961492612
 42
0.0
 10
350.4103560568207
 20
129.7557961492612
 42
-0.3666293647016002
 10
352.383143904485
 20
128.0845941238719
 42
0.0
 10
354.6046102335869
 20
114.7557961492612
 42
0.0
 10
371.1046102335868
 20
114.7557961492612
 42
0.0
 10
371.1046102335868
 20
149.7557961492612
 42
0.0
 10
361.3755250070563
 20
149.7557961492612
 42
-0.3791008518982725
 10
359.3902332519553
 20
151.5136873986391
 42
0.0
 97
       10
330
24F
330
2E8
330
249
330
243
330
248
330
23F
330
245
330
240
330
24A
330
23E
 92
        7
 72
     1
 73
     1
 93
        7
 10
409.6046102335868
 20
143.7557961492613
 42
0.4142135623730868
 10
406.6046102335868
 20
146.7557961492612
 42
0.0
 10
399.6046102335867
 20
146.7557961492612
 42
0.0
 10
399.6046102335867
 20
149.7557961492612
 42
0.0
 10
388.1046102335868
 20
149.7557961492612
 42
0.0
 10
388.1046102335868
 20
114.7557961492612
 42
0.0
 10
409.6046102335867
 20
114.7557961492612
 42
0.0
 97
        7
330
24E
330
24C
330
24D
330
240
330
244
330
23F
330
24B
 75
     0
 76
     1
 52
0.0
 41
1.5
 77
     0
 78
     1
 53
45.0
 43
0.0
 44
0.0
 45
-3.367596045400932
 46
3.367596045400933
 79
     0
 47
0.3324829873154623
 98
        3
 10
313.511977124149
 20
146.8117189489811
 10
348.1226856104696
 20
152.4639298043929
 10
396.0452045906605
 20
131.5175011866091
  0
HATCH
  5
338
330
1F
100
AcDbEntity
  8
剖面线
100
AcDbHatch
 10
0.0
 20
0.0
 30
0.0
210
0.0
220
0.0
230
1.0
  2
ANSI31
 70
     0
 71
     1
 91
        1
 92
        7
 72
     1
 73
     1
 93
        5
 10
289.6046102335868
 20
214.7557961492612
 42
0.0
 10
289.6046102335868
 20
209.7557961492612
 42
-1.0
 10
289.6046102335868
 20
159.7557961492612
 42
0.0
 10
289.6046102335868
 20
154.7557961492612
 42
0.4142135623730951
 10
319.6046102335868
 20
184.7557961492612
 42
0.4142135623730945
 97
        3
330
21B
330
216
330
217
 75
     0
 76
     1
 52
0.0
 41
1.0
 77
     0
 78
     1
 53
45.0
 43
0.0
 44
0.0
 45
-2.245064030267288
 46
2.245064030267288
 79
     0
 47
0.1740185416419818
 98
        1
 10
302.0518384059784
 20
209.033842985652
  0
LINE
  5
33A
330
1F
100
AcDbEntity
  8
轮廓线
100
AcDbLine
 10
310.6046102335868
 20
269.3811626109505
 30
0.0
 11
311.6046102335868
 21
269.3811626109505
 31
0.0
  0
LINE
  5
33B
330
1F
100
AcDbEntity
  8
轮廓线
100
AcDbLine
 10
310.6046102335868
 20
276.7557961492613
 30
0.0
 11
311.6046102335868
 21
276.7557961492614
 31
0.0
  0
HATCH
  5
34E
330
1F
100
AcDbEntity
  8
剖面线
100
AcDbHatch
 10
0.0
 20
0.0
 30
0.0
210
0.0
220
0.0
230
1.0
  2
ANSI31
 70
     0
 71
     0
 91
        1
 92
        7
 72
     1
 73
     1
 93
       17
 10
308.6046102335869
 20
257.7557961492612
 42
0.0
 10
311.6046102335868
 20
257.7557961492612
 42
0.0
 10
311.6046102335868
 20
269.3811626109505
 42
0.0
 10
310.6046102335868
 20
269.3811626109505
 42
0.0
 10
306.6046102335868
 20
269.3811626109505
 42
0.0
 10
306.6046102335868
 20
263.7557961492612
 42
0.0
 10
305.6046102335868
 20
263.7557961492612
 42
0.0
 10
292.1046102335868
 20
256.7035144513624
 42
0.0
 10
292.1046102335868
 20
229.7557961492612
 42
0.0
 10
289.6046102335868
 20
229.7557961492612
 42
0.0
 10
289.6046102335868
 20
217.7557961492612
 42
-0.03804357315853858
 10
294.6046102335868
 20
217.3748090098614
 42
0.0
 10
294.6046102335868
 20
226.7557961492612
 42
0.0
 10
297.3546102335868
 20
226.7557961492612
 42
0.0
 10
297.3546102335868
 20
241.7557961492611
 42
0.0
 10
298.6046102335868
 20
241.7557961492612
 42
0.0
 10
298.6046102335868
 20
251.7557961492612
 42
0.0
 97
        0
 75
     0
 76
     1
 52
0.0
 41
0.7
 77
     0
 78
     1
 53
45.0
 43
0.0
 44
0.0
 45
-1.571544821187101
 46
1.571544821187102
 79
     0
 47
0.2130915437430637
 98
        1
 10
295.9328262778532
 20
253.3438581996111
  0
VIEWPORT
  5
353
330
5E
100
AcDbEntity
 67
     1
  8
0
100
AcDbViewport
 10
133.3499908447266
 20
101.5999970436096
 30
0.0
 40
420.6540395483951
 41
228.4221935424805
 68
     1
 69
     1
 12
133.3499908447266
 22
101.5999970436096
 13
0.0
 23
0.0
 14
10.0
 24
10.0
 15
10.0
 25
10.0
 16
0.0
 26
0.0
 36
1.0
 17
0.0
 27
0.0
 37
0.0
 42
50.0
 43
0.0
 44
0.0
 45
228.4221935424805
 50
0.0
 51
0.0
 72
   100
 90
    32800
  1

281
     0
 71
     1
 74
     0
110
0.0
120
0.0
130
0.0
111
1.0
121
0.0
131
0.0
112
0.0
122
1.0
132
0.0
 79
     0
146
0.0
348
0
340
0
345
0
346
0
  0
VIEWPORT
  5
355
330
5E
100
AcDbEntity
 67
     1
  8
轮廓线
100
AcDbViewport
 10
133.3499939441681
 20
101.5999939441681
 30
0.0
 40
213.3599903106689
 41
162.5599903106689
 68
     1
 69
     2
 12
298.5129588163663
 22
189.2027615384276
 13
0.0
 23
0.0
 14
10.0
 24
10.0
 15
10.0
 25
10.0
 16
0.0
 26
0.0
 36
1.0
 17
0.0
 27
0.0
 37
0.0
 42
50.0
 43
0.0
 44
0.0
 45
231.1214651165842
 50
0.0
 51
0.0
 72
   100
 90
    32864
  1

281
     0
 71
     1
 74
     0
110
0.0
120
0.0
130
0.0
111
1.0
121
0.0
131
0.0
112
0.0
122
1.0
132
0.0
 79
     0
146
0.0
348
0
340
0
345
0
346
0
  0
ENDSEC
  0
SECTION
  2
OBJECTS
  0
DICTIONARY
  5
C
330
0
100
AcDbDictionary
281
     1
  3
ACAD_GROUP
350
D
  3
ACAD_LAYOUT
350
1A
  3
ACAD_MLINESTYLE
350
17
  3
ACAD_PLOTSETTINGS
350
19
  3
ACAD_PLOTSTYLENAME
350
E
  3
AcDbVariableDictionary
350
67
  0
DICTIONARY
  5
D
102
{ACAD_REACTORS
330
C
102
}
330
C
100
AcDbDictionary
281
     1
  0
ACDBDICTIONARYWDFLT
  5
E
102
{ACAD_REACTORS
330
C
102
}
330
C
100
AcDbDictionary
281
     1
  3
Normal
350
F
100
AcDbDictionaryWithDefault
340
F
  0
ACDBPLACEHOLDER
  5
F
102
{ACAD_REACTORS
330
E
102
}
330
E
  0
DICTIONARY
  5
17
102
{ACAD_REACTORS
330
C
102
}
330
C
100
AcDbDictionary
281
     1
  3
Standard
350
18
  0
MLINESTYLE
  5
18
102
{ACAD_REACTORS
330
17
102
}
330
17
100
AcDbMlineStyle
  2
STANDARD
 70
     0
  3

 62
   256
 51
90.0
 52
90.0
 71
     2
 49
0.5
 62
   256
  6
BYLAYER
 49
-0.5
 62
   256
  6
BYLAYER
  0
DICTIONARY
  5
19
102
{ACAD_REACTORS
330
C
102
}
330
C
100
AcDbDictionary
281
     1
  0
DICTIONARY
  5
1A
102
{ACAD_REACTORS
330
C
102
}
330
C
100
AcDbDictionary
281
     1
  3
Model
350
22
  3
布局1
350
5A
  3
布局2
350
5F
  0
LAYOUT
  5
22
102
{ACAD_REACTORS
330
1A
102
}
330
1A
100
AcDbPlotSettings
  1

  2
none_device
  4
ANSI_A_(8.50_x_11.00_Inches)
  6

 40
6.349999904632568
 41
19.04999923706055
 42
6.350006103515625
 43
19.04998779296875
 44
215.8999938964844
 45
279.3999938964844
 46
0.0
 47
0.0
 48
0.0
 49
0.0
140
0.0
141
0.0
  6

142
1.0
143
57.07986212157697
 70
 11952
 72
     0
 73
     1
 74
     0
  7

 75
     0
147
0.01751931351673652
148
-2282.040442273535
149
2.561166666666503
100
AcDbLayout
  1
Model
 70
     1
 71
     0
 10
0.0
 20
0.0
 11
12.0
 21
9.0
 12
0.0
 22
0.0
 32
0.0
 14
0.0
 24
0.0
 34
0.0
 15
0.0
 25
0.0
 35
0.0
146
0.0
 13
0.0
 23
0.0
 33
0.0
 16
1.0
 26
0.0
 36
0.0
 17
0.0
 27
1.0
 37
0.0
 76
     0
330
1F
  0
LAYOUT
  5
5A
102
{ACAD_REACTORS
330
1A
102
}
330
1A
100
AcDbPlotSettings
  1

  2
none_device
  4
Letter_(8.50_x_11.00_Inches)
  6

 40
6.349999904632568
 41
6.349999904632568
 42
6.350006103515625
 43
6.350006103515625
 44
215.8999938964844
 45
279.3999938964844
 46
0.0
 47
0.0
 48
0.0
 49
0.0
140
0.0
141
0.0
  6

142
1.0
143
1.0
 70
   688
 72
     1
 73
     1
 74
     5
  7

 75
    16
147
1.0
148
0.0
149
0.0
100
AcDbLayout
  1
布局1
 70
     1
 71
     1
 10
-6.350006103515625
 20
-6.349999904632568
 11
273.0499877929688
 21
209.5499939918518
 12
0.0
 22
0.0
 32
0.0
 14
26.66999878883362
 24
20.31999878883363
 34
0.0
 15
240.0299890995026
 25
182.8799890995026
 35
0.0
146
0.0
 13
0.0
 23
0.0
 33
0.0
 16
1.0
 26
0.0
 36
0.0
 17
0.0
 27
1.0
 37
0.0
 76
     0
330
59
331
74
  0
LAYOUT
  5
5F
102
{ACAD_REACTORS
330
1A
102
}
330
1A
100
AcDbPlotSettings
  1

  2
none_device
  4
Letter_(8.50_x_11.00_Inches)
  6

 40
6.349999904632568
 41
6.349999904632568
 42
6.350006103515625
 43
6.350006103515625
 44
215.8999938964844
 45
279.3999938964844
 46
0.0
 47
0.0
 48
0.0
 49
0.0
140
0.0
141
0.0
  6

142
1.0
143
1.0
 70
   688
 72
     1
 73
     1
 74
     5
  7

 75
    16
147
1.0
148
0.0
149
0.0
100
AcDbLayout
  1
布局2
 70
     1
 71
     2
 10
-6.350006103515625
 20
-6.349999904632568
 11
273.0499877929688
 21
209.5499939918518
 12
0.0
 22
0.0
 32
0.0
 14
26.66999878883362
 24
20.31999878883363
 34
0.0
 15
240.0299890995026
 25
182.8799890995026
 35
0.0
146
0.0
 13
0.0
 23
0.0
 33
0.0
 16
1.0
 26
0.0
 36
0.0
 17
0.0
 27
1.0
 37
0.0
 76
     0
330
5E
331
353
  0
DICTIONARY
  5
67
102
{ACAD_REACTORS
330
C
102
}
330
C
100
AcDbDictionary
281
     1
  3
DIMASSOC
350
68
  3
HIDETEXT
350
6C
  3
SORTENTS
350
358
  0
DICTIONARYVAR
  5
68
102
{ACAD_REACTORS
330
67
102
}
330
67
100
DictionaryVariables
280
     0
  1
2
  0
DICTIONARYVAR
  5
6C
102
{ACAD_REACTORS
330
67
102
}
330
67
100
DictionaryVariables
280
     0
  1
1
  0
DICTIONARYVAR
  5
358
102
{ACAD_REACTORS
330
67
102
}
330
67
100
DictionaryVariables
280
     0
  1
1
  0
ENDSEC
  0
SECTION
  2
THUMBNAILIMAGE
 90
    18627
310
BF4800000201030100005000000002530100005C480000000000000000000000000000000000000000000000000000000000000000000000000000000000000000000000000000000000000000000000000000000000000000000000000000000000000000000028000000B400000061000000010008000000000034440000
310
00000000000000000001000000000000FFFFFF00FFFFFF0000000000FFFFFF00FFFFFF00FFFFFF00FFFFFF00FFFFFF00FFFFFF00FFFFFF00FFFFFF00330000006600000099000000CC000000FF00000000330000333300006633000099330000CC330000FF33000000660000336600006666000099660000CC660000FF6600
310
0000990000339900006699000099990000CC990000FF99000000CC000033CC000066CC000099CC0000CCCC0000FFCC000000FF000033FF000066FF000099FF0000CCFF0000FFFF000000003300330033006600330099003300CC003300FF00330000333300333333006633330099333300CC333300FF333300006633003366
310
33006666330099663300CC663300FF66330000993300339933006699330099993300CC993300FF99330000CC330033CC330066CC330099CC3300CCCC3300FFCC330000FF330033FF330066FF330099FF3300CCFF3300FFFF330000006600330066006600660099006600CC006600FF00660000336600333366006633660099
310
336600CC336600FF33660000666600336666006666660099666600CC666600FF66660000996600339966006699660099996600CC996600FF99660000CC660033CC660066CC660099CC6600CCCC6600FFCC660000FF660033FF660066FF660099FF6600CCFF6600FFFF660000009900330099006600990099009900CC009900
310
FF00990000339900333399006633990099339900CC339900FF33990000669900336699006666990099669900CC669900FF66990000999900339999006699990099999900CC999900FF99990000CC990033CC990066CC990099CC9900CCCC9900FFCC990000FF990033FF990066FF990099FF9900CCFF9900FFFF99000000CC
310
003300CC006600CC009900CC00CC00CC00FF00CC000033CC003333CC006633CC009933CC00CC33CC00FF33CC000066CC003366CC006666CC009966CC00CC66CC00FF66CC000099CC003399CC006699CC009999CC00CC99CC00FF99CC0000CCCC0033CCCC0066CCCC0099CCCC00CCCCCC00FFCCCC0000FFCC0033FFCC0066FF
310
CC0099FFCC00CCFFCC00FFFFCC000000FF003300FF006600FF009900FF00CC00FF00FF00FF000033FF003333FF006633FF009933FF00CC33FF00FF33FF000066FF003366FF006666FF009966FF00CC66FF00FF66FF000099FF003399FF006699FF009999FF00CC99FF00FF99FF0000CCFF0033CCFF0066CCFF0099CCFF00CC
310
CCFF00FFCCFF0000FFFF0033FFFF0066FFFF0099FFFF00CCFFFF0000000000FFFFFF000D0D0D001A1A1A00282828003535350043434300505050005D5D5D006B6B6B00787878008686860093939300A1A1A100AEAEAE00BBBBBB00C9C9C900D6D6D600E4E4E400F1F1F10000000000FFFFFF00FFFFFF00FFFFFF00FFFFFF00
310
FFFFFF00FFFFFF00FFFFFF00FFFFFF00FFFFFF00FFFFFF0000000000000000000000000000000000000000000000000000000000000000000000000000000000000000000000000000000000000000000000000000000000000000000000000000000000000000000000000000000000000000000000000000000000000000
310
00000000000000000000000000000000000000000000000000000000000000000000000000000000000000000000000000000000000000000000000000000000000000000000000000000000000000000000000000000000000000000000000000000000000000000000000000000000000000000000000000000000000000
310
00000000000000000000000000000000000000000000000000000000000000000000000000000000000000000000000000000000000000000000000000000000000000000000000000000000000000000000000000000000000000000000000000000000000000000000000000000000000000000000000000000000000000
310
00000000000000000000000000000000000000000000000000000000000000000000000000000000000000000000000000000000000000000000000000000000000000000000000000000000000000000000000000000000000000000000000000000000000000000000000000000000000000000000000000000000000000
310
00000000000000000000000000000000000000000000000000000000000000000000000000000000000000000000000000000000000000000000000000000000000000000000000000000000000000000000000000000000000000000000000000000000000000000000000000000000000000000000000000000000000000
310
00000000000000000000000000000000000000000000000000000000000000000000000000000000000000000000000000000000000000000000000000000000000000000000000000000000000000000000000000000000000000000000000000000000000000000000000000000000000000000000000000000000000000
310
00000000000000000000000000000000000000000000000000000000000000000000000000000000000000000000000000000000000000000000000000000000000000000000000000000000000000000000000000000000000000000000000000000000000000000000000000000000000000000000000000000000000000
310
00000000000000000000000000000000000000000000000000000000000000000000000000000000000000000000000000000000000000000000000000000000000000000000000000000000000000000000000000000000000000000000000000000000000000000000000000000000000000000000000000000000000000
310
00000000000000000000000000000000000000000000000000000000000000000000000000000000000000000000000000000000000000000000000000000000000000000000000000000000000000000000000000000000000000000000000000000000000000000000000000000000000000000000000000000000000000
310
00000000000000000000000000000000000000000000000000000000000000000000000000000000000000000000000000000000000000000000000000000000000000000000000000000000000000000000000000000000000000000000000000000000000000000000000000000000000000000000000000000000000000
310
00000000000000000000000000000000000000000000000000000000000000000000000000000000000000000000000000000000000000000000000000000000000000000000000000000000000000000000000000000000000000000000000000000000000000000000000000000000000000000000000000000000000000
310
00000000000000000000000000000000000000000000000000000000000000000000000000000000000000000000000000000000000000000000000000000000000000000000000000000000000000000000000000000000000000000000000000000000000000000000000000000000000000000000000000000000000000
310
00000000000000000000000000000000000000000000000000000000000000000000000000000000000000000000000000000000000000000000000000000000000000000000000000000000000000000000000000000000000000000000000000000000000000000000000000000000000000000000000000000000000000
310
00000000000000000000000000000000000000000000000000000000000000000000000000000000000000000000000000000000000000000000000000000000000000000000000000000000000000000000000000000000000000000000000000000000000000000000000000000000000000000000000000000000000000
310
00000000000000000000000000000000000000000000000000000000000000000000000000000000000000000000000000000000000000000000000000000000000000000000000000000000000000000000000000000000000000000000000000000000000000000000000000000000000000000000000000000000000000
310
00000000000000000000000000000000000000000000000000000000000000000000000000000000000000000000000000000000000000000000000000000000000000000000000000000000000000000000000000000000000000000000000000000000000000000000000000000000000000000000000000000000000000
310
0000000000000000000000000000000000000000000000000000BE0000000000000000000000000000000000BE000000000000000000000000000000BE000000000000000000000000000000BE0000000000000000000000000000000000BE0000000000000000000000000000000000000000000000000000000000000000
310
0000000000000000000000000000000000000000000000000000000000000000000000000000000000000000000000000000000000000000000000000000000000000000F5F5F5F5F5F5F5F5F5F5F5BEF5F5F5F5F5F5F5F5F5F500000000000000BE00000000000000F5F5F5F5F5F5F5F5BEF5F5F5F5F5F5F5000000000000
310
0000BE00000000000000F5F5F5F5F5F5F5F5F5F5F5F5F5F5F5F5F5F5F5F5F5F500000000000000000000000000000000000000000000000000000000000000000000000000000000000000000000000000000000000000000000000000000000000000000000000000000000000000000000000000000000F5F5F5F5F5F5F5
310
F5F5F5F5F5BEF5F5F5F5F5F5F5F5F5F5F5F5F5F5F5F5F5F5F5F5F5F5F5F5F5F5F5F5F5F5F5F5F5BEF5F520F520F5F5F5F5F5F5F5F5F5F5F5F5F5F5F5F5F5F5F520F5F520F520F5F5F5F5F5F5F520F520F5F520F5F5F50000000000000000000000000000000000000000000000000000000000000000000000000000000000
310
00000000000000000000000000000000000000000000000000000000000000000000000000000000000000000000F5F5F5F5F5F5F5F5F5F5F5F5BEF5F5F5F5F5F5F5F5F5F5F5F5F5F5F5F5F5F5F5F5F5F5F5F5F5F5F5F5F5F5F5F5F5BE20F5F520F520F5F5F5F5F5F5F5F5F5F5F5F5F5F5F5F5F5F5F520F5F520F5F5F5F5F5
310
F5F5F5F520F520F5F520F5F5000000000000000000000000000000000000000000000000000000000000000000000000000000000000000000000000000000000000000000000000000000000000000000000000000000000000000000000000000000F5F5F5000000000000000000BE000000000000000000F5F5F5F5F5F5
310
F5F5F5F5F5F5F5F5F5F5F500000000000000BE0020000020F520F5F5F5F5F5F5F5F5F5F5F5F5F5F5F5F520F500200020F5F50000BE00F520F50020002000F520F50000000000000000000000000000000000000000000000000000000000000000000000000000000000000000000000000000000000000000000000000000
310
00000000000000000000000000000000000000000000000000F5F5F5000000000000000000BE0000000000000000000000000000000000BE000000000000000000000000000000BE000020000020F520F50000F5F5F5F5F5F5F5F5F500F5F5F520000020F520F50000BE00F5F5200000200020F5F5F5000000000000000000
310
000000000000000000000000000000000000000000000000000000000000000000000000000000000000000000000000000000000000000000000000000000000000000000000000000000000000F5F5F5000000000000000000BE0000000000000000000000000000000000BE000000000000000000000000000000BE2000
310
0020000020F5F500F5F5F5F5F5F5F5F5F5F5F5F5F5200020000020F5F50000BE00F520F5200000200020F5F50000000000000000000000000000000000000000000000000000000000000000000000000000000000000000000000000000000000000000000000000000000000000000000000000000000000000000000000
310
00000000F5F5F5000000000000000000000000000000000000000000000000000000BE000000000000000000000000000000BE002000002000F520F5F5F5F5F5F5F5F5F5F5F5F5F5F5F5F520002000F520F500000000F5F5200020000020F520F5000000000000000000000000000000000000000000000000000000000000
310
000000000000000000000000000000000000000000000000000000000000000000000000000000000000000000000000000000000000000000F5F5F5000000000000000000BE0000000000000000000000000000000000BE000000000000000000000000000000BE200020000020F5F520F520F52020F5F5F520F5F520F520
310
F500200020F5F5F50000BE00F5F5F5200020000020F5F5000000000000000000000000000000000000000000000000000000000000000000000000000000000000000000000000000000000000000000000000000000000000000000000000000000000000000000000000000000F5F5F5000000000000000000BE00000000
310
00000000000000000000000000BE000000000000000000000000000000BE00200020000020F5F520F520F5F5F5F5F5F520F5F520F5200000200020F5F50000BE00F520F50020002000F520F5000000000000000000000000000000000000000000000000000000000000000000000000000000000000000000000000000000
310
000000000000000000000000000000000000000000000000000000000000000000000000F5F5F5000000000000000000BE0000000000000000000000000000000000BE000000000000000000000000000000BE00002000200000200000200020F5F5BEF520F5200000200020000020F520F50000BE00F5F5200000200020F5
310
F5F5000000000000000000000000000000000000000000000000000000000000000000000000000000000000000000000000000000000000000000000000000000000000000000000000000000000000000000000000000000F5F5F5000000000000000000BE0000000000000000000000000000000000BE00000000000000
310
0000000000000000BE200000200020000020000020F520F5BEF5F52000200000200020000020F5F50000BE00F520F5200020000020F5F5000000000000000000000000000000000000000000000000000000000000000000000000000000000000000000000000000000000000000000000000000000000000000000000000
310
000000000000000000000000000000F5F5F5000000000000000000BE0000000000000000000000000000000000BE0000000000000000000000000000F5BE00200000200020200020000020F5F5BEF5F5F5200020000020002000F520F50000BE00F5F5200020002000F520F500000000000000000000000000000000000000
310
0000000000000000000000000000000000000000000000000000000000000000000000000000000000000000000000000000000000000000000000000000000000000000F5F5F5F5F5F5F5F5F5F5F5F5BEF5F5F5F5F5F5F5F5F5F5F5F50000000000BE000000000000000000F5F5F5F5F5F5BE200020000020000020002000
310
F520F5BEF520F5002000200000200020F5F5F50000BE00F5F5F5200020F520F5F5F5000000000000000000000000000000000000000000000000000000000000000000000000000000000000000000000000000000000000000000000000000000000000000000000000000000000000000000000000000000F5F5F5F5F5F5
310
F5F5F5F5F5F5BEF5F5F5F5F5F5F5F5F5F5F5F5F500000000BE00000000000000F5F5F5F5F5F5F5F5F5002000200000200000200020F5F5F5BEF5F5200000200020F5F520F520F5F5F5F5F5F5F520F5F520F520F520F5F500000000000000000000000000000000000000000000000000000000000000000000000000000000
310
0000000000000000000000000000000000000000000000000000000000000000000000000000000000000000000000F5F5F5F5F5F5F5F5F5F5F5F5BEF5F5F5F5F5F5F5F5F5F5F5F5F500000000BE0000000000F5F5F5F5F5F5F5F5F5F5F5F5F5F5F5F50000200000200020F5F5BEF520F5200000200020F5F520F520F5F5F5
310
F5F5F5F520F5F520F5F5F5F5000000000000000000000000000000000000000000000000000000000000000000000000000000000000000000000000000000000000000000000000000000000000000000000000000000000000000000000000000000000000000000F5F5F5F5F5F5F5BEF5F5F5F5F5F5F5F5F5F5F5F5F500
310
000000BE00000000F5F5F5F5F5F5F5F5F5F5F5F5F5F5F5F5F5F5000020000020F520F5BEF5F5200020000020F520F5F5F5F5F5F5F5F5F5F5F5F5F5F5F5000000000000000000000000000000000000000000000000000000000000000000000000000000000000000000000000000000000000000000000000000000000000
310
0000000000000000000000000000000000000000000000000000000000000000000000000000BE000000000000F5F5F500F5F5F500000000BE000000F5F5F5F5F5F5F5F5F5F5F5F5F5F5F5F5F5F5F5F5200020000020F5F5BEF5F5F5200020000020F5F5000000000000BE0000000000000000000000000000000000000000
310
0000000000000000000000000000000000000000000000000000000000000000000000000000000000000000000000000000000000000000000000000000000000000000000000000000000000000000000000000000000000000000000000000000F5F5F500F5F5F500000000BE0000F5F5F5F5F5F5F5F5F5F5F5F5F5BE20
310
F520F5F5F5F5F5F5002000F520F5BEF520F50020002000F520F50000000000000000000000000000000000000000000000000000000000000000000000000000000000000000000000000000000000000000000000000000000000000000000000000000000000000000000000000000000000000000000000000000000000
310
000000000000000000000000000000000000000000000000F5F5F500F5F5F500000000BE00F5F5F5F5F5F5F5F5F5F5F50000F520F520F52020F5F5F5F5F50020F5F5F5BEF5F5200000200020F5F5F5000000000000000000000000000000000000000000000000000000000000000000000000000000000000000000000000
310
000000000000000000000000000000000000000000000000000000000000000000000000000000000000000000000000000000000000000000000000000000000000000000000000000000000000F5F5F5F5F5F500000000BE00F5F5F5F5F5F5F5F5F5F500000000BEF5F5F5F52020F5F5F5F5F50020F5F5BEF520F5200000
310
200020F5F50000000000000000000000000000000000000000000000000000000000000000000000000000000000000000000000000000000000000000000000000000000000000000000000000000000000000000000000000000000000000000000000000000000000000000000000000000000000000000000000000000
310
00000000F5F5F5F5F5F500000000BEF5F5F5F5F5F5F5F5F5F50000000000BE0000F5F5F5F520F5F5F5F520F520F5BEF5F5200020200020F5F500000000000000000000000000000000000000000000000000000000000000000000000000000000000000000000000000000000000000000000000000000000000000000000
310
000000000000000000000000000000000000000000000000000000000000000000000000000000000000000000000000000000000000000000F5F5F5F5F5F500000000BEF5F5F5F5F5F5F5F500000000000000BE000000F5F5F5F520F5F5F5F520F5F5BEF5F5F520000020F520F50000000000000000000000000000000000
310
0000000000000000000000000000000000000000000000000000000000000000000000000000000000000000000000000000000000000000000000000000000000000000000000000000000000000000000000000000000000000000000000000000000000000000000000000000F5F5F500F5F5F5000000BEF5F5F5F5F5F5
310
F50000000000000000BE0000000000F5F52020F5F5F5F520F5BEF520F50020000020F5F500000000000000000000000000000000000000000000000000000000000000000000000000000000000000000000000000000000000000000000000000000000000000000000000000000000000000000000000000000000000000
310
000000000000000000000000000000000000000000000000000000000000000000000000F5F5F500F5F5F5000000F5F5F5F5F5F5F5F50000000000000000000000000000F5F5F520F5F5F5F5F5F5BEF5F52000002000F520F50000000000000000000000000000000000000000000000000000000000000000000000000000
310
0000000000000000000000000000000000000000000000000000000000000000000000000000000000000000000000000000000000000000000000000000000000000000000000000000000000000000000000000000000000F5F5F500F5F5F5000000BEF5F5F5F5F5F5000000000000000000BE000000000000F5F5F520F5
310
F5F5F5F5BEF520F520000020F5F5F500000000000000000000000000000000000000000000000000000000000000000000000000000000000000000000000000000000000000000000000000000000000000000000000000000000000000000000000000000000000000000000000000000000000000000000000000000000
310
000000000000000000000000000000F5F5F500F5F5F5000000BEF5F5F5F5F5F5000000000000000000BE00000000000000F520F5F5F5F520F5BEF5F5200020000020F5F50000000000000000000000000000000000000000000000000000000000000000000000000000000000000000000000000000000000000000000000
310
0000000000000000000000000000000000000000000000000000000000000000000000000000000000000000000000000000000000000000000000000000000000000000F5F5F500F5F5F50000F5F5F5F5F5F5F5F5000000000000000000BE00000000000000F5F520F5F5F5F5F5F5F5F5F520002000F520F5000000000000
310
0000000000000000000000000000000000000000000000000000000000000000000000000000000000000000000000000000000000000000000000000000000000000000000000000000000000000000000000000000000000000000000000000000000000000000000000000000000000000000000000000000F5F5F5F5F5
310
F500F5F5F5F5F5F5F5F5F5BEBEBEBEBEBEBEBEBEBEBEBEBEBEBEBEBEF520F5F5F5F520F5F5F520F500200020F5F5F50000000000000000000000000000000000000000000000000000000000000000000000000000000000000000000000000000000000000000000000000000000000000000000000000000000000000000
310
000000000000000000000000000000000000000000000000000000000000000000000000000000000000000000000000F5F5F5F5F5F500F5F5F5F5F5F5F5F5F5000000000000000000BE00000000000000F52020F5F5F5F5F5F5F5F520000020F520F500000000000000000000000000000000000000000000000000000000
310
0000000000000000000000000000000000000000000000000000000000000000000000000000000000000000000000000000000000000000000000000000000000000000000000000000000000000000000000000000000000000000000000000000000000F5F5F5F5F5F500F5F5F5F5F5F5F5F5F5000000000000000000BE
310
00000000000000F5F520F5F5F5F5F5F5F520F520000020F5F5000000000000000000000000000000000000000000000000000000000000000000000000000000000000000000000000000000000000000000000000000000000000000000000000000000000000000000000000000000000000000000000000000000000000
310
000000000000000000000000000000000000000000000000000000F5F5F5F5F5F5F5F5F5F5F5F5F5F5F5F5000000000000000000BE000000000000F5F520F5F5F5F5F5F5F5F5F520F520F5F520F500000000000000000000000000000000000000000000000000000000000000000000000000000000000000000000000000
310
0000000000000000000000000000000000000000000000000000000000000000000000000000000000000000000000000000000000000000000000000000000000000000000000000000000000000000F5F5F5F5F5F5F5F5F5F5F5F5F5F5F5F5F50000000000000000BE000000000000F520F520F5F5F5F5F5F5F5F5F520F5
310
20F5F5F5000000000000000000000000000000000000000000000000000000000000000000000000000000000000000000000000000000000000000000000000000000000000000000000000000000000000000000000000000000000000000000000000000000000000000000000000000000000000000000000000000000
310
000000000000F5F5F5F5F5F5F5F5F5F5F5F5F5F5F5F5F50000000000000000BE000000000000F52020F5F5F5F5F5F5F5F5F5F5F5F5F5F5F5F500000000000000000000000000000000000000000000000000000000000000000000000000000000000000000000000000000000000000000000000000000000000000000000
310
0000000000000000000000000000000000000000000000000000000000000000000000000000000000000000000000000000000000000000000000F5F5F5F5F5F5F5F5F5BEF5F5F5F5F5F5F5F500000000000000BE0000000000F520F5F5F5F5F5F5F5F5BEF5F5F5F520F520F5F50000000000000000000000000000000000
310
00000000000000000000000000000000000000000000000000000000000000000000000000000000000000000000000000000000000000000000000000000000000000000000000000000000000000000000000000000000000000000000000000000000000000000000000000000000F5F5F500F5F5F5F500BEF5F5F5F5F5
310
F5F5F5F5F50000000000BE0000F5F5F520F520F5F5F5F5F5F5F5BEF5F5F5200020F5F5F500000000000000000000000000000000000000000000000000000000000000000000000000000000000000000000000000000000000000000000000000000000000000000000000000000000000000000000000000000000000000
310
0000000000000000000000000000000000000000000000000000000000000000000000000000F5F5F50000F5F5F500BE00F5F5F5F5F5F5F5F5F5F500000000BEF5F5F52020F52020F5F5F500F5F5F5BEF5F5F50020F520F5F50000000000000000000000000000000000000000000000000000000000000000000000000000
310
00000000000000000000000000000000000000000000000000000000000000000000000000000000000000000000000000000000000000000000000000000000000000000000000000000000000000000000000000000000000000F5F5F50000F5F5F5F5BE00F5F5F5F5F5F5F5F5F5F5F50000F520F52020F52020F5F5F5F5
310
0000F5F5F5BEF5F5F5200020F5F50000000000000000000000000000000000000000000000000000000000000000000000000000000000000000000000000000000000000000000000000000000000000000000000000000000000000000000000000000000000000000000000000000000000000000000000000000000000
310
0000000000000000000000000000000000F5F5F50000F5F5F5F5F50000F5F5F5F5F5F5F5F5F5F5F5F5F5BE20F520F5F5F5F5F5F5000020F5F5F5BEF5F5F50020F5F5F5000000000000000000000000000000000000000000000000000000000000000000000000000000000000000000000000000000000000000000000000
310
00000000000000000000000000000000000000000000000000000000000000000000000000000000000000000000000000000000000000000000000000000000000000000000F5F5F5000000F5F5F5F5000000F5F5F5F5F5F5F5F5F5F5F5F5F5F5F5F5F5F5F5F5F500002000F5F5F5BEF5F5F52000F520F500000000000000
310
00000000000000000000000000000000000000000000000000000000000000000000000000000000000000000000000000000000000000000000000000000000000000000000000000000000000000000000000000000000000000000000000000000000000000000000000000000000000000000000000000000000F5F5F5
310
000000F5F5F5F5000000F5F5F5F5F5F5F5F5F5F5F52020F5F5F5F5F5200000200020F5F5F5BEF5F5F5000020F5F5000000000000000000000000000000000000000000000000000000000000000000000000000000000000000000000000000000000000000000000000000000000000000000000000000000000000000000
310
0000000000000000000000000000000000000000000000000000000000000000000000000000000000000000000000000000F5F5F5000000F5F5F5F5F5000000F5F5F5F5F5F5F5F5F5F5202020F5F5F520000020002000F5F5F5F5F5F5F50020F5F5F500000000000000000000000000000000000000000000000000000000
310
00000000000000000000000000000000000000000000000000000000000000000000000000000000000000000000000000000000000000000000000000000000000000000000000000000000000000000000000000000000000000000000000000000000000000F5F5F500000000F5F5F5F5F500000000F5F5F5F5F5F5F5F5
310
202020F5002000002000200000F5F5F5F5F5F5F520F5F520F5000000000000000000000000000000000000000000000000000000000000000000000000000000000000000000000000000000000000000000000000000000000000000000000000000000000000000000000000000000000000000000000000000000000000
310
0000000000000000000000000000000000000000000000000000000000F5F5F50000000000F5F5F5F5F5F5000000F5F5F5F5F5F5F5BE2020F5200000200020000020F5F5F5F5F5F5F500F520F50000000000000000000000000000000000000000000000000000000000000000000000000000000000000000000000000000
310
00000000000000000000000000000000000000000000000000000000000000000000000000000000000000000000000000000000000000000000000000000000000000000000000000000000000000000000F5F5F5F5F5F5F5F5F5F5F5F5F5F5F50000000000F5F5F5F520F52020F50020002000202020F5F5F5F5F5F5F5F5
310
F5F5F500000000000000000000000000000000000000000000000000000000000000000000000000000000000000000000000000000000000000000000000000000000000000000000000000000000000000000000000000000000000000000000000000000000000000000000000000000000000000000000000000000000
310
0000000000000000F5F5F5F5F5F5F5F5F5F5F5F5F5F5F5F500000000000000F5F5202020F52000200020F520F5F5F5F5F5F5F5F5F5F5F5F50000000000000000000000000000000000000000000000000000000000000000000000000000000000000000000000000000000000000000000000000000000000000000000000
310
0000000000000000000000000000000000000000000000000000000000000000000000000000000000000000000000000000000000000000000000000000F5F5F5F5F5F5F5F5F5F5F5F5F5F5F5F5F5F50000000000F520F520F50020F520F5F5F5F5F5F5F5F5F5F5F5F5F5F500000000000000000000000000000000000000
310
000000000000000000000000000000000000000000000000000000000000000000000000000000000000000000000000000000000000000000000000000000000000000000000000000000000000000000000000000000000000000000000000000000000000000000000000000000000000000000F5F5F5F5F5BEF5F5F5F5
310
F5F5F5F5F5F5F5F5F5F5F5F52020F5F520F520F5F5F5F5F5F5F5F5BEF5F5F5F5F500000000000000000000000000000000000000000000000000000000000000000000000000000000000000000000000000000000000000000000000000000000000000000000000000000000000000000000000000000000000000000000
310
00000000000000000000000000000000000000000000000000000000000000000000000000000000000000F5F5F5F5F5F5F5F5F5F5F5F5F5F5F5F5F5F5F5F5F5F5202020F5F5F5F5F50000F5F5F5F5F5F5F5F5F5F5F50000000000000000000000000000000000000000000000000000000000000000000000000000000000
310
000000000000000000000000000000000000000000000000000000000000000000000000000000000000000000000000000000000000000000000000000000000000000000000000000000000000000000000000000000000000000000000000F5F5F5F5F5F5F5F5F5F5F5000000F5F5F5F5F5F5F5F5202020F5F5F5000000
310
00F5F5F5F5F5F5F5F5F5F5F500000000000000000000000000000000000000000000000000000000000000000000000000000000000000000000000000000000000000000000000000000000000000000000000000000000000000000000000000000000000000000000000000000000000000000000000000000000000000
310
00000000000000000000000000000000000000000000F5F5F5F5F5F5F5F5F5F5F50000000000F5F5F5F5F5F5202020F5F50000000000F5F5F5F5F5F5F5F5F5F5F50000000000000000000000000000000000000000000000000000000000000000000000000000000000000000000000000000000000000000000000000000
310
000000000000000000000000000000000000000000000000000000000000000000000000000000000000000000000000000000000000000000000000000000000000000000000000000000F5F5F5F5F5BEF5F5F5F5F5000000000000F5F5F5F5F52020F5F5000000000000F5F5F5F5F5BEF5F5F5F5F5000000000000000000
310
00000000000000000000000000000000000000000000000000000000000000000000000000000000000000000000000000000000000000000000000000000000000000000000000000000000000000000000000000000000000000000000000000000000000000000000000000000000000000000000000000000000000000
310
00F5F5F5F5F5F5F5F5F5F5F5000000000000F5F5F5F5F5F52020F5000000000000F5F5F5F5F5F5F5F5F5F5F50000000000000000000000000000000000000000000000000000000000000000000000000000000000000000000000000000000000000000000000000000000000000000000000000000000000000000000000
310
000000000000000000000000000000000000000000000000000000000000000000000000000000000000000000000000000000000000F5F5F5F5F5F5F5F5F5F5F50000000000F5F5F5F5F5F520F52020F50000000000F5F5F5F5F5F5F5F5F5F5F5000000000000000000000000000000000000000000000000000000000000
310
000000000000000000000000000000000000000000000000000000000000000000000000000000000000000000000000000000000000000000000000000000000000000000000000000000000000000000000000000000000000000000000000000000000000000000000000F5F5F5F5F5F5F5F5F5000000F5F5F5F5F5F5F5
310
F5F52020F52020F5F5F5000000F5F5F5F5F5F5F5F5F5000000000000000000000000000000000000000000000000000000000000000000000000000000000000000000000000000000000000000000000000000000000000000000000000000000000000000000000000000000000000000000000000000000000000000000
310
0000000000000000000000000000000000000000000000000000000000000000000000F5F5F5F5F5F5F5000000F5F5F5F5F5F5F5F5F5F5F52020F52020F520F5000000F5F5F5F5F5F5F50000000000000000000000000000000000000000000000000000000000000000000000000000000000000000000000000000000000
310
00000000000000000000000000000000000000000000000000000000000000000000000000000000000000000000000000000000000000000000000000000000000000000000000000000000000000000000000000000000F5F5F5F5F5F5F5000000F5F5F5F5F5F5F5F5F5F5F5F5202020202020F5000000F5F5F5F5F5F5F5
310
00000000000000000000000000000000000000000000000000000000000000000000000000000000000000000000000000000000000000000000000000000000000000000000000000000000000000000000000000000000000000000000000000000000000000000000000000000000000000000000000000000000000000
310
000000000000000000000000000000F5F5F5F5F500000000F5F5F5F5F5F5F5F5F5F5F5F5F5F5202020F5F500000000F5F5F5F5F5000000000000000000000000000000000000000000000000000000000000000000000000000000000000000000000000000000000000000000000000000000000000000000000000000000
310
00000000000000000000000000000000000000000000000000000000000000000000000000000000000000000000000000000000000000000000000000000000000000000000BE0000000000F5F5F5F5F5F5F5F5F5F5F5F5F5F5F5F5202020F5F50000000000BE000000000000000000000000000000000000000000000000
310
00000000000000000000000000000000000000000000000000000000000000000000000000000000000000000000000000000000000000000000000000000000000000000000000000000000000000000000000000000000000000000000000000000000000000000000000000000000000000000000000000000000000000
310
0000F5F5F5F5F5F5F5F5F5F5F5F5F5F5F5F5202020F5F50000000000000000000000000000000000000000000000000000000000000000000000000000000000000000000000000000000000000000000000000000000000000000000000000000000000000000000000000000000000000000000000000000000000000000
310
00000000000000000000000000000000000000000000000000000000000000000000000000000000000000000000000000000000000000F5F5F5F5F5F5F5F5F5F5F5F5F5F5F5F5F5F5F5F5F5000000000000000000000000000000000000000000000000000000000000000000000000000000000000000000000000000000
310
000000000000000000000000000000000000000000000000000000000000000000000000000000000000000000000000000000000000000000000000000000000000000000000000000000000000000000000000000000000000000000000000000000000000000000000000F5F5F5F5F5F5F5F50000BEF5F5F5F5F5F5F5F5
310
F5F50000000000000000000000000000000000000000000000000000000000000000000000000000000000000000000000000000000000000000000000000000000000000000000000000000000000000000000000000000000000000000000000000000000000000000000000000000000000000000000000000000000000
310
00000000000000000000000000000000000000000000000000000000000000000000F5F5F5F5F5F5F5F5F5F5BEF5F5F5F5F5F5F5F5F5F5000000000000000000000000000000000000000000000000000000000000000000000000000000000000000000000000000000000000000000000000000000000000000000000000
310
000000000000000000000000000000000000000000000000000000000000000000000000000000000000000000000000000000000000000000000000000000000000000000000000000000000000000000000000000000F5F5F5F5F5F5F5F5F5F5F520202020F520F5F5F5F500000000000000000000000000000000000000
310
00000000000000000000000000000000000000000000000000000000000000000000000000000000000000000000000000000000000000000000000000000000000000000000000000000000000000000000000000000000000000000000000000000000000000000000000000000000000000000000000000000000000000
310
00000000000000000000000000F5F5F5F5F5F5F5F5F5F5202020F520202020F5F5F5000000000000000000000000000000000000000000000000000000000000000000000000000000000000000000000000000000000000000000000000000000000000000000000000000000000000000000000000000000000000000000
310
00000000000000000000000000000000000000000000000000000000000000000000000000000000000000000000000000000000000000000000000000000000000000F5F5F5F5F5F5F5F5F5F5F5F5F5F5F5F5F5F5F50000000000000000000000000000000000000000000000000000000000000000000000000000000000
310
00000000000000000000000000000000000000000000000000000000000000000000000000000000000000000000000000000000000000000000000000000000000000000000000000000000000000000000000000000000000000000000000000000000000000000000000000000000000000000000000000000000000000
310
0000BE00000000000000000000000000000000000000000000000000000000000000000000000000000000000000000000000000000000000000000000000000000000000000000000000000000000000000000000000000000000000000000000000000000000000000000000000000000000000000000000000000000000
310
00000000000000000000000000000000000000000000000000000000000000000000000000000000000000000000000000000000000000000000000000000000000000000000000000000000000000000000000000000000000000000000000000000000000000000000000000000000000000000000000000000000000000
310
00000000000000000000000000000000000000000000000000000000000000000000000000000000000000000000000000000000000000000000000000000000000000000000000000000000000000000000000000000000000000000000000000000000000000000000000000000000000000000000000000000000000000
310
00000000000000000000000000000000000000000000000000000000000000000000000000000000000000000000000000000000000000000000000000000000000000000000000000000000000000000000000000000000000000000000000000000000000000000000000000000000000000000000000000000000000000
310
00000000000000000000000000000000000000000000000000000000000000000000000000000000000000000000000000000000000000000000000000000000000000000000000000000000000000000000000000000000000000000000000000000000000000000000000000000000000000000000000000000000000000
310
00000000000000000000000000000000000000000000000000000000000000000000000000000000000000000000000000000000000000000000000000000000000000000000000000000000000000000000000000000000000000000000000000000000000000000000000000000000000000000000000000000000000000
310
00000000000000000000000000000000000000000000000000000000000000000000000000000000000000000000000000000000000000000000000000000000000000000000000000000000000000000000000000000000000000000000000000000000000000000000000000000000000000000000000000000000000000
310
00000000000000000000000000000000000000000000000000000000000000000000000000000000000000000000000000000000000000000000000000000000000000000000000000000000000000000000000000000000000000000000000000000000000000000000000000000000000000000000000000000000000000
310
00000000000000000000000000000000000000000000000000000000000000000000000000000000000000000000000000000000000000000000000000000000000000000000000000000000000000000000000000000000000000000000000000000000000000000000000000000000000000000000000000000000000000
310
00000000000000000000000000000000000000000000000000000000000000000000000000000000000000000000000000000000000000000000000000000000000000000000000000000000000000000000000000000000000000000000000000000000000000000000000000000000000000000000000000000000000000
310
00000000000000000000000000000000000000000000000000000000000000000000000000000000000000000000000000000000000000000000000000000000000000000000000000000000000000000000000000000000000000000000000000000000000000000000000000000000000000000000000000000000000000
310
00000000000000000000000000000000000000000000000000000000000000000000000000000000000000000000000000000000000000000000000000000000000000000000000000000000000000000000000000000000000000000000000000000000000000000000000000000000000000000000000000000000000000
310
00000000000000000000000000000000000000000000000000000000000000000000000000000000000000000000000000000000000000000000000000000000000000000000000000000000000000000000000000000000000000000000000000000000000000000000000000000000000000000000000000000000000000
310
00000000000000000000000000000000000000000000000000000000000000000000000000000000000000000000000000000000000000000000000000000000000000000000000000000000000000000000000000000000000000000000000000000000000000000000000000000000000000000000000000000000000000
310
00000000000000000000000000000000000000000000000000000000000000000000000000000000000000000000000000000000000000000000000000000000000000000000000000000000000000000000000000000000000000000000000000000000000000000000000000000000000000000000000000000000000000
310
00000000000000000000000000000000000000000000000000000000000000000000000000000000000000000000000000000000000000000000000000000000000000000000000000000000000000000000000000000000000000000000000000000000000000000000000000000000000000000000000000000000000000
310
00000000000000000000000000000000000000000000000000000000000000000000000000000000000000000000000000000000000000000000000000000000000000000000000000000000000000000000000000000000000000000000000000000000000000000000000000000000000000000000000000000000000000
310
00000000000000000000000000000000000000000000000000000000000000000000000000000000000000000000000000000000000000000000000000000000000000000000000000000000000000000000000000000000000000000000000000000000000000000000000000000000000000000000000000000000000000
310
00000000000000000000000000000000000000000000000000000000000000000000000000000000000000000000000000000000000000000000000000000000000000000000000000000000000000000000000000000000000000000000000000000000000000000000000000000000000000000000000000000000000000
310
00000000000000000000000000000000000000000000000000000000000000000000000000000000000000000000000000000000000000000000000000000000000000000000000000000000000000000000000000000000000000000000000000000000000000000000000000000000000000000000000000000000000000
310
00000000000000000000000000000000000000000000000000000000000000000000000000000000000000000000000000000000000000000000000000000000000000000000000000000000000000000000000000000000000000000000000000000000000000000000000000000000000000000000000000000000000000
310
00000000000000000000000000000000000000000000000000000000000000000000000000000000000000000000000000000000000000000000000000000000000000000000000000000000000000000000000000000000000000000000000000000000000000000000000000000000000000000000000000000000000000
310
00000000000000000000000000000000000000000000000000000000000000000000000000000000000000000000000000000000000000000000000000000000000000000000000000000000000000000000000000000000000000000000000000000000000000000000000000000000000000000000000000000000000000
310
00000000000000000000000000000000000000000000000000000000000000000000000000000000000000000000000000000000000000000000000000000000000000000000000000000000000000000000000000000000000000000000000000000000000000000000000000000000000000000000000000000000000000
310
00000000000000000000000000000000000000000000000000000000000000000000000000000000000000000000000000000000000000000000000000000000000000000000000000000000000000000000000000000000000000000000000000000000000000000000000000000000000000000000000000000000000000
310
00000000000000000000000000000000000000000000000000000000000000000000000000000000000000000000000000000000000000000000000000000000000000000000000000000000000000000000000000000000000000000000000000000000000000000000000000000000000000000000000000000000000000
310
00000000000000000000000000000000000000000000000000000000000000000000000000000000000000000000000000000000000000000000000000000000000000000000000000000000000000000000000000000000000000000000000000000000000000000000000000000000000000000000000000000000000000
310
00000000000000000000000000000000000000000000000000000000000000000000000000000000000000000000000000000000000000000000000000000000000000000000000000000000000000000000000000
  0
ENDSEC
  0
EOF
