999
LibreDWG 
  0
SECTION
  2
HEADER
  9
$ACADVER
  1
AC1015
  9
$ACADMAINTVER
 70
    13
  9
$DWGCODEPAGE
  3
ANSI_936
  9
$INSBASE
 10
0.0
 20
0.0
 30
0.0
  9
$EXTMIN
 10
76.92837666285834
 20
55.93591757353124
 30
0.0
  9
$EXTMAX
 10
328.9283766628582
 20
272.3014446668266
 30
0.0
  9
$LIMMIN
 10
0.0
 20
0.0
  9
$LIMMAX
 10
420.0
 20
297.0
  9
$ORTHOMODE
 70
     0
  9
$REGENMODE
 70
     1
  9
$FILLMODE
 70
     1
  9
$QTEXTMODE
 70
     0
  9
$MIRRTEXT
 70
     0
  9
$LTSCALE
 40
1.0
  9
$ATTMODE
 70
     1
  9
$TEXTSIZE
 40
2.5
  9
$TRACEWID
 40
1.0
  9
$TEXTSTYLE
  7
数字与字母
  9
$CLAYER
  8
剖面线
  9
$CELTYPE
  6
ByLayer
  9
$CECOLOR
 62
   256
  9
$CELTSCALE
 40
1.0
  9
$DISPSILH
 70
     0
  9
$DIMSCALE
 40
1.0
  9
$DIMASZ
 40
3.5
  9
$DIMEXO
 40
0.0
  9
$DIMDLI
 40
7.5
  9
$DIMRND
 40
0.0
  9
$DIMDLE
 40
0.0
  9
$DIMEXE
 40
2.5
  9
$DIMTP
 40
0.0
  9
$DIMTM
 40
0.0
  9
$DIMTXT
 40
5.0
  9
$DIMCEN
 40
2.5
  9
$DIMTSZ
 40
0.0
  9
$DIMTOL
 70
     0
  9
$DIMLIM
 70
     0
  9
$DIMTIH
 70
     0
  9
$DIMTOH
 70
     1
  9
$DIMSE1
 70
     0
  9
$DIMSE2
 70
     0
  9
$DIMTAD
 70
     1
  9
$DIMZIN
 70
     9
  9
$DIMBLK
  1

  9
$DIMASO
 70
     1
  9
$DIMSHO
 70
     1
  9
$DIMPOST
  1

  9
$DIMAPOST
  1

  9
$DIMALT
 70
     0
  9
$DIMALTD
 70
     3
  9
$DIMALTF
 40
0.03937007874016
  9
$DIMLFAC
 40
1.0
  9
$DIMTOFL
 70
     1
  9
$DIMTVP
 40
0.0
  9
$DIMTIX
 70
     0
  9
$DIMSOXD
 70
     0
  9
$DIMSAH
 70
     0
  9
$DIMBLK1
  1

  9
$DIMBLK2
  1

  9
$DIMSTYLE
  2
机械标注
  9
$DIMCLRD
 70
   256
  9
$DIMCLRE
 70
   256
  9
$DIMCLRT
 70
   256
  9
$DIMTFAC
 40
1.0
  9
$DIMGAP
 40
0.625
  9
$DIMJUST
 70
     0
  9
$DIMSD1
 70
     0
  9
$DIMSD2
 70
     0
  9
$DIMTOLJ
 70
     0
  9
$DIMTZIN
 70
     8
  9
$DIMALTZ
 70
     0
  9
$DIMALTTZ
 70
     0
  9
$DIMUPT
 70
     0
  9
$DIMDEC
 70
     1
  9
$DIMTDEC
 70
     1
  9
$DIMALTU
 70
     2
  9
$DIMALTTD
 70
     3
  9
$DIMTXSTY
  7
数字与字母
  9
$DIMAUNIT
 70
     0
  9
$DIMADEC
 70
     0
  9
$DIMALTRND
 40
0.0
  9
$DIMAZIN
 70
     0
  9
$DIMDSEP
 70
    46
  9
$DIMATFIT
 70
     3
  9
$DIMFRAC
 70
     0
  9
$DIMLDRBLK
  1

  9
$DIMLUNIT
 70
     2
  9
$DIMLWD
 70
    -1
  9
$DIMLWE
 70
    -1
  9
$DIMTMOVE
 70
     0
  9
$LUNITS
 70
     2
  9
$LUPREC
 70
     1
  9
$AXISMODE
 70
     0
  9
$AXISUNIT
 10
0.0
 20
0.0
  9
$SKETCHINC
 40
1.0
  9
$FILLETRAD
 40
0.0
  9
$AUNITS
 70
     0
  9
$AUPREC
 70
     1
  9
$MENU
  1
.
  9
$ELEVATION
 40
0.0
  9
$PELEVATION
 40
0.0
  9
$THICKNESS
 40
0.0
  9
$LIMCHECK
 70
     0
  9
$CHAMFERA
 40
0.0
  9
$CHAMFERB
 40
0.0
  9
$CHAMFERC
 40
0.0
  9
$CHAMFERD
 40
0.0
  9
$SKPOLY
 70
     0
  9
$TDCREATE
 40
2453162.523629680
  9
$TDUCREATE
 40
2453162.235629680
  9
$TDUPDATE
 40
2453619.488713870
  9
$TDUUPDATE
 40
2453619.200713870
  9
$TDINDWG
 40
0.022390640
  9
$TDUSRTIMER
 40
0.022390640
  9
$USRTIMER
 70
     1
  9
$ANGBASE
 50
0.0
  9
$ANGDIR
 70
     0
  9
$PDMODE
 70
     0
  9
$PDSIZE
 40
0.0
  9
$PLINEWID
 40
0.0
  9
$SPLFRAME
 70
     0
  9
$SPLINETYPE
 70
     6
  9
$SPLINESEGS
 70
     8
  9
$HANDSEED
  5
38D
  9
$SURFTAB1
 70
     6
  9
$SURFTAB2
 70
     6
  9
$SURFTYPE
 70
     6
  9
$SURFU
 70
     6
  9
$SURFV
 70
     6
  9
$UCSBASE
  2

  9
$UCSNAME
  2

  9
$UCSORG
 10
0.0
 20
0.0
 30
0.0
  9
$UCSXDIR
 10
1.0
 20
0.0
 30
0.0
  9
$UCSYDIR
 10
0.0
 20
1.0
 30
0.0
  9
$UCSORTHOREF
  2

  9
$UCSORTHOVIEW
 70
     0
  9
$UCSORGTOP
 10
0.0
 20
0.0
 30
0.0
  9
$UCSORGBOTTOM
 10
0.0
 20
0.0
 30
0.0
  9
$UCSORGLEFT
 10
0.0
 20
0.0
 30
0.0
  9
$UCSORGRIGHT
 10
0.0
 20
0.0
 30
0.0
  9
$UCSORGFRONT
 10
0.0
 20
0.0
 30
0.0
  9
$UCSORGBACK
 10
0.0
 20
0.0
 30
0.0
  9
$PUCSBASE
  2

  9
$PUCSNAME
  2

  9
$PUCSORG
 10
0.0
 20
0.0
 30
0.0
  9
$PUCSXDIR
 10
1.0
 20
0.0
 30
0.0
  9
$PUCSYDIR
 10
0.0
 20
1.0
 30
0.0
  9
$PUCSORTHOREF
  2

  9
$PUCSORTHOVIEW
 70
     0
  9
$PUCSORGTOP
 10
0.0
 20
0.0
 30
0.0
  9
$PUCSORGBOTTOM
 10
0.0
 20
0.0
 30
0.0
  9
$PUCSORGLEFT
 10
0.0
 20
0.0
 30
0.0
  9
$PUCSORGRIGHT
 10
0.0
 20
0.0
 30
0.0
  9
$PUCSORGFRONT
 10
0.0
 20
0.0
 30
0.0
  9
$PUCSORGBACK
 10
0.0
 20
0.0
 30
0.0
  9
$USERI1
 70
     0
  9
$USERI2
 70
     0
  9
$USERI3
 70
     0
  9
$USERI4
 70
     0
  9
$USERI5
 70
     0
  9
$USERR1
 40
0.0
  9
$USERR2
 40
0.0
  9
$USERR3
 40
0.0
  9
$USERR4
 40
0.0
  9
$USERR5
 40
0.0
  9
$WORLDVIEW
 70
     1
  9
$SHADEDGE
 70
     3
  9
$SHADEDIF
 70
    70
  9
$TILEMODE
 70
     1
  9
$MAXACTVP
 70
    64
  9
$PINSBASE
 10
0.0
 20
0.0
 30
0.0
  9
$PLIMCHECK
 70
     0
  9
$PEXTMIN
 10
0.0
 20
0.0
 30
0.0
  9
$PEXTMAX
 10
0.0
 20
0.0
 30
0.0
  9
$PLIMMIN
 10
0.0
 20
0.0
  9
$PLIMMAX
 10
12.0
 20
9.0
  9
$UNITMODE
 70
     0
  9
$VISRETAIN
 70
     1
  9
$PLINEGEN
 70
     0
  9
$PSLTSCALE
 70
     1
  9
$TREEDEPTH
 70
  3020
  9
$CMLSTYLE
  2
Standard
  9
$CMLJUST
 70
     0
  9
$CMLSCALE
 40
20.0
  9
$PROXYGRAPHICS
 70
     1
  9
$MEASUREMENT
 70
     1
  9
$CELWEIGHT
370
    -1
  9
$ENDCAPS
280
     0
  9
$JOINSTYLE
280
     0
  9
$LWDISPLAY
290
     1
  9
$INSUNITS
 70
     4
  9
$HYPERLINKBASE
  1

  9
$STYLESHEET
  1

  9
$XEDIT
290
     1
  9
$CEPSNTYPE
380
     0
  9
$PSTYLEMODE
290
     0
  9
$FINGERPRINTGUID
  2
{35BD88C3-9548-11D2-9A29-0060089B3A3F}
  9
$VERSIONGUID
  2
{55DE0941-40D3-4E25-B566-8F2954CF7478}
  9
$EXTNAMES
290
     1
  9
$PSVPSCALE
 40
0.0
  9
$OLESTARTUP
290
     0
  0
ENDSEC
  0
SECTION
  2
CLASSES
  0
CLASS
  1
ACDBDICTIONARYWDFLT
  2
AcDbDictionaryWithDefault
  3
AutoCAD 2000
 90
        0
280
     0
281
     0
  0
CLASS
  1
ACDBPLACEHOLDER
  2
AcDbPlaceHolder
  3
AutoCAD 2000
 90
        0
280
     0
281
     0
  0
CLASS
  1
LAYOUT
  2
AcDbLayout
  3
AutoCAD 2000
 90
        0
280
     0
281
     0
  0
CLASS
  1
DICTIONARYVAR
  2
AcDbDictionaryVar
  3
AutoCAD 2000
 90
        0
280
     0
281
     0
  0
CLASS
  1
DIMASSOC
  2
AcDbDimAssoc
  3
"AcDbDimAssoc|Product Desc:     AcDim ARX App For Dimension|Company:          Autodesk, Inc.|WEB Address:      www.autodesk.com"
 90
    32768
280
     0
281
     0
  0
CLASS
  1
SORTENTSTABLE
  2
AcDbSortentsTable
  3
AutoCAD 2000
 90
    32768
280
     0
281
     0
  0
CLASS
  1
TABLESTYLE
  2
AcDbTableStyle
  3
ObjectDBX Classes
 90
     2047
280
     0
281
     0
  0
ENDSEC
  0
SECTION
  2
TABLES
  0
TABLE
  2
VPORT
  5
8
330
0
100
AcDbSymbolTable
 70
     1
  0
VPORT
  5
38C
330
8
100
AcDbSymbolTableRecord
100
AcDbViewportTableRecord
  2
*Active
 70
     0
 10
0.0
 20
0.0
 11
1.0
 21
1.0
 12
181.0674142230112
 22
187.330209180897
 13
0.0
 23
0.0
 14
10.0
 24
10.0
 15
10.0
 25
10.0
 16
0.0
 26
0.0
 36
1.0
 17
0.0
 27
0.0
 37
0.0
 40
222.9262301293757
 41
1.841563786008231
 42
50.0
 43
0.0
 44
0.0
 50
0.0
 51
0.0
 71
     0
 72
  1000
 73
     1
 74
     3
 75
     0
 76
     0
 77
     0
 78
     0
281
     0
 65
     1
110
0.0
120
0.0
130
0.0
111
1.0
121
0.0
131
0.0
112
0.0
122
1.0
132
0.0
 79
     0
146
0.0
  0
ENDTAB
  0
TABLE
  2
LTYPE
  5
5
330
0
100
AcDbSymbolTable
 70
     5
  0
LTYPE
  5
14
330
5
100
AcDbSymbolTableRecord
100
AcDbLinetypeTableRecord
  2
ByBlock
 70
     0
  3

 72
    65
 73
     0
 40
0.0
  0
LTYPE
  5
15
330
5
100
AcDbSymbolTableRecord
100
AcDbLinetypeTableRecord
  2
ByLayer
 70
     0
  3

 72
    65
 73
     0
 40
0.0
  0
LTYPE
  5
16
330
5
100
AcDbSymbolTableRecord
100
AcDbLinetypeTableRecord
  2
Continuous
 70
     0
  3
Solid line
 72
    65
 73
     0
 40
0.0
  0
LTYPE
  5
A2
330
5
100
AcDbSymbolTableRecord
100
AcDbLinetypeTableRecord
  2
ACAD_ISO08W100
 70
     0
  3
ISO long-dash short-dash ____ __ ____ __ ____ _
 72
    65
 73
     4
 40
36.0
 49
24.0
 74
     0
 49
-3.0
 74
     0
 49
6.0
 74
     0
 49
-3.0
 74
     0
  0
LTYPE
  5
A3
330
5
100
AcDbSymbolTableRecord
100
AcDbLinetypeTableRecord
  2
ACAD_ISO09W100
 70
     0
  3
ISO long-dash double-short-dash ____ __ __ ____
 72
    65
 73
     6
 40
45.0
 49
24.0
 74
     0
 49
-3.0
 74
     0
 49
6.0
 74
     0
 49
-3.0
 74
     0
 49
6.0
 74
     0
 49
-3.0
 74
     0
  0
LTYPE
  5
A4
330
5
100
AcDbSymbolTableRecord
100
AcDbLinetypeTableRecord
  2
ACAD_ISO02W100
 70
     0
  3
ISO dash __ __ __ __ __ __ __ __ __ __ __ __ __
 72
    65
 73
     2
 40
15.0
 49
12.0
 74
     0
 49
-3.0
 74
     0
  0
LTYPE
  5
1F0
330
5
100
AcDbSymbolTableRecord
100
AcDbLinetypeTableRecord
  2
CENTER2
 70
     0
  3
Center (.5x) ___ _ ___ _ ___ _ ___ _ ___ _ ___
 72
    65
 73
     4
 40
28.575
 49
19.05
 74
     0
 49
-3.175
 74
     0
 49
3.175
 74
     0
 49
-3.175
 74
     0
  0
ENDTAB
  0
TABLE
  2
LAYER
  5
2
330
0
100
AcDbSymbolTable
 70
    13
  0
LAYER
  5
10
330
2
100
AcDbSymbolTableRecord
100
AcDbLayerTableRecord
  2
0
 70
     0
 62
    -7
  6
Continuous
370
    -3
390
F
  0
LAYER
  5
A5
330
2
100
AcDbSymbolTableRecord
100
AcDbLayerTableRecord
  2
轮廓线
 70
     0
 62
    -7
  6
Continuous
370
    35
390
F
  0
LAYER
  5
A6
330
2
100
AcDbSymbolTableRecord
100
AcDbLayerTableRecord
  2
点划线
 70
     0
 62
    -1
  6
ACAD_ISO08W100
370
    13
390
F
  0
LAYER
  5
A7
330
2
100
AcDbSymbolTableRecord
100
AcDbLayerTableRecord
  2
双点划线
 70
     0
 62
    -3
  6
ACAD_ISO09W100
370
    -3
390
F
  0
LAYER
  5
A8
330
2
100
AcDbSymbolTableRecord
100
AcDbLayerTableRecord
  2
隐藏线
 70
     0
 62
    -6
  6
ACAD_ISO02W100
370
    13
390
F
  0
LAYER
  5
A9
330
2
100
AcDbSymbolTableRecord
100
AcDbLayerTableRecord
  2
剖面线
 70
     0
 62
  -142
  6
Continuous
370
    13
390
F
  0
LAYER
  5
AA
330
2
100
AcDbSymbolTableRecord
100
AcDbLayerTableRecord
  2
波浪线
 70
     0
 62
    -7
  6
Continuous
370
    13
390
F
  0
LAYER
  5
AB
330
2
100
AcDbSymbolTableRecord
100
AcDbLayerTableRecord
  2
尺寸层
 70
     0
 62
    -5
  6
Continuous
370
    13
390
F
  0
LAYER
  5
AC
330
2
100
AcDbSymbolTableRecord
100
AcDbLayerTableRecord
  2
文本层
 70
     0
 62
  -212
  6
Continuous
370
    13
390
F
  0
LAYER
  5
AD
330
2
100
AcDbSymbolTableRecord
100
AcDbLayerTableRecord
  2
其它层
 70
     0
 62
    -7
  6
Continuous
370
    -3
390
F
  0
LAYER
  5
1F1
330
2
100
AcDbSymbolTableRecord
100
AcDbLayerTableRecord
  2
2-基准
 70
     0
 62
    -1
  6
CENTER2
370
    -3
390
F
  0
LAYER
  5
2B6
330
2
100
AcDbSymbolTableRecord
100
AcDbLayerTableRecord
  2
01-轮廓线
 70
     0
 62
    -7
  6
Continuous
370
    35
390
F
  0
LAYER
  5
325
330
2
100
AcDbSymbolTableRecord
100
AcDbLayerTableRecord
  2
02-中心线
 70
     0
 62
    -1
  6
CENTER2
370
    15
390
326
  0
ENDTAB
  0
TABLE
  2
STYLE
  5
3
330
0
100
AcDbSymbolTable
 70
     5
  0
STYLE
  5
11
330
3
100
AcDbSymbolTableRecord
100
AcDbTextStyleTableRecord
  2
Standard
 70
     0
 40
0.0
 41
1.0
 50
0.0
 71
     0
 42
2.5
  3
txt
  4

  0
STYLE
  5
A1
330
3
100
AcDbSymbolTableRecord
100
AcDbTextStyleTableRecord
  2

 70
     1
 40
0.0
 41
1.0
 50
0.0
 71
     0
 42
2.5
  3
ltypeshp.shx
  4

  0
STYLE
  5
AE
330
3
100
AcDbSymbolTableRecord
100
AcDbTextStyleTableRecord
  2
汉字
 70
     0
 40
0.0
 41
1.0
 50
0.0
 71
     0
 42
2.5
  3
txt.shx
  4

  0
STYLE
  5
B0
330
3
100
AcDbSymbolTableRecord
100
AcDbTextStyleTableRecord
  2
数字与字母
 70
     0
 40
0.0
 41
0.7
 50
0.0
 71
     0
 42
2.5
  3
romand.shx
  4

  0
STYLE
  5
2B7
330
3
100
AcDbSymbolTableRecord
100
AcDbTextStyleTableRecord
  2
S
 70
     0
 40
0.0
 41
1.0
 50
0.0
 71
     0
 42
3.5
  3
SimSun.ttf
  4

1001
ACAD
1000
SimSun
1071
    34306
  0
ENDTAB
  0
TABLE
  2
VIEW
  5
6
330
0
100
AcDbSymbolTable
 70
     0
  0
ENDTAB
  0
TABLE
  2
UCS
  5
7
330
0
100
AcDbSymbolTable
 70
     0
  0
ENDTAB
  0
TABLE
  2
APPID
  5
9
330
0
100
AcDbSymbolTable
 70
     1
  0
APPID
  5
12
330
9
100
AcDbSymbolTableRecord
100
AcDbRegAppTableRecord
  2
ACAD
 70
     0
  0
ENDTAB
  0
TABLE
  2
DIMSTYLE
  5
A
330
0
100
AcDbSymbolTable
 70
     6
100
AcDbDimStyleTable
 71
     2
340
B3
340
27
  0
DIMSTYLE
105
27
330
A
100
AcDbSymbolTableRecord
100
AcDbDimStyleTableRecord
  2
ISO-25
 70
     0
 41
2.5
 42
0.625
 43
3.75
 44
1.25
 73
     0
 74
     0
 77
     1
 78
     8
140
2.5
141
2.5
143
0.03937007874016
144
1.0
146
1.0
147
0.625
171
     3
172
     1
176
     0
177
     0
178
     0
271
     2
272
     2
273
     2
274
     3
277
     2
278
    44
283
     0
284
     8
289
     3
340
11
371
    -2
372
    -2
341
0
342
0
343
0
344
0
  0
DIMSTYLE
105
B3
330
A
100
AcDbSymbolTableRecord
100
AcDbDimStyleTableRecord
  2
机械标注
 70
     0
 41
3.5
 43
7.5
 44
2.5
 73
     0
 74
     1
 77
     1
 78
     9
140
5.0
141
2.5
143
0.03937007874016
144
1.0
146
1.0
147
0.625
171
     3
172
     1
176
   256
177
   256
178
   256
271
     1
272
     1
273
     2
274
     3
277
     2
278
    46
283
     0
284
     8
289
     3
340
B0
371
    -1
372
    -1
341
0
342
0
343
0
344
0
  0
DIMSTYLE
105
139
330
A
100
AcDbSymbolTableRecord
100
AcDbDimStyleTableRecord
  2
机械标注$2
 70
     0
 41
3.5
 43
7.5
 44
2.5
 73
     1
 74
     1
 77
     1
 78
     9
140
5.0
141
2.5
143
0.03937007874016
144
1.0
146
1.0
147
0.625
171
     3
172
     1
176
   256
177
   256
178
   256
271
     1
272
     1
273
     2
274
     3
277
     2
278
    46
283
     0
284
     8
289
     3
340
B0
371
    -1
372
    -1
341
0
342
0
343
0
344
0
  0
DIMSTYLE
105
1F2
330
A
100
AcDbSymbolTableRecord
100
AcDbDimStyleTableRecord
  2
副本宋-DIMSTYLE
 70
     0
 40
1.5
 41
2.0
 43
7.0
 44
2.0
 47
-0.012
 48
0.055
 73
     0
 74
     0
 77
     1
 78
     8
140
3.0
141
3.0
143
0.0394
144
1.0
146
0.55
147
1.0
171
     4
172
     1
176
   170
177
   170
178
     5
271
     3
272
     3
273
     8
274
     4
277
     2
278
    46
283
     1
284
     8
289
     3
340
11
371
    -2
372
    -2
341
0
342
0
343
0
344
0
  0
DIMSTYLE
105
2B8
330
A
100
AcDbSymbolTableRecord
100
AcDbDimStyleTableRecord
  2
MyDimenStyle
 70
     0
 41
3.0
 42
0.75
 43
6.0
 44
1.5
 47
0.015
 48
0.012
 73
     0
 74
     0
 77
     1
 78
     8
 79
     2
140
3.0
141
3.0
143
0.03937007874016
144
1.0
146
0.5
147
0.75
171
     3
172
     1
176
     4
177
     4
178
     5
179
     2
271
     2
272
     3
273
     2
274
     3
277
     2
278
    46
283
     1
284
     8
286
     8
289
     3
340
11
371
    -2
372
    -2
341
0
342
0
343
0
344
0
  0
DIMSTYLE
105
2B9
330
A
100
AcDbSymbolTableRecord
100
AcDbDimStyleTableRecord
  2
宋-DIMSTYLE
 70
     0
 40
1.5
 41
3.0
 42
1.0
 43
7.0
 44
2.0
 73
     0
 74
     0
 77
     1
 78
     8
140
3.5
141
3.0
143
0.0394
144
1.0
146
0.55
147
0.5
171
     4
172
     1
176
     4
177
     4
178
     5
271
     3
272
     3
273
     8
274
     4
277
     2
278
    46
283
     1
284
     8
289
     3
340
11
371
    -2
372
    -2
341
0
342
0
343
0
344
0
  0
ENDTAB
  0
TABLE
  2
BLOCK_RECORD
  5
1
330
0
100
AcDbSymbolTable
 70
     1
  0
BLOCK_RECORD
  5
1F
330
1
100
AcDbSymbolTableRecord
100
AcDbBlockTableRecord
  2
*Model_Space
340
22
  0
BLOCK_RECORD
  5
7D
330
1
100
AcDbSymbolTableRecord
100
AcDbBlockTableRecord
  2
*Paper_Space
340
7E
  0
BLOCK_RECORD
  5
82
330
1
100
AcDbSymbolTableRecord
100
AcDbBlockTableRecord
  2
*Paper_Space0
340
83
  0
ENDTAB
  0
ENDSEC
  0
SECTION
  2
BLOCKS
  0
BLOCK
  5
20
330
1F
100
AcDbEntity
  8
0
100
AcDbBlockBegin
  2
*Model_Space
 70
     0
 10
0.0
 20
0.0
 30
0.0
  3
*Model_Space
  1

  0
ENDBLK
  5
21
330
1F
100
AcDbEntity
  8
0
100
AcDbBlockEnd
  0
BLOCK
  5
7F
330
7D
100
AcDbEntity
 67
     1
  8
0
100
AcDbBlockBegin
  2
*Paper_Space
 70
     0
 10
0.0
 20
0.0
 30
0.0
  3
*Paper_Space
  1

  0
ENDBLK
  5
80
330
7D
100
AcDbEntity
 67
     1
  8
0
100
AcDbBlockEnd
  0
BLOCK
  5
84
330
82
100
AcDbEntity
  8
0
100
AcDbBlockBegin
  2
*Paper_Space0
 70
     0
 10
0.0
 20
0.0
 30
0.0
  3
*Paper_Space0
  1

  0
ENDBLK
  5
85
330
82
100
AcDbEntity
  8
0
100
AcDbBlockEnd
  0
ENDSEC
  0
SECTION
  2
ENTITIES
  0
LINE
  5
247
330
1F
100
AcDbEntity
  8
2-基准
100
AcDbLine
 10
76.92837666285834
 20
178.3014446668266
 30
0.0
 11
328.9283766628582
 21
178.3014446668265
 31
0.0
  0
LINE
  5
248
330
1F
100
AcDbEntity
  8
轮廓线
100
AcDbLine
 10
82.92837666285823
 20
178.3014446668266
 30
0.0
 11
82.92837666285823
 21
199.3014446668266
 31
0.0
  0
LINE
  5
249
330
1F
100
AcDbEntity
  8
轮廓线
100
AcDbLine
 10
84.42837666285823
 20
200.8014446668266
 30
0.0
 11
104.9283766628582
 21
200.8014446668266
 31
0.0
  0
LINE
  5
24A
330
1F
100
AcDbEntity
  8
轮廓线
100
AcDbLine
 10
104.9283766628582
 20
200.8014446668266
 30
0.0
 11
104.9283766628582
 21
199.8014446668266
 31
0.0
  0
LINE
  5
24B
330
1F
100
AcDbEntity
  8
轮廓线
100
AcDbLine
 10
104.9283766628582
 20
199.8014446668266
 30
0.0
 11
104.9283766628582
 21
178.3014446668266
 31
0.0
  0
LINE
  5
24C
330
1F
100
AcDbEntity
  8
轮廓线
100
AcDbLine
 10
107.9283766628582
 20
178.3014446668266
 30
0.0
 11
107.9283766628582
 21
205.8014446668266
 31
0.0
  0
LINE
  5
24D
330
1F
100
AcDbEntity
  8
轮廓线
100
AcDbLine
 10
107.9283766628582
 20
205.8014446668266
 30
0.0
 11
132.9283766628582
 21
205.8014446668266
 31
0.0
  0
LINE
  5
24E
330
1F
100
AcDbEntity
  8
轮廓线
100
AcDbLine
 10
132.9283766628582
 20
205.8014446668266
 30
0.0
 11
132.9283766628582
 21
178.3014446668266
 31
0.0
  0
LINE
  5
24F
102
{ACAD_REACTORS
330
376
102
}
330
1F
100
AcDbEntity
  8
轮廓线
100
AcDbLine
 10
135.9283766628582
 20
178.3014446668266
 30
0.0
 11
135.9283766628582
 21
203.3014446668266
 31
0.0
  0
LINE
  5
250
102
{ACAD_REACTORS
330
376
102
}
330
1F
100
AcDbEntity
  8
轮廓线
100
AcDbLine
 10
135.9283766628582
 20
203.3014446668266
 30
0.0
 11
178.598249643936
 21
203.3014446668266
 31
0.0
  0
LINE
  5
251
330
1F
100
AcDbEntity
  8
轮廓线
100
AcDbLine
 10
187.9283766628582
 20
200.8014446668266
 30
0.0
 11
187.9283766628582
 21
178.3014446668266
 31
0.0
  0
LINE
  5
252
330
1F
100
AcDbEntity
  8
轮廓线
100
AcDbLine
 10
237.9283766628582
 20
178.3014446668266
 30
0.0
 11
237.9283766628585
 21
199.3014446668266
 31
0.0
  0
LINE
  5
253
102
{ACAD_REACTORS
330
38B
102
}
330
1F
100
AcDbEntity
  8
轮廓线
100
AcDbLine
 10
236.4283766628585
 20
200.8014446668266
 30
0.0
 11
187.9283766628582
 21
200.8014446668266
 31
0.0
  0
LINE
  5
254
330
1F
100
AcDbEntity
  8
轮廓线
100
AcDbLine
 10
239.9283766628582
 20
178.3014446668266
 30
0.0
 11
239.9283766628582
 21
198.3014446668266
 31
0.0
  0
LINE
  5
255
330
1F
100
AcDbEntity
  8
轮廓线
100
AcDbLine
 10
239.9283766628582
 20
198.3014446668266
 30
0.0
 11
321.4283766628582
 21
198.3014446668266
 31
0.0
  0
LINE
  5
256
330
1F
100
AcDbEntity
  8
轮廓线
100
AcDbLine
 10
322.9283766628582
 20
196.8014446668266
 30
0.0
 11
322.9283766628582
 21
178.3014446668266
 31
0.0
  0
LINE
  5
257
330
1F
100
AcDbEntity
  8
轮廓线
100
AcDbLine
 10
104.9283766628582
 20
199.8014446668266
 30
0.0
 11
107.9283766628582
 21
199.8014446668266
 31
0.0
  0
LINE
  5
258
102
{ACAD_REACTORS
330
376
102
}
330
1F
100
AcDbEntity
  8
轮廓线
100
AcDbLine
 10
135.9283766628582
 20
202.3014446668266
 30
0.0
 11
132.9283766628582
 21
202.3014446668266
 31
0.0
  0
LINE
  5
259
330
1F
100
AcDbEntity
  8
轮廓线
100
AcDbLine
 10
239.9283766628582
 20
197.8014446668266
 30
0.0
 11
237.9283766628582
 21
197.8014446668266
 31
0.0
  0
LINE
  5
25C
330
1F
100
AcDbEntity
  8
轮廓线
100
AcDbLine
 10
321.4283766628582
 20
198.3014446668266
 30
0.0
 11
322.9283766628582
 21
196.8014446668266
 31
0.0
  0
LINE
  5
25D
102
{ACAD_REACTORS
330
376
330
38B
102
}
330
1F
100
AcDbEntity
  8
轮廓线
100
AcDbLine
 10
187.9283766628582
 20
200.8014446668266
 30
0.0
 11
178.598249643936
 21
203.3014446668266
 31
0.0
  0
LINE
  5
25E
330
1F
100
AcDbEntity
  8
轮廓线
100
AcDbLine
 10
84.42837666285823
 20
200.8014446668266
 30
0.0
 11
84.42837666285823
 21
178.3014446668266
 31
0.0
  0
LINE
  5
25F
330
1F
100
AcDbEntity
  8
轮廓线
100
AcDbLine
 10
178.598249643936
 20
203.3014446668266
 30
0.0
 11
178.598249643936
 21
185.4100332962772
 31
0.0
  0
LINE
  5
260
330
1F
100
AcDbEntity
  8
轮廓线
100
AcDbLine
 10
236.4283766628585
 20
200.8014446668266
 30
0.0
 11
236.4283766628585
 21
178.3014446668266
 31
0.0
  0
LINE
  5
261
330
1F
100
AcDbEntity
  8
轮廓线
100
AcDbLine
 10
321.4283766628582
 20
198.3014446668266
 30
0.0
 11
321.4283766628582
 21
178.3014446668266
 31
0.0
  0
LINE
  5
262
330
1F
100
AcDbEntity
  8
轮廓线
100
AcDbLine
 10
82.92837666285823
 20
178.3014446668266
 30
0.0
 11
82.92837666285823
 21
157.3014446668266
 31
0.0
  0
LINE
  5
263
330
1F
100
AcDbEntity
  8
轮廓线
100
AcDbLine
 10
84.42837666285823
 20
155.8014446668266
 30
0.0
 11
104.9283766628582
 21
155.8014446668266
 31
0.0
  0
LINE
  5
264
330
1F
100
AcDbEntity
  8
轮廓线
100
AcDbLine
 10
104.9283766628582
 20
155.8014446668266
 30
0.0
 11
104.9283766628582
 21
156.8014446668266
 31
0.0
  0
LINE
  5
265
330
1F
100
AcDbEntity
  8
轮廓线
100
AcDbLine
 10
104.9283766628582
 20
156.8014446668266
 30
0.0
 11
104.9283766628582
 21
178.3014446668266
 31
0.0
  0
LINE
  5
266
330
1F
100
AcDbEntity
  8
轮廓线
100
AcDbLine
 10
107.9283766628582
 20
178.3014446668266
 30
0.0
 11
107.9283766628582
 21
150.8014446668266
 31
0.0
  0
LINE
  5
267
330
1F
100
AcDbEntity
  8
轮廓线
100
AcDbLine
 10
107.9283766628582
 20
150.8014446668266
 30
0.0
 11
132.9283766628582
 21
150.8014446668266
 31
0.0
  0
LINE
  5
268
330
1F
100
AcDbEntity
  8
轮廓线
100
AcDbLine
 10
132.9283766628582
 20
150.8014446668266
 30
0.0
 11
132.9283766628582
 21
178.3014446668266
 31
0.0
  0
LINE
  5
269
330
1F
100
AcDbEntity
  8
轮廓线
100
AcDbLine
 10
135.9283766628582
 20
178.3014446668266
 30
0.0
 11
135.9283766628582
 21
154.3014446668266
 31
0.0
  0
LINE
  5
26A
330
1F
100
AcDbEntity
  8
轮廓线
100
AcDbLine
 10
135.9283766628582
 20
153.3014446668266
 30
0.0
 11
178.598249643936
 21
153.3014446668266
 31
0.0
  0
LINE
  5
26B
330
1F
100
AcDbEntity
  8
轮廓线
100
AcDbLine
 10
187.9283766628582
 20
155.8014446668266
 30
0.0
 11
187.9283766628582
 21
178.3014446668266
 31
0.0
  0
LINE
  5
26C
330
1F
100
AcDbEntity
  8
轮廓线
100
AcDbLine
 10
237.9283766628582
 20
178.3014446668266
 30
0.0
 11
237.9283766628585
 21
157.3014446668266
 31
0.0
  0
LINE
  5
26D
102
{ACAD_REACTORS
330
38B
102
}
330
1F
100
AcDbEntity
  8
轮廓线
100
AcDbLine
 10
236.4283766628585
 20
155.8014446668266
 30
0.0
 11
187.9283766628582
 21
155.8014446668266
 31
0.0
  0
LINE
  5
26E
330
1F
100
AcDbEntity
  8
轮廓线
100
AcDbLine
 10
239.9283766628582
 20
178.3014446668266
 30
0.0
 11
239.9283766628582
 21
158.3014446668266
 31
0.0
  0
LINE
  5
26F
330
1F
100
AcDbEntity
  8
轮廓线
100
AcDbLine
 10
239.9283766628582
 20
158.3014446668266
 30
0.0
 11
321.4283766628582
 21
158.3014446668266
 31
0.0
  0
LINE
  5
270
330
1F
100
AcDbEntity
  8
轮廓线
100
AcDbLine
 10
322.9283766628582
 20
159.8014446668266
 30
0.0
 11
322.9283766628582
 21
178.3014446668266
 31
0.0
  0
LINE
  5
271
330
1F
100
AcDbEntity
  8
轮廓线
100
AcDbLine
 10
104.9283766628582
 20
156.8014446668266
 30
0.0
 11
107.9283766628582
 21
156.8014446668266
 31
0.0
  0
LINE
  5
272
330
1F
100
AcDbEntity
  8
轮廓线
100
AcDbLine
 10
135.9283766628582
 20
154.3014446668266
 30
0.0
 11
132.9283766628582
 21
154.3014446668266
 31
0.0
  0
LINE
  5
273
330
1F
100
AcDbEntity
  8
轮廓线
100
AcDbLine
 10
239.9283766628582
 20
158.8014446668266
 30
0.0
 11
237.9283766628582
 21
158.8014446668266
 31
0.0
  0
LINE
  5
276
330
1F
100
AcDbEntity
  8
轮廓线
100
AcDbLine
 10
321.4283766628582
 20
158.3014446668266
 30
0.0
 11
322.9283766628582
 21
159.8014446668266
 31
0.0
  0
LINE
  5
277
102
{ACAD_REACTORS
330
38B
102
}
330
1F
100
AcDbEntity
  8
轮廓线
100
AcDbLine
 10
187.9283766628582
 20
155.8014446668266
 30
0.0
 11
178.598249643936
 21
153.3014446668266
 31
0.0
  0
LINE
  5
278
330
1F
100
AcDbEntity
  8
轮廓线
100
AcDbLine
 10
84.42837666285823
 20
155.8014446668266
 30
0.0
 11
84.42837666285823
 21
178.3014446668266
 31
0.0
  0
LINE
  5
279
330
1F
100
AcDbEntity
  8
轮廓线
100
AcDbLine
 10
178.598249643936
 20
153.3014446668266
 30
0.0
 11
178.598249643936
 21
171.1928560373759
 31
0.0
  0
LINE
  5
27A
330
1F
100
AcDbEntity
  8
轮廓线
100
AcDbLine
 10
236.4283766628585
 20
155.8014446668266
 30
0.0
 11
236.4283766628585
 21
178.3014446668266
 31
0.0
  0
LINE
  5
27B
330
1F
100
AcDbEntity
  8
轮廓线
100
AcDbLine
 10
321.4283766628582
 20
158.3014446668266
 30
0.0
 11
321.4283766628582
 21
178.3014446668266
 31
0.0
  0
LINE
  5
27C
330
1F
100
AcDbEntity
  8
轮廓线
100
AcDbLine
 10
145.9283766628582
 20
186.3014446668266
 30
0.0
 11
174.9283766628582
 21
186.3014446668266
 31
0.0
  0
LINE
  5
27D
330
1F
100
AcDbEntity
  8
轮廓线
100
AcDbLine
 10
145.9283766628582
 20
170.3014446668266
 30
0.0
 11
174.9283766628582
 21
170.3014446668266
 31
0.0
  0
ARC
  5
27E
330
1F
100
AcDbEntity
  8
轮廓线
100
AcDbCircle
 10
145.9283766628582
 20
178.3014446668266
 30
0.0
 40
8.0
100
AcDbArc
 50
90.0
 51
270.0
  0
ARC
  5
27F
330
1F
100
AcDbEntity
  8
轮廓线
100
AcDbCircle
 10
174.9283766628582
 20
178.3014446668266
 30
0.0
 40
8.0
100
AcDbArc
 50
270.0
 51
90.0
  0
LINE
  5
280
330
1F
100
AcDbEntity
  8
轮廓线
100
AcDbLine
 10
288.9283766628582
 20
184.3014446668266
 30
0.0
 11
311.9283766628582
 21
184.3014446668266
 31
0.0
  0
LINE
  5
281
330
1F
100
AcDbEntity
  8
轮廓线
100
AcDbLine
 10
288.9283766628582
 20
172.3014446668266
 30
0.0
 11
311.9283766628582
 21
172.3014446668266
 31
0.0
  0
ARC
  5
282
330
1F
100
AcDbEntity
  8
轮廓线
100
AcDbCircle
 10
288.9283766628582
 20
178.3014446668266
 30
0.0
 40
6.0
100
AcDbArc
 50
90.0
 51
270.0
  0
ARC
  5
283
330
1F
100
AcDbEntity
  8
轮廓线
100
AcDbCircle
 10
311.9283766628582
 20
178.3014446668266
 30
0.0
 40
6.0
100
AcDbArc
 50
270.0
 51
90.0
  0
LINE
  5
291
330
1F
100
AcDbEntity
  8
2-基准
100
AcDbLine
 10
145.9283766628582
 20
192.3014446668265
 30
0.0
 11
145.9283766628582
 21
164.3014446668266
 31
0.0
  0
LINE
  5
292
330
1F
100
AcDbEntity
  8
2-基准
100
AcDbLine
 10
174.9283766628582
 20
192.3014446668265
 30
0.0
 11
174.9283766628582
 21
164.3014446668266
 31
0.0
  0
LINE
  5
293
330
1F
100
AcDbEntity
  8
点划线
100
AcDbLine
 10
288.9283766628582
 20
190.3014446668266
 30
0.0
 11
288.9283766628582
 21
166.3014446668266
 31
0.0
  0
LINE
  5
294
330
1F
100
AcDbEntity
  8
点划线
100
AcDbLine
 10
311.9283766628582
 20
190.3014446668266
 30
0.0
 11
311.9283766628582
 21
166.3014446668266
 31
0.0
  0
LINE
  5
2BB
102
{ACAD_REACTORS
330
38B
102
}
330
1F
100
AcDbEntity
  8
01-轮廓线
100
AcDbLine
 10
188.4283766628581
 20
150.8014446668267
 30
0.0
 11
211.9283766628582
 21
150.8014446668266
 31
0.0
  0
LINE
  5
2BC
330
1F
100
AcDbEntity
  8
01-轮廓线
100
AcDbLine
 10
188.9283766628582
 20
155.8014446668266
 30
0.0
 11
211.9283766628582
 21
155.8014446668266
 31
0.0
  0
LINE
  5
2BD
102
{ACAD_REACTORS
330
38B
102
}
330
1F
100
AcDbEntity
  8
01-轮廓线
100
AcDbLine
 10
188.9283766628583
 20
205.8014446668265
 30
0.0
 11
211.9283766628583
 21
205.8014446668265
 31
0.0
  0
LINE
  5
2BE
330
1F
100
AcDbEntity
  8
01-轮廓线
100
AcDbLine
 10
188.9283766628583
 20
200.8014446668266
 30
0.0
 11
211.9283766628583
 21
200.8014446668265
 31
0.0
  0
LINE
  5
2C0
330
1F
100
AcDbEntity
  8
01-轮廓线
100
AcDbLine
 10
187.9283766628582
 20
154.8014446668266
 30
0.0
 11
187.9283766628583
 21
200.8014446668265
 31
0.0
  0
LINE
  5
2C3
330
1F
100
AcDbEntity
  8
01-轮廓线
100
AcDbLine
 10
187.9283766628581
 20
151.8014446668267
 30
0.0
 11
187.9283766628582
 21
154.8014446668266
 31
0.0
  0
LINE
  5
2C5
102
{ACAD_REACTORS
330
376
330
38B
102
}
330
1F
100
AcDbEntity
  8
01-轮廓线
100
AcDbLine
 10
184.7736761244791
 20
201.6467441284473
 30
0.0
 11
188.9283766628583
 21
205.8014446668265
 31
0.0
  0
LINE
  5
2C7
330
1F
100
AcDbEntity
  8
01-轮廓线
100
AcDbLine
 10
212.9283766628582
 20
154.8014446668266
 30
0.0
 11
212.9283766628581
 21
155.8014446668266
 31
0.0
  0
LINE
  5
2C9
102
{ACAD_REACTORS
330
38B
102
}
330
1F
100
AcDbEntity
  8
01-轮廓线
100
AcDbLine
 10
211.9283766628582
 20
150.8014446668266
 30
0.0
 11
212.9283766628582
 21
151.8014446668266
 31
0.0
  0
LINE
  5
2CB
330
1F
100
AcDbEntity
  8
01-轮廓线
100
AcDbLine
 10
212.9283766628582
 20
151.8014446668266
 30
0.0
 11
212.9283766628582
 21
154.8014446668266
 31
0.0
  0
LINE
  5
2CD
102
{ACAD_REACTORS
330
38B
102
}
330
1F
100
AcDbEntity
  8
01-轮廓线
100
AcDbLine
 10
211.9283766628583
 20
205.8014446668265
 30
0.0
 11
212.9283766628583
 21
204.8014446668265
 31
0.0
  0
LINE
  5
2CE
330
1F
100
AcDbEntity
  8
01-轮廓线
100
AcDbLine
 10
212.9283766628583
 20
204.8014446668265
 30
0.0
 11
212.9283766628583
 21
201.8014446668265
 31
0.0
  0
LINE
  5
2D0
330
1F
100
AcDbEntity
  8
点划线
100
AcDbLine
 10
225.4283766628581
 20
230.3014446668266
 30
0.0
 11
225.4283766628581
 21
126.3014446668266
 31
0.0
  0
HATCH
  5
2D1
330
1F
100
AcDbEntity
  8
剖面线
100
AcDbHatch
 10
0.0
 20
0.0
 30
0.0
210
0.0
220
0.0
230
1.0
  2
ANSI31
 70
     0
 71
     0
 91
        2
 92
        7
 72
     1
 73
     1
 93
        8
 10
237.9283766628581
 20
208.8014446668266
 42
0.0
 10
229.397003629455
 20
208.8014446668266
 42
-0.3779644730092273
 10
221.4597496962612
 20
208.8014446668266
 42
0.0
 10
212.9283766628581
 20
208.8014446668266
 42
0.0
 10
212.9283766628581
 20
199.8014446668266
 42
-0.4142135623730909
 10
213.9283766628581
 20
200.8014446668266
 42
0.0
 10
236.9283766628581
 20
200.8014446668266
 42
-0.414213562373095
 10
237.9283766628581
 20
199.8014446668266
 42
0.0
 97
        0
 92
        7
 72
     1
 73
     1
 93
        8
 10
237.9283766628581
 20
156.8014446668266
 42
-0.4142135623730951
 10
236.9283766628581
 20
155.8014446668266
 42
0.0
 10
213.9283766628581
 20
155.8014446668266
 42
-0.4142135623730951
 10
212.9283766628581
 20
156.8014446668266
 42
0.0
 10
212.9283766628581
 20
147.8014446668266
 42
0.0
 10
221.4597496962612
 20
147.8014446668266
 42
-0.3779644730092273
 10
229.397003629455
 20
147.8014446668266
 42
0.0
 10
237.9283766628581
 20
147.8014446668266
 42
0.0
 97
        0
 75
     0
 76
     1
 52
90.0
 41
0.8
 77
     0
 78
     1
 53
135.0
 43
150.952585394941
 44
99.42832188902716
 45
-1.796051224213831
 46
-1.79605122421383
 79
     0
 47
0.2923919815001935
 98
        2
 10
234.2347509844565
 20
204.21571833134
 10
227.5042618143568
 20
150.4155936100412
  0
HATCH
  5
2D2
330
1F
100
AcDbEntity
  8
剖面线
100
AcDbHatch
 10
0.0
 20
0.0
 30
0.0
210
0.0
220
0.0
230
1.0
  2
ANSI31
 70
     0
 71
     1
 91
        2
 92
        7
 72
     1
 73
     1
 93
        8
 10
237.9283766628581
 20
224.8014446668266
 42
0.4142135623730951
 10
236.9283766628581
 20
225.8014446668266
 42
0.0
 10
213.9283766628581
 20
225.8014446668266
 42
0.4142135623730951
 10
212.9283766628581
 20
224.8014446668266
 42
0.0
 10
212.9283766628581
 20
217.8014446668266
 42
0.0
 10
221.4597496962612
 20
217.8014446668266
 42
-0.3779644730092273
 10
229.397003629455
 20
217.8014446668266
 42
0.0
 10
237.9283766628581
 20
217.8014446668266
 42
0.0
 97
        8
330
2ED
330
2EB
330
2EC
330
2D3
330
2E7
330
2E9
330
2E3
330
2D4
 92
        7
 72
     1
 73
     1
 93
        8
 10
237.9283766628581
 20
138.8014446668266
 42
0.0
 10
229.397003629455
 20
138.8014446668266
 42
-0.3779644730092273
 10
221.4597496962612
 20
138.8014446668266
 42
0.0
 10
212.9283766628581
 20
138.8014446668266
 42
0.0
 10
212.9283766628581
 20
131.8014446668266
 42
0.4142135623730951
 10
213.9283766628581
 20
130.8014446668266
 42
0.0
 10
236.9283766628581
 20
130.8014446668266
 42
0.4142135623730951
 10
237.9283766628581
 20
131.8014446668266
 42
0.0
 97
        8
330
2D6
330
2DD
330
2DA
330
2D3
330
2DC
330
2D8
330
2DF
330
2D4
 75
     0
 76
     1
 52
0.0
 41
0.8
 77
     0
 78
     1
 53
45.0
 43
150.952585394941
 44
99.42832188902716
 45
-1.79605122421383
 46
1.796051224213831
 79
     0
 47
0.2923919815001935
 98
        2
 10
235.9905303781202
 20
220.5896693334744
 10
227.5042618143568
 20
135.2112105366307
  0
LINE
  5
2D3
102
{ACAD_REACTORS
330
2D2
330
38B
102
}
330
1F
100
AcDbEntity
  8
轮廓线
100
AcDbLine
 10
212.9283766628581
 20
224.8014446668266
 30
0.0
 11
212.9283766628581
 21
200.8014446668266
 31
0.0
  0
LINE
  5
2D4
102
{ACAD_REACTORS
330
2D2
102
}
330
1F
100
AcDbEntity
  8
轮廓线
100
AcDbLine
 10
237.9283766628581
 20
131.8014446668266
 30
0.0
 11
237.9283766628581
 21
224.8014446668266
 31
0.0
  0
LINE
  5
2D5
330
1F
100
AcDbEntity
  8
轮廓线
100
AcDbLine
 10
236.9283766628581
 20
155.8014446668266
 30
0.0
 11
213.9283766628581
 21
155.8014446668266
 31
0.0
  0
LINE
  5
2D6
102
{ACAD_REACTORS
330
2D2
102
}
330
1F
100
AcDbEntity
  8
轮廓线
100
AcDbLine
 10
237.9283766628581
 20
138.8014446668266
 30
0.0
 11
229.397003629455
 21
138.8014446668266
 31
0.0
  0
LINE
  5
2D7
330
1F
100
AcDbEntity
  8
轮廓线
100
AcDbLine
 10
237.9283766628581
 20
147.8014446668266
 30
0.0
 11
229.397003629455
 21
147.8014446668266
 31
0.0
  0
LINE
  5
2D8
102
{ACAD_REACTORS
330
2D2
102
}
330
1F
100
AcDbEntity
  8
轮廓线
100
AcDbLine
 10
213.9283766628581
 20
130.8014446668266
 30
0.0
 11
236.9283766628581
 21
130.8014446668266
 31
0.0
  0
LINE
  5
2D9
330
1F
100
AcDbEntity
  8
点划线
100
AcDbLine
 10
214.9283766628581
 20
143.3014446668266
 30
0.0
 11
235.9283766628581
 21
143.3014446668266
 31
0.0
  0
LINE
  5
2DA
102
{ACAD_REACTORS
330
2D2
102
}
330
1F
100
AcDbEntity
  8
轮廓线
100
AcDbLine
 10
221.4597496962612
 20
138.8014446668266
 30
0.0
 11
212.9283766628581
 21
138.8014446668266
 31
0.0
  0
LINE
  5
2DB
330
1F
100
AcDbEntity
  8
轮廓线
100
AcDbLine
 10
221.4597496962612
 20
147.8014446668266
 30
0.0
 11
212.9283766628581
 21
147.8014446668266
 31
0.0
  0
ARC
  5
2DC
102
{ACAD_REACTORS
330
2D2
102
}
330
1F
100
AcDbEntity
  8
轮廓线
100
AcDbCircle
 10
213.9283766628581
 20
131.8014446668266
 30
0.0
 40
1.0
100
AcDbArc
 50
180.0
 51
270.0
  0
CIRCLE
  5
2DD
102
{ACAD_REACTORS
330
2D2
102
}
330
1F
100
AcDbEntity
  8
轮廓线
100
AcDbCircle
 10
225.4283766628581
 20
143.3014446668266
 30
0.0
 40
6.0
  0
ARC
  5
2DF
102
{ACAD_REACTORS
330
2D2
102
}
330
1F
100
AcDbEntity
  8
轮廓线
100
AcDbCircle
 10
236.9283766628581
 20
131.8014446668266
 30
0.0
 40
1.0
100
AcDbArc
 50
270.0
 51
0.0
  0
ARC
  5
2E0
330
1F
100
AcDbEntity
  8
轮廓线
100
AcDbCircle
 10
236.9283766628581
 20
156.8014446668266
 30
0.0
 40
1.0
100
AcDbArc
 50
270.0
 51
0.0
  0
LINE
  5
2E1
330
1F
100
AcDbEntity
  8
点划线
100
AcDbLine
 10
242.4283766628581
 20
178.3014446668266
 30
0.0
 11
208.4283766628581
 21
178.3014446668266
 31
0.0
  0
LINE
  5
2E2
330
1F
100
AcDbEntity
  8
轮廓线
100
AcDbLine
 10
237.9283766628581
 20
208.8014446668266
 30
0.0
 11
229.397003629455
 21
208.8014446668266
 31
0.0
  0
LINE
  5
2E3
102
{ACAD_REACTORS
330
2D2
102
}
330
1F
100
AcDbEntity
  8
轮廓线
100
AcDbLine
 10
237.9283766628581
 20
217.8014446668266
 30
0.0
 11
229.397003629455
 21
217.8014446668266
 31
0.0
  0
LINE
  5
2E4
330
1F
100
AcDbEntity
  8
轮廓线
100
AcDbLine
 10
236.9283766628581
 20
200.8014446668266
 30
0.0
 11
213.9283766628581
 21
200.8014446668266
 31
0.0
  0
LINE
  5
2E5
330
1F
100
AcDbEntity
  8
点划线
100
AcDbLine
 10
235.9283766628581
 20
213.3014446668266
 30
0.0
 11
214.9283766628581
 21
213.3014446668266
 31
0.0
  0
LINE
  5
2E6
330
1F
100
AcDbEntity
  8
轮廓线
100
AcDbLine
 10
221.4597496962612
 20
208.8014446668266
 30
0.0
 11
212.9283766628581
 21
208.8014446668266
 31
0.0
  0
LINE
  5
2E7
102
{ACAD_REACTORS
330
2D2
102
}
330
1F
100
AcDbEntity
  8
轮廓线
100
AcDbLine
 10
221.4597496962612
 20
217.8014446668266
 30
0.0
 11
212.9283766628581
 21
217.8014446668266
 31
0.0
  0
CIRCLE
  5
2E9
102
{ACAD_REACTORS
330
2D2
102
}
330
1F
100
AcDbEntity
  8
轮廓线
100
AcDbCircle
 10
225.4283766628581
 20
213.3014446668266
 30
0.0
 40
6.0
  0
ARC
  5
2EA
330
1F
100
AcDbEntity
  8
轮廓线
100
AcDbCircle
 10
236.9283766628581
 20
199.8014446668266
 30
0.0
 40
1.0
100
AcDbArc
 50
0.0
 51
90.0
  0
LINE
  5
2EB
102
{ACAD_REACTORS
330
2D2
102
}
330
1F
100
AcDbEntity
  8
轮廓线
100
AcDbLine
 10
236.9283766628581
 20
225.8014446668266
 30
0.0
 11
213.9283766628581
 21
225.8014446668266
 31
0.0
  0
ARC
  5
2EC
102
{ACAD_REACTORS
330
2D2
102
}
330
1F
100
AcDbEntity
  8
轮廓线
100
AcDbCircle
 10
213.9283766628581
 20
224.8014446668266
 30
0.0
 40
1.0
100
AcDbArc
 50
90.0
 51
180.0
  0
ARC
  5
2ED
102
{ACAD_REACTORS
330
2D2
102
}
330
1F
100
AcDbEntity
  8
轮廓线
100
AcDbCircle
 10
236.9283766628581
 20
224.8014446668266
 30
0.0
 40
1.0
100
AcDbArc
 50
0.0
 51
90.0
  0
LINE
  5
2EE
330
1F
100
AcDbEntity
  8
点划线
100
AcDbLine
 10
95.42837666285826
 20
230.3014446668266
 30
0.0
 11
95.42837666285826
 21
126.3014446668266
 31
0.0
  0
HATCH
  5
2EF
330
1F
100
AcDbEntity
  8
剖面线
100
AcDbHatch
 10
0.0
 20
0.0
 30
0.0
210
0.0
220
0.0
230
1.0
  2
ANSI31
 70
     0
 71
     1
 91
        2
 92
        7
 72
     1
 73
     1
 93
        8
 10
107.9283766628583
 20
208.8014446668266
 42
0.0
 10
99.39700362945514
 20
208.8014446668266
 42
-0.3779644730092273
 10
91.45974969626137
 20
208.8014446668266
 42
0.0
 10
82.92837666285826
 20
208.8014446668266
 42
0.0
 10
82.92837666285826
 20
199.8014446668266
 42
-0.4142135623730909
 10
83.92837666285824
 20
200.8014446668266
 42
0.0
 10
106.9283766628582
 20
200.8014446668266
 42
-0.414213562373095
 10
107.9283766628582
 20
199.8014446668266
 42
0.0
 97
        8
330
300
330
307
330
304
330
2F1
330
306
330
302
330
308
330
2F2
 92
        7
 72
     1
 73
     1
 93
        8
 10
107.9283766628583
 20
156.8014446668266
 42
-0.4142135623730951
 10
106.9283766628583
 20
155.8014446668266
 42
0.0
 10
83.92837666285824
 20
155.8014446668266
 42
-0.4142135623730951
 10
82.92837666285824
 20
156.8014446668266
 42
0.0
 10
82.92837666285823
 20
147.8014446668266
 42
0.0
 10
91.45974969626137
 20
147.8014446668266
 42
-0.3779644730092273
 10
99.39700362945514
 20
147.8014446668266
 42
0.0
 10
107.9283766628583
 20
147.8014446668266
 42
0.0
 97
        8
330
2FE
330
2F3
330
2FC
330
2F1
330
2F9
330
2FB
330
2F5
330
2F2
 75
     0
 76
     1
 52
90.0
 41
0.8
 77
     0
 78
     1
 53
135.0
 43
20.95258539494115
 44
99.42832188902716
 45
-1.796051224213831
 46
-1.79605122421383
 79
     0
 47
0.2923919815001935
 98
        2
 10
104.2347509844566
 20
204.21571833134
 10
97.50426181435695
 20
150.4155936100412
  0
HATCH
  5
2F0
330
1F
100
AcDbEntity
  8
剖面线
100
AcDbHatch
 10
0.0
 20
0.0
 30
0.0
210
0.0
220
0.0
230
1.0
  2
ANSI31
 70
     0
 71
     1
 91
        2
 92
        7
 72
     1
 73
     1
 93
        8
 10
107.9283766628582
 20
224.8014446668266
 42
0.4142135623730951
 10
106.9283766628582
 20
225.8014446668266
 42
0.0
 10
83.92837666285824
 20
225.8014446668266
 42
0.4142135623730951
 10
82.92837666285824
 20
224.8014446668266
 42
0.0
 10
82.92837666285826
 20
217.8014446668266
 42
0.0
 10
91.45974969626137
 20
217.8014446668266
 42
-0.3779644730092273
 10
99.39700362945514
 20
217.8014446668266
 42
0.0
 10
107.9283766628583
 20
217.8014446668266
 42
0.0
 97
        8
330
30B
330
309
330
30A
330
2F1
330
305
330
307
330
301
330
2F2
 92
        7
 72
     1
 73
     1
 93
        8
 10
107.9283766628583
 20
138.8014446668266
 42
0.0
 10
99.39700362945514
 20
138.8014446668266
 42
-0.3779644730092273
 10
91.45974969626137
 20
138.8014446668266
 42
0.0
 10
82.92837666285826
 20
138.8014446668266
 42
0.0
 10
82.92837666285824
 20
131.8014446668266
 42
0.4142135623730951
 10
83.92837666285824
 20
130.8014446668266
 42
0.0
 10
106.9283766628582
 20
130.8014446668266
 42
0.4142135623730951
 10
107.9283766628582
 20
131.8014446668266
 42
0.0
 97
        8
330
2F4
330
2FB
330
2F8
330
2F1
330
2FA
330
2F6
330
2FD
330
2F2
 75
     0
 76
     1
 52
0.0
 41
0.8
 77
     0
 78
     1
 53
45.0
 43
20.95258539494115
 44
99.42832188902716
 45
-1.79605122421383
 46
1.796051224213831
 79
     0
 47
0.2923919815001935
 98
        2
 10
105.9905303781203
 20
220.5896693334744
 10
97.50426181435695
 20
135.2112105366307
  0
LINE
  5
2F1
102
{ACAD_REACTORS
330
2F0
330
2EF
102
}
330
1F
100
AcDbEntity
  8
轮廓线
100
AcDbLine
 10
82.92837666285824
 20
224.8014446668266
 30
0.0
 11
82.92837666285824
 21
131.8014446668266
 31
0.0
  0
LINE
  5
2F2
102
{ACAD_REACTORS
330
2F0
330
2EF
102
}
330
1F
100
AcDbEntity
  8
轮廓线
100
AcDbLine
 10
107.9283766628582
 20
131.8014446668266
 30
0.0
 11
107.9283766628582
 21
224.8014446668266
 31
0.0
  0
LINE
  5
2F3
102
{ACAD_REACTORS
330
2EF
102
}
330
1F
100
AcDbEntity
  8
轮廓线
100
AcDbLine
 10
106.9283766628582
 20
155.8014446668266
 30
0.0
 11
83.92837666285824
 21
155.8014446668266
 31
0.0
  0
LINE
  5
2F4
102
{ACAD_REACTORS
330
2F0
102
}
330
1F
100
AcDbEntity
  8
轮廓线
100
AcDbLine
 10
107.9283766628583
 20
138.8014446668266
 30
0.0
 11
99.39700362945514
 21
138.8014446668266
 31
0.0
  0
LINE
  5
2F5
102
{ACAD_REACTORS
330
2EF
102
}
330
1F
100
AcDbEntity
  8
轮廓线
100
AcDbLine
 10
107.9283766628583
 20
147.8014446668266
 30
0.0
 11
99.39700362945514
 21
147.8014446668266
 31
0.0
  0
LINE
  5
2F6
102
{ACAD_REACTORS
330
2F0
102
}
330
1F
100
AcDbEntity
  8
轮廓线
100
AcDbLine
 10
83.92837666285824
 20
130.8014446668266
 30
0.0
 11
106.9283766628582
 21
130.8014446668266
 31
0.0
  0
LINE
  5
2F7
330
1F
100
AcDbEntity
  8
点划线
100
AcDbLine
 10
84.92837666285826
 20
143.3014446668266
 30
0.0
 11
105.9283766628583
 21
143.3014446668266
 31
0.0
  0
LINE
  5
2F8
102
{ACAD_REACTORS
330
2F0
102
}
330
1F
100
AcDbEntity
  8
轮廓线
100
AcDbLine
 10
91.45974969626137
 20
138.8014446668266
 30
0.0
 11
82.92837666285826
 21
138.8014446668266
 31
0.0
  0
LINE
  5
2F9
102
{ACAD_REACTORS
330
2EF
102
}
330
1F
100
AcDbEntity
  8
轮廓线
100
AcDbLine
 10
91.45974969626137
 20
147.8014446668266
 30
0.0
 11
82.92837666285826
 21
147.8014446668266
 31
0.0
  0
ARC
  5
2FA
102
{ACAD_REACTORS
330
2F0
102
}
330
1F
100
AcDbEntity
  8
轮廓线
100
AcDbCircle
 10
83.92837666285824
 20
131.8014446668266
 30
0.0
 40
1.0
100
AcDbArc
 50
180.0
 51
270.0
  0
CIRCLE
  5
2FB
102
{ACAD_REACTORS
330
2F0
330
2EF
102
}
330
1F
100
AcDbEntity
  8
轮廓线
100
AcDbCircle
 10
95.42837666285826
 20
143.3014446668266
 30
0.0
 40
6.0
  0
ARC
  5
2FC
102
{ACAD_REACTORS
330
2EF
102
}
330
1F
100
AcDbEntity
  8
轮廓线
100
AcDbCircle
 10
83.92837666285826
 20
156.8014446668266
 30
0.0
 40
1.0
100
AcDbArc
 50
180.0
 51
270.0
  0
ARC
  5
2FD
102
{ACAD_REACTORS
330
2F0
102
}
330
1F
100
AcDbEntity
  8
轮廓线
100
AcDbCircle
 10
106.9283766628582
 20
131.8014446668266
 30
0.0
 40
1.0
100
AcDbArc
 50
270.0
 51
0.0
  0
ARC
  5
2FE
102
{ACAD_REACTORS
330
2EF
102
}
330
1F
100
AcDbEntity
  8
轮廓线
100
AcDbCircle
 10
106.9283766628583
 20
156.8014446668266
 30
0.0
 40
1.0
100
AcDbArc
 50
270.0
 51
0.0
  0
LINE
  5
2FF
330
1F
100
AcDbEntity
  8
点划线
100
AcDbLine
 10
112.4283766628582
 20
178.3014446668266
 30
0.0
 11
78.42837666285824
 21
178.3014446668266
 31
0.0
  0
LINE
  5
300
102
{ACAD_REACTORS
330
2EF
102
}
330
1F
100
AcDbEntity
  8
轮廓线
100
AcDbLine
 10
107.9283766628583
 20
208.8014446668266
 30
0.0
 11
99.39700362945514
 21
208.8014446668266
 31
0.0
  0
LINE
  5
301
102
{ACAD_REACTORS
330
2F0
102
}
330
1F
100
AcDbEntity
  8
轮廓线
100
AcDbLine
 10
107.9283766628583
 20
217.8014446668266
 30
0.0
 11
99.39700362945514
 21
217.8014446668266
 31
0.0
  0
LINE
  5
302
102
{ACAD_REACTORS
330
2EF
102
}
330
1F
100
AcDbEntity
  8
轮廓线
100
AcDbLine
 10
106.9283766628582
 20
200.8014446668266
 30
0.0
 11
83.92837666285824
 21
200.8014446668266
 31
0.0
  0
LINE
  5
303
330
1F
100
AcDbEntity
  8
点划线
100
AcDbLine
 10
105.9283766628583
 20
213.3014446668266
 30
0.0
 11
84.92837666285826
 21
213.3014446668266
 31
0.0
  0
LINE
  5
304
102
{ACAD_REACTORS
330
2EF
102
}
330
1F
100
AcDbEntity
  8
轮廓线
100
AcDbLine
 10
91.45974969626137
 20
208.8014446668266
 30
0.0
 11
82.92837666285826
 21
208.8014446668266
 31
0.0
  0
LINE
  5
305
102
{ACAD_REACTORS
330
2F0
102
}
330
1F
100
AcDbEntity
  8
轮廓线
100
AcDbLine
 10
91.45974969626137
 20
217.8014446668266
 30
0.0
 11
82.92837666285826
 21
217.8014446668266
 31
0.0
  0
ARC
  5
306
102
{ACAD_REACTORS
330
2EF
102
}
330
1F
100
AcDbEntity
  8
轮廓线
100
AcDbCircle
 10
83.92837666285826
 20
199.8014446668266
 30
0.0
 40
1.0
100
AcDbArc
 50
90.0
 51
180.0
  0
CIRCLE
  5
307
102
{ACAD_REACTORS
330
2F0
330
2EF
102
}
330
1F
100
AcDbEntity
  8
轮廓线
100
AcDbCircle
 10
95.42837666285826
 20
213.3014446668266
 30
0.0
 40
6.0
  0
ARC
  5
308
102
{ACAD_REACTORS
330
2EF
102
}
330
1F
100
AcDbEntity
  8
轮廓线
100
AcDbCircle
 10
106.9283766628583
 20
199.8014446668266
 30
0.0
 40
1.0
100
AcDbArc
 50
0.0
 51
90.0
  0
LINE
  5
309
102
{ACAD_REACTORS
330
2F0
102
}
330
1F
100
AcDbEntity
  8
轮廓线
100
AcDbLine
 10
106.9283766628582
 20
225.8014446668266
 30
0.0
 11
83.92837666285824
 21
225.8014446668266
 31
0.0
  0
ARC
  5
30A
102
{ACAD_REACTORS
330
2F0
102
}
330
1F
100
AcDbEntity
  8
轮廓线
100
AcDbCircle
 10
83.92837666285824
 20
224.8014446668266
 30
0.0
 40
1.0
100
AcDbArc
 50
90.0
 51
180.0
  0
ARC
  5
30B
102
{ACAD_REACTORS
330
2F0
102
}
330
1F
100
AcDbEntity
  8
轮廓线
100
AcDbCircle
 10
106.9283766628582
 20
224.8014446668266
 30
0.0
 40
1.0
100
AcDbArc
 50
0.0
 51
90.0
  0
LINE
  5
327
102
{ACAD_REACTORS
330
376
102
}
330
1F
100
AcDbEntity
  8
轮廓线
100
AcDbLine
 10
132.9283766628582
 20
88.30144466682657
 30
0.0
 11
132.9283766628582
 21
268.3014446668266
 31
0.0
  0
LINE
  5
328
102
{ACAD_REACTORS
330
376
330
38B
102
}
330
1F
100
AcDbEntity
  8
轮廓线
100
AcDbLine
 10
187.9283766628582
 20
88.30144466682657
 30
0.0
 11
187.9283766628582
 21
200.8014446668266
 31
0.0
  0
LINE
  5
329
330
1F
100
AcDbEntity
  8
轮廓线
100
AcDbLine
 10
134.9283766628582
 20
153.3014446668266
 30
0.0
 11
134.9283766628583
 21
154.3014446668266
 31
0.0
  0
LINE
  5
32C
330
1F
100
AcDbEntity
  8
02-中心线
100
AcDbLine
 10
126.9283766628582
 20
178.3014446668266
 30
0.0
 11
193.9283766628582
 21
178.3014446668266
 31
0.0
  0
LINE
  5
32D
330
1F
100
AcDbEntity
  8
02-中心线
100
AcDbLine
 10
126.9283766628582
 20
88.30144466682657
 30
0.0
 11
193.9283766628582
 21
88.30144466682657
 31
0.0
  0
LINE
  5
32E
102
{ACAD_REACTORS
330
376
102
}
330
1F
100
AcDbEntity
  8
轮廓线
100
AcDbLine
 10
132.9283766628582
 20
93.30144466682657
 30
0.0
 11
187.9283766628582
 21
93.30144466682657
 31
0.0
  0
LINE
  5
32F
330
1F
100
AcDbEntity
  8
轮廓线
100
AcDbLine
 10
136.9283766628582
 20
84.30144466682657
 30
0.0
 11
183.9283766628582
 21
84.30144466682657
 31
0.0
  0
LINE
  5
330
330
1F
100
AcDbEntity
  8
轮廓线
100
AcDbLine
 10
132.9283766628582
 20
88.30144466682657
 30
0.0
 11
136.9283766628582
 21
84.30144466682657
 31
0.0
  0
LINE
  5
331
330
1F
100
AcDbEntity
  8
轮廓线
100
AcDbLine
 10
183.9283766628582
 20
84.30144466682657
 30
0.0
 11
187.9283766628582
 21
88.30144466682657
 31
0.0
  0
LINE
  5
332
102
{ACAD_REACTORS
330
376
330
38B
102
}
330
1F
100
AcDbEntity
  8
轮廓线
100
AcDbLine
 10
185.9283766628582
 20
153.3014446668266
 30
0.0
 11
134.9283766628582
 21
153.3014446668266
 31
0.0
  0
LINE
  5
333
102
{ACAD_REACTORS
330
376
102
}
330
1F
100
AcDbEntity
  8
01-轮廓线
100
AcDbLine
 10
132.9283766628582
 20
151.3014446668266
 30
0.0
 11
134.9283766628582
 21
153.3014446668266
 31
0.0
  0
LINE
  5
334
102
{ACAD_REACTORS
330
376
330
38B
102
}
330
1F
100
AcDbEntity
  8
01-轮廓线
100
AcDbLine
 10
185.9283766628582
 20
153.3014446668266
 30
0.0
 11
188.4283766628581
 21
150.8014446668267
 31
0.0
  0
LINE
  5
335
330
1F
100
AcDbEntity
  8
02-中心线
100
AcDbLine
 10
126.9283766628582
 20
268.3014446668266
 30
0.0
 11
193.9283766628582
 21
268.3014446668266
 31
0.0
  0
LINE
  5
338
102
{ACAD_REACTORS
330
376
102
}
330
1F
100
AcDbEntity
  8
轮廓线
100
AcDbLine
 10
132.9283766628582
 20
203.9868832314806
 30
0.0
 11
134.6138152275123
 21
202.3014446668266
 31
0.0
  0
LINE
  5
33A
330
1F
100
AcDbEntity
  8
轮廓线
100
AcDbLine
 10
136.9283766628582
 20
272.3014446668266
 30
0.0
 11
183.9283766628582
 21
272.3014446668266
 31
0.0
  0
LINE
  5
33B
102
{ACAD_REACTORS
330
376
102
}
330
1F
100
AcDbEntity
  8
轮廓线
100
AcDbLine
 10
132.9283766628582
 20
263.3014446668266
 30
0.0
 11
187.9283766628582
 21
263.3014446668266
 31
0.0
  0
LINE
  5
33C
330
1F
100
AcDbEntity
  8
轮廓线
100
AcDbLine
 10
132.9283766628582
 20
268.3014446668266
 30
0.0
 11
136.9283766628582
 21
272.3014446668266
 31
0.0
  0
LINE
  5
33D
330
1F
100
AcDbEntity
  8
轮廓线
100
AcDbLine
 10
183.9283766628582
 20
272.3014446668266
 30
0.0
 11
187.9283766628582
 21
268.3014446668266
 31
0.0
  0
LINE
  5
33F
102
{ACAD_REACTORS
330
376
102
}
330
1F
100
AcDbEntity
  8
轮廓线
100
AcDbLine
 10
187.9283766628582
 20
204.8014446668264
 30
0.0
 11
187.9283766628582
 21
268.3014446668266
 31
0.0
  0
LINE
  5
340
102
{ACAD_REACTORS
330
38B
102
}
330
1F
100
AcDbEntity
  8
轮廓线
100
AcDbLine
 10
212.9283766628581
 20
155.8014446668266
 30
0.0
 11
212.9283766628581
 21
131.8014446668266
 31
0.0
  0
LINE
  5
341
102
{ACAD_REACTORS
330
38B
102
}
330
1F
100
AcDbEntity
  8
01-轮廓线
100
AcDbLine
 10
212.9283766628581
 20
200.8014446668265
 30
0.0
 11
212.9283766628581
 21
201.8014446668266
 31
0.0
  0
LINE
  5
342
102
{ACAD_REACTORS
330
38B
102
}
330
1F
100
AcDbEntity
  8
01-轮廓线
100
AcDbLine
 10
187.9283766628582
 20
204.8014446668264
 30
0.0
 11
187.9283766628583
 21
200.8014446668265
 31
0.0
  0
HATCH
  5
376
330
1F
100
AcDbEntity
  8
剖面线
100
AcDbHatch
 10
0.0
 20
0.0
 30
0.0
210
0.0
220
0.0
230
1.0
  2
ANSI31
 70
     0
 71
     1
 91
        2
 92
        7
 72
     0
 73
     1
 93
        9
 10
187.9283766628583
 20
263.3014446668266
 10
132.9283766628582
 20
263.3014446668266
 10
132.9283766628582
 20
203.9868832314806
 10
134.6138152275123
 20
202.3014446668266
 10
135.9283766628582
 20
202.3014446668266
 10
135.9283766628582
 20
203.3014446668266
 10
178.5982496439359
 20
203.3014446668266
 10
184.773676124479
 20
201.6467441284473
 10
187.9283766628582
 20
204.8014446668264
 97
        9
330
33B
330
327
330
338
330
258
330
24F
330
250
330
25D
330
2C5
330
33F
 92
        7
 72
     0
 73
     1
 93
        6
 10
187.9283766628582
 20
151.3014446668266
 10
185.9283766628582
 20
153.3014446668266
 10
134.9283766628582
 20
153.3014446668266
 10
132.9283766628582
 20
151.3014446668266
 10
132.9283766628582
 20
93.30144466682657
 10
187.9283766628582
 20
93.30144466682657
 97
        6
330
334
330
332
330
333
330
327
330
32E
330
328
 75
     0
 76
     1
 52
0.0
 41
1.0
 77
     0
 78
     1
 53
45.0
 43
0.0
 44
0.0
 45
-2.245064030267288
 46
2.245064030267288
 79
     0
 47
0.130701594064013
 98
        2
 10
169.0498953746877
 20
235.9685103173633
 10
165.9210751053182
 20
119.1301869984897
  0
HATCH
  5
38B
330
1F
100
AcDbEntity
  8
剖面线
100
AcDbHatch
 10
0.0
 20
0.0
 30
0.0
210
0.0
220
0.0
230
1.0
  2
ANSI31
 70
     0
 71
     1
 91
        4
 92
        7
 72
     0
 73
     1
 93
        7
 10
212.9283766628581
 20
204.8014446668267
 10
211.9283766628583
 20
205.8014446668265
 10
188.9283766628583
 20
205.8014446668264
 10
187.9283766628582
 20
204.8014446668264
 10
187.9283766628583
 20
200.8014446668266
 10
212.9283766628581
 20
200.8014446668266
 10
212.9283766628581
 20
201.8014446668266
 97
        7
330
2CD
330
2BD
330
2C5
330
342
330
253
330
341
330
2D3
 92
        7
 72
     0
 73
     1
 93
        3
 10
187.9283766628582
 20
204.8014446668264
 10
184.7736761244791
 20
201.6467441284473
 10
187.9283766628582
 20
200.8014446668265
 97
        3
330
2C5
330
25D
330
342
 92
        7
 72
     0
 73
     1
 93
        6
 10
212.9283766628581
 20
155.8014446668265
 10
187.9283766628582
 20
155.8014446668266
 10
187.9283766628582
 20
151.3014446668266
 10
188.4283766628581
 20
150.8014446668267
 10
211.9283766628581
 20
150.8014446668266
 10
212.9283766628581
 20
151.8014446668265
 97
        6
330
26D
330
328
330
334
330
2BB
330
2C9
330
340
 92
        7
 72
     0
 73
     1
 93
        4
 10
187.9283766628582
 20
155.8014446668266
 10
178.598249643936
 20
153.3014446668266
 10
185.9283766628582
 20
153.3014446668266
 10
187.9283766628583
 20
151.3014446668265
 97
        4
330
277
330
332
330
334
330
328
 75
     0
 76
     1
 52
0.0
 41
0.5
 77
     0
 78
     1
 53
45.0
 43
0.0
 44
0.0
 45
-1.122532015133644
 46
1.122532015133644
 79
     0
 47
0.02187453688709499
 98
        4
 10
204.8511070267492
 20
203.3487240394683
 10
187.3376466787212
 20
202.4454342311942
 10
204.6394665672423
 20
152.4755366946336
 10
186.1559275882574
 20
154.2259560467251
  0
ENDSEC
  0
SECTION
  2
OBJECTS
  0
DICTIONARY
  5
C
330
0
100
AcDbDictionary
281
     1
  3
ACAD_COLOR
350
79
  3
ACAD_GROUP
350
D
  3
ACAD_LAYOUT
350
1A
  3
ACAD_MATERIAL
350
78
  3
ACAD_MLINESTYLE
350
17
  3
ACAD_PLOTSETTINGS
350
19
  3
ACAD_PLOTSTYLENAME
350
E
  3
ACAD_TABLESTYLE
350
297
  3
AcDbVariableDictionary
350
67
  3
DWGPROPS
350
29F
  0
DICTIONARY
  5
D
102
{ACAD_REACTORS
330
C
102
}
330
C
100
AcDbDictionary
281
     1
  0
ACDBDICTIONARYWDFLT
  5
E
102
{ACAD_REACTORS
330
C
102
}
330
C
100
AcDbDictionary
281
     1
  3
Normal
350
F
  3
Style 1
350
326
100
AcDbDictionaryWithDefault
340
F
  0
ACDBPLACEHOLDER
  5
F
102
{ACAD_REACTORS
330
E
102
}
330
E
  0
DICTIONARY
  5
17
102
{ACAD_REACTORS
330
C
102
}
330
C
100
AcDbDictionary
281
     1
  3
Standard
350
18
  0
MLINESTYLE
  5
18
102
{ACAD_REACTORS
330
17
102
}
330
17
100
AcDbMlineStyle
  2
STANDARD
 70
     0
  3

 62
   256
 51
90.0
 52
90.0
 71
     2
 49
0.5
 62
   256
  6
BYLAYER
 49
-0.5
 62
   256
  6
BYLAYER
  0
DICTIONARY
  5
19
102
{ACAD_REACTORS
330
C
102
}
330
C
100
AcDbDictionary
281
     1
  0
DICTIONARY
  5
1A
102
{ACAD_REACTORS
330
C
102
}
330
C
100
AcDbDictionary
281
     1
  3
Model
350
22
  3
布局1
350
7E
  3
布局2
350
83
  0
LAYOUT
  5
22
102
{ACAD_XDICTIONARY
360
2A1
102
}
102
{ACAD_REACTORS
330
1A
102
}
330
1A
100
AcDbPlotSettings
  1

  2
none_device
  4
ANSI_A_(8.50_x_11.00_Inches)
  6

 40
6.349999904632568
 41
19.04999923706055
 42
6.350006103515625
 43
19.04998779296875
 44
215.8999938964844
 45
279.3999938964844
 46
0.0
 47
0.0
 48
0.0
 49
0.0
140
0.0
141
0.0
  6

142
1.0
143
57.07986212157697
 70
 11952
 72
     0
 73
     1
 74
     0
  7

 75
     0
147
0.01751931351673652
148
-2282.040442273535
149
2.561166666666503
100
AcDbLayout
  1
Model
 70
     1
 71
     0
 10
0.0
 20
0.0
 11
12.0
 21
9.0
 12
0.0
 22
0.0
 32
0.0
 14
0.0
 24
0.0
 34
0.0
 15
0.0
 25
0.0
 35
0.0
146
0.0
 13
0.0
 23
0.0
 33
0.0
 16
1.0
 26
0.0
 36
0.0
 17
0.0
 27
1.0
 37
0.0
 76
     0
330
1F
  0
DICTIONARY
  5
67
102
{ACAD_REACTORS
330
C
102
}
330
C
100
AcDbDictionary
281
     1
  3
CTABLESTYLE
350
2A7
  3
DIMASSOC
350
68
  3
HIDETEXT
350
6C
  3
PROJECTNAME
350
2A8
  0
DICTIONARYVAR
  5
68
102
{ACAD_REACTORS
330
67
102
}
330
67
100
DictionaryVariables
280
     0
  1
2
  0
DICTIONARYVAR
  5
6C
102
{ACAD_REACTORS
330
67
102
}
330
67
100
DictionaryVariables
280
     0
  1
1
  0
DICTIONARY
  5
78
102
{ACAD_REACTORS
330
C
102
}
330
C
100
AcDbDictionary
281
     1
  0
DICTIONARY
  5
79
102
{ACAD_REACTORS
330
C
102
}
330
C
100
AcDbDictionary
281
     1
  0
LAYOUT
  5
7E
102
{ACAD_XDICTIONARY
360
2A3
102
}
102
{ACAD_REACTORS
330
1A
102
}
330
1A
100
AcDbPlotSettings
  1

  2
\\ADSCCNDC1\hq601xrx1
  4

  6

 40
0.0
 41
0.0
 42
0.0
 43
0.0
 44
0.0
 45
0.0
 46
0.0
 47
0.0
 48
0.0
 49
0.0
140
0.0
141
0.0
  6

142
1.0
143
1.0
 70
   688
 72
     0
 73
     0
 74
     5
  7

 75
    16
147
1.0
148
0.0
149
0.0
100
AcDbLayout
  1
布局1
 70
     1
 71
     1
 10
0.0
 20
0.0
 11
12.0
 21
9.0
 12
0.0
 22
0.0
 32
0.0
 14
0.0
 24
0.0
 34
0.0
 15
0.0
 25
0.0
 35
0.0
146
0.0
 13
0.0
 23
0.0
 33
0.0
 16
1.0
 26
0.0
 36
0.0
 17
0.0
 27
1.0
 37
0.0
 76
     0
330
7D
  0
LAYOUT
  5
83
102
{ACAD_XDICTIONARY
360
2A5
102
}
102
{ACAD_REACTORS
330
1A
102
}
330
1A
100
AcDbPlotSettings
  1

  2
\\ADSCCNDC1\hq601xrx1
  4

  6

 40
0.0
 41
0.0
 42
0.0
 43
0.0
 44
0.0
 45
0.0
 46
0.0
 47
0.0
 48
0.0
 49
0.0
140
0.0
141
0.0
  6

142
1.0
143
1.0
 70
   688
 72
     0
 73
     0
 74
     5
  7

 75
    16
147
1.0
148
0.0
149
0.0
100
AcDbLayout
  1
布局2
 70
     1
 71
     2
 10
0.0
 20
0.0
 11
12.0
 21
9.0
 12
0.0
 22
0.0
 32
0.0
 14
0.0
 24
0.0
 34
0.0
 15
0.0
 25
0.0
 35
0.0
146
0.0
 13
0.0
 23
0.0
 33
0.0
 16
1.0
 26
0.0
 36
0.0
 17
0.0
 27
1.0
 37
0.0
 76
     0
330
82
  0
DICTIONARY
  5
297
102
{ACAD_REACTORS
330
C
102
}
330
C
100
AcDbDictionary
281
     1
  3
Standard
350
298
  0
TABLESTYLE
  5
298
102
{ACAD_REACTORS
330
297
102
}
330
297
100
AcDbTableStyle
  3
Standard
 70
     0
 71
     0
 40
1.5
 41
1.5
280
     0
281
     0
  7
Standard
140
4.5
170
     2
 62
     0
 63
     7
283
     0
274
    -2
284
     1
 64
     0
275
    -2
285
     1
 65
     0
276
    -2
286
     1
 66
     0
277
    -2
287
     1
 67
     0
278
    -2
288
     1
 68
     0
279
    -2
289
     1
 69
     0
  7
Standard
140
6.0
170
     5
 62
     0
 63
     7
283
     0
274
    -2
284
     1
 64
     0
275
    -2
285
     1
 65
     0
276
    -2
286
     1
 66
     0
277
    -2
287
     1
 67
     0
278
    -2
288
     1
 68
     0
279
    -2
289
     1
 69
     0
  7
Standard
140
4.5
170
     5
 62
     0
 63
     7
283
     0
274
    -2
284
     1
 64
     0
275
    -2
285
     1
 65
     0
276
    -2
286
     1
 66
     0
277
    -2
287
     1
 67
     0
278
    -2
288
     1
 68
     0
279
    -2
289
     1
 69
     0
  0
XRECORD
  5
29F
102
{ACAD_REACTORS
330
C
102
}
330
C
100
AcDbXrecord
280
     1
  1
DWGPROPS COOKIE
  2

  3

  4

  6

  7

  8
fottrem
  9

300
=
301
=
302
=
303
=
304
=
305
=
306
=
307
=
308
=
309
=
 40
0.001201898148148148
 41
2453162.60605287
 42
2453289.523213785
  1

 90
        0
  0
DICTIONARY
  5
2A1
330
22
100
AcDbDictionary
280
     1
281
     1
  3
ACAD_XREC_ROUNDTRIP
360
2A2
  0
XRECORD
  5
2A2
102
{ACAD_REACTORS
330
2A1
102
}
330
2A1
100
AcDbXrecord
280
     1
102
SHADEPLOT
 70
     0
102
SHADEPLOTRESLEVEL
 70
     2
102
SHADEPLOTCUSTOMDPI
 70
   300
  0
DICTIONARY
  5
2A3
330
7E
100
AcDbDictionary
280
     1
281
     1
  3
ACAD_XREC_ROUNDTRIP
360
2A4
  0
XRECORD
  5
2A4
102
{ACAD_REACTORS
330
2A3
102
}
330
2A3
100
AcDbXrecord
280
     1
102
SHADEPLOT
 70
     0
102
SHADEPLOTRESLEVEL
 70
     2
102
SHADEPLOTCUSTOMDPI
 70
   300
  0
DICTIONARY
  5
2A5
330
83
100
AcDbDictionary
280
     1
281
     1
  3
ACAD_XREC_ROUNDTRIP
360
2A6
  0
XRECORD
  5
2A6
102
{ACAD_REACTORS
330
2A5
102
}
330
2A5
100
AcDbXrecord
280
     1
102
SHADEPLOT
 70
     0
102
SHADEPLOTRESLEVEL
 70
     2
102
SHADEPLOTCUSTOMDPI
 70
   300
  0
DICTIONARYVAR
  5
2A7
102
{ACAD_REACTORS
330
67
102
}
330
67
100
DictionaryVariables
280
     0
  1
STANDARD
  0
DICTIONARYVAR
  5
2A8
102
{ACAD_REACTORS
330
67
102
}
330
67
100
DictionaryVariables
280
     0
  1

  0
ACDBPLACEHOLDER
  5
326
102
{ACAD_REACTORS
330
E
102
}
330
E
  0
ENDSEC
  0
SECTION
  2
THUMBNAILIMAGE
 90
    18627
310
BF4800000201030100005000000002530100005C480000000000000000000000000000000000000000000000000000000000000000000000000000000000000000000000000000000000000000000000000000000000000000000000000000000000000000000028000000B400000061000000010008000000000034440000
310
00000000000000000001000000000000FFFFFF00FFFFFF0000000000FFFFFF00FFFFFF00FFFFFF00FFFFFF00FFFFFF00FFFFFF00FFFFFF00FFFFFF00330000006600000099000000CC000000FF00000000330000333300006633000099330000CC330000FF33000000660000336600006666000099660000CC660000FF6600
310
0000990000339900006699000099990000CC990000FF99000000CC000033CC000066CC000099CC0000CCCC0000FFCC000000FF000033FF000066FF000099FF0000CCFF0000FFFF000000003300330033006600330099003300CC003300FF00330000333300333333006633330099333300CC333300FF333300006633003366
310
33006666330099663300CC663300FF66330000993300339933006699330099993300CC993300FF99330000CC330033CC330066CC330099CC3300CCCC3300FFCC330000FF330033FF330066FF330099FF3300CCFF3300FFFF330000006600330066006600660099006600CC006600FF00660000336600333366006633660099
310
336600CC336600FF33660000666600336666006666660099666600CC666600FF66660000996600339966006699660099996600CC996600FF99660000CC660033CC660066CC660099CC6600CCCC6600FFCC660000FF660033FF660066FF660099FF6600CCFF6600FFFF660000009900330099006600990099009900CC009900
310
FF00990000339900333399006633990099339900CC339900FF33990000669900336699006666990099669900CC669900FF66990000999900339999006699990099999900CC999900FF99990000CC990033CC990066CC990099CC9900CCCC9900FFCC990000FF990033FF990066FF990099FF9900CCFF9900FFFF99000000CC
310
003300CC006600CC009900CC00CC00CC00FF00CC000033CC003333CC006633CC009933CC00CC33CC00FF33CC000066CC003366CC006666CC009966CC00CC66CC00FF66CC000099CC003399CC006699CC009999CC00CC99CC00FF99CC0000CCCC0033CCCC0066CCCC0099CCCC00CCCCCC00FFCCCC0000FFCC0033FFCC0066FF
310
CC0099FFCC00CCFFCC00FFFFCC000000FF003300FF006600FF009900FF00CC00FF00FF00FF000033FF003333FF006633FF009933FF00CC33FF00FF33FF000066FF003366FF006666FF009966FF00CC66FF00FF66FF000099FF003399FF006699FF009999FF00CC99FF00FF99FF0000CCFF0033CCFF0066CCFF0099CCFF00CC
310
CCFF00FFCCFF0000FFFF0033FFFF0066FFFF0099FFFF00CCFFFF0000000000FFFFFF000D0D0D001A1A1A00282828003535350043434300505050005D5D5D006B6B6B00787878008686860093939300A1A1A100AEAEAE00BBBBBB00C9C9C900D6D6D600E4E4E400F1F1F10000000000FFFFFF00FFFFFF00FFFFFF00FFFFFF00
310
FFFFFF00FFFFFF00FFFFFF00FFFFFF00FFFFFF00FFFFFF0000000000000000000000000000000000000000000000000000000000000000000000000000000000000000000000000000000000000000000000000000000000000000000000000000000000000000000000000000000000000000000000000000000000000000
310
00000000000000000000000000000000000000000000000000000000000000000000000000000000000000000000000000000000000000000000000000000000000000000000000000000000000000000000000000000000000000000000000000000000000000000000000000000000000000000000000000000000000000
310
00000000000000000000000000000000000000000000000000000000000000000000000000000000000000000000000000000000000000000000000000000000000000000000000000000000000000000000000000000000000000000000000000000000000000000000000000000000000000000000000000000000000000
310
00000000000000000000000000000000000000000000000000000000000000000000000000000000000000000000000000000000000000000000000000000000000000000000000000000000000000000000000000000000000000000000000000000000000000000000000000000000000000000000000000000000000000
310
0000000000000000000000000000000000000000000000000000000000000000000000000000000000000000000000000000000000000000000000000000000000000000000000000000000000000000000000000000000000000000000000000000000000000000000000000000000000000000000000000000000000F5F5
310
F5F5F5F5F5F5F5F5F5F5F5F5F5F5F5F5F5F5F5F5F5F5000000000000000000000000000000000000000000000000000000000000000000000000000000000000000000000000000000000000000000000000000000000000000000000000000000000000000000000000000000000000000000000000000000000000000000
310
0000000000000000000000000000000000000000000000000000000000000000000000000000000000000000000000000000F5F5F5F5F5F5F5F5F5F5F5F5F5F5F5F5F5F5F5F5F5F5F5F5F5F5000000000000000000000000000000000000000000000000000000000000000000000000000000000000000000000000000000
310
0000000000000000000000000000000000000000000000000000000000000000000000000000000000000000000000000000000000000000000000000000000000000000000000000000000000000000000000000000000000000000000000000000000000BEBEF5F5F5F5F5F5F5F5F5F5F5F5F5F5F5F5F5F5F5F5F5F5F5F5
310
F5F5BEBE000000000000000000000000000000000000000000000000000000000000000000000000000000000000000000000000000000000000000000000000000000000000000000000000000000000000000000000000000000000000000000000000000000000000000000000000000000000000000000000000000000
310
0000000000000000000000000000000000000000000000000000000000F5F5F50000000000000000000000000000000000000000F5F5F5000000000000000000000000000000000000000000000000000000000000000000000000000000000000000000000000000000000000000000000000000000000000000000000000
310
00000000000000000000000000000000000000000000000000000000000000000000000000000000000000000000000000000000000000000000000000000000000000000000000000000000000000000000F5F5F5F5F5F5F5F5F5F5F5F5F5F5F5F5F5F5F5F5F5F5F5F5F5F500000000000000000000000000000000000000
310
00000000000000000000000000000000000000000000000000000000000000000000000000000000000000000000000000000000000000000000000000000000000000000000000000000000000000000000000000000000000000000000000000000000000000000000000000000000000000000000000000000000000000
310
0000000000000000F520F520F520F520F520F520F520F520F52020F520F520F5F5F5000000000000000000000000000000000000000000000000000000000000000000000000000000000000000000000000000000000000000000000000000000000000000000000000000000000000000000000000000000000000000000
310
00000000000000000000000000000000000000000000000000000000000000000000000000000000000000000000000000000000000000000000000000F52020F520F520F520F520F520F520F520F52020F520F5F5F5F500000000000000000000000000000000000000000000000000000000000000000000000000000000
310
000000000000000000000000000000000000000000000000000000000000000000000000000000000000000000000000000000000000000000000000000000000000000000000000000000000000000000000000000000000000000000000000000000000000000000000000000000000000F5F52020002000200020002000
310
20002000200020200020F5F5F5000000000000000000000000000000000000000000000000000000000000000000000000000000000000000000000000000000000000000000000000000000000000000000000000000000000000000000000000000000000000000000000000000000000000000000000000000000000000
310
00000000000000000000000000000000000000000000000000000000000000000000000000000000F520F52020002000200020002000200020002000202020F5F5F500000000000000000000000000000000000000000000000000000000000000000000000000000000000000000000000000000000000000000000000000
310
000000000000000000000000000000000000000000000000000000000000000000000000000000000000000000000000000000000000000000000000000000000000000000000000000000000000000000000000000000000000000000F5F5200020200020002000200020002000200020002000F5F5F50000000000000000
310
00000000000000000000000000000000000000000000000000000000000000000000000000000000000000000000000000000000000000000000000000000000000000000000000000000000000000000000000000000000000000000000000000000000000000000000000000000000000000000000000000000000000000
310
00000000000000000000000000000000000000F520F52000202000200020002000200020002000200020F5F5F500000000000000000000000000000000000000000000000000000000000000000000000000000000000000000000000000000000000000000000000000000000000000000000000000000000000000000000
310
000000000000000000000000000000000000000000000000000000000000000000000000000000000000000000000000000000000000000000000000000000000000000000000000F5F5200020002020002000200020002000200020002000F5F5F50000000000000000000000000000000000000000000000000000000000
310
0000000000000000000000000000000000000000000000000000000000000000000000000000000000000000000000000000000000000000000000000000000000000000000000000000000000000000000000000000000000000000000000000000000000000000000000000000000000000000000000000000000000F520
310
F52000200020200020002000200020002000200020F5F5F500000000000000000000000000000000000000000000000000000000000000000000000000000000000000000000000000000000000000000000000000000000000000000000000000000000000000000000000000000000000000000000000000000000000000
310
000000000000000000000000000000000000000000000000000000000000000000000000000000000000000000000000000000F5F5200020002000202000200020002000200020002000F5F5F50000000000000000000000000000000000000000000000000000000000000000000000000000000000000000000000000000
310
0000000000000000000000000000000000000000000000000000000000000000000000000000000000000000000000000000000000000000000000000000000000000000000000000000000000000000000000000000000000000000000000000000000000000000F520F52000200020002020002000200020002000200020
310
F5F5F500000000000000000000000000000000000000000000000000000000000000000000000000000000000000000000000000000000000000000000000000000000000000000000000000000000000000000000000000000000000000000000000000000000000000000000000000000000000000000000000000000000
310
000000000000000000000000000000000000000000000000000000000000F5F5200020002000200020200020002000200020002000F5F5F50000000000000000000000000000000000000000000000000000000000000000000000000000000000000000000000000000000000000000000000000000000000000000000000
310
0000000000000000000000000000000000000000000000000000000000000000000000000000000000000000000000000000000000000000000000000000000000000000000000000000000000000000000000F520F52000200020002000202000200020002000200020F5F5F5000000000000000000000000000000000000
310
00000000000000000000000000000000000000000000000000000000000000000000000000000000000000000000000000000000000000000000000000000000000000000000000000000000000000000000000000000000000000000000000000000000000000000000000000000000000000000000000000000000000000
310
000000000000000000F5F5200020002000200020002020002000200020002000F5F5F50000000000000000000000000000000000000000000000000000000000000000000000000000000000000000000000000000000000000000000000000000000000000000000000000000000000000000000000000000000000000000
310
0000000000000000000000000000000000000000000000000000000000000000000000000000000000000000000000000000000000000000000000000000F520F52000200020002000202000200020002000200020F5F5F5000000000000000000000000000000000000000000000000000000000000000000000000000000
310
000000000000000000000000000000000000000000000000000000000000000000000000000000000000000000000000000000000000000000000000000000000000000000000000000000000000000000000000000000000000000000000000000000BE000000000000000000000000000000F5F520002000200020002000
310
2020002000200020002000F5F5F5000000000000000000000000000000BE00000000000000000000000000000000000000000000000000000000000000000000000000000000000000000000000000000000000000000000000000000000000000000000000000000000000000000000000000000000000000000000000000
310
0000000000000000000000000000000000000000F5F5F5F5F5F5F5F5F5F5F5F5000000000000000000F520F52000200020002000200020200020002000200020F5F5F5000000000000000000F5F5F5F5F5F5F5F5F5F5F5F5000000000000000000000000000000000000000000000000000000000000000000000000000000
310
000000000000000000000000000000000000000000000000000000000000000000000000000000000000000000000000000000000000000000000000000000000000000000000000F5F5F5F5F5F5F5F5F5F5F5F5F5F50000000000000000F5F5200020002000200020002000202000200020002000F5F5F500000000000000
310
00F5F5F5F5F5F5F5F5F5F5F5F5F5F50000000000000000000000000000000000000000000000000000000000000000000000000000000000000000000000000000000000000000000000000000000000000000000000000000000000000000000000000000000000000000000000000000000000000000000000000000F5F5
310
F5F5F5F5F5F5F5F5F5F5F5F50000000000000000F520F52000200020002000200020002020002000200020F5F5F50000000000000000F5F5F5F5F5F5F5F5F5F5F5F5F5F50000000000000000000000000000000000000000000000000000000000000000000000000000000000000000000000000000000000000000000000
310
000000000000000000000000000000000000000000000000000000000000000000000000000000000000000000000000000000F5F5F5F5F5F5F5F5F5F5F5F5F5F50000000000000000F5F5200020002000200020002000200020200020002000F5F5F50000000000000000F5F5F5F5F5F5F5F5F5F5F5F5F5F5000000000000
310
0000000000000000000000000000000000000000000000000000000000000000000000000000000000000000000000000000000000000000000000000000000000000000000000000000000000000000000000000000000000000000000000000000000000000000F5F5F5F5F5F5F5F5F5F5F5F5F5F50000000000000000F5
310
20F52000200020002000200020002000202000200020F5F5F50000000000000000F5F5F5F5F5F5F5F5F5F5F5F5F5F50000000000000000000000000000000000000000000000000000000000000000000000000000000000000000000000000000000000000000000000000000000000000000000000000000000000000000
310
000000000000000000000000000000000000000000000000000000000000F5F5F5F5F5F5F5F5F5F5F5F5F5F50000000000000000F520200020002000200020002000200020002020002000F5F5F50000000000000000F5F5F5F5F5F5F5F5F5F5F5F5F5F5000000000000000000000000000000000000000000000000000000
310
0000000000000000000000000000000000000000000000000000000000000000000000000000000000000000000000000000000000000000000000000000000000000000000000000000000000000000000000F5F5BEF5F5F5BEF5F5F5F5BEF5F50000000000000000F5F52020002000200020002000200020002000202000
310
20F5F5F50000000000000000F5F5F5F5F5F5F5BEF5F5F5BEF5F50000000000000000000000000000000000000000000000000000000000000000000000000000000000000000000000000000000000000000000000000000000000000000000000000000000000000000000000000000000000000000000000000000000000
310
000000000000000000F5F5F5F5F5F5F5F5F5F5F5F5F5F50000000000000000F520F52020002000200020002000200020002000202000F5F5F50000000000000000F5F5F5F5F5F5F5F5F5F5F5F5F5F5000000000000000000000000000000000000000000000000000000000000000000000000000000000000000000000000
310
0000000000000000000000000000000000000000000000000000000000000000000000000000000000000000000000000000000000000000000000000000F5F5F5F5F5F5F5F5F5F5F5F5F5F5F5F5F5F5F5F5F5F5F5F5202000200020002000200020002000200020002020F5F5F5F5F5F5F5F5F5F5F5F5F5F520F52020F5F5
310
F5202020F50000000000000000000000000000000000000000000000000000000000000000000000000000000000000000000000000000000000000000000000000000000000000000000000000000000000000000000000000000000000000000000000000000000000000000000000000000F5F5F5F5F5F5F5F5F5F5F5F5
310
F5F5F5F5F5F5F5F5F5F5F5F5F5F5F5F5F5F5F5F5F5F5F5F5F5F5F5F5F5F5F5F5F5F5F52020202020202020202020F5F52020F5F520202020F5F5000000000000000000000000000000000000000000000000000000000000000000000000000000000000000000000000000000000000000000000000000000000000000000
310
0000000000000000000000000000000000000000000000000000000000000000000000000000000000F5F5F5F5F5F5F5F5F5F5F5F5F5F5F5F5F5F5F5F5F5F5F5F5F5F5F5F5F5F5F5F5F5F5F5F5F5F5F5F5F5F5F520202020F520202020202020202020F5F5F5F5F5F5F5F5F5F5F5F500000000000000000000000000000000
310
00000000000000000000000000000000000000000000000000000000000000000000000000000000000000000000000000000000000000000000000000000000000000000000000000000000000000000000000000000000000000000000F5F5F5F5F5F5F5F5F5F5F5F5F5F50000000000000000F5F5F5F5F5F5F5F5F5F5F5
310
F5F5F5F5F5F5F5F5F5F520F520202020202020202020202020F5F5F5F5F5F5F5F5F5F5F5F5F5F5F5F5F5F5F5F5F5F5F5F5F5F5F5F5F5F5F5F5F5F5F5F5F5F5F5F5F5F5F5F5F5F5F5F5000000000000000000000000000000000000000000000000000000000000000000000000000000000000000000000000000000000000
310
0000000000000000000000000000000000000000F5F5F5F5F5F5F5F5F5F5F5F5F5F50000000000000000F5F5F5F5000000000000000000000000000000F5F5F5F5F5F5F5F5F5F5F5F5F5F5F5F5F5F5F5F5F5F5F5F5F5F5F5F5F5F5F5F5F5F5F5F5F5F5F5F5F5F5F5F5F5F5F5F5F5F5F5F5F5F5F5F5F5F5F5F5F5F5F5F5F5F5
310
00000000000000000000000000000000000000000000000000000000000000000000000000000000000000000000000000000000000000000000000000000000000000000000000000F5F5F5000000BE0000F5F5F5F5F50000000000000000F5F5F5F5000000000000000000000000000000F5F5F500F5F5F5000000000000
310
000000000000000000BE000000F5F5F5F5F5F5F5F5F5F5F5F5F5F5F5F5F5F5F5F5F5F5F5F5F5F5F5F5F5F5F5F5F5F5F5F5F5F5F5F500000000000000000000000000000000000000000000000000000000000000000000000000000000000000000000000000000000000000000000000000000000000000000000000000F5
310
F5F5000000BE0000F5F5F5F5F50000000000000000F5F5F5F5000000000000000000000000000000F5F5F500F5F5F5000000000000000000000000000000BE000000F5F5F5F5000000000000000000000000000000000000000000000000000000000000000000F5F5F5000000000000000000000000000000000000000000
310
00000000000000000000000000000000000000000000000000000000000000000000000000000000000000000000000000000000F5F5F5000000BE0000F5F5F5F5F50000000000000000F5F5F5F50000BE000000000000000000000000F5F5F500F5F5F5000000000000000000000000000000BE000000F5F5F5F500000000
310
0000000000000000000000000000000000000000000000000000000000F5F5F500000000000000000000000000000000000000000000000000000000000000000000000000000000000000000000000000000000000000000000000000000000000000000000000000F5F5F5000000BE0000F5F5F5F5F50000000000000000
310
F5F5F5F50000BE000000000000000000000000F5F5F500F5F5F5000000000000000000000000000000BE000000F5F5F5F50000000000000000000000000000000000000000BE000000000000000000BE0000F5F5F5000000000000000000000000000000000000000000000000000000000000000000000000000000000000
310
00000000000000000000000000000000000000000000000000000000000000F5F5F5000000BE0000F5F5F5F5F50000000000000000F5F5F5F5F5F5F5F5F5F5F5F5F5F5F5F5F5F5F5F5F5F5F5F5F5F5000000000000000000000000000000BE000000F5F5F5F50000000000000000000000000000000000000000BE00000000
310
0000000000BE0000F5F5F500000000000000000000000000000000000000000000000000000000000000000000000000000000000000000000000000000000000000000000000000000000000000000000000000F5F5F5000000BE0000F5F5F5F5F50000000000000000F5F5F5F5F5F5F5F5F5F5F5F5F5F5F5F5F5F5F5F5F5
310
F5F5F5F5F5000000000000000000000000000000BE000000F5F5F5F50000000000000000000000000000000000F5F5F5F5F5F5F5F5F5F5F5F5F5F5F5F5F5F5F5000000000000000000000000000000000000000000000000000000000000000000000000000000000000000000000000000000000000000000000000000000
310
00000000000000000000F5F5F5000000BE0000F5F5F5F5F50000000000000000F5F5F5F5F5F5F5F5F5F5F5F5F5F5F5F5F5F5F5F5F5F5F5F5F5F5000000000000000000000000000000BE000000F5F5F5F500000000000000000000000000000000F5F5F5F5F5F5F5F5F5F5F5F5F5F5F5F5F5F5F5F500000000000000000000
310
000000000000000000000000000000000000000000000000000000000000000000000000000000000000000000000000000000000000000000000000000000F5F5F5000000BE0000F5F5F5F5F50000000000000000F5F5F5F5F5F5BE000000000000000000000000BEF5F5F5F5F5F5000000000000000000000000000000BE
310
000000F5F5F5F500000000000000000000000000000000F5F5F5F5F5F5F5F5F5F5F5F5F5F5F5F5F5F5F5F50000000000000000000000000000000000000000000000000000000000000000000000000000000000000000000000000000000000000000000000000000000000000000000000BEBEF5F5F5BEBEBEBEBEBEF5F5
310
F5F5F5BEBEBEBEBEBEBEBEF5F5F5F5F5BEBEBEBEBEBEBEBEBEBEBEBEBEBEBEBEF5F5F5F5F5BEBEBEBEBEBEBEBEBEBEBEBEBEBEBEBEBEBEBEF5F5F5F5BEBE00BEBEBEBEBEBEBEBEBEBEBEBEBEF5F5F5BEBEBEBEBEBEBEBE00BEBEBEF5F5F5F5F5BEBE0000000000000000000000000000000000000000000000000000000000
310
000000000000000000000000000000000000000000000000000000000000000000000000000000000000F5F5F5000000BE0000F5F5F5F5F50000000000000000F5F5F5F5F5F5BE000000000000000000000000BEF5F5F5F5F5F5000000000000000000000000000000BE000000F5F5F5F50000000000000000000000000000
310
0000F5F5F5F5BE000000000000000000F5F5F5F5F5F500000000000000000000000000000000000000000000000000000000000000000000000000000000000000000000000000000000000000000000000000000000000000000000000000F5F5F5000000BE0000F5F5F5F5F50000000000000000F5F5F5F5F5F5F5000000
310
000000000000000000F5F5F5F5F5F5F5000000000000000000000000000000BE000000F5F5F5F500000000000000000000000000000000F5F5F5F5F5F5F5F5F5F5F5F5F5F5F5F5F5F5F5F500000000000000000000000000000000000000000000000000000000000000000000000000000000000000000000000000000000
310
000000000000000000000000000000000000000000F5F5F5000000BE0000F5F5F5F5F50000000000000000F5F5F5F5F5F5F5F5F5F5F5F5F5F5F5F5F5F5F5F5F5F5F5F5F5F5000000000000000000000000000000BE000000F5F5F5F50000000000000000000000000000000000F5F5F5F5F5F5F5F5F5F5F5F5F5F5F5F5F5F5
310
F500000000000000000000000000000000000000000000000000000000000000000000000000000000000000000000000000000000000000000000000000000000000000000000000000F5F5F5000000BE0000F5F5F5F5F50000000000000000F5F5F5F5F5F5F5F5F5F5F5F5F5F5F5F5F5F5F5F5F5F5F5F5F5F50000000000
310
00000000000000000000BE000000F5F5F5F5000000000000000000000000000000000000F5F5F5F5F5F5F5F5F5F5F5F5F5F500F5F5F500000000000000000000000000000000000000000000000000000000000000000000000000000000000000000000000000000000000000000000000000000000000000000000000000
310
F5F5F5000000BE0000F5F5F5F5F50000000000000000F5F5F5F500F5F5F5F5F5F5F5F5F5F5F5F5F5F5F5F5F500F5F5F5000000000000000000000000000000BE000000F5F5F5F50000000000000000000000000000000000000000BE000000000000000000BE0000F5F5F50000000000000000000000000000000000000000
310
0000000000000000000000000000000000000000000000000000000000000000000000000000000000000000000000000000000000F5F5F5000000000000F5F5F5F5F50000000000000000F5F5F5F50000BE000000000000000000000000F5F5F500F5F5F500000000000000000000000000000000000000F5F5F5F5000000
310
000000000000000000000000000000000000000000000000000000000000F5F5F500000000000000000000000000000000000000000000000000000000000000000000000000000000000000000000000000000000000000000000000000000000000000000000000000F5F5F5000000BE0000F5F5F5F5F500000000000000
310
00F5F5F5F5000000000000000000000000000000F5F5F500F5F5F5000000000000000000000000000000BE000000F5F5F5F5000000000000000000000000000000000000000000000000000000000000000000F5F5F50000000000000000000000000000000000000000000000000000000000000000000000000000000000
310
0000000000000000000000000000000000000000000000000000000000000000F5F5F5000000BE0000F5F5F5F5F50000000000000000F5F5F5F5000000000000000000000000000000F5F5F500F5F5F5000000000000000000000000000000BE000000F5F5F5F5F5F5F5F5F5F5F5F5F5F5F5F5F5F5F5F5F5F5F5F5F5F5F5F5
310
F5F5F5F5F5F5F5F5F5F5F5F500000000000000000000000000000000000000000000000000000000000000000000000000000000000000000000000000000000000000000000000000000000000000000000000000F5F5F5F5F5F5F5F5F5F5F5F5F5F50000000000000000F5F5F5F5000000000000000000000000000000F5
310
F5F5F5F5F5F5F5F5F5F5F5F5F5F5F5F5F5F5F5F5F5F5F5F5F5F5F5F5F5F5F5F5F5F5F5F5F5F5F5F5F5F5F5F5F5F5F5F5F5F5F5F5F5F5F5F5F5F5F5F5F5F5F5F5F50000000000000000000000000000000000000000000000000000000000000000000000000000000000000000000000000000000000000000000000000000
310
0000000000000000000000F5F5F5F5F5F5F5F5F5F5F5F5F5F50000000000000000F520F5F5F5F5F5F5F5F5F5F5F5F5F5F5F5F5F5F5F5F5F5F5202020202020202020202020F5F5F5F5F5F5F5F5F5F5F5F5F5F5F5F5F5F5F5F5F5F5F5F5F5F5F5F5F5F5F5F5F5F5F5F5F5F5F5F5F5F5F5F5F5F5F5F500000000000000000000
310
00000000000000000000000000000000000000000000000000000000000000000000000000000000000000000000000000000000000000000000000000000000F5F5F5F5F5F5F5F5F5F5F5F5F5F5F5F5F5F5F5F5F5F5F5F520F520F520F520F520F520F520F52020F5F5F5F5F5F5202020202020202020202020F5F5F5F5F5
310
F5F5F5F5F5F5F50000000000000000000000000000000000000000000000000000000000000000000000000000000000000000000000000000000000000000000000000000000000000000000000000000000000000000000000000000000000000000000000000000000000000000000000000000F5F5F5F5F5F5F5F5F5F5
310
F5F5F5F5F5F5F5F5F5F5F5F5F520F520F520F520F520F520F520F520F52020F5F5F5F5F5F52020202020202020202020F520202020F52020202020F500000000000000000000000000000000000000000000000000000000000000000000000000000000000000000000000000000000000000000000000000000000000000
310
00000000000000000000000000000000000000000000000000000000000000000000000000000000000000F5F5F5F5F5F5F5F5F5F5F5F5F5F5F5F5F5F5F5F5F5F5F52020002000200020002000200020002000202000200020F5F5F5F5F5F5F5F5F5F5F5F5F520F520F52020F52020F5F50000000000000000000000000000
310
000000000000000000000000000000000000000000000000000000000000000000000000000000000000000000000000000000000000000000000000000000000000000000000000000000000000000000000000000000000000000000000000F5F5F5F5F5F5F5F5F5F5F5F5F5F50000000000000000F5F520200020002000
310
2000200020002000200020200020F520F50000000000000000F5F5F5F5F5F5F5F5F5F5F5F5F5F500000000000000000000000000000000000000000000000000000000000000000000000000000000000000000000000000000000000000000000000000000000000000000000000000000000000000000000000000000000
310
00000000000000000000000000000000000000000000F5F5BEF5F5F5BEF5F5F5F5BEF5F50000000000000000F520F5202000200020002000200020002000200020200020F5F50000000000000000F5F5F5F5F5F5F5BEF5F5F5BEF5F50000000000000000000000000000000000000000000000000000000000000000000000
310
000000000000000000000000000000000000000000000000000000000000000000000000000000000000000000000000000000000000000000000000000000000000000000000000000000F5F5F5F5F5F5F5F5F5F5F5F5F5F50000000000000000F5F5200020200020002000200020002000200020200020F520F500000000
310
00000000F5F5F5F5F5F5F5F5F5F5F5F5F5F500000000000000000000000000000000000000000000000000000000000000000000000000000000000000000000000000000000000000000000000000000000000000000000000000000000000000000000000000000000000000000000000000000000000000000000000000
310
00F5F5F5F5F5F5F5F5F5F5F5F5F5F50000000000000000F520F5200020200020002000200020002000202000200020F5F50000000000000000F5F5F5F5F5F5F5F5F5F5F5F5F5F50000000000000000000000000000000000000000000000000000000000000000000000000000000000000000000000000000000000000000
310
000000000000000000000000000000000000000000000000000000000000000000000000000000000000000000000000000000000000F5F5F5F5F5F5F5F5F5F5F5F5F5F50000000000000000F5F5200020002020002000200020002000202000200020F520F50000000000000000F5F5F5F5F5F5F5F5F5F5F5F5F5F5000000
310
0000000000000000000000000000000000000000000000000000000000000000000000000000000000000000000000000000000000000000000000000000000000000000000000000000000000000000000000000000000000000000000000000000000000000000000000F5F5F500F5F5F5F5F500F5F5F5F5000000000000
310
0000F520F5200020002020002000200020002020002000200020F5F50000000000000000F5F5F5F520F5F5F5F5F500F5F5F50000000000000000000000000000000000000000000000000000000000000000000000000000000000000000000000000000000000000000000000000000000000000000000000000000000000
310
000000000000000000000000000000000000000000000000000000000000000000F5F5F5F5F5F5F5F5F5F5F5F5F5F50000000000000000F5F5200020002000202000200020002000202000200020F520F50000000000000000F5F5F5F5F5F5F5F5F5F5F5F5F5F5000000000000000000000000000000000000000000000000
310
0000000000000000000000000000000000000000000000000000000000000000000000000000000000000000000000000000000000000000000000000000000000000000000000000000000000000000000000000000F5F5F5F5F5F5F5F5F5F5F5F5F5000000000000000000F520F520002000200020200020002000200020
310
2000200020F5F5000000000000000000F5F5F5F5F5F5F5F5F5F5F5F5F50000000000000000000000000000000000000000000000000000000000000000000000000000000000000000000000000000000000000000000000000000000000000000000000000000000000000000000000000000000000000000000000000000
310
00000000000000000000000000F5F5F5F5F5F5F5F5F5F5F500000000000000000000F5F5200020002000200020200020002000200020200020F520F500000000000000000000F5F5F5F5F5F5F5F5F5F5F500000000000000000000000000000000000000000000000000000000000000000000000000000000000000000000
310
0000000000000000000000000000000000000000000000000000000000000000000000000000000000000000000000000000000000000000000000000000000000000000000000BE000000000000000000000000000000F520F5200020002000200020200020002000200020200020F5F50000000000000000000000000000
310
00BE0000000000000000000000000000000000000000000000000000000000000000000000000000000000000000000000000000000000000000000000000000000000000000000000000000000000000000000000000000000000000000000000000000000000000000000000000000000000000000000000000000000000
310
00000000000000000000000000F5F5200020002000200020002020002000200020002020F520F500000000000000000000000000000000000000000000000000000000000000000000000000000000000000000000000000000000000000000000000000000000000000000000000000000000000000000000000000000000
310
000000000000000000000000000000000000000000000000000000000000000000000000000000000000000000000000000000000000000000000000000000000000F520F5200020002000200020200020002000200020002020F5F50000000000000000000000000000000000000000000000000000000000000000000000
310
0000000000000000000000000000000000000000000000000000000000000000000000000000000000000000000000000000000000000000000000000000000000000000000000000000000000000000000000000000000000000000000000000000000000000000000000000000000000000000000000F5F5200020002000
310
2000202000200020002000200020002020F500000000000000000000000000000000000000000000000000000000000000000000000000000000000000000000000000000000000000000000000000000000000000000000000000000000000000000000000000000000000000000000000000000000000000000000000000
310
000000000000000000000000000000000000000000000000000000000000000000000000000000000000000000F520F52000200020002020002000200020002000200020F520F50000000000000000000000000000000000000000000000000000000000000000000000000000000000000000000000000000000000000000
310
0000000000000000000000000000000000000000000000000000000000000000000000000000000000000000000000000000000000000000000000000000000000000000000000000000000000000000000000000000000000000000000000000000F5F520002000200020200020002000200020002000200020F5F5000000
310
00000000000000000000000000000000000000000000000000000000000000000000000000000000000000000000000000000000000000000000000000000000000000000000000000000000000000000000000000000000000000000000000000000000000000000000000000000000000000000000000000000000000000
310
000000000000000000000000000000000000000000000000F520F52000200020002020002000200020002000200020F520F50000000000000000000000000000000000000000000000000000000000000000000000000000000000000000000000000000000000000000000000000000000000000000000000000000000000
310
0000000000000000000000000000000000000000000000000000000000000000000000000000000000000000000000000000000000000000000000000000000000000000000000000000000000F5F520002000202000200020002000200020002000200020F5F5000000000000000000000000000000000000000000000000
310
00000000000000000000000000000000000000000000000000000000000000000000000000000000000000000000000000000000000000000000000000000000000000000000000000000000000000000000000000000000000000000000000000000000000000000000000000000000000000000000000000000000000000
310
000000F520F52000202000200020002000200020002000200020F520F50000000000000000000000000000000000000000000000000000000000000000000000000000000000000000000000000000000000000000000000000000000000000000000000000000000000000000000000000000000000000000000000000000
310
0000000000000000000000000000000000000000000000000000000000000000000000000000000000000000000000000000000000000000F5F520002020002000200020002000200020002000200020F5F5000000000000000000000000000000000000000000000000000000000000000000000000000000000000000000
310
00000000000000000000000000000000000000000000000000000000000000000000000000000000000000000000000000000000000000000000000000000000000000000000000000000000000000000000000000000000000000000000000000000000000000000000000000F520F5200020200020002000200020002000
310
2000200020F520F50000000000000000000000000000000000000000000000000000000000000000000000000000000000000000000000000000000000000000000000000000000000000000000000000000000000000000000000000000000000000000000000000000000000000000000000000000000000000000000000
310
0000000000000000000000000000000000000000000000000000000000000000000000F5F520200020002000200020002000200020002000200020F5F5000000000000000000000000000000000000000000000000000000000000000000000000000000000000000000000000000000000000000000000000000000000000
310
00000000000000000000000000000000000000000000000000000000000000000000000000000000000000000000000000000000000000000000000000000000000000000000000000000000000000000000000000000000F520F52020002000200020002000200020002000200020F520F500000000000000000000000000
310
00000000000000000000000000000000000000000000000000000000000000000000000000000000000000000000000000000000000000000000000000000000000000000000000000000000000000000000000000000000000000000000000000000000000000000000000000000000000000000000000000000000000000
310
0000000000000000000000000000F5F52020F520F520F520F520F520F520F520F520F520F520F5F5000000000000000000000000000000000000000000000000000000000000000000000000000000000000000000000000000000000000000000000000000000000000000000000000000000000000000000000000000000
310
00000000000000000000000000000000000000000000000000000000000000000000000000000000000000000000000000000000000000000000000000000000000000F520F52020F520F520F520F520F520F520F520F520F520F520F500000000000000000000000000000000000000000000000000000000000000000000
310
000000000000000000000000000000000000000000000000000000000000000000000000000000000000000000000000000000000000000000000000000000000000000000000000000000000000000000000000000000000000000000000000000000000000000000000000000000000000000000000000F5F5F5F5F5F5F5
310
F5F5F5F5F5F5F5F5F5F5F5F5F5F5F5F5F5F5F5000000000000000000000000000000000000000000000000000000000000000000000000000000000000000000000000000000000000000000000000000000000000000000000000000000000000000000000000000000000000000000000000000000000000000000000000
310
0000000000000000000000000000000000000000000000000000000000000000000000000000000000000000BEBEF5F5F5BEBE00BEBEBEBEBEBEBEBEBEBEBEBEBEBE00BEBEF5F5F5BEBE0000000000000000000000000000000000000000000000000000000000000000000000000000000000000000000000000000000000
310
00000000000000000000000000000000000000000000000000000000000000000000000000000000000000000000000000000000000000000000000000000000000000000000000000000000000000000000000000000000000000000000000000000000F5F5F5F5F5F5F5F5F5F5F5F5F5F5F5F5F5F5F5F5F5F5F5F5F50000
310
00000000000000000000000000000000000000000000000000000000000000000000000000000000000000000000000000000000000000000000000000000000000000000000000000000000000000000000000000000000000000000000000000000000000000000000000000000000000000000000000000000000000000
310
0000000000000000000000000000000000000000000000000000F5F5F5F5F5F5F5F5F5F5F5F5F5F5F5F5F5F5F5F5F5F5F5F50000000000000000000000000000000000000000000000000000000000000000000000000000000000000000000000000000000000000000000000000000000000000000000000000000000000
310
0000000000000000000000000000000000000000000000000000000000000000000000000000000000000000000000000000000000000000000000000000000000000000000000000000000000000000F5F5F5F5F5F5F5F5F5F5F5F5F5F5F5F5F5F5F5F5F5F500000000000000000000000000000000000000000000000000
310
00000000000000000000000000000000000000000000000000000000000000000000000000000000000000000000000000000000000000000000000000000000000000000000000000000000000000000000000000000000000000000000000000000000000000000000000000000000000000000000000000000000000000
310
00000000000000000000000000000000000000000000000000000000000000000000000000000000000000000000000000000000000000000000000000000000000000000000000000000000000000000000000000000000000000000000000000000000000000000000000000000000000000000000000000000000000000
310
00000000000000000000000000000000000000000000000000000000000000000000000000000000000000000000000000000000000000000000000000000000000000000000000000000000000000000000000000000000000000000000000000000000000000000000000000000000000000000000000000000000000000
310
00000000000000000000000000000000000000000000000000000000000000000000000000000000000000000000000000000000000000000000000000000000000000000000000000000000000000000000000000000000000000000000000000000000000000000000000000000000000000000000000000000000000000
310
00000000000000000000000000000000000000000000000000000000000000000000000000000000000000000000000000000000000000000000000000000000000000000000000000000000000000000000000000000000000000000000000000000000000000000000000000000000000000000000000000000000000000
310
00000000000000000000000000000000000000000000000000000000000000000000000000000000000000000000000000000000000000000000000000000000000000000000000000000000000000000000000000000000000000000000000000000000000000000000000000000000000000000000000000000000000000
310
00000000000000000000000000000000000000000000000000000000000000000000000000000000000000000000000000000000000000000000000000000000000000000000000000000000000000000000000000000000000000000000000000000000000000000000000000000000000000000000000000000000000000
310
00000000000000000000000000000000000000000000000000000000000000000000000000000000000000000000000000000000000000000000000000000000000000000000000000000000000000000000000000000000000000000000000000000000000000000000000000000000000000000000000000000000000000
310
00000000000000000000000000000000000000000000000000000000000000000000000000000000000000000000000000000000000000000000000000000000000000000000000000000000000000000000000000000000000000000000000000000000000000000000000000000000000000000000000000000000000000
310
00000000000000000000000000000000000000000000000000000000000000000000000000000000000000000000000000000000000000000000000000000000000000000000000000000000000000000000000000000000000000000000000000000000000000000000000000000000000000000000000000000000000000
310
00000000000000000000000000000000000000000000000000000000000000000000000000000000000000000000000000000000000000000000000000000000000000000000000000000000000000000000000000000000000000000000000000000000000000000000000000000000000000000000000000000000000000
310
00000000000000000000000000000000000000000000000000000000000000000000000000000000000000000000000000000000000000000000000000000000000000000000000000000000000000000000000000000000000000000000000000000000000000000000000000000000000000000000000000000000000000
310
00000000000000000000000000000000000000000000000000000000000000000000000000000000000000000000000000000000000000000000000000000000000000000000000000000000000000000000000000000000000000000000000000000000000000000000000000000000000000000000000000000000000000
310
00000000000000000000000000000000000000000000000000000000000000000000000000000000000000000000000000000000000000000000000000000000000000000000000000000000000000000000000000000000000000000000000000000000000000000000000000000000000000000000000000000000000000
310
00000000000000000000000000000000000000000000000000000000000000000000000000000000000000000000000000000000000000000000000000000000000000000000000000000000000000000000000000
  0
ENDSEC
  0
EOF
