999
LibreDWG 
  0
SECTION
  2
HEADER
  9
$ACADVER
  1
AC1015
  9
$ACADMAINTVER
 70
    13
  9
$DWGCODEPAGE
  3
ANSI_936
  9
$INSBASE
 10
0.0
 20
0.0
 30
0.0
  9
$EXTMIN
 10
44.85186377841409
 20
38.42010146523565
 30
0.0
  9
$EXTMAX
 10
182.0035973696374
 20
187.493188620075
 30
0.0
  9
$LIMMIN
 10
0.0
 20
0.0
  9
$LIMMAX
 10
420.0
 20
297.0
  9
$ORTHOMODE
 70
     0
  9
$REGENMODE
 70
     1
  9
$FILLMODE
 70
     1
  9
$QTEXTMODE
 70
     0
  9
$MIRRTEXT
 70
     1
  9
$LTSCALE
 40
1.0
  9
$ATTMODE
 70
     1
  9
$TEXTSIZE
 40
2.5
  9
$TRACEWID
 40
1.0
  9
$TEXTSTYLE
  7
数字与字母
  9
$CLAYER
  8
文本层
  9
$CELTYPE
  6
ByLayer
  9
$CECOLOR
 62
   256
  9
$CELTSCALE
 40
1.0
  9
$DISPSILH
 70
     0
  9
$DIMSCALE
 40
1.0
  9
$DIMASZ
 40
3.5
  9
$DIMEXO
 40
0.0
  9
$DIMDLI
 40
7.5
  9
$DIMRND
 40
0.0
  9
$DIMDLE
 40
0.0
  9
$DIMEXE
 40
2.5
  9
$DIMTP
 40
0.0
  9
$DIMTM
 40
0.0
  9
$DIMTXT
 40
5.0
  9
$DIMCEN
 40
2.5
  9
$DIMTSZ
 40
0.0
  9
$DIMTOL
 70
     0
  9
$DIMLIM
 70
     0
  9
$DIMTIH
 70
     0
  9
$DIMTOH
 70
     1
  9
$DIMSE1
 70
     0
  9
$DIMSE2
 70
     0
  9
$DIMTAD
 70
     1
  9
$DIMZIN
 70
     8
  9
$DIMBLK
  1

  9
$DIMASO
 70
     1
  9
$DIMSHO
 70
     1
  9
$DIMPOST
  1

  9
$DIMAPOST
  1

  9
$DIMALT
 70
     0
  9
$DIMALTD
 70
     3
  9
$DIMALTF
 40
0.03937007874016
  9
$DIMLFAC
 40
1.0
  9
$DIMTOFL
 70
     1
  9
$DIMTVP
 40
0.0
  9
$DIMTIX
 70
     0
  9
$DIMSOXD
 70
     0
  9
$DIMSAH
 70
     0
  9
$DIMBLK1
  1

  9
$DIMBLK2
  1

  9
$DIMSTYLE
  2
机械标注
  9
$DIMCLRD
 70
     0
  9
$DIMCLRE
 70
     0
  9
$DIMCLRT
 70
     0
  9
$DIMTFAC
 40
1.0
  9
$DIMGAP
 40
0.625
  9
$DIMJUST
 70
     0
  9
$DIMSD1
 70
     0
  9
$DIMSD2
 70
     0
  9
$DIMTOLJ
 70
     0
  9
$DIMTZIN
 70
     8
  9
$DIMALTZ
 70
     0
  9
$DIMALTTZ
 70
     0
  9
$DIMUPT
 70
     0
  9
$DIMDEC
 70
     1
  9
$DIMTDEC
 70
     1
  9
$DIMALTU
 70
     2
  9
$DIMALTTD
 70
     3
  9
$DIMTXSTY
  7
数字与字母
  9
$DIMAUNIT
 70
     0
  9
$DIMADEC
 70
     0
  9
$DIMALTRND
 40
0.0
  9
$DIMAZIN
 70
     0
  9
$DIMDSEP
 70
    46
  9
$DIMATFIT
 70
     3
  9
$DIMFRAC
 70
     0
  9
$DIMLDRBLK
  1

  9
$DIMLUNIT
 70
     2
  9
$DIMLWD
 70
    -2
  9
$DIMLWE
 70
    -2
  9
$DIMTMOVE
 70
     0
  9
$LUNITS
 70
     2
  9
$LUPREC
 70
     1
  9
$AXISMODE
 70
     0
  9
$AXISUNIT
 10
0.0
 20
0.0
  9
$SKETCHINC
 40
1.0
  9
$FILLETRAD
 40
10.0
  9
$AUNITS
 70
     0
  9
$AUPREC
 70
     1
  9
$MENU
  1
.
  9
$ELEVATION
 40
0.0
  9
$PELEVATION
 40
0.0
  9
$THICKNESS
 40
0.0
  9
$LIMCHECK
 70
     0
  9
$CHAMFERA
 40
10.0
  9
$CHAMFERB
 40
10.0
  9
$CHAMFERC
 40
20.0
  9
$CHAMFERD
 40
0.0
  9
$SKPOLY
 70
     0
  9
$TDCREATE
 40
2451911.603956590
  9
$TDUCREATE
 40
2451911.315956590
  9
$TDUPDATE
 40
2453618.668038010
  9
$TDUUPDATE
 40
2453618.380038010
  9
$TDINDWG
 40
0.069246180
  9
$TDUSRTIMER
 40
0.069246180
  9
$USRTIMER
 70
     1
  9
$ANGBASE
 50
0.0
  9
$ANGDIR
 70
     0
  9
$PDMODE
 70
     0
  9
$PDSIZE
 40
0.0
  9
$PLINEWID
 40
0.0
  9
$SPLFRAME
 70
     0
  9
$SPLINETYPE
 70
     6
  9
$SPLINESEGS
 70
     8
  9
$HANDSEED
  5
27D
  9
$SURFTAB1
 70
     6
  9
$SURFTAB2
 70
     6
  9
$SURFTYPE
 70
     6
  9
$SURFU
 70
     6
  9
$SURFV
 70
     6
  9
$UCSBASE
  2

  9
$UCSNAME
  2

  9
$UCSORG
 10
0.0
 20
0.0
 30
0.0
  9
$UCSXDIR
 10
1.0
 20
0.0
 30
0.0
  9
$UCSYDIR
 10
0.0
 20
1.0
 30
0.0
  9
$UCSORTHOREF
  2

  9
$UCSORTHOVIEW
 70
     0
  9
$UCSORGTOP
 10
0.0
 20
0.0
 30
0.0
  9
$UCSORGBOTTOM
 10
0.0
 20
0.0
 30
0.0
  9
$UCSORGLEFT
 10
0.0
 20
0.0
 30
0.0
  9
$UCSORGRIGHT
 10
0.0
 20
0.0
 30
0.0
  9
$UCSORGFRONT
 10
0.0
 20
0.0
 30
0.0
  9
$UCSORGBACK
 10
0.0
 20
0.0
 30
0.0
  9
$PUCSBASE
  2

  9
$PUCSNAME
  2

  9
$PUCSORG
 10
0.0
 20
0.0
 30
0.0
  9
$PUCSXDIR
 10
1.0
 20
0.0
 30
0.0
  9
$PUCSYDIR
 10
0.0
 20
1.0
 30
0.0
  9
$PUCSORTHOREF
  2

  9
$PUCSORTHOVIEW
 70
     0
  9
$PUCSORGTOP
 10
0.0
 20
0.0
 30
0.0
  9
$PUCSORGBOTTOM
 10
0.0
 20
0.0
 30
0.0
  9
$PUCSORGLEFT
 10
0.0
 20
0.0
 30
0.0
  9
$PUCSORGRIGHT
 10
0.0
 20
0.0
 30
0.0
  9
$PUCSORGFRONT
 10
0.0
 20
0.0
 30
0.0
  9
$PUCSORGBACK
 10
0.0
 20
0.0
 30
0.0
  9
$USERI1
 70
     0
  9
$USERI2
 70
     0
  9
$USERI3
 70
     0
  9
$USERI4
 70
     0
  9
$USERI5
 70
     0
  9
$USERR1
 40
0.0
  9
$USERR2
 40
0.0
  9
$USERR3
 40
0.0
  9
$USERR4
 40
0.0
  9
$USERR5
 40
0.0
  9
$WORLDVIEW
 70
     1
  9
$SHADEDGE
 70
     3
  9
$SHADEDIF
 70
    70
  9
$TILEMODE
 70
     1
  9
$MAXACTVP
 70
    64
  9
$PINSBASE
 10
0.0
 20
0.0
 30
0.0
  9
$PLIMCHECK
 70
     0
  9
$PEXTMIN
 10
26.66999878883362
 20
20.31999878883363
 30
0.0
  9
$PEXTMAX
 10
240.0299890995026
 20
182.8799890995026
 30
0.0
  9
$PLIMMIN
 10
-6.350006103515625
 20
-6.349999904632568
  9
$PLIMMAX
 10
273.0499877929688
 20
209.5499939918518
  9
$UNITMODE
 70
     0
  9
$VISRETAIN
 70
     1
  9
$PLINEGEN
 70
     0
  9
$PSLTSCALE
 70
     1
  9
$TREEDEPTH
 70
  3020
  9
$CMLSTYLE
  2
Standard
  9
$CMLJUST
 70
     0
  9
$CMLSCALE
 40
20.0
  9
$PROXYGRAPHICS
 70
     1
  9
$MEASUREMENT
 70
     1
  9
$CELWEIGHT
370
    -1
  9
$ENDCAPS
280
     0
  9
$JOINSTYLE
280
     0
  9
$LWDISPLAY
290
     1
  9
$INSUNITS
 70
     4
  9
$HYPERLINKBASE
  1

  9
$STYLESHEET
  1

  9
$XEDIT
290
     1
  9
$CEPSNTYPE
380
     0
  9
$PSTYLEMODE
290
     0
  9
$FINGERPRINTGUID
  2
{35BD88C3-9548-11D2-9A29-0060089B3A3F}
  9
$VERSIONGUID
  2
{74F71C79-CE7F-4718-BFE9-8788C3A5C1A8}
  9
$EXTNAMES
290
     1
  9
$PSVPSCALE
 40
0.0
  9
$OLESTARTUP
290
     0
  0
ENDSEC
  0
SECTION
  2
CLASSES
  0
CLASS
  1
ACDBDICTIONARYWDFLT
  2
AcDbDictionaryWithDefault
  3
AutoCAD 2000
 90
        0
280
     0
281
     0
  0
CLASS
  1
ACDBPLACEHOLDER
  2
AcDbPlaceHolder
  3
AutoCAD 2000
 90
        0
280
     0
281
     0
  0
CLASS
  1
LAYOUT
  2
AcDbLayout
  3
AutoCAD 2000
 90
        0
280
     0
281
     0
  0
CLASS
  1
DICTIONARYVAR
  2
AcDbDictionaryVar
  3
AutoCAD 2000
 90
        0
280
     0
281
     0
  0
CLASS
  1
DIMASSOC
  2
AcDbDimAssoc
  3
"AcDbDimAssoc|Product Desc:     AcDim ARX App For Dimension|Company:          Autodesk, Inc.|WEB Address:      www.autodesk.com"
 90
        0
280
     0
281
     0
  0
ENDSEC
  0
SECTION
  2
TABLES
  0
TABLE
  2
VPORT
  5
8
330
0
100
AcDbSymbolTable
 70
     1
  0
VPORT
  5
27C
330
8
100
AcDbSymbolTableRecord
100
AcDbViewportTableRecord
  2
*Active
 70
     0
 10
0.0
 20
0.0
 11
1.0
 21
1.0
 12
120.442740590358
 22
111.1421133552158
 13
0.0
 23
0.0
 14
10.0
 24
10.0
 15
10.0
 25
10.0
 16
0.0
 26
0.0
 36
1.0
 17
0.0
 27
0.0
 37
0.0
 40
219.5468322025847
 41
1.841563786008231
 42
50.0
 43
0.0
 44
0.0
 50
0.0
 51
0.0
 71
     0
 72
   100
 73
     1
 74
     3
 75
     0
 76
     0
 77
     0
 78
     0
281
     0
 65
     1
110
0.0
120
0.0
130
0.0
111
1.0
121
0.0
131
0.0
112
0.0
122
1.0
132
0.0
 79
     0
146
0.0
  0
ENDTAB
  0
TABLE
  2
LTYPE
  5
5
330
0
100
AcDbSymbolTable
 70
     4
  0
LTYPE
  5
14
330
5
100
AcDbSymbolTableRecord
100
AcDbLinetypeTableRecord
  2
ByBlock
 70
     0
  3

 72
    65
 73
     0
 40
0.0
  0
LTYPE
  5
15
330
5
100
AcDbSymbolTableRecord
100
AcDbLinetypeTableRecord
  2
ByLayer
 70
     0
  3

 72
    65
 73
     0
 40
0.0
  0
LTYPE
  5
16
330
5
100
AcDbSymbolTableRecord
100
AcDbLinetypeTableRecord
  2
Continuous
 70
     0
  3
Solid line
 72
    65
 73
     0
 40
0.0
  0
LTYPE
  5
91
330
5
100
AcDbSymbolTableRecord
100
AcDbLinetypeTableRecord
  2
ACAD_ISO08W100
 70
     0
  3
ISO long-dash short-dash ____ __ ____ __ ____ _
 72
    65
 73
     4
 40
36.0
 49
24.0
 74
     0
 49
-3.0
 74
     0
 49
6.0
 74
     0
 49
-3.0
 74
     0
  0
LTYPE
  5
92
330
5
100
AcDbSymbolTableRecord
100
AcDbLinetypeTableRecord
  2
ACAD_ISO09W100
 70
     0
  3
ISO long-dash double-short-dash ____ __ __ ____
 72
    65
 73
     6
 40
45.0
 49
24.0
 74
     0
 49
-3.0
 74
     0
 49
6.0
 74
     0
 49
-3.0
 74
     0
 49
6.0
 74
     0
 49
-3.0
 74
     0
  0
LTYPE
  5
93
330
5
100
AcDbSymbolTableRecord
100
AcDbLinetypeTableRecord
  2
ACAD_ISO02W100
 70
     0
  3
ISO dash __ __ __ __ __ __ __ __ __ __ __ __ __
 72
    65
 73
     2
 40
15.0
 49
12.0
 74
     0
 49
-3.0
 74
     0
  0
ENDTAB
  0
TABLE
  2
LAYER
  5
2
330
0
100
AcDbSymbolTable
 70
    11
  0
LAYER
  5
10
330
2
100
AcDbSymbolTableRecord
100
AcDbLayerTableRecord
  2
0
 70
     0
 62
    -7
  6
Continuous
370
    -3
390
F
  0
LAYER
  5
94
330
2
100
AcDbSymbolTableRecord
100
AcDbLayerTableRecord
  2
轮廓线
 70
     0
 62
    -7
  6
Continuous
370
    35
390
F
  0
LAYER
  5
95
330
2
100
AcDbSymbolTableRecord
100
AcDbLayerTableRecord
  2
点划线
 70
     0
 62
    -1
  6
ACAD_ISO08W100
370
    13
390
F
  0
LAYER
  5
96
330
2
100
AcDbSymbolTableRecord
100
AcDbLayerTableRecord
  2
双点划线
 70
     0
 62
    -3
  6
ACAD_ISO09W100
370
    -3
390
F
  0
LAYER
  5
97
330
2
100
AcDbSymbolTableRecord
100
AcDbLayerTableRecord
  2
隐藏线
 70
     0
 62
   -44
  6
ACAD_ISO02W100
370
    13
390
F
  0
LAYER
  5
98
330
2
100
AcDbSymbolTableRecord
100
AcDbLayerTableRecord
  2
剖面线
 70
     0
 62
  -142
  6
Continuous
370
    13
390
F
  0
LAYER
  5
99
330
2
100
AcDbSymbolTableRecord
100
AcDbLayerTableRecord
  2
波浪线
 70
     0
 62
    -7
  6
Continuous
370
    13
390
F
  0
LAYER
  5
9A
330
2
100
AcDbSymbolTableRecord
100
AcDbLayerTableRecord
  2
尺寸层
 70
     0
 62
    -5
  6
Continuous
370
    13
390
F
  0
LAYER
  5
9B
330
2
100
AcDbSymbolTableRecord
100
AcDbLayerTableRecord
  2
文本层
 70
     0
 62
  -212
  6
Continuous
370
    13
390
F
  0
LAYER
  5
9C
330
2
100
AcDbSymbolTableRecord
100
AcDbLayerTableRecord
  2
其它层
 70
     0
 62
    -7
  6
Continuous
370
    -3
390
F
  0
LAYER
  5
100
330
2
100
AcDbSymbolTableRecord
100
AcDbLayerTableRecord
  2
Defpoints
 70
     0
 62
    -7
  6
Continuous
290
     0
370
    -3
390
F
  0
ENDTAB
  0
TABLE
  2
STYLE
  5
3
330
0
100
AcDbSymbolTable
 70
     4
  0
STYLE
  5
11
330
3
100
AcDbSymbolTableRecord
100
AcDbTextStyleTableRecord
  2
Standard
 70
     0
 40
0.0
 41
1.0
 50
0.0
 71
     0
 42
2.5
  3
txt
  4

  0
STYLE
  5
90
330
3
100
AcDbSymbolTableRecord
100
AcDbTextStyleTableRecord
  2

 70
     1
 40
0.0
 41
1.0
 50
0.0
 71
     0
 42
2.5
  3
ltypeshp.shx
  4

  0
STYLE
  5
9D
330
3
100
AcDbSymbolTableRecord
100
AcDbTextStyleTableRecord
  2
汉字
 70
     0
 40
0.0
 41
0.7
 50
0.0
 71
     0
 42
2.5
  3
SIMFANG.TTF
  4

1001
ACAD
1000
FangSong_GB2312
1071
    34353
  0
STYLE
  5
9F
330
3
100
AcDbSymbolTableRecord
100
AcDbTextStyleTableRecord
  2
数字与字母
 70
     0
 40
0.0
 41
0.7
 50
0.0
 71
     0
 42
2.5
  3
romant.shx
  4

  0
ENDTAB
  0
TABLE
  2
VIEW
  5
6
330
0
100
AcDbSymbolTable
 70
     0
  0
ENDTAB
  0
TABLE
  2
UCS
  5
7
330
0
100
AcDbSymbolTable
 70
     0
  0
ENDTAB
  0
TABLE
  2
APPID
  5
9
330
0
100
AcDbSymbolTable
 70
     1
  0
APPID
  5
12
330
9
100
AcDbSymbolTableRecord
100
AcDbRegAppTableRecord
  2
ACAD
 70
     0
  0
ENDTAB
  0
TABLE
  2
DIMSTYLE
  5
A
330
0
100
AcDbSymbolTable
 70
     3
100
AcDbDimStyleTable
 71
     2
340
A1
340
27
  0
DIMSTYLE
105
27
330
A
100
AcDbSymbolTableRecord
100
AcDbDimStyleTableRecord
  2
ISO-25
 70
     0
 41
2.5
 42
0.625
 43
3.75
 44
1.25
 73
     0
 74
     0
 77
     1
 78
     8
140
2.5
141
2.5
143
0.03937007874016
144
1.0
146
1.0
147
0.625
171
     3
172
     1
176
     0
177
     0
178
     0
271
     2
272
     2
273
     2
274
     3
277
     2
278
    44
283
     0
284
     8
289
     3
340
11
371
    -2
372
    -2
341
0
342
0
343
0
344
0
  0
DIMSTYLE
105
A1
102
{ACAD_REACTORS
330
118
330
130
330
148
330
160
330
178
330
190
330
1A8
330
1C0
330
1D8
330
1F0
330
21C
330
230
330
248
102
}
330
A
100
AcDbSymbolTableRecord
100
AcDbDimStyleTableRecord
  2
机械标注
 70
     0
 41
3.5
 43
7.5
 44
2.5
 73
     0
 74
     1
 77
     1
 78
     8
140
5.0
141
2.5
143
0.03937007874016
144
1.0
146
1.0
147
0.625
171
     3
172
     1
176
     0
177
     0
178
     0
271
     1
272
     1
273
     2
274
     3
277
     2
278
    46
283
     0
284
     8
289
     3
340
9F
371
    -2
372
    -2
341
0
342
0
343
0
344
0
  0
DIMSTYLE
105
A2
330
A
100
AcDbSymbolTableRecord
100
AcDbDimStyleTableRecord
  2
机械标注$2
 70
     0
 41
3.5
 43
7.5
 44
2.5
 73
     1
 74
     1
 77
     1
 78
     8
140
5.0
141
2.5
143
0.03937007874016
144
1.0
146
1.0
147
0.625
171
     3
172
     1
176
     0
177
     0
178
     0
271
     1
272
     1
273
     2
274
     3
277
     2
278
    46
283
     0
284
     8
289
     3
340
9F
371
    -2
372
    -2
341
0
342
0
343
0
344
0
  0
ENDTAB
  0
TABLE
  2
BLOCK_RECORD
  5
1
330
0
100
AcDbSymbolTable
 70
    16
  0
BLOCK_RECORD
  5
1F
330
1
100
AcDbSymbolTableRecord
100
AcDbBlockTableRecord
  2
*Model_Space
340
22
  0
BLOCK_RECORD
  5
5E
330
1
100
AcDbSymbolTableRecord
100
AcDbBlockTableRecord
  2
*Paper_Space
340
5F
  0
BLOCK_RECORD
  5
59
330
1
100
AcDbSymbolTableRecord
100
AcDbBlockTableRecord
  2
*Paper_Space0
340
5A
  0
BLOCK_RECORD
  5
119
330
1
100
AcDbSymbolTableRecord
100
AcDbBlockTableRecord
  2
*D2
340
0
  0
BLOCK_RECORD
  5
131
330
1
100
AcDbSymbolTableRecord
100
AcDbBlockTableRecord
  2
*D3
340
0
  0
BLOCK_RECORD
  5
149
330
1
100
AcDbSymbolTableRecord
100
AcDbBlockTableRecord
  2
*D4
340
0
  0
BLOCK_RECORD
  5
161
330
1
100
AcDbSymbolTableRecord
100
AcDbBlockTableRecord
  2
*D5
340
0
  0
BLOCK_RECORD
  5
179
330
1
100
AcDbSymbolTableRecord
100
AcDbBlockTableRecord
  2
*D6
340
0
  0
BLOCK_RECORD
  5
191
330
1
100
AcDbSymbolTableRecord
100
AcDbBlockTableRecord
  2
*D7
340
0
  0
BLOCK_RECORD
  5
1A9
330
1
100
AcDbSymbolTableRecord
100
AcDbBlockTableRecord
  2
*D8
340
0
  0
BLOCK_RECORD
  5
1C1
330
1
100
AcDbSymbolTableRecord
100
AcDbBlockTableRecord
  2
*D9
340
0
  0
BLOCK_RECORD
  5
1D9
330
1
100
AcDbSymbolTableRecord
100
AcDbBlockTableRecord
  2
*D10
340
0
  0
BLOCK_RECORD
  5
1F1
330
1
100
AcDbSymbolTableRecord
100
AcDbBlockTableRecord
  2
*D11
340
0
  0
BLOCK_RECORD
  5
21D
330
1
100
AcDbSymbolTableRecord
100
AcDbBlockTableRecord
  2
*D13
340
0
  0
BLOCK_RECORD
  5
231
330
1
100
AcDbSymbolTableRecord
100
AcDbBlockTableRecord
  2
*D14
340
0
  0
BLOCK_RECORD
  5
249
330
1
100
AcDbSymbolTableRecord
100
AcDbBlockTableRecord
  2
*D15
340
0
  0
ENDTAB
  0
ENDSEC
  0
SECTION
  2
BLOCKS
  0
BLOCK
  5
20
330
1F
100
AcDbEntity
  8
0
100
AcDbBlockBegin
  2
*Model_Space
 70
     0
 10
0.0
 20
0.0
 30
0.0
  3
*Model_Space
  1

  0
ENDBLK
  5
21
330
1F
100
AcDbEntity
  8
0
100
AcDbBlockEnd
  0
BLOCK
  5
5B
330
59
100
AcDbEntity
  8
0
100
AcDbBlockBegin
  2
*Paper_Space0
 70
     0
 10
0.0
 20
0.0
 30
0.0
  3
*Paper_Space0
  1

  0
VIEWPORT
  5
74
330
59
100
AcDbEntity
  8
0
100
AcDbViewport
 10
133.3499908447266
 20
101.5999970436096
 30
0.0
 40
402.4920940625619
 41
218.5599527535252
 68
     0
 69
     0
 12
133.3499908447266
 22
101.5999970436096
 13
0.0
 23
0.0
 14
0.5
 24
0.5
 15
0.5
 25
0.5
 16
0.0
 26
0.0
 36
1.0
 17
0.0
 27
0.0
 37
0.0
 42
50.0
 43
0.0
 44
0.0
 45
218.5599527535252
 50
0.0
 51
0.0
 72
   100
 90
    32800
  1

281
     0
 71
     1
 74
     0
110
0.0
120
0.0
130
0.0
111
1.0
121
0.0
131
0.0
112
0.0
122
1.0
132
0.0
 79
     0
146
0.0
348
0
340
0
345
0
346
0
  0
VIEWPORT
  5
76
330
59
100
AcDbEntity
  8
0
100
AcDbViewport
 10
133.3499939441681
 20
101.5999939441681
 30
0.0
 40
213.3599903106689
 41
162.5599903106689
 68
     0
 69
     0
 12
129.4261329301822
 22
110.6841465729116
 13
0.0
 23
0.0
 14
10.0
 24
10.0
 15
10.0
 25
10.0
 16
0.0
 26
0.0
 36
1.0
 17
0.0
 27
0.0
 37
0.0
 42
50.0
 43
0.0
 44
0.0
 45
189.9855797857979
 50
0.0
 51
0.0
 72
   100
 90
    32864
  1

281
     0
 71
     1
 74
     0
110
0.0
120
0.0
130
0.0
111
1.0
121
0.0
131
0.0
112
0.0
122
1.0
132
0.0
 79
     0
146
0.0
348
0
340
0
345
0
346
0
  0
ENDBLK
  5
5C
330
59
100
AcDbEntity
  8
0
100
AcDbBlockEnd
  0
BLOCK
  5
60
330
5E
100
AcDbEntity
 67
     1
  8
0
100
AcDbBlockBegin
  2
*Paper_Space
 70
     0
 10
0.0
 20
0.0
 30
0.0
  3
*Paper_Space
  1

  0
ENDBLK
  5
61
330
5E
100
AcDbEntity
 67
     1
  8
0
100
AcDbBlockEnd
  0
BLOCK
  5
123
330
119
100
AcDbEntity
  8
0
100
AcDbBlockBegin
  2
*D2
 70
     1
 10
0.0
 20
0.0
 30
0.0
  3
*D2
  1

  0
LINE
  5
126
330
119
100
AcDbEntity
  8
文本层
370
    -2
 62
     0
100
AcDbLine
 10
93.72996543443219
 20
169.4477355117676
 30
0.0
 11
93.72996543443219
 21
184.368188620075
 31
0.0
  0
LINE
  5
127
330
119
100
AcDbEntity
  8
文本层
370
    -2
 62
     0
100
AcDbLine
 10
141.7299654344322
 20
170.4477355117676
 30
0.0
 11
141.7299654344322
 21
184.368188620075
 31
0.0
  0
LINE
  5
128
330
119
100
AcDbEntity
  8
文本层
370
    -2
 62
     0
100
AcDbLine
 10
97.22996543443219
 20
181.868188620075
 30
0.0
 11
138.2299654344322
 21
181.868188620075
 31
0.0
  0
SOLID
  5
129
330
119
100
AcDbEntity
  8
文本层
 62
     0
100
AcDbTrace
 38
0.0
 10
97.22996543443219
 20
182.4515219534084
 11
97.22996543443219
 21
181.2848552867417
 12
93.72996543443219
 22
181.868188620075
 13
93.72996543443219
 23
181.868188620075
  0
SOLID
  5
12A
330
119
100
AcDbEntity
  8
文本层
 62
     0
100
AcDbTrace
 38
0.0
 10
138.2299654344322
 20
182.4515219534084
 11
138.2299654344322
 21
181.2848552867417
 12
141.7299654344322
 22
181.868188620075
 13
141.7299654344322
 23
181.868188620075
  0
MTEXT
  5
12B
330
119
100
AcDbEntity
  8
文本层
 62
     0
100
AcDbMText
 10
117.7299654344322
 20
184.993188620075
 30
0.0
210
0.0
220
0.0
230
1.0
 11
1.0
 21
0.0
 31
0.0
 40
5.0
 41
0.0
 71
     5
 72
     1
  1
48
  7
数字与字母
 73
     1
 44
1.0
  0
POINT
  5
12C
330
119
100
AcDbEntity
  8
Defpoints
 62
     0
100
AcDbPoint
 10
93.72996543443219
 20
169.4477355117676
 30
0.0
 50
0.0
  0
POINT
  5
12D
330
119
100
AcDbEntity
  8
Defpoints
 62
     0
100
AcDbPoint
 10
141.7299654344322
 20
170.4477355117676
 30
0.0
 50
0.0
  0
POINT
  5
12E
330
119
100
AcDbEntity
  8
Defpoints
 62
     0
100
AcDbPoint
 10
141.7299654344322
 20
181.868188620075
 30
0.0
 50
0.0
  0
ENDBLK
  5
124
330
119
100
AcDbEntity
  8
0
100
AcDbBlockEnd
  0
BLOCK
  5
13B
330
131
100
AcDbEntity
  8
0
100
AcDbBlockBegin
  2
*D3
 70
     1
 10
0.0
 20
0.0
 30
0.0
  3
*D3
  1

  0
LINE
  5
13E
330
131
100
AcDbEntity
  8
文本层
370
    -2
 62
     0
100
AcDbLine
 10
72.72996543443219
 20
150.4477355117676
 30
0.0
 11
59.74218482191802
 21
150.4477355117676
 31
0.0
  0
LINE
  5
13F
330
131
100
AcDbEntity
  8
文本层
370
    -2
 62
     0
100
AcDbLine
 10
72.72996543443219
 20
166.4477355117676
 30
0.0
 11
59.74218482191802
 21
166.4477355117676
 31
0.0
  0
LINE
  5
140
330
131
100
AcDbEntity
  8
文本层
370
    -2
 62
     0
100
AcDbLine
 10
62.24218482191802
 20
153.9477355117676
 30
0.0
 11
62.24218482191802
 21
162.9477355117676
 31
0.0
  0
SOLID
  5
141
330
131
100
AcDbEntity
  8
文本层
 62
     0
100
AcDbTrace
 38
0.0
 10
61.65885148858468
 20
153.9477355117676
 11
62.82551815525135
 21
153.9477355117676
 12
62.24218482191802
 22
150.4477355117676
 13
62.24218482191802
 23
150.4477355117676
  0
SOLID
  5
142
330
131
100
AcDbEntity
  8
文本层
 62
     0
100
AcDbTrace
 38
0.0
 10
61.65885148858468
 20
162.9477355117676
 11
62.82551815525135
 21
162.9477355117676
 12
62.24218482191802
 22
166.4477355117676
 13
62.24218482191802
 23
166.4477355117676
  0
MTEXT
  5
143
330
131
100
AcDbEntity
  8
文本层
 62
     0
100
AcDbMText
 10
59.11718482191799
 20
158.4477355117676
 30
0.0
210
0.0
220
0.0
230
1.0
 11
6.123031769111886E-17
 21
1.0
 31
0.0
 40
5.0
 41
0.0
 71
     5
 72
     1
  1
16
  7
数字与字母
 73
     1
 44
1.0
  0
POINT
  5
144
330
131
100
AcDbEntity
  8
Defpoints
 62
     0
100
AcDbPoint
 10
72.72996543443219
 20
150.4477355117676
 30
0.0
 50
0.0
  0
POINT
  5
145
330
131
100
AcDbEntity
  8
Defpoints
 62
     0
100
AcDbPoint
 10
72.72996543443219
 20
166.4477355117676
 30
0.0
 50
0.0
  0
POINT
  5
146
330
131
100
AcDbEntity
  8
Defpoints
 62
     0
100
AcDbPoint
 10
62.24218482191802
 20
166.4477355117676
 30
0.0
 50
0.0
  0
ENDBLK
  5
13C
330
131
100
AcDbEntity
  8
0
100
AcDbBlockEnd
  0
BLOCK
  5
153
330
149
100
AcDbEntity
  8
0
100
AcDbBlockBegin
  2
*D4
 70
     1
 10
0.0
 20
0.0
 30
0.0
  3
*D4
  1

  0
LINE
  5
156
330
149
100
AcDbEntity
  8
文本层
370
    -2
 62
     0
100
AcDbLine
 10
67.34887563064214
 20
150.4477355117676
 30
0.0
 11
48.39398308192293
 21
150.4477355117676
 31
0.0
  0
LINE
  5
157
330
149
100
AcDbEntity
  8
文本层
370
    -2
 62
     0
100
AcDbLine
 10
99.25475682036416
 20
170.4477355117676
 30
0.0
 11
48.39398308192293
 21
170.4477355117676
 31
0.0
  0
LINE
  5
158
330
149
100
AcDbEntity
  8
文本层
370
    -2
 62
     0
100
AcDbLine
 10
50.89398308192293
 20
153.9477355117676
 30
0.0
 11
50.89398308192293
 21
166.9477355117676
 31
0.0
  0
SOLID
  5
159
330
149
100
AcDbEntity
  8
文本层
 62
     0
100
AcDbTrace
 38
0.0
 10
50.31064974858959
 20
153.9477355117676
 11
51.47731641525626
 21
153.9477355117676
 12
50.89398308192293
 22
150.4477355117676
 13
50.89398308192293
 23
150.4477355117676
  0
SOLID
  5
15A
330
149
100
AcDbEntity
  8
文本层
 62
     0
100
AcDbTrace
 38
0.0
 10
50.31064974858959
 20
166.9477355117676
 11
51.47731641525626
 21
166.9477355117676
 12
50.89398308192293
 22
170.4477355117676
 13
50.89398308192293
 23
170.4477355117676
  0
MTEXT
  5
15B
330
149
100
AcDbEntity
  8
文本层
 62
     0
100
AcDbMText
 10
47.7689830819229
 20
160.4477355117676
 30
0.0
210
0.0
220
0.0
230
1.0
 11
6.123031769111886E-17
 21
1.0
 31
0.0
 40
5.0
 41
0.0
 71
     5
 72
     1
  1
20
  7
数字与字母
 73
     1
 44
1.0
  0
POINT
  5
15C
330
149
100
AcDbEntity
  8
Defpoints
 62
     0
100
AcDbPoint
 10
67.34887563064214
 20
150.4477355117676
 30
0.0
 50
0.0
  0
POINT
  5
15D
330
149
100
AcDbEntity
  8
Defpoints
 62
     0
100
AcDbPoint
 10
99.25475682036416
 20
170.4477355117676
 30
0.0
 50
0.0
  0
POINT
  5
15E
330
149
100
AcDbEntity
  8
Defpoints
 62
     0
100
AcDbPoint
 10
50.89398308192293
 20
170.4477355117676
 30
0.0
 50
0.0
  0
ENDBLK
  5
154
330
149
100
AcDbEntity
  8
0
100
AcDbBlockEnd
  0
BLOCK
  5
16B
330
161
100
AcDbEntity
  8
0
100
AcDbBlockBegin
  2
*D5
 70
     1
 10
0.0
 20
0.0
 30
0.0
  3
*D5
  1

  0
LINE
  5
16E
330
161
100
AcDbEntity
  8
文本层
370
    -2
 62
     0
100
AcDbLine
 10
117.7299654344322
 20
129.9535419229238
 30
0.0
 11
47.97686377841413
 21
129.9535419229238
 31
0.0
  0
LINE
  5
16F
330
161
100
AcDbEntity
  8
文本层
370
    -2
 62
     0
100
AcDbLine
 10
117.7299654344322
 20
69.95354192292382
 30
0.0
 11
47.97686377841413
 21
69.95354192292383
 31
0.0
  0
LINE
  5
170
330
161
100
AcDbEntity
  8
文本层
370
    -2
 62
     0
100
AcDbLine
 10
50.47686377841413
 20
126.4535419229238
 30
0.0
 11
50.47686377841412
 21
73.45354192292383
 31
0.0
  0
SOLID
  5
171
330
161
100
AcDbEntity
  8
文本层
 62
     0
100
AcDbTrace
 38
0.0
 10
49.8935304450808
 20
126.4535419229238
 11
51.06019711174747
 21
126.4535419229238
 12
50.47686377841413
 22
129.9535419229238
 13
50.47686377841413
 23
129.9535419229238
  0
SOLID
  5
172
330
161
100
AcDbEntity
  8
文本层
 62
     0
100
AcDbTrace
 38
0.0
 10
49.89353044508078
 20
73.45354192292383
 11
51.06019711174746
 21
73.45354192292383
 12
50.47686377841412
 22
69.95354192292383
 13
50.47686377841412
 23
69.95354192292383
  0
MTEXT
  5
173
330
161
100
AcDbEntity
  8
文本层
 62
     0
100
AcDbMText
 10
47.35186377841411
 20
99.95354192292385
 30
0.0
210
0.0
220
0.0
230
1.0
 11
6.123031769111886E-17
 21
1.0
 31
0.0
 40
5.0
 41
0.0
 71
     5
 72
     1
  1
60
  7
数字与字母
 73
     1
 44
1.0
  0
POINT
  5
174
330
161
100
AcDbEntity
  8
Defpoints
 62
     0
100
AcDbPoint
 10
117.7299654344322
 20
129.9535419229238
 30
0.0
 50
0.0
  0
POINT
  5
175
330
161
100
AcDbEntity
  8
Defpoints
 62
     0
100
AcDbPoint
 10
117.7299654344322
 20
69.95354192292382
 30
0.0
 50
0.0
  0
POINT
  5
176
330
161
100
AcDbEntity
  8
Defpoints
 62
     0
100
AcDbPoint
 10
50.47686377841412
 20
69.95354192292383
 30
0.0
 50
0.0
  0
ENDBLK
  5
16C
330
161
100
AcDbEntity
  8
0
100
AcDbBlockEnd
  0
BLOCK
  5
183
330
179
100
AcDbEntity
  8
0
100
AcDbBlockBegin
  2
*D6
 70
     1
 10
0.0
 20
0.0
 30
0.0
  3
*D6
  1

  0
LINE
  5
186
330
179
100
AcDbEntity
  8
文本层
370
    -2
 62
     0
100
AcDbLine
 10
72.72996543443219
 20
99.95354192292382
 30
0.0
 11
72.72996543443219
 21
38.42010146523565
 31
0.0
  0
LINE
  5
187
330
179
100
AcDbEntity
  8
文本层
370
    -2
 62
     0
100
AcDbLine
 10
162.7299654344322
 20
99.95354192292382
 30
0.0
 11
162.7299654344322
 21
38.42010146523565
 31
0.0
  0
LINE
  5
188
330
179
100
AcDbEntity
  8
文本层
370
    -2
 62
     0
100
AcDbLine
 10
76.22996543443219
 20
40.92010146523565
 30
0.0
 11
159.2299654344322
 21
40.92010146523565
 31
0.0
  0
SOLID
  5
189
330
179
100
AcDbEntity
  8
文本层
 62
     0
100
AcDbTrace
 38
0.0
 10
76.22996543443219
 20
41.50343479856899
 11
76.22996543443219
 21
40.33676813190232
 12
72.72996543443219
 22
40.92010146523565
 13
72.72996543443219
 23
40.92010146523565
  0
SOLID
  5
18A
330
179
100
AcDbEntity
  8
文本层
 62
     0
100
AcDbTrace
 38
0.0
 10
159.2299654344322
 20
41.50343479856899
 11
159.2299654344322
 21
40.33676813190232
 12
162.7299654344322
 22
40.92010146523565
 13
162.7299654344322
 23
40.92010146523565
  0
MTEXT
  5
18B
330
179
100
AcDbEntity
  8
文本层
 62
     0
100
AcDbMText
 10
117.7299654344322
 20
44.04510146523565
 30
0.0
210
0.0
220
0.0
230
1.0
 11
1.0
 21
0.0
 31
0.0
 40
5.0
 41
0.0
 71
     5
 72
     1
  1
90
  7
数字与字母
 73
     1
 44
1.0
  0
POINT
  5
18C
330
179
100
AcDbEntity
  8
Defpoints
 62
     0
100
AcDbPoint
 10
72.72996543443219
 20
99.95354192292382
 30
0.0
 50
0.0
  0
POINT
  5
18D
330
179
100
AcDbEntity
  8
Defpoints
 62
     0
100
AcDbPoint
 10
162.7299654344322
 20
99.95354192292382
 30
0.0
 50
0.0
  0
POINT
  5
18E
330
179
100
AcDbEntity
  8
Defpoints
 62
     0
100
AcDbPoint
 10
162.7299654344322
 20
40.92010146523565
 30
0.0
 50
0.0
  0
ENDBLK
  5
184
330
179
100
AcDbEntity
  8
0
100
AcDbBlockEnd
  0
BLOCK
  5
19B
330
191
100
AcDbEntity
  8
0
100
AcDbBlockBegin
  2
*D7
 70
     1
 10
0.0
 20
0.0
 30
0.0
  3
*D7
  1

  0
LINE
  5
19E
330
191
100
AcDbEntity
  8
文本层
370
    -2
 62
     0
100
AcDbLine
 10
84.72996543443219
 20
79.83674854961305
 30
0.0
 11
84.72996543443219
 21
49.199470492384
 31
0.0
  0
LINE
  5
19F
330
191
100
AcDbEntity
  8
文本层
370
    -2
 62
     0
100
AcDbLine
 10
150.7299654344322
 20
79.83674854961305
 30
0.0
 11
150.7299654344322
 21
49.199470492384
 31
0.0
  0
LINE
  5
1A0
330
191
100
AcDbEntity
  8
文本层
370
    -2
 62
     0
100
AcDbLine
 10
88.22996543443219
 20
51.699470492384
 30
0.0
 11
147.2299654344322
 21
51.699470492384
 31
0.0
  0
SOLID
  5
1A1
330
191
100
AcDbEntity
  8
文本层
 62
     0
100
AcDbTrace
 38
0.0
 10
88.22996543443219
 20
52.28280382571734
 11
88.22996543443219
 21
51.11613715905067
 12
84.72996543443219
 22
51.699470492384
 13
84.72996543443219
 23
51.699470492384
  0
SOLID
  5
1A2
330
191
100
AcDbEntity
  8
文本层
 62
     0
100
AcDbTrace
 38
0.0
 10
147.2299654344322
 20
52.28280382571734
 11
147.2299654344322
 21
51.11613715905067
 12
150.7299654344322
 22
51.699470492384
 13
150.7299654344322
 23
51.699470492384
  0
MTEXT
  5
1A3
330
191
100
AcDbEntity
  8
文本层
 62
     0
100
AcDbMText
 10
117.7299654344322
 20
54.824470492384
 30
0.0
210
0.0
220
0.0
230
1.0
 11
1.0
 21
0.0
 31
0.0
 40
5.0
 41
0.0
 71
     5
 72
     1
  1
66
  7
数字与字母
 73
     1
 44
1.0
  0
POINT
  5
1A4
330
191
100
AcDbEntity
  8
Defpoints
 62
     0
100
AcDbPoint
 10
84.72996543443219
 20
79.83674854961305
 30
0.0
 50
0.0
  0
POINT
  5
1A5
330
191
100
AcDbEntity
  8
Defpoints
 62
     0
100
AcDbPoint
 10
150.7299654344322
 20
79.83674854961305
 30
0.0
 50
0.0
  0
POINT
  5
1A6
330
191
100
AcDbEntity
  8
Defpoints
 62
     0
100
AcDbPoint
 10
150.7299654344322
 20
51.699470492384
 30
0.0
 50
0.0
  0
ENDBLK
  5
19C
330
191
100
AcDbEntity
  8
0
100
AcDbBlockEnd
  0
BLOCK
  5
1B3
330
1A9
100
AcDbEntity
  8
0
100
AcDbBlockBegin
  2
*D8
 70
     1
 10
0.0
 20
0.0
 30
0.0
  3
*D8
  1

  0
LINE
  5
1B6
330
1A9
100
AcDbEntity
  8
文本层
370
    -2
 62
     0
100
AcDbLine
 10
108.4923611273982
 20
83.95354192292382
 30
0.0
 11
125.6452067770854
 21
54.24394176327874
 31
0.0
  0
LINE
  5
1B7
330
1A9
100
AcDbEntity
  8
文本层
370
    -2
 62
     0
100
AcDbLine
 10
136.2051740485002
 20
99.95354192292382
 30
0.0
 11
153.3580196981875
 21
70.24394176327876
 31
0.0
  0
LINE
  5
1B8
330
1A9
100
AcDbEntity
  8
文本层
370
    -2
 62
     0
100
AcDbLine
 10
127.4262956903309
 20
58.15900527273983
 30
0.0
 11
149.0769307849419
 21
70.65900527273985
 31
0.0
  0
SOLID
  5
1B9
330
1A9
100
AcDbEntity
  8
文本层
 62
     0
100
AcDbTrace
 38
0.0
 10
127.1346290236643
 20
58.66418675828076
 11
127.7179623569976
 21
57.65382378719892
 12
124.3952067770854
 22
56.40900527273983
 13
124.3952067770854
 23
56.40900527273983
  0
SOLID
  5
1BA
330
1A9
100
AcDbEntity
  8
文本层
 62
     0
100
AcDbTrace
 38
0.0
 10
148.7852641182753
 20
71.16418675828078
 11
149.3685974516086
 21
70.15382378719893
 12
152.1080196981875
 22
72.40900527273985
 13
152.1080196981875
 23
72.40900527273985
  0
MTEXT
  5
1BB
330
1A9
100
AcDbEntity
  8
文本层
 62
     0
100
AcDbMText
 10
136.6891132376365
 20
67.1153346595662
 30
0.0
210
0.0
220
0.0
230
1.0
 11
0.8660254037844387
 21
0.4999999999999998
 31
0.0
 40
5.0
 41
0.0
 71
     5
 72
     1
  1
32
  7
数字与字母
 73
     1
 44
1.0
  0
POINT
  5
1BC
330
1A9
100
AcDbEntity
  8
Defpoints
 62
     0
100
AcDbPoint
 10
108.4923611273982
 20
83.95354192292382
 30
0.0
 50
0.0
  0
POINT
  5
1BD
330
1A9
100
AcDbEntity
  8
Defpoints
 62
     0
100
AcDbPoint
 10
136.2051740485002
 20
99.95354192292382
 30
0.0
 50
0.0
  0
POINT
  5
1BE
330
1A9
100
AcDbEntity
  8
Defpoints
 62
     0
100
AcDbPoint
 10
152.1080196981875
 20
72.40900527273985
 30
0.0
 50
0.0
  0
ENDBLK
  5
1B4
330
1A9
100
AcDbEntity
  8
0
100
AcDbBlockEnd
  0
BLOCK
  5
1CB
330
1C1
100
AcDbEntity
  8
0
100
AcDbBlockBegin
  2
*D9
 70
     1
 10
0.0
 20
0.0
 30
0.0
  3
*D9
  1

  0
LINE
  5
25C
330
1C1
100
AcDbEntity
  8
文本层
370
    -2
 62
     0
100
AcDbLine
 10
54.22500404706547
 20
110.3323626378174
 30
0.0
 11
67.1833373803988
 21
110.3323626378174
 31
0.0
  0
LINE
  5
25D
330
1C1
100
AcDbEntity
  8
文本层
370
    -2
 62
     0
100
AcDbLine
 10
67.1833373803988
 20
110.3323626378174
 30
0.0
 11
78.27468617680719
 21
103.77183600616
 31
0.0
  0
LINE
  5
25E
330
1C1
100
AcDbEntity
  8
文本层
370
    -2
 62
     0
100
AcDbLine
 10
91.18524469205721
 20
96.13524783968771
 30
0.0
 11
94.19770834561555
 21
94.35337726751084
 31
0.0
  0
MTEXT
  5
25F
330
1C1
100
AcDbEntity
  8
文本层
 62
     0
100
AcDbMText
 10
60.39167071373213
 20
113.4573626378174
 30
0.0
210
0.0
220
0.0
230
1.0
 11
1.0
 21
0.0
 31
0.0
 40
5.0
 41
0.0
 71
     5
 72
     1
  1
{\f??|b0|i0|c0|p54;2x}\U+22058
  7
数字与字母
 73
     1
 44
1.0
  0
LINE
  5
260
330
1C1
100
AcDbEntity
  8
文本层
370
    -2
 62
     0
100
AcDbLine
 10
88.17278103849887
 20
97.91711841186458
 30
0.0
 11
81.28714983036554
 21
101.9899654339831
 31
0.0
  0
SOLID
  5
261
330
1C1
100
AcDbEntity
  8
文本层
 62
     0
100
AcDbTrace
 38
0.0
 10
91.48222312075336
 20
96.63732511528077
 11
90.88826626336106
 21
95.63317056409464
 12
88.17278103849887
 22
97.91711841186458
 13
88.17278103849887
 23
97.91711841186458
  0
SOLID
  5
262
330
1C1
100
AcDbEntity
  8
文本层
 62
     0
100
AcDbTrace
 38
0.0
 10
78.57166460550334
 20
104.2739132817531
 11
77.97770774811104
 21
103.2697587305669
 12
81.28714983036554
 22
101.9899654339831
 13
81.28714983036554
 23
101.9899654339831
  0
POINT
  5
263
330
1C1
100
AcDbEntity
  8
Defpoints
 62
     0
100
AcDbPoint
 10
81.28714983036554
 20
101.9899654339831
 30
0.0
 50
0.0
  0
POINT
  5
264
330
1C1
100
AcDbEntity
  8
Defpoints
 62
     0
100
AcDbPoint
 10
88.17278103849887
 20
97.91711841186458
 30
0.0
 50
0.0
  0
ENDBLK
  5
1CC
330
1C1
100
AcDbEntity
  8
0
100
AcDbBlockEnd
  0
BLOCK
  5
1E3
330
1D9
100
AcDbEntity
  8
0
100
AcDbBlockBegin
  2
*D10
 70
     1
 10
0.0
 20
0.0
 30
0.0
  3
*D10
  1

  0
LINE
  5
265
330
1D9
100
AcDbEntity
  8
文本层
370
    -2
 62
     0
100
AcDbLine
 10
156.4993233242498
 20
130.2216489565082
 30
0.0
 11
143.3743233242497
 21
130.2216489565082
 31
0.0
  0
LINE
  5
266
330
1D9
100
AcDbEntity
  8
文本层
370
    -2
 62
     0
100
AcDbLine
 10
143.3743233242497
 20
130.2216489565082
 30
0.0
 11
134.2462206899027
 21
123.877170324659
 31
0.0
  0
LINE
  5
267
330
1D9
100
AcDbEntity
  8
文本层
370
    -2
 62
     0
100
AcDbLine
 10
125.2137101789617
 20
117.5991329028417
 30
0.0
 11
122.3397295618441
 21
115.6015755413544
 31
0.0
  0
MTEXT
  5
268
330
1D9
100
AcDbEntity
  8
文本层
 62
     0
100
AcDbMText
 10
150.2493233242498
 20
133.3466489565082
 30
0.0
210
0.0
220
0.0
230
1.0
 11
1.0
 21
0.0
 31
0.0
 40
5.0
 41
0.0
 71
     5
 72
     1
  1
{\f??|b0|i0|c0|p54;6x}\U+22054
  7
数字与字母
 73
     1
 44
1.0
  0
LINE
  5
269
330
1D9
100
AcDbEntity
  8
文本层
370
    -2
 62
     0
100
AcDbLine
 10
128.0876907960793
 20
119.596690264329
 30
0.0
 11
131.3722400727851
 21
121.8796129631716
 31
0.0
  0
SOLID
  5
26A
330
1D9
100
AcDbEntity
  8
文本层
 62
     0
100
AcDbTrace
 38
0.0
 10
124.8807839520471
 20
118.0781296723613
 11
125.5466364058762
 21
117.1201361333221
 12
128.0876907960793
 22
119.596690264329
 13
128.0876907960793
 23
119.596690264329
  0
SOLID
  5
26B
330
1D9
100
AcDbEntity
  8
文本层
 62
     0
100
AcDbTrace
 38
0.0
 10
133.9132944629882
 20
124.3561670941786
 11
134.5791469168173
 21
123.3981735551394
 12
131.3722400727851
 22
121.8796129631716
 13
131.3722400727851
 23
121.8796129631716
  0
POINT
  5
26C
330
1D9
100
AcDbEntity
  8
Defpoints
 62
     0
100
AcDbPoint
 10
131.3722400727851
 20
121.8796129631716
 30
0.0
 50
0.0
  0
POINT
  5
26D
330
1D9
100
AcDbEntity
  8
Defpoints
 62
     0
100
AcDbPoint
 10
128.0876907960793
 20
119.596690264329
 30
0.0
 50
0.0
  0
ENDBLK
  5
1E4
330
1D9
100
AcDbEntity
  8
0
100
AcDbBlockEnd
  0
BLOCK
  5
1FB
330
1F1
100
AcDbEntity
  8
0
100
AcDbBlockBegin
  2
*D11
 70
     1
 10
0.0
 20
0.0
 30
0.0
  3
*D11
  1

  0
LINE
  5
1FE
330
1F1
100
AcDbEntity
  8
文本层
370
    -2
 62
     0
100
AcDbLine
 10
150.7299654344322
 20
111.9535419229238
 30
0.0
 11
182.0035973696374
 21
111.9535419229238
 31
0.0
  0
LINE
  5
1FF
330
1F1
100
AcDbEntity
  8
文本层
370
    -2
 62
     0
100
AcDbLine
 10
150.7299654344322
 20
87.95354192292382
 30
0.0
 11
182.0035973696374
 21
87.9535419229238
 31
0.0
  0
LINE
  5
200
330
1F1
100
AcDbEntity
  8
文本层
370
    -2
 62
     0
100
AcDbLine
 10
179.5035973696374
 20
108.4535419229238
 30
0.0
 11
179.5035973696374
 21
91.4535419229238
 31
0.0
  0
SOLID
  5
201
330
1F1
100
AcDbEntity
  8
文本层
 62
     0
100
AcDbTrace
 38
0.0
 10
178.9202640363041
 20
108.4535419229238
 11
180.0869307029708
 21
108.4535419229238
 12
179.5035973696374
 22
111.9535419229238
 13
179.5035973696374
 23
111.9535419229238
  0
SOLID
  5
202
330
1F1
100
AcDbEntity
  8
文本层
 62
     0
100
AcDbTrace
 38
0.0
 10
178.9202640363041
 20
91.4535419229238
 11
180.0869307029708
 21
91.4535419229238
 12
179.5035973696374
 22
87.9535419229238
 13
179.5035973696374
 23
87.9535419229238
  0
MTEXT
  5
203
330
1F1
100
AcDbEntity
  8
文本层
 62
     0
100
AcDbMText
 10
176.3785973696374
 20
99.95354192292383
 30
0.0
210
0.0
220
0.0
230
1.0
 11
6.123031769111886E-17
 21
1.0
 31
0.0
 40
5.0
 41
0.0
 71
     5
 72
     1
  1
24
  7
数字与字母
 73
     1
 44
1.0
  0
POINT
  5
204
330
1F1
100
AcDbEntity
  8
Defpoints
 62
     0
100
AcDbPoint
 10
150.7299654344322
 20
111.9535419229238
 30
0.0
 50
0.0
  0
POINT
  5
205
330
1F1
100
AcDbEntity
  8
Defpoints
 62
     0
100
AcDbPoint
 10
150.7299654344322
 20
87.95354192292382
 30
0.0
 50
0.0
  0
POINT
  5
206
330
1F1
100
AcDbEntity
  8
Defpoints
 62
     0
100
AcDbPoint
 10
179.5035973696374
 20
87.9535419229238
 30
0.0
 50
0.0
  0
ENDBLK
  5
1FC
330
1F1
100
AcDbEntity
  8
0
100
AcDbBlockEnd
  0
BLOCK
  5
225
330
21D
100
AcDbEntity
  8
0
100
AcDbBlockBegin
  2
*D13
 70
     1
 10
0.0
 20
0.0
 30
0.0
  3
*D13
  1

  0
LINE
  5
228
330
21D
100
AcDbEntity
  8
文本层
370
    -2
 62
     0
100
AcDbLine
 10
139.4901555303451
 20
140.6289344050513
 30
0.0
 11
129.3651555303451
 21
140.6289344050513
 31
0.0
  0
LINE
  5
229
330
21D
100
AcDbEntity
  8
文本层
370
    -2
 62
     0
100
AcDbLine
 10
129.3651555303451
 20
140.6289344050513
 30
0.0
 11
126.9431151343709
 21
132.1617376595142
 31
0.0
  0
MTEXT
  5
22A
330
21D
100
AcDbEntity
  8
文本层
 62
     0
100
AcDbMText
 10
134.7401555303451
 20
143.7539344050513
 30
0.0
210
0.0
220
0.0
230
1.0
 11
1.0
 21
0.0
 31
0.0
 40
5.0
 41
0.0
 71
     5
 72
     1
  1
R30
  7
数字与字母
 73
     1
 44
1.0
  0
LINE
  5
22B
330
21D
100
AcDbEntity
  8
文本层
370
    -2
 62
     0
100
AcDbLine
 10
117.7299654344319
 20
99.95354192292365
 30
0.0
 11
125.9805472552728
 21
128.7967022840495
 31
0.0
  0
SOLID
  5
22C
330
21D
100
AcDbEntity
  8
文本层
 62
     0
100
AcDbTrace
 38
0.0
 10
126.3822759051267
 20
132.3221656393639
 11
127.503954363615
 21
132.0013096796645
 12
125.9805472552728
 22
128.7967022840495
 13
125.9805472552728
 23
128.7967022840495
  0
POINT
  5
22D
330
21D
100
AcDbEntity
  8
Defpoints
 62
     0
100
AcDbPoint
 10
125.9805472552728
 20
128.7967022840495
 30
0.0
 50
0.0
  0
POINT
  5
22E
330
21D
100
AcDbEntity
  8
Defpoints
 62
     0
100
AcDbPoint
 10
117.7299654344319
 20
99.95354192292365
 30
0.0
 50
0.0
  0
ENDBLK
  5
226
330
21D
100
AcDbEntity
  8
0
100
AcDbBlockEnd
  0
BLOCK
  5
23B
330
231
100
AcDbEntity
  8
0
100
AcDbBlockBegin
  2
*D14
 70
     1
 10
0.0
 20
0.0
 30
0.0
  3
*D14
  1

  0
LINE
  5
23E
330
231
100
AcDbEntity
  8
文本层
370
    -2
 62
     0
100
AcDbLine
 10
77.50376211179511
 20
135.6549403912221
 30
0.0
 11
87.29542877846185
 21
135.6549403912221
 31
0.0
  0
LINE
  5
23F
330
231
100
AcDbEntity
  8
文本层
370
    -2
 62
     0
100
AcDbLine
 10
87.29542877846185
 20
135.6549403912221
 30
0.0
 11
108.9719611247167
 21
110.2271664299323
 31
0.0
  0
LINE
  5
240
330
231
100
AcDbEntity
  8
文本层
370
    -2
 62
     0
100
AcDbLine
 10
126.4879697441477
 20
89.67991741591534
 30
0.0
 11
128.7585634540739
 21
87.01638513632054
 31
0.0
  0
MTEXT
  5
241
330
231
100
AcDbEntity
  8
文本层
 62
     0
100
AcDbMText
 10
82.08709544512845
 20
138.7799403912221
 30
0.0
210
0.0
220
0.0
230
1.0
 11
1.0
 21
0.0
 31
0.0
 40
5.0
 41
0.0
 71
     5
 72
     1
  1
\U+220520
  7
数字与字母
 73
     1
 44
1.0
  0
LINE
  5
242
330
231
100
AcDbEntity
  8
文本层
370
    -2
 62
     0
100
AcDbLine
 10
124.2173760342214
 20
92.34344969551013
 30
0.0
 11
111.242554834643
 21
107.5636341503375
 31
0.0
  0
SOLID
  5
243
330
231
100
AcDbEntity
  8
文本层
 62
     0
100
AcDbTrace
 38
0.0
 10
126.9318917907468
 20
90.05834970090305
 11
126.0440476975485
 21
89.30148513092763
 12
124.2173760342214
 22
92.34344969551013
 13
124.2173760342214
 23
92.34344969551013
  0
SOLID
  5
244
330
231
100
AcDbEntity
  8
文本层
 62
     0
100
AcDbTrace
 38
0.0
 10
109.4158831713159
 20
110.60559871492
 11
108.5280390781176
 21
109.8487341449446
 12
111.242554834643
 22
107.5636341503375
 13
111.242554834643
 23
107.5636341503375
  0
POINT
  5
245
330
231
100
AcDbEntity
  8
Defpoints
 62
     0
100
AcDbPoint
 10
111.242554834643
 20
107.5636341503375
 30
0.0
 50
0.0
  0
POINT
  5
246
330
231
100
AcDbEntity
  8
Defpoints
 62
     0
100
AcDbPoint
 10
124.2173760342214
 20
92.34344969551013
 30
0.0
 50
0.0
  0
ENDBLK
  5
23C
330
231
100
AcDbEntity
  8
0
100
AcDbBlockEnd
  0
BLOCK
  5
251
330
249
100
AcDbEntity
  8
0
100
AcDbBlockBegin
  2
*D15
 70
     1
 10
0.0
 20
0.0
 30
0.0
  3
*D15
  1

  0
LINE
  5
254
330
249
100
AcDbEntity
  8
文本层
370
    -2
 62
     0
100
AcDbLine
 10
56.96465410901052
 20
81.10767884714045
 30
0.0
 11
67.08965410901054
 21
81.10767884714043
 31
0.0
  0
LINE
  5
255
330
249
100
AcDbEntity
  8
文本层
370
    -2
 62
     0
100
AcDbLine
 10
67.08965410901054
 20
81.10767884714043
 30
0.0
 11
73.91828141988498
 21
86.55140475771701
 31
0.0
  0
MTEXT
  5
256
330
249
100
AcDbEntity
  8
文本层
 62
     0
100
AcDbMText
 10
61.71465410901054
 20
84.23267884714043
 30
0.0
210
0.0
220
0.0
230
1.0
 11
1.0
 21
0.0
 31
0.0
 40
5.0
 41
0.0
 71
     5
 72
     1
  1
R18
  7
数字与字母
 73
     1
 44
1.0
  0
LINE
  5
257
330
249
100
AcDbEntity
  8
文本层
370
    -2
 62
     0
100
AcDbLine
 10
90.72996543443237
 20
99.95354192292396
 30
0.0
 11
76.65506718969499
 21
88.73314801716928
 31
0.0
  0
SOLID
  5
258
330
249
100
AcDbEntity
  8
文本层
 62
     0
100
AcDbTrace
 38
0.0
 10
73.5546575433096
 20
87.00753571935201
 11
74.28190529646035
 21
86.09527379608201
 12
76.65506718969499
 22
88.73314801716928
 13
76.65506718969499
 23
88.73314801716928
  0
POINT
  5
259
330
249
100
AcDbEntity
  8
Defpoints
 62
     0
100
AcDbPoint
 10
76.65506718969499
 20
88.73314801716928
 30
0.0
 50
0.0
  0
POINT
  5
25A
330
249
100
AcDbEntity
  8
Defpoints
 62
     0
100
AcDbPoint
 10
90.72996543443237
 20
99.95354192292396
 30
0.0
 50
0.0
  0
ENDBLK
  5
252
330
249
100
AcDbEntity
  8
0
100
AcDbBlockEnd
  0
ENDSEC
  0
SECTION
  2
ENTITIES
  0
LINE
  5
A9
102
{ACAD_REACTORS
330
18F
330
1BF
102
}
330
1F
100
AcDbEntity
  8
点划线
100
AcDbLine
 10
69.72996543443219
 20
99.95354192292382
 30
0.0
 11
165.7299654344322
 21
99.95354192292382
 31
0.0
  0
LINE
  5
AA
330
1F
100
AcDbEntity
  8
点划线
100
AcDbLine
 10
84.72996543443219
 20
169.4477355117676
 30
0.0
 11
84.72996543443219
 21
147.4477355117676
 31
0.0
  0
LINE
  5
AB
330
1F
100
AcDbEntity
  8
点划线
100
AcDbLine
 10
150.7299654344322
 20
169.4477355117676
 30
0.0
 11
150.7299654344322
 21
147.4477355117676
 31
0.0
  0
LINE
  5
AC
330
1F
100
AcDbEntity
  8
点划线
100
AcDbLine
 10
117.7299654344322
 20
173.4477355117676
 30
0.0
 11
117.7299654344322
 21
147.4477355117676
 31
0.0
  0
CIRCLE
  5
AD
102
{ACAD_REACTORS
330
1D7
102
}
330
1F
100
AcDbEntity
  8
轮廓线
100
AcDbCircle
 10
84.72996543443219
 20
99.95354192292382
 30
0.0
 40
4.0
  0
ARC
  5
AE
330
1F
100
AcDbEntity
  8
轮廓线
100
AcDbCircle
 10
84.72996543443219
 20
99.95354192292382
 30
0.0
 40
12.0
100
AcDbArc
 50
90.0
 51
270.0
  0
ARC
  5
AF
330
1F
100
AcDbEntity
  8
轮廓线
100
AcDbCircle
 10
150.7299654344322
 20
99.95354192292382
 30
0.0
 40
12.0
100
AcDbArc
 50
270.0
 51
90.0
  0
CIRCLE
  5
B0
330
1F
100
AcDbEntity
  8
轮廓线
100
AcDbCircle
 10
150.7299654344322
 20
99.95354192292382
 30
0.0
 40
4.0
  0
LINE
  5
B1
330
1F
100
AcDbEntity
  8
轮廓线
100
AcDbLine
 10
84.72996543443219
 20
111.9535419229238
 30
0.0
 11
106.1829600506397
 21
111.9535419229238
 31
0.0
  0
LINE
  5
B2
330
1F
100
AcDbEntity
  8
轮廓线
100
AcDbLine
 10
84.72996543443219
 20
87.95354192292382
 30
0.0
 11
106.1829600506397
 21
87.95354192292382
 31
0.0
  0
ARC
  5
B3
102
{ACAD_REACTORS
330
177
330
22F
102
}
330
1F
100
AcDbEntity
  8
轮廓线
100
AcDbCircle
 10
117.7299654344322
 20
99.95354192292382
 30
0.0
 40
30.0
100
AcDbArc
 50
63.61220003875699
 51
116.387799961243
  0
CIRCLE
  5
B4
330
1F
100
AcDbEntity
  8
点划线
100
AcDbCircle
 10
117.7299654344322
 20
99.95354192292382
 30
0.0
 40
24.0
  0
CIRCLE
  5
B5
102
{ACAD_REACTORS
330
247
102
}
330
1F
100
AcDbEntity
  8
轮廓线
100
AcDbCircle
 10
117.7299654344322
 20
99.95354192292382
 30
0.0
 40
10.0
  0
CIRCLE
  5
B6
330
1F
100
AcDbEntity
  8
轮廓线
100
AcDbCircle
 10
93.72996543443219
 20
99.95354192292382
 30
0.0
 40
2.0
  0
CIRCLE
  5
B7
330
1F
100
AcDbEntity
  8
轮廓线
100
AcDbCircle
 10
105.7299654344322
 20
79.16893223209729
 30
0.0
 40
2.0
  0
CIRCLE
  5
B8
330
1F
100
AcDbEntity
  8
轮廓线
100
AcDbCircle
 10
129.7299654344322
 20
79.16893223209732
 30
0.0
 40
2.0
  0
CIRCLE
  5
B9
330
1F
100
AcDbEntity
  8
轮廓线
100
AcDbCircle
 10
141.7299654344322
 20
99.95354192292383
 30
0.0
 40
2.0
  0
CIRCLE
  5
BA
102
{ACAD_REACTORS
330
1EF
102
}
330
1F
100
AcDbEntity
  8
轮廓线
100
AcDbCircle
 10
129.7299654344322
 20
120.7381516137503
 30
0.0
 40
2.0
  0
CIRCLE
  5
BB
330
1F
100
AcDbEntity
  8
轮廓线
100
AcDbCircle
 10
105.7299654344322
 20
120.7381516137503
 30
0.0
 40
2.0
  0
LWPOLYLINE
  5
BC
102
{ACAD_REACTORS
330
1BF
102
}
330
1F
100
AcDbEntity
  8
轮廓线
100
AcDbPolyline
 90
        6
 70
     1
 43
0.0
 10
108.4923611273982
 20
115.9535419229238
 10
99.25475682036416
 20
99.95354192292382
 10
108.4923611273982
 20
83.95354192292382
 10
126.9675697414662
 20
83.95354192292382
 10
136.2051740485002
 20
99.9535419229238
 10
126.9675697414662
 20
115.9535419229238
  0
ARC
  5
BF
102
{ACAD_REACTORS
330
25B
102
}
330
1F
100
AcDbEntity
  8
轮廓线
100
AcDbCircle
 10
90.72996543443219
 20
99.95354192292382
 30
0.0
 40
18.0
100
AcDbArc
 50
116.387799961243
 51
243.612200038757
  0
ARC
  5
C0
330
1F
100
AcDbEntity
  8
轮廓线
100
AcDbCircle
 10
144.7299654344322
 20
99.95354192292382
 30
0.0
 40
18.0
100
AcDbArc
 50
296.387799961243
 51
63.61220003875701
  0
LINE
  5
C1
330
1F
100
AcDbEntity
  8
轮廓线
100
AcDbLine
 10
82.72996543443219
 20
116.0780574195209
 30
0.0
 11
104.3966321010989
 21
126.8277344172523
 31
0.0
  0
LINE
  5
C2
330
1F
100
AcDbEntity
  8
轮廓线
100
AcDbLine
 10
131.0632987677655
 20
126.8277344172523
 30
0.0
 11
152.7299654344322
 21
116.0780574195209
 31
0.0
  0
LINE
  5
C3
330
1F
100
AcDbEntity
  8
轮廓线
100
AcDbLine
 10
82.72996543443217
 20
83.82902642632672
 30
0.0
 11
104.3966321010988
 21
73.07934942859532
 31
0.0
  0
LINE
  5
C4
330
1F
100
AcDbEntity
  8
轮廓线
100
AcDbLine
 10
131.0632987677655
 20
73.07934942859532
 30
0.0
 11
152.7299654344322
 21
83.82902642632672
 31
0.0
  0
ARC
  5
C5
102
{ACAD_REACTORS
330
177
102
}
330
1F
100
AcDbEntity
  8
轮廓线
100
AcDbCircle
 10
117.7299654344322
 20
99.95354192292382
 30
0.0
 40
30.0
100
AcDbArc
 50
243.612200038757
 51
296.387799961243
  0
LINE
  5
C6
102
{ACAD_REACTORS
330
207
102
}
330
1F
100
AcDbEntity
  8
轮廓线
100
AcDbLine
 10
129.2769708182247
 20
111.9535419229238
 30
0.0
 11
150.7299654344322
 21
111.9535419229238
 31
0.0
  0
LINE
  5
C7
102
{ACAD_REACTORS
330
207
102
}
330
1F
100
AcDbEntity
  8
轮廓线
100
AcDbLine
 10
129.2769708182247
 20
87.95354192292382
 30
0.0
 11
150.7299654344322
 21
87.95354192292382
 31
0.0
  0
LINE
  5
C8
102
{ACAD_REACTORS
330
FE
102
}
330
1F
100
AcDbEntity
  8
轮廓线
100
AcDbLine
 10
72.72996543443219
 20
166.4477355117676
 30
0.0
 11
72.72996543443219
 21
150.4477355117676
 31
0.0
  0
LINE
  5
C9
102
{ACAD_REACTORS
330
FE
102
}
330
1F
100
AcDbEntity
  8
轮廓线
100
AcDbLine
 10
80.72996543443219
 20
166.4477355117676
 30
0.0
 11
80.72996543443219
 21
150.4477355117676
 31
0.0
  0
LINE
  5
CA
102
{ACAD_REACTORS
330
FE
102
}
330
1F
100
AcDbEntity
  8
轮廓线
100
AcDbLine
 10
88.72996543443219
 20
166.4477355117676
 30
0.0
 11
88.72996543443219
 21
150.4477355117676
 31
0.0
  0
LINE
  5
CB
102
{ACAD_REACTORS
330
FE
102
}
330
1F
100
AcDbEntity
  8
轮廓线
100
AcDbLine
 10
91.72996543443219
 20
166.4477355117676
 30
0.0
 11
91.72996543443219
 21
150.4477355117676
 31
0.0
  0
LINE
  5
CC
102
{ACAD_REACTORS
330
FE
102
}
330
1F
100
AcDbEntity
  8
轮廓线
100
AcDbLine
 10
95.72996543443219
 20
166.4477355117676
 30
0.0
 11
95.72996543443219
 21
150.4477355117676
 31
0.0
  0
LINE
  5
CD
102
{ACAD_REACTORS
330
FE
102
}
330
1F
100
AcDbEntity
  8
轮廓线
100
AcDbLine
 10
99.25475682036416
 20
170.4477355117676
 30
0.0
 11
99.25475682036418
 21
166.4477355117676
 31
0.0
  0
LINE
  5
CE
102
{ACAD_REACTORS
330
FE
102
}
330
1F
100
AcDbEntity
  8
轮廓线
100
AcDbLine
 10
107.7299654344322
 20
170.4477355117676
 30
0.0
 11
107.7299654344322
 21
150.4477355117676
 31
0.0
  0
LINE
  5
CF
102
{ACAD_REACTORS
330
EF
102
}
330
1F
100
AcDbEntity
  8
轮廓线
100
AcDbLine
 10
127.7299654344322
 20
170.4477355117676
 30
0.0
 11
127.7299654344322
 21
150.4477355117676
 31
0.0
  0
LINE
  5
D0
102
{ACAD_REACTORS
330
EF
102
}
330
1F
100
AcDbEntity
  8
轮廓线
100
AcDbLine
 10
139.7299654344322
 20
166.4477355117676
 30
0.0
 11
139.7299654344322
 21
150.4477355117676
 31
0.0
  0
LINE
  5
D1
102
{ACAD_REACTORS
330
EF
102
}
330
1F
100
AcDbEntity
  8
轮廓线
100
AcDbLine
 10
143.7299654344322
 20
166.4477355117676
 30
0.0
 11
143.7299654344322
 21
150.4477355117676
 31
0.0
  0
LINE
  5
D2
102
{ACAD_REACTORS
330
EF
102
}
330
1F
100
AcDbEntity
  8
轮廓线
100
AcDbLine
 10
146.7299654344322
 20
166.4477355117676
 30
0.0
 11
146.7299654344322
 21
150.4477355117676
 31
0.0
  0
LINE
  5
D3
102
{ACAD_REACTORS
330
EF
102
}
330
1F
100
AcDbEntity
  8
轮廓线
100
AcDbLine
 10
154.7299654344322
 20
166.4477355117676
 30
0.0
 11
154.7299654344322
 21
150.4477355117676
 31
0.0
  0
LINE
  5
D4
102
{ACAD_REACTORS
330
EF
102
}
330
1F
100
AcDbEntity
  8
轮廓线
100
AcDbLine
 10
162.7299654344322
 20
166.4477355117676
 30
0.0
 11
162.7299654344322
 21
150.4477355117676
 31
0.0
  0
LINE
  5
D5
102
{ACAD_REACTORS
330
12F
102
}
330
1F
100
AcDbEntity
  8
点划线
100
AcDbLine
 10
93.72996543443219
 20
169.4477355117676
 30
0.0
 11
93.72996543443219
 21
147.4477355117676
 31
0.0
  0
LINE
  5
D6
102
{ACAD_REACTORS
330
12F
102
}
330
1F
100
AcDbEntity
  8
点划线
100
AcDbLine
 10
141.7299654344322
 20
169.4477355117676
 30
0.0
 11
141.7299654344322
 21
147.4477355117676
 31
0.0
  0
LINE
  5
D7
102
{ACAD_REACTORS
330
EF
102
}
330
1F
100
AcDbEntity
  8
轮廓线
100
AcDbLine
 10
136.2051740485002
 20
170.4477355117676
 30
0.0
 11
136.2051740485002
 21
166.4477355117676
 31
0.0
  0
LINE
  5
D8
102
{ACAD_REACTORS
330
EF
330
FE
330
147
102
}
330
1F
100
AcDbEntity
  8
轮廓线
100
AcDbLine
 10
72.72996543443219
 20
150.4477355117676
 30
0.0
 11
162.7299654344322
 21
150.4477355117676
 31
0.0
  0
LINE
  5
D9
102
{ACAD_REACTORS
330
FE
330
147
102
}
330
1F
100
AcDbEntity
  8
轮廓线
100
AcDbLine
 10
72.72996543443219
 20
166.4477355117676
 30
0.0
 11
99.25475682036416
 21
166.4477355117676
 31
0.0
  0
LINE
  5
DB
102
{ACAD_REACTORS
330
EF
330
FE
330
15F
102
}
330
1F
100
AcDbEntity
  8
轮廓线
100
AcDbLine
 10
99.25475682036416
 20
170.4477355117676
 30
0.0
 11
136.2051740485002
 21
170.4477355117676
 31
0.0
  0
LINE
  5
DD
102
{ACAD_REACTORS
330
1A7
102
}
330
1F
100
AcDbEntity
  8
点划线
100
AcDbLine
 10
150.7299654344322
 20
120.0703352962346
 30
0.0
 11
150.7299654344322
 21
79.83674854961305
 31
0.0
  0
LINE
  5
DE
330
1F
100
AcDbEntity
  8
点划线
100
AcDbLine
 10
117.7299654344322
 20
132.9535419229238
 30
0.0
 11
117.7299654344322
 21
66.95354192292382
 31
0.0
  0
LINE
  5
DF
102
{ACAD_REACTORS
330
1A7
102
}
330
1F
100
AcDbEntity
  8
点划线
100
AcDbLine
 10
84.72996543443217
 20
120.0703352962346
 30
0.0
 11
84.72996543443219
 21
79.83674854961305
 31
0.0
  0
LINE
  5
E0
102
{ACAD_REACTORS
330
EF
102
}
330
1F
100
AcDbEntity
  8
轮廓线
100
AcDbLine
 10
136.2051740485002
 20
166.4477355117676
 30
0.0
 11
162.7299654344322
 21
166.4477355117676
 31
0.0
  0
HATCH
  5
EF
330
1F
100
AcDbEntity
  8
剖面线
100
AcDbHatch
 10
0.0
 20
0.0
 30
0.0
210
0.0
220
0.0
230
1.0
  2
ANSI31
 70
     0
 71
     1
 91
        3
 92
        7
 72
     0
 73
     1
 93
        6
 10
139.7299654344322
 20
166.4477355117676
 10
136.2051740485002
 20
166.4477355117676
 10
136.2051740485002
 20
170.4477355117676
 10
127.7299654344322
 20
170.4477355117676
 10
127.7299654344322
 20
150.4477355117676
 10
139.7299654344322
 20
150.4477355117676
 97
        6
330
E0
330
D7
330
DB
330
CF
330
D8
330
D0
 92
        7
 72
     0
 73
     1
 93
        4
 10
146.7299654344322
 20
166.4477355117676
 10
143.7299654344322
 20
166.4477355117676
 10
143.7299654344322
 20
150.4477355117676
 10
146.7299654344322
 20
150.4477355117676
 97
        4
330
E0
330
D1
330
D8
330
D2
 92
        7
 72
     0
 73
     1
 93
        4
 10
162.7299654344322
 20
166.4477355117676
 10
154.7299654344322
 20
166.4477355117676
 10
154.7299654344322
 20
150.4477355117676
 10
162.7299654344322
 20
150.4477355117676
 97
        4
330
E0
330
D3
330
D8
330
D4
 75
     0
 76
     1
 52
0.0
 41
0.75
 77
     0
 78
     1
 53
45.0
 43
0.0
 44
0.0
 45
-1.683798022700466
 46
1.683798022700466
 79
     0
 47
0.1467002897495483
 98
        3
 10
133.278627147207
 20
156.3295347624987
 10
145.0256734787545
 20
158.8234397149185
 10
159.4158050226578
 20
157.7965376921219
  0
HATCH
  5
FE
330
1F
100
AcDbEntity
  8
剖面线
100
AcDbHatch
 10
0.0
 20
0.0
 30
0.0
210
0.0
220
0.0
230
1.0
  2
ANSI31
 70
     0
 71
     1
 91
        3
 92
        7
 72
     0
 73
     1
 93
        4
 10
80.72996543443219
 20
166.4477355117676
 10
72.72996543443219
 20
166.4477355117676
 10
72.72996543443219
 20
150.4477355117676
 10
80.72996543443219
 20
150.4477355117676
 97
        4
330
D9
330
C8
330
D8
330
C9
 92
        7
 72
     0
 73
     1
 93
        4
 10
91.72996543443219
 20
166.4477355117676
 10
88.72996543443219
 20
166.4477355117676
 10
88.72996543443219
 20
150.4477355117676
 10
91.72996543443219
 20
150.4477355117676
 97
        4
330
D9
330
CA
330
D8
330
CB
 92
        7
 72
     0
 73
     1
 93
        6
 10
107.7299654344322
 20
170.4477355117676
 10
99.25475682036418
 20
170.4477355117676
 10
99.25475682036416
 20
166.4477355117676
 10
95.72996543443219
 20
166.4477355117676
 10
95.72996543443219
 20
150.4477355117676
 10
107.7299654344322
 20
150.4477355117676
 97
        6
330
DB
330
CD
330
D9
330
CC
330
D8
330
CE
 75
     0
 76
     1
 52
90.0
 41
0.75
 77
     0
 78
     1
 53
135.0
 43
0.0
 44
0.0
 45
-1.683798022700466
 46
-1.683798022700466
 79
     0
 47
0.1467002897495483
 98
        3
 10
76.4522910939732
 20
158.9701399240618
 10
89.37404187859096
 20
157.5031371341369
 10
98.33116471604328
 20
158.9701399240618
  0
DIMENSION
  5
118
102
{ACAD_REACTORS
330
12F
102
}
102
{ACAD_XDICTIONARY
360
125
102
}
330
1F
100
AcDbEntity
  8
文本层
100
AcDbDimension
  2
*D2
 10
141.7299654344322
 20
181.868188620075
 30
0.0
 11
117.7299654344322
 21
184.993188620075
 31
0.0
 70
    32
 71
     5
 42
48.00000000000003
  3
机械标注
100
AcDbAlignedDimension
 13
93.72996543443219
 23
169.4477355117676
 33
0.0
 14
141.7299654344322
 24
170.4477355117676
 34
0.0
 52
0.0
100
AcDbRotatedDimension
  0
DIMENSION
  5
130
102
{ACAD_REACTORS
330
147
102
}
102
{ACAD_XDICTIONARY
360
13D
102
}
330
1F
100
AcDbEntity
  8
文本层
100
AcDbDimension
  2
*D3
 10
62.24218482191802
 20
166.4477355117676
 30
0.0
 11
59.11718482191799
 21
158.4477355117676
 31
0.0
 70
    32
 71
     5
 42
16.0
  3
机械标注
100
AcDbAlignedDimension
 13
72.72996543443219
 23
150.4477355117676
 33
0.0
 14
72.72996543443219
 24
166.4477355117676
 34
0.0
 52
0.0
 50
90.0
100
AcDbRotatedDimension
  0
DIMENSION
  5
148
102
{ACAD_REACTORS
330
15F
102
}
102
{ACAD_XDICTIONARY
360
155
102
}
330
1F
100
AcDbEntity
  8
文本层
100
AcDbDimension
  2
*D4
 10
50.89398308192293
 20
170.4477355117676
 30
0.0
 11
47.7689830819229
 21
160.4477355117676
 31
0.0
 70
    32
 71
     5
 42
20.0
  3
机械标注
100
AcDbAlignedDimension
 13
67.34887563064214
 23
150.4477355117676
 33
0.0
 14
99.25475682036416
 24
170.4477355117676
 34
0.0
 52
0.0
 50
90.0
100
AcDbRotatedDimension
  0
DIMENSION
  5
160
102
{ACAD_REACTORS
330
177
102
}
102
{ACAD_XDICTIONARY
360
16D
102
}
330
1F
100
AcDbEntity
  8
文本层
100
AcDbDimension
  2
*D5
 10
50.47686377841412
 20
69.95354192292383
 30
0.0
 11
47.35186377841411
 21
99.95354192292385
 31
0.0
 70
    32
 71
     5
 42
60.0
  3
机械标注
100
AcDbAlignedDimension
 13
117.7299654344322
 23
129.9535419229238
 33
0.0
 14
117.7299654344322
 24
69.95354192292382
 34
0.0
 52
0.0
 50
90.0
100
AcDbRotatedDimension
  0
DIMENSION
  5
178
102
{ACAD_REACTORS
330
18F
102
}
102
{ACAD_XDICTIONARY
360
185
102
}
330
1F
100
AcDbEntity
  8
文本层
100
AcDbDimension
  2
*D6
 10
162.7299654344322
 20
40.92010146523565
 30
0.0
 11
117.7299654344322
 21
44.04510146523565
 31
0.0
 70
    32
 71
     5
 42
90.0
  3
机械标注
100
AcDbAlignedDimension
 13
72.72996543443219
 23
99.95354192292382
 33
0.0
 14
162.7299654344322
 24
99.95354192292382
 34
0.0
 52
0.0
100
AcDbRotatedDimension
  0
DIMENSION
  5
190
102
{ACAD_REACTORS
330
1A7
102
}
102
{ACAD_XDICTIONARY
360
19D
102
}
330
1F
100
AcDbEntity
  8
文本层
100
AcDbDimension
  2
*D7
 10
150.7299654344322
 20
51.699470492384
 30
0.0
 11
117.7299654344322
 21
54.824470492384
 31
0.0
 70
    32
 71
     5
 42
66.0
  3
机械标注
100
AcDbAlignedDimension
 13
84.72996543443219
 23
79.83674854961305
 33
0.0
 14
150.7299654344322
 24
79.83674854961305
 34
0.0
 52
0.0
100
AcDbRotatedDimension
  0
DIMENSION
  5
1A8
102
{ACAD_REACTORS
330
1BF
102
}
102
{ACAD_XDICTIONARY
360
1B5
102
}
330
1F
100
AcDbEntity
  8
文本层
100
AcDbDimension
  2
*D8
 10
152.1080196981875
 20
72.40900527273985
 30
0.0
 11
136.6891132376365
 21
67.1153346595662
 31
0.0
 70
    33
 71
     5
 42
32.00000000000003
  3
机械标注
100
AcDbAlignedDimension
 13
108.4923611273982
 23
83.95354192292382
 33
0.0
 14
136.2051740485002
 24
99.95354192292382
 34
0.0
 50
0.0
  0
DIMENSION
  5
1C0
102
{ACAD_REACTORS
330
1D7
102
}
102
{ACAD_XDICTIONARY
360
1CD
102
}
330
1F
100
AcDbEntity
  8
文本层
100
AcDbDimension
  2
*D9
 10
88.17278103849887
 20
97.91711841186458
 30
0.0
 11
60.39167071373213
 21
110.3323626378174
 31
0.0
 70
   163
  1
{\f??|b0|i0|c0|p54;2x}<>
 71
     5
 42
7.999999999999986
  3
机械标注
100
AcDbDiametricDimension
 15
81.28714983036554
 25
101.9899654339831
 35
0.0
 40
0.0
1001
ACAD
1000
DSTYLE
1002
{
1070
   288
1070
     1
1002
}
  0
DIMENSION
  5
1D8
102
{ACAD_REACTORS
330
1EF
102
}
102
{ACAD_XDICTIONARY
360
1E5
102
}
330
1F
100
AcDbEntity
  8
文本层
100
AcDbDimension
  2
*D10
 10
128.0876907960793
 20
119.596690264329
 30
0.0
 11
150.2493233242498
 21
130.2216489565082
 31
0.0
 70
   163
  1
{\f??|b0|i0|c0|p54;6x}<>
 71
     5
 42
3.999999999999915
  3
机械标注
100
AcDbDiametricDimension
 15
131.3722400727851
 25
121.8796129631716
 35
0.0
 40
0.0
1001
ACAD
1000
DSTYLE
1002
{
1070
   288
1070
     1
1002
}
  0
DIMENSION
  5
1F0
102
{ACAD_REACTORS
330
207
102
}
102
{ACAD_XDICTIONARY
360
1FD
102
}
330
1F
100
AcDbEntity
  8
文本层
100
AcDbDimension
  2
*D11
 10
179.5035973696374
 20
87.9535419229238
 30
0.0
 11
176.3785973696374
 21
99.95354192292383
 31
0.0
 70
    32
 71
     5
 42
24.0
  3
机械标注
100
AcDbAlignedDimension
 13
150.7299654344322
 23
111.9535419229238
 33
0.0
 14
150.7299654344322
 24
87.95354192292382
 34
0.0
 52
0.0
 50
90.0
100
AcDbRotatedDimension
  0
DIMENSION
  5
21C
102
{ACAD_REACTORS
330
22F
102
}
102
{ACAD_XDICTIONARY
360
227
102
}
330
1F
100
AcDbEntity
  8
文本层
100
AcDbDimension
  2
*D13
 10
117.7299654344319
 20
99.95354192292365
 30
0.0
 11
134.7401555303451
 21
140.6289344050513
 31
0.0
 70
   164
 71
     5
 42
30.0000000000002
  3
机械标注
100
AcDbRadialDimension
 15
125.9805472552728
 25
128.7967022840495
 35
0.0
 40
0.0
1001
ACAD
1000
DSTYLE
1002
{
1070
   288
1070
     1
1002
}
  0
DIMENSION
  5
230
102
{ACAD_REACTORS
330
247
102
}
102
{ACAD_XDICTIONARY
360
23D
102
}
330
1F
100
AcDbEntity
  8
文本层
100
AcDbDimension
  2
*D14
 10
124.2173760342214
 20
92.34344969551013
 30
0.0
 11
82.08709544512845
 21
135.6549403912221
 31
0.0
 70
   163
 71
     5
 42
20.00000000000001
  3
机械标注
100
AcDbDiametricDimension
 15
111.242554834643
 25
107.5636341503375
 35
0.0
 40
0.0
1001
ACAD
1000
DSTYLE
1002
{
1070
   288
1070
     1
1002
}
  0
DIMENSION
  5
248
102
{ACAD_REACTORS
330
25B
102
}
102
{ACAD_XDICTIONARY
360
253
102
}
330
1F
100
AcDbEntity
  8
文本层
100
AcDbDimension
  2
*D15
 10
90.72996543443237
 20
99.95354192292396
 30
0.0
 11
61.71465410901054
 21
81.10767884714043
 31
0.0
 70
   164
 71
     5
 42
18.00000000000023
  3
机械标注
100
AcDbRadialDimension
 15
76.65506718969499
 25
88.73314801716928
 35
0.0
 40
0.0
1001
ACAD
1000
DSTYLE
1002
{
1070
   288
1070
     1
1002
}
  0
VIEWPORT
  5
279
330
5E
100
AcDbEntity
 67
     1
  8
0
100
AcDbViewport
 10
133.3499908447266
 20
101.5999970436096
 30
0.0
 40
420.6540395483951
 41
228.4221935424805
 68
     1
 69
     1
 12
133.3499908447266
 22
101.5999970436096
 13
0.0
 23
0.0
 14
10.0
 24
10.0
 15
10.0
 25
10.0
 16
0.0
 26
0.0
 36
1.0
 17
0.0
 27
0.0
 37
0.0
 42
50.0
 43
0.0
 44
0.0
 45
228.4221935424805
 50
0.0
 51
0.0
 72
   100
 90
    32800
  1

281
     0
 71
     1
 74
     0
110
0.0
120
0.0
130
0.0
111
1.0
121
0.0
131
0.0
112
0.0
122
1.0
132
0.0
 79
     0
146
0.0
348
0
340
0
345
0
346
0
  0
VIEWPORT
  5
27B
330
5E
100
AcDbEntity
 67
     1
  8
文本层
100
AcDbViewport
 10
133.3499939441681
 20
101.5999939441681
 30
0.0
 40
213.3599903106689
 41
162.5599903106689
 68
     1
 69
     2
 12
113.4277305740258
 22
112.9566450426553
 13
0.0
 23
0.0
 14
10.0
 24
10.0
 15
10.0
 25
10.0
 16
0.0
 26
0.0
 36
1.0
 17
0.0
 27
0.0
 37
0.0
 42
50.0
 43
0.0
 44
0.0
 45
151.6656625836192
 50
0.0
 51
0.0
 72
   100
 90
    32864
  1

281
     0
 71
     1
 74
     0
110
0.0
120
0.0
130
0.0
111
1.0
121
0.0
131
0.0
112
0.0
122
1.0
132
0.0
 79
     0
146
0.0
348
0
340
0
345
0
346
0
  0
ENDSEC
  0
SECTION
  2
OBJECTS
  0
DICTIONARY
  5
C
330
0
100
AcDbDictionary
281
     1
  3
ACAD_GROUP
350
D
  3
ACAD_LAYOUT
350
1A
  3
ACAD_MLINESTYLE
350
17
  3
ACAD_PLOTSETTINGS
350
19
  3
ACAD_PLOTSTYLENAME
350
E
  3
AcDbVariableDictionary
350
67
  0
DICTIONARY
  5
D
102
{ACAD_REACTORS
330
C
102
}
330
C
100
AcDbDictionary
281
     1
  0
ACDBDICTIONARYWDFLT
  5
E
102
{ACAD_REACTORS
330
C
102
}
330
C
100
AcDbDictionary
281
     1
  3
Normal
350
F
100
AcDbDictionaryWithDefault
340
F
  0
ACDBPLACEHOLDER
  5
F
102
{ACAD_REACTORS
330
E
102
}
330
E
  0
DICTIONARY
  5
17
102
{ACAD_REACTORS
330
C
102
}
330
C
100
AcDbDictionary
281
     1
  3
Standard
350
18
  0
MLINESTYLE
  5
18
102
{ACAD_REACTORS
330
17
102
}
330
17
100
AcDbMlineStyle
  2
STANDARD
 70
     0
  3

 62
   256
 51
90.0
 52
90.0
 71
     2
 49
0.5
 62
   256
  6
BYLAYER
 49
-0.5
 62
   256
  6
BYLAYER
  0
DICTIONARY
  5
19
102
{ACAD_REACTORS
330
C
102
}
330
C
100
AcDbDictionary
281
     1
  0
DICTIONARY
  5
1A
102
{ACAD_REACTORS
330
C
102
}
330
C
100
AcDbDictionary
281
     1
  3
Model
350
22
  3
布局1
350
5A
  3
布局2
350
5F
  0
LAYOUT
  5
22
102
{ACAD_REACTORS
330
1A
102
}
330
1A
100
AcDbPlotSettings
  1

  2
none_device
  4
ANSI_A_(8.50_x_11.00_Inches)
  6

 40
6.349999904632568
 41
19.04999923706055
 42
6.350006103515625
 43
19.04998779296875
 44
215.8999938964844
 45
279.3999938964844
 46
0.0
 47
0.0
 48
0.0
 49
0.0
140
0.0
141
0.0
  6

142
1.0
143
57.07986212157697
 70
 11952
 72
     0
 73
     1
 74
     0
  7

 75
     0
147
0.01751931351673652
148
-2282.040442273535
149
2.561166666666503
100
AcDbLayout
  1
Model
 70
     1
 71
     0
 10
0.0
 20
0.0
 11
12.0
 21
9.0
 12
0.0
 22
0.0
 32
0.0
 14
0.0
 24
0.0
 34
0.0
 15
0.0
 25
0.0
 35
0.0
146
0.0
 13
0.0
 23
0.0
 33
0.0
 16
1.0
 26
0.0
 36
0.0
 17
0.0
 27
1.0
 37
0.0
 76
     0
330
1F
  0
LAYOUT
  5
5A
102
{ACAD_REACTORS
330
1A
102
}
330
1A
100
AcDbPlotSettings
  1

  2
none_device
  4
Letter_(8.50_x_11.00_Inches)
  6

 40
6.349999904632568
 41
6.349999904632568
 42
6.350006103515625
 43
6.350006103515625
 44
215.8999938964844
 45
279.3999938964844
 46
0.0
 47
0.0
 48
0.0
 49
0.0
140
0.0
141
0.0
  6

142
1.0
143
1.0
 70
   688
 72
     1
 73
     1
 74
     5
  7

 75
    16
147
1.0
148
0.0
149
0.0
100
AcDbLayout
  1
布局1
 70
     1
 71
     1
 10
-6.350006103515625
 20
-6.349999904632568
 11
273.0499877929688
 21
209.5499939918518
 12
0.0
 22
0.0
 32
0.0
 14
26.66999878883362
 24
20.31999878883363
 34
0.0
 15
240.0299890995026
 25
182.8799890995026
 35
0.0
146
0.0
 13
0.0
 23
0.0
 33
0.0
 16
1.0
 26
0.0
 36
0.0
 17
0.0
 27
1.0
 37
0.0
 76
     0
330
59
331
76
  0
LAYOUT
  5
5F
102
{ACAD_REACTORS
330
1A
102
}
330
1A
100
AcDbPlotSettings
  1

  2
none_device
  4
Letter_(8.50_x_11.00_Inches)
  6

 40
6.349999904632568
 41
6.349999904632568
 42
6.350006103515625
 43
6.350006103515625
 44
215.8999938964844
 45
279.3999938964844
 46
0.0
 47
0.0
 48
0.0
 49
0.0
140
0.0
141
0.0
  6

142
1.0
143
1.0
 70
   688
 72
     1
 73
     1
 74
     5
  7

 75
    16
147
1.0
148
0.0
149
0.0
100
AcDbLayout
  1
布局2
 70
     1
 71
     2
 10
-6.350006103515625
 20
-6.349999904632568
 11
273.0499877929688
 21
209.5499939918518
 12
0.0
 22
0.0
 32
0.0
 14
26.66999878883362
 24
20.31999878883363
 34
0.0
 15
240.0299890995026
 25
182.8799890995026
 35
0.0
146
0.0
 13
0.0
 23
0.0
 33
0.0
 16
1.0
 26
0.0
 36
0.0
 17
0.0
 27
1.0
 37
0.0
 76
     0
330
5E
331
279
  0
DICTIONARY
  5
67
102
{ACAD_REACTORS
330
C
102
}
330
C
100
AcDbDictionary
281
     1
  3
DIMASSOC
350
68
  3
HIDETEXT
350
6C
  0
DICTIONARYVAR
  5
68
102
{ACAD_REACTORS
330
67
102
}
330
67
100
DictionaryVariables
280
     0
  1
2
  0
DICTIONARYVAR
  5
6C
102
{ACAD_REACTORS
330
67
102
}
330
67
100
DictionaryVariables
280
     0
  1
1
  0
DICTIONARY
  5
125
330
118
100
AcDbDictionary
280
     1
281
     1
  3
ACAD_DIMASSOC
360
12F
  0
DICTIONARY
  5
13D
330
130
100
AcDbDictionary
280
     1
281
     1
  3
ACAD_DIMASSOC
360
147
  0
DICTIONARY
  5
155
330
148
100
AcDbDictionary
280
     1
281
     1
  3
ACAD_DIMASSOC
360
15F
  0
DICTIONARY
  5
16D
330
160
100
AcDbDictionary
280
     1
281
     1
  3
ACAD_DIMASSOC
360
177
  0
DICTIONARY
  5
185
330
178
100
AcDbDictionary
280
     1
281
     1
  3
ACAD_DIMASSOC
360
18F
  0
DICTIONARY
  5
19D
330
190
100
AcDbDictionary
280
     1
281
     1
  3
ACAD_DIMASSOC
360
1A7
  0
DICTIONARY
  5
1B5
330
1A8
100
AcDbDictionary
280
     1
281
     1
  3
ACAD_DIMASSOC
360
1BF
  0
DICTIONARY
  5
1CD
330
1C0
100
AcDbDictionary
280
     1
281
     1
  3
ACAD_DIMASSOC
360
1D7
  0
DICTIONARY
  5
1E5
330
1D8
100
AcDbDictionary
280
     1
281
     1
  3
ACAD_DIMASSOC
360
1EF
  0
DICTIONARY
  5
1FD
330
1F0
100
AcDbDictionary
280
     1
281
     1
  3
ACAD_DIMASSOC
360
207
  0
DICTIONARY
  5
227
330
21C
100
AcDbDictionary
280
     1
281
     1
  3
ACAD_DIMASSOC
360
22F
  0
DICTIONARY
  5
23D
330
230
100
AcDbDictionary
280
     1
281
     1
  3
ACAD_DIMASSOC
360
247
  0
DICTIONARY
  5
253
330
248
100
AcDbDictionary
280
     1
281
     1
  3
ACAD_DIMASSOC
360
25B
  0
ENDSEC
  0
SECTION
  2
THUMBNAILIMAGE
 90
    18627
310
BF4800000201030100005000000002530100005C480000000000000000000000000000000000000000000000000000000000000000000000000000000000000000000000000000000000000000000000000000000000000000000000000000000000000000000028000000B400000061000000010008000000000034440000
310
00000000000000000001000000000000FFFFFF00FFFFFF0000000000FFFFFF00FFFFFF00FFFFFF00FFFFFF00FFFFFF00FFFFFF00FFFFFF00FFFFFF00330000006600000099000000CC000000FF00000000330000333300006633000099330000CC330000FF33000000660000336600006666000099660000CC660000FF6600
310
0000990000339900006699000099990000CC990000FF99000000CC000033CC000066CC000099CC0000CCCC0000FFCC000000FF000033FF000066FF000099FF0000CCFF0000FFFF000000003300330033006600330099003300CC003300FF00330000333300333333006633330099333300CC333300FF333300006633003366
310
33006666330099663300CC663300FF66330000993300339933006699330099993300CC993300FF99330000CC330033CC330066CC330099CC3300CCCC3300FFCC330000FF330033FF330066FF330099FF3300CCFF3300FFFF330000006600330066006600660099006600CC006600FF00660000336600333366006633660099
310
336600CC336600FF33660000666600336666006666660099666600CC666600FF66660000996600339966006699660099996600CC996600FF99660000CC660033CC660066CC660099CC6600CCCC6600FFCC660000FF660033FF660066FF660099FF6600CCFF6600FFFF660000009900330099006600990099009900CC009900
310
FF00990000339900333399006633990099339900CC339900FF33990000669900336699006666990099669900CC669900FF66990000999900339999006699990099999900CC999900FF99990000CC990033CC990066CC990099CC9900CCCC9900FFCC990000FF990033FF990066FF990099FF9900CCFF9900FFFF99000000CC
310
003300CC006600CC009900CC00CC00CC00FF00CC000033CC003333CC006633CC009933CC00CC33CC00FF33CC000066CC003366CC006666CC009966CC00CC66CC00FF66CC000099CC003399CC006699CC009999CC00CC99CC00FF99CC0000CCCC0033CCCC0066CCCC0099CCCC00CCCCCC00FFCCCC0000FFCC0033FFCC0066FF
310
CC0099FFCC00CCFFCC00FFFFCC000000FF003300FF006600FF009900FF00CC00FF00FF00FF000033FF003333FF006633FF009933FF00CC33FF00FF33FF000066FF003366FF006666FF009966FF00CC66FF00FF66FF000099FF003399FF006699FF009999FF00CC99FF00FF99FF0000CCFF0033CCFF0066CCFF0099CCFF00CC
310
CCFF00FFCCFF0000FFFF0033FFFF0066FFFF0099FFFF00CCFFFF0000000000FFFFFF000D0D0D001A1A1A00282828003535350043434300505050005D5D5D006B6B6B00787878008686860093939300A1A1A100AEAEAE00BBBBBB00C9C9C900D6D6D600E4E4E400F1F1F10000000000FFFFFF00FFFFFF00FFFFFF00FFFFFF00
310
FFFFFF00FFFFFF00FFFFFF00FFFFFF00FFFFFF00FFFFFF0000000000000000000000000000000000000000000000000000000000000000000000000000000000000000000000000000000000000000000000000000000000000000000000000000000000000000000000000000000000000000000000000000000000000000
310
00000000000000000000000000000000000000000000000000000000000000000000000000000000000000000000000000000000000000000000000000000000000000000000000000000000000000000000000000000000000000000000000000000000000000000000000000000000000000000000000000000000000000
310
00000000000000000000000000000000000000000000000000000000000000000000000000000000000000000000000000000000000000000000000000000000000000000000000000000000000000000000000000000000000000000000000000000000000000000000000000000000000000000000000000000000000000
310
00000000000000000000000000000000000000000000000000000000000000000000000000000000000000000000000000000000000000000000000000000000000000000000000000000000000000000000000000000000000000000000000000000000000000000000000000000000000000000000000000000000000000
310
00000000000000000000000000000000000000000000000000000000000000000000000000000000000000000000000000000000000000000000000000000000000000000000000000000000000000000000000000000000000000000000000000000000000000000000000000000000000000000000000000000000000000
310
00000000000000000000000000000000000000000000000000000000000000000000000000000000000000000000000000000000000000000000000000000000000000000000000000000000000000000000000000000000000000000000000000000000000000000000000000000000000000000000000000000000000000
310
00000000000000000000000000000000000000000000000000000000000000000000000000000000000000000000000000000000000000000000000000000000000000000000000000000000000000000000000000000000000000000000000000000000000000000000000000000000000000000000000000000000000000
310
00000000000000000000000000000000000000000000000000000000000000000000000000000000000000000000000000000000000000000000000000000000000000000000000000000000000000000000000000000000000000000000000000000000000000000000000000000000000000000000000000000000000000
310
00000000000000000000000000000000000000000000000000000000000000000000000000000000000000000000000000000000000000000000000000000000000000000000000000000000000000000000000000000000000000000000000000000000000000000000000000000000000000000000000000000000000000
310
00000000000000000000000000000000000000000000000000000000000000000000000000000000000000000000000000000000000000000000000000000000000000000000000000000000000000000000000000000000000000000000000000000000000000000000000000000000000000000000000000000000000000
310
00000000000000000000000000000000000000000000000000000000000000000000000000000000000000000000000000000000000000000000000000000000000000000000000000000000000000000000000000000000000000000000000000000000000000000000000000000000000000000000000000000000000000
310
00000000000000000000000000000000000000000000000000000000000000000000000000000000000000000000000000000000000000000000000000000000000000000000000000000000000000000000000000000000000000000000000000000000000000000000000000000000000000000000000000000000000000
310
00000000000000000000000000000000000000000000000000000000000000000000000000000000000000000000000000000000000000000000000000000000000000000000000000000000000000000000000000000000000000000000000000000000000000000000000000000000000000000000000000000000000000
310
00000000000000000000000000000000000000000000000000000000000000000000000000000000000000000000000000000000000000000000000000000000000000000000000000000000000000000000000000000000000000000000000000000000000000000000000000000000000000000000000000000000000000
310
00000000000000000000000000000000000000000000000000000000000000000000000000000000000000000000000000000000000000000000000000000000000000000000000000000000000000000000000000000000000000000000000000000000000000000000000000000000000000000000000000000000000000
310
00000000000000000000000000000000000000000000000000000000000000000000000000000000000000000000000000000000000000000000000000000000000000000000000000000000000000000000000000000000000000000000000000000000000000000000000000000000000000000000000000000000000000
310
00000000000000000000000000000000000000000000000000000000000000000000000000000000000000000000000000000000000000000000000000000000000000000000000000000000000000000000000000000000000000000000000000000000000000000000000000000000000000000000000000000000000000
310
00000000000000000000000000000000000000000000000000000000000000000000000000000000000000000000000000000000000000000000000000000000000000000000000000000000000000000000000000000000000000000000000000000000000000000000000000000000000000000000000000000000000000
310
00000000000000000000000000000000000000000000000000000000000000000000000000000000000000000000000000000000000000000000000000000000000000000000000000000000000000000000000000000000000000000000000000000000000000000000000000000000000000000000000000000000000000
310
00000000000000000000000000000000000000000000000000000000000000000000000000000000000000000000000000000000000000000000000000000000000000000000000000000000000000000000000000000000000000000000000000000000000000000000000000000000000000000000000000000000000000
310
00000000000000000000000000000000000000000000000000000000000000000000000000000000000000000000000000000000000000000000000000000000000000000000000000000000000000000000000000000000000000000000000000000000000000000000000000000000000000000000000000000000000000
310
00000000000000000000000000000000000000000000000000000000000000000000000000000000000000000000000000000000000000000000000000000000000000000000000000000000000000000000000000000000000000000000000000000000000000000000000000000000000000000000000000000000000000
310
00000000000000000000000000000000000000000000000000000000000000000000000000000000000000000000000000000000000000000000000000000000000000000000000000000000000000000000000000000000000000000000000000000000000000000000000000000000000000000000000000000000000000
310
0000000000000000000000000000000000000000000000000000000000000000000000000000000000000000000000000000009E0000000000000000000000000000000000000000000000000000000000000000000000000000009E0000000000000000000000000000000000000000000000000000000000000000000000
310
00000000000000000000000000000000000000000000000000000000000000000000000000000000000000000000000000000000000000000000000000000000000000000000000000000000000000000000000000000000000000000000000000000000000000009E9E9E9E9E9E9E9E9E9E9E9E9E9E9E9E9E9E9E9E9E9E9E
310
9E9E9E9E9E9E9E9E9E9E9E9E9E9E9E9E9E9E00000000000000000000000000000000000000000000000000000000000000000000000000000000000000000000000000000000000000000000000000000000000000000000000000000000000000000000000000000000000000000000000000000000000000000000000000
310
0000000000000000000000000000000000000000000000000000000000009E9E9E000000000000000000000000000000009E9E9E00000000000000000000000000000000009E9E0000000000000000000000000000000000000000000000000000000000000000000000000000000000000000000000000000000000000000
310
00000000000000000000000000000000000000000000000000000000000000000000000000000000000000000000000000000000000000000000000000000000000000000000000000000000000000000000009E0000000000000000000000000000000000009E9E9E9E00000000000000000000000000000000009E000000
310
00000000000000000000000000000000000000000000000000000000000000000000000000000000000000000000000000000000000000000000000000000000000000000000000000000000000000000000000000000000000000000000000000000000000000000000000000000000000000000000000000000000000000
310
0000000000000000009E0000000000000000000000000000000000009E9E9E0000000000000000000000000000000000009E0000000000000000000000000000000000000000000000000000000000000000000000000000000000000000000000000000000000000000000000000000000000000000000000000000000000
310
00000000000000000000000000000000000000000000000000000000000000000000000000000000000000000000000000000000000000000000000000009E00000000009E000000000000000000000000000000000000000000000000000000009E000000009E000000000000000000000000000000000000000000000000
310
000000000000000000000000000000000000000000000000000000000000000000000000000000000000000000000000000000000000000000000000000000000000000000000000000000000000000000000000000000000000000000000000000000000000000000000000000000000000009E00000000009E9E9E9E9E9E
310
9E9E9E9E9E9E9E9E9E9E9E9E9E9E9E9E9E9E9E9E9E9E9E9E000000009E0000000000000000000000000000000000000000000000000000000000000000000000000000000000000000000000000000000000000000000000000000000000000000000000000000000000000000000000000000000000000000000000000000
310
00000000000000000000000000000000000000000000000000000000000000000000000000000000009E00000000009E0000000000000000000000009E9E9E9E009E000000000000000000009E000000009E000000000000000000000000000000000000000000000000000000000000000000000000000000000000000000
310
000000000000000000000000000000000000000000000000000000000000000000000000000000000000000000000000000000000000000000000000000000000000000000000000000000000000000000000000000000000000000000009E00000000009E0000000000000000000000009E9E9E009E000000000000000000
310
00009E000000009E0000000000000000000000000000000000000000000000000000000000000000000000000000000000000000000000000000000000000000000000000000000000000000000000000000000000000000000000000000000000000000000000000000000000000000000000000000000000000000000000
310
00000000000000000000000000000000000000009E00000000009E000000000000000000000000000000009E9E9E0000000000000000009E000000009E000000000000000000000000000000000000000000000000000000000000000000000000000000000000000000000000000000000000000000000000000000000000
310
000000000000000000000000000000000000000000000000000000000000000000000000000000000000000000000000000000000000000000000000000000000000000000000000009E00000000009E0000000000000000000000000000009E0000009E9E000000000000009E000000009E00000000000000000000000000
310
0000000000000000000000000000000000000000000000000000000000000000000000000000000000000000000000000000000000000000000000000000000000000000000000000000000000000000000000000000000000000000000000000000000000000000000000000000000000000000000000000000000000009E
310
00000000009E0000000000000000000000000000009E00000000009E9E00000000009E000000009E000000000000000000000000000000000000000000000000000000000000000000000000000000000000000000000000000000000000000000000000000000000000000000000000000000000000000000000000000000
310
000000000000000000000000000000000000000000000000000000000000000000000000000000000000000000000000000000009E00000000009E00000000000000000000000000009E0000000000009E9E9E9E0000009E000000009E00000000000000000000000000000000000000000000000000000000000000000000
310
0000000000000000000000000000000000000000000000000000000000000000000000000000000000000000000000000000000000000000000000000000000000000000000000000000000000000000000000000000000000000000000000000000000000000000009E00000000009E000000000000000000F5F5F5F59EF5
310
F5F5F500009E9E9E9E009E9E009E000000009E000000000000000000000000000000000000000000000000000000000000000000000000000000000000000000000000000000000000000000000000000000000000000000000000000000000000000000000000000000000000000000000000000000000000000000000000
310
00000000000000000000000000000000000000009E9E9E9E9E9E9E9E9E9E9E9E9E9E9E9E9E9E9E9E9E9E9E9E9E9E9E9E9E9E9E9EF5F5F5F5F5F500009E9E0000009E9E9E0000009E00000000000000000000000000000000000000000000000000000000000000000000000000000000000000000000000000000000000000
310
0000000000000000000000000000000000000000000000000000000000000000000000000000000000000000000000000000000000000000000000000000000000000000000000000000009E00000000000000009E00000000009E0000000000F5F5F5F5F5F5F59EBEF5F5F5F5F5F5F5F500000000009E9E9E0000009E0000
310
00000000000000000000000000000000000000000000000000000000000000000000000000000000000000000000000000000000000000000000000000000000000000000000000000000000000000000000000000000000000000000000000000000000000000000000000000000000000000000000000000000000000000
310
9E9E00000000000000009E00000000009E000000F5F5F5F5F5F5F5F59E00BE000000F5F5F5F5F5F5F5000000009E000000009E00000000000000000000000000000000000000000000000000000000000000000000000000000000000000000000000000000000000000000000000000000000000000000000000000000000
310
0000000000000000000000000000000000000000000000000000000000000000000000000000000000000000000000000000000000009E00000000000000009E00000000009E00F5F5F5F5F5F5F5F5F5F59EBEBEBEBEBEF5F5F5F5F5F5F5F5F5009E9E000000009E0000000000000000000000000000000000000000000000
310
00000000000000000000000000000000000000000000000000000000000000000000000000000000000000000000000000000000000000000000000000000000000000000000000000000000000000000000000000000000000000000000000000000000000000000000009E00000000000000009E00000000009EF5F5F5F5
310
F500F5F5F5F59E0000BE000000F5F5F5F500F5F5F5F5F59E9E000000009E00000000000000000000000000000000000000000000000000000000000000000000000000000000000000000000000000000000000000000000000000000000000000000000000000000000000000000000000000000000000000000000000000
310
0000000000000000000000000000000000000000000000000000000000000000009E009E9E9E9E9E9E009E00000000F5BEF5F5F5000000F5F5F5F59EF5F5BEF5F5F5F5F5F5F5000000F5F59EF5BEF50000009E0000000000000000000000000000000000000000000000000000000000000000000000000000000000000000
310
00000000000000000000000000000000000000000000000000000000000000000000000000000000000000000000000000000000000000000000000000000000000000000000000000000000000000000000000000009E00009E9E9E9E9E9E9E0000F5F5F5BEF50000000000F5F5F59EF5F5F5BEF5F5F5F5F5F5F5BE000000
310
9EF5F5BEF5F5F5009E00000000000000000000000000000000000000000000000000000000000000000000000000000000000000000000000000000000000000000000000000000000000000000000000000000000000000000000000000000000000000000000000000000000000000000000000000000000000000000000
310
0000000000000000000000009E009E9E9E9E9E9E009E9EF5F5F5F5BEF5F5F5F5F5BEF5F5F5F5F5F5F5BEF5F5F5F59EF5F5F5F5F5F59EF5F5BEF5F5F5F59E0000000000000000000000000000000000000000000000000000000000000000000000000000000000000000000000000000000000000000000000000000000000
310
00000000000000000000000000000000000000000000000000000000000000000000000000000000000000000000000000000000000000000000000000000000009E00000000000000009E009EF5F5F5BEF5F5F5F5F5BEF5F5F5F500F5F5BEF5F5F59E9EF5F5F5F5F59EF5F5F59E9E9E9E9E9E9E9E9E9E9E9E9E9E9E000000
310
000000000000000000000000000000000000000000000000000000000000000000000000000000000000000000000000000000000000000000000000000000000000000000000000000000000000000000000000000000000000000000000000000000000000000000000000000000000000000000009E0000000000000000
310
9EF5F59EF5F5BEF5F5F5F5BEF5F5F5F500F5F5F5BEF5F5F59EF5F5F5F5F59EF5F5F5F5BEF5F5F5F59E0000000000009E9E000000000000000000000000000000000000000000000000000000000000000000000000000000000000000000000000000000000000000000000000000000000000000000000000000000000000
310
00000000000000000000000000000000000000000000000000000000000000000000000000000000000000009E00000000000000009EF5F5F59E9EBEF5000000BE00F5F5F5F5F5F5F5BEF5F59EF5F5F5F500009EBE0000F5BEF5F5F5F59EF50000000000009E00000000000000000000000000000000000000000000000000
310
000000000000000000000000000000000000000000000000000000000000000000000000000000000000000000000000000000000000000000000000000000000000000000000000000000000000000000000000000000000000000000000000009E00000000000000009EF5F5F5F5F59EF59E9E9EF5F5F5F5F5F5F5F5F500
310
009EF5F5F5F5F5F59EF5F5F5F5F5F5F5F5F5F59EF50000000000009E000000000000000000000000000000000000000000000000000000000000000000000000000000000000000000000000000000000000000000000000000000000000000000000000000000000000000000000000000000000000000000000000000000
310
00000000000000000000000000000000000000009E9E9E9E00000000000000009EF5F5F5F5F5BE9E9E9EF5F5F5F5F5F5F5F5F500BE9E00F5F5F5F5F5F59EF5F5F5F5F5BEF5F5F5F59EF50000009E9E9E9E00000000000000000000000000000000000000000000000000000000000000000000000000000000000000000000
310
000000000000000000000000000000000000000000000000000000000000000000000000000000000000000000000000000000000000000000000000000000000000000000000000009E9E9E9E00000000000000F59EF5BEF5F59E9EF59EF5F5F5F5F5BEF5F5F5BEBE9EBEBEBEF5F5F5F59EF5F5F5F5F5F5BEF5F5F5F59EF5
310
BE00009E9E9E9E00000000000000000000000000000000000000000000000000000000000000000000000000000000000000000000000000000000000000000000000000000000000000000000000000000000000000000000000000000000000000000000000000000000000000000000000000000000000000000000009E
310
9E9E9E0000000000000000F5F5F5F59EF5BEF5F5F5F5F5F5F5F5F5F5F5009E9E000000F5F5F5F5F5F5F5F5F5F5F5BEF5F5F5F5F5F50000009E9E9E9E00000000000000000000000000000000000000000000000000000000000000000000000000000000000000000000000000000000000000000000000000000000000000
310
000000000000000000000000000000000000000000000000000000000000000000000000000000000000000000000000000000000000009E0000000000000000F5F5F59EF5F5F5F5F5F5F5F5F5F5F500F5F59E00009E00F5F5F5F5F5F5F5F5F5F5F5F5F5F5F5F5F5F5F50000000000009E0000000000000000000000000000
310
0000000000000000000000000000000000000000000000000000000000000000000000000000000000000000000000000000000000000000000000000000000000000000000000000000000000000000000000000000000000000000000000000000000000000000000000009E0000000000000000F59E9EF5F5F5BEF5F500
310
00BE00F5F5F5F59EF5F5BE9EF5F5F5F5F5F5000000BE00F5F5BEF5F5F5F5F5F50000000000009E00000000000000000000000000000000000000000000000000000000000000000000000000000000000000000000000000000000000000000000000000000000000000000000000000000000000000000000000000000000
310
000000000000000000000000000000000000000000000000000000000000000000009E000000000000009E9EF5F5F5F5F5BEF5F5F5F5BEF5F5F5F59E9EF5F5BE9EF5F5F5F5F5F5F5F5F5F5F5F5F5BEF5F5F5F5F50000000000009E9E0000000000000000000000000000000000000000000000000000000000000000000000
310
0000000000000000000000000000000000000000000000000000000000000000000000000000000000000000000000000000000000000000000000000000000000000000000000000000000000000000000000000000009E9E9E9E9E9E9E9E000000F5F5F5F5BEF5F5F5F5BEF5F5F5F59E9EF5F5BEF59EF5F5F5F5F5F5F5F5
310
F5F5F5F59E9E9E9E9E9E9E9E9E9E9E9E9E9E9E000000000000000000000000000000000000000000000000000000000000000000000000000000000000000000000000000000000000000000000000000000000000000000000000000000000000000000000000000000000000000000000000000000000000000000000000
310
000000000000000000000000009E009E9E9E9E9E9E000000F5F5F5F5BEF5F5F5F5F5BEF5F59EF5F5F5F5BEF59EF5F5F5F5F5F5F5F5F5F5F5F5BEF5F5F5F50000000000000000000000000000000000000000000000000000000000000000000000000000000000000000000000000000000000000000000000000000000000
310
0000000000000000000000000000000000000000000000000000000000000000000000000000000000000000000000000000000000000000000000000000000000009E9E9E009E9E9E9E00000000F5F5F5BEF500000000BE009EF5F5F5F5F5BEF59EF5F5F5F5F500BE00000000F5BEF5F5F500000000000000000000000000
310
00000000000000000000000000000000000000000000000000000000000000000000000000000000000000000000000000000000000000000000000000000000000000000000000000000000000000000000000000000000000000000000000000000000000000000000000000000000000000000000009E00000000000000
310
0000000000F5F5BEF5F5F5000000F59EF5F5F5F5F5BEF59E9E9EF5F5F5BE000000F5F5F5BEF5F500000000000000000000000000000000000000000000000000000000000000000000000000000000000000000000000000000000000000000000000000000000000000000000000000000000000000000000000000000000
310
0000000000000000000000000000000000000000000000000000000000000000000000000000000000000000009E0000000000000000000000000000BEF5F5F5F5F5009EF5F5F5F50000BE00009E9E9EF5F50000F5F5F5F5F5BE00000000000000000000000000000000000000000000000000000000000000000000000000
310
00000000000000000000000000000000000000000000000000000000000000000000000000000000000000000000000000000000000000000000000000000000000000000000000000000000000000000000000000000000000000000000000000009E00000000000000000000000000000000F5F5F5F59EF5F5F5F5F5BE00
310
BE00BE9EF5F59E9E9EF5F5F5F5F50000000000000000000000000000000000000000000000000000000000000000000000000000000000000000000000000000000000000000000000000000000000000000000000000000000000000000000000000000000000000000000000000000000000000000000000000000000000
310
0000000000000000000000000000000000000000000000009E000000000000000000000000000000000000F59EF5F5F5F5F5F500BEBE00009EF5F5F59E9EF5F5F50000000000000000000000000000000000000000000000000000000000000000000000000000000000000000000000000000000000000000000000000000
310
000000000000000000000000000000000000000000000000000000000000000000000000000000000000000000000000000000000000000000000000000000000000000000000000000000009E9E0000000000000000000000000000000000009E00F5F5F5F5F5F5F5F5BEF5F5F59EF5F5F5F59E9E00000000000000000000
310
00000000000000000000000000000000000000000000000000000000000000000000000000000000000000000000000000000000000000000000000000000000000000000000000000000000000000000000000000000000000000000000000000000000000000000000000000000000000000000000000000000000000000
310
009E9E9E9E9E9E9E9E9E9E9E9E9E9E9E9E9E9E9E9E9E9E9E9E9E9E9E9E9E9E9E9EF5F5F59EF5F5F50000009E9E9E9E9E9E9E0000000000000000000000000000000000000000000000000000000000000000000000000000000000000000000000000000000000000000000000000000000000000000000000000000000000
310
00000000000000000000000000000000000000000000000000000000000000000000000000000000000000000000000000000000000000000000000000000000000000000000000000009E000000000000F5F5F5F5BEF5F5F59E9E0000000000009E9E9E9E9E9E000000000000000000000000000000000000000000000000
310
0000000000000000000000000000000000000000000000000000000000000000000000000000000000000000000000000000000000000000000000000000000000000000000000000000000000000000000000000000000000000000000000000000000000000000000000000000000000000000000000000000000000009E
310
0000000000000000000000BE0000009E000000000000009E9E9E9E9E9E0000000000000000000000000000000000000000000000000000000000000000000000000000000000000000000000000000000000000000000000000000000000000000000000000000000000000000000000000000000000000000000000000000
310
000000000000000000000000000000000000000000000000000000000000000000000000000000000000000000009E9E9E9E9E9E00000000000000000000000000000000009E0000000000009E9E00009E9E000000000000000000000000000000000000000000000000000000000000000000000000000000000000000000
310
000000000000000000000000000000000000000000000000000000000000000000000000000000000000000000000000000000000000000000000000000000000000000000000000000000000000000000000000000000000000000000000000000000009E9E9E9E9E00000000000000000000000000000000009E00000000
310
00000000000000000000000000000000000000000000000000000000000000000000000000000000000000000000000000000000000000000000000000000000000000000000000000000000000000000000000000000000000000000000000000000000000000000000000000000000000000000000000000000000000000
310
00000000000000000000000000000000000000000000000000009E9E9E9E9E00000000000000000000000000000000009E9E9E9E9E9E00000000000000000000000000000000000000000000000000000000000000000000000000000000000000000000000000000000000000000000000000000000000000000000000000
310
0000000000000000000000000000000000000000000000000000000000000000000000000000000000000000000000000000000000000000000000000000000000000000000000000000000000000000000000000000000000000000000000000000000000009E9E9E9E9E0000000000000000000000000000000000000000
310
00000000000000000000000000000000000000000000000000000000000000000000000000000000000000000000000000000000000000000000000000000000000000000000000000000000000000000000000000000000000000000000000000000000000000000000000000000000000000000000000000000000000000
310
000000000000000000000000000000000000000000000000000000009E9E9E9E9E00000000000000000000000000000000000000000000000000000000000000000000000000000000000000000000000000000000000000000000000000000000000000000000000000000000000000000000000000000000000000000000
310
00000000000000000000000000000000000000000000000000000000000000000000000000000000000000000000000000000000000000F5F5F5F5F5F5F5F5F5F5F5F5F5F5F5F5F5F5F5F5F5F5F5F5F5F5F5F5F5F5F5F5F5F5F5F5F5F5F5F5F500000000000000000000000000000000000000000000000000000000000000
310
00000000000000000000000000000000000000000000000000000000000000000000000000000000000000000000000000000000000000000000000000000000000000000000000000000000000000000000000000000000000000000000000000009E9E9E9E9E9E9E9E9E9E9E20F520F5F5F5F5F520F5F52020F520F5F5F5
310
F5F5F5F5F5F5F52020F520F5F520F5F5F5F5F52020F5F50000000000000000000000000000000000000000000000000000000000000000000000000000000000000000000000000000000000000000000000000000000000000000000000000000000000000000000000000000000000000000000000000000000000000000
310
000000000000000000000000000000000000000000000000009E000000009E0000F520F520F520F5F5F520F5F5F520F520F520F5F5F5F5F5F5F5F520F52020F520F5F520F5F5F520F52020F5000000000000000000000000000000000000000000000000000000000000000000000000000000000000000000000000000000
310
00000000000000000000000000000000000000000000000000000000000000000000000000000000000000000000000000000000000000000000000000000000000000000000000000000000009E9E0000009E9E0000F5F520002020F5F520F520BE202020002020F50000BE000000F52020002020F5BE2020F5BEF5202020
310
F5F50000000000000000000000000000000000000000000000000000000000000000000000000000000000000000000000000000000000000000000000000000000000000000000000000000000000000000000000000000000000000000000000000000000000000000000000000000000000000000000000000000000000
310
009E9E9E9E009E9E9E9E0000F520202020F5F5F5202020BE2020002020F5F50000BE000000F5F52020002020BE2020F5BEF5F5202020F5000000000000000000000000000000000000000000000000000000000000000000000000000000000000000000000000000000000000000000000000000000000000000000000000
310
0000000000000000000000000000000000000000000000000000000000000000000000000000000000000000000000000000000000009E9E9E9E009E9E9E9E0000F520F520F520F5F5F520F5BE20F52020F520F50000BE000000F520F52020F520BEF520F5BEF520F52020F500000000000000000000000000000000000000
310
00000000000000000000000000000000000000000000000000000000000000000000000000000000000000000000000000000000000000000000000000000000000000000000000000000000000000000000000000000000000000000000000000000000000000000000009E9E9E9E009E9E9E9E0000F5F520002020F5F520
310
F520BEF52020002020F50000BE000000F52020002020F5BE20F5F5BEF5202020F5F5000000000000000000000000000000000000000000000000000000000000000000000000000000000000000000000000000000000000000000000000000000000000000000000000000000000000000000000000000000000000000000
310
0000000000000000000000000000000000000000000000000000000000000000009E9E9E9E0000009E9E0000F520202020F5F5F5202020F52020202020F5F50000BE000000F5202020F52020F52020F5F5F520202020F500000000000000000000000000000000000000000000000000000000000000000000000000000000
310
000000000000000000000000000000000000000000000000000000000000000000000000000000000000000000000000000000000000000000000000000000000000000000000000000000000000000000000000000000009E9E0000009E9E9E9E9E9EF5202020F5F5F520F5F52020F520F520F50000BE000000F5F5202020
310
F520F5F520F5F5F520F52020F5000000000000000000000000000000000000000000000000000000000000000000000000000000000000000000000000000000000000000000000000000000000000000000000000000000000000000000000000000000000000000000000000000000000000000000000000000000000000
310
0000000000000000000000000000009E0000000000000000F5F5F5F5F5F5F5F5F5F59EF5F520202020F5F5F5F5F5F5F5F5202020F5F5F5F5F5F5F5F5F5F5F5F5F50000000000000000000000000000000000000000000000000000000000000000000000000000000000000000000000000000000000000000000000000000
310
000000000000000000000000000000000000000000000000000000000000000000000000000000000000000000000000000000000000000000000000000000000000009E9E9E9E9E9E9E9E9E9E9E9E9E9E9E9E9E9E9E9E9E9E9E20F520F5F5F5F5F5F5F5F5F5F5202020F5009E000000000000000000000000000000000000
310
00000000000000000000000000000000000000000000000000000000000000000000000000000000000000000000000000000000000000000000000000000000000000000000000000000000000000000000000000000000000000000000000000000000000000000000000000000000000000000000000000000000000000
310
000000000000000000000000009E00F5F5F5F5F5F5F5F5F5F5F5F5F5F5F5F5F500009E0000000000000000000000000000000000000000000000000000000000000000000000000000000000000000000000000000000000000000000000000000000000000000000000000000000000000000000000000000000000000000
310
0000000000000000000000000000000000000000000000000000000000000000000000000000000000000000000000000000000000000000000000000000000000009E00000000000000000000000000000000000000009E000000000000000000000000000000000000000000000000000000000000000000000000000000
310
00000000000000000000000000000000000000000000000000000000000000000000000000000000000000000000000000000000000000000000000000000000000000000000000000000000000000000000000000000000000000000000000000000000000000000000000000000000000000000000009E00000000000000
310
000000000000000000000000009E0000000000000000000000000000000000000000000000000000000000000000000000000000000000000000000000000000000000000000000000000000000000000000000000000000000000000000000000000000000000000000000000000000000000000000000000000000000000
310
0000000000000000000000000000000000000000000000000000000000000000000000000000000000000000009E00000000000000000000000000000000000000009E000000000000000000000000000000000000000000000000000000000000000000000000000000000000000000000000000000000000000000000000
310
00000000000000000000000000000000000000000000000000000000000000000000000000000000000000000000000000000000000000000000000000000000000000000000000000000000000000000000000000000000000000000000000000009E9E9E9E9E9E9E9E9E9E9E9E9E9E9E9E9E9E9E9E9E9E00000000000000
310
00000000000000000000000000000000000000000000000000000000000000000000000000000000000000000000000000000000000000000000000000000000000000000000000000000000000000000000000000000000000000000000000000000000000000000000000000000000000000000000000000000000000000
310
0000000000000000000000000000000000000000000000009E00000000000000009E9E9E9E00000000000000009E000000000000000000000000000000000000000000000000000000000000000000000000000000000000000000000000000000000000000000000000000000000000000000000000000000000000000000
310
0000000000000000000000000000000000000000000000000000000000000000000000000000000000000000000000000000000000000000000000000000000000000000000000000000000000000000000000000000009E9E9E00000000000000000000000000000000000000000000000000000000000000000000000000
310
00000000000000000000000000000000000000000000000000000000000000000000000000000000000000000000000000000000000000000000000000000000000000000000000000000000000000000000000000000000000000000000000000000000000000000000000000000000000000000000000000000000000000
310
00000000000000000000000000000000000000000000000000000000000000000000000000000000000000000000000000000000000000000000000000000000000000000000000000000000000000000000000000000000000000000000000000000000000000000000000000000000000000000000000000000000000000
310
00000000000000000000000000000000000000000000000000000000000000000000000000000000000000000000000000000000000000000000000000000000000000000000000000000000000000000000000000000000000000000000000000000000000000000000000000000000000000000000000000000000000000
310
00000000000000000000000000000000000000000000000000000000000000000000000000000000000000000000000000000000000000000000000000000000000000000000000000000000000000000000000000000000000000000000000000000000000000000000000000000000000000000000000000000000000000
310
00000000000000000000000000000000000000000000000000000000000000000000000000000000000000000000000000000000000000000000000000000000000000000000000000000000000000000000000000000000000000000000000000000000000000000000000000000000000000000000000000000000000000
310
00000000000000000000000000000000000000000000000000000000000000000000000000000000000000000000000000000000000000000000000000000000000000000000000000000000000000000000000000000000000000000000000000000000000000000000000000000000000000000000000000000000000000
310
00000000000000000000000000000000000000000000000000000000000000000000000000000000000000000000000000000000000000000000000000000000000000000000000000000000000000000000000000000000000000000000000000000000000000000000000000000000000000000000000000000000000000
310
00000000000000000000000000000000000000000000000000000000000000000000000000000000000000000000000000000000000000000000000000000000000000000000000000000000000000000000000000000000000000000000000000000000000000000000000000000000000000000000000000000000000000
310
00000000000000000000000000000000000000000000000000000000000000000000000000000000000000000000000000000000000000000000000000000000000000000000000000000000000000000000000000000000000000000000000000000000000000000000000000000000000000000000000000000000000000
310
00000000000000000000000000000000000000000000000000000000000000000000000000000000000000000000000000000000000000000000000000000000000000000000000000000000000000000000000000000000000000000000000000000000000000000000000000000000000000000000000000000000000000
310
00000000000000000000000000000000000000000000000000000000000000000000000000000000000000000000000000000000000000000000000000000000000000000000000000000000000000000000000000000000000000000000000000000000000000000000000000000000000000000000000000000000000000
310
00000000000000000000000000000000000000000000000000000000000000000000000000000000000000000000000000000000000000000000000000000000000000000000000000000000000000000000000000000000000000000000000000000000000000000000000000000000000000000000000000000000000000
310
00000000000000000000000000000000000000000000000000000000000000000000000000000000000000000000000000000000000000000000000000000000000000000000000000000000000000000000000000000000000000000000000000000000000000000000000000000000000000000000000000000000000000
310
00000000000000000000000000000000000000000000000000000000000000000000000000000000000000000000000000000000000000000000000000000000000000000000000000000000000000000000000000000000000000000000000000000000000000000000000000000000000000000000000000000000000000
310
00000000000000000000000000000000000000000000000000000000000000000000000000000000000000000000000000000000000000000000000000000000000000000000000000000000000000000000000000000000000000000000000000000000000000000000000000000000000000000000000000000000000000
310
00000000000000000000000000000000000000000000000000000000000000000000000000000000000000000000000000000000000000000000000000000000000000000000000000000000000000000000000000000000000000000000000000000000000000000000000000000000000000000000000000000000000000
310
00000000000000000000000000000000000000000000000000000000000000000000000000000000000000000000000000000000000000000000000000000000000000000000000000000000000000000000000000000000000000000000000000000000000000000000000000000000000000000000000000000000000000
310
00000000000000000000000000000000000000000000000000000000000000000000000000000000000000000000000000000000000000000000000000000000000000000000000000000000000000000000000000000000000000000000000000000000000000000000000000000000000000000000000000000000000000
310
00000000000000000000000000000000000000000000000000000000000000000000000000000000000000000000000000000000000000000000000000000000000000000000000000000000000000000000000000000000000000000000000000000000000000000000000000000000000000000000000000000000000000
310
00000000000000000000000000000000000000000000000000000000000000000000000000000000000000000000000000000000000000000000000000000000000000000000000000000000000000000000000000000000000000000000000000000000000000000000000000000000000000000000000000000000000000
310
00000000000000000000000000000000000000000000000000000000000000000000000000000000000000000000000000000000000000000000000000000000000000000000000000000000000000000000000000000000000000000000000000000000000000000000000000000000000000000000000000000000000000
310
00000000000000000000000000000000000000000000000000000000000000000000000000000000000000000000000000000000000000000000000000000000000000000000000000000000000000000000000000
  0
ENDSEC
  0
EOF
