999
LibreDWG 
  0
SECTION
  2
HEADER
  9
$ACADVER
  1
AC1015
  9
$ACADMAINTVER
 70
    13
  9
$DWGCODEPAGE
  3
ANSI_936
  9
$INSBASE
 10
0.0
 20
0.0
 30
0.0
  9
$EXTMIN
 10
22.8021250278714
 20
20.33898997299718
 30
-0.001525820700358338
  9
$EXTMAX
 10
348.7161263831847
 20
289.8034064448478
 30
3.49246036535078E-08
  9
$LIMMIN
 10
0.0
 20
0.0
  9
$LIMMAX
 10
420.0
 20
297.0
  9
$ORTHOMODE
 70
     0
  9
$REGENMODE
 70
     1
  9
$FILLMODE
 70
     1
  9
$QTEXTMODE
 70
     0
  9
$MIRRTEXT
 70
     1
  9
$LTSCALE
 40
1.0
  9
$ATTMODE
 70
     1
  9
$TEXTSIZE
 40
2.5
  9
$TRACEWID
 40
1.0
  9
$TEXTSTYLE
  7
数字与字母
  9
$CLAYER
  8
文本层
  9
$CELTYPE
  6
ByLayer
  9
$CECOLOR
 62
   256
  9
$CELTSCALE
 40
1.0
  9
$DISPSILH
 70
     0
  9
$DIMSCALE
 40
1.0
  9
$DIMASZ
 40
3.5
  9
$DIMEXO
 40
0.0
  9
$DIMDLI
 40
7.5
  9
$DIMRND
 40
0.0
  9
$DIMDLE
 40
0.0
  9
$DIMEXE
 40
2.5
  9
$DIMTP
 40
0.0
  9
$DIMTM
 40
0.0
  9
$DIMTXT
 40
5.0
  9
$DIMCEN
 40
2.5
  9
$DIMTSZ
 40
0.0
  9
$DIMTOL
 70
     0
  9
$DIMLIM
 70
     0
  9
$DIMTIH
 70
     0
  9
$DIMTOH
 70
     1
  9
$DIMSE1
 70
     0
  9
$DIMSE2
 70
     0
  9
$DIMTAD
 70
     1
  9
$DIMZIN
 70
     8
  9
$DIMBLK
  1

  9
$DIMASO
 70
     1
  9
$DIMSHO
 70
     1
  9
$DIMPOST
  1

  9
$DIMAPOST
  1

  9
$DIMALT
 70
     0
  9
$DIMALTD
 70
     3
  9
$DIMALTF
 40
0.03937007874016
  9
$DIMLFAC
 40
1.0
  9
$DIMTOFL
 70
     1
  9
$DIMTVP
 40
0.0
  9
$DIMTIX
 70
     0
  9
$DIMSOXD
 70
     0
  9
$DIMSAH
 70
     0
  9
$DIMBLK1
  1

  9
$DIMBLK2
  1

  9
$DIMSTYLE
  2
机械标注
  9
$DIMCLRD
 70
     0
  9
$DIMCLRE
 70
     0
  9
$DIMCLRT
 70
     0
  9
$DIMTFAC
 40
1.0
  9
$DIMGAP
 40
0.625
  9
$DIMJUST
 70
     0
  9
$DIMSD1
 70
     0
  9
$DIMSD2
 70
     0
  9
$DIMTOLJ
 70
     0
  9
$DIMTZIN
 70
     8
  9
$DIMALTZ
 70
     0
  9
$DIMALTTZ
 70
     0
  9
$DIMUPT
 70
     0
  9
$DIMDEC
 70
     1
  9
$DIMTDEC
 70
     1
  9
$DIMALTU
 70
     2
  9
$DIMALTTD
 70
     3
  9
$DIMTXSTY
  7
数字与字母
  9
$DIMAUNIT
 70
     0
  9
$DIMADEC
 70
     0
  9
$DIMALTRND
 40
0.0
  9
$DIMAZIN
 70
     0
  9
$DIMDSEP
 70
    46
  9
$DIMATFIT
 70
     3
  9
$DIMFRAC
 70
     0
  9
$DIMLDRBLK
  1

  9
$DIMLUNIT
 70
     2
  9
$DIMLWD
 70
    -2
  9
$DIMLWE
 70
    -2
  9
$DIMTMOVE
 70
     0
  9
$LUNITS
 70
     2
  9
$LUPREC
 70
     1
  9
$AXISMODE
 70
     0
  9
$AXISUNIT
 10
0.0
 20
0.0
  9
$SKETCHINC
 40
1.0
  9
$FILLETRAD
 40
10.0
  9
$AUNITS
 70
     0
  9
$AUPREC
 70
     1
  9
$MENU
  1
.
  9
$ELEVATION
 40
0.0
  9
$PELEVATION
 40
0.0
  9
$THICKNESS
 40
0.0
  9
$LIMCHECK
 70
     0
  9
$CHAMFERA
 40
10.0
  9
$CHAMFERB
 40
10.0
  9
$CHAMFERC
 40
20.0
  9
$CHAMFERD
 40
0.0
  9
$SKPOLY
 70
     0
  9
$TDCREATE
 40
2451911.603956590
  9
$TDUCREATE
 40
2451911.315956590
  9
$TDUPDATE
 40
2453619.456321890
  9
$TDUUPDATE
 40
2453619.168321890
  9
$TDINDWG
 40
0.047440410
  9
$TDUSRTIMER
 40
0.047440410
  9
$USRTIMER
 70
     1
  9
$ANGBASE
 50
0.0
  9
$ANGDIR
 70
     0
  9
$PDMODE
 70
     0
  9
$PDSIZE
 40
0.0
  9
$PLINEWID
 40
0.0
  9
$SPLFRAME
 70
     0
  9
$SPLINETYPE
 70
     6
  9
$SPLINESEGS
 70
     8
  9
$HANDSEED
  5
351
  9
$SURFTAB1
 70
     6
  9
$SURFTAB2
 70
     6
  9
$SURFTYPE
 70
     6
  9
$SURFU
 70
     6
  9
$SURFV
 70
     6
  9
$UCSBASE
  2

  9
$UCSNAME
  2

  9
$UCSORG
 10
0.0
 20
0.0
 30
0.0
  9
$UCSXDIR
 10
1.0
 20
0.0
 30
0.0
  9
$UCSYDIR
 10
0.0
 20
1.0
 30
0.0
  9
$UCSORTHOREF
  2

  9
$UCSORTHOVIEW
 70
     0
  9
$UCSORGTOP
 10
0.0
 20
0.0
 30
0.0
  9
$UCSORGBOTTOM
 10
0.0
 20
0.0
 30
0.0
  9
$UCSORGLEFT
 10
0.0
 20
0.0
 30
0.0
  9
$UCSORGRIGHT
 10
0.0
 20
0.0
 30
0.0
  9
$UCSORGFRONT
 10
0.0
 20
0.0
 30
0.0
  9
$UCSORGBACK
 10
0.0
 20
0.0
 30
0.0
  9
$PUCSBASE
  2

  9
$PUCSNAME
  2

  9
$PUCSORG
 10
0.0
 20
0.0
 30
0.0
  9
$PUCSXDIR
 10
1.0
 20
0.0
 30
0.0
  9
$PUCSYDIR
 10
0.0
 20
1.0
 30
0.0
  9
$PUCSORTHOREF
  2

  9
$PUCSORTHOVIEW
 70
     0
  9
$PUCSORGTOP
 10
0.0
 20
0.0
 30
0.0
  9
$PUCSORGBOTTOM
 10
0.0
 20
0.0
 30
0.0
  9
$PUCSORGLEFT
 10
0.0
 20
0.0
 30
0.0
  9
$PUCSORGRIGHT
 10
0.0
 20
0.0
 30
0.0
  9
$PUCSORGFRONT
 10
0.0
 20
0.0
 30
0.0
  9
$PUCSORGBACK
 10
0.0
 20
0.0
 30
0.0
  9
$USERI1
 70
     0
  9
$USERI2
 70
     0
  9
$USERI3
 70
     0
  9
$USERI4
 70
     0
  9
$USERI5
 70
     0
  9
$USERR1
 40
0.0
  9
$USERR2
 40
0.0
  9
$USERR3
 40
0.0
  9
$USERR4
 40
0.0
  9
$USERR5
 40
0.0
  9
$WORLDVIEW
 70
     1
  9
$SHADEDGE
 70
     3
  9
$SHADEDIF
 70
    70
  9
$TILEMODE
 70
     1
  9
$MAXACTVP
 70
    64
  9
$PINSBASE
 10
0.0
 20
0.0
 30
0.0
  9
$PLIMCHECK
 70
     0
  9
$PEXTMIN
 10
26.66999878883362
 20
20.31999878883363
 30
0.0
  9
$PEXTMAX
 10
240.0299890995026
 20
182.8799890995026
 30
0.0
  9
$PLIMMIN
 10
-6.350006103515625
 20
-6.349999904632568
  9
$PLIMMAX
 10
273.0499877929688
 20
209.5499939918518
  9
$UNITMODE
 70
     0
  9
$VISRETAIN
 70
     1
  9
$PLINEGEN
 70
     0
  9
$PSLTSCALE
 70
     1
  9
$TREEDEPTH
 70
  3020
  9
$CMLSTYLE
  2
Standard
  9
$CMLJUST
 70
     0
  9
$CMLSCALE
 40
20.0
  9
$PROXYGRAPHICS
 70
     1
  9
$MEASUREMENT
 70
     1
  9
$CELWEIGHT
370
    -1
  9
$ENDCAPS
280
     0
  9
$JOINSTYLE
280
     0
  9
$LWDISPLAY
290
     0
  9
$INSUNITS
 70
     4
  9
$HYPERLINKBASE
  1

  9
$STYLESHEET
  1

  9
$XEDIT
290
     1
  9
$CEPSNTYPE
380
     0
  9
$PSTYLEMODE
290
     0
  9
$FINGERPRINTGUID
  2
{35BD88C3-9548-11D2-9A29-0060089B3A3F}
  9
$VERSIONGUID
  2
{D6B4EFE9-2502-41EC-83D7-D83558D50D66}
  9
$EXTNAMES
290
     1
  9
$PSVPSCALE
 40
0.0
  9
$OLESTARTUP
290
     0
  0
ENDSEC
  0
SECTION
  2
CLASSES
  0
CLASS
  1
ACDBDICTIONARYWDFLT
  2
AcDbDictionaryWithDefault
  3
AutoCAD 2000
 90
        0
280
     0
281
     0
  0
CLASS
  1
ACDBPLACEHOLDER
  2
AcDbPlaceHolder
  3
AutoCAD 2000
 90
        0
280
     0
281
     0
  0
CLASS
  1
LAYOUT
  2
AcDbLayout
  3
AutoCAD 2000
 90
        0
280
     0
281
     0
  0
CLASS
  1
DICTIONARYVAR
  2
AcDbDictionaryVar
  3
AutoCAD 2000
 90
        0
280
     0
281
     0
  0
CLASS
  1
DIMASSOC
  2
AcDbDimAssoc
  3
"AcDbDimAssoc|Product Desc:     AcDim ARX App For Dimension|Company:          Autodesk, Inc.|WEB Address:      www.autodesk.com"
 90
        0
280
     0
281
     0
  0
ENDSEC
  0
SECTION
  2
TABLES
  0
TABLE
  2
VPORT
  5
8
330
0
100
AcDbSymbolTable
 70
     1
  0
VPORT
  5
350
330
8
100
AcDbSymbolTableRecord
100
AcDbViewportTableRecord
  2
*Active
 70
     0
 10
0.0
 20
0.0
 11
1.0
 21
1.0
 12
198.087757084276
 22
168.8189463611915
 13
0.0
 23
0.0
 14
10.0
 24
10.0
 15
10.0
 25
10.0
 16
0.0
 26
0.0
 36
1.0
 17
0.0
 27
0.0
 37
0.0
 40
305.1029315320607
 41
1.84156378600823
 42
50.0
 43
0.0
 44
0.0
 50
0.0
 51
0.0
 71
     0
 72
   100
 73
     1
 74
     3
 75
     0
 76
     0
 77
     0
 78
     0
281
     0
 65
     1
110
0.0
120
0.0
130
0.0
111
1.0
121
0.0
131
0.0
112
0.0
122
1.0
132
0.0
 79
     0
146
0.0
  0
ENDTAB
  0
TABLE
  2
LTYPE
  5
5
330
0
100
AcDbSymbolTable
 70
     4
  0
LTYPE
  5
14
330
5
100
AcDbSymbolTableRecord
100
AcDbLinetypeTableRecord
  2
ByBlock
 70
     0
  3

 72
    65
 73
     0
 40
0.0
  0
LTYPE
  5
15
330
5
100
AcDbSymbolTableRecord
100
AcDbLinetypeTableRecord
  2
ByLayer
 70
     0
  3

 72
    65
 73
     0
 40
0.0
  0
LTYPE
  5
16
330
5
100
AcDbSymbolTableRecord
100
AcDbLinetypeTableRecord
  2
Continuous
 70
     0
  3
Solid line
 72
    65
 73
     0
 40
0.0
  0
LTYPE
  5
91
330
5
100
AcDbSymbolTableRecord
100
AcDbLinetypeTableRecord
  2
ACAD_ISO08W100
 70
     0
  3
ISO long-dash short-dash ____ __ ____ __ ____ _
 72
    65
 73
     4
 40
36.0
 49
24.0
 74
     0
 49
-3.0
 74
     0
 49
6.0
 74
     0
 49
-3.0
 74
     0
  0
LTYPE
  5
92
330
5
100
AcDbSymbolTableRecord
100
AcDbLinetypeTableRecord
  2
ACAD_ISO09W100
 70
     0
  3
ISO long-dash double-short-dash ____ __ __ ____
 72
    65
 73
     6
 40
45.0
 49
24.0
 74
     0
 49
-3.0
 74
     0
 49
6.0
 74
     0
 49
-3.0
 74
     0
 49
6.0
 74
     0
 49
-3.0
 74
     0
  0
LTYPE
  5
93
330
5
100
AcDbSymbolTableRecord
100
AcDbLinetypeTableRecord
  2
ACAD_ISO02W100
 70
     0
  3
ISO dash __ __ __ __ __ __ __ __ __ __ __ __ __
 72
    65
 73
     2
 40
15.0
 49
12.0
 74
     0
 49
-3.0
 74
     0
  0
ENDTAB
  0
TABLE
  2
LAYER
  5
2
330
0
100
AcDbSymbolTable
 70
    11
  0
LAYER
  5
10
330
2
100
AcDbSymbolTableRecord
100
AcDbLayerTableRecord
  2
0
 70
     0
 62
    -7
  6
Continuous
370
    -3
390
F
  0
LAYER
  5
94
330
2
100
AcDbSymbolTableRecord
100
AcDbLayerTableRecord
  2
轮廓线
 70
     0
 62
    -7
  6
Continuous
370
    35
390
F
  0
LAYER
  5
95
330
2
100
AcDbSymbolTableRecord
100
AcDbLayerTableRecord
  2
点划线
 70
     0
 62
    -1
  6
ACAD_ISO08W100
370
    13
390
F
  0
LAYER
  5
96
330
2
100
AcDbSymbolTableRecord
100
AcDbLayerTableRecord
  2
双点划线
 70
     0
 62
    -3
  6
ACAD_ISO09W100
370
    -3
390
F
  0
LAYER
  5
97
330
2
100
AcDbSymbolTableRecord
100
AcDbLayerTableRecord
  2
隐藏线
 70
     0
 62
   -44
  6
ACAD_ISO02W100
370
    13
390
F
  0
LAYER
  5
98
330
2
100
AcDbSymbolTableRecord
100
AcDbLayerTableRecord
  2
剖面线
 70
     0
 62
  -142
  6
Continuous
370
    13
390
F
  0
LAYER
  5
99
330
2
100
AcDbSymbolTableRecord
100
AcDbLayerTableRecord
  2
波浪线
 70
     0
 62
    -7
  6
Continuous
370
    13
390
F
  0
LAYER
  5
9A
330
2
100
AcDbSymbolTableRecord
100
AcDbLayerTableRecord
  2
尺寸层
 70
     0
 62
    -5
  6
Continuous
370
    13
390
F
  0
LAYER
  5
9B
330
2
100
AcDbSymbolTableRecord
100
AcDbLayerTableRecord
  2
文本层
 70
     0
 62
  -212
  6
Continuous
370
    13
390
F
  0
LAYER
  5
9C
330
2
100
AcDbSymbolTableRecord
100
AcDbLayerTableRecord
  2
其它层
 70
     0
 62
    -7
  6
Continuous
370
    -3
390
F
  0
LAYER
  5
142
330
2
100
AcDbSymbolTableRecord
100
AcDbLayerTableRecord
  2
Defpoints
 70
     0
 62
    -7
  6
Continuous
290
     0
370
    -3
390
F
  0
ENDTAB
  0
TABLE
  2
STYLE
  5
3
330
0
100
AcDbSymbolTable
 70
     4
  0
STYLE
  5
11
330
3
100
AcDbSymbolTableRecord
100
AcDbTextStyleTableRecord
  2
Standard
 70
     0
 40
0.0
 41
1.0
 50
0.0
 71
     0
 42
2.5
  3
txt
  4

  0
STYLE
  5
90
330
3
100
AcDbSymbolTableRecord
100
AcDbTextStyleTableRecord
  2

 70
     1
 40
0.0
 41
1.0
 50
0.0
 71
     0
 42
2.5
  3
ltypeshp.shx
  4

  0
STYLE
  5
9D
330
3
100
AcDbSymbolTableRecord
100
AcDbTextStyleTableRecord
  2
汉字
 70
     0
 40
0.0
 41
0.7
 50
0.0
 71
     0
 42
2.5
  3
SIMFANG.TTF
  4

1001
ACAD
1000
FangSong_GB2312
1071
    34353
  0
STYLE
  5
9F
330
3
100
AcDbSymbolTableRecord
100
AcDbTextStyleTableRecord
  2
数字与字母
 70
     0
 40
0.0
 41
0.7
 50
0.0
 71
     0
 42
2.5
  3
romant.shx
  4

  0
ENDTAB
  0
TABLE
  2
VIEW
  5
6
330
0
100
AcDbSymbolTable
 70
     0
  0
ENDTAB
  0
TABLE
  2
UCS
  5
7
330
0
100
AcDbSymbolTable
 70
     0
  0
ENDTAB
  0
TABLE
  2
APPID
  5
9
330
0
100
AcDbSymbolTable
 70
     1
  0
APPID
  5
12
330
9
100
AcDbSymbolTableRecord
100
AcDbRegAppTableRecord
  2
ACAD
 70
     0
  0
ENDTAB
  0
TABLE
  2
DIMSTYLE
  5
A
330
0
100
AcDbSymbolTable
 70
     3
100
AcDbDimStyleTable
 71
     2
340
A1
340
27
  0
DIMSTYLE
105
27
330
A
100
AcDbSymbolTableRecord
100
AcDbDimStyleTableRecord
  2
ISO-25
 70
     0
 41
2.5
 42
0.625
 43
3.75
 44
1.25
 73
     0
 74
     0
 77
     1
 78
     8
140
2.5
141
2.5
143
0.03937007874016
144
1.0
146
1.0
147
0.625
171
     3
172
     1
176
     0
177
     0
178
     0
271
     2
272
     2
273
     2
274
     3
277
     2
278
    44
283
     0
284
     8
289
     3
340
11
371
    -2
372
    -2
341
0
342
0
343
0
344
0
  0
DIMSTYLE
105
A1
102
{ACAD_REACTORS
330
141
330
15A
330
172
330
18A
330
1A2
330
1BA
330
1D2
330
1EA
330
206
330
222
330
23A
330
252
330
26A
330
282
330
29A
330
2B2
330
2CA
102
}
330
A
100
AcDbSymbolTableRecord
100
AcDbDimStyleTableRecord
  2
机械标注
 70
     0
 41
3.5
 43
7.5
 44
2.5
 73
     0
 74
     1
 77
     1
 78
     8
140
5.0
141
2.5
143
0.03937007874016
144
1.0
146
1.0
147
0.625
171
     3
172
     1
176
     0
177
     0
178
     0
271
     1
272
     1
273
     2
274
     3
277
     2
278
    46
283
     0
284
     8
289
     3
340
9F
371
    -2
372
    -2
341
0
342
0
343
0
344
0
  0
DIMSTYLE
105
A2
102
{ACAD_REACTORS
330
2E2
330
2FC
102
}
330
A
100
AcDbSymbolTableRecord
100
AcDbDimStyleTableRecord
  2
机械标注$2
 70
     0
 41
3.5
 43
7.5
 44
2.5
 73
     1
 74
     1
 77
     1
 78
     8
140
5.0
141
2.5
143
0.03937007874016
144
1.0
146
1.0
147
0.625
171
     3
172
     1
176
     0
177
     0
178
     0
271
     1
272
     1
273
     2
274
     3
277
     2
278
    46
283
     0
284
     8
289
     3
340
9F
371
    -2
372
    -2
341
0
342
0
343
0
344
0
  0
ENDTAB
  0
TABLE
  2
BLOCK_RECORD
  5
1
330
0
100
AcDbSymbolTable
 70
    20
  0
BLOCK_RECORD
  5
1F
330
1
100
AcDbSymbolTableRecord
100
AcDbBlockTableRecord
  2
*Model_Space
340
22
  0
BLOCK_RECORD
  5
5E
330
1
100
AcDbSymbolTableRecord
100
AcDbBlockTableRecord
  2
*Paper_Space
340
5F
  0
BLOCK_RECORD
  5
59
330
1
100
AcDbSymbolTableRecord
100
AcDbBlockTableRecord
  2
*Paper_Space0
340
5A
  0
BLOCK_RECORD
  5
143
330
1
100
AcDbSymbolTableRecord
100
AcDbBlockTableRecord
  2
*D1
340
0
  0
BLOCK_RECORD
  5
15B
330
1
100
AcDbSymbolTableRecord
100
AcDbBlockTableRecord
  2
*D2
340
0
  0
BLOCK_RECORD
  5
173
330
1
100
AcDbSymbolTableRecord
100
AcDbBlockTableRecord
  2
*D3
340
0
  0
BLOCK_RECORD
  5
18B
330
1
100
AcDbSymbolTableRecord
100
AcDbBlockTableRecord
  2
*D4
340
0
  0
BLOCK_RECORD
  5
1A3
330
1
100
AcDbSymbolTableRecord
100
AcDbBlockTableRecord
  2
*D5
340
0
  0
BLOCK_RECORD
  5
1BB
330
1
100
AcDbSymbolTableRecord
100
AcDbBlockTableRecord
  2
*D6
340
0
  0
BLOCK_RECORD
  5
1D3
330
1
100
AcDbSymbolTableRecord
100
AcDbBlockTableRecord
  2
*D7
340
0
  0
BLOCK_RECORD
  5
1EB
330
1
100
AcDbSymbolTableRecord
100
AcDbBlockTableRecord
  2
*D8
340
0
  0
BLOCK_RECORD
  5
207
330
1
100
AcDbSymbolTableRecord
100
AcDbBlockTableRecord
  2
*D9
340
0
  0
BLOCK_RECORD
  5
223
330
1
100
AcDbSymbolTableRecord
100
AcDbBlockTableRecord
  2
*D10
340
0
  0
BLOCK_RECORD
  5
23B
330
1
100
AcDbSymbolTableRecord
100
AcDbBlockTableRecord
  2
*D11
340
0
  0
BLOCK_RECORD
  5
253
330
1
100
AcDbSymbolTableRecord
100
AcDbBlockTableRecord
  2
*D12
340
0
  0
BLOCK_RECORD
  5
26B
330
1
100
AcDbSymbolTableRecord
100
AcDbBlockTableRecord
  2
*D13
340
0
  0
BLOCK_RECORD
  5
283
330
1
100
AcDbSymbolTableRecord
100
AcDbBlockTableRecord
  2
*D14
340
0
  0
BLOCK_RECORD
  5
29B
330
1
100
AcDbSymbolTableRecord
100
AcDbBlockTableRecord
  2
*D15
340
0
  0
BLOCK_RECORD
  5
2B3
330
1
100
AcDbSymbolTableRecord
100
AcDbBlockTableRecord
  2
*D16
340
0
  0
BLOCK_RECORD
  5
2CB
330
1
100
AcDbSymbolTableRecord
100
AcDbBlockTableRecord
  2
*D17
340
0
  0
BLOCK_RECORD
  5
2E3
330
1
100
AcDbSymbolTableRecord
100
AcDbBlockTableRecord
  2
*D18
340
0
  0
BLOCK_RECORD
  5
2FD
330
1
100
AcDbSymbolTableRecord
100
AcDbBlockTableRecord
  2
*D19
340
0
  0
ENDTAB
  0
ENDSEC
  0
SECTION
  2
BLOCKS
  0
BLOCK
  5
20
330
1F
100
AcDbEntity
  8
0
100
AcDbBlockBegin
  2
*Model_Space
 70
     0
 10
0.0
 20
0.0
 30
0.0
  3
*Model_Space
  1

  0
ENDBLK
  5
21
330
1F
100
AcDbEntity
  8
0
100
AcDbBlockEnd
  0
BLOCK
  5
5B
330
59
100
AcDbEntity
  8
0
100
AcDbBlockBegin
  2
*Paper_Space0
 70
     0
 10
0.0
 20
0.0
 30
0.0
  3
*Paper_Space0
  1

  0
VIEWPORT
  5
74
330
59
100
AcDbEntity
  8
0
100
AcDbViewport
 10
133.3499908447266
 20
101.5999970436096
 30
0.0
 40
402.4920940625619
 41
218.5599527535252
 68
     0
 69
     0
 12
133.3499908447266
 22
101.5999970436096
 13
0.0
 23
0.0
 14
0.5
 24
0.5
 15
0.5
 25
0.5
 16
0.0
 26
0.0
 36
1.0
 17
0.0
 27
0.0
 37
0.0
 42
50.0
 43
0.0
 44
0.0
 45
218.5599527535252
 50
0.0
 51
0.0
 72
   100
 90
    32800
  1

281
     0
 71
     1
 74
     0
110
0.0
120
0.0
130
0.0
111
1.0
121
0.0
131
0.0
112
0.0
122
1.0
132
0.0
 79
     0
146
0.0
348
0
340
0
345
0
346
0
  0
VIEWPORT
  5
76
330
59
100
AcDbEntity
  8
0
100
AcDbViewport
 10
133.3499939441681
 20
101.5999939441681
 30
0.0
 40
213.3599903106689
 41
162.5599903106689
 68
     0
 69
     0
 12
210.0
 22
148.5
 13
0.0
 23
0.0
 14
10.0
 24
10.0
 15
10.0
 25
10.0
 16
0.0
 26
0.0
 36
1.0
 17
0.0
 27
0.0
 37
0.0
 42
50.0
 43
0.0
 44
0.0
 45
323.8170928200298
 50
0.0
 51
0.0
 72
   100
 90
    32864
  1

281
     0
 71
     1
 74
     0
110
0.0
120
0.0
130
0.0
111
1.0
121
0.0
131
0.0
112
0.0
122
1.0
132
0.0
 79
     0
146
0.0
348
0
340
0
345
0
346
0
  0
ENDBLK
  5
5C
330
59
100
AcDbEntity
  8
0
100
AcDbBlockEnd
  0
BLOCK
  5
60
330
5E
100
AcDbEntity
 67
     1
  8
0
100
AcDbBlockBegin
  2
*Paper_Space
 70
     0
 10
0.0
 20
0.0
 30
0.0
  3
*Paper_Space
  1

  0
ENDBLK
  5
61
330
5E
100
AcDbEntity
 67
     1
  8
0
100
AcDbBlockEnd
  0
BLOCK
  5
14D
330
143
100
AcDbEntity
  8
0
100
AcDbBlockBegin
  2
*D1
 70
     1
 10
0.0
 20
0.0
 30
0.0
  3
*D1
  1

  0
LINE
  5
150
330
143
100
AcDbEntity
  8
文本层
370
    -2
 62
     0
100
AcDbLine
 10
57.84211976161919
 20
74.22777816657185
 30
0.0
 11
57.84211976161919
 21
20.35823808975601
 31
0.0
  0
LINE
  5
151
330
143
100
AcDbEntity
  8
文本层
370
    -2
 62
     0
100
AcDbLine
 10
97.84211976161919
 20
59.72777816657185
 30
0.0
 11
97.84211976161919
 21
20.35823808975601
 31
0.0
  0
LINE
  5
152
330
143
100
AcDbEntity
  8
文本层
370
    -2
 62
     0
100
AcDbLine
 10
61.34211976161919
 20
22.85823808975601
 30
0.0
 11
94.34211976161919
 21
22.85823808975601
 31
0.0
  0
SOLID
  5
153
330
143
100
AcDbEntity
  8
文本层
 62
     0
100
AcDbTrace
 38
0.0
 10
61.34211976161919
 20
23.44157142308935
 11
61.34211976161919
 21
22.27490475642268
 12
57.84211976161919
 22
22.85823808975601
 13
57.84211976161919
 23
22.85823808975601
  0
SOLID
  5
154
330
143
100
AcDbEntity
  8
文本层
 62
     0
100
AcDbTrace
 38
0.0
 10
94.34211976161919
 20
23.44157142308935
 11
94.34211976161919
 21
22.27490475642268
 12
97.84211976161919
 22
22.85823808975601
 13
97.84211976161919
 23
22.85823808975601
  0
MTEXT
  5
155
330
143
100
AcDbEntity
  8
文本层
 62
     0
100
AcDbMText
 10
77.84211976161919
 20
25.98323808975601
 30
0.0
210
0.0
220
0.0
230
1.0
 11
1.0
 21
0.0
 31
0.0
 40
5.0
 41
0.0
 71
     5
 72
     1
  1
40
  7
数字与字母
 73
     1
 44
1.0
  0
POINT
  5
156
330
143
100
AcDbEntity
  8
Defpoints
 62
     0
100
AcDbPoint
 10
57.84211976161919
 20
74.22777816657185
 30
0.0
 50
0.0
  0
POINT
  5
157
330
143
100
AcDbEntity
  8
Defpoints
 62
     0
100
AcDbPoint
 10
97.84211976161919
 20
59.72777816657185
 30
0.0
 50
0.0
  0
POINT
  5
158
330
143
100
AcDbEntity
  8
Defpoints
 62
     0
100
AcDbPoint
 10
97.84211976161919
 20
22.85823808975601
 30
0.0
 50
0.0
  0
ENDBLK
  5
14E
330
143
100
AcDbEntity
  8
0
100
AcDbBlockEnd
  0
BLOCK
  5
165
330
15B
100
AcDbEntity
  8
0
100
AcDbBlockBegin
  2
*D2
 70
     1
 10
0.0
 20
0.0
 30
0.0
  3
*D2
  1

  0
LINE
  5
168
330
15B
100
AcDbEntity
  8
文本层
370
    -2
 62
     0
100
AcDbLine
 10
97.84211976161919
 20
44.8647322894949
 30
0.0
 11
97.84211976161919
 21
20.38496300548854
 31
0.0
  0
LINE
  5
169
330
15B
100
AcDbEntity
  8
文本层
370
    -2
 62
     0
100
AcDbLine
 10
141.8421197616192
 20
99.72777816657185
 30
0.0
 11
141.8421197616192
 21
20.38496300548854
 31
0.0
  0
LINE
  5
16A
330
15B
100
AcDbEntity
  8
文本层
370
    -2
 62
     0
100
AcDbLine
 10
101.3421197616192
 20
22.88496300548854
 30
0.0
 11
138.3421197616192
 21
22.88496300548854
 31
0.0
  0
SOLID
  5
16B
330
15B
100
AcDbEntity
  8
文本层
 62
     0
100
AcDbTrace
 38
0.0
 10
101.3421197616192
 20
23.46829633882188
 11
101.3421197616192
 21
22.30162967215521
 12
97.84211976161919
 22
22.88496300548854
 13
97.84211976161919
 23
22.88496300548854
  0
SOLID
  5
16C
330
15B
100
AcDbEntity
  8
文本层
 62
     0
100
AcDbTrace
 38
0.0
 10
138.3421197616192
 20
23.46829633882188
 11
138.3421197616192
 21
22.30162967215521
 12
141.8421197616192
 22
22.88496300548854
 13
141.8421197616192
 23
22.88496300548854
  0
MTEXT
  5
16D
330
15B
100
AcDbEntity
  8
文本层
 62
     0
100
AcDbMText
 10
119.8421197616192
 20
26.00996300548854
 30
0.0
210
0.0
220
0.0
230
1.0
 11
1.0
 21
0.0
 31
0.0
 40
5.0
 41
0.0
 71
     5
 72
     1
  1
44
  7
数字与字母
 73
     1
 44
1.0
  0
POINT
  5
16E
330
15B
100
AcDbEntity
  8
Defpoints
 62
     0
100
AcDbPoint
 10
97.84211976161919
 20
44.8647322894949
 30
0.0
 50
0.0
  0
POINT
  5
16F
330
15B
100
AcDbEntity
  8
Defpoints
 62
     0
100
AcDbPoint
 10
141.8421197616192
 20
99.72777816657185
 30
0.0
 50
0.0
  0
POINT
  5
170
330
15B
100
AcDbEntity
  8
Defpoints
 62
     0
100
AcDbPoint
 10
141.8421197616192
 20
22.88496300548854
 30
0.0
 50
0.0
  0
ENDBLK
  5
166
330
15B
100
AcDbEntity
  8
0
100
AcDbBlockEnd
  0
BLOCK
  5
17D
330
173
100
AcDbEntity
  8
0
100
AcDbBlockBegin
  2
*D3
 70
     1
 10
0.0
 20
0.0
 30
0.0
  3
*D3
  1

  0
LINE
  5
180
330
173
100
AcDbEntity
  8
文本层
370
    -2
 62
     0
100
AcDbLine
 10
141.8421197616192
 20
112.2277781665719
 30
0.0
 11
171.5081487248347
 21
112.2277781665718
 31
0.0
  0
LINE
  5
181
330
173
100
AcDbEntity
  8
文本层
370
    -2
 62
     0
100
AcDbLine
 10
141.8421197616192
 20
87.22777816657185
 30
0.0
 11
171.5081487248347
 21
87.22777816657184
 31
0.0
  0
LINE
  5
182
330
173
100
AcDbEntity
  8
文本层
370
    -2
 62
     0
100
AcDbLine
 10
169.0081487248347
 20
108.7277781665718
 30
0.0
 11
169.0081487248347
 21
90.72777816657184
 31
0.0
  0
SOLID
  5
183
330
173
100
AcDbEntity
  8
文本层
 62
     0
100
AcDbTrace
 38
0.0
 10
168.4248153915013
 20
108.7277781665718
 11
169.591482058168
 21
108.7277781665718
 12
169.0081487248347
 22
112.2277781665718
 13
169.0081487248347
 23
112.2277781665718
  0
SOLID
  5
184
330
173
100
AcDbEntity
  8
文本层
 62
     0
100
AcDbTrace
 38
0.0
 10
168.4248153915013
 20
90.72777816657184
 11
169.591482058168
 21
90.72777816657184
 12
169.0081487248347
 22
87.22777816657184
 13
169.0081487248347
 23
87.22777816657184
  0
MTEXT
  5
185
330
173
100
AcDbEntity
  8
文本层
 62
     0
100
AcDbMText
 10
165.8831487248346
 20
99.72777816657187
 30
0.0
210
0.0
220
0.0
230
1.0
 11
6.123031769111886E-17
 21
1.0
 31
0.0
 40
5.0
 41
0.0
 71
     5
 72
     1
  1
25
  7
数字与字母
 73
     1
 44
1.0
  0
POINT
  5
186
330
173
100
AcDbEntity
  8
Defpoints
 62
     0
100
AcDbPoint
 10
141.8421197616192
 20
112.2277781665719
 30
0.0
 50
0.0
  0
POINT
  5
187
330
173
100
AcDbEntity
  8
Defpoints
 62
     0
100
AcDbPoint
 10
141.8421197616192
 20
87.22777816657185
 30
0.0
 50
0.0
  0
POINT
  5
188
330
173
100
AcDbEntity
  8
Defpoints
 62
     0
100
AcDbPoint
 10
169.0081487248347
 20
87.22777816657184
 30
0.0
 50
0.0
  0
ENDBLK
  5
17E
330
173
100
AcDbEntity
  8
0
100
AcDbBlockEnd
  0
BLOCK
  5
195
330
18B
100
AcDbEntity
  8
0
100
AcDbBlockBegin
  2
*D4
 70
     1
 10
0.0
 20
0.0
 30
0.0
  3
*D4
  1

  0
LINE
  5
198
330
18B
100
AcDbEntity
  8
文本层
370
    -2
 62
     0
100
AcDbLine
 10
73.34211976161919
 20
211.7277781665719
 30
0.0
 11
73.34211976161919
 21
193.3369152818028
 31
0.0
  0
LINE
  5
199
330
18B
100
AcDbEntity
  8
文本层
370
    -2
 62
     0
100
AcDbLine
 10
122.3421197616192
 20
211.7277781665719
 30
0.0
 11
122.3421197616192
 21
193.3369152818028
 31
0.0
  0
LINE
  5
19A
330
18B
100
AcDbEntity
  8
文本层
370
    -2
 62
     0
100
AcDbLine
 10
76.84211976161919
 20
195.8369152818028
 30
0.0
 11
118.8421197616192
 21
195.8369152818028
 31
0.0
  0
SOLID
  5
19B
330
18B
100
AcDbEntity
  8
文本层
 62
     0
100
AcDbTrace
 38
0.0
 10
76.84211976161919
 20
196.4202486151362
 11
76.84211976161919
 21
195.2535819484695
 12
73.34211976161919
 22
195.8369152818028
 13
73.34211976161919
 23
195.8369152818028
  0
SOLID
  5
19C
330
18B
100
AcDbEntity
  8
文本层
 62
     0
100
AcDbTrace
 38
0.0
 10
118.8421197616192
 20
196.4202486151362
 11
118.8421197616192
 21
195.2535819484695
 12
122.3421197616192
 22
195.8369152818028
 13
122.3421197616192
 23
195.8369152818028
  0
MTEXT
  5
19D
330
18B
100
AcDbEntity
  8
文本层
 62
     0
100
AcDbMText
 10
97.84211976161919
 20
198.9619152818028
 30
0.0
210
0.0
220
0.0
230
1.0
 11
1.0
 21
0.0
 31
0.0
 40
5.0
 41
0.0
 71
     5
 72
     1
  1
49
  7
数字与字母
 73
     1
 44
1.0
  0
POINT
  5
19E
330
18B
100
AcDbEntity
  8
Defpoints
 62
     0
100
AcDbPoint
 10
73.34211976161919
 20
211.7277781665719
 30
0.0
 50
0.0
  0
POINT
  5
19F
330
18B
100
AcDbEntity
  8
Defpoints
 62
     0
100
AcDbPoint
 10
122.3421197616192
 20
211.7277781665719
 30
0.0
 50
0.0
  0
POINT
  5
1A0
330
18B
100
AcDbEntity
  8
Defpoints
 62
     0
100
AcDbPoint
 10
122.3421197616192
 20
195.8369152818028
 30
0.0
 50
0.0
  0
ENDBLK
  5
196
330
18B
100
AcDbEntity
  8
0
100
AcDbBlockEnd
  0
BLOCK
  5
1AD
330
1A3
100
AcDbEntity
  8
0
100
AcDbBlockBegin
  2
*D5
 70
     1
 10
0.0
 20
0.0
 30
0.0
  3
*D5
  1

  0
LINE
  5
1B0
330
1A3
100
AcDbEntity
  8
文本层
370
    -2
 62
     0
100
AcDbLine
 10
55.84211976161919
 20
214.2277781665719
 30
0.0
 11
55.84211976161919
 21
177.4462679267531
 31
0.0
  0
LINE
  5
1B1
330
1A3
100
AcDbEntity
  8
文本层
370
    -2
 62
     0
100
AcDbLine
 10
126.8421197616192
 20
232.7277781665718
 30
0.0
 11
126.8421197616192
 21
177.4462679267531
 31
0.0
  0
LINE
  5
1B2
330
1A3
100
AcDbEntity
  8
文本层
370
    -2
 62
     0
100
AcDbLine
 10
59.34211976161919
 20
179.9462679267531
 30
0.0
 11
123.3421197616192
 21
179.9462679267531
 31
0.0
  0
SOLID
  5
1B3
330
1A3
100
AcDbEntity
  8
文本层
 62
     0
100
AcDbTrace
 38
0.0
 10
59.34211976161919
 20
180.5296012600864
 11
59.34211976161919
 21
179.3629345934197
 12
55.84211976161919
 22
179.9462679267531
 13
55.84211976161919
 23
179.9462679267531
  0
SOLID
  5
1B4
330
1A3
100
AcDbEntity
  8
文本层
 62
     0
100
AcDbTrace
 38
0.0
 10
123.3421197616192
 20
180.5296012600864
 11
123.3421197616192
 21
179.3629345934197
 12
126.8421197616192
 22
179.9462679267531
 13
126.8421197616192
 23
179.9462679267531
  0
MTEXT
  5
1B5
330
1A3
100
AcDbEntity
  8
文本层
 62
     0
100
AcDbMText
 10
91.34211976161919
 20
183.0712679267531
 30
0.0
210
0.0
220
0.0
230
1.0
 11
1.0
 21
0.0
 31
0.0
 40
5.0
 41
0.0
 71
     5
 72
     1
  1
71
  7
数字与字母
 73
     1
 44
1.0
  0
POINT
  5
1B6
330
1A3
100
AcDbEntity
  8
Defpoints
 62
     0
100
AcDbPoint
 10
55.84211976161919
 20
214.2277781665719
 30
0.0
 50
0.0
  0
POINT
  5
1B7
330
1A3
100
AcDbEntity
  8
Defpoints
 62
     0
100
AcDbPoint
 10
126.8421197616192
 20
232.7277781665718
 30
0.0
 50
0.0
  0
POINT
  5
1B8
330
1A3
100
AcDbEntity
  8
Defpoints
 62
     0
100
AcDbPoint
 10
126.8421197616192
 20
179.9462679267531
 30
0.0
 50
0.0
  0
ENDBLK
  5
1AE
330
1A3
100
AcDbEntity
  8
0
100
AcDbBlockEnd
  0
BLOCK
  5
1C5
330
1BB
100
AcDbEntity
  8
0
100
AcDbBlockBegin
  2
*D6
 70
     1
 10
0.0
 20
0.0
 30
0.0
  3
*D6
  1

  0
LINE
  5
1C8
330
1BB
100
AcDbEntity
  8
文本层
370
    -2
 62
     0
100
AcDbLine
 10
154.3421197616192
 20
211.7277781665719
 30
0.0
 11
172.2538164820589
 21
211.7277781665719
 31
0.0
  0
LINE
  5
1C9
330
1BB
100
AcDbEntity
  8
文本层
370
    -2
 62
     0
100
AcDbLine
 10
137.8421197616192
 20
239.7277781665719
 30
0.0
 11
172.2538164820589
 21
239.7277781665719
 31
0.0
  0
LINE
  5
1CA
330
1BB
100
AcDbEntity
  8
文本层
370
    -2
 62
     0
100
AcDbLine
 10
169.7538164820589
 20
215.2277781665719
 30
0.0
 11
169.7538164820589
 21
236.2277781665719
 31
0.0
  0
SOLID
  5
1CB
330
1BB
100
AcDbEntity
  8
文本层
 62
     0
100
AcDbTrace
 38
0.0
 10
169.1704831487256
 20
215.2277781665719
 11
170.3371498153923
 21
215.2277781665719
 12
169.7538164820589
 22
211.7277781665719
 13
169.7538164820589
 23
211.7277781665719
  0
SOLID
  5
1CC
330
1BB
100
AcDbEntity
  8
文本层
 62
     0
100
AcDbTrace
 38
0.0
 10
169.1704831487256
 20
236.2277781665719
 11
170.3371498153923
 21
236.2277781665719
 12
169.7538164820589
 22
239.7277781665719
 13
169.7538164820589
 23
239.7277781665719
  0
MTEXT
  5
1CD
330
1BB
100
AcDbEntity
  8
文本层
 62
     0
100
AcDbMText
 10
166.6288164820589
 20
225.7277781665719
 30
0.0
210
0.0
220
0.0
230
1.0
 11
6.123031769111886E-17
 21
1.0
 31
0.0
 40
5.0
 41
0.0
 71
     5
 72
     1
  1
28
  7
数字与字母
 73
     1
 44
1.0
  0
POINT
  5
1CE
330
1BB
100
AcDbEntity
  8
Defpoints
 62
     0
100
AcDbPoint
 10
154.3421197616192
 20
211.7277781665719
 30
0.0
 50
0.0
  0
POINT
  5
1CF
330
1BB
100
AcDbEntity
  8
Defpoints
 62
     0
100
AcDbPoint
 10
137.8421197616192
 20
239.7277781665719
 30
0.0
 50
0.0
  0
POINT
  5
1D0
330
1BB
100
AcDbEntity
  8
Defpoints
 62
     0
100
AcDbPoint
 10
169.7538164820589
 20
239.7277781665719
 30
0.0
 50
0.0
  0
ENDBLK
  5
1C6
330
1BB
100
AcDbEntity
  8
0
100
AcDbBlockEnd
  0
BLOCK
  5
1DD
330
1D3
100
AcDbEntity
  8
0
100
AcDbBlockBegin
  2
*D7
 70
     1
 10
0.0
 20
0.0
 30
0.0
  3
*D7
  1

  0
LINE
  5
1E0
330
1D3
100
AcDbEntity
  8
文本层
370
    -2
 62
     0
100
AcDbLine
 10
60.84211976161919
 20
267.7277781665719
 30
0.0
 11
60.84211976161919
 21
286.6593512482675
 31
0.0
  0
LINE
  5
1E1
330
1D3
100
AcDbEntity
  8
文本层
370
    -2
 62
     0
100
AcDbLine
 10
134.8421197616192
 20
267.7277781665719
 30
0.0
 11
134.8421197616192
 21
286.6593512482675
 31
0.0
  0
LINE
  5
1E2
330
1D3
100
AcDbEntity
  8
文本层
370
    -2
 62
     0
100
AcDbLine
 10
64.34211976161919
 20
284.1593512482675
 30
0.0
 11
131.3421197616192
 21
284.1593512482675
 31
0.0
  0
SOLID
  5
1E3
330
1D3
100
AcDbEntity
  8
文本层
 62
     0
100
AcDbTrace
 38
0.0
 10
64.34211976161919
 20
284.7426845816008
 11
64.34211976161919
 21
283.5760179149342
 12
60.84211976161919
 22
284.1593512482675
 13
60.84211976161919
 23
284.1593512482675
  0
SOLID
  5
1E4
330
1D3
100
AcDbEntity
  8
文本层
 62
     0
100
AcDbTrace
 38
0.0
 10
131.3421197616192
 20
284.7426845816008
 11
131.3421197616192
 21
283.5760179149342
 12
134.8421197616192
 22
284.1593512482675
 13
134.8421197616192
 23
284.1593512482675
  0
MTEXT
  5
1E5
330
1D3
100
AcDbEntity
  8
文本层
 62
     0
100
AcDbMText
 10
97.84211976161919
 20
287.2843512482675
 30
0.0
210
0.0
220
0.0
230
1.0
 11
1.0
 21
0.0
 31
0.0
 40
5.0
 41
0.0
 71
     5
 72
     1
  1
74
  7
数字与字母
 73
     1
 44
1.0
  0
POINT
  5
1E6
330
1D3
100
AcDbEntity
  8
Defpoints
 62
     0
100
AcDbPoint
 10
60.84211976161919
 20
267.7277781665719
 30
0.0
 50
0.0
  0
POINT
  5
1E7
330
1D3
100
AcDbEntity
  8
Defpoints
 62
     0
100
AcDbPoint
 10
134.8421197616192
 20
267.7277781665719
 30
0.0
 50
0.0
  0
POINT
  5
1E8
330
1D3
100
AcDbEntity
  8
Defpoints
 62
     0
100
AcDbPoint
 10
134.8421197616192
 20
284.1593512482675
 30
0.0
 50
0.0
  0
ENDBLK
  5
1DE
330
1D3
100
AcDbEntity
  8
0
100
AcDbBlockEnd
  0
BLOCK
  5
1F7
330
1EB
100
AcDbEntity
  8
0
100
AcDbBlockBegin
  2
*D8
 70
     1
 10
0.0
 20
0.0
 30
0.0
  3
*D8
  1

  0
LINE
  5
33E
330
1EB
100
AcDbEntity
  8
文本层
370
    -2
 62
     0
100
AcDbLine
 10
60.84211976161919
 20
246.7277781665719
 30
0.0
 11
60.84211976161919
 21
249.4264131378263
 31
0.0
  0
LINE
  5
33F
330
1EB
100
AcDbEntity
  8
文本层
370
    -2
 62
     0
100
AcDbLine
 10
55.84211976161919
 20
246.7277781665719
 30
0.0
 11
55.84211976161919
 21
249.4264131378263
 31
0.0
  0
LINE
  5
340
330
1EB
100
AcDbEntity
  8
文本层
370
    -2
 62
     0
100
AcDbLine
 10
64.34211976161919
 20
246.9264131378263
 30
0.0
 11
67.84211976161919
 21
246.9264131378263
 31
0.0
  0
LINE
  5
341
330
1EB
100
AcDbEntity
  8
文本层
370
    -2
 62
     0
100
AcDbLine
 10
52.34211976161919
 20
246.9264131378263
 30
0.0
 11
44.78048705910176
 21
246.9264131378263
 31
0.0
  0
LINE
  5
342
330
1EB
100
AcDbEntity
  8
文本层
370
    -2
 62
     0
100
AcDbLine
 10
60.84211976161919
 20
246.9264131378263
 30
0.0
 11
55.84211976161919
 21
246.9264131378263
 31
0.0
  0
SOLID
  5
343
330
1EB
100
AcDbEntity
  8
文本层
 62
     0
100
AcDbTrace
 38
0.0
 10
64.34211976161919
 20
247.5097464711597
 11
64.34211976161919
 21
246.343079804493
 12
60.84211976161919
 22
246.9264131378263
 13
60.84211976161919
 23
246.9264131378263
  0
SOLID
  5
344
330
1EB
100
AcDbEntity
  8
文本层
 62
     0
100
AcDbTrace
 38
0.0
 10
52.34211976161919
 20
247.5097464711597
 11
52.34211976161919
 21
246.343079804493
 12
55.84211976161919
 22
246.9264131378263
 13
55.84211976161919
 23
246.9264131378263
  0
MTEXT
  5
345
330
1EB
100
AcDbEntity
  8
文本层
 62
     0
100
AcDbMText
 10
46.57215372576843
 20
250.0514131378263
 30
0.0
210
0.0
220
0.0
230
1.0
 11
1.0
 21
0.0
 31
0.0
 40
5.0
 41
0.0
 71
     5
 72
     1
  1
5
  7
数字与字母
 73
     1
 44
1.0
  0
POINT
  5
346
330
1EB
100
AcDbEntity
  8
Defpoints
 62
     0
100
AcDbPoint
 10
60.84211976161919
 20
246.7277781665719
 30
0.0
 50
0.0
  0
POINT
  5
347
330
1EB
100
AcDbEntity
  8
Defpoints
 62
     0
100
AcDbPoint
 10
55.84211976161919
 20
246.7277781665719
 30
0.0
 50
0.0
  0
POINT
  5
348
330
1EB
100
AcDbEntity
  8
Defpoints
 62
     0
100
AcDbPoint
 10
55.84211976161919
 20
246.9264131378263
 30
0.0
 50
0.0
  0
ENDBLK
  5
1F8
330
1EB
100
AcDbEntity
  8
0
100
AcDbBlockEnd
  0
BLOCK
  5
213
330
207
100
AcDbEntity
  8
0
100
AcDbBlockBegin
  2
*D9
 70
     1
 10
0.0
 20
0.0
 30
0.0
  3
*D9
  1

  0
LINE
  5
216
330
207
100
AcDbEntity
  8
文本层
370
    -2
 62
     0
100
AcDbLine
 10
228.3421197616192
 20
219.7277781665719
 30
0.0
 11
214.2307395139587
 21
219.7277781665719
 31
0.0
  0
LINE
  5
217
330
207
100
AcDbEntity
  8
文本层
370
    -2
 62
     0
100
AcDbLine
 10
228.3421197616192
 20
211.7277781665719
 30
0.0
 11
214.2307395139587
 21
211.7277781665719
 31
0.0
  0
LINE
  5
218
330
207
100
AcDbEntity
  8
文本层
370
    -2
 62
     0
100
AcDbLine
 10
216.7307395139587
 20
223.2277781665719
 30
0.0
 11
216.7307395139587
 21
226.7277781665719
 31
0.0
  0
LINE
  5
219
330
207
100
AcDbEntity
  8
文本层
370
    -2
 62
     0
100
AcDbLine
 10
216.7307395139587
 20
208.2277781665719
 30
0.0
 11
216.7307395139587
 21
204.7277781665719
 31
0.0
  0
LINE
  5
21A
330
207
100
AcDbEntity
  8
文本层
370
    -2
 62
     0
100
AcDbLine
 10
216.7307395139587
 20
219.7277781665719
 30
0.0
 11
216.7307395139587
 21
211.7277781665719
 31
0.0
  0
SOLID
  5
21B
330
207
100
AcDbEntity
  8
文本层
 62
     0
100
AcDbTrace
 38
0.0
 10
216.1474061806254
 20
223.2277781665719
 11
217.3140728472921
 21
223.2277781665719
 12
216.7307395139587
 22
219.7277781665719
 13
216.7307395139587
 23
219.7277781665719
  0
SOLID
  5
21C
330
207
100
AcDbEntity
  8
文本层
 62
     0
100
AcDbTrace
 38
0.0
 10
216.1474061806254
 20
208.2277781665719
 11
217.3140728472921
 21
208.2277781665719
 12
216.7307395139587
 22
211.7277781665719
 13
216.7307395139587
 23
211.7277781665719
  0
MTEXT
  5
21D
330
207
100
AcDbEntity
  8
文本层
 62
     0
100
AcDbMText
 10
213.6057395139587
 20
215.7277781665719
 30
0.0
210
0.0
220
0.0
230
1.0
 11
6.123031769111886E-17
 21
1.0
 31
0.0
 40
5.0
 41
0.0
 71
     5
 72
     1
  1
8
  7
数字与字母
 73
     1
 44
1.0
  0
POINT
  5
21E
330
207
100
AcDbEntity
  8
Defpoints
 62
     0
100
AcDbPoint
 10
228.3421197616192
 20
219.7277781665719
 30
0.0
 50
0.0
  0
POINT
  5
21F
330
207
100
AcDbEntity
  8
Defpoints
 62
     0
100
AcDbPoint
 10
228.3421197616192
 20
211.7277781665719
 30
0.0
 50
0.0
  0
POINT
  5
220
330
207
100
AcDbEntity
  8
Defpoints
 62
     0
100
AcDbPoint
 10
216.7307395139587
 20
211.7277781665719
 30
0.0
 50
0.0
  0
ENDBLK
  5
214
330
207
100
AcDbEntity
  8
0
100
AcDbBlockEnd
  0
BLOCK
  5
22D
330
223
100
AcDbEntity
  8
0
100
AcDbBlockBegin
  2
*D10
 70
     1
 10
0.0
 20
0.0
 30
0.0
  3
*D10
  1

  0
LINE
  5
230
330
223
100
AcDbEntity
  8
文本层
370
    -2
 62
     0
100
AcDbLine
 10
327.3421197616192
 20
211.7277781665719
 30
0.0
 11
348.684171194559
 21
211.7277781665719
 31
0.0
  0
LINE
  5
231
330
223
100
AcDbEntity
  8
文本层
370
    -2
 62
     0
100
AcDbLine
 10
314.8421197616192
 20
267.7277781665719
 30
0.0
 11
348.684171194559
 21
267.7277781665719
 31
0.0
  0
LINE
  5
232
330
223
100
AcDbEntity
  8
文本层
370
    -2
 62
     0
100
AcDbLine
 10
346.184171194559
 20
215.2277781665719
 30
0.0
 11
346.184171194559
 21
264.2277781665719
 31
0.0
  0
SOLID
  5
233
330
223
100
AcDbEntity
  8
文本层
 62
     0
100
AcDbTrace
 38
0.0
 10
345.6008378612257
 20
215.2277781665719
 11
346.7675045278923
 21
215.2277781665719
 12
346.184171194559
 22
211.7277781665719
 13
346.184171194559
 23
211.7277781665719
  0
SOLID
  5
234
330
223
100
AcDbEntity
  8
文本层
 62
     0
100
AcDbTrace
 38
0.0
 10
345.6008378612257
 20
264.2277781665719
 11
346.7675045278923
 21
264.2277781665719
 12
346.184171194559
 22
267.7277781665719
 13
346.184171194559
 23
267.7277781665719
  0
MTEXT
  5
235
330
223
100
AcDbEntity
  8
文本层
 62
     0
100
AcDbMText
 10
343.0591711945589
 20
239.7277781665719
 30
0.0
210
0.0
220
0.0
230
1.0
 11
6.123031769111886E-17
 21
1.0
 31
0.0
 40
5.0
 41
0.0
 71
     5
 72
     1
  1
56
  7
数字与字母
 73
     1
 44
1.0
  0
POINT
  5
236
330
223
100
AcDbEntity
  8
Defpoints
 62
     0
100
AcDbPoint
 10
327.3421197616192
 20
211.7277781665719
 30
0.0
 50
0.0
  0
POINT
  5
237
330
223
100
AcDbEntity
  8
Defpoints
 62
     0
100
AcDbPoint
 10
314.8421197616192
 20
267.7277781665719
 30
0.0
 50
0.0
  0
POINT
  5
238
330
223
100
AcDbEntity
  8
Defpoints
 62
     0
100
AcDbPoint
 10
346.184171194559
 20
267.7277781665719
 30
0.0
 50
0.0
  0
ENDBLK
  5
22E
330
223
100
AcDbEntity
  8
0
100
AcDbBlockEnd
  0
BLOCK
  5
245
330
23B
100
AcDbEntity
  8
0
100
AcDbBlockBegin
  2
*D11
 70
     1
 10
0.0
 20
0.0
 30
0.0
  3
*D11
  1

  0
LINE
  5
32A
330
23B
100
AcDbEntity
  8
文本层
370
    -2
 62
     0
100
AcDbLine
 10
304.9211897863266
 20
277.9300293907391
 30
0.0
 11
291.9628564529933
 21
277.9300293907391
 31
0.0
  0
LINE
  5
32B
330
23B
100
AcDbEntity
  8
文本层
370
    -2
 62
     0
100
AcDbLine
 10
291.9628564529933
 20
277.9300293907391
 30
0.0
 11
281.3966968134314
 21
263.5615119183139
 31
0.0
  0
LINE
  5
32C
330
23B
100
AcDbEntity
  8
文本层
370
    -2
 62
     0
100
AcDbLine
 10
274.287542709807
 20
253.8940444148298
 30
0.0
 11
272.2140394295832
 21
251.0743663929803
 31
0.0
  0
MTEXT
  5
32D
330
23B
100
AcDbEntity
  8
文本层
 62
     0
100
AcDbMText
 10
298.75452311966
 20
281.0550293907392
 30
0.0
210
0.0
220
0.0
230
1.0
 11
1.0
 21
0.0
 31
0.0
 40
5.0
 41
0.0
 71
     5
 72
     1
  1
{\f??|b0|i0|c0|p54;3x}\U+22055
  7
数字与字母
 73
     1
 44
1.0
  0
LINE
  5
32E
330
23B
100
AcDbEntity
  8
文本层
370
    -2
 62
     0
100
AcDbLine
 10
276.3610459900308
 20
256.7137224366793
 30
0.0
 11
279.3231935332076
 21
260.7418338964644
 31
0.0
  0
SOLID
  5
32F
330
23B
100
AcDbEntity
  8
文本层
 62
     0
100
AcDbTrace
 38
0.0
 10
273.8175963728321
 20
254.2396282948671
 11
274.7574890467819
 21
253.5484605347925
 12
276.3610459900308
 22
256.7137224366793
 13
276.3610459900308
 23
256.7137224366793
  0
SOLID
  5
330
330
23B
100
AcDbEntity
  8
文本层
 62
     0
100
AcDbTrace
 38
0.0
 10
280.9267504764564
 20
263.9070957983512
 11
281.8666431504063
 21
263.2159280382766
 12
279.3231935332076
 22
260.7418338964644
 13
279.3231935332076
 23
260.7418338964644
  0
POINT
  5
331
330
23B
100
AcDbEntity
  8
Defpoints
 62
     0
100
AcDbPoint
 10
279.3231935332076
 20
260.7418338964644
 30
0.0
 50
0.0
  0
POINT
  5
332
330
23B
100
AcDbEntity
  8
Defpoints
 62
     0
100
AcDbPoint
 10
276.3610459900308
 20
256.7137224366793
 30
0.0
 50
0.0
  0
ENDBLK
  5
246
330
23B
100
AcDbEntity
  8
0
100
AcDbBlockEnd
  0
BLOCK
  5
25D
330
253
100
AcDbEntity
  8
0
100
AcDbBlockBegin
  2
*D12
 70
     1
 10
0.0
 20
0.0
 30
0.0
  3
*D12
  1

  0
LINE
  5
260
330
253
100
AcDbEntity
  8
文本层
370
    -2
 62
     0
100
AcDbLine
 10
240.4407044268702
 20
278.9762786554833
 30
0.0
 11
249.8990377602036
 21
278.9762786554833
 31
0.0
  0
LINE
  5
261
330
253
100
AcDbEntity
  8
文本层
370
    -2
 62
     0
100
AcDbLine
 10
249.8990377602036
 20
278.9762786554833
 30
0.0
 11
261.0227254953984
 21
263.3520871832907
 31
0.0
  0
LINE
  5
262
330
253
100
AcDbEntity
  8
文本层
370
    -2
 62
     0
100
AcDbLine
 10
294.6615140278399
 20
216.103469149853
 30
0.0
 11
296.6914409220389
 21
213.2522594409387
 31
0.0
  0
MTEXT
  5
263
330
253
100
AcDbEntity
  8
文本层
 62
     0
100
AcDbMText
 10
244.8573710935369
 20
282.1012786554833
 30
0.0
210
0.0
220
0.0
230
1.0
 11
1.0
 21
0.0
 31
0.0
 40
5.0
 41
0.0
 71
     5
 72
     1
  1
\U+220551
  7
数字与字母
 73
     1
 44
1.0
  0
LINE
  5
264
330
253
100
AcDbEntity
  8
文本层
370
    -2
 62
     0
100
AcDbLine
 10
292.6315871336408
 20
218.9546788587674
 30
0.0
 11
263.0526523895975
 21
260.5008774743764
 31
0.0
  0
SOLID
  5
265
330
253
100
AcDbEntity
  8
文本层
 62
     0
100
AcDbTrace
 38
0.0
 10
295.1367156459922
 20
216.4417902988862
 11
294.1863124096875
 21
215.7651480008199
 12
292.6315871336408
 22
218.9546788587674
 13
292.6315871336408
 23
218.9546788587674
  0
SOLID
  5
266
330
253
100
AcDbEntity
  8
文本层
 62
     0
100
AcDbTrace
 38
0.0
 10
261.4979271135508
 20
263.6904083323238
 11
260.5475238772461
 21
263.0137660342575
 12
263.0526523895975
 22
260.5008774743764
 13
263.0526523895975
 23
260.5008774743764
  0
POINT
  5
267
330
253
100
AcDbEntity
  8
Defpoints
 62
     0
100
AcDbPoint
 10
263.0526523895975
 20
260.5008774743764
 30
0.0
 50
0.0
  0
POINT
  5
268
330
253
100
AcDbEntity
  8
Defpoints
 62
     0
100
AcDbPoint
 10
292.6315871336408
 20
218.9546788587674
 30
0.0
 50
0.0
  0
ENDBLK
  5
25E
330
253
100
AcDbEntity
  8
0
100
AcDbBlockEnd
  0
BLOCK
  5
275
330
26B
100
AcDbEntity
  8
0
100
AcDbBlockBegin
  2
*D13
 70
     1
 10
0.0
 20
0.0
 30
0.0
  3
*D13
  1

  0
LINE
  5
278
330
26B
100
AcDbEntity
  8
文本层
370
    -2
 62
     0
100
AcDbLine
 10
204.9507533896019
 20
259.250504038941
 30
0.0
 11
214.9090867229353
 21
259.250504038941
 31
0.0
  0
LINE
  5
279
330
26B
100
AcDbEntity
  8
文本层
370
    -2
 62
     0
100
AcDbLine
 10
214.9090867229353
 20
259.250504038941
 30
0.0
 11
267.8135758022372
 21
242.8387757645689
 31
0.0
  0
LINE
  5
27A
330
26B
100
AcDbEntity
  8
文本层
370
    -2
 62
     0
100
AcDbLine
 10
287.8706637210012
 20
236.6167805685747
 30
0.0
 11
291.2135117074618
 21
235.5797813692423
 31
0.0
  0
MTEXT
  5
27B
330
26B
100
AcDbEntity
  8
文本层
 62
     0
100
AcDbMText
 10
209.6174200562686
 20
262.375504038941
 30
0.0
210
0.0
220
0.0
230
1.0
 11
1.0
 21
0.0
 31
0.0
 40
5.0
 41
0.0
 71
     5
 72
     1
  1
\U+220514
  7
数字与字母
 73
     1
 44
1.0
  0
LINE
  5
27C
330
26B
100
AcDbEntity
  8
文本层
370
    -2
 62
     0
100
AcDbLine
 10
284.5278157345405
 20
237.6537797679071
 30
0.0
 11
271.1564237886979
 21
241.8017765652365
 31
0.0
  0
SOLID
  5
27D
330
26B
100
AcDbEntity
  8
文本层
 62
     0
100
AcDbTrace
 38
0.0
 10
288.0434969208899
 20
237.1739218996515
 11
287.6978305211125
 21
236.0596392374979
 12
284.5278157345405
 22
237.6537797679071
 13
284.5278157345405
 23
237.6537797679071
  0
SOLID
  5
27E
330
26B
100
AcDbEntity
  8
文本层
 62
     0
100
AcDbTrace
 38
0.0
 10
267.9864090021259
 20
243.3959170956457
 11
267.6407426023485
 21
242.2816344334921
 12
271.1564237886979
 22
241.8017765652365
 13
271.1564237886979
 23
241.8017765652365
  0
POINT
  5
27F
330
26B
100
AcDbEntity
  8
Defpoints
 62
     0
100
AcDbPoint
 10
271.1564237886979
 20
241.8017765652365
 30
0.0
 50
0.0
  0
POINT
  5
280
330
26B
100
AcDbEntity
  8
Defpoints
 62
     0
100
AcDbPoint
 10
284.5278157345405
 20
237.6537797679071
 30
0.0
 50
0.0
  0
ENDBLK
  5
276
330
26B
100
AcDbEntity
  8
0
100
AcDbBlockEnd
  0
BLOCK
  5
28D
330
283
100
AcDbEntity
  8
0
100
AcDbBlockBegin
  2
*D14
 70
     1
 10
0.0
 20
0.0
 30
0.0
  3
*D14
  1

  0
LINE
  5
290
330
283
100
AcDbEntity
  8
文本层
370
    -2
 62
     0
100
AcDbLine
 10
304.7511684656864
 20
195.6803949329416
 30
0.0
 11
294.9595017990197
 21
195.6803949329417
 31
0.0
  0
LINE
  5
291
330
283
100
AcDbEntity
  8
文本层
370
    -2
 62
     0
100
AcDbLine
 10
294.9595017990197
 20
195.6803949329417
 30
0.0
 11
283.6376847305221
 21
224.814313555985
 31
0.0
  0
LINE
  5
292
330
283
100
AcDbEntity
  8
文本层
370
    -2
 62
     0
100
AcDbLine
 10
272.0465547927163
 20
254.6412427771587
 30
0.0
 11
270.7787749557688
 21
257.9035631607245
 31
0.0
  0
MTEXT
  5
293
330
283
100
AcDbEntity
  8
文本层
 62
     0
100
AcDbMText
 10
300.1678351323531
 20
198.8053949329416
 30
0.0
210
0.0
220
0.0
230
1.0
 11
1.0
 21
0.0
 31
0.0
 40
5.0
 41
0.0
 71
     5
 72
     1
  1
\U+220525
  7
数字与字母
 73
     1
 44
1.0
  0
LINE
  5
294
330
283
100
AcDbEntity
  8
文本层
370
    -2
 62
     0
100
AcDbLine
 10
273.3143346296638
 20
251.3789223935928
 30
0.0
 11
282.3699048935746
 21
228.0766339395509
 31
0.0
  0
SOLID
  5
295
330
283
100
AcDbEntity
  8
文本层
 62
     0
100
AcDbTrace
 38
0.0
 10
272.5902748566439
 20
254.8525394166499
 11
271.5028347287886
 21
254.4299461376674
 12
273.3143346296638
 22
251.3789223935928
 13
273.3143346296638
 23
251.3789223935928
  0
SOLID
  5
296
330
283
100
AcDbEntity
  8
文本层
 62
     0
100
AcDbTrace
 38
0.0
 10
284.1814047944497
 20
225.0256101954762
 11
283.0939646665944
 21
224.6030169164938
 12
282.3699048935746
 22
228.0766339395509
 13
282.3699048935746
 23
228.0766339395509
  0
POINT
  5
297
330
283
100
AcDbEntity
  8
Defpoints
 62
     0
100
AcDbPoint
 10
282.3699048935746
 20
228.0766339395509
 30
0.0
 50
0.0
  0
POINT
  5
298
330
283
100
AcDbEntity
  8
Defpoints
 62
     0
100
AcDbPoint
 10
273.3143346296638
 20
251.3789223935928
 30
0.0
 50
0.0
  0
ENDBLK
  5
28E
330
283
100
AcDbEntity
  8
0
100
AcDbBlockEnd
  0
BLOCK
  5
2A5
330
29B
100
AcDbEntity
  8
0
100
AcDbBlockBegin
  2
*D15
 70
     1
 10
0.0
 20
0.0
 30
0.0
  3
*D15
  1

  0
LINE
  5
2A8
330
29B
100
AcDbEntity
  8
文本层
370
    -2
 62
     0
100
AcDbLine
 10
245.8268180247432
 20
194.9968448532875
 30
0.0
 11
255.6184846914099
 21
194.9968448532875
 31
0.0
  0
LINE
  5
2A9
330
29B
100
AcDbEntity
  8
文本层
370
    -2
 62
     0
100
AcDbLine
 10
255.6184846914099
 20
194.9968448532875
 30
0.0
 11
267.8309594230059
 21
219.5776747257809
 31
0.0
  0
LINE
  5
2AA
330
29B
100
AcDbEntity
  8
文本层
370
    -2
 62
     0
100
AcDbLine
 10
287.8532801002325
 20
259.8778816073628
 30
0.0
 11
289.4105717084612
 21
263.0123421425969
 31
0.0
  0
MTEXT
  5
2AB
330
29B
100
AcDbEntity
  8
文本层
 62
     0
100
AcDbMText
 10
250.4101513580765
 20
198.1218448532875
 30
0.0
210
0.0
220
0.0
230
1.0
 11
1.0
 21
0.0
 31
0.0
 40
5.0
 41
0.0
 71
     5
 72
     1
  1
\U+220538
  7
数字与字母
 73
     1
 44
1.0
  0
LINE
  5
2AC
330
29B
100
AcDbEntity
  8
文本层
370
    -2
 62
     0
100
AcDbLine
 10
286.2959884920037
 20
256.7434210721286
 30
0.0
 11
269.3882510312346
 21
222.7121352610151
 31
0.0
  0
SOLID
  5
2AD
330
29B
100
AcDbEntity
  8
文本层
 62
     0
100
AcDbTrace
 38
0.0
 10
287.3308700110268
 20
260.1374302087343
 11
288.3756901894382
 21
259.6183330059914
 12
286.2959884920037
 22
256.7434210721286
 13
286.2959884920037
 23
256.7434210721286
  0
SOLID
  5
2AE
330
29B
100
AcDbEntity
  8
文本层
 62
     0
100
AcDbTrace
 38
0.0
 10
267.3085493338002
 20
219.8372233271524
 11
268.3533695122117
 21
219.3181261244094
 12
269.3882510312346
 22
222.7121352610151
 13
269.3882510312346
 23
222.7121352610151
  0
POINT
  5
2AF
330
29B
100
AcDbEntity
  8
Defpoints
 62
     0
100
AcDbPoint
 10
269.3882510312346
 20
222.7121352610151
 30
0.0
 50
0.0
  0
POINT
  5
2B0
330
29B
100
AcDbEntity
  8
Defpoints
 62
     0
100
AcDbPoint
 10
286.2959884920037
 20
256.7434210721286
 30
0.0
 50
0.0
  0
ENDBLK
  5
2A6
330
29B
100
AcDbEntity
  8
0
100
AcDbBlockEnd
  0
BLOCK
  5
2BD
330
2B3
100
AcDbEntity
  8
0
100
AcDbBlockBegin
  2
*D16
 70
     1
 10
0.0
 20
0.0
 30
0.0
  3
*D16
  1

  0
LINE
  5
318
330
2B3
100
AcDbEntity
  8
文本层
370
    -2
 62
     0
100
AcDbLine
 10
169.9415148956698
 20
124.6870846937032
 30
0.0
 11
153.6498482290031
 21
124.6870846937032
 31
0.0
  0
LINE
  5
319
330
2B3
100
AcDbEntity
  8
文本层
370
    -2
 62
     0
100
AcDbLine
 10
153.6498482290031
 20
124.6870846937032
 30
0.0
 11
145.9046960410114
 21
108.3152966657729
 31
0.0
  0
LINE
  5
31A
330
2B3
100
AcDbEntity
  8
文本层
370
    -2
 62
     0
100
AcDbLine
 10
137.779543482227
 20
91.14025966737083
 30
0.0
 11
136.2828048529773
 21
87.97643706240203
 31
0.0
  0
MTEXT
  5
31B
330
2B3
100
AcDbEntity
  8
文本层
 62
     0
100
AcDbMText
 10
162.1081815623365
 20
127.8120846937032
 30
0.0
210
0.0
220
0.0
230
1.0
 11
1.0
 21
0.0
 31
0.0
 40
5.0
 41
0.0
 71
     5
 72
     1
  1
{\f??|b0|i0|c0|p54;3x}\U+220512
  7
数字与字母
 73
     1
 44
1.0
  0
LINE
  5
31C
330
2B3
100
AcDbEntity
  8
文本层
370
    -2
 62
     0
100
AcDbLine
 10
139.2762821114768
 20
94.30408227233963
 30
0.0
 11
144.4079574117616
 21
105.1514740608041
 31
0.0
  0
SOLID
  5
31D
330
2B3
100
AcDbEntity
  8
文本层
 62
     0
100
AcDbTrace
 38
0.0
 10
137.2522397147322
 20
91.38971610557913
 11
138.3068472497218
 21
90.89080322916254
 12
139.2762821114768
 22
94.30408227233963
 13
139.2762821114768
 23
94.30408227233963
  0
SOLID
  5
31E
330
2B3
100
AcDbEntity
  8
文本层
 62
     0
100
AcDbTrace
 38
0.0
 10
145.3773922735166
 20
108.5647531039812
 11
146.4319998085062
 21
108.0658402275646
 12
144.4079574117616
 22
105.1514740608041
 13
144.4079574117616
 23
105.1514740608041
  0
POINT
  5
31F
330
2B3
100
AcDbEntity
  8
Defpoints
 62
     0
100
AcDbPoint
 10
144.4079574117616
 20
105.1514740608041
 30
0.0
 50
0.0
  0
POINT
  5
320
330
2B3
100
AcDbEntity
  8
Defpoints
 62
     0
100
AcDbPoint
 10
139.2762821114768
 20
94.30408227233963
 30
0.0
 50
0.0
  0
ENDBLK
  5
2BE
330
2B3
100
AcDbEntity
  8
0
100
AcDbBlockEnd
  0
BLOCK
  5
2D5
330
2CB
100
AcDbEntity
  8
0
100
AcDbBlockBegin
  2
*D17
 70
     1
 10
0.0
 20
0.0
 30
0.0
  3
*D17
  1

  0
LINE
  5
321
330
2CB
100
AcDbEntity
  8
文本层
370
    -2
 62
     0
100
AcDbLine
 10
178.2947583564057
 20
71.56145725060286
 30
0.0
 11
162.003091689739
 21
71.56145725060287
 31
0.0
  0
LINE
  5
322
330
2CB
100
AcDbEntity
  8
文本层
370
    -2
 62
     0
100
AcDbLine
 10
162.003091689739
 20
71.56145725060287
 30
0.0
 11
151.1548249833067
 21
86.71726236380854
 31
0.0
  0
LINE
  5
323
330
2CB
100
AcDbEntity
  8
文本层
370
    -2
 62
     0
100
AcDbLine
 10
132.5294145399317
 20
112.7382939693352
 30
0.0
 11
130.4922602726875
 21
115.5843443011897
 31
0.0
  0
MTEXT
  5
324
330
2CB
100
AcDbEntity
  8
文本层
 62
     0
100
AcDbMText
 10
170.4614250230723
 20
74.68645725060287
 30
0.0
210
0.0
220
0.0
230
1.0
 11
1.0
 21
0.0
 31
0.0
 40
5.0
 41
0.0
 71
     5
 72
     1
  1
{\f??|b0|i0|c0|p54;3x}\U+220525
  7
数字与字母
 73
     1
 44
1.0
  0
LINE
  5
325
330
2CB
100
AcDbEntity
  8
文本层
370
    -2
 62
     0
100
AcDbLine
 10
134.5665688071758
 20
109.8922436374807
 30
0.0
 11
149.1176707160625
 21
89.56331269566303
 31
0.0
  0
SOLID
  5
326
330
2CB
100
AcDbEntity
  8
文本层
 62
     0
100
AcDbTrace
 38
0.0
 10
133.0037562619074
 20
113.0778196805425
 11
132.0550728179559
 21
112.3987682581278
 12
134.5665688071758
 22
109.8922436374807
 13
134.5665688071758
 23
109.8922436374807
  0
SOLID
  5
327
330
2CB
100
AcDbEntity
  8
文本层
 62
     0
100
AcDbTrace
 38
0.0
 10
151.6291667052824
 20
87.0567880750159
 11
150.6804832613309
 21
86.37773665260119
 12
149.1176707160625
 22
89.56331269566303
 13
149.1176707160625
 23
89.56331269566303
  0
POINT
  5
328
330
2CB
100
AcDbEntity
  8
Defpoints
 62
     0
100
AcDbPoint
 10
149.1176707160625
 20
89.56331269566303
 30
0.0
 50
0.0
  0
POINT
  5
329
330
2CB
100
AcDbEntity
  8
Defpoints
 62
     0
100
AcDbPoint
 10
134.5665688071758
 20
109.8922436374807
 30
0.0
 50
0.0
  0
ENDBLK
  5
2D6
330
2CB
100
AcDbEntity
  8
0
100
AcDbBlockEnd
  0
BLOCK
  5
2EE
330
2E3
100
AcDbEntity
  8
0
100
AcDbBlockBegin
  2
*D18
 70
     1
 10
0.0
 20
0.0
 30
0.0
  3
*D18
  1

  0
ARC
  5
2F1
330
2E3
100
AcDbEntity
  8
文本层
370
    -2
 62
     0
100
AcDbCircle
 10
97.84211976161919
 20
99.72777816657185
 30
0.0
 40
68.51038653742933
100
AcDbArc
 50
122.9273961537394
 51
177.3856306121085
  0
ARC
  5
2F2
330
2E3
100
AcDbEntity
  8
文本层
370
    -2
 62
     0
100
AcDbCircle
 10
97.84211976161919
 20
99.72777816657185
 30
0.0
 40
68.51038653742933
100
AcDbArc
 50
182.6143693878916
 51
237.0726038462606
  0
SOLID
  5
2F3
330
2E3
100
AcDbEntity
  8
文本层
 62
     0
100
AcDbTrace
 38
0.0
 10
60.29705220732123
 20
157.7302259419712
 11
60.9060034840898
 21
156.7350930595715
 12
63.58692649290447
 22
159.0595133310771
 13
63.58692649290447
 23
159.0595133310771
  0
SOLID
  5
2F4
330
2E3
100
AcDbEntity
  8
文本层
 62
     0
100
AcDbTrace
 38
0.0
 10
60.90600348408985
 20
42.72046327357218
 11
60.29705220732129
 21
41.72533039117252
 12
63.58692649290453
 22
40.39604300206665
 13
63.58692649290453
 23
40.39604300206665
  0
MTEXT
  5
2F5
330
2E3
100
AcDbEntity
  8
文本层
 62
     0
100
AcDbMText
 10
29.33173322418984
 20
99.72777816657184
 30
0.0
210
0.0
220
0.0
230
1.0
 11
1.0
 21
0.0
 31
0.0
 40
5.0
 41
0.0
 71
     5
 72
     1
  1
120°
  7
数字与字母
 73
     1
 44
1.0
  0
POINT
  5
2F6
330
2E3
100
AcDbEntity
  8
Defpoints
 62
     0
100
AcDbPoint
 10
33.46341508520659
 20
123.1597103894004
 30
0.0
 50
0.0
  0
POINT
  5
2F7
330
2E3
100
AcDbEntity
  8
Defpoints
 62
     0
100
AcDbPoint
 10
97.84211976161919
 20
99.72777816657185
 30
0.0
 50
0.0
  0
POINT
  5
2F8
330
2E3
100
AcDbEntity
  8
Defpoints
 62
     0
100
AcDbPoint
 10
97.84211976161919
 20
99.72777816657185
 30
0.0
 50
0.0
  0
POINT
  5
2F9
330
2E3
100
AcDbEntity
  8
Defpoints
 62
     0
100
AcDbPoint
 10
59.92286484559678
 20
34.04970206686519
 30
0.0
 50
0.0
  0
POINT
  5
2FA
330
2E3
100
AcDbEntity
  8
Defpoints
 62
     0
100
AcDbPoint
 10
59.96064789559231
 20
165.3404121040214
 30
0.0
 50
0.0
  0
ENDBLK
  5
2EF
330
2E3
100
AcDbEntity
  8
0
100
AcDbBlockEnd
  0
BLOCK
  5
309
330
2FD
100
AcDbEntity
  8
0
100
AcDbBlockBegin
  2
*D19
 70
     1
 10
0.0
 20
0.0
 30
0.0
  3
*D19
  1

  0
LINE
  5
30C
330
2FD
100
AcDbEntity
  8
文本层
370
    -2
 62
     0
100
AcDbLine
 10
97.84211976161919
 20
139.7277781665719
 30
0.0
 11
97.84211976161917
 21
170.5079131472601
 31
0.0
  0
ARC
  5
30D
330
2FD
100
AcDbEntity
  8
文本层
370
    -2
 62
     0
100
AcDbCircle
 10
97.84211976161919
 20
99.72777816657185
 30
0.0
 40
68.28013498068827
100
AcDbArc
 50
92.93726996157983
 51
100.8735703439634
  0
ARC
  5
30E
330
2FD
100
AcDbEntity
  8
文本层
370
    -2
 62
     0
100
AcDbCircle
 10
97.84211976161919
 20
99.72777816657185
 30
0.0
 40
68.28013498068827
100
AcDbArc
 50
109.2078256440327
 51
117.0627300384202
  0
SOLID
  5
30F
330
2FD
100
AcDbEntity
  8
文本层
 62
     0
100
AcDbTrace
 38
0.0
 10
94.32831883027544
 20
168.5013508765286
 11
94.35822015761238
 21
167.3350674539702
 12
97.8421197616192
 22
168.0079131472601
 13
97.8421197616192
 23
168.0079131472601
  0
SOLID
  5
310
330
2FD
100
AcDbEntity
  8
文本层
 62
     0
100
AcDbTrace
 38
0.0
 10
67.05562067922443
 20
160.0193579724657
 11
66.49837427702587
 21
161.0443397080824
 12
63.70205227127499
 22
158.8601096336783
 13
63.70205227127499
 23
158.8601096336783
  0
MTEXT
  5
311
330
2FD
100
AcDbEntity
  8
文本层
 62
     0
100
AcDbMText
 10
80.1699204264462
 20
165.6813239669223
 30
0.0
210
0.0
220
0.0
230
1.0
 11
1.0
 21
0.0
 31
0.0
 40
5.0
 41
0.0
 71
     5
 72
     1
  1
30°
  7
数字与字母
 73
     1
 44
1.0
  0
POINT
  5
312
330
2FD
100
AcDbEntity
  8
Defpoints
 62
     0
100
AcDbPoint
 10
85.98539875137064
 20
166.9705844722737
 30
0.0
 50
0.0
  0
POINT
  5
313
330
2FD
100
AcDbEntity
  8
Defpoints
 62
     0
100
AcDbPoint
 10
97.84211976161919
 20
99.72777816657185
 30
0.0
 50
0.0
  0
POINT
  5
314
330
2FD
100
AcDbEntity
  8
Defpoints
 62
     0
100
AcDbPoint
 10
97.84211976161917
 20
59.72777816657185
 30
0.0
 50
0.0
  0
POINT
  5
315
330
2FD
100
AcDbEntity
  8
Defpoints
 62
     0
100
AcDbPoint
 10
97.84211976161919
 20
139.7277781665719
 30
0.0
 50
0.0
  0
POINT
  5
316
330
2FD
100
AcDbEntity
  8
Defpoints
 62
     0
100
AcDbPoint
 10
59.96064789559231
 20
165.3404121040214
 30
0.0
 50
0.0
  0
ENDBLK
  5
30A
330
2FD
100
AcDbEntity
  8
0
100
AcDbBlockEnd
  0
ENDSEC
  0
SECTION
  2
ENTITIES
  0
LINE
  5
AA
102
{ACAD_REACTORS
330
159
330
317
102
}
330
1F
100
AcDbEntity
  8
点划线
100
AcDbLine
 10
97.84211976161919
 20
59.72777816657185
 30
0.0
 11
97.84211976161919
 21
139.7277781665719
 31
0.0
  0
LINE
  5
AB
330
1F
100
AcDbEntity
  8
点划线
100
AcDbLine
 10
157.3421197616192
 20
99.72777816657185
 30
0.0
 11
54.84211976161919
 21
99.72777816657185
 31
0.0
  0
CIRCLE
  5
AC
330
1F
100
AcDbEntity
  8
轮廓线
100
AcDbCircle
 10
97.84211976161919
 20
99.72777816657185
 30
0.0
 40
24.5
  0
CIRCLE
  5
AD
330
1F
100
AcDbEntity
  8
轮廓线
100
AcDbCircle
 10
97.84211976161919
 20
99.72777816657185
 30
0.0
 40
37.0
  0
LINE
  5
B1
102
{ACAD_REACTORS
330
159
102
}
330
1F
100
AcDbEntity
  8
轮廓线
100
AcDbLine
 10
57.84211976161919
 20
125.2277781665719
 30
0.0
 11
57.84211976161919
 21
74.22777816657185
 31
0.0
  0
LINE
  5
B2
330
1F
100
AcDbEntity
  8
轮廓线
100
AcDbLine
 10
132.6666800603509
 20
112.2277781665719
 30
0.0
 11
141.8421197616192
 21
112.2277781665719
 31
0.0
  0
LINE
  5
B3
330
1F
100
AcDbEntity
  8
轮廓线
100
AcDbLine
 10
141.8421197616192
 20
87.22777816657185
 30
0.0
 11
132.6666800603509
 21
87.22777816657185
 31
0.0
  0
LINE
  5
B4
330
1F
100
AcDbEntity
  8
轮廓线
100
AcDbLine
 10
57.84211976161919
 20
125.2277781665719
 30
0.0
 11
71.03260652471016
 21
125.2277781665719
 31
0.0
  0
LINE
  5
B5
330
1F
100
AcDbEntity
  8
轮廓线
100
AcDbLine
 10
57.84211976161919
 20
74.22777816657185
 30
0.0
 11
71.03260652471016
 21
74.22777816657185
 31
0.0
  0
ARC
  5
B6
330
1F
100
AcDbEntity
  8
点划线
100
AcDbCircle
 10
97.84211976161919
 20
99.72777816657185
 30
0.0
 40
44.0
100
AcDbArc
 50
95.1336849009521
 51
142.0440152043556
  0
CIRCLE
  5
B7
102
{ACAD_REACTORS
330
2C9
102
}
330
1F
100
AcDbEntity
  8
轮廓线
100
AcDbCircle
 10
141.8421197616192
 20
99.72777816657185
 30
0.0
 40
6.0
  0
ARC
  5
B8
102
{ACAD_REACTORS
330
189
330
2E1
102
}
330
1F
100
AcDbEntity
  8
轮廓线
100
AcDbCircle
 10
141.8421197616192
 20
99.72777816657185
 30
0.0
 40
12.5
100
AcDbArc
 50
261.8337747809607
 51
98.16622521903935
  0
ARC
  5
BB
330
1F
100
AcDbEntity
  8
轮廓线
100
AcDbCircle
 10
75.84211976161924
 20
137.8328959330872
 30
0.0
 40
12.5
100
AcDbArc
 50
21.83377478096062
 51
218.1662252190393
  0
CIRCLE
  5
BC
330
1F
100
AcDbEntity
  8
轮廓线
100
AcDbCircle
 10
75.84211976161924
 20
137.8328959330872
 30
0.0
 40
6.0
  0
LINE
  5
BD
330
1F
100
AcDbEntity
  8
轮廓线
100
AcDbLine
 10
68.68593116754312
 20
125.2277781665718
 30
0.0
 11
65.01680221431371
 21
131.5828959330872
 31
0.0
  0
LINE
  5
BE
330
1F
100
AcDbEntity
  8
轮廓线
100
AcDbLine
 10
86.66743730892469
 20
144.0828959330871
 30
0.0
 11
91.25515715955885
 21
136.1367320608965
 31
0.0
  0
ARC
  5
BF
330
1F
100
AcDbEntity
  8
轮廓线
100
AcDbCircle
 10
75.84211976161917
 20
61.62266040005657
 30
0.0
 40
12.5
100
AcDbArc
 50
141.8337747809606
 51
338.1662252190393
  0
CIRCLE
  5
C0
330
1F
100
AcDbEntity
  8
轮廓线
100
AcDbCircle
 10
75.84211976161917
 20
61.62266040005657
 30
0.0
 40
6.0
  0
LINE
  5
C1
330
1F
100
AcDbEntity
  8
轮廓线
100
AcDbLine
 10
91.25515715955882
 20
63.31882427224724
 30
0.0
 11
86.66743730892466
 21
55.37266040005656
 31
0.0
  0
LINE
  5
C2
330
1F
100
AcDbEntity
  8
轮廓线
100
AcDbLine
 10
65.0168022143137
 20
67.87266040005659
 30
0.0
 11
68.68593116754305
 21
74.22777816657185
 31
0.0
  0
LINE
  5
C3
102
{ACAD_REACTORS
330
1D1
102
}
330
1F
100
AcDbEntity
  8
点划线
100
AcDbLine
 10
137.8421197616192
 20
239.7277781665719
 30
0.0
 11
52.84211976161919
 21
239.7277781665719
 31
0.0
  0
LINE
  5
C4
330
1F
100
AcDbEntity
  8
点划线
100
AcDbLine
 10
277.8421197616192
 20
208.7277781665719
 30
0.0
 11
277.8421197616192
 21
270.7277781665719
 31
0.0
  0
CIRCLE
  5
C5
102
{ACAD_REACTORS
330
281
102
}
330
1F
100
AcDbEntity
  8
轮廓线
100
AcDbCircle
 10
277.8421197616192
 20
239.7277781665719
 30
0.0
 40
7.0
  0
CIRCLE
  5
C6
102
{ACAD_REACTORS
330
299
102
}
330
1F
100
AcDbEntity
  8
轮廓线
100
AcDbCircle
 10
277.8421197616192
 20
239.7277781665719
 30
0.0
 40
12.5
  0
CIRCLE
  5
C7
102
{ACAD_REACTORS
330
2B1
102
}
330
1F
100
AcDbEntity
  8
点划线
100
AcDbCircle
 10
277.8421197616192
 20
239.7277781665719
 30
0.0
 40
19.0
  0
CIRCLE
  5
C8
102
{ACAD_REACTORS
330
269
102
}
330
1F
100
AcDbEntity
  8
轮廓线
100
AcDbCircle
 10
277.8421197616192
 20
239.7277781665719
 30
0.0
 40
25.5
  0
CIRCLE
  5
C9
102
{ACAD_REACTORS
330
251
102
}
330
1F
100
AcDbEntity
  8
轮廓线
100
AcDbCircle
 10
277.8421197616192
 20
258.7277781665719
 30
0.0
 40
2.5
  0
CIRCLE
  5
CA
330
1F
100
AcDbEntity
  8
轮廓线
100
AcDbCircle
 10
261.387637089715
 20
230.2277781665719
 30
0.0
 40
2.5
  0
CIRCLE
  5
CB
330
1F
100
AcDbEntity
  8
轮廓线
100
AcDbCircle
 10
294.2966024335235
 20
230.2277781665719
 30
0.0
 40
2.5
  0
LINE
  5
CD
330
1F
100
AcDbEntity
  8
轮廓线
100
AcDbLine
 10
240.8421197616192
 20
219.7277781665719
 30
0.0
 11
240.8421197616192
 21
267.7277781665719
 31
0.0
  0
LINE
  5
CE
330
1F
100
AcDbEntity
  8
轮廓线
100
AcDbLine
 10
240.8421197616192
 20
267.7277781665719
 30
0.0
 11
314.8421197616192
 21
267.7277781665719
 31
0.0
  0
LINE
  5
CF
102
{ACAD_REACTORS
330
221
102
}
330
1F
100
AcDbEntity
  8
轮廓线
100
AcDbLine
 10
228.3421197616192
 20
211.7277781665719
 30
0.0
 11
253.3421197616192
 21
211.7277781665719
 31
0.0
  0
LINE
  5
D1
330
1F
100
AcDbEntity
  8
轮廓线
100
AcDbLine
 10
228.3421197616192
 20
211.7277781665719
 30
0.0
 11
228.3421197616192
 21
219.7277781665719
 31
0.0
  0
LINE
  5
D2
330
1F
100
AcDbEntity
  8
轮廓线
100
AcDbLine
 10
253.3421197616192
 20
211.7277781665719
 30
0.0
 11
253.3421197616192
 21
219.7277781665719
 31
0.0
  0
LINE
  5
D3
330
1F
100
AcDbEntity
  8
轮廓线
100
AcDbLine
 10
327.3421197616192
 20
211.7277781665719
 30
0.0
 11
327.3421197616192
 21
219.7277781665719
 31
0.0
  0
LINE
  5
D4
330
1F
100
AcDbEntity
  8
轮廓线
100
AcDbLine
 10
302.3421197616192
 20
211.7277781665719
 30
0.0
 11
302.3421197616192
 21
219.7277781665719
 31
0.0
  0
LINE
  5
D5
102
{ACAD_REACTORS
330
221
102
}
330
1F
100
AcDbEntity
  8
轮廓线
100
AcDbLine
 10
228.3421197616192
 20
219.7277781665719
 30
0.0
 11
253.3421197616192
 21
219.7277781665719
 31
0.0
  0
LINE
  5
DC
102
{ACAD_REACTORS
330
239
102
}
330
1F
100
AcDbEntity
  8
轮廓线
100
AcDbLine
 10
302.3421197616192
 20
211.7277781665719
 30
0.0
 11
327.3421197616192
 21
211.7277781665719
 31
0.0
  0
LINE
  5
DD
330
1F
100
AcDbEntity
  8
轮廓线
100
AcDbLine
 10
302.3421197616192
 20
219.7277781665719
 30
0.0
 11
327.3421197616192
 21
219.7277781665719
 31
0.0
  0
LINE
  5
E2
102
{ACAD_REACTORS
330
239
102
}
330
1F
100
AcDbEntity
  8
轮廓线
100
AcDbLine
 10
314.8421197616192
 20
267.7277781665719
 30
0.0
 11
314.8421197616192
 21
219.7277781665719
 31
0.0
  0
LINE
  5
E3
330
1F
100
AcDbEntity
  8
轮廓线
100
AcDbLine
 10
253.3421197616192
 20
211.7277781665719
 30
0.0
 11
302.3421197616192
 21
211.7277781665719
 31
0.0
  0
LINE
  5
E4
102
{ACAD_REACTORS
330
1E9
102
}
330
1F
100
AcDbEntity
  8
轮廓线
100
AcDbLine
 10
60.84211976161919
 20
267.7277781665719
 30
0.0
 11
134.8421197616192
 21
267.7277781665719
 31
0.0
  0
LINE
  5
E5
330
1F
100
AcDbEntity
  8
轮廓线
100
AcDbLine
 10
55.84211976161922
 20
265.2277781665719
 30
0.0
 11
60.84211976161919
 21
265.2277781665719
 31
0.0
  0
LINE
  5
E6
330
1F
100
AcDbEntity
  8
轮廓线
100
AcDbLine
 10
55.84211976161919
 20
252.2277781665719
 30
0.0
 11
60.84211976161919
 21
252.2277781665719
 31
0.0
  0
LINE
  5
E7
102
{ACAD_REACTORS
330
205
102
}
330
1F
100
AcDbEntity
  8
轮廓线
100
AcDbLine
 10
60.84211976161919
 20
246.7277781665719
 30
0.0
 11
73.34211976161919
 21
246.7277781665719
 31
0.0
  0
LINE
  5
E8
330
1F
100
AcDbEntity
  8
轮廓线
100
AcDbLine
 10
60.84211976161919
 20
232.7277781665719
 30
0.0
 11
73.34211976161919
 21
232.7277781665719
 31
0.0
  0
LINE
  5
E9
330
1F
100
AcDbEntity
  8
轮廓线
100
AcDbLine
 10
55.84211976161919
 20
227.2277781665719
 30
0.0
 11
60.84211976161919
 21
227.2277781665719
 31
0.0
  0
LINE
  5
EB
330
1F
100
AcDbEntity
  8
轮廓线
100
AcDbLine
 10
55.84211976161919
 20
214.2277781665719
 30
0.0
 11
60.84211976161919
 21
214.2277781665719
 31
0.0
  0
LINE
  5
EC
102
{ACAD_REACTORS
330
1D1
102
}
330
1F
100
AcDbEntity
  8
轮廓线
100
AcDbLine
 10
60.84211976161919
 20
211.7277781665719
 30
0.0
 11
154.3421197616192
 21
211.7277781665719
 31
0.0
  0
LINE
  5
EE
330
1F
100
AcDbEntity
  8
轮廓线
100
AcDbLine
 10
60.84211976161919
 20
211.7277781665719
 30
0.0
 11
60.84211976161919
 21
214.2277781665719
 31
0.0
  0
LINE
  5
EF
102
{ACAD_REACTORS
330
1A1
102
}
330
1F
100
AcDbEntity
  8
轮廓线
100
AcDbLine
 10
73.34211976161919
 20
211.7277781665719
 30
0.0
 11
73.34211976161919
 21
232.7277781665719
 31
0.0
  0
LINE
  5
F0
102
{ACAD_REACTORS
330
1A1
102
}
330
1F
100
AcDbEntity
  8
轮廓线
100
AcDbLine
 10
122.3421197616192
 20
211.7277781665719
 30
0.0
 11
122.3421197616192
 21
232.7277781665718
 31
0.0
  0
LINE
  5
F1
330
1F
100
AcDbEntity
  8
轮廓线
100
AcDbLine
 10
134.8421197616192
 20
219.7277781665719
 30
0.0
 11
134.8421197616192
 21
267.7277781665719
 31
0.0
  0
LINE
  5
F2
330
1F
100
AcDbEntity
  8
轮廓线
100
AcDbLine
 10
135.8421197616192
 20
211.7277781665719
 30
0.0
 11
135.8421197616192
 21
219.7277781665719
 31
0.0
  0
LINE
  5
F3
330
1F
100
AcDbEntity
  8
轮廓线
100
AcDbLine
 10
147.8421197616192
 20
211.7277781665719
 30
0.0
 11
147.8421197616192
 21
219.7277781665719
 31
0.0
  0
LINE
  5
F4
330
1F
100
AcDbEntity
  8
轮廓线
100
AcDbLine
 10
154.3421197616192
 20
211.7277781665719
 30
0.0
 11
154.3421197616192
 21
219.7277781665719
 31
0.0
  0
LINE
  5
F6
102
{ACAD_REACTORS
330
1B9
330
205
102
}
330
1F
100
AcDbEntity
  8
轮廓线
100
AcDbLine
 10
55.84211976161919
 20
265.2277781665719
 30
0.0
 11
55.84211976161919
 21
214.2277781665719
 31
0.0
  0
LINE
  5
FB
330
1F
100
AcDbEntity
  8
轮廓线
100
AcDbLine
 10
134.8421197616192
 20
219.7277781665719
 30
0.0
 11
154.3421197616192
 21
219.7277781665719
 31
0.0
  0
LINE
  5
FE
330
1F
100
AcDbEntity
  8
轮廓线
100
AcDbLine
 10
122.3421197616192
 20
232.7277781665719
 30
0.0
 11
126.8421197616192
 21
232.7277781665718
 31
0.0
  0
LINE
  5
FF
330
1F
100
AcDbEntity
  8
轮廓线
100
AcDbLine
 10
60.84211976161919
 20
227.2277781665719
 30
0.0
 11
60.84211976161919
 21
252.2277781665719
 31
0.0
  0
LINE
  5
101
330
1F
100
AcDbEntity
  8
轮廓线
100
AcDbLine
 10
60.84211976161919
 20
265.2277781665719
 30
0.0
 11
60.84211976161919
 21
267.7277781665719
 31
0.0
  0
LINE
  5
104
330
1F
100
AcDbEntity
  8
轮廓线
100
AcDbLine
 10
122.3421197616192
 20
246.7277781665719
 30
0.0
 11
126.8421197616192
 21
246.7277781665718
 31
0.0
  0
LINE
  5
107
102
{ACAD_REACTORS
330
1B9
102
}
330
1F
100
AcDbEntity
  8
轮廓线
100
AcDbLine
 10
126.8421197616192
 20
246.7277781665719
 30
0.0
 11
126.8421197616192
 21
232.7277781665718
 31
0.0
  0
ARC
  5
10A
330
1F
100
AcDbEntity
  8
轮廓线
100
AcDbCircle
 10
49.34211976161909
 20
239.7277781665719
 30
0.0
 40
25.0000000000001
100
AcDbArc
 50
343.7397952916881
 51
16.26020470831195
  0
ARC
  5
10B
330
1F
100
AcDbEntity
  8
轮廓线
100
AcDbCircle
 10
146.3421197616191
 20
239.7277781665719
 30
0.0
 40
24.99999999999992
100
AcDbArc
 50
163.739795291688
 51
196.260204708312
  0
HATCH
  5
12E
330
1F
100
AcDbEntity
  8
剖面线
100
AcDbHatch
 10
0.0
 20
0.0
 30
0.0
210
0.0
220
0.0
230
1.0
  2
_USER
 70
     0
 71
     0
 91
        5
 92
        7
 72
     0
 73
     1
 93
        8
 10
73.34211976161919
 20
267.7277781665719
 10
60.84211976161919
 20
267.7277781665719
 10
60.84211976161919
 20
265.2277781665719
 10
55.84211976161919
 20
265.2277781665719
 10
55.84211976161919
 20
252.2277781665719
 10
60.84211976161918
 20
252.2277781665718
 10
60.84211976161919
 20
246.7277781665719
 10
73.34211976161919
 20
246.7277781665719
 97
        0
 92
        7
 72
     0
 73
     1
 93
        8
 10
73.34211976161919
 20
232.7277781665718
 10
60.84211976161919
 20
232.7277781665719
 10
60.84211976161919
 20
227.2277781665719
 10
55.84211976161919
 20
227.2277781665719
 10
55.84211976161919
 20
214.2277781665719
 10
60.84211976161919
 20
214.2277781665719
 10
60.84211976161919
 20
211.7277781665719
 10
73.34211976161919
 20
211.7277781665719
 97
        0
 92
        7
 72
     0
 73
     1
 93
        6
 10
134.8421197616192
 20
267.7277781665719
 10
122.3421197616192
 20
267.7277781665719
 10
122.3421197616192
 20
246.7277781665718
 10
126.8421197616192
 20
246.7277781665718
 10
126.8421197616192
 20
239.7277781665718
 10
134.8421197616192
 20
239.7277781665718
 97
        0
 92
        7
 72
     0
 73
     1
 93
        8
 10
134.8421197616192
 20
239.7277781665718
 10
126.8421197616192
 20
239.7277781665718
 10
126.8421197616192
 20
232.7277781665718
 10
122.3421197616192
 20
232.7277781665719
 10
122.3421197616192
 20
211.7277781665719
 10
135.8421197616192
 20
211.7277781665719
 10
135.8421197616192
 20
219.7277781665718
 10
134.8421197616192
 20
219.7277781665719
 97
        0
 92
        7
 72
     0
 73
     1
 93
        4
 10
154.3421197616192
 20
219.7277781665718
 10
147.8421197616192
 20
219.7277781665718
 10
147.8421197616192
 20
211.7277781665719
 10
154.3421197616192
 20
211.7277781665718
 97
        0
 75
     0
 76
     0
 52
45.0
 41
3.0
 77
     0
 78
     1
 53
45.0
 43
0.0
 44
0.0
 45
-2.121320343559642
 46
2.121320343559643
 79
     0
 47
0.1980827453589092
 98
        5
 10
65.37872397220508
 20
257.2739880175941
 10
65.97352969418307
 20
224.3922514830565
 10
129.8160818524429
 20
256.2835742749879
 10
130.4108888635647
 20
229.9385685816568
 10
151.2291123373823
 20
215.6766108281323
  0
LINE
  5
12F
330
1F
100
AcDbEntity
  8
轮廓线
100
AcDbLine
 10
122.3421197616192
 20
246.7277781665718
 30
0.0
 11
122.3421197616192
 21
267.7277781665719
 31
0.0
  0
LINE
  5
130
330
1F
100
AcDbEntity
  8
轮廓线
100
AcDbLine
 10
73.34211976161919
 20
246.7277781665719
 30
0.0
 11
73.34211976161919
 21
267.7277781665719
 31
0.0
  0
LINE
  5
13B
330
1F
100
AcDbEntity
  8
点划线
100
AcDbLine
 10
237.8421197616192
 20
239.7277781665719
 30
0.0
 11
317.8421197616192
 21
239.7277781665719
 31
0.0
  0
LINE
  5
13C
330
1F
100
AcDbEntity
  8
点划线
100
AcDbLine
 10
97.84211976161919
 20
208.7277781665719
 30
0.0
 11
97.84211976161919
 21
270.7277781665719
 31
0.0
  0
ARC
  5
13D
330
1F
100
AcDbEntity
  8
点划线
100
AcDbCircle
 10
97.84211976161919
 20
99.72777816657185
 30
0.0
 40
44.0
100
AcDbArc
 50
218.8409192621511
 51
263.4082919911373
  0
ARC
  5
13E
102
{ACAD_REACTORS
330
171
102
}
330
1F
100
AcDbEntity
  8
点划线
100
AcDbCircle
 10
97.84211976161919
 20
99.72777816657185
 30
0.0
 40
44.0
100
AcDbArc
 50
336.4635039462095
 51
25.48427021352955
  0
LINE
  5
13F
102
{ACAD_REACTORS
330
2FB
330
317
102
}
330
1F
100
AcDbEntity
  8
点划线
100
AcDbLine
 10
97.84211976161919
 20
99.72777816657185
 30
0.0
 11
59.96064789559231
 21
165.3404121040214
 31
0.0
  0
LINE
  5
140
102
{ACAD_REACTORS
330
2FB
102
}
330
1F
100
AcDbEntity
  8
点划线
100
AcDbLine
 10
97.84211976161919
 20
99.72777816657185
 30
0.0
 11
59.92286484559678
 21
34.04970206686519
 31
0.0
  0
DIMENSION
  5
141
102
{ACAD_REACTORS
330
159
102
}
102
{ACAD_XDICTIONARY
360
14F
102
}
330
1F
100
AcDbEntity
  8
文本层
100
AcDbDimension
  2
*D1
 10
97.84211976161919
 20
22.85823808975601
 30
0.0
 11
77.84211976161919
 21
25.98323808975601
 31
0.0
 70
    32
 71
     5
 42
40.0
  3
机械标注
100
AcDbAlignedDimension
 13
57.84211976161919
 23
74.22777816657185
 33
0.0
 14
97.84211976161919
 24
59.72777816657185
 34
0.0
 52
0.0
100
AcDbRotatedDimension
  0
DIMENSION
  5
15A
102
{ACAD_REACTORS
330
171
102
}
102
{ACAD_XDICTIONARY
360
167
102
}
330
1F
100
AcDbEntity
  8
文本层
100
AcDbDimension
  2
*D2
 10
141.8421197616192
 20
22.88496300548854
 30
0.0
 11
119.8421197616192
 21
26.00996300548854
 31
0.0
 70
    32
 71
     5
 42
44.0
  3
机械标注
100
AcDbAlignedDimension
 13
97.84211976161919
 23
44.8647322894949
 33
0.0
 14
141.8421197616192
 24
99.72777816657185
 34
0.0
 52
0.0
100
AcDbRotatedDimension
  0
DIMENSION
  5
172
102
{ACAD_REACTORS
330
189
102
}
102
{ACAD_XDICTIONARY
360
17F
102
}
330
1F
100
AcDbEntity
  8
文本层
100
AcDbDimension
  2
*D3
 10
169.0081487248347
 20
87.22777816657184
 30
0.0
 11
165.8831487248346
 21
99.72777816657187
 31
0.0
 70
    32
 71
     5
 42
25.0
  3
机械标注
100
AcDbAlignedDimension
 13
141.8421197616192
 23
112.2277781665719
 33
0.0
 14
141.8421197616192
 24
87.22777816657185
 34
0.0
 52
0.0
 50
90.0
100
AcDbRotatedDimension
  0
DIMENSION
  5
18A
102
{ACAD_REACTORS
330
1A1
102
}
102
{ACAD_XDICTIONARY
360
197
102
}
330
1F
100
AcDbEntity
  8
文本层
100
AcDbDimension
  2
*D4
 10
122.3421197616192
 20
195.8369152818028
 30
0.0
 11
97.84211976161919
 21
198.9619152818028
 31
0.0
 70
    32
 71
     5
 42
49.0
  3
机械标注
100
AcDbAlignedDimension
 13
73.34211976161919
 23
211.7277781665719
 33
0.0
 14
122.3421197616192
 24
211.7277781665719
 34
0.0
 52
0.0
100
AcDbRotatedDimension
  0
DIMENSION
  5
1A2
102
{ACAD_REACTORS
330
1B9
102
}
102
{ACAD_XDICTIONARY
360
1AF
102
}
330
1F
100
AcDbEntity
  8
文本层
100
AcDbDimension
  2
*D5
 10
126.8421197616192
 20
179.9462679267531
 30
0.0
 11
91.34211976161919
 21
183.0712679267531
 31
0.0
 70
    32
 71
     5
 42
71.0
  3
机械标注
100
AcDbAlignedDimension
 13
55.84211976161919
 23
214.2277781665719
 33
0.0
 14
126.8421197616192
 24
232.7277781665718
 34
0.0
 52
0.0
100
AcDbRotatedDimension
  0
DIMENSION
  5
1BA
102
{ACAD_REACTORS
330
1D1
102
}
102
{ACAD_XDICTIONARY
360
1C7
102
}
330
1F
100
AcDbEntity
  8
文本层
100
AcDbDimension
  2
*D6
 10
169.7538164820589
 20
239.7277781665719
 30
0.0
 11
166.6288164820589
 21
225.7277781665719
 31
0.0
 70
    32
 71
     5
 42
28.0
  3
机械标注
100
AcDbAlignedDimension
 13
154.3421197616192
 23
211.7277781665719
 33
0.0
 14
137.8421197616192
 24
239.7277781665719
 34
0.0
 52
0.0
 50
90.0
100
AcDbRotatedDimension
  0
DIMENSION
  5
1D2
102
{ACAD_REACTORS
330
1E9
102
}
102
{ACAD_XDICTIONARY
360
1DF
102
}
330
1F
100
AcDbEntity
  8
文本层
100
AcDbDimension
  2
*D7
 10
134.8421197616192
 20
284.1593512482675
 30
0.0
 11
97.84211976161919
 21
287.2843512482675
 31
0.0
 70
    32
 71
     5
 42
74.0
  3
机械标注
100
AcDbAlignedDimension
 13
60.84211976161919
 23
267.7277781665719
 33
0.0
 14
134.8421197616192
 24
267.7277781665719
 34
0.0
 52
0.0
100
AcDbRotatedDimension
  0
DIMENSION
  5
1EA
102
{ACAD_REACTORS
330
205
102
}
102
{ACAD_XDICTIONARY
360
1F9
102
}
330
1F
100
AcDbEntity
  8
文本层
100
AcDbDimension
  2
*D8
 10
55.84211976161919
 20
246.9264131378263
 30
0.0
 11
46.57215372576843
 21
246.9264131378263
 31
0.0
 70
   160
 71
     5
 42
5.0
  3
机械标注
100
AcDbAlignedDimension
 13
60.84211976161919
 23
246.7277781665719
 33
0.0
 14
55.84211976161919
 24
246.7277781665719
 34
0.0
 52
0.0
100
AcDbRotatedDimension
  0
DIMENSION
  5
206
102
{ACAD_REACTORS
330
221
102
}
102
{ACAD_XDICTIONARY
360
215
102
}
330
1F
100
AcDbEntity
  8
文本层
100
AcDbDimension
  2
*D9
 10
216.7307395139587
 20
211.7277781665719
 30
0.0
 11
213.6057395139587
 21
215.7277781665719
 31
0.0
 70
    32
 71
     5
 42
8.0
  3
机械标注
100
AcDbAlignedDimension
 13
228.3421197616192
 23
219.7277781665719
 33
0.0
 14
228.3421197616192
 24
211.7277781665719
 34
0.0
 52
0.0
 50
90.0
100
AcDbRotatedDimension
  0
DIMENSION
  5
222
102
{ACAD_REACTORS
330
239
102
}
102
{ACAD_XDICTIONARY
360
22F
102
}
330
1F
100
AcDbEntity
  8
文本层
100
AcDbDimension
  2
*D10
 10
346.184171194559
 20
267.7277781665719
 30
0.0
 11
343.0591711945589
 21
239.7277781665719
 31
0.0
 70
    32
 71
     5
 42
55.99999999999997
  3
机械标注
100
AcDbAlignedDimension
 13
327.3421197616192
 23
211.7277781665719
 33
0.0
 14
314.8421197616192
 24
267.7277781665719
 34
0.0
 52
0.0
 50
90.0
100
AcDbRotatedDimension
  0
DIMENSION
  5
23A
102
{ACAD_REACTORS
330
251
102
}
102
{ACAD_XDICTIONARY
360
247
102
}
330
1F
100
AcDbEntity
  8
文本层
100
AcDbDimension
  2
*D11
 10
276.3610459900308
 20
256.7137224366793
 30
0.0
 11
298.75452311966
 21
277.9300293907392
 31
0.0
 70
   163
  1
{\f??|b0|i0|c0|p54;3x}<>
 71
     5
 42
5.0
  3
机械标注
100
AcDbDiametricDimension
 15
279.3231935332076
 25
260.7418338964644
 35
0.0
 40
0.0
1001
ACAD
1000
DSTYLE
1002
{
1070
   288
1070
     1
1002
}
  0
DIMENSION
  5
252
102
{ACAD_REACTORS
330
269
102
}
102
{ACAD_XDICTIONARY
360
25F
102
}
330
1F
100
AcDbEntity
  8
文本层
100
AcDbDimension
  2
*D12
 10
292.6315871336408
 20
218.9546788587674
 30
0.0
 11
244.8573710935369
 21
278.9762786554833
 31
0.0
 70
   163
 71
     5
 42
51.00000000000003
  3
机械标注
100
AcDbDiametricDimension
 15
263.0526523895975
 25
260.5008774743764
 35
0.0
 40
0.0
1001
ACAD
1000
DSTYLE
1002
{
1070
   288
1070
     1
1002
}
  0
DIMENSION
  5
26A
102
{ACAD_REACTORS
330
281
102
}
102
{ACAD_XDICTIONARY
360
277
102
}
330
1F
100
AcDbEntity
  8
文本层
100
AcDbDimension
  2
*D13
 10
284.5278157345405
 20
237.6537797679071
 30
0.0
 11
209.6174200562686
 21
259.250504038941
 31
0.0
 70
   163
 71
     5
 42
14.0
  3
机械标注
100
AcDbDiametricDimension
 15
271.1564237886979
 25
241.8017765652365
 35
0.0
 40
0.0
1001
ACAD
1000
DSTYLE
1002
{
1070
   288
1070
     1
1002
}
  0
DIMENSION
  5
282
102
{ACAD_REACTORS
330
299
102
}
102
{ACAD_XDICTIONARY
360
28F
102
}
330
1F
100
AcDbEntity
  8
文本层
100
AcDbDimension
  2
*D14
 10
273.3143346296638
 20
251.3789223935928
 30
0.0
 11
300.1678351323531
 21
195.6803949329416
 31
0.0
 70
   163
 71
     5
 42
25.0
  3
机械标注
100
AcDbDiametricDimension
 15
282.3699048935746
 25
228.0766339395509
 35
0.0
 40
0.0
1001
ACAD
1000
DSTYLE
1002
{
1070
   288
1070
     1
1002
}
  0
DIMENSION
  5
29A
102
{ACAD_REACTORS
330
2B1
102
}
102
{ACAD_XDICTIONARY
360
2A7
102
}
330
1F
100
AcDbEntity
  8
文本层
100
AcDbDimension
  2
*D15
 10
286.2959884920037
 20
256.7434210721286
 30
0.0
 11
250.4101513580765
 21
194.9968448532875
 31
0.0
 70
   163
 71
     5
 42
37.99999999999989
  3
机械标注
100
AcDbDiametricDimension
 15
269.3882510312346
 25
222.7121352610151
 35
0.0
 40
0.0
1001
ACAD
1000
DSTYLE
1002
{
1070
   288
1070
     1
1002
}
  0
DIMENSION
  5
2B2
102
{ACAD_REACTORS
330
2C9
102
}
102
{ACAD_XDICTIONARY
360
2BF
102
}
330
1F
100
AcDbEntity
  8
文本层
100
AcDbDimension
  2
*D16
 10
139.2762821114768
 20
94.30408227233963
 30
0.0
 11
162.1081815623365
 21
124.6870846937032
 31
0.0
 70
   163
  1
{\f??|b0|i0|c0|p54;3x}<>
 71
     5
 42
12.0
  3
机械标注
100
AcDbDiametricDimension
 15
144.4079574117616
 25
105.1514740608041
 35
0.0
 40
0.0
1001
ACAD
1000
DSTYLE
1002
{
1070
   288
1070
     1
1002
}
  0
DIMENSION
  5
2CA
102
{ACAD_REACTORS
330
2E1
102
}
102
{ACAD_XDICTIONARY
360
2D7
102
}
330
1F
100
AcDbEntity
  8
文本层
100
AcDbDimension
  2
*D17
 10
134.5665688071758
 20
109.8922436374807
 30
0.0
 11
170.4614250230723
 21
71.56145725060287
 31
0.0
 70
   163
  1
{\f??|b0|i0|c0|p54;3x}<>
 71
     5
 42
24.99999999999997
  3
机械标注
100
AcDbDiametricDimension
 15
149.1176707160625
 25
89.56331269566303
 35
0.0
 40
0.0
1001
ACAD
1000
DSTYLE
1002
{
1070
   288
1070
     1
1002
}
  0
DIMENSION
  5
2E2
102
{ACAD_REACTORS
330
2FB
102
}
102
{ACAD_XDICTIONARY
360
2F0
102
}
330
1F
100
AcDbEntity
  8
文本层
100
AcDbDimension
  2
*D18
 10
33.46341508520659
 20
123.1597103894004
 30
0.0
 11
29.33173322418985
 21
99.72777816657184
 31
0.0
 70
    34
 71
     5
 42
2.094395102393195
  3
机械标注$2
100
AcDb2LineAngularDimension
 13
97.84211976161919
 23
99.72777816657185
 33
0.0
 14
59.92286484559678
 24
34.04970206686519
 34
0.0
 15
97.84211976161919
 25
99.72777816657185
 35
0.0
 16
59.96064789559231
 26
165.3404121040214
 36
0.0
  0
DIMENSION
  5
2FC
102
{ACAD_REACTORS
330
317
102
}
102
{ACAD_XDICTIONARY
360
30B
102
}
330
1F
100
AcDbEntity
  8
文本层
100
AcDbDimension
  2
*D19
 10
85.98539875137064
 20
166.9705844722737
 30
0.0
 11
80.1699204264462
 21
165.6813239669223
 31
0.0
 70
    34
 71
     5
 42
0.5235987755982998
  3
机械标注$2
100
AcDb2LineAngularDimension
 13
97.84211976161919
 23
59.72777816657185
 33
0.0
 14
97.84211976161919
 24
139.7277781665719
 34
0.0
 15
97.84211976161919
 25
99.72777816657185
 35
0.0
 16
59.96064789559231
 26
165.3404121040214
 36
0.0
  0
VIEWPORT
  5
34D
330
5E
100
AcDbEntity
 67
     1
  8
0
100
AcDbViewport
 10
133.3499908447266
 20
101.5999970436096
 30
0.0
 40
420.6540395483951
 41
228.4221935424805
 68
     1
 69
     1
 12
133.3499908447266
 22
101.5999970436096
 13
0.0
 23
0.0
 14
10.0
 24
10.0
 15
10.0
 25
10.0
 16
0.0
 26
0.0
 36
1.0
 17
0.0
 27
0.0
 37
0.0
 42
50.0
 43
0.0
 44
0.0
 45
228.4221935424805
 50
0.0
 51
0.0
 72
   100
 90
    32800
  1

281
     0
 71
     1
 74
     0
110
0.0
120
0.0
130
0.0
111
1.0
121
0.0
131
0.0
112
0.0
122
1.0
132
0.0
 79
     0
146
0.0
348
0
340
0
345
0
346
0
  0
VIEWPORT
  5
34F
330
5E
100
AcDbEntity
 67
     1
  8
文本层
100
AcDbViewport
 10
133.3499939441681
 20
101.5999939441681
 30
0.0
 40
213.3599903106689
 41
162.5599903106689
 68
     1
 69
     2
 12
185.7509800340599
 22
155.0712946690118
 13
0.0
 23
0.0
 14
10.0
 24
10.0
 15
10.0
 25
10.0
 16
0.0
 26
0.0
 36
1.0
 17
0.0
 27
0.0
 37
0.0
 42
50.0
 43
0.0
 44
0.0
 45
274.111784691703
 50
0.0
 51
0.0
 72
   100
 90
    32864
  1

281
     0
 71
     1
 74
     0
110
0.0
120
0.0
130
0.0
111
1.0
121
0.0
131
0.0
112
0.0
122
1.0
132
0.0
 79
     0
146
0.0
348
0
340
0
345
0
346
0
  0
ENDSEC
  0
SECTION
  2
OBJECTS
  0
DICTIONARY
  5
C
330
0
100
AcDbDictionary
281
     1
  3
ACAD_GROUP
350
D
  3
ACAD_LAYOUT
350
1A
  3
ACAD_MLINESTYLE
350
17
  3
ACAD_PLOTSETTINGS
350
19
  3
ACAD_PLOTSTYLENAME
350
E
  3
AcDbVariableDictionary
350
67
  0
DICTIONARY
  5
D
102
{ACAD_REACTORS
330
C
102
}
330
C
100
AcDbDictionary
281
     1
  0
ACDBDICTIONARYWDFLT
  5
E
102
{ACAD_REACTORS
330
C
102
}
330
C
100
AcDbDictionary
281
     1
  3
Normal
350
F
100
AcDbDictionaryWithDefault
340
F
  0
ACDBPLACEHOLDER
  5
F
102
{ACAD_REACTORS
330
E
102
}
330
E
  0
DICTIONARY
  5
17
102
{ACAD_REACTORS
330
C
102
}
330
C
100
AcDbDictionary
281
     1
  3
Standard
350
18
  0
MLINESTYLE
  5
18
102
{ACAD_REACTORS
330
17
102
}
330
17
100
AcDbMlineStyle
  2
STANDARD
 70
     0
  3

 62
   256
 51
90.0
 52
90.0
 71
     2
 49
0.5
 62
   256
  6
BYLAYER
 49
-0.5
 62
   256
  6
BYLAYER
  0
DICTIONARY
  5
19
102
{ACAD_REACTORS
330
C
102
}
330
C
100
AcDbDictionary
281
     1
  0
DICTIONARY
  5
1A
102
{ACAD_REACTORS
330
C
102
}
330
C
100
AcDbDictionary
281
     1
  3
Model
350
22
  3
布局1
350
5A
  3
布局2
350
5F
  0
LAYOUT
  5
22
102
{ACAD_REACTORS
330
1A
102
}
330
1A
100
AcDbPlotSettings
  1

  2
none_device
  4
ANSI_A_(8.50_x_11.00_Inches)
  6

 40
6.349999904632568
 41
19.04999923706055
 42
6.350006103515625
 43
19.04998779296875
 44
215.8999938964844
 45
279.3999938964844
 46
0.0
 47
0.0
 48
0.0
 49
0.0
140
0.0
141
0.0
  6

142
1.0
143
59.14384144482809
 70
 11952
 72
     0
 73
     1
 74
     0
  7

 75
     0
147
0.01690793116529035
148
2104.275643432162
149
-413.1940071170931
100
AcDbLayout
  1
Model
 70
     1
 71
     0
 10
0.0
 20
0.0
 11
12.0
 21
9.0
 12
0.0
 22
0.0
 32
0.0
 14
0.0
 24
0.0
 34
0.0
 15
0.0
 25
0.0
 35
0.0
146
0.0
 13
0.0
 23
0.0
 33
0.0
 16
1.0
 26
0.0
 36
0.0
 17
0.0
 27
1.0
 37
0.0
 76
     0
330
1F
  0
LAYOUT
  5
5A
102
{ACAD_REACTORS
330
1A
102
}
330
1A
100
AcDbPlotSettings
  1

  2
none_device
  4
Letter_(8.50_x_11.00_Inches)
  6

 40
6.349999904632568
 41
6.349999904632568
 42
6.350006103515625
 43
6.350006103515625
 44
215.8999938964844
 45
279.3999938964844
 46
0.0
 47
0.0
 48
0.0
 49
0.0
140
0.0
141
0.0
  6

142
1.0
143
1.0
 70
   688
 72
     1
 73
     1
 74
     5
  7

 75
    16
147
1.0
148
0.0
149
0.0
100
AcDbLayout
  1
布局1
 70
     1
 71
     1
 10
-6.350006103515625
 20
-6.349999904632568
 11
273.0499877929688
 21
209.5499939918518
 12
0.0
 22
0.0
 32
0.0
 14
26.66999878883362
 24
20.31999878883363
 34
0.0
 15
240.0299890995026
 25
182.8799890995026
 35
0.0
146
0.0
 13
0.0
 23
0.0
 33
0.0
 16
1.0
 26
0.0
 36
0.0
 17
0.0
 27
1.0
 37
0.0
 76
     0
330
59
331
74
  0
LAYOUT
  5
5F
102
{ACAD_REACTORS
330
1A
102
}
330
1A
100
AcDbPlotSettings
  1

  2
none_device
  4
Letter_(8.50_x_11.00_Inches)
  6

 40
6.349999904632568
 41
6.349999904632568
 42
6.350006103515625
 43
6.350006103515625
 44
215.8999938964844
 45
279.3999938964844
 46
0.0
 47
0.0
 48
0.0
 49
0.0
140
0.0
141
0.0
  6

142
1.0
143
1.0
 70
   688
 72
     1
 73
     1
 74
     5
  7

 75
    16
147
1.0
148
0.0
149
0.0
100
AcDbLayout
  1
布局2
 70
     1
 71
     2
 10
-6.350006103515625
 20
-6.349999904632568
 11
273.0499877929688
 21
209.5499939918518
 12
0.0
 22
0.0
 32
0.0
 14
26.66999878883362
 24
20.31999878883363
 34
0.0
 15
240.0299890995026
 25
182.8799890995026
 35
0.0
146
0.0
 13
0.0
 23
0.0
 33
0.0
 16
1.0
 26
0.0
 36
0.0
 17
0.0
 27
1.0
 37
0.0
 76
     0
330
5E
331
34D
  0
DICTIONARY
  5
67
102
{ACAD_REACTORS
330
C
102
}
330
C
100
AcDbDictionary
281
     1
  3
DIMASSOC
350
68
  3
HIDETEXT
350
6C
  0
DICTIONARYVAR
  5
68
102
{ACAD_REACTORS
330
67
102
}
330
67
100
DictionaryVariables
280
     0
  1
2
  0
DICTIONARYVAR
  5
6C
102
{ACAD_REACTORS
330
67
102
}
330
67
100
DictionaryVariables
280
     0
  1
1
  0
DICTIONARY
  5
14F
330
141
100
AcDbDictionary
280
     1
281
     1
  3
ACAD_DIMASSOC
360
159
  0
DICTIONARY
  5
167
330
15A
100
AcDbDictionary
280
     1
281
     1
  3
ACAD_DIMASSOC
360
171
  0
DICTIONARY
  5
17F
330
172
100
AcDbDictionary
280
     1
281
     1
  3
ACAD_DIMASSOC
360
189
  0
DICTIONARY
  5
197
330
18A
100
AcDbDictionary
280
     1
281
     1
  3
ACAD_DIMASSOC
360
1A1
  0
DICTIONARY
  5
1AF
330
1A2
100
AcDbDictionary
280
     1
281
     1
  3
ACAD_DIMASSOC
360
1B9
  0
DICTIONARY
  5
1C7
330
1BA
100
AcDbDictionary
280
     1
281
     1
  3
ACAD_DIMASSOC
360
1D1
  0
DICTIONARY
  5
1DF
330
1D2
100
AcDbDictionary
280
     1
281
     1
  3
ACAD_DIMASSOC
360
1E9
  0
DICTIONARY
  5
1F9
330
1EA
100
AcDbDictionary
280
     1
281
     1
  3
ACAD_DIMASSOC
360
205
  0
DICTIONARY
  5
215
330
206
100
AcDbDictionary
280
     1
281
     1
  3
ACAD_DIMASSOC
360
221
  0
DICTIONARY
  5
22F
330
222
100
AcDbDictionary
280
     1
281
     1
  3
ACAD_DIMASSOC
360
239
  0
DICTIONARY
  5
247
330
23A
100
AcDbDictionary
280
     1
281
     1
  3
ACAD_DIMASSOC
360
251
  0
DICTIONARY
  5
25F
330
252
100
AcDbDictionary
280
     1
281
     1
  3
ACAD_DIMASSOC
360
269
  0
DICTIONARY
  5
277
330
26A
100
AcDbDictionary
280
     1
281
     1
  3
ACAD_DIMASSOC
360
281
  0
DICTIONARY
  5
28F
330
282
100
AcDbDictionary
280
     1
281
     1
  3
ACAD_DIMASSOC
360
299
  0
DICTIONARY
  5
2A7
330
29A
100
AcDbDictionary
280
     1
281
     1
  3
ACAD_DIMASSOC
360
2B1
  0
DICTIONARY
  5
2BF
330
2B2
100
AcDbDictionary
280
     1
281
     1
  3
ACAD_DIMASSOC
360
2C9
  0
DICTIONARY
  5
2D7
330
2CA
100
AcDbDictionary
280
     1
281
     1
  3
ACAD_DIMASSOC
360
2E1
  0
DICTIONARY
  5
2F0
330
2E2
100
AcDbDictionary
280
     1
281
     1
  3
ACAD_DIMASSOC
360
2FB
  0
DICTIONARY
  5
30B
330
2FC
100
AcDbDictionary
280
     1
281
     1
  3
ACAD_DIMASSOC
360
317
  0
ENDSEC
  0
SECTION
  2
THUMBNAILIMAGE
 90
    18627
310
BF4800000201030100005000000002530100005C480000000000000000000000000000000000000000000000000000000000000000000000000000000000000000000000000000000000000000000000000000000000000000000000000000000000000000000028000000B400000061000000010008000000000034440000
310
00000000000000000001000000000000FFFFFF00FFFFFF0000000000FFFFFF00FFFFFF00FFFFFF00FFFFFF00FFFFFF00FFFFFF00FFFFFF00FFFFFF00330000006600000099000000CC000000FF00000000330000333300006633000099330000CC330000FF33000000660000336600006666000099660000CC660000FF6600
310
0000990000339900006699000099990000CC990000FF99000000CC000033CC000066CC000099CC0000CCCC0000FFCC000000FF000033FF000066FF000099FF0000CCFF0000FFFF000000003300330033006600330099003300CC003300FF00330000333300333333006633330099333300CC333300FF333300006633003366
310
33006666330099663300CC663300FF66330000993300339933006699330099993300CC993300FF99330000CC330033CC330066CC330099CC3300CCCC3300FFCC330000FF330033FF330066FF330099FF3300CCFF3300FFFF330000006600330066006600660099006600CC006600FF00660000336600333366006633660099
310
336600CC336600FF33660000666600336666006666660099666600CC666600FF66660000996600339966006699660099996600CC996600FF99660000CC660033CC660066CC660099CC6600CCCC6600FFCC660000FF660033FF660066FF660099FF6600CCFF6600FFFF660000009900330099006600990099009900CC009900
310
FF00990000339900333399006633990099339900CC339900FF33990000669900336699006666990099669900CC669900FF66990000999900339999006699990099999900CC999900FF99990000CC990033CC990066CC990099CC9900CCCC9900FFCC990000FF990033FF990066FF990099FF9900CCFF9900FFFF99000000CC
310
003300CC006600CC009900CC00CC00CC00FF00CC000033CC003333CC006633CC009933CC00CC33CC00FF33CC000066CC003366CC006666CC009966CC00CC66CC00FF66CC000099CC003399CC006699CC009999CC00CC99CC00FF99CC0000CCCC0033CCCC0066CCCC0099CCCC00CCCCCC00FFCCCC0000FFCC0033FFCC0066FF
310
CC0099FFCC00CCFFCC00FFFFCC000000FF003300FF006600FF009900FF00CC00FF00FF00FF000033FF003333FF006633FF009933FF00CC33FF00FF33FF000066FF003366FF006666FF009966FF00CC66FF00FF66FF000099FF003399FF006699FF009999FF00CC99FF00FF99FF0000CCFF0033CCFF0066CCFF0099CCFF00CC
310
CCFF00FFCCFF0000FFFF0033FFFF0066FFFF0099FFFF00CCFFFF0000000000FFFFFF000D0D0D001A1A1A00282828003535350043434300505050005D5D5D006B6B6B00787878008686860093939300A1A1A100AEAEAE00BBBBBB00C9C9C900D6D6D600E4E4E400F1F1F10000000000FFFFFF00FFFFFF00FFFFFF00FFFFFF00
310
FFFFFF00FFFFFF00FFFFFF00FFFFFF00FFFFFF00FFFFFF0000000000000000000000000000000000000000000000000000000000000000000000000000000000000000000000000000000000000000000000000000000000000000000000000000000000000000000000000000000000000000000000000000000000000000
310
00000000000000000000000000000000000000000000000000000000000000000000000000000000000000000000000000000000000000000000000000000000000000000000000000000000000000000000000000000000000000000000000000000000000000000000000000000000000000000000000000009E00000000
310
00000000000000009E000000000000000000000000009E0000000000000000000000000000000000000000000000000000000000000000000000000000000000000000000000000000000000000000000000000000000000000000000000000000000000000000000000000000000000000000000000000000000000000000
310
0000000000000000000000000000000000000000000000000000000000000000000000000000000000000000000000009E9E9E9E9E9E9E9E9E9E9E9E9E9E9E9E9E9E9E9E9E9E9E9E9E9E9E9E000000000000000000000000000000000000000000000000000000000000000000000000000000000000000000000000000000
310
00000000000000000000000000000000000000000000000000000000000000000000000000000000000000000000000000000000000000000000000000000000000000000000000000000000000000000000000000000000000000000000000000000000009E000000009E9E9E00000000009E00000000009E9E9E00000000
310
009E0000000000000000000000000000000000000000000000000000000000000000000000000000000000000000000000000000000000000000000000000000000000000000000000000000000000000000000000000000000000000000000000000000000000000000000000000000000000000000000000000000000000
310
0000000000000000000000000000000000000000000000000000009E00000000009E9E00000000009E00000000009E9E0000000000009E000000000000000000000000000000000000000000000000000000000000000000000000000000000000000000000000000000000000000000000000000000000000000000000000
310
00000000000000000000000000000000000000000000000000000000000000000000000000000000000000000000000000000000000000000000000000000000000000000000000000000000000000009E0000000000000000000000009E000000000000000000000000009E00000000000000000000000000000000000000
310
00000000000000000000000000000000000000000000000000000000000000000000000000000000000000000000000000000000000000000000000000000000000000000000000000000000000000000000000000000000000000000000000000000000000000000000000000000000000000000000000000000000000000
310
0000000000009E0000000000000000000000009E000000000000000000000000009E000000000000000000000000000000000000000000000000000000000000000000000000000000000000000000000000000000000000000000000000000000000000000000000000000000000000000000000000000000000000000000
310
00000000000000000000000000000000000000000000000000000000000000000000000000000000000000000000000000000000000000000000009EBE00000000000000000000009E000000000000000000000000009E00000000000000000000000000000000000000000000000000000000000000000000000000000000
310
000000000000000000000000000000000000000000000000000000000000000000000000000000000000000000000000000000000000000000000000000000000000000000000000000000000000000000000000000000000000000000000000000000000000000000000000000000009E9E9E000000000000000000009E00
310
0000000000000000000000009E000000000000000000000000000000000000000000000000000000000000000000000000000000000000000000000000000000000000000000000000000000000000000000000000000000000000000000000000000000000000000000000000000000000000000000000000000000000000
310
000000000000000000000000000000000000000000000000000000000000000000000000009E9E0000BE0000000000000000009E000000000000000000000000009E00000000000000000000000000000000000000000000000000000000000000000000000000000000000000000000000000000000000000000000000000
310
00000000000000000000000000000000000000000000000000000000000000000000000000000000000000000000000000000000000000000000000000000000000000000000000000000000000000000000000000000000009E009E0000BE00F5F5F500000000009E000000000000000000000000009E0000000000000000
310
00000000000000000000000000000000000000000000000000000000000000000000000000000000000000000000000000000000000000000000000000000000000000000000000000000000000000000000000000000000000000000000000000000000000000000000000000000000000000000000000000000000000000
310
00000000000000000000000000009E00009E0000F5BE000000F5000000009E000000000000000000000000009E00000000000000000000000000000000000000000000000000000000000000000000000000000000000000000000000000000000000000000000000000000000000000000000000000000000000000000000
310
0000000000000000000000000000000000000000000000000000000000000000000000000000000000000000000000000000000000000000000000000000000000009E0000009E00F500BE00F50000F50000009E000000000000000000000000009E0000000000000000000000000000000000000000000000000000000000
310
000000000000000000000000000000000000000000000000000000000000000000000000000000000000000000000000000000000000000000000000000000000000000000000000000000000000000000000000000000000000000000000000000000000000000000000000000000000000000000009E000000009E00F500
310
F5BE00BEBEBEBEBE009E000000000000000000000000009E00000000000000000000000000000000000000000000000000000000000000000000000000000000000000000000000000000000000000000000000000000000000000000000000000000000000000000000000000000000000000000000000000000000000000
310
000000000000000000000000000000000000000000000000000000000000000000000000000000000000009E00000000009E00F500F500BEF50000F500009E000000000000000000000000009E0000000000000000000000000000000000000000000000000000000000000000000000000000000000000000000000000000
310
0000000000000000000000000000000000000000000000000000000000000000000000000000000000000000000000000000000000000000000000000000000000000000000000000000000000000000000000000000000000000000000000009E00000000009E00F500BEBEBEF50000F5F5F5BEF5F5F50000000000000000
310
00009E00000000000000000000000000000000000000000000000000000000000000000000000000000000000000000000000000000000000000000000000000000000000000000000000000000000000000000000000000000000000000000000000000000000000000000000000000000000000000000000000000000000
310
0000000000000000000000000000000000000000009E0000000000009E00F5BE00F5F5BEF5F5000000BE000000F5F500000000000000009E0000000000000000000000000000000000000000000000000000000000000000000000000000000000000000000000000000000000000000000000000000000000000000000000
310
00000000000000000000000000000000000000000000000000000000000000000000000000000000000000000000000000000000000000000000000000000000000000000000000000009E0000000000009E00F5BE00F5F5BE0000000000BE0000000000F5F50000000000009E00000000009E9E9E9E9E9E00000000000000
310
00000000000000000000000000000000000000000000000000000000000000000000000000000000000000000000000000000000000000000000000000000000000000000000000000000000000000000000000000000000000000000000000000000000000000000000000000000000000000000000000000000000000000
310
9E0000000000009EF5BEF5F5000000BE00000000BE00000000000000F500000000009E000000009E9E9E9E9E9E9E000000000000000000000000000000000000000000000000000000000000000000000000000000000000000000000000000000000000000000000000000000000000000000000000000000000000000000
310
000000000000000000000000000000000000000000000000000000000000000000000000000000000000000000000000000000009E00000000000000F50000F500000000BEF5F5F5F5BEF5F5F50000000000F5000000009E000000009E9E9E9E9E9E9E00000000000000000000000000000000000000000000000000000000
310
0000000000000000000000000000000000000000000000000000000000000000000000000000000000000000000000000000000000000000000000000000000000000000000000000000000000000000000000000000000000000000000000000000000000000000009E00000000000000F500F50000000000F5BE000000BE
310
000000F50000000000F50000009E0000009E00000000000000000000000000000000000000000000000000000000000000000000000000000000000000000000000000000000000000000000000000000000000000000000000000000000000000000000000000000000000000000000000000000000000000000000000000
310
000000000000000000000000000000000000000000000000000000000000009E00000000000000F500F500000000F50000BE0000BE00000000F500000000F500BE009E0000009E0000000000000000000000000000000000000000000000000000000000000000000000000000000000000000000000000000000000000000
310
00000000000000000000000000000000000000000000000000000000000000000000000000000000000000000000000000000000000000000000000000000000000000000000000000000000000000000000009E0000000000000000F500F5000000F5000000BE0000BE0000000000F5000000F5F5F5BE9E9E9E9E9E9E9E9E
310
9E9E0000000000000000000000000000000000000000000000000000000000000000000000000000000000000000000000000000000000000000000000000000000000000000000000000000000000000000000000000000000000000000000000000000000000000000000000000000000000000000000000000000000000
310
0000000000000000009E0000000000000000F5F500000000F500000000BE00BE000000000000F5000000F59EBE9EF59E00000000009E00000000000000000000000000000000000000000000000000000000000000000000000000000000000000000000000000000000000000000000000000000000000000000000000000
310
00000000000000000000000000000000000000000000000000000000000000000000000000000000000000000000000000000000000000000000000000009E0000000000000000F5F5000000F5000000000000BEBE000000000000F5000000F59E9E9E9E00F5000000009E0000000000000000000000000000000000000000
310
00000000000000000000000000000000000000000000000000000000000000000000000000000000000000000000000000000000000000000000000000000000000000000000000000000000000000000000000000000000000000000000000000000000000000000000000000000000009E9E9E0000000000000000F5F500
310
0000F5000000000000BEBE000000000000F5000000F5F59E9EF500F50000009E9E00000000000000000000000000000000000000000000000000000000000000000000000000000000000000000000000000000000000000000000000000000000000000000000000000000000000000000000000000000000000000000000
310
0000000000000000000000000000000000000000000000000000000000000000000000000000009E9E9E9E000000000000BEBEBEBEBEBEBEBEBEBEBEBEBEBE9EBEBEBEBEBEBEBEBEBEBEBEBE9E9EBEBEBEBEBE9E9E9E0000000000000000000000000000000000000000000000000000000000000000000000000000000000
310
00000000000000000000000000000000000000000000000000000000000000000000000000000000000000000000000000000000000000000000000000000000000000000000000000000000000000000000000000000000000000009E9E9E9E00000000000000F5F5000000F5000000000000BEBE000000000000F5000000
310
F5F59E9EF500F5F5009E9E9E00000000000000000000000000000000000000000000000000000000000000000000000000000000000000000000000000000000000000000000000000000000000000000000000000000000000000000000000000000000000000000000000000000000000000000000000000000000000000
310
00000000000000000000000000000000000000009E0000000000000000F5F5000000F5000000000000BEBE000000000000F5000000F59EBE9EF500F5000000009E0000000000000000000000000000000000000000000000000000000000000000000000000000000000000000000000000000000000000000000000000000
310
000000000000000000000000000000000000000000000000000000000000000000000000000000000000000000000000000000000000000000000000000000000000000000000000009E0000000000000000F5F5000000F50000000000BE00BE000000000000F50000009E00BE009EF5F5000000009E000000000000000000
310
0000000000000000000000000000000000000000000000000000000000000000000000000000000000000000000000000000000000000000000000000000000000000000000000000000000000000000000000000000000000000000000000000000000000000000000000000000000000000000000000000000000000009E
310
0000000000000000F500F5000000F5000000BE0000BE000000000000F500009E9EF5BE9E9E9E9E9E9E9E9E9E9E00000000000000000000000000000000000000000000000000000000000000000000000000000000000000000000000000000000000000000000000000000000000000000000000000000000000000000000
310
000000000000000000000000000000000000000000000000000000000000000000000000000000000000000000000000000000009E0000000000000000F500F5000000F5000000BE0000BE0000000000F50000009E0000BE00009E000000000000000000000000000000000000000000000000000000000000000000000000
310
000000000000000000000000000000000000000000000000000000000000000000000000000000000000000000000000000000000000000000000000000000000000000000000000000000000000000000000000000000000000000000000000000000000000000000009E00000000000000F500F500000000F5F5BE000000
310
BE000000F5F500000000F500BE0000009E0000000000000000000000000000000000000000000000000000000000000000000000000000000000000000000000000000000000000000000000000000000000000000000000000000000000000000000000000000000000000000000000000000000000000000000000000000
310
00000000000000000000000000000000000000000000000000000000000000009E00000000000000F50000F500000000BEF5000000BE0000F50000000000F5000000000000009E0000000000000000000000000000000000000000000000000000000000000000000000000000000000000000000000000000000000000000
310
000000000000000000000000000000000000000000000000000000000000000000000000000000000000000000000000000000000000000000000000000000000000000000000000000000000000000000000000009E00000000000000F5F5F5F5F5000000BE00F5F5F5BEF5F50000000000F500000000000000009E9E9E9E
310
9E9E9E00000000000000000000000000000000000000000000000000000000000000000000000000000000000000000000000000000000000000000000000000000000000000000000000000000000000000000000000000000000000000000000000000000000000000000000000000000000000000000000000000000000
310
0000000000000000000000009E0000000000000000BEF500F500BE0000000000BE000000000000F5000000000000000000009E9E9E9E9E9E0000000000000000000000000000000000000000000000000000000000000000000000000000000000000000000000000000000000000000000000000000000000000000000000
310
00000000000000000000000000000000000000000000000000000000000000000000000000000000000000000000000000000000000000000000000000000000009E0000000000000000F5BE0000F5BE0000000000BE00000000F5F500000000000000000000009E009E9E9E9E000000000000000000000000000000000000
310
00000000000000000000000000000000000000000000000000000000000000000000000000000000000000000000000000000000000000000000000000000000000000000000000000000000000000000000000000000000000000000000000000000000000000000000000000000000000000000000009E00000000000000
310
F500BEF5BEF5F500000000BE000000F5000000000000000000000000000000000000000000000000000000000000000000000000000000000000000000000000000000000000000000000000000000000000000000000000000000000000000000000000000000000000000000000000000000000000000000000000000000
310
0000000000000000000000000000000000000000000000000000000000000000000000000000000000000000009E00000000000000F500F5BEBEF500F5F5F5F5BEF5F5F50000000000000000000000000000000000000000000000000000000000000000000000000000000000000000000000000000000000000000000000
310
0000000000000000000000000000000000000000000000000000000000000000000000000000000000000000000000000000000000000000000000000000000000000000000000000000000000000000000000000000000000000000000000000000009E000000000000F500F5BEBEBEBE00F500009E000000000000000000
310
00000000000000000000000000000000000000000000000000000000000000000000000000000000000000000000000000000000000000000000000000000000000000000000000000000000000000000000000000000000000000000000000000000000000000000000000000000000000000000000000000000000000000
310
000000000000000000000000000000000000000000000000009E000000000000F50000BEF5F500BEBEBE009E0000000000000000000000000000000000000000000000000000000000000000000000000000000000000000000000000000000000000000000000000000000000000000000000000000000000000000000000
310
000000000000000000000000000000000000000000000000000000000000000000000000000000000000000000000000000000000000000000000000000000000000000000000000000000000000009E000000000000F5BE00000000F50000009E000000000000000000000000000000000000000000000000000000000000
310
00000000000000000000000000000000000000000000000000000000000000000000000000000000000000000000000000000000000000000000000000000000000000000000000000000000000000000000000000000000000000000000000000000000000000000000000000000000000000000000000000000000000000
310
0000000000009E0000000000BEF5F5F5F5F5000000009E0000000000000000000000000000000000000000000000000000000000000000000000000000000000000000000000000000000000000000000000000000000000000000000000000000000000000000000000000000000000000000000000000000000000000000
310
0000000000000000000000000000000000000000000000000000000000000000000000000000000000000000000000000000000000000000000000009E9E000000BE0000000000000000009E000000000000000000000000000000000000000000000000000000000000000000000000000000000000000000000000000000
310
000000000000000000000000000000000000000000000000000000000000000000000000000000000000000000000000000000000000000000000000000000000000000000000000000000000000000000000000000000000000000000000000000000000000000000000000000000000000009E9EBE000000000000000000
310
009E0000000000000000000000000000000000000000000000000000000000000000000000000000000000000000000000000000000000000000000000000000000000000000000000000000000000000000000000000000000000000000000000000000000000000000000000000000000000000000000000000000000000
310
0000000000000000000000000000000000000000000000000000000000000000000000000000000000009E9E9E0000000000000000009E000000000000000000000000000000000000000000000000000000000000000000000000000000000000000000000000000000000000000000000000000000000000000000000000
310
0000000000000000000000000000000000000000000000000000000000000000000000000000000000000000000000000000000000000000000000000000000000000000000000000000000000000000000000000000000000000000000000BE009E9E009E9E00000000009E00000000000000000000000000000000000000
310
00000000000000000000000000000000000000000000000000000000000000000000000000000000000000000000000000000000000000000000000000000000000000000000000000000000000000000000000000000000000000000000000000000000000000000000000000000000000000000000000000000000000000
310
00000000000000000000000000000000000000009E000000009E9E9E9E9E0000009E000000000000000000000000000000000000000000000000000000000000000000000000000000000000000000000000000000000000000000000000000000000000000000000000000000000000000000000000000000000000000000
310
000000000000000000000000000000000000000000000000000000000000000000000000000000000000000000000000000000000000000000000000000000000000000000000000000000000000009E9E9E009E9E9E9E00000000000000000000000000000000000000000000000000000000000000000000000000000000
310
00000000000000000000000000000000000000000000000000000000000000000000000000000000000000000000000000000000000000000000000000000000000000000000000000000000000000000000000000000000000000000000000000000000000000000000000000000000000000000000000000000000000000
310
0000000000000000000000009E000000000000000000000000000000000000000000000000000000000000000000000000000000000000000000000000000000000000000000000000000000000000000000000000000000000000000000000000000000000000000000000000000000000000000000000000000000000000
310
00000000000000000000000000000000000000000000000000000000000000000000000000000000000000000000000000000000000000000000000000000000000000000000000000000000000000000000000000000000000000000000000000000000000000000000000000000000000000000000000000000000000000
310
00000000000000000000000000000000000000000000000000000000000000000000000000000000000000000000000000000000000000000000000000000000000000000000000000000000000000000000000000000000000000000000000000000000000000009E9E00000000000000000000000000000000000000009E
310
9E000000000000000000000000000000000000000000000000000000000000000000000000000000000000000000000000000000000000000000000000000000000000000000000000000000000000000000000000000000000000000000000000000000000000000000000000000000000000000000000000000000000000
310
0000000000000000000000000000000000000000000000000000000000009E9E9E9E9E9E9E9E9E9E9E9E9E9E9E9E9E9E9E9E9E9E9E9E00000000000000000000000000000000000000000000000000000000000000000000000000000000000000000000000000000000000000000000000000000000000000000000000000
310
00000000000000000000000000000000000000000000000000000000000000000000000000000000000000000000000000000000000000000000000000000000000000000000000000000000000000000000009E000000000000000000009E9E000000000000000000009E0000000000000000000000000000000000000000
310
00000000000000000000000000000000000000000000000000000000000000000000000000000000000000000000000000000000000000000000000000000000000000000000000000000000000000000000000000000000000000000000000000000000000000000000000000000000000000000000000000000000000000
310
0000000000000000009E000000000000000000000000000000000000000000009E00000000000000000000000000000000000000000000000000000000000000000000000000000000000000000000000000000000000000000000000000000000000000000000000000000000000000000000000000000000000000000000
310
00000000000000000000000000000000000000000000000000000000000000000000000000000000000000000000000000000000000000000000000000009E000000000000000000000000000000000000000000009E0000000000000000000000000000000000000000000000000000000000000000000000000000000000
310
000000000000000000000000000000000000000000000000000000000000000000000000000000000000000000000000000000000000000000000000000000000000000000000000000000000000000000000000000000000000000000000000000000000000000000000000000000000000009E00000000009E9E00000000
310
00000000000000009E9E009E000000000000000000000000000000000000000000000000000000000000000000000000009E9E9E9E00000000000000000000009E9E9E9E0000000000000000000000000000000000000000000000000000000000000000000000000000000000000000000000000000000000000000000000
310
00000000000000000000000000000000000000000000000000000000000000000000000000000000009E00000000009E9E9E9E9E9E9E9E9E9E9E9E9E9E9E9E009E000000000000000000000000000000000000000000000000000000000000000000000000009E9E9E9E9E000000000000000000009E9E9E9E9E0000000000
310
000000000000000000000000000000000000000000000000000000000000000000000000000000000000000000000000000000000000000000000000000000000000000000000000000000000000000000000000000000000000000000009E00000000009E0000000000009E9E0000000000009E009E000000000000000000
310
000000000000000000000000000000000000000000000000000000009E9E9E9E9E0000000000000000009E009E9E9E0000000000000000000000000000000000000000000000000000000000000000000000000000000000000000000000000000000000000000000000000000000000000000000000000000000000000000
310
00000000000000000000000000000000000000009E00000000009E00000000000000000000000000009E009E0000000000000000000000000000000000000000000000000000009E00000000000000000000000000009E00000000000000009E00000000000000000000000000000000000000000000000000000000000000
310
000000000000000000000000000000000000000000000000000000000000000000000000000000000000000000000000000000000000000000000000000000000000000000000000009E00000000009E00000000000000000000000000009E009E0000000000000000000000000000000000000000000000000000009E9E00
310
0000000000000000000000009E00000000000000009E00000000000000000000000000000000000000000000000000000000000000000000000000000000000000000000000000000000000000000000000000000000000000000000000000000000000000000000000000000000000000000000000000000000000000009E
310
00000000009E00000000000000BE0000000000009E009E0000000000000000000000000000000000000000000000000000009E9E00000000000000000000000000009E000000BE0000009E00000000000000000000000000000000000000000000000000000000000000000000000000000000000000000000000000000000
310
000000000000000000000000000000000000000000000000000000000000000000000000000000000000000000000000000000009E20202020209EF5F5F5F5F5F5F5BEF5F5F5F5F5F59EF59E20F520F5F5F520209E9E9E9E9E9E0000000000000000000000009E9E9E9E9E9EF5F5F5F5F5F5F5F5F5F5F59EF5F5F5BEF5F59E
310
F5F59EF5F5F5F5F5F5F5F5F59E9E9E9E9E9E9E00000000000000000000000000000000000000000000000000000000000000000000000000000000000000000000000000000000000000000000000000000000000000000000000000000000000000000000000000002000202020202000000000000000BE00000000000020
310
209E2020200000200020200000009E9E0000000000000000000000009E9E000000F500000000000000F5000000009EF500BE00F59E009E0000F500000000000000F5000000009E9E00000000000000000000000000000000000000000000000000000000000000000000000000000000000000000000000000000000000000
310
00000000000000000000000000000000000000000000000000000000000000F52000202020F500000000000000BE00000000000020209E2020F5F5F5F52020F50000009E00000000000000000000000000009E9E9E9E9EF5F5F5F5F5F5F5F50000F5F59E00BEBEBE009EF59E0000F5F5F5F5F5F5F5F5F500000000009E0000
310
0000000000000000000000000000000000000000000000000000000000000000000000000000000000000000000000000000000000000000000000000000000000000000000000000000000000000000000000002000200020202000000000000000BE00000000000020209E00200000000000000000009E9E000000000000
310
00000000000000009E9E000000000000F50000000000F500009EBE00BE009EBE9E00F50000000000F50000000000000000009E00000000000000000000000000000000000000000000000000000000000000000000000000000000000000000000000000000000000000000000000000000000000000000000000000000000
310
000000000000000000002020F52000202000000000000000BE000000000000F5209E20F50000000000000000009E9E00000000000000000000000000009E00000000000000F500000000F50000BE009EF5BEF59E9EBEBE00F500000000F50000000000000000009E0000000000000000000000000000000000000000000000
310
000000000000000000000000000000000000000000000000000000000000000000000000000000000000000000000000000000000000000000000000000000F500202020002000000000000000BE00000000000020009E20200000000000000000009E9E00000000000000000000000000000000000000000000F500000000
310
F5F5BE00F59E00BE9EF59EF5BEF5F500000000F50000000000000000009E0000000000000000000000000000000000000000000000000000000000000000000000000000000000000000000000000000000000000000000000000000000000000000000000000000000000000000000000000000F50020F52020F500000000
310
000000BE00000000000020209E2020000000000000000000009E00000000000000000000000000000000000000000000F5000000F500BEF500F5009EBE9E9EF5F5BEF500F5000000F50000000000000000009E0000000000000000000000000000000000000000000000000000000000000000000000000000000000000000
310
000000000000000000000000000000000000000000000000000000000000000000000000000000000000F500F5000000F500000000000000BE000000000000F500F52020000000000000000000009E9E000000000000000000000000000000000000000000F5000000F500BE00F500F59E9E9EF59E9E00BE00F5000000F500
310
000000000000009E9E00000000000000000000000000000000000000000000000000000000000000000000000000000000000000000000000000000000000000000000000000000000000000000000000000000000000000000000000000BEBEBEBEBEBEBEBEBEBEBEBEBEBEBEBEBEBEBEBEBEBEBEBEBEBEBE9E9E9E9E9E9E
310
9E9E9E9E9E9E0000000000000000000000000000000000000000BEBEBEBEBEBEBEBEBEBEBEBEBE9E9E9E9EBEBEBEBEBEBEBEBEBEBE0000000000009E9E9E0000000000000000000000000000000000000000000000000000000000000000000000000000000000000000000000000000000000000000000000000000000000
310
000000000000000000000000000000000000000000F500F5000000F500000000000000BE000000000000F500200020000000000000000000000000000000000000000000000000000000000000000000F5000000F500BE009E9E9E9E9E00F500F500BE00F5000000F5000000000000009E9E9E000000000000000000000000
310
000000000000000000000000000000000000000000000000000000000000000000000000000000000000000000000000000000000000000000000000000000000000000000000000009EF500F59E0000F500000000000000BE000000000000F500202020000000000000000000000000000000000000000000000000000000
310
000000000000F50000009E9E9E9EF500009EBE9E00F50000BE00F5000000F50000000000000000009E00000000000000000000000000000000000000000000000000000000000000000000000000000000000000000000000000000000000000000000000000000000000000000000000000000000000000000000009E9E9E
310
9E9E9E9E9EF52000000000000000BE0000000000002020F52020000000000000000000000000000000000000000000000000000000000000000000F59E9E9EF500BE0000F59E00BE9EF5F500BE0000F5000000F50000000000000000009E000000000000000000000000000000000000000000000000000000000000000000
310
00000000000000000000000000000000000000000000000000000000000000000000000000000000000000000000000000009E9E00F520202020202000000000000000BE000000000000F5202020F5000000000000000000000000000000000000000000000000000000000000009E9E9E00000000F500BE009E9EF5BEF59E
310
0000BE00F500000000F50000000000000000009E00000000000000000000000000000000000000000000000000000000000000000000000000000000000000000000000000000000000000000000000000000000000000000000000000000000000000000000000000002000202020002000000000000000BE000000000000
310
20002020200000000000000000000000000000000000000000000000000000009E9E9E9E0000F500000000F50000BE9E9E9EBE009E00BE0000F500000000F50000000000000000009E000000000000000000000000000000000000000000000000000000000000000000000000000000000000000000000000000000000000
310
0000000000000000000000000000000000000000000000000000000000000000F52000202020F500000000000000BE0000000000002020002020000000000000000000000000000000000000000000009E9E9E9E9E000000000000F50000000000F5F59E009E9EBEBEBE9E00F5F50000000000F50000000000000000009E00
310
000000000000000000000000000000000000000000000000000000000000000000000000000000000000000000000000000000000000000000000000000000000000000000000000000000000000000000000000002000200020202000000000000000BE000000000000202020002000000000000000000000000000000000
310
0000000000009E9E9E9E00000000000000F50000000000009EF50000F59EF5009EF500000000000000F50000000000000000009E000000000000000000000000000000000000000000000000000000000000000000000000000000000000000000000000000000000000000000000000000000000000000000000000000000
310
00000000000000000000002020202000202000000000000000BE000000000000F5202020F5000000000000000000000000000000000000000000009E9E9E9E00000000000000F500000000009E9E00F5F5F5BE9EF5F59E00000000000000F500000000000000009E9E00000000000000000000000000000000000000000000
310
0000000000000000000000000000000000000000000000000000000000000000000000000000000000000000000000000000000000000000000000000000000000009E2020F520F5F5F5F5F5F5F5BEF5F5F5F5F5F5202020209E000000000000000000000000000000000000000000000000000000000000000000F5F5F5F5
310
F5F59EF5F5F5F5F5BEF59EF5F5F5F5F5F5F5F5F59E9E9E9E9E9E9E9E9E9E9E000000000000000000000000000000000000000000000000000000000000000000000000000000000000000000000000000000000000000000000000000000000000000000000000000000000000000000000000000000009E00000000000000
310
00000000BE000000000000000000009E00000000000000000000000000000000000000000000000000000000000000000000000000009E000000000000BE00009E0000000000000000000000000000000000000000000000000000000000000000000000000000000000000000000000000000000000000000000000000000
310
0000000000000000000000000000000000000000000000000000000000000000000000000000000000000000009E000000000000000000000000000000000000000000009E00000000000000000000000000000000000000000000000000000000000000000000000000009E0000000000000000009E000000000000000000
310
00000000000000000000000000000000000000000000000000000000000000000000000000000000000000000000000000000000000000000000000000000000000000000000000000000000000000000000000000000000000000000000000000009E000000000000000000000000000000000000000000009E0000000000
310
00000000000000000000000000000000000000000000000000000000000000009E00000000000000000000009E9E9E9E9E9E0000000000000000000000000000000000000000000000000000000000000000000000000000000000000000000000000000000000000000000000000000000000000000000000000000000000
310
0000000000000000000000000000000000000000000000009E000000000000000000000000000000000000000000009E0000000000000000000000000000000000000000000000000000000000000000009E9E9E9E000000000000000000000000009E9E9E9E9E000000000000000000000000000000000000000000000000
310
00000000000000000000000000000000000000000000000000000000000000000000000000000000000000000000000000000000000000000000000000000000000000000000000000000000009E9E9E9E9E9E9E9E9E9E9E9E9E9E9E9E9E9E9E9E9E9E9E9E0000000000000000000000000000000000000000000000000000
310
000000000000009E9E9E9E000000000000000000000000009E9E9E9E000000000000000000000000000000000000000000000000000000000000000000000000000000000000000000000000000000000000000000000000000000000000000000000000000000000000000000000000000000000000000000000000000000
310
0000009E000000000000000000009E9E000000000000000000009E00000000000000000000000000000000000000000000000000000000000000000000000000000000000000000000000000000000000000000000000000000000000000000000000000000000000000000000000000000000000000000000000000000000
310
000000000000000000000000000000000000000000000000000000000000000000000000000000000000000000000000000000000000000000000000000000000000009E9E00000000000000000000000000000000000000000000000000000000000000000000000000000000000000000000000000000000000000000000
310
00000000000000000000000000000000000000000000000000000000000000000000000000000000000000000000000000000000000000000000000000000000000000000000000000000000000000000000000000000000000000000000000000000000000000000000000000000000000000000000000000000000000000
310
00000000000000000000000000000000000000000000000000000000000000000000000000000000000000000000000000000000000000000000000000000000000000000000000000000000000000000000000000000000000000000000000000000000000000000000000000000000000000000000000000000000000000
310
00000000000000000000000000000000000000000000000000000000000000000000000000000000000000000000000000000000000000000000000000000000000000000000000000000000000000000000000000000000000000000000000000000000000000000000000000000000000000000000000000000000000000
310
00000000000000000000000000000000000000000000000000000000000000000000000000000000000000000000000000000000000000000000000000000000000000000000000000000000000000000000000000000000000000000000000000000000000000000000000000000000000000000000000000000000000000
310
00000000000000000000000000000000000000000000000000000000000000000000000000000000000000000000000000000000000000000000000000000000000000000000000000000000000000000000000000000000000000000000000000000000000000000000000000000000000000000000000000000000000000
310
00000000000000000000000000000000000000000000000000000000000000000000000000000000000000000000000000000000000000000000000000000000000000000000000000000000000000000000000000000000000000000000000000000000000000000000000000000000000000000000000000000000000000
310
00000000000000000000000000000000000000000000000000000000000000000000000000000000000000000000000000000000000000000000000000000000000000000000000000000000000000000000000000000000000000000000000000000000000000000000000000000000000000000000000000000000000000
310
00000000000000000000000000000000000000000000000000000000000000000000000000000000000000000000000000000000000000000000000000000000000000000000000000000000000000000000000000000000000000000000000000000000000000000000000000000000000000000000000000000000000000
310
00000000000000000000000000000000000000000000000000000000000000000000000000000000000000000000000000000000000000000000000000000000000000000000000000000000000000000000000000000000000000000000000000000000000000000000000000000000000000000000000000000000000000
310
00000000000000000000000000000000000000000000000000000000000000000000000000000000000000000000000000000000000000000000000000000000000000000000000000000000000000000000000000000000000000000000000000000000000000000000000000000000000000000000000000000000000000
310
00000000000000000000000000000000000000000000000000000000000000000000000000000000000000000000000000000000000000000000000000000000000000000000000000000000000000000000000000000000000000000000000000000000000000000000000000000000000000000000000000000000000000
310
00000000000000000000000000000000000000000000000000000000000000000000000000000000000000000000000000000000000000000000000000000000000000000000000000000000000000000000000000000000000000000000000000000000000000000000000000000000000000000000000000000000000000
310
00000000000000000000000000000000000000000000000000000000000000000000000000000000000000000000000000000000000000000000000000000000000000000000000000000000000000000000000000000000000000000000000000000000000000000000000000000000000000000000000000000000000000
310
00000000000000000000000000000000000000000000000000000000000000000000000000000000000000000000000000000000000000000000000000000000000000000000000000000000000000000000000000000000000000000000000000000000000000000000000000000000000000000000000000000000000000
310
00000000000000000000000000000000000000000000000000000000000000000000000000000000000000000000000000000000000000000000000000000000000000000000000000000000000000000000000000
  0
ENDSEC
  0
EOF
