999
LibreDWG 
  0
SECTION
  2
HEADER
  9
$ACADVER
  1
AC1015
  9
$ACADMAINTVER
 70
    13
  9
$DWGCODEPAGE
  3
ANSI_936
  9
$INSBASE
 10
0.0
 20
0.0
 30
0.0
  9
$EXTMIN
 10
71.57438243385765
 20
63.89458593622351
 30
0.0
  9
$EXTMAX
 10
302.4000305193802
 20
291.4428186960589
 30
0.0
  9
$LIMMIN
 10
0.0
 20
0.0
  9
$LIMMAX
 10
420.0
 20
297.0
  9
$ORTHOMODE
 70
     0
  9
$REGENMODE
 70
     1
  9
$FILLMODE
 70
     1
  9
$QTEXTMODE
 70
     0
  9
$MIRRTEXT
 70
     1
  9
$LTSCALE
 40
1.0
  9
$ATTMODE
 70
     1
  9
$TEXTSIZE
 40
3.5
  9
$TRACEWID
 40
1.0
  9
$TEXTSTYLE
  7
数字与字母
  9
$CLAYER
  8
文本层
  9
$CELTYPE
  6
ByLayer
  9
$CECOLOR
 62
   256
  9
$CELTSCALE
 40
1.0
  9
$DISPSILH
 70
     0
  9
$DIMSCALE
 40
1.0
  9
$DIMASZ
 40
3.5
  9
$DIMEXO
 40
0.0
  9
$DIMDLI
 40
7.5
  9
$DIMRND
 40
0.0
  9
$DIMDLE
 40
0.0
  9
$DIMEXE
 40
2.5
  9
$DIMTP
 40
0.0
  9
$DIMTM
 40
0.0
  9
$DIMTXT
 40
5.0
  9
$DIMCEN
 40
2.5
  9
$DIMTSZ
 40
0.0
  9
$DIMTOL
 70
     0
  9
$DIMLIM
 70
     0
  9
$DIMTIH
 70
     0
  9
$DIMTOH
 70
     1
  9
$DIMSE1
 70
     0
  9
$DIMSE2
 70
     0
  9
$DIMTAD
 70
     1
  9
$DIMZIN
 70
     8
  9
$DIMBLK
  1

  9
$DIMASO
 70
     1
  9
$DIMSHO
 70
     1
  9
$DIMPOST
  1

  9
$DIMAPOST
  1

  9
$DIMALT
 70
     0
  9
$DIMALTD
 70
     3
  9
$DIMALTF
 40
0.03937007874016
  9
$DIMLFAC
 40
1.0
  9
$DIMTOFL
 70
     1
  9
$DIMTVP
 40
0.0
  9
$DIMTIX
 70
     0
  9
$DIMSOXD
 70
     0
  9
$DIMSAH
 70
     0
  9
$DIMBLK1
  1

  9
$DIMBLK2
  1

  9
$DIMSTYLE
  2
机械标注
  9
$DIMCLRD
 70
     0
  9
$DIMCLRE
 70
     0
  9
$DIMCLRT
 70
     0
  9
$DIMTFAC
 40
1.0
  9
$DIMGAP
 40
0.625
  9
$DIMJUST
 70
     0
  9
$DIMSD1
 70
     0
  9
$DIMSD2
 70
     0
  9
$DIMTOLJ
 70
     0
  9
$DIMTZIN
 70
     8
  9
$DIMALTZ
 70
     0
  9
$DIMALTTZ
 70
     0
  9
$DIMUPT
 70
     0
  9
$DIMDEC
 70
     1
  9
$DIMTDEC
 70
     1
  9
$DIMALTU
 70
     2
  9
$DIMALTTD
 70
     3
  9
$DIMTXSTY
  7
数字与字母
  9
$DIMAUNIT
 70
     0
  9
$DIMADEC
 70
     0
  9
$DIMALTRND
 40
0.0
  9
$DIMAZIN
 70
     0
  9
$DIMDSEP
 70
    46
  9
$DIMATFIT
 70
     3
  9
$DIMFRAC
 70
     0
  9
$DIMLDRBLK
  1

  9
$DIMLUNIT
 70
     2
  9
$DIMLWD
 70
    -2
  9
$DIMLWE
 70
    -2
  9
$DIMTMOVE
 70
     0
  9
$LUNITS
 70
     2
  9
$LUPREC
 70
     1
  9
$AXISMODE
 70
     0
  9
$AXISUNIT
 10
0.0
 20
0.0
  9
$SKETCHINC
 40
1.0
  9
$FILLETRAD
 40
10.0
  9
$AUNITS
 70
     0
  9
$AUPREC
 70
     1
  9
$MENU
  1
.
  9
$ELEVATION
 40
0.0
  9
$PELEVATION
 40
0.0
  9
$THICKNESS
 40
0.0
  9
$LIMCHECK
 70
     0
  9
$CHAMFERA
 40
10.0
  9
$CHAMFERB
 40
10.0
  9
$CHAMFERC
 40
1.0
  9
$CHAMFERD
 40
0.7853981633974483
  9
$SKPOLY
 70
     0
  9
$TDCREATE
 40
2451911.603956590
  9
$TDUCREATE
 40
2451911.315956590
  9
$TDUPDATE
 40
2453618.452126940
  9
$TDUUPDATE
 40
2453618.164126940
  9
$TDINDWG
 40
0.036824550
  9
$TDUSRTIMER
 40
0.036824550
  9
$USRTIMER
 70
     1
  9
$ANGBASE
 50
0.0
  9
$ANGDIR
 70
     0
  9
$PDMODE
 70
     0
  9
$PDSIZE
 40
0.0
  9
$PLINEWID
 40
0.0
  9
$SPLFRAME
 70
     0
  9
$SPLINETYPE
 70
     6
  9
$SPLINESEGS
 70
     8
  9
$HANDSEED
  5
1D7
  9
$SURFTAB1
 70
     6
  9
$SURFTAB2
 70
     6
  9
$SURFTYPE
 70
     6
  9
$SURFU
 70
     6
  9
$SURFV
 70
     6
  9
$UCSBASE
  2

  9
$UCSNAME
  2

  9
$UCSORG
 10
0.0
 20
0.0
 30
0.0
  9
$UCSXDIR
 10
1.0
 20
0.0
 30
0.0
  9
$UCSYDIR
 10
0.0
 20
1.0
 30
0.0
  9
$UCSORTHOREF
  2

  9
$UCSORTHOVIEW
 70
     0
  9
$UCSORGTOP
 10
0.0
 20
0.0
 30
0.0
  9
$UCSORGBOTTOM
 10
0.0
 20
0.0
 30
0.0
  9
$UCSORGLEFT
 10
0.0
 20
0.0
 30
0.0
  9
$UCSORGRIGHT
 10
0.0
 20
0.0
 30
0.0
  9
$UCSORGFRONT
 10
0.0
 20
0.0
 30
0.0
  9
$UCSORGBACK
 10
0.0
 20
0.0
 30
0.0
  9
$PUCSBASE
  2

  9
$PUCSNAME
  2

  9
$PUCSORG
 10
0.0
 20
0.0
 30
0.0
  9
$PUCSXDIR
 10
1.0
 20
0.0
 30
0.0
  9
$PUCSYDIR
 10
0.0
 20
1.0
 30
0.0
  9
$PUCSORTHOREF
  2

  9
$PUCSORTHOVIEW
 70
     0
  9
$PUCSORGTOP
 10
0.0
 20
0.0
 30
0.0
  9
$PUCSORGBOTTOM
 10
0.0
 20
0.0
 30
0.0
  9
$PUCSORGLEFT
 10
0.0
 20
0.0
 30
0.0
  9
$PUCSORGRIGHT
 10
0.0
 20
0.0
 30
0.0
  9
$PUCSORGFRONT
 10
0.0
 20
0.0
 30
0.0
  9
$PUCSORGBACK
 10
0.0
 20
0.0
 30
0.0
  9
$USERI1
 70
     0
  9
$USERI2
 70
     0
  9
$USERI3
 70
     0
  9
$USERI4
 70
     0
  9
$USERI5
 70
     0
  9
$USERR1
 40
0.0
  9
$USERR2
 40
0.0
  9
$USERR3
 40
0.0
  9
$USERR4
 40
0.0
  9
$USERR5
 40
0.0
  9
$WORLDVIEW
 70
     1
  9
$SHADEDGE
 70
     3
  9
$SHADEDIF
 70
    70
  9
$TILEMODE
 70
     1
  9
$MAXACTVP
 70
    64
  9
$PINSBASE
 10
0.0
 20
0.0
 30
0.0
  9
$PLIMCHECK
 70
     0
  9
$PEXTMIN
 10
26.66999878883362
 20
20.31999878883363
 30
0.0
  9
$PEXTMAX
 10
240.0299890995026
 20
182.8799890995026
 30
0.0
  9
$PLIMMIN
 10
-6.350006103515625
 20
-6.349999904632568
  9
$PLIMMAX
 10
273.0499877929688
 20
209.5499939918518
  9
$UNITMODE
 70
     0
  9
$VISRETAIN
 70
     1
  9
$PLINEGEN
 70
     0
  9
$PSLTSCALE
 70
     1
  9
$TREEDEPTH
 70
  3020
  9
$CMLSTYLE
  2
Standard
  9
$CMLJUST
 70
     0
  9
$CMLSCALE
 40
20.0
  9
$PROXYGRAPHICS
 70
     1
  9
$MEASUREMENT
 70
     1
  9
$CELWEIGHT
370
    -1
  9
$ENDCAPS
280
     0
  9
$JOINSTYLE
280
     0
  9
$LWDISPLAY
290
     1
  9
$INSUNITS
 70
     4
  9
$HYPERLINKBASE
  1

  9
$STYLESHEET
  1

  9
$XEDIT
290
     1
  9
$CEPSNTYPE
380
     0
  9
$PSTYLEMODE
290
     0
  9
$FINGERPRINTGUID
  2
{35BD88C3-9548-11D2-9A29-0060089B3A3F}
  9
$VERSIONGUID
  2
{3EF107DE-5A8E-44BD-87D0-445A643126BE}
  9
$EXTNAMES
290
     1
  9
$PSVPSCALE
 40
0.0
  9
$OLESTARTUP
290
     0
  0
ENDSEC
  0
SECTION
  2
CLASSES
  0
CLASS
  1
ACDBDICTIONARYWDFLT
  2
AcDbDictionaryWithDefault
  3
AutoCAD 2000
 90
        0
280
     0
281
     0
  0
CLASS
  1
ACDBPLACEHOLDER
  2
AcDbPlaceHolder
  3
AutoCAD 2000
 90
        0
280
     0
281
     0
  0
CLASS
  1
LAYOUT
  2
AcDbLayout
  3
AutoCAD 2000
 90
        0
280
     0
281
     0
  0
CLASS
  1
DICTIONARYVAR
  2
AcDbDictionaryVar
  3
AutoCAD 2000
 90
        0
280
     0
281
     0
  0
CLASS
  1
DIMASSOC
  2
AcDbDimAssoc
  3
"AcDbDimAssoc|Product Desc:     AcDim ARX App For Dimension|Company:          Autodesk, Inc.|WEB Address:      www.autodesk.com"
 90
        0
280
     0
281
     0
  0
ENDSEC
  0
SECTION
  2
TABLES
  0
TABLE
  2
VPORT
  5
8
330
0
100
AcDbSymbolTable
 70
     1
  0
VPORT
  5
1D6
330
8
100
AcDbSymbolTableRecord
100
AcDbViewportTableRecord
  2
*Active
 70
     0
 10
0.0
 20
0.0
 11
1.0
 21
1.0
 12
210.5847621988718
 22
148.5
 13
0.0
 23
0.0
 14
10.0
 24
10.0
 15
10.0
 25
10.0
 16
0.0
 26
0.0
 36
1.0
 17
0.0
 27
0.0
 37
0.0
 40
300.7280334728033
 41
1.855042016806723
 42
50.0
 43
0.0
 44
0.0
 50
0.0
 51
0.0
 71
     0
 72
   100
 73
     1
 74
     3
 75
     0
 76
     0
 77
     0
 78
     0
281
     0
 65
     1
110
0.0
120
0.0
130
0.0
111
1.0
121
0.0
131
0.0
112
0.0
122
1.0
132
0.0
 79
     0
146
0.0
  0
ENDTAB
  0
TABLE
  2
LTYPE
  5
5
330
0
100
AcDbSymbolTable
 70
     4
  0
LTYPE
  5
14
330
5
100
AcDbSymbolTableRecord
100
AcDbLinetypeTableRecord
  2
ByBlock
 70
     0
  3

 72
    65
 73
     0
 40
0.0
  0
LTYPE
  5
15
330
5
100
AcDbSymbolTableRecord
100
AcDbLinetypeTableRecord
  2
ByLayer
 70
     0
  3

 72
    65
 73
     0
 40
0.0
  0
LTYPE
  5
16
330
5
100
AcDbSymbolTableRecord
100
AcDbLinetypeTableRecord
  2
Continuous
 70
     0
  3
Solid line
 72
    65
 73
     0
 40
0.0
  0
LTYPE
  5
91
330
5
100
AcDbSymbolTableRecord
100
AcDbLinetypeTableRecord
  2
ACAD_ISO08W100
 70
     0
  3
ISO long-dash short-dash ____ __ ____ __ ____ _
 72
    65
 73
     4
 40
36.0
 49
24.0
 74
     0
 49
-3.0
 74
     0
 49
6.0
 74
     0
 49
-3.0
 74
     0
  0
LTYPE
  5
92
330
5
100
AcDbSymbolTableRecord
100
AcDbLinetypeTableRecord
  2
ACAD_ISO09W100
 70
     0
  3
ISO long-dash double-short-dash ____ __ __ ____
 72
    65
 73
     6
 40
45.0
 49
24.0
 74
     0
 49
-3.0
 74
     0
 49
6.0
 74
     0
 49
-3.0
 74
     0
 49
6.0
 74
     0
 49
-3.0
 74
     0
  0
LTYPE
  5
93
330
5
100
AcDbSymbolTableRecord
100
AcDbLinetypeTableRecord
  2
ACAD_ISO02W100
 70
     0
  3
ISO dash __ __ __ __ __ __ __ __ __ __ __ __ __
 72
    65
 73
     2
 40
15.0
 49
12.0
 74
     0
 49
-3.0
 74
     0
  0
ENDTAB
  0
TABLE
  2
LAYER
  5
2
330
0
100
AcDbSymbolTable
 70
    11
  0
LAYER
  5
10
330
2
100
AcDbSymbolTableRecord
100
AcDbLayerTableRecord
  2
0
 70
     0
 62
    -7
  6
Continuous
370
    -3
390
F
  0
LAYER
  5
94
330
2
100
AcDbSymbolTableRecord
100
AcDbLayerTableRecord
  2
轮廓线
 70
     0
 62
    -7
  6
Continuous
370
    35
390
F
  0
LAYER
  5
95
330
2
100
AcDbSymbolTableRecord
100
AcDbLayerTableRecord
  2
点划线
 70
     0
 62
    -1
  6
ACAD_ISO08W100
370
    13
390
F
  0
LAYER
  5
96
330
2
100
AcDbSymbolTableRecord
100
AcDbLayerTableRecord
  2
双点划线
 70
     0
 62
    -3
  6
ACAD_ISO09W100
370
    -3
390
F
  0
LAYER
  5
97
330
2
100
AcDbSymbolTableRecord
100
AcDbLayerTableRecord
  2
隐藏线
 70
     0
 62
   -44
  6
ACAD_ISO02W100
370
    13
390
F
  0
LAYER
  5
98
330
2
100
AcDbSymbolTableRecord
100
AcDbLayerTableRecord
  2
剖面线
 70
     0
 62
  -142
  6
Continuous
370
    13
390
F
  0
LAYER
  5
99
330
2
100
AcDbSymbolTableRecord
100
AcDbLayerTableRecord
  2
波浪线
 70
     0
 62
    -7
  6
Continuous
370
    13
390
F
  0
LAYER
  5
9A
330
2
100
AcDbSymbolTableRecord
100
AcDbLayerTableRecord
  2
尺寸层
 70
     0
 62
    -5
  6
Continuous
370
    13
390
F
  0
LAYER
  5
9B
330
2
100
AcDbSymbolTableRecord
100
AcDbLayerTableRecord
  2
文本层
 70
     0
 62
  -212
  6
Continuous
370
    13
390
F
  0
LAYER
  5
9C
330
2
100
AcDbSymbolTableRecord
100
AcDbLayerTableRecord
  2
其它层
 70
     0
 62
    -7
  6
Continuous
370
    -3
390
F
  0
LAYER
  5
ED
330
2
100
AcDbSymbolTableRecord
100
AcDbLayerTableRecord
  2
Defpoints
 70
     0
 62
    -7
  6
Continuous
290
     0
370
    -3
390
F
  0
ENDTAB
  0
TABLE
  2
STYLE
  5
3
330
0
100
AcDbSymbolTable
 70
     4
  0
STYLE
  5
11
330
3
100
AcDbSymbolTableRecord
100
AcDbTextStyleTableRecord
  2
Standard
 70
     0
 40
0.0
 41
1.0
 50
0.0
 71
     0
 42
2.5
  3
txt
  4

  0
STYLE
  5
90
330
3
100
AcDbSymbolTableRecord
100
AcDbTextStyleTableRecord
  2

 70
     1
 40
0.0
 41
1.0
 50
0.0
 71
     0
 42
2.5
  3
ltypeshp.shx
  4

  0
STYLE
  5
9D
330
3
100
AcDbSymbolTableRecord
100
AcDbTextStyleTableRecord
  2
汉字
 70
     0
 40
0.0
 41
0.7
 50
0.0
 71
     0
 42
2.5
  3
SIMFANG.TTF
  4

1001
ACAD
1000
FangSong_GB2312
1071
    34353
  0
STYLE
  5
9F
330
3
100
AcDbSymbolTableRecord
100
AcDbTextStyleTableRecord
  2
数字与字母
 70
     0
 40
0.0
 41
0.7
 50
0.0
 71
     0
 42
3.5
  3
romant.shx
  4

  0
ENDTAB
  0
TABLE
  2
VIEW
  5
6
330
0
100
AcDbSymbolTable
 70
     0
  0
ENDTAB
  0
TABLE
  2
UCS
  5
7
330
0
100
AcDbSymbolTable
 70
     0
  0
ENDTAB
  0
TABLE
  2
APPID
  5
9
330
0
100
AcDbSymbolTable
 70
     1
  0
APPID
  5
12
330
9
100
AcDbSymbolTableRecord
100
AcDbRegAppTableRecord
  2
ACAD
 70
     0
  0
ENDTAB
  0
TABLE
  2
DIMSTYLE
  5
A
330
0
100
AcDbSymbolTable
 70
     3
100
AcDbDimStyleTable
 71
     2
340
A1
340
27
  0
DIMSTYLE
105
27
330
A
100
AcDbSymbolTableRecord
100
AcDbDimStyleTableRecord
  2
ISO-25
 70
     0
 41
2.5
 42
0.625
 43
3.75
 44
1.25
 73
     0
 74
     0
 77
     1
 78
     8
140
2.5
141
2.5
143
0.03937007874016
144
1.0
146
1.0
147
0.625
171
     3
172
     1
176
     0
177
     0
178
     0
271
     2
272
     2
273
     2
274
     3
277
     2
278
    44
283
     0
284
     8
289
     3
340
11
371
    -2
372
    -2
341
0
342
0
343
0
344
0
  0
DIMSTYLE
105
A1
102
{ACAD_REACTORS
330
141
330
EC
330
105
330
11D
102
}
330
A
100
AcDbSymbolTableRecord
100
AcDbDimStyleTableRecord
  2
机械标注
 70
     0
 41
3.5
 43
7.5
 44
2.5
 73
     0
 74
     1
 77
     1
 78
     8
140
5.0
141
2.5
143
0.03937007874016
144
1.0
146
1.0
147
0.625
171
     3
172
     1
176
     0
177
     0
178
     0
271
     1
272
     1
273
     2
274
     3
277
     2
278
    46
283
     0
284
     8
289
     3
340
9F
371
    -2
372
    -2
341
0
342
0
343
0
344
0
  0
DIMSTYLE
105
A2
330
A
100
AcDbSymbolTableRecord
100
AcDbDimStyleTableRecord
  2
机械标注$2
 70
     0
 41
3.5
 43
7.5
 44
2.5
 73
     1
 74
     1
 77
     1
 78
     8
140
5.0
141
2.5
143
0.03937007874016
144
1.0
146
1.0
147
0.625
171
     3
172
     1
176
     0
177
     0
178
     0
271
     1
272
     1
273
     2
274
     3
277
     2
278
    46
283
     0
284
     8
289
     3
340
9F
371
    -2
372
    -2
341
0
342
0
343
0
344
0
  0
ENDTAB
  0
TABLE
  2
BLOCK_RECORD
  5
1
330
0
100
AcDbSymbolTable
 70
     5
  0
BLOCK_RECORD
  5
1F
330
1
100
AcDbSymbolTableRecord
100
AcDbBlockTableRecord
  2
*Model_Space
340
22
  0
BLOCK_RECORD
  5
5E
330
1
100
AcDbSymbolTableRecord
100
AcDbBlockTableRecord
  2
*Paper_Space
340
5F
  0
BLOCK_RECORD
  5
59
330
1
100
AcDbSymbolTableRecord
100
AcDbBlockTableRecord
  2
*Paper_Space0
340
5A
  0
BLOCK_RECORD
  5
EE
330
1
100
AcDbSymbolTableRecord
100
AcDbBlockTableRecord
  2
*D1
340
0
  0
BLOCK_RECORD
  5
106
330
1
100
AcDbSymbolTableRecord
100
AcDbBlockTableRecord
  2
*D2
340
0
  0
BLOCK_RECORD
  5
11E
330
1
100
AcDbSymbolTableRecord
100
AcDbBlockTableRecord
  2
*D3
340
0
  0
BLOCK_RECORD
  5
142
330
1
100
AcDbSymbolTableRecord
100
AcDbBlockTableRecord
  2
*D4
340
0
  0
ENDTAB
  0
ENDSEC
  0
SECTION
  2
BLOCKS
  0
BLOCK
  5
20
330
1F
100
AcDbEntity
  8
0
100
AcDbBlockBegin
  2
*Model_Space
 70
     0
 10
0.0
 20
0.0
 30
0.0
  3
*Model_Space
  1

  0
ENDBLK
  5
21
330
1F
100
AcDbEntity
  8
0
100
AcDbBlockEnd
  0
BLOCK
  5
5B
330
59
100
AcDbEntity
  8
0
100
AcDbBlockBegin
  2
*Paper_Space0
 70
     0
 10
0.0
 20
0.0
 30
0.0
  3
*Paper_Space0
  1

  0
VIEWPORT
  5
74
330
59
100
AcDbEntity
  8
0
100
AcDbViewport
 10
134.8228915879863
 20
101.5999970436096
 30
0.0
 40
405.4378955490815
 41
218.5599527535252
 68
     0
 69
     0
 12
134.8228915879863
 22
101.5999970436096
 13
0.0
 23
0.0
 14
0.5
 24
0.5
 15
0.5
 25
0.5
 16
0.0
 26
0.0
 36
1.0
 17
0.0
 27
0.0
 37
0.0
 42
50.0
 43
0.0
 44
0.0
 45
218.5599527535252
 50
0.0
 51
0.0
 72
   100
 90
    32800
  1

281
     0
 71
     1
 74
     0
110
0.0
120
0.0
130
0.0
111
1.0
121
0.0
131
0.0
112
0.0
122
1.0
132
0.0
 79
     0
146
0.0
348
0
340
0
345
0
346
0
  0
VIEWPORT
  5
76
330
59
100
AcDbEntity
  8
0
100
AcDbViewport
 10
133.3499939441681
 20
101.5999939441681
 30
0.0
 40
213.3599903106689
 41
162.5599903106689
 68
     0
 69
     0
 12
183.1969948838707
 22
163.4600993659072
 13
0.0
 23
0.0
 14
10.0
 24
10.0
 15
10.0
 25
10.0
 16
0.0
 26
0.0
 36
1.0
 17
0.0
 27
0.0
 37
0.0
 42
50.0
 43
0.0
 44
0.0
 45
293.5994999733384
 50
0.0
 51
0.0
 72
   100
 90
    32864
  1

281
     0
 71
     1
 74
     0
110
0.0
120
0.0
130
0.0
111
1.0
121
0.0
131
0.0
112
0.0
122
1.0
132
0.0
 79
     0
146
0.0
348
0
340
0
345
0
346
0
  0
ENDBLK
  5
5C
330
59
100
AcDbEntity
  8
0
100
AcDbBlockEnd
  0
BLOCK
  5
60
330
5E
100
AcDbEntity
 67
     1
  8
0
100
AcDbBlockBegin
  2
*Paper_Space
 70
     0
 10
0.0
 20
0.0
 30
0.0
  3
*Paper_Space
  1

  0
ENDBLK
  5
61
330
5E
100
AcDbEntity
 67
     1
  8
0
100
AcDbBlockEnd
  0
BLOCK
  5
F8
330
EE
100
AcDbEntity
  8
0
100
AcDbBlockBegin
  2
*D1
 70
     1
 10
0.0
 20
0.0
 30
0.0
  3
*D1
  1

  0
LINE
  5
1B6
330
EE
100
AcDbEntity
  8
文本层
370
    -2
 62
     0
100
AcDbLine
 10
115.9372977871196
 20
262.6352460348446
 30
0.0
 11
100.5170677660119
 21
262.6352460348446
 31
0.0
  0
LINE
  5
1B7
330
EE
100
AcDbEntity
  8
文本层
370
    -2
 62
     0
100
AcDbLine
 10
115.9372977871196
 20
92.63524603484461
 30
0.0
 11
100.5170677660119
 21
92.63524603484461
 31
0.0
  0
LINE
  5
1B8
330
EE
100
AcDbEntity
  8
文本层
370
    -2
 62
     0
100
AcDbLine
 10
103.0170677660119
 20
259.1352460348446
 30
0.0
 11
103.0170677660119
 21
96.13524603484461
 31
0.0
  0
SOLID
  5
1B9
330
EE
100
AcDbEntity
  8
文本层
 62
     0
100
AcDbTrace
 38
0.0
 10
102.4337344326786
 20
259.1352460348446
 11
103.6004010993453
 21
259.1352460348446
 12
103.0170677660119
 22
262.6352460348446
 13
103.0170677660119
 23
262.6352460348446
  0
SOLID
  5
1BA
330
EE
100
AcDbEntity
  8
文本层
 62
     0
100
AcDbTrace
 38
0.0
 10
102.4337344326786
 20
96.13524603484461
 11
103.6004010993452
 21
96.13524603484461
 12
103.0170677660119
 22
92.63524603484461
 13
103.0170677660119
 23
92.63524603484461
  0
MTEXT
  5
1BB
330
EE
100
AcDbEntity
  8
文本层
 62
     0
100
AcDbMText
 10
99.89206776601191
 20
177.6352460348446
 30
0.0
210
0.0
220
0.0
230
1.0
 11
6.123031769111886E-17
 21
1.0
 31
0.0
 40
5.0
 41
0.0
 71
     5
 72
     1
  1
170
  7
数字与字母
 73
     1
 44
1.0
  0
POINT
  5
1BC
330
EE
100
AcDbEntity
  8
Defpoints
 62
     0
100
AcDbPoint
 10
115.9372977871196
 20
262.6352460348446
 30
0.0
 50
0.0
  0
POINT
  5
1BD
330
EE
100
AcDbEntity
  8
Defpoints
 62
     0
100
AcDbPoint
 10
115.9372977871196
 20
92.63524603484461
 30
0.0
 50
0.0
  0
POINT
  5
1BE
330
EE
100
AcDbEntity
  8
Defpoints
 62
     0
100
AcDbPoint
 10
103.0170677660119
 20
92.63524603484461
 30
0.0
 50
0.0
  0
ENDBLK
  5
F9
330
EE
100
AcDbEntity
  8
0
100
AcDbBlockEnd
  0
BLOCK
  5
110
330
106
100
AcDbEntity
  8
0
100
AcDbBlockBegin
  2
*D2
 70
     1
 10
0.0
 20
0.0
 30
0.0
  3
*D2
  1

  0
LINE
  5
1AD
330
106
100
AcDbEntity
  8
文本层
370
    -2
 62
     0
100
AcDbLine
 10
115.9372977871196
 20
87.63524603484461
 30
0.0
 11
87.88437380605883
 21
87.63524603484463
 31
0.0
  0
LINE
  5
1AE
330
106
100
AcDbEntity
  8
文本层
370
    -2
 62
     0
100
AcDbLine
 10
115.9372977871196
 20
267.6352460348446
 30
0.0
 11
87.88437380605887
 21
267.6352460348446
 31
0.0
  0
LINE
  5
1AF
330
106
100
AcDbEntity
  8
文本层
370
    -2
 62
     0
100
AcDbLine
 10
90.38437380605883
 20
91.13524603484463
 30
0.0
 11
90.38437380605887
 21
264.1352460348446
 31
0.0
  0
SOLID
  5
1B0
330
106
100
AcDbEntity
  8
文本层
 62
     0
100
AcDbTrace
 38
0.0
 10
89.8010404727255
 20
91.13524603484463
 11
90.96770713939216
 21
91.13524603484463
 12
90.38437380605883
 22
87.63524603484463
 13
90.38437380605883
 23
87.63524603484463
  0
SOLID
  5
1B1
330
106
100
AcDbEntity
  8
文本层
 62
     0
100
AcDbTrace
 38
0.0
 10
89.80104047272555
 20
264.1352460348446
 11
90.9677071393922
 21
264.1352460348446
 12
90.38437380605887
 22
267.6352460348446
 13
90.38437380605887
 23
267.6352460348446
  0
MTEXT
  5
1B2
330
106
100
AcDbEntity
  8
文本层
 62
     0
100
AcDbMText
 10
87.25937380605883
 20
177.6352460348446
 30
0.0
210
0.0
220
0.0
230
1.0
 11
6.123031769111886E-17
 21
1.0
 31
0.0
 40
5.0
 41
0.0
 71
     5
 72
     1
  1
180
  7
数字与字母
 73
     1
 44
1.0
  0
POINT
  5
1B3
330
106
100
AcDbEntity
  8
Defpoints
 62
     0
100
AcDbPoint
 10
115.9372977871196
 20
87.63524603484461
 30
0.0
 50
0.0
  0
POINT
  5
1B4
330
106
100
AcDbEntity
  8
Defpoints
 62
     0
100
AcDbPoint
 10
115.9372977871196
 20
267.6352460348446
 30
0.0
 50
0.0
  0
POINT
  5
1B5
330
106
100
AcDbEntity
  8
Defpoints
 62
     0
100
AcDbPoint
 10
90.38437380605887
 20
267.6352460348446
 30
0.0
 50
0.0
  0
ENDBLK
  5
111
330
106
100
AcDbEntity
  8
0
100
AcDbBlockEnd
  0
BLOCK
  5
128
330
11E
100
AcDbEntity
  8
0
100
AcDbBlockBegin
  2
*D3
 70
     1
 10
0.0
 20
0.0
 30
0.0
  3
*D3
  1

  0
LINE
  5
1A4
330
11E
100
AcDbEntity
  8
文本层
370
    -2
 62
     0
100
AcDbLine
 10
119.9372977871196
 20
271.6352460348446
 30
0.0
 11
74.69938243385768
 21
271.6352460348446
 31
0.0
  0
LINE
  5
1A5
330
11E
100
AcDbEntity
  8
文本层
370
    -2
 62
     0
100
AcDbLine
 10
119.9372977871196
 20
83.63524603484461
 30
0.0
 11
74.69938243385764
 21
83.63524603484463
 31
0.0
  0
LINE
  5
1A6
330
11E
100
AcDbEntity
  8
文本层
370
    -2
 62
     0
100
AcDbLine
 10
77.19938243385768
 20
268.1352460348446
 30
0.0
 11
77.19938243385764
 21
87.13524603484463
 31
0.0
  0
SOLID
  5
1A7
330
11E
100
AcDbEntity
  8
文本层
 62
     0
100
AcDbTrace
 38
0.0
 10
76.61604910052435
 20
268.1352460348446
 11
77.78271576719101
 21
268.1352460348446
 12
77.19938243385768
 22
271.6352460348446
 13
77.19938243385768
 23
271.6352460348446
  0
SOLID
  5
1A8
330
11E
100
AcDbEntity
  8
文本层
 62
     0
100
AcDbTrace
 38
0.0
 10
76.61604910052431
 20
87.13524603484463
 11
77.78271576719096
 21
87.13524603484463
 12
77.19938243385764
 22
83.63524603484463
 13
77.19938243385764
 23
83.63524603484463
  0
MTEXT
  5
1A9
330
11E
100
AcDbEntity
  8
文本层
 62
     0
100
AcDbMText
 10
74.07438243385764
 20
177.6352460348446
 30
0.0
210
0.0
220
0.0
230
1.0
 11
6.123031769111886E-17
 21
1.0
 31
0.0
 40
5.0
 41
0.0
 71
     5
 72
     1
  1
188
  7
数字与字母
 73
     1
 44
1.0
  0
POINT
  5
1AA
330
11E
100
AcDbEntity
  8
Defpoints
 62
     0
100
AcDbPoint
 10
119.9372977871196
 20
271.6352460348446
 30
0.0
 50
0.0
  0
POINT
  5
1AB
330
11E
100
AcDbEntity
  8
Defpoints
 62
     0
100
AcDbPoint
 10
119.9372977871196
 20
83.63524603484461
 30
0.0
 50
0.0
  0
POINT
  5
1AC
330
11E
100
AcDbEntity
  8
Defpoints
 62
     0
100
AcDbPoint
 10
77.19938243385764
 20
83.63524603484463
 30
0.0
 50
0.0
  0
ENDBLK
  5
129
330
11E
100
AcDbEntity
  8
0
100
AcDbBlockEnd
  0
BLOCK
  5
14C
330
142
100
AcDbEntity
  8
0
100
AcDbBlockBegin
  2
*D4
 70
     1
 10
0.0
 20
0.0
 30
0.0
  3
*D4
  1

  0
LINE
  5
1BF
330
142
100
AcDbEntity
  8
文本层
370
    -2
 62
     0
100
AcDbLine
 10
115.9372977871196
 20
87.63524603484461
 30
0.0
 11
115.9372977871196
 21
63.89458593622351
 31
0.0
  0
LINE
  5
1C0
330
142
100
AcDbEntity
  8
文本层
370
    -2
 62
     0
100
AcDbLine
 10
170.9372977871196
 20
87.63524603484461
 30
0.0
 11
170.9372977871196
 21
63.89458593622351
 31
0.0
  0
LINE
  5
1C1
330
142
100
AcDbEntity
  8
文本层
370
    -2
 62
     0
100
AcDbLine
 10
119.4372977871196
 20
66.39458593622351
 30
0.0
 11
167.4372977871196
 21
66.39458593622351
 31
0.0
  0
SOLID
  5
1C2
330
142
100
AcDbEntity
  8
文本层
 62
     0
100
AcDbTrace
 38
0.0
 10
119.4372977871196
 20
66.97791926955684
 11
119.4372977871196
 21
65.81125260289018
 12
115.9372977871196
 22
66.39458593622351
 13
115.9372977871196
 23
66.39458593622351
  0
SOLID
  5
1C3
330
142
100
AcDbEntity
  8
文本层
 62
     0
100
AcDbTrace
 38
0.0
 10
167.4372977871196
 20
66.97791926955684
 11
167.4372977871196
 21
65.81125260289018
 12
170.9372977871196
 22
66.39458593622351
 13
170.9372977871196
 23
66.39458593622351
  0
MTEXT
  5
1C4
330
142
100
AcDbEntity
  8
文本层
 62
     0
100
AcDbMText
 10
143.4372977871196
 20
69.51958593622351
 30
0.0
210
0.0
220
0.0
230
1.0
 11
1.0
 21
0.0
 31
0.0
 40
5.0
 41
0.0
 71
     5
 72
     1
  1
55
  7
数字与字母
 73
     1
 44
1.0
  0
POINT
  5
1C5
330
142
100
AcDbEntity
  8
Defpoints
 62
     0
100
AcDbPoint
 10
115.9372977871196
 20
87.63524603484461
 30
0.0
 50
0.0
  0
POINT
  5
1C6
330
142
100
AcDbEntity
  8
Defpoints
 62
     0
100
AcDbPoint
 10
170.9372977871196
 20
87.63524603484461
 30
0.0
 50
0.0
  0
POINT
  5
1C7
330
142
100
AcDbEntity
  8
Defpoints
 62
     0
100
AcDbPoint
 10
170.9372977871196
 20
66.39458593622351
 30
0.0
 50
0.0
  0
ENDBLK
  5
14D
330
142
100
AcDbEntity
  8
0
100
AcDbBlockEnd
  0
ENDSEC
  0
SECTION
  2
ENTITIES
  0
LINE
  5
AA
330
1F
100
AcDbEntity
  8
轮廓线
100
AcDbLine
 10
115.9372977871196
 20
87.63524603484461
 30
0.0
 11
119.9372977871196
 21
83.63524603484461
 31
0.0
  0
LINE
  5
AB
102
{ACAD_REACTORS
330
134
102
}
330
1F
100
AcDbEntity
  8
轮廓线
100
AcDbLine
 10
119.9372977871196
 20
83.63524603484461
 30
0.0
 11
166.9372977871196
 21
83.63524603484461
 31
0.0
  0
LINE
  5
AC
330
1F
100
AcDbEntity
  8
轮廓线
100
AcDbLine
 10
166.9372977871196
 20
83.63524603484461
 30
0.0
 11
170.9372977871196
 21
87.63524603484461
 31
0.0
  0
LINE
  5
AD
102
{ACAD_REACTORS
330
E4
330
158
102
}
330
1F
100
AcDbEntity
  8
轮廓线
100
AcDbLine
 10
170.9372977871196
 20
87.63524603484461
 30
0.0
 11
170.9372977871196
 21
267.6352460348446
 31
0.0
  0
LINE
  5
AE
330
1F
100
AcDbEntity
  8
轮廓线
100
AcDbLine
 10
170.9372977871196
 20
267.6352460348446
 30
0.0
 11
166.9372977871196
 21
271.6352460348446
 31
0.0
  0
LINE
  5
AF
330
1F
100
AcDbEntity
  8
轮廓线
100
AcDbLine
 10
166.9372977871196
 20
271.6352460348446
 30
0.0
 11
119.9372977871196
 21
271.6352460348446
 31
0.0
  0
LINE
  5
B0
102
{ACAD_REACTORS
330
134
330
13A
102
}
330
1F
100
AcDbEntity
  8
轮廓线
100
AcDbLine
 10
119.9372977871196
 20
271.6352460348446
 30
0.0
 11
115.9372977871196
 21
267.6352460348446
 31
0.0
  0
LINE
  5
B1
102
{ACAD_REACTORS
330
E4
330
11C
330
158
102
}
330
1F
100
AcDbEntity
  8
轮廓线
100
AcDbLine
 10
115.9372977871196
 20
267.6352460348446
 30
0.0
 11
115.9372977871196
 21
87.63524603484461
 31
0.0
  0
LINE
  5
B2
102
{ACAD_REACTORS
330
E4
330
104
102
}
330
1F
100
AcDbEntity
  8
轮廓线
100
AcDbLine
 10
170.9372977871196
 20
262.6352460348446
 30
0.0
 11
115.9372977871196
 21
262.6352460348446
 31
0.0
  0
LINE
  5
B3
102
{ACAD_REACTORS
330
E4
330
104
102
}
330
1F
100
AcDbEntity
  8
轮廓线
100
AcDbLine
 10
115.9372977871196
 20
92.63524603484461
 30
0.0
 11
170.9372977871196
 21
92.63524603484461
 31
0.0
  0
LINE
  5
C0
330
1F
100
AcDbEntity
  8
轮廓线
100
AcDbLine
 10
263.4000305193802
 20
206.9352460348446
 30
0.0
 11
279.4000305193802
 21
206.9352460348446
 31
0.0
  0
ARC
  5
C1
330
1F
100
AcDbEntity
  8
轮廓线
100
AcDbCircle
 10
271.4000305193802
 20
177.6352460348446
 30
0.0
 40
25.0
100
AcDbArc
 50
108.6629248849425
 51
71.33707511505752
  0
LINE
  5
C4
330
1F
100
AcDbEntity
  8
轮廓线
100
AcDbLine
 10
279.4000305193802
 20
201.3206845994986
 30
0.0
 11
279.4000305193802
 21
206.9352460348446
 31
0.0
  0
LINE
  5
C6
330
1F
100
AcDbEntity
  8
轮廓线
100
AcDbLine
 10
263.4000305193802
 20
201.3206845994986
 30
0.0
 11
263.4000305193802
 21
206.9352460348446
 31
0.0
  0
LINE
  5
C7
102
{ACAD_REACTORS
330
E4
102
}
330
1F
100
AcDbEntity
  8
轮廓线
100
AcDbLine
 10
170.9372977871196
 20
206.9352460348446
 30
0.0
 11
115.9372977871196
 21
206.9352460348446
 31
0.0
  0
LINE
  5
C8
330
1F
100
AcDbEntity
  8
轮廓线
100
AcDbLine
 10
169.9372977871196
 20
201.3206845994986
 30
0.0
 11
116.9372977871196
 21
201.3206845994986
 31
0.0
  0
LINE
  5
C9
102
{ACAD_REACTORS
330
E4
102
}
330
1F
100
AcDbEntity
  8
轮廓线
100
AcDbLine
 10
116.9372977871196
 20
152.6352460348446
 30
0.0
 11
169.9372977871196
 21
152.6352460348446
 31
0.0
  0
LINE
  5
D0
102
{ACAD_REACTORS
330
E4
330
13D
102
}
330
1F
100
AcDbEntity
  8
轮廓线
100
AcDbLine
 10
116.9372977871196
 20
152.6352460348446
 30
0.0
 11
115.9372977871196
 21
151.6352460348446
 31
0.0
  0
LINE
  5
D1
102
{ACAD_REACTORS
330
E4
102
}
330
1F
100
AcDbEntity
  8
轮廓线
100
AcDbLine
 10
169.9372977871196
 20
152.6352460348446
 30
0.0
 11
170.9372977871196
 21
151.6352460348446
 31
0.0
  0
LINE
  5
D2
330
1F
100
AcDbEntity
  8
轮廓线
100
AcDbLine
 10
116.9372977871196
 20
201.3206845994986
 30
0.0
 11
115.9372977871196
 21
202.3206845994986
 31
0.0
  0
LINE
  5
D3
330
1F
100
AcDbEntity
  8
轮廓线
100
AcDbLine
 10
169.9372977871196
 20
201.3206845994986
 30
0.0
 11
170.9372977871196
 21
202.3206845994986
 31
0.0
  0
LINE
  5
D4
330
1F
100
AcDbEntity
  8
轮廓线
100
AcDbLine
 10
116.9372977871196
 20
201.3206845994986
 30
0.0
 11
116.9372977871196
 21
152.6352460348446
 31
0.0
  0
LINE
  5
D5
330
1F
100
AcDbEntity
  8
轮廓线
100
AcDbLine
 10
169.9372977871196
 20
201.3206845994986
 30
0.0
 11
169.9372977871196
 21
152.6352460348446
 31
0.0
  0
HATCH
  5
E4
330
1F
100
AcDbEntity
  8
剖面线
100
AcDbHatch
 10
0.0
 20
0.0
 30
0.0
210
0.0
220
0.0
230
1.0
  2
ANSI31
 70
     0
 71
     1
 91
        2
 92
        7
 72
     0
 73
     1
 93
        4
 10
170.9372977871196
 20
262.6352460348446
 10
115.9372977871196
 20
262.6352460348446
 10
115.9372977871196
 20
206.9352460348446
 10
170.9372977871197
 20
206.9352460348447
 97
        4
330
B2
330
B1
330
C7
330
AD
 92
        7
 72
     0
 73
     1
 93
        6
 10
170.9372977871196
 20
151.6352460348446
 10
169.9372977871196
 20
152.6352460348446
 10
116.9372977871196
 20
152.6352460348446
 10
115.9372977871196
 20
151.6352460348446
 10
115.9372977871196
 20
92.63524603484461
 10
170.9372977871196
 20
92.6352460348446
 97
        6
330
D1
330
C9
330
D0
330
B1
330
B3
330
AD
 75
     0
 76
     1
 52
0.0
 41
2.0
 77
     0
 78
     1
 53
45.0
 43
75.65328034611161
 44
36.74105641535959
 45
-4.490128060534576
 46
4.490128060534577
 79
     0
 47
0.6454953589610403
 98
        2
 10
145.3913036821343
 20
232.5410843787074
 10
146.0374205604548
 20
120.8703870645828
  0
LINE
  5
E6
330
1F
100
AcDbEntity
  8
点划线
100
AcDbLine
 10
271.4000305193802
 20
212.9352460348446
 30
0.0
 11
271.4000305193802
 21
146.6352460348446
 31
0.0
  0
LINE
  5
E7
330
1F
100
AcDbEntity
  8
点划线
100
AcDbLine
 10
109.9372977871196
 20
177.6352460348446
 30
0.0
 11
176.9372977871196
 21
177.6352460348446
 31
0.0
  0
LINE
  5
E8
330
1F
100
AcDbEntity
  8
点划线
100
AcDbLine
 10
240.4000305193802
 20
177.6352460348446
 30
0.0
 11
302.4000305193802
 21
177.6352460348446
 31
0.0
  0
DIMENSION
  5
EC
102
{ACAD_REACTORS
330
104
102
}
102
{ACAD_XDICTIONARY
360
FA
102
}
330
1F
100
AcDbEntity
  8
文本层
100
AcDbDimension
  2
*D1
 10
103.0170677660119
 20
92.63524603484461
 30
0.0
 11
99.89206776601191
 21
177.6352460348446
 31
0.0
 70
    32
 71
     5
 42
170.0
  3
机械标注
100
AcDbAlignedDimension
 13
115.9372977871196
 23
262.6352460348446
 33
0.0
 14
115.9372977871196
 24
92.63524603484461
 34
0.0
 52
0.0
 50
90.0
100
AcDbRotatedDimension
  0
DIMENSION
  5
105
102
{ACAD_REACTORS
330
11C
102
}
102
{ACAD_XDICTIONARY
360
112
102
}
330
1F
100
AcDbEntity
  8
文本层
100
AcDbDimension
  2
*D2
 10
90.38437380605887
 20
267.6352460348446
 30
0.0
 11
87.25937380605883
 21
177.6352460348446
 31
0.0
 70
    32
 71
     5
 42
180.0
  3
机械标注
100
AcDbAlignedDimension
 13
115.9372977871196
 23
87.63524603484461
 33
0.0
 14
115.9372977871196
 24
267.6352460348446
 34
0.0
 52
0.0
 50
90.0
100
AcDbRotatedDimension
  0
DIMENSION
  5
11D
102
{ACAD_REACTORS
330
134
102
}
102
{ACAD_XDICTIONARY
360
12A
102
}
330
1F
100
AcDbEntity
  8
文本层
100
AcDbDimension
  2
*D3
 10
77.19938243385764
 20
83.63524603484463
 30
0.0
 11
74.07438243385764
 21
177.6352460348446
 31
0.0
 70
    32
 71
     5
 42
188.0
  3
机械标注
100
AcDbAlignedDimension
 13
119.9372977871196
 23
271.6352460348446
 33
0.0
 14
119.9372977871196
 24
83.63524603484461
 34
0.0
 52
0.0
 50
90.0
100
AcDbRotatedDimension
  0
LEADER
  5
138
102
{ACAD_REACTORS
330
13A
102
}
102
{ACAD_XDICTIONARY
360
139
102
}
330
1F
100
AcDbEntity
  8
文本层
100
AcDbLeader
  3
机械标注
 71
     1
 73
     3
 72
     0
 74
     1
 40
0.0
 41
0.0
 76
     3
 10
119.9372977871196
 20
271.6352460348446
 30
0.0
 10
133.8484098351538
 20
285.5463580828788
 30
0.0
 10
155.8425923357538
 20
285.5463580828788
 30
0.0
210
0.0
220
0.0
230
1.0
211
1.0
221
0.0
231
0.0
212
0.0
222
0.0
232
0.0
213
0.0
223
0.0
233
0.0
340
0
1001
ACAD
1000
DSTYLE
1002
{
1070
   147
1040
0.625
1070
    77
1070
     0
1002
}
  0
LEADER
  5
13B
102
{ACAD_REACTORS
330
13D
102
}
102
{ACAD_XDICTIONARY
360
13C
102
}
330
1F
100
AcDbEntity
  8
文本层
100
AcDbLeader
  3
机械标注
 71
     1
 73
     3
 72
     0
 74
     1
 40
0.0
 41
0.0
 76
     3
 10
116.4372977871196
 20
152.1352460348446
 30
0.0
 10
126.4720325408608
 20
162.1699807885858
 30
0.0
 10
150.3434739152046
 20
162.1699807885858
 30
0.0
210
0.0
220
0.0
230
1.0
211
1.0
221
0.0
231
0.0
212
0.0
222
0.0
232
0.0
213
0.0
223
0.0
233
0.0
340
0
1001
ACAD
1000
DSTYLE
1002
{
1070
   147
1040
0.625
1070
    77
1070
     0
1002
}
  0
TEXT
  5
13F
330
1F
100
AcDbEntity
  8
文本层
100
AcDbText
 10
134.3601106420464
 20
164.968948046253
 30
0.0
 40
3.5
  1
2x45%%D
 41
0.7
  7
数字与字母
 11
0.0
 21
0.0
 31
0.0
100
AcDbText
  0
TEXT
  5
140
330
1F
100
AcDbEntity
  8
文本层
100
AcDbText
 10
141.3072195559281
 20
287.9428186960589
 30
0.0
 40
3.5
  1
4x45%%d
 41
0.7
  7
数字与字母
 11
0.0
 21
0.0
 31
0.0
100
AcDbText
  0
DIMENSION
  5
141
102
{ACAD_REACTORS
330
158
102
}
102
{ACAD_XDICTIONARY
360
14E
102
}
330
1F
100
AcDbEntity
  8
文本层
100
AcDbDimension
  2
*D4
 10
170.9372977871196
 20
66.39458593622351
 30
0.0
 11
143.4372977871196
 21
69.51958593622351
 31
0.0
 70
    32
 71
     5
 42
55.0
  3
机械标注
100
AcDbAlignedDimension
 13
115.9372977871196
 23
87.63524603484461
 33
0.0
 14
170.9372977871196
 24
87.63524603484461
 34
0.0
 52
0.0
100
AcDbRotatedDimension
  0
VIEWPORT
  5
B9
330
5E
100
AcDbEntity
 67
     1
  8
0
100
AcDbViewport
 10
133.7941551702952
 20
101.5999970436096
 30
0.0
 40
423.7327665924585
 41
228.4221935424805
 68
     1
 69
     1
 12
133.7941551702952
 22
101.5999970436096
 13
0.0
 23
0.0
 14
10.0
 24
10.0
 15
10.0
 25
10.0
 16
0.0
 26
0.0
 36
1.0
 17
0.0
 27
0.0
 37
0.0
 42
50.0
 43
0.0
 44
0.0
 45
228.4221935424805
 50
0.0
 51
0.0
 72
   100
 90
    32800
  1

281
     0
 71
     1
 74
     0
110
0.0
120
0.0
130
0.0
111
1.0
121
0.0
131
0.0
112
0.0
122
1.0
132
0.0
 79
     0
146
0.0
348
0
340
0
345
0
346
0
  0
VIEWPORT
  5
BB
330
5E
100
AcDbEntity
 67
     1
  8
轮廓线
100
AcDbViewport
 10
133.3499939441681
 20
101.5999939441681
 30
0.0
 40
213.3599903106689
 41
162.5599903106689
 68
     1
 69
     2
 12
199.1093648454657
 22
158.7376817937791
 13
0.0
 23
0.0
 14
10.0
 24
10.0
 15
10.0
 25
10.0
 16
0.0
 26
0.0
 36
1.0
 17
0.0
 27
0.0
 37
0.0
 42
50.0
 43
0.0
 44
0.0
 45
293.15810065917
 50
0.0
 51
0.0
 72
   100
 90
    32864
  1

281
     0
 71
     1
 74
     0
110
0.0
120
0.0
130
0.0
111
1.0
121
0.0
131
0.0
112
0.0
122
1.0
132
0.0
 79
     0
146
0.0
348
0
340
0
345
0
346
0
  0
ENDSEC
  0
SECTION
  2
OBJECTS
  0
DICTIONARY
  5
C
330
0
100
AcDbDictionary
281
     1
  3
ACAD_GROUP
350
D
  3
ACAD_LAYOUT
350
1A
  3
ACAD_MLINESTYLE
350
17
  3
ACAD_PLOTSETTINGS
350
19
  3
ACAD_PLOTSTYLENAME
350
E
  3
AcDbVariableDictionary
350
67
  0
DICTIONARY
  5
D
102
{ACAD_REACTORS
330
C
102
}
330
C
100
AcDbDictionary
281
     1
  0
ACDBDICTIONARYWDFLT
  5
E
102
{ACAD_REACTORS
330
C
102
}
330
C
100
AcDbDictionary
281
     1
  3
Normal
350
F
100
AcDbDictionaryWithDefault
340
F
  0
ACDBPLACEHOLDER
  5
F
102
{ACAD_REACTORS
330
E
102
}
330
E
  0
DICTIONARY
  5
17
102
{ACAD_REACTORS
330
C
102
}
330
C
100
AcDbDictionary
281
     1
  3
Standard
350
18
  0
MLINESTYLE
  5
18
102
{ACAD_REACTORS
330
17
102
}
330
17
100
AcDbMlineStyle
  2
STANDARD
 70
     0
  3

 62
   256
 51
90.0
 52
90.0
 71
     2
 49
0.5
 62
   256
  6
BYLAYER
 49
-0.5
 62
   256
  6
BYLAYER
  0
DICTIONARY
  5
19
102
{ACAD_REACTORS
330
C
102
}
330
C
100
AcDbDictionary
281
     1
  0
DICTIONARY
  5
1A
102
{ACAD_REACTORS
330
C
102
}
330
C
100
AcDbDictionary
281
     1
  3
Model
350
22
  3
布局1
350
5A
  3
布局2
350
5F
  0
LAYOUT
  5
22
102
{ACAD_REACTORS
330
1A
102
}
330
1A
100
AcDbPlotSettings
  1

  2
none_device
  4
ANSI_A_(8.50_x_11.00_Inches)
  6

 40
6.349999904632568
 41
19.04999923706055
 42
6.350006103515625
 43
19.04998779296875
 44
215.8999938964844
 45
279.3999938964844
 46
0.0
 47
0.0
 48
0.0
 49
0.0
140
0.0
141
0.0
  6

142
1.0
143
57.07986212157697
 70
 11952
 72
     0
 73
     1
 74
     0
  7

 75
     0
147
0.01751931351673652
148
-2282.040442273535
149
2.561166666666503
100
AcDbLayout
  1
Model
 70
     1
 71
     0
 10
0.0
 20
0.0
 11
12.0
 21
9.0
 12
0.0
 22
0.0
 32
0.0
 14
0.0
 24
0.0
 34
0.0
 15
0.0
 25
0.0
 35
0.0
146
0.0
 13
0.0
 23
0.0
 33
0.0
 16
1.0
 26
0.0
 36
0.0
 17
0.0
 27
1.0
 37
0.0
 76
     0
330
1F
  0
LAYOUT
  5
5A
102
{ACAD_REACTORS
330
1A
102
}
330
1A
100
AcDbPlotSettings
  1

  2
none_device
  4
Letter_(8.50_x_11.00_Inches)
  6

 40
6.349999904632568
 41
6.349999904632568
 42
6.350006103515625
 43
6.350006103515625
 44
215.8999938964844
 45
279.3999938964844
 46
0.0
 47
0.0
 48
0.0
 49
0.0
140
0.0
141
0.0
  6

142
1.0
143
1.0
 70
   688
 72
     1
 73
     1
 74
     5
  7

 75
    16
147
1.0
148
0.0
149
0.0
100
AcDbLayout
  1
布局1
 70
     1
 71
     1
 10
-6.350006103515625
 20
-6.349999904632568
 11
273.0499877929688
 21
209.5499939918518
 12
0.0
 22
0.0
 32
0.0
 14
26.66999878883362
 24
20.31999878883363
 34
0.0
 15
240.0299890995026
 25
182.8799890995026
 35
0.0
146
0.0
 13
0.0
 23
0.0
 33
0.0
 16
1.0
 26
0.0
 36
0.0
 17
0.0
 27
1.0
 37
0.0
 76
     0
330
59
331
74
  0
LAYOUT
  5
5F
102
{ACAD_REACTORS
330
1A
102
}
330
1A
100
AcDbPlotSettings
  1

  2
none_device
  4
Letter_(8.50_x_11.00_Inches)
  6

 40
6.349999904632568
 41
6.349999904632568
 42
6.350006103515625
 43
6.350006103515625
 44
215.8999938964844
 45
279.3999938964844
 46
0.0
 47
0.0
 48
0.0
 49
0.0
140
0.0
141
0.0
  6

142
1.0
143
1.0
 70
   688
 72
     1
 73
     1
 74
     5
  7

 75
    16
147
1.0
148
0.0
149
0.0
100
AcDbLayout
  1
布局2
 70
     1
 71
     2
 10
-6.350006103515625
 20
-6.349999904632568
 11
273.0499877929688
 21
209.5499939918518
 12
0.0
 22
0.0
 32
0.0
 14
26.66999878883362
 24
20.31999878883363
 34
0.0
 15
240.0299890995026
 25
182.8799890995026
 35
0.0
146
0.0
 13
0.0
 23
0.0
 33
0.0
 16
1.0
 26
0.0
 36
0.0
 17
0.0
 27
1.0
 37
0.0
 76
     0
330
5E
331
B9
  0
DICTIONARY
  5
67
102
{ACAD_REACTORS
330
C
102
}
330
C
100
AcDbDictionary
281
     1
  3
DIMASSOC
350
68
  3
HIDETEXT
350
6C
  0
DICTIONARYVAR
  5
68
102
{ACAD_REACTORS
330
67
102
}
330
67
100
DictionaryVariables
280
     0
  1
2
  0
DICTIONARYVAR
  5
6C
102
{ACAD_REACTORS
330
67
102
}
330
67
100
DictionaryVariables
280
     0
  1
1
  0
DICTIONARY
  5
FA
330
EC
100
AcDbDictionary
280
     1
281
     1
  3
ACAD_DIMASSOC
360
104
  0
DICTIONARY
  5
112
330
105
100
AcDbDictionary
280
     1
281
     1
  3
ACAD_DIMASSOC
360
11C
  0
DICTIONARY
  5
12A
330
11D
100
AcDbDictionary
280
     1
281
     1
  3
ACAD_DIMASSOC
360
134
  0
DICTIONARY
  5
139
330
138
100
AcDbDictionary
280
     1
281
     1
  3
ACAD_DIMASSOC
360
13A
  0
DICTIONARY
  5
13C
330
13B
100
AcDbDictionary
280
     1
281
     1
  3
ACAD_DIMASSOC
360
13D
  0
DICTIONARY
  5
14E
330
141
100
AcDbDictionary
280
     1
281
     1
  3
ACAD_DIMASSOC
360
158
  0
ENDSEC
  0
SECTION
  2
THUMBNAILIMAGE
 90
    18627
310
BF4800000201030100005000000002530100005C480000000000000000000000000000000000000000000000000000000000000000000000000000000000000000000000000000000000000000000000000000000000000000000000000000000000000000000028000000B400000061000000010008000000000034440000
310
00000000000000000001000000000000FFFFFF00FFFFFF0000000000FFFFFF00FFFFFF00FFFFFF00FFFFFF00FFFFFF00FFFFFF00FFFFFF00FFFFFF00330000006600000099000000CC000000FF00000000330000333300006633000099330000CC330000FF33000000660000336600006666000099660000CC660000FF6600
310
0000990000339900006699000099990000CC990000FF99000000CC000033CC000066CC000099CC0000CCCC0000FFCC000000FF000033FF000066FF000099FF0000CCFF0000FFFF000000003300330033006600330099003300CC003300FF00330000333300333333006633330099333300CC333300FF333300006633003366
310
33006666330099663300CC663300FF66330000993300339933006699330099993300CC993300FF99330000CC330033CC330066CC330099CC3300CCCC3300FFCC330000FF330033FF330066FF330099FF3300CCFF3300FFFF330000006600330066006600660099006600CC006600FF00660000336600333366006633660099
310
336600CC336600FF33660000666600336666006666660099666600CC666600FF66660000996600339966006699660099996600CC996600FF99660000CC660033CC660066CC660099CC6600CCCC6600FFCC660000FF660033FF660066FF660099FF6600CCFF6600FFFF660000009900330099006600990099009900CC009900
310
FF00990000339900333399006633990099339900CC339900FF33990000669900336699006666990099669900CC669900FF66990000999900339999006699990099999900CC999900FF99990000CC990033CC990066CC990099CC9900CCCC9900FFCC990000FF990033FF990066FF990099FF9900CCFF9900FFFF99000000CC
310
003300CC006600CC009900CC00CC00CC00FF00CC000033CC003333CC006633CC009933CC00CC33CC00FF33CC000066CC003366CC006666CC009966CC00CC66CC00FF66CC000099CC003399CC006699CC009999CC00CC99CC00FF99CC0000CCCC0033CCCC0066CCCC0099CCCC00CCCCCC00FFCCCC0000FFCC0033FFCC0066FF
310
CC0099FFCC00CCFFCC00FFFFCC000000FF003300FF006600FF009900FF00CC00FF00FF00FF000033FF003333FF006633FF009933FF00CC33FF00FF33FF000066FF003366FF006666FF009966FF00CC66FF00FF66FF000099FF003399FF006699FF009999FF00CC99FF00FF99FF0000CCFF0033CCFF0066CCFF0099CCFF00CC
310
CCFF00FFCCFF0000FFFF0033FFFF0066FFFF0099FFFF00CCFFFF0000000000FFFFFF000D0D0D001A1A1A00282828003535350043434300505050005D5D5D006B6B6B00787878008686860093939300A1A1A100AEAEAE00BBBBBB00C9C9C900D6D6D600E4E4E400F1F1F10000000000FFFFFF00FFFFFF00FFFFFF00FFFFFF00
310
FFFFFF00FFFFFF00FFFFFF00FFFFFF00FFFFFF00FFFFFF0000000000000000000000000000000000000000000000000000000000000000000000000000000000000000000000000000000000000000000000000000000000000000000000000000000000000000000000000000000000000000000000000000000000000000
310
00000000000000000000000000000000000000000000000000000000000000000000000000000000000000000000000000000000000000000000000000000000000000000000000000000000000000000000000000000000000000000000000000000000000000000000000000000000000000000000000000000000000000
310
00000000000000000000000000000000000000000000000000000000000000000000000000000000000000000000000000000000000000000000000000000000000000000000000000000000000000000000000000000000000000000000000000000000000000000000000000000000000000000000000000000000000000
310
00000000000000000000000000000000000000000000000000000000000000000000000000000000000000000000000000000000000000000000000000000000000000000000000000000000000000000000000000000000000000000000000000000000000000000000000000000000000000000000000000000000000000
310
00000000000000000000000000000000000000000000000000000000000000000000000000000000000000000000000000000000000000000000000000000000000000000000000000000000000000000000000000000000000000000000000000000000000000000000000000000000000000000000000000000000000000
310
00000000000000000000000000000000000000000000000000000000000000000000000000000000000000000000000000000000000000000000000000000000000000000000000000000000000000000000000000000000000000000000000000000000000000000000000000000000000000000000000000000000000000
310
00000000000000000000000000000000000000000000000000000000000000000000000000000000000000000000000000000000000000000000000000000000000000000000000000000000000000000000000000000000000000000000000000000000000000000000000000000000000000000000000000000000000000
310
00000000000000000000000000000000000000000000000000000000000000000000000000000000000000000000000000000000000000000000000000000000000000000000000000000000000000000000000000000000000000000000000000000000000000000000000000000000000000000000000000000000000000
310
00000000000000000000000000000000000000000000000000000000000000000000000000000000000000000000000000000000000000000000000000000000000000000000000000000000000000000000000000000000000000000000000000000000000000000000000000000000000000000000000000000000000000
310
00000000000000000000000000000000000000000000000000000000000000000000000000000000000000000000000000000000000000000000000000000000000000000000000000000000000000000000000000000000000000000000000000000000000000000000000000000000000000000000000000000000000000
310
00000000000000000000000000000000000000000000000000000000000000000000000000000000000000000000000000000000000000000000000000000000000000000000000000000000000000000000000000000000000000000000000000000000000000000000000000000000000000000000000000000000000000
310
00000000000000000000000000000000000000000000000000000000000000000000000000000000000000000000000000000000000000000000000000000000000000000000000000000000000000000000000000000000000000000000000000000000000000000000000000000000000000000000000000000000000000
310
00000000000000000000000000000000000000000000000000000000000000000000000000000000000000000000000000000000000000000000000000000000000000000000000000000000000000000000000000000000000000000000000000000000000000000000000000000000000000000000000000000000000000
310
00000000000000000000000000000000000000000000000000000000000000000000000000000000000000000000000000000000000000000000000000000000000000000000000000000000000000000000000000000000000000000000000000000000000000000000000000000000000000000000000000000000000000
310
00000000000000000000000000000000000000000000000000000000000000000000000000000000000000000000000000000000000000000000000000000000000000000000000000000000000000000000000000000000000000000000000000000000000000000000000000000000000000000000000000000000000000
310
00000000000000000000000000000000000000000000000000000000000000000000000000000000000000000000000000000000000000000000000000000000000000000000000000000000000000000000000000000000000000000000000000000000000000000000000000000000000000000000000000000000000000
310
00000000000000000000000000000000000000000000000000000000000000000000000000000000000000000000000000000000000000000000000000000000000000000000000000000000000000000000000000000000000000000000000000000000000000000000000000000000000000000000000000000000000000
310
00000000000000000000000000000000000000000000000000000000000000000000000000000000000000000000000000000000000000000000000000000000000000000000000000000000000000000000000000000000000000000000000000000000000000000000000000000000000000000000000000000000000000
310
00000000000000000000000000000000000000000000000000000000000000000000000000000000000000000000000000000000000000000000000000000000000000000000000000000000000000000000000000000000000000000000000000000000000000000000000000000000000000000000000000000000000000
310
00000000000000000000000000000000000000000000000000000000000000000000000000000000000000000000000000000000000000000000000000000000000000000000000000000000000000000000000000000000000000000000000000000000000000000000000000000000000000000000000000000000000000
310
00000000000000000000000000000000000000000000000000000000000000000000000000000000000000000000000000000000000000000000000000000000000000000000000000000000000000000000000000000000000000000000000000000000000000000000000000000000000000000000000000000000000000
310
00000000000000000000000000000000000000000000000000000000000000000000000000000000000000000000000000000000000000000000000000000000000000000000000000000000000000000000000000000000000000000000000000000000000000000000000000000000000000000000000000000000000000
310
00000000000000000000000000000000000000000000000000000000000000000000000000000000000000000000000000000000000000000000000000000000000000000000000000000000000000000000000000000000000000000000000000000000000000000000000000000000000000000000000000000000000000
310
00000000000000000000000000000000000000000000000000000000000000000000000000000000000000000000000000000000000000000000000000000000000000000000000000000000000000000000000000000000000000000000000000000000000000000000000000000000000000000000000000000000000000
310
00000000000000000000000000000000000000000000000000000000000000000000000000000000000000000000000000000000000000000000000000000000000000000000000000000000000000000000000000000000000000000000000000000000000000000000000000000000000000000000000000000000000000
310
00000000000000000000000000000000000000000000000000000000000000000000000000000000000000000000000000000000000000000000000000000000000000000000000000000000000000000000000000000000000000000000000000000000000000000000000000000000000000000000000000000000000000
310
00000000000000000000000000000000000000000000000000000000000000000000000000000000000000000000000000000000000000000000000000000000000000000000000000000000000000000000000000000000000000000000000000000000000000000000000000000000000000000000000000000000000000
310
00000000000000000000000000000000000000000000000000000000000000000000000000000000000000000000000000000000000000000000000000000000000000000000000000000000000000000000000000000000000000000000000000000000000000000000000000000000000000000000000000000000000000
310
00000000000000000000000000000000000000000000000000000000000000000000000000000000000000000000000000000000000000000000000000000000000000000000000000000000000000000000000000000000000000000000000000000000000000000000000000000000000000000000000000000000000000
310
00000000000000000000000000000000000000000000000000000000000000000000000000000000000000000000000000000000000000000000000000000000000000000000000000000000000000000000000000000000000000000000000000000000000000000000000000000000000000000000000000000000000000
310
00000000000000000000000000000000000000000000000000000000000000000000000000000000000000000000000000000000009E00000000000000000000000000000000009E00000000000000000000000000000000000000000000000000000000000000000000000000000000000000000000000000000000000000
310
000000000000000000000000000000000000000000000000000000000000000000000000000000000000000000000000000000000000000000000000000000000000000000000000000000000000000000000000000000000000000000000000000000000000000000009E9E9E9E9E9E9E9E9E9E9E9E9E9E9E9E9E9E9E0000
310
00000000000000000000000000000000000000000000000000000000000000000000000000000000000000000000000000000000000000000000000000000000000000000000000000000000000000000000000000000000000000000000000000000000000000000000000000000000000000000000000000000000000000
310
00000000000000000000000000000000000000000000000000000000000000009E000000000000009E9E9E000000000000009E00000000000000000000000000000000000000000000000000000000000000000000000000000000000000000000000000000000000000000000000000000000000000000000000000000000
310
000000000000000000000000000000000000000000000000000000000000000000000000000000000000000000000000000000000000000000000000000000000000000000000000000000000000000000000000009E000000000000009E9E9E000000000000009E0000000000000000000000000000000000000000000000
310
00000000000000000000000000000000000000000000000000000000000000000000000000000000000000000000000000000000000000000000000000000000000000000000000000000000000000000000000000000000000000000000000000000000000000000000000000000000000000000000000000000000000000
310
00000000000000000000009E00000000000000000000000000000000009E00000000000000000000000000000000000000000000000000000000000000000000000000000000000000000000000000000000000000000000000000000000000000000000000000000000000000000000000000000000000000000000000000
310
000000000000000000000000000000000000000000000000000000000000000000000000000000000000000000000000000000000000000000000000000000009EF5F5F5F5F5F5F5F5F5F5F5F5F5F5F5F5F59E0000000000000000000000000000000000000000000000000000000000000000000000000000000000000000
310
00000000000000000000000000000000000000000000000000000000000000000000000000000000000000000000000000000000000000000000000000000000000000000000000000000000000000000000000000000000000000000000000000000000000000009E9E9E9E9E9E9E9E9E9E9E9E9E9E9EF5F5F5F5F5F5F5F5
310
F5F5F5F5F5F5F5F59E00000000000000000000000000000000000000000000000000000000000000000000000000000000000000000000000000000000000000000000000000000000000000000000000000000000000000000000000000000000000000000000000000000000000000000000000000000000000000000000
310
000000000000000000000000000000000000000000000000000000000000009E00000000000000000000009EF5F5F5F5F5F5F5F5F5F5F5F5F5F5F5F5F59EF500000000000000000000000000000000000000000000000000000000000000000000000000000000000000000000000000000000000000000000000000000000
310
0000000000000000000000000000000000000000000000000000000000000000000000000000000000000000000000000000000000000000000000000000000000000000000000000000000000000000000000009E00009E9E9E9E9E9E9E9E9E9EF5F5F5F5F5F5F5F5F5F5F5F5F5F5F5F5F59EF50000000000000000000000
310
00000000000000000000000000000000000000000000000000000000000000000000000000000000000000000000000000000000000000000000000000000000000000000000000000000000000000000000000000000000000000000000000000000000000000000000000000000000000000000000000000000000000000
310
000000000000000000009E0000009E00009E9E9E9E9E9EF520F5F520F5F520F5F520F5F520F5F520F5F500000000000000000000000000000000000000000000000000000000000000000000000000000000000000000000000000000000000000000000000000000000000000000000000000000000000000000000000000
310
0000000000000000000000000000000000000000000000000000000000000000000000000000000000000000000000000000000000000000000000000000009E0000009E0000009E0000F520F5F520F5F520F5F520F5F520F5F520F5F520F50000000000000000000000000000000000000000000000000000000000000000
310
00000000000000000000000000000000000000000000000000000000000000000000000000000000000000000000000000000000000000000000000000000000000000000000000000000000000000000000000000000000000000000000000000000000000000000000000000000000000000009E0000009E0000009E0000
310
F5F520000020000020000020000020000020F5F5F500000000000000000000000000000000000000000000000000000000000000000000000000000000000000000000000000000000000000000000000000000000000000000000000000000000000000000000000000000000000000000000000000000000000000000000
310
0000000000000000000000000000000000000000000000000000000000000000000000000000000000009E0000009E0000009E0000F5F5F520000020000020000020000020000020F5F50000000000000000000000000000000000000000000000000000000000000000000000000000000000000000000000000000000000
310
00000000000000000000000000000000000000000000000000000000000000000000000000000000000000000000000000000000000000000000000000000000000000000000000000000000000000000000000000000000000000000000009E0000009E0000009E0000F520F5002000002000002000002000002000F520F5
310
00000000000000000000000000000000000000000000000000000000000000000000000000000000000000000000000000000000000000000000000000000000000000000000000000000000000000000000000000000000000000000000000000000000000000000000000000000000000000000000000000000000000000
310
0000000000000000000000000000000000000000009E0000009E0000009E0000F5F520000020000020000020000020000020F5F5F50000000000000000000000000000000000000000000000000000000000000000000000000000000000000000000000000000000000000000000000000000000000000000000000000000
310
00000000000000000000000000000000000000000000000000000000000000000000000000000000000000000000000000000000000000000000000000000000000000000000000000009E0000009E0000009E0000F5F5F520000020000020000020000020000020F5F5000000000000000000000000000000000000000000
310
00000000000000000000000000000000000000000000000000000000000000000000000000000000000000000000000000000000000000000000000000000000000000000000000000000000000000000000000000000000000000000000000000000000000000000000000000000000000000000000000000000000000000
310
9E0000009E0000009E0000F520F5002000002000002000002000002000F520F50000000000000000000000000000000000000000000000000000000000000000000000000000000000000000000000000000000000000000000000000000000000000000000000000000000000000000000000000000000000000000000000
310
00000000000000000000000000000000000000000000000000000000000000000000000000000000000000000000000000000000009E0000009E0000009E0000F5F520000020000020000020000020000020F5F5F5000000000000000000000000000000000000000000000000000000000000000000000000000000000000
310
000000000000000000000000000000000000000000000000000000000000000000000000000000000000000000000000000000000000000000000000000000000000000000000000000000000000000000000000000000000000000000000000000000000000000000009E0000009E0000009E0000F5F5F520000020000020
310
000020000020000020F5F50000000000000000000000000000000000000000000000000000000000000000000000000000000000000000000000000000000000000000000000000000000000000000000000000000000000000000000000000000000000000000000000000000000000000000000000000000000000000000
310
00000000000000000000000000000000000000000000000000000000000000009E0000009E0000009E0000F520F5002000002000002020002000002000F520F5000000000000000000000000000000000000000000000000000000000000000000000000000000000000000000000000000000000000000000000000000000
310
000000000000000000000000000000000000000000000000000000000000000000000000000000000000000000000000000000000000000000000000000000000000000000000000000000000000000000000000009E0000009E0000009E0000F5F520000020000020000000200020000020F5F5F500000000000000000000
310
00000000000000000000000000000000000000000000000000000000000000000000000000000000000000000000000000000000000000000000000000000000000000000000000000000000000000000000000000000000000000000000000000000000000000000000000000000000000000000000000000000000000000
310
00000000000000000000009E0000009E0000009E0000F520F520000020000020200000200020000020F5F5000000000000000000000000000000000000000000000000000000000000000000000000000000000000000000000000000000000000000000000000000000000000000000000000000000000000000000000000
310
000000000000000000000000000000000000000000000000000000000000000000000000000000000000000000000000000000000000000000000000000000009E0000009E0000009E0000F5F520002000002020000020000020002000F520F500000000000000000000000000000000000000000000000000000000000000
310
0000000000000000000000000000000000000000000000000000000000000000000000000000000000000000000000000000000000000000000000000000000000000000000000000000000000000000000000000000000000000000000000000000000000000000000000000000000000000000009E0000009E0000009E00
310
00F5F5F5200020000000200000200000200020F5F5F5000000000000000000000000000000000000000000000000000000000000000000000000000000000000000000000000000000000000000000000000000000000000000000000000000000000000000000000000000000000000000000000000000000000000000000
310
000000000000000000000000000000000000000000000000000000000000000000000000000000000000009E0000009E0000009E0000F520F500200020200000200000200000200020F5F500000000000000000000000000000000000000000000000000000000000000000000000000000000000000000000000000000000
310
0000000000000000000000000000000000000000000000000000000000000000000000000000000000000000000000000000000000000000000000000000000000000000000000000000000000000000000000000000000000000000000000009E0000009E0000009E0000F5F520000020000020000020000020000020F520
310
F5000000000000000000000000000000000000000000000000000000000000000000000000000000000000000000000000000000000000000000000000000000000000000000000000000000000000000000000000000000000000000000000000000000000000000000000000000000000000000000000000000000000000
310
000000000000000000000000000000000000000000009E0000009E0000009E0000F5F5F520000020000020000020000020000020F5F5000000000000000000000000000000000000000000000000000000000000BE000000000000000000000000000000000000000000000000000000000000000000000000000000000000
310
0000000000000000000000000000000000000000000000000000000000000000000000000000000000000000000000000000000000000000000000000000000000000000000000000000009E0000009E0000009E0000F520F5F520F5F520F5F520F5F520F5F520F5F520F50000000000000000000000000000000000000000
310
00000000000000000000BE0000000000000000000000000000000000000000000000000000000000000000000000000000000000000000000000000000000000000000000000000000000000000000000000000000000000000000000000000000000000000000000000000000000000000000000000000000000000000000
310
009E0000009E0000009E0000F59E20F5F520F5F520F5F520F5F520F5F520F5F5F5000000000000000000000000000000000000000000000000000000F5F5F5BEF5F5F5000000000000000000000000000000000000000000000000000000000000000000000000000000000000000000000000000000000000000000000000
310
0000000000000000000000000000000000000000000000000000000000000000000000000000000000000000000000000000000000009E0000009E0000009E0000F5F59EF5F5F5F5F5F5F5F5F5F5F5F5F5F5F5F5F5F500000000000000000000000000000000000000000000000000F5F5F5F5F5BEF5F5F5F5F50000000000
310
00000000000000000000000000000000000000000000000000000000000000000000000000000000000000000000000000000000000000000000000000000000000000000000000000000000000000000000000000000000000000000000000000000000000000000000009E0000009E0000009E0000F5F5F59E9E00000000
310
0000000000000000F5F5F5F5000000000000000000000000000000000000000000000000F5F5F5F5F5F5BEF5F5F5F5F5F5000000000000000000000000000000000000000000000000000000000000000000000000000000000000000000000000000000000000000000000000000000000000000000000000000000000000
310
0000000000000000000000000000000000000000000000000000000000000000009E0000009E0000009E0000F5F5F500009E9E9E9E9E9E9E9E00000000F5F5F5F50000000000000000000000000000000000000000000000F5F5F5F5000000BE000000F5F5F5F5000000000000000000000000000000000000000000000000
310
00000000000000000000000000000000000000000000000000000000000000000000000000000000000000000000000000000000000000000000000000000000000000000000000000000000000000000000000000009E0000009E0000009E0000F5F5F5000000009E9E9E9E000000000000F5F5F5F5000000000000000000
310
00000000000000000000000000F5F5F5F500000000BE00000000F5F5F5F500000000000000000000000000000000000000000000000000000000000000000000000000000000000000000000000000000000000000000000000000000000000000000000000000000000000000000000000000000000000000000000000000
310
0000000000000000000000009E0000009E0000009E0000F5F5F5000000009E9E9E9E000000000000F5F5F5F5000000000000000000000000000000000000000000F5F5F5F5F500000000BE00000000F5F5F5F5F500000000000000000000000000000000000000000000000000000000000000000000000000000000000000
310
00000000000000000000000000000000000000000000000000000000000000000000000000000000000000000000000000000000000000000000000000000000009E0000009E0000009E0000F5F5F50000000000000000000000000000F5F5F5F5000000000000000000000000000000000000000000F5F5F5F50000000000
310
BE0000000000F5F5F5F5000000000000000000000000000000000000000000000000000000000000000000000000000000000000000000000000000000000000000000000000000000000000000000000000000000000000000000000000000000000000000000000000000000000000000000009E9E9E009E9E9E009E9E9E
310
0000F5F5F50000000000000000000000000000F5F5F5F5000000000000000000000000000000000000000000F5F5F5000000000000BE000000000000F5F5F500000000000000000000000000000000000000000000000000000000000000000000000000000000000000000000000000000000000000000000000000000000
310
0000000000000000000000000000000000000000000000000000000000000000000000000000000000009E9E9E009E9E9E009E9E9E00BEBEBEBEBEBEBEBEBEBEBEBEBEBEBEBEBEBEBEBEBEBEBE00000000000000000000000000000000000000BEBEBEBEBEBEBEBEBEBEBEBEBEBEBEBEBEBEBEBEBE00000000000000000000
310
00000000000000000000000000000000000000000000000000000000000000000000000000000000000000000000000000000000000000000000000000000000000000000000000000000000000000000000000000000000000000000000009E9E9E009E9E9E009E9E9E0000F5F5F50000000000000000000000000000F5F5
310
F5F5000000000000000000000000000000000000000000F5F5F5000000000000BE000000000000F5F5F500000000000000000000000000000000000000000000000000000000000000000000000000000000000000000000000000000000000000000000000000000000000000000000000000000000000000000000000000
310
0000000000000000000000000000000000000000009E9E9E009E9E9E009E9E9E0000F5F5F50000000000000000000000000000F5F5F5F5000000000000000000000000000000000000000000F5F5F5000000000000BE000000000000F5F5F50000000000000000000000000000000000000000000000000000000000000000
310
000000000000000000000000000000000000000000000000000000000000000000000000000000000000000000000000000000000000000000000000000000000000000000000000000000009E0000009E0000009E0000F5F5F50000000000000000000000000000F5F5F5F500000000000000000000000000000000000000
310
0000F5F5F5000000000000BE000000000000F5F5F500000000000000000000000000000000000000000000000000000000000000000000000000000000000000000000000000000000000000000000000000000000000000000000000000000000000000000000000000000000000000000000000000000000000000000000
310
00009E0000009E0000009E0000F5F5F50000000000000000000000000000F5F5F5F500000000000000000000000000000000000000000000F5F5F50000000000BE0000000000F5F5F5F50000000000000000000000000000000000000000000000000000000000000000000000000000000000000000000000000000000000
310
000000000000000000000000000000000000000000000000000000000000000000000000000000000000000000000000000000000000009E0000009E0000009E0000F5F5F50000000000000000000000000000F5F5F5F500000000000000000000000000000000000000000000F5F5F5F500000000BE00000000F5F5F5F500
310
0000000000000000000000000000000000000000000000000000000000000000000000000000000000000000000000000000000000000000000000000000000000000000000000000000000000000000000000000000000000000000000000000000000000000000000000009E0000009E0000009E0000F5F5F50000000000
310
000000000000000000F5F5F5F500000000000000000000000000000000000000000000F5F5F5F5F5000000BE000000F5F5F5F5F5000000000000000000000000000000000000000000000000000000000000000000000000000000000000000000000000000000000000000000000000000000000000000000000000000000
310
000000000000000000000000000000000000000000000000000000000000000000009E0000009E0000009E0000F5F5F5F5F5F5F5F5F5F5F5F5F5F5F5F5F5F5F5F5F50000000000000000000000000000000000000000000000F5F5F5F5F50000BE0000F5F5F5F5F50000000000000000000000000000000000000000000000
310
0000000000000000000000000000000000000000000000000000000000000000000000000000000000000000000000000000000000000000000000000000000000000000000000000000000000000000000000000000009E0000009E0000009E0000F5F5F5F5F5F5F5F5F5F5F5F5F5F5F5F5F5F5F5F5F50000000000000000
310
00000000000000000000000000000000F5F5F5F5F500BE00F5F5F5F5F50000000000000000000000000000000000000000000000000000000000000000000000000000000000000000000000000000000000000000000000000000000000000000000000000000000000000000000000000000000000000000000000000000
310
000000000000000000000000009E0000009E0000009E0000F5F5F5F5F5F5F5F5F5F5F5F5F5F5F5F5F5F5F5F5F50000000000000000000000000000000000000000000000000000F5F5F5F5BEF5F5F5F50000000000000000000000000000000000000000000000000000000000000000000000000000000000000000000000
310
0000000000000000000000000000000000000000000000000000000000000000000000000000000000000000000000000000000000000000000000000000000000009E0000009E0000009E0000F5F520F5F520F5F520F5F520F5F520F5F520F5F5F50000000000000000000000000000000000000000000000000000F5F5F5
310
F5BEF5F5F5F500000000000000000000000000000000000000000000000000000000000000000000000000000000000000000000000000000000000000000000000000000000000000000000000000000000000000000000000000000000000000000000000000000000000000000000000000000000009E0000009E000000
310
9E0000F520F520F5F520F5F520F5F520F5F520F5F520F5F5000000000000000000000000000000000000000000000000000000F5F5F5BEF5F5F5000000000000000000000000000000000000000000000000000000000000000000000000000000000000000000000000000000000000000000000000000000000000000000
310
0000000000000000000000000000000000000000000000000000000000000000000000000000000000000000009E0000009E0000009E0000F5F520002000002000002000002000002020F520F5000000000000000000000000000000000000000000000000000000000000BE00000000000000000000000000000000000000
310
00000000000000000000000000000000000000000000000000000000000000000000000000000000000000000000000000000000000000000000000000000000000000000000000000000000000000000000000000000000000000000000000000009E0000009E0000009E0000F5F5F5200020000020000020000020000000
310
20F5F500000000000000000000000000000000000000000000000000000000000000000000000000000000000000000000000000000000000000000000000000000000000000000000000000000000000000000000000000000000000000000000000000000000000000000000000000000000000000000000000000000000
310
0000000000000000000000000000000000000000000000009E0000009E0000009E0000F520F5002000200000200000200000202000F520F50000000000000000000000000000000000000000000000000000000000000000000000000000000000000000000000000000000000000000000000000000000000000000000000
310
00000000000000000000000000000000000000000000000000000000000000000000000000000000000000000000000000000000000000000000000000000000000000000000000000000000009E0000009E0000009E0000F5F520000020002000002000002020000020F5F5F5000000000000000000000000000000000000
310
00000000000000000000000000000000000000000000000000000000000000000000000000000000000000000000000000000000000000000000000000000000000000000000000000000000000000000000000000000000000000000000000000000000000000000000000000000000000000000000000000000000000000
310
0000009E0000009E0000009E0000F5F5F520000020002000002000000020000020F5F50000000000000000000000000000000000000000000000000000000000000000000000000000000000000000000000000000000000000000000000000000000000000000000000000000000000000000000000000000000000000000
310
00000000000000000000000000000000000000000000000000000000000000000000000000000000000000000000000000000000000000009E0000009E0000009E0000F520F5002000002000200000202000002000F520F5000000000000000000000000000000000000000000000000000000000000000000000000000000
310
000000000000000000000000000000000000000000000000000000000000000000000000000000000000000000000000000000000000000000000000000000000000000000000000000000000000000000000000000000000000000000000000000000000000000000000000009E0000009E0000009E0000F5F52000002000
310
0020002020000020000020F5F5F50000000000000000000000000000000000000000000000000000000000000000000000000000000000000000000000000000000000000000000000000000000000000000000000000000000000000000000000000000000000000000000000000000000000000000000000000000000000
310
00000000000000000000000000000000000000000000000000000000000000000000009E0000009E0000009E0000F5F5F520000020000020000020000020000020F5F5000000000000000000000000000000000000000000000000000000000000000000000000000000000000000000000000000000000000000000000000
310
000000000000000000000000000000000000000000000000000000000000000000000000000000000000000000000000000000000000000000000000000000000000000000000000000000000000000000000000000000009E0000009E0000009E0000F520F5002000002000002000002000002000F520F500000000000000
310
00000000000000000000000000000000000000000000000000000000000000000000000000000000000000000000000000000000000000000000000000000000000000000000000000000000000000000000000000000000000000000000000000000000000000000000000000000000000000000000000000000000000000
310
00000000000000000000000000009E0000009E0000009E0000F5F520000020000020200020000020000020F5F5F5000000000000000000000000000000000000000000000000000000000000000000000000000000000000000000000000000000000000000000000000000000000000000000000000000000000000000000
310
000000000000000000000000000000000000000000000000000000000000000000000000000000000000000000000000000000000000000000000000000000000000009E0000009E0000009E0000F5F5F520000020200000200020000020000020F5F500000000000000000000000000000000000000000000000000000000
310
0000000000000000000000000000000000000000000000000000000000000000000000000000000000000000000000000000000000000000000000000000000000000000000000000000000000000000000000000000000000000000000000000000000000000000000000000000000000000000000000009E0000009E0000
310
009E0000F520F5002000000020000020002000002000F520F5000000000000000000000000000000000000000000000000000000000000000000000000000000000000000000000000000000000000000000000000000000000000000000000000000000000000000000000000000000000000000000000000000000000000
310
000000000000000000000000000000000000000000000000000000000000000000000000000000000000000000009E0000009E0000009E0000F5F520000020200000200000200020000020F5F5F500000000000000000000000000000000000000000000000000000000000000000000000000000000000000000000000000
310
0000000000000000000000000000000000000000000000000000000000000000000000000000000000000000000000000000000000000000000000000000000000000000000000000000000000000000000000000000000000000000000000000000009E0000009E0000009E0000F5F5F52020000020000020000020002000
310
0020F5F5000000000000000000000000000000000000000000000000000000000000000000000000000000000000000000000000000000000000000000000000000000000000000000000000000000000000000000000000000000000000000000000000000000000000000000000000000000000000000000000000000000
310
000000000000000000000000000000000000000000000000009E0000009E0000009E0000F520F5F5F520F5F520F5F520F5F520F520F5F520F500000000000000000000000000000000000000000000000000000000000000000000000000000000000000000000000000000000000000000000000000000000000000000000
310
0000000000000000000000000000000000000000000000000000000000000000000000000000000000000000000000000000000000000000000000000000000000000000000000000000000000009E0000009E00009E9E9E9E9E9E2020F5F520F5F520F5F520F5F520F520F5F5F50000000000000000000000000000000000
310
00000000000000000000000000000000000000000000000000000000000000000000000000000000000000000000000000000000000000000000000000000000000000000000000000000000000000000000000000000000000000000000000000000000000000000000000000000000000000000000000000000000000000
310
000000009E0000009E000000000000F5F5F5F5F5F5F5F5F5F5F5F5F5F5F5F5F5F5F5F5F500000000000000000000000000000000000000000000000000000000000000000000000000000000000000000000000000000000000000000000000000000000000000000000000000000000000000000000000000000000000000
310
0000000000000000000000000000000000000000000000000000000000000000000000000000000000000000000000000000000000000000009E00009E9E9E9E9E9E9E9E9E9EF5F5F5F5F5F5F5F5F5F5F5F5F5F5F5F5F5F5F50000000000000000000000000000000000000000000000000000000000000000000000000000
310
000000000000000000000000000000000000000000000000000000000000000000000000000000000000000000000000000000000000000000000000000000000000000000000000000000000000000000000000000000000000000000000000000000000000000000000000009E9E9E9E9E9E9E9E9E9E9E9E9E9E9EF5F5F5
310
F5F5F5F5F5F5F5F5F5F5F5F5F5F50000000000000000000000000000000000000000000000000000000000000000000000000000000000000000000000000000000000000000000000000000000000000000000000000000000000000000000000000000000000000000000000000000000000000000000000000000000000
310
000000000000000000000000000000000000000000000000000000000000000000000000000000000000000000000000F5F59EF5F5F5F5F5F5F5F5F5F5F5F5F5F5F500000000000000000000000000000000000000000000000000000000000000000000000000000000000000000000000000000000000000000000000000
310
00000000000000000000000000000000000000000000000000000000000000000000000000000000000000000000000000000000000000000000000000000000000000000000000000000000000000000000000000000000000000000000000000000000000000009E00000000000000000000000000000000000000000000
310
00000000000000000000000000000000000000000000000000000000000000000000000000000000000000000000000000000000000000000000000000000000000000000000000000000000000000000000000000000000000000000000000000000000000000000000000000000000000000000000000000000000000000
310
000000000000000000000000000000000000000000000000000000000000009E0000000000000000000000000000000000000000000000000000000000000000000000000000000000000000000000000000000000000000000000000000000000000000000000000000000000000000000000000000000000000000000000
310
000000000000000000000000000000000000000000000000000000000000000000000000000000000000000000000000000000000000000000000000000000000000000000000000000000000000000000000000009E0000000000000000000000000000000000000000000000000000000000000000000000000000000000
310
00000000000000000000000000000000000000000000000000000000000000000000000000000000000000000000000000000000000000000000000000000000000000000000000000000000000000000000000000000000000000000000000000000000000000000000000000000000000000000000000000000000000000
310
0000000000000000000000009E9E9E9E9E9E9E9E0000000000000000000000000000000000000000000000000000000000000000000000000000000000000000000000000000000000000000000000000000000000000000000000000000000000000000000000000000000000000000000000000000000000000000000000
310
000000000000000000000000000000000000000000000000000000000000000000000000000000000000000000000000000000000000000000000000000000000000009E9E9E9E9E00000000000000000000000000000000000000000000000000000000000000000000000000000000000000000000000000000000000000
310
000000000000000000000000000000000000000000000000000000000000000000000000000000000000000000000000000000000000000000000000000000000000000000000000000000000000000000000000000000000000000000000000000000000000000000000000000000000000000000000000009E9E9E9E0000
310
00000000000000000000000000000000000000000000000000000000000000000000000000000000000000000000000000000000000000000000000000000000000000000000000000000000000000000000000000000000000000000000000000000000000000000000000000000000000000000000000000000000000000
310
00000000000000000000000000000000000000000000000000000000000000000000000000000000000000000000000000000000000000000000000000000000000000000000000000000000000000000000000000000000000000000000000000000000000000000000000000000000000000000000000000000000000000
310
00000000000000000000000000000000000000000000000000000000000000000000000000000000000000000000000000000000000000000000000000000000000000000000000000000000000000000000000000000000000000000000000000000000000000000000000000000000000000000000000000000000000000
310
00000000000000000000000000000000000000000000000000000000000000000000000000000000000000000000000000000000000000000000000000000000000000000000000000000000000000000000000000
  0
ENDSEC
  0
EOF
