999
LibreDWG 
  0
SECTION
  2
HEADER
  9
$ACADVER
  1
AC1015
  9
$ACADMAINTVER
 70
    13
  9
$DWGCODEPAGE
  3
ANSI_936
  9
$INSBASE
 10
0.0
 20
0.0
 30
0.0
  9
$EXTMIN
 10
-0.8447888314183963
 20
-0.3292666690390149
 30
0.0
  9
$EXTMAX
 10
116.8992063170046
 20
71.61404397441736
 30
0.0
  9
$LIMMIN
 10
0.0
 20
0.0
  9
$LIMMAX
 10
120.0
 20
75.0
  9
$ORTHOMODE
 70
     0
  9
$REGENMODE
 70
     1
  9
$FILLMODE
 70
     1
  9
$QTEXTMODE
 70
     0
  9
$MIRRTEXT
 70
     1
  9
$LTSCALE
 40
0.3
  9
$ATTMODE
 70
     1
  9
$TEXTSIZE
 40
2.5
  9
$TRACEWID
 40
1.0
  9
$TEXTSTYLE
  7
数字与字母
  9
$CLAYER
  8
轮廓线
  9
$CELTYPE
  6
ByLayer
  9
$CECOLOR
 62
   256
  9
$CELTSCALE
 40
1.0
  9
$DISPSILH
 70
     0
  9
$DIMSCALE
 40
1.0
  9
$DIMASZ
 40
3.5
  9
$DIMEXO
 40
0.0
  9
$DIMDLI
 40
7.5
  9
$DIMRND
 40
0.0
  9
$DIMDLE
 40
0.0
  9
$DIMEXE
 40
2.5
  9
$DIMTP
 40
0.0
  9
$DIMTM
 40
0.0
  9
$DIMTXT
 40
5.0
  9
$DIMCEN
 40
2.5
  9
$DIMTSZ
 40
0.0
  9
$DIMTOL
 70
     0
  9
$DIMLIM
 70
     0
  9
$DIMTIH
 70
     0
  9
$DIMTOH
 70
     1
  9
$DIMSE1
 70
     0
  9
$DIMSE2
 70
     0
  9
$DIMTAD
 70
     1
  9
$DIMZIN
 70
     8
  9
$DIMBLK
  1

  9
$DIMASO
 70
     1
  9
$DIMSHO
 70
     1
  9
$DIMPOST
  1

  9
$DIMAPOST
  1

  9
$DIMALT
 70
     0
  9
$DIMALTD
 70
     3
  9
$DIMALTF
 40
0.03937007874016
  9
$DIMLFAC
 40
1.0
  9
$DIMTOFL
 70
     1
  9
$DIMTVP
 40
0.0
  9
$DIMTIX
 70
     0
  9
$DIMSOXD
 70
     0
  9
$DIMSAH
 70
     0
  9
$DIMBLK1
  1

  9
$DIMBLK2
  1

  9
$DIMSTYLE
  2
机械标注
  9
$DIMCLRD
 70
     0
  9
$DIMCLRE
 70
     0
  9
$DIMCLRT
 70
     0
  9
$DIMTFAC
 40
1.0
  9
$DIMGAP
 40
0.625
  9
$DIMJUST
 70
     0
  9
$DIMSD1
 70
     0
  9
$DIMSD2
 70
     0
  9
$DIMTOLJ
 70
     0
  9
$DIMTZIN
 70
     8
  9
$DIMALTZ
 70
     0
  9
$DIMALTTZ
 70
     0
  9
$DIMUPT
 70
     0
  9
$DIMDEC
 70
     1
  9
$DIMTDEC
 70
     1
  9
$DIMALTU
 70
     2
  9
$DIMALTTD
 70
     3
  9
$DIMTXSTY
  7
数字与字母
  9
$DIMAUNIT
 70
     0
  9
$DIMADEC
 70
     0
  9
$DIMALTRND
 40
0.0
  9
$DIMAZIN
 70
     0
  9
$DIMDSEP
 70
    46
  9
$DIMATFIT
 70
     3
  9
$DIMFRAC
 70
     0
  9
$DIMLDRBLK
  1

  9
$DIMLUNIT
 70
     2
  9
$DIMLWD
 70
    -2
  9
$DIMLWE
 70
    -2
  9
$DIMTMOVE
 70
     0
  9
$LUNITS
 70
     2
  9
$LUPREC
 70
     1
  9
$AXISMODE
 70
     0
  9
$AXISUNIT
 10
0.0
 20
0.0
  9
$SKETCHINC
 40
1.0
  9
$FILLETRAD
 40
10.0
  9
$AUNITS
 70
     0
  9
$AUPREC
 70
     1
  9
$MENU
  1
.
  9
$ELEVATION
 40
0.0
  9
$PELEVATION
 40
0.0
  9
$THICKNESS
 40
0.0
  9
$LIMCHECK
 70
     0
  9
$CHAMFERA
 40
10.0
  9
$CHAMFERB
 40
10.0
  9
$CHAMFERC
 40
20.0
  9
$CHAMFERD
 40
0.0
  9
$SKPOLY
 70
     0
  9
$TDCREATE
 40
2451911.603956590
  9
$TDUCREATE
 40
2451911.315956590
  9
$TDUPDATE
 40
2453618.603371120
  9
$TDUUPDATE
 40
2453618.315371120
  9
$TDINDWG
 40
0.035679900
  9
$TDUSRTIMER
 40
0.035679900
  9
$USRTIMER
 70
     1
  9
$ANGBASE
 50
0.0
  9
$ANGDIR
 70
     0
  9
$PDMODE
 70
     0
  9
$PDSIZE
 40
0.0
  9
$PLINEWID
 40
0.0
  9
$SPLFRAME
 70
     0
  9
$SPLINETYPE
 70
     6
  9
$SPLINESEGS
 70
     8
  9
$HANDSEED
  5
266
  9
$SURFTAB1
 70
     6
  9
$SURFTAB2
 70
     6
  9
$SURFTYPE
 70
     6
  9
$SURFU
 70
     6
  9
$SURFV
 70
     6
  9
$UCSBASE
  2

  9
$UCSNAME
  2

  9
$UCSORG
 10
0.0
 20
0.0
 30
0.0
  9
$UCSXDIR
 10
1.0
 20
0.0
 30
0.0
  9
$UCSYDIR
 10
0.0
 20
1.0
 30
0.0
  9
$UCSORTHOREF
  2

  9
$UCSORTHOVIEW
 70
     0
  9
$UCSORGTOP
 10
0.0
 20
0.0
 30
0.0
  9
$UCSORGBOTTOM
 10
0.0
 20
0.0
 30
0.0
  9
$UCSORGLEFT
 10
0.0
 20
0.0
 30
0.0
  9
$UCSORGRIGHT
 10
0.0
 20
0.0
 30
0.0
  9
$UCSORGFRONT
 10
0.0
 20
0.0
 30
0.0
  9
$UCSORGBACK
 10
0.0
 20
0.0
 30
0.0
  9
$PUCSBASE
  2

  9
$PUCSNAME
  2

  9
$PUCSORG
 10
0.0
 20
0.0
 30
0.0
  9
$PUCSXDIR
 10
1.0
 20
0.0
 30
0.0
  9
$PUCSYDIR
 10
0.0
 20
1.0
 30
0.0
  9
$PUCSORTHOREF
  2

  9
$PUCSORTHOVIEW
 70
     0
  9
$PUCSORGTOP
 10
0.0
 20
0.0
 30
0.0
  9
$PUCSORGBOTTOM
 10
0.0
 20
0.0
 30
0.0
  9
$PUCSORGLEFT
 10
0.0
 20
0.0
 30
0.0
  9
$PUCSORGRIGHT
 10
0.0
 20
0.0
 30
0.0
  9
$PUCSORGFRONT
 10
0.0
 20
0.0
 30
0.0
  9
$PUCSORGBACK
 10
0.0
 20
0.0
 30
0.0
  9
$USERI1
 70
     0
  9
$USERI2
 70
     0
  9
$USERI3
 70
     0
  9
$USERI4
 70
     0
  9
$USERI5
 70
     0
  9
$USERR1
 40
0.0
  9
$USERR2
 40
0.0
  9
$USERR3
 40
0.0
  9
$USERR4
 40
0.0
  9
$USERR5
 40
0.0
  9
$WORLDVIEW
 70
     1
  9
$SHADEDGE
 70
     3
  9
$SHADEDIF
 70
    70
  9
$TILEMODE
 70
     1
  9
$MAXACTVP
 70
    64
  9
$PINSBASE
 10
0.0
 20
0.0
 30
0.0
  9
$PLIMCHECK
 70
     0
  9
$PEXTMIN
 10
26.66999878883362
 20
20.31999878883363
 30
0.0
  9
$PEXTMAX
 10
240.0299890995026
 20
182.8799890995026
 30
0.0
  9
$PLIMMIN
 10
-6.350006103515625
 20
-6.349999904632568
  9
$PLIMMAX
 10
273.0499877929688
 20
209.5499939918518
  9
$UNITMODE
 70
     0
  9
$VISRETAIN
 70
     1
  9
$PLINEGEN
 70
     0
  9
$PSLTSCALE
 70
     1
  9
$TREEDEPTH
 70
  3020
  9
$CMLSTYLE
  2
Standard
  9
$CMLJUST
 70
     0
  9
$CMLSCALE
 40
20.0
  9
$PROXYGRAPHICS
 70
     1
  9
$MEASUREMENT
 70
     1
  9
$CELWEIGHT
370
    -1
  9
$ENDCAPS
280
     0
  9
$JOINSTYLE
280
     0
  9
$LWDISPLAY
290
     1
  9
$INSUNITS
 70
     4
  9
$HYPERLINKBASE
  1

  9
$STYLESHEET
  1

  9
$XEDIT
290
     1
  9
$CEPSNTYPE
380
     0
  9
$PSTYLEMODE
290
     0
  9
$FINGERPRINTGUID
  2
{35BD88C3-9548-11D2-9A29-0060089B3A3F}
  9
$VERSIONGUID
  2
{9CD49CF6-0532-420A-8132-92158AF0E5EE}
  9
$EXTNAMES
290
     1
  9
$PSVPSCALE
 40
0.0
  9
$OLESTARTUP
290
     0
  0
ENDSEC
  0
SECTION
  2
CLASSES
  0
CLASS
  1
ACDBDICTIONARYWDFLT
  2
AcDbDictionaryWithDefault
  3
AutoCAD 2000
 90
        0
280
     0
281
     0
  0
CLASS
  1
ACDBPLACEHOLDER
  2
AcDbPlaceHolder
  3
AutoCAD 2000
 90
        0
280
     0
281
     0
  0
CLASS
  1
LAYOUT
  2
AcDbLayout
  3
AutoCAD 2000
 90
        0
280
     0
281
     0
  0
CLASS
  1
DICTIONARYVAR
  2
AcDbDictionaryVar
  3
AutoCAD 2000
 90
        0
280
     0
281
     0
  0
CLASS
  1
DIMASSOC
  2
AcDbDimAssoc
  3
"AcDbDimAssoc|Product Desc:     AcDim ARX App For Dimension|Company:          Autodesk, Inc.|WEB Address:      www.autodesk.com"
 90
        0
280
     0
281
     0
  0
ENDSEC
  0
SECTION
  2
TABLES
  0
TABLE
  2
VPORT
  5
8
330
0
100
AcDbSymbolTable
 70
     1
  0
VPORT
  5
265
330
8
100
AcDbSymbolTableRecord
100
AcDbViewportTableRecord
  2
*Active
 70
     0
 10
0.0
 20
0.0
 11
1.0
 21
1.0
 12
59.57702650639348
 22
34.79232796501874
 13
0.0
 23
0.0
 14
10.0
 24
10.0
 15
10.0
 25
10.0
 16
0.0
 26
0.0
 36
1.0
 17
0.0
 27
0.0
 37
0.0
 40
81.42685783184888
 41
1.855042016806723
 42
50.0
 43
0.0
 44
0.0
 50
0.0
 51
0.0
 71
     0
 72
   100
 73
     1
 74
     3
 75
     0
 76
     0
 77
     0
 78
     0
281
     0
 65
     1
110
0.0
120
0.0
130
0.0
111
1.0
121
0.0
131
0.0
112
0.0
122
1.0
132
0.0
 79
     0
146
0.0
  0
ENDTAB
  0
TABLE
  2
LTYPE
  5
5
330
0
100
AcDbSymbolTable
 70
     4
  0
LTYPE
  5
14
330
5
100
AcDbSymbolTableRecord
100
AcDbLinetypeTableRecord
  2
ByBlock
 70
     0
  3

 72
    65
 73
     0
 40
0.0
  0
LTYPE
  5
15
330
5
100
AcDbSymbolTableRecord
100
AcDbLinetypeTableRecord
  2
ByLayer
 70
     0
  3

 72
    65
 73
     0
 40
0.0
  0
LTYPE
  5
16
330
5
100
AcDbSymbolTableRecord
100
AcDbLinetypeTableRecord
  2
Continuous
 70
     0
  3
Solid line
 72
    65
 73
     0
 40
0.0
  0
LTYPE
  5
91
330
5
100
AcDbSymbolTableRecord
100
AcDbLinetypeTableRecord
  2
ACAD_ISO08W100
 70
     0
  3
ISO long-dash short-dash ____ __ ____ __ ____ _
 72
    65
 73
     4
 40
36.0
 49
24.0
 74
     0
 49
-3.0
 74
     0
 49
6.0
 74
     0
 49
-3.0
 74
     0
  0
LTYPE
  5
92
330
5
100
AcDbSymbolTableRecord
100
AcDbLinetypeTableRecord
  2
ACAD_ISO09W100
 70
     0
  3
ISO long-dash double-short-dash ____ __ __ ____
 72
    65
 73
     6
 40
45.0
 49
24.0
 74
     0
 49
-3.0
 74
     0
 49
6.0
 74
     0
 49
-3.0
 74
     0
 49
6.0
 74
     0
 49
-3.0
 74
     0
  0
LTYPE
  5
93
330
5
100
AcDbSymbolTableRecord
100
AcDbLinetypeTableRecord
  2
ACAD_ISO02W100
 70
     0
  3
ISO dash __ __ __ __ __ __ __ __ __ __ __ __ __
 72
    65
 73
     2
 40
15.0
 49
12.0
 74
     0
 49
-3.0
 74
     0
  0
ENDTAB
  0
TABLE
  2
LAYER
  5
2
330
0
100
AcDbSymbolTable
 70
    11
  0
LAYER
  5
10
330
2
100
AcDbSymbolTableRecord
100
AcDbLayerTableRecord
  2
0
 70
     0
 62
    -7
  6
Continuous
370
    -3
390
F
  0
LAYER
  5
94
330
2
100
AcDbSymbolTableRecord
100
AcDbLayerTableRecord
  2
轮廓线
 70
     0
 62
    -7
  6
Continuous
370
    35
390
F
  0
LAYER
  5
95
330
2
100
AcDbSymbolTableRecord
100
AcDbLayerTableRecord
  2
点划线
 70
     0
 62
    -1
  6
ACAD_ISO08W100
370
    13
390
F
  0
LAYER
  5
96
330
2
100
AcDbSymbolTableRecord
100
AcDbLayerTableRecord
  2
双点划线
 70
     0
 62
    -3
  6
ACAD_ISO09W100
370
    -3
390
F
  0
LAYER
  5
97
330
2
100
AcDbSymbolTableRecord
100
AcDbLayerTableRecord
  2
隐藏线
 70
     0
 62
   -44
  6
ACAD_ISO02W100
370
    13
390
F
  0
LAYER
  5
98
330
2
100
AcDbSymbolTableRecord
100
AcDbLayerTableRecord
  2
剖面线
 70
     0
 62
  -142
  6
Continuous
370
    13
390
F
  0
LAYER
  5
99
330
2
100
AcDbSymbolTableRecord
100
AcDbLayerTableRecord
  2
波浪线
 70
     0
 62
    -7
  6
Continuous
370
    13
390
F
  0
LAYER
  5
9A
330
2
100
AcDbSymbolTableRecord
100
AcDbLayerTableRecord
  2
尺寸层
 70
     0
 62
    -5
  6
Continuous
370
    13
390
F
  0
LAYER
  5
9B
330
2
100
AcDbSymbolTableRecord
100
AcDbLayerTableRecord
  2
文本层
 70
     0
 62
  -212
  6
Continuous
370
    13
390
F
  0
LAYER
  5
9C
330
2
100
AcDbSymbolTableRecord
100
AcDbLayerTableRecord
  2
其它层
 70
     0
 62
    -7
  6
Continuous
370
    -3
390
F
  0
LAYER
  5
F3
330
2
100
AcDbSymbolTableRecord
100
AcDbLayerTableRecord
  2
Defpoints
 70
     0
 62
    -7
  6
Continuous
290
     0
370
    -3
390
F
  0
ENDTAB
  0
TABLE
  2
STYLE
  5
3
330
0
100
AcDbSymbolTable
 70
     4
  0
STYLE
  5
11
330
3
100
AcDbSymbolTableRecord
100
AcDbTextStyleTableRecord
  2
Standard
 70
     0
 40
0.0
 41
1.0
 50
0.0
 71
     0
 42
2.5
  3
txt
  4

  0
STYLE
  5
90
330
3
100
AcDbSymbolTableRecord
100
AcDbTextStyleTableRecord
  2

 70
     1
 40
0.0
 41
1.0
 50
0.0
 71
     0
 42
2.5
  3
ltypeshp.shx
  4

  0
STYLE
  5
9D
330
3
100
AcDbSymbolTableRecord
100
AcDbTextStyleTableRecord
  2
汉字
 70
     0
 40
0.0
 41
0.7
 50
0.0
 71
     0
 42
2.5
  3
SIMFANG.TTF
  4

1001
ACAD
1000
FangSong_GB2312
1071
    34353
  0
STYLE
  5
9F
330
3
100
AcDbSymbolTableRecord
100
AcDbTextStyleTableRecord
  2
数字与字母
 70
     0
 40
0.0
 41
0.7
 50
0.0
 71
     0
 42
2.5
  3
romant.shx
  4

  0
ENDTAB
  0
TABLE
  2
VIEW
  5
6
330
0
100
AcDbSymbolTable
 70
     0
  0
ENDTAB
  0
TABLE
  2
UCS
  5
7
330
0
100
AcDbSymbolTable
 70
     0
  0
ENDTAB
  0
TABLE
  2
APPID
  5
9
330
0
100
AcDbSymbolTable
 70
     1
  0
APPID
  5
12
330
9
100
AcDbSymbolTableRecord
100
AcDbRegAppTableRecord
  2
ACAD
 70
     0
  0
ENDTAB
  0
TABLE
  2
DIMSTYLE
  5
A
330
0
100
AcDbSymbolTable
 70
     3
100
AcDbDimStyleTable
 71
     2
340
A1
340
27
  0
DIMSTYLE
105
27
330
A
100
AcDbSymbolTableRecord
100
AcDbDimStyleTableRecord
  2
ISO-25
 70
     0
 41
2.5
 42
0.625
 43
3.75
 44
1.25
 73
     0
 74
     0
 77
     1
 78
     8
140
2.5
141
2.5
143
0.03937007874016
144
1.0
146
1.0
147
0.625
171
     3
172
     1
176
     0
177
     0
178
     0
271
     2
272
     2
273
     2
274
     3
277
     2
278
    44
283
     0
284
     8
289
     3
340
11
371
    -2
372
    -2
341
0
342
0
343
0
344
0
  0
DIMSTYLE
105
A1
102
{ACAD_REACTORS
330
F2
330
11A
330
132
330
14A
330
162
330
17E
330
196
330
1AE
330
1E8
102
}
330
A
100
AcDbSymbolTableRecord
100
AcDbDimStyleTableRecord
  2
机械标注
 70
     0
 41
3.5
 43
7.5
 44
2.5
 73
     0
 74
     1
 77
     1
 78
     8
140
5.0
141
2.5
143
0.03937007874016
144
1.0
146
1.0
147
0.625
171
     3
172
     1
176
     0
177
     0
178
     0
271
     1
272
     1
273
     2
274
     3
277
     2
278
    46
283
     0
284
     8
289
     3
340
9F
371
    -2
372
    -2
341
0
342
0
343
0
344
0
  0
DIMSTYLE
105
A2
330
A
100
AcDbSymbolTableRecord
100
AcDbDimStyleTableRecord
  2
机械标注$2
 70
     0
 41
3.5
 43
7.5
 44
2.5
 73
     1
 74
     1
 77
     1
 78
     8
140
5.0
141
2.5
143
0.03937007874016
144
1.0
146
1.0
147
0.625
171
     3
172
     1
176
     0
177
     0
178
     0
271
     1
272
     1
273
     2
274
     3
277
     2
278
    46
283
     0
284
     8
289
     3
340
9F
371
    -2
372
    -2
341
0
342
0
343
0
344
0
  0
ENDTAB
  0
TABLE
  2
BLOCK_RECORD
  5
1
330
0
100
AcDbSymbolTable
 70
    10
  0
BLOCK_RECORD
  5
1F
330
1
100
AcDbSymbolTableRecord
100
AcDbBlockTableRecord
  2
*Model_Space
340
22
  0
BLOCK_RECORD
  5
5E
330
1
100
AcDbSymbolTableRecord
100
AcDbBlockTableRecord
  2
*Paper_Space
340
5F
  0
BLOCK_RECORD
  5
59
330
1
100
AcDbSymbolTableRecord
100
AcDbBlockTableRecord
  2
*Paper_Space0
340
5A
  0
BLOCK_RECORD
  5
F4
330
1
100
AcDbSymbolTableRecord
100
AcDbBlockTableRecord
  2
*D1
340
0
  0
BLOCK_RECORD
  5
11B
330
1
100
AcDbSymbolTableRecord
100
AcDbBlockTableRecord
  2
*D2
340
0
  0
BLOCK_RECORD
  5
133
330
1
100
AcDbSymbolTableRecord
100
AcDbBlockTableRecord
  2
*D3
340
0
  0
BLOCK_RECORD
  5
14B
330
1
100
AcDbSymbolTableRecord
100
AcDbBlockTableRecord
  2
*D4
340
0
  0
BLOCK_RECORD
  5
163
330
1
100
AcDbSymbolTableRecord
100
AcDbBlockTableRecord
  2
*D5
340
0
  0
BLOCK_RECORD
  5
17F
330
1
100
AcDbSymbolTableRecord
100
AcDbBlockTableRecord
  2
*D6
340
0
  0
BLOCK_RECORD
  5
197
330
1
100
AcDbSymbolTableRecord
100
AcDbBlockTableRecord
  2
*D7
340
0
  0
BLOCK_RECORD
  5
1AF
330
1
100
AcDbSymbolTableRecord
100
AcDbBlockTableRecord
  2
*D8
340
0
  0
BLOCK_RECORD
  5
1E9
330
1
100
AcDbSymbolTableRecord
100
AcDbBlockTableRecord
  2
*D9
340
0
  0
ENDTAB
  0
ENDSEC
  0
SECTION
  2
BLOCKS
  0
BLOCK
  5
20
330
1F
100
AcDbEntity
  8
0
100
AcDbBlockBegin
  2
*Model_Space
 70
     0
 10
0.0
 20
0.0
 30
0.0
  3
*Model_Space
  1

  0
ENDBLK
  5
21
330
1F
100
AcDbEntity
  8
0
100
AcDbBlockEnd
  0
BLOCK
  5
5B
330
59
100
AcDbEntity
  8
0
100
AcDbBlockBegin
  2
*Paper_Space0
 70
     0
 10
0.0
 20
0.0
 30
0.0
  3
*Paper_Space0
  1

  0
VIEWPORT
  5
74
330
59
100
AcDbEntity
  8
0
100
AcDbViewport
 10
134.8228915879863
 20
101.5999970436096
 30
0.0
 40
405.4378955490815
 41
218.5599527535252
 68
     0
 69
     0
 12
134.8228915879863
 22
101.5999970436096
 13
0.0
 23
0.0
 14
0.5
 24
0.5
 15
0.5
 25
0.5
 16
0.0
 26
0.0
 36
1.0
 17
0.0
 27
0.0
 37
0.0
 42
50.0
 43
0.0
 44
0.0
 45
218.5599527535252
 50
0.0
 51
0.0
 72
   100
 90
    32800
  1

281
     0
 71
     1
 74
     0
110
0.0
120
0.0
130
0.0
111
1.0
121
0.0
131
0.0
112
0.0
122
1.0
132
0.0
 79
     0
146
0.0
348
0
340
0
345
0
346
0
  0
VIEWPORT
  5
76
330
59
100
AcDbEntity
  8
0
100
AcDbViewport
 10
133.3499939441681
 20
101.5999939441681
 30
0.0
 40
213.3599903106689
 41
162.5599903106689
 68
     0
 69
     0
 12
58.69891497148362
 22
28.35424334067967
 13
0.0
 23
0.0
 14
10.0
 24
10.0
 15
10.0
 25
10.0
 16
0.0
 26
0.0
 36
1.0
 17
0.0
 27
0.0
 37
0.0
 42
50.0
 43
0.0
 44
0.0
 45
121.6607852998066
 50
0.0
 51
0.0
 72
   100
 90
    32864
  1

281
     0
 71
     1
 74
     0
110
0.0
120
0.0
130
0.0
111
1.0
121
0.0
131
0.0
112
0.0
122
1.0
132
0.0
 79
     0
146
0.0
348
0
340
0
345
0
346
0
  0
ENDBLK
  5
5C
330
59
100
AcDbEntity
  8
0
100
AcDbBlockEnd
  0
BLOCK
  5
60
330
5E
100
AcDbEntity
 67
     1
  8
0
100
AcDbBlockBegin
  2
*Paper_Space
 70
     0
 10
0.0
 20
0.0
 30
0.0
  3
*Paper_Space
  1

  0
ENDBLK
  5
61
330
5E
100
AcDbEntity
 67
     1
  8
0
100
AcDbBlockEnd
  0
BLOCK
  5
100
330
F4
100
AcDbEntity
  8
0
100
AcDbBlockBegin
  2
*D1
 70
     1
 10
0.0
 20
0.0
 30
0.0
  3
*D1
  1

  0
LINE
  5
21B
330
F4
100
AcDbEntity
  8
文本层
370
    -2
 62
     0
100
AcDbLine
 10
19.85026438729085
 20
27.15484035962174
 30
0.0
 11
12.32017280411293
 21
27.15484035962174
 31
0.0
  0
LINE
  5
21C
330
F4
100
AcDbEntity
  8
文本层
370
    -2
 62
     0
100
AcDbLine
 10
24.85026438729085
 20
21.15484035962174
 30
0.0
 11
12.32017280411293
 21
21.15484035962175
 31
0.0
  0
LINE
  5
21D
330
F4
100
AcDbEntity
  8
文本层
370
    -2
 62
     0
100
AcDbLine
 10
14.82017280411293
 20
30.65484035962174
 30
0.0
 11
14.82017280411293
 21
34.15484035962174
 31
0.0
  0
LINE
  5
21E
330
F4
100
AcDbEntity
  8
文本层
370
    -2
 62
     0
100
AcDbLine
 10
14.82017280411293
 20
17.65484035962175
 30
0.0
 11
14.82017280411293
 21
14.15484035962175
 31
0.0
  0
LINE
  5
21F
330
F4
100
AcDbEntity
  8
文本层
370
    -2
 62
     0
100
AcDbLine
 10
14.82017280411293
 20
27.15484035962174
 30
0.0
 11
14.82017280411293
 21
21.15484035962175
 31
0.0
  0
SOLID
  5
220
330
F4
100
AcDbEntity
  8
文本层
 62
     0
100
AcDbTrace
 38
0.0
 10
14.2368394707796
 20
30.65484035962174
 11
15.40350613744626
 21
30.65484035962174
 12
14.82017280411293
 22
27.15484035962174
 13
14.82017280411293
 23
27.15484035962174
  0
SOLID
  5
221
330
F4
100
AcDbEntity
  8
文本层
 62
     0
100
AcDbTrace
 38
0.0
 10
14.23683947077959
 20
17.65484035962175
 11
15.40350613744626
 21
17.65484035962175
 12
14.82017280411293
 22
21.15484035962175
 13
14.82017280411293
 23
21.15484035962175
  0
MTEXT
  5
222
330
F4
100
AcDbEntity
  8
文本层
 62
     0
100
AcDbMText
 10
11.69517280411292
 20
24.15484035962175
 30
0.0
210
0.0
220
0.0
230
1.0
 11
6.123031769111886E-17
 21
1.0
 31
0.0
 40
5.0
 41
0.0
 71
     5
 72
     1
  1
6
  7
数字与字母
 73
     1
 44
1.0
  0
POINT
  5
223
330
F4
100
AcDbEntity
  8
Defpoints
 62
     0
100
AcDbPoint
 10
19.85026438729085
 20
27.15484035962174
 30
0.0
 50
0.0
  0
POINT
  5
224
330
F4
100
AcDbEntity
  8
Defpoints
 62
     0
100
AcDbPoint
 10
24.85026438729085
 20
21.15484035962174
 30
0.0
 50
0.0
  0
POINT
  5
225
330
F4
100
AcDbEntity
  8
Defpoints
 62
     0
100
AcDbPoint
 10
14.82017280411293
 20
21.15484035962175
 30
0.0
 50
0.0
  0
ENDBLK
  5
101
330
F4
100
AcDbEntity
  8
0
100
AcDbBlockEnd
  0
BLOCK
  5
125
330
11B
100
AcDbEntity
  8
0
100
AcDbBlockBegin
  2
*D2
 70
     1
 10
0.0
 20
0.0
 30
0.0
  3
*D2
  1

  0
LINE
  5
212
330
11B
100
AcDbEntity
  8
文本层
370
    -2
 62
     0
100
AcDbLine
 10
17.52936895198997
 20
21.15484035962175
 30
0.0
 11
2.280211168581608
 21
21.15484035962175
 31
0.0
  0
LINE
  5
213
330
11B
100
AcDbEntity
  8
文本层
370
    -2
 62
     0
100
AcDbLine
 10
32.35026438729085
 20
57.15484035962174
 30
0.0
 11
2.280211168581614
 21
57.15484035962175
 31
0.0
  0
LINE
  5
214
330
11B
100
AcDbEntity
  8
文本层
370
    -2
 62
     0
100
AcDbLine
 10
4.780211168581609
 20
24.65484035962175
 30
0.0
 11
4.780211168581615
 21
53.65484035962175
 31
0.0
  0
SOLID
  5
215
330
11B
100
AcDbEntity
  8
文本层
 62
     0
100
AcDbTrace
 38
0.0
 10
4.196877835248276
 20
24.65484035962175
 11
5.363544501914942
 21
24.65484035962175
 12
4.780211168581608
 22
21.15484035962175
 13
4.780211168581608
 23
21.15484035962175
  0
SOLID
  5
216
330
11B
100
AcDbEntity
  8
文本层
 62
     0
100
AcDbTrace
 38
0.0
 10
4.196877835248282
 20
53.65484035962175
 11
5.363544501914948
 21
53.65484035962175
 12
4.780211168581616
 22
57.15484035962175
 13
4.780211168581616
 23
57.15484035962175
  0
MTEXT
  5
217
330
11B
100
AcDbEntity
  8
文本层
 62
     0
100
AcDbMText
 10
1.655211168581604
 20
39.15484035962175
 30
0.0
210
0.0
220
0.0
230
1.0
 11
6.123031769111886E-17
 21
1.0
 31
0.0
 40
5.0
 41
0.0
 71
     5
 72
     1
  1
36
  7
数字与字母
 73
     1
 44
1.0
  0
POINT
  5
218
330
11B
100
AcDbEntity
  8
Defpoints
 62
     0
100
AcDbPoint
 10
17.52936895198997
 20
21.15484035962175
 30
0.0
 50
0.0
  0
POINT
  5
219
330
11B
100
AcDbEntity
  8
Defpoints
 62
     0
100
AcDbPoint
 10
32.35026438729085
 20
57.15484035962174
 30
0.0
 50
0.0
  0
POINT
  5
21A
330
11B
100
AcDbEntity
  8
Defpoints
 62
     0
100
AcDbPoint
 10
4.780211168581616
 20
57.15484035962175
 30
0.0
 50
0.0
  0
ENDBLK
  5
126
330
11B
100
AcDbEntity
  8
0
100
AcDbBlockEnd
  0
BLOCK
  5
13D
330
133
100
AcDbEntity
  8
0
100
AcDbBlockBegin
  2
*D3
 70
     1
 10
0.0
 20
0.0
 30
0.0
  3
*D3
  1

  0
LINE
  5
226
330
133
100
AcDbEntity
  8
文本层
370
    -2
 62
     0
100
AcDbLine
 10
24.85026438729085
 20
21.15484035962174
 30
0.0
 11
24.85026438729085
 21
7.28774653202936
 31
0.0
  0
LINE
  5
227
330
133
100
AcDbEntity
  8
文本层
370
    -2
 62
     0
100
AcDbLine
 10
39.85026438729085
 20
21.15484035962174
 30
0.0
 11
39.85026438729085
 21
7.28774653202936
 31
0.0
  0
LINE
  5
228
330
133
100
AcDbEntity
  8
文本层
370
    -2
 62
     0
100
AcDbLine
 10
28.35026438729085
 20
9.78774653202936
 30
0.0
 11
36.35026438729085
 21
9.78774653202936
 31
0.0
  0
SOLID
  5
229
330
133
100
AcDbEntity
  8
文本层
 62
     0
100
AcDbTrace
 38
0.0
 10
28.35026438729085
 20
10.37107986536269
 11
28.35026438729085
 21
9.204413198696026
 12
24.85026438729085
 22
9.78774653202936
 13
24.85026438729085
 23
9.78774653202936
  0
SOLID
  5
22A
330
133
100
AcDbEntity
  8
文本层
 62
     0
100
AcDbTrace
 38
0.0
 10
36.35026438729085
 20
10.37107986536269
 11
36.35026438729085
 21
9.204413198696026
 12
39.85026438729085
 22
9.78774653202936
 13
39.85026438729085
 23
9.78774653202936
  0
MTEXT
  5
22B
330
133
100
AcDbEntity
  8
文本层
 62
     0
100
AcDbMText
 10
32.35026438729085
 20
12.91274653202936
 30
0.0
210
0.0
220
0.0
230
1.0
 11
1.0
 21
0.0
 31
0.0
 40
5.0
 41
0.0
 71
     5
 72
     1
  1
15
  7
数字与字母
 73
     1
 44
1.0
  0
POINT
  5
22C
330
133
100
AcDbEntity
  8
Defpoints
 62
     0
100
AcDbPoint
 10
24.85026438729085
 20
21.15484035962174
 30
0.0
 50
0.0
  0
POINT
  5
22D
330
133
100
AcDbEntity
  8
Defpoints
 62
     0
100
AcDbPoint
 10
39.85026438729085
 20
21.15484035962174
 30
0.0
 50
0.0
  0
POINT
  5
22E
330
133
100
AcDbEntity
  8
Defpoints
 62
     0
100
AcDbPoint
 10
39.85026438729085
 20
9.78774653202936
 30
0.0
 50
0.0
  0
ENDBLK
  5
13E
330
133
100
AcDbEntity
  8
0
100
AcDbBlockEnd
  0
BLOCK
  5
155
330
14B
100
AcDbEntity
  8
0
100
AcDbBlockBegin
  2
*D4
 70
     1
 10
0.0
 20
0.0
 30
0.0
  3
*D4
  1

  0
LINE
  5
255
330
14B
100
AcDbEntity
  8
文本层
370
    -2
 62
     0
100
AcDbLine
 10
73.24723181714717
 20
57.15484035962174
 30
0.0
 11
73.24723181714717
 21
68.48904397441737
 31
0.0
  0
LINE
  5
256
330
14B
100
AcDbEntity
  8
文本层
370
    -2
 62
     0
100
AcDbLine
 10
83.24723181714717
 20
57.15484035962174
 30
0.0
 11
83.24723181714717
 21
68.48904397441737
 31
0.0
  0
LINE
  5
257
330
14B
100
AcDbEntity
  8
文本层
370
    -2
 62
     0
100
AcDbLine
 10
76.74723181714717
 20
65.98904397441737
 30
0.0
 11
79.74723181714717
 21
65.98904397441737
 31
0.0
  0
SOLID
  5
258
330
14B
100
AcDbEntity
  8
文本层
 62
     0
100
AcDbTrace
 38
0.0
 10
76.74723181714717
 20
66.5723773077507
 11
76.74723181714717
 21
65.40571064108404
 12
73.24723181714717
 22
65.98904397441737
 13
73.24723181714717
 23
65.98904397441737
  0
SOLID
  5
259
330
14B
100
AcDbEntity
  8
文本层
 62
     0
100
AcDbTrace
 38
0.0
 10
79.74723181714717
 20
66.5723773077507
 11
79.74723181714717
 21
65.40571064108404
 12
83.24723181714717
 22
65.98904397441737
 13
83.24723181714717
 23
65.98904397441737
  0
MTEXT
  5
25A
330
14B
100
AcDbEntity
  8
文本层
 62
     0
100
AcDbMText
 10
78.24723181714717
 20
69.11404397441737
 30
0.0
210
0.0
220
0.0
230
1.0
 11
1.0
 21
0.0
 31
0.0
 40
5.0
 41
0.0
 71
     5
 72
     1
  1
10
  7
数字与字母
 73
     1
 44
1.0
  0
POINT
  5
25B
330
14B
100
AcDbEntity
  8
Defpoints
 62
     0
100
AcDbPoint
 10
73.24723181714717
 20
57.15484035962174
 30
0.0
 50
0.0
  0
POINT
  5
25C
330
14B
100
AcDbEntity
  8
Defpoints
 62
     0
100
AcDbPoint
 10
83.24723181714717
 20
57.15484035962174
 30
0.0
 50
0.0
  0
POINT
  5
25D
330
14B
100
AcDbEntity
  8
Defpoints
 62
     0
100
AcDbPoint
 10
83.24723181714717
 20
65.98904397441737
 30
0.0
 50
0.0
  0
ENDBLK
  5
156
330
14B
100
AcDbEntity
  8
0
100
AcDbBlockEnd
  0
BLOCK
  5
16F
330
163
100
AcDbEntity
  8
0
100
AcDbBlockBegin
  2
*D5
 70
     1
 10
0.0
 20
0.0
 30
0.0
  3
*D5
  1

  0
LINE
  5
24A
330
163
100
AcDbEntity
  8
文本层
370
    -2
 62
     0
100
AcDbLine
 10
75.74723181714717
 20
21.15484035962174
 30
0.0
 11
75.74723181714717
 21
8.879851221342051
 31
0.0
  0
LINE
  5
24B
330
163
100
AcDbEntity
  8
文本层
370
    -2
 62
     0
100
AcDbLine
 10
80.74723181714717
 20
21.17449195591866
 30
0.0
 11
80.74723181714717
 21
8.879851221342051
 31
0.0
  0
LINE
  5
24C
330
163
100
AcDbEntity
  8
文本层
370
    -2
 62
     0
100
AcDbLine
 10
72.24723181714717
 20
11.37985122134205
 30
0.0
 11
68.74723181714717
 21
11.37985122134205
 31
0.0
  0
LINE
  5
24D
330
163
100
AcDbEntity
  8
文本层
370
    -2
 62
     0
100
AcDbLine
 10
84.24723181714717
 20
11.37985122134205
 30
0.0
 11
87.74723181714717
 21
11.37985122134205
 31
0.0
  0
LINE
  5
24E
330
163
100
AcDbEntity
  8
文本层
370
    -2
 62
     0
100
AcDbLine
 10
75.74723181714717
 20
11.37985122134205
 30
0.0
 11
80.74723181714717
 21
11.37985122134205
 31
0.0
  0
SOLID
  5
24F
330
163
100
AcDbEntity
  8
文本层
 62
     0
100
AcDbTrace
 38
0.0
 10
72.24723181714717
 20
11.96318455467538
 11
72.24723181714717
 21
10.79651788800872
 12
75.74723181714717
 22
11.37985122134205
 13
75.74723181714717
 23
11.37985122134205
  0
SOLID
  5
250
330
163
100
AcDbEntity
  8
文本层
 62
     0
100
AcDbTrace
 38
0.0
 10
84.24723181714717
 20
11.96318455467538
 11
84.24723181714717
 21
10.79651788800872
 12
80.74723181714717
 22
11.37985122134205
 13
80.74723181714717
 23
11.37985122134205
  0
MTEXT
  5
251
330
163
100
AcDbEntity
  8
文本层
 62
     0
100
AcDbMText
 10
78.24723181714717
 20
14.50485122134205
 30
0.0
210
0.0
220
0.0
230
1.0
 11
1.0
 21
0.0
 31
0.0
 40
5.0
 41
0.0
 71
     5
 72
     1
  1
5
  7
数字与字母
 73
     1
 44
1.0
  0
POINT
  5
252
330
163
100
AcDbEntity
  8
Defpoints
 62
     0
100
AcDbPoint
 10
75.74723181714717
 20
21.15484035962174
 30
0.0
 50
0.0
  0
POINT
  5
253
330
163
100
AcDbEntity
  8
Defpoints
 62
     0
100
AcDbPoint
 10
80.74723181714717
 20
21.17449195591866
 30
0.0
 50
0.0
  0
POINT
  5
254
330
163
100
AcDbEntity
  8
Defpoints
 62
     0
100
AcDbPoint
 10
80.74723181714717
 20
11.37985122134205
 30
0.0
 50
0.0
  0
ENDBLK
  5
170
330
163
100
AcDbEntity
  8
0
100
AcDbBlockEnd
  0
BLOCK
  5
189
330
17F
100
AcDbEntity
  8
0
100
AcDbBlockBegin
  2
*D6
 70
     1
 10
0.0
 20
0.0
 30
0.0
  3
*D6
  1

  0
LINE
  5
209
330
17F
100
AcDbEntity
  8
文本层
370
    -2
 62
     0
100
AcDbLine
 10
73.24723181714717
 20
57.15484035962174
 30
0.0
 11
55.407043372528
 21
57.15484035962174
 31
0.0
  0
LINE
  5
20A
330
17F
100
AcDbEntity
  8
文本层
370
    -2
 62
     0
100
AcDbLine
 10
60.74723181714717
 20
31.15484035962174
 30
0.0
 11
55.40704337252799
 21
31.15484035962175
 31
0.0
  0
LINE
  5
20B
330
17F
100
AcDbEntity
  8
文本层
370
    -2
 62
     0
100
AcDbLine
 10
57.907043372528
 20
53.65484035962174
 30
0.0
 11
57.90704337252799
 21
34.65484035962174
 31
0.0
  0
SOLID
  5
20C
330
17F
100
AcDbEntity
  8
文本层
 62
     0
100
AcDbTrace
 38
0.0
 10
57.32371003919467
 20
53.65484035962174
 11
58.49037670586134
 21
53.65484035962174
 12
57.907043372528
 22
57.15484035962174
 13
57.907043372528
 23
57.15484035962174
  0
SOLID
  5
20D
330
17F
100
AcDbEntity
  8
文本层
 62
     0
100
AcDbTrace
 38
0.0
 10
57.32371003919466
 20
34.65484035962174
 11
58.49037670586133
 21
34.65484035962174
 12
57.90704337252799
 22
31.15484035962174
 13
57.90704337252799
 23
31.15484035962174
  0
MTEXT
  5
20E
330
17F
100
AcDbEntity
  8
文本层
 62
     0
100
AcDbMText
 10
54.78204337252799
 20
44.15484035962176
 30
0.0
210
0.0
220
0.0
230
1.0
 11
6.123031769111886E-17
 21
1.0
 31
0.0
 40
5.0
 41
0.0
 71
     5
 72
     1
  1
26
  7
数字与字母
 73
     1
 44
1.0
  0
POINT
  5
20F
330
17F
100
AcDbEntity
  8
Defpoints
 62
     0
100
AcDbPoint
 10
73.24723181714717
 20
57.15484035962174
 30
0.0
 50
0.0
  0
POINT
  5
210
330
17F
100
AcDbEntity
  8
Defpoints
 62
     0
100
AcDbPoint
 10
60.74723181714717
 20
31.15484035962174
 30
0.0
 50
0.0
  0
POINT
  5
211
330
17F
100
AcDbEntity
  8
Defpoints
 62
     0
100
AcDbPoint
 10
57.90704337252799
 20
31.15484035962174
 30
0.0
 50
0.0
  0
ENDBLK
  5
18A
330
17F
100
AcDbEntity
  8
0
100
AcDbBlockEnd
  0
BLOCK
  5
1A1
330
197
100
AcDbEntity
  8
0
100
AcDbBlockBegin
  2
*D7
 70
     1
 10
0.0
 20
0.0
 30
0.0
  3
*D7
  1

  0
LINE
  5
238
330
197
100
AcDbEntity
  8
文本层
370
    -2
 62
     0
100
AcDbLine
 10
80.74723181714717
 20
37.65484035962174
 30
0.0
 11
107.1118147967586
 21
37.65484035962174
 31
0.0
  0
LINE
  5
239
330
197
100
AcDbEntity
  8
文本层
370
    -2
 62
     0
100
AcDbLine
 10
88.24723181714717
 20
21.15484035962174
 30
0.0
 11
107.1118147967586
 21
21.15484035962174
 31
0.0
  0
LINE
  5
23A
330
197
100
AcDbEntity
  8
文本层
370
    -2
 62
     0
100
AcDbLine
 10
104.6118147967586
 20
34.15484035962174
 30
0.0
 11
104.6118147967586
 21
24.65484035962174
 31
0.0
  0
SOLID
  5
23B
330
197
100
AcDbEntity
  8
文本层
 62
     0
100
AcDbTrace
 38
0.0
 10
104.0284814634252
 20
34.15484035962174
 11
105.1951481300919
 21
34.15484035962174
 12
104.6118147967586
 22
37.65484035962174
 13
104.6118147967586
 23
37.65484035962174
  0
SOLID
  5
23C
330
197
100
AcDbEntity
  8
文本层
 62
     0
100
AcDbTrace
 38
0.0
 10
104.0284814634252
 20
24.65484035962174
 11
105.1951481300919
 21
24.65484035962174
 12
104.6118147967586
 22
21.15484035962174
 13
104.6118147967586
 23
21.15484035962174
  0
MTEXT
  5
23D
330
197
100
AcDbEntity
  8
文本层
 62
     0
100
AcDbMText
 10
101.4868147967586
 20
29.40484035962176
 30
0.0
210
0.0
220
0.0
230
1.0
 11
6.123031769111886E-17
 21
1.0
 31
0.0
 40
5.0
 41
0.0
 71
     5
 72
     1
  1
16.5
  7
数字与字母
 73
     1
 44
1.0
  0
POINT
  5
23E
330
197
100
AcDbEntity
  8
Defpoints
 62
     0
100
AcDbPoint
 10
80.74723181714717
 20
37.65484035962174
 30
0.0
 50
0.0
  0
POINT
  5
23F
330
197
100
AcDbEntity
  8
Defpoints
 62
     0
100
AcDbPoint
 10
88.24723181714717
 20
21.15484035962174
 30
0.0
 50
0.0
  0
POINT
  5
240
330
197
100
AcDbEntity
  8
Defpoints
 62
     0
100
AcDbPoint
 10
104.6118147967586
 20
21.15484035962174
 30
0.0
 50
0.0
  0
ENDBLK
  5
1A2
330
197
100
AcDbEntity
  8
0
100
AcDbBlockEnd
  0
BLOCK
  5
1B9
330
1AF
100
AcDbEntity
  8
0
100
AcDbBlockBegin
  2
*D8
 70
     1
 10
0.0
 20
0.0
 30
0.0
  3
*D8
  1

  0
LINE
  5
22F
330
1AF
100
AcDbEntity
  8
文本层
370
    -2
 62
     0
100
AcDbLine
 10
78.24723181714717
 20
39.15484035962174
 30
0.0
 11
116.8992063170046
 21
39.15484035962173
 31
0.0
  0
LINE
  5
230
330
1AF
100
AcDbEntity
  8
文本层
370
    -2
 62
     0
100
AcDbLine
 10
95.01709002001803
 20
21.15484035962174
 30
0.0
 11
116.8992063170045
 21
21.15484035962174
 31
0.0
  0
LINE
  5
231
330
1AF
100
AcDbEntity
  8
文本层
370
    -2
 62
     0
100
AcDbLine
 10
114.3992063170046
 20
35.65484035962173
 30
0.0
 11
114.3992063170045
 21
24.65484035962174
 31
0.0
  0
SOLID
  5
232
330
1AF
100
AcDbEntity
  8
文本层
 62
     0
100
AcDbTrace
 38
0.0
 10
113.8158729836712
 20
35.65484035962173
 11
114.9825396503379
 21
35.65484035962173
 12
114.3992063170046
 22
39.15484035962173
 13
114.3992063170046
 23
39.15484035962173
  0
SOLID
  5
233
330
1AF
100
AcDbEntity
  8
文本层
 62
     0
100
AcDbTrace
 38
0.0
 10
113.8158729836712
 20
24.65484035962174
 11
114.9825396503379
 21
24.65484035962174
 12
114.3992063170045
 22
21.15484035962174
 13
114.3992063170045
 23
21.15484035962174
  0
MTEXT
  5
234
330
1AF
100
AcDbEntity
  8
文本层
 62
     0
100
AcDbMText
 10
111.2742063170045
 20
30.15484035962175
 30
0.0
210
0.0
220
0.0
230
1.0
 11
6.123031769111886E-17
 21
1.0
 31
0.0
 40
5.0
 41
0.0
 71
     5
 72
     1
  1
18
  7
数字与字母
 73
     1
 44
1.0
  0
POINT
  5
235
330
1AF
100
AcDbEntity
  8
Defpoints
 62
     0
100
AcDbPoint
 10
78.24723181714717
 20
39.15484035962174
 30
0.0
 50
0.0
  0
POINT
  5
236
330
1AF
100
AcDbEntity
  8
Defpoints
 62
     0
100
AcDbPoint
 10
95.01709002001803
 20
21.15484035962174
 30
0.0
 50
0.0
  0
POINT
  5
237
330
1AF
100
AcDbEntity
  8
Defpoints
 62
     0
100
AcDbPoint
 10
114.3992063170045
 20
21.15484035962174
 30
0.0
 50
0.0
  0
ENDBLK
  5
1BA
330
1AF
100
AcDbEntity
  8
0
100
AcDbBlockEnd
  0
BLOCK
  5
1F3
330
1E9
100
AcDbEntity
  8
0
100
AcDbBlockBegin
  2
*D9
 70
     1
 10
0.0
 20
0.0
 30
0.0
  3
*D9
  1

  0
LINE
  5
241
330
1E9
100
AcDbEntity
  8
文本层
370
    -2
 62
     0
100
AcDbLine
 10
65.74723181714717
 20
27.15484035962174
 30
0.0
 11
65.74723181714717
 21
-0.3292666690390149
 31
0.0
  0
LINE
  5
242
330
1E9
100
AcDbEntity
  8
文本层
370
    -2
 62
     0
100
AcDbLine
 10
90.74723181714717
 20
27.15484035962174
 30
0.0
 11
90.74723181714717
 21
-0.3292666690390149
 31
0.0
  0
LINE
  5
243
330
1E9
100
AcDbEntity
  8
文本层
370
    -2
 62
     0
100
AcDbLine
 10
69.24723181714717
 20
2.170733330960985
 30
0.0
 11
87.24723181714717
 21
2.170733330960985
 31
0.0
  0
SOLID
  5
244
330
1E9
100
AcDbEntity
  8
文本层
 62
     0
100
AcDbTrace
 38
0.0
 10
69.24723181714717
 20
2.754066664294318
 11
69.24723181714717
 21
1.587399997627652
 12
65.74723181714717
 22
2.170733330960985
 13
65.74723181714717
 23
2.170733330960985
  0
SOLID
  5
245
330
1E9
100
AcDbEntity
  8
文本层
 62
     0
100
AcDbTrace
 38
0.0
 10
87.24723181714717
 20
2.754066664294318
 11
87.24723181714717
 21
1.587399997627652
 12
90.74723181714717
 22
2.170733330960985
 13
90.74723181714717
 23
2.170733330960985
  0
MTEXT
  5
246
330
1E9
100
AcDbEntity
  8
文本层
 62
     0
100
AcDbMText
 10
78.24723181714717
 20
5.295733330960985
 30
0.0
210
0.0
220
0.0
230
1.0
 11
1.0
 21
0.0
 31
0.0
 40
5.0
 41
0.0
 71
     5
 72
     1
  1
25
  7
数字与字母
 73
     1
 44
1.0
  0
POINT
  5
247
330
1E9
100
AcDbEntity
  8
Defpoints
 62
     0
100
AcDbPoint
 10
65.74723181714717
 20
27.15484035962174
 30
0.0
 50
0.0
  0
POINT
  5
248
330
1E9
100
AcDbEntity
  8
Defpoints
 62
     0
100
AcDbPoint
 10
90.74723181714717
 20
27.15484035962174
 30
0.0
 50
0.0
  0
POINT
  5
249
330
1E9
100
AcDbEntity
  8
Defpoints
 62
     0
100
AcDbPoint
 10
90.74723181714717
 20
2.170733330960985
 30
0.0
 50
0.0
  0
ENDBLK
  5
1F4
330
1E9
100
AcDbEntity
  8
0
100
AcDbBlockEnd
  0
ENDSEC
  0
SECTION
  2
ENTITIES
  0
LINE
  5
A9
330
1F
100
AcDbEntity
  8
点划线
100
AcDbLine
 10
16.85026438729085
 20
44.65484035962174
 30
0.0
 11
47.85026438729085
 21
44.65484035962174
 31
0.0
  0
LINE
  5
AA
330
1F
100
AcDbEntity
  8
点划线
100
AcDbLine
 10
32.35026438729085
 20
60.15484035962174
 30
0.0
 11
32.35026438729085
 21
18.15484035962174
 31
0.0
  0
LINE
  5
AB
102
{ACAD_REACTORS
330
1E7
102
}
330
1F
100
AcDbEntity
  8
点划线
100
AcDbLine
 10
78.24723181714717
 20
18.15484035962174
 30
0.0
 11
78.24723181714717
 21
60.15484035962174
 31
0.0
  0
LINE
  5
B0
102
{ACAD_REACTORS
330
10E
102
}
330
1F
100
AcDbEntity
  8
轮廓线
100
AcDbLine
 10
19.85026438729085
 20
44.65484035962174
 30
0.0
 11
19.85026438729085
 21
27.15484035962174
 31
0.0
  0
LINE
  5
B1
330
1F
100
AcDbEntity
  8
轮廓线
100
AcDbLine
 10
19.85026438729085
 20
27.15484035962174
 30
0.0
 11
44.85026438729085
 21
27.15484035962174
 31
0.0
  0
LINE
  5
B2
330
1F
100
AcDbEntity
  8
轮廓线
100
AcDbLine
 10
44.85026438729085
 20
27.15484035962174
 30
0.0
 11
44.85026438729085
 21
44.65484035962174
 31
0.0
  0
ARC
  5
B3
102
{ACAD_REACTORS
330
131
102
}
330
1F
100
AcDbEntity
  8
轮廓线
100
AcDbCircle
 10
32.35026438729085
 20
44.65484035962174
 30
0.0
 40
12.5
100
AcDbArc
 50
0.0
 51
180.0
  0
LINE
  5
B4
330
1F
100
AcDbEntity
  8
轮廓线
100
AcDbLine
 10
19.85026438729085
 20
31.15484035962174
 30
0.0
 11
44.85026438729085
 21
31.15484035962174
 31
0.0
  0
LINE
  5
B5
330
1F
100
AcDbEntity
  8
轮廓线
100
AcDbLine
 10
24.85026438729085
 20
27.15484035962174
 30
0.0
 11
24.85026438729085
 21
21.15484035962174
 31
0.0
  0
LINE
  5
B6
330
1F
100
AcDbEntity
  8
轮廓线
100
AcDbLine
 10
24.85026438729085
 20
21.15484035962174
 30
0.0
 11
39.85026438729085
 21
21.15484035962174
 31
0.0
  0
LINE
  5
B8
330
1F
100
AcDbEntity
  8
轮廓线
100
AcDbLine
 10
39.85026438729085
 20
21.15484035962174
 30
0.0
 11
39.85026438729085
 21
27.15484035962174
 31
0.0
  0
LINE
  5
B9
102
{ACAD_REACTORS
330
10E
102
}
330
1F
100
AcDbEntity
  8
轮廓线
100
AcDbLine
 10
39.85026438729085
 20
27.15484035962174
 30
0.0
 11
24.85026438729085
 21
21.15484035962174
 31
0.0
  0
LINE
  5
BA
102
{ACAD_REACTORS
330
149
102
}
330
1F
100
AcDbEntity
  8
轮廓线
100
AcDbLine
 10
24.85026438729085
 20
27.15484035962174
 30
0.0
 11
39.85026438729085
 21
21.15484035962174
 31
0.0
  0
CIRCLE
  5
BE
330
1F
100
AcDbEntity
  8
轮廓线
100
AcDbCircle
 10
32.35026438729085
 20
44.65484035962174
 30
0.0
 40
3.25
  0
LINE
  5
BF
330
1F
100
AcDbEntity
  8
轮廓线
100
AcDbLine
 10
73.24723181714717
 20
47.90484035962174
 30
0.0
 11
83.24723181714717
 21
47.90484035962174
 31
0.0
  0
LINE
  5
C0
102
{ACAD_REACTORS
330
1E7
102
}
330
1F
100
AcDbEntity
  8
轮廓线
100
AcDbLine
 10
73.24723181714717
 20
41.40484035962174
 30
0.0
 11
83.24723181714717
 21
41.40484035962174
 31
0.0
  0
LINE
  5
C2
102
{ACAD_REACTORS
330
161
330
195
330
1E7
102
}
330
1F
100
AcDbEntity
  8
轮廓线
100
AcDbLine
 10
73.24723181714717
 20
57.15484035962174
 30
0.0
 11
73.24723181714717
 21
31.15484035962174
 31
0.0
  0
LINE
  5
C6
102
{ACAD_REACTORS
330
1E7
102
}
330
1F
100
AcDbEntity
  8
轮廓线
100
AcDbLine
 10
68.24723181714717
 20
27.15484035962174
 30
0.0
 11
68.24723181714717
 21
21.15484035962174
 31
0.0
  0
LINE
  5
C8
102
{ACAD_REACTORS
330
1E7
102
}
330
1F
100
AcDbEntity
  8
轮廓线
100
AcDbLine
 10
68.24723181714717
 20
21.15484035962174
 30
0.0
 11
73.24723181714717
 21
21.15484035962174
 31
0.0
  0
LINE
  5
C9
102
{ACAD_REACTORS
330
1E7
102
}
330
1F
100
AcDbEntity
  8
轮廓线
100
AcDbLine
 10
73.24723181714717
 20
21.15484035962174
 30
0.0
 11
75.74723181714717
 21
21.15484035962174
 31
0.0
  0
LINE
  5
CA
102
{ACAD_REACTORS
330
1E7
102
}
330
1F
100
AcDbEntity
  8
轮廓线
100
AcDbLine
 10
75.74723181714717
 20
21.15484035962174
 30
0.0
 11
75.74723181714717
 21
37.65484035962174
 31
0.0
  0
LINE
  5
CB
102
{ACAD_REACTORS
330
1E7
102
}
330
1F
100
AcDbEntity
  8
轮廓线
100
AcDbLine
 10
75.74723181714717
 20
37.65484035962174
 30
0.0
 11
78.24723181714717
 21
39.15484035962174
 31
0.0
  0
LINE
  5
CC
102
{ACAD_REACTORS
330
161
330
1E7
102
}
330
1F
100
AcDbEntity
  8
轮廓线
100
AcDbLine
 10
83.24723181714717
 20
57.15484035962174
 30
0.0
 11
83.24723181714717
 21
31.15484035962174
 31
0.0
  0
LINE
  5
CD
102
{ACAD_REACTORS
330
1E7
102
}
330
1F
100
AcDbEntity
  8
轮廓线
100
AcDbLine
 10
80.74723181714717
 20
21.15484035962174
 30
0.0
 11
80.74723181714717
 21
37.65484035962174
 31
0.0
  0
LINE
  5
CF
102
{ACAD_REACTORS
330
1AD
330
1E7
102
}
330
1F
100
AcDbEntity
  8
轮廓线
100
AcDbLine
 10
88.24723181714717
 20
21.15484035962174
 30
0.0
 11
83.24723181714717
 21
21.15484035962174
 31
0.0
  0
LINE
  5
D0
102
{ACAD_REACTORS
330
1E7
102
}
330
1F
100
AcDbEntity
  8
轮廓线
100
AcDbLine
 10
88.24723181714717
 20
27.15484035962174
 30
0.0
 11
88.24723181714717
 21
21.15484035962174
 31
0.0
  0
LINE
  5
D2
102
{ACAD_REACTORS
330
1E7
102
}
330
1F
100
AcDbEntity
  8
轮廓线
100
AcDbLine
 10
83.24723181714717
 20
21.15484035962174
 30
0.0
 11
80.74723181714717
 21
21.15484035962174
 31
0.0
  0
LINE
  5
D4
102
{ACAD_REACTORS
330
1AD
330
1C5
330
1E7
102
}
330
1F
100
AcDbEntity
  8
轮廓线
100
AcDbLine
 10
80.74723181714717
 20
37.65484035962174
 30
0.0
 11
78.24723181714717
 21
39.15484035962174
 31
0.0
  0
LINE
  5
D7
102
{ACAD_REACTORS
330
17D
102
}
330
1F
100
AcDbEntity
  8
轮廓线
100
AcDbLine
 10
75.74723181714717
 20
21.15484035962174
 30
0.0
 11
80.74723181714717
 21
21.15484035962174
 31
0.0
  0
LINE
  5
D8
330
1F
100
AcDbEntity
  8
轮廓线
100
AcDbLine
 10
73.24723181714717
 20
57.15484035962174
 30
0.0
 11
83.24723181714717
 21
57.15484035962174
 31
0.0
  0
LINE
  5
D9
330
1F
100
AcDbEntity
  8
轮廓线
100
AcDbLine
 10
75.74723181714717
 20
37.65484035962174
 30
0.0
 11
80.74723181714717
 21
37.65484035962174
 31
0.0
  0
LINE
  5
F1
330
1F
100
AcDbEntity
  8
点划线
100
AcDbLine
 10
70.24723181714717
 20
44.65484035962174
 30
0.0
 11
86.24723181714717
 21
44.65484035962174
 31
0.0
  0
DIMENSION
  5
F2
102
{ACAD_REACTORS
330
10E
102
}
102
{ACAD_XDICTIONARY
360
102
102
}
330
1F
100
AcDbEntity
  8
文本层
100
AcDbDimension
  2
*D1
 10
14.82017280411293
 20
21.15484035962175
 30
0.0
 11
11.69517280411292
 21
24.15484035962175
 31
0.0
 70
    32
 71
     5
 42
5.999999999999996
  3
机械标注
100
AcDbAlignedDimension
 13
19.85026438729085
 23
27.15484035962174
 33
0.0
 14
24.85026438729085
 24
21.15484035962174
 34
0.0
 52
0.0
 50
90.0
100
AcDbRotatedDimension
  0
DIMENSION
  5
11A
102
{ACAD_REACTORS
330
131
102
}
102
{ACAD_XDICTIONARY
360
127
102
}
330
1F
100
AcDbEntity
  8
文本层
100
AcDbDimension
  2
*D2
 10
4.780211168581616
 20
57.15484035962175
 30
0.0
 11
1.655211168581604
 21
39.15484035962175
 31
0.0
 70
    32
 71
     5
 42
36.0
  3
机械标注
100
AcDbAlignedDimension
 13
17.52936895198997
 23
21.15484035962175
 33
0.0
 14
32.35026438729085
 24
57.15484035962174
 34
0.0
 52
0.0
 50
90.0
100
AcDbRotatedDimension
  0
DIMENSION
  5
132
102
{ACAD_REACTORS
330
149
102
}
102
{ACAD_XDICTIONARY
360
13F
102
}
330
1F
100
AcDbEntity
  8
文本层
100
AcDbDimension
  2
*D3
 10
39.85026438729085
 20
9.78774653202936
 30
0.0
 11
32.35026438729085
 21
12.91274653202936
 31
0.0
 70
    32
 71
     5
 42
15.0
  3
机械标注
100
AcDbAlignedDimension
 13
24.85026438729085
 23
21.15484035962174
 33
0.0
 14
39.85026438729085
 24
21.15484035962174
 34
0.0
 52
0.0
100
AcDbRotatedDimension
  0
DIMENSION
  5
14A
102
{ACAD_REACTORS
330
161
102
}
102
{ACAD_XDICTIONARY
360
157
102
}
330
1F
100
AcDbEntity
  8
文本层
100
AcDbDimension
  2
*D4
 10
83.24723181714717
 20
65.98904397441737
 30
0.0
 11
78.24723181714717
 21
69.11404397441737
 31
0.0
 70
    32
 71
     5
 42
10.0
  3
机械标注
100
AcDbAlignedDimension
 13
73.24723181714717
 23
57.15484035962174
 33
0.0
 14
83.24723181714717
 24
57.15484035962174
 34
0.0
 52
0.0
100
AcDbRotatedDimension
  0
DIMENSION
  5
162
102
{ACAD_REACTORS
330
17D
102
}
102
{ACAD_XDICTIONARY
360
171
102
}
330
1F
100
AcDbEntity
  8
文本层
100
AcDbDimension
  2
*D5
 10
80.74723181714717
 20
11.37985122134205
 30
0.0
 11
78.24723181714717
 21
14.50485122134205
 31
0.0
 70
    32
 71
     5
 42
5.0
  3
机械标注
100
AcDbAlignedDimension
 13
75.74723181714717
 23
21.15484035962174
 33
0.0
 14
80.74723181714717
 24
21.17449195591866
 34
0.0
 52
0.0
100
AcDbRotatedDimension
  0
DIMENSION
  5
17E
102
{ACAD_REACTORS
330
195
102
}
102
{ACAD_XDICTIONARY
360
18B
102
}
330
1F
100
AcDbEntity
  8
文本层
100
AcDbDimension
  2
*D6
 10
57.90704337252799
 20
31.15484035962174
 30
0.0
 11
54.78204337252799
 21
44.15484035962176
 31
0.0
 70
    32
 71
     5
 42
26.0
  3
机械标注
100
AcDbAlignedDimension
 13
73.24723181714717
 23
57.15484035962174
 33
0.0
 14
60.74723181714717
 24
31.15484035962174
 34
0.0
 52
0.0
 50
90.0
100
AcDbRotatedDimension
  0
DIMENSION
  5
196
102
{ACAD_REACTORS
330
1AD
102
}
102
{ACAD_XDICTIONARY
360
1A3
102
}
330
1F
100
AcDbEntity
  8
文本层
100
AcDbDimension
  2
*D7
 10
104.6118147967586
 20
21.15484035962174
 30
0.0
 11
101.4868147967586
 21
29.40484035962176
 31
0.0
 70
    32
 71
     5
 42
16.5
  3
机械标注
100
AcDbAlignedDimension
 13
80.74723181714717
 23
37.65484035962174
 33
0.0
 14
88.24723181714717
 24
21.15484035962174
 34
0.0
 52
0.0
 50
90.0
100
AcDbRotatedDimension
  0
DIMENSION
  5
1AE
102
{ACAD_REACTORS
330
1C5
102
}
102
{ACAD_XDICTIONARY
360
1BB
102
}
330
1F
100
AcDbEntity
  8
文本层
100
AcDbDimension
  2
*D8
 10
114.3992063170045
 20
21.15484035962174
 30
0.0
 11
111.2742063170045
 21
30.15484035962175
 31
0.0
 70
    32
 71
     5
 42
17.99999999999999
  3
机械标注
100
AcDbAlignedDimension
 13
78.24723181714717
 23
39.15484035962174
 33
0.0
 14
95.01709002001803
 24
21.15484035962174
 34
0.0
 52
0.0
 50
90.0
100
AcDbRotatedDimension
  0
LINE
  5
1C7
330
1F
100
AcDbEntity
  8
轮廓线
100
AcDbLine
 10
65.74723181714717
 20
27.15484035962174
 30
0.0
 11
65.74723181714717
 21
27.15484035962174
 31
0.0
  0
LINE
  5
1C8
102
{ACAD_REACTORS
330
1E7
330
1FF
102
}
330
1F
100
AcDbEntity
  8
轮廓线
100
AcDbLine
 10
65.74723181714717
 20
27.15484035962174
 30
0.0
 11
65.74723181714717
 21
31.15484035962174
 31
0.0
  0
LINE
  5
1C9
102
{ACAD_REACTORS
330
1E7
330
1FF
102
}
330
1F
100
AcDbEntity
  8
轮廓线
100
AcDbLine
 10
90.74723181714717
 20
27.15484035962174
 30
0.0
 11
90.74723181714717
 21
31.15484035962174
 31
0.0
  0
LINE
  5
1CA
102
{ACAD_REACTORS
330
1E7
102
}
330
1F
100
AcDbEntity
  8
轮廓线
100
AcDbLine
 10
88.24723181714717
 20
27.15484035962174
 30
0.0
 11
90.74723181714717
 21
27.15484035962174
 31
0.0
  0
LINE
  5
1CB
102
{ACAD_REACTORS
330
1E7
102
}
330
1F
100
AcDbEntity
  8
轮廓线
100
AcDbLine
 10
83.24723181714717
 20
31.15484035962174
 30
0.0
 11
90.74723181714717
 21
31.15484035962174
 31
0.0
  0
LINE
  5
1CC
102
{ACAD_REACTORS
330
1E7
102
}
330
1F
100
AcDbEntity
  8
轮廓线
100
AcDbLine
 10
68.24723181714717
 20
27.15484035962174
 30
0.0
 11
65.74723181714717
 21
27.15484035962174
 31
0.0
  0
LINE
  5
1CD
102
{ACAD_REACTORS
330
1E7
102
}
330
1F
100
AcDbEntity
  8
轮廓线
100
AcDbLine
 10
65.74723181714717
 20
31.15484035962174
 30
0.0
 11
73.24723181714717
 21
31.15484035962174
 31
0.0
  0
HATCH
  5
1E7
330
1F
100
AcDbEntity
  8
剖面线
100
AcDbHatch
 10
0.0
 20
0.0
 30
0.0
210
0.0
220
0.0
230
1.0
  2
ANSI31
 70
     0
 71
     1
 91
        2
 92
        7
 72
     0
 73
     1
 93
       11
 10
65.74723181714717
 20
31.15484035962174
 10
65.74723181714717
 20
27.15484035962174
 10
68.24723181714717
 20
27.15484035962174
 10
68.24723181714717
 20
21.15484035962174
 10
73.24723181714717
 20
21.15484035962174
 10
75.74723181714717
 20
21.15484035962174
 10
75.74723181714717
 20
37.65484035962174
 10
78.24723181714717
 20
39.15484035962174
 10
78.24723181714717
 20
41.40484035962174
 10
73.24723181714717
 20
41.40484035962174
 10
73.24723181714717
 20
31.15484035962174
 97
       11
330
CB
330
AB
330
C0
330
C2
330
1CD
330
1C8
330
1CC
330
C6
330
C8
330
C9
330
CA
 92
        7
 72
     0
 73
     1
 93
       11
 10
83.24723181714717
 20
31.15484035962175
 10
83.24723181714717
 20
41.40484035962174
 10
78.24723181714717
 20
41.40484035962174
 10
78.24723181714717
 20
39.15484035962174
 10
80.74723181714717
 20
37.65484035962174
 10
80.74723181714717
 20
21.15484035962174
 10
83.24723181714717
 20
21.15484035962174
 10
88.24723181714717
 20
21.15484035962174
 10
88.24723181714717
 20
27.15484035962174
 10
90.74723181714717
 20
27.15484035962174
 10
90.74723181714717
 20
31.15484035962174
 97
       11
330
1CB
330
CC
330
C0
330
AB
330
D4
330
CD
330
D2
330
CF
330
D0
330
1CA
330
1C9
 75
     0
 76
     1
 52
0.0
 41
0.4
 77
     0
 78
     1
 53
45.0
 43
0.0
 44
5.08510421046941
 45
-0.8980256121069152
 46
0.8980256121069154
 79
     0
 47
0.08859145811532224
 98
        2
 10
71.59569331312684
 20
27.89697361828496
 10
84.09917110887324
 20
27.80838227545445
  0
DIMENSION
  5
1E8
102
{ACAD_REACTORS
330
1FF
102
}
102
{ACAD_XDICTIONARY
360
1F5
102
}
330
1F
100
AcDbEntity
  8
文本层
100
AcDbDimension
  2
*D9
 10
90.74723181714717
 20
2.170733330960985
 30
0.0
 11
78.24723181714717
 21
5.295733330960985
 31
0.0
 70
    32
 71
     5
 42
25.0
  3
机械标注
100
AcDbAlignedDimension
 13
65.74723181714717
 23
27.15484035962174
 33
0.0
 14
90.74723181714717
 24
27.15484035962174
 34
0.0
 52
0.0
100
AcDbRotatedDimension
  0
VIEWPORT
  5
262
330
5E
100
AcDbEntity
 67
     1
  8
0
100
AcDbViewport
 10
133.3499908447266
 20
101.5999970436096
 30
0.0
 40
423.7327665924585
 41
228.4221935424805
 68
     1
 69
     1
 12
133.3499908447266
 22
101.5999970436096
 13
0.0
 23
0.0
 14
10.0
 24
10.0
 15
10.0
 25
10.0
 16
0.0
 26
0.0
 36
1.0
 17
0.0
 27
0.0
 37
0.0
 42
50.0
 43
0.0
 44
0.0
 45
228.4221935424805
 50
0.0
 51
0.0
 72
   100
 90
    32800
  1

281
     0
 71
     1
 74
     0
110
0.0
120
0.0
130
0.0
111
1.0
121
0.0
131
0.0
112
0.0
122
1.0
132
0.0
 79
     0
146
0.0
348
0
340
0
345
0
346
0
  0
VIEWPORT
  5
264
330
5E
100
AcDbEntity
 67
     1
  8
轮廓线
100
AcDbViewport
 10
133.3499939441681
 20
101.5999939441681
 30
0.0
 40
213.3599903106689
 41
162.5599903106689
 68
     1
 69
     2
 12
58.02720874279308
 22
35.64238865268917
 13
0.0
 23
0.0
 14
10.0
 24
10.0
 15
10.0
 25
10.0
 16
0.0
 26
0.0
 36
1.0
 17
0.0
 27
0.0
 37
0.0
 42
50.0
 43
0.0
 44
0.0
 45
90.92200268528903
 50
0.0
 51
0.0
 72
   100
 90
    32864
  1

281
     0
 71
     1
 74
     0
110
0.0
120
0.0
130
0.0
111
1.0
121
0.0
131
0.0
112
0.0
122
1.0
132
0.0
 79
     0
146
0.0
348
0
340
0
345
0
346
0
  0
ENDSEC
  0
SECTION
  2
OBJECTS
  0
DICTIONARY
  5
C
330
0
100
AcDbDictionary
281
     1
  3
ACAD_GROUP
350
D
  3
ACAD_LAYOUT
350
1A
  3
ACAD_MLINESTYLE
350
17
  3
ACAD_PLOTSETTINGS
350
19
  3
ACAD_PLOTSTYLENAME
350
E
  3
AcDbVariableDictionary
350
67
  0
DICTIONARY
  5
D
102
{ACAD_REACTORS
330
C
102
}
330
C
100
AcDbDictionary
281
     1
  0
ACDBDICTIONARYWDFLT
  5
E
102
{ACAD_REACTORS
330
C
102
}
330
C
100
AcDbDictionary
281
     1
  3
Normal
350
F
100
AcDbDictionaryWithDefault
340
F
  0
ACDBPLACEHOLDER
  5
F
102
{ACAD_REACTORS
330
E
102
}
330
E
  0
DICTIONARY
  5
17
102
{ACAD_REACTORS
330
C
102
}
330
C
100
AcDbDictionary
281
     1
  3
Standard
350
18
  0
MLINESTYLE
  5
18
102
{ACAD_REACTORS
330
17
102
}
330
17
100
AcDbMlineStyle
  2
STANDARD
 70
     0
  3

 62
   256
 51
90.0
 52
90.0
 71
     2
 49
0.5
 62
   256
  6
BYLAYER
 49
-0.5
 62
   256
  6
BYLAYER
  0
DICTIONARY
  5
19
102
{ACAD_REACTORS
330
C
102
}
330
C
100
AcDbDictionary
281
     1
  0
DICTIONARY
  5
1A
102
{ACAD_REACTORS
330
C
102
}
330
C
100
AcDbDictionary
281
     1
  3
Model
350
22
  3
布局1
350
5A
  3
布局2
350
5F
  0
LAYOUT
  5
22
102
{ACAD_REACTORS
330
1A
102
}
330
1A
100
AcDbPlotSettings
  1

  2
none_device
  4
ANSI_A_(8.50_x_11.00_Inches)
  6

 40
6.349999904632568
 41
19.04999923706055
 42
6.350006103515625
 43
19.04998779296875
 44
215.8999938964844
 45
279.3999938964844
 46
0.0
 47
0.0
 48
0.0
 49
0.0
140
0.0
141
0.0
  6

142
1.0
143
57.07986212157697
 70
 11952
 72
     0
 73
     1
 74
     0
  7

 75
     0
147
0.01751931351673652
148
-2282.040442273535
149
2.561166666666503
100
AcDbLayout
  1
Model
 70
     1
 71
     0
 10
0.0
 20
0.0
 11
12.0
 21
9.0
 12
0.0
 22
0.0
 32
0.0
 14
0.0
 24
0.0
 34
0.0
 15
0.0
 25
0.0
 35
0.0
146
0.0
 13
0.0
 23
0.0
 33
0.0
 16
1.0
 26
0.0
 36
0.0
 17
0.0
 27
1.0
 37
0.0
 76
     0
330
1F
  0
LAYOUT
  5
5A
102
{ACAD_REACTORS
330
1A
102
}
330
1A
100
AcDbPlotSettings
  1

  2
none_device
  4
Letter_(8.50_x_11.00_Inches)
  6

 40
6.349999904632568
 41
6.349999904632568
 42
6.350006103515625
 43
6.350006103515625
 44
215.8999938964844
 45
279.3999938964844
 46
0.0
 47
0.0
 48
0.0
 49
0.0
140
0.0
141
0.0
  6

142
1.0
143
1.0
 70
   688
 72
     1
 73
     1
 74
     5
  7

 75
    16
147
1.0
148
0.0
149
0.0
100
AcDbLayout
  1
布局1
 70
     1
 71
     1
 10
-6.350006103515625
 20
-6.349999904632568
 11
273.0499877929688
 21
209.5499939918518
 12
0.0
 22
0.0
 32
0.0
 14
26.66999878883362
 24
20.31999878883363
 34
0.0
 15
240.0299890995026
 25
182.8799890995026
 35
0.0
146
0.0
 13
0.0
 23
0.0
 33
0.0
 16
1.0
 26
0.0
 36
0.0
 17
0.0
 27
1.0
 37
0.0
 76
     0
330
59
331
76
  0
LAYOUT
  5
5F
102
{ACAD_REACTORS
330
1A
102
}
330
1A
100
AcDbPlotSettings
  1

  2
none_device
  4
Letter_(8.50_x_11.00_Inches)
  6

 40
6.349999904632568
 41
6.349999904632568
 42
6.350006103515625
 43
6.350006103515625
 44
215.8999938964844
 45
279.3999938964844
 46
0.0
 47
0.0
 48
0.0
 49
0.0
140
0.0
141
0.0
  6

142
1.0
143
1.0
 70
   688
 72
     1
 73
     1
 74
     5
  7

 75
    16
147
1.0
148
0.0
149
0.0
100
AcDbLayout
  1
布局2
 70
     1
 71
     2
 10
-6.350006103515625
 20
-6.349999904632568
 11
273.0499877929688
 21
209.5499939918518
 12
0.0
 22
0.0
 32
0.0
 14
26.66999878883362
 24
20.31999878883363
 34
0.0
 15
240.0299890995026
 25
182.8799890995026
 35
0.0
146
0.0
 13
0.0
 23
0.0
 33
0.0
 16
1.0
 26
0.0
 36
0.0
 17
0.0
 27
1.0
 37
0.0
 76
     0
330
5E
331
262
  0
DICTIONARY
  5
67
102
{ACAD_REACTORS
330
C
102
}
330
C
100
AcDbDictionary
281
     1
  3
DIMASSOC
350
68
  3
HIDETEXT
350
6C
  0
DICTIONARYVAR
  5
68
102
{ACAD_REACTORS
330
67
102
}
330
67
100
DictionaryVariables
280
     0
  1
2
  0
DICTIONARYVAR
  5
6C
102
{ACAD_REACTORS
330
67
102
}
330
67
100
DictionaryVariables
280
     0
  1
1
  0
DICTIONARY
  5
102
330
F2
100
AcDbDictionary
280
     1
281
     1
  3
ACAD_DIMASSOC
360
10E
  0
DICTIONARY
  5
127
330
11A
100
AcDbDictionary
280
     1
281
     1
  3
ACAD_DIMASSOC
360
131
  0
DICTIONARY
  5
13F
330
132
100
AcDbDictionary
280
     1
281
     1
  3
ACAD_DIMASSOC
360
149
  0
DICTIONARY
  5
157
330
14A
100
AcDbDictionary
280
     1
281
     1
  3
ACAD_DIMASSOC
360
161
  0
DICTIONARY
  5
171
330
162
100
AcDbDictionary
280
     1
281
     1
  3
ACAD_DIMASSOC
360
17D
  0
DICTIONARY
  5
18B
330
17E
100
AcDbDictionary
280
     1
281
     1
  3
ACAD_DIMASSOC
360
195
  0
DICTIONARY
  5
1A3
330
196
100
AcDbDictionary
280
     1
281
     1
  3
ACAD_DIMASSOC
360
1AD
  0
DICTIONARY
  5
1BB
330
1AE
100
AcDbDictionary
280
     1
281
     1
  3
ACAD_DIMASSOC
360
1C5
  0
DICTIONARY
  5
1F5
330
1E8
100
AcDbDictionary
280
     1
281
     1
  3
ACAD_DIMASSOC
360
1FF
  0
ENDSEC
  0
SECTION
  2
THUMBNAILIMAGE
 90
    18627
310
BF4800000201030100005000000002530100005C480000000000000000000000000000000000000000000000000000000000000000000000000000000000000000000000000000000000000000000000000000000000000000000000000000000000000000000028000000B400000061000000010008000000000034440000
310
00000000000000000001000000000000FFFFFF00FFFFFF0000000000FFFFFF00FFFFFF00FFFFFF00FFFFFF00FFFFFF00FFFFFF00FFFFFF00FFFFFF00330000006600000099000000CC000000FF00000000330000333300006633000099330000CC330000FF33000000660000336600006666000099660000CC660000FF6600
310
0000990000339900006699000099990000CC990000FF99000000CC000033CC000066CC000099CC0000CCCC0000FFCC000000FF000033FF000066FF000099FF0000CCFF0000FFFF000000003300330033006600330099003300CC003300FF00330000333300333333006633330099333300CC333300FF333300006633003366
310
33006666330099663300CC663300FF66330000993300339933006699330099993300CC993300FF99330000CC330033CC330066CC330099CC3300CCCC3300FFCC330000FF330033FF330066FF330099FF3300CCFF3300FFFF330000006600330066006600660099006600CC006600FF00660000336600333366006633660099
310
336600CC336600FF33660000666600336666006666660099666600CC666600FF66660000996600339966006699660099996600CC996600FF99660000CC660033CC660066CC660099CC6600CCCC6600FFCC660000FF660033FF660066FF660099FF6600CCFF6600FFFF660000009900330099006600990099009900CC009900
310
FF00990000339900333399006633990099339900CC339900FF33990000669900336699006666990099669900CC669900FF66990000999900339999006699990099999900CC999900FF99990000CC990033CC990066CC990099CC9900CCCC9900FFCC990000FF990033FF990066FF990099FF9900CCFF9900FFFF99000000CC
310
003300CC006600CC009900CC00CC00CC00FF00CC000033CC003333CC006633CC009933CC00CC33CC00FF33CC000066CC003366CC006666CC009966CC00CC66CC00FF66CC000099CC003399CC006699CC009999CC00CC99CC00FF99CC0000CCCC0033CCCC0066CCCC0099CCCC00CCCCCC00FFCCCC0000FFCC0033FFCC0066FF
310
CC0099FFCC00CCFFCC00FFFFCC000000FF003300FF006600FF009900FF00CC00FF00FF00FF000033FF003333FF006633FF009933FF00CC33FF00FF33FF000066FF003366FF006666FF009966FF00CC66FF00FF66FF000099FF003399FF006699FF009999FF00CC99FF00FF99FF0000CCFF0033CCFF0066CCFF0099CCFF00CC
310
CCFF00FFCCFF0000FFFF0033FFFF0066FFFF0099FFFF00CCFFFF0000000000FFFFFF000D0D0D001A1A1A00282828003535350043434300505050005D5D5D006B6B6B00787878008686860093939300A1A1A100AEAEAE00BBBBBB00C9C9C900D6D6D600E4E4E400F1F1F10000000000FFFFFF00FFFFFF00FFFFFF00FFFFFF00
310
FFFFFF00FFFFFF00FFFFFF00FFFFFF00FFFFFF00FFFFFF0000000000000000000000000000000000000000000000000000000000000000000000000000000000000000000000000000000000000000000000000000000000000000000000000000000000000000000000000000000000000000000000000000000000000000
310
00000000000000000000000000000000000000000000000000000000000000000000000000000000000000000000000000000000000000000000000000000000000000000000000000000000000000000000000000000000000000000000000000000000000000000000000000000000000000000000000000000000000000
310
00000000000000000000000000000000000000000000000000000000000000000000000000000000000000000000000000000000000000000000000000000000000000000000000000000000000000000000000000000000000000000000000000000000000000000000000000000000000000000000000000000000000000
310
00000000000000000000000000000000000000000000000000000000000000000000000000000000000000000000000000000000000000000000000000000000000000000000000000000000000000000000000000000000000000000000000000000000000000000000000000000000000000000000000000000000000000
310
00000000000000000000000000000000000000000000000000000000000000000000000000000000000000000000000000000000000000000000000000000000000000000000000000000000000000000000000000000000000000000000000000000000000000000000000000000000000000000000000000000000000000
310
00000000000000000000000000000000000000000000000000000000000000000000000000000000000000000000000000000000000000000000000000000000000000000000000000000000000000000000000000000000000000000000000000000000000000000000000000000000000000000000000000000000000000
310
00000000000000000000000000000000000000000000000000000000000000000000000000000000000000000000000000000000000000000000000000000000000000000000000000000000000000000000000000000000000000000000000000000000000000000000000000000000000000000000000000000000000000
310
00000000000000000000000000000000000000000000000000000000000000000000000000000000000000000000000000000000000000000000000000000000000000000000000000000000000000000000000000000000000000000000000000000000000000000000000000000000000000000000000000000000000000
310
00000000000000000000000000000000000000000000000000000000000000000000000000000000000000000000000000000000000000000000000000000000000000000000000000000000000000000000000000000000000000000000000000000000000000000000000000000000000000000000000000000000000000
310
00000000000000000000000000000000000000000000000000000000000000000000000000000000000000000000000000000000000000000000000000000000000000000000000000000000000000000000000000000000000000000000000000000000000000000000000000000000000000000000000000000000000000
310
0000000000000000000000000000000000000000000000000000000000000000000000000000000000000000000000000000000000000000000000000000000000000000000000000000000000000000000000000000000000000000000000000000000000000000000000000000009E000000000000000000000000000000
310
000000000000000000000000009E0000000000000000000000000000000000000000000000000000000000000000000000000000000000000000000000000000000000000000000000000000000000000000000000000000000000000000000000000000000000000000000000000000000000000000000000000000000000
310
000000000000000000000000000000000000000000000000000000000000000000000000009E000000000000000000000000000000000000000000000000000000009E000000000000000000000000000000000000000000000000000000000000000000000000000000000000000000000000000000000000000000000000
310
0000000000000000000000000000000000000000000000000000000000000000000000000000000000000000000000000000000000000000000000000000000000000000000000000000000000000000000000000000000000009E00009E9E00000000000000000000000000000000000000009E9E00009E00000000000000
310
00000000000000000000000000000000000000000000000000000000000000000000000000000000000000000000000000000000000000000000000000000000000000000000000000000000000000000000000000000000000000000000000000000000000000000000000000000000000000000000000000000000000000
310
000000000000000000000000000000009E9E9E9E9E9E9E9E9E9E9E9E9E9E9E9E9E9E9E9E9E9E9E9E9E9E9E9E9E9E000000000000000000000000000000000000000000000000000000000000000000000000000000000000000000000000000000000000000000000000000000000000000000000000000000000000000000
310
0000000000000000000000000000000000000000000000000000000000000000000000000000000000000000000000000000000000000000000000000000000000000000009E000000000000000000009E9E9E9E9E9E9E9E000000000000000000009E00000000000000000000000000000000000000000000000000000000
310
00000000000000000000000000000000000000000000000000000000000000000000000000000000000000000000000000000000000000000000000000000000000000000000000000000000000000000000000000000000000000000000000000000000000000000000000000000000000000000000000000009E00000000
310
0000000000009E00009E9E9E009E000000000000000000009E000000000000000000000000000000000000000000000000000000000000000000000000000000000000000000000000000000000000000000000000000000000000000000000000000000000000000000000000000000000000000000000000000000000000
310
0000000000000000000000000000000000000000000000000000000000000000000000000000000000000000000000009E00000000000000000000009E9E009E00009E000000000000000000009E00000000000000000000000000000000000000000000000000000000000000000000000000000000000000000000000000
310
00000000000000000000000000000000000000000000000000000000000000000000000000000000000000000000000000000000000000000000000000000000000000000000000000000000000000000000000000000000000000000000000000000000009E000000000000000000009E9E9E9E9E9E9E0000000000000000
310
0000009E000000000000000000000000000000000000000000000000000000000000000000000000000000000000000000000000000000000000000000000000000000000000000000000000000000000000000000000000000000000000000000000000000000000000000000000000000000000000000000000000000000
310
0000000000000000000000000000000000000000000000000000009E000000000000000000009E9E009E009E0000000000000000000000009E00000000000000000000000000000000000000000000000000000000000000000000000000000000000000000000000000000000000000000000000000000000000000000000
310
000000000000000000000000000000000000000000000000000000000000009E00000000000000000000000000000000009E0000000000000000000000000000000000000000000000000000000000009E000000000000000000009E9E9E9E009E9E9E000000000000000000009E0000000000000000000000000000000000
310
0000000000000000000000000000000000000000000000000000000000000000000000000000000000000000000000000000000000000000000000000000000000000000000000000000000000000000000000009E00000000000000000000000000000000009E000000000000000000000000000000000000000000000000
310
0000000000009E00000000000000000000009E00000000009E000000000000000000009E00000000000000000000000000000000000000000000000000000000000000000000000000000000000000000000000000000000000000000000000000000000000000000000000000000000000000000000000000000000000000
310
000000000000000000009E00009E9E0000000000000000009E9E00009E0000000000000000000000000000000000000000000000000000000000009E00000000000000000000009E00000000009E000000000000000000009E0000000000000000000000000000000000000000000000000000000000000000000000000000
310
0000000000000000000000000000000000000000000000000000000000000000000000000000000000000000000000000000000000000000000000000000009E9E9E9E9E9E9E9E9E9E9E9E9E9E9E9E9E9E9E0000000000000000000000000000000000000000000000000000000000009E00000000000000000000009E0000
310
0000009E000000000000000000009E00000000000000000000000000000000000000000000000000000000000000000000000000000000000000000000000000000000000000000000000000000000000000000000000000000000000000000000000000000000000000000000000000000000009E0000000000009E00009E
310
009E00000000009E0000000000000000000000000000000000000000000000000000000000009E00009E9E9E9E9E9E9E9E9E9E9E9E9E9E9E9E9E9E9E9E9E9E9E9E00009E0000000000000000000000000000000000000000000000000000000000000000000000000000000000000000000000000000000000000000000000
310
0000000000000000000000000000000000000000000000000000000000000000000000000000000000009E0000000000009E00009E009E00000000009E0000000000000000000000000000000000000000000000000000000000009E000000000000009E9E9E009E009E9E00009E009E9E9E0000000000009E000000000000
310
00000000000000000000000000000000000000000000000000000000000000000000000000000000000000000000000000000000000000000000000000000000000000000000000000000000000000000000000000000000000000000000009E0000000000009E00009E009E00000000009E00000000000000000000000000
310
00000000000000000000000000000000009E00000000000000000000009E9E9E9E9E009E000000000000000000009E0000000000000000000000000000000000000000000000000000000000000000000000000000000000000000000000000000000000000000000000000000000000000000000000000000000000000000
310
0000000000000000000000000000000000000000009E0000000000009E00009E9E9E00000000009E0000000000000000000000000000000000000000000000000000000000009E00000000000000000000009E9E9E009E009E000000000000000000009E000000000000000000000000000000000000000000000000000000
310
00000000000000000000000000000000000000000000000000000000000000000000000000000000000000000000000000000000000000000000000000009E00000000000000000000009E00000000009E9E00009E000000000000009E0000000000000000000000000000000000000000000000000000000000009E000000
310
00000000000000009E9E00009E009E000000000000000000009E00000000000000000000000000000000000000000000000000000000000000000000000000000000000000000000000000000000000000000000000000000000000000000000000000000000000000000000000000000000009E0000000000000000000000
310
9E0000000000009E00009E9E9E00000000009E0000000000000000000000000000000000000000000000000000000000009E00000000000000000000009E9E9E9E00009E000000000000000000009E000000000000000000000000000000000000000000000000000000000000000000000000000000000000000000000000
310
00000000000000000000000000000000000000000000000000000000000000000000000000000000009E00000000000000000000009E00000000000000000000000000000000009E0000000000000000000000000000000000000000000000000000000000009E00000000000000000000009E009E0000009E000000000000
310
000000009E00000000000000000000000000000000000000000000000000000000000000000000000000000000000000000000000000000000000000000000000000000000000000000000000000000000000000000000000000000000009E00000000000000000000009E00000000000000000000000000000000009E0000
310
000000000000000000000000000000000000000000000000000000009E00000000000000000000009E009E9E9E009E000000000000000000009E000000000000000000000000000000000000000000000000000000000000000000000000000000000000000000000000000000000000000000000000000000000000000000
310
00000000000000000000000000000000000000009E9E000000000000000000009E0000000000000000BE00000000000000009E0000000000000000000000000000000000000000000000000000000000009E00000000000000000000009E0000BE00009E000000000000000000009E00000000000000000000000000000000
310
000000000000000000000000000000000000000000000000000000000000000000000000000000000000000000000000000000000000000000000000000000000000000000000000009E9E000000000000000000009E0000000000000000BE00000000000000009E0000000000000000000000000000000000000000000000
310
000000000000009E00000000000000000000009E0000BE00009E000000000000000000009E00000000000000000000000000000000000000000000000000000000000000000000000000000000000000000000000000000000000000000000000000000000000000000000000000000000000000000000000000000000009E
310
9E000000000000000000009E0000000000000000BE00000000000000009E0000000000000000000000000000000000000000000000000000000000009E00000000000000000000009E0000BE00009E000000000000000000009E00000000000000000000000000000000000000000000000000000000000000000000000000
310
000000000000000000000000000000000000000000000000000000000000000000000000000000000000000000000000000000009E0000000000000000000000F5F5F5F5F5F5F5F5F5F5F5F5F5F5F5F5F5F5F50000000000000000000000000000000000000000000000000000000000009E0000F5F5F5F5F5F5F5F5F5F5F5
310
F5F5F5F5F5F5F5F5F5F5F5F5F500009E0000000000000000000000000000000000000000000000000000000000000000000000000000000000000000000000000000000000000000000000000000000000000000000000000000009E9E9E9E9E9E9E9E9E9E9E9E9E9E9E9E9E9E9E9E9E9E9E9E9EF5F5F5F5F5F5F5F5F5F5F5
310
F5F5F5F5F5F5F5F5F5F500000000000000000000000000000000000000000000000000000000009E00F520F520F520F520F52020F5F5F5F5F520F520F520F520F520F59E9E9E9E9E9E9E9E9E9E9E9E9E9E9E9E9E9E9E9E9E9E9E9E9E9E9E9E9E9E9E9E9E000000000000000000000000000000000000000000000000000000
310
00000000000000000000000000000000000000009E000000000000000000009E00000000000000000000F5F5F5F5F5F5F5F5F5F5F5F5F5F5F5F5F5F5F5F5F500000000000000000000000000000000000000000000000000000000009E00F5F520F520F520F520F5F5F5F5F5F5F5F520F520F520F520F5F5009E0000000000
310
00000000000000000000009E000000000000000000009E00000000000000000000000000000000000000000000000000000000000000000000000000000000000000000000000000009E00000000009E9E9E9E9E9E00000000000000000000F5F5F5F5F5F5F5F5F5F5F5F5F5F5F5F5F5F5F5F5F50000000000000000000000
310
0000000000000000000000000000000000009E00F520F520002000200020F5F500BE00F520F52000200020F520F5009E000000000000000000000000000000009E9E0000000000000000009E9E0000000000000000000000000000000000000000000000000000000000000000000000000000000000000000000000009E9E
310
000000009E9E9E9E009E9E00000000000000000000F5F5F50000F5F5F5F5F5F5F5F5F5F5F50000F5F5F500000000000000000000000000000000000000000000000000000000009E00F5F520002000200020F520F500BE00F5F5200020002020F5F5F5009E0000000000000000000000000000009E9E9E0000000000000000
310
009E9E0000000000000000000000000000000000000000000000000000000000000000000000000000000000000000000000009E9E000000009E9E9E9E9E9E9E00000000000000000000F5F5F50000F5F5F5F5F5F5F5F5F5F5F50000F5F5F500000000000000000000000000000000000000000000000000000000009E00F5
310
20F520002000200020F5F500BE00F520F5200020200020F5F5009E000000000000000000009E9E9E9E9E9E9E9E0000000000000000009E9E000000000000000000000000000000000000000000000000000000000000000000000000000000000000000000000000009E00000000009E009E9E9E9E00000000000000000000
310
F5F5F5F5F5F5F5F5F5F5F5F5F5F5F5F5F5F5F5F5F500000000000000000000000000000000000000000000000000000000009E00F5F520002000200020F520F500BE00F5F5200020002020F520F5009E0000000000000000009E9E9E9E9E9E9E9E000000000000000000009E00000000000000000000000000000000000000
310
000000000000000000000000000000000000000000000000000000000000009E000000000000000000009E0000000000F5F5F5F5F5F5F5F5F5F5F5F5F5F5F5F5F5F5F5F5F5F5F5F5F5F5F5F5F5F5F5000000000000000000000000000000000000000000000000F5F5F520F520002000200020F5F500BE00F520F520002020
310
0020F5F5F5F5000000000000000000000000000000009E000000000000000000009E00000000000000000000000000000000000000000000000000000000000000000000000000000000000000000000000000009E000000000000009E9E9E9E9E9E9E9EF5F5F5F5F5F5F5F5F5F5F5F5F5F5F5F5F5F5F5F5F5F5F5F5F5F5F5
310
F5F5F5F5F5F500000000000000000000000000000000000000000000F5F520F5F520002000200020F520F500BE00F5F5200020200020F52020F520F50000000000000000009E9E9E9E9E009E000000000000000000009E00000000000000000000000000000000000000000000000000000000000000000000000000000000
310
000000000000000000009E000000000000000000009E00000000F5F5F5F5F5F5F5F5F5F5F5F5F5F5F5F5F5F5F5F5F5F5F5F5F5F5F5F5F5F5F5F5F500000000000000000000000000000000000000000000F520F520F50020002000200020F5F500BE00F520F5200020200020F5F520F5F500000000000000009E9E9E9E009E
310
9E9E000000009E9E9E9E9E9E9E00000000000000000000000000000000000000000000000000000000000000000000000000000000000000000000000000009E000000000000000000009E9E000000F5F5F500000000000000000000000000BE00000000000000000000000000F5F5F5000000000000000000000000000000
310
00000000000000F5F520002000200000200020F520F500BE00F5F520200020002000200020F5F500000000000000009E9E9E9E9E9E9E9E000000009E9E9E9E9E9E9E00000000000000000000000000000000000000000000000000000000000000000000000000000000000000000000000000009E00000000000000000000
310
9E9E000000F5F5F5000000000000000000000000000000000000000000000000000000F5F5F500000000000000000000000000000000000000000000F520F520002000200000200020F5F5000000F5F5F52020002000200020F520F50000000000000000009E009E9E9E009E000000000000000000009E0000000000000000
310
0000000000000000000000000000000000000000000000000000000000000000000000000000000000009E000000000000000000009E9E000000F5F5F5F5F5F5F5F5F5F5F5F5F5F5F5F5F5F5F5F5F5F5F5F5F5F5F5F5F5F5F5F5F500000000000000000000000000000000000000000000F5F520F520F520F520F5F520F520
310
F500BE00F520F520F520F520F520F520F5F5000000000000000000000000009E9E9E000000009E9E9E9E9E9E9E00000000000000000000000000000000000000000000000000000000000000000000000000000000000000000000000000009E000000000000000000009E00000000F5F5F5F5F5F5F5F5F5F5F5F5F5F5F5F5
310
F5F5F5F5F5F5F5F5F5F5F5F5F5F5F5F5F500000000000000000000009E9E9E9E9E9E9E00000000F5F5F520F520F520F52020F520F5F500BE00F5F5202020F520F520F520F520F5000000000000000000000000009E9E9E000000009E9E9E9E009E9E0000000000000000000000000000000000000000000000000000000000
310
0000000000000000000000000000000000000000009E000000000000000000009E00000000F5F5F5F5F5F5F5F5F5F5F5F5F5F5F5F5F5F5F5F5F5F5F5F5F5F5F5F5F5F5F5F5F500000000000000000000000000009E0000000000000000F5F5F5F5F5F5F5F5F5F520F520F500BE00F520F5F520F5F5F5F5F5F5F5F500000000
310
00000000009E9E9E9E9E9E9E9E000000009E9E9E9E9E9E9E00000000000000000000000000000000000000000000000000000000000000000000000000000000000000000000000000009E000000000000000000009E00000000F5F5F500000000000000000000000000BE00000000000000000000000000F5F5F500000000
310
000000000000000000009E00000000000000000000000000000000F520F520F5F500BE00F5F520F5F5F5000000000000000000000000000000009E9E9E00009E9E9E000000000000009E9E9E9E0000000000000000000000000000000000000000000000000000000000000000000000000000000000000000000000000000
310
9E000000000000000000009E00000000F5F5F500000000000000000000000000BE00000000000000000000000000F5F5F5000000000000000000000000009E9E00000000000000000000000000000000F5F520F520F500BE00F520F520F5F5000000000000000000000000000000009E009E9E9E9E9E9E9E00000000000000
310
00009E00000000000000000000000000000000000000000000000000000000000000000000000000000000000000000000000000009E000000000000000000000000000000F5F5F500000000000000000000000000BE00000000000000000000000000F5F5F5000000000000000000000000009E9E00000000000000000000
310
000000000000F5F5F520F5F500BE00F5F520F520F5000000000000000000000000000000000000009E9E9E9E9E9E0000000000000000009E00000000000000000000000000000000000000000000000000000000000000000000000000000000000000000000000000009E000000000000000000000000000000F5F5F50000
310
0000000000000000000000BE00000000000000000000000000F5F5F500000000000000000000000000009E00000000000000000000000000000000F520F5F520F500BE00F520F520F5F500000000000000000000000000000000000000000000009E9E0000000000000000009E9E0000000000000000000000000000000000
310
000000000000000000000000000000000000000000000000009E9E9E009E9E9E9E000000000000000000000000000000F5F5F500000000000000000000000000BE00000000000000000000000000F5F5F500000000000000000000000000009E00000000000000000000000000000000F5F520F5F5F5F5F5F5F5F520F520F5
310
00000000000000000000000000000000000000000000009E000000000000000000009E9E0000000000000000000000000000000000000000000000000000000000000000000000000000000000009E009E0000009E9E000000000000000000000000000000F5F5F500000000000000000000000000BE000000000000000000
310
00000000F5F5F500000000000000000000000000009E00000000000000000000000000000000F520F52020F5F5F5F5F520F5209E9E9E9E9E9E9E9E9E9E9E9E9E9E9E9E9E9E9E9E9E9E9E9E9E9E9E9E9E000000000000009E9E0000000000000000000000000000000000000000000000000000000000000000000000000000
310
000000009E9E9E9E9E9E9E9E000000000000000000000000000000F5F5F500000000000000000000000000BE00000000000000000000000000F5F5F500000000000000000000000000009E00000000000000000000000000000000F5F520F5F520F5F520F5F520F520F5000000000000000000000000000000000000000000
310
000000000000000000000000009E00000000000000000000000000000000000000000000000000000000000000000000000000000000000000000000009E9E009E000000000000000000000000000000F5F5F500000000000000000000000000BE00000000000000000000000000F5F5F50000000000000000000000000000
310
9E00000000000000000000000000000000F520F520F5F52020F520F59E209E9E9E9E9E9E9E9E9E9E9E9E9E9E9E9E9E9E9E9E9E9E9E9E9E9E9E9E9E9E9E9E9E9E9E9E9E9E9E9E00000000000000000000000000000000000000000000000000000000000000000000000000000000009E9E9E9E9E9E9E000000000000000000
310
000000000000F5F5F500000000000000000000000000BE00000000000000000000000000F5F5F500000000000000000000000000009E00000000000000000000000000000000F5F520002000F52020002000F520F5000000000000000000000000000000000000000000000000000000000000000000000000000000000000
310
0000000000000000000000000000000000000000000000000000000000000000000000009E009E0000009E9E000000000000000000000000000000F5F5F50000000000000000000000F5F5F5F5F5F500000000000000000000F5F5F500000000000000000000000000009E00000000000000000000000000000000F520F520
310
F520F5F52020F520F5F5F50000000000000000000000000000000000000000000000000000000000000000000000000000000000000000000000000000000000000000000000000000000000000000000000000000000000009E9E9E9E9E9E9E9E000000000000000000000000000000F5F5F500000000000000000000F5F5
310
F5F5F5F5F5F5000000000000000000F5F5F5000000000000009E9E9E009E9E9E9E00000000000000000000000000000000F5F520F520F520F520F520F520F5F5000000000000000000000000000000000000000000000000000000000000000000000000000000000000000000000000000000000000000000000000000000
310
000000000000000000000000000000000000000000009E000000000000000000000000000000F5F5F5000000000000000000F5F5F5F5F5F5F5F5F5F50000000000000000F5F5F5000000000000009E00009E009E9E9E00000000000000000000000000000000F5F5F5F5F5F5F5F5F5F5F5F5F5F5F500000000000000000000
310
0000000000000000000000000000000000000000000000000000000000000000000000000000000000000000000000000000000000000000000000000000000000000000000000000000009E000000000000000000000000000000F5F5F5000000000000000000F5F5F5F5BE00F5F5F5F50000000000000000F5F5F5000000
310
000000009E9E9E9E9E9E9E9E00000000000000000000000000000000F5F5F500000000BE00000000F5F5F5000000000000000000000000000000000000000000000000000000000000000000000000000000000000000000000000000000000000000000000000000000000000000000000000000000000000000000000000
310
009E000000000000000000000000000000F5F5F5000000000000000000F5F5F500BE0000F5F5F50000000000000000F5F5F500000000000000000000000000009E00000000000000000000000000000000F5F5F500000000BE00000000F5F5F500000000000000000000000000000000000000000000000000000000000000
310
0000000000000000000000000000000000000000000000000000000000000000000000000000000000000000000000000000000000009E00000000000000000000000000BEBEF5F5F5BEBEBEBEBEBEBEBEBEBEBEBEBEBEBEBEBEBEBEBEBEBEBEBEBEBEBEF5F5F5BEBEBE000000009E9E9E9E9E9E009E000000000000000000
310
00000000BEBEBEBEBEBEBEBE00BEBEBEBEBEBEBEBEBEBEBE00000000000000000000000000000000000000000000000000000000000000000000000000000000000000000000000000000000000000000000000000000000000000000000000000000000000000000000009E000000000000000000000000000000F5F5F500
310
00000000000000F5F5F5F5F5BE00F5F5F5F50000000000000000F5F5F5000000000000009E009E0000009E9E00000000000000000000000000000000F5F5F500000000BE00000000F5F5F500000000000000000000000000000000000000000000000000000000000000000000000000000000000000000000000000000000
310
0000000000000000000000000000000000000000000000000000000000000000009E00000000000000000000000000000000F5F5F50000000000000000F5F5F5F5F5F5F5F5F5F50000000000000000F5F5F5000000000000009E9E9E9E9E9E009E00000000000000000000000000000000F5F5F5F5F5F5F5F5F5F5F5F5F5F5
310
F5000000000000000000000000000000000000000000000000000000000000000000000000000000000000000000000000000000000000000000000000000000000000000000000000000000000000000000000000009E00000000000000000000000000000000F5F5F5000000000000000000F5F5F5F5F5F5F5F500000000
310
0000000000F5F5F500000000000000000000000000009E00000000000000000000000000000000F5F5F5F5F5F5F5F5F5F5F5F5F5F5F500000000000000000000000000000000000000000000000000000000000000000000000000000000000000000000000000000000000000000000000000000000000000000000000000
310
0000000000000000000000009E00000000000000000000000000000000F5F5F500000000000000000000F5F5F5F5F5F500000000000000000000F5F5F500000000000000000000000000009E00000000000000000000000000000000F5F5F5F5F5F5F5F5F5F5F5F5F5F5F50000000000000000000000000000000000000000
310
00000000000000000000000000000000000000000000000000000000000000000000000000000000000000000000000000000000000000000000000000000000009E0000000000000000000000000000000000F5F5F50000000000000000000000BE000000000000000000000000F5F5F50000000000000000000000000000
310
009E00000000000000000000000000000000F5F5F500000000BE00000000F5F5F5000000000000000000000000000000000000000000000000000000000000000000000000000000000000000000000000000000000000000000000000000000000000000000000000000000000000000000000000009E0000000000000000
310
000000000000000000F5F5F5F500000000000000000000BE0000000000000000000000F5F5F5F50000000000000000000000000000009E00000000000000000000000000000000F5F5F500000000BE00000000F5F5F50000000000000000000000000000000000000000000000000000000000000000000000000000000000
310
00000000000000000000000000000000000000000000000000000000000000000000000000000000000000009E0000000000000000000000000000000000F5F5F5F500000000000000000000BE0000000000000000000000F5F5F5F50000000000000000000000000000009E00000000000000000000000000000000F5F5F5
310
00000000BE00000000F5F5F5000000000000000000000000000000000000000000000000000000000000000000000000000000000000000000000000000000000000000000000000000000000000000000000000000000000000000000000000009E000000000000000000000000000000000000F5F5F5F500000000000000
310
0000BE00000000000000000000F5F5F5F5000000000000000000000000000000009E00000000000000000000000000000000F5F5F500000000BE00000000F5F5F50000000000000000000000000000000000000000000000000000000000000000000000000000000000000000000000000000000000000000000000000000
310
00000000000000000000000000000000000000000000009E000000000000000000000000000000000000F5F5F5F5F50000000000000000BE0000000000000000F5F5F5F5F5F5000000000000000000000000000000009E00000000000000000000000000000000F5F5F500000000BE00000000F5F5F5000000000000000000
310
0000000000000000000000000000000000000000000000000000000000000000000000000000000000000000000000000000000000000000000000000000000000000000000000000000009E9E00000000000000000000000000000000000000F5F5F5F5F500000000000000BE00000000000000F5F5F5F5F5F50000000000
310
00000000000000000000009E9E00000000000000000000000000000000F5F5F500000000BE00000000F5F5F50000000000000000000000000000000000000000000000000000000000000000000000000000000000000000000000000000000000000000000000000000000000000000000000000000000000000000000000
310
009E9E0000000000000000000000000000000000000000F5F5F5F5F5F50000000000BE000000000000F5F5F5F5F5F500000000000000000000000000000000009E9E00000000000000000000000000000000F5F5F500000000BE00000000F5F5F5000000000000000000000000000000000000000000000000000000000000
310
000000000000000000000000000000000000000000000000000000000000000000000000000000000000000000000000000000000000009E000000000000000000000000000000000000000000F5F5F5F5F5F500000000BE0000000000F5F5F5F5F500000000000000000000000000000000000000009E0000000000000000
310
0000000000000000F5F5F500000000BE00000000F5F5F5000000000000000000000000000000000000000000000000000000000000000000000000000000000000000000000000000000000000000000000000000000000000000000000000000000000000000000000000009E000000000000000000000000000000000000
310
00000000F5F5F5F5F5F5F5F5F5F5F5F5F5F5F5F5F5F5F50000000000000000000000000000000000000000009E00000000000000000000000000000000F5F5F5F5F5F5F5F5F5F5F5F5F5F5F5000000000000000000000000000000000000000000000000000000000000000000000000000000000000000000000000000000
310
000000000000000000000000000000000000000000000000000000000000009E9E9E9E9E9E9E9E9E9E9E9E9E9E9E9E9E9E9E9E9E9E9E9E9E9E9E9EF5F5F5F5F5F5F5F5F5F5F5F5F5F5F5F5000000000000000000000000000000000000009E9E9E9E9E9E9E9E9E9E9E9E9E9E9E9E9E9E9E9EF5F5F5F5F5F5F5F5F5F5F5F5F5
310
F5F50000000000000000000000000000000000000000000000000000000000000000000000000000000000000000000000000000000000000000000000000000000000000000000000000000000000000000000000000000000000000000000000000000000000000000000000000000000000F5F5F5F5F5F5F5F5F5F50000
310
0000000000000000000000000000000000000000000000000000000000000000000000000000000000F5F5F5F5F5F5F5F5F5F5F5F5F500000000000000000000000000000000000000000000000000000000000000000000000000000000000000000000000000000000000000000000000000000000000000000000000000
310
000000000000000000000000000000000000000000000000000000000000000000000000000000000000000000BE0000000000000000000000000000000000000000000000000000000000000000000000000000000000000000000000009E0000000000BE00000000009E0000000000000000000000000000000000000000
310
0000000000000000000000000000000000000000000000000000000000000000000000000000000000000000000000000000000000000000000000000000000000000000000000000000000000000000000000000000000000000000000000000000BE00000000000000000000000000000000000000000000000000000000
310
00000000000000000000000000000000000000009E0000000000BE00000000009E00000000000000000000000000000000000000000000000000000000000000000000000000000000000000000000000000000000000000000000000000000000000000000000000000000000000000000000000000000000000000000000
310
000000000000000000000000000000000000000000000000BE0000000000000000000000000000000000000000000000000000000000000000000000000000000000000000000000009E0000000000BE00000000009E0000000000000000000000000000000000000000000000000000000000000000000000000000000000
310
0000000000000000000000000000000000000000000000000000000000000000000000000000000000000000000000000000000000000000000000000000000000000000000000000000000000000000000000000000000000000000000000000000000000000000000000000000000000000000000000000000000000009E
310
00000000000000000000009E00000000000000000000000000000000000000000000000000000000000000000000000000000000000000000000000000000000000000000000000000000000000000000000000000000000000000000000000000000000000000000000000000000000000000000000000000000000000000
310
000000000000000000000000000000000000000000000000000000000000000000000000000000000000000000000000000000009E00000000000000000000009E0000000000000000000000000000000000000000000000000000000000000000000000000000000000000000000000000000000000000000000000000000
310
0000000000000000000000000000000000000000000000000000000000000000000000000000000000000000000000000000000000000000000000000000000000000000000000000000000000000000000000000000000000000000000000000000000000000000009E00000000000000000000009E000000000000000000
310
00000000000000000000000000000000000000000000000000000000000000000000000000000000000000000000000000000000000000000000000000000000000000000000000000000000000000000000000000000000000000000000000000000000000000000000000000000000000000000000000000000000000000
310
000000000000000000000000000000000000000000000000000000000000009E00000000000000000000009E0000000000000000000000000000000000000000000000000000000000000000000000000000000000000000000000000000000000000000000000000000000000000000000000000000000000000000000000
310
0000000000000000000000000000000000000000000000000000000000000000000000000000000000000000000000000000000000000000000000000000000000000000000000000000000000000000000000009E00000000000000000000009E000000000000000000000000000000000000000000000000000000000000
310
00000000000000000000000000000000000000000000000000000000000000000000000000000000000000000000000000000000000000000000000000000000000000000000000000000000000000000000000000000000000000000000000000000000000000000000000000000000000000000000000000000000000000
310
000000000000000000009E00009E9E00009E9E9E00009E0000000000000000000000000000000000000000000000000000000000000000000000000000000000000000000000000000000000000000000000000000000000000000000000000000000000000000000000000000000000000000000000000000000000000000
310
0000000000000000000000000000000000000000000000000000000000000000000000000000000000000000000000000000000000000000000000000000009E9E9E9E9E9E9E9E9E9E9E9E9E000000000000000000000000000000000000000000000000000000000000000000000000000000000000000000000000000000
310
00000000000000000000000000000000000000000000000000000000000000000000000000000000000000000000000000000000000000000000000000000000000000000000000000000000000000000000000000000000000000000000000000000000000000000000000000000000000000009E009E9E9E00009E9E0000
310
009E0000000000000000000000000000000000000000000000000000000000000000000000000000000000000000000000000000000000000000000000000000000000000000000000000000000000000000000000000000000000000000000000000000000000000000000000000000000000000000000000000000000000
310
0000000000000000000000000000000000000000000000000000000000000000000000000000000000009E00009E9E009E9E9E9E00009E000000000000000000000000000000000000000000000000000000000000000000000000000000000000000000000000000000000000000000000000000000000000000000000000
310
00000000000000000000000000000000000000000000000000000000000000000000000000000000000000000000000000000000000000000000000000000000000000000000000000000000000000000000000000000000000000000000009E00009E9E009E009E9E00009E00000000000000000000000000000000000000
310
00000000000000000000000000000000000000000000000000000000000000000000000000000000000000000000000000000000000000000000000000000000000000000000000000000000000000000000000000000000000000000000000000000000000000000000000000000000000000000000000000000000000000
310
0000000000000000000000000000000000000000000000009E9E009E009E9E000000000000000000000000000000000000000000000000000000000000000000000000000000000000000000000000000000000000000000000000000000000000000000000000000000000000000000000000000000000000000000000000
310
00000000000000000000000000000000000000000000000000000000000000000000000000000000000000000000000000000000000000000000000000000000000000000000000000000000009E9E009E9E9E9E00000000000000000000000000000000000000000000000000000000000000000000000000000000000000
310
00000000000000000000000000000000000000000000000000000000000000000000000000000000000000000000000000000000000000000000000000000000000000000000000000000000000000000000000000000000000000000000000000000000000000000000000000000000000000000000000000000000000000
310
0000009E9E00009E9E00000000000000000000000000000000000000000000000000000000000000000000000000000000000000000000000000000000000000000000000000000000000000000000000000000000000000000000000000000000000000000000000000000000000000000000000000000000000000000000
310
00000000000000000000000000000000000000000000000000000000000000000000000000000000000000000000000000000000000000000000000000000000000000000000000000000000000000000000000000000000000000000000000000000000000000000000000000000000000000000000000000000000000000
310
00000000000000000000000000000000000000000000000000000000000000000000000000000000000000000000000000000000000000000000000000000000000000000000000000000000000000000000000000000000000000000000000000000000000000000000000000000000000000000000000000000000000000
310
00000000000000000000000000000000000000000000000000000000000000000000000000000000000000000000000000000000000000000000000000000000000000000000000000000000000000000000000000000000000000000000000000000000000000000000000000000000000000000000000000000000000000
310
00000000000000000000000000000000000000000000000000000000000000000000000000000000000000000000000000000000000000000000000000000000000000000000000000000000000000000000000000000000000000000000000000000000000000000000000000000000000000000000000000000000000000
310
00000000000000000000000000000000000000000000000000000000000000000000000000000000000000000000000000000000000000000000000000000000000000000000000000000000000000000000000000000000000000000000000000000000000000000000000000000000000000000000000000000000000000
310
00000000000000000000000000000000000000000000000000000000000000000000000000000000000000000000000000000000000000000000000000000000000000000000000000000000000000000000000000000000000000000000000000000000000000000000000000000000000000000000000000000000000000
310
00000000000000000000000000000000000000000000000000000000000000000000000000000000000000000000000000000000000000000000000000000000000000000000000000000000000000000000000000
  0
ENDSEC
  0
EOF
