999
LibreDWG 
  0
SECTION
  2
HEADER
  9
$ACADVER
  1
AC1015
  9
$ACADMAINTVER
 70
    13
  9
$DWGCODEPAGE
  3
ANSI_936
  9
$INSBASE
 10
0.0
 20
0.0
 30
0.0
  9
$EXTMIN
 10
40.06805494435605
 20
46.66626037874516
 30
-0.001525820700358338
  9
$EXTMAX
 10
285.8184821272951
 20
187.9504399513248
 30
3.49246036535078E-08
  9
$LIMMIN
 10
0.0
 20
0.0
  9
$LIMMAX
 10
300.0
 20
240.0
  9
$ORTHOMODE
 70
     0
  9
$REGENMODE
 70
     1
  9
$FILLMODE
 70
     1
  9
$QTEXTMODE
 70
     0
  9
$MIRRTEXT
 70
     1
  9
$LTSCALE
 40
1.0
  9
$ATTMODE
 70
     1
  9
$TEXTSIZE
 40
3.5
  9
$TRACEWID
 40
1.0
  9
$TEXTSTYLE
  7
数字与字母
  9
$CLAYER
  8
文本层
  9
$CELTYPE
  6
ByLayer
  9
$CECOLOR
 62
   256
  9
$CELTSCALE
 40
1.0
  9
$DISPSILH
 70
     0
  9
$DIMSCALE
 40
1.0
  9
$DIMASZ
 40
3.5
  9
$DIMEXO
 40
0.0
  9
$DIMDLI
 40
7.5
  9
$DIMRND
 40
0.0
  9
$DIMDLE
 40
0.0
  9
$DIMEXE
 40
2.5
  9
$DIMTP
 40
0.0
  9
$DIMTM
 40
0.0
  9
$DIMTXT
 40
5.0
  9
$DIMCEN
 40
2.5
  9
$DIMTSZ
 40
0.0
  9
$DIMTOL
 70
     0
  9
$DIMLIM
 70
     0
  9
$DIMTIH
 70
     0
  9
$DIMTOH
 70
     1
  9
$DIMSE1
 70
     0
  9
$DIMSE2
 70
     0
  9
$DIMTAD
 70
     1
  9
$DIMZIN
 70
     8
  9
$DIMBLK
  1

  9
$DIMASO
 70
     1
  9
$DIMSHO
 70
     1
  9
$DIMPOST
  1

  9
$DIMAPOST
  1

  9
$DIMALT
 70
     0
  9
$DIMALTD
 70
     3
  9
$DIMALTF
 40
0.03937007874016
  9
$DIMLFAC
 40
1.0
  9
$DIMTOFL
 70
     1
  9
$DIMTVP
 40
0.0
  9
$DIMTIX
 70
     0
  9
$DIMSOXD
 70
     0
  9
$DIMSAH
 70
     0
  9
$DIMBLK1
  1

  9
$DIMBLK2
  1

  9
$DIMSTYLE
  2
机械标注
  9
$DIMCLRD
 70
     0
  9
$DIMCLRE
 70
     0
  9
$DIMCLRT
 70
     0
  9
$DIMTFAC
 40
1.0
  9
$DIMGAP
 40
0.625
  9
$DIMJUST
 70
     0
  9
$DIMSD1
 70
     0
  9
$DIMSD2
 70
     0
  9
$DIMTOLJ
 70
     0
  9
$DIMTZIN
 70
     8
  9
$DIMALTZ
 70
     0
  9
$DIMALTTZ
 70
     0
  9
$DIMUPT
 70
     0
  9
$DIMDEC
 70
     1
  9
$DIMTDEC
 70
     1
  9
$DIMALTU
 70
     2
  9
$DIMALTTD
 70
     3
  9
$DIMTXSTY
  7
数字与字母
  9
$DIMAUNIT
 70
     0
  9
$DIMADEC
 70
     0
  9
$DIMALTRND
 40
0.0
  9
$DIMAZIN
 70
     0
  9
$DIMDSEP
 70
    46
  9
$DIMATFIT
 70
     3
  9
$DIMFRAC
 70
     0
  9
$DIMLDRBLK
  1

  9
$DIMLUNIT
 70
     2
  9
$DIMLWD
 70
    -2
  9
$DIMLWE
 70
    -2
  9
$DIMTMOVE
 70
     0
  9
$LUNITS
 70
     2
  9
$LUPREC
 70
     1
  9
$AXISMODE
 70
     0
  9
$AXISUNIT
 10
0.0
 20
0.0
  9
$SKETCHINC
 40
1.0
  9
$FILLETRAD
 40
1.5
  9
$AUNITS
 70
     0
  9
$AUPREC
 70
     1
  9
$MENU
  1
.
  9
$ELEVATION
 40
0.0
  9
$PELEVATION
 40
0.0
  9
$THICKNESS
 40
0.0
  9
$LIMCHECK
 70
     0
  9
$CHAMFERA
 40
10.0
  9
$CHAMFERB
 40
10.0
  9
$CHAMFERC
 40
20.0
  9
$CHAMFERD
 40
0.0
  9
$SKPOLY
 70
     0
  9
$TDCREATE
 40
2451911.603956590
  9
$TDUCREATE
 40
2451911.315956590
  9
$TDUPDATE
 40
2453618.568488160
  9
$TDUUPDATE
 40
2453618.280488160
  9
$TDINDWG
 40
0.028902860
  9
$TDUSRTIMER
 40
0.028902860
  9
$USRTIMER
 70
     1
  9
$ANGBASE
 50
0.0
  9
$ANGDIR
 70
     0
  9
$PDMODE
 70
     0
  9
$PDSIZE
 40
0.0
  9
$PLINEWID
 40
0.0
  9
$SPLFRAME
 70
     0
  9
$SPLINETYPE
 70
     6
  9
$SPLINESEGS
 70
     8
  9
$HANDSEED
  5
166
  9
$SURFTAB1
 70
     6
  9
$SURFTAB2
 70
     6
  9
$SURFTYPE
 70
     6
  9
$SURFU
 70
     6
  9
$SURFV
 70
     6
  9
$UCSBASE
  2

  9
$UCSNAME
  2

  9
$UCSORG
 10
0.0
 20
0.0
 30
0.0
  9
$UCSXDIR
 10
1.0
 20
0.0
 30
0.0
  9
$UCSYDIR
 10
0.0
 20
1.0
 30
0.0
  9
$UCSORTHOREF
  2

  9
$UCSORTHOVIEW
 70
     0
  9
$UCSORGTOP
 10
0.0
 20
0.0
 30
0.0
  9
$UCSORGBOTTOM
 10
0.0
 20
0.0
 30
0.0
  9
$UCSORGLEFT
 10
0.0
 20
0.0
 30
0.0
  9
$UCSORGRIGHT
 10
0.0
 20
0.0
 30
0.0
  9
$UCSORGFRONT
 10
0.0
 20
0.0
 30
0.0
  9
$UCSORGBACK
 10
0.0
 20
0.0
 30
0.0
  9
$PUCSBASE
  2

  9
$PUCSNAME
  2

  9
$PUCSORG
 10
0.0
 20
0.0
 30
0.0
  9
$PUCSXDIR
 10
1.0
 20
0.0
 30
0.0
  9
$PUCSYDIR
 10
0.0
 20
1.0
 30
0.0
  9
$PUCSORTHOREF
  2

  9
$PUCSORTHOVIEW
 70
     0
  9
$PUCSORGTOP
 10
0.0
 20
0.0
 30
0.0
  9
$PUCSORGBOTTOM
 10
0.0
 20
0.0
 30
0.0
  9
$PUCSORGLEFT
 10
0.0
 20
0.0
 30
0.0
  9
$PUCSORGRIGHT
 10
0.0
 20
0.0
 30
0.0
  9
$PUCSORGFRONT
 10
0.0
 20
0.0
 30
0.0
  9
$PUCSORGBACK
 10
0.0
 20
0.0
 30
0.0
  9
$USERI1
 70
     0
  9
$USERI2
 70
     0
  9
$USERI3
 70
     0
  9
$USERI4
 70
     0
  9
$USERI5
 70
     0
  9
$USERR1
 40
0.0
  9
$USERR2
 40
0.0
  9
$USERR3
 40
0.0
  9
$USERR4
 40
0.0
  9
$USERR5
 40
0.0
  9
$WORLDVIEW
 70
     1
  9
$SHADEDGE
 70
     3
  9
$SHADEDIF
 70
    70
  9
$TILEMODE
 70
     1
  9
$MAXACTVP
 70
    64
  9
$PINSBASE
 10
0.0
 20
0.0
 30
0.0
  9
$PLIMCHECK
 70
     0
  9
$PEXTMIN
 10
26.66999878883362
 20
20.31999878883363
 30
0.0
  9
$PEXTMAX
 10
240.0299890995026
 20
182.8799890995026
 30
0.0
  9
$PLIMMIN
 10
-6.350006103515625
 20
-6.349999904632568
  9
$PLIMMAX
 10
273.0499877929688
 20
209.5499939918518
  9
$UNITMODE
 70
     0
  9
$VISRETAIN
 70
     1
  9
$PLINEGEN
 70
     0
  9
$PSLTSCALE
 70
     1
  9
$TREEDEPTH
 70
  3020
  9
$CMLSTYLE
  2
Standard
  9
$CMLJUST
 70
     0
  9
$CMLSCALE
 40
20.0
  9
$PROXYGRAPHICS
 70
     1
  9
$MEASUREMENT
 70
     1
  9
$CELWEIGHT
370
    -1
  9
$ENDCAPS
280
     0
  9
$JOINSTYLE
280
     0
  9
$LWDISPLAY
290
     1
  9
$INSUNITS
 70
     4
  9
$HYPERLINKBASE
  1

  9
$STYLESHEET
  1

  9
$XEDIT
290
     1
  9
$CEPSNTYPE
380
     0
  9
$PSTYLEMODE
290
     0
  9
$FINGERPRINTGUID
  2
{35BD88C3-9548-11D2-9A29-0060089B3A3F}
  9
$VERSIONGUID
  2
{D9B83D99-21F8-4B63-97AA-D4667AB98700}
  9
$EXTNAMES
290
     1
  9
$PSVPSCALE
 40
0.0
  9
$OLESTARTUP
290
     0
  0
ENDSEC
  0
SECTION
  2
CLASSES
  0
CLASS
  1
ACDBDICTIONARYWDFLT
  2
AcDbDictionaryWithDefault
  3
AutoCAD 2000
 90
        0
280
     0
281
     0
  0
CLASS
  1
ACDBPLACEHOLDER
  2
AcDbPlaceHolder
  3
AutoCAD 2000
 90
        0
280
     0
281
     0
  0
CLASS
  1
LAYOUT
  2
AcDbLayout
  3
AutoCAD 2000
 90
        0
280
     0
281
     0
  0
CLASS
  1
DICTIONARYVAR
  2
AcDbDictionaryVar
  3
AutoCAD 2000
 90
        0
280
     0
281
     0
  0
CLASS
  1
DIMASSOC
  2
AcDbDimAssoc
  3
"AcDbDimAssoc|Product Desc:     AcDim ARX App For Dimension|Company:          Autodesk, Inc.|WEB Address:      www.autodesk.com"
 90
        0
280
     0
281
     0
  0
ENDSEC
  0
SECTION
  2
TABLES
  0
TABLE
  2
VPORT
  5
8
330
0
100
AcDbSymbolTable
 70
     1
  0
VPORT
  5
165
330
8
100
AcDbSymbolTableRecord
100
AcDbViewportTableRecord
  2
*Active
 70
     0
 10
0.0
 20
0.0
 11
1.0
 21
1.0
 12
150.0
 22
120.0
 13
0.0
 23
0.0
 14
10.0
 24
10.0
 15
10.0
 25
10.0
 16
0.0
 26
0.0
 36
1.0
 17
0.0
 27
0.0
 37
0.0
 40
243.0188679245283
 41
1.855042016806723
 42
50.0
 43
0.0
 44
0.0
 50
0.0
 51
0.0
 71
     0
 72
   100
 73
     1
 74
     3
 75
     0
 76
     0
 77
     0
 78
     0
281
     0
 65
     1
110
0.0
120
0.0
130
0.0
111
1.0
121
0.0
131
0.0
112
0.0
122
1.0
132
0.0
 79
     0
146
0.0
  0
ENDTAB
  0
TABLE
  2
LTYPE
  5
5
330
0
100
AcDbSymbolTable
 70
     4
  0
LTYPE
  5
14
330
5
100
AcDbSymbolTableRecord
100
AcDbLinetypeTableRecord
  2
ByBlock
 70
     0
  3

 72
    65
 73
     0
 40
0.0
  0
LTYPE
  5
15
330
5
100
AcDbSymbolTableRecord
100
AcDbLinetypeTableRecord
  2
ByLayer
 70
     0
  3

 72
    65
 73
     0
 40
0.0
  0
LTYPE
  5
16
330
5
100
AcDbSymbolTableRecord
100
AcDbLinetypeTableRecord
  2
Continuous
 70
     0
  3
Solid line
 72
    65
 73
     0
 40
0.0
  0
LTYPE
  5
91
330
5
100
AcDbSymbolTableRecord
100
AcDbLinetypeTableRecord
  2
ACAD_ISO08W100
 70
     0
  3
ISO long-dash short-dash ____ __ ____ __ ____ _
 72
    65
 73
     4
 40
36.0
 49
24.0
 74
     0
 49
-3.0
 74
     0
 49
6.0
 74
     0
 49
-3.0
 74
     0
  0
LTYPE
  5
92
330
5
100
AcDbSymbolTableRecord
100
AcDbLinetypeTableRecord
  2
ACAD_ISO09W100
 70
     0
  3
ISO long-dash double-short-dash ____ __ __ ____
 72
    65
 73
     6
 40
45.0
 49
24.0
 74
     0
 49
-3.0
 74
     0
 49
6.0
 74
     0
 49
-3.0
 74
     0
 49
6.0
 74
     0
 49
-3.0
 74
     0
  0
LTYPE
  5
93
330
5
100
AcDbSymbolTableRecord
100
AcDbLinetypeTableRecord
  2
ACAD_ISO02W100
 70
     0
  3
ISO dash __ __ __ __ __ __ __ __ __ __ __ __ __
 72
    65
 73
     2
 40
15.0
 49
12.0
 74
     0
 49
-3.0
 74
     0
  0
ENDTAB
  0
TABLE
  2
LAYER
  5
2
330
0
100
AcDbSymbolTable
 70
    11
  0
LAYER
  5
10
330
2
100
AcDbSymbolTableRecord
100
AcDbLayerTableRecord
  2
0
 70
     0
 62
    -7
  6
Continuous
370
    -3
390
F
  0
LAYER
  5
94
330
2
100
AcDbSymbolTableRecord
100
AcDbLayerTableRecord
  2
轮廓线
 70
     0
 62
    -7
  6
Continuous
370
    35
390
F
  0
LAYER
  5
95
330
2
100
AcDbSymbolTableRecord
100
AcDbLayerTableRecord
  2
点划线
 70
     0
 62
    -1
  6
ACAD_ISO08W100
370
    13
390
F
  0
LAYER
  5
96
330
2
100
AcDbSymbolTableRecord
100
AcDbLayerTableRecord
  2
双点划线
 70
     0
 62
    -3
  6
ACAD_ISO09W100
370
    -3
390
F
  0
LAYER
  5
97
330
2
100
AcDbSymbolTableRecord
100
AcDbLayerTableRecord
  2
隐藏线
 70
     0
 62
   -44
  6
ACAD_ISO02W100
370
    13
390
F
  0
LAYER
  5
98
330
2
100
AcDbSymbolTableRecord
100
AcDbLayerTableRecord
  2
剖面线
 70
     0
 62
  -142
  6
Continuous
370
    13
390
F
  0
LAYER
  5
99
330
2
100
AcDbSymbolTableRecord
100
AcDbLayerTableRecord
  2
波浪线
 70
     0
 62
    -7
  6
Continuous
370
    13
390
F
  0
LAYER
  5
9A
330
2
100
AcDbSymbolTableRecord
100
AcDbLayerTableRecord
  2
尺寸层
 70
     0
 62
    -5
  6
Continuous
370
    13
390
F
  0
LAYER
  5
9B
330
2
100
AcDbSymbolTableRecord
100
AcDbLayerTableRecord
  2
文本层
 70
     0
 62
  -212
  6
Continuous
370
    13
390
F
  0
LAYER
  5
9C
330
2
100
AcDbSymbolTableRecord
100
AcDbLayerTableRecord
  2
其它层
 70
     0
 62
    -7
  6
Continuous
370
    -3
390
F
  0
LAYER
  5
C3
330
2
100
AcDbSymbolTableRecord
100
AcDbLayerTableRecord
  2
Defpoints
 70
     0
 62
    -7
  6
Continuous
290
     0
370
    -3
390
F
  0
ENDTAB
  0
TABLE
  2
STYLE
  5
3
330
0
100
AcDbSymbolTable
 70
     4
  0
STYLE
  5
11
330
3
100
AcDbSymbolTableRecord
100
AcDbTextStyleTableRecord
  2
Standard
 70
     0
 40
0.0
 41
1.0
 50
0.0
 71
     0
 42
2.5
  3
txt
  4

  0
STYLE
  5
90
330
3
100
AcDbSymbolTableRecord
100
AcDbTextStyleTableRecord
  2

 70
     1
 40
0.0
 41
1.0
 50
0.0
 71
     0
 42
2.5
  3
ltypeshp.shx
  4

  0
STYLE
  5
9D
330
3
100
AcDbSymbolTableRecord
100
AcDbTextStyleTableRecord
  2
汉字
 70
     0
 40
0.0
 41
0.7
 50
0.0
 71
     0
 42
2.5
  3
SIMFANG.TTF
  4

1001
ACAD
1000
FangSong_GB2312
1071
    34353
  0
STYLE
  5
9F
330
3
100
AcDbSymbolTableRecord
100
AcDbTextStyleTableRecord
  2
数字与字母
 70
     0
 40
0.0
 41
0.7
 50
0.0
 71
     0
 42
3.5
  3
romant.shx
  4

  0
ENDTAB
  0
TABLE
  2
VIEW
  5
6
330
0
100
AcDbSymbolTable
 70
     0
  0
ENDTAB
  0
TABLE
  2
UCS
  5
7
330
0
100
AcDbSymbolTable
 70
     0
  0
ENDTAB
  0
TABLE
  2
APPID
  5
9
330
0
100
AcDbSymbolTable
 70
     1
  0
APPID
  5
12
330
9
100
AcDbSymbolTableRecord
100
AcDbRegAppTableRecord
  2
ACAD
 70
     0
  0
ENDTAB
  0
TABLE
  2
DIMSTYLE
  5
A
330
0
100
AcDbSymbolTable
 70
     3
100
AcDbDimStyleTable
 71
     2
340
A1
340
27
  0
DIMSTYLE
105
27
330
A
100
AcDbSymbolTableRecord
100
AcDbDimStyleTableRecord
  2
ISO-25
 70
     0
 41
2.5
 42
0.625
 43
3.75
 44
1.25
 73
     0
 74
     0
 77
     1
 78
     8
140
2.5
141
2.5
143
0.03937007874016
144
1.0
146
1.0
147
0.625
171
     3
172
     1
176
     0
177
     0
178
     0
271
     2
272
     2
273
     2
274
     3
277
     2
278
    44
283
     0
284
     8
289
     3
340
11
371
    -2
372
    -2
341
0
342
0
343
0
344
0
  0
DIMSTYLE
105
A1
102
{ACAD_REACTORS
330
C2
330
DB
330
F3
330
10F
330
127
330
13F
102
}
330
A
100
AcDbSymbolTableRecord
100
AcDbDimStyleTableRecord
  2
机械标注
 70
     0
 41
3.5
 43
7.5
 44
2.5
 73
     0
 74
     1
 77
     1
 78
     8
140
5.0
141
2.5
143
0.03937007874016
144
1.0
146
1.0
147
0.625
171
     3
172
     1
176
     0
177
     0
178
     0
271
     1
272
     1
273
     2
274
     3
277
     2
278
    46
283
     0
284
     8
289
     3
340
9F
371
    -2
372
    -2
341
0
342
0
343
0
344
0
  0
DIMSTYLE
105
A2
330
A
100
AcDbSymbolTableRecord
100
AcDbDimStyleTableRecord
  2
机械标注$2
 70
     0
 41
3.5
 43
7.5
 44
2.5
 73
     1
 74
     1
 77
     1
 78
     8
140
5.0
141
2.5
143
0.03937007874016
144
1.0
146
1.0
147
0.625
171
     3
172
     1
176
     0
177
     0
178
     0
271
     1
272
     1
273
     2
274
     3
277
     2
278
    46
283
     0
284
     8
289
     3
340
9F
371
    -2
372
    -2
341
0
342
0
343
0
344
0
  0
ENDTAB
  0
TABLE
  2
BLOCK_RECORD
  5
1
330
0
100
AcDbSymbolTable
 70
     7
  0
BLOCK_RECORD
  5
1F
330
1
100
AcDbSymbolTableRecord
100
AcDbBlockTableRecord
  2
*Model_Space
340
22
  0
BLOCK_RECORD
  5
59
330
1
100
AcDbSymbolTableRecord
100
AcDbBlockTableRecord
  2
*Paper_Space
340
5A
  0
BLOCK_RECORD
  5
5E
330
1
100
AcDbSymbolTableRecord
100
AcDbBlockTableRecord
  2
*Paper_Space0
340
5F
  0
BLOCK_RECORD
  5
C4
330
1
100
AcDbSymbolTableRecord
100
AcDbBlockTableRecord
  2
*D1
340
0
  0
BLOCK_RECORD
  5
DC
330
1
100
AcDbSymbolTableRecord
100
AcDbBlockTableRecord
  2
*D2
340
0
  0
BLOCK_RECORD
  5
F4
330
1
100
AcDbSymbolTableRecord
100
AcDbBlockTableRecord
  2
*D3
340
0
  0
BLOCK_RECORD
  5
110
330
1
100
AcDbSymbolTableRecord
100
AcDbBlockTableRecord
  2
*D4
340
0
  0
BLOCK_RECORD
  5
128
330
1
100
AcDbSymbolTableRecord
100
AcDbBlockTableRecord
  2
*D5
340
0
  0
BLOCK_RECORD
  5
140
330
1
100
AcDbSymbolTableRecord
100
AcDbBlockTableRecord
  2
*D6
340
0
  0
ENDTAB
  0
ENDSEC
  0
SECTION
  2
BLOCKS
  0
BLOCK
  5
20
330
1F
100
AcDbEntity
  8
0
100
AcDbBlockBegin
  2
*Model_Space
 70
     0
 10
0.0
 20
0.0
 30
0.0
  3
*Model_Space
  1

  0
ENDBLK
  5
21
330
1F
100
AcDbEntity
  8
0
100
AcDbBlockEnd
  0
BLOCK
  5
5B
330
59
100
AcDbEntity
 67
     1
  8
0
100
AcDbBlockBegin
  2
*Paper_Space
 70
     0
 10
0.0
 20
0.0
 30
0.0
  3
*Paper_Space
  1

  0
ENDBLK
  5
5C
330
59
100
AcDbEntity
 67
     1
  8
0
100
AcDbBlockEnd
  0
BLOCK
  5
60
330
5E
100
AcDbEntity
  8
0
100
AcDbBlockBegin
  2
*Paper_Space0
 70
     0
 10
0.0
 20
0.0
 30
0.0
  3
*Paper_Space0
  1

  0
VIEWPORT
  5
162
330
5E
100
AcDbEntity
  8
0
100
AcDbViewport
 10
133.3499908447266
 20
101.5999970436096
 30
0.0
 40
423.7327665924585
 41
228.4221935424805
 68
     0
 69
     0
 12
133.3499908447266
 22
101.5999970436096
 13
0.0
 23
0.0
 14
10.0
 24
10.0
 15
10.0
 25
10.0
 16
0.0
 26
0.0
 36
1.0
 17
0.0
 27
0.0
 37
0.0
 42
50.0
 43
0.0
 44
0.0
 45
228.4221935424805
 50
0.0
 51
0.0
 72
   100
 90
    32800
  1

281
     0
 71
     1
 74
     0
110
0.0
120
0.0
130
0.0
111
1.0
121
0.0
131
0.0
112
0.0
122
1.0
132
0.0
 79
     0
146
0.0
348
0
340
0
345
0
346
0
  0
VIEWPORT
  5
164
330
5E
100
AcDbEntity
  8
文本层
100
AcDbViewport
 10
133.3499939441681
 20
101.5999939441681
 30
0.0
 40
213.3599903106689
 41
162.5599903106689
 68
     0
 69
     0
 12
162.9432685358256
 22
117.308350165035
 13
0.0
 23
0.0
 14
10.0
 24
10.0
 15
10.0
 25
10.0
 16
0.0
 26
0.0
 36
1.0
 17
0.0
 27
0.0
 37
0.0
 42
50.0
 43
0.0
 44
0.0
 45
189.7686669462173
 50
0.0
 51
0.0
 72
   100
 90
    32864
  1

281
     0
 71
     1
 74
     0
110
0.0
120
0.0
130
0.0
111
1.0
121
0.0
131
0.0
112
0.0
122
1.0
132
0.0
 79
     0
146
0.0
348
0
340
0
345
0
346
0
  0
ENDBLK
  5
61
330
5E
100
AcDbEntity
  8
0
100
AcDbBlockEnd
  0
BLOCK
  5
CE
330
C4
100
AcDbEntity
  8
0
100
AcDbBlockBegin
  2
*D1
 70
     1
 10
0.0
 20
0.0
 30
0.0
  3
*D1
  1

  0
LINE
  5
D1
330
C4
100
AcDbEntity
  8
文本层
370
    -2
 62
     0
100
AcDbLine
 10
81.31646559463286
 20
173.0947352887117
 30
0.0
 11
43.21189055846845
 21
173.0947352887117
 31
0.0
  0
LINE
  5
D2
330
C4
100
AcDbEntity
  8
文本层
370
    -2
 62
     0
100
AcDbLine
 10
81.31646559463283
 20
77.09473528871172
 30
0.0
 11
43.21189055846843
 21
77.09473528871172
 31
0.0
  0
LINE
  5
D3
330
C4
100
AcDbEntity
  8
文本层
370
    -2
 62
     0
100
AcDbLine
 10
45.71189055846845
 20
169.5947352887117
 30
0.0
 11
45.71189055846844
 21
80.59473528871172
 31
0.0
  0
SOLID
  5
D4
330
C4
100
AcDbEntity
  8
文本层
 62
     0
100
AcDbTrace
 38
0.0
 10
45.12855722513512
 20
169.5947352887117
 11
46.29522389180179
 21
169.5947352887117
 12
45.71189055846845
 22
173.0947352887117
 13
45.71189055846845
 23
173.0947352887117
  0
SOLID
  5
D5
330
C4
100
AcDbEntity
  8
文本层
 62
     0
100
AcDbTrace
 38
0.0
 10
45.1285572251351
 20
80.59473528871172
 11
46.29522389180178
 21
80.59473528871172
 12
45.71189055846843
 22
77.09473528871172
 13
45.71189055846843
 23
77.09473528871172
  0
MTEXT
  5
D6
330
C4
100
AcDbEntity
  8
文本层
 62
     0
100
AcDbMText
 10
42.58689055846843
 20
125.0947352887117
 30
0.0
210
0.0
220
0.0
230
1.0
 11
6.123031769111886E-17
 21
1.0
 31
0.0
 40
5.0
 41
0.0
 71
     5
 72
     1
  1
96
  7
数字与字母
 73
     1
 44
1.0
  0
POINT
  5
D7
330
C4
100
AcDbEntity
  8
Defpoints
 62
     0
100
AcDbPoint
 10
81.31646559463286
 20
173.0947352887117
 30
0.0
 50
0.0
  0
POINT
  5
D8
330
C4
100
AcDbEntity
  8
Defpoints
 62
     0
100
AcDbPoint
 10
81.31646559463283
 20
77.09473528871172
 30
0.0
 50
0.0
  0
POINT
  5
D9
330
C4
100
AcDbEntity
  8
Defpoints
 62
     0
100
AcDbPoint
 10
45.71189055846843
 20
77.09473528871172
 30
0.0
 50
0.0
  0
ENDBLK
  5
CF
330
C4
100
AcDbEntity
  8
0
100
AcDbBlockEnd
  0
BLOCK
  5
E6
330
DC
100
AcDbEntity
  8
0
100
AcDbBlockBegin
  2
*D2
 70
     1
 10
0.0
 20
0.0
 30
0.0
  3
*D2
  1

  0
LINE
  5
E9
330
DC
100
AcDbEntity
  8
文本层
370
    -2
 62
     0
100
AcDbLine
 10
79.81646559463283
 20
78.59473528871172
 30
0.0
 11
79.81646559463283
 21
47.70212776116705
 31
0.0
  0
LINE
  5
EA
330
DC
100
AcDbEntity
  8
文本层
370
    -2
 62
     0
100
AcDbLine
 10
175.8164655946329
 20
78.5947352887117
 30
0.0
 11
175.8164655946329
 21
47.70212776116705
 31
0.0
  0
LINE
  5
EB
330
DC
100
AcDbEntity
  8
文本层
370
    -2
 62
     0
100
AcDbLine
 10
83.31646559463283
 20
50.20212776116705
 30
0.0
 11
172.3164655946329
 21
50.20212776116705
 31
0.0
  0
SOLID
  5
EC
330
DC
100
AcDbEntity
  8
文本层
 62
     0
100
AcDbTrace
 38
0.0
 10
83.31646559463283
 20
50.78546109450038
 11
83.31646559463283
 21
49.61879442783371
 12
79.81646559463283
 22
50.20212776116705
 13
79.81646559463283
 23
50.20212776116705
  0
SOLID
  5
ED
330
DC
100
AcDbEntity
  8
文本层
 62
     0
100
AcDbTrace
 38
0.0
 10
172.3164655946329
 20
50.78546109450038
 11
172.3164655946329
 21
49.61879442783371
 12
175.8164655946329
 22
50.20212776116705
 13
175.8164655946329
 23
50.20212776116705
  0
MTEXT
  5
EE
330
DC
100
AcDbEntity
  8
文本层
 62
     0
100
AcDbMText
 10
127.8164655946329
 20
53.32712776116705
 30
0.0
210
0.0
220
0.0
230
1.0
 11
1.0
 21
0.0
 31
0.0
 40
5.0
 41
0.0
 71
     5
 72
     1
  1
96
  7
数字与字母
 73
     1
 44
1.0
  0
POINT
  5
EF
330
DC
100
AcDbEntity
  8
Defpoints
 62
     0
100
AcDbPoint
 10
79.81646559463283
 20
78.59473528871172
 30
0.0
 50
0.0
  0
POINT
  5
F0
330
DC
100
AcDbEntity
  8
Defpoints
 62
     0
100
AcDbPoint
 10
175.8164655946329
 20
78.5947352887117
 30
0.0
 50
0.0
  0
POINT
  5
F1
330
DC
100
AcDbEntity
  8
Defpoints
 62
     0
100
AcDbPoint
 10
175.8164655946329
 20
50.20212776116705
 30
0.0
 50
0.0
  0
ENDBLK
  5
E7
330
DC
100
AcDbEntity
  8
0
100
AcDbBlockEnd
  0
BLOCK
  5
100
330
F4
100
AcDbEntity
  8
0
100
AcDbBlockBegin
  2
*D3
 70
     1
 10
0.0
 20
0.0
 30
0.0
  3
*D3
  1

  0
LINE
  5
103
330
F4
100
AcDbEntity
  8
文本层
370
    -2
 62
     0
100
AcDbLine
 10
227.8164655946329
 20
78.59473528871172
 30
0.0
 11
227.8164655946329
 21
46.6831806468424
 31
0.0
  0
LINE
  5
104
330
F4
100
AcDbEntity
  8
文本层
370
    -2
 62
     0
100
AcDbLine
 10
235.8164655946329
 20
78.59473528871172
 30
0.0
 11
235.8164655946329
 21
46.6831806468424
 31
0.0
  0
LINE
  5
105
330
F4
100
AcDbEntity
  8
文本层
370
    -2
 62
     0
100
AcDbLine
 10
224.3164655946329
 20
49.1831806468424
 30
0.0
 11
220.8164655946329
 21
49.1831806468424
 31
0.0
  0
LINE
  5
106
330
F4
100
AcDbEntity
  8
文本层
370
    -2
 62
     0
100
AcDbLine
 10
239.3164655946329
 20
49.1831806468424
 30
0.0
 11
242.8164655946329
 21
49.1831806468424
 31
0.0
  0
LINE
  5
107
330
F4
100
AcDbEntity
  8
文本层
370
    -2
 62
     0
100
AcDbLine
 10
227.8164655946329
 20
49.1831806468424
 30
0.0
 11
235.8164655946329
 21
49.1831806468424
 31
0.0
  0
SOLID
  5
108
330
F4
100
AcDbEntity
  8
文本层
 62
     0
100
AcDbTrace
 38
0.0
 10
224.3164655946329
 20
49.76651398017574
 11
224.3164655946329
 21
48.59984731350907
 12
227.8164655946329
 22
49.1831806468424
 13
227.8164655946329
 23
49.1831806468424
  0
SOLID
  5
109
330
F4
100
AcDbEntity
  8
文本层
 62
     0
100
AcDbTrace
 38
0.0
 10
239.3164655946329
 20
49.76651398017574
 11
239.3164655946329
 21
48.59984731350907
 12
235.8164655946329
 22
49.1831806468424
 13
235.8164655946329
 23
49.1831806468424
  0
MTEXT
  5
10A
330
F4
100
AcDbEntity
  8
文本层
 62
     0
100
AcDbMText
 10
231.8164655946329
 20
52.3081806468424
 30
0.0
210
0.0
220
0.0
230
1.0
 11
1.0
 21
0.0
 31
0.0
 40
5.0
 41
0.0
 71
     5
 72
     1
  1
8
  7
数字与字母
 73
     1
 44
1.0
  0
POINT
  5
10B
330
F4
100
AcDbEntity
  8
Defpoints
 62
     0
100
AcDbPoint
 10
227.8164655946329
 20
78.59473528871172
 30
0.0
 50
0.0
  0
POINT
  5
10C
330
F4
100
AcDbEntity
  8
Defpoints
 62
     0
100
AcDbPoint
 10
235.8164655946329
 20
78.59473528871172
 30
0.0
 50
0.0
  0
POINT
  5
10D
330
F4
100
AcDbEntity
  8
Defpoints
 62
     0
100
AcDbPoint
 10
235.8164655946329
 20
49.1831806468424
 30
0.0
 50
0.0
  0
ENDBLK
  5
101
330
F4
100
AcDbEntity
  8
0
100
AcDbBlockEnd
  0
BLOCK
  5
11A
330
110
100
AcDbEntity
  8
0
100
AcDbBlockBegin
  2
*D4
 70
     1
 10
0.0
 20
0.0
 30
0.0
  3
*D4
  1

  0
LINE
  5
11D
330
110
100
AcDbEntity
  8
文本层
370
    -2
 62
     0
100
AcDbLine
 10
235.8164655946329
 20
62.63895796777706
 30
0.0
 11
235.8164655946329
 21
46.6831806468424
 31
0.0
  0
LINE
  5
11E
330
110
100
AcDbEntity
  8
文本层
370
    -2
 62
     0
100
AcDbLine
 10
275.8164655946329
 20
93.09473528871172
 30
0.0
 11
275.8164655946329
 21
46.6831806468424
 31
0.0
  0
LINE
  5
11F
330
110
100
AcDbEntity
  8
文本层
370
    -2
 62
     0
100
AcDbLine
 10
239.3164655946329
 20
49.1831806468424
 30
0.0
 11
272.3164655946329
 21
49.1831806468424
 31
0.0
  0
SOLID
  5
120
330
110
100
AcDbEntity
  8
文本层
 62
     0
100
AcDbTrace
 38
0.0
 10
239.3164655946329
 20
49.76651398017574
 11
239.3164655946329
 21
48.59984731350907
 12
235.8164655946329
 22
49.1831806468424
 13
235.8164655946329
 23
49.1831806468424
  0
SOLID
  5
121
330
110
100
AcDbEntity
  8
文本层
 62
     0
100
AcDbTrace
 38
0.0
 10
272.3164655946329
 20
49.76651398017574
 11
272.3164655946329
 21
48.59984731350907
 12
275.8164655946329
 22
49.1831806468424
 13
275.8164655946329
 23
49.1831806468424
  0
MTEXT
  5
122
330
110
100
AcDbEntity
  8
文本层
 62
     0
100
AcDbMText
 10
255.8164655946329
 20
52.3081806468424
 30
0.0
210
0.0
220
0.0
230
1.0
 11
1.0
 21
0.0
 31
0.0
 40
5.0
 41
0.0
 71
     5
 72
     1
  1
40
  7
数字与字母
 73
     1
 44
1.0
  0
POINT
  5
123
330
110
100
AcDbEntity
  8
Defpoints
 62
     0
100
AcDbPoint
 10
235.8164655946329
 20
62.63895796777706
 30
0.0
 50
0.0
  0
POINT
  5
124
330
110
100
AcDbEntity
  8
Defpoints
 62
     0
100
AcDbPoint
 10
275.8164655946329
 20
93.09473528871172
 30
0.0
 50
0.0
  0
POINT
  5
125
330
110
100
AcDbEntity
  8
Defpoints
 62
     0
100
AcDbPoint
 10
275.8164655946329
 20
49.1831806468424
 30
0.0
 50
0.0
  0
ENDBLK
  5
11B
330
110
100
AcDbEntity
  8
0
100
AcDbBlockEnd
  0
BLOCK
  5
132
330
128
100
AcDbEntity
  8
0
100
AcDbBlockBegin
  2
*D5
 70
     1
 10
0.0
 20
0.0
 30
0.0
  3
*D5
  1

  0
LINE
  5
135
330
128
100
AcDbEntity
  8
文本层
370
    -2
 62
     0
100
AcDbLine
 10
90.48661919166915
 20
157.1915668437356
 30
0.0
 11
100.2782858583358
 21
157.1915668437356
 31
0.0
  0
LINE
  5
136
330
128
100
AcDbEntity
  8
文本层
370
    -2
 62
     0
100
AcDbLine
 10
100.2782858583358
 20
157.1915668437356
 30
0.0
 11
115.1189622809901
 21
139.8941747916129
 31
0.0
  0
LINE
  5
137
330
128
100
AcDbEntity
  8
文本层
370
    -2
 62
     0
100
AcDbLine
 10
140.5139689082756
 20
110.2952957858105
 30
0.0
 11
142.7930079645704
 21
107.6389861314436
 31
0.0
  0
MTEXT
  5
138
330
128
100
AcDbEntity
  8
文本层
 62
     0
100
AcDbMText
 10
95.06995252500252
 20
160.3165668437356
 30
0.0
210
0.0
220
0.0
230
1.0
 11
1.0
 21
0.0
 31
0.0
 40
5.0
 41
0.0
 71
     5
 72
     1
  1
\U+220532
  7
数字与字母
 73
     1
 44
1.0
  0
LINE
  5
139
330
128
100
AcDbEntity
  8
文本层
370
    -2
 62
     0
100
AcDbLine
 10
138.2349298519808
 20
112.9516054401774
 30
0.0
 11
117.398001337285
 21
137.237865137246
 31
0.0
  0
SOLID
  5
13A
330
128
100
AcDbEntity
  8
文本层
 62
     0
100
AcDbTrace
 38
0.0
 10
140.9566871840034
 20
110.6751356285263
 11
140.0712506325478
 21
109.9154559430947
 12
138.2349298519808
 22
112.9516054401774
 13
138.2349298519808
 23
112.9516054401774
  0
SOLID
  5
13B
330
128
100
AcDbEntity
  8
文本层
 62
     0
100
AcDbTrace
 38
0.0
 10
115.561680556718
 20
140.2740146343288
 11
114.6762440052623
 21
139.5143349488971
 12
117.398001337285
 22
137.237865137246
 13
117.398001337285
 23
137.237865137246
  0
POINT
  5
13C
330
128
100
AcDbEntity
  8
Defpoints
 62
     0
100
AcDbPoint
 10
117.398001337285
 20
137.237865137246
 30
0.0
 50
0.0
  0
POINT
  5
13D
330
128
100
AcDbEntity
  8
Defpoints
 62
     0
100
AcDbPoint
 10
138.2349298519808
 20
112.9516054401774
 30
0.0
 50
0.0
  0
ENDBLK
  5
133
330
128
100
AcDbEntity
  8
0
100
AcDbBlockEnd
  0
BLOCK
  5
14A
330
140
100
AcDbEntity
  8
0
100
AcDbBlockBegin
  2
*D6
 70
     1
 10
0.0
 20
0.0
 30
0.0
  3
*D6
  1

  0
LINE
  5
14D
330
140
100
AcDbEntity
  8
文本层
370
    -2
 62
     0
100
AcDbLine
 10
166.3329122578384
 20
160.2484081867093
 30
0.0
 11
156.3745789245051
 21
160.2484081867093
 31
0.0
  0
LINE
  5
14E
330
140
100
AcDbEntity
  8
文本层
370
    -2
 62
     0
100
AcDbLine
 10
156.3745789245051
 20
160.2484081867093
 30
0.0
 11
150.2004991175574
 21
152.6484109644649
 31
0.0
  0
LINE
  5
14F
330
140
100
AcDbEntity
  8
文本层
370
    -2
 62
     0
100
AcDbLine
 10
105.4324320717083
 20
97.54105961295856
 30
0.0
 11
103.2255555271946
 21
94.82450003929276
 31
0.0
  0
MTEXT
  5
150
330
140
100
AcDbEntity
  8
文本层
 62
     0
100
AcDbMText
 10
161.6662455911717
 20
163.3734081867093
 30
0.0
210
0.0
220
0.0
230
1.0
 11
1.0
 21
0.0
 31
0.0
 40
5.0
 41
0.0
 71
     5
 72
     1
  1
\U+220564
  7
数字与字母
 73
     1
 44
1.0
  0
LINE
  5
151
330
140
100
AcDbEntity
  8
文本层
370
    -2
 62
     0
100
AcDbLine
 10
107.639308616222
 20
100.2576191866244
 30
0.0
 11
147.9936225730437
 21
149.931851390799
 31
0.0
  0
SOLID
  5
152
330
140
100
AcDbEntity
  8
文本层
 62
     0
100
AcDbTrace
 38
0.0
 10
104.979672142764
 20
97.90887237037751
 11
105.8851920006526
 21
97.17324685553962
 12
107.639308616222
 22
100.2576191866244
 13
107.639308616222
 23
100.2576191866244
  0
SOLID
  5
153
330
140
100
AcDbEntity
  8
文本层
 62
     0
100
AcDbTrace
 38
0.0
 10
149.7477391886131
 20
153.0162237218838
 11
150.6532590465017
 21
152.2805982070459
 12
147.9936225730437
 22
149.931851390799
 13
147.9936225730437
 23
149.931851390799
  0
POINT
  5
154
330
140
100
AcDbEntity
  8
Defpoints
 62
     0
100
AcDbPoint
 10
147.9936225730437
 20
149.931851390799
 30
0.0
 50
0.0
  0
POINT
  5
155
330
140
100
AcDbEntity
  8
Defpoints
 62
     0
100
AcDbPoint
 10
107.639308616222
 20
100.2576191866244
 30
0.0
 50
0.0
  0
ENDBLK
  5
14B
330
140
100
AcDbEntity
  8
0
100
AcDbBlockEnd
  0
ENDSEC
  0
SECTION
  2
ENTITIES
  0
LINE
  5
A9
330
1F
100
AcDbEntity
  8
点划线
100
AcDbLine
 10
185.8164655946329
 20
125.0947352887117
 30
0.0
 11
69.81646559463285
 21
125.0947352887117
 31
0.0
  0
LINE
  5
AA
330
1F
100
AcDbEntity
  8
点划线
100
AcDbLine
 10
127.8164655946329
 20
67.09473528871172
 30
0.0
 11
127.8164655946329
 21
183.0947352887117
 31
0.0
  0
LWPOLYLINE
  5
AB
102
{ACAD_REACTORS
330
DA
330
F2
330
15C
102
}
330
1F
100
AcDbEntity
  8
轮廓线
100
AcDbPolyline
 90
        8
 70
     1
 43
0.0
 10
174.3164655946329
 20
173.0947352887117
 42
0.0
 10
81.31646559463286
 20
173.0947352887117
 42
0.414213562373095
 10
79.81646559463286
 20
171.5947352887117
 42
0.0
 10
79.81646559463283
 20
78.59473528871172
 42
0.414213562373095
 10
81.31646559463283
 20
77.09473528871172
 42
0.0
 10
174.3164655946329
 20
77.0947352887117
 42
0.414213562373095
 10
175.8164655946329
 20
78.5947352887117
 42
0.0
 10
175.8164655946329
 20
171.5947352887117
 42
0.414213562373095
  0
CIRCLE
  5
AD
102
{ACAD_REACTORS
330
156
102
}
330
1F
100
AcDbEntity
  8
轮廓线
100
AcDbCircle
 10
127.8164655946329
 20
125.0947352887117
 30
0.0
 40
32.0
  0
CIRCLE
  5
AE
102
{ACAD_REACTORS
330
13E
102
}
330
1F
100
AcDbEntity
  8
轮廓线
100
AcDbCircle
 10
127.8164655946329
 20
125.0947352887117
 30
0.0
 40
16.0
  0
LINE
  5
AF
330
1F
100
AcDbEntity
  8
轮廓线
100
AcDbLine
 10
234.3164655946328
 20
173.0947352887117
 30
0.0
 11
229.3164655946329
 21
173.0947352887117
 31
0.0
  0
LINE
  5
B0
330
1F
100
AcDbEntity
  8
轮廓线
100
AcDbLine
 10
235.8164655946329
 20
157.0947352887117
 30
0.0
 11
275.8164655946329
 21
157.0947352887117
 31
0.0
  0
LINE
  5
B1
330
1F
100
AcDbEntity
  8
隐藏线
100
AcDbLine
 10
227.8164655946329
 20
141.0947352887117
 30
0.0
 11
275.8164655946329
 21
141.0947352887117
 31
0.0
  0
LINE
  5
B2
330
1F
100
AcDbEntity
  8
隐藏线
100
AcDbLine
 10
227.8164655946329
 20
109.0947352887117
 30
0.0
 11
275.8164655946329
 21
109.0947352887117
 31
0.0
  0
LINE
  5
B3
330
1F
100
AcDbEntity
  8
轮廓线
100
AcDbLine
 10
235.8164655946329
 20
93.09473528871173
 30
0.0
 11
275.8164655946329
 21
93.09473528871172
 31
0.0
  0
LINE
  5
B4
330
1F
100
AcDbEntity
  8
轮廓线
100
AcDbLine
 10
229.3164655946329
 20
77.09473528871172
 30
0.0
 11
234.3164655946329
 21
77.09473528871172
 31
0.0
  0
LINE
  5
B5
102
{ACAD_REACTORS
330
10E
102
}
330
1F
100
AcDbEntity
  8
轮廓线
100
AcDbLine
 10
227.8164655946329
 20
171.5947352887117
 30
0.0
 11
227.8164655946329
 21
78.59473528871172
 31
0.0
  0
LINE
  5
B6
102
{ACAD_REACTORS
330
10E
102
}
330
1F
100
AcDbEntity
  8
轮廓线
100
AcDbLine
 10
235.8164655946328
 20
171.5947352887117
 30
0.0
 11
235.8164655946329
 21
78.59473528871172
 31
0.0
  0
LINE
  5
B7
102
{ACAD_REACTORS
330
126
102
}
330
1F
100
AcDbEntity
  8
轮廓线
100
AcDbLine
 10
275.8164655946329
 20
93.09473528871172
 30
0.0
 11
275.8164655946329
 21
157.0947352887117
 31
0.0
  0
ARC
  5
BC
330
1F
100
AcDbEntity
  8
轮廓线
100
AcDbCircle
 10
229.3164655946329
 20
78.59473528871172
 30
0.0
 40
1.5
100
AcDbArc
 50
180.0
 51
270.0
  0
ARC
  5
BD
330
1F
100
AcDbEntity
  8
轮廓线
100
AcDbCircle
 10
234.3164655946329
 20
78.59473528871172
 30
0.0
 40
1.5
100
AcDbArc
 50
270.0
 51
0.0
  0
ARC
  5
BE
330
1F
100
AcDbEntity
  8
轮廓线
100
AcDbCircle
 10
229.3164655946329
 20
171.5947352887117
 30
0.0
 40
1.5
100
AcDbArc
 50
90.0
 51
180.0
  0
ARC
  5
BF
330
1F
100
AcDbEntity
  8
轮廓线
100
AcDbCircle
 10
234.3164655946328
 20
171.5947352887117
 30
0.0
 40
1.5
100
AcDbArc
 50
0.0
 51
90.0
  0
LINE
  5
C0
330
1F
100
AcDbEntity
  8
点划线
100
AcDbLine
 10
217.8164655946329
 20
125.0947352887117
 30
0.0
 11
285.8164655946329
 21
125.0947352887117
 31
0.0
  0
DIMENSION
  5
C2
102
{ACAD_REACTORS
330
DA
102
}
102
{ACAD_XDICTIONARY
360
D0
102
}
330
1F
100
AcDbEntity
  8
文本层
100
AcDbDimension
  2
*D1
 10
45.71189055846843
 20
77.09473528871172
 30
0.0
 11
42.58689055846843
 21
125.0947352887117
 31
0.0
 70
    32
 71
     5
 42
96.00000000000001
  3
机械标注
100
AcDbAlignedDimension
 13
81.31646559463286
 23
173.0947352887117
 33
0.0
 14
81.31646559463283
 24
77.09473528871172
 34
0.0
 52
0.0
 50
90.0
100
AcDbRotatedDimension
  0
DIMENSION
  5
DB
102
{ACAD_REACTORS
330
F2
102
}
102
{ACAD_XDICTIONARY
360
E8
102
}
330
1F
100
AcDbEntity
  8
文本层
100
AcDbDimension
  2
*D2
 10
175.8164655946329
 20
50.20212776116705
 30
0.0
 11
127.8164655946329
 21
53.32712776116705
 31
0.0
 70
    32
 71
     5
 42
96.00000000000006
  3
机械标注
100
AcDbAlignedDimension
 13
79.81646559463283
 23
78.59473528871172
 33
0.0
 14
175.8164655946329
 24
78.5947352887117
 34
0.0
 52
0.0
100
AcDbRotatedDimension
  0
DIMENSION
  5
F3
102
{ACAD_REACTORS
330
10E
102
}
102
{ACAD_XDICTIONARY
360
102
102
}
330
1F
100
AcDbEntity
  8
文本层
100
AcDbDimension
  2
*D3
 10
235.8164655946329
 20
49.1831806468424
 30
0.0
 11
231.8164655946329
 21
52.3081806468424
 31
0.0
 70
    32
 71
     5
 42
8.000000000000028
  3
机械标注
100
AcDbAlignedDimension
 13
227.8164655946329
 23
78.59473528871172
 33
0.0
 14
235.8164655946329
 24
78.59473528871172
 34
0.0
 52
0.0
100
AcDbRotatedDimension
  0
DIMENSION
  5
10F
102
{ACAD_REACTORS
330
126
102
}
102
{ACAD_XDICTIONARY
360
11C
102
}
330
1F
100
AcDbEntity
  8
文本层
100
AcDbDimension
  2
*D4
 10
275.8164655946329
 20
49.1831806468424
 30
0.0
 11
255.8164655946329
 21
52.3081806468424
 31
0.0
 70
    32
 71
     5
 42
39.99999999999997
  3
机械标注
100
AcDbAlignedDimension
 13
235.8164655946329
 23
62.63895796777706
 33
0.0
 14
275.8164655946329
 24
93.09473528871172
 34
0.0
 52
0.0
100
AcDbRotatedDimension
  0
DIMENSION
  5
127
102
{ACAD_REACTORS
330
13E
102
}
102
{ACAD_XDICTIONARY
360
134
102
}
330
1F
100
AcDbEntity
  8
文本层
100
AcDbDimension
  2
*D5
 10
138.2349298519808
 20
112.9516054401774
 30
0.0
 11
95.06995252500252
 21
157.1915668437356
 31
0.0
 70
   163
 71
     5
 42
32.00000000000003
  3
机械标注
100
AcDbDiametricDimension
 15
117.398001337285
 25
137.237865137246
 35
0.0
 40
0.0
1001
ACAD
1000
DSTYLE
1002
{
1070
   288
1070
     1
1002
}
  0
DIMENSION
  5
13F
102
{ACAD_REACTORS
330
156
102
}
102
{ACAD_XDICTIONARY
360
14C
102
}
330
1F
100
AcDbEntity
  8
文本层
100
AcDbDimension
  2
*D6
 10
107.639308616222
 20
100.2576191866244
 30
0.0
 11
161.6662455911717
 21
160.2484081867093
 31
0.0
 70
   163
 71
     5
 42
64.0
  3
机械标注
100
AcDbDiametricDimension
 15
147.9936225730437
 25
149.931851390799
 35
0.0
 40
0.0
1001
ACAD
1000
DSTYLE
1002
{
1070
   288
1070
     1
1002
}
  0
LEADER
  5
15A
102
{ACAD_REACTORS
330
15C
102
}
102
{ACAD_XDICTIONARY
360
15B
102
}
330
1F
100
AcDbEntity
  8
文本层
100
AcDbLeader
  3
机械标注
 71
     1
 73
     3
 72
     0
 74
     1
 40
0.0
 41
0.0
 76
     3
 10
175.3771257664127
 20
172.6553954604915
 30
0.0
 10
186.4684458747416
 20
185.1669486400137
 30
0.0
 10
193.0480295485864
 20
185.1669486400137
 30
0.0
210
0.0
220
0.0
230
1.0
211
1.0
221
0.0
231
0.0
212
0.0
222
0.0
232
0.0
213
0.0
223
0.0
233
0.0
340
0
1001
ACAD
1000
DSTYLE
1002
{
1070
   147
1040
0.625
1070
    77
1070
     0
1002
}
  0
TEXT
  5
15D
330
1F
100
AcDbEntity
  8
文本层
100
AcDbText
 10
195.3508832571388
 20
182.6891286309622
 30
0.0
 40
5.25
  1
R=4x1.5
 41
0.7
  7
数字与字母
 11
0.0
 21
0.0
 31
0.0
100
AcDbText
  0
VIEWPORT
  5
74
330
59
100
AcDbEntity
 67
     1
  8
0
100
AcDbViewport
 10
134.8228915879863
 20
101.5999970436096
 30
0.0
 40
405.4378955490815
 41
218.5599527535252
 68
     1
 69
     1
 12
134.8228915879863
 22
101.5999970436096
 13
0.0
 23
0.0
 14
0.5
 24
0.5
 15
0.5
 25
0.5
 16
0.0
 26
0.0
 36
1.0
 17
0.0
 27
0.0
 37
0.0
 42
50.0
 43
0.0
 44
0.0
 45
218.5599527535252
 50
0.0
 51
0.0
 72
   100
 90
    32800
  1

281
     0
 71
     1
 74
     0
110
0.0
120
0.0
130
0.0
111
1.0
121
0.0
131
0.0
112
0.0
122
1.0
132
0.0
 79
     0
146
0.0
348
0
340
0
345
0
346
0
  0
VIEWPORT
  5
76
330
59
100
AcDbEntity
 67
     1
  8
0
100
AcDbViewport
 10
133.3499939441681
 20
101.5999939441681
 30
0.0
 40
213.3599903106689
 41
162.5599903106689
 68
     1
 69
     2
 12
163.7656496638
 22
104.2099137172213
 13
0.0
 23
0.0
 14
10.0
 24
10.0
 15
10.0
 25
10.0
 16
0.0
 26
0.0
 36
1.0
 17
0.0
 27
0.0
 37
0.0
 42
50.0
 43
0.0
 44
0.0
 45
210.0549283732508
 50
0.0
 51
0.0
 72
   100
 90
    32864
  1

281
     0
 71
     1
 74
     0
110
0.0
120
0.0
130
0.0
111
1.0
121
0.0
131
0.0
112
0.0
122
1.0
132
0.0
 79
     0
146
0.0
348
0
340
0
345
0
346
0
  0
ENDSEC
  0
SECTION
  2
OBJECTS
  0
DICTIONARY
  5
C
330
0
100
AcDbDictionary
281
     1
  3
ACAD_GROUP
350
D
  3
ACAD_LAYOUT
350
1A
  3
ACAD_MLINESTYLE
350
17
  3
ACAD_PLOTSETTINGS
350
19
  3
ACAD_PLOTSTYLENAME
350
E
  3
AcDbVariableDictionary
350
67
  0
DICTIONARY
  5
D
102
{ACAD_REACTORS
330
C
102
}
330
C
100
AcDbDictionary
281
     1
  0
ACDBDICTIONARYWDFLT
  5
E
102
{ACAD_REACTORS
330
C
102
}
330
C
100
AcDbDictionary
281
     1
  3
Normal
350
F
100
AcDbDictionaryWithDefault
340
F
  0
ACDBPLACEHOLDER
  5
F
102
{ACAD_REACTORS
330
E
102
}
330
E
  0
DICTIONARY
  5
17
102
{ACAD_REACTORS
330
C
102
}
330
C
100
AcDbDictionary
281
     1
  3
Standard
350
18
  0
MLINESTYLE
  5
18
102
{ACAD_REACTORS
330
17
102
}
330
17
100
AcDbMlineStyle
  2
STANDARD
 70
     0
  3

 62
   256
 51
90.0
 52
90.0
 71
     2
 49
0.5
 62
   256
  6
BYLAYER
 49
-0.5
 62
   256
  6
BYLAYER
  0
DICTIONARY
  5
19
102
{ACAD_REACTORS
330
C
102
}
330
C
100
AcDbDictionary
281
     1
  0
DICTIONARY
  5
1A
102
{ACAD_REACTORS
330
C
102
}
330
C
100
AcDbDictionary
281
     1
  3
Model
350
22
  3
布局1
350
5A
  3
布局2
350
5F
  0
LAYOUT
  5
22
102
{ACAD_REACTORS
330
1A
102
}
330
1A
100
AcDbPlotSettings
  1

  2
none_device
  4
ANSI_A_(8.50_x_11.00_Inches)
  6

 40
6.349999904632568
 41
19.04999923706055
 42
6.350006103515625
 43
19.04998779296875
 44
215.8999938964844
 45
279.3999938964844
 46
0.0
 47
0.0
 48
0.0
 49
0.0
140
0.0
141
0.0
  6

142
1.0
143
57.07986212157697
 70
 11952
 72
     0
 73
     1
 74
     0
  7

 75
     0
147
0.01751931351673652
148
-2282.040442273535
149
2.561166666666503
100
AcDbLayout
  1
Model
 70
     1
 71
     0
 10
0.0
 20
0.0
 11
12.0
 21
9.0
 12
0.0
 22
0.0
 32
0.0
 14
0.0
 24
0.0
 34
0.0
 15
0.0
 25
0.0
 35
0.0
146
0.0
 13
0.0
 23
0.0
 33
0.0
 16
1.0
 26
0.0
 36
0.0
 17
0.0
 27
1.0
 37
0.0
 76
     0
330
1F
  0
LAYOUT
  5
5A
102
{ACAD_REACTORS
330
1A
102
}
330
1A
100
AcDbPlotSettings
  1

  2
none_device
  4
Letter_(8.50_x_11.00_Inches)
  6

 40
6.349999904632568
 41
6.349999904632568
 42
6.350006103515625
 43
6.350006103515625
 44
215.8999938964844
 45
279.3999938964844
 46
0.0
 47
0.0
 48
0.0
 49
0.0
140
0.0
141
0.0
  6

142
1.0
143
1.0
 70
   688
 72
     1
 73
     1
 74
     5
  7

 75
    16
147
1.0
148
0.0
149
0.0
100
AcDbLayout
  1
布局1
 70
     1
 71
     1
 10
-6.350006103515625
 20
-6.349999904632568
 11
273.0499877929688
 21
209.5499939918518
 12
0.0
 22
0.0
 32
0.0
 14
26.66999878883362
 24
20.31999878883363
 34
0.0
 15
240.0299890995026
 25
182.8799890995026
 35
0.0
146
0.0
 13
0.0
 23
0.0
 33
0.0
 16
1.0
 26
0.0
 36
0.0
 17
0.0
 27
1.0
 37
0.0
 76
     0
330
59
331
74
  0
LAYOUT
  5
5F
102
{ACAD_REACTORS
330
1A
102
}
330
1A
100
AcDbPlotSettings
  1

  2
none_device
  4
Letter_(8.50_x_11.00_Inches)
  6

 40
6.349999904632568
 41
6.349999904632568
 42
6.350006103515625
 43
6.350006103515625
 44
215.8999938964844
 45
279.3999938964844
 46
0.0
 47
0.0
 48
0.0
 49
0.0
140
0.0
141
0.0
  6

142
1.0
143
1.0
 70
   688
 72
     1
 73
     1
 74
     5
  7

 75
    16
147
1.0
148
0.0
149
0.0
100
AcDbLayout
  1
布局2
 70
     1
 71
     2
 10
-6.350006103515625
 20
-6.349999904632568
 11
273.0499877929688
 21
209.5499939918518
 12
0.0
 22
0.0
 32
0.0
 14
26.66999878883362
 24
20.31999878883363
 34
0.0
 15
240.0299890995026
 25
182.8799890995026
 35
0.0
146
0.0
 13
0.0
 23
0.0
 33
0.0
 16
1.0
 26
0.0
 36
0.0
 17
0.0
 27
1.0
 37
0.0
 76
     0
330
5E
331
162
  0
DICTIONARY
  5
67
102
{ACAD_REACTORS
330
C
102
}
330
C
100
AcDbDictionary
281
     1
  3
DIMASSOC
350
68
  3
HIDETEXT
350
6C
  0
DICTIONARYVAR
  5
68
102
{ACAD_REACTORS
330
67
102
}
330
67
100
DictionaryVariables
280
     0
  1
2
  0
DICTIONARYVAR
  5
6C
102
{ACAD_REACTORS
330
67
102
}
330
67
100
DictionaryVariables
280
     0
  1
1
  0
DICTIONARY
  5
D0
330
C2
100
AcDbDictionary
280
     1
281
     1
  3
ACAD_DIMASSOC
360
DA
  0
DICTIONARY
  5
E8
330
DB
100
AcDbDictionary
280
     1
281
     1
  3
ACAD_DIMASSOC
360
F2
  0
DICTIONARY
  5
102
330
F3
100
AcDbDictionary
280
     1
281
     1
  3
ACAD_DIMASSOC
360
10E
  0
DICTIONARY
  5
11C
330
10F
100
AcDbDictionary
280
     1
281
     1
  3
ACAD_DIMASSOC
360
126
  0
DICTIONARY
  5
134
330
127
100
AcDbDictionary
280
     1
281
     1
  3
ACAD_DIMASSOC
360
13E
  0
DICTIONARY
  5
14C
330
13F
100
AcDbDictionary
280
     1
281
     1
  3
ACAD_DIMASSOC
360
156
  0
DICTIONARY
  5
15B
330
15A
100
AcDbDictionary
280
     1
281
     1
  3
ACAD_DIMASSOC
360
15C
  0
ENDSEC
  0
SECTION
  2
THUMBNAILIMAGE
 90
    18627
310
BF4800000201030100005000000002530100005C480000000000000000000000000000000000000000000000000000000000000000000000000000000000000000000000000000000000000000000000000000000000000000000000000000000000000000000028000000B400000061000000010008000000000034440000
310
00000000000000000001000000000000FFFFFF00FFFFFF0000000000FFFFFF00FFFFFF00FFFFFF00FFFFFF00FFFFFF00FFFFFF00FFFFFF00FFFFFF00330000006600000099000000CC000000FF00000000330000333300006633000099330000CC330000FF33000000660000336600006666000099660000CC660000FF6600
310
0000990000339900006699000099990000CC990000FF99000000CC000033CC000066CC000099CC0000CCCC0000FFCC000000FF000033FF000066FF000099FF0000CCFF0000FFFF000000003300330033006600330099003300CC003300FF00330000333300333333006633330099333300CC333300FF333300006633003366
310
33006666330099663300CC663300FF66330000993300339933006699330099993300CC993300FF99330000CC330033CC330066CC330099CC3300CCCC3300FFCC330000FF330033FF330066FF330099FF3300CCFF3300FFFF330000006600330066006600660099006600CC006600FF00660000336600333366006633660099
310
336600CC336600FF33660000666600336666006666660099666600CC666600FF66660000996600339966006699660099996600CC996600FF99660000CC660033CC660066CC660099CC6600CCCC6600FFCC660000FF660033FF660066FF660099FF6600CCFF6600FFFF660000009900330099006600990099009900CC009900
310
FF00990000339900333399006633990099339900CC339900FF33990000669900336699006666990099669900CC669900FF66990000999900339999006699990099999900CC999900FF99990000CC990033CC990066CC990099CC9900CCCC9900FFCC990000FF990033FF990066FF990099FF9900CCFF9900FFFF99000000CC
310
003300CC006600CC009900CC00CC00CC00FF00CC000033CC003333CC006633CC009933CC00CC33CC00FF33CC000066CC003366CC006666CC009966CC00CC66CC00FF66CC000099CC003399CC006699CC009999CC00CC99CC00FF99CC0000CCCC0033CCCC0066CCCC0099CCCC00CCCCCC00FFCCCC0000FFCC0033FFCC0066FF
310
CC0099FFCC00CCFFCC00FFFFCC000000FF003300FF006600FF009900FF00CC00FF00FF00FF000033FF003333FF006633FF009933FF00CC33FF00FF33FF000066FF003366FF006666FF009966FF00CC66FF00FF66FF000099FF003399FF006699FF009999FF00CC99FF00FF99FF0000CCFF0033CCFF0066CCFF0099CCFF00CC
310
CCFF00FFCCFF0000FFFF0033FFFF0066FFFF0099FFFF00CCFFFF0000000000FFFFFF000D0D0D001A1A1A00282828003535350043434300505050005D5D5D006B6B6B00787878008686860093939300A1A1A100AEAEAE00BBBBBB00C9C9C900D6D6D600E4E4E400F1F1F10000000000FFFFFF00FFFFFF00FFFFFF00FFFFFF00
310
FFFFFF00FFFFFF00FFFFFF00FFFFFF00FFFFFF00FFFFFF0000000000000000000000000000000000000000000000000000000000000000000000000000000000000000000000000000000000000000000000000000000000000000000000000000000000000000000000000000000000000000000000000000000000000000
310
00000000000000000000000000000000000000000000000000000000000000000000000000000000000000000000000000000000000000000000000000000000000000000000000000000000000000000000000000000000000000000000000000000000000000000000000000000000000000000000000000000000000000
310
00000000000000000000000000000000000000000000000000000000000000000000000000000000000000000000000000000000000000000000000000000000000000000000000000000000000000000000000000000000000000000000000000000000000000000000000000000000000000000000000000000000000000
310
00000000000000000000000000000000000000000000000000000000000000000000000000000000000000000000000000000000000000000000000000000000000000000000000000000000000000000000000000000000000000000000000000000000000000000000000000000000000000000000000000000000000000
310
00000000000000000000000000000000000000000000000000000000000000000000000000000000000000000000000000000000000000000000000000000000000000000000000000000000000000000000000000000000000000000000000000000000000000000000000000000000000000000000000000000000000000
310
00000000000000000000000000000000000000000000000000000000000000000000000000000000000000000000000000000000000000000000000000000000000000000000000000000000000000000000000000000000000000000000000000000000000000000000000000000000000000000000000000000000000000
310
00000000000000000000000000000000000000000000000000000000000000000000000000000000000000000000000000000000000000000000000000000000000000000000000000000000000000000000000000000000000000000000000000000000000000000000000000000000000000000000000000000000000000
310
00000000000000000000000000000000000000000000000000000000000000000000000000000000000000000000000000000000000000000000000000000000000000000000000000000000000000000000000000000000000000000000000000000000000000000000000000000000000000000000000000000000000000
310
00000000000000000000000000000000000000000000000000000000000000000000000000000000000000000000000000000000000000000000000000000000000000000000000000000000000000000000000000000000000000000000000000000000000000000000000000000000000000000000000000000000000000
310
00000000000000000000000000000000000000000000000000000000000000000000000000000000000000000000000000000000000000000000000000000000000000000000000000000000000000000000000000000000000000000000000000000000000000000000000000000000000000000000000000000000000000
310
00000000000000000000000000000000000000000000000000000000000000000000000000000000000000000000000000000000000000000000000000000000000000000000000000000000000000000000000000000000000000000000000000000000000000000000000000000000000000000000000000000000000000
310
00000000000000000000000000000000000000000000000000000000000000000000000000000000000000000000000000000000000000000000000000000000000000000000000000000000000000000000000000000000000000000000000000000000000000000000000000000000000000000000000000000000000000
310
00000000000000000000000000000000000000000000000000000000000000000000000000000000000000000000000000000000000000000000000000000000000000000000000000000000000000000000000000000000000000000000000000000000000000000000000000000000000000000000000000000000000000
310
00000000000000000000000000000000000000000000000000000000000000000000000000000000000000000000000000000000000000000000000000000000000000000000000000000000000000000000000000000000000000000000000000000000000000000000000000000000000000000000000000000000000000
310
00000000000000000000000000000000000000000000000000000000000000000000000000000000000000000000000000000000000000000000000000000000000000000000000000000000000000000000000000000000000000000000000000000000000000000000000000000000000000000000000000000000000000
310
00000000000000000000000000000000000000000000000000000000000000000000000000000000000000000000000000000000000000000000000000000000000000000000000000000000000000000000000000000000000000000000000000000000000000000000000000000000000000000000000000000000000000
310
00000000000000000000000000000000000000000000000000000000000000000000000000000000000000000000000000000000000000000000000000000000000000000000000000000000000000000000000000000000000000000000000000000000000000000000000000000000000000000000000000000000000000
310
00000000000000000000000000000000000000000000000000000000000000000000000000000000000000000000000000000000000000000000000000000000000000000000000000000000000000000000000000000000000000000000000000000000000000000000000000000000000000000000000000000000000000
310
00000000000000000000000000000000000000000000000000000000000000000000000000000000000000000000000000000000000000000000000000000000000000000000000000000000000000000000000000000000000000000000000000000000000000000000000000000000000000000000000000000000000000
310
00000000000000000000000000000000000000000000000000000000000000000000000000000000000000000000000000000000000000000000000000000000000000000000000000000000000000000000000000000000000000000000000000000000000000000000000000000000000000000000000000000000000000
310
00000000000000000000000000000000000000000000000000000000000000000000000000000000000000000000000000000000000000000000000000000000000000000000000000000000000000000000000000000000000000000000000000000000000000000000000000000000000000000000000000000000000000
310
00000000000000000000000000000000000000000000000000000000000000000000000000000000000000000000000000000000000000000000000000000000000000000000000000000000000000000000000000000000000000000000000000000000000000000000000000000000000000000000000000000000000000
310
00000000000000000000000000000000000000000000000000000000000000000000000000000000000000000000000000000000000000000000000000000000000000000000000000000000000000000000000000000000000000000000000000000000000000000000000000000000000000000000000000000000000000
310
00000000000000000000000000000000000000000000000000000000000000000000000000000000000000000000000000000000000000000000000000000000000000000000000000000000000000000000000000000000000000000000000000000000000000000000000000000000000000000000000000000000000000
310
00000000000000000000000000000000000000000000000000000000000000000000000000000000000000000000000000000000000000000000000000000000000000000000000000000000000000000000000000000000000000000000000000000000000000000000000000000000000000000000000000000000000000
310
00000000000000000000000000000000000000000000000000000000000000000000000000000000000000000000000000000000000000000000000000000000000000000000000000000000000000000000000000000000000000000000000000000000000000000000000000000000000000000000000000000000000000
310
00000000000000000000000000000000000000000000000000000000000000000000000000000000000000000000000000000000000000000000000000000000000000000000000000000000000000000000000000000000000000000000000000000000000000000000000000000000000000000000000000000000000000
310
00000000000000000000000000000000000000000000000000000000000000000000000000000000000000000000000000000000000000000000000000000000000000000000000000000000009E000000000000000000000000000000000000000000000000000000000000000000000000009E0000000000000000000000
310
00000000000000009E0000009E00000000000000000000000000009E000000000000000000000000000000000000000000000000000000000000000000000000000000000000000000000000000000000000000000000000000000000000000000000000000000000000000000000000000000000000000000000000000000
310
0000009E9E9E9E9E9E9E9E9E9E9E9E9E9E9E9E9E9E9E9E9E9E9E9E9E9E9E9E9E9E9E9E9E9E9E9E9E9E9E00000000000000000000000000000000009E9E9E9E9E9E9E9E9E9E9E9E9E9E9E9E9E9E9E9E9E9E00000000000000000000000000000000000000000000000000000000000000000000000000000000000000000000
310
00000000000000000000000000000000000000000000000000000000000000000000000000000000000000000000000000000000000000009E9E000000000000000000000000000000009E9E9E0000000000000000000000000000009E9E9E000000000000000000000000000000000000009E009E009E00000000009E9E9E
310
9E00000000009E0000000000000000000000000000000000000000000000000000000000000000000000000000000000000000000000000000000000000000000000000000000000000000000000000000000000000000000000000000000000000000000000000000000000009E0000000000000000000000000000000000
310
9E9E9E00000000000000000000000000000000009E000000000000000000000000000000000000009E009E009E0000000000009E9E9E00000000009E00000000000000000000000000000000000000000000000000000000000000000000000000000000000000000000000000000000000000000000000000000000000000
310
00000000000000000000000000000000000000000000000000000000000000000000009E00000000000000000000000000000000009E9E9E00000000000000000000000000000000009E000000000000000000000000000000000000009E0000009E00000000000000000000000000009E0000000000000000000000000000
310
000000000000000000000000000000000000000000000000000000000000000000000000000000000000000000000000000000000000000000000000000000000000000000000000000000000000000000000000000000009E000000000000000000000000000000000000000000000000000000000000000000000000009E
310
000000000000000000000000000000000000009E0000009E00000000000000000000000000009E00000000000000000000000000000000000000000000000000000000000000000000000000000000000000000000000000000000000000000000000000000000000000000000000000000000000000000000000000000000
310
00000000000000000000000000009E000000000000000000000000000000000000000000000000000000000000000000000000009E000000000000000000000000000000000000009E0000009E00000000000000000000000000009E0000000000000000000000000000000000000000000000000000000000000000000000
310
000000000000000000000000000000000000000000000000000000000000000000000000000000000000000000000000000000000000000000000000000000000000009E000000000000000000000000000000000000000000000000000000000000000000000000009E000000000000000000000000000000000000009E00
310
00009E00000000000000000000000000009E0000000000000000000000000000000000000000000000000000000000000000000000000000000000000000000000000000000000000000000000000000000000000000000000000000000000000000000000000000000000000000000000000000000000009E000000000000
310
000000000000000000000000BE0000000000000000000000000000000000009E000000000000000000000000000000000000009E0000009E00000000000000000000000000009E0000000000000000000000000000000000000000000000000000000000000000000000000000000000000000000000000000000000000000
310
000000000000000000000000000000000000000000000000000000000000000000000000000000000000000000009E000000000000000000000000000000000000BE0000000000000000000000000000000000009E000000000000000000000000000000000000009E0000009E00000000000000000000000000009E000000
310
0000000000000000000000000000000000000000000000000000000000000000000000000000000000000000000000000000000000000000000000000000000000000000000000000000000000000000000000000000000000000000000000000000009E000000000000000000000000000000000000BE0000000000000000
310
000000000000000000009E000000000000000000000000000000000000009E0000009E00000000000000000000000000009E0000000000000000000000000000000000000000000000000000000000000000000000000000000000000000000000000000000000000000000000000000000000000000000000000000000000
310
000000000000000000000000000000000000000000000000009EF5F5F5F5F5F5F5F5F5F5F5F5F5F5F5F5F5F5BEF5F5F5F5F5F5F5F5F5F5F5F5F5F5F5F5F5F59EF50000000000000000000000000000000000F59EF5F5F59E00000000000000000000000000009E000000000000000000000000000000000000000000000000
310
0000000000000000000000000000000000000000000000000000000000000000000000000000000000000000000000000000000000000000000000000000009E9E9E9E9E9E9E9E9E9E9E9E9E9E9E9EF5F5F5F5F5F5F5F5F5F5F5F5F5F5F5F5F5F5BEF5F5F5F5F5F5F5F5F5F5F5F5F5F5F5F5F5F59EF5000000000000000000
310
0000000000000000F59EF5F5F59EF5000000000000000000000000009E000000000000000000000000000000000000000000000000000000000000000000000000000000000000000000000000000000000000000000000000000000000000000000000000000000000000000000000000000000009E000000000000000000
310
000000F59EF5F5F5F5F5F5F5F5F5F5F5F5F5F5F5F5F5F5BEF5F5F5F5F5F5F5F5F5F5F5F5F5F5F5F5F5F59EF50000000000000000000000000000000000F59EF5F5F59EF5000000000000000000000000009E000000000000000000000000000000000000000000000000000000000000000000000000000000000000000000
310
000000000000000000000000000000000000000000000000000000000000000000000000000000000000009E000000000000000000000000F5F5F50000000000000000000000000000000000BE0000000000000000000000000000000000F5F5F50000000000000000000000000000000000F5F5F500F5F5F5000000000000
310
000000000000009E000000000000000000000000000000000000000000000000000000000000000000000000000000000000000000000000000000000000000000000000000000000000000000000000000000000000000000000000000000009E000000000000000000000000F5F5F5000000000000000000000000000000
310
0000000000000000000000000000000000000000F5F5F50000000000000000000000000000000000F5F5F500F5F5F5000000000000000000000000009E000000000000000000000000000000000000000000000000000000000000000000000000000000000000000000000000000000000000000000000000000000000000
310
000000000000000000000000000000000000000000009E000000000000000000000000F5F5F50000000000000000000000000000000000BE0000000000000000000000000000000000F5F5F50000000000000000000000000000000000F5F5F500F5F5F5000000000000000000000000009E00000000000000000000000000
310
0000000000000000000000000000000000000000000000000000000000000000000000000000000000000000000000000000000000000000000000000000000000000000000000000000009E000000000000000000000000F5F5F500000000000000000000000000000000F5BEF500000000000000000000000000000000F5
310
F5F50000000000000000000000000000000000F5F5F500F5F5F5F5F5F5F5F5F5F5F5F5F5F5F5F59E000000000000000000000000000000000000000000000000000000000000000000000000000000000000000000000000000000000000000000000000000000000000000000000000000000000000000000000000000000
310
009E000000000000000000000000F5F5F5000000000000000000000000F5F5F5F5F5BEF5F5F5F500000000000000000000000000F5F5F50000000000000000000000000000000000F5F5F500F5F5F5F5F5F5F5F5F5F5F5F5F5F5F5F59EF5000000000000000000000000000000000000000000000000000000000000000000
310
0000000000000000000000000000000000000000000000000000000000000000000000000000000000000000000000000000000000009E000000000000000000000000F5F5F5000000000000009E00F5F5F5F5F5F5F5F5BEF5F5F5F5F5F5F500000000000000000000F5F5F50000000000000000000000000000000000F5F5
310
F500F5F5F5F5F5F5F5F5F5F5F5F5F5F5F5F5F5F50000000000000000000000000000000000000000000000000000000000000000000000000000000000000000000000000000000000000000000000000000000000000000000000000000000000000000000000000000009E000000000000000000000000F5F5F500000000
310
000000009EF5F5F5F5F5F5F500BE00F5F5F5F5F5F5F5F50000000000000000F5F5F50000000000000000000000000000000000F5F5F500F5F5F5000000000000000000000000F5F5F5000000000000000000000000000000000000000000000000000000000000000000000000000000000000000000000000000000000000
310
0000000000000000000000000000000000000000000000000000000000000000009E000000000000000000000000F5F5F500000000000000F5F59EF5F50000000000BE00000000F5F5F5F5F5F500000000000000F5F5F50000000000000000000000000000000000F5F5F500F5F5F5000000000000000000000000F5F5F500
310
00000000000000000000000000000000000000000000000000000000000000000000000000000000000000000000000000000000000000000000000000000000000000000000000000000000000000000000000000009E000000000000000000000000F5F5F5000000000000F5F5F5F59E000000000000BE0000000000F5F5
310
F5F5F5F5000000000000F5F5F50000000000000000000000000000000000F5F5F500F5F5F5000000000000000000000000F5F5F5000000000000000000000000000000000000000000000000000000000000000000000000000000000000000000000000000000000000000000000000000000000000000000000000000000
310
0000000000000000000000009E000000000000000000000000F5F5F5000000000000F5F5F5F5009E0000000000BE00000000000000F5F5F5F5000000000000F5F5F50000000000000000000000000000000000F5F5F500F5F5F5000000000000000000000000F5F5F500000000000000000000000000000000000000000000
310
00000000000000000000000000000000000000000000000000000000000000000000000000000000000000000000000000000000000000000000000000000000009E000000000000000000000000F5F5F50000000000F5F5F5F500009E000000F5F5BEF5F5F500009E0000F5F5F5F50000000000F5F5F50000000000000000
310
000000000000000000F5F5F500F5F5F5000000000000000000000000F5F5F50000000000000000000000000000000000000000000000000000000000000000000000000000000000000000000000000000000000000000000000000000000000000000000000000000000000000000000000000000009E0000000000000000
310
00000000F5F5F500000000F5F5F5F5F50000009EF5F5F5F5BEF5F5F5F59E000000F5F5F5F50000000000F5F5F50000000000000000000000000000000000F5F5F582F5F5F58282828200828282828282828282F500000000000000000000000000000000000000000000000000000000000000000000000000000000000000
310
00000000000000000000000000000000000000000000000000000000000000000000000000000000000000009E000000000000000000000000F5F5F500000000F5F5F5F5000000F5F59EF5F5F5BEF5F5F59EF500000000F5F5F50000000000F5F5F50000000000000000000000000000000000F5F5F500F5F5F50000000000
310
00000000000000F5F5F50000000000000000000000000000000000000000000000000000000000000000000000000000000000000000000000000000000000000000000000000000000000000000000000000000000000000000000000000000009E000000000000000000000000F5F5F5000000F5F5F5F500000000F5F5F5
310
9E0000BE00F59EF5F5F500000000F5F5F500000000F5F5F50000000000000000000000000000000000F5F5F500F5F5F5000000000000000000000000F5F5F500000000000000000000000000000000000000000000000000000000000000000000000000000000000000000000000000000000000000000000000000000000
310
00000000000000000000000000000000000000000000009E000000000000000000000000F5F5F5000000F5F5F5F500000000F5F5F5009E00BE009E00F5F5F5F5000000F5F5F500000000F5F5F50000000000000000000000000000000000F5F5F500F5F5F5000000000000000000000000F5F5F50000000000000000000000
310
000000000000000000000000000000000000000000000000000000000000000000000000000000000000000000000000000000000000000000000000000000000000000000000000000000009E000000000000000000000000F5F5F5000000F5F5F500000000F5F5F500009E00BE009E0000F5F5F5000000F5F5F500000000
310
F5F5F50000000000000000000000000000000000F5F5F500F5F5F5000000000000000000000000F5F5F500000000000000000000000000000000000000000000000000000000000000000000000000000000000000000000000000000000000000000000000000000000000000000000000000000000000000000000000000
310
9E9E9E000000000000000000000000F5F5F5000000F5F5F500000000F5F5F50000009EBE9E000000F5F5F5000000F5F5F500000000F5F5F50000000000000000000000000000000000F5F5F500F5F5F5000000000000000000000000F5F5F50000000000000000000000000000000000000000000000000000000000000000
310
00000000000000000000000000000000000000000000000000000000000000000000000000000000000000000000000000000000009E9E9E000000000000000000BEBEBEBEBEBEBEBEBEBEBEBEBEBEBEBEBEBEBEBEBE00BE9EBEBEBEBEBEBEBEBEBEBEBEBEBEBEBEBEBEBEBEBEBEBEBE0000000000000000000000BEBEBEBE
310
BEBEBEBEBEBEBEBEBEBEBEBEBEBEBEBEBEBEBEBEBEBEBEBE000000000000000000000000000000000000000000000000000000000000000000000000000000000000000000000000000000000000000000000000000000000000000000000000000000000000000000009E9E9E000000000000000000000000F5F5F5000000
310
F5F5F500000000F5F5F50000009EBE9E000000F5F5F5000000F5F5F500000000F5F5F50000000000000000000000000000000000F5F5F500F5F5F5000000000000000000000000F5F5F50000000000000000000000000000000000000000000000000000000000000000000000000000000000000000000000000000000000
310
000000000000000000000000000000000000000000000000000000000000000000009E000000000000000000000000F5F5F5000000F5F5F500000000F5F5F500009E00BE009E0000F5F5F5000000F5F5F500000000F5F5F50000000000000000000000000000000000F5F5F500F5F5F5000000000000000000000000F5F5F5
310
0000000000000000000000000000000000000000000000000000000000000000000000000000000000000000000000000000000000000000000000000000000000000000000000000000000000000000000000000000009E000000000000000000000000F5F5F5000000F5F5F5F500000000F5F5F5009E00BE009E0000F5F5
310
F5000000F5F5F500000000F5F5F50000000000000000000000000000000000F5F5F500F5F5F5000000000000000000000000F5F5F50000000000000000000000000000000000000000000000000000000000000000000000000000000000000000000000000000000000000000000000000000000000000000000000000000
310
000000000000000000000000009E000000000000000000000000F5F5F5000000F5F5F5F500000000F5F5F59E0000BE00F59EF5F5F500000000F5F5F500000000F5F5F50000000000000000000000000000000000F5F5F500F5F5F5000000000000000000000000F5F5F5000000000000000000000000000000000000000000
310
0000000000000000000000000000000000000000000000000000000000000000000000000000000000000000000000000000000000000000000000000000000000009E000000000000000000000000F5F5F500000000F5F5F5F5000000F5F59EF5F5F5BEF5F5F59EF500000000F5F5F50000000000F5F5F500000000000000
310
00000000000000000000F5F5F500F5F5F5000000000000000000000000F5F5F50000000000000000000000000000000000000000000000000000000000000000000000000000000000000000000000000000000000000000000000000000000000000000000000000000000000000000000000000000009E00000000000000
310
0000000000F5F5F500000000F5F5F5F5F500009E9EF5F5F5F5BEF5F5F5F59E000000F5F5F5F50000000000F5F5F50000000000000000000000000000000000F5F5F582F5F5F58282828200828282828282828282F5000000000000000000000000000000000000000000000000000000000000000000000000000000000000
310
0000000000000000000000000000000000000000000000000000000000000000000000000000000000000000009E000000000000000000000000F5F5F50000000000F5F5F5F500009E0000F5F5F5BEF5F5F500009E0000F5F5F5F50000000000F5F5F50000000000000000000000000000000000F5F5F500F5F5F500000000
310
0000000000000000F5F5F50000000000000000000000000000000000000000000000000000000000000000000000000000000000000000000000000000000000000000000000000000000000000000000000000000000000000000000000000000009E000000000000000000000000F5F5F5000000000000F5F5F5F59E0000
310
00000000BE00000000009E00F5F5F5F5000000000000F5F5F50000000000000000000000000000000000F5F5F500F5F5F5000000000000000000000000F5F5F5000000000000000000000000000000000000000000000000000000000000000000000000000000000000000000000000000000000000000000000000000000
310
0000000000000000000000000000000000000000000000009E000000000000000000000000F5F5F5000000000000F5F5F59EF5000000000000BE0000000000F59EF5F5F5F5000000000000F5F5F50000000000000000000000000000000000F5F5F500F5F5F5000000000000000000000000F5F5F500000000000000000000
310
00000000000000000000000000000000000000000000000000000000000000000000000000000000000000000000000000000000000000000000000000000000000000000000000000000000009E000000000000000000000000F5F5F500000000000000F5F59EF5F50000000000BE00000000F5F5F59EF5F5000000000000
310
00F5F5F50000000000000000000000000000000000F5F5F500F5F5F5000000000000000000000000F5F5F5000000000000000000000000000000000000000000000000000000000000000000000000000000000000000000000000000000000000000000000000000000000000000000000000000000000000000000000000
310
0000009E000000000000000000000000F5F5F500000000000000009EF5F5F5F5F5F50000BE00F5F5F5F5F5F59E9E0000000000000000F5F5F50000000000000000000000000000000000F5F5F500F5F5F5000000000000000000000000F5F5F500000000000000000000000000000000000000000000000000000000000000
310
00000000000000000000000000000000000000000000000000000000000000000000000000000000000000000000000000000000000000009E000000000000000000000000F5F5F5000000000000009E00F5F5F5F5F5F5F5F5BEF5F5F5F5F5F5F500009E00000000000000F5F5F50000000000000000000000000000000000
310
F5F5F500F5F5F5F5F5F5F5F5F5F5F5F5F5F5F5F5F5F50000000000000000000000000000000000000000000000000000000000000000000000000000000000000000000000000000000000000000000000000000000000000000000000000000000000000000000000000000009E000000000000000000000000F5F5F50000
310
9E9E9E9E9E0000000000F5F5F5F5F5BEF5F5F5F500000000009E00000000000000F5F5F50000000000000000000000000000000000F5F5F500F5F5F5F5F5F5F5F5F5F5F5F5F5F5F5F5F5F500000000000000000000000000000000000000000000000000000000000000000000000000000000000000000000000000000000
310
00000000000000000000000000000000000000000000000000000000000000000000009E000000000000000000000000F5F5F500009E9E9E9E9E0000000000000000F5F5BEF50000000000000000009E9E9E9E9E0000F5F5F50000000000000000000000000000000000F5F5F500F5F5F5F5F5F5F5F5F5F5F5F5F5F5F5F5F5
310
000000000000000000000000000000000000000000000000000000000000000000000000000000000000000000000000000000000000000000000000000000000000000000000000000000000000000000000000000000009E000000000000000000000000F5F5F500009E9E9E9E9E00000000000000000000BE0000000000
310
00000000009E9E9E9E9E0000F5F5F50000000000000000000000000000000000F5F5F500F5F5F500000000000000000000000000000000000000000000000000000000000000000000000000000000000000000000000000000000000000000000000000000000000000000000000000000000000000000000000000000000
310
00000000000000000000000000009E000000000000000000000000F5F5F500000000000000000000000000000000000000000000000000000000009E9E9E9E0000F5F5F50000000000000000000000000000000000F5F5F500F5F5F50000000000000000000000000000000000000000000000000000000000000000000000
310
000000000000000000000000000000000000000000000000000000000000000000000000000000000000000000000000000000000000000000000000000000000000009E000000000000000000000000F5F5F50000000000000000000000000000000000BE0000000000000000000000000000000000F5F5F5000000000000
310
0000000000000000000000F5F5F500F5F5F50000000000000000000000000000000000000000000000000000000000000000000000000000000000000000000000000000000000000000000000000000000000000000000000000000000000000000000000000000000000000000000000000000000000009E000000000000
310
000000000000F5F5F5F5F5F5F5F5F5F5F5F5F5F5F5F5F5F5F5F5BEF5F5F5F5F5F5F5F5F5F5F5F5F5F5F5F5F5F5F5F50000000000000000000000000000000000F5F5F5F5F5F5F50000000000000000000000000000000000000000000000000000000000000000000000000000000000000000000000000000000000000000
310
0000000000000000000000000000000000000000000000000000000000000000000000000000000000000000009E9E9E9E9E9E9E9E9E9E9E9E9E9E9E9EF5F5F5F5F5F5F5F5F5F5F5F5F5F5F5F5F5F5BEF5F5F5F5F5F5F5F5F5F5F5F5F5F5F5F5F5F59EF50000000000000000000000000000000000F5F5F5F5F5F5F5000000
310
0000000000000000000000000000000000000000000000000000000000000000000000000000000000000000000000000000000000000000000000000000000000000000000000000000000000000000000000000000000000000000000000000000000000000000000000000000000000F5F5F5F5F5F5F5F5F5F5F5F5F5F5
310
F5F5F5F5F5BEF5F5F5F5F5F5F5F5F5F5F5F5F5F5F5F5F5F59E9E0000000000000000000000000000000000F5F5F5F5F5F5000000000000000000000000000000000000000000000000000000000000000000000000000000000000000000000000000000000000000000000000000000000000000000000000000000000000
310
00000000000000000000000000000000000000000000000000000000000000000000000000000000000000000000000000000000000000000000BE000000000000000000000000000000000000009E000000000000000000000000000000000000000000000000000000000000000000000000000000000000000000000000
310
000000000000000000000000000000000000000000000000000000000000000000000000000000000000000000000000000000000000000000000000000000000000000000000000000000000000000000000000000000000000000000000000000000000000000000000000000000BE000000000000000000000000000000
310
00000000009E00000000000000000000000000000000000000000000000000000000000000000000000000000000000000000000000000000000000000000000000000000000000000000000000000000000000000000000000000000000000000000000000000000000000000000000000000000000000000000000000000
310
00000000000000000000000000000000000000000000000000000000000000000000000000BE0000000000000000000000000000000000000000009E000000009E9E9E9E9E9E9E9E9E9E0000000000000000000000000000000000000000000000000000000000000000000000000000000000000000000000000000000000
310
00000000000000000000000000000000000000000000000000000000000000000000000000000000000000000000000000000000000000000000000000000000000000000000000000000000000000000000000000000000000000000000000000000000000000000000000000000000009E9E9E9E9E9E9E009E9E9E009E9E
310
00000000000000000000000000000000000000000000000000000000000000000000000000000000000000000000000000000000000000000000000000000000000000000000000000000000000000000000000000000000000000000000000000000000000000000000000000000000000000000000000000000000000000
310
000000000000000000000000000000000000000000000000000000000000000000000000000000000000009E9E00009E009E009E9E0000000000000000000000000000000000000000000000000000000000000000000000000000000000000000000000000000000000000000000000000000000000000000000000000000
310
00000000000000000000000000000000000000000000000000000000000000000000000000000000000000000000000000000000000000000000000000000000000000000000000000000000000000000000000000000000000000000000000000000000000000000000000000000000000000000000000000000000000000
310
00000000000000000000000000000000000000000000000000000000000000000000000000000000000000000000000000000000000000000000000000000000000000000000000000000000000000000000000000000000000000000000000000000000000000000000000000000000000000000000000000000000000000
310
00000000000000000000000000000000000000000000000000000000000000000000000000000000000000000000000000000000000000000000000000000000000000000000000000000000000000000000000000000000000000000000000000000000000000000000000000000000000000000000000000000000000000
310
00000000000000000000000000000000000000000000000000000000000000000000000000000000000000000000000000000000000000000000000000000000000000000000000000000000000000000000000000000000000000000000000000000000000000000000000000000000000000000000000000000000000000
310
00000000000000000000000000000000000000000000000000000000000000000000000000000000000000000000000000000000000000000000000000000000000000000000000000000000000000000000000000000000000000000000000000000000000000000000000000000000000000000000000000000000000000
310
00000000000000000000000000000000000000000000000000000000000000000000000000000000000000000000000000000000000000000000000000000000000000000000000000000000000000000000000000000000000000000000000000000000000000000000000000000000000000000000000000000000000000
310
00000000000000000000000000000000000000000000000000000000000000000000000000000000000000000000000000000000000000000000000000000000000000000000000000000000000000000000000000000000000000000000000000000000000000000000000000000000000000000000000000000000000000
310
00000000000000000000000000000000000000000000000000000000000000000000000000000000000000000000000000000000000000000000000000000000000000000000000000000000000000000000000000000000000000000000000000000000000000000000000000000000000000000000000000000000000000
310
00000000000000000000000000000000000000000000000000000000000000000000000000000000000000000000000000000000000000000000000000000000000000000000000000000000000000000000000000000000000000000000000000000000000000000000000000000000000000000000000000000000000000
310
00000000000000000000000000000000000000000000000000000000000000000000000000000000000000000000000000000000000000000000000000000000000000000000000000000000000000000000000000000000000000000000000000000000000000000000000000000000000000000000000000000000000000
310
00000000000000000000000000000000000000000000000000000000000000000000000000000000000000000000000000000000000000000000000000000000000000000000000000000000000000000000000000000000000000000000000000000000000000000000000000000000000000000000000000000000000000
310
00000000000000000000000000000000000000000000000000000000000000000000000000000000000000000000000000000000000000000000000000000000000000000000000000000000000000000000000000000000000000000000000000000000000000000000000000000000000000000000000000000000000000
310
00000000000000000000000000000000000000000000000000000000000000000000000000000000000000000000000000000000000000000000000000000000000000000000000000000000000000000000000000000000000000000000000000000000000000000000000000000000000000000000000000000000000000
310
00000000000000000000000000000000000000000000000000000000000000000000000000000000000000000000000000000000000000000000000000000000000000000000000000000000000000000000000000000000000000000000000000000000000000000000000000000000000000000000000000000000000000
310
00000000000000000000000000000000000000000000000000000000000000000000000000000000000000000000000000000000000000000000000000000000000000000000000000000000000000000000000000000000000000000000000000000000000000000000000000000000000000000000000000000000000000
310
00000000000000000000000000000000000000000000000000000000000000000000000000000000000000000000000000000000000000000000000000000000000000000000000000000000000000000000000000000000000000000000000000000000000000000000000000000000000000000000000000000000000000
310
00000000000000000000000000000000000000000000000000000000000000000000000000000000000000000000000000000000000000000000000000000000000000000000000000000000000000000000000000000000000000000000000000000000000000000000000000000000000000000000000000000000000000
310
00000000000000000000000000000000000000000000000000000000000000000000000000000000000000000000000000000000000000000000000000000000000000000000000000000000000000000000000000000000000000000000000000000000000000000000000000000000000000000000000000000000000000
310
00000000000000000000000000000000000000000000000000000000000000000000000000000000000000000000000000000000000000000000000000000000000000000000000000000000000000000000000000000000000000000000000000000000000000000000000000000000000000000000000000000000000000
310
00000000000000000000000000000000000000000000000000000000000000000000000000000000000000000000000000000000000000000000000000000000000000000000000000000000000000000000000000000000000000000000000000000000000000000000000000000000000000000000000000000000000000
310
00000000000000000000000000000000000000000000000000000000000000000000000000000000000000000000000000000000000000000000000000000000000000000000000000000000000000000000000000000000000000000000000000000000000000000000000000000000000000000000000000000000000000
310
00000000000000000000000000000000000000000000000000000000000000000000000000000000000000000000000000000000000000000000000000000000000000000000000000000000000000000000000000000000000000000000000000000000000000000000000000000000000000000000000000000000000000
310
00000000000000000000000000000000000000000000000000000000000000000000000000000000000000000000000000000000000000000000000000000000000000000000000000000000000000000000000000000000000000000000000000000000000000000000000000000000000000000000000000000000000000
310
00000000000000000000000000000000000000000000000000000000000000000000000000000000000000000000000000000000000000000000000000000000000000000000000000000000000000000000000000000000000000000000000000000000000000000000000000000000000000000000000000000000000000
310
00000000000000000000000000000000000000000000000000000000000000000000000000000000000000000000000000000000000000000000000000000000000000000000000000000000000000000000000000000000000000000000000000000000000000000000000000000000000000000000000000000000000000
310
00000000000000000000000000000000000000000000000000000000000000000000000000000000000000000000000000000000000000000000000000000000000000000000000000000000000000000000000000000000000000000000000000000000000000000000000000000000000000000000000000000000000000
310
00000000000000000000000000000000000000000000000000000000000000000000000000000000000000000000000000000000000000000000000000000000000000000000000000000000000000000000000000000000000000000000000000000000000000000000000000000000000000000000000000000000000000
310
00000000000000000000000000000000000000000000000000000000000000000000000000000000000000000000000000000000000000000000000000000000000000000000000000000000000000000000000000000000000000000000000000000000000000000000000000000000000000000000000000000000000000
310
00000000000000000000000000000000000000000000000000000000000000000000000000000000000000000000000000000000000000000000000000000000000000000000000000000000000000000000000000000000000000000000000000000000000000000000000000000000000000000000000000000000000000
310
00000000000000000000000000000000000000000000000000000000000000000000000000000000000000000000000000000000000000000000000000000000000000000000000000000000000000000000000000
  0
ENDSEC
  0
EOF
