999
LibreDWG 
  0
SECTION
  2
HEADER
  9
$ACADVER
  1
AC1015
  9
$ACADMAINTVER
 70
    13
  9
$DWGCODEPAGE
  3
ANSI_936
  9
$INSBASE
 10
0.0
 20
0.0
 30
0.0
  9
$EXTMIN
 10
-9.526884709506945
 20
74.37235038407948
 30
0.0
  9
$EXTMAX
 10
448.8652393324667
 20
280.1544052879929
 30
0.0
  9
$LIMMIN
 10
0.0
 20
0.0
  9
$LIMMAX
 10
420.0
 20
297.0
  9
$ORTHOMODE
 70
     0
  9
$REGENMODE
 70
     1
  9
$FILLMODE
 70
     1
  9
$QTEXTMODE
 70
     0
  9
$MIRRTEXT
 70
     1
  9
$LTSCALE
 40
1.0
  9
$ATTMODE
 70
     1
  9
$TEXTSIZE
 40
2.5
  9
$TRACEWID
 40
1.0
  9
$TEXTSTYLE
  7
数字与字母
  9
$CLAYER
  8
文本层
  9
$CELTYPE
  6
ByLayer
  9
$CECOLOR
 62
   256
  9
$CELTSCALE
 40
1.0
  9
$DISPSILH
 70
     0
  9
$DIMSCALE
 40
1.0
  9
$DIMASZ
 40
3.5
  9
$DIMEXO
 40
0.0
  9
$DIMDLI
 40
7.5
  9
$DIMRND
 40
0.0
  9
$DIMDLE
 40
0.0
  9
$DIMEXE
 40
2.5
  9
$DIMTP
 40
0.0
  9
$DIMTM
 40
0.0
  9
$DIMTXT
 40
5.0
  9
$DIMCEN
 40
2.5
  9
$DIMTSZ
 40
0.0
  9
$DIMTOL
 70
     0
  9
$DIMLIM
 70
     0
  9
$DIMTIH
 70
     0
  9
$DIMTOH
 70
     1
  9
$DIMSE1
 70
     0
  9
$DIMSE2
 70
     0
  9
$DIMTAD
 70
     1
  9
$DIMZIN
 70
     8
  9
$DIMBLK
  1

  9
$DIMASO
 70
     1
  9
$DIMSHO
 70
     1
  9
$DIMPOST
  1

  9
$DIMAPOST
  1

  9
$DIMALT
 70
     0
  9
$DIMALTD
 70
     3
  9
$DIMALTF
 40
0.03937007874016
  9
$DIMLFAC
 40
1.0
  9
$DIMTOFL
 70
     1
  9
$DIMTVP
 40
0.0
  9
$DIMTIX
 70
     0
  9
$DIMSOXD
 70
     0
  9
$DIMSAH
 70
     0
  9
$DIMBLK1
  1

  9
$DIMBLK2
  1

  9
$DIMSTYLE
  2
机械标注
  9
$DIMCLRD
 70
     0
  9
$DIMCLRE
 70
     0
  9
$DIMCLRT
 70
     0
  9
$DIMTFAC
 40
1.0
  9
$DIMGAP
 40
0.625
  9
$DIMJUST
 70
     0
  9
$DIMSD1
 70
     0
  9
$DIMSD2
 70
     0
  9
$DIMTOLJ
 70
     0
  9
$DIMTZIN
 70
     8
  9
$DIMALTZ
 70
     0
  9
$DIMALTTZ
 70
     0
  9
$DIMUPT
 70
     0
  9
$DIMDEC
 70
     1
  9
$DIMTDEC
 70
     1
  9
$DIMALTU
 70
     2
  9
$DIMALTTD
 70
     3
  9
$DIMTXSTY
  7
数字与字母
  9
$DIMAUNIT
 70
     0
  9
$DIMADEC
 70
     0
  9
$DIMALTRND
 40
0.0
  9
$DIMAZIN
 70
     0
  9
$DIMDSEP
 70
    46
  9
$DIMATFIT
 70
     3
  9
$DIMFRAC
 70
     0
  9
$DIMLDRBLK
  1

  9
$DIMLUNIT
 70
     2
  9
$DIMLWD
 70
    -2
  9
$DIMLWE
 70
    -2
  9
$DIMTMOVE
 70
     0
  9
$LUNITS
 70
     2
  9
$LUPREC
 70
     1
  9
$AXISMODE
 70
     0
  9
$AXISUNIT
 10
0.0
 20
0.0
  9
$SKETCHINC
 40
1.0
  9
$FILLETRAD
 40
7.5
  9
$AUNITS
 70
     0
  9
$AUPREC
 70
     1
  9
$MENU
  1
.
  9
$ELEVATION
 40
0.0
  9
$PELEVATION
 40
0.0
  9
$THICKNESS
 40
0.0
  9
$LIMCHECK
 70
     0
  9
$CHAMFERA
 40
10.0
  9
$CHAMFERB
 40
10.0
  9
$CHAMFERC
 40
20.0
  9
$CHAMFERD
 40
0.0
  9
$SKPOLY
 70
     0
  9
$TDCREATE
 40
2451911.603956590
  9
$TDUCREATE
 40
2451911.315956590
  9
$TDUPDATE
 40
2453619.376641420
  9
$TDUUPDATE
 40
2453619.088641420
  9
$TDINDWG
 40
0.053181770
  9
$TDUSRTIMER
 40
0.053181770
  9
$USRTIMER
 70
     1
  9
$ANGBASE
 50
0.0
  9
$ANGDIR
 70
     0
  9
$PDMODE
 70
     0
  9
$PDSIZE
 40
0.0
  9
$PLINEWID
 40
0.0
  9
$SPLFRAME
 70
     0
  9
$SPLINETYPE
 70
     6
  9
$SPLINESEGS
 70
     8
  9
$HANDSEED
  5
29A
  9
$SURFTAB1
 70
     6
  9
$SURFTAB2
 70
     6
  9
$SURFTYPE
 70
     6
  9
$SURFU
 70
     6
  9
$SURFV
 70
     6
  9
$UCSBASE
  2

  9
$UCSNAME
  2

  9
$UCSORG
 10
0.0
 20
0.0
 30
0.0
  9
$UCSXDIR
 10
1.0
 20
0.0
 30
0.0
  9
$UCSYDIR
 10
0.0
 20
1.0
 30
0.0
  9
$UCSORTHOREF
  2

  9
$UCSORTHOVIEW
 70
     0
  9
$UCSORGTOP
 10
0.0
 20
0.0
 30
0.0
  9
$UCSORGBOTTOM
 10
0.0
 20
0.0
 30
0.0
  9
$UCSORGLEFT
 10
0.0
 20
0.0
 30
0.0
  9
$UCSORGRIGHT
 10
0.0
 20
0.0
 30
0.0
  9
$UCSORGFRONT
 10
0.0
 20
0.0
 30
0.0
  9
$UCSORGBACK
 10
0.0
 20
0.0
 30
0.0
  9
$PUCSBASE
  2

  9
$PUCSNAME
  2

  9
$PUCSORG
 10
0.0
 20
0.0
 30
0.0
  9
$PUCSXDIR
 10
1.0
 20
0.0
 30
0.0
  9
$PUCSYDIR
 10
0.0
 20
1.0
 30
0.0
  9
$PUCSORTHOREF
  2

  9
$PUCSORTHOVIEW
 70
     0
  9
$PUCSORGTOP
 10
0.0
 20
0.0
 30
0.0
  9
$PUCSORGBOTTOM
 10
0.0
 20
0.0
 30
0.0
  9
$PUCSORGLEFT
 10
0.0
 20
0.0
 30
0.0
  9
$PUCSORGRIGHT
 10
0.0
 20
0.0
 30
0.0
  9
$PUCSORGFRONT
 10
0.0
 20
0.0
 30
0.0
  9
$PUCSORGBACK
 10
0.0
 20
0.0
 30
0.0
  9
$USERI1
 70
     0
  9
$USERI2
 70
     0
  9
$USERI3
 70
     0
  9
$USERI4
 70
     0
  9
$USERI5
 70
     0
  9
$USERR1
 40
0.0
  9
$USERR2
 40
0.0
  9
$USERR3
 40
0.0
  9
$USERR4
 40
0.0
  9
$USERR5
 40
0.0
  9
$WORLDVIEW
 70
     1
  9
$SHADEDGE
 70
     3
  9
$SHADEDIF
 70
    70
  9
$TILEMODE
 70
     1
  9
$MAXACTVP
 70
    64
  9
$PINSBASE
 10
0.0
 20
0.0
 30
0.0
  9
$PLIMCHECK
 70
     0
  9
$PEXTMIN
 10
26.66999878883362
 20
20.31999878883363
 30
0.0
  9
$PEXTMAX
 10
240.0299890995026
 20
182.8799890995026
 30
0.0
  9
$PLIMMIN
 10
-6.350006103515625
 20
-6.349999904632568
  9
$PLIMMAX
 10
273.0499877929688
 20
209.5499939918518
  9
$UNITMODE
 70
     0
  9
$VISRETAIN
 70
     1
  9
$PLINEGEN
 70
     0
  9
$PSLTSCALE
 70
     1
  9
$TREEDEPTH
 70
  3020
  9
$CMLSTYLE
  2
Standard
  9
$CMLJUST
 70
     0
  9
$CMLSCALE
 40
20.0
  9
$PROXYGRAPHICS
 70
     1
  9
$MEASUREMENT
 70
     1
  9
$CELWEIGHT
370
    -1
  9
$ENDCAPS
280
     0
  9
$JOINSTYLE
280
     0
  9
$LWDISPLAY
290
     1
  9
$INSUNITS
 70
     4
  9
$HYPERLINKBASE
  1

  9
$STYLESHEET
  1

  9
$XEDIT
290
     1
  9
$CEPSNTYPE
380
     0
  9
$PSTYLEMODE
290
     0
  9
$FINGERPRINTGUID
  2
{35BD88C3-9548-11D2-9A29-0060089B3A3F}
  9
$VERSIONGUID
  2
{C68ADE93-3F6A-4732-A266-4B509CDE2D2A}
  9
$EXTNAMES
290
     1
  9
$PSVPSCALE
 40
0.0
  9
$OLESTARTUP
290
     0
  0
ENDSEC
  0
SECTION
  2
CLASSES
  0
CLASS
  1
ACDBDICTIONARYWDFLT
  2
AcDbDictionaryWithDefault
  3
AutoCAD 2000
 90
        0
280
     0
281
     0
  0
CLASS
  1
ACDBPLACEHOLDER
  2
AcDbPlaceHolder
  3
AutoCAD 2000
 90
        0
280
     0
281
     0
  0
CLASS
  1
LAYOUT
  2
AcDbLayout
  3
AutoCAD 2000
 90
        0
280
     0
281
     0
  0
CLASS
  1
DICTIONARYVAR
  2
AcDbDictionaryVar
  3
AutoCAD 2000
 90
        0
280
     0
281
     0
  0
CLASS
  1
DIMASSOC
  2
AcDbDimAssoc
  3
"AcDbDimAssoc|Product Desc:     AcDim ARX App For Dimension|Company:          Autodesk, Inc.|WEB Address:      www.autodesk.com"
 90
        0
280
     0
281
     0
  0
ENDSEC
  0
SECTION
  2
TABLES
  0
TABLE
  2
VPORT
  5
8
330
0
100
AcDbSymbolTable
 70
     1
  0
VPORT
  5
299
330
8
100
AcDbSymbolTableRecord
100
AcDbViewportTableRecord
  2
*Active
 70
     0
 10
0.0
 20
0.0
 11
1.0
 21
1.0
 12
183.2627540441832
 22
181.8862929611888
 13
0.0
 23
0.0
 14
10.0
 24
10.0
 15
10.0
 25
10.0
 16
0.0
 26
0.0
 36
1.0
 17
0.0
 27
0.0
 37
0.0
 40
276.3395180224231
 41
1.841563786008231
 42
50.0
 43
0.0
 44
0.0
 50
0.0
 51
0.0
 71
     0
 72
   100
 73
     1
 74
     3
 75
     0
 76
     0
 77
     0
 78
     0
281
     0
 65
     1
110
0.0
120
0.0
130
0.0
111
1.0
121
0.0
131
0.0
112
0.0
122
1.0
132
0.0
 79
     0
146
0.0
  0
ENDTAB
  0
TABLE
  2
LTYPE
  5
5
330
0
100
AcDbSymbolTable
 70
     4
  0
LTYPE
  5
14
330
5
100
AcDbSymbolTableRecord
100
AcDbLinetypeTableRecord
  2
ByBlock
 70
     0
  3

 72
    65
 73
     0
 40
0.0
  0
LTYPE
  5
15
330
5
100
AcDbSymbolTableRecord
100
AcDbLinetypeTableRecord
  2
ByLayer
 70
     0
  3

 72
    65
 73
     0
 40
0.0
  0
LTYPE
  5
16
330
5
100
AcDbSymbolTableRecord
100
AcDbLinetypeTableRecord
  2
Continuous
 70
     0
  3
Solid line
 72
    65
 73
     0
 40
0.0
  0
LTYPE
  5
91
330
5
100
AcDbSymbolTableRecord
100
AcDbLinetypeTableRecord
  2
ACAD_ISO08W100
 70
     0
  3
ISO long-dash short-dash ____ __ ____ __ ____ _
 72
    65
 73
     4
 40
36.0
 49
24.0
 74
     0
 49
-3.0
 74
     0
 49
6.0
 74
     0
 49
-3.0
 74
     0
  0
LTYPE
  5
92
330
5
100
AcDbSymbolTableRecord
100
AcDbLinetypeTableRecord
  2
ACAD_ISO09W100
 70
     0
  3
ISO long-dash double-short-dash ____ __ __ ____
 72
    65
 73
     6
 40
45.0
 49
24.0
 74
     0
 49
-3.0
 74
     0
 49
6.0
 74
     0
 49
-3.0
 74
     0
 49
6.0
 74
     0
 49
-3.0
 74
     0
  0
LTYPE
  5
93
330
5
100
AcDbSymbolTableRecord
100
AcDbLinetypeTableRecord
  2
ACAD_ISO02W100
 70
     0
  3
ISO dash __ __ __ __ __ __ __ __ __ __ __ __ __
 72
    65
 73
     2
 40
15.0
 49
12.0
 74
     0
 49
-3.0
 74
     0
  0
ENDTAB
  0
TABLE
  2
LAYER
  5
2
330
0
100
AcDbSymbolTable
 70
    11
  0
LAYER
  5
10
330
2
100
AcDbSymbolTableRecord
100
AcDbLayerTableRecord
  2
0
 70
     0
 62
    -7
  6
Continuous
370
    -3
390
F
  0
LAYER
  5
94
330
2
100
AcDbSymbolTableRecord
100
AcDbLayerTableRecord
  2
轮廓线
 70
     0
 62
    -7
  6
Continuous
370
    35
390
F
  0
LAYER
  5
95
330
2
100
AcDbSymbolTableRecord
100
AcDbLayerTableRecord
  2
点划线
 70
     0
 62
    -1
  6
ACAD_ISO08W100
370
    13
390
F
  0
LAYER
  5
96
330
2
100
AcDbSymbolTableRecord
100
AcDbLayerTableRecord
  2
双点划线
 70
     0
 62
    -3
  6
ACAD_ISO09W100
370
    -3
390
F
  0
LAYER
  5
97
330
2
100
AcDbSymbolTableRecord
100
AcDbLayerTableRecord
  2
隐藏线
 70
     0
 62
   -44
  6
ACAD_ISO02W100
370
    13
390
F
  0
LAYER
  5
98
330
2
100
AcDbSymbolTableRecord
100
AcDbLayerTableRecord
  2
剖面线
 70
     0
 62
  -142
  6
Continuous
370
    13
390
F
  0
LAYER
  5
99
330
2
100
AcDbSymbolTableRecord
100
AcDbLayerTableRecord
  2
波浪线
 70
     0
 62
    -7
  6
Continuous
370
    13
390
F
  0
LAYER
  5
9A
330
2
100
AcDbSymbolTableRecord
100
AcDbLayerTableRecord
  2
尺寸层
 70
     0
 62
    -5
  6
Continuous
370
    13
390
F
  0
LAYER
  5
9B
330
2
100
AcDbSymbolTableRecord
100
AcDbLayerTableRecord
  2
文本层
 70
     0
 62
  -212
  6
Continuous
370
    13
390
F
  0
LAYER
  5
9C
330
2
100
AcDbSymbolTableRecord
100
AcDbLayerTableRecord
  2
其它层
 70
     0
 62
    -7
  6
Continuous
370
    -3
390
F
  0
LAYER
  5
F3
330
2
100
AcDbSymbolTableRecord
100
AcDbLayerTableRecord
  2
Defpoints
 70
     0
 62
    -7
  6
Continuous
290
     0
370
    -3
390
F
  0
ENDTAB
  0
TABLE
  2
STYLE
  5
3
330
0
100
AcDbSymbolTable
 70
     4
  0
STYLE
  5
11
330
3
100
AcDbSymbolTableRecord
100
AcDbTextStyleTableRecord
  2
Standard
 70
     0
 40
0.0
 41
1.0
 50
0.0
 71
     0
 42
2.5
  3
txt
  4

  0
STYLE
  5
90
330
3
100
AcDbSymbolTableRecord
100
AcDbTextStyleTableRecord
  2

 70
     1
 40
0.0
 41
1.0
 50
0.0
 71
     0
 42
2.5
  3
ltypeshp.shx
  4

  0
STYLE
  5
9D
330
3
100
AcDbSymbolTableRecord
100
AcDbTextStyleTableRecord
  2
汉字
 70
     0
 40
0.0
 41
0.7
 50
0.0
 71
     0
 42
2.5
  3
SIMFANG.TTF
  4

1001
ACAD
1000
FangSong_GB2312
1071
    34353
  0
STYLE
  5
9F
330
3
100
AcDbSymbolTableRecord
100
AcDbTextStyleTableRecord
  2
数字与字母
 70
     0
 40
0.0
 41
0.7
 50
0.0
 71
     0
 42
2.5
  3
romant.shx
  4

  0
ENDTAB
  0
TABLE
  2
VIEW
  5
6
330
0
100
AcDbSymbolTable
 70
     0
  0
ENDTAB
  0
TABLE
  2
UCS
  5
7
330
0
100
AcDbSymbolTable
 70
     0
  0
ENDTAB
  0
TABLE
  2
APPID
  5
9
330
0
100
AcDbSymbolTable
 70
     1
  0
APPID
  5
12
330
9
100
AcDbSymbolTableRecord
100
AcDbRegAppTableRecord
  2
ACAD
 70
     0
  0
ENDTAB
  0
TABLE
  2
DIMSTYLE
  5
A
330
0
100
AcDbSymbolTable
 70
     3
100
AcDbDimStyleTable
 71
     2
340
A1
340
27
  0
DIMSTYLE
105
27
330
A
100
AcDbSymbolTableRecord
100
AcDbDimStyleTableRecord
  2
ISO-25
 70
     0
 41
2.5
 42
0.625
 43
3.75
 44
1.25
 73
     0
 74
     0
 77
     1
 78
     8
140
2.5
141
2.5
143
0.03937007874016
144
1.0
146
1.0
147
0.625
171
     3
172
     1
176
     0
177
     0
178
     0
271
     2
272
     2
273
     2
274
     3
277
     2
278
    44
283
     0
284
     8
289
     3
340
11
371
    -2
372
    -2
341
0
342
0
343
0
344
0
  0
DIMSTYLE
105
A1
102
{ACAD_REACTORS
330
F2
330
10B
330
123
330
13B
330
157
330
16F
330
187
330
19F
330
1B7
330
1D3
330
1E7
330
1FB
330
223
330
237
102
}
330
A
100
AcDbSymbolTableRecord
100
AcDbDimStyleTableRecord
  2
机械标注
 70
     0
 41
3.5
 43
7.5
 44
2.5
 73
     0
 74
     1
 77
     1
 78
     8
140
5.0
141
2.5
143
0.03937007874016
144
1.0
146
1.0
147
0.625
171
     3
172
     1
176
     0
177
     0
178
     0
271
     1
272
     1
273
     2
274
     3
277
     2
278
    46
283
     0
284
     8
289
     3
340
9F
371
    -2
372
    -2
341
0
342
0
343
0
344
0
  0
DIMSTYLE
105
A2
102
{ACAD_REACTORS
330
276
102
}
330
A
100
AcDbSymbolTableRecord
100
AcDbDimStyleTableRecord
  2
机械标注$2
 70
     0
 41
3.5
 43
7.5
 44
2.5
 73
     1
 74
     1
 77
     1
 78
     8
140
5.0
141
2.5
143
0.03937007874016
144
1.0
146
1.0
147
0.625
171
     3
172
     1
176
     0
177
     0
178
     0
271
     1
272
     1
273
     2
274
     3
277
     2
278
    46
283
     0
284
     8
289
     3
340
9F
371
    -2
372
    -2
341
0
342
0
343
0
344
0
  0
ENDTAB
  0
TABLE
  2
BLOCK_RECORD
  5
1
330
0
100
AcDbSymbolTable
 70
    17
  0
BLOCK_RECORD
  5
1F
330
1
100
AcDbSymbolTableRecord
100
AcDbBlockTableRecord
  2
*Model_Space
340
22
  0
BLOCK_RECORD
  5
5E
330
1
100
AcDbSymbolTableRecord
100
AcDbBlockTableRecord
  2
*Paper_Space
340
5F
  0
BLOCK_RECORD
  5
59
330
1
100
AcDbSymbolTableRecord
100
AcDbBlockTableRecord
  2
*Paper_Space0
340
5A
  0
BLOCK_RECORD
  5
F4
330
1
100
AcDbSymbolTableRecord
100
AcDbBlockTableRecord
  2
*D1
340
0
  0
BLOCK_RECORD
  5
10C
330
1
100
AcDbSymbolTableRecord
100
AcDbBlockTableRecord
  2
*D2
340
0
  0
BLOCK_RECORD
  5
124
330
1
100
AcDbSymbolTableRecord
100
AcDbBlockTableRecord
  2
*D3
340
0
  0
BLOCK_RECORD
  5
13C
330
1
100
AcDbSymbolTableRecord
100
AcDbBlockTableRecord
  2
*D4
340
0
  0
BLOCK_RECORD
  5
158
330
1
100
AcDbSymbolTableRecord
100
AcDbBlockTableRecord
  2
*D5
340
0
  0
BLOCK_RECORD
  5
170
330
1
100
AcDbSymbolTableRecord
100
AcDbBlockTableRecord
  2
*D6
340
0
  0
BLOCK_RECORD
  5
188
330
1
100
AcDbSymbolTableRecord
100
AcDbBlockTableRecord
  2
*D7
340
0
  0
BLOCK_RECORD
  5
1A0
330
1
100
AcDbSymbolTableRecord
100
AcDbBlockTableRecord
  2
*D8
340
0
  0
BLOCK_RECORD
  5
1B8
330
1
100
AcDbSymbolTableRecord
100
AcDbBlockTableRecord
  2
*D9
340
0
  0
BLOCK_RECORD
  5
1D4
330
1
100
AcDbSymbolTableRecord
100
AcDbBlockTableRecord
  2
*D10
340
0
  0
BLOCK_RECORD
  5
1E8
330
1
100
AcDbSymbolTableRecord
100
AcDbBlockTableRecord
  2
*D11
340
0
  0
BLOCK_RECORD
  5
1FC
330
1
100
AcDbSymbolTableRecord
100
AcDbBlockTableRecord
  2
*D12
340
0
  0
BLOCK_RECORD
  5
210
330
1
100
AcDbSymbolTableRecord
100
AcDbBlockTableRecord
  2
*D13
340
0
  0
BLOCK_RECORD
  5
224
330
1
100
AcDbSymbolTableRecord
100
AcDbBlockTableRecord
  2
*D14
340
0
  0
BLOCK_RECORD
  5
238
330
1
100
AcDbSymbolTableRecord
100
AcDbBlockTableRecord
  2
*D15
340
0
  0
BLOCK_RECORD
  5
277
330
1
100
AcDbSymbolTableRecord
100
AcDbBlockTableRecord
  2
*D16
340
0
  0
ENDTAB
  0
ENDSEC
  0
SECTION
  2
BLOCKS
  0
BLOCK
  5
20
330
1F
100
AcDbEntity
  8
0
100
AcDbBlockBegin
  2
*Model_Space
 70
     0
 10
0.0
 20
0.0
 30
0.0
  3
*Model_Space
  1

  0
ENDBLK
  5
21
330
1F
100
AcDbEntity
  8
0
100
AcDbBlockEnd
  0
BLOCK
  5
5B
330
59
100
AcDbEntity
  8
0
100
AcDbBlockBegin
  2
*Paper_Space0
 70
     0
 10
0.0
 20
0.0
 30
0.0
  3
*Paper_Space0
  1

  0
VIEWPORT
  5
74
330
59
100
AcDbEntity
  8
0
100
AcDbViewport
 10
133.3499908447266
 20
101.5999970436096
 30
0.0
 40
402.4920940625619
 41
218.5599527535252
 68
     0
 69
     0
 12
133.3499908447266
 22
101.5999970436096
 13
0.0
 23
0.0
 14
0.5
 24
0.5
 15
0.5
 25
0.5
 16
0.0
 26
0.0
 36
1.0
 17
0.0
 27
0.0
 37
0.0
 42
50.0
 43
0.0
 44
0.0
 45
218.5599527535252
 50
0.0
 51
0.0
 72
   100
 90
    32800
  1

281
     0
 71
     1
 74
     0
110
0.0
120
0.0
130
0.0
111
1.0
121
0.0
131
0.0
112
0.0
122
1.0
132
0.0
 79
     0
146
0.0
348
0
340
0
345
0
346
0
  0
VIEWPORT
  5
76
330
59
100
AcDbEntity
  8
0
100
AcDbViewport
 10
133.3499939441681
 20
101.5999939441681
 30
0.0
 40
213.3599903106689
 41
162.5599903106689
 68
     0
 69
     0
 12
208.7243244813859
 22
168.9802821067645
 13
0.0
 23
0.0
 14
10.0
 24
10.0
 15
10.0
 25
10.0
 16
0.0
 26
0.0
 36
1.0
 17
0.0
 27
0.0
 37
0.0
 42
50.0
 43
0.0
 44
0.0
 45
372.3717357770075
 50
0.0
 51
0.0
 72
   100
 90
    32864
  1

281
     0
 71
     1
 74
     0
110
0.0
120
0.0
130
0.0
111
1.0
121
0.0
131
0.0
112
0.0
122
1.0
132
0.0
 79
     0
146
0.0
348
0
340
0
345
0
346
0
  0
ENDBLK
  5
5C
330
59
100
AcDbEntity
  8
0
100
AcDbBlockEnd
  0
BLOCK
  5
60
330
5E
100
AcDbEntity
 67
     1
  8
0
100
AcDbBlockBegin
  2
*Paper_Space
 70
     0
 10
0.0
 20
0.0
 30
0.0
  3
*Paper_Space
  1

  0
ENDBLK
  5
61
330
5E
100
AcDbEntity
 67
     1
  8
0
100
AcDbBlockEnd
  0
BLOCK
  5
FE
330
F4
100
AcDbEntity
  8
0
100
AcDbBlockBegin
  2
*D1
 70
     1
 10
0.0
 20
0.0
 30
0.0
  3
*D1
  1

  0
LINE
  5
101
330
F4
100
AcDbEntity
  8
文本层
370
    -2
 62
     0
100
AcDbLine
 10
50.25998761851316
 20
181.129043032558
 30
0.0
 11
50.25998761851316
 21
174.3277537015368
 31
0.0
  0
LINE
  5
102
330
F4
100
AcDbEntity
  8
文本层
370
    -2
 62
     0
100
AcDbLine
 10
170.2599876185132
 20
188.629043032558
 30
0.0
 11
170.2599876185132
 21
174.3277537015368
 31
0.0
  0
LINE
  5
103
330
F4
100
AcDbEntity
  8
文本层
370
    -2
 62
     0
100
AcDbLine
 10
53.75998761851316
 20
176.8277537015368
 30
0.0
 11
166.7599876185132
 21
176.8277537015368
 31
0.0
  0
SOLID
  5
104
330
F4
100
AcDbEntity
  8
文本层
 62
     0
100
AcDbTrace
 38
0.0
 10
53.75998761851316
 20
177.4110870348702
 11
53.75998761851316
 21
176.2444203682035
 12
50.25998761851316
 22
176.8277537015368
 13
50.25998761851316
 23
176.8277537015368
  0
SOLID
  5
105
330
F4
100
AcDbEntity
  8
文本层
 62
     0
100
AcDbTrace
 38
0.0
 10
166.7599876185132
 20
177.4110870348702
 11
166.7599876185132
 21
176.2444203682035
 12
170.2599876185132
 22
176.8277537015368
 13
170.2599876185132
 23
176.8277537015368
  0
MTEXT
  5
106
330
F4
100
AcDbEntity
  8
文本层
 62
     0
100
AcDbMText
 10
110.2599876185132
 20
179.9527537015368
 30
0.0
210
0.0
220
0.0
230
1.0
 11
1.0
 21
0.0
 31
0.0
 40
5.0
 41
0.0
 71
     5
 72
     1
  1
120
  7
数字与字母
 73
     1
 44
1.0
  0
POINT
  5
107
330
F4
100
AcDbEntity
  8
Defpoints
 62
     0
100
AcDbPoint
 10
50.25998761851316
 20
181.129043032558
 30
0.0
 50
0.0
  0
POINT
  5
108
330
F4
100
AcDbEntity
  8
Defpoints
 62
     0
100
AcDbPoint
 10
170.2599876185132
 20
188.629043032558
 30
0.0
 50
0.0
  0
POINT
  5
109
330
F4
100
AcDbEntity
  8
Defpoints
 62
     0
100
AcDbPoint
 10
170.2599876185132
 20
176.8277537015368
 30
0.0
 50
0.0
  0
ENDBLK
  5
FF
330
F4
100
AcDbEntity
  8
0
100
AcDbBlockEnd
  0
BLOCK
  5
116
330
10C
100
AcDbEntity
  8
0
100
AcDbBlockBegin
  2
*D2
 70
     1
 10
0.0
 20
0.0
 30
0.0
  3
*D2
  1

  0
LINE
  5
119
330
10C
100
AcDbEntity
  8
文本层
370
    -2
 62
     0
100
AcDbLine
 10
20.25998761851315
 20
188.629043032558
 30
0.0
 11
20.25998761851315
 21
164.7286262679742
 31
0.0
  0
LINE
  5
11A
330
10C
100
AcDbEntity
  8
文本层
370
    -2
 62
     0
100
AcDbLine
 10
170.2599876185132
 20
181.4818763905482
 30
0.0
 11
170.2599876185132
 21
164.7286262679742
 31
0.0
  0
LINE
  5
11B
330
10C
100
AcDbEntity
  8
文本层
370
    -2
 62
     0
100
AcDbLine
 10
23.75998761851315
 20
167.2286262679742
 30
0.0
 11
166.7599876185132
 21
167.2286262679742
 31
0.0
  0
SOLID
  5
11C
330
10C
100
AcDbEntity
  8
文本层
 62
     0
100
AcDbTrace
 38
0.0
 10
23.75998761851315
 20
167.8119596013075
 11
23.75998761851315
 21
166.6452929346408
 12
20.25998761851315
 22
167.2286262679742
 13
20.25998761851315
 23
167.2286262679742
  0
SOLID
  5
11D
330
10C
100
AcDbEntity
  8
文本层
 62
     0
100
AcDbTrace
 38
0.0
 10
166.7599876185132
 20
167.8119596013075
 11
166.7599876185132
 21
166.6452929346408
 12
170.2599876185132
 22
167.2286262679742
 13
170.2599876185132
 23
167.2286262679742
  0
MTEXT
  5
11E
330
10C
100
AcDbEntity
  8
文本层
 62
     0
100
AcDbMText
 10
95.25998761851318
 20
170.3536262679742
 30
0.0
210
0.0
220
0.0
230
1.0
 11
1.0
 21
0.0
 31
0.0
 40
5.0
 41
0.0
 71
     5
 72
     1
  1
150
  7
数字与字母
 73
     1
 44
1.0
  0
POINT
  5
11F
330
10C
100
AcDbEntity
  8
Defpoints
 62
     0
100
AcDbPoint
 10
20.25998761851315
 20
188.629043032558
 30
0.0
 50
0.0
  0
POINT
  5
120
330
10C
100
AcDbEntity
  8
Defpoints
 62
     0
100
AcDbPoint
 10
170.2599876185132
 20
181.4818763905482
 30
0.0
 50
0.0
  0
POINT
  5
121
330
10C
100
AcDbEntity
  8
Defpoints
 62
     0
100
AcDbPoint
 10
170.2599876185132
 20
167.2286262679742
 30
0.0
 50
0.0
  0
ENDBLK
  5
117
330
10C
100
AcDbEntity
  8
0
100
AcDbBlockEnd
  0
BLOCK
  5
12E
330
124
100
AcDbEntity
  8
0
100
AcDbBlockBegin
  2
*D3
 70
     1
 10
0.0
 20
0.0
 30
0.0
  3
*D3
  1

  0
LINE
  5
131
330
124
100
AcDbEntity
  8
文本层
370
    -2
 62
     0
100
AcDbLine
 10
20.25998761851315
 20
147.2909969994826
 30
0.0
 11
-6.401884709506915
 21
147.2909969994826
 31
0.0
  0
LINE
  5
132
330
124
100
AcDbEntity
  8
文本层
370
    -2
 62
     0
100
AcDbLine
 10
20.25998761851315
 20
79.79099699948256
 30
0.0
 11
-6.40188470950693
 21
79.79099699948256
 31
0.0
  0
LINE
  5
133
330
124
100
AcDbEntity
  8
文本层
370
    -2
 62
     0
100
AcDbLine
 10
-3.901884709506918
 20
143.7909969994826
 30
0.0
 11
-3.901884709506931
 21
83.29099699948256
 31
0.0
  0
SOLID
  5
134
330
124
100
AcDbEntity
  8
文本层
 62
     0
100
AcDbTrace
 38
0.0
 10
-4.485218042840251
 20
143.7909969994826
 11
-3.318551376173585
 21
143.7909969994826
 12
-3.901884709506917
 22
147.2909969994826
 13
-3.901884709506917
 23
147.2909969994826
  0
SOLID
  5
135
330
124
100
AcDbEntity
  8
文本层
 62
     0
100
AcDbTrace
 38
0.0
 10
-4.485218042840264
 20
83.29099699948256
 11
-3.318551376173598
 21
83.29099699948256
 12
-3.901884709506932
 22
79.79099699948256
 13
-3.901884709506932
 23
79.79099699948256
  0
MTEXT
  5
136
330
124
100
AcDbEntity
  8
文本层
 62
     0
100
AcDbMText
 10
-7.026884709506944
 20
113.5409969994826
 30
0.0
210
0.0
220
0.0
230
1.0
 11
6.123031769111886E-17
 21
1.0
 31
0.0
 40
5.0
 41
0.0
 71
     5
 72
     1
  1
67.5
  7
数字与字母
 73
     1
 44
1.0
  0
POINT
  5
137
330
124
100
AcDbEntity
  8
Defpoints
 62
     0
100
AcDbPoint
 10
20.25998761851315
 20
147.2909969994826
 30
0.0
 50
0.0
  0
POINT
  5
138
330
124
100
AcDbEntity
  8
Defpoints
 62
     0
100
AcDbPoint
 10
20.25998761851315
 20
79.79099699948256
 30
0.0
 50
0.0
  0
POINT
  5
139
330
124
100
AcDbEntity
  8
Defpoints
 62
     0
100
AcDbPoint
 10
-3.901884709506932
 20
79.79099699948256
 30
0.0
 50
0.0
  0
ENDBLK
  5
12F
330
124
100
AcDbEntity
  8
0
100
AcDbBlockEnd
  0
BLOCK
  5
148
330
13C
100
AcDbEntity
  8
0
100
AcDbBlockBegin
  2
*D4
 70
     1
 10
0.0
 20
0.0
 30
0.0
  3
*D4
  1

  0
LINE
  5
25A
330
13C
100
AcDbEntity
  8
文本层
370
    -2
 62
     0
100
AcDbLine
 10
134.932504770924
 20
147.2909969994826
 30
0.0
 11
139.7746336793657
 21
147.2909969994826
 31
0.0
  0
LINE
  5
25B
330
13C
100
AcDbEntity
  8
文本层
370
    -2
 62
     0
100
AcDbLine
 10
134.932504770924
 20
135.7909969994826
 30
0.0
 11
139.7746336793657
 21
135.7909969994826
 31
0.0
  0
LINE
  5
25C
330
13C
100
AcDbEntity
  8
文本层
370
    -2
 62
     0
100
AcDbLine
 10
137.2746336793657
 20
143.7909969994826
 30
0.0
 11
137.2746336793657
 21
139.2909969994826
 31
0.0
  0
LINE
  5
25D
330
13C
100
AcDbEntity
  8
文本层
370
    -2
 62
     0
100
AcDbLine
 10
137.2746336793657
 20
135.7909969994826
 30
0.0
 11
137.2746336793657
 21
124.1075319666713
 31
0.0
  0
LINE
  5
25E
330
13C
100
AcDbEntity
  8
文本层
370
    -2
 62
     0
100
AcDbLine
 10
137.2746336793657
 20
124.1075319666713
 30
0.0
 11
126.1496336793657
 21
124.1075319666713
 31
0.0
  0
SOLID
  5
25F
330
13C
100
AcDbEntity
  8
文本层
 62
     0
100
AcDbTrace
 38
0.0
 10
136.6913003460324
 20
143.7909969994826
 11
137.8579670126991
 21
143.7909969994826
 12
137.2746336793657
 22
147.2909969994826
 13
137.2746336793657
 23
147.2909969994826
  0
SOLID
  5
260
330
13C
100
AcDbEntity
  8
文本层
 62
     0
100
AcDbTrace
 38
0.0
 10
136.6913003460324
 20
139.2909969994826
 11
137.8579670126991
 21
139.2909969994826
 12
137.2746336793657
 22
135.7909969994826
 13
137.2746336793657
 23
135.7909969994826
  0
MTEXT
  5
261
330
13C
100
AcDbEntity
  8
文本层
 62
     0
100
AcDbMText
 10
131.3996336793657
 20
127.2325319666713
 30
0.0
210
0.0
220
0.0
230
1.0
 11
1.0
 21
0.0
 31
0.0
 40
5.0
 41
0.0
 71
     5
 72
     1
  1
11.5
  7
数字与字母
 73
     1
 44
1.0
  0
POINT
  5
262
330
13C
100
AcDbEntity
  8
Defpoints
 62
     0
100
AcDbPoint
 10
134.932504770924
 20
147.2909969994826
 30
0.0
 50
0.0
  0
POINT
  5
263
330
13C
100
AcDbEntity
  8
Defpoints
 62
     0
100
AcDbPoint
 10
134.932504770924
 20
135.7909969994826
 30
0.0
 50
0.0
  0
POINT
  5
264
330
13C
100
AcDbEntity
  8
Defpoints
 62
     0
100
AcDbPoint
 10
137.2746336793657
 20
135.7909969994826
 30
0.0
 50
0.0
  0
ENDBLK
  5
149
330
13C
100
AcDbEntity
  8
0
100
AcDbBlockEnd
  0
BLOCK
  5
162
330
158
100
AcDbEntity
  8
0
100
AcDbBlockBegin
  2
*D5
 70
     1
 10
0.0
 20
0.0
 30
0.0
  3
*D5
  1

  0
LINE
  5
165
330
158
100
AcDbEntity
  8
文本层
370
    -2
 62
     0
100
AcDbLine
 10
312.4046101583443
 20
190.6741965976722
 30
0.0
 11
330.2957302027261
 21
159.6858676764888
 31
0.0
  0
LINE
  5
166
330
158
100
AcDbEntity
  8
文本层
370
    -2
 62
     0
100
AcDbLine
 10
373.026388423255
 20
225.6741965976721
 30
0.0
 11
390.9175084676368
 21
194.6858676764888
 31
0.0
  0
LINE
  5
167
330
158
100
AcDbEntity
  8
文本层
370
    -2
 62
     0
100
AcDbLine
 10
332.0768191159717
 20
163.6009311859499
 30
0.0
 11
386.6364195543913
 21
195.1009311859499
 31
0.0
  0
SOLID
  5
168
330
158
100
AcDbEntity
  8
文本层
 62
     0
100
AcDbTrace
 38
0.0
 10
331.785152449305
 20
164.1061126714908
 11
332.3684857826383
 21
163.095749700409
 12
329.0457302027261
 22
161.8509311859499
 13
329.0457302027261
 23
161.8509311859499
  0
SOLID
  5
169
330
158
100
AcDbEntity
  8
文本层
 62
     0
100
AcDbTrace
 38
0.0
 10
386.3447528877246
 20
195.6061126714908
 11
386.928086221058
 21
194.595749700409
 12
389.6675084676368
 22
196.8509311859499
 13
389.6675084676368
 23
196.8509311859499
  0
MTEXT
  5
16A
330
158
100
AcDbEntity
  8
文本层
 62
     0
100
AcDbMText
 10
357.7941193351814
 20
182.0572605727763
 30
0.0
210
0.0
220
0.0
230
1.0
 11
0.8660254037844387
 21
0.5000000000000003
 31
0.0
 40
5.0
 41
0.0
 71
     5
 72
     1
  1
70
  7
数字与字母
 73
     1
 44
1.0
  0
POINT
  5
16B
330
158
100
AcDbEntity
  8
Defpoints
 62
     0
100
AcDbPoint
 10
312.4046101583443
 20
190.6741965976722
 30
0.0
 50
0.0
  0
POINT
  5
16C
330
158
100
AcDbEntity
  8
Defpoints
 62
     0
100
AcDbPoint
 10
373.026388423255
 20
225.6741965976721
 30
0.0
 50
0.0
  0
POINT
  5
16D
330
158
100
AcDbEntity
  8
Defpoints
 62
     0
100
AcDbPoint
 10
389.6675084676368
 20
196.8509311859499
 30
0.0
 50
0.0
  0
ENDBLK
  5
163
330
158
100
AcDbEntity
  8
0
100
AcDbBlockEnd
  0
BLOCK
  5
17A
330
170
100
AcDbEntity
  8
0
100
AcDbBlockBegin
  2
*D6
 70
     1
 10
0.0
 20
0.0
 30
0.0
  3
*D6
  1

  0
LINE
  5
17D
330
170
100
AcDbEntity
  8
文本层
370
    -2
 62
     0
100
AcDbLine
 10
308.9142291015776
 20
166.7197139257679
 30
0.0
 11
326.0906683444402
 21
136.96924846401
 31
0.0
  0
LINE
  5
17E
330
170
100
AcDbEntity
  8
文本层
370
    -2
 62
     0
100
AcDbLine
 10
395.5167694800215
 20
216.7197139257679
 30
0.0
 11
412.6932087228842
 21
186.96924846401
 31
0.0
  0
LINE
  5
17F
330
170
100
AcDbEntity
  8
文本层
370
    -2
 62
     0
100
AcDbLine
 10
327.8717572576858
 20
140.884311973471
 30
0.0
 11
408.4121198096386
 21
187.3843119734711
 31
0.0
  0
SOLID
  5
180
330
170
100
AcDbEntity
  8
文本层
 62
     0
100
AcDbTrace
 38
0.0
 10
327.5800905910191
 20
141.389493459012
 11
328.1634239243524
 21
140.3791304879301
 12
324.8406683444402
 22
139.134311973471
 13
324.8406683444402
 23
139.134311973471
  0
SOLID
  5
181
330
170
100
AcDbEntity
  8
文本层
 62
     0
100
AcDbTrace
 38
0.0
 10
408.1204531429719
 20
187.889493459012
 11
408.7037864763052
 21
186.8791304879302
 12
411.4432087228842
 22
189.1343119734711
 13
411.4432087228842
 23
189.1343119734711
  0
MTEXT
  5
182
330
170
100
AcDbEntity
  8
文本层
 62
     0
100
AcDbMText
 10
366.5794385336621
 20
166.8406413602974
 30
0.0
210
0.0
220
0.0
230
1.0
 11
0.8660254037844388
 21
0.5000000000000001
 31
0.0
 40
5.0
 41
0.0
 71
     5
 72
     1
  1
100
  7
数字与字母
 73
     1
 44
1.0
  0
POINT
  5
183
330
170
100
AcDbEntity
  8
Defpoints
 62
     0
100
AcDbPoint
 10
308.9142291015776
 20
166.7197139257679
 30
0.0
 50
0.0
  0
POINT
  5
184
330
170
100
AcDbEntity
  8
Defpoints
 62
     0
100
AcDbPoint
 10
395.5167694800215
 20
216.7197139257679
 30
0.0
 50
0.0
  0
POINT
  5
185
330
170
100
AcDbEntity
  8
Defpoints
 62
     0
100
AcDbPoint
 10
411.4432087228842
 20
189.1343119734711
 30
0.0
 50
0.0
  0
ENDBLK
  5
17B
330
170
100
AcDbEntity
  8
0
100
AcDbBlockEnd
  0
BLOCK
  5
192
330
188
100
AcDbEntity
  8
0
100
AcDbBlockBegin
  2
*D7
 70
     1
 10
0.0
 20
0.0
 30
0.0
  3
*D7
  1

  0
LINE
  5
195
330
188
100
AcDbEntity
  8
文本层
370
    -2
 62
     0
100
AcDbLine
 10
369.2763884232549
 20
232.1693871260554
 30
0.0
 11
397.9351512331845
 21
248.7155315490099
 31
0.0
  0
LINE
  5
196
330
188
100
AcDbEntity
  8
文本层
370
    -2
 62
     0
100
AcDbLine
 10
382.5263884232548
 20
209.2197139257678
 30
0.0
 11
411.1851512331844
 21
225.7658583487223
 31
0.0
  0
LINE
  5
197
330
188
100
AcDbEntity
  8
文本层
370
    -2
 62
     0
100
AcDbLine
 10
397.5200877237233
 20
244.4344426357644
 30
0.0
 11
407.2700877237233
 21
227.5469472619679
 31
0.0
  0
SOLID
  5
198
330
188
100
AcDbEntity
  8
文本层
 62
     0
100
AcDbTrace
 38
0.0
 10
398.0252692092643
 20
244.726109302431
 11
397.0149062381824
 21
244.1427759690977
 12
395.7700877237233
 22
247.4655315490099
 13
395.7700877237233
 23
247.4655315490099
  0
SOLID
  5
199
330
188
100
AcDbEntity
  8
文本层
 62
     0
100
AcDbTrace
 38
0.0
 10
407.7752692092642
 20
227.8386139286345
 11
406.7649062381824
 21
227.2552805953012
 12
409.0200877237233
 22
224.5158583487223
 13
409.0200877237233
 23
224.5158583487223
  0
MTEXT
  5
19A
330
188
100
AcDbEntity
  8
文本层
 62
     0
100
AcDbMText
 10
405.1014171105498
 20
237.5531949488661
 30
0.0
210
0.0
220
0.0
230
1.0
 11
0.4999999999999995
 21
-0.8660254037844389
 31
0.0
 40
5.0
 41
0.0
 71
     5
 72
     1
  1
26.5
  7
数字与字母
 73
     1
 44
1.0
  0
POINT
  5
19B
330
188
100
AcDbEntity
  8
Defpoints
 62
     0
100
AcDbPoint
 10
369.2763884232549
 20
232.1693871260554
 30
0.0
 50
0.0
  0
POINT
  5
19C
330
188
100
AcDbEntity
  8
Defpoints
 62
     0
100
AcDbPoint
 10
382.5263884232548
 20
209.2197139257678
 30
0.0
 50
0.0
  0
POINT
  5
19D
330
188
100
AcDbEntity
  8
Defpoints
 62
     0
100
AcDbPoint
 10
409.0200877237233
 20
224.5158583487223
 30
0.0
 50
0.0
  0
ENDBLK
  5
193
330
188
100
AcDbEntity
  8
0
100
AcDbBlockEnd
  0
BLOCK
  5
1AA
330
1A0
100
AcDbEntity
  8
0
100
AcDbBlockBegin
  2
*D8
 70
     1
 10
0.0
 20
0.0
 30
0.0
  3
*D8
  1

  0
LINE
  5
1AD
330
1A0
100
AcDbEntity
  8
文本层
370
    -2
 62
     0
100
AcDbLine
 10
356.276388423255
 20
254.6860476244509
 30
0.0
 11
400.3888778818462
 21
280.1544052879929
 31
0.0
  0
LINE
  5
1AE
330
1A0
100
AcDbEntity
  8
文本层
370
    -2
 62
     0
100
AcDbLine
 10
382.5263884232548
 20
209.2197139257678
 30
0.0
 11
426.638877881846
 21
234.6880715893099
 31
0.0
  0
LINE
  5
1AF
330
1A0
100
AcDbEntity
  8
文本层
370
    -2
 62
     0
100
AcDbLine
 10
399.9738143723851
 20
275.8733163747474
 30
0.0
 11
422.7238143723849
 21
236.4691605025554
 31
0.0
  0
SOLID
  5
1B0
330
1A0
100
AcDbEntity
  8
文本层
 62
     0
100
AcDbTrace
 38
0.0
 10
400.478995857926
 20
276.164983041414
 11
399.4686328868442
 21
275.5816497080807
 12
398.2238143723851
 22
278.9044052879929
 13
398.2238143723851
 23
278.9044052879929
  0
SOLID
  5
1B1
330
1A0
100
AcDbEntity
  8
文本层
 62
     0
100
AcDbTrace
 38
0.0
 10
423.2289958579258
 20
236.7608271692221
 11
422.218632886844
 21
236.1774938358888
 12
424.4738143723849
 22
233.4380715893099
 13
424.4738143723849
 23
233.4380715893099
  0
MTEXT
  5
1B2
330
1A0
100
AcDbEntity
  8
文本层
 62
     0
100
AcDbMText
 10
414.0551437592114
 20
257.7337384386514
 30
0.0
210
0.0
220
0.0
230
1.0
 11
0.499999999999998
 21
-0.8660254037844398
 31
0.0
 40
5.0
 41
0.0
 71
     5
 72
     1
  1
52.5
  7
数字与字母
 73
     1
 44
1.0
  0
POINT
  5
1B3
330
1A0
100
AcDbEntity
  8
Defpoints
 62
     0
100
AcDbPoint
 10
356.276388423255
 20
254.6860476244509
 30
0.0
 50
0.0
  0
POINT
  5
1B4
330
1A0
100
AcDbEntity
  8
Defpoints
 62
     0
100
AcDbPoint
 10
382.5263884232548
 20
209.2197139257678
 30
0.0
 50
0.0
  0
POINT
  5
1B5
330
1A0
100
AcDbEntity
  8
Defpoints
 62
     0
100
AcDbPoint
 10
424.4738143723849
 20
233.4380715893099
 30
0.0
 50
0.0
  0
ENDBLK
  5
1AB
330
1A0
100
AcDbEntity
  8
0
100
AcDbBlockEnd
  0
BLOCK
  5
1C4
330
1B8
100
AcDbEntity
  8
0
100
AcDbBlockBegin
  2
*D9
 70
     1
 10
0.0
 20
0.0
 30
0.0
  3
*D9
  1

  0
LINE
  5
1C7
330
1B8
100
AcDbEntity
  8
文本层
370
    -2
 62
     0
100
AcDbLine
 10
251.112527996957
 20
248.588335176079
 30
0.0
 11
266.542820762955
 21
257.4970188582027
 31
0.0
  0
LINE
  5
1C8
330
1B8
100
AcDbEntity
  8
文本层
370
    -2
 62
     0
100
AcDbLine
 10
256.862527996957
 20
238.629043032558
 30
0.0
 11
272.292820762955
 21
247.5377267146816
 31
0.0
  0
LINE
  5
1C9
330
1B8
100
AcDbEntity
  8
文本层
370
    -2
 62
     0
100
AcDbLine
 10
266.1277572534939
 20
253.2159299449572
 30
0.0
 11
268.3777572534939
 21
249.3188156279272
 31
0.0
  0
LINE
  5
1CA
330
1B8
100
AcDbEntity
  8
文本层
370
    -2
 62
     0
100
AcDbLine
 10
270.1277572534939
 20
246.2877267146816
 30
0.0
 11
271.8777572534939
 21
243.2566378014361
 31
0.0
  0
LINE
  5
1CB
330
1B8
100
AcDbEntity
  8
文本层
370
    -2
 62
     0
100
AcDbLine
 10
271.8777572534939
 20
243.2566378014361
 30
0.0
 11
283.0027572534939
 21
243.2566378014361
 31
0.0
  0
SOLID
  5
1CC
330
1B8
100
AcDbEntity
  8
文本层
 62
     0
100
AcDbTrace
 38
0.0
 10
266.6329387390348
 20
253.5075966116238
 11
265.622575767953
 21
252.9242632782905
 12
264.377757253494
 22
256.2470188582027
 13
264.377757253494
 23
256.2470188582027
  0
SOLID
  5
1CD
330
1B8
100
AcDbEntity
  8
文本层
 62
     0
100
AcDbTrace
 38
0.0
 10
268.8829387390348
 20
249.6104822945939
 11
267.872575767953
 21
249.0271489612605
 12
270.1277572534939
 22
246.2877267146816
 13
270.1277572534939
 23
246.2877267146816
  0
MTEXT
  5
1CE
330
1B8
100
AcDbEntity
  8
文本层
 62
     0
100
AcDbMText
 10
277.7527572534939
 20
246.3816378014361
 30
0.0
210
0.0
220
0.0
230
1.0
 11
1.0
 21
0.0
 31
0.0
 40
5.0
 41
0.0
 71
     5
 72
     1
  1
11.5
  7
数字与字母
 73
     1
 44
1.0
  0
POINT
  5
1CF
330
1B8
100
AcDbEntity
  8
Defpoints
 62
     0
100
AcDbPoint
 10
251.112527996957
 20
248.588335176079
 30
0.0
 50
0.0
  0
POINT
  5
1D0
330
1B8
100
AcDbEntity
  8
Defpoints
 62
     0
100
AcDbPoint
 10
256.862527996957
 20
238.629043032558
 30
0.0
 50
0.0
  0
POINT
  5
1D1
330
1B8
100
AcDbEntity
  8
Defpoints
 62
     0
100
AcDbPoint
 10
270.1277572534939
 20
246.2877267146816
 30
0.0
 50
0.0
  0
ENDBLK
  5
1C5
330
1B8
100
AcDbEntity
  8
0
100
AcDbBlockEnd
  0
BLOCK
  5
1DC
330
1D4
100
AcDbEntity
  8
0
100
AcDbBlockBegin
  2
*D10
 70
     1
 10
0.0
 20
0.0
 30
0.0
  3
*D10
  1

  0
LINE
  5
1DF
330
1D4
100
AcDbEntity
  8
文本层
370
    -2
 62
     0
100
AcDbLine
 10
99.72930880128877
 20
200.9511717590964
 30
0.0
 11
89.60430880128878
 21
200.9511717590964
 31
0.0
  0
LINE
  5
1E0
330
1D4
100
AcDbEntity
  8
文本层
370
    -2
 62
     0
100
AcDbLine
 10
89.60430880128878
 20
200.9511717590964
 30
0.0
 11
67.13487807176013
 21
211.0469541257386
 31
0.0
  0
MTEXT
  5
1E1
330
1D4
100
AcDbEntity
  8
文本层
 62
     0
100
AcDbMText
 10
94.97930880128877
 20
204.0761717590964
 30
0.0
210
0.0
220
0.0
230
1.0
 11
1.0
 21
0.0
 31
0.0
 40
5.0
 41
0.0
 71
     5
 72
     1
  1
R15
  7
数字与字母
 73
     1
 44
1.0
  0
LINE
  5
1E2
330
1D4
100
AcDbEntity
  8
文本层
370
    -2
 62
     0
100
AcDbLine
 10
50.25998761851321
 20
218.6290430325581
 30
0.0
 11
63.94233122925395
 21
212.4814033783801
 31
0.0
  0
SOLID
  5
1E3
330
1D4
100
AcDbEntity
  8
文本层
 62
     0
100
AcDbTrace
 38
0.0
 10
67.37395294720038
 20
211.5790452661563
 11
66.89580319631986
 21
210.5148629853209
 12
63.94233122925395
 22
212.4814033783801
 13
63.94233122925395
 23
212.4814033783801
  0
POINT
  5
1E4
330
1D4
100
AcDbEntity
  8
Defpoints
 62
     0
100
AcDbPoint
 10
63.94233122925395
 20
212.4814033783801
 30
0.0
 50
0.0
  0
POINT
  5
1E5
330
1D4
100
AcDbEntity
  8
Defpoints
 62
     0
100
AcDbPoint
 10
50.25998761851321
 20
218.6290430325581
 30
0.0
 50
0.0
  0
ENDBLK
  5
1DD
330
1D4
100
AcDbEntity
  8
0
100
AcDbBlockEnd
  0
BLOCK
  5
1F0
330
1E8
100
AcDbEntity
  8
0
100
AcDbBlockBegin
  2
*D11
 70
     1
 10
0.0
 20
0.0
 30
0.0
  3
*D11
  1

  0
LINE
  5
1F3
330
1E8
100
AcDbEntity
  8
文本层
370
    -2
 62
     0
100
AcDbLine
 10
101.6295413432928
 20
234.6486345969034
 30
0.0
 11
91.50454134329281
 21
234.6486345969034
 31
0.0
  0
LINE
  5
1F4
330
1E8
100
AcDbEntity
  8
文本层
370
    -2
 62
     0
100
AcDbLine
 10
91.50454134329281
 20
234.6486345969034
 30
0.0
 11
81.48724554283648
 21
230.7578666576171
 31
0.0
  0
MTEXT
  5
1F5
330
1E8
100
AcDbEntity
  8
文本层
 62
     0
100
AcDbMText
 10
96.87954134329284
 20
237.7736345969034
 30
0.0
210
0.0
220
0.0
230
1.0
 11
1.0
 21
0.0
 31
0.0
 40
5.0
 41
0.0
 71
     5
 72
     1
  1
R30
  7
数字与字母
 73
     1
 44
1.0
  0
LINE
  5
1F6
330
1E8
100
AcDbEntity
  8
文本层
370
    -2
 62
     0
100
AcDbLine
 10
50.25998761851319
 20
218.6290430325582
 30
0.0
 11
78.22469620745942
 21
229.4906761296259
 31
0.0
  0
SOLID
  5
1F7
330
1E8
100
AcDbEntity
  8
文本层
 62
     0
100
AcDbTrace
 38
0.0
 10
81.27604712150459
 20
231.30162488018
 11
81.69844396416835
 21
230.2141084350543
 12
78.22469620745942
 22
229.4906761296259
 13
78.22469620745942
 23
229.4906761296259
  0
POINT
  5
1F8
330
1E8
100
AcDbEntity
  8
Defpoints
 62
     0
100
AcDbPoint
 10
78.22469620745942
 20
229.4906761296259
 30
0.0
 50
0.0
  0
POINT
  5
1F9
330
1E8
100
AcDbEntity
  8
Defpoints
 62
     0
100
AcDbPoint
 10
50.25998761851319
 20
218.6290430325582
 30
0.0
 50
0.0
  0
ENDBLK
  5
1F1
330
1E8
100
AcDbEntity
  8
0
100
AcDbBlockEnd
  0
BLOCK
  5
204
330
1FC
100
AcDbEntity
  8
0
100
AcDbBlockBegin
  2
*D12
 70
     1
 10
0.0
 20
0.0
 30
0.0
  3
*D12
  1

  0
LINE
  5
207
330
1FC
100
AcDbEntity
  8
文本层
370
    -2
 62
     0
100
AcDbLine
 10
283.6479028016624
 20
74.37235038407948
 30
0.0
 11
271.6895694683289
 21
74.3723503840795
 31
0.0
  0
LINE
  5
208
330
1FC
100
AcDbEntity
  8
文本层
370
    -2
 62
     0
100
AcDbLine
 10
271.6895694683289
 20
74.3723503840795
 30
0.0
 11
258.8836101640363
 21
81.78200486228296
 31
0.0
  0
MTEXT
  5
209
330
1FC
100
AcDbEntity
  8
文本层
 62
     0
100
AcDbMText
 10
277.9812361349958
 20
77.4973503840795
 30
0.0
210
0.0
220
0.0
230
1.0
 11
1.0
 21
0.0
 31
0.0
 40
5.0
 41
0.0
 71
     5
 72
     1
  1
R7.5
  7
数字与字母
 73
     1
 44
1.0
  0
LINE
  5
20A
330
1FC
100
AcDbEntity
  8
文本层
370
    -2
 62
     0
100
AcDbLine
 10
249.3625279969568
 20
87.29099699948239
 30
0.0
 11
255.8541749290565
 21
83.53486599684639
 31
0.0
  0
SOLID
  5
20B
330
1FC
100
AcDbEntity
  8
文本层
 62
     0
100
AcDbTrace
 38
0.0
 10
259.1757536864635
 20
82.2869107347796
 11
258.591466641609
 21
81.27709898978632
 12
255.8541749290565
 22
83.53486599684639
 13
255.8541749290565
 23
83.53486599684639
  0
POINT
  5
20C
330
1FC
100
AcDbEntity
  8
Defpoints
 62
     0
100
AcDbPoint
 10
255.8541749290565
 20
83.53486599684639
 30
0.0
 50
0.0
  0
POINT
  5
20D
330
1FC
100
AcDbEntity
  8
Defpoints
 62
     0
100
AcDbPoint
 10
249.3625279969568
 20
87.29099699948239
 30
0.0
 50
0.0
  0
ENDBLK
  5
205
330
1FC
100
AcDbEntity
  8
0
100
AcDbBlockEnd
  0
BLOCK
  5
218
330
210
100
AcDbEntity
  8
0
100
AcDbBlockBegin
  2
*D13
 70
     1
 10
0.0
 20
0.0
 30
0.0
  3
*D13
  1

  0
LINE
  5
21B
330
210
100
AcDbEntity
  8
文本层
370
    -2
 62
     0
100
AcDbLine
 10
267.9353703862533
 20
211.5217149371623
 30
0.0
 11
279.8937037195867
 21
211.5217149371623
 31
0.0
  0
LINE
  5
21C
330
210
100
AcDbEntity
  8
文本层
370
    -2
 62
     0
100
AcDbLine
 10
279.8937037195867
 20
211.5217149371623
 30
0.0
 11
287.441180042372
 21
215.4313953789625
 31
0.0
  0
MTEXT
  5
21D
330
210
100
AcDbEntity
  8
文本层
 62
     0
100
AcDbMText
 10
273.60203705292
 20
214.6467149371623
 30
0.0
210
0.0
220
0.0
230
1.0
 11
1.0
 21
0.0
 31
0.0
 40
5.0
 41
0.0
 71
     5
 72
     1
  1
R5.7
  7
数字与字母
 73
     1
 44
1.0
  0
LINE
  5
21E
330
210
100
AcDbEntity
  8
文本层
370
    -2
 62
     0
100
AcDbLine
 10
295.6546101583439
 20
219.6860476244507
 30
0.0
 11
290.5489644105777
 21
217.0412637961743
 31
0.0
  0
SOLID
  5
21F
330
210
100
AcDbEntity
  8
文本层
 62
     0
100
AcDbTrace
 38
0.0
 10
287.1728686395033
 20
215.9493594403301
 11
287.7094914452406
 21
214.9134313175949
 12
290.5489644105777
 22
217.0412637961743
 13
290.5489644105777
 23
217.0412637961743
  0
POINT
  5
220
330
210
100
AcDbEntity
  8
Defpoints
 62
     0
100
AcDbPoint
 10
290.5489644105777
 20
217.0412637961743
 30
0.0
 50
0.0
  0
POINT
  5
221
330
210
100
AcDbEntity
  8
Defpoints
 62
     0
100
AcDbPoint
 10
295.6546101583439
 20
219.6860476244507
 30
0.0
 50
0.0
  0
ENDBLK
  5
219
330
210
100
AcDbEntity
  8
0
100
AcDbBlockEnd
  0
BLOCK
  5
22C
330
224
100
AcDbEntity
  8
0
100
AcDbBlockBegin
  2
*D14
 70
     1
 10
0.0
 20
0.0
 30
0.0
  3
*D14
  1

  0
LINE
  5
265
330
224
100
AcDbEntity
  8
文本层
370
    -2
 62
     0
100
AcDbLine
 10
253.1795061285118
 20
225.7379511289967
 30
0.0
 11
271.3045061285118
 21
225.7379511289966
 31
0.0
  0
LINE
  5
266
330
224
100
AcDbEntity
  8
文本层
370
    -2
 62
     0
100
AcDbLine
 10
271.3045061285118
 20
225.7379511289966
 30
0.0
 11
277.7008108932221
 21
224.1482322853207
 31
0.0
  0
MTEXT
  5
267
330
224
100
AcDbEntity
  8
文本层
 62
     0
100
AcDbMText
 10
261.9295061285118
 20
228.8629511289966
 30
0.0
210
0.0
220
0.0
230
1.0
 11
1.0
 21
0.0
 31
0.0
 40
5.0
 41
0.0
 71
     5
 72
     1
  1
{\f??|b0|i0|c0|p54;2-}R15
  7
数字与字母
 73
     1
 44
1.0
  0
LINE
  5
268
330
224
100
AcDbEntity
  8
文本层
370
    -2
 62
     0
100
AcDbLine
 10
295.6546101583442
 20
219.686047624451
 30
0.0
 11
281.097475619056
 21
223.3040351873183
 31
0.0
  0
SOLID
  5
269
330
224
100
AcDbEntity
  8
文本层
 62
     0
100
AcDbTrace
 38
0.0
 10
277.8415104095558
 20
224.7143430729597
 11
277.5601113768884
 21
223.5821214976818
 12
281.097475619056
 22
223.3040351873183
 13
281.097475619056
 23
223.3040351873183
  0
POINT
  5
26A
330
224
100
AcDbEntity
  8
Defpoints
 62
     0
100
AcDbPoint
 10
281.097475619056
 20
223.3040351873183
 30
0.0
 50
0.0
  0
POINT
  5
26B
330
224
100
AcDbEntity
  8
Defpoints
 62
     0
100
AcDbPoint
 10
295.6546101583442
 20
219.686047624451
 30
0.0
 50
0.0
  0
ENDBLK
  5
22D
330
224
100
AcDbEntity
  8
0
100
AcDbBlockEnd
  0
BLOCK
  5
242
330
238
100
AcDbEntity
  8
0
100
AcDbBlockBegin
  2
*D15
 70
     1
 10
0.0
 20
0.0
 30
0.0
  3
*D15
  1

  0
LINE
  5
26D
330
238
100
AcDbEntity
  8
文本层
370
    -2
 62
     0
100
AcDbLine
 10
246.2902748687014
 20
200.7168714540562
 30
0.0
 11
269.2486082020347
 21
200.7168714540562
 31
0.0
  0
LINE
  5
26E
330
238
100
AcDbEntity
  8
文本层
370
    -2
 62
     0
100
AcDbLine
 10
269.2486082020347
 20
200.7168714540562
 30
0.0
 11
288.1421013364468
 21
214.2893160950052
 31
0.0
  0
LINE
  5
26F
330
238
100
AcDbEntity
  8
文本层
370
    -2
 62
     0
100
AcDbLine
 10
303.1671189802418
 20
225.0827791538965
 30
0.0
 11
306.0096898858246
 21
227.1247856785515
 31
0.0
  0
MTEXT
  5
270
330
238
100
AcDbEntity
  8
文本层
 62
     0
100
AcDbMText
 10
257.456941535368
 20
203.8418714540562
 30
0.0
210
0.0
220
0.0
230
1.0
 11
1.0
 21
0.0
 31
0.0
 40
5.0
 41
0.0
 71
     5
 72
     1
  1
{\f??|b0|i0|c0|p54;4-}\U+220511.5
  7
数字与字母
 73
     1
 44
1.0
  0
LINE
  5
271
330
238
100
AcDbEntity
  8
文本层
370
    -2
 62
     0
100
AcDbLine
 10
300.324548074659
 20
223.0407726292414
 30
0.0
 11
290.9846722420296
 21
216.3313226196603
 31
0.0
  0
SOLID
  5
272
330
238
100
AcDbEntity
  8
文本层
 62
     0
100
AcDbTrace
 38
0.0
 10
302.826784559466
 20
225.5565409714936
 11
303.5074534010176
 21
224.6090173362993
 12
300.324548074659
 22
223.0407726292414
 13
300.324548074659
 23
223.0407726292414
  0
SOLID
  5
273
330
238
100
AcDbEntity
  8
文本层
 62
     0
100
AcDbTrace
 38
0.0
 10
287.801766915671
 20
214.7630779126024
 11
288.4824357572226
 21
213.8155542774081
 12
290.9846722420296
 22
216.3313226196603
 13
290.9846722420296
 23
216.3313226196603
  0
POINT
  5
274
330
238
100
AcDbEntity
  8
Defpoints
 62
     0
100
AcDbPoint
 10
290.9846722420296
 20
216.3313226196603
 30
0.0
 50
0.0
  0
POINT
  5
275
330
238
100
AcDbEntity
  8
Defpoints
 62
     0
100
AcDbPoint
 10
300.324548074659
 20
223.0407726292414
 30
0.0
 50
0.0
  0
ENDBLK
  5
243
330
238
100
AcDbEntity
  8
0
100
AcDbBlockEnd
  0
BLOCK
  5
283
330
277
100
AcDbEntity
  8
0
100
AcDbBlockBegin
  2
*D16
 70
     1
 10
0.0
 20
0.0
 30
0.0
  3
*D16
  1

  0
LINE
  5
286
330
277
100
AcDbEntity
  8
文本层
370
    -2
 62
     0
100
AcDbLine
 10
170.2599876185131
 20
188.629043032558
 30
0.0
 11
208.8912370418044
 21
188.629043032558
 31
0.0
  0
ARC
  5
287
330
277
100
AcDbEntity
  8
文本层
370
    -2
 62
     0
100
AcDbCircle
 10
170.2599876185131
 20
188.6290430325579
 30
0.0
 40
36.13124942329127
100
AcDbArc
 50
5.55236036482315
 51
9.923249094113075
  0
ARC
  5
288
330
277
100
AcDbEntity
  8
文本层
370
    -2
 62
     0
100
AcDbCircle
 10
170.2599876185131
 20
188.6290430325579
 30
0.0
 40
36.13124942329127
100
AcDbArc
 50
20.20067608380399
 51
24.44763963517679
  0
SOLID
  5
289
330
277
100
AcDbEntity
  8
文本层
 62
     0
100
AcDbTrace
 38
0.0
 10
206.8043649046907
 20
192.1531887654533
 11
205.6390674852173
 21
192.0966818165032
 12
206.3912370418044
 22
188.6290430325579
 13
206.3912370418044
 23
188.6290430325579
  0
SOLID
  5
28A
330
277
100
AcDbEntity
  8
文本层
 62
     0
100
AcDbTrace
 38
0.0
 10
202.6329889375701
 20
203.3155196878652
 11
203.6704195802736
 21
203.8492319443207
 12
201.5505674895552
 22
206.6946677442035
 13
201.5505674895552
 23
206.6946677442035
  0
MTEXT
  5
28B
330
277
100
AcDbEntity
  8
文本层
 62
     0
100
AcDbMText
 10
205.1600945725622
 20
197.9804985066552
 30
0.0
210
0.0
220
0.0
230
1.0
 11
1.0
 21
0.0
 31
0.0
 40
5.0
 41
0.0
 71
     5
 72
     1
  1
30°
  7
数字与字母
 73
     1
 44
1.0
  0
POINT
  5
28C
330
277
100
AcDbEntity
  8
Defpoints
 62
     0
100
AcDbPoint
 10
205.8423221765882
 20
194.9031686517418
 30
0.0
 50
0.0
  0
POINT
  5
28D
330
277
100
AcDbEntity
  8
Defpoints
 62
     0
100
AcDbPoint
 10
50.25998761851316
 20
188.6290430325579
 30
0.0
 50
0.0
  0
POINT
  5
28E
330
277
100
AcDbEntity
  8
Defpoints
 62
     0
100
AcDbPoint
 10
170.2599876185131
 20
188.629043032558
 30
0.0
 50
0.0
  0
POINT
  5
28F
330
277
100
AcDbEntity
  8
Defpoints
 62
     0
100
AcDbPoint
 10
256.862527996957
 20
238.629043032558
 30
0.0
 50
0.0
  0
POINT
  5
290
330
277
100
AcDbEntity
  8
Defpoints
 62
     0
100
AcDbPoint
 10
170.2599876185131
 20
188.629043032558
 30
0.0
 50
0.0
  0
ENDBLK
  5
284
330
277
100
AcDbEntity
  8
0
100
AcDbBlockEnd
  0
ENDSEC
  0
SECTION
  2
ENTITIES
  0
LWPOLYLINE
  5
AB
102
{ACAD_REACTORS
330
122
330
1E6
330
1FA
102
}
330
1F
100
AcDbEntity
  8
轮廓线
100
AcDbPolyline
 90
        9
 70
     0
 43
0.0
 10
50.25998761851315
 20
188.629043032558
 42
0.0
 10
20.25998761851315
 20
188.629043032558
 42
0.0
 10
20.25998761851315
 20
203.629043032558
 42
0.0
 10
50.25998761851315
 20
203.629043032558
 42
0.9999999999999999
 10
50.25998761851315
 20
233.629043032558
 42
0.0
 10
20.25998761851315
 20
233.629043032558
 42
0.0
 10
20.25998761851315
 20
248.629043032558
 42
0.0
 10
50.25998761851315
 20
248.629043032558
 42
-1.0
 10
50.25998761851315
 20
188.629043032558
 42
0.9999999999999999
  0
LWPOLYLINE
  5
AD
330
1F
100
AcDbEntity
  8
轮廓线
100
AcDbPolyline
 90
        2
 70
     0
 43
0.0
 10
50.25998761851315
 20
248.629043032558
 10
251.1125279969571
 20
248.5883351760791
  0
LINE
  5
AE
102
{ACAD_REACTORS
330
291
102
}
330
1F
100
AcDbEntity
  8
轮廓线
100
AcDbLine
 10
50.25998761851316
 20
188.629043032558
 30
0.0
 11
170.2599876185132
 21
188.629043032558
 31
0.0
  0
LINE
  5
AF
102
{ACAD_REACTORS
330
1D2
330
291
102
}
330
1F
100
AcDbEntity
  8
轮廓线
100
AcDbLine
 10
170.2599876185132
 20
188.629043032558
 30
0.0
 11
256.8625279969571
 21
238.629043032558
 31
0.0
  0
LINE
  5
B0
330
1F
100
AcDbEntity
  8
轮廓线
100
AcDbLine
 10
256.8625279969571
 20
238.629043032558
 30
0.0
 11
251.1125279969571
 21
248.5883351760791
 31
0.0
  0
LINE
  5
B1
102
{ACAD_REACTORS
330
1D2
102
}
330
1F
100
AcDbEntity
  8
轮廓线
100
AcDbLine
 10
251.1125279969571
 20
248.5883351760791
 30
0.0
 11
164.5099876185132
 21
198.5883351760791
 31
0.0
  0
LINE
  5
B2
102
{ACAD_REACTORS
330
10A
102
}
330
1F
100
AcDbEntity
  8
轮廓线
100
AcDbLine
 10
164.5099876185132
 20
198.5883351760791
 30
0.0
 11
170.2599876185132
 21
188.629043032558
 31
0.0
  0
LINE
  5
B3
330
1F
100
AcDbEntity
  8
隐藏线
100
AcDbLine
 10
177.5003686752798
 20
206.0883351760791
 30
0.0
 11
183.2503686752798
 21
196.129043032558
 31
0.0
  0
LINE
  5
B4
330
1F
100
AcDbEntity
  8
隐藏线
100
AcDbLine
 10
243.8721469401905
 20
231.129043032558
 30
0.0
 11
238.1221469401905
 21
241.0883351760791
 31
0.0
  0
LINE
  5
B5
330
1F
100
AcDbEntity
  8
点划线
100
AcDbLine
 10
180.0016653821349
 20
213.3059621950012
 30
0.0
 11
190.7516653821349
 21
194.6864160136358
 31
0.0
  0
LINE
  5
B6
330
1F
100
AcDbEntity
  8
隐藏线
100
AcDbLine
 10
187.50296208899
 20
211.863335176079
 30
0.0
 11
193.25296208899
 21
201.904043032558
 31
0.0
  0
LINE
  5
B7
330
1F
100
AcDbEntity
  8
点划线
100
AcDbLine
 10
241.3708502333353
 20
223.9114160136358
 30
0.0
 11
230.6208502333353
 21
242.5309621950013
 31
0.0
  0
LINE
  5
B8
330
1F
100
AcDbEntity
  8
隐藏线
100
AcDbLine
 10
233.8695535264802
 20
225.354043032558
 30
0.0
 11
228.1195535264802
 21
235.3133351760791
 31
0.0
  0
LINE
  5
B9
330
1F
100
AcDbEntity
  8
轮廓线
100
AcDbLine
 10
20.25998761851315
 20
147.2909969994826
 30
0.0
 11
20.25998761851315
 21
79.79099699948256
 31
0.0
  0
LINE
  5
BB
330
1F
100
AcDbEntity
  8
轮廓线
100
AcDbLine
 10
80.25998761851315
 20
135.7909969994826
 30
0.0
 11
80.25998761851315
 21
79.79099699948256
 31
0.0
  0
LINE
  5
BC
330
1F
100
AcDbEntity
  8
轮廓线
100
AcDbLine
 10
164.5099876185132
 20
135.7909969994826
 30
0.0
 11
164.5099876185132
 21
87.29099699948256
 31
0.0
  0
LINE
  5
BD
330
1F
100
AcDbEntity
  8
轮廓线
100
AcDbLine
 10
251.1125279969571
 20
147.2909969994826
 30
0.0
 11
251.1125279969571
 21
87.29099699948256
 31
0.0
  0
LINE
  5
BE
330
1F
100
AcDbEntity
  8
轮廓线
100
AcDbLine
 10
256.8625279969571
 20
147.2909969994826
 30
0.0
 11
256.8625279969571
 21
87.29099699948254
 31
0.0
  0
LINE
  5
BF
102
{ACAD_REACTORS
330
13A
330
156
102
}
330
1F
100
AcDbEntity
  8
轮廓线
100
AcDbLine
 10
20.25998761851315
 20
147.2909969994826
 30
0.0
 11
256.8625279969571
 21
147.2909969994826
 31
0.0
  0
LINE
  5
C0
102
{ACAD_REACTORS
330
156
102
}
330
1F
100
AcDbEntity
  8
轮廓线
100
AcDbLine
 10
50.25998761851315
 20
135.7909969994826
 30
0.0
 11
251.1125279969571
 21
135.7909969994826
 31
0.0
  0
LINE
  5
C1
102
{ACAD_REACTORS
330
13A
102
}
330
1F
100
AcDbEntity
  8
轮廓线
100
AcDbLine
 10
20.25998761851315
 20
79.79099699948256
 30
0.0
 11
80.25998761851315
 21
79.79099699948256
 31
0.0
  0
LINE
  5
C2
330
1F
100
AcDbEntity
  8
轮廓线
100
AcDbLine
 10
172.0099876185132
 20
79.79099699948256
 30
0.0
 11
249.3625279969571
 21
79.79099699948254
 31
0.0
  0
ARC
  5
C3
330
1F
100
AcDbEntity
  8
轮廓线
100
AcDbCircle
 10
243.6125279969571
 20
87.29099699948256
 30
0.0
 40
7.5
100
AcDbArc
 50
270.0
 51
0.0
  0
ARC
  5
C4
102
{ACAD_REACTORS
330
20E
102
}
330
1F
100
AcDbEntity
  8
轮廓线
100
AcDbCircle
 10
249.3625279969571
 20
87.29099699948254
 30
0.0
 40
7.5
100
AcDbArc
 50
270.0
 51
0.0
  0
ARC
  5
C5
330
1F
100
AcDbEntity
  8
轮廓线
100
AcDbCircle
 10
172.0099876185132
 20
87.29099699948256
 30
0.0
 40
7.5
100
AcDbArc
 50
180.0
 51
270.0
  0
LINE
  5
C6
330
1F
100
AcDbEntity
  8
点划线
100
AcDbLine
 10
174.5003686752798
 20
94.79099699948256
 30
0.0
 11
190.50296208899
 21
94.79099699948256
 31
0.0
  0
ELLIPSE
  5
CB
330
1F
100
AcDbEntity
  8
轮廓线
100
AcDbEllipse
 10
182.5016653821349
 20
94.79099699948256
 30
0.0
 11
1.640928159047309E-14
 21
5.775
 31
0.0
210
0.0
220
0.0
230
1.0
 40
0.8660254037844379
 41
0.0
 42
6.283185307179586
  0
ELLIPSE
  5
CD
330
1F
100
AcDbEntity
  8
轮廓线
100
AcDbEllipse
 10
188.2516653821349
 20
94.79099699948256
 30
0.0
 11
1.640928159047309E-14
 21
5.775
 31
0.0
210
0.0
220
0.0
230
1.0
 40
0.8660254037844379
 41
0.6124219412894699
 42
2.529170712300335
  0
LINE
  5
D0
330
1F
100
AcDbEntity
  8
点划线
100
AcDbLine
 10
182.5016653821349
 20
86.01599699948255
 30
0.0
 11
182.5016653821349
 21
103.5659969994826
 31
0.0
  0
LINE
  5
D3
330
1F
100
AcDbEntity
  8
点划线
100
AcDbLine
 10
182.5016653821349
 20
112.0159969994826
 30
0.0
 11
182.5016653821349
 21
129.5659969994826
 31
0.0
  0
LINE
  5
D4
330
1F
100
AcDbEntity
  8
点划线
100
AcDbLine
 10
174.5003686752798
 20
120.7909969994826
 30
0.0
 11
190.50296208899
 21
120.7909969994826
 31
0.0
  0
ELLIPSE
  5
D5
330
1F
100
AcDbEntity
  8
轮廓线
100
AcDbEllipse
 10
188.2516653821349
 20
120.7909969994826
 30
0.0
 11
1.640928159047309E-14
 21
5.775
 31
0.0
210
0.0
220
0.0
230
1.0
 40
0.8660254037844379
 41
0.6124219412894699
 42
2.529170712300335
  0
ELLIPSE
  5
D6
330
1F
100
AcDbEntity
  8
轮廓线
100
AcDbEllipse
 10
182.5016653821349
 20
120.7909969994826
 30
0.0
 11
1.640928159047309E-14
 21
5.775
 31
0.0
210
0.0
220
0.0
230
1.0
 40
0.8660254037844379
 41
0.0
 42
6.283185307179586
  0
LINE
  5
D8
330
1F
100
AcDbEntity
  8
点划线
100
AcDbLine
 10
225.1195535264802
 20
120.7909969994826
 30
0.0
 11
241.1221469401905
 21
120.7909969994826
 31
0.0
  0
ELLIPSE
  5
D9
330
1F
100
AcDbEntity
  8
轮廓线
100
AcDbEllipse
 10
233.1208502333353
 20
120.7909969994826
 30
0.0
 11
1.640928159047309E-14
 21
5.775
 31
0.0
210
0.0
220
0.0
230
1.0
 40
0.8660254037844379
 41
0.0
 42
6.283185307179586
  0
ELLIPSE
  5
DA
330
1F
100
AcDbEntity
  8
轮廓线
100
AcDbEllipse
 10
238.8708502333353
 20
120.7909969994826
 30
0.0
 11
1.640928159047309E-14
 21
5.775
 31
0.0
210
0.0
220
0.0
230
1.0
 40
0.8660254037844379
 41
0.6124219412894699
 42
2.529170712300335
  0
LINE
  5
DB
330
1F
100
AcDbEntity
  8
点划线
100
AcDbLine
 10
233.1208502333353
 20
112.0159969994826
 30
0.0
 11
233.1208502333353
 21
129.5659969994826
 31
0.0
  0
LINE
  5
DC
330
1F
100
AcDbEntity
  8
点划线
100
AcDbLine
 10
233.1208502333353
 20
86.01599699948255
 30
0.0
 11
233.1208502333353
 21
103.5659969994826
 31
0.0
  0
LINE
  5
DD
330
1F
100
AcDbEntity
  8
点划线
100
AcDbLine
 10
225.1195535264802
 20
94.79099699948256
 30
0.0
 11
241.1221469401905
 21
94.79099699948256
 31
0.0
  0
ELLIPSE
  5
DE
330
1F
100
AcDbEntity
  8
轮廓线
100
AcDbEllipse
 10
238.8708502333353
 20
94.79099699948256
 30
0.0
 11
1.640928159047309E-14
 21
5.775
 31
0.0
210
0.0
220
0.0
230
1.0
 40
0.8660254037844379
 41
0.6124219412894699
 42
2.529170712300335
  0
ELLIPSE
  5
DF
330
1F
100
AcDbEntity
  8
轮廓线
100
AcDbEllipse
 10
233.1208502333353
 20
94.79099699948256
 30
0.0
 11
1.640928159047309E-14
 21
5.775
 31
0.0
210
0.0
220
0.0
230
1.0
 40
0.8660254037844379
 41
0.0
 42
6.283185307179586
  0
LWPOLYLINE
  5
E2
102
{ACAD_REACTORS
330
186
330
19E
330
236
102
}
330
1F
100
AcDbEntity
  8
轮廓线
100
AcDbPolyline
 90
        6
 70
     1
 43
0.0
 10
308.9142291015776
 20
166.7197139257679
 42
0.0
 10
395.5167694800215
 20
216.7197139257679
 42
0.0
 10
369.2667694800215
 20
262.1860476244509
 42
0.414213562373095
 10
348.7763884232549
 20
267.6764286812175
 42
0.0
 10
288.1546101583442
 20
232.6764286812175
 42
0.414213562373095
 10
282.6642291015776
 20
212.1860476244509
 42
0.0
  0
CIRCLE
  5
E3
102
{ACAD_REACTORS
330
24E
102
}
330
1F
100
AcDbEntity
  8
轮廓线
100
AcDbCircle
 10
295.6546101583443
 20
219.6860476244509
 30
0.0
 40
5.75
  0
CIRCLE
  5
E5
330
1F
100
AcDbEntity
  8
轮廓线
100
AcDbCircle
 10
308.6546101583443
 20
197.1693871260555
 30
0.0
 40
5.75
  0
CIRCLE
  5
E6
102
{ACAD_REACTORS
330
1B6
102
}
330
1F
100
AcDbEntity
  8
轮廓线
100
AcDbCircle
 10
356.276388423255
 20
254.6860476244509
 30
0.0
 40
5.75
  0
CIRCLE
  5
E7
102
{ACAD_REACTORS
330
19E
102
}
330
1F
100
AcDbEntity
  8
轮廓线
100
AcDbCircle
 10
369.276388423255
 20
232.1693871260555
 30
0.0
 40
5.75
  0
LINE
  5
E8
330
1F
100
AcDbEntity
  8
点划线
100
AcDbLine
 10
12.75998761851315
 20
218.629043032558
 30
0.0
 11
87.75998761851315
 21
218.629043032558
 31
0.0
  0
LINE
  5
E9
102
{ACAD_REACTORS
330
10A
102
}
330
1F
100
AcDbEntity
  8
点划线
100
AcDbLine
 10
50.25998761851316
 20
181.129043032558
 30
0.0
 11
50.25998761851316
 21
256.129043032558
 31
0.0
  0
LINE
  5
EA
330
1F
100
AcDbEntity
  8
点划线
100
AcDbLine
 10
289.1802160054281
 20
215.8584344945943
 30
0.0
 11
302.1705970621946
 21
223.3584344945943
 31
0.0
  0
LINE
  5
EB
330
1F
100
AcDbEntity
  8
点划线
100
AcDbLine
 10
299.4254065338114
 20
213.113243966211
 30
0.0
 11
291.9254065338114
 21
226.1036250229776
 31
0.0
  0
LINE
  5
EC
102
{ACAD_REACTORS
330
16E
102
}
330
1F
100
AcDbEntity
  8
点划线
100
AcDbLine
 10
312.4046101583443
 20
190.6741965976722
 30
0.0
 11
304.9046101583443
 21
203.6645776544387
 31
0.0
  0
LINE
  5
ED
330
1F
100
AcDbEntity
  8
点划线
100
AcDbLine
 10
302.159419629961
 20
193.4193871260554
 30
0.0
 11
315.1498006867275
 21
200.9193871260554
 31
0.0
  0
LINE
  5
EE
102
{ACAD_REACTORS
330
16E
102
}
330
1F
100
AcDbEntity
  8
点划线
100
AcDbLine
 10
373.026388423255
 20
225.6741965976722
 30
0.0
 11
365.526388423255
 21
238.6645776544387
 31
0.0
  0
LINE
  5
EF
330
1F
100
AcDbEntity
  8
点划线
100
AcDbLine
 10
362.7811978948716
 20
228.4193871260554
 30
0.0
 11
375.7715789516382
 21
235.9193871260554
 31
0.0
  0
LINE
  5
F0
330
1F
100
AcDbEntity
  8
点划线
100
AcDbLine
 10
360.026388423255
 20
248.1908570960676
 30
0.0
 11
352.526388423255
 21
261.1812381528341
 31
0.0
  0
LINE
  5
F1
330
1F
100
AcDbEntity
  8
点划线
100
AcDbLine
 10
349.7811978948716
 20
250.9360476244508
 30
0.0
 11
362.7715789516382
 21
258.4360476244508
 31
0.0
  0
DIMENSION
  5
F2
102
{ACAD_REACTORS
330
10A
102
}
102
{ACAD_XDICTIONARY
360
100
102
}
330
1F
100
AcDbEntity
  8
文本层
100
AcDbDimension
  2
*D1
 10
170.2599876185132
 20
176.8277537015368
 30
0.0
 11
110.2599876185132
 21
179.9527537015368
 31
0.0
 70
    32
 71
     5
 42
120.0000000000001
  3
机械标注
100
AcDbAlignedDimension
 13
50.25998761851316
 23
181.129043032558
 33
0.0
 14
170.2599876185132
 24
188.629043032558
 34
0.0
 52
0.0
100
AcDbRotatedDimension
  0
DIMENSION
  5
10B
102
{ACAD_REACTORS
330
122
102
}
102
{ACAD_XDICTIONARY
360
118
102
}
330
1F
100
AcDbEntity
  8
文本层
100
AcDbDimension
  2
*D2
 10
170.2599876185132
 20
167.2286262679742
 30
0.0
 11
95.25998761851318
 21
170.3536262679742
 31
0.0
 70
    32
 71
     5
 42
150.0000000000001
  3
机械标注
100
AcDbAlignedDimension
 13
20.25998761851315
 23
188.629043032558
 33
0.0
 14
170.2599876185132
 24
181.4818763905482
 34
0.0
 52
0.0
100
AcDbRotatedDimension
  0
DIMENSION
  5
123
102
{ACAD_REACTORS
330
13A
102
}
102
{ACAD_XDICTIONARY
360
130
102
}
330
1F
100
AcDbEntity
  8
文本层
100
AcDbDimension
  2
*D3
 10
-3.901884709506932
 20
79.79099699948256
 30
0.0
 11
-7.026884709506944
 21
113.5409969994826
 31
0.0
 70
    32
 71
     5
 42
67.5
  3
机械标注
100
AcDbAlignedDimension
 13
20.25998761851315
 23
147.2909969994826
 33
0.0
 14
20.25998761851315
 24
79.79099699948256
 34
0.0
 52
0.0
 50
90.0
100
AcDbRotatedDimension
  0
DIMENSION
  5
13B
102
{ACAD_REACTORS
330
156
102
}
102
{ACAD_XDICTIONARY
360
14A
102
}
330
1F
100
AcDbEntity
  8
文本层
100
AcDbDimension
  2
*D4
 10
137.2746336793657
 20
135.7909969994826
 30
0.0
 11
131.3996336793657
 21
124.1075319666713
 31
0.0
 70
   160
 71
     5
 42
11.5
  3
机械标注
100
AcDbAlignedDimension
 13
134.932504770924
 23
147.2909969994826
 33
0.0
 14
134.932504770924
 24
135.7909969994826
 34
0.0
 52
0.0
 50
90.0
100
AcDbRotatedDimension
  0
DIMENSION
  5
157
102
{ACAD_REACTORS
330
16E
102
}
102
{ACAD_XDICTIONARY
360
164
102
}
330
1F
100
AcDbEntity
  8
文本层
100
AcDbDimension
  2
*D5
 10
389.6675084676368
 20
196.8509311859499
 30
0.0
 11
357.7941193351814
 21
182.0572605727763
 31
0.0
 70
    33
 71
     5
 42
70.0
  3
机械标注
100
AcDbAlignedDimension
 13
312.4046101583443
 23
190.6741965976722
 33
0.0
 14
373.026388423255
 24
225.6741965976722
 34
0.0
 50
0.0
  0
DIMENSION
  5
16F
102
{ACAD_REACTORS
330
186
102
}
102
{ACAD_XDICTIONARY
360
17C
102
}
330
1F
100
AcDbEntity
  8
文本层
100
AcDbDimension
  2
*D6
 10
411.4432087228842
 20
189.1343119734711
 30
0.0
 11
366.5794385336621
 21
166.8406413602974
 31
0.0
 70
    33
 71
     5
 42
100.0000000000001
  3
机械标注
100
AcDbAlignedDimension
 13
308.9142291015776
 23
166.7197139257679
 33
0.0
 14
395.5167694800215
 24
216.7197139257679
 34
0.0
 50
0.0
  0
DIMENSION
  5
187
102
{ACAD_REACTORS
330
19E
102
}
102
{ACAD_XDICTIONARY
360
194
102
}
330
1F
100
AcDbEntity
  8
文本层
100
AcDbDimension
  2
*D7
 10
409.0200877237233
 20
224.5158583487223
 30
0.0
 11
405.1014171105498
 21
237.5531949488661
 31
0.0
 70
    33
 71
     5
 42
26.49999999999991
  3
机械标注
100
AcDbAlignedDimension
 13
369.276388423255
 23
232.1693871260555
 33
0.0
 14
382.5263884232549
 24
209.2197139257679
 34
0.0
 50
0.0
  0
DIMENSION
  5
19F
102
{ACAD_REACTORS
330
1B6
102
}
102
{ACAD_XDICTIONARY
360
1AC
102
}
330
1F
100
AcDbEntity
  8
文本层
100
AcDbDimension
  2
*D8
 10
424.4738143723849
 20
233.4380715893099
 30
0.0
 11
414.0551437592114
 21
257.7337384386514
 31
0.0
 70
    33
 71
     5
 42
52.49999999999989
  3
机械标注
100
AcDbAlignedDimension
 13
356.276388423255
 23
254.6860476244509
 33
0.0
 14
382.5263884232548
 24
209.2197139257678
 34
0.0
 50
0.0
  0
DIMENSION
  5
1B7
102
{ACAD_REACTORS
330
1D2
102
}
102
{ACAD_XDICTIONARY
360
1C6
102
}
330
1F
100
AcDbEntity
  8
文本层
100
AcDbDimension
  2
*D9
 10
270.1277572534939
 20
246.2877267146816
 30
0.0
 11
277.7527572534939
 21
246.3816378014361
 31
0.0
 70
    33
 71
     5
 42
11.5
  3
机械标注
100
AcDbAlignedDimension
 13
251.1125279969571
 23
248.5883351760791
 33
0.0
 14
256.8625279969571
 24
238.629043032558
 34
0.0
 50
0.0
  0
DIMENSION
  5
1D3
102
{ACAD_REACTORS
330
1E6
102
}
102
{ACAD_XDICTIONARY
360
1DE
102
}
330
1F
100
AcDbEntity
  8
文本层
100
AcDbDimension
  2
*D10
 10
50.25998761851321
 20
218.6290430325581
 30
0.0
 11
94.97930880128877
 21
200.9511717590964
 31
0.0
 70
   164
 71
     5
 42
14.99999999999999
  3
机械标注
100
AcDbRadialDimension
 15
63.94233122925395
 25
212.4814033783801
 35
0.0
 40
0.0
1001
ACAD
1000
DSTYLE
1002
{
1070
   288
1070
     1
1002
}
  0
DIMENSION
  5
1E7
102
{ACAD_REACTORS
330
1FA
102
}
102
{ACAD_XDICTIONARY
360
1F2
102
}
330
1F
100
AcDbEntity
  8
文本层
100
AcDbDimension
  2
*D11
 10
50.25998761851319
 20
218.6290430325582
 30
0.0
 11
96.87954134329284
 21
234.6486345969034
 31
0.0
 70
   164
 71
     5
 42
29.99999999999997
  3
机械标注
100
AcDbRadialDimension
 15
78.22469620745942
 25
229.4906761296259
 35
0.0
 40
0.0
1001
ACAD
1000
DSTYLE
1002
{
1070
   288
1070
     1
1002
}
  0
DIMENSION
  5
1FB
102
{ACAD_REACTORS
330
20E
102
}
102
{ACAD_XDICTIONARY
360
206
102
}
330
1F
100
AcDbEntity
  8
文本层
100
AcDbDimension
  2
*D12
 10
249.3625279969568
 20
87.29099699948239
 30
0.0
 11
277.9812361349958
 21
74.3723503840795
 31
0.0
 70
   164
 71
     5
 42
7.500000000000199
  3
机械标注
100
AcDbRadialDimension
 15
255.8541749290565
 25
83.53486599684639
 35
0.0
 40
0.0
1001
ACAD
1000
DSTYLE
1002
{
1070
   288
1070
     1
1002
}
  0
DIMENSION
  5
223
102
{ACAD_REACTORS
330
236
102
}
102
{ACAD_XDICTIONARY
360
22E
102
}
330
1F
100
AcDbEntity
  8
文本层
100
AcDbDimension
  2
*D14
 10
295.6546101583442
 20
219.686047624451
 30
0.0
 11
271.3045061285118
 21
225.7379511289966
 31
0.0
 70
   164
  1
{\f??|b0|i0|c0|p54;2-}<>
 71
     5
 42
15.00000000000003
  3
机械标注
100
AcDbRadialDimension
 15
281.097475619056
 25
223.3040351873183
 35
0.0
 40
0.0
1001
ACAD
1000
DSTYLE
1002
{
1070
   288
1070
     1
1002
}
  0
DIMENSION
  5
237
102
{ACAD_REACTORS
330
24E
102
}
102
{ACAD_XDICTIONARY
360
244
102
}
330
1F
100
AcDbEntity
  8
文本层
100
AcDbDimension
  2
*D15
 10
300.324548074659
 20
223.0407726292414
 30
0.0
 11
257.456941535368
 21
200.7168714540562
 31
0.0
 70
   163
  1
{\f??|b0|i0|c0|p54;4-}<>
 71
     5
 42
11.50000000000006
  3
机械标注
100
AcDbDiametricDimension
 15
290.9846722420296
 25
216.3313226196603
 35
0.0
 40
0.0
1001
ACAD
1000
DSTYLE
1002
{
1070
   288
1070
     1
1002
}
  0
DIMENSION
  5
276
102
{ACAD_REACTORS
330
291
102
}
102
{ACAD_XDICTIONARY
360
285
102
}
330
1F
100
AcDbEntity
  8
文本层
100
AcDbDimension
  2
*D16
 10
205.8423221765882
 20
194.9031686517418
 30
0.0
 11
205.1600945725622
 21
197.9804985066552
 31
0.0
 70
    34
 71
     5
 42
0.5235987755982974
  3
机械标注$2
100
AcDb2LineAngularDimension
 13
170.2599876185132
 23
188.629043032558
 33
0.0
 14
256.8625279969571
 24
238.629043032558
 34
0.0
 15
50.25998761851316
 25
188.629043032558
 35
0.0
 16
170.2599876185132
 26
188.629043032558
 36
0.0
  0
VIEWPORT
  5
296
330
5E
100
AcDbEntity
 67
     1
  8
0
100
AcDbViewport
 10
133.3499908447266
 20
101.5999970436096
 30
0.0
 40
420.6540395483951
 41
228.4221935424805
 68
     1
 69
     1
 12
133.3499908447266
 22
101.5999970436096
 13
0.0
 23
0.0
 14
10.0
 24
10.0
 15
10.0
 25
10.0
 16
0.0
 26
0.0
 36
1.0
 17
0.0
 27
0.0
 37
0.0
 42
50.0
 43
0.0
 44
0.0
 45
228.4221935424805
 50
0.0
 51
0.0
 72
   100
 90
    32800
  1

281
     0
 71
     1
 74
     0
110
0.0
120
0.0
130
0.0
111
1.0
121
0.0
131
0.0
112
0.0
122
1.0
132
0.0
 79
     0
146
0.0
348
0
340
0
345
0
346
0
  0
VIEWPORT
  5
298
330
5E
100
AcDbEntity
 67
     1
  8
文本层
100
AcDbViewport
 10
133.3499939441681
 20
101.5999939441681
 30
0.0
 40
213.3599903106689
 41
162.5599903106689
 68
     1
 69
     2
 12
219.6691773114799
 22
177.2633778360362
 13
0.0
 23
0.0
 14
10.0
 24
10.0
 15
10.0
 25
10.0
 16
0.0
 26
0.0
 36
1.0
 17
0.0
 27
0.0
 37
0.0
 42
50.0
 43
0.0
 44
0.0
 45
353.8872142128816
 50
0.0
 51
0.0
 72
   100
 90
    32864
  1

281
     0
 71
     1
 74
     0
110
0.0
120
0.0
130
0.0
111
1.0
121
0.0
131
0.0
112
0.0
122
1.0
132
0.0
 79
     0
146
0.0
348
0
340
0
345
0
346
0
  0
ENDSEC
  0
SECTION
  2
OBJECTS
  0
DICTIONARY
  5
C
330
0
100
AcDbDictionary
281
     1
  3
ACAD_GROUP
350
D
  3
ACAD_LAYOUT
350
1A
  3
ACAD_MLINESTYLE
350
17
  3
ACAD_PLOTSETTINGS
350
19
  3
ACAD_PLOTSTYLENAME
350
E
  3
AcadDim
350
26C
  3
AcDbVariableDictionary
350
67
  0
DICTIONARY
  5
D
102
{ACAD_REACTORS
330
C
102
}
330
C
100
AcDbDictionary
281
     1
  0
ACDBDICTIONARYWDFLT
  5
E
102
{ACAD_REACTORS
330
C
102
}
330
C
100
AcDbDictionary
281
     1
  3
Normal
350
F
100
AcDbDictionaryWithDefault
340
F
  0
ACDBPLACEHOLDER
  5
F
102
{ACAD_REACTORS
330
E
102
}
330
E
  0
DICTIONARY
  5
17
102
{ACAD_REACTORS
330
C
102
}
330
C
100
AcDbDictionary
281
     1
  3
Standard
350
18
  0
MLINESTYLE
  5
18
102
{ACAD_REACTORS
330
17
102
}
330
17
100
AcDbMlineStyle
  2
STANDARD
 70
     0
  3

 62
   256
 51
90.0
 52
90.0
 71
     2
 49
0.5
 62
   256
  6
BYLAYER
 49
-0.5
 62
   256
  6
BYLAYER
  0
DICTIONARY
  5
19
102
{ACAD_REACTORS
330
C
102
}
330
C
100
AcDbDictionary
281
     1
  0
DICTIONARY
  5
1A
102
{ACAD_REACTORS
330
C
102
}
330
C
100
AcDbDictionary
281
     1
  3
Model
350
22
  3
布局1
350
5A
  3
布局2
350
5F
  0
LAYOUT
  5
22
102
{ACAD_REACTORS
330
1A
102
}
330
1A
100
AcDbPlotSettings
  1

  2
none_device
  4
ANSI_A_(8.50_x_11.00_Inches)
  6

 40
6.349999904632568
 41
19.04999923706055
 42
6.350006103515625
 43
19.04998779296875
 44
215.8999938964844
 45
279.3999938964844
 46
0.0
 47
0.0
 48
0.0
 49
0.0
140
0.0
141
0.0
  6

142
1.0
143
57.07986212157697
 70
 11952
 72
     0
 73
     1
 74
     0
  7

 75
     0
147
0.01751931351673652
148
-2282.040442273535
149
2.561166666666503
100
AcDbLayout
  1
Model
 70
     1
 71
     0
 10
0.0
 20
0.0
 11
12.0
 21
9.0
 12
0.0
 22
0.0
 32
0.0
 14
0.0
 24
0.0
 34
0.0
 15
0.0
 25
0.0
 35
0.0
146
0.0
 13
0.0
 23
0.0
 33
0.0
 16
1.0
 26
0.0
 36
0.0
 17
0.0
 27
1.0
 37
0.0
 76
     0
330
1F
  0
LAYOUT
  5
5A
102
{ACAD_REACTORS
330
1A
102
}
330
1A
100
AcDbPlotSettings
  1

  2
none_device
  4
Letter_(8.50_x_11.00_Inches)
  6

 40
6.349999904632568
 41
6.349999904632568
 42
6.350006103515625
 43
6.350006103515625
 44
215.8999938964844
 45
279.3999938964844
 46
0.0
 47
0.0
 48
0.0
 49
0.0
140
0.0
141
0.0
  6

142
1.0
143
1.0
 70
   688
 72
     1
 73
     1
 74
     5
  7

 75
    16
147
1.0
148
0.0
149
0.0
100
AcDbLayout
  1
布局1
 70
     1
 71
     1
 10
-6.350006103515625
 20
-6.349999904632568
 11
273.0499877929688
 21
209.5499939918518
 12
0.0
 22
0.0
 32
0.0
 14
26.66999878883362
 24
20.31999878883363
 34
0.0
 15
240.0299890995026
 25
182.8799890995026
 35
0.0
146
0.0
 13
0.0
 23
0.0
 33
0.0
 16
1.0
 26
0.0
 36
0.0
 17
0.0
 27
1.0
 37
0.0
 76
     0
330
59
331
76
  0
LAYOUT
  5
5F
102
{ACAD_REACTORS
330
1A
102
}
330
1A
100
AcDbPlotSettings
  1

  2
none_device
  4
Letter_(8.50_x_11.00_Inches)
  6

 40
6.349999904632568
 41
6.349999904632568
 42
6.350006103515625
 43
6.350006103515625
 44
215.8999938964844
 45
279.3999938964844
 46
0.0
 47
0.0
 48
0.0
 49
0.0
140
0.0
141
0.0
  6

142
1.0
143
1.0
 70
   688
 72
     1
 73
     1
 74
     5
  7

 75
    16
147
1.0
148
0.0
149
0.0
100
AcDbLayout
  1
布局2
 70
     1
 71
     2
 10
-6.350006103515625
 20
-6.349999904632568
 11
273.0499877929688
 21
209.5499939918518
 12
0.0
 22
0.0
 32
0.0
 14
26.66999878883362
 24
20.31999878883363
 34
0.0
 15
240.0299890995026
 25
182.8799890995026
 35
0.0
146
0.0
 13
0.0
 23
0.0
 33
0.0
 16
1.0
 26
0.0
 36
0.0
 17
0.0
 27
1.0
 37
0.0
 76
     0
330
5E
331
296
  0
DICTIONARY
  5
67
102
{ACAD_REACTORS
330
C
102
}
330
C
100
AcDbDictionary
281
     1
  3
DIMASSOC
350
68
  3
HIDETEXT
350
6C
  0
DICTIONARYVAR
  5
68
102
{ACAD_REACTORS
330
67
102
}
330
67
100
DictionaryVariables
280
     0
  1
2
  0
DICTIONARYVAR
  5
6C
102
{ACAD_REACTORS
330
67
102
}
330
67
100
DictionaryVariables
280
     0
  1
1
  0
DICTIONARY
  5
100
330
F2
100
AcDbDictionary
280
     1
281
     1
  3
ACAD_DIMASSOC
360
10A
  0
DICTIONARY
  5
118
330
10B
100
AcDbDictionary
280
     1
281
     1
  3
ACAD_DIMASSOC
360
122
  0
DICTIONARY
  5
130
330
123
100
AcDbDictionary
280
     1
281
     1
  3
ACAD_DIMASSOC
360
13A
  0
DICTIONARY
  5
14A
330
13B
100
AcDbDictionary
280
     1
281
     1
  3
ACAD_DIMASSOC
360
156
  0
DICTIONARY
  5
164
330
157
100
AcDbDictionary
280
     1
281
     1
  3
ACAD_DIMASSOC
360
16E
  0
DICTIONARY
  5
17C
330
16F
100
AcDbDictionary
280
     1
281
     1
  3
ACAD_DIMASSOC
360
186
  0
DICTIONARY
  5
194
330
187
100
AcDbDictionary
280
     1
281
     1
  3
ACAD_DIMASSOC
360
19E
  0
DICTIONARY
  5
1AC
330
19F
100
AcDbDictionary
280
     1
281
     1
  3
ACAD_DIMASSOC
360
1B6
  0
DICTIONARY
  5
1C6
330
1B7
100
AcDbDictionary
280
     1
281
     1
  3
ACAD_DIMASSOC
360
1D2
  0
DICTIONARY
  5
1DE
330
1D3
100
AcDbDictionary
280
     1
281
     1
  3
ACAD_DIMASSOC
360
1E6
  0
DICTIONARY
  5
1F2
330
1E7
100
AcDbDictionary
280
     1
281
     1
  3
ACAD_DIMASSOC
360
1FA
  0
DICTIONARY
  5
206
330
1FB
100
AcDbDictionary
280
     1
281
     1
  3
ACAD_DIMASSOC
360
20E
  0
DICTIONARY
  5
22E
330
223
100
AcDbDictionary
280
     1
281
     1
  3
ACAD_DIMASSOC
360
236
  0
DICTIONARY
  5
244
330
237
100
AcDbDictionary
280
     1
281
     1
  3
ACAD_DIMASSOC
360
24E
  0
XRECORD
  5
26C
102
{ACAD_REACTORS
330
C
102
}
330
C
100
AcDbXrecord
280
     1
 90
   990106
  3

 60
     0
 61
     0
 62
     1
 63
     3
 64
     0
 65
     0
 66
     0
 67
     3
 68
     1
 69
     0
 70
     0
 71
     0
 72
     0
 40
0.0
170
     0
  0
DICTIONARY
  5
285
330
276
100
AcDbDictionary
280
     1
281
     1
  3
ACAD_DIMASSOC
360
291
  0
ENDSEC
  0
SECTION
  2
THUMBNAILIMAGE
 90
    18627
310
BF4800000201030100005000000002530100005C480000000000000000000000000000000000000000000000000000000000000000000000000000000000000000000000000000000000000000000000000000000000000000000000000000000000000000000028000000B400000061000000010008000000000034440000
310
00000000000000000001000000000000FFFFFF00FFFFFF0000000000FFFFFF00FFFFFF00FFFFFF00FFFFFF00FFFFFF00FFFFFF00FFFFFF00FFFFFF00330000006600000099000000CC000000FF00000000330000333300006633000099330000CC330000FF33000000660000336600006666000099660000CC660000FF6600
310
0000990000339900006699000099990000CC990000FF99000000CC000033CC000066CC000099CC0000CCCC0000FFCC000000FF000033FF000066FF000099FF0000CCFF0000FFFF000000003300330033006600330099003300CC003300FF00330000333300333333006633330099333300CC333300FF333300006633003366
310
33006666330099663300CC663300FF66330000993300339933006699330099993300CC993300FF99330000CC330033CC330066CC330099CC3300CCCC3300FFCC330000FF330033FF330066FF330099FF3300CCFF3300FFFF330000006600330066006600660099006600CC006600FF00660000336600333366006633660099
310
336600CC336600FF33660000666600336666006666660099666600CC666600FF66660000996600339966006699660099996600CC996600FF99660000CC660033CC660066CC660099CC6600CCCC6600FFCC660000FF660033FF660066FF660099FF6600CCFF6600FFFF660000009900330099006600990099009900CC009900
310
FF00990000339900333399006633990099339900CC339900FF33990000669900336699006666990099669900CC669900FF66990000999900339999006699990099999900CC999900FF99990000CC990033CC990066CC990099CC9900CCCC9900FFCC990000FF990033FF990066FF990099FF9900CCFF9900FFFF99000000CC
310
003300CC006600CC009900CC00CC00CC00FF00CC000033CC003333CC006633CC009933CC00CC33CC00FF33CC000066CC003366CC006666CC009966CC00CC66CC00FF66CC000099CC003399CC006699CC009999CC00CC99CC00FF99CC0000CCCC0033CCCC0066CCCC0099CCCC00CCCCCC00FFCCCC0000FFCC0033FFCC0066FF
310
CC0099FFCC00CCFFCC00FFFFCC000000FF003300FF006600FF009900FF00CC00FF00FF00FF000033FF003333FF006633FF009933FF00CC33FF00FF33FF000066FF003366FF006666FF009966FF00CC66FF00FF66FF000099FF003399FF006699FF009999FF00CC99FF00FF99FF0000CCFF0033CCFF0066CCFF0099CCFF00CC
310
CCFF00FFCCFF0000FFFF0033FFFF0066FFFF0099FFFF00CCFFFF0000000000FFFFFF000D0D0D001A1A1A00282828003535350043434300505050005D5D5D006B6B6B00787878008686860093939300A1A1A100AEAEAE00BBBBBB00C9C9C900D6D6D600E4E4E400F1F1F10000000000FFFFFF00FFFFFF00FFFFFF00FFFFFF00
310
FFFFFF00FFFFFF00FFFFFF00FFFFFF00FFFFFF00FFFFFF0000000000000000000000000000000000000000000000000000000000000000000000000000000000000000000000000000000000000000000000000000000000000000000000000000000000000000000000000000000000000000000000000000000000000000
310
00000000000000000000000000000000000000000000000000000000000000000000000000000000000000000000000000000000000000000000000000000000000000000000000000000000000000000000000000000000000000000000000000000000000000000000000000000000000000000000000000000000000000
310
00000000000000000000000000000000000000000000000000000000000000000000000000000000000000000000000000000000000000000000000000000000000000000000000000000000000000000000000000000000000000000000000000000000000000000000000000000000000000000000000000000000000000
310
00000000000000000000000000000000000000000000000000000000000000000000000000000000000000000000000000000000000000000000000000000000000000000000000000000000000000000000000000000000000000000000000000000000000000000000000000000000000000000000000000000000000000
310
00000000000000000000000000000000000000000000000000000000000000000000000000000000000000000000000000000000000000000000000000000000000000000000000000000000000000000000000000000000000000000000000000000000000000000000000000000000000000000000000000000000000000
310
00000000000000000000000000000000000000000000000000000000000000000000000000000000000000000000000000000000000000000000000000000000000000000000000000000000000000000000000000000000000000000000000000000000000000000000000000000000000000000000000000000000000000
310
00000000000000000000000000000000000000000000000000000000000000000000000000000000000000000000000000000000000000000000000000000000000000000000000000000000000000000000000000000000000000000000000000000000000000000000000000000000000000000000000000000000000000
310
00000000000000000000000000000000000000000000000000000000000000000000000000000000000000000000000000000000000000000000000000000000000000000000000000000000000000000000000000000000000000000000000000000000000000000000000000000000000000000000000000000000000000
310
00000000000000000000000000000000000000000000000000000000000000000000000000000000000000000000000000000000000000000000000000000000000000000000000000000000000000000000000000000000000000000000000000000000000000000000000000000000000000000000000000000000000000
310
00000000000000000000000000000000000000000000000000000000000000000000000000000000000000000000000000000000000000000000000000000000000000000000000000000000000000000000000000000000000000000000000000000000000000000000000000000000000000000000000000000000000000
310
00000000000000000000000000000000000000000000000000000000000000000000000000000000000000000000000000000000000000000000000000000000000000000000000000000000000000000000000000000000000000000000000000000000000000000000000000000000000000000000000000000000000000
310
00000000000000000000000000000000000000000000000000000000000000000000000000000000000000000000000000000000000000000000000000000000000000000000000000000000000000000000000000000000000000000000000000000000000000000000000000000000000000000000000000000000000000
310
00000000000000000000000000000000000000000000000000000000000000000000000000000000000000000000000000000000000000000000000000000000000000000000000000000000000000000000000000000000000000000000000000000000000000000000000000000000000000000000000000000000000000
310
00000000000000000000000000000000000000000000000000000000000000000000000000000000000000000000000000000000000000000000000000000000000000000000000000000000000000000000000000000000000000000000000000000000000000000000000000000000000000000000000000000000000000
310
00000000000000000000000000000000000000000000000000000000000000000000000000000000000000000000000000000000000000000000000000000000000000000000000000000000000000000000000000000000000000000000000000000000000000000000000000000000000000000000000000000000000000
310
00000000000000000000000000000000000000000000000000000000000000000000000000000000000000000000000000000000000000000000000000000000000000000000000000000000000000000000000000000000000000000000000000000000000000000000000000000000000000000000000000000000000000
310
00000000000000000000000000000000000000000000000000000000000000000000000000000000000000000000000000000000000000000000000000000000000000000000000000000000000000000000000000000000000000009E9E9E9E9E9E0000000000000000000000000000000000000000000000000000000000
310
000000000000000000000000000000000000000000000000000000000000000000000000000000000000000000000000000000000000000000F5F5F5F5F5F5F5F5F5F5F5F5F5F5F5F5F5F5F5F5F5F50000000000000000000000000000000000000000000000000000000000F5F5F5F5F5F5F5F5F5F5F5F5F5F5F5F5F5F5F5
310
F5F5F5F5F5F5F5F5F5F5F5F5F5F5F5009E9E009E9E9E9E9E00000000000000000000000000000000000000000000000000000000000000000000000000000000000000000000000000000000000000000000000000000000000000000000000000000000009E9E9E9E9E9E9E9E9E9EF5F5F5F5F5F5F5F5F5F5F5F5F5F5F5F5
310
F5F5F5F5F5F5000000000000000000000000000000000000000000000000000000F5F5F5F5F5F5F5F5F5F5F5F5F5F5F5F5F5F5F5F5F5F5F5F5F5F5F5F5F5F5F5F5F5F59E9E0000009E9E9E9E9E0000000000000000000000000000000000000000000000000000000000000000000000000000000000000000000000000000
310
0000000000000000000000000000000000000000000000000000009E9E000000000000F5F5F5F5F5F5F5F5F5F5F5F5F5F5F5F5F5F5F5F5F5F5F5F5000000000000000000000000000000000000000000000000000000F5F5F5F5F5F5F5F5F5F5F5F5F5F5F5F5F5F5F5F5F5F5F5F5F5F5F5F5F5F5F5F5F59EF5000000000000
310
0000000000000000000000000000000000000000000000000000000000000000000000000000000000000000000000000000000000000000000000000000000000000000000000000000000000000000009E000000000000F5F5F5000000000000000000000000000000000000F5F5F5000000000000000000000000000000
310
000000000000000000000000F5F5F50000F5F5BEF5F5F5000000000000000000000000F5F5F5F5F50000F59E9EF5F50000000000000000000000000000000000000000000000000000000000000000000000000000000000000000000000000000000000000000000000000000000000000000000000000000000000000000
310
000000000000009E000000000000F5F5F5000000000000000000000000000000000000F5F5F5000000000000000000000000000000000000000000000000000000F5F5F500F5F5F5BEF5F5F50000000000000000000000F5F5F5F5F5F5F500F5F5F5F5F5000000000000000000000000000000000000000000000000000000
310
0000000000000000000000000000000000000000000000000000000000000000000000000000000000000000000000000000000000000000000000009E000000000000F5F5F5000000000000000000000000000000000000F5F5F5000000000000000000000000000000000000000000000000000000F5F5F500F5F5F5BEF5
310
F5F50000000000000000000000F5F5F5F5F5F5F500F5F5F5F5F50000000000000000000000000000000000000000000000000000000000000000000000000000000000000000000000000000000000000000000000000000000000000000000000000000000000000000000000000000009E000000000000F5F5F500000000
310
0000000000000000000000000000F5F5F5000000000000000000000000000000000000000000000000000000F5F5F500BEBEBEBEBEBEBE0000000000000000000000F5F5F5F5F5F5F500F5F5F5F5F5000000000000000000000000000000000000000000000000000000000000000000000000000000000000000000000000
310
0000000000000000000000000000000000000000000000000000000000000000000000000000009E000000000000F5F5F5000000000000000000000000000000000000F5F5F5000000000000000000000000000000000000000000000000000000F5F5F500F5F5F5BEF5F5F50000000000000000000000F5F5F5F5F5F5F500
310
F5F5F5F5F50000000000000000000000000000000000000000000000000000000000000000000000000000000000000000000000000000000000000000000000000000000000000000000000000000000000000000000000000000009E000000000000F5F5F5000000000000000000000000000000000000F5F5F500000000
310
0000000000000000000000000000000000000000000000F5F5F50000F5F5BEF5F5F50000000000000000000000F5F5F5F5F5F5F500F5F5F5F5F5000000000000000000000000000000000000000000000000000000000000000000000000000000000000000000000000000000000000000000000000000000000000000000
310
0000000000000000000000000000000000009E000000000000F5F5F5000000000000000000000000000000000000F5F5F5000000000000000000000000000000000000000000000000000000F5F5F5000000F5BEF5F500000000000000000000000000F5F5F5F5F50000F5F5F5F5F500000000000000000000000000000000
310
0000000000000000000000000000000000000000000000000000000000000000000000000000000000000000000000000000000000000000000000000000000000000000009E9E9E000000000000F5F5F5000000000000000000000000000000000000F5F5F500000000000000000000000000000000000000000000000000
310
0000F5F5F5000000000000000000000000000000000000000000000000000000F5F5F5F5F5000000000000000000000000000000000000000000000000000000000000000000000000000000000000000000000000000000000000000000000000000000000000000000000000000000000000000000000000009E9E9E0000
310
00000000F5F5F5000000000000000000000000000000000000F5F5F5000000000000000000000000000000000000000000000000000000F5F5F5000000000000000000000000000000000000000000000000000000F5F5F5F5F500000000000000000000000000000000000000000000000000000000000000000000000000
310
0000000000000000000000000000000000000000000000000000000000000000000000000000000000000000000000009E9E9E000000000000F5F5F5000000000000000000000000000000000000F5F5F5000000000000000000000000000000000000000000000000000000F5F5F50000F5F5F5F5F5F50000000000000000
310
00000000F5F5BEF5F50000F5F5F5F5F5000000000000000000000000000000000000000000000000000000000000000000000000000000000000000000000000000000000000000000000000000000000000000000000000000000000000000000000000009E9E9E000000000000F5F5F50000000000000000000000000000
310
00000000F5F5F5000000000000000000000000000000000000000000000000000000F5F5F500F5F5F5F5F5F5F50000000000000000000000F5F5F5BEF5F5F500F5F5F5F5F500000000000000000000000000000000000000000000000000000000000000000000000000000000000000000000000000000000000000000000
310
0000000000000000000000000000000000000000000000000000009E9E9E000000000000F5F5F5000000000000000000000000000000000000F5F5F5000000000000000000000000000000000000000000000000000000F5F5F500F5F5F5F5F5F5F50000000000000000000000F5F5F5BEF5F5F500F5F5F5F5F50000000000
310
000000000000000000000000000000000000000000000000000000000000000000000000000000000000000000000000000000000000000000000000000000000000000000000000000000000000000000009E000000000000F5F5F5000000000000000000000000000000000000F5F5F50000000000000000000000000000
310
00000000000000000000000000F5F5F500F5F5F5F5F5F5F50000000000000000000000F5F5F5BEF5F5F500F5F5F5F5F500000000000000000000000000000000000000000000000000000000000000000000000000000000000000000000000000000000000000000000000000000000000000000000000000000000000000
310
00000000000000009E000000000000F5F5F5000000000000000000000000000000000000F5F5F500000000000000000000000000009E9E9E9E9E0000000000000000F5F5F500F5F5F5F5F5F5F50000000000000000000000F5F5F5BEF5F5F500F5F5F5F5F50000000000000000000000000000000000000000000000000000
310
000000000000000000000000000000000000000000000000000000000000000000000000000000000000000000000000000000000000000000000000009E000000000000F5F5F5000000000000000000000000000000000000F5F5F50000000000000000000000000000009E9E9E9E0000000000000000F5F5F50000F5F5F5
310
F5F5F5000000000000000000000000F5F5BEF5F5F500F5F5F5F5F50000000000000000000000000000000000000000000000000000000000000000000000000000000000000000000000000000000000000000000000000000000000000000000000000000000000000000000000000000009E000000000000F5F5F5000000
310
000000000000000000000000000000F5F5F500000000000000000000000000009E9E9E9E9E0000000000000000F5F5F5000000F5F5F5F500000000000000000000000000F5F5BEF5F50000F5F5F5F5F50000000000000000000000000000000000000000000000000000000000000000000000000000000000000000000000
310
000000000000000000000000000000000000000000000000000000000000000000000000000000009E000000000000F5F5F5000000000000000000F5F5F5F5F5F5F5F5F5F5F5F5F5F5F5F5F5F5F5F5F5F5F5F5F5F5F5F5F5F59EF5F5F5F5F5F5F5F5F5F5F5F5F5F5F5F5F5F5F5F5F5F5F5F5F5F5F5F5F5F5F5F5F5F5F5F5F5
310
F5F5F5F5F5F50000000000000000000000000000000000000000000000000000000000000000000000000000000000000000000000000000000000000000000000000000000000000000000000000000000000000000000000000000009E000000000000F5F5F50000000000000000F5F5F5F5F5F5F5F5F5F5F5F5F5F5F5F5
310
F5F5F5F5F5F5F5F5F5F5F5F5F5F5F59E9EF5F5F5F5F5F5F5F5F5F5F5F5F5F5F5F5F5F5F5F5F5F5F5F5F5F5F5F5F5F5F5F5F5F5F5F5F5F5F5F5F5F500000000000000000000000000000000000000000000009E0000000000000000000000000000000000000000000000000000000000000000000000000000000000000000
310
000000000000000000000000000000000000009E000000000000F5F5F5000000000000000000F5F5F5F5F5F5F5F5F5F5F5F5F5F5F5F5F5F5F5F5F5F5F5F5F5F5F5F5F5F59E9EF5F5F5F5F5F5F5F5F5F5F5F5F5F5F5F5F5F5F5F5F5F5F5F5F5F5F5F5F5F5F5F5F5F5F5F5F5F5F5F5F5F5000000000000000000000000000000
310
000000000000009E000000000000000000000000000000000000000000000000000000000000000000000000000000000000000000000000000000000000000000000000000000009E000000000000F5F5F50000000000000000000000000000000000000000000000000000000000000000000000000000009E0000000000
310
000000000000000000000000000000000000000000000000000000000000000000F5F5F5F5F5000000000000000000000000000000000000000000009E9E00000000000000000000000000000000000000000000000000000000000000000000000000000000000000000000000000000000000000000000000000009E9E00
310
0000000000F5F5F5F5F5F5F5F5F5F5F5F5F5F5F5F5F5F5F5F5F5F5F5F5F5F5F5F5F5F5F5F5F5F5F5F5F5F5F5F5F5F59E9EF5F5F5F5F5F5F5F5F5F5F5F5F5F5F5F5F5F5F5F5F5F5F5F5F5F5F5F5F5F5F5F5F5F5F5F5F5F5F5F5F5F50000000000000000000000000000000000000000009E00009E9E00000000000000000000
310
00000000000000000000000000000000000000000000000000000000000000000000000000000000000000000000000000009E9E9E9E9E9E9E9E9E9EF5F5F5F5F5F5F5F5F5F5F5F5F5F5F5F5F5F5F5F5F5F5F5F5F5F5F5F5F5F5F5F5F5F5F5F5F5F5F5F59E9EF5F5F5F5F5F5F5F5F5F5F5F5F5F5F5F5F5F5F5F5F5F5F5F5F5
310
F5F5F5F5F5F5F5F5F5F5F5F5F5F5F5F5F50000000000000000000000000000000000000000009E000000009E9E00000000000000000000000000000000000000000000000000000000000000000000000000000000000000000000000000000000000000000000000000000000000000F5F5F5F5F5F5F5F5F5F5F5F5F5F5F5
310
F5F5F5F5F5F5F5F5F5F5F5F5F5F5F5F5F5F5F5F5F5F5F5F5F5F5F5F5F5F5F5F5F5F5F5F5F5F5F5F5F5F5F5F5F5F5F5F5F5F5F5F5F5F5F5F5F5F5F5F5F5F5F5F5F5F5F5F5F50000000000000000000000000000000000000000009E000000000000009E9E000000000000000000000000000000000000000000000000000000
310
00000000000000000000000000000000000000000000000000000000000000000000000000000000000000000000000000000000000000000000000000000000000000000000000000000000000000000000000000000000000000000000000000000000000000000000000000000000000000000000000000000000000000
310
000000000000000000000000000000009E0000000000000000009E9E000000000000000000000000000000000000000000000000000000000000000000000000000000000000000000000000000000000000000000000000000000000000000000000000000000000000000000000000000000000000000000000000000000
310
00000000000000000000000000000000000000000000000000000000000000000000000000000000000000000000000000000000000000000000000000000000000000009E0000000000000000000000009E000000000000000000000000000000000000000000000000000000000000000000000000000000000000000000
310
000000000000000000000000000000000000000000000000000000000000000000000000000000000000000000000000000000000000000000000000000000000000000000000000000000000000000000000000000000000000000000000000000000000000000000000000000000000000000000000000009E000000009E
310
00000000000000009E9E000000000000000000000000000000000000000000000000000000000000000000000000000000000000000000000000000000000000000000000000000000000000000000000000000000000000000000000000000000000000000000000000000000000000000000000000000000000000000000
310
000000000000000000000000000000000000000000000000000000000000000000000000000000000000000000009E000000009E9E9E0000000000000000009E9E9E0000000000000000000000000000000000000000000000000000000000000000000000000000000000000000000000000000000000000000009E000000
310
000000000000000000000000000000000000000000000000000000000000000000000000000000000000000000000000009E0000000000000000000000000000000000000000000000000000000000000000000000000000000000000000000000F5F59E000000009E009E000000000000000000009E9E9E00000000000000
310
000000000000000000000000000000000000000000000000000000000000000000000000000000000000000000000000009E9E9E9E9E9E9E9E9E9E9E9E9E9E9E9E9E9E9E9E9E9E9E9E9E9E9E9E9E9E9E9E9E9E9E9E9E9E9E9E9E9E9E9E9E9E9E9E9E9E9E9E9E9E000000000000000000000000000000000000000000000000
310
00000000000000000000000000000000000000000000F5F59EF5F500009E0000009E9E000000000000009E9E9E9E9E9E0000000000000000000000000000000000000000000000000000000000000000000000000000000000000000000000000000000000009E000000000000000000000000000000000000000000000000
310
9E9E9E9E0000000000000000000000000000000000000000000000009E00000000000000000000000000000000000000000000000000000000000000000000000000000000000000000000F5F5F5F5F5F5F59E00000000009E9E000000000000009E9E00009E9E000000000000000000000000000000000000000000000000
310
000000000000000000000000000000000000000000000000000000009E000000000000000000009E000000000000000000000000009E9E9E9E0000000000000000000000000000000000000000000000009E000000000000000000000000000000000000000000000000000000000000000000000000000000000000000000
310
F5F5F5F5F5F5F59EF5F50000000000009E9E00000000000000000000009E0000000000000000000000000000000000000000000000000000000000000000000000000000000000000000000000000000009E000000000000000000009E9E9E9E9E9E9E9E9E9E9E9E9E9E9E9E9E9E9E9E9E9E9E9E9E9E9E9E9E9E9E9E9E9E9E
310
9E9E9E9E9E9E9E9E000000000000000000000000000000000000000000000000000000000000000000000000000000000000000000F5F5F5F50000F59EF5F5F5000000000000009E00000000000000000000009E9E000000000000000000000000000000000000000000000000000000000000000000000000000000000000
310
000000000000009E000000000000000000009E000000000000000000000000000000000000009E9E9E000000000000000000000000000000000000009E0000000000000000000000000000000000000000000000000000000000000000000000000000000000000000F5F5F5F50000009E00F5F5F5F5F50000000000009E9E
310
00000000000000000000009E9E00000000000000000000000000000000000000000000000000000000000000000000000000000000000000000000009E000000000000000000009E0000000000000000000000000000000000009E9E9E9E000000000000000000000000000000000000009E00000000000000000000000000
310
000000000000000000000000000000000000000000000000000000000000F5F5F5F5F50000009E000000F5F5F5F5F5000000009E9E9E9E00000000000000000000009E9E0000000000000000000000000000000000000000000000000000000000000000000000000000000000000000009EF5F5F5F5F5F5F5F5F5F5BEF5F5
310
F5F5F5F5F5F5F5F5F5F5F5F5F5F5F5F5F5F5F5F5F5F5F5F5F5F5F5F5F5F5F5F5F5F5F5F5F5F5F59EF5000000000000000000000000000000000000000000000000000000000000000000000000000000000000F5F5F5F50000009E0000000000F5F5F5F5F5F500009E9E9E009E0000000000000000000000009E9E00000000
310
0000000000000000000000000000000000000000000000000000000000000000000000000000F59EF5F5F5F5F5F5F5F5F5F59EF5F5F5F5F5F5F5F5F5F5F5F5F5F5F5F5F5F5F5F5F5F5F5F5F5F5F5F5F5F5F5F5F5F5F5F5F5F5F5F5F59E9E9E9E9E9E9E9E9E9E9E9E9E9E9E0000000000000000000000000000000000000000
310
0000000000000000F5F5F5F500F5F5F59E00000000000000F5F5F5F5F50000000000009E9E0000000000000000000000009E9E00000000000000000000000000000000000000000000000000000000000000000000000000000000F5F5F5F5F5F5F5F5F5F5F5F5BEF5F5F5F5F5F5F5F5F5F5F5F5F5F5F5F5F5F5F5F5F5F5F5
310
F5F5F5F5F5F5F5F5F5F5F5F5F5F5F5F5F5F5F5F5F5F5F5F5000000000000009E00000000000000000000000000000000000000000000000000000000F5F5F5F5F5F5F5F59EF5000000000000000000F5F5F5F5F50000000000009E9E000000000000000000009E9E0000000000000000000000000000000000000000000000
310
0000000000000000000000000000000000F5F5F5000000000000000000BEF5F5F5F5F5F5F5F500000000000000000000000000000000000000000000000000000000000000F5F5F5F5F5F5F5F5F5BE000000009E9E00000000000000000000000000000000000000000000000000000000F5F5F5F5BEF5F5BEF5F5F5000000
310
00000000000000F5F5F5F5F50000000000009E9E9E009E00000000009E0000000000000000000000000000000000000000000000000000000000000000000000000000000000F5F5F5000000000000000000BE000000F5F5F5F5F5F5000000000000000000000000000000000000000000000000000000000000F5F5F500F5
310
F582F5BEF5F500009E9E9E000000000000000000000000000000000000000000000000000000F5F5F5F500F5BEBEBEF5F5F5000000000000000000000000F5F5F5F5F50000000000009E9E00000000009E000000000000000000000000000000000000000000000000000000000000000000000000000000000000F5F5F500
310
0000000000000000BE0000000000F5F5F5F50000000000000000000000000000000000000000000000000000000000F5F5F5F5000082F5F5BEF5F5F5F59E9E9E000000000000000000000000000000000000000000000000000000F5F5F5F500F5F5BEBEBEF5F500000000000000000000000000F5F5F5F5F5F50000000000
310
9E00000000009E000000000000000000000000000000000000000000000000000000000000000000000000000000000000F5F5F5F5F5F5F5F5F5F5F5F5BEF5F5F5000000F5F5F5F500009E9E9E9E9E00000000000000000000000000000000000000000000F5F5F5F5F58200BEF5F582F5F59E9E0000000000000000000000
310
0000009E9E9E9E9E9E9E9E9E00000000F5F5F5F50000F5F5BEF5F5BE00000000000000000000000000000000F5F5F5F5F50000009E00000000009E00000000000000000000000000000000000000000000000000000000000000000000000000000000000000F5F5F5F5F5F5F5F5F5F5F5F5BEF5F5F5F50000F5F5F5F59E9E
310
009E9E9E9E0000000000000000000000000000000000000000000000F5F5F582F5F5BE0082F5F5F59E9EF5000000000000000000000000009E9E9E9E9E9E009E009E9E00F5F5F5F5F5000000BEF5F5F5F5000000000000000000000000000000000000F5F5F5F5F59E00000000009E00000000000000000000000000000000
310
0000000000000000000000000000000000000000000000000000000000F5F5F5F5F5F5F5F5F5F5F5BEF5F5F5F5F500009E9E9EF500009E009E9E00000000000000000000000000000000000000000000000000F5F5F5BEF5008200F5F59EF5F5F5F5000000000000000000000000000000000000000000009EF5F5F5F50000
310
000000000000000000000000000000000000000000000000000000F5F5F59EF5000000009E0000000000000000000000000000000000000000000000000000000000000000000000000000000000000000000000000000000000000000BE00F5F5F5F59E9E00F5F5F500000000000000000000000000000000000000000000
310
0000000000000000000000F5BEF582F50000F5F5F5F5F5F5F5000000000000000000000000000000000000000000F59E9EF5F5F5F5F5F50000000000000000000000000000000000000000000000000000F59EF59E9EF5009E0000000000000000000000000000000000000000000000000000000000000000000000000000
310
00000000000000000000000000000000000000BE0000F59E9EF50000F5F5F5000000000000000000000000000000000000000000000000000000000000000000BE00F5F5F5F5F50000F5F5F5F5F5F5F500000000000000000000000000000000000000F5F5F59E9EF5F5BEF5F5000000000000000000000000000000000000
310
00000000000000009EF5F5F59E9E9E000000000000000000000000000000000000000000000000000000000000000000000000000000000000000000000000000000000000000000BE009E9EF5F5F50000F5F5F5000000000000000000000000000000000000000000000000000000000000000000000000F5F5F5F5F5F500
310
00F5F5F5F5F5F5F50000000000000000000000000000000000F5F5F5F59EF5F5BEF5F5000000000000000000000000000000000000000000000000009E000000F5F59E9E0000000000000000000000000000000000000000000000000000000000000000000000000000000000000000BEBEBEBEBEBEBEBEBEBEBEBEBE9E9E
310
BEBEBEBEBEBEBEBEBEBEBEBE000000000000000000000000000000000000000000000000000000000000000000000000F5F5F5F5F50000F5F5F5F5F5F5F500000000000000000000000000000000F5F5F5F59E9E9EF5F5F50000000000000000000000000000000000000000000000009E00000000F5F5F5009E9E00000000
310
000000000000000000000000000000000000000000000000000000000000000000000000000000000000000000000000000000BE009E9EF5F5F50000F5F5F500000000000000000000000000000000000000000000000000000000000000000000000000000000F5F5F5F5F50000F5F5F5F5F5F5F500000000000000000000
310
000000009E9E9E9EF5F5BE9E9EF5000000000000000000000000000000000000000000F5F5F59E00000000F5F5F50000009E9E0000000000000000000000000000000000000000000000000000000000000000000000000000000000000000000000000000000000BE0000F59E9E9E0000F5F5F50000000000000000000000
310
00000000000000000000000000000000000000000000000000000000000000F5F5F5F5F50000F5F5F582F5F5BE0000009E9E9E9E9E9E9E9E9E9EF5F5F5F5BEF5F5F59E00000000000000000000000000000000000000F5F5F5F59EF5F50000F5F5F500000000009E9E00000000000000000000000000000000000000000000
310
000000000000000000000000000000000000000000000000000000000000BE00F5F5F5F5009E9EF5F5F50000000000000000000000000000000000000000000000000000000000000000000000000000000000000000F5F5F5F5F500F5F582F5BEF5F50000009E9E9E9E9E9E000000F5F5F5F5F5F5F5F5009E000000000000
310
000000000000000000000000F5BEF5F5BEF5F50000F5F5F5000000009E00009E9E000000000000000000000000000000000000000000000000000000000000000000000000000000F5F5F5F5F5F5F5F5F5F5F5BEF5F5F5F5000000F59E9E9E9E00000000000000000000000000000000000000000000000000000000000000
310
00000000000000000000000000F5F5F5F5F5F582F5F5BEF582F5F59E9E009E9E9E9E00000000F5F5F5000000000000000000000000000000000000000000000000F5F5BE9EF5F5F500F5F5F500000000009E000000009E9E000000000000000000000000000000000000000000000000000000000000000000000000F5F5F5
310
F5F5F5F5F5F5F5F5F5BEF5F5F5000000F5F5F5F500009E9E9E9E9E9E00000000000000000000000000000000000000000000000000000000000000000000000000000000F5F5F5F58200BEF5F582F5F5F5F5000000000000000000F5F5F5F50000000000000000000000000000000000000000000000F5F5F5BE9E9EF500F5
310
F5F5000000009E9E9E000000009E9E0000000000000000000000000000000000000000000000000000000000000000000000F5F5F5F5F5F5F5F5F5F5F5F5BEF5F5000000F5F5F5F5F50000009E9E9E9E9E000000000000000000000000000000000000000000000000000000000000000000000000000000000000F582F5BE
310
F50082F5F5F5F5F5F5000000000000000000F5F5F5F5F5000000000000000000000000000000000000000000F5F5BEF5F5BE9E9EF5F500000000009E9E9E000000009E000000000000000000000000000000000000000000000000000000000000000000000000F5F5F5000000000000000000BE00000000F5F5F5F5F50000
310
00009E9E9E9E9E0000000000000000000000000000000000000000000000000000000000000000000000000000000000000000F5BEF5F58200F5F5F59EF500000000000000000000F5F5F5F5F5F50000000000000000000000000000000000000000F5BEF5F5F500F59EF5000000009E9E9E000000009E0000000000000000
310
0000000000000000000000000000000000000000000000000000000000F5F5F5000000000000000000BE000000F5F5F5F5F5000000000000000000000000000000000000000000000000000000000000000000000000000000000000000000000000000000000000BEF5F582F5F5F5F5F5F59E9E0000009E9E9E9E9E000000
310
F5F5F5F5F5F50000000000000000000000000000000000000000000000F5F5F59E9E0000009E9E9E000000009E00000000000000000000000000000000000000000000000000000000000000000000000000F5F5F5F5F5F5F5F5F5F5F5F5BEF5F5F5F5F5F5F5F5F5F5F5F5F5F5F5F5F5F5F5F5F5F5F5F5F5F5F5F5F5F5F5F5
310
F5F5F5F5F5F5F5F5F5F5F5F5F5F5F5F5F5F5F5F5F5F5F5F5F5F5F5F5F5F5F5F5F5F5F5F5F5F5F5F500009E9E9E9E9E9E9E9E0000000000F5F5F5F5F5F5000000000000000000000000F5F5F50000000000F5F5F50000009E9E9E0000000000009E000000000000000000000000000000000000000000000000000000000000
310
0000000000000000F5F5F5F5F5F5F5F5F5F5F5F5BEF5F5F5F5F5F5F5F5F5F5F5F5F5F5F5F5F5F5F5F5F5F5F5F5F5F5F5F5F5F5F5F5F5F5F5F5F5F5F5F5F5F5F5F5F5F5F5F5F5F5F5F5F5F5F5F5F5F5F5F5F5F5F5F5F5F5F5F5F59EF5F50000009E9E9E9E009E0000000000000000F5F5F5F5F500000000000000000000F5F5
310
F5F5BEF5000000F5F5F5000000009E9E0000000000009E000000000000000000000000000000000000000000000000000000000000000000000000000000F5F5F5F5F5F5F5F5F5F5F5BEF5F5F5F5F5F5F5F5F5F5F5F5F5F5F5F5F5F5F5F5F5F5F5F5F5F5F5F5F5F5F5F5F5F5F5F5F5F5F5F5F5F5F5F5F5F5F5F5F5F5F5F5F5
310
F5F5F5F5F5F5F5F5F5F5F5F5F5F5F5F5F59E9E0000009E9E0000000000000000000000000000F5F5F5F5F500000000000000F5BEF5F5BEF5F50000F5F5F50000000000000000000000009E000000000000000000000000000000000000000000000000000000000000000000000000000000000000000000000000000000BE
310
0000000000000000000000000000000000000000000000000000000000000000000000000000000000000000000000000000000000000000000000000000000000000000000000009E9E9E9E0000000000000000000000000000000000F5F5F5F5F50000000000F5F5BE9EBEF5F50000F5F5F500000000000000000000009E
310
9E9E0000000000000000000000000000000000000000000000000000000000000000000000000000000000000000000000000000BE0000000000000000000000000000000000000000000000000000000000000000000000000000000000000000000000000000000000000000000000000000000000000000000000000000
310
9E9E000000000000000000000000000000000000F5F5F5F5F5F5000000F5F5F5BE9E9EF500F5F5F50000000000000000000000009E9E9E000000000000000000000000000000000000000000000000000000000000000000000000000000000000000000000000000000000000000000000000000000000000000000000000
310
000000000000000000000000000000000000000000000000000000000000000000000000000000000000000000000000000000000000000000000000000000000000000000000000000000F5F5F5F5F5F50000F5F5BEF5F59E9EF5F5F500000000000000000000009E9E9E0000000000000000000000000000000000000000
310
00000000000000000000000000000000000000000000000000000000000000000000000000000000000000000000000000000000000000000000000000000000000000000000000000000000000000000000000000000000000000000000000000000000000000000000000000000000000000000000000000000000000000
310
000000F5F5F5F5F5F5F5BEF5F5F5F5F59E9E0000000000000000000000009E9E9E00000000000000000000000000000000000000000000000000000000000000000000000000000000000000000000000000000000000000000000000000000000000000000000000000000000000000000000000000000000000000000000
310
00000000000000000000000000000000000000000000000000000000000000000000000000000000000000000000000000000000000000000000F5F5F5F5F5F5F5F5F5F5F5F5F59E000000000000000000009E0000000000000000000000000000000000000000000000000000000000000000000000000000000000000000
310
0000000000000000000000000000000000000000000000000000000000000000000000000000000000000000000000000000000000000000000000000000000000000000000000000000000000000000000000000000000000000000000000000000000000000000000000000000000000F5F5F5F5F5F5F5F5F5F500009E9E
310
00000000000000009E00000000000000000000000000000000000000000000000000000000000000000000000000000000000000000000000000000000000000000000000000000000000000000000000000000000000000000000000000000000000000000000000000000000000000000000000000000000000000000000
310
0000000000000000000000000000000000000000000000000000000000000000000000000000000000F5F5F5F5F5F50000000000009E9E00000000009E000000000000000000000000000000000000000000000000000000000000000000000000000000000000000000000000000000000000000000000000000000000000
310
0000000000000000000000000000000000000000000000000000000000000000000000000000000000000000000000000000000000000000000000000000000000000000000000000000000000000000000000000000000000000000000000000000000000000000000000009E9E0000009E00000000000000000000000000
310
00000000000000000000000000000000000000000000000000000000000000000000000000000000000000000000000000000000000000000000000000000000000000000000000000000000000000000000000000000000000000000000000000000000000000000000000000000000000000000000000000000000000000
310
0000000000000000000000000000000000000000000000000000000000000000000000009E9E9E00000000000000000000000000000000000000000000000000000000000000000000000000000000000000000000000000000000000000000000000000000000000000000000000000000000000000000000000000000000
310
0000000000000000000000000000000000000000000000000000000000000000000000000000000000000000000000000000000000000000000000000000000000000000000000000000000000000000000000000000000000009E9E0000000000000000000000000000000000000000000000000000000000000000000000
310
00000000000000000000000000000000000000000000000000000000000000000000000000000000000000000000000000000000000000000000000000000000000000000000000000000000000000000000000000000000000000000000000000000000000000000000000000000000000000000000000000000000000000
310
00000000000000000000000000000000000000000000000000000000000000000000000000000000000000000000000000000000000000000000000000000000000000000000000000000000000000000000000000000000000000000000000000000000000000000000000000000000000000000000000000000000000000
310
00000000000000000000000000000000000000000000000000000000000000000000000000000000000000000000000000000000000000000000000000000000000000000000000000000000000000000000000000000000000000000000000000000000000000000000000000000000000000000000000000000000000000
310
00000000000000000000000000000000000000000000000000000000000000000000000000000000000000000000000000000000000000000000000000000000000000000000000000000000000000000000000000000000000000000000000000000000000000000000000000000000000000000000000000000000000000
310
00000000000000000000000000000000000000000000000000000000000000000000000000000000000000000000000000000000000000000000000000000000000000000000000000000000000000000000000000000000000000000000000000000000000000000000000000000000000000000000000000000000000000
310
00000000000000000000000000000000000000000000000000000000000000000000000000000000000000000000000000000000000000000000000000000000000000000000000000000000000000000000000000000000000000000000000000000000000000000000000000000000000000000000000000000000000000
310
00000000000000000000000000000000000000000000000000000000000000000000000000000000000000000000000000000000000000000000000000000000000000000000000000000000000000000000000000000000000000000000000000000000000000000000000000000000000000000000000000000000000000
310
00000000000000000000000000000000000000000000000000000000000000000000000000000000000000000000000000000000000000000000000000000000000000000000000000000000000000000000000000000000000000000000000000000000000000000000000000000000000000000000000000000000000000
310
00000000000000000000000000000000000000000000000000000000000000000000000000000000000000000000000000000000000000000000000000000000000000000000000000000000000000000000000000000000000000000000000000000000000000000000000000000000000000000000000000000000000000
310
00000000000000000000000000000000000000000000000000000000000000000000000000000000000000000000000000000000000000000000000000000000000000000000000000000000000000000000000000000000000000000000000000000000000000000000000000000000000000000000000000000000000000
310
00000000000000000000000000000000000000000000000000000000000000000000000000000000000000000000000000000000000000000000000000000000000000000000000000000000000000000000000000000000000000000000000000000000000000000000000000000000000000000000000000000000000000
310
00000000000000000000000000000000000000000000000000000000000000000000000000000000000000000000000000000000000000000000000000000000000000000000000000000000000000000000000000000000000000000000000000000000000000000000000000000000000000000000000000000000000000
310
00000000000000000000000000000000000000000000000000000000000000000000000000000000000000000000000000000000000000000000000000000000000000000000000000000000000000000000000000000000000000000000000000000000000000000000000000000000000000000000000000000000000000
310
00000000000000000000000000000000000000000000000000000000000000000000000000000000000000000000000000000000000000000000000000000000000000000000000000000000000000000000000000000000000000000000000000000000000000000000000000000000000000000000000000000000000000
310
00000000000000000000000000000000000000000000000000000000000000000000000000000000000000000000000000000000000000000000000000000000000000000000000000000000000000000000000000000000000000000000000000000000000000000000000000000000000000000000000000000000000000
310
00000000000000000000000000000000000000000000000000000000000000000000000000000000000000000000000000000000000000000000000000000000000000000000000000000000000000000000000000000000000000000000000000000000000000000000000000000000000000000000000000000000000000
310
00000000000000000000000000000000000000000000000000000000000000000000000000000000000000000000000000000000000000000000000000000000000000000000000000000000000000000000000000000000000000000000000000000000000000000000000000000000000000000000000000000000000000
310
00000000000000000000000000000000000000000000000000000000000000000000000000000000000000000000000000000000000000000000000000000000000000000000000000000000000000000000000000000000000000000000000000000000000000000000000000000000000000000000000000000000000000
310
00000000000000000000000000000000000000000000000000000000000000000000000000000000000000000000000000000000000000000000000000000000000000000000000000000000000000000000000000000000000000000000000000000000000000000000000000000000000000000000000000000000000000
310
00000000000000000000000000000000000000000000000000000000000000000000000000000000000000000000000000000000000000000000000000000000000000000000000000000000000000000000000000
  0
ENDSEC
  0
EOF
