999
LibreDWG 
  0
SECTION
  2
HEADER
  9
$ACADVER
  1
AC1015
  9
$ACADMAINTVER
 70
    13
  9
$DWGCODEPAGE
  3
ANSI_936
  9
$INSBASE
 10
0.0
 20
0.0
 30
0.0
  9
$EXTMIN
 10
152.4499523272389
 20
113.7632912292183
 30
-3.491819480175989E-08
  9
$EXTMAX
 10
274.1189583275921
 20
215.0956884623688
 30
8.14935746090012E-08
  9
$LIMMIN
 10
0.0
 20
0.0
  9
$LIMMAX
 10
420.0
 20
297.0
  9
$ORTHOMODE
 70
     0
  9
$REGENMODE
 70
     1
  9
$FILLMODE
 70
     1
  9
$QTEXTMODE
 70
     0
  9
$MIRRTEXT
 70
     1
  9
$LTSCALE
 40
1.0
  9
$ATTMODE
 70
     1
  9
$TEXTSIZE
 40
2.5
  9
$TRACEWID
 40
1.0
  9
$TEXTSTYLE
  7
数字与字母
  9
$CLAYER
  8
文本层
  9
$CELTYPE
  6
ByLayer
  9
$CECOLOR
 62
   256
  9
$CELTSCALE
 40
1.0
  9
$DISPSILH
 70
     0
  9
$DIMSCALE
 40
1.0
  9
$DIMASZ
 40
3.5
  9
$DIMEXO
 40
0.0
  9
$DIMDLI
 40
7.5
  9
$DIMRND
 40
0.0
  9
$DIMDLE
 40
0.0
  9
$DIMEXE
 40
2.5
  9
$DIMTP
 40
0.0
  9
$DIMTM
 40
0.0
  9
$DIMTXT
 40
5.0
  9
$DIMCEN
 40
2.5
  9
$DIMTSZ
 40
0.0
  9
$DIMTOL
 70
     0
  9
$DIMLIM
 70
     0
  9
$DIMTIH
 70
     0
  9
$DIMTOH
 70
     1
  9
$DIMSE1
 70
     0
  9
$DIMSE2
 70
     0
  9
$DIMTAD
 70
     1
  9
$DIMZIN
 70
     8
  9
$DIMBLK
  1

  9
$DIMASO
 70
     1
  9
$DIMSHO
 70
     1
  9
$DIMPOST
  1

  9
$DIMAPOST
  1

  9
$DIMALT
 70
     0
  9
$DIMALTD
 70
     3
  9
$DIMALTF
 40
0.03937007874016
  9
$DIMLFAC
 40
1.0
  9
$DIMTOFL
 70
     1
  9
$DIMTVP
 40
0.0
  9
$DIMTIX
 70
     0
  9
$DIMSOXD
 70
     0
  9
$DIMSAH
 70
     0
  9
$DIMBLK1
  1

  9
$DIMBLK2
  1

  9
$DIMSTYLE
  2
机械标注
  9
$DIMCLRD
 70
     0
  9
$DIMCLRE
 70
     0
  9
$DIMCLRT
 70
     0
  9
$DIMTFAC
 40
1.0
  9
$DIMGAP
 40
0.625
  9
$DIMJUST
 70
     0
  9
$DIMSD1
 70
     0
  9
$DIMSD2
 70
     0
  9
$DIMTOLJ
 70
     0
  9
$DIMTZIN
 70
     8
  9
$DIMALTZ
 70
     0
  9
$DIMALTTZ
 70
     0
  9
$DIMUPT
 70
     0
  9
$DIMDEC
 70
     1
  9
$DIMTDEC
 70
     1
  9
$DIMALTU
 70
     2
  9
$DIMALTTD
 70
     3
  9
$DIMTXSTY
  7
数字与字母
  9
$DIMAUNIT
 70
     0
  9
$DIMADEC
 70
     0
  9
$DIMALTRND
 40
0.0
  9
$DIMAZIN
 70
     0
  9
$DIMDSEP
 70
    46
  9
$DIMATFIT
 70
     3
  9
$DIMFRAC
 70
     0
  9
$DIMLDRBLK
  1

  9
$DIMLUNIT
 70
     2
  9
$DIMLWD
 70
    -2
  9
$DIMLWE
 70
    -2
  9
$DIMTMOVE
 70
     0
  9
$LUNITS
 70
     2
  9
$LUPREC
 70
     1
  9
$AXISMODE
 70
     0
  9
$AXISUNIT
 10
0.0
 20
0.0
  9
$SKETCHINC
 40
1.0
  9
$FILLETRAD
 40
10.0
  9
$AUNITS
 70
     0
  9
$AUPREC
 70
     1
  9
$MENU
  1
.
  9
$ELEVATION
 40
0.0
  9
$PELEVATION
 40
0.0
  9
$THICKNESS
 40
0.0
  9
$LIMCHECK
 70
     0
  9
$CHAMFERA
 40
10.0
  9
$CHAMFERB
 40
10.0
  9
$CHAMFERC
 40
20.0
  9
$CHAMFERD
 40
0.0
  9
$SKPOLY
 70
     0
  9
$TDCREATE
 40
2451911.603956590
  9
$TDUCREATE
 40
2451911.315956590
  9
$TDUPDATE
 40
2453618.451362640
  9
$TDUUPDATE
 40
2453618.163362640
  9
$TDINDWG
 40
0.038768850
  9
$TDUSRTIMER
 40
0.038768850
  9
$USRTIMER
 70
     1
  9
$ANGBASE
 50
0.0
  9
$ANGDIR
 70
     0
  9
$PDMODE
 70
     0
  9
$PDSIZE
 40
0.0
  9
$PLINEWID
 40
0.0
  9
$SPLFRAME
 70
     0
  9
$SPLINETYPE
 70
     6
  9
$SPLINESEGS
 70
     8
  9
$HANDSEED
  5
1D9
  9
$SURFTAB1
 70
     6
  9
$SURFTAB2
 70
     6
  9
$SURFTYPE
 70
     6
  9
$SURFU
 70
     6
  9
$SURFV
 70
     6
  9
$UCSBASE
  2

  9
$UCSNAME
  2

  9
$UCSORG
 10
0.0
 20
0.0
 30
0.0
  9
$UCSXDIR
 10
1.0
 20
0.0
 30
0.0
  9
$UCSYDIR
 10
0.0
 20
1.0
 30
0.0
  9
$UCSORTHOREF
  2

  9
$UCSORTHOVIEW
 70
     0
  9
$UCSORGTOP
 10
0.0
 20
0.0
 30
0.0
  9
$UCSORGBOTTOM
 10
0.0
 20
0.0
 30
0.0
  9
$UCSORGLEFT
 10
0.0
 20
0.0
 30
0.0
  9
$UCSORGRIGHT
 10
0.0
 20
0.0
 30
0.0
  9
$UCSORGFRONT
 10
0.0
 20
0.0
 30
0.0
  9
$UCSORGBACK
 10
0.0
 20
0.0
 30
0.0
  9
$PUCSBASE
  2

  9
$PUCSNAME
  2

  9
$PUCSORG
 10
0.0
 20
0.0
 30
0.0
  9
$PUCSXDIR
 10
1.0
 20
0.0
 30
0.0
  9
$PUCSYDIR
 10
0.0
 20
1.0
 30
0.0
  9
$PUCSORTHOREF
  2

  9
$PUCSORTHOVIEW
 70
     0
  9
$PUCSORGTOP
 10
0.0
 20
0.0
 30
0.0
  9
$PUCSORGBOTTOM
 10
0.0
 20
0.0
 30
0.0
  9
$PUCSORGLEFT
 10
0.0
 20
0.0
 30
0.0
  9
$PUCSORGRIGHT
 10
0.0
 20
0.0
 30
0.0
  9
$PUCSORGFRONT
 10
0.0
 20
0.0
 30
0.0
  9
$PUCSORGBACK
 10
0.0
 20
0.0
 30
0.0
  9
$USERI1
 70
     0
  9
$USERI2
 70
     0
  9
$USERI3
 70
     0
  9
$USERI4
 70
     0
  9
$USERI5
 70
     0
  9
$USERR1
 40
0.0
  9
$USERR2
 40
0.0
  9
$USERR3
 40
0.0
  9
$USERR4
 40
0.0
  9
$USERR5
 40
0.0
  9
$WORLDVIEW
 70
     1
  9
$SHADEDGE
 70
     3
  9
$SHADEDIF
 70
    70
  9
$TILEMODE
 70
     1
  9
$MAXACTVP
 70
    64
  9
$PINSBASE
 10
0.0
 20
0.0
 30
0.0
  9
$PLIMCHECK
 70
     0
  9
$PEXTMIN
 10
26.66076962115562
 20
20.31135699206658
 30
-0.001525820700358338
  9
$PEXTMAX
 10
240.039213369355
 20
182.8886381005154
 30
3.49246036535078E-08
  9
$PLIMMIN
 10
-6.350006103515625
 20
-6.349999904632568
  9
$PLIMMAX
 10
273.0499877929688
 20
209.5499939918518
  9
$UNITMODE
 70
     0
  9
$VISRETAIN
 70
     1
  9
$PLINEGEN
 70
     0
  9
$PSLTSCALE
 70
     1
  9
$TREEDEPTH
 70
  3020
  9
$CMLSTYLE
  2
Standard
  9
$CMLJUST
 70
     0
  9
$CMLSCALE
 40
20.0
  9
$PROXYGRAPHICS
 70
     1
  9
$MEASUREMENT
 70
     1
  9
$CELWEIGHT
370
    -1
  9
$ENDCAPS
280
     0
  9
$JOINSTYLE
280
     0
  9
$LWDISPLAY
290
     1
  9
$INSUNITS
 70
     4
  9
$HYPERLINKBASE
  1

  9
$STYLESHEET
  1

  9
$XEDIT
290
     1
  9
$CEPSNTYPE
380
     0
  9
$PSTYLEMODE
290
     0
  9
$FINGERPRINTGUID
  2
{35BD88C3-9548-11D2-9A29-0060089B3A3F}
  9
$VERSIONGUID
  2
{17396C35-78EF-4729-A690-ECF7D4337F15}
  9
$EXTNAMES
290
     1
  9
$PSVPSCALE
 40
0.0
  9
$OLESTARTUP
290
     0
  0
ENDSEC
  0
SECTION
  2
CLASSES
  0
CLASS
  1
ACDBDICTIONARYWDFLT
  2
AcDbDictionaryWithDefault
  3
AutoCAD 2000
 90
        0
280
     0
281
     0
  0
CLASS
  1
ACDBPLACEHOLDER
  2
AcDbPlaceHolder
  3
AutoCAD 2000
 90
        0
280
     0
281
     0
  0
CLASS
  1
LAYOUT
  2
AcDbLayout
  3
AutoCAD 2000
 90
        0
280
     0
281
     0
  0
CLASS
  1
DICTIONARYVAR
  2
AcDbDictionaryVar
  3
AutoCAD 2000
 90
        0
280
     0
281
     0
  0
CLASS
  1
DIMASSOC
  2
AcDbDimAssoc
  3
"AcDbDimAssoc|Product Desc:     AcDim ARX App For Dimension|Company:          Autodesk, Inc.|WEB Address:      www.autodesk.com"
 90
        0
280
     0
281
     0
  0
ENDSEC
  0
SECTION
  2
TABLES
  0
TABLE
  2
VPORT
  5
8
330
0
100
AcDbSymbolTable
 70
     1
  0
VPORT
  5
1D8
330
8
100
AcDbSymbolTableRecord
100
AcDbViewportTableRecord
  2
*Active
 70
     0
 10
0.0
 20
0.0
 11
1.0
 21
1.0
 12
217.4396486917057
 22
153.1371968511256
 13
0.0
 23
0.0
 14
10.0
 24
10.0
 15
10.0
 25
10.0
 16
0.0
 26
0.0
 36
1.0
 17
0.0
 27
0.0
 37
0.0
 40
155.4370095324977
 41
1.855042016806723
 42
50.0
 43
0.0
 44
0.0
 50
0.0
 51
0.0
 71
     0
 72
   100
 73
     1
 74
     3
 75
     0
 76
     0
 77
     0
 78
     0
281
     0
 65
     1
110
0.0
120
0.0
130
0.0
111
1.0
121
0.0
131
0.0
112
0.0
122
1.0
132
0.0
 79
     0
146
0.0
  0
ENDTAB
  0
TABLE
  2
LTYPE
  5
5
330
0
100
AcDbSymbolTable
 70
     4
  0
LTYPE
  5
14
330
5
100
AcDbSymbolTableRecord
100
AcDbLinetypeTableRecord
  2
ByBlock
 70
     0
  3

 72
    65
 73
     0
 40
0.0
  0
LTYPE
  5
15
330
5
100
AcDbSymbolTableRecord
100
AcDbLinetypeTableRecord
  2
ByLayer
 70
     0
  3

 72
    65
 73
     0
 40
0.0
  0
LTYPE
  5
16
330
5
100
AcDbSymbolTableRecord
100
AcDbLinetypeTableRecord
  2
Continuous
 70
     0
  3
Solid line
 72
    65
 73
     0
 40
0.0
  0
LTYPE
  5
91
330
5
100
AcDbSymbolTableRecord
100
AcDbLinetypeTableRecord
  2
ACAD_ISO08W100
 70
     0
  3
ISO long-dash short-dash ____ __ ____ __ ____ _
 72
    65
 73
     4
 40
36.0
 49
24.0
 74
     0
 49
-3.0
 74
     0
 49
6.0
 74
     0
 49
-3.0
 74
     0
  0
LTYPE
  5
92
330
5
100
AcDbSymbolTableRecord
100
AcDbLinetypeTableRecord
  2
ACAD_ISO09W100
 70
     0
  3
ISO long-dash double-short-dash ____ __ __ ____
 72
    65
 73
     6
 40
45.0
 49
24.0
 74
     0
 49
-3.0
 74
     0
 49
6.0
 74
     0
 49
-3.0
 74
     0
 49
6.0
 74
     0
 49
-3.0
 74
     0
  0
LTYPE
  5
93
330
5
100
AcDbSymbolTableRecord
100
AcDbLinetypeTableRecord
  2
ACAD_ISO02W100
 70
     0
  3
ISO dash __ __ __ __ __ __ __ __ __ __ __ __ __
 72
    65
 73
     2
 40
15.0
 49
12.0
 74
     0
 49
-3.0
 74
     0
  0
ENDTAB
  0
TABLE
  2
LAYER
  5
2
330
0
100
AcDbSymbolTable
 70
    11
  0
LAYER
  5
10
330
2
100
AcDbSymbolTableRecord
100
AcDbLayerTableRecord
  2
0
 70
     0
 62
    -7
  6
Continuous
370
    -3
390
F
  0
LAYER
  5
94
330
2
100
AcDbSymbolTableRecord
100
AcDbLayerTableRecord
  2
轮廓线
 70
     0
 62
    -7
  6
Continuous
370
    35
390
F
  0
LAYER
  5
95
330
2
100
AcDbSymbolTableRecord
100
AcDbLayerTableRecord
  2
点划线
 70
     0
 62
    -1
  6
ACAD_ISO08W100
370
    13
390
F
  0
LAYER
  5
96
330
2
100
AcDbSymbolTableRecord
100
AcDbLayerTableRecord
  2
双点划线
 70
     0
 62
    -3
  6
ACAD_ISO09W100
370
    -3
390
F
  0
LAYER
  5
97
330
2
100
AcDbSymbolTableRecord
100
AcDbLayerTableRecord
  2
隐藏线
 70
     0
 62
   -44
  6
ACAD_ISO02W100
370
    13
390
F
  0
LAYER
  5
98
330
2
100
AcDbSymbolTableRecord
100
AcDbLayerTableRecord
  2
剖面线
 70
     0
 62
  -142
  6
Continuous
370
    13
390
F
  0
LAYER
  5
99
330
2
100
AcDbSymbolTableRecord
100
AcDbLayerTableRecord
  2
波浪线
 70
     0
 62
    -7
  6
Continuous
370
    13
390
F
  0
LAYER
  5
9A
330
2
100
AcDbSymbolTableRecord
100
AcDbLayerTableRecord
  2
尺寸层
 70
     0
 62
    -5
  6
Continuous
370
    13
390
F
  0
LAYER
  5
9B
330
2
100
AcDbSymbolTableRecord
100
AcDbLayerTableRecord
  2
文本层
 70
     0
 62
  -212
  6
Continuous
370
    13
390
F
  0
LAYER
  5
9C
330
2
100
AcDbSymbolTableRecord
100
AcDbLayerTableRecord
  2
其它层
 70
     0
 62
    -7
  6
Continuous
370
    -3
390
F
  0
LAYER
  5
C5
330
2
100
AcDbSymbolTableRecord
100
AcDbLayerTableRecord
  2
Defpoints
 70
     0
 62
    -7
  6
Continuous
290
     0
370
    -3
390
F
  0
ENDTAB
  0
TABLE
  2
STYLE
  5
3
330
0
100
AcDbSymbolTable
 70
     4
  0
STYLE
  5
11
330
3
100
AcDbSymbolTableRecord
100
AcDbTextStyleTableRecord
  2
Standard
 70
     0
 40
0.0
 41
1.0
 50
0.0
 71
     0
 42
2.5
  3
txt
  4

  0
STYLE
  5
90
330
3
100
AcDbSymbolTableRecord
100
AcDbTextStyleTableRecord
  2

 70
     1
 40
0.0
 41
1.0
 50
0.0
 71
     0
 42
2.5
  3
ltypeshp.shx
  4

  0
STYLE
  5
9D
330
3
100
AcDbSymbolTableRecord
100
AcDbTextStyleTableRecord
  2
汉字
 70
     0
 40
0.0
 41
0.7
 50
0.0
 71
     0
 42
2.5
  3
SIMFANG.TTF
  4

1001
ACAD
1000
FangSong_GB2312
1071
    34353
  0
STYLE
  5
9F
330
3
100
AcDbSymbolTableRecord
100
AcDbTextStyleTableRecord
  2
数字与字母
 70
     0
 40
0.0
 41
0.7
 50
0.0
 71
     0
 42
2.5
  3
romant.shx
  4

  0
ENDTAB
  0
TABLE
  2
VIEW
  5
6
330
0
100
AcDbSymbolTable
 70
     0
  0
ENDTAB
  0
TABLE
  2
UCS
  5
7
330
0
100
AcDbSymbolTable
 70
     0
  0
ENDTAB
  0
TABLE
  2
APPID
  5
9
330
0
100
AcDbSymbolTable
 70
     1
  0
APPID
  5
12
330
9
100
AcDbSymbolTableRecord
100
AcDbRegAppTableRecord
  2
ACAD
 70
     0
  0
ENDTAB
  0
TABLE
  2
DIMSTYLE
  5
A
330
0
100
AcDbSymbolTable
 70
     3
100
AcDbDimStyleTable
 71
     2
340
A1
340
27
  0
DIMSTYLE
105
27
330
A
100
AcDbSymbolTableRecord
100
AcDbDimStyleTableRecord
  2
ISO-25
 70
     0
 41
2.5
 42
0.625
 43
3.75
 44
1.25
 73
     0
 74
     0
 77
     1
 78
     8
140
2.5
141
2.5
143
0.03937007874016
144
1.0
146
1.0
147
0.625
171
     3
172
     1
176
     0
177
     0
178
     0
271
     2
272
     2
273
     2
274
     3
277
     2
278
    44
283
     0
284
     8
289
     3
340
11
371
    -2
372
    -2
341
0
342
0
343
0
344
0
  0
DIMSTYLE
105
A1
102
{ACAD_REACTORS
330
18E
330
1B0
330
192
330
199
330
19C
330
1A2
330
1A9
330
1A6
330
1B5
102
}
330
A
100
AcDbSymbolTableRecord
100
AcDbDimStyleTableRecord
  2
机械标注
 70
     0
 41
3.5
 43
7.5
 44
2.5
 73
     0
 74
     1
 77
     1
 78
     8
140
5.0
141
2.5
143
0.03937007874016
144
1.0
146
1.0
147
0.625
171
     3
172
     1
176
     0
177
     0
178
     0
271
     1
272
     1
273
     2
274
     3
277
     2
278
    46
283
     0
284
     8
289
     3
340
9F
371
    -2
372
    -2
341
0
342
0
343
0
344
0
  0
DIMSTYLE
105
A2
330
A
100
AcDbSymbolTableRecord
100
AcDbDimStyleTableRecord
  2
机械标注$2
 70
     0
 41
3.5
 43
7.5
 44
2.5
 73
     1
 74
     1
 77
     1
 78
     8
140
5.0
141
2.5
143
0.03937007874016
144
1.0
146
1.0
147
0.625
171
     3
172
     1
176
     0
177
     0
178
     0
271
     1
272
     1
273
     2
274
     3
277
     2
278
    46
283
     0
284
     8
289
     3
340
9F
371
    -2
372
    -2
341
0
342
0
343
0
344
0
  0
ENDTAB
  0
TABLE
  2
BLOCK_RECORD
  5
1
330
0
100
AcDbSymbolTable
 70
    11
  0
BLOCK_RECORD
  5
1F
330
1
100
AcDbSymbolTableRecord
100
AcDbBlockTableRecord
  2
*Model_Space
340
22
  0
BLOCK_RECORD
  5
59
330
1
100
AcDbSymbolTableRecord
100
AcDbBlockTableRecord
  2
*Paper_Space
340
5A
  0
BLOCK_RECORD
  5
5E
330
1
100
AcDbSymbolTableRecord
100
AcDbBlockTableRecord
  2
*Paper_Space0
340
5F
  0
BLOCK_RECORD
  5
C6
330
1
100
AcDbSymbolTableRecord
100
AcDbBlockTableRecord
  2
*D1
340
0
  0
BLOCK_RECORD
  5
DE
330
1
100
AcDbSymbolTableRecord
100
AcDbBlockTableRecord
  2
*D2
340
0
  0
BLOCK_RECORD
  5
F6
330
1
100
AcDbSymbolTableRecord
100
AcDbBlockTableRecord
  2
*D3
340
0
  0
BLOCK_RECORD
  5
106
330
1
100
AcDbSymbolTableRecord
100
AcDbBlockTableRecord
  2
*D4
340
0
  0
BLOCK_RECORD
  5
11A
330
1
100
AcDbSymbolTableRecord
100
AcDbBlockTableRecord
  2
*D5
340
0
  0
BLOCK_RECORD
  5
12E
330
1
100
AcDbSymbolTableRecord
100
AcDbBlockTableRecord
  2
*D6
340
0
  0
BLOCK_RECORD
  5
140
330
1
100
AcDbSymbolTableRecord
100
AcDbBlockTableRecord
  2
*D7
340
0
  0
BLOCK_RECORD
  5
154
330
1
100
AcDbSymbolTableRecord
100
AcDbBlockTableRecord
  2
*D8
340
0
  0
BLOCK_RECORD
  5
16C
330
1
100
AcDbSymbolTableRecord
100
AcDbBlockTableRecord
  2
*D9
340
0
  0
BLOCK_RECORD
  5
18B
330
1
100
AcDbSymbolTableRecord
100
AcDbBlockTableRecord
  2
1
340
0
310
2800000020000000200000000100080000000000000400000000000000000000000000000000000000000000000080000080000000808000800000008000800080800000C0C0C000C0DCC000F0CAA6000020400000206000002080000020A0000020C0000020E00000400000004020000040400000406000004080000040A0
310
000040C0000040E00000600000006020000060400000606000006080000060A0000060C0000060E00000800000008020000080400000806000008080000080A0000080C0000080E00000A0000000A0200000A0400000A0600000A0800000A0A00000A0C00000A0E00000C0000000C0200000C0400000C0600000C0800000C0
310
A00000C0C00000C0E00000E0000000E0200000E0400000E0600000E0800000E0A00000E0C00000E0E00040000000400020004000400040006000400080004000A0004000C0004000E00040200000402020004020400040206000402080004020A0004020C0004020E000404000004040200040404000404060004040800040
310
40A0004040C0004040E00040600000406020004060400040606000406080004060A0004060C0004060E00040800000408020004080400040806000408080004080A0004080C0004080E00040A0000040A0200040A0400040A0600040A0800040A0A00040A0C00040A0E00040C0000040C0200040C0400040C0600040C08000
310
40C0A00040C0C00040C0E00040E0000040E0200040E0400040E0600040E0800040E0A00040E0C00040E0E00080000000800020008000400080006000800080008000A0008000C0008000E00080200000802020008020400080206000802080008020A0008020C0008020E00080400000804020008040400080406000804080
310
008040A0008040C0008040E00080600000806020008060400080606000806080008060A0008060C0008060E00080800000808020008080400080806000808080008080A0008080C0008080E00080A0000080A0200080A0400080A0600080A0800080A0A00080A0C00080A0E00080C0000080C0200080C0400080C0600080C0
310
800080C0A00080C0C00080C0E00080E0000080E0200080E0400080E0600080E0800080E0A00080E0C00080E0E000C0000000C0002000C0004000C0006000C0008000C000A000C000C000C000E000C0200000C0202000C0204000C0206000C0208000C020A000C020C000C020E000C0400000C0402000C0404000C0406000C0
310
408000C040A000C040C000C040E000C0600000C0602000C0604000C0606000C0608000C060A000C060C000C060E000C0800000C0802000C0804000C0806000C0808000C080A000C080C000C080E000C0A00000C0A02000C0A04000C0A06000C0A08000C0A0A000C0A0C000C0A0E000C0C00000C0C02000C0C04000C0C06000
310
C0C08000C0C0A000F0FBFF00A4A0A000808080000000FF0000FF000000FFFF00FF000000FF00FF00FFFF0000FFFFFF0000000000000000000000000000000000000000000000000000000000000000000000000000000000000000000000000000000000000000000000000000000000000000000000000000000000000000
310
00000000000000000000000000000000000000000000000000000000000000000000000000000000000000000000000000000000000000000000C6C6C6C6C6C6C6C6C6C6C6C6C6C6C6C6C6C60000000000000000000000000000C600C6C600C600000000C6C600000000C6C60000000000000000000000000000F900C6C600
310
C600000000C6C60000000000C600000000000000C6C6C600000000F900000000C60000000000000000000000C600000000000000C6C6C6C60000FFF9FFFF0000C6C6C6C60000000000000000C600000000000000C6C6C6C60000FFF90000FF00C6C6C6C60000000000000000C60000000000000000000000C6FF00F9FF0000
310
FFC6C6C6C60000000000000000C600000000000000C6C6C6C6C6FFC6C600FF00C6C6FF00000000000000000000C60000000000000000C6000000FF00F9FF00C6C6C600FFFFFFFFFF0000000000C60000000000000000C6000000FFC6F90000C600F9000000000000FFFFFFFFFFFFC6C6C6C600000000C6000000FFFFF9FFFF
310
FFFFF90000000000000000000000FF0000C6000000C6C6C6000000FFFFF900000000F90000000000000000000000FF00C6C6000000C6C6C6F9F9F9F9F9F9F9F9F9F9F9F9F9F9F9F9F9F9F9F9F9F9F9F9C6C60000000000C6000000FFFFF9FFFFFFFFF90000000000000000000000FF0000C60000000000C6000000FFFFF900
310
000000F900000000000000FFFFFFFFFFC6C6C6C600000000C6000000FF00F9000000000000FFFFFFFFFFFF00000000000000000000000000C6000000FF00F900000000FFFF000000000000000000000000000000000000C6C6C6C6C6FFC6C6FFFF00FFC6C60000000000000000000000000000000000000000000000FFC6F9
310
C600FF00C6C60000000000000000000000000000000000000000000000C6FFF9FFC60000C6C6C6000000000000000000000000000000000000000000C60000F900C6C60000C600C6000000000000000000000000000000000000C6C6000000F9000000C600000000000000000000000000000000000000000000C6C6000000
310
00000000C6C6C60000000000000000000000000000000000000000000000000000000000C6C6C600000000000000000000000000000000000000000000000000000000000000000000000000000000000000000000000000000000000000000000000000000000000000000000000000000000000000000000000000000000
310
0000000000000000000000000000000000000000000000000000000000000000000000000000000000000000000000000000000000000000
102
{BLKREFS
331
1BB
102
}
1001
ACAD
1000
DesignCenter Data
1002
{
1070
     1
1070
     4
1002
}
  0
ENDTAB
  0
ENDSEC
  0
SECTION
  2
BLOCKS
  0
BLOCK
  5
20
330
1F
100
AcDbEntity
  8
0
100
AcDbBlockBegin
  2
*Model_Space
 70
     0
 10
0.0
 20
0.0
 30
0.0
  3
*Model_Space
  1

  0
ENDBLK
  5
21
330
1F
100
AcDbEntity
  8
0
100
AcDbBlockEnd
  0
BLOCK
  5
5B
330
59
100
AcDbEntity
 67
     1
  8
0
100
AcDbBlockBegin
  2
*Paper_Space
 70
     0
 10
0.0
 20
0.0
 30
0.0
  3
*Paper_Space
  1

  0
ENDBLK
  5
5C
330
59
100
AcDbEntity
 67
     1
  8
0
100
AcDbBlockEnd
  0
BLOCK
  5
60
330
5E
100
AcDbEntity
  8
0
100
AcDbBlockBegin
  2
*Paper_Space0
 70
     0
 10
0.0
 20
0.0
 30
0.0
  3
*Paper_Space0
  1

  0
VIEWPORT
  5
1C4
330
5E
100
AcDbEntity
  8
0
100
AcDbViewport
 10
133.3499908447266
 20
101.5999970436096
 30
0.0
 40
423.7327665924585
 41
228.4221935424805
 68
     0
 69
     0
 12
133.3499908447266
 22
101.5999970436096
 13
0.0
 23
0.0
 14
10.0
 24
10.0
 15
10.0
 25
10.0
 16
0.0
 26
0.0
 36
1.0
 17
0.0
 27
0.0
 37
0.0
 42
50.0
 43
0.0
 44
0.0
 45
228.4221935424805
 50
0.0
 51
0.0
 72
   100
 90
    32800
  1

281
     0
 71
     1
 74
     0
110
0.0
120
0.0
130
0.0
111
1.0
121
0.0
131
0.0
112
0.0
122
1.0
132
0.0
 79
     0
146
0.0
348
0
340
0
345
0
346
0
  0
VIEWPORT
  5
1C6
330
5E
100
AcDbEntity
  8
文本层
100
AcDbViewport
 10
133.3499939441681
 20
101.5999939441681
 30
0.0
 40
213.3599903106689
 41
162.5599903106689
 68
     0
 69
     0
 12
213.2844553274155
 22
164.4294898457936
 13
0.0
 23
0.0
 14
10.0
 24
10.0
 15
10.0
 25
10.0
 16
0.0
 26
0.0
 36
1.0
 17
0.0
 27
0.0
 37
0.0
 42
50.0
 43
0.0
 44
0.0
 45
103.136534869349
 50
0.0
 51
0.0
 72
   100
 90
    32864
  1

281
     0
 71
     1
 74
     0
110
0.0
120
0.0
130
0.0
111
1.0
121
0.0
131
0.0
112
0.0
122
1.0
132
0.0
 79
     0
146
0.0
348
0
340
0
345
0
346
0
  0
ENDBLK
  5
61
330
5E
100
AcDbEntity
  8
0
100
AcDbBlockEnd
  0
BLOCK
  5
D0
330
C6
100
AcDbEntity
  8
0
100
AcDbBlockBegin
  2
*D1
 70
     1
 10
0.0
 20
0.0
 30
0.0
  3
*D1
  1

  0
LINE
  5
D3
330
C6
100
AcDbEntity
  8
文本层
370
    -2
 62
     0
100
AcDbLine
 10
124.2305242037392
 20
70.0000001414556
 30
0.0
 11
141.3681833189969
 21
70.0000001414556
 31
0.0
  0
LINE
  5
D4
330
C6
100
AcDbEntity
  8
文本层
370
    -2
 62
     0
100
AcDbLine
 10
124.2305242037392
 20
50.00000014145559
 30
0.0
 11
141.3681833189968
 21
50.00000014145559
 31
0.0
  0
LINE
  5
D5
330
C6
100
AcDbEntity
  8
文本层
370
    -2
 62
     0
100
AcDbLine
 10
138.8681833189969
 20
66.5000001414556
 30
0.0
 11
138.8681833189968
 21
53.50000014145559
 31
0.0
  0
SOLID
  5
D6
330
C6
100
AcDbEntity
  8
文本层
 62
     0
100
AcDbTrace
 38
0.0
 10
138.2848499856635
 20
66.5000001414556
 11
139.4515166523302
 21
66.5000001414556
 12
138.8681833189969
 22
70.0000001414556
 13
138.8681833189969
 23
70.0000001414556
  0
SOLID
  5
D7
330
C6
100
AcDbEntity
  8
文本层
 62
     0
100
AcDbTrace
 38
0.0
 10
138.2848499856635
 20
53.50000014145559
 11
139.4515166523302
 21
53.50000014145559
 12
138.8681833189968
 22
50.00000014145559
 13
138.8681833189968
 23
50.00000014145559
  0
MTEXT
  5
D8
330
C6
100
AcDbEntity
  8
文本层
 62
     0
100
AcDbMText
 10
135.7431833189968
 20
60.00000014145562
 30
0.0
210
0.0
220
0.0
230
1.0
 11
6.123031769111886E-17
 21
1.0
 31
0.0
 40
5.0
 41
0.0
 71
     5
 72
     1
  1
20
  7
数字与字母
 73
     1
 44
1.0
  0
POINT
  5
D9
330
C6
100
AcDbEntity
  8
Defpoints
 62
     0
100
AcDbPoint
 10
124.2305242037392
 20
70.0000001414556
 30
0.0
 50
0.0
  0
POINT
  5
DA
330
C6
100
AcDbEntity
  8
Defpoints
 62
     0
100
AcDbPoint
 10
124.2305242037392
 20
50.00000014145559
 30
0.0
 50
0.0
  0
POINT
  5
DB
330
C6
100
AcDbEntity
  8
Defpoints
 62
     0
100
AcDbPoint
 10
138.8681833189968
 20
50.00000014145559
 30
0.0
 50
0.0
  0
ENDBLK
  5
D1
330
C6
100
AcDbEntity
  8
0
100
AcDbBlockEnd
  0
BLOCK
  5
E8
330
DE
100
AcDbEntity
  8
0
100
AcDbBlockBegin
  2
*D2
 70
     1
 10
0.0
 20
0.0
 30
0.0
  3
*D2
  1

  0
LINE
  5
EB
330
DE
100
AcDbEntity
  8
文本层
370
    -2
 62
     0
100
AcDbLine
 10
54.23052420373921
 20
82.00000014145559
 30
0.0
 11
22.86225895898554
 21
82.0000001414556
 31
0.0
  0
LINE
  5
EC
330
DE
100
AcDbEntity
  8
文本层
370
    -2
 62
     0
100
AcDbLine
 10
54.23052420373921
 20
38.00000014145559
 30
0.0
 11
22.86225895898553
 21
38.00000014145559
 31
0.0
  0
LINE
  5
ED
330
DE
100
AcDbEntity
  8
文本层
370
    -2
 62
     0
100
AcDbLine
 10
25.36225895898554
 20
78.5000001414556
 30
0.0
 11
25.36225895898554
 21
41.50000014145559
 31
0.0
  0
SOLID
  5
EE
330
DE
100
AcDbEntity
  8
文本层
 62
     0
100
AcDbTrace
 38
0.0
 10
24.77892562565221
 20
78.5000001414556
 11
25.94559229231887
 21
78.5000001414556
 12
25.36225895898554
 22
82.0000001414556
 13
25.36225895898554
 23
82.0000001414556
  0
SOLID
  5
EF
330
DE
100
AcDbEntity
  8
文本层
 62
     0
100
AcDbTrace
 38
0.0
 10
24.7789256256522
 20
41.50000014145559
 11
25.94559229231887
 21
41.50000014145559
 12
25.36225895898553
 22
38.00000014145559
 13
25.36225895898553
 23
38.00000014145559
  0
MTEXT
  5
F0
330
DE
100
AcDbEntity
  8
文本层
 62
     0
100
AcDbMText
 10
22.23725895898553
 20
60.0000001414556
 30
0.0
210
0.0
220
0.0
230
1.0
 11
6.123031769111886E-17
 21
1.0
 31
0.0
 40
5.0
 41
0.0
 71
     5
 72
     1
  1
44
  7
数字与字母
 73
     1
 44
1.0
  0
POINT
  5
F1
330
DE
100
AcDbEntity
  8
Defpoints
 62
     0
100
AcDbPoint
 10
54.23052420373921
 20
82.00000014145559
 30
0.0
 50
0.0
  0
POINT
  5
F2
330
DE
100
AcDbEntity
  8
Defpoints
 62
     0
100
AcDbPoint
 10
54.23052420373921
 20
38.00000014145559
 30
0.0
 50
0.0
  0
POINT
  5
F3
330
DE
100
AcDbEntity
  8
Defpoints
 62
     0
100
AcDbPoint
 10
25.36225895898553
 20
38.00000014145559
 30
0.0
 50
0.0
  0
ENDBLK
  5
E9
330
DE
100
AcDbEntity
  8
0
100
AcDbBlockEnd
  0
BLOCK
  5
FC
330
F6
100
AcDbEntity
  8
0
100
AcDbBlockBegin
  2
*D3
 70
     1
 10
0.0
 20
0.0
 30
0.0
  3
*D3
  1

  0
LINE
  5
FF
330
F6
100
AcDbEntity
  8
文本层
370
    -2
 62
     0
100
AcDbLine
 10
83.41801789438665
 20
92.53124258844777
 30
0.0
 11
74.19726632103695
 21
81.66661003954995
 31
0.0
  0
MTEXT
  5
100
330
F6
100
AcDbEntity
  8
文本层
 62
     0
100
AcDbMText
 10
77.55742025073332
 20
90.45527407731741
 30
0.0
210
0.0
220
0.0
230
1.0
 11
0.6470702858491005
 21
0.7624303543086171
 31
0.0
 40
5.0
 41
0.0
 71
     5
 72
     1
  1
R20
  7
数字与字母
 73
     1
 44
1.0
  0
SOLID
  5
101
330
F6
100
AcDbEntity
  8
文本层
 62
     0
100
AcDbTrace
 38
0.0
 10
73.75251528102359
 20
82.04406770629527
 11
74.64201736105031
 21
81.28915237280465
 12
71.9325203205651
 22
78.9981037994698
 13
71.9325203205651
 23
78.9981037994698
  0
POINT
  5
102
330
F6
100
AcDbEntity
  8
Defpoints
 62
     0
100
AcDbPoint
 10
71.9325203205651
 20
78.9981037994698
 30
0.0
 50
0.0
  0
POINT
  5
103
330
F6
100
AcDbEntity
  8
Defpoints
 62
     0
100
AcDbPoint
 10
84.87392603754722
 20
94.24671088564227
 30
0.0
 50
0.0
  0
ENDBLK
  5
FD
330
F6
100
AcDbEntity
  8
0
100
AcDbBlockEnd
  0
BLOCK
  5
10E
330
106
100
AcDbEntity
  8
0
100
AcDbBlockBegin
  2
*D4
 70
     1
 10
0.0
 20
0.0
 30
0.0
  3
*D4
  1

  0
LINE
  5
111
330
106
100
AcDbEntity
  8
文本层
370
    -2
 62
     0
100
AcDbLine
 10
79.54652228999856
 20
104.5722790683135
 30
0.0
 11
69.42152228999856
 21
104.5722790683134
 31
0.0
  0
LINE
  5
112
330
106
100
AcDbEntity
  8
文本层
370
    -2
 62
     0
100
AcDbLine
 10
69.42152228999856
 20
104.5722790683134
 30
0.0
 11
63.44294881253994
 21
95.68872662813661
 31
0.0
  0
MTEXT
  5
113
330
106
100
AcDbEntity
  8
文本层
 62
     0
100
AcDbMText
 10
74.79652228999856
 20
107.6972790683135
 30
0.0
210
0.0
220
0.0
230
1.0
 11
1.0
 21
0.0
 31
0.0
 40
5.0
 41
0.0
 71
     5
 72
     1
  1
R13
  7
数字与字母
 73
     1
 44
1.0
  0
LINE
  5
114
330
106
100
AcDbEntity
  8
文本层
370
    -2
 62
     0
100
AcDbLine
 10
54.2305242037392
 20
82.00000014145552
 30
0.0
 11
61.48879813794585
 21
92.7850573733861
 31
0.0
  0
SOLID
  5
115
330
106
100
AcDbEntity
  8
文本层
 62
     0
100
AcDbTrace
 38
0.0
 10
62.95900393674818
 20
96.01441840723562
 11
63.9268936883317
 21
95.36303484903759
 12
61.48879813794585
 22
92.7850573733861
 13
61.48879813794585
 23
92.7850573733861
  0
POINT
  5
116
330
106
100
AcDbEntity
  8
Defpoints
 62
     0
100
AcDbPoint
 10
61.48879813794585
 20
92.7850573733861
 30
0.0
 50
0.0
  0
POINT
  5
117
330
106
100
AcDbEntity
  8
Defpoints
 62
     0
100
AcDbPoint
 10
54.2305242037392
 20
82.00000014145552
 30
0.0
 50
0.0
  0
ENDBLK
  5
10F
330
106
100
AcDbEntity
  8
0
100
AcDbBlockEnd
  0
BLOCK
  5
122
330
11A
100
AcDbEntity
  8
0
100
AcDbBlockBegin
  2
*D5
 70
     1
 10
0.0
 20
0.0
 30
0.0
  3
*D5
  1

  0
LINE
  5
125
330
11A
100
AcDbEntity
  8
文本层
370
    -2
 62
     0
100
AcDbLine
 10
30.18416841573616
 20
98.78400508535002
 30
0.0
 11
36.97583508240282
 21
98.78400508535002
 31
0.0
  0
LINE
  5
126
330
11A
100
AcDbEntity
  8
文本层
370
    -2
 62
     0
100
AcDbLine
 10
36.97583508240282
 20
98.78400508535002
 30
0.0
 11
48.13758764720306
 21
87.92672977237561
 31
0.0
  0
MTEXT
  5
127
330
11A
100
AcDbEntity
  8
文本层
 62
     0
100
AcDbMText
 10
33.26750174906948
 20
101.90900508535
 30
0.0
210
0.0
220
0.0
230
1.0
 11
1.0
 21
0.0
 31
0.0
 40
5.0
 41
0.0
 71
     5
 72
     1
  1
R5
  7
数字与字母
 73
     1
 44
1.0
  0
LINE
  5
128
330
11A
100
AcDbEntity
  8
文本层
370
    -2
 62
     0
100
AcDbLine
 10
54.2305242037392
 20
82.00000014145562
 30
0.0
 11
50.646443876365
 21
85.48631168905561
 31
0.0
  0
SOLID
  5
129
330
11A
100
AcDbEntity
  8
文本层
 62
     0
100
AcDbTrace
 38
0.0
 10
48.54432399442305
 20
88.34487247723594
 11
47.73085129998306
 21
87.50858706751529
 12
50.646443876365
 22
85.48631168905561
 13
50.646443876365
 23
85.48631168905561
  0
POINT
  5
12A
330
11A
100
AcDbEntity
  8
Defpoints
 62
     0
100
AcDbPoint
 10
50.646443876365
 20
85.48631168905561
 30
0.0
 50
0.0
  0
POINT
  5
12B
330
11A
100
AcDbEntity
  8
Defpoints
 62
     0
100
AcDbPoint
 10
54.2305242037392
 20
82.00000014145562
 30
0.0
 50
0.0
  0
ENDBLK
  5
123
330
11A
100
AcDbEntity
  8
0
100
AcDbBlockEnd
  0
BLOCK
  5
135
330
12E
100
AcDbEntity
  8
0
100
AcDbBlockBegin
  2
*D6
 70
     1
 10
0.0
 20
0.0
 30
0.0
  3
*D6
  1

  0
LINE
  5
138
330
12E
100
AcDbEntity
  8
文本层
370
    -2
 62
     0
100
AcDbLine
 10
86.7888628987163
 20
28.45647527288337
 30
0.0
 11
76.6638628987163
 21
28.45647527288337
 31
0.0
  0
LINE
  5
139
330
12E
100
AcDbEntity
  8
文本层
370
    -2
 62
     0
100
AcDbLine
 10
76.6638628987163
 20
28.45647527288337
 30
0.0
 11
63.98139207659852
 21
50.43098208991817
 31
0.0
  0
MTEXT
  5
13A
330
12E
100
AcDbEntity
  8
文本层
 62
     0
100
AcDbMText
 10
82.0388628987163
 20
31.58147527288338
 30
0.0
210
0.0
220
0.0
230
1.0
 11
1.0
 21
0.0
 31
0.0
 40
5.0
 41
0.0
 71
     5
 72
     1
  1
R10
  7
数字与字母
 73
     1
 44
1.0
  0
SOLID
  5
13B
330
12E
100
AcDbEntity
  8
文本层
 62
     0
100
AcDbTrace
 38
0.0
 10
64.48661852165277
 20
50.722570870559
 11
63.47616563154427
 21
50.13939330927733
 12
62.23185939275348
 22
53.46234076024373
 13
62.23185939275348
 23
53.46234076024373
  0
POINT
  5
13C
330
12E
100
AcDbEntity
  8
Defpoints
 62
     0
100
AcDbPoint
 10
62.23185939275348
 20
53.46234076024373
 30
0.0
 50
0.0
  0
POINT
  5
13D
330
12E
100
AcDbEntity
  8
Defpoints
 62
     0
100
AcDbPoint
 10
67.23052420373935
 20
44.80131598788485
 30
0.0
 50
0.0
  0
ENDBLK
  5
136
330
12E
100
AcDbEntity
  8
0
100
AcDbBlockEnd
  0
BLOCK
  5
148
330
140
100
AcDbEntity
  8
0
100
AcDbBlockBegin
  2
*D7
 70
     1
 10
0.0
 20
0.0
 30
0.0
  3
*D7
  1

  0
LINE
  5
14B
330
140
100
AcDbEntity
  8
文本层
370
    -2
 62
     0
100
AcDbLine
 10
21.92604344748226
 20
24.11526999784423
 30
0.0
 11
32.05104344748226
 21
24.11526999784423
 31
0.0
  0
LINE
  5
14C
330
140
100
AcDbEntity
  8
文本层
370
    -2
 62
     0
100
AcDbLine
 10
32.05104344748226
 20
24.11526999784423
 30
0.0
 11
47.13280734602684
 21
48.51642859738683
 31
0.0
  0
MTEXT
  5
14D
330
140
100
AcDbEntity
  8
文本层
 62
     0
100
AcDbMText
 10
26.67604344748226
 20
27.24026999784423
 30
0.0
210
0.0
220
0.0
230
1.0
 11
1.0
 21
0.0
 31
0.0
 40
5.0
 41
0.0
 71
     5
 72
     1
  1
R10
  7
数字与字母
 73
     1
 44
1.0
  0
LINE
  5
14E
330
140
100
AcDbEntity
  8
文本层
370
    -2
 62
     0
100
AcDbLine
 10
54.23052420373929
 20
60.00000014145552
 30
0.0
 11
48.97295616098933
 21
51.49365084955279
 31
0.0
  0
SOLID
  5
14F
330
140
100
AcDbEntity
  8
文本层
 62
     0
100
AcDbTrace
 38
0.0
 10
46.63660363733251
 20
48.82312006654725
 11
47.62901105472116
 21
48.20973712822641
 12
48.97295616098933
 22
51.49365084955279
 13
48.97295616098933
 23
51.49365084955279
  0
POINT
  5
150
330
140
100
AcDbEntity
  8
Defpoints
 62
     0
100
AcDbPoint
 10
48.97295616098933
 20
51.49365084955279
 30
0.0
 50
0.0
  0
POINT
  5
151
330
140
100
AcDbEntity
  8
Defpoints
 62
     0
100
AcDbPoint
 10
54.23052420373929
 20
60.00000014145552
 30
0.0
 50
0.0
  0
ENDBLK
  5
149
330
140
100
AcDbEntity
  8
0
100
AcDbBlockEnd
  0
BLOCK
  5
15E
330
154
100
AcDbEntity
  8
0
100
AcDbBlockBegin
  2
*D8
 70
     1
 10
0.0
 20
0.0
 30
0.0
  3
*D8
  1

  0
LINE
  5
161
330
154
100
AcDbEntity
  8
文本层
370
    -2
 62
     0
100
AcDbLine
 10
54.23052420373921
 20
60.00000014145559
 30
0.0
 11
54.23052420373921
 21
8.881066952413562
 31
0.0
  0
LINE
  5
162
330
154
100
AcDbEntity
  8
文本层
370
    -2
 62
     0
100
AcDbLine
 10
72.23052420373921
 20
60.00000014145559
 30
0.0
 11
72.23052420373921
 21
8.881066952413562
 31
0.0
  0
LINE
  5
163
330
154
100
AcDbEntity
  8
文本层
370
    -2
 62
     0
100
AcDbLine
 10
57.73052420373921
 20
11.38106695241356
 30
0.0
 11
68.73052420373921
 21
11.38106695241356
 31
0.0
  0
SOLID
  5
164
330
154
100
AcDbEntity
  8
文本层
 62
     0
100
AcDbTrace
 38
0.0
 10
57.73052420373921
 20
11.9644002857469
 11
57.73052420373921
 21
10.79773361908023
 12
54.23052420373921
 22
11.38106695241356
 13
54.23052420373921
 23
11.38106695241356
  0
SOLID
  5
165
330
154
100
AcDbEntity
  8
文本层
 62
     0
100
AcDbTrace
 38
0.0
 10
68.73052420373921
 20
11.9644002857469
 11
68.73052420373921
 21
10.79773361908023
 12
72.23052420373921
 22
11.38106695241356
 13
72.23052420373921
 23
11.38106695241356
  0
MTEXT
  5
166
330
154
100
AcDbEntity
  8
文本层
 62
     0
100
AcDbMText
 10
63.23052420373921
 20
14.50606695241356
 30
0.0
210
0.0
220
0.0
230
1.0
 11
1.0
 21
0.0
 31
0.0
 40
5.0
 41
0.0
 71
     5
 72
     1
  1
18
  7
数字与字母
 73
     1
 44
1.0
  0
POINT
  5
167
330
154
100
AcDbEntity
  8
Defpoints
 62
     0
100
AcDbPoint
 10
54.23052420373921
 20
60.00000014145559
 30
0.0
 50
0.0
  0
POINT
  5
168
330
154
100
AcDbEntity
  8
Defpoints
 62
     0
100
AcDbPoint
 10
72.23052420373921
 20
60.00000014145559
 30
0.0
 50
0.0
  0
POINT
  5
169
330
154
100
AcDbEntity
  8
Defpoints
 62
     0
100
AcDbPoint
 10
72.23052420373921
 20
11.38106695241356
 30
0.0
 50
0.0
  0
ENDBLK
  5
15F
330
154
100
AcDbEntity
  8
0
100
AcDbBlockEnd
  0
BLOCK
  5
176
330
16C
100
AcDbEntity
  8
0
100
AcDbBlockBegin
  2
*D9
 70
     1
 10
0.0
 20
0.0
 30
0.0
  3
*D9
  1

  0
LINE
  5
179
330
16C
100
AcDbEntity
  8
文本层
370
    -2
 62
     0
100
AcDbLine
 10
72.23052420373921
 20
34.44053354693457
 30
0.0
 11
72.23052420373921
 21
9.078398927196503
 31
0.0
  0
LINE
  5
17A
330
16C
100
AcDbEntity
  8
文本层
370
    -2
 62
     0
100
AcDbLine
 10
124.2305242037392
 20
50.00000014145559
 30
0.0
 11
124.2305242037392
 21
9.078398927196503
 31
0.0
  0
LINE
  5
17B
330
16C
100
AcDbEntity
  8
文本层
370
    -2
 62
     0
100
AcDbLine
 10
75.73052420373921
 20
11.5783989271965
 30
0.0
 11
120.7305242037392
 21
11.5783989271965
 31
0.0
  0
SOLID
  5
17C
330
16C
100
AcDbEntity
  8
文本层
 62
     0
100
AcDbTrace
 38
0.0
 10
75.73052420373921
 20
12.16173226052984
 11
75.73052420373921
 21
10.99506559386317
 12
72.23052420373921
 22
11.5783989271965
 13
72.23052420373921
 23
11.5783989271965
  0
SOLID
  5
17D
330
16C
100
AcDbEntity
  8
文本层
 62
     0
100
AcDbTrace
 38
0.0
 10
120.7305242037392
 20
12.16173226052984
 11
120.7305242037392
 21
10.99506559386317
 12
124.2305242037392
 22
11.5783989271965
 13
124.2305242037392
 23
11.5783989271965
  0
MTEXT
  5
17E
330
16C
100
AcDbEntity
  8
文本层
 62
     0
100
AcDbMText
 10
98.23052420373921
 20
14.7033989271965
 30
0.0
210
0.0
220
0.0
230
1.0
 11
1.0
 21
0.0
 31
0.0
 40
5.0
 41
0.0
 71
     5
 72
     1
  1
52
  7
数字与字母
 73
     1
 44
1.0
  0
POINT
  5
17F
330
16C
100
AcDbEntity
  8
Defpoints
 62
     0
100
AcDbPoint
 10
72.23052420373921
 20
34.44053354693457
 30
0.0
 50
0.0
  0
POINT
  5
180
330
16C
100
AcDbEntity
  8
Defpoints
 62
     0
100
AcDbPoint
 10
124.2305242037392
 20
50.00000014145559
 30
0.0
 50
0.0
  0
POINT
  5
181
330
16C
100
AcDbEntity
  8
Defpoints
 62
     0
100
AcDbPoint
 10
124.2305242037392
 20
11.5783989271965
 30
0.0
 50
0.0
  0
ENDBLK
  5
177
330
16C
100
AcDbEntity
  8
0
100
AcDbBlockEnd
  0
BLOCK
  5
18C
330
18B
100
AcDbEntity
  8
0
100
AcDbBlockBegin
  2
1
 70
     0
 10
0.0
 20
0.0
 30
0.0
  3
1
  1

  0
DIMENSION
  5
18E
102
{ACAD_REACTORS
330
190
102
}
102
{ACAD_XDICTIONARY
360
18F
102
}
330
18B
100
AcDbEntity
  8
文本层
100
AcDbDimension
  2
*D1
 10
84.63765911525751
 20
-9.999999999999993
 30
0.0
 11
81.51265911525751
 21
3.552713678800501E-14
 31
0.0
 71
     5
 42
20.00000000000001
 12
-54.23052420373934
 22
-60.00000014145559
  3
机械标注
100
AcDbAlignedDimension
 13
69.99999999999987
 23
10.00000000000001
 33
0.0
 14
69.99999999999987
 24
-9.999999999999993
 34
0.0
 52
0.0
 50
90.0
100
AcDbRotatedDimension
  0
LINE
  5
191
102
{ACAD_REACTORS
330
190
102
}
330
18B
100
AcDbEntity
  8
轮廓线
100
AcDbLine
 10
69.99999999999989
 20
-9.999999999999993
 30
0.0
 11
69.99999999999987
 21
10.00000000000001
 31
0.0
  0
DIMENSION
  5
192
102
{ACAD_REACTORS
330
194
102
}
102
{ACAD_XDICTIONARY
360
193
102
}
330
18B
100
AcDbEntity
  8
文本层
100
AcDbDimension
  2
*D3
 10
30.64340183380789
 20
34.24671074418669
 30
0.0
 11
25.70949090420841
 21
28.43317929258338
 31
0.0
 70
   132
 71
     5
 42
20.00000000000017
 12
-54.23052420373934
 22
-60.00000014145559
  3
机械标注
100
AcDbRadialDimension
 15
17.70199611682577
 25
18.99810365801422
 35
0.0
 40
0.0
1001
ACAD
1000
DSTYLE
1002
{
1070
   288
1070
     1
1002
}
  0
ARC
  5
195
102
{ACAD_REACTORS
330
19B
102
}
330
18B
100
AcDbEntity
  8
轮廓线
100
AcDbCircle
 10
-1.27897692436818E-13
 20
22.0
 30
0.0
 40
13.0
100
AcDbArc
 50
21.78424112374287
 51
160.8308442810705
  0
CIRCLE
  5
196
102
{ACAD_REACTORS
330
1B2
330
19E
102
}
330
18B
100
AcDbEntity
  8
轮廓线
100
AcDbCircle
 10
-1.27897692436818E-13
 20
22.0
 30
0.0
 40
5.0
  0
ARC
  5
197
330
18B
100
AcDbEntity
  8
轮廓线
100
AcDbCircle
 10
12.99999999999987
 20
15.19868415357067
 30
0.0
 40
10.0
100
AcDbArc
 50
229.4583981264956
 51
288.209956864283
  0
ARC
  5
198
102
{ACAD_REACTORS
330
194
102
}
330
18B
100
AcDbEntity
  8
轮廓线
100
AcDbCircle
 10
30.64340183380786
 20
34.24671074418652
 30
0.0
 40
20.0
100
AcDbArc
 50
201.7842411237429
 51
263.9999999999999
  0
DIMENSION
  5
199
102
{ACAD_REACTORS
330
19B
102
}
102
{ACAD_XDICTIONARY
360
19A
102
}
330
18B
100
AcDbEntity
  8
文本层
100
AcDbDimension
  2
*D4
 10
-1.35003119794419E-13
 20
21.99999999999993
 30
0.0
 11
20.56599808625923
 21
44.57227892685788
 31
0.0
 70
   132
 71
     5
 42
13.00000000000006
 12
-54.23052420373934
 22
-60.00000014145559
  3
机械标注
100
AcDbRadialDimension
 15
7.258273934206514
 25
32.78505723193051
 35
0.0
 40
0.0
1001
ACAD
1000
DSTYLE
1002
{
1070
   288
1070
     1
1002
}
  0
DIMENSION
  5
19C
102
{ACAD_REACTORS
330
19E
102
}
102
{ACAD_XDICTIONARY
360
19D
102
}
330
18B
100
AcDbEntity
  8
文本层
100
AcDbDimension
  2
*D5
 10
-1.35003119794419E-13
 20
22.00000000000003
 30
0.0
 11
-20.96302245466985
 21
38.78400494389443
 31
0.0
 70
   132
 71
     5
 42
4.999999999999993
 12
-54.23052420373934
 22
-60.00000014145559
  3
机械标注
100
AcDbRadialDimension
 15
-3.584080327374338
 25
25.48631154760002
 35
0.0
 40
0.0
1001
ACAD
1000
DSTYLE
1002
{
1070
   288
1070
     1
1002
}
  0
ARC
  5
19F
330
18B
100
AcDbEntity
  8
轮廓线
100
AcDbCircle
 10
-1.27897692436818E-13
 20
-22.0
 30
0.0
 40
13.0
100
AcDbArc
 50
199.1691557189295
 51
338.2157588762572
  0
CIRCLE
  5
1A0
102
{ACAD_REACTORS
330
1B2
102
}
330
18B
100
AcDbEntity
  8
轮廓线
100
AcDbCircle
 10
-1.27897692436818E-13
 20
-22.0
 30
0.0
 40
5.0
  0
ARC
  5
1A1
102
{ACAD_REACTORS
330
1A4
102
}
330
18B
100
AcDbEntity
  8
轮廓线
100
AcDbCircle
 10
12.99999999999987
 20
-15.19868415357067
 30
0.0
 40
10.0
100
AcDbArc
 50
71.79004313571696
 51
130.5416018735044
  0
DIMENSION
  5
1A2
102
{ACAD_REACTORS
330
1A4
102
}
102
{ACAD_XDICTIONARY
360
1A3
102
}
330
18B
100
AcDbEntity
  8
文本层
100
AcDbDimension
  2
*D6
 10
13.00000000000001
 20
-15.19868415357074
 30
0.0
 11
22.43333869497697
 21
-31.54352486857221
 31
0.0
 70
   132
 71
     5
 42
10.00000000000013
 12
-54.23052420373934
 22
-60.00000014145559
  3
机械标注
100
AcDbRadialDimension
 15
8.001335189014149
 25
-6.537659381211853
 35
0.0
 40
0.0
1001
ACAD
1000
DSTYLE
1002
{
1070
   279
1070
     1
1070
   288
1070
     1
1002
}
  0
ARC
  5
1A5
330
18B
100
AcDbEntity
  8
轮廓线
100
AcDbCircle
 10
30.64340183380786
 20
-34.24671074418652
 30
0.0
 40
20.0
100
AcDbArc
 50
96.00000000000013
 51
158.2157588762572
  0
DIMENSION
  5
1A6
102
{ACAD_REACTORS
330
1A8
102
}
102
{ACAD_XDICTIONARY
360
1A7
102
}
330
18B
100
AcDbEntity
  8
文本层
100
AcDbDimension
  2
*D8
 10
17.99999999999987
 20
-48.61893318904202
 30
0.0
 11
8.999999999999872
 21
-45.49393318904202
 31
0.0
 71
     5
 42
18.0
 12
-54.23052420373934
 22
-60.00000014145559
  3
机械标注
100
AcDbAlignedDimension
 13
-1.27897692436818E-13
 23
0.0
 33
0.0
 14
17.99999999999987
 24
0.0
 34
0.0
 52
0.0
100
AcDbRotatedDimension
  0
DIMENSION
  5
1A9
102
{ACAD_REACTORS
330
1AB
102
}
102
{ACAD_XDICTIONARY
360
1AA
102
}
330
18B
100
AcDbEntity
  8
文本层
100
AcDbDimension
  2
*D7
 10
-4.263256414560601E-14
 20
-6.394884621840902E-14
 30
0.0
 11
-27.55448075625707
 21
-35.88473014361136
 31
0.0
 70
   132
 71
     5
 42
10.0
 12
-54.23052420373934
 22
-60.00000014145559
  3
机械标注
100
AcDbRadialDimension
 15
-5.257568042750009
 25
-8.506349291902794
 35
0.0
 40
0.0
1001
ACAD
1000
DSTYLE
1002
{
1070
   288
1070
     1
1002
}
  0
ARC
  5
1AC
330
18B
100
AcDbEntity
  8
轮廓线
100
AcDbCircle
 10
17.99999999999987
 20
0.0
 30
0.0
 40
6.0
100
AcDbArc
 50
251.790043135717
 51
108.209956864283
  0
ARC
  5
1AD
102
{ACAD_REACTORS
330
1AB
330
1A8
102
}
330
18B
100
AcDbEntity
  8
轮廓线
100
AcDbCircle
 10
-1.27897692436818E-13
 20
0.0
 30
0.0
 40
10.0
100
AcDbArc
 50
49.45839812649555
 51
310.5416018735044
  0
LINE
  5
1AE
102
{ACAD_REACTORS
330
1A8
102
}
330
18B
100
AcDbEntity
  8
点划线
100
AcDbLine
 10
17.99999999999987
 20
-10.86823593185511
 30
0.0
 11
17.99999999999987
 21
10.60124103545485
 31
0.0
  0
LINE
  5
1AF
330
18B
100
AcDbEntity
  8
点划线
100
AcDbLine
 10
-1.27897692436818E-13
 20
-43.43578193199841
 30
0.0
 11
-1.27897692436818E-13
 21
41.74735962918652
 31
0.0
  0
DIMENSION
  5
1B0
102
{ACAD_REACTORS
330
1B2
102
}
102
{ACAD_XDICTIONARY
360
1B1
102
}
330
18B
100
AcDbEntity
  8
文本层
100
AcDbDimension
  2
*D2
 10
-28.8682652447538
 20
-21.99999999999999
 30
0.0
 11
-31.99326524475381
 21
1.4210854715202E-14
 31
0.0
 71
     5
 42
44.0
 12
-54.23052420373934
 22
-60.00000014145559
  3
机械标注
100
AcDbAlignedDimension
 13
-1.27897692436818E-13
 23
22.0
 33
0.0
 14
-1.27897692436818E-13
 24
-22.0
 34
0.0
 52
0.0
 50
90.0
100
AcDbRotatedDimension
  0
ARC
  5
1B3
330
18B
100
AcDbEntity
  8
轮廓线
100
AcDbCircle
 10
63.28506932918684
 20
0.0
 30
0.0
 40
80.0
100
AcDbArc
 50
160.8308442810705
 51
199.1691557189295
  0
LINE
  5
1B4
102
{ACAD_REACTORS
330
1A8
102
}
330
18B
100
AcDbEntity
  8
点划线
100
AcDbLine
 10
-21.71493067081315
 20
0.0
 30
0.0
 11
77.16034540852444
 21
0.0
 31
0.0
  0
DIMENSION
  5
1B5
102
{ACAD_REACTORS
330
1B7
102
}
102
{ACAD_XDICTIONARY
360
1B6
102
}
330
18B
100
AcDbEntity
  8
文本层
100
AcDbDimension
  2
*D9
 10
69.99999999999987
 20
-48.42160121425908
 30
0.0
 11
43.99999999999987
 21
-45.29660121425908
 31
0.0
 71
     5
 42
52.0
 12
-54.23052420373934
 22
-60.00000014145559
  3
机械标注
100
AcDbAlignedDimension
 13
17.99999999999987
 23
-25.55946659452101
 33
0.0
 14
69.99999999999987
 24
-9.999999999999993
 34
0.0
 52
0.0
100
AcDbRotatedDimension
  0
LINE
  5
1B8
330
18B
100
AcDbEntity
  8
轮廓线
100
AcDbLine
 10
69.99999999999986
 20
10.0
 30
0.0
 11
28.55283256845478
 21
14.35627283682101
 31
0.0
  0
LINE
  5
1B9
102
{ACAD_REACTORS
330
190
330
1B7
102
}
330
18B
100
AcDbEntity
  8
轮廓线
100
AcDbLine
 10
69.99999999999987
 20
-9.999999999999993
 30
0.0
 11
28.55283256845478
 21
-14.35627283682099
 31
0.0
  0
ENDBLK
  5
18D
330
18B
100
AcDbEntity
  8
0
100
AcDbBlockEnd
  0
ENDSEC
  0
SECTION
  2
ENTITIES
  0
INSERT
  5
1BB
330
1F
100
AcDbEntity
  8
文本层
100
AcDbBlockReference
  2
1
 10
186.9654590043451
 20
164.892310651389
 30
0.0
  0
VIEWPORT
  5
74
330
59
100
AcDbEntity
 67
     1
  8
0
100
AcDbViewport
 10
133.3499908447266
 20
101.5999970436096
 30
0.0
 40
405.5413407365613
 41
218.6157170901508
 68
     1
 69
     1
 12
133.3499908447266
 22
101.5999970436096
 13
0.0
 23
0.0
 14
0.5
 24
0.5
 15
0.5
 25
0.5
 16
0.0
 26
0.0
 36
1.0
 17
0.0
 27
0.0
 37
0.0
 42
50.0
 43
0.0
 44
0.0
 45
218.6157170901508
 50
0.0
 51
0.0
 72
   100
 90
    32800
  1

281
     0
 71
     1
 74
     0
110
0.0
120
0.0
130
0.0
111
1.0
121
0.0
131
0.0
112
0.0
122
1.0
132
0.0
 79
     0
146
0.0
348
0
340
0
345
0
346
0
  0
VIEWPORT
  5
76
330
59
100
AcDbEntity
 67
     1
  8
0
100
AcDbViewport
 10
133.3499939441681
 20
101.5999939441681
 30
0.0
 40
213.3599903106689
 41
162.5599903106689
 68
     1
 69
     2
 12
213.9970696695476
 22
166.9835709913863
 13
0.0
 23
0.0
 14
10.0
 24
10.0
 15
10.0
 25
10.0
 16
0.0
 26
0.0
 36
1.0
 17
0.0
 27
0.0
 37
0.0
 42
50.0
 43
0.0
 44
0.0
 45
134.8710400144685
 50
0.0
 51
0.0
 72
   100
 90
    32864
  1

281
     0
 71
     1
 74
     0
110
0.0
120
0.0
130
0.0
111
1.0
121
0.0
131
0.0
112
0.0
122
1.0
132
0.0
 79
     0
146
0.0
348
0
340
0
345
0
346
0
  0
ENDSEC
  0
SECTION
  2
OBJECTS
  0
DICTIONARY
  5
C
330
0
100
AcDbDictionary
281
     1
  3
ACAD_GROUP
350
D
  3
ACAD_LAYOUT
350
1A
  3
ACAD_MLINESTYLE
350
17
  3
ACAD_PLOTSETTINGS
350
19
  3
ACAD_PLOTSTYLENAME
350
E
  3
AcDbVariableDictionary
350
67
  0
DICTIONARY
  5
D
102
{ACAD_REACTORS
330
C
102
}
330
C
100
AcDbDictionary
281
     1
  0
ACDBDICTIONARYWDFLT
  5
E
102
{ACAD_REACTORS
330
C
102
}
330
C
100
AcDbDictionary
281
     1
  3
Normal
350
F
100
AcDbDictionaryWithDefault
340
F
  0
ACDBPLACEHOLDER
  5
F
102
{ACAD_REACTORS
330
E
102
}
330
E
  0
DICTIONARY
  5
17
102
{ACAD_REACTORS
330
C
102
}
330
C
100
AcDbDictionary
281
     1
  3
Standard
350
18
  0
MLINESTYLE
  5
18
102
{ACAD_REACTORS
330
17
102
}
330
17
100
AcDbMlineStyle
  2
STANDARD
 70
     0
  3

 62
   256
 51
90.0
 52
90.0
 71
     2
 49
0.5
 62
   256
  6
BYLAYER
 49
-0.5
 62
   256
  6
BYLAYER
  0
DICTIONARY
  5
19
102
{ACAD_REACTORS
330
C
102
}
330
C
100
AcDbDictionary
281
     1
  0
DICTIONARY
  5
1A
102
{ACAD_REACTORS
330
C
102
}
330
C
100
AcDbDictionary
281
     1
  3
Model
350
22
  3
布局1
350
5A
  3
布局2
350
5F
  0
LAYOUT
  5
22
102
{ACAD_REACTORS
330
1A
102
}
330
1A
100
AcDbPlotSettings
  1

  2
PublishToWeb DWF.pc3
  4
ANSI_A_(8.50_x_11.00_Inches)
  6

 40
5.793749809265137
 41
17.79375076293945
 42
5.793746948242188
 43
17.79376220703125
 44
215.8999938964844
 45
279.3999938964844
 46
0.0
 47
0.0
 48
134.9890323791183
 49
91.53612657626039
140
307.4715176430235
141
233.8839730106779
  6

142
1.0
143
17.96895347217137
 70
 11952
 72
     0
 73
     1
 74
     4
  7

 75
     0
147
0.05565154373340141
148
-3428.721422429604
149
-2325.017615037014
100
AcDbLayout
  1
Model
 70
     1
 71
     0
 10
0.0
 20
0.0
 11
12.0
 21
9.0
 12
0.0
 22
0.0
 32
0.0
 14
0.0
 24
0.0
 34
0.0
 15
0.0
 25
0.0
 35
0.0
146
0.0
 13
0.0
 23
0.0
 33
0.0
 16
1.0
 26
0.0
 36
0.0
 17
0.0
 27
1.0
 37
0.0
 76
     0
330
1F
  0
LAYOUT
  5
5A
102
{ACAD_REACTORS
330
1A
102
}
330
1A
100
AcDbPlotSettings
  1

  2
none_device
  4
Letter_(8.50_x_11.00_Inches)
  6

 40
6.349999904632568
 41
6.349999904632568
 42
6.350006103515625
 43
6.350006103515625
 44
215.8999938964844
 45
279.3999938964844
 46
0.0
 47
0.0
 48
0.0
 49
0.0
140
0.0
141
0.0
  6

142
1.0
143
1.0
 70
   688
 72
     1
 73
     1
 74
     5
  7

 75
    16
147
1.0
148
0.0
149
0.0
100
AcDbLayout
  1
布局1
 70
     1
 71
     1
 10
-6.350006103515625
 20
-6.349999904632568
 11
273.0499877929688
 21
209.5499939918518
 12
0.0
 22
0.0
 32
0.0
 14
26.66076962115562
 24
20.31135699206658
 34
-0.001525820700358338
 15
240.039213369355
 25
182.8886381005154
 35
3.49246036535078E-08
146
0.0
 13
0.0
 23
0.0
 33
0.0
 16
1.0
 26
0.0
 36
0.0
 17
0.0
 27
1.0
 37
0.0
 76
     0
330
59
331
74
  0
LAYOUT
  5
5F
102
{ACAD_REACTORS
330
1A
102
}
330
1A
100
AcDbPlotSettings
  1

  2
none_device
  4
Letter_(8.50_x_11.00_Inches)
  6

 40
6.349999904632568
 41
6.349999904632568
 42
6.350006103515625
 43
6.350006103515625
 44
215.8999938964844
 45
279.3999938964844
 46
0.0
 47
0.0
 48
0.0
 49
0.0
140
0.0
141
0.0
  6

142
1.0
143
1.0
 70
   688
 72
     1
 73
     1
 74
     5
  7

 75
    16
147
1.0
148
0.0
149
0.0
100
AcDbLayout
  1
布局2
 70
     1
 71
     2
 10
-6.350006103515625
 20
-6.349999904632568
 11
273.0499877929688
 21
209.5499939918518
 12
0.0
 22
0.0
 32
0.0
 14
26.66999878883362
 24
20.31999878883363
 34
0.0
 15
240.0299890995026
 25
182.8799890995026
 35
0.0
146
0.0
 13
0.0
 23
0.0
 33
0.0
 16
1.0
 26
0.0
 36
0.0
 17
0.0
 27
1.0
 37
0.0
 76
     0
330
5E
331
1C4
  0
DICTIONARY
  5
67
102
{ACAD_REACTORS
330
C
102
}
330
C
100
AcDbDictionary
281
     1
  3
DIMASSOC
350
68
  3
HIDETEXT
350
6C
  0
DICTIONARYVAR
  5
68
102
{ACAD_REACTORS
330
67
102
}
330
67
100
DictionaryVariables
280
     0
  1
2
  0
DICTIONARYVAR
  5
6C
102
{ACAD_REACTORS
330
67
102
}
330
67
100
DictionaryVariables
280
     0
  1
1
  0
DICTIONARY
  5
18F
330
18E
100
AcDbDictionary
280
     1
281
     1
  3
ACAD_DIMASSOC
360
190
  0
DICTIONARY
  5
193
330
192
100
AcDbDictionary
280
     1
281
     1
  3
ACAD_DIMASSOC
360
194
  0
DICTIONARY
  5
19A
330
199
100
AcDbDictionary
280
     1
281
     1
  3
ACAD_DIMASSOC
360
19B
  0
DICTIONARY
  5
19D
330
19C
100
AcDbDictionary
280
     1
281
     1
  3
ACAD_DIMASSOC
360
19E
  0
DICTIONARY
  5
1A3
330
1A2
100
AcDbDictionary
280
     1
281
     1
  3
ACAD_DIMASSOC
360
1A4
  0
DICTIONARY
  5
1A7
330
1A6
100
AcDbDictionary
280
     1
281
     1
  3
ACAD_DIMASSOC
360
1A8
  0
DICTIONARY
  5
1AA
330
1A9
100
AcDbDictionary
280
     1
281
     1
  3
ACAD_DIMASSOC
360
1AB
  0
DICTIONARY
  5
1B1
330
1B0
100
AcDbDictionary
280
     1
281
     1
  3
ACAD_DIMASSOC
360
1B2
  0
DICTIONARY
  5
1B6
330
1B5
100
AcDbDictionary
280
     1
281
     1
  3
ACAD_DIMASSOC
360
1B7
  0
ENDSEC
  0
SECTION
  2
THUMBNAILIMAGE
 90
    18627
310
BF4800000201030100005000000002530100005C480000000000000000000000000000000000000000000000000000000000000000000000000000000000000000000000000000000000000000000000000000000000000000000000000000000000000000000028000000B400000061000000010008000000000034440000
310
00000000000000000001000000000000FFFFFF00FFFFFF0000000000FFFFFF00FFFFFF00FFFFFF00FFFFFF00FFFFFF00FFFFFF00FFFFFF00FFFFFF00330000006600000099000000CC000000FF00000000330000333300006633000099330000CC330000FF33000000660000336600006666000099660000CC660000FF6600
310
0000990000339900006699000099990000CC990000FF99000000CC000033CC000066CC000099CC0000CCCC0000FFCC000000FF000033FF000066FF000099FF0000CCFF0000FFFF000000003300330033006600330099003300CC003300FF00330000333300333333006633330099333300CC333300FF333300006633003366
310
33006666330099663300CC663300FF66330000993300339933006699330099993300CC993300FF99330000CC330033CC330066CC330099CC3300CCCC3300FFCC330000FF330033FF330066FF330099FF3300CCFF3300FFFF330000006600330066006600660099006600CC006600FF00660000336600333366006633660099
310
336600CC336600FF33660000666600336666006666660099666600CC666600FF66660000996600339966006699660099996600CC996600FF99660000CC660033CC660066CC660099CC6600CCCC6600FFCC660000FF660033FF660066FF660099FF6600CCFF6600FFFF660000009900330099006600990099009900CC009900
310
FF00990000339900333399006633990099339900CC339900FF33990000669900336699006666990099669900CC669900FF66990000999900339999006699990099999900CC999900FF99990000CC990033CC990066CC990099CC9900CCCC9900FFCC990000FF990033FF990066FF990099FF9900CCFF9900FFFF99000000CC
310
003300CC006600CC009900CC00CC00CC00FF00CC000033CC003333CC006633CC009933CC00CC33CC00FF33CC000066CC003366CC006666CC009966CC00CC66CC00FF66CC000099CC003399CC006699CC009999CC00CC99CC00FF99CC0000CCCC0033CCCC0066CCCC0099CCCC00CCCCCC00FFCCCC0000FFCC0033FFCC0066FF
310
CC0099FFCC00CCFFCC00FFFFCC000000FF003300FF006600FF009900FF00CC00FF00FF00FF000033FF003333FF006633FF009933FF00CC33FF00FF33FF000066FF003366FF006666FF009966FF00CC66FF00FF66FF000099FF003399FF006699FF009999FF00CC99FF00FF99FF0000CCFF0033CCFF0066CCFF0099CCFF00CC
310
CCFF00FFCCFF0000FFFF0033FFFF0066FFFF0099FFFF00CCFFFF0000000000FFFFFF000D0D0D001A1A1A00282828003535350043434300505050005D5D5D006B6B6B00787878008686860093939300A1A1A100AEAEAE00BBBBBB00C9C9C900D6D6D600E4E4E400F1F1F10000000000FFFFFF00FFFFFF00FFFFFF00FFFFFF00
310
FFFFFF00FFFFFF00FFFFFF00FFFFFF00FFFFFF00FFFFFF0000000000000000000000000000000000000000000000000000000000000000000000000000000000000000000000000000000000000000000000000000000000000000000000000000000000000000000000000000000000000000000000000000000000000000
310
00000000000000000000000000000000000000000000000000000000000000000000000000000000000000000000000000000000000000000000000000000000000000000000000000000000000000000000000000000000000000000000000000000000000000000000000000000000000000000000000000000000000000
310
00000000000000000000000000000000000000000000000000000000000000000000000000000000000000000000000000000000000000000000000000000000000000000000000000000000000000000000000000000000000000000000000000000000000000000000000000000000000000000000000000000000000000
310
00000000000000000000000000000000000000000000000000000000000000000000000000000000000000000000000000000000000000000000000000000000000000000000000000000000000000000000000000000000000000000000000000000000000000000000000000000000000000000000000000000000000000
310
00000000000000000000000000000000000000000000000000000000000000000000000000000000000000000000000000000000000000000000000000000000000000000000000000000000000000000000000000000000000000000000000000000000000000000000000000000000000000000000000000000000000000
310
00000000000000000000000000000000000000000000000000000000000000000000000000000000000000000000000000000000000000000000000000000000000000000000000000000000000000000000000000000000000000000000000000000000000000000000000000000000000000000000000000000000000000
310
00000000000000000000000000000000000000000000000000000000000000000000000000000000000000000000000000000000000000000000000000000000000000000000000000000000000000000000000000000000000000000000000000000000000000000000000000000000000000000000000000000000000000
310
00000000000000000000000000000000000000000000000000000000000000000000000000000000000000000000000000000000000000000000000000000000000000000000000000000000000000000000000000000000000000000000000000000000000000000000000000000000000000000000000000000000000000
310
00000000000000000000000000000000000000000000000000000000000000000000000000000000000000000000000000000000000000000000000000000000000000000000000000000000000000000000000000000000000000000000000000000000000000000000000000000000000000000000000000000000000000
310
00000000000000000000000000000000000000000000000000000000000000000000000000000000000000000000000000000000000000000000000000000000000000000000000000000000000000000000000000000000000000000000000000000000000000000000000000000000000000000000000000000000000000
310
00000000000000000000000000000000000000000000000000000000000000000000000000000000000000000000000000000000000000000000000000000000000000000000000000000000000000000000000000000000000000000000000000000000000000000000000000000000000000000000000000000000000000
310
00000000000000000000000000000000000000000000000000000000000000000000000000000000000000000000000000000000000000000000000000000000000000000000000000000000000000000000000000000000000000000000000000000000000000000000000000000000000000000000000000000000000000
310
00000000000000000000000000000000000000000000000000000000000000000000000000000000000000000000000000000000000000000000000000000000000000000000000000000000000000000000000000000000000000000000000000000000000000000000000000000000000000000000000000000000000000
310
00000000000000000000000000000000000000000000000000000000000000000000000000000000000000000000000000000000000000000000000000000000000000000000000000000000000000000000000000000000000000000000000000000000000000000000000000000000000000000000000000000000000000
310
00000000000000000000000000000000000000000000000000000000000000000000000000000000000000000000000000000000000000000000000000000000000000000000000000000000000000000000000000000000000000000000000000000000000000000000000000000000000000000000000000000000000000
310
00000000000000000000000000000000000000000000000000000000000000000000000000000000000000000000000000000000000000000000000000000000000000000000000000000000000000000000000000000000000000000000000000000000000000000000000000000000000000000000000000000000000000
310
00000000000000000000000000000000000000000000000000000000000000000000000000000000000000000000000000000000000000000000000000000000000000000000000000000000000000000000000000000000000000000000000000000000000000000000000000000000000000000000000000000000000000
310
00000000000000000000000000000000000000000000000000000000000000000000000000000000000000000000000000000000000000000000000000000000000000000000000000000000000000000000000000000000000000000000000000000000000000000000000000000000000000000000000000000000000000
310
00000000000000000000000000000000000000000000000000000000000000000000000000000000000000000000000000000000000000000000000000000000000000000000000000000000000000000000000000000000000000000000000000000000000000000000000000000000000000000000000000000000000000
310
00000000000000000000000000000000000000000000000000000000000000000000000000000000000000000000000000000000000000000000000000000000000000000000000000000000000000000000000000000000000000000000000000000000000000000000000000000000000000000000000000000000000000
310
00000000000000000000000000000000000000000000000000000000000000000000000000000000000000000000000000000000000000000000000000000000000000000000000000000000000000000000000000000000000000000000000000000000000000000000000000000000000000000000000000000000000000
310
00000000000000000000000000000000000000000000000000000000000000000000000000000000000000000000000000000000000000000000000000000000000000000000000000000000000000000000000000000000000000000000000000000000000000000000000000000000000000000000000000000000000000
310
00000000000000000000000000000000000000000000000000000000000000000000000000000000000000000000000000000000000000000000000000000000000000000000000000000000000000000000000000000000000000000000000000000000000000000000000000000000000000000000000000000000000000
310
00000000000000000000000000000000000000000000000000000000000000000000000000000000000000000000000000000000000000000000000000000000000000000000000000000000000000000000000000000000000000000000000000000000000000000000000000000000000000000000000000000000000000
310
00000000000000000000000000000000000000000000000000000000000000000000000000000000000000000000000000000000000000000000000000000000000000000000000000000000000000000000000000000000000000000000000000000000000000000000000000000000000000000000000000000000000000
310
00000000000000000000000000000000000000000000000000000000000000000000000000000000000000000000000000000000000000000000000000000000000000000000000000000000000000000000000000000000000000000000000000000000000000000000000000000000000000000000000000000000000000
310
00000000000000000000000000000000000000000000000000000000000000000000000000000000000000000000000000000000000000000000000000000000000000000000000000000000000000000000000000000000000000000000000000000000000000000000000000000000000000000000000000000000000000
310
00000000000000000000000000000000000000000000000000000000000000000000000000000000000000000000000000000000000000000000000000000000000000000000000000000000000000000000000000000000000000000000000000000000000000000000000000000000000000000000000000000000000000
310
00000000000000000000000000000000000000000000000000000000000000000000000000000000000000000000000000000000000000000000000000000000000000000000000000000000000000000000000000000000000000000000000000000000000000000000000000000000000000000000000000000000000000
310
00000000000000000000000000000000000000000000000000000000000000000000000000000000000000000000000000000000000000000000000000000000000000000000000000000000000000000000000000000000000000000000000000000000000000000000000000000000000000000000000000000000000000
310
00000000000000000000000000000000000000000000000000000000000000000000000000000000000000000000000000000000000000000000000000000000000000000000000000000000000000000000000000000000000000000000000000000000000000000000000000000000000000000000000000000000000000
310
00000000000000000000000000000000000000000000000000000000000000000000000000000000000000000000000000000000000000000000000000000000000000000000000000000000000000000000000000000000000000000000000000000000000000000000000000000000000000000000000000000000000000
310
00000000000000000000000000000000000000000000000000000000000000000000000000000000000000000000000000000000000000000000000000000000000000000000000000000000000000000000000000000000000000000000000000000000000000000000000000000000000000000000000000000000000000
310
00000000000000000000000000000000000000000000000000000000000000000000000000000000000000000000000000000000000000000000000000000000000000000000000000000000000000000000000000000000000000000000000000000000000000000000000000000000000000000000000000000000000000
310
000000000000000000000000000000000000000000000000000000000000000000000000000000000000000000000000000000000000000000000000000000000000000000000000000000000000000000000000000000000000000000000000009E000000000000000000009E000000000000000000000000000000000000
310
000000000000000000000000009E0000000000000000000000000000000000000000000000000000000000000000000000000000000000000000000000000000000000000000000000000000000000000000000000000000000000000000000000000000000000000000000000000000000000000000000000000000000000
310
00000000000000000000000000000000000000000000009E9E9E9E9E9E9E9E9E9E9E9E9E9E9E9E9E9E9E9E9E9E9E9E9E9E9E9E9E9E9E9E9E9E9E9E9E9E9E9E9E9E9E9E000000000000000000000000000000000000000000000000000000000000000000000000000000000000000000000000000000000000000000000000
310
000000000000000000000000000000000000000000000000000000000000000000000000000000000000000000000000000000000000000000000000000000000000000000000000000000009E9E9E009E9E9E9E009E9E9E9E9E00000000000000000000009E9E9E9E9E00000000000000000000009E9E9E00000000000000
310
00000000000000000000000000000000000000000000000000000000000000000000000000000000000000000000000000000000000000000000000000000000000000000000000000000000000000000000000000000000000000000000000000000000000000000000000000000000000000000000000000000000000000
310
00009E0000009E9E9E9E0000009E000000000000000000000000009E9E9E9E00000000000000000000000000009E000000000000000000000000000000000000000000000000000000000000000000000000000000000000000000000000000000000000000000000000000000000000000000000000000000000000000000
310
00000000000000000000000000000000000000000000000000000000000000000000000000000000000000000000000000000000000000BE0000009E9E9E9E0000009E000000000000000000000000009E9E9E9E9E000000000000000000000000009E00000000000000000000000000000000000000000000000000000000
310
000000000000000000000000000000000000000000000000000000000000000000000000000000000000000000000000000000000000000000000000000000000000000000000000000000000000000000000000000000000000000000000000000000000000000000000000BE0000009E009E9E0000009E00000000000000
310
0000000000009E9E9E9E9E000000000000000000000000009E000000000000000000000000000000000000000000000000000000000000000000000000000000000000000000000000000000000000000000000000000000000000000000000000000000000000000000000000000000000000000000000000000000000000
310
00000000000000000000000000000000000000000000000000000000000000000000BE000000000000000000009E000000000000000000000000000000000000000000000000000000000000009E00000000000000000000000000000000000000000000000000000000000000000000000000000000000000000000000000
310
000000000000000000000000000000000000000000000000000000000000000000000000000000000000000000000000000000000000000000000000000000000000000000000000000000000000000000000000000000BE000000000000000000009E00000000000000000000000000000000000000000000000000000000
310
0000009E000000000000000000000000000000000000000000000000000000000000000000000000000000000000000000000000000000000000000000000000000000000000000000000000000000000000000000000000000000000000000000000000000000000000000000000000000000000000000000000000000000
310
00000000000000000000000000BE000000000000000000009E000000000000000000000000000000000000000000000000000000000000009E00000000000000000000000000000000000000000000000000000000000000000000000000000000000000000000000000000000000000000000000000000000000000000000
310
000000000000000000000000000000000000000000000000000000000000000000000000000000000000000000009E9E9E9E9E9E9E0000000000000000F5F5F5F5F5BEF5F5F5F50000000000009E000000000000000000000000000000000000000000000000000000000000009E0000000000000000000000000000000000
310
0000000000000000000000000000000000000000000000000000000000000000000000000000000000000000000000000000000000000000000000000000000000000000000000000000000000000000000000000000000000000000000000000000009E9E009E9E9E009E000000000000F5F5F5F5F5F5BEF5F5F5F5F50000
310
0000009E000000000000000000000000000000000000000000000000000000000000009E00000000000000000000000000000000000000000000000000000000000000000000000000000000000000000000000000000000000000000000000000000000000000000000000000000000000000000000000000000000000000
310
000000000000000000000000000000000000000000000000009E9E009E9E9E009E0000000000F5F5F5F5F5F5F5BEF5F5F5F5F5F5000000009E000000000000000000000000000000000000000000000000000000000000009E0000000000000000000000000000000000000000000000000000000000000000000000000000
310
0000000000000000000000000000000000000000000000000000000000000000000000000000000000000000000000000000000000000000000000000000000000000000000000000000000000009E9E9E9E9E9E00009E000000F5F5F5F5F5000000BE0000F5F5F5F5F50000009E00009E9E9E9E9E9E9E0000000000000000
310
00000000000000000000000000009E00000000000000000000000000000000000000000000000000000000000000000000000000000000000000000000000000000000000000000000000000000000000000000000000000000000000000000000000000000000000000000000000000000000000000000000000000000000
310
000000009E9E009E009E00009E000000F5F5F5F500000000BE000000F5F5F5F50000009E009E9E9E9E9E9E9E9E000000000000000000000000000000000000000000009E0000000000000000000000000000000000000000000000000000000000000000000000000000000000000000000000000000000000000000000000
310
0000000000000000000000000000000000000000000000000000000000000000000000000000000000000000000000000000000000000000000000000000000000009E0000F5F5F500F5F5F5F5BEF5F5F500F5F5F5F500009E009E9E9E9E9E9E9E9E000000000000000000000000000000000000000000009E000000000000
310
0000000000000000000000000000000000000000000000000000000000000000000000000000000000000000000000000000000000000000000000000000000000000000000000000000000000000000000000000000000000000000000000000000000000000000000000000000000000000000000000009EF5F5F50000F5
310
F5F5F5BEF5F5F50000F5F5F500009E9E009E9E9E9E9E9E9E000000000000000000000000000000000000000000009E0000000000000000000000000000000000000000000000000000000000000000000000000000000000000000000000000000000000000000000000000000000000000000000000000000000000000000
310
000000000000000000000000000000000000000000000000000000000000000000000000000000000000000000009EF5F5F50000F5F5F5F5BEF5F5F5000000F5F5F5009E9E0000000000000000000000000000000000000000000000000000000000009E000000000000000000000000000000000000000000000000000000
310
000000000000000000000000000000000000000000000000000000000000000000000000000000000000000000000000000000000000000000000000000000000000000000000000000000000000000000000000000000000000000000000000000000F5F5F5000000F5F5F5009E00F5F5F50000F5F5F5F59E000000000000
310
000000000000000000000000000000000000000000000000009E0000000000000000000000000000000000000000000000000000000000000000000000000000000000000000000000000000000000000000000000000000000000000000000000000000000000000000000000000000000000000000000000000000000000
310
0000000000000000000000000000009E9E9E9E9E9E9E9E9E9EF5F5F59E9E9E9E9E9E9E9EF5F5F5F50000F5F5F5F59E000000000000000000000000000000000000000000000000000000000000009E000000000000000000000000000000000000000000000000000000000000000000000000000000000000000000000000
310
000000000000000000000000000000000000000000000000000000000000000000000000000000000000000000000000000000000000000000000000000000000000000000009E000000000000F5F5F59E0000F5F5F5F500BEF5F5F5F5000000F5F5F59EF50000000000000000000000000000000000000000000000000000
310
000000009E0000000000000000000000000000000000000000000000000000000000000000000000000000000000000000000000000000000000000000000000000000000000000000000000000000000000000000000000000000000000000000000000000000000000000000000000000000000000000000009E9E000000
310
000000F5F5F5009E0000F5F5F5F5BEF5F5F50000000000F5F59EF5F500000000000000000000000000000000000000000000000000000000009E000000000000000000000000000000000000000000000000000000000000000000000000000000000000000000000000000000000000000000000000000000000000000000
310
000000000000000000000000000000000000000000000000000000000000000000000000000000000000000000000000009E000000000000F5F5F5009E0000F5F5F5F5BEF5F5F5000000009E00F59EF5F5F5F5F5F5F5F5F5F50000000000000000000000000000000000000000009E00000000000000000000000000000000
310
0000000000000000000000000000000000000000000000000000000000000000000000000000000000000000000000000000000000000000000000000000000000000000000000000000000000000000000000000000000000000000000000000000000000009E000000000000F5F5F500009E0000F5F5F59EF5F500000000
310
009E00009EF5F5F5F5F5F5F5F5F5F5F5F5F5F5F5F5F5F5000000000000000000000000009E000000000000000000000000000000000000000000000000000000000000000000000000000000000000000000000000000000000000000000000000000000000000000000000000000000000000000000000000000000000000
310
000000000000000000000000000000000000000000000000000000009E000000000000F5F5F500009E0000000000BE0000000000009E0000009E0000F5F5F5F5F5F5F5F5F5F5F5F5F5F5F5F5F5F5F5F5F5F5F5F5F5000000009E00000000000000000000000000000000000000000000000000000000000000000000000000
310
0000000000000000000000000000000000000000000000000000000000000000000000000000000000000000000000000000000000000000000000000000000000000000000000000000000000000000009E000000000000F5F5F50000009E00F5F5F5BE0000000000009E0000009E00000000000000000000F5F5F5F5F5F5
310
F5F5F5F5F5F5F5F5F5F5F5F5F5F5F5F5000000000000000000000000000000000000000000000000000000000000000000000000000000000000000000000000000000000000000000000000000000000000000000000000000000000000000000000000000000000000000000000000000000000000000000000000000000
310
000000000000009E000000000000F5F5F500000000F5F5F5F5BEF5F500009E9E00000000BE00000000000000000000000000000000000000F5F5F5F5F5F5F5F5F5F5F5F5F5F59E9E9E9E9E9E9E9E9E9E0000000000000000000000000000000000000000000000000000000000000000000000000000000000000000000000
310
0000000000000000000000000000000000000000000000000000000000000000000000000000000000000000000000000000000000000000000000009E000000000000F5F5F5000000F5F5F5F5F5BEF5F5F5F59E9E00000000BE000000000000000000000000000000000000000000000000000000F5F5F5F5F5F500000000
310
0000009E000000000000000000000000000000000000000000000000000000000000000000000000000000000000000000000000000000000000000000000000000000000000000000000000000000000000000000000000000000000000000000000000000000000000000000000000009E000000000000F5F5F50000F5F5
310
F5F5F500BEF5F5F5F5F5F5F5F5F5F5BEF5F500000000000000000000000000000000000000000000000000000000F5F5F5000000000000009E00000000000000000000000000000000000000000000000000000000000000000000000000000000000000000000000000000000000000000000000000000000000000000000
310
0000000000000000000000000000000000000000000000000000000000000000000000000000009E000000000000F5F5F500F5F5F5F5009E00BE0000F5F5F5F5F5F5F5F5BEF5F5F5000000000000000000000000000000000000000000000000000000F5F5F5000000000000009E0000000000000000000000000000000000
310
0000000000000000000000000000000000000000000000000000000000000000000000000000000000000000000000000000000000000000000000000000000000000000000000000000000000000000000000000000000000009E009E0000000000F5F5F500F5F5F5F500009E00BE000000F5F5F5F5F5F5F5BEF5F5F5F500
310
00000000000000000000000000000000000000000000000000F5F5F5000000000000009E00000000000000000000000000000000000000000000000000000000000000000000000000000000000000000000000000000000000000000000000000000000000000000000000000000000000000000000000000000000000000
310
00000000000000000000000000009E9E9E9E9E0000000000F5F5F500F5F5F5F50000009EBE00000000000000000000BEF5F5F5F50000000000000000000000000000000000000000000000000000F5F5F5000000009E9E9E9E0000000000000000000000000000000000000000000000000000000000000000000000000000
310
000000000000000000000000000000000000000000000000000000000000000000000000000000000000000000000000000000000000000000000000000000000000009E9E9E9E9E000000BEBEBEBEBEBEBEBEBEBEBEBEBEBEBEBEBE00BEBEBEBE00BEBEBEBEBEBEBEBEBEBEBEBEBEBEBEBE00BEBEBEBEBE00BEBEBEBEBEBE
310
BEBEBEBEBEBEBEBEBEBE009E9E9E9E0000000000000000000000000000000000000000000000000000000000000000000000000000000000000000000000000000000000000000000000000000000000000000000000000000000000000000000000000000000000000000000000000000000000000000009E9E9E9E9E0000
310
000000F5F5F500F5F5F50000000000BE00000000000000000000BE00F5F5F50000000000000000000000000000000000000000000000000000F5F5F5000000009E9E9E9E0000000000000000000000000000000000000000000000000000000000000000000000000000000000000000000000000000000000000000000000
310
000000000000000000000000000000000000000000000000000000000000000000000000000000000000000000009E9E9E9E9E0000000000F5F5F50000F5F5F500000000BE000000000000F5F50000BEF5F5F5F50000000000000000000000000000000000000000000000000000F5F5F5000000009E9E9E9E000000000000
310
000000000000000000000000000000000000000000000000000000000000000000000000000000000000000000000000000000000000000000000000000000000000000000000000000000000000000000000000000000000000000000000000000000000000009E0000000000F5F5F50000F5F5F500000000BE000000F5F5
310
F5F5F5F5F5BEF5F5F5F50000000000000000000000000000000000000000000000000000F5F5F5000000000000009E0000000000000000000000000000000000000000000000000000000000000000000000000000000000000000000000000000000000000000000000000000000000000000000000000000000000000000
310
00000000000000000000000000000000000000000000000000000000009E000000000000F5F5F50000F5F5F5000000BE0000F5F5F5F5F5F5F5F5BEF5F5F5000000000000000000000000000000000000000000000000000000F5F5F5000000000000009E000000000000000000000000000000000000000000000000000000
310
000000000000000000000000000000000000000000000000000000000000000000000000000000000000000000000000000000000000000000000000000000000000000000000000000000000000000000009E000000000000F5F5F50000F5F5F5F5F5F5BEF5F5F5F5F5F50000F5F5BEF5F500000000000000000000000000
310
000000000000000000000000F5F5F5F5F5F5000000000000009E0000000000000000000000000000000000000000000000000000000000000000000000000000000000000000000000000000000000000000000000000000000000000000000000000000000000000000000000000000000000000000000000000000000000
310
00000000000000009E000000000000F5F5F5000000F5F5F5F5F5BEF5F5F5F5F50000000000BE000000000000000000000000000000000000F5F5F5F5F5F5F5F5F5F5F5F5F5F5F59E9E9E9E9E9E9E9E9E9E00000000000000000000000000000000000000000000000000000000000000000000000000000000000000000000
310
000000000000000000000000000000000000000000000000000000000000000000000000000000000000000000000000000000000000000000000000009E000000000000F5F5F500000000F5F5F5F5BEF5F5F500000000000000BE00000000000000000000F5F5F5F5F5F5F5F5F5F5F5F5F5F5F5F5F5F5F5F5F5F500000000
310
0000000000000000000000000000000000000000000000000000000000000000000000000000000000000000000000000000000000000000000000000000000000000000000000000000000000000000000000000000000000000000000000000000000000000000000000000000000000009E000000000000F5F5F5000000
310
00000000000000000000000000000000000000000000F5F5F5F5F5F5F5F5F5F5F5F5F5F5F5F5F5F5F5F5F5F50000000000000000000000000000000000000000000000000000000000000000000000000000000000000000000000000000000000000000000000000000000000000000000000000000000000000000000000
310
000000000000000000000000000000000000000000000000000000000000000000000000000000009E000000000000F5F5F50000000000000000BE00000000000000000000000000F5F5F5F5F5F5F5F5F5F5F5F5F5F5F5F5F50000000000000000000000000000000000000000000000000000000000000000000000000000
310
0000000000000000000000000000000000000000000000000000000000000000000000000000000000000000000000000000000000000000000000000000000000000000000000000000000000000000000000000000000000000000009E000000000000F5F5F50000000000F5F5F5BEF5F5000000000000000000F5F5F5F5
310
F5F5F5F5F5F500000000000000000000000000000000000000000000000000000000000000000000000000000000000000000000000000000000000000000000000000000000000000000000000000000000000000000000000000000000000000000000000000000000000000000000000000000000000000000000000000
310
000000000000000000000000000000000000009E000000000000F5F5F500000000F5F5F5F5BEF5F5F50000000000F5F5F5F5F5F5F5F500000000000000000000000000000000000000000000000000000000000000000000000000000000000000000000000000000000000000000000000000000000000000000000000000
310
00000000000000000000000000000000000000000000000000000000000000000000000000000000000000000000000000000000000000000000000000000000000000000000009E9E000000000000F5F5F500000000F5F5F5F5BEF5F5F500000000F5F5F5F5F5F50000000000000000000000000000000000000000000000
310
00000000000000000000000000000000000000000000000000000000000000000000000000000000000000000000000000000000000000000000000000000000000000000000000000000000000000000000000000000000000000000000000000000000000000000000000000000000000000000000000000000000009E00
310
000000000000F5F5F50000F5F5F5F500BEF5F5F5F50000F5F5F5F5F59E0000000000000000000000000000000000000000000000000000000000000000000000000000000000000000000000000000000000000000000000000000000000000000000000000000000000000000000000000000000000000000000000000000
310
000000000000000000000000000000000000000000000000000000000000000000000000000000000000000000000000009E9E9E9E9E9E9E9E9E9EF5F5F59E9E9E9E9E9E9E9EF5F5F5F50000F5F5F5F5009E000000000000000000000000000000000000000000000000000000000000000000000000000000000000000000
310
0000000000000000000000000000000000000000000000000000000000000000000000000000000000000000000000000000000000000000000000000000000000000000000000000000000000000000000000000000000000000000000000000000000000000000000000000000000000F5F5F500F5F5F59E9EBE9EF5F5F5
310
0000F5F5F50000009E00000000000000000000000000000000000000000000000000000000000000000000000000000000000000000000000000000000000000000000000000000000000000000000000000000000000000000000000000000000000000000000000000000000000000000000000000000000000000000000
310
000000000000000000000000000000000000000000000000000000000000000000000000000000F5F5F50000F59EF5F5BE9EF5F50000F5F5F5000000009E9E00000000000000000000000000000000000000000000000000000000000000000000000000000000000000000000000000000000000000000000000000000000
310
000000000000000000000000000000000000000000000000000000000000000000000000000000000000000000000000000000000000000000000000000000000000000000000000000000000000000000000000000000000000000000F5F5F5009E9EF5F5BEF59EF50000F5F5F50000009E9E9E9E00000000000000000000
310
00000000000000000000000000000000000000000000000000000000000000000000000000000000000000000000000000000000000000000000000000000000000000000000000000000000000000000000000000000000000000000000000000000000000000000000000000000000000000000000000000000000000000
310
00000000000000000000000000000000000000F5F5F5009EF5F5F5BEF59E000000F5F5F500009E9E9E9E9E9E0000000000000000000000000000000000000000000000000000000000000000000000000000000000000000000000000000000000000000000000000000000000000000000000000000000000000000000000
310
00000000000000000000000000000000000000000000000000000000000000000000000000000000000000000000000000000000000000000000000000000000000000000000000000F5F59E00000000BE00009EF5F5F5F5000000009E9E9E9E9E9E0000000000000000000000000000000000000000000000000000000000
310
000000000000000000000000000000000000000000000000000000000000000000000000000000000000000000000000000000000000000000000000000000000000000000000000000000000000000000000000000000000000000000000000000000000000000000000000000000000000000000000000000000000000F5
310
9EF5F5000000BE00F59EF5F5F50000000000009E9E9E9E9E9E000000000000000000000000000000000000000000000000000000000000000000000000000000000000000000000000000000000000000000000000000000000000000000000000000000000000000000000000000000000000000000000000000000000000
310
0000000000000000000000000000000000000000000000000000000000000000000000000000000000000000000000000000009E9EF5F5F5F5F5F5BEF5F5F59EF500000000000000009E9E9E9E009E000000000000000000000000000000000000000000000000000000000000000000000000000000000000000000000000
310
000000000000000000000000000000000000000000000000000000000000000000000000000000000000000000000000000000000000000000000000000000000000000000000000000000000000000000000000000000000000000000000000000000000000009E000000F5F5F5F5F5BEF5F5F5F59E9E000000000000009E
310
9E000000000000000000000000000000000000000000000000000000000000000000000000000000000000000000000000000000000000000000000000000000000000000000000000000000000000000000000000000000000000000000000000000000000000000000000000000000000000000000000000000000000000
310
000000000000000000000000000000000000000000000000000000009E000000000000F5F5F5BEF50000009E9E00000000000000000000000000000000000000000000000000000000000000000000000000000000000000000000000000000000000000000000000000000000000000000000000000000000000000000000
310
000000000000000000000000000000000000000000000000000000000000000000000000000000000000000000000000000000000000000000000000000000000000000000000000000000009E9E9E9E9E00000000000000000000BE00000000009E0000000000000000000000000000000000000000000000000000000000
310
00000000000000000000000000000000000000000000000000000000000000000000000000000000000000000000000000000000000000000000000000000000000000000000000000000000000000000000000000000000000000000000000000000000000000000000000000000000000000000000000000000000000000
310
00009E9E9E9E0000000000000000000000BE0000000000009E000000000000000000000000000000000000000000000000000000000000000000000000000000000000000000000000000000000000000000000000000000000000000000000000000000000000000000000000000000000000000000000000000000000000
310
000000000000000000000000000000000000000000000000000000000000000000000000000000000000000000000000000000000000009E9E9E9E0000000000000000000000BE000000000000009E000000000000000000000000000000000000000000000000000000000000000000000000000000000000000000000000
310
0000000000000000000000000000000000000000000000000000000000000000000000000000000000000000000000000000000000000000000000000000000000000000000000000000000000000000000000000000000000000000000000000000000000000000000000009E9E9E9E000000000000000000000000000000
310
000000009E0000000000000000000000000000000000000000000000000000000000000000000000000000000000000000000000000000000000000000000000000000000000000000000000000000000000000000000000000000000000000000000000000000000000000000000000000000000000000000000000000000
310
000000000000000000000000000000000000000000000000000000000000000000009E9E9E9E00000000000000000000000000000000000000009E9E9E9E9E9E9E0000000000000000000000000000000000000000000000000000000000000000000000000000000000000000000000000000000000000000000000000000
310
000000000000000000000000000000000000000000000000000000000000000000000000000000000000000000000000000000000000000000000000000000000000000000000000000000000000000000000000000000000000000000000000000000000000000000000000000000009E9E9E9E9E9E000000000000000000
310
00000000000000000000000000000000000000000000000000000000000000000000000000000000000000000000000000000000000000000000000000000000000000000000000000000000000000000000000000000000000000000000000000000000000000000000000000000000000000000000000000000000000000
310
00000000000000000000000000000000000000000000000000000000000000000000000000009E9E9E9E9E9E0000000000000000000000000000000000000000000000000000000000000000000000000000000000000000000000000000000000000000000000000000000000000000000000000000000000000000000000
310
0000000000000000000000000000000000000000000000000000000000000000000000000000000000000000000000000000000000000000000000000000000000000000000000000000000000000000000000000000000000009E9E9E9E9E9E9E000000000000000000000000000000000000000000000000000000000000
310
00000000000000000000000000000000000000000000000000000000000000000000000000000000000000000000000000000000000000000000000000000000000000000000000000000000000000000000000000000000000000000000000000000000000000000000000000000000000000000000000000000000000000
310
00000000000000000000000000000000000000000000000000000000000000000000000000000000000000000000000000000000000000000000000000000000000000000000000000000000000000000000000000000000000000000000000000000000000000000000000000000000000000000000000000000000000000
310
00000000000000000000000000000000000000000000000000000000000000000000000000000000000000000000000000000000000000000000000000000000000000000000000000000000000000000000000000000000000000000000000000000000000000000000000000000000000000000000000000000000000000
310
00000000000000000000000000000000000000000000000000000000000000000000000000000000000000000000000000000000000000000000000000000000000000000000000000000000000000000000000000000000000000000000000000000000000000000000000000000000000000000000000000000000000000
310
00000000000000000000000000000000000000000000000000000000000000000000000000000000000000000000000000000000000000000000000000000000000000000000000000000000000000000000000000000000000000000000000000000000000000000000000000000000000000000000000000000000000000
310
00000000000000000000000000000000000000000000000000000000000000000000000000000000000000000000000000000000000000000000000000000000000000000000000000000000000000000000000000000000000000000000000000000000000000000000000000000000000000000000000000000000000000
310
00000000000000000000000000000000000000000000000000000000000000000000000000000000000000000000000000000000000000000000000000000000000000000000000000000000000000000000000000000000000000000000000000000000000000000000000000000000000000000000000000000000000000
310
00000000000000000000000000000000000000000000000000000000000000000000000000000000000000000000000000000000000000000000000000000000000000000000000000000000000000000000000000000000000000000000000000000000000000000000000000000000000000000000000000000000000000
310
00000000000000000000000000000000000000000000000000000000000000000000000000000000000000000000000000000000000000000000000000000000000000000000000000000000000000000000000000000000000000000000000000000000000000000000000000000000000000000000000000000000000000
310
00000000000000000000000000000000000000000000000000000000000000000000000000000000000000000000000000000000000000000000000000000000000000000000000000000000000000000000000000000000000000000000000000000000000000000000000000000000000000000000000000000000000000
310
00000000000000000000000000000000000000000000000000000000000000000000000000000000000000000000000000000000000000000000000000000000000000000000000000000000000000000000000000000000000000000000000000000000000000000000000000000000000000000000000000000000000000
310
00000000000000000000000000000000000000000000000000000000000000000000000000000000000000000000000000000000000000000000000000000000000000000000000000000000000000000000000000000000000000000000000000000000000000000000000000000000000000000000000000000000000000
310
00000000000000000000000000000000000000000000000000000000000000000000000000000000000000000000000000000000000000000000000000000000000000000000000000000000000000000000000000000000000000000000000000000000000000000000000000000000000000000000000000000000000000
310
00000000000000000000000000000000000000000000000000000000000000000000000000000000000000000000000000000000000000000000000000000000000000000000000000000000000000000000000000000000000000000000000000000000000000000000000000000000000000000000000000000000000000
310
00000000000000000000000000000000000000000000000000000000000000000000000000000000000000000000000000000000000000000000000000000000000000000000000000000000000000000000000000
  0
ENDSEC
  0
EOF
