999
LibreDWG 
  0
SECTION
  2
HEADER
  9
$ACADVER
  1
AC1015
  9
$ACADMAINTVER
 70
    13
  9
$DWGCODEPAGE
  3
ANSI_936
  9
$INSBASE
 10
0.0
 20
0.0
 30
0.0
  9
$EXTMIN
 10
20.50492318976744
 20
28.50000019091522
 30
0.0
  9
$EXTMAX
 10
248.9406874546241
 20
150.6679903355129
 30
0.0
  9
$LIMMIN
 10
0.0
 20
0.0
  9
$LIMMAX
 10
300.0
 20
150.0
  9
$ORTHOMODE
 70
     0
  9
$REGENMODE
 70
     1
  9
$FILLMODE
 70
     1
  9
$QTEXTMODE
 70
     0
  9
$MIRRTEXT
 70
     1
  9
$LTSCALE
 40
1.0
  9
$ATTMODE
 70
     1
  9
$TEXTSIZE
 40
3.5
  9
$TRACEWID
 40
1.0
  9
$TEXTSTYLE
  7
数字与字母
  9
$CLAYER
  8
文本层
  9
$CELTYPE
  6
ByLayer
  9
$CECOLOR
 62
   256
  9
$CELTSCALE
 40
1.0
  9
$DISPSILH
 70
     0
  9
$DIMSCALE
 40
1.0
  9
$DIMASZ
 40
3.5
  9
$DIMEXO
 40
0.0
  9
$DIMDLI
 40
7.5
  9
$DIMRND
 40
0.0
  9
$DIMDLE
 40
0.0
  9
$DIMEXE
 40
2.5
  9
$DIMTP
 40
0.0
  9
$DIMTM
 40
0.0
  9
$DIMTXT
 40
5.0
  9
$DIMCEN
 40
2.5
  9
$DIMTSZ
 40
0.0
  9
$DIMTOL
 70
     0
  9
$DIMLIM
 70
     0
  9
$DIMTIH
 70
     0
  9
$DIMTOH
 70
     1
  9
$DIMSE1
 70
     0
  9
$DIMSE2
 70
     0
  9
$DIMTAD
 70
     1
  9
$DIMZIN
 70
     8
  9
$DIMBLK
  1

  9
$DIMASO
 70
     1
  9
$DIMSHO
 70
     1
  9
$DIMPOST
  1

  9
$DIMAPOST
  1

  9
$DIMALT
 70
     0
  9
$DIMALTD
 70
     3
  9
$DIMALTF
 40
0.03937007874016
  9
$DIMLFAC
 40
1.0
  9
$DIMTOFL
 70
     1
  9
$DIMTVP
 40
0.0
  9
$DIMTIX
 70
     0
  9
$DIMSOXD
 70
     0
  9
$DIMSAH
 70
     0
  9
$DIMBLK1
  1

  9
$DIMBLK2
  1

  9
$DIMSTYLE
  2
机械标注
  9
$DIMCLRD
 70
     0
  9
$DIMCLRE
 70
     0
  9
$DIMCLRT
 70
     0
  9
$DIMTFAC
 40
1.0
  9
$DIMGAP
 40
0.625
  9
$DIMJUST
 70
     0
  9
$DIMSD1
 70
     0
  9
$DIMSD2
 70
     0
  9
$DIMTOLJ
 70
     0
  9
$DIMTZIN
 70
     8
  9
$DIMALTZ
 70
     0
  9
$DIMALTTZ
 70
     0
  9
$DIMUPT
 70
     0
  9
$DIMDEC
 70
     1
  9
$DIMTDEC
 70
     1
  9
$DIMALTU
 70
     2
  9
$DIMALTTD
 70
     3
  9
$DIMTXSTY
  7
数字与字母
  9
$DIMAUNIT
 70
     0
  9
$DIMADEC
 70
     0
  9
$DIMALTRND
 40
0.0
  9
$DIMAZIN
 70
     0
  9
$DIMDSEP
 70
    46
  9
$DIMATFIT
 70
     3
  9
$DIMFRAC
 70
     0
  9
$DIMLDRBLK
  1

  9
$DIMLUNIT
 70
     2
  9
$DIMLWD
 70
    -2
  9
$DIMLWE
 70
    -2
  9
$DIMTMOVE
 70
     0
  9
$LUNITS
 70
     2
  9
$LUPREC
 70
     1
  9
$AXISMODE
 70
     0
  9
$AXISUNIT
 10
0.0
 20
0.0
  9
$SKETCHINC
 40
1.0
  9
$FILLETRAD
 40
4.0
  9
$AUNITS
 70
     0
  9
$AUPREC
 70
     1
  9
$MENU
  1
.
  9
$ELEVATION
 40
0.0
  9
$PELEVATION
 40
0.0
  9
$THICKNESS
 40
0.0
  9
$LIMCHECK
 70
     0
  9
$CHAMFERA
 40
10.0
  9
$CHAMFERB
 40
10.0
  9
$CHAMFERC
 40
1.5
  9
$CHAMFERD
 40
0.7853981633974483
  9
$SKPOLY
 70
     0
  9
$TDCREATE
 40
2451911.603956590
  9
$TDUCREATE
 40
2451911.315956590
  9
$TDUPDATE
 40
2453618.713602020
  9
$TDUUPDATE
 40
2453618.425602020
  9
$TDINDWG
 40
0.041611830
  9
$TDUSRTIMER
 40
0.041611830
  9
$USRTIMER
 70
     1
  9
$ANGBASE
 50
0.0
  9
$ANGDIR
 70
     0
  9
$PDMODE
 70
     0
  9
$PDSIZE
 40
0.0
  9
$PLINEWID
 40
0.0
  9
$SPLFRAME
 70
     0
  9
$SPLINETYPE
 70
     6
  9
$SPLINESEGS
 70
     8
  9
$HANDSEED
  5
1DF
  9
$SURFTAB1
 70
     6
  9
$SURFTAB2
 70
     6
  9
$SURFTYPE
 70
     6
  9
$SURFU
 70
     6
  9
$SURFV
 70
     6
  9
$UCSBASE
  2

  9
$UCSNAME
  2

  9
$UCSORG
 10
0.0
 20
0.0
 30
0.0
  9
$UCSXDIR
 10
1.0
 20
0.0
 30
0.0
  9
$UCSYDIR
 10
0.0
 20
1.0
 30
0.0
  9
$UCSORTHOREF
  2

  9
$UCSORTHOVIEW
 70
     0
  9
$UCSORGTOP
 10
0.0
 20
0.0
 30
0.0
  9
$UCSORGBOTTOM
 10
0.0
 20
0.0
 30
0.0
  9
$UCSORGLEFT
 10
0.0
 20
0.0
 30
0.0
  9
$UCSORGRIGHT
 10
0.0
 20
0.0
 30
0.0
  9
$UCSORGFRONT
 10
0.0
 20
0.0
 30
0.0
  9
$UCSORGBACK
 10
0.0
 20
0.0
 30
0.0
  9
$PUCSBASE
  2

  9
$PUCSNAME
  2

  9
$PUCSORG
 10
0.0
 20
0.0
 30
0.0
  9
$PUCSXDIR
 10
1.0
 20
0.0
 30
0.0
  9
$PUCSYDIR
 10
0.0
 20
1.0
 30
0.0
  9
$PUCSORTHOREF
  2

  9
$PUCSORTHOVIEW
 70
     0
  9
$PUCSORGTOP
 10
0.0
 20
0.0
 30
0.0
  9
$PUCSORGBOTTOM
 10
0.0
 20
0.0
 30
0.0
  9
$PUCSORGLEFT
 10
0.0
 20
0.0
 30
0.0
  9
$PUCSORGRIGHT
 10
0.0
 20
0.0
 30
0.0
  9
$PUCSORGFRONT
 10
0.0
 20
0.0
 30
0.0
  9
$PUCSORGBACK
 10
0.0
 20
0.0
 30
0.0
  9
$USERI1
 70
     0
  9
$USERI2
 70
     0
  9
$USERI3
 70
     0
  9
$USERI4
 70
     0
  9
$USERI5
 70
     0
  9
$USERR1
 40
0.0
  9
$USERR2
 40
0.0
  9
$USERR3
 40
0.0
  9
$USERR4
 40
0.0
  9
$USERR5
 40
0.0
  9
$WORLDVIEW
 70
     1
  9
$SHADEDGE
 70
     3
  9
$SHADEDIF
 70
    70
  9
$TILEMODE
 70
     1
  9
$MAXACTVP
 70
    64
  9
$PINSBASE
 10
0.0
 20
0.0
 30
0.0
  9
$PLIMCHECK
 70
     0
  9
$PEXTMIN
 10
26.66999878883362
 20
20.31999878883363
 30
0.0
  9
$PEXTMAX
 10
240.0299890995026
 20
182.8799890995026
 30
0.0
  9
$PLIMMIN
 10
-6.350006103515625
 20
-6.349999904632568
  9
$PLIMMAX
 10
273.0499877929688
 20
209.5499939918518
  9
$UNITMODE
 70
     0
  9
$VISRETAIN
 70
     1
  9
$PLINEGEN
 70
     0
  9
$PSLTSCALE
 70
     1
  9
$TREEDEPTH
 70
  3020
  9
$CMLSTYLE
  2
Standard
  9
$CMLJUST
 70
     0
  9
$CMLSCALE
 40
20.0
  9
$PROXYGRAPHICS
 70
     1
  9
$MEASUREMENT
 70
     1
  9
$CELWEIGHT
370
    -1
  9
$ENDCAPS
280
     0
  9
$JOINSTYLE
280
     0
  9
$LWDISPLAY
290
     1
  9
$INSUNITS
 70
     4
  9
$HYPERLINKBASE
  1

  9
$STYLESHEET
  1

  9
$XEDIT
290
     1
  9
$CEPSNTYPE
380
     0
  9
$PSTYLEMODE
290
     0
  9
$FINGERPRINTGUID
  2
{35BD88C3-9548-11D2-9A29-0060089B3A3F}
  9
$VERSIONGUID
  2
{9EF7CBFC-72AA-4EFC-BB8B-9E7564AB75FA}
  9
$EXTNAMES
290
     1
  9
$PSVPSCALE
 40
0.0
  9
$OLESTARTUP
290
     0
  0
ENDSEC
  0
SECTION
  2
CLASSES
  0
CLASS
  1
ACDBDICTIONARYWDFLT
  2
AcDbDictionaryWithDefault
  3
AutoCAD 2000
 90
        0
280
     0
281
     0
  0
CLASS
  1
ACDBPLACEHOLDER
  2
AcDbPlaceHolder
  3
AutoCAD 2000
 90
        0
280
     0
281
     0
  0
CLASS
  1
LAYOUT
  2
AcDbLayout
  3
AutoCAD 2000
 90
        0
280
     0
281
     0
  0
CLASS
  1
DICTIONARYVAR
  2
AcDbDictionaryVar
  3
AutoCAD 2000
 90
        0
280
     0
281
     0
  0
CLASS
  1
DIMASSOC
  2
AcDbDimAssoc
  3
"AcDbDimAssoc|Product Desc:     AcDim ARX App For Dimension|Company:          Autodesk, Inc.|WEB Address:      www.autodesk.com"
 90
        0
280
     0
281
     0
  0
ENDSEC
  0
SECTION
  2
TABLES
  0
TABLE
  2
VPORT
  5
8
330
0
100
AcDbSymbolTable
 70
     1
  0
VPORT
  5
1DE
330
8
100
AcDbSymbolTableRecord
100
AcDbViewportTableRecord
  2
*Active
 70
     0
 10
0.0
 20
0.0
 11
1.0
 21
1.0
 12
150.0
 22
75.33416765548078
 13
0.0
 23
0.0
 14
10.0
 24
10.0
 15
10.0
 25
10.0
 16
0.0
 26
0.0
 36
1.0
 17
0.0
 27
0.0
 37
0.0
 40
163.994886172215
 41
1.841563786008231
 42
50.0
 43
0.0
 44
0.0
 50
0.0
 51
0.0
 71
     0
 72
   100
 73
     1
 74
     3
 75
     0
 76
     0
 77
     0
 78
     0
281
     0
 65
     1
110
0.0
120
0.0
130
0.0
111
1.0
121
0.0
131
0.0
112
0.0
122
1.0
132
0.0
 79
     0
146
0.0
  0
ENDTAB
  0
TABLE
  2
LTYPE
  5
5
330
0
100
AcDbSymbolTable
 70
     4
  0
LTYPE
  5
14
330
5
100
AcDbSymbolTableRecord
100
AcDbLinetypeTableRecord
  2
ByBlock
 70
     0
  3

 72
    65
 73
     0
 40
0.0
  0
LTYPE
  5
15
330
5
100
AcDbSymbolTableRecord
100
AcDbLinetypeTableRecord
  2
ByLayer
 70
     0
  3

 72
    65
 73
     0
 40
0.0
  0
LTYPE
  5
16
330
5
100
AcDbSymbolTableRecord
100
AcDbLinetypeTableRecord
  2
Continuous
 70
     0
  3
Solid line
 72
    65
 73
     0
 40
0.0
  0
LTYPE
  5
91
330
5
100
AcDbSymbolTableRecord
100
AcDbLinetypeTableRecord
  2
ACAD_ISO08W100
 70
     0
  3
ISO long-dash short-dash ____ __ ____ __ ____ _
 72
    65
 73
     4
 40
36.0
 49
24.0
 74
     0
 49
-3.0
 74
     0
 49
6.0
 74
     0
 49
-3.0
 74
     0
  0
LTYPE
  5
92
330
5
100
AcDbSymbolTableRecord
100
AcDbLinetypeTableRecord
  2
ACAD_ISO09W100
 70
     0
  3
ISO long-dash double-short-dash ____ __ __ ____
 72
    65
 73
     6
 40
45.0
 49
24.0
 74
     0
 49
-3.0
 74
     0
 49
6.0
 74
     0
 49
-3.0
 74
     0
 49
6.0
 74
     0
 49
-3.0
 74
     0
  0
LTYPE
  5
93
330
5
100
AcDbSymbolTableRecord
100
AcDbLinetypeTableRecord
  2
ACAD_ISO02W100
 70
     0
  3
ISO dash __ __ __ __ __ __ __ __ __ __ __ __ __
 72
    65
 73
     2
 40
15.0
 49
12.0
 74
     0
 49
-3.0
 74
     0
  0
ENDTAB
  0
TABLE
  2
LAYER
  5
2
330
0
100
AcDbSymbolTable
 70
    11
  0
LAYER
  5
10
330
2
100
AcDbSymbolTableRecord
100
AcDbLayerTableRecord
  2
0
 70
     0
 62
    -7
  6
Continuous
370
    -3
390
F
  0
LAYER
  5
94
330
2
100
AcDbSymbolTableRecord
100
AcDbLayerTableRecord
  2
轮廓线
 70
     0
 62
    -7
  6
Continuous
370
    35
390
F
  0
LAYER
  5
95
330
2
100
AcDbSymbolTableRecord
100
AcDbLayerTableRecord
  2
点划线
 70
     0
 62
    -1
  6
ACAD_ISO08W100
370
    13
390
F
  0
LAYER
  5
96
330
2
100
AcDbSymbolTableRecord
100
AcDbLayerTableRecord
  2
双点划线
 70
     0
 62
    -3
  6
ACAD_ISO09W100
370
    -3
390
F
  0
LAYER
  5
97
330
2
100
AcDbSymbolTableRecord
100
AcDbLayerTableRecord
  2
隐藏线
 70
     0
 62
   -44
  6
ACAD_ISO02W100
370
    13
390
F
  0
LAYER
  5
98
330
2
100
AcDbSymbolTableRecord
100
AcDbLayerTableRecord
  2
剖面线
 70
     0
 62
  -142
  6
Continuous
370
    13
390
F
  0
LAYER
  5
99
330
2
100
AcDbSymbolTableRecord
100
AcDbLayerTableRecord
  2
波浪线
 70
     0
 62
    -7
  6
Continuous
370
    13
390
F
  0
LAYER
  5
9A
330
2
100
AcDbSymbolTableRecord
100
AcDbLayerTableRecord
  2
尺寸层
 70
     0
 62
    -5
  6
Continuous
370
    13
390
F
  0
LAYER
  5
9B
330
2
100
AcDbSymbolTableRecord
100
AcDbLayerTableRecord
  2
文本层
 70
     0
 62
  -212
  6
Continuous
370
    13
390
F
  0
LAYER
  5
9C
330
2
100
AcDbSymbolTableRecord
100
AcDbLayerTableRecord
  2
其它层
 70
     0
 62
    -7
  6
Continuous
370
    -3
390
F
  0
LAYER
  5
AE
330
2
100
AcDbSymbolTableRecord
100
AcDbLayerTableRecord
  2
Defpoints
 70
     0
 62
    -7
  6
Continuous
290
     0
370
    -3
390
F
  0
ENDTAB
  0
TABLE
  2
STYLE
  5
3
330
0
100
AcDbSymbolTable
 70
     4
  0
STYLE
  5
11
330
3
100
AcDbSymbolTableRecord
100
AcDbTextStyleTableRecord
  2
Standard
 70
     0
 40
0.0
 41
1.0
 50
0.0
 71
     0
 42
2.5
  3
txt
  4

  0
STYLE
  5
90
330
3
100
AcDbSymbolTableRecord
100
AcDbTextStyleTableRecord
  2

 70
     1
 40
0.0
 41
1.0
 50
0.0
 71
     0
 42
2.5
  3
ltypeshp.shx
  4

  0
STYLE
  5
9D
330
3
100
AcDbSymbolTableRecord
100
AcDbTextStyleTableRecord
  2
汉字
 70
     0
 40
0.0
 41
0.7
 50
0.0
 71
     0
 42
2.5
  3
SIMFANG.TTF
  4

1001
ACAD
1000
FangSong_GB2312
1071
    34353
  0
STYLE
  5
9F
330
3
100
AcDbSymbolTableRecord
100
AcDbTextStyleTableRecord
  2
数字与字母
 70
     0
 40
0.0
 41
0.7
 50
0.0
 71
     0
 42
3.5
  3
romant.shx
  4

  0
ENDTAB
  0
TABLE
  2
VIEW
  5
6
330
0
100
AcDbSymbolTable
 70
     0
  0
ENDTAB
  0
TABLE
  2
UCS
  5
7
330
0
100
AcDbSymbolTable
 70
     0
  0
ENDTAB
  0
TABLE
  2
APPID
  5
9
330
0
100
AcDbSymbolTable
 70
     1
  0
APPID
  5
12
330
9
100
AcDbSymbolTableRecord
100
AcDbRegAppTableRecord
  2
ACAD
 70
     0
  0
ENDTAB
  0
TABLE
  2
DIMSTYLE
  5
A
330
0
100
AcDbSymbolTable
 70
     3
100
AcDbDimStyleTable
 71
     2
340
A1
340
27
  0
DIMSTYLE
105
27
330
A
100
AcDbSymbolTableRecord
100
AcDbDimStyleTableRecord
  2
ISO-25
 70
     0
 41
2.5
 42
0.625
 43
3.75
 44
1.25
 73
     0
 74
     0
 77
     1
 78
     8
140
2.5
141
2.5
143
0.03937007874016
144
1.0
146
1.0
147
0.625
171
     3
172
     1
176
     0
177
     0
178
     0
271
     2
272
     2
273
     2
274
     3
277
     2
278
    44
283
     0
284
     8
289
     3
340
11
371
    -2
372
    -2
341
0
342
0
343
0
344
0
  0
DIMSTYLE
105
A1
102
{ACAD_REACTORS
330
123
330
13B
330
153
330
186
330
19E
330
1B6
102
}
330
A
100
AcDbSymbolTableRecord
100
AcDbDimStyleTableRecord
  2
机械标注
 70
     0
 41
3.5
 43
7.5
 44
2.5
 73
     0
 74
     1
 77
     1
 78
     8
140
5.0
141
2.5
143
0.03937007874016
144
1.0
146
1.0
147
0.625
171
     3
172
     1
176
     0
177
     0
178
     0
271
     1
272
     1
273
     2
274
     3
277
     2
278
    46
283
     0
284
     8
289
     3
340
9F
371
    -2
372
    -2
341
0
342
0
343
0
344
0
  0
DIMSTYLE
105
A2
330
A
100
AcDbSymbolTableRecord
100
AcDbDimStyleTableRecord
  2
机械标注$2
 70
     0
 41
3.5
 43
7.5
 44
2.5
 73
     1
 74
     1
 77
     1
 78
     8
140
5.0
141
2.5
143
0.03937007874016
144
1.0
146
1.0
147
0.625
171
     3
172
     1
176
     0
177
     0
178
     0
271
     1
272
     1
273
     2
274
     3
277
     2
278
    46
283
     0
284
     8
289
     3
340
9F
371
    -2
372
    -2
341
0
342
0
343
0
344
0
  0
ENDTAB
  0
TABLE
  2
BLOCK_RECORD
  5
1
330
0
100
AcDbSymbolTable
 70
     9
  0
BLOCK_RECORD
  5
1F
330
1
100
AcDbSymbolTableRecord
100
AcDbBlockTableRecord
  2
*Model_Space
340
22
  0
BLOCK_RECORD
  5
5E
330
1
100
AcDbSymbolTableRecord
100
AcDbBlockTableRecord
  2
*Paper_Space
340
5F
  0
BLOCK_RECORD
  5
59
330
1
100
AcDbSymbolTableRecord
100
AcDbBlockTableRecord
  2
*Paper_Space0
340
5A
  0
BLOCK_RECORD
  5
124
330
1
100
AcDbSymbolTableRecord
100
AcDbBlockTableRecord
  2
*D3
340
0
  0
BLOCK_RECORD
  5
13C
330
1
100
AcDbSymbolTableRecord
100
AcDbBlockTableRecord
  2
*D4
340
0
  0
BLOCK_RECORD
  5
154
330
1
100
AcDbSymbolTableRecord
100
AcDbBlockTableRecord
  2
*D5
340
0
  0
BLOCK_RECORD
  5
187
330
1
100
AcDbSymbolTableRecord
100
AcDbBlockTableRecord
  2
*D6
340
0
  0
BLOCK_RECORD
  5
19F
330
1
100
AcDbSymbolTableRecord
100
AcDbBlockTableRecord
  2
*D7
340
0
  0
BLOCK_RECORD
  5
1B7
330
1
100
AcDbSymbolTableRecord
100
AcDbBlockTableRecord
  2
*D8
340
0
  0
ENDTAB
  0
ENDSEC
  0
SECTION
  2
BLOCKS
  0
BLOCK
  5
20
330
1F
100
AcDbEntity
  8
0
100
AcDbBlockBegin
  2
*Model_Space
 70
     0
 10
0.0
 20
0.0
 30
0.0
  3
*Model_Space
  1

  0
ENDBLK
  5
21
330
1F
100
AcDbEntity
  8
0
100
AcDbBlockEnd
  0
BLOCK
  5
5B
330
59
100
AcDbEntity
  8
0
100
AcDbBlockBegin
  2
*Paper_Space0
 70
     0
 10
0.0
 20
0.0
 30
0.0
  3
*Paper_Space0
  1

  0
VIEWPORT
  5
74
330
59
100
AcDbEntity
  8
0
100
AcDbViewport
 10
133.3499908447266
 20
101.5999970436096
 30
0.0
 40
402.4920940625619
 41
218.5599527535252
 68
     0
 69
     0
 12
133.3499908447266
 22
101.5999970436096
 13
0.0
 23
0.0
 14
0.5
 24
0.5
 15
0.5
 25
0.5
 16
0.0
 26
0.0
 36
1.0
 17
0.0
 27
0.0
 37
0.0
 42
50.0
 43
0.0
 44
0.0
 45
218.5599527535252
 50
0.0
 51
0.0
 72
   100
 90
    32800
  1

281
     0
 71
     1
 74
     0
110
0.0
120
0.0
130
0.0
111
1.0
121
0.0
131
0.0
112
0.0
122
1.0
132
0.0
 79
     0
146
0.0
348
0
340
0
345
0
346
0
  0
VIEWPORT
  5
76
330
59
100
AcDbEntity
  8
0
100
AcDbViewport
 10
133.3499939441681
 20
101.5999939441681
 30
0.0
 40
213.3599903106689
 41
162.5599903106689
 68
     0
 69
     0
 12
143.3941947364732
 22
82.04249802956436
 13
0.0
 23
0.0
 14
10.0
 24
10.0
 15
10.0
 25
10.0
 16
0.0
 26
0.0
 36
1.0
 17
0.0
 27
0.0
 37
0.0
 42
50.0
 43
0.0
 44
0.0
 45
209.6265011489355
 50
0.0
 51
0.0
 72
   100
 90
    32864
  1

281
     0
 71
     1
 74
     0
110
0.0
120
0.0
130
0.0
111
1.0
121
0.0
131
0.0
112
0.0
122
1.0
132
0.0
 79
     0
146
0.0
348
0
340
0
345
0
346
0
  0
ENDBLK
  5
5C
330
59
100
AcDbEntity
  8
0
100
AcDbBlockEnd
  0
BLOCK
  5
60
330
5E
100
AcDbEntity
 67
     1
  8
0
100
AcDbBlockBegin
  2
*Paper_Space
 70
     0
 10
0.0
 20
0.0
 30
0.0
  3
*Paper_Space
  1

  0
ENDBLK
  5
61
330
5E
100
AcDbEntity
 67
     1
  8
0
100
AcDbBlockEnd
  0
BLOCK
  5
12E
330
124
100
AcDbEntity
  8
0
100
AcDbBlockBegin
  2
*D3
 70
     1
 10
0.0
 20
0.0
 30
0.0
  3
*D3
  1

  0
LINE
  5
174
330
124
100
AcDbEntity
  8
文本层
370
    -2
 62
     0
100
AcDbLine
 10
241.0216079628691
 20
114.3991820885723
 30
0.0
 11
231.0632746295357
 21
114.3991820885723
 31
0.0
  0
LINE
  5
175
330
124
100
AcDbEntity
  8
文本层
370
    -2
 62
     0
100
AcDbLine
 10
231.0632746295357
 20
114.3991820885723
 30
0.0
 11
213.4782287594566
 21
98.66847532276105
 31
0.0
  0
LINE
  5
176
330
124
100
AcDbEntity
  8
文本层
370
    -2
 62
     0
100
AcDbLine
 10
160.5611885953208
 20
51.33152505906921
 30
0.0
 11
157.9526021083563
 21
48.998013426352
 31
0.0
  0
MTEXT
  5
177
330
124
100
AcDbEntity
  8
文本层
 62
     0
100
AcDbMText
 10
236.3549412962024
 20
117.5241820885723
 30
0.0
210
0.0
220
0.0
230
1.0
 11
1.0
 21
0.0
 31
0.0
 40
5.0
 41
0.0
 71
     5
 72
     1
  1
\U+220564
  7
数字与字母
 73
     1
 44
1.0
  0
LINE
  5
178
330
124
100
AcDbEntity
  8
文本层
370
    -2
 62
     0
100
AcDbLine
 10
163.1697750822852
 20
53.66503669178641
 30
0.0
 11
210.8696422724921
 21
96.33496369004385
 31
0.0
  0
SOLID
  5
179
330
124
100
AcDbEntity
  8
文本层
 62
     0
100
AcDbTrace
 38
0.0
 10
160.1722699898679
 20
51.76628947356328
 11
160.9501072007736
 21
50.89676064457514
 12
163.1697750822852
 22
53.66503669178641
 13
163.1697750822852
 23
53.66503669178641
  0
SOLID
  5
17A
330
124
100
AcDbEntity
  8
文本层
 62
     0
100
AcDbTrace
 38
0.0
 10
213.0893101540037
 20
99.10323973725514
 11
213.8671473649094
 21
98.23371090826699
 12
210.8696422724921
 22
96.33496369004385
 13
210.8696422724921
 23
96.33496369004385
  0
POINT
  5
17B
330
124
100
AcDbEntity
  8
Defpoints
 62
     0
100
AcDbPoint
 10
210.8696422724921
 20
96.33496369004385
 30
0.0
 50
0.0
  0
POINT
  5
17C
330
124
100
AcDbEntity
  8
Defpoints
 62
     0
100
AcDbPoint
 10
163.1697750822852
 20
53.66503669178641
 30
0.0
 50
0.0
  0
ENDBLK
  5
12F
330
124
100
AcDbEntity
  8
0
100
AcDbBlockEnd
  0
BLOCK
  5
146
330
13C
100
AcDbEntity
  8
0
100
AcDbBlockBegin
  2
*D4
 70
     1
 10
0.0
 20
0.0
 30
0.0
  3
*D4
  1

  0
LINE
  5
17D
330
13C
100
AcDbEntity
  8
文本层
370
    -2
 62
     0
100
AcDbLine
 10
248.6073541212907
 20
52.77482036658274
 30
0.0
 11
238.815687454624
 21
52.77482036658274
 31
0.0
  0
LINE
  5
17E
330
13C
100
AcDbEntity
  8
文本层
370
    -2
 62
     0
100
AcDbLine
 10
238.815687454624
 20
52.77482036658274
 30
0.0
 11
224.67322187543
 21
68.65273396681737
 31
0.0
  0
LINE
  5
17F
330
13C
100
AcDbEntity
  8
文本层
370
    -2
 62
     0
100
AcDbLine
 10
213.3661954793476
 20
81.34726641501308
 30
0.0
 11
211.0382782801541
 21
83.96084662493574
 31
0.0
  0
MTEXT
  5
180
330
13C
100
AcDbEntity
  8
文本层
 62
     0
100
AcDbMText
 10
244.0240207879574
 20
55.89982036658273
 30
0.0
210
0.0
220
0.0
230
1.0
 11
1.0
 21
0.0
 31
0.0
 40
5.0
 41
0.0
 71
     5
 72
     1
  1
\U+220510
  7
数字与字母
 73
     1
 44
1.0
  0
LINE
  5
181
330
13C
100
AcDbEntity
  8
文本层
370
    -2
 62
     0
100
AcDbLine
 10
215.694112678541
 20
78.73368620509044
 30
0.0
 11
222.3453046762366
 21
71.26631417674002
 31
0.0
  0
SOLID
  5
182
330
13C
100
AcDbEntity
  8
文本层
 62
     0
100
AcDbTrace
 38
0.0
 10
213.8017921810014
 20
81.73525261487868
 11
212.9305987776938
 21
80.95928021514752
 12
215.694112678541
 22
78.73368620509044
 13
215.694112678541
 23
78.73368620509044
  0
SOLID
  5
183
330
13C
100
AcDbEntity
  8
文本层
 62
     0
100
AcDbTrace
 38
0.0
 10
225.1088185770838
 20
69.04072016668293
 11
224.2376251737762
 21
68.26474776695177
 12
222.3453046762366
 22
71.26631417674002
 13
222.3453046762366
 23
71.26631417674002
  0
POINT
  5
184
330
13C
100
AcDbEntity
  8
Defpoints
 62
     0
100
AcDbPoint
 10
222.3453046762366
 20
71.26631417674002
 30
0.0
 50
0.0
  0
POINT
  5
185
330
13C
100
AcDbEntity
  8
Defpoints
 62
     0
100
AcDbPoint
 10
215.694112678541
 20
78.73368620509044
 30
0.0
 50
0.0
  0
ENDBLK
  5
147
330
13C
100
AcDbEntity
  8
0
100
AcDbBlockEnd
  0
BLOCK
  5
15E
330
154
100
AcDbEntity
  8
0
100
AcDbBlockBegin
  2
*D5
 70
     1
 10
0.0
 20
0.0
 30
0.0
  3
*D5
  1

  0
LINE
  5
16B
330
154
100
AcDbEntity
  8
文本层
370
    -2
 62
     0
100
AcDbLine
 10
50.21633283278783
 20
117.5000001909152
 30
0.0
 11
23.62992318976747
 21
117.5000001909152
 31
0.0
  0
LINE
  5
16C
330
154
100
AcDbEntity
  8
文本层
370
    -2
 62
     0
100
AcDbLine
 10
50.21633283278783
 20
32.50000019091522
 30
0.0
 11
23.62992318976745
 21
32.50000019091522
 31
0.0
  0
LINE
  5
16D
330
154
100
AcDbEntity
  8
文本层
370
    -2
 62
     0
100
AcDbLine
 10
26.12992318976747
 20
114.0000001909152
 30
0.0
 11
26.12992318976745
 21
36.00000019091522
 31
0.0
  0
SOLID
  5
16E
330
154
100
AcDbEntity
  8
文本层
 62
     0
100
AcDbTrace
 38
0.0
 10
25.54658985643414
 20
114.0000001909152
 11
26.7132565231008
 21
114.0000001909152
 12
26.12992318976747
 22
117.5000001909152
 13
26.12992318976747
 23
117.5000001909152
  0
SOLID
  5
16F
330
154
100
AcDbEntity
  8
文本层
 62
     0
100
AcDbTrace
 38
0.0
 10
25.54658985643412
 20
36.00000019091522
 11
26.71325652310078
 21
36.00000019091522
 12
26.12992318976745
 22
32.50000019091522
 13
26.12992318976745
 23
32.50000019091522
  0
MTEXT
  5
170
330
154
100
AcDbEntity
  8
文本层
 62
     0
100
AcDbMText
 10
23.00492318976745
 20
75.00000019091523
 30
0.0
210
0.0
220
0.0
230
1.0
 11
6.123031769111886E-17
 21
1.0
 31
0.0
 40
5.0
 41
0.0
 71
     5
 72
     1
  1
85
  7
数字与字母
 73
     1
 44
1.0
  0
POINT
  5
171
330
154
100
AcDbEntity
  8
Defpoints
 62
     0
100
AcDbPoint
 10
50.21633283278783
 20
117.5000001909152
 30
0.0
 50
0.0
  0
POINT
  5
172
330
154
100
AcDbEntity
  8
Defpoints
 62
     0
100
AcDbPoint
 10
50.21633283278783
 20
32.50000019091522
 30
0.0
 50
0.0
  0
POINT
  5
173
330
154
100
AcDbEntity
  8
Defpoints
 62
     0
100
AcDbPoint
 10
26.12992318976745
 20
32.50000019091522
 30
0.0
 50
0.0
  0
ENDBLK
  5
15F
330
154
100
AcDbEntity
  8
0
100
AcDbBlockEnd
  0
BLOCK
  5
191
330
187
100
AcDbEntity
  8
0
100
AcDbBlockBegin
  2
*D6
 70
     1
 10
0.0
 20
0.0
 30
0.0
  3
*D6
  1

  0
LINE
  5
194
330
187
100
AcDbEntity
  8
文本层
370
    -2
 62
     0
100
AcDbLine
 10
85.21633283278783
 20
53.00000019091521
 30
0.0
 11
118.28826453729
 21
53.0000001909152
 31
0.0
  0
LINE
  5
195
330
187
100
AcDbEntity
  8
文本层
370
    -2
 62
     0
100
AcDbLine
 10
85.21633283278783
 20
97.00000019091522
 30
0.0
 11
118.28826453729
 21
97.0000001909152
 31
0.0
  0
LINE
  5
196
330
187
100
AcDbEntity
  8
文本层
370
    -2
 62
     0
100
AcDbLine
 10
115.78826453729
 20
56.5000001909152
 30
0.0
 11
115.78826453729
 21
93.5000001909152
 31
0.0
  0
SOLID
  5
197
330
187
100
AcDbEntity
  8
文本层
 62
     0
100
AcDbTrace
 38
0.0
 10
115.2049312039567
 20
56.5000001909152
 11
116.3715978706233
 21
56.5000001909152
 12
115.78826453729
 22
53.0000001909152
 13
115.78826453729
 23
53.0000001909152
  0
SOLID
  5
198
330
187
100
AcDbEntity
  8
文本层
 62
     0
100
AcDbTrace
 38
0.0
 10
115.2049312039567
 20
93.5000001909152
 11
116.3715978706233
 21
93.5000001909152
 12
115.78826453729
 22
97.0000001909152
 13
115.78826453729
 23
97.0000001909152
  0
MTEXT
  5
199
330
187
100
AcDbEntity
  8
文本层
 62
     0
100
AcDbMText
 10
112.66326453729
 20
75.00000019091523
 30
0.0
210
0.0
220
0.0
230
1.0
 11
6.123031769111886E-17
 21
1.0
 31
0.0
 40
5.0
 41
0.0
 71
     5
 72
     1
  1
44
  7
数字与字母
 73
     1
 44
1.0
  0
POINT
  5
19A
330
187
100
AcDbEntity
  8
Defpoints
 62
     0
100
AcDbPoint
 10
85.21633283278783
 20
53.00000019091521
 30
0.0
 50
0.0
  0
POINT
  5
19B
330
187
100
AcDbEntity
  8
Defpoints
 62
     0
100
AcDbPoint
 10
85.21633283278783
 20
97.00000019091522
 30
0.0
 50
0.0
  0
POINT
  5
19C
330
187
100
AcDbEntity
  8
Defpoints
 62
     0
100
AcDbPoint
 10
115.78826453729
 20
97.0000001909152
 30
0.0
 50
0.0
  0
ENDBLK
  5
192
330
187
100
AcDbEntity
  8
0
100
AcDbBlockEnd
  0
BLOCK
  5
1A9
330
19F
100
AcDbEntity
  8
0
100
AcDbBlockBegin
  2
*D7
 70
     1
 10
0.0
 20
0.0
 30
0.0
  3
*D7
  1

  0
LINE
  5
1AC
330
19F
100
AcDbEntity
  8
文本层
370
    -2
 62
     0
100
AcDbLine
 10
64.21633283278783
 20
117.5000001909152
 30
0.0
 11
64.21633283278783
 21
134.0731844301443
 31
0.0
  0
LINE
  5
1AD
330
19F
100
AcDbEntity
  8
文本层
370
    -2
 62
     0
100
AcDbLine
 10
90.21633283278783
 20
92.00000019091522
 30
0.0
 11
90.21633283278783
 21
134.0731844301443
 31
0.0
  0
LINE
  5
1AE
330
19F
100
AcDbEntity
  8
文本层
370
    -2
 62
     0
100
AcDbLine
 10
67.71633283278783
 20
131.5731844301443
 30
0.0
 11
86.71633283278783
 21
131.5731844301443
 31
0.0
  0
SOLID
  5
1AF
330
19F
100
AcDbEntity
  8
文本层
 62
     0
100
AcDbTrace
 38
0.0
 10
67.71633283278783
 20
132.1565177634777
 11
67.71633283278783
 21
130.989851096811
 12
64.21633283278783
 22
131.5731844301443
 13
64.21633283278783
 23
131.5731844301443
  0
SOLID
  5
1B0
330
19F
100
AcDbEntity
  8
文本层
 62
     0
100
AcDbTrace
 38
0.0
 10
86.71633283278783
 20
132.1565177634777
 11
86.71633283278783
 21
130.989851096811
 12
90.21633283278783
 22
131.5731844301443
 13
90.21633283278783
 23
131.5731844301443
  0
MTEXT
  5
1B1
330
19F
100
AcDbEntity
  8
文本层
 62
     0
100
AcDbMText
 10
77.21633283278783
 20
134.6981844301443
 30
0.0
210
0.0
220
0.0
230
1.0
 11
1.0
 21
0.0
 31
0.0
 40
5.0
 41
0.0
 71
     5
 72
     1
  1
26
  7
数字与字母
 73
     1
 44
1.0
  0
POINT
  5
1B2
330
19F
100
AcDbEntity
  8
Defpoints
 62
     0
100
AcDbPoint
 10
64.21633283278783
 20
117.5000001909152
 30
0.0
 50
0.0
  0
POINT
  5
1B3
330
19F
100
AcDbEntity
  8
Defpoints
 62
     0
100
AcDbPoint
 10
90.21633283278783
 20
92.00000019091522
 30
0.0
 50
0.0
  0
POINT
  5
1B4
330
19F
100
AcDbEntity
  8
Defpoints
 62
     0
100
AcDbPoint
 10
90.21633283278783
 20
131.5731844301443
 30
0.0
 50
0.0
  0
ENDBLK
  5
1AA
330
19F
100
AcDbEntity
  8
0
100
AcDbBlockEnd
  0
BLOCK
  5
1C1
330
1B7
100
AcDbEntity
  8
0
100
AcDbBlockBegin
  2
*D8
 70
     1
 10
0.0
 20
0.0
 30
0.0
  3
*D8
  1

  0
LINE
  5
1B8
330
1B7
100
AcDbEntity
  8
文本层
370
    -2
 62
     0
100
AcDbLine
 10
50.21633283278783
 20
117.5000001909152
 30
0.0
 11
50.21633283278783
 21
147.5429903355129
 31
0.0
  0
LINE
  5
1B9
330
1B7
100
AcDbEntity
  8
文本层
370
    -2
 62
     0
100
AcDbLine
 10
90.21633283278783
 20
117.5000001909152
 30
0.0
 11
90.21633283278783
 21
147.5429903355129
 31
0.0
  0
LINE
  5
1BA
330
1B7
100
AcDbEntity
  8
文本层
370
    -2
 62
     0
100
AcDbLine
 10
53.71633283278783
 20
145.0429903355129
 30
0.0
 11
86.71633283278783
 21
145.0429903355129
 31
0.0
  0
SOLID
  5
1BB
330
1B7
100
AcDbEntity
  8
文本层
 62
     0
100
AcDbTrace
 38
0.0
 10
53.71633283278783
 20
145.6263236688463
 11
53.71633283278783
 21
144.4596570021796
 12
50.21633283278783
 22
145.0429903355129
 13
50.21633283278783
 23
145.0429903355129
  0
SOLID
  5
1BC
330
1B7
100
AcDbEntity
  8
文本层
 62
     0
100
AcDbTrace
 38
0.0
 10
86.71633283278783
 20
145.6263236688463
 11
86.71633283278783
 21
144.4596570021796
 12
90.21633283278783
 22
145.0429903355129
 13
90.21633283278783
 23
145.0429903355129
  0
MTEXT
  5
1BD
330
1B7
100
AcDbEntity
  8
文本层
 62
     0
100
AcDbMText
 10
70.21633283278783
 20
148.1679903355129
 30
0.0
210
0.0
220
0.0
230
1.0
 11
1.0
 21
0.0
 31
0.0
 40
5.0
 41
0.0
 71
     5
 72
     1
  1
40
  7
数字与字母
 73
     1
 44
1.0
  0
POINT
  5
1BE
330
1B7
100
AcDbEntity
  8
Defpoints
 62
     0
100
AcDbPoint
 10
50.21633283278783
 20
117.5000001909152
 30
0.0
 50
0.0
  0
POINT
  5
1BF
330
1B7
100
AcDbEntity
  8
Defpoints
 62
     0
100
AcDbPoint
 10
90.21633283278783
 20
117.5000001909152
 30
0.0
 50
0.0
  0
POINT
  5
1C0
330
1B7
100
AcDbEntity
  8
Defpoints
 62
     0
100
AcDbPoint
 10
90.21633283278783
 20
145.0429903355129
 30
0.0
 50
0.0
  0
ENDBLK
  5
1C2
330
1B7
100
AcDbEntity
  8
0
100
AcDbBlockEnd
  0
ENDSEC
  0
SECTION
  2
ENTITIES
  0
CIRCLE
  5
A9
330
1F
100
AcDbEntity
  8
轮廓线
100
AcDbCircle
 10
187.0197086773888
 20
75.00000019091522
 30
0.0
 40
42.5
  0
CIRCLE
  5
AA
102
{ACAD_REACTORS
330
13A
102
}
330
1F
100
AcDbEntity
  8
点划线
100
AcDbCircle
 10
187.0197086773888
 20
75.00000019091522
 30
0.0
 40
32.0
  0
CIRCLE
  5
AB
330
1F
100
AcDbEntity
  8
隐藏线
100
AcDbCircle
 10
187.0197086773888
 20
75.00000019091522
 30
0.0
 40
22.0
  0
CIRCLE
  5
AC
330
1F
100
AcDbEntity
  8
轮廓线
100
AcDbCircle
 10
187.0197086773888
 20
75.00000019091522
 30
0.0
 40
12.0
  0
CIRCLE
  5
DE
330
1F
100
AcDbEntity
  8
轮廓线
100
AcDbCircle
 10
187.0197086773888
 20
75.00000019091522
 30
0.0
 40
11.25
  0
CIRCLE
  5
DF
330
1F
100
AcDbEntity
  8
轮廓线
100
AcDbCircle
 10
187.0197086773888
 20
107.0000001909152
 30
0.0
 40
5.0
  0
CIRCLE
  5
E0
330
1F
100
AcDbEntity
  8
轮廓线
100
AcDbCircle
 10
155.0197086773888
 20
75.00000019091522
 30
0.0
 40
5.0
  0
CIRCLE
  5
E1
330
1F
100
AcDbEntity
  8
轮廓线
100
AcDbCircle
 10
187.0197086773888
 20
43.00000019091522
 30
0.0
 40
5.0
  0
CIRCLE
  5
E2
102
{ACAD_REACTORS
330
152
102
}
330
1F
100
AcDbEntity
  8
轮廓线
100
AcDbCircle
 10
219.0197086773888
 20
75.00000019091523
 30
0.0
 40
5.0
  0
LINE
  5
E3
102
{ACAD_REACTORS
330
1B5
102
}
330
1F
100
AcDbEntity
  8
轮廓线
100
AcDbLine
 10
64.21633283278783
 20
117.5000001909152
 30
0.0
 11
50.21633283278783
 21
117.5000001909152
 31
0.0
  0
LINE
  5
E4
330
1F
100
AcDbEntity
  8
点划线
100
AcDbLine
 10
68.21633283278783
 20
107.0000001909152
 30
0.0
 11
46.21633283278783
 21
107.0000001909152
 31
0.0
  0
LINE
  5
E5
102
{ACAD_REACTORS
330
19D
102
}
330
1F
100
AcDbEntity
  8
轮廓线
100
AcDbLine
 10
68.21633283278783
 20
97.00000019091522
 30
0.0
 11
85.21633283278783
 21
97.00000019091522
 31
0.0
  0
LINE
  5
E6
330
1F
100
AcDbEntity
  8
点划线
100
AcDbLine
 10
46.21633283278783
 20
75.00000019091522
 30
0.0
 11
94.21633283278783
 21
75.00000019091522
 31
0.0
  0
LINE
  5
E7
102
{ACAD_REACTORS
330
122
330
19D
102
}
330
1F
100
AcDbEntity
  8
轮廓线
100
AcDbLine
 10
68.21633283278783
 20
53.00000019091522
 30
0.0
 11
85.21633283278783
 21
53.00000019091521
 31
0.0
  0
LINE
  5
E8
102
{ACAD_REACTORS
330
122
102
}
330
1F
100
AcDbEntity
  8
轮廓线
100
AcDbLine
 10
50.21633283278783
 20
48.00000019091522
 30
0.0
 11
64.21633283278783
 21
48.00000019091522
 31
0.0
  0
LINE
  5
E9
330
1F
100
AcDbEntity
  8
点划线
100
AcDbLine
 10
46.21633283278783
 20
43.00000019091522
 30
0.0
 11
68.21633283278783
 21
43.00000019091522
 31
0.0
  0
LINE
  5
EA
102
{ACAD_REACTORS
330
122
102
}
330
1F
100
AcDbEntity
  8
轮廓线
100
AcDbLine
 10
50.21633283278783
 20
38.00000019091522
 30
0.0
 11
64.21633283278783
 21
38.00000019091522
 31
0.0
  0
LINE
  5
EB
102
{ACAD_REACTORS
330
122
102
}
330
1F
100
AcDbEntity
  8
轮廓线
100
AcDbLine
 10
50.21633283278783
 20
32.50000019091522
 30
0.0
 11
64.21633283278783
 21
32.50000019091522
 31
0.0
  0
LINE
  5
EC
102
{ACAD_REACTORS
330
122
330
16A
102
}
330
1F
100
AcDbEntity
  8
轮廓线
100
AcDbLine
 10
50.21633283278783
 20
117.5000001909152
 30
0.0
 11
50.21633283278783
 21
32.50000019091522
 31
0.0
  0
LINE
  5
ED
330
1F
100
AcDbEntity
  8
轮廓线
100
AcDbLine
 10
64.21633283278783
 20
117.5000001909152
 30
0.0
 11
64.21633283278783
 21
101.0000001909152
 31
0.0
  0
LINE
  5
EE
102
{ACAD_REACTORS
330
122
330
1B5
102
}
330
1F
100
AcDbEntity
  8
轮廓线
100
AcDbLine
 10
90.21633283278783
 20
92.00000019091522
 30
0.0
 11
90.21633283278783
 21
58.00000019091521
 31
0.0
  0
ARC
  5
101
102
{ACAD_REACTORS
330
122
102
}
330
1F
100
AcDbEntity
  8
轮廓线
100
AcDbCircle
 10
85.21633283278783
 20
58.00000019091521
 30
0.0
 40
5.0
100
AcDbArc
 50
270.0
 51
0.0
  0
ARC
  5
106
330
1F
100
AcDbEntity
  8
轮廓线
100
AcDbCircle
 10
85.21633283278783
 20
92.00000019091522
 30
0.0
 40
5.0
100
AcDbArc
 50
0.0
 51
90.0
  0
ARC
  5
108
330
1F
100
AcDbEntity
  8
轮廓线
100
AcDbCircle
 10
68.21633283278783
 20
101.0000001909152
 30
0.0
 40
4.0
100
AcDbArc
 50
180.0
 51
270.0
  0
ARC
  5
109
102
{ACAD_REACTORS
330
122
102
}
330
1F
100
AcDbEntity
  8
轮廓线
100
AcDbCircle
 10
68.21633283278783
 20
49.00000019091522
 30
0.0
 40
4.0
100
AcDbArc
 50
89.99999999999997
 51
180.0
  0
LINE
  5
10A
102
{ACAD_REACTORS
330
122
102
}
330
1F
100
AcDbEntity
  8
轮廓线
100
AcDbLine
 10
64.21633283278783
 20
49.00000019091522
 30
0.0
 11
64.21633283278783
 21
32.50000019091522
 31
0.0
  0
LINE
  5
10C
102
{ACAD_REACTORS
330
122
330
1C5
102
}
330
1F
100
AcDbEntity
  8
轮廓线
100
AcDbLine
 10
51.71633283278783
 20
63.00000019091522
 30
0.0
 11
50.21633283278783
 21
61.50000019091522
 31
0.0
  0
LINE
  5
10D
102
{ACAD_REACTORS
330
122
102
}
330
1F
100
AcDbEntity
  8
轮廓线
100
AcDbLine
 10
88.71633283278783
 20
63.00000019091522
 30
0.0
 11
90.21633283278783
 21
61.50000019091522
 31
0.0
  0
LINE
  5
10E
102
{ACAD_REACTORS
330
122
102
}
330
1F
100
AcDbEntity
  8
轮廓线
100
AcDbLine
 10
51.71633283278783
 20
63.00000019091522
 30
0.0
 11
88.71633283278783
 21
63.00000019091522
 31
0.0
  0
LINE
  5
10F
330
1F
100
AcDbEntity
  8
轮廓线
100
AcDbLine
 10
51.71633283278783
 20
63.00000019091522
 30
0.0
 11
51.71633283278783
 21
75.00000019091522
 31
0.0
  0
LINE
  5
110
330
1F
100
AcDbEntity
  8
轮廓线
100
AcDbLine
 10
88.71633283278783
 20
63.00000019091522
 30
0.0
 11
88.71633283278783
 21
75.00000019091522
 31
0.0
  0
LINE
  5
111
330
1F
100
AcDbEntity
  8
轮廓线
100
AcDbLine
 10
64.21633283278783
 20
107.0000001909152
 30
0.0
 11
64.21633283278783
 21
75.00000019091522
 31
0.0
  0
LINE
  5
112
330
1F
100
AcDbEntity
  8
点划线
100
AcDbLine
 10
187.0197086773888
 20
121.5000001909152
 30
0.0
 11
187.0197086773888
 21
28.50000019091522
 31
0.0
  0
LINE
  5
113
330
1F
100
AcDbEntity
  8
点划线
100
AcDbLine
 10
140.5197086773888
 20
75.00000019091522
 30
0.0
 11
233.5197086773888
 21
75.00000019091522
 31
0.0
  0
HATCH
  5
122
330
1F
100
AcDbEntity
  8
剖面线
100
AcDbHatch
 10
0.0
 20
0.0
 30
0.0
210
0.0
220
0.0
230
1.0
  2
ANSI31
 70
     0
 71
     1
 91
        2
 92
        7
 72
     1
 73
     1
 93
       10
 10
68.21633283278781
 20
53.00000019091522
 42
0.0
 10
85.21633283278783
 20
53.00000019091521
 42
0.4142135623730951
 10
90.21633283278783
 20
58.00000019091521
 42
0.0
 10
90.21633283278783
 20
61.50000019091522
 42
0.0
 10
88.71633283278783
 20
63.00000019091522
 42
0.0
 10
51.71633283278783
 20
63.00000019091523
 42
0.0
 10
50.21633283278783
 20
61.50000019091522
 42
0.0
 10
50.21633283278783
 20
48.00000019091522
 42
0.0
 10
64.21633283278783
 20
48.00000019091522
 42
0.0
 10
64.21633283278783
 20
49.00000019091522
 42
-0.414213562373094
 97
       10
330
EE
330
10D
330
10E
330
10C
330
EC
330
E8
330
10A
330
109
330
E7
330
101
 92
        7
 72
     0
 73
     1
 93
        4
 10
64.21633283278783
 20
32.50000019091522
 10
64.21633283278783
 20
38.00000019091522
 10
50.21633283278783
 20
38.00000019091522
 10
50.21633283278783
 20
32.50000019091522
 97
        4
330
EA
330
EC
330
EB
330
10A
 75
     0
 76
     1
 52
0.0
 41
0.75
 77
     0
 78
     1
 53
45.0
 43
128.3654606276922
 44
0.0
 45
-1.683798022700466
 46
1.683798022700466
 79
     0
 47
0.1961390116526023
 98
        2
 10
61.92803703409402
 20
54.53424721552912
 10
56.8810456701716
 20
34.66402950414471
  0
DIMENSION
  5
123
102
{ACAD_REACTORS
330
13A
102
}
102
{ACAD_XDICTIONARY
360
130
102
}
330
1F
100
AcDbEntity
  8
文本层
100
AcDbDimension
  2
*D3
 10
163.1697750822852
 20
53.66503669178641
 30
0.0
 11
236.3549412962024
 21
114.3991820885723
 31
0.0
 70
   163
 71
     5
 42
64.0
  3
机械标注
100
AcDbDiametricDimension
 15
210.8696422724921
 25
96.33496369004385
 35
0.0
 40
0.0
1001
ACAD
1000
DSTYLE
1002
{
1070
   288
1070
     1
1002
}
  0
DIMENSION
  5
13B
102
{ACAD_REACTORS
330
152
102
}
102
{ACAD_XDICTIONARY
360
148
102
}
330
1F
100
AcDbEntity
  8
文本层
100
AcDbDimension
  2
*D4
 10
215.694112678541
 20
78.73368620509044
 30
0.0
 11
244.0240207879574
 21
52.77482036658273
 31
0.0
 70
   163
 71
     5
 42
9.999999999999972
  3
机械标注
100
AcDbDiametricDimension
 15
222.3453046762366
 25
71.26631417674002
 35
0.0
 40
0.0
1001
ACAD
1000
DSTYLE
1002
{
1070
   288
1070
     1
1002
}
  0
DIMENSION
  5
153
102
{ACAD_REACTORS
330
16A
102
}
102
{ACAD_XDICTIONARY
360
160
102
}
330
1F
100
AcDbEntity
  8
文本层
100
AcDbDimension
  2
*D5
 10
26.12992318976745
 20
32.50000019091522
 30
0.0
 11
23.00492318976745
 21
75.00000019091523
 31
0.0
 70
    32
 71
     5
 42
85.0
  3
机械标注
100
AcDbAlignedDimension
 13
50.21633283278783
 23
117.5000001909152
 33
0.0
 14
50.21633283278783
 24
32.50000019091522
 34
0.0
 52
0.0
 50
90.0
100
AcDbRotatedDimension
  0
DIMENSION
  5
186
102
{ACAD_REACTORS
330
19D
102
}
102
{ACAD_XDICTIONARY
360
193
102
}
330
1F
100
AcDbEntity
  8
文本层
100
AcDbDimension
  2
*D6
 10
115.78826453729
 20
97.0000001909152
 30
0.0
 11
112.66326453729
 21
75.00000019091523
 31
0.0
 70
    32
 71
     5
 42
44.0
  3
机械标注
100
AcDbAlignedDimension
 13
85.21633283278783
 23
53.00000019091521
 33
0.0
 14
85.21633283278783
 24
97.00000019091522
 34
0.0
 52
0.0
 50
90.0
100
AcDbRotatedDimension
  0
DIMENSION
  5
19E
102
{ACAD_REACTORS
330
1B5
102
}
102
{ACAD_XDICTIONARY
360
1AB
102
}
330
1F
100
AcDbEntity
  8
文本层
100
AcDbDimension
  2
*D7
 10
90.21633283278783
 20
131.5731844301443
 30
0.0
 11
77.21633283278783
 21
134.6981844301443
 31
0.0
 70
    32
 71
     5
 42
26.0
  3
机械标注
100
AcDbAlignedDimension
 13
64.21633283278783
 23
117.5000001909152
 33
0.0
 14
90.21633283278783
 24
92.00000019091522
 34
0.0
 52
0.0
100
AcDbRotatedDimension
  0
DIMENSION
  5
1B6
330
1F
100
AcDbEntity
  8
文本层
100
AcDbDimension
  2
*D8
 10
90.21633283278783
 20
145.0429903355129
 30
0.0
 11
70.21633283278783
 21
148.1679903355129
 31
0.0
 70
    32
 71
     5
 42
40.0
  3
机械标注
100
AcDbAlignedDimension
 13
50.21633283278783
 23
117.5000001909152
 33
0.0
 14
90.21633283278783
 24
117.5000001909152
 34
0.0
 52
0.0
100
AcDbRotatedDimension
  0
LEADER
  5
1C3
102
{ACAD_REACTORS
330
1C5
102
}
102
{ACAD_XDICTIONARY
360
1C4
102
}
330
1F
100
AcDbEntity
  8
文本层
100
AcDbLeader
  3
机械标注
 71
     1
 73
     3
 72
     0
 74
     1
 40
0.0
 41
0.0
 76
     3
 10
50.96633283278783
 20
62.25000019091522
 30
0.0
 10
45.16279145252467
 20
52.19797165647102
 30
0.0
 10
42.49885319015658
 20
52.19797165647102
 30
0.0
210
0.0
220
0.0
230
1.0
211
1.0
221
0.0
231
0.0
212
0.0
222
0.0
232
0.0
213
0.0
223
0.0
233
0.0
340
0
1001
ACAD
1000
DSTYLE
1002
{
1070
   147
1040
0.625
1070
    77
1070
     0
1002
}
  0
LINE
  5
1C7
102
{ACAD_REACTORS
330
1CB
102
}
330
1F
100
AcDbEntity
  8
文本层
100
AcDbLine
 10
88.71633283278783
 20
63.00000019091522
 30
0.0
 11
107.8263615407527
 21
63.00000019091522
 31
0.0
  0
LEADER
  5
1C9
102
{ACAD_REACTORS
330
1CB
102
}
102
{ACAD_XDICTIONARY
360
1CA
102
}
330
1F
100
AcDbEntity
  8
文本层
100
AcDbLeader
  3
机械标注
 71
     1
 73
     3
 72
     0
 74
     1
 40
0.0
 41
0.0
 76
     3
 10
104.8569292307268
 20
63.00000019091523
 30
0.0
 10
104.8569292307268
 20
74.39586545734338
 30
0.0
 10
104.8569292307268
 20
77.81891814569539
 30
0.0
210
0.0
220
0.0
230
1.0
211
1.0
221
0.0
231
0.0
212
0.0
222
0.0
232
0.0
213
0.0
223
0.0
233
0.0
340
0
1001
ACAD
1000
DSTYLE
1002
{
1070
   147
1040
0.625
1070
    77
1070
     0
1002
}
  0
TEXT
  5
1CC
330
1F
100
AcDbEntity
  8
文本层
100
AcDbText
 10
32.87004447780367
 20
50.76905672581143
 30
0.0
 40
3.5
  1
C1.5
 41
0.7
  7
数字与字母
 11
0.0
 21
0.0
 31
0.0
100
AcDbText
  0
TEXT
  5
1CF
330
1F
100
AcDbEntity
  8
文本层
100
AcDbText
 10
103.6159238943414
 20
69.07517593419715
 30
0.0
 40
3.5
  1
%%c24
 50
90.0
 41
0.7
  7
数字与字母
 11
0.0
 21
0.0
 31
0.0
100
AcDbText
  0
VIEWPORT
  5
1D4
330
5E
100
AcDbEntity
 67
     1
  8
0
100
AcDbViewport
 10
133.3499908447266
 20
101.5999970436096
 30
0.0
 40
420.6540395483951
 41
228.4221935424805
 68
     1
 69
     1
 12
133.3499908447266
 22
101.5999970436096
 13
0.0
 23
0.0
 14
10.0
 24
10.0
 15
10.0
 25
10.0
 16
0.0
 26
0.0
 36
1.0
 17
0.0
 27
0.0
 37
0.0
 42
50.0
 43
0.0
 44
0.0
 45
228.4221935424805
 50
0.0
 51
0.0
 72
   100
 90
    32800
  1

281
     0
 71
     1
 74
     0
110
0.0
120
0.0
130
0.0
111
1.0
121
0.0
131
0.0
112
0.0
122
1.0
132
0.0
 79
     0
146
0.0
348
0
340
0
345
0
346
0
  0
VIEWPORT
  5
1D6
330
5E
100
AcDbEntity
 67
     1
  8
文本层
100
AcDbViewport
 10
133.3499939441681
 20
101.5999939441681
 30
0.0
 40
213.3599903106689
 41
162.5599903106689
 68
     1
 69
     2
 12
134.7125402281348
 22
89.57977331543782
 13
0.0
 23
0.0
 14
10.0
 24
10.0
 15
10.0
 25
10.0
 16
0.0
 26
0.0
 36
1.0
 17
0.0
 27
0.0
 37
0.0
 42
50.0
 43
0.0
 44
0.0
 45
176.3809073503235
 50
0.0
 51
0.0
 72
   100
 90
    32864
  1

281
     0
 71
     1
 74
     0
110
0.0
120
0.0
130
0.0
111
1.0
121
0.0
131
0.0
112
0.0
122
1.0
132
0.0
 79
     0
146
0.0
348
0
340
0
345
0
346
0
  0
ENDSEC
  0
SECTION
  2
OBJECTS
  0
DICTIONARY
  5
C
330
0
100
AcDbDictionary
281
     1
  3
ACAD_GROUP
350
D
  3
ACAD_LAYOUT
350
1A
  3
ACAD_MLINESTYLE
350
17
  3
ACAD_PLOTSETTINGS
350
19
  3
ACAD_PLOTSTYLENAME
350
E
  3
AcadDim
350
1C8
  3
AcDbVariableDictionary
350
67
  0
DICTIONARY
  5
D
102
{ACAD_REACTORS
330
C
102
}
330
C
100
AcDbDictionary
281
     1
  0
ACDBDICTIONARYWDFLT
  5
E
102
{ACAD_REACTORS
330
C
102
}
330
C
100
AcDbDictionary
281
     1
  3
Normal
350
F
100
AcDbDictionaryWithDefault
340
F
  0
ACDBPLACEHOLDER
  5
F
102
{ACAD_REACTORS
330
E
102
}
330
E
  0
DICTIONARY
  5
17
102
{ACAD_REACTORS
330
C
102
}
330
C
100
AcDbDictionary
281
     1
  3
Standard
350
18
  0
MLINESTYLE
  5
18
102
{ACAD_REACTORS
330
17
102
}
330
17
100
AcDbMlineStyle
  2
STANDARD
 70
     0
  3

 62
   256
 51
90.0
 52
90.0
 71
     2
 49
0.5
 62
   256
  6
BYLAYER
 49
-0.5
 62
   256
  6
BYLAYER
  0
DICTIONARY
  5
19
102
{ACAD_REACTORS
330
C
102
}
330
C
100
AcDbDictionary
281
     1
  0
DICTIONARY
  5
1A
102
{ACAD_REACTORS
330
C
102
}
330
C
100
AcDbDictionary
281
     1
  3
Model
350
22
  3
布局1
350
5A
  3
布局2
350
5F
  0
LAYOUT
  5
22
102
{ACAD_REACTORS
330
1A
102
}
330
1A
100
AcDbPlotSettings
  1

  2
none_device
  4
ANSI_A_(8.50_x_11.00_Inches)
  6

 40
6.349999904632568
 41
19.04999923706055
 42
6.350006103515625
 43
19.04998779296875
 44
215.8999938964844
 45
279.3999938964844
 46
0.0
 47
0.0
 48
0.0
 49
0.0
140
0.0
141
0.0
  6

142
1.0
143
57.07986212157697
 70
 11952
 72
     0
 73
     1
 74
     0
  7

 75
     0
147
0.01751931351673652
148
-2282.040442273535
149
2.561166666666503
100
AcDbLayout
  1
Model
 70
     1
 71
     0
 10
0.0
 20
0.0
 11
12.0
 21
9.0
 12
0.0
 22
0.0
 32
0.0
 14
0.0
 24
0.0
 34
0.0
 15
0.0
 25
0.0
 35
0.0
146
0.0
 13
0.0
 23
0.0
 33
0.0
 16
1.0
 26
0.0
 36
0.0
 17
0.0
 27
1.0
 37
0.0
 76
     0
330
1F
  0
LAYOUT
  5
5A
102
{ACAD_REACTORS
330
1A
102
}
330
1A
100
AcDbPlotSettings
  1

  2
none_device
  4
Letter_(8.50_x_11.00_Inches)
  6

 40
6.349999904632568
 41
6.349999904632568
 42
6.350006103515625
 43
6.350006103515625
 44
215.8999938964844
 45
279.3999938964844
 46
0.0
 47
0.0
 48
0.0
 49
0.0
140
0.0
141
0.0
  6

142
1.0
143
1.0
 70
   688
 72
     1
 73
     1
 74
     5
  7

 75
    16
147
1.0
148
0.0
149
0.0
100
AcDbLayout
  1
布局1
 70
     1
 71
     1
 10
-6.350006103515625
 20
-6.349999904632568
 11
273.0499877929688
 21
209.5499939918518
 12
0.0
 22
0.0
 32
0.0
 14
26.66999878883362
 24
20.31999878883363
 34
0.0
 15
240.0299890995026
 25
182.8799890995026
 35
0.0
146
0.0
 13
0.0
 23
0.0
 33
0.0
 16
1.0
 26
0.0
 36
0.0
 17
0.0
 27
1.0
 37
0.0
 76
     0
330
59
331
74
  0
LAYOUT
  5
5F
102
{ACAD_REACTORS
330
1A
102
}
330
1A
100
AcDbPlotSettings
  1

  2
none_device
  4
Letter_(8.50_x_11.00_Inches)
  6

 40
6.349999904632568
 41
6.349999904632568
 42
6.350006103515625
 43
6.350006103515625
 44
215.8999938964844
 45
279.3999938964844
 46
0.0
 47
0.0
 48
0.0
 49
0.0
140
0.0
141
0.0
  6

142
1.0
143
1.0
 70
   688
 72
     1
 73
     1
 74
     5
  7

 75
    16
147
1.0
148
0.0
149
0.0
100
AcDbLayout
  1
布局2
 70
     1
 71
     2
 10
-6.350006103515625
 20
-6.349999904632568
 11
273.0499877929688
 21
209.5499939918518
 12
0.0
 22
0.0
 32
0.0
 14
26.66999878883362
 24
20.31999878883363
 34
0.0
 15
240.0299890995026
 25
182.8799890995026
 35
0.0
146
0.0
 13
0.0
 23
0.0
 33
0.0
 16
1.0
 26
0.0
 36
0.0
 17
0.0
 27
1.0
 37
0.0
 76
     0
330
5E
331
1D4
  0
DICTIONARY
  5
67
102
{ACAD_REACTORS
330
C
102
}
330
C
100
AcDbDictionary
281
     1
  3
DIMASSOC
350
68
  3
HIDETEXT
350
6C
  0
DICTIONARYVAR
  5
68
102
{ACAD_REACTORS
330
67
102
}
330
67
100
DictionaryVariables
280
     0
  1
2
  0
DICTIONARYVAR
  5
6C
102
{ACAD_REACTORS
330
67
102
}
330
67
100
DictionaryVariables
280
     0
  1
1
  0
DICTIONARY
  5
130
330
123
100
AcDbDictionary
280
     1
281
     1
  3
ACAD_DIMASSOC
360
13A
  0
DICTIONARY
  5
148
330
13B
100
AcDbDictionary
280
     1
281
     1
  3
ACAD_DIMASSOC
360
152
  0
DICTIONARY
  5
160
330
153
100
AcDbDictionary
280
     1
281
     1
  3
ACAD_DIMASSOC
360
16A
  0
DICTIONARY
  5
193
330
186
100
AcDbDictionary
280
     1
281
     1
  3
ACAD_DIMASSOC
360
19D
  0
DICTIONARY
  5
1AB
330
19E
100
AcDbDictionary
280
     1
281
     1
  3
ACAD_DIMASSOC
360
1B5
  0
DICTIONARY
  5
1C4
330
1C3
100
AcDbDictionary
280
     1
281
     1
  3
ACAD_DIMASSOC
360
1C5
  0
XRECORD
  5
1C8
102
{ACAD_REACTORS
330
C
102
}
330
C
100
AcDbXrecord
280
     1
 90
   990106
  3

 60
     0
 61
     0
 62
     1
 63
     3
 64
     0
 65
     0
 66
     0
 67
     3
 68
     1
 69
     0
 70
     0
 71
     0
 72
     0
 40
0.0
170
     0
  0
DICTIONARY
  5
1CA
330
1C9
100
AcDbDictionary
280
     1
281
     1
  3
ACAD_DIMASSOC
360
1CB
  0
ENDSEC
  0
SECTION
  2
THUMBNAILIMAGE
 90
    18627
310
BF4800000201030100005000000002530100005C480000000000000000000000000000000000000000000000000000000000000000000000000000000000000000000000000000000000000000000000000000000000000000000000000000000000000000000028000000B400000061000000010008000000000034440000
310
00000000000000000001000000000000FFFFFF00FFFFFF0000000000FFFFFF00FFFFFF00FFFFFF00FFFFFF00FFFFFF00FFFFFF00FFFFFF00FFFFFF00330000006600000099000000CC000000FF00000000330000333300006633000099330000CC330000FF33000000660000336600006666000099660000CC660000FF6600
310
0000990000339900006699000099990000CC990000FF99000000CC000033CC000066CC000099CC0000CCCC0000FFCC000000FF000033FF000066FF000099FF0000CCFF0000FFFF000000003300330033006600330099003300CC003300FF00330000333300333333006633330099333300CC333300FF333300006633003366
310
33006666330099663300CC663300FF66330000993300339933006699330099993300CC993300FF99330000CC330033CC330066CC330099CC3300CCCC3300FFCC330000FF330033FF330066FF330099FF3300CCFF3300FFFF330000006600330066006600660099006600CC006600FF00660000336600333366006633660099
310
336600CC336600FF33660000666600336666006666660099666600CC666600FF66660000996600339966006699660099996600CC996600FF99660000CC660033CC660066CC660099CC6600CCCC6600FFCC660000FF660033FF660066FF660099FF6600CCFF6600FFFF660000009900330099006600990099009900CC009900
310
FF00990000339900333399006633990099339900CC339900FF33990000669900336699006666990099669900CC669900FF66990000999900339999006699990099999900CC999900FF99990000CC990033CC990066CC990099CC9900CCCC9900FFCC990000FF990033FF990066FF990099FF9900CCFF9900FFFF99000000CC
310
003300CC006600CC009900CC00CC00CC00FF00CC000033CC003333CC006633CC009933CC00CC33CC00FF33CC000066CC003366CC006666CC009966CC00CC66CC00FF66CC000099CC003399CC006699CC009999CC00CC99CC00FF99CC0000CCCC0033CCCC0066CCCC0099CCCC00CCCCCC00FFCCCC0000FFCC0033FFCC0066FF
310
CC0099FFCC00CCFFCC00FFFFCC000000FF003300FF006600FF009900FF00CC00FF00FF00FF000033FF003333FF006633FF009933FF00CC33FF00FF33FF000066FF003366FF006666FF009966FF00CC66FF00FF66FF000099FF003399FF006699FF009999FF00CC99FF00FF99FF0000CCFF0033CCFF0066CCFF0099CCFF00CC
310
CCFF00FFCCFF0000FFFF0033FFFF0066FFFF0099FFFF00CCFFFF0000000000FFFFFF000D0D0D001A1A1A00282828003535350043434300505050005D5D5D006B6B6B00787878008686860093939300A1A1A100AEAEAE00BBBBBB00C9C9C900D6D6D600E4E4E400F1F1F10000000000FFFFFF00FFFFFF00FFFFFF00FFFFFF00
310
FFFFFF00FFFFFF00FFFFFF00FFFFFF00FFFFFF00FFFFFF0000000000000000000000000000000000000000000000000000000000000000000000000000000000000000000000000000000000000000000000000000000000000000000000000000000000000000000000000000000000000000000000000000000000000000
310
00000000000000000000000000000000000000000000000000000000000000000000000000000000000000000000000000000000000000000000000000000000000000000000000000000000000000000000000000000000000000000000000000000000000000000000000000000000000000000000000000000000000000
310
00000000000000000000000000000000000000000000000000000000000000000000000000000000000000000000000000000000000000000000000000000000000000000000000000000000000000000000000000000000000000000000000000000000000000000000000000000000000000000000000000000000000000
310
00000000000000000000000000000000000000000000000000000000000000000000000000000000000000000000000000000000000000000000000000000000000000000000000000000000000000000000000000000000000000000000000000000000000000000000000000000000000000000000000000000000000000
310
00000000000000000000000000000000000000000000000000000000000000000000000000000000000000000000000000000000000000000000000000000000000000000000000000000000000000000000000000000000000000000000000000000000000000000000000000000000000000000000000000000000000000
310
00000000000000000000000000000000000000000000000000000000000000000000000000000000000000000000000000000000000000000000000000000000000000000000000000000000000000000000000000000000000000000000000000000000000000000000000000000000000000000000000000000000000000
310
00000000000000000000000000000000000000000000000000000000000000000000000000000000000000000000000000000000000000000000000000000000000000000000000000000000000000000000000000000000000000000000000000000000000000000000000000000000000000000000000000000000000000
310
00000000000000000000000000000000000000000000000000000000000000000000000000000000000000000000000000000000000000000000000000000000000000000000000000000000000000000000000000000000000000000000000000000000000000000000000000000000000000000000000000000000000000
310
00000000000000000000000000000000000000000000000000000000000000000000000000000000000000000000000000000000000000000000000000000000000000000000000000000000000000000000000000000000000000000000000000000000000000000000000000000000000000000000000000000000000000
310
00000000000000000000000000000000000000000000000000000000000000000000000000000000000000000000000000000000000000000000000000000000000000000000000000000000000000000000000000000000000000000000000000000000000000000000000000000000000000000000000000000000000000
310
00000000000000000000000000000000000000000000000000000000000000000000000000000000000000000000000000000000000000000000000000000000000000000000000000000000000000000000000000000000000000000000000000000000000000000000000000000000000000000000000000000000000000
310
00000000000000000000000000000000000000000000000000000000000000000000000000000000000000000000000000000000000000000000000000000000000000000000000000000000000000000000000000000000000000000000000000000000000000000000000000000000000000000000000000000000000000
310
00000000000000000000000000000000000000000000000000000000000000000000000000000000000000000000000000000000000000000000000000000000000000000000000000000000000000000000000000000000000000000000000000000000000000000000000000000000000000000000000000000000000000
310
00000000000000000000000000000000000000000000000000000000000000000000000000000000000000000000000000000000000000000000000000000000000000000000000000000000000000000000000000000000000000000000000000000000000000000000000000000000000000000000000000000000000000
310
00000000000000000000000000000000000000000000000000000000000000000000000000000000000000000000000000000000000000000000000000000000000000000000000000000000000000000000000000000000000000000000000000000000000000000000000000000000000000000000000000000000000000
310
00000000000000000000000000000000000000000000000000000000000000000000000000000000000000000000000000000000000000000000000000000000000000000000000000000000000000000000000000000000000000000000000000000000000000000000000000000000000000000000000000000000000000
310
00000000000000000000000000000000000000000000000000000000000000000000000000000000000000000000000000000000000000000000000000000000000000000000000000000000000000000000000000000000000000000000000000000000000000000000000000000000000000000000000000000000000000
310
00000000000000000000000000000000000000000000000000000000000000000000000000000000000000000000000000000000000000000000000000000000000000000000000000000000000000000000000000000000000000000000000000000000000000000000000000000000000000000000000000000000000000
310
00000000000000000000000000000000000000000000000000000000000000000000000000000000000000000000000000000000000000000000000000000000000000000000000000000000000000000000000000000000000000000000000000000000000000000000000000000000000000000000000000000000000000
310
00000000000000000000000000000000000000000000000000000000000000000000000000000000000000000000000000000000000000000000000000000000000000000000000000000000000000000000000000000000000000000000000000000000000000000000000000000000000000000000000000000000000000
310
00000000000000000000000000000000000000000000000000000000000000000000000000000000000000000000000000000000000000000000000000000000000000000000000000000000000000000000000000000000000000000000000000000000000000000000000000000000000000000000000000000000000000
310
00000000000000000000000000000000000000000000000000000000000000000000000000000000000000000000000000000000000000000000000000000000000000000000000000000000000000000000000000000000000000000000000000000000000000000000000000000000000000000000000000000000000000
310
00000000000000000000000000000000000000000000000000000000000000000000000000000000000000000000000000000000000000000000000000000000000000000000000000000000000000000000000000000000000000000000000000000000000000000000000000000000000000000000000000000000000000
310
00000000000000000000000000000000000000000000000000000000000000000000000000000000000000000000000000000000000000000000000000000000000000000000000000000000000000000000000000000000000000000000000000000000000000000000000000000000000000000000000000000000000000
310
00000000000000000000000000000000000000000000000000000000000000000000000000000000000000000000000000000000000000000000000000000000000000000000000000000000000000000000000000000000000000000000000000000000000000000000000000000000000000000000000000000000000000
310
00000000000000000000000000000000000000000000000000000000000000000000000000000000000000000000000000000000000000000000000000000000000000000000000000000000000000000000000000000000000000000000000000000000000000000000000000000000000000000000000000000000000000
310
00000000000000000000000000000000000000000000000000000000000000000000000000000000000000000000000000000000000000000000000000000000000000000000000000000000000000000000000000000000000000000000000000000000000000000000000000000000000000000000000000000000000000
310
00000000000000000000000000000000000000000000000000000000000000000000000000000000000000000000000000000000000000000000000000000000000000000000000000000000000000000000000000000000000000000000000000000000000000000000000000000000000000000000000000000000000000
310
00000000000000000000000000000000000000000000000000000000000000000000000000000000000000000000000000000000000000000000000000000000000000000000000000000000000000000000000000000000000000000000000000000000000000000000000000000000000000000000000000000000000000
310
00000000000000000000000000000000000000000000000000000000000000000000000000000000000000000000000000000000000000000000000000000000000000000000000000000000000000000000000000000000000000000000000000000000000000000000000000000000000000000000000000000000000000
310
000000000000000000000000000000000000000000000000000000000000000000000000000000000000000000000000000000000000000000000000000000000000000000000000000000000000000000000000000000000000000000000000000000000000000000BE000000000000000000000000000000000000000000
310
0000000000000000000000000000000000000000000000000000000000000000000000000000000000000000000000000000000000000000000000000000000000000000000000000000000000F5F5F5F5F5F5F5F5F5F500000000000000000000000000000000000000000000000000000000000000000000000000000000
310
0000000000000000000000000000000000000000000000000000F5F5F5F5F5BEF5F5F5F5F5F500000000000000000000000000000000000000000000000000000000000000000000000000000000000000000000000000000000000000000000000000000000000000000000000000000000009E9E9E9E9E9E9E9E9E9E9E9E
310
9E9E9E9EF520F520F520F520F5F50000000000000000000000000000000000000000000000000000000000000000000000000000000000000000000000000000000000000000000000000000F5F5F5F5F5F5F5F5BEF5F5F5F5F5F5F5F5F5000000000000000000000000000000000000000000000000000000000000000000
310
0000000000000000000000000000000000000000000000000000000000000000000000000000000000009E000000000000000000000000F5F520F520F520F5202020F5000000000000000000000000000000000000000000000000000000000000000000000000000000000000000000000000000000000000000000000000
310
F5F5F5F5F5F5F5F5F5F5BEF5F5F5F5F5F5F5F5F5F5F5000000000000000000000000000000000000000000000000000000000000000000000000000000000000000000000000000000000000000000000000000000000000000000000000009E000000000000000000000000F520F520F520F520F5F520F500000000000000
310
0000000000000000000000000000000000000000000000000000000000000000000000000000000000000000000000000000F5F5F5F5F5F5F5F500000000F5BE000000000000F5F5F5F5F5F5F5F500000000000000000000000000000000000000000000000000000000000000000000000000000000000000000000000000
310
0000000000000000000000000000000000000000009E000000000000000000000000F5F520F520F520F520F5F5F500000000000000000000000000000000000000000000000000000000000000000000000000000000000000000000000000000000000000F5F5F5F5F5F5F5000000000000F5F5BEF5F5F5000000000000F5
310
F5F5F5F5F50000000000000000000000000000000000000000000000000000000000000000000000000000000000000000000000000000000000000000000000000000000000000000009E000000000000000000000000F5F5F5F5F5F5F5F5F5F5F5F500000000000000000000000000000000000000000000000000000000
310
0000000000000000000000000000000000000000000000000000F5F5F5F5F5F500000000000000F5F5F5BEF5F5F5F500000000000000F5F5F5F5F5F500000000000000000000000000000000000000000000000000000000000000000000000000000000000000000000000000000000000000000000000000000000000000
310
9E000000000000000000000000F5F5F5000000000000F5F5F50000000000000000000000000000000000000000000000000000000000000000000000000000000000000000000000000000000000F5F5F5F5F5F500000000000000F5F5F5F5BEF5F5F5F50000000000000000F5F5F5F5F5F500000000000000000000000000
310
00000000000000000000000000000000000000000000000000000000000000000000000000000000000000000000000000000000009E0000000000000000000000BEF5F5F5BEBEBEBEBEBEF5F5F5BE000000000000000000000000000000000000000000000000000000000000000000000000000000000000000000000000
310
000000F5F5F5F5F5F50000000000000000F5F5F5F5BEBEF5F5F500000000000000000000F5F5F5F5F500000000000000000000000000000000000000000000000000000000000000000000000000000000000000000000000000000000000000000000000000000000009E000000000000000000000000F5F5F50000000000
310
00F5F5F5000000000000000000000000000000000000000000000000000000000000000000000000000000000000000000000000000000F5F5F5F5F500000000000000BEBEBE00F5F5F5BE00F5F5F5BEBEBEBE00000000000000F5F5F5F5F50000000000000000000000000000000000000000000000000000000000000000
310
00000000000000000000000000000000000000000000000000000000000000009E000000000000000000000000F5F5F5F5F5F5F5F5F5F5F5F50000000000000000000000000000000000000000000000000000000000000000000000000000000000000000000000000000F5F5F5F5F500000000000000BE00000000F5F5F5
310
BEF5F5F5F5000000BE0000000000000000F5F5F5F5F50000000000000000000000000000000000000000000000000000000000000000000000000000000000000000000000000000000000000000000000000000009E000000000000000000000000F5F520F520F520F520F5F5F50000000000000000000000000000000000
310
0000000000000000000000000000000000000000000000000000000000000000F5F5F5F5F5000000000000BEBE0000000000F5F5F5BEF5F5F5F50000000000BEBE000000000000F5F5F5F5F5000000000000000000000000000000000000000000000000000000000000000000000000000000000000000000000000000000
310
00000000000000000000009E000000000000000000000000F520F520F520F520F520F5F500000000000000000000000000000000000000000000000000000000000000000000000000000000000000000000000000F5F5F5F59E0000000000BE0000000000000000F5F5BEF5F5F50000000000000000BE000000000000F5F5
310
F5F500000000000000000000000000000000000000000000000000000000000000000000000000000000000000000000000000000000000000000000000000009E0000009E9E9E9E9E9E9E9E00F5F520002000200020F520F5F5F5F5F5F5F5F5F5F5F5F5F5F5F5000000000000000000000000000000000000000000000000
310
00000000000000000000F5F5F5F500009E9E0000BE0000000000000000000000BE000000000000000000000000BE000000000000F5F5F5F5000000000000000000000000000000000000000000000000000000000000000000000000000000000000000000000000000000000000000000000000009E0000009E9E9E009E9E
310
00009EF520F520002000200020F520F520F520F520F520F5209E9E9E9E9E9E9E9E9E9E9E9E9E9E9E9E9E9E9E9E9E0000000000000000000000000000000000F5F5F5F5000000009EBE0000000000000000008282828282008282000000000000000000BE0000000000F5F5F5F5000000000000009E9E9E9E9E9E9E00000000
310
000000000000000000000000000000000000000000000000000000000000000000000000000000000000009E000000009E9E009E9E00009EF5F5200020002000200020F520F520F520F520F520F520F5F520F5000000000000000000000000009E9E000000000000000000000000000000000000F5F5F50000000000BE9E00
310
0000000000008282000000BE0000000082820000000000000000BE0000000000F5F5F5F500000000009E009E9E9E9E9E9E00000000000000000000000000000000000000000000000000000000000000000000000000000000000000000000009E0000000000000000000000009E20F5200020002000200020002000200020
310
002000200020F5F5F5000000000000000000000000009E9E0000000000000000000000000000000000F5F5F50000000000BE00009E0000000000820000000000BE000000000000828200000000000000BE0000000000F5F5F5000000009E00009E9E9E9E9E9E00000000000000000000000000000000000000000000000000
310
000000000000000000000000000000000000000000009E0000000000000000000000009E9E2000200020002000200020002000200020002000202020F5F5000000000000000000000000009E000000000000000000000000000000000000F5F5F50000000000BE0000009E9E008200000000000000BE000000000000000082
310
00000000000000BE0000000000F5F5F500009E0000009E9E9E9E9E9E00000000000000000000000000000000000000000000000000000000000000000000000000000000000000000000009E0000000000000000000000009E9E9E2000200020002000200020002000200020002000002020F5000000000000000000000000
310
009E0000000000000000000000000000000000F5F5F50000000000BE0000000000009E0000000000000000BE00000000000000000000000000000000BE0000000000F5F5F5009E0000000000000000000000000000000000000000000000000000000000000000000000000000000000000000000000000000000000000000
310
009E000000000000000000000000F59E9EF520F520F520F520F520F520F520F520F520F520F5F520F5000000000000000000000000009E0000000000000000000000000000000000F5F5F50000000000BE000000000082009E0000000000F5F5F5F5F5F50000000000008282000000000000BE00000000F5F5F5009E000000
310
0000000000000000000000000000000000000000000000000000000000000000000000000000000000000000000000000000000000009E000000000000000000000000F5F5F520F520F520F520F520F520F520F520F520F520F5209E9E9E9E9E9E9E9E9E9E9E9E9E0000009E0000000000000000000000000000000000F5F5
310
F500000000BE0000000000008200009E0000F5F5F5F5BEF5F5F5F5F5000000000000820000000000BE0000000000F5F59E000000000000000000000000000000000000000000000000000000000000000000000000000000000000000000000000000000000000000000009E000000000000000000000000F5F5F5F5F5F5F5
310
F5F5F5F5F5F5F5F5F5F5F5F5F5F5F5F5F5F5F5F5000000000000009E00000000009E00000000000000000000000000000000F5F5F50000000000BE000000000082000000009EF5F5F5F5F5BEF5F5F5F5F5F50000000000820000000000000000000000F59EF500000000000000000000000000000000000000000000000000
310
0000000000000000000000000000000000000000000000000000000000000000009E000000000000000000000000F5F5F5F500000000000000000000000000000000000000F5F5F5F50000000000009E9E00000000009E00000000000000000000000000000000F5F5F500000000BE0000000000820000000000F59EF5F5F5
310
F5BE00F5F5F5F5F5F50000000082000000000000BE000000009EF5F5000000000000000000000000000000000000000000000000000000000000000000000000000000000000000000000000000000000000000000009E000000000000000000000000F5F5F5F500000000000000000000000000000000000000F5F5F5F500
310
000000009E009E00000000009E00000000000000000000000000000000F5F5F500F5F5F5F5F5F5000000000000000000F5F59E9E0000BE000000F5F5F5F5000000000082000000F5F5F5F5F5F59EF5F5F500000000000000000000000000000000000000000000000000000000000000000000000000000000000000000000
310
0000000000000000000000009E000000000000000000000000F5F5F5F500000000000000000000000000000000000000F5F5F5F5000000009E9E9E9E00000000009E00000000000000000000000000000000F5F5F5F5F5F5F5F5F5F5F50000820000000000F5F5F5009E00BE00000000F5F5F5F500000000820000F5F5F5F5
310
F5F59EF5F5F5F5000000000000000000000000000000000000000000000000000000000000000000000000000000000000000000000000000000000000009E9E9E9E000000000000000000000000F5F5F5F500000000000000000000000000000000000000F5F5F5F5000000009E9E9E9E000000009E9E0000000000000000
310
00000000000000F5F5F500F5F5F5F5F5F5F5F500008200000000F5F5F50000009EBE0000000000F5F5F500000000820000F5F5F5F5F59EF5F500F5F5F50000000000000000000000000000000000000000000000000000000000000000000000000000000000000000000000000000000000009E9E9E9E0000000000000000
310
00000000F5F5F5F5000000000000F5000000000000000000000000F5F5F5F5000000009E9E9E9E00009E9E9E9E000000000000000000000000000000F5F5F500F5F5F5BE00F5F5F500820000000000F5F5F5000000009E0000000000F5F5F5F5000000000000F5F5F5009EF5F5F500F5F5F500000000000000000000000000
310
00000000000000000000000000000000000000000000000000000000000000000000000000000000009E9E9E9E0000000000000000000000BEF5F5F5F5BEBEBEBEBEF5F5F5BEBEBEBE00BEBEBEBEBEBEF5F5F5F5BE0000009E9E9E9E000000009E9E0000000000000000000000000000BEBEBEBEBEBEBEBEBEBEBEBEBEBE82
310
BEBEBEBEBEBEBEBEBEBEBEBEBE9EBEBEBEBEBEBEBEBEBEBEBEBE00BEBEBEBE9EBEBEBEBEBEBEBEBEBE00000000000000000000000000000000000000000000000000000000000000000000000000000000000000000000000000000000009E9E9E9E000000000000000000000000F5F5F5000000000000F5F5F50000000000
310
00000000000000F5F5F5000000000000009E00009E9E9E9E000000000000000000000000000000F5F5F500F5F5F5F5F5F5F5F500820000000000F5F5F500000000BE009E000000F5F5F5F50000008200F5F5F59EF5F5F5F5F500F5F5F500000000000000000000000000000000000000000000000000000000000000000000
310
00000000000000000000000000000000000000000000009E000000000000000000000000F5F5F5000000000000F5F5F5000000000000000000000000F5F5F50000000000000000000000009E9E00000000000000000000000000000000F5F5F5F5F5F5F5F5F5F5F500008200000000F5F5F500000000BE00009E0000F5F5F5
310
00000000820000F59EF5F5F5F5F5F500F5F5F50000000000000000000000000000000000000000000000000000000000000000000000000000000000000000000000000000000000000000009E000000000000000000000000F5F5F5000000000000F5F5F5000000000000000000000000F5F5F50000000000000000000000
310
00009E00000000000000000000000000000000F5F5F500F5F5F5F5F5F5000000820000000000F5F5F5000000BE0000009E9EF5F5F5000000008200009E9EF5F5F5F5F500F5F5F50000000000000000000000000000000000000000000000000000000000000000000000000000000000000000000000000000000000000000
310
00009E000000000000000000000000F5F5F5000000000000F5F5F5000000000000000000000000F5F5F5000000000000000000000000009E00000000000000000000000000000000F5F5F50000F5F5F50000000000820000000000F5F5F5F5F500BE0000F5F5F59EF500000000008200009E00F5F5F5000000F5F5F5000000
310
000000000000000000000000000000000000000000000000000000000000000000000000000000000000000000000000000000000000009E000000000000000000000000F5F5F5000000000000F5F5F5000000000000000000000000F5F5F5000000000000000000000000009E00000000000000000000000000000000F5F5
310
F500000000BE0000000000000000000000F5F5F5F5F5F5BEF5F5F5F5F5F59E000000008200009E000000BE00000000F5F5F5000000000000000000000000000000000000000000000000000000000000000000000000000000000000000000000000000000000000000000009E000000000000000000000000F5F5F5000000
310
000000F5F5F5000000000000000000000000F5F5F5000000000000000000000000009E0000000000000000000000000000000000F5F5F500000000BE0000000000820000000000F5F5F5F5F5BEF5F5F5F5F5F5009E000000820000000000BE0000000000F5F5F5000000000000000000000000000000000000000000000000
310
000000000000000000000000000000000000000000000000000000000000000000009E000000000000000000000000F5F5F5000000000000F5F5F5000000000000000000000000F5F5F5000000000000000000000000009E0000000000000000000000000000000000F5F5F500000000BE00000000000082000000000000F5
310
F5F5BEF5F5F5F5000000009E0082000000000000BE00000000F5F5F500000000000000000000000000000000000000000000000000000000000000000000000000000000000000000000000000000000000000000000009E000000000000000000000000F5F5F5000000000000F5F5F5000000000000000000000000F5F5F5
310
000000000000000000000000009E0000000000000000000000000000000000F5F5F50000000000BE0000000000820000000000000000F5F5F500000000000000009E000000000000BE0000000000F5F5F500000000000000000000000000000000000000000000000000000000000000000000000000000000000000000000
310
000000000000000000000000009E000000000000000000000000F5F5F5000000000000F5F5F5000000000000000000000000F5F5F5000000000000000000000000009E000000000000000000000000000000000000F5F5F500000000BE000000000000820000000000000000BE000000000000000000829E9E00000000BE00
310
00000000F5F5F500000000000000000000000000000000000000000000000000000000000000000000000000000000000000000000000000000000000000000000009E000000000000000000000000F5F5F5000000000000F5F5F5000000000000000000000000F59EF5000000000000000000000000009E00000000000000
310
0000000000000000000000F5F5F50000000000BE0000000000008200000000000000BE0000000000000082820000009E0000BE0000000000F5F5F50000000000000000000000000000000000000000000000000000000000000000000000000000000000000000000000000000000000000000000000009E00000000000000
310
0000000000F5F5F5000000000000F5F5F50000000000000000000000F5F59EF5000000000000000000000000009E9E000000000000000000000000000000000000F5F5F50000000000BE00000000000082820000000000BE000000000082820000000000009E00BE0000000000F5F5F5000000000000000000000000000000
310
0000000000000000000000000000000000000000000000000000000000000000000000000000000000000000009E000000000000000000000000F5F5F5000000000000F5F5F5F5F5F5F5F5F5F5F5F5F5F5F5F59EF5000000000000000000000000009E9E000000000000000000000000000000000000F5F5F50000000000BE
310
00000000000000000082828200BE00828282820000000000000000009E0000000000F5F5F5000000000000000000000000000000000000000000000000000000000000000000000000000000000000000000000000000000000000000000000000009E000000000000000000000000F5F5F5000000000000F5F5F5F5F5F5F5
310
F5F5F5F5F5F59E9E9E9E9E9E9E9E9E9E9E9E9E9E9E9E9E9E9E9E9E000000000000000000000000000000000000F5F5F50000000000BE0000000000000000000000828282000000000000000000000000BE009E00000000F5F5F500000000000000000000000000000000000000000000000000000000000000000000000000
310
0000000000000000000000000000000000000000000000009E000000000000000000000000F5F5F5000000000000F5F5F5F5F5F5F5F5F5F5F5F5F5F5F5009E0000000000000000000000000000000000000000000000000000000000000000000000F5F5F5000000000000BEBE00000000000000000000BE00000000000000
310
00000000BEBE00009E000000F5F5F500000000000000000000000000000000000000000000000000000000000000000000000000000000000000000000000000000000000000000000000000009E000000000000000000000000F5F5F5000000000000F5F5F5000000000000000000000000009E0000000000000000000000
310
00000000000000000000000000000000000000000000000000F5F5F500000000000000BE00000000000000F5F5BEF5F5F500000000000000BE00000000009E00F5F5F5F50000000000000000000000000000000000000000000000000000000000000000000000000000000000000000000000000000000000000000000000
310
0000009E000000000000000000000000F5F5F5000000000000F5F5F5000000000000000000000000009E000000000000000000000000000000000000000000000000000000000000000000000000F5F5F5F500000000000000BE0000000000F5F5F5BEF5F5F5F50000000000BE000000000000009E9EF5F500000000000000
310
00000000000000000000000000000000000000000000000000000000000000000000000000000000000000000000000000000000000000009E000000000000000000000000F5F5F5000000000000F5F5F5000000000000000000000000009E0000000000000000000000000000000000000000000000000000000000000000
310
00000000F5F5F5F5F500000000000000BEBEBE0000F5F5F5BEF5F5F5F50000BEBEBE00000000000000F5F5F59EF50000000000000000000000000000000000000000000000000000000000000000000000000000000000000000000000000000000000000000000000000000009E000000000000000000000000F5F5F50000
310
00000000F5F5F5000000000000000000000000009E00000000000000000000000000000000000000000000000000000000000000000000000000F5F5F5F5F5000000000000000000BEBEF5F5F5BE00F5F5F5BEBE000000000000000000F5F5F5F5F59E00000000000000000000000000000000000000000000000000000000
310
00000000000000000000000000000000000000000000000000000000000000000000009E0000000000000000000000BEF5F5F5BEBEBEBEBEBEF5F5F5BE0000000000000000000000009E0000000000000000000000000000000000000000000000000000000000000000000000000000F5F5F5F5F5000000000000000000F5
310
F5F5F5BEBEF5F5F500000000000000000000F5F5F5F5F500009E00000000000000000000000000000000000000000000000000000000000000000000000000000000000000000000000000000000000000000000000000009E000000000000000000000000F5F5F5000000000000F5F5F5000000000000000000000000009E
310
000000000000000000000000000000000000000000000000000000000000000000000000000000F5F5F5F5F5F500000000000000F5F5F5F5BEF5F5F5F50000000000000000F5F5F5F5F5F5000000009E0000000000000000000000000000000000000000000000000000000000000000000000000000000000000000000000
310
00000000000000000000000000009E000000000000000000000000F5F5F5000000000000F5F5F5000000000000000000000000009E0000000000000000000000000000000000000000000000000000000000000000000000000000000000F5F5F5F5F5F5000000000000F5F5F5BEF5F5F5F5000000000000F5F5F5F5F5F500
310
0000000000009E9E00000000000000000000000000000000000000000000000000000000000000000000000000000000000000000000000000000000000000000000009E000000000000000000000000F5F5F5000000000000F5F5F5000000000000000000000000009E000000000000000000000000000000000000000000
310
00000000000000000000000000000000000000000000F5F5F5F5F5F5F500000000F5F5BEF5F5F500000000F5F5F5F5F5F5F500000000000000000000009E000000000000000000000000000000000000000000000000000000000000000000000000000000000000000000000000000000000000000000009E000000000000
310
000000000000F5F5F5000000000000F5F5F5000000000000000000000000009E000000000000000000000000000000000000000000000000000000000000000000000000000000000000000000F5F5F5F5F5F5F5F5F50000BE0000F5F5F5F5F5F5F5F5F5F500000000000000000000000000009E9E9E9E9E9E000000000000
310
000000000000000000000000000000000000000000000000000000000000000000000000000000000000000000009E000000000000000000000000F5F5F5F5F5F5F5F5F5F5F5F5000000000000000000000000009E000000000000000000000000000000000000000000000000000000000000000000000000000000000000
310
0000000000F5F5F5F5F5F5F5F5F5BEF5F5F5F5F5F5F5F5F5F5000000000000000000000000000000009E9E9E9E9E9E9E00000000000000000000000000000000000000000000000000000000000000000000000000000000000000000000000000009E9E9E9E9E9E9E9E9E9E9E9E9E9E9E9EF5F5F5F5F5F5F5F59EF5000000
310
000000000000000000009E0000000000000000000000000000000000000000000000000000000000000000000000000000000000000000000000000000F5F5F5F5F5F5BEF5F5F5F5F5F5F5000000000000000000000000000000000000009E9E9E9E009E000000000000000000000000000000000000000000000000000000
310
0000000000000000000000000000000000000000000000000000000000000000000000000000009EF5F5F5F5F5F5F5F59E00000000000000000000000000009E000000000000000000000000000000000000000000000000000000000000000000000000000000000000000000000000000000000000F5F5BEF5F500000000
310
0000000000000000000000000000000000000000009E9E9E009E0000000000000000000000000000000000000000000000000000000000000000000000000000000000000000000000000000000000000000000000000000000000009E00000000000000009E00000000000000000000000000009E00000000000000000000
310
00000000000000000000000000000000000000000000000000000000000000000000000000000000000000000000BE0000000000000000000000000000000000000000000000000000000000000000000000000000000000000000000000000000000000000000000000000000000000000000000000000000000000000000
310
0000000000000000000000000000000000009E00000000000000009E00000000000000000000000000009E000000000000000000000000000000000000000000000000000000000000000000000000000000000000000000000000000000000000000000000000000000000000000000000000000000000000000000000000
310
00000000000000000000000000000000000000000000000000000000000000000000000000000000000000000000000000000000000000000000000000000000000000000000009E00000000000000009E00000000000000000000000000009E00000000000000000000000000000000000000000000000000000000000000
310
000000000000000000000000000000000000000000000000000000000000000000000000000000000000000000000000000000000000000000000000000000000000000000000000000000000000000000000000000000000000000000000000000000000000000000000000000000000000000000000000000000009E0000
310
0000000000009E00000000000000000000000000009E000000000000000000000000000000000000000000000000000000000000000000000000000000000000000000000000000000000000000000000000000000000000000000000000000000000000000000000000000000000000000000000000000000000000000000
310
00000000000000000000000000000000000000000000000000000000000000000000000000000000000000000000000000009E00000000000000009E00000000000000000000000000009E00000000000000000000000000000000000000000000000000000000000000000000000000000000000000000000000000000000
310
000000000000000000000000000000000000000000000000000000000000000000000000000000000000000000000000000000000000000000000000000000000000000000000000000000000000000000000000000000000000000000000000000000000000009E00000000000000009E0000000000000000000000000000
310
9E000000000000000000000000000000000000000000000000000000000000000000000000000000000000000000000000000000000000000000000000000000000000000000000000000000000000000000000000000000000000000000000000000000000000000000000000000000000000000000000000000000000000
310
00000000000000000000000000000000000000000000000000000000009E00000000000000009E9E9E9E9E9E9E9E9E9E9E9E9E9E9E9E00000000000000000000000000000000000000000000000000000000000000000000000000000000000000000000000000000000000000000000000000000000000000000000000000
310
000000000000000000000000000000000000000000000000000000000000000000000000000000000000000000000000000000000000000000000000000000000000000000000000000000000000000000009E00000000000000009E00000000009E9E9E9E00000000009E0000000000000000000000000000000000000000
310
00000000000000000000000000000000000000000000000000000000000000000000000000000000000000000000000000000000000000000000000000000000000000000000000000000000000000000000000000000000000000000000000000000000000000000000000000000000000000000000000000000000000000
310
00000000000000009E00000000000000000000000000009E9E9E9E00000000009E00000000000000000000000000000000000000000000000000000000000000000000000000000000000000000000000000000000000000000000000000000000000000000000000000000000000000000000000000000000000000000000
310
000000000000000000000000000000000000000000000000000000000000000000000000000000000000000000000000000000000000000000000000009E00000000000000000000000000009E9E9E9E00000000009E0000000000000000000000000000000000000000000000000000000000000000000000000000000000
310
0000000000000000000000000000000000000000000000000000000000000000000000000000000000000000000000000000000000000000000000000000000000000000000000000000000000000000000000000000000000000000000000000000000000000000000000000000000000009E000000000000000000000000
310
00000000000000000000009E00000000000000000000000000000000000000000000000000000000000000000000000000000000000000000000000000000000000000000000000000000000000000000000000000000000000000000000000000000000000000000000000000000000000000000000000000000000000000
310
000000000000000000000000000000000000000000000000000000000000000000000000000000009E00000000000000000000000000000000000000000000009E0000000000000000000000000000000000000000000000000000000000000000000000000000000000000000000000000000000000000000000000000000
310
0000000000000000000000000000000000000000000000000000000000000000000000000000000000000000000000000000000000000000000000000000000000000000000000000000000000000000000000000000000000000000009E00000000000000000000000000000000000000000000009E000000000000000000
310
00000000000000000000000000000000000000000000000000000000000000000000000000000000000000000000000000000000000000000000000000000000000000000000000000000000000000000000000000000000000000000000000000000000000000000000000000000000000000000000000000000000000000
310
000000000000000000000000000000000000009E009E000000000000000000000000000000000000009E009E0000000000000000000000000000000000000000000000000000000000000000000000000000000000000000000000000000000000000000000000000000000000000000000000000000000000000000000000
310
0000000000000000000000000000000000000000000000000000000000000000000000000000000000000000000000000000000000000000000000000000000000000000000000009E9E9E9E9E9E9E9E9E9E9E9E9E9E9E9E9E9E9E9E9E9E9E9E9E000000000000000000000000000000000000000000000000000000000000
310
00000000000000000000000000000000000000000000000000000000000000000000000000000000000000000000000000000000000000000000000000000000000000000000000000000000000000000000000000000000000000000000000000000000000000000000000000000000000000000000000000000000009E00
310
00000000000000009E9E9E9E9E0000000000000000009E0000000000000000000000000000000000000000000000000000000000000000000000000000000000000000000000000000000000000000000000000000000000000000000000000000000000000000000000000000000000000000000000000000000000000000
310
00000000000000000000000000000000000000000000000000000000000000000000000000000000000000000000000000000000000000000000000000009E9E9E9E00000000000000000000000000000000000000000000000000000000000000000000000000000000000000000000000000000000000000000000000000
310
000000000000000000000000000000000000000000000000000000000000000000000000000000000000000000000000000000000000000000000000000000000000000000000000000000000000000000000000000000000000000000000000000000000000000000000000000000000000009E9E9E9E0000000000000000
310
00000000000000000000000000000000000000000000000000000000000000000000000000000000000000000000000000000000000000000000000000000000000000000000000000000000000000000000000000000000000000000000000000000000000000000000000000000000000000000000000000000000000000
310
00000000000000000000000000000000000000000000000000000000000000000000000000000000000000000000000000000000000000000000000000000000000000000000000000000000000000000000000000000000000000000000000000000000000000000000000000000000000000000000000000000000000000
310
00000000000000000000000000000000000000000000000000000000000000000000000000000000000000000000000000000000000000000000000000000000000000000000000000000000000000000000000000000000000000000000000000000000000000000000000000000000000000000000000000000000000000
310
00000000000000000000000000000000000000000000000000000000000000000000000000000000000000000000000000000000000000000000000000000000000000000000000000000000000000000000000000000000000000000000000000000000000000000000000000000000000000000000000000000000000000
310
00000000000000000000000000000000000000000000000000000000000000000000000000000000000000000000000000000000000000000000000000000000000000000000000000000000000000000000000000000000000000000000000000000000000000000000000000000000000000000000000000000000000000
310
00000000000000000000000000000000000000000000000000000000000000000000000000000000000000000000000000000000000000000000000000000000000000000000000000000000000000000000000000000000000000000000000000000000000000000000000000000000000000000000000000000000000000
310
00000000000000000000000000000000000000000000000000000000000000000000000000000000000000000000000000000000000000000000000000000000000000000000000000000000000000000000000000
  0
ENDSEC
  0
EOF
