999
LibreDWG 
  0
SECTION
  2
HEADER
  9
$ACADVER
  1
AC1015
  9
$ACADMAINTVER
 70
    13
  9
$DWGCODEPAGE
  3
ANSI_936
  9
$INSBASE
 10
0.0
 20
0.0
 30
0.0
  9
$EXTMIN
 10
-28.2431020823343
 20
38.80632092711323
 30
-0.001525820700358338
  9
$EXTMAX
 10
410.3036508689445
 20
253.7297980044151
 30
3.49246036535078E-08
  9
$LIMMIN
 10
0.0
 20
0.0
  9
$LIMMAX
 10
420.0
 20
297.0
  9
$ORTHOMODE
 70
     1
  9
$REGENMODE
 70
     1
  9
$FILLMODE
 70
     1
  9
$QTEXTMODE
 70
     0
  9
$MIRRTEXT
 70
     1
  9
$LTSCALE
 40
1.0
  9
$ATTMODE
 70
     1
  9
$TEXTSIZE
 40
2.5
  9
$TRACEWID
 40
1.0
  9
$TEXTSTYLE
  7
数字与字母
  9
$CLAYER
  8
文本层
  9
$CELTYPE
  6
ByLayer
  9
$CECOLOR
 62
   256
  9
$CELTSCALE
 40
1.0
  9
$DISPSILH
 70
     0
  9
$DIMSCALE
 40
1.0
  9
$DIMASZ
 40
3.5
  9
$DIMEXO
 40
0.0
  9
$DIMDLI
 40
7.5
  9
$DIMRND
 40
0.0
  9
$DIMDLE
 40
0.0
  9
$DIMEXE
 40
2.5
  9
$DIMTP
 40
0.0
  9
$DIMTM
 40
0.0
  9
$DIMTXT
 40
5.0
  9
$DIMCEN
 40
2.5
  9
$DIMTSZ
 40
0.0
  9
$DIMTOL
 70
     0
  9
$DIMLIM
 70
     0
  9
$DIMTIH
 70
     0
  9
$DIMTOH
 70
     1
  9
$DIMSE1
 70
     0
  9
$DIMSE2
 70
     0
  9
$DIMTAD
 70
     1
  9
$DIMZIN
 70
     8
  9
$DIMBLK
  1

  9
$DIMASO
 70
     1
  9
$DIMSHO
 70
     1
  9
$DIMPOST
  1

  9
$DIMAPOST
  1

  9
$DIMALT
 70
     0
  9
$DIMALTD
 70
     3
  9
$DIMALTF
 40
0.03937007874016
  9
$DIMLFAC
 40
1.0
  9
$DIMTOFL
 70
     1
  9
$DIMTVP
 40
0.0
  9
$DIMTIX
 70
     0
  9
$DIMSOXD
 70
     0
  9
$DIMSAH
 70
     0
  9
$DIMBLK1
  1

  9
$DIMBLK2
  1

  9
$DIMSTYLE
  2
机械标注
  9
$DIMCLRD
 70
     0
  9
$DIMCLRE
 70
     0
  9
$DIMCLRT
 70
     0
  9
$DIMTFAC
 40
1.0
  9
$DIMGAP
 40
0.625
  9
$DIMJUST
 70
     0
  9
$DIMSD1
 70
     0
  9
$DIMSD2
 70
     0
  9
$DIMTOLJ
 70
     0
  9
$DIMTZIN
 70
     8
  9
$DIMALTZ
 70
     0
  9
$DIMALTTZ
 70
     0
  9
$DIMUPT
 70
     0
  9
$DIMDEC
 70
     1
  9
$DIMTDEC
 70
     1
  9
$DIMALTU
 70
     2
  9
$DIMALTTD
 70
     3
  9
$DIMTXSTY
  7
数字与字母
  9
$DIMAUNIT
 70
     0
  9
$DIMADEC
 70
     0
  9
$DIMALTRND
 40
0.0
  9
$DIMAZIN
 70
     0
  9
$DIMDSEP
 70
    46
  9
$DIMATFIT
 70
     3
  9
$DIMFRAC
 70
     0
  9
$DIMLDRBLK
  1

  9
$DIMLUNIT
 70
     2
  9
$DIMLWD
 70
    -2
  9
$DIMLWE
 70
    -2
  9
$DIMTMOVE
 70
     0
  9
$LUNITS
 70
     2
  9
$LUPREC
 70
     1
  9
$AXISMODE
 70
     0
  9
$AXISUNIT
 10
0.0
 20
0.0
  9
$SKETCHINC
 40
1.0
  9
$FILLETRAD
 40
7.0
  9
$AUNITS
 70
     0
  9
$AUPREC
 70
     1
  9
$MENU
  1
.
  9
$ELEVATION
 40
0.0
  9
$PELEVATION
 40
0.0
  9
$THICKNESS
 40
0.0
  9
$LIMCHECK
 70
     0
  9
$CHAMFERA
 40
10.0
  9
$CHAMFERB
 40
10.0
  9
$CHAMFERC
 40
20.0
  9
$CHAMFERD
 40
0.0
  9
$SKPOLY
 70
     0
  9
$TDCREATE
 40
2451911.603956590
  9
$TDUCREATE
 40
2451911.315956590
  9
$TDUPDATE
 40
2453618.556076510
  9
$TDUUPDATE
 40
2453618.268076510
  9
$TDINDWG
 40
0.030869580
  9
$TDUSRTIMER
 40
0.030869580
  9
$USRTIMER
 70
     1
  9
$ANGBASE
 50
0.0
  9
$ANGDIR
 70
     0
  9
$PDMODE
 70
     0
  9
$PDSIZE
 40
0.0
  9
$PLINEWID
 40
0.0
  9
$SPLFRAME
 70
     0
  9
$SPLINETYPE
 70
     6
  9
$SPLINESEGS
 70
     8
  9
$HANDSEED
  5
25B
  9
$SURFTAB1
 70
     6
  9
$SURFTAB2
 70
     6
  9
$SURFTYPE
 70
     6
  9
$SURFU
 70
     6
  9
$SURFV
 70
     6
  9
$UCSBASE
  2

  9
$UCSNAME
  2

  9
$UCSORG
 10
0.0
 20
0.0
 30
0.0
  9
$UCSXDIR
 10
1.0
 20
0.0
 30
0.0
  9
$UCSYDIR
 10
0.0
 20
1.0
 30
0.0
  9
$UCSORTHOREF
  2

  9
$UCSORTHOVIEW
 70
     0
  9
$UCSORGTOP
 10
0.0
 20
0.0
 30
0.0
  9
$UCSORGBOTTOM
 10
0.0
 20
0.0
 30
0.0
  9
$UCSORGLEFT
 10
0.0
 20
0.0
 30
0.0
  9
$UCSORGRIGHT
 10
0.0
 20
0.0
 30
0.0
  9
$UCSORGFRONT
 10
0.0
 20
0.0
 30
0.0
  9
$UCSORGBACK
 10
0.0
 20
0.0
 30
0.0
  9
$PUCSBASE
  2

  9
$PUCSNAME
  2

  9
$PUCSORG
 10
0.0
 20
0.0
 30
0.0
  9
$PUCSXDIR
 10
1.0
 20
0.0
 30
0.0
  9
$PUCSYDIR
 10
0.0
 20
1.0
 30
0.0
  9
$PUCSORTHOREF
  2

  9
$PUCSORTHOVIEW
 70
     0
  9
$PUCSORGTOP
 10
0.0
 20
0.0
 30
0.0
  9
$PUCSORGBOTTOM
 10
0.0
 20
0.0
 30
0.0
  9
$PUCSORGLEFT
 10
0.0
 20
0.0
 30
0.0
  9
$PUCSORGRIGHT
 10
0.0
 20
0.0
 30
0.0
  9
$PUCSORGFRONT
 10
0.0
 20
0.0
 30
0.0
  9
$PUCSORGBACK
 10
0.0
 20
0.0
 30
0.0
  9
$USERI1
 70
     0
  9
$USERI2
 70
     0
  9
$USERI3
 70
     0
  9
$USERI4
 70
     0
  9
$USERI5
 70
     0
  9
$USERR1
 40
0.0
  9
$USERR2
 40
0.0
  9
$USERR3
 40
0.0
  9
$USERR4
 40
0.0
  9
$USERR5
 40
0.0
  9
$WORLDVIEW
 70
     1
  9
$SHADEDGE
 70
     3
  9
$SHADEDIF
 70
    70
  9
$TILEMODE
 70
     1
  9
$MAXACTVP
 70
    64
  9
$PINSBASE
 10
0.0
 20
0.0
 30
0.0
  9
$PLIMCHECK
 70
     0
  9
$PEXTMIN
 10
26.66999878883362
 20
20.31999878883363
 30
0.0
  9
$PEXTMAX
 10
240.0299890995026
 20
182.8799890995026
 30
0.0
  9
$PLIMMIN
 10
-6.350006103515625
 20
-6.349999904632568
  9
$PLIMMAX
 10
273.0499877929688
 20
209.5499939918518
  9
$UNITMODE
 70
     0
  9
$VISRETAIN
 70
     1
  9
$PLINEGEN
 70
     0
  9
$PSLTSCALE
 70
     1
  9
$TREEDEPTH
 70
  3020
  9
$CMLSTYLE
  2
Standard
  9
$CMLJUST
 70
     0
  9
$CMLSCALE
 40
20.0
  9
$PROXYGRAPHICS
 70
     1
  9
$MEASUREMENT
 70
     1
  9
$CELWEIGHT
370
    -1
  9
$ENDCAPS
280
     0
  9
$JOINSTYLE
280
     0
  9
$LWDISPLAY
290
     1
  9
$INSUNITS
 70
     4
  9
$HYPERLINKBASE
  1

  9
$STYLESHEET
  1

  9
$XEDIT
290
     1
  9
$CEPSNTYPE
380
     0
  9
$PSTYLEMODE
290
     0
  9
$FINGERPRINTGUID
  2
{35BD88C3-9548-11D2-9A29-0060089B3A3F}
  9
$VERSIONGUID
  2
{10358258-DCCB-41EF-8E5A-029081F3A8CC}
  9
$EXTNAMES
290
     1
  9
$PSVPSCALE
 40
0.0
  9
$OLESTARTUP
290
     0
  0
ENDSEC
  0
SECTION
  2
CLASSES
  0
CLASS
  1
ACDBDICTIONARYWDFLT
  2
AcDbDictionaryWithDefault
  3
AutoCAD 2000
 90
        0
280
     0
281
     0
  0
CLASS
  1
ACDBPLACEHOLDER
  2
AcDbPlaceHolder
  3
AutoCAD 2000
 90
        0
280
     0
281
     0
  0
CLASS
  1
LAYOUT
  2
AcDbLayout
  3
AutoCAD 2000
 90
        0
280
     0
281
     0
  0
CLASS
  1
DICTIONARYVAR
  2
AcDbDictionaryVar
  3
AutoCAD 2000
 90
        0
280
     0
281
     0
  0
CLASS
  1
DIMASSOC
  2
AcDbDimAssoc
  3
"AcDbDimAssoc|Product Desc:     AcDim ARX App For Dimension|Company:          Autodesk, Inc.|WEB Address:      www.autodesk.com"
 90
        0
280
     0
281
     0
  0
ENDSEC
  0
SECTION
  2
TABLES
  0
TABLE
  2
VPORT
  5
8
330
0
100
AcDbSymbolTable
 70
     1
  0
VPORT
  5
25A
330
8
100
AcDbSymbolTableRecord
100
AcDbViewportTableRecord
  2
*Active
 70
     0
 10
0.0
 20
0.0
 11
1.0
 21
1.0
 12
195.8784489588328
 22
148.5
 13
0.0
 23
0.0
 14
10.0
 24
10.0
 15
10.0
 25
10.0
 16
0.0
 26
0.0
 36
1.0
 17
0.0
 27
0.0
 37
0.0
 40
300.7358490566038
 41
1.855042016806723
 42
50.0
 43
0.0
 44
0.0
 50
0.0
 51
0.0
 71
     0
 72
   100
 73
     1
 74
     3
 75
     0
 76
     0
 77
     0
 78
     0
281
     0
 65
     1
110
0.0
120
0.0
130
0.0
111
1.0
121
0.0
131
0.0
112
0.0
122
1.0
132
0.0
 79
     0
146
0.0
  0
ENDTAB
  0
TABLE
  2
LTYPE
  5
5
330
0
100
AcDbSymbolTable
 70
     4
  0
LTYPE
  5
14
330
5
100
AcDbSymbolTableRecord
100
AcDbLinetypeTableRecord
  2
ByBlock
 70
     0
  3

 72
    65
 73
     0
 40
0.0
  0
LTYPE
  5
15
330
5
100
AcDbSymbolTableRecord
100
AcDbLinetypeTableRecord
  2
ByLayer
 70
     0
  3

 72
    65
 73
     0
 40
0.0
  0
LTYPE
  5
16
330
5
100
AcDbSymbolTableRecord
100
AcDbLinetypeTableRecord
  2
Continuous
 70
     0
  3
Solid line
 72
    65
 73
     0
 40
0.0
  0
LTYPE
  5
91
330
5
100
AcDbSymbolTableRecord
100
AcDbLinetypeTableRecord
  2
ACAD_ISO08W100
 70
     0
  3
ISO long-dash short-dash ____ __ ____ __ ____ _
 72
    65
 73
     4
 40
36.0
 49
24.0
 74
     0
 49
-3.0
 74
     0
 49
6.0
 74
     0
 49
-3.0
 74
     0
  0
LTYPE
  5
92
330
5
100
AcDbSymbolTableRecord
100
AcDbLinetypeTableRecord
  2
ACAD_ISO09W100
 70
     0
  3
ISO long-dash double-short-dash ____ __ __ ____
 72
    65
 73
     6
 40
45.0
 49
24.0
 74
     0
 49
-3.0
 74
     0
 49
6.0
 74
     0
 49
-3.0
 74
     0
 49
6.0
 74
     0
 49
-3.0
 74
     0
  0
LTYPE
  5
93
330
5
100
AcDbSymbolTableRecord
100
AcDbLinetypeTableRecord
  2
ACAD_ISO02W100
 70
     0
  3
ISO dash __ __ __ __ __ __ __ __ __ __ __ __ __
 72
    65
 73
     2
 40
15.0
 49
12.0
 74
     0
 49
-3.0
 74
     0
  0
ENDTAB
  0
TABLE
  2
LAYER
  5
2
330
0
100
AcDbSymbolTable
 70
    11
  0
LAYER
  5
10
330
2
100
AcDbSymbolTableRecord
100
AcDbLayerTableRecord
  2
0
 70
     0
 62
    -7
  6
Continuous
370
    -3
390
F
  0
LAYER
  5
94
330
2
100
AcDbSymbolTableRecord
100
AcDbLayerTableRecord
  2
轮廓线
 70
     0
 62
    -7
  6
Continuous
370
    35
390
F
  0
LAYER
  5
95
330
2
100
AcDbSymbolTableRecord
100
AcDbLayerTableRecord
  2
点划线
 70
     0
 62
    -1
  6
ACAD_ISO08W100
370
    13
390
F
  0
LAYER
  5
96
330
2
100
AcDbSymbolTableRecord
100
AcDbLayerTableRecord
  2
双点划线
 70
     0
 62
    -3
  6
ACAD_ISO09W100
370
    -3
390
F
  0
LAYER
  5
97
330
2
100
AcDbSymbolTableRecord
100
AcDbLayerTableRecord
  2
隐藏线
 70
     0
 62
   -44
  6
ACAD_ISO02W100
370
    13
390
F
  0
LAYER
  5
98
330
2
100
AcDbSymbolTableRecord
100
AcDbLayerTableRecord
  2
剖面线
 70
     0
 62
  -142
  6
Continuous
370
    13
390
F
  0
LAYER
  5
99
330
2
100
AcDbSymbolTableRecord
100
AcDbLayerTableRecord
  2
波浪线
 70
     0
 62
    -7
  6
Continuous
370
    13
390
F
  0
LAYER
  5
9A
330
2
100
AcDbSymbolTableRecord
100
AcDbLayerTableRecord
  2
尺寸层
 70
     0
 62
    -5
  6
Continuous
370
    13
390
F
  0
LAYER
  5
9B
330
2
100
AcDbSymbolTableRecord
100
AcDbLayerTableRecord
  2
文本层
 70
     0
 62
  -212
  6
Continuous
370
    13
390
F
  0
LAYER
  5
9C
330
2
100
AcDbSymbolTableRecord
100
AcDbLayerTableRecord
  2
其它层
 70
     0
 62
    -7
  6
Continuous
370
    -3
390
F
  0
LAYER
  5
106
330
2
100
AcDbSymbolTableRecord
100
AcDbLayerTableRecord
  2
Defpoints
 70
     0
 62
    -7
  6
Continuous
290
     0
370
    -3
390
F
  0
ENDTAB
  0
TABLE
  2
STYLE
  5
3
330
0
100
AcDbSymbolTable
 70
     4
  0
STYLE
  5
11
330
3
100
AcDbSymbolTableRecord
100
AcDbTextStyleTableRecord
  2
Standard
 70
     0
 40
0.0
 41
1.0
 50
0.0
 71
     0
 42
2.5
  3
txt
  4

  0
STYLE
  5
90
330
3
100
AcDbSymbolTableRecord
100
AcDbTextStyleTableRecord
  2

 70
     1
 40
0.0
 41
1.0
 50
0.0
 71
     0
 42
2.5
  3
ltypeshp.shx
  4

  0
STYLE
  5
9D
330
3
100
AcDbSymbolTableRecord
100
AcDbTextStyleTableRecord
  2
汉字
 70
     0
 40
0.0
 41
0.7
 50
0.0
 71
     0
 42
2.5
  3
SIMFANG.TTF
  4

1001
ACAD
1000
FangSong_GB2312
1071
    34353
  0
STYLE
  5
9F
330
3
100
AcDbSymbolTableRecord
100
AcDbTextStyleTableRecord
  2
数字与字母
 70
     0
 40
0.0
 41
0.7
 50
0.0
 71
     0
 42
2.5
  3
romant.shx
  4

  0
ENDTAB
  0
TABLE
  2
VIEW
  5
6
330
0
100
AcDbSymbolTable
 70
     0
  0
ENDTAB
  0
TABLE
  2
UCS
  5
7
330
0
100
AcDbSymbolTable
 70
     0
  0
ENDTAB
  0
TABLE
  2
APPID
  5
9
330
0
100
AcDbSymbolTable
 70
     1
  0
APPID
  5
12
330
9
100
AcDbSymbolTableRecord
100
AcDbRegAppTableRecord
  2
ACAD
 70
     0
  0
ENDTAB
  0
TABLE
  2
DIMSTYLE
  5
A
330
0
100
AcDbSymbolTable
 70
     3
100
AcDbDimStyleTable
 71
     2
340
A1
340
27
  0
DIMSTYLE
105
27
330
A
100
AcDbSymbolTableRecord
100
AcDbDimStyleTableRecord
  2
ISO-25
 70
     0
 41
2.5
 42
0.625
 43
3.75
 44
1.25
 73
     0
 74
     0
 77
     1
 78
     8
140
2.5
141
2.5
143
0.03937007874016
144
1.0
146
1.0
147
0.625
171
     3
172
     1
176
     0
177
     0
178
     0
271
     2
272
     2
273
     2
274
     3
277
     2
278
    44
283
     0
284
     8
289
     3
340
11
371
    -2
372
    -2
341
0
342
0
343
0
344
0
  0
DIMSTYLE
105
A1
102
{ACAD_REACTORS
330
105
330
11E
330
136
330
14E
330
166
330
173
330
1A3
330
1BB
330
1CD
330
1DF
330
1F3
330
20B
330
23B
102
}
330
A
100
AcDbSymbolTableRecord
100
AcDbDimStyleTableRecord
  2
机械标注
 70
     0
 41
3.5
 43
7.5
 44
2.5
 73
     0
 74
     1
 77
     1
 78
     8
140
5.0
141
2.5
143
0.03937007874016
144
1.0
146
1.0
147
0.625
171
     3
172
     1
176
     0
177
     0
178
     0
271
     1
272
     1
273
     2
274
     3
277
     2
278
    46
283
     0
284
     8
289
     3
340
9F
371
    -2
372
    -2
341
0
342
0
343
0
344
0
  0
DIMSTYLE
105
A2
330
A
100
AcDbSymbolTableRecord
100
AcDbDimStyleTableRecord
  2
机械标注$2
 70
     0
 41
3.5
 43
7.5
 44
2.5
 73
     1
 74
     1
 77
     1
 78
     8
140
5.0
141
2.5
143
0.03937007874016
144
1.0
146
1.0
147
0.625
171
     3
172
     1
176
     0
177
     0
178
     0
271
     1
272
     1
273
     2
274
     3
277
     2
278
    46
283
     0
284
     8
289
     3
340
9F
371
    -2
372
    -2
341
0
342
0
343
0
344
0
  0
ENDTAB
  0
TABLE
  2
BLOCK_RECORD
  5
1
330
0
100
AcDbSymbolTable
 70
    16
  0
BLOCK_RECORD
  5
1F
330
1
100
AcDbSymbolTableRecord
100
AcDbBlockTableRecord
  2
*Model_Space
340
22
  0
BLOCK_RECORD
  5
5E
330
1
100
AcDbSymbolTableRecord
100
AcDbBlockTableRecord
  2
*Paper_Space
340
5F
  0
BLOCK_RECORD
  5
59
330
1
100
AcDbSymbolTableRecord
100
AcDbBlockTableRecord
  2
*Paper_Space0
340
5A
  0
BLOCK_RECORD
  5
107
330
1
100
AcDbSymbolTableRecord
100
AcDbBlockTableRecord
  2
*D1
340
0
  0
BLOCK_RECORD
  5
11F
330
1
100
AcDbSymbolTableRecord
100
AcDbBlockTableRecord
  2
*D2
340
0
  0
BLOCK_RECORD
  5
137
330
1
100
AcDbSymbolTableRecord
100
AcDbBlockTableRecord
  2
*D3
340
0
  0
BLOCK_RECORD
  5
14F
330
1
100
AcDbSymbolTableRecord
100
AcDbBlockTableRecord
  2
*D4
340
0
  0
BLOCK_RECORD
  5
167
330
1
100
AcDbSymbolTableRecord
100
AcDbBlockTableRecord
  2
*D5
340
0
  0
BLOCK_RECORD
  5
174
330
1
100
AcDbSymbolTableRecord
100
AcDbBlockTableRecord
  2
*D6
340
0
  0
BLOCK_RECORD
  5
18C
330
1
100
AcDbSymbolTableRecord
100
AcDbBlockTableRecord
  2
*D7
340
0
  0
BLOCK_RECORD
  5
1A4
330
1
100
AcDbSymbolTableRecord
100
AcDbBlockTableRecord
  2
*D8
340
0
  0
BLOCK_RECORD
  5
1BC
330
1
100
AcDbSymbolTableRecord
100
AcDbBlockTableRecord
  2
*D9
340
0
  0
BLOCK_RECORD
  5
1CE
330
1
100
AcDbSymbolTableRecord
100
AcDbBlockTableRecord
  2
*D10
340
0
  0
BLOCK_RECORD
  5
1E0
330
1
100
AcDbSymbolTableRecord
100
AcDbBlockTableRecord
  2
*D11
340
0
  0
BLOCK_RECORD
  5
1F4
330
1
100
AcDbSymbolTableRecord
100
AcDbBlockTableRecord
  2
*D12
340
0
  0
BLOCK_RECORD
  5
20C
330
1
100
AcDbSymbolTableRecord
100
AcDbBlockTableRecord
  2
*D13
340
0
  0
BLOCK_RECORD
  5
224
330
1
100
AcDbSymbolTableRecord
100
AcDbBlockTableRecord
  2
*D14
340
0
  0
BLOCK_RECORD
  5
23C
330
1
100
AcDbSymbolTableRecord
100
AcDbBlockTableRecord
  2
*D15
340
0
  0
ENDTAB
  0
ENDSEC
  0
SECTION
  2
BLOCKS
  0
BLOCK
  5
20
330
1F
100
AcDbEntity
  8
0
100
AcDbBlockBegin
  2
*Model_Space
 70
     0
 10
0.0
 20
0.0
 30
0.0
  3
*Model_Space
  1

  0
ENDBLK
  5
21
330
1F
100
AcDbEntity
  8
0
100
AcDbBlockEnd
  0
BLOCK
  5
5B
330
59
100
AcDbEntity
  8
0
100
AcDbBlockBegin
  2
*Paper_Space0
 70
     0
 10
0.0
 20
0.0
 30
0.0
  3
*Paper_Space0
  1

  0
VIEWPORT
  5
74
330
59
100
AcDbEntity
  8
0
100
AcDbViewport
 10
134.8228915879863
 20
101.5999970436096
 30
0.0
 40
405.4378955490815
 41
218.5599527535252
 68
     0
 69
     0
 12
134.8228915879863
 22
101.5999970436096
 13
0.0
 23
0.0
 14
0.5
 24
0.5
 15
0.5
 25
0.5
 16
0.0
 26
0.0
 36
1.0
 17
0.0
 27
0.0
 37
0.0
 42
50.0
 43
0.0
 44
0.0
 45
218.5599527535252
 50
0.0
 51
0.0
 72
   100
 90
    32800
  1

281
     0
 71
     1
 74
     0
110
0.0
120
0.0
130
0.0
111
1.0
121
0.0
131
0.0
112
0.0
122
1.0
132
0.0
 79
     0
146
0.0
348
0
340
0
345
0
346
0
  0
VIEWPORT
  5
76
330
59
100
AcDbEntity
  8
0
100
AcDbViewport
 10
133.3499939441681
 20
101.5999939441681
 30
0.0
 40
213.3599903106689
 41
162.5599903106689
 68
     0
 69
     0
 12
189.3158460160973
 22
129.6853298582466
 13
0.0
 23
0.0
 14
10.0
 24
10.0
 15
10.0
 25
10.0
 16
0.0
 26
0.0
 36
1.0
 17
0.0
 27
0.0
 37
0.0
 42
50.0
 43
0.0
 44
0.0
 45
364.5346042999885
 50
0.0
 51
0.0
 72
   100
 90
    32864
  1

281
     0
 71
     1
 74
     0
110
0.0
120
0.0
130
0.0
111
1.0
121
0.0
131
0.0
112
0.0
122
1.0
132
0.0
 79
     0
146
0.0
348
0
340
0
345
0
346
0
  0
ENDBLK
  5
5C
330
59
100
AcDbEntity
  8
0
100
AcDbBlockEnd
  0
BLOCK
  5
60
330
5E
100
AcDbEntity
 67
     1
  8
0
100
AcDbBlockBegin
  2
*Paper_Space
 70
     0
 10
0.0
 20
0.0
 30
0.0
  3
*Paper_Space
  1

  0
ENDBLK
  5
61
330
5E
100
AcDbEntity
 67
     1
  8
0
100
AcDbBlockEnd
  0
BLOCK
  5
111
330
107
100
AcDbEntity
  8
0
100
AcDbBlockBegin
  2
*D1
 70
     1
 10
0.0
 20
0.0
 30
0.0
  3
*D1
  1

  0
LINE
  5
114
330
107
100
AcDbEntity
  8
文本层
370
    -2
 62
     0
100
AcDbLine
 10
110.2888388269103
 20
235.5914814184475
 30
0.0
 11
110.2888388269103
 21
250.6036829906414
 31
0.0
  0
LINE
  5
115
330
107
100
AcDbEntity
  8
文本层
370
    -2
 62
     0
100
AcDbLine
 10
137.2888388269103
 20
156.9781062421492
 30
0.0
 11
137.2888388269103
 21
250.6036829906414
 31
0.0
  0
LINE
  5
116
330
107
100
AcDbEntity
  8
文本层
370
    -2
 62
     0
100
AcDbLine
 10
113.7888388269103
 20
248.1036829906414
 30
0.0
 11
133.7888388269103
 21
248.1036829906414
 31
0.0
  0
SOLID
  5
117
330
107
100
AcDbEntity
  8
文本层
 62
     0
100
AcDbTrace
 38
0.0
 10
113.7888388269103
 20
248.6870163239748
 11
113.7888388269103
 21
247.5203496573081
 12
110.2888388269103
 22
248.1036829906414
 13
110.2888388269103
 23
248.1036829906414
  0
SOLID
  5
118
330
107
100
AcDbEntity
  8
文本层
 62
     0
100
AcDbTrace
 38
0.0
 10
133.7888388269103
 20
248.6870163239748
 11
133.7888388269103
 21
247.5203496573081
 12
137.2888388269103
 22
248.1036829906414
 13
137.2888388269103
 23
248.1036829906414
  0
MTEXT
  5
119
330
107
100
AcDbEntity
  8
文本层
 62
     0
100
AcDbMText
 10
123.7888388269103
 20
251.2286829906414
 30
0.0
210
0.0
220
0.0
230
1.0
 11
1.0
 21
0.0
 31
0.0
 40
5.0
 41
0.0
 71
     5
 72
     1
  1
27
  7
数字与字母
 73
     1
 44
1.0
  0
POINT
  5
11A
330
107
100
AcDbEntity
  8
Defpoints
 62
     0
100
AcDbPoint
 10
110.2888388269103
 20
235.5914814184475
 30
0.0
 50
0.0
  0
POINT
  5
11B
330
107
100
AcDbEntity
  8
Defpoints
 62
     0
100
AcDbPoint
 10
137.2888388269103
 20
156.9781062421492
 30
0.0
 50
0.0
  0
POINT
  5
11C
330
107
100
AcDbEntity
  8
Defpoints
 62
     0
100
AcDbPoint
 10
137.2888388269103
 20
248.1036829906414
 30
0.0
 50
0.0
  0
ENDBLK
  5
112
330
107
100
AcDbEntity
  8
0
100
AcDbBlockEnd
  0
BLOCK
  5
129
330
11F
100
AcDbEntity
  8
0
100
AcDbBlockBegin
  2
*D2
 70
     1
 10
0.0
 20
0.0
 30
0.0
  3
*D2
  1

  0
LINE
  5
12C
330
11F
100
AcDbEntity
  8
文本层
370
    -2
 62
     0
100
AcDbLine
 10
41.28883882691025
 20
125.9781062421493
 30
0.0
 11
14.75061328158051
 21
125.9781062421493
 31
0.0
  0
LINE
  5
12D
330
11F
100
AcDbEntity
  8
文本层
370
    -2
 62
     0
100
AcDbLine
 10
44.7446486077157
 20
165.9781062421492
 30
0.0
 11
14.75061328158051
 21
165.9781062421492
 31
0.0
  0
LINE
  5
12E
330
11F
100
AcDbEntity
  8
文本层
370
    -2
 62
     0
100
AcDbLine
 10
17.25061328158051
 20
129.4781062421493
 30
0.0
 11
17.25061328158051
 21
162.4781062421492
 31
0.0
  0
SOLID
  5
12F
330
11F
100
AcDbEntity
  8
文本层
 62
     0
100
AcDbTrace
 38
0.0
 10
16.66727994824717
 20
129.4781062421493
 11
17.83394661491384
 21
129.4781062421493
 12
17.25061328158051
 22
125.9781062421493
 13
17.25061328158051
 23
125.9781062421493
  0
SOLID
  5
130
330
11F
100
AcDbEntity
  8
文本层
 62
     0
100
AcDbTrace
 38
0.0
 10
16.66727994824718
 20
162.4781062421492
 11
17.83394661491385
 21
162.4781062421492
 12
17.25061328158051
 22
165.9781062421492
 13
17.25061328158051
 23
165.9781062421492
  0
MTEXT
  5
131
330
11F
100
AcDbEntity
  8
文本层
 62
     0
100
AcDbMText
 10
14.12561328158049
 20
145.9781062421493
 30
0.0
210
0.0
220
0.0
230
1.0
 11
6.123031769111886E-17
 21
1.0
 31
0.0
 40
5.0
 41
0.0
 71
     5
 72
     1
  1
40
  7
数字与字母
 73
     1
 44
1.0
  0
POINT
  5
132
330
11F
100
AcDbEntity
  8
Defpoints
 62
     0
100
AcDbPoint
 10
41.28883882691025
 20
125.9781062421493
 30
0.0
 50
0.0
  0
POINT
  5
133
330
11F
100
AcDbEntity
  8
Defpoints
 62
     0
100
AcDbPoint
 10
44.7446486077157
 20
165.9781062421492
 30
0.0
 50
0.0
  0
POINT
  5
134
330
11F
100
AcDbEntity
  8
Defpoints
 62
     0
100
AcDbPoint
 10
17.25061328158051
 20
165.9781062421492
 30
0.0
 50
0.0
  0
ENDBLK
  5
12A
330
11F
100
AcDbEntity
  8
0
100
AcDbBlockEnd
  0
BLOCK
  5
141
330
137
100
AcDbEntity
  8
0
100
AcDbBlockBegin
  2
*D3
 70
     1
 10
0.0
 20
0.0
 30
0.0
  3
*D3
  1

  0
LINE
  5
144
330
137
100
AcDbEntity
  8
文本层
370
    -2
 62
     0
100
AcDbLine
 10
41.28883882691025
 20
105.9781062421493
 30
0.0
 11
-6.282800265146554
 21
105.9781062421493
 31
0.0
  0
LINE
  5
145
330
137
100
AcDbEntity
  8
文本层
370
    -2
 62
     0
100
AcDbLine
 10
41.28883882691025
 20
185.9781062421492
 30
0.0
 11
-6.282800265146536
 21
185.9781062421492
 31
0.0
  0
LINE
  5
146
330
137
100
AcDbEntity
  8
文本层
370
    -2
 62
     0
100
AcDbLine
 10
-3.78280026514655
 20
109.4781062421493
 30
0.0
 11
-3.782800265146534
 21
182.4781062421492
 31
0.0
  0
SOLID
  5
147
330
137
100
AcDbEntity
  8
文本层
 62
     0
100
AcDbTrace
 38
0.0
 10
-4.366133598479883
 20
109.4781062421493
 11
-3.199466931813217
 21
109.4781062421493
 12
-3.78280026514655
 22
105.9781062421493
 13
-3.78280026514655
 23
105.9781062421493
  0
SOLID
  5
148
330
137
100
AcDbEntity
  8
文本层
 62
     0
100
AcDbTrace
 38
0.0
 10
-4.366133598479866
 20
182.4781062421492
 11
-3.199466931813201
 21
182.4781062421492
 12
-3.782800265146533
 22
185.9781062421492
 13
-3.782800265146533
 23
185.9781062421492
  0
MTEXT
  5
149
330
137
100
AcDbEntity
  8
文本层
 62
     0
100
AcDbMText
 10
-6.907800265146566
 20
145.9781062421493
 30
0.0
210
0.0
220
0.0
230
1.0
 11
6.123031769111886E-17
 21
1.0
 31
0.0
 40
5.0
 41
0.0
 71
     5
 72
     1
  1
80
  7
数字与字母
 73
     1
 44
1.0
  0
POINT
  5
14A
330
137
100
AcDbEntity
  8
Defpoints
 62
     0
100
AcDbPoint
 10
41.28883882691025
 20
105.9781062421493
 30
0.0
 50
0.0
  0
POINT
  5
14B
330
137
100
AcDbEntity
  8
Defpoints
 62
     0
100
AcDbPoint
 10
41.28883882691025
 20
185.9781062421492
 30
0.0
 50
0.0
  0
POINT
  5
14C
330
137
100
AcDbEntity
  8
Defpoints
 62
     0
100
AcDbPoint
 10
-3.782800265146533
 20
185.9781062421492
 30
0.0
 50
0.0
  0
ENDBLK
  5
142
330
137
100
AcDbEntity
  8
0
100
AcDbBlockEnd
  0
BLOCK
  5
159
330
14F
100
AcDbEntity
  8
0
100
AcDbBlockBegin
  2
*D4
 70
     1
 10
0.0
 20
0.0
 30
0.0
  3
*D4
  1

  0
LINE
  5
15C
330
14F
100
AcDbEntity
  8
文本层
370
    -2
 62
     0
100
AcDbLine
 10
95.28883882691025
 20
225.9781062421492
 30
0.0
 11
-25.10217091561297
 21
225.9781062421493
 31
0.0
  0
LINE
  5
15D
330
14F
100
AcDbEntity
  8
文本层
370
    -2
 62
     0
100
AcDbLine
 10
95.28883882691025
 20
65.97810624214929
 30
0.0
 11
-25.10217091561299
 21
65.97810624214932
 31
0.0
  0
LINE
  5
15E
330
14F
100
AcDbEntity
  8
文本层
370
    -2
 62
     0
100
AcDbLine
 10
-22.60217091561296
 20
222.4781062421493
 30
0.0
 11
-22.60217091561299
 21
69.47810624214932
 31
0.0
  0
SOLID
  5
15F
330
14F
100
AcDbEntity
  8
文本层
 62
     0
100
AcDbTrace
 38
0.0
 10
-23.18550424894629
 20
222.4781062421493
 11
-22.01883758227963
 21
222.4781062421493
 12
-22.60217091561296
 22
225.9781062421493
 13
-22.60217091561296
 23
225.9781062421493
  0
SOLID
  5
160
330
14F
100
AcDbEntity
  8
文本层
 62
     0
100
AcDbTrace
 38
0.0
 10
-23.18550424894633
 20
69.47810624214932
 11
-22.01883758227966
 21
69.47810624214932
 12
-22.60217091561299
 22
65.97810624214932
 13
-22.60217091561299
 23
65.97810624214932
  0
MTEXT
  5
161
330
14F
100
AcDbEntity
  8
文本层
 62
     0
100
AcDbMText
 10
-25.727170915613
 20
145.9781062421493
 30
0.0
210
0.0
220
0.0
230
1.0
 11
6.123031769111886E-17
 21
1.0
 31
0.0
 40
5.0
 41
0.0
 71
     5
 72
     1
  1
160
  7
数字与字母
 73
     1
 44
1.0
  0
POINT
  5
162
330
14F
100
AcDbEntity
  8
Defpoints
 62
     0
100
AcDbPoint
 10
95.28883882691025
 20
225.9781062421492
 30
0.0
 50
0.0
  0
POINT
  5
163
330
14F
100
AcDbEntity
  8
Defpoints
 62
     0
100
AcDbPoint
 10
95.28883882691025
 20
65.97810624214929
 30
0.0
 50
0.0
  0
POINT
  5
164
330
14F
100
AcDbEntity
  8
Defpoints
 62
     0
100
AcDbPoint
 10
-22.60217091561299
 20
65.97810624214932
 30
0.0
 50
0.0
  0
ENDBLK
  5
15A
330
14F
100
AcDbEntity
  8
0
100
AcDbBlockEnd
  0
BLOCK
  5
171
330
167
100
AcDbEntity
  8
0
100
AcDbBlockBegin
  2
*D5
 70
     1
 10
0.0
 20
0.0
 30
0.0
  3
*D5
  1

  0
LINE
  5
168
330
167
100
AcDbEntity
  8
文本层
370
    -2
 62
     0
100
AcDbLine
 10
41.28883882691025
 20
105.9781062421493
 30
0.0
 11
41.28883882691024
 21
38.80837792354217
 31
0.0
  0
LINE
  5
169
330
167
100
AcDbEntity
  8
文本层
370
    -2
 62
     0
100
AcDbLine
 10
95.28883882691025
 20
65.97810624214929
 30
0.0
 11
95.28883882691025
 21
38.80837792354217
 31
0.0
  0
LINE
  5
16A
330
167
100
AcDbEntity
  8
文本层
370
    -2
 62
     0
100
AcDbLine
 10
44.78883882691024
 20
41.30837792354217
 30
0.0
 11
91.78883882691025
 21
41.30837792354217
 31
0.0
  0
SOLID
  5
16B
330
167
100
AcDbEntity
  8
文本层
 62
     0
100
AcDbTrace
 38
0.0
 10
44.78883882691024
 20
41.8917112568755
 11
44.78883882691024
 21
40.72504459020883
 12
41.28883882691024
 22
41.30837792354217
 13
41.28883882691024
 23
41.30837792354217
  0
SOLID
  5
16C
330
167
100
AcDbEntity
  8
文本层
 62
     0
100
AcDbTrace
 38
0.0
 10
91.78883882691025
 20
41.8917112568755
 11
91.78883882691025
 21
40.72504459020883
 12
95.28883882691025
 22
41.30837792354217
 13
95.28883882691025
 23
41.30837792354217
  0
MTEXT
  5
16D
330
167
100
AcDbEntity
  8
文本层
 62
     0
100
AcDbMText
 10
68.28883882691025
 20
44.43337792354217
 30
0.0
210
0.0
220
0.0
230
1.0
 11
1.0
 21
0.0
 31
0.0
 40
5.0
 41
0.0
 71
     5
 72
     1
  1
54
  7
数字与字母
 73
     1
 44
1.0
  0
POINT
  5
16E
330
167
100
AcDbEntity
  8
Defpoints
 62
     0
100
AcDbPoint
 10
41.28883882691025
 20
105.9781062421493
 30
0.0
 50
0.0
  0
POINT
  5
16F
330
167
100
AcDbEntity
  8
Defpoints
 62
     0
100
AcDbPoint
 10
95.28883882691025
 20
65.97810624214929
 30
0.0
 50
0.0
  0
POINT
  5
170
330
167
100
AcDbEntity
  8
Defpoints
 62
     0
100
AcDbPoint
 10
95.28883882691025
 20
41.30837792354217
 30
0.0
 50
0.0
  0
ENDBLK
  5
172
330
167
100
AcDbEntity
  8
0
100
AcDbBlockEnd
  0
BLOCK
  5
17E
330
174
100
AcDbEntity
  8
0
100
AcDbBlockBegin
  2
*D6
 70
     1
 10
0.0
 20
0.0
 30
0.0
  3
*D6
  1

  0
LINE
  5
181
330
174
100
AcDbEntity
  8
文本层
370
    -2
 62
     0
100
AcDbLine
 10
95.28883882691025
 20
65.97810624214929
 30
0.0
 11
95.28883882691025
 21
38.80837792354217
 31
0.0
  0
LINE
  5
182
330
174
100
AcDbEntity
  8
文本层
370
    -2
 62
     0
100
AcDbLine
 10
125.2888388269103
 20
65.97810624214929
 30
0.0
 11
125.2888388269103
 21
38.80837792354217
 31
0.0
  0
LINE
  5
183
330
174
100
AcDbEntity
  8
文本层
370
    -2
 62
     0
100
AcDbLine
 10
98.78883882691025
 20
41.30837792354217
 30
0.0
 11
121.7888388269103
 21
41.30837792354217
 31
0.0
  0
SOLID
  5
184
330
174
100
AcDbEntity
  8
文本层
 62
     0
100
AcDbTrace
 38
0.0
 10
98.78883882691025
 20
41.8917112568755
 11
98.78883882691025
 21
40.72504459020883
 12
95.28883882691025
 22
41.30837792354217
 13
95.28883882691025
 23
41.30837792354217
  0
SOLID
  5
185
330
174
100
AcDbEntity
  8
文本层
 62
     0
100
AcDbTrace
 38
0.0
 10
121.7888388269103
 20
41.8917112568755
 11
121.7888388269103
 21
40.72504459020883
 12
125.2888388269103
 22
41.30837792354217
 13
125.2888388269103
 23
41.30837792354217
  0
MTEXT
  5
186
330
174
100
AcDbEntity
  8
文本层
 62
     0
100
AcDbMText
 10
110.2888388269103
 20
44.43337792354217
 30
0.0
210
0.0
220
0.0
230
1.0
 11
1.0
 21
0.0
 31
0.0
 40
5.0
 41
0.0
 71
     5
 72
     1
  1
30
  7
数字与字母
 73
     1
 44
1.0
  0
POINT
  5
187
330
174
100
AcDbEntity
  8
Defpoints
 62
     0
100
AcDbPoint
 10
95.28883882691025
 20
65.97810624214929
 30
0.0
 50
0.0
  0
POINT
  5
188
330
174
100
AcDbEntity
  8
Defpoints
 62
     0
100
AcDbPoint
 10
125.2888388269103
 20
65.97810624214929
 30
0.0
 50
0.0
  0
POINT
  5
189
330
174
100
AcDbEntity
  8
Defpoints
 62
     0
100
AcDbPoint
 10
125.2888388269103
 20
41.30837792354217
 30
0.0
 50
0.0
  0
ENDBLK
  5
17F
330
174
100
AcDbEntity
  8
0
100
AcDbBlockEnd
  0
BLOCK
  5
196
330
18C
100
AcDbEntity
  8
0
100
AcDbBlockBegin
  2
*D7
 70
     1
 10
0.0
 20
0.0
 30
0.0
  3
*D7
  1

  0
LINE
  5
199
330
18C
100
AcDbEntity
  8
文本层
370
    -2
 62
     0
100
AcDbLine
 10
125.2888388269103
 20
65.97810624214929
 30
0.0
 11
125.2888388269103
 21
38.80837792354217
 31
0.0
  0
LINE
  5
19A
330
18C
100
AcDbEntity
  8
文本层
370
    -2
 62
     0
100
AcDbLine
 10
153.1928141081355
 20
111.8226300129556
 30
0.0
 11
153.1928141081355
 21
38.80837792354217
 31
0.0
  0
LINE
  5
19B
330
18C
100
AcDbEntity
  8
文本层
370
    -2
 62
     0
100
AcDbLine
 10
128.7888388269103
 20
41.30837792354217
 30
0.0
 11
149.6928141081355
 21
41.30837792354217
 31
0.0
  0
SOLID
  5
19C
330
18C
100
AcDbEntity
  8
文本层
 62
     0
100
AcDbTrace
 38
0.0
 10
128.7888388269103
 20
41.8917112568755
 11
128.7888388269103
 21
40.72504459020883
 12
125.2888388269103
 22
41.30837792354217
 13
125.2888388269103
 23
41.30837792354217
  0
SOLID
  5
19D
330
18C
100
AcDbEntity
  8
文本层
 62
     0
100
AcDbTrace
 38
0.0
 10
149.6928141081355
 20
41.8917112568755
 11
149.6928141081355
 21
40.72504459020883
 12
153.1928141081355
 22
41.30837792354217
 13
153.1928141081355
 23
41.30837792354217
  0
MTEXT
  5
19E
330
18C
100
AcDbEntity
  8
文本层
 62
     0
100
AcDbMText
 10
139.2408264675229
 20
44.43337792354217
 30
0.0
210
0.0
220
0.0
230
1.0
 11
1.0
 21
0.0
 31
0.0
 40
5.0
 41
0.0
 71
     5
 72
     1
  1
27.9
  7
数字与字母
 73
     1
 44
1.0
  0
POINT
  5
19F
330
18C
100
AcDbEntity
  8
Defpoints
 62
     0
100
AcDbPoint
 10
125.2888388269103
 20
65.97810624214929
 30
0.0
 50
0.0
  0
POINT
  5
1A0
330
18C
100
AcDbEntity
  8
Defpoints
 62
     0
100
AcDbPoint
 10
153.1928141081355
 20
111.8226300129556
 30
0.0
 50
0.0
  0
POINT
  5
1A1
330
18C
100
AcDbEntity
  8
Defpoints
 62
     0
100
AcDbPoint
 10
153.1928141081355
 20
41.30837792354217
 30
0.0
 50
0.0
  0
ENDBLK
  5
197
330
18C
100
AcDbEntity
  8
0
100
AcDbBlockEnd
  0
BLOCK
  5
1AE
330
1A4
100
AcDbEntity
  8
0
100
AcDbBlockBegin
  2
*D8
 70
     1
 10
0.0
 20
0.0
 30
0.0
  3
*D8
  1

  0
LINE
  5
1B1
330
1A4
100
AcDbEntity
  8
文本层
370
    -2
 62
     0
100
AcDbLine
 10
125.2888388269103
 20
52.39324208284573
 30
0.0
 11
125.2888388269103
 21
38.80837792354217
 31
0.0
  0
LINE
  5
1B2
330
1A4
100
AcDbEntity
  8
文本层
370
    -2
 62
     0
100
AcDbLine
 10
153.2888388269103
 20
112.9781062421493
 30
0.0
 11
153.2888388269103
 21
38.80837792354217
 31
0.0
  0
LINE
  5
1B3
330
1A4
100
AcDbEntity
  8
文本层
370
    -2
 62
     0
100
AcDbLine
 10
128.7888388269103
 20
41.30837792354217
 30
0.0
 11
149.7888388269103
 21
41.30837792354217
 31
0.0
  0
SOLID
  5
1B4
330
1A4
100
AcDbEntity
  8
文本层
 62
     0
100
AcDbTrace
 38
0.0
 10
128.7888388269103
 20
41.8917112568755
 11
128.7888388269103
 21
40.72504459020883
 12
125.2888388269103
 22
41.30837792354217
 13
125.2888388269103
 23
41.30837792354217
  0
SOLID
  5
1B5
330
1A4
100
AcDbEntity
  8
文本层
 62
     0
100
AcDbTrace
 38
0.0
 10
149.7888388269103
 20
41.8917112568755
 11
149.7888388269103
 21
40.72504459020883
 12
153.2888388269103
 22
41.30837792354217
 13
153.2888388269103
 23
41.30837792354217
  0
MTEXT
  5
1B6
330
1A4
100
AcDbEntity
  8
文本层
 62
     0
100
AcDbMText
 10
139.2888388269103
 20
44.43337792354217
 30
0.0
210
0.0
220
0.0
230
1.0
 11
1.0
 21
0.0
 31
0.0
 40
5.0
 41
0.0
 71
     5
 72
     1
  1
28
  7
数字与字母
 73
     1
 44
1.0
  0
POINT
  5
1B7
330
1A4
100
AcDbEntity
  8
Defpoints
 62
     0
100
AcDbPoint
 10
125.2888388269103
 20
52.39324208284573
 30
0.0
 50
0.0
  0
POINT
  5
1B8
330
1A4
100
AcDbEntity
  8
Defpoints
 62
     0
100
AcDbPoint
 10
153.2888388269103
 20
112.9781062421493
 30
0.0
 50
0.0
  0
POINT
  5
1B9
330
1A4
100
AcDbEntity
  8
Defpoints
 62
     0
100
AcDbPoint
 10
153.2888388269103
 20
41.30837792354217
 30
0.0
 50
0.0
  0
ENDBLK
  5
1AF
330
1A4
100
AcDbEntity
  8
0
100
AcDbBlockEnd
  0
BLOCK
  5
1C3
330
1BC
100
AcDbEntity
  8
0
100
AcDbBlockBegin
  2
*D9
 70
     1
 10
0.0
 20
0.0
 30
0.0
  3
*D9
  1

  0
LINE
  5
1C6
330
1BC
100
AcDbEntity
  8
文本层
370
    -2
 62
     0
100
AcDbLine
 10
145.4143861593826
 20
91.34147231335649
 30
0.0
 11
138.4560528260493
 21
91.34147231335649
 31
0.0
  0
LINE
  5
1C7
330
1BC
100
AcDbEntity
  8
文本层
370
    -2
 62
     0
100
AcDbLine
 10
138.4560528260493
 20
91.34147231335649
 30
0.0
 11
128.9624159598713
 21
102.3568516868402
 31
0.0
  0
MTEXT
  5
1C8
330
1BC
100
AcDbEntity
  8
文本层
 62
     0
100
AcDbMText
 10
142.2477194927159
 20
94.46647231335649
 30
0.0
210
0.0
220
0.0
230
1.0
 11
1.0
 21
0.0
 31
0.0
 40
5.0
 41
0.0
 71
     5
 72
     1
  1
R4
  7
数字与字母
 73
     1
 44
1.0
  0
SOLID
  5
1C9
330
1BC
100
AcDbEntity
  8
文本层
 62
     0
100
AcDbTrace
 38
0.0
 10
129.404285645344
 20
102.7376783650523
 11
128.5205462743986
 21
101.9760250086281
 12
126.6774558905988
 22
105.0080697996762
 13
126.6774558905988
 23
105.0080697996762
  0
POINT
  5
1CA
330
1BC
100
AcDbEntity
  8
Defpoints
 62
     0
100
AcDbPoint
 10
126.6774558905988
 20
105.0080697996762
 30
0.0
 50
0.0
  0
POINT
  5
1CB
330
1BC
100
AcDbEntity
  8
Defpoints
 62
     0
100
AcDbPoint
 10
129.2888388269103
 20
101.9781062421493
 30
0.0
 50
0.0
  0
ENDBLK
  5
1C4
330
1BC
100
AcDbEntity
  8
0
100
AcDbBlockEnd
  0
BLOCK
  5
1D5
330
1CE
100
AcDbEntity
  8
0
100
AcDbBlockBegin
  2
*D10
 70
     1
 10
0.0
 20
0.0
 30
0.0
  3
*D10
  1

  0
LINE
  5
1D8
330
1CE
100
AcDbEntity
  8
文本层
370
    -2
 62
     0
100
AcDbLine
 10
115.8041552238403
 20
150.738271134156
 30
0.0
 11
122.7624885571736
 21
150.738271134156
 31
0.0
  0
LINE
  5
1D9
330
1CE
100
AcDbEntity
  8
文本层
370
    -2
 62
     0
100
AcDbLine
 10
122.7624885571736
 20
150.738271134156
 30
0.0
 11
133.6306193398435
 21
162.3430529245277
 31
0.0
  0
MTEXT
  5
1DA
330
1CE
100
AcDbEntity
  8
文本层
 62
     0
100
AcDbMText
 10
118.970821890507
 20
153.863271134156
 30
0.0
210
0.0
220
0.0
230
1.0
 11
1.0
 21
0.0
 31
0.0
 40
5.0
 41
0.0
 71
     5
 72
     1
  1
R4
  7
数字与字母
 73
     1
 44
1.0
  0
SOLID
  5
1DB
330
1CE
100
AcDbEntity
  8
文本层
 62
     0
100
AcDbTrace
 38
0.0
 10
133.2048482104019
 20
162.7417968562831
 11
134.0563904692851
 21
161.9443089927723
 12
136.0230829303761
 22
164.8976797011775
 13
136.0230829303761
 23
164.8976797011775
  0
POINT
  5
1DC
330
1CE
100
AcDbEntity
  8
Defpoints
 62
     0
100
AcDbPoint
 10
136.0230829303761
 20
164.8976797011775
 30
0.0
 50
0.0
  0
POINT
  5
1DD
330
1CE
100
AcDbEntity
  8
Defpoints
 62
     0
100
AcDbPoint
 10
133.2888388269104
 20
161.9781062421493
 30
0.0
 50
0.0
  0
ENDBLK
  5
1D6
330
1CE
100
AcDbEntity
  8
0
100
AcDbBlockEnd
  0
BLOCK
  5
1E8
330
1E0
100
AcDbEntity
  8
0
100
AcDbBlockBegin
  2
*D11
 70
     1
 10
0.0
 20
0.0
 30
0.0
  3
*D11
  1

  0
LINE
  5
1EB
330
1E0
100
AcDbEntity
  8
文本层
370
    -2
 62
     0
100
AcDbLine
 10
172.0115947589258
 20
194.3098228682177
 30
0.0
 11
165.2199280922591
 21
194.3098228682177
 31
0.0
  0
LINE
  5
1EC
330
1E0
100
AcDbEntity
  8
文本层
370
    -2
 62
     0
100
AcDbLine
 10
165.2199280922591
 20
194.3098228682177
 30
0.0
 11
154.4485293218707
 21
185.5863927845483
 31
0.0
  0
MTEXT
  5
1ED
330
1E0
100
AcDbEntity
  8
文本层
 62
     0
100
AcDbMText
 10
168.9282614255924
 20
197.4348228682177
 30
0.0
210
0.0
220
0.0
230
1.0
 11
1.0
 21
0.0
 31
0.0
 40
5.0
 41
0.0
 71
     5
 72
     1
  1
R7
  7
数字与字母
 73
     1
 44
1.0
  0
LINE
  5
1EE
330
1E0
100
AcDbEntity
  8
文本层
370
    -2
 62
     0
100
AcDbLine
 10
146.2888388269104
 20
178.9781062421496
 30
0.0
 11
151.7286324902172
 21
183.3836306037487
 31
0.0
  0
SOLID
  5
1EF
330
1E0
100
AcDbEntity
  8
文本层
 62
     0
100
AcDbTrace
 38
0.0
 10
154.0814022917374
 20
186.0397089231572
 11
154.815656352004
 21
185.1330766459394
 12
151.7286324902172
 22
183.3836306037487
 13
151.7286324902172
 23
183.3836306037487
  0
POINT
  5
1F0
330
1E0
100
AcDbEntity
  8
Defpoints
 62
     0
100
AcDbPoint
 10
151.7286324902172
 20
183.3836306037487
 30
0.0
 50
0.0
  0
POINT
  5
1F1
330
1E0
100
AcDbEntity
  8
Defpoints
 62
     0
100
AcDbPoint
 10
146.2888388269104
 20
178.9781062421496
 30
0.0
 50
0.0
  0
ENDBLK
  5
1E9
330
1E0
100
AcDbEntity
  8
0
100
AcDbBlockEnd
  0
BLOCK
  5
1FE
330
1F4
100
AcDbEntity
  8
0
100
AcDbBlockBegin
  2
*D12
 70
     1
 10
0.0
 20
0.0
 30
0.0
  3
*D12
  1

  0
LINE
  5
201
330
1F4
100
AcDbEntity
  8
文本层
370
    -2
 62
     0
100
AcDbLine
 10
358.4869153575719
 20
233.2233675788468
 30
0.0
 11
348.6952486909053
 21
233.2233675788469
 31
0.0
  0
LINE
  5
202
330
1F4
100
AcDbEntity
  8
文本层
370
    -2
 62
     0
100
AcDbLine
 10
348.6952486909053
 20
233.2233675788469
 30
0.0
 11
328.5884255324744
 21
213.9384366697648
 31
0.0
  0
LINE
  5
203
330
1F4
100
AcDbEntity
  8
文本层
370
    -2
 62
     0
100
AcDbLine
 10
311.989252121346
 20
198.0177758145336
 30
0.0
 11
309.4632909500873
 21
195.595066553955
 31
0.0
  0
MTEXT
  5
204
330
1F4
100
AcDbEntity
  8
文本层
 62
     0
100
AcDbMText
 10
353.9035820242386
 20
236.3483675788468
 30
0.0
210
0.0
220
0.0
230
1.0
 11
1.0
 21
0.0
 31
0.0
 40
5.0
 41
0.0
 71
     5
 72
     1
  1
\U+220516
  7
数字与字母
 73
     1
 44
1.0
  0
LINE
  5
205
330
1F4
100
AcDbEntity
  8
文本层
370
    -2
 62
     0
100
AcDbLine
 10
314.5152132926046
 20
200.4404850751123
 30
0.0
 11
326.0624643612158
 21
211.5157274091862
 31
0.0
  0
SOLID
  5
206
330
1F4
100
AcDbEntity
  8
文本层
 62
     0
100
AcDbTrace
 38
0.0
 10
311.5854672445829
 20
198.4387693430768
 11
312.3930369981091
 21
197.5967822859906
 12
314.5152132926046
 22
200.4404850751123
 13
314.5152132926046
 23
200.4404850751123
  0
SOLID
  5
207
330
1F4
100
AcDbEntity
  8
文本层
 62
     0
100
AcDbTrace
 38
0.0
 10
328.1846406557113
 20
214.3594301983079
 11
328.9922104092375
 21
213.5174431412217
 12
326.0624643612158
 22
211.5157274091862
 13
326.0624643612158
 23
211.5157274091862
  0
POINT
  5
208
330
1F4
100
AcDbEntity
  8
Defpoints
 62
     0
100
AcDbPoint
 10
326.0624643612158
 20
211.5157274091862
 30
0.0
 50
0.0
  0
POINT
  5
209
330
1F4
100
AcDbEntity
  8
Defpoints
 62
     0
100
AcDbPoint
 10
314.5152132926046
 20
200.4404850751123
 30
0.0
 50
0.0
  0
ENDBLK
  5
1FF
330
1F4
100
AcDbEntity
  8
0
100
AcDbBlockEnd
  0
BLOCK
  5
216
330
20C
100
AcDbEntity
  8
0
100
AcDbBlockBegin
  2
*D13
 70
     1
 10
0.0
 20
0.0
 30
0.0
  3
*D13
  1

  0
LINE
  5
219
330
20C
100
AcDbEntity
  8
文本层
370
    -2
 62
     0
100
AcDbLine
 10
407.7114818952313
 20
63.42185030605788
 30
0.0
 11
397.9198152285646
 21
63.42185030605788
 31
0.0
  0
LINE
  5
21A
330
20C
100
AcDbEntity
  8
文本层
370
    -2
 62
     0
100
AcDbLine
 10
397.9198152285646
 20
63.42185030605788
 30
0.0
 11
330.2219423394857
 21
135.4147992500913
 31
0.0
  0
LINE
  5
21B
330
20C
100
AcDbEntity
  8
文本层
370
    -2
 62
     0
100
AcDbLine
 10
310.3557353143347
 20
156.541413234207
 30
0.0
 11
307.9580896388853
 21
159.0911769909107
 31
0.0
  0
MTEXT
  5
21C
330
20C
100
AcDbEntity
  8
文本层
 62
     0
100
AcDbMText
 10
403.128148561898
 20
66.54685030605785
 30
0.0
210
0.0
220
0.0
230
1.0
 11
1.0
 21
0.0
 31
0.0
 40
5.0
 41
0.0
 71
     5
 72
     1
  1
\U+220522
  7
数字与字母
 73
     1
 44
1.0
  0
LINE
  5
21D
330
20C
100
AcDbEntity
  8
文本层
370
    -2
 62
     0
100
AcDbLine
 10
312.7533809897839
 20
153.9916494775034
 30
0.0
 11
327.8242966640364
 21
137.964563006795
 31
0.0
  0
SOLID
  5
21E
330
20C
100
AcDbEntity
  8
文本层
 62
     0
100
AcDbTrace
 38
0.0
 10
310.7806959404519
 20
156.9410208467819
 11
309.9307746882174
 21
156.1418056216322
 12
312.7533809897839
 22
153.9916494775034
 13
312.7533809897839
 23
153.9916494775034
  0
SOLID
  5
21F
330
20C
100
AcDbEntity
  8
文本层
 62
     0
100
AcDbTrace
 38
0.0
 10
330.6469029656029
 20
135.8144068626662
 11
329.7969817133684
 21
135.0151916375165
 12
327.8242966640364
 22
137.964563006795
 13
327.8242966640364
 23
137.964563006795
  0
POINT
  5
220
330
20C
100
AcDbEntity
  8
Defpoints
 62
     0
100
AcDbPoint
 10
327.8242966640364
 20
137.964563006795
 30
0.0
 50
0.0
  0
POINT
  5
221
330
20C
100
AcDbEntity
  8
Defpoints
 62
     0
100
AcDbPoint
 10
312.7533809897839
 20
153.9916494775034
 30
0.0
 50
0.0
  0
ENDBLK
  5
217
330
20C
100
AcDbEntity
  8
0
100
AcDbBlockEnd
  0
BLOCK
  5
22E
330
224
100
AcDbEntity
  8
0
100
AcDbBlockBegin
  2
*D14
 70
     1
 10
0.0
 20
0.0
 30
0.0
  3
*D14
  1

  0
LINE
  5
231
330
224
100
AcDbEntity
  8
文本层
370
    -2
 62
     0
100
AcDbLine
 10
245.6712029708179
 20
77.5481732049906
 30
0.0
 11
258.7962029708179
 21
77.54817320499059
 31
0.0
  0
LINE
  5
232
330
224
100
AcDbEntity
  8
文本层
370
    -2
 62
     0
100
AcDbLine
 10
258.7962029708179
 20
77.54817320499059
 30
0.0
 11
264.4775878053482
 21
83.87050397472807
 31
0.0
  0
LINE
  5
233
330
224
100
AcDbEntity
  8
文本层
370
    -2
 62
     0
100
AcDbLine
 10
376.1000898484725
 20
208.0857085095705
 30
0.0
 11
378.4394836038673
 21
210.6890211794624
 31
0.0
  0
MTEXT
  5
234
330
224
100
AcDbEntity
  8
文本层
 62
     0
100
AcDbMText
 10
251.9212029708179
 20
80.6731732049906
 30
0.0
210
0.0
220
0.0
230
1.0
 11
1.0
 21
0.0
 31
0.0
 40
5.0
 41
0.0
 71
     5
 72
     1
  1
\U+2205160
  7
数字与字母
 73
     1
 44
1.0
  0
LINE
  5
235
330
224
100
AcDbEntity
  8
文本层
370
    -2
 62
     0
100
AcDbLine
 10
373.7606960930777
 20
205.4823958396786
 30
0.0
 11
266.816981560743
 21
86.47381664461999
 31
0.0
  0
SOLID
  5
236
330
224
100
AcDbEntity
  8
文本层
 62
     0
100
AcDbTrace
 38
0.0
 10
375.6662044034905
 20
208.475607468803
 11
376.5339752934544
 21
207.695809550338
 12
373.7606960930777
 22
205.4823958396786
 13
373.7606960930777
 23
205.4823958396786
  0
SOLID
  5
237
330
224
100
AcDbEntity
  8
文本层
 62
     0
100
AcDbTrace
 38
0.0
 10
264.0437023603662
 20
84.26040293396055
 11
264.9114732503302
 21
83.4806050154956
 12
266.816981560743
 22
86.47381664461999
 13
266.816981560743
 23
86.47381664461999
  0
POINT
  5
238
330
224
100
AcDbEntity
  8
Defpoints
 62
     0
100
AcDbPoint
 10
266.816981560743
 20
86.47381664461999
 30
0.0
 50
0.0
  0
POINT
  5
239
330
224
100
AcDbEntity
  8
Defpoints
 62
     0
100
AcDbPoint
 10
373.7606960930777
 20
205.4823958396786
 30
0.0
 50
0.0
  0
ENDBLK
  5
22F
330
224
100
AcDbEntity
  8
0
100
AcDbBlockEnd
  0
BLOCK
  5
246
330
23C
100
AcDbEntity
  8
0
100
AcDbBlockBegin
  2
*D15
 70
     1
 10
0.0
 20
0.0
 30
0.0
  3
*D15
  1

  0
LINE
  5
249
330
23C
100
AcDbEntity
  8
文本层
370
    -2
 62
     0
100
AcDbLine
 10
235.3301292928503
 20
58.9242523855612
 30
0.0
 11
248.4551292928503
 21
58.92425238556118
 31
0.0
  0
LINE
  5
24A
330
23C
100
AcDbEntity
  8
文本层
370
    -2
 62
     0
100
AcDbLine
 10
248.4551292928503
 20
58.92425238556118
 30
0.0
 11
279.8737408621064
 21
96.99984722352625
 31
0.0
  0
LINE
  5
24B
330
23C
100
AcDbEntity
  8
文本层
370
    -2
 62
     0
100
AcDbLine
 10
360.7039367917138
 20
194.9563652607722
 30
0.0
 11
362.9315406165455
 21
197.6559543405388
 31
0.0
  0
MTEXT
  5
24C
330
23C
100
AcDbEntity
  8
文本层
 62
     0
100
AcDbMText
 10
241.5801292928504
 20
62.04925238556118
 30
0.0
210
0.0
220
0.0
230
1.0
 11
1.0
 21
0.0
 31
0.0
 40
5.0
 41
0.0
 71
     5
 72
     1
  1
\U+2205120
  7
数字与字母
 73
     1
 44
1.0
  0
LINE
  5
24D
330
23C
100
AcDbEntity
  8
文本层
370
    -2
 62
     0
100
AcDbLine
 10
358.4763329668821
 20
192.2567761810056
 30
0.0
 11
282.1013446869381
 21
99.69943630329286
 31
0.0
  0
SOLID
  5
24E
330
23C
100
AcDbEntity
  8
文本层
 62
     0
100
AcDbTrace
 38
0.0
 10
360.2540052784194
 20
195.3276325649108
 11
361.1538683050082
 21
194.5850979566335
 12
358.4763329668821
 22
192.2567761810056
 13
358.4763329668821
 23
192.2567761810056
  0
SOLID
  5
24F
330
23C
100
AcDbEntity
  8
文本层
 62
     0
100
AcDbTrace
 38
0.0
 10
279.423809348812
 20
97.37111452766487
 11
280.3236723754009
 21
96.62857991938762
 12
282.1013446869381
 22
99.69943630329286
 13
282.1013446869381
 23
99.69943630329286
  0
POINT
  5
250
330
23C
100
AcDbEntity
  8
Defpoints
 62
     0
100
AcDbPoint
 10
282.1013446869381
 20
99.69943630329286
 30
0.0
 50
0.0
  0
POINT
  5
251
330
23C
100
AcDbEntity
  8
Defpoints
 62
     0
100
AcDbPoint
 10
358.4763329668821
 20
192.2567761810056
 30
0.0
 50
0.0
  0
ENDBLK
  5
247
330
23C
100
AcDbEntity
  8
0
100
AcDbBlockEnd
  0
ENDSEC
  0
SECTION
  2
ENTITIES
  0
LINE
  5
A9
330
1F
100
AcDbEntity
  8
点划线
100
AcDbLine
 10
31.28883882691025
 20
145.9781062421492
 30
0.0
 11
163.2888388269103
 21
145.9781062421492
 31
0.0
  0
LINE
  5
AA
102
{ACAD_REACTORS
330
E7
330
11D
102
}
330
1F
100
AcDbEntity
  8
点划线
100
AcDbLine
 10
110.2888388269103
 20
55.97810624214929
 30
0.0
 11
110.2888388269103
 21
235.5914814184475
 31
0.0
  0
LINE
  5
AD
102
{ACAD_REACTORS
330
E7
102
}
330
1F
100
AcDbEntity
  8
轮廓线
100
AcDbLine
 10
137.2888388269103
 20
145.9781062421492
 30
0.0
 11
137.2888388269103
 21
161.9781062421492
 31
0.0
  0
LINE
  5
AE
102
{ACAD_REACTORS
330
E7
102
}
330
1F
100
AcDbEntity
  8
轮廓线
100
AcDbLine
 10
133.2888388269103
 20
165.9781062421492
 30
0.0
 11
41.28883882691025
 21
165.9781062421492
 31
0.0
  0
LINE
  5
AF
102
{ACAD_REACTORS
330
E7
102
}
330
1F
100
AcDbEntity
  8
轮廓线
100
AcDbLine
 10
153.2888388269103
 20
145.9781062421492
 30
0.0
 11
153.2888388269103
 21
178.9781062421492
 31
0.0
  0
LINE
  5
B0
102
{ACAD_REACTORS
330
E7
102
}
330
1F
100
AcDbEntity
  8
轮廓线
100
AcDbLine
 10
146.2888388269103
 20
185.9781062421492
 30
0.0
 11
129.2888388269103
 21
185.9781062421492
 31
0.0
  0
LINE
  5
B1
102
{ACAD_REACTORS
330
E7
102
}
330
1F
100
AcDbEntity
  8
轮廓线
100
AcDbLine
 10
125.2888388269103
 20
189.9781062421492
 30
0.0
 11
125.2888388269103
 21
225.9781062421492
 31
0.0
  0
LINE
  5
B2
102
{ACAD_REACTORS
330
E7
102
}
330
1F
100
AcDbEntity
  8
轮廓线
100
AcDbLine
 10
125.2888388269103
 20
225.9781062421492
 30
0.0
 11
95.28883882691025
 21
225.9781062421492
 31
0.0
  0
LINE
  5
B3
102
{ACAD_REACTORS
330
E7
330
165
102
}
330
1F
100
AcDbEntity
  8
轮廓线
100
AcDbLine
 10
95.28883882691025
 20
225.9781062421492
 30
0.0
 11
95.28883882691025
 21
185.9781062421492
 31
0.0
  0
LINE
  5
B4
102
{ACAD_REACTORS
330
E7
102
}
330
1F
100
AcDbEntity
  8
轮廓线
100
AcDbLine
 10
95.28883882691025
 20
185.9781062421492
 30
0.0
 11
41.28883882691025
 21
185.9781062421492
 31
0.0
  0
LINE
  5
B5
102
{ACAD_REACTORS
330
E7
330
14D
102
}
330
1F
100
AcDbEntity
  8
轮廓线
100
AcDbLine
 10
41.28883882691025
 20
185.9781062421492
 30
0.0
 11
41.28883882691025
 21
145.9781062421492
 31
0.0
  0
ARC
  5
B8
102
{ACAD_REACTORS
330
E7
330
1DE
102
}
330
1F
100
AcDbEntity
  8
轮廓线
100
AcDbCircle
 10
133.2888388269103
 20
161.9781062421492
 30
0.0
 40
4.0
100
AcDbArc
 50
0.0
 51
90.0
  0
ARC
  5
B9
102
{ACAD_REACTORS
330
E7
102
}
330
1F
100
AcDbEntity
  8
轮廓线
100
AcDbCircle
 10
129.2888388269103
 20
189.9781062421492
 30
0.0
 40
4.0
100
AcDbArc
 50
180.0
 51
270.0
  0
ARC
  5
BA
102
{ACAD_REACTORS
330
E7
330
1F2
102
}
330
1F
100
AcDbEntity
  8
轮廓线
100
AcDbCircle
 10
146.2888388269103
 20
178.9781062421492
 30
0.0
 40
7.0
100
AcDbArc
 50
0.0
 51
90.0
  0
LINE
  5
BD
330
1F
100
AcDbEntity
  8
点划线
100
AcDbLine
 10
320.2888388269103
 20
55.97810624214924
 30
0.0
 11
320.2888388269103
 21
235.9781062421492
 31
0.0
  0
LINE
  5
BF
330
1F
100
AcDbEntity
  8
点划线
100
AcDbLine
 10
230.2888388269103
 20
145.9781062421492
 30
0.0
 11
410.2888388269103
 21
145.9781062421492
 31
0.0
  0
CIRCLE
  5
C0
102
{ACAD_REACTORS
330
222
102
}
330
1F
100
AcDbEntity
  8
轮廓线
100
AcDbCircle
 10
320.2888388269103
 20
145.9781062421492
 30
0.0
 40
11.0
  0
CIRCLE
  5
C1
330
1F
100
AcDbEntity
  8
轮廓线
100
AcDbCircle
 10
320.2888388269103
 20
145.9781062421492
 30
0.0
 40
20.0
  0
CIRCLE
  5
C2
330
1F
100
AcDbEntity
  8
轮廓线
100
AcDbCircle
 10
320.2888388269103
 20
145.9781062421492
 30
0.0
 40
40.0
  0
CIRCLE
  5
C3
102
{ACAD_REACTORS
330
252
102
}
330
1F
100
AcDbEntity
  8
隐藏线
100
AcDbCircle
 10
320.2888388269103
 20
145.9781062421492
 30
0.0
 40
60.0
  0
CIRCLE
  5
C4
330
1F
100
AcDbEntity
  8
轮廓线
100
AcDbCircle
 10
320.2888388269103
 20
145.9781062421492
 30
0.0
 40
80.0
  0
CIRCLE
  5
C5
102
{ACAD_REACTORS
330
20A
102
}
330
1F
100
AcDbEntity
  8
轮廓线
100
AcDbCircle
 10
320.2888388269103
 20
205.9781062421492
 30
0.0
 40
8.0
  0
CIRCLE
  5
C6
330
1F
100
AcDbEntity
  8
轮廓线
100
AcDbCircle
 10
268.3273145998439
 20
175.9781062421493
 30
0.0
 40
8.0
  0
CIRCLE
  5
C7
330
1F
100
AcDbEntity
  8
轮廓线
100
AcDbCircle
 10
268.3273145998439
 20
115.9781062421493
 30
0.0
 40
8.0
  0
CIRCLE
  5
C8
330
1F
100
AcDbEntity
  8
轮廓线
100
AcDbCircle
 10
320.2888388269103
 20
85.97810624214925
 30
0.0
 40
8.0
  0
CIRCLE
  5
C9
330
1F
100
AcDbEntity
  8
轮廓线
100
AcDbCircle
 10
372.2503630539766
 20
115.9781062421492
 30
0.0
 40
8.0
  0
CIRCLE
  5
CA
330
1F
100
AcDbEntity
  8
轮廓线
100
AcDbCircle
 10
372.2503630539766
 20
175.9781062421492
 30
0.0
 40
8.0
  0
LINE
  5
CB
102
{ACAD_REACTORS
330
E7
102
}
330
1F
100
AcDbEntity
  8
轮廓线
100
AcDbLine
 10
95.28883882691025
 20
213.9781062421492
 30
0.0
 11
125.2888388269103
 21
213.9781062421492
 31
0.0
  0
LINE
  5
CC
102
{ACAD_REACTORS
330
E7
102
}
330
1F
100
AcDbEntity
  8
轮廓线
100
AcDbLine
 10
95.28883882691025
 20
197.9781062421492
 30
0.0
 11
125.2888388269103
 21
197.9781062421492
 31
0.0
  0
LINE
  5
CD
102
{ACAD_REACTORS
330
E7
330
11D
102
}
330
1F
100
AcDbEntity
  8
轮廓线
100
AcDbLine
 10
153.2888388269103
 20
156.9781062421492
 30
0.0
 11
137.2888388269103
 21
156.9781062421492
 31
0.0
  0
HATCH
  5
E7
330
1F
100
AcDbEntity
  8
剖面线
100
AcDbHatch
 10
0.0
 20
0.0
 30
0.0
210
0.0
220
0.0
230
1.0
  2
ANSI31
 70
     0
 71
     1
 91
        4
 92
        7
 72
     0
 73
     1
 93
        6
 10
110.2888388269102
 20
197.9781062421493
 10
95.28883882691025
 20
197.9781062421492
 10
95.28883882691026
 20
185.9781062421493
 10
41.28883882691026
 20
185.9781062421493
 10
41.28883882691025
 20
165.9781062421492
 10
110.2888388269103
 20
165.9781062421492
 97
        6
330
CC
330
B3
330
B4
330
B5
330
AE
330
AA
 92
        7
 72
     1
 73
     1
 93
       11
 10
133.2888388269103
 20
165.9781062421492
 42
-0.4142135623730951
 10
137.2888388269103
 20
161.9781062421492
 42
0.0
 10
137.2888388269103
 20
156.9781062421492
 42
0.0
 10
153.2888388269103
 20
156.9781062421492
 42
0.0
 10
153.2888388269103
 20
178.9781062421492
 42
0.4142135623730951
 10
146.2888388269103
 20
185.9781062421492
 42
0.0
 10
129.2888388269103
 20
185.9781062421492
 42
-0.4142135623730951
 10
125.2888388269103
 20
189.9781062421492
 42
0.0
 10
125.2888388269103
 20
197.9781062421492
 42
0.0
 10
110.2888388269103
 20
197.9781062421492
 42
0.0
 10
110.2888388269103
 20
165.9781062421492
 42
0.0
 97
       11
330
BA
330
B0
330
B9
330
B1
330
CC
330
AA
330
AE
330
B8
330
AD
330
CD
330
AF
 92
        7
 72
     0
 73
     1
 93
        4
 10
110.2888388269102
 20
225.9781062421492
 10
95.28883882691025
 20
225.9781062421492
 10
95.28883882691025
 20
213.9781062421492
 10
110.2888388269103
 20
213.9781062421492
 97
        4
330
B2
330
B3
330
CB
330
AA
 92
        7
 72
     0
 73
     1
 93
        4
 10
125.2888388269103
 20
213.9781062421492
 10
125.2888388269102
 20
225.9781062421492
 10
110.2888388269102
 20
225.9781062421493
 10
110.2888388269102
 20
213.9781062421492
 97
        4
330
B2
330
AA
330
CB
330
B1
 75
     0
 76
     1
 52
0.0
 41
1.5
 77
     0
 78
     1
 53
45.0
 43
0.0
 44
0.0
 45
-3.367596045400932
 46
3.367596045400933
 79
     0
 47
0.5258512253394473
 98
        4
 10
103.7893879769599
 20
175.7702630011614
 10
120.1065429918508
 20
173.1410068403781
 10
104.8421070931946
 20
220.4676173731655
 10
116.4220240742786
 20
219.4159149088522
  0
LINE
  5
E8
330
1F
100
AcDbEntity
  8
轮廓线
100
AcDbLine
 10
41.28883882691025
 20
105.9781062421493
 30
0.0
 11
41.28883882691025
 21
145.9781062421493
 31
0.0
  0
LINE
  5
E9
330
1F
100
AcDbEntity
  8
轮廓线
100
AcDbLine
 10
137.2888388269103
 20
145.9781062421493
 30
0.0
 11
137.2888388269103
 21
129.9781062421493
 31
0.0
  0
LINE
  5
EA
102
{ACAD_REACTORS
330
1BA
102
}
330
1F
100
AcDbEntity
  8
轮廓线
100
AcDbLine
 10
153.2888388269103
 20
145.9781062421493
 30
0.0
 11
153.2888388269103
 21
112.9781062421493
 31
0.0
  0
HATCH
  5
EB
330
1F
100
AcDbEntity
  8
剖面线
100
AcDbHatch
 10
0.0
 20
0.0
 30
0.0
210
0.0
220
0.0
230
1.0
  2
ANSI31
 70
     0
 71
     0
 91
        4
 92
        7
 72
     0
 73
     1
 93
        6
 10
110.2888388269102
 20
93.97810624214927
 10
95.28883882691025
 20
93.97810624214932
 10
95.28883882691026
 20
105.9781062421493
 10
41.28883882691026
 20
105.9781062421493
 10
41.28883882691025
 20
125.9781062421493
 10
110.2888388269103
 20
125.9781062421493
 97
        0
 92
        7
 72
     1
 73
     1
 93
       11
 10
153.2888388269103
 20
112.9781062421493
 42
-0.4142135623730951
 10
146.2888388269103
 20
105.9781062421493
 42
0.0
 10
129.2888388269103
 20
105.9781062421493
 42
0.4142135623730951
 10
125.2888388269103
 20
101.9781062421493
 42
0.0
 10
125.2888388269103
 20
93.97810624214929
 42
0.0
 10
110.2888388269103
 20
93.97810624214929
 42
0.0
 10
110.2888388269103
 20
125.9781062421493
 42
0.0
 10
133.2888388269103
 20
125.9781062421493
 42
0.4142135623730951
 10
137.2888388269103
 20
129.9781062421493
 42
0.0
 10
137.2888388269103
 20
134.9781062421493
 42
0.0
 10
153.2888388269103
 20
134.9781062421493
 42
0.0
 97
        0
 92
        7
 72
     0
 73
     1
 93
        4
 10
110.2888388269102
 20
65.97810624214929
 10
95.28883882691025
 20
65.97810624214932
 10
95.28883882691025
 20
77.97810624214929
 10
110.2888388269103
 20
77.97810624214929
 97
        0
 92
        7
 72
     0
 73
     1
 93
        4
 10
125.2888388269102
 20
65.97810624214929
 10
110.2888388269103
 20
65.97810624214932
 10
110.2888388269102
 20
77.97810624214932
 10
125.2888388269103
 20
77.97810624214929
 97
        0
 75
     0
 76
     1
 52
0.0
 41
1.5
 77
     0
 78
     1
 53
315.0
 43
0.0
 44
291.9562124842985
 45
-3.367596045400932
 46
-3.367596045400933
 79
     0
 47
0.5258512253394473
 98
        4
 10
103.7893879769599
 20
116.1859494831371
 10
120.1065429918508
 20
118.8152056439205
 10
104.8421070931946
 20
71.48859511113304
 10
116.4220240742786
 20
72.54029757544637
  0
LINE
  5
EC
102
{ACAD_REACTORS
330
14D
102
}
330
1F
100
AcDbEntity
  8
轮廓线
100
AcDbLine
 10
95.28883882691025
 20
105.9781062421493
 30
0.0
 11
41.28883882691025
 21
105.9781062421493
 31
0.0
  0
LINE
  5
ED
102
{ACAD_REACTORS
330
135
102
}
330
1F
100
AcDbEntity
  8
轮廓线
100
AcDbLine
 10
133.2888388269103
 20
125.9781062421493
 30
0.0
 11
41.28883882691025
 21
125.9781062421493
 31
0.0
  0
LINE
  5
EE
330
1F
100
AcDbEntity
  8
轮廓线
100
AcDbLine
 10
146.2888388269103
 20
105.9781062421493
 30
0.0
 11
129.2888388269103
 21
105.9781062421493
 31
0.0
  0
LINE
  5
EF
330
1F
100
AcDbEntity
  8
轮廓线
100
AcDbLine
 10
153.2888388269103
 20
134.9781062421493
 30
0.0
 11
137.2888388269103
 21
134.9781062421493
 31
0.0
  0
LINE
  5
F0
102
{ACAD_REACTORS
330
165
102
}
330
1F
100
AcDbEntity
  8
轮廓线
100
AcDbLine
 10
95.28883882691025
 20
65.97810624214929
 30
0.0
 11
95.28883882691025
 21
105.9781062421493
 31
0.0
  0
LINE
  5
F1
330
1F
100
AcDbEntity
  8
轮廓线
100
AcDbLine
 10
125.2888388269103
 20
101.9781062421493
 30
0.0
 11
125.2888388269103
 21
65.97810624214929
 31
0.0
  0
ARC
  5
F2
330
1F
100
AcDbEntity
  8
轮廓线
100
AcDbCircle
 10
133.2888388269103
 20
129.9781062421493
 30
0.0
 40
4.0
100
AcDbArc
 50
270.0
 51
0.0
  0
ARC
  5
F3
102
{ACAD_REACTORS
330
1CC
102
}
330
1F
100
AcDbEntity
  8
轮廓线
100
AcDbCircle
 10
129.2888388269103
 20
101.9781062421493
 30
0.0
 40
4.0
100
AcDbArc
 50
90.00000000000001
 51
180.0
  0
LINE
  5
F4
330
1F
100
AcDbEntity
  8
轮廓线
100
AcDbLine
 10
95.28883882691025
 20
93.97810624214929
 30
0.0
 11
125.2888388269103
 21
93.97810624214929
 31
0.0
  0
LINE
  5
F5
102
{ACAD_REACTORS
330
18A
102
}
330
1F
100
AcDbEntity
  8
轮廓线
100
AcDbLine
 10
125.2888388269103
 20
65.97810624214929
 30
0.0
 11
95.28883882691025
 21
65.97810624214929
 31
0.0
  0
LINE
  5
F6
330
1F
100
AcDbEntity
  8
轮廓线
100
AcDbLine
 10
95.28883882691025
 20
77.97810624214929
 30
0.0
 11
125.2888388269103
 21
77.97810624214929
 31
0.0
  0
ARC
  5
F7
330
1F
100
AcDbEntity
  8
轮廓线
100
AcDbCircle
 10
146.2888388269103
 20
112.9781062421493
 30
0.0
 40
7.0
100
AcDbArc
 50
270.0
 51
0.0
  0
LINE
  5
103
330
1F
100
AcDbEntity
  8
点划线
100
AcDbLine
 10
135.2888388269103
 20
205.9781062421492
 30
0.0
 11
85.28883882691025
 21
205.9781062421492
 31
0.0
  0
LINE
  5
104
330
1F
100
AcDbEntity
  8
点划线
100
AcDbLine
 10
135.2888388269103
 20
85.97810624214924
 30
0.0
 11
85.28883882691025
 21
85.97810624214925
 31
0.0
  0
DIMENSION
  5
105
102
{ACAD_REACTORS
330
11D
102
}
102
{ACAD_XDICTIONARY
360
113
102
}
330
1F
100
AcDbEntity
  8
文本层
100
AcDbDimension
  2
*D1
 10
137.2888388269103
 20
248.1036829906414
 30
0.0
 11
123.7888388269103
 21
251.2286829906414
 31
0.0
 70
    32
 71
     5
 42
27.0
  3
机械标注
100
AcDbAlignedDimension
 13
110.2888388269103
 23
235.5914814184475
 33
0.0
 14
137.2888388269103
 24
156.9781062421492
 34
0.0
 52
0.0
100
AcDbRotatedDimension
  0
DIMENSION
  5
11E
102
{ACAD_REACTORS
330
135
102
}
102
{ACAD_XDICTIONARY
360
12B
102
}
330
1F
100
AcDbEntity
  8
文本层
100
AcDbDimension
  2
*D2
 10
17.25061328158051
 20
165.9781062421492
 30
0.0
 11
14.12561328158049
 21
145.9781062421493
 31
0.0
 70
    32
 71
     5
 42
39.99999999999993
  3
机械标注
100
AcDbAlignedDimension
 13
41.28883882691025
 23
125.9781062421493
 33
0.0
 14
44.7446486077157
 24
165.9781062421492
 34
0.0
 52
0.0
 50
90.0
100
AcDbRotatedDimension
  0
DIMENSION
  5
136
102
{ACAD_REACTORS
330
14D
102
}
102
{ACAD_XDICTIONARY
360
143
102
}
330
1F
100
AcDbEntity
  8
文本层
100
AcDbDimension
  2
*D3
 10
-3.782800265146533
 20
185.9781062421492
 30
0.0
 11
-6.907800265146566
 21
145.9781062421493
 31
0.0
 70
    32
 71
     5
 42
79.99999999999993
  3
机械标注
100
AcDbAlignedDimension
 13
41.28883882691025
 23
105.9781062421493
 33
0.0
 14
41.28883882691025
 24
185.9781062421492
 34
0.0
 52
0.0
 50
90.0
100
AcDbRotatedDimension
  0
DIMENSION
  5
14E
102
{ACAD_REACTORS
330
165
102
}
102
{ACAD_XDICTIONARY
360
15B
102
}
330
1F
100
AcDbEntity
  8
文本层
100
AcDbDimension
  2
*D4
 10
-22.60217091561299
 20
65.97810624214932
 30
0.0
 11
-25.727170915613
 21
145.9781062421493
 31
0.0
 70
    32
 71
     5
 42
159.9999999999999
  3
机械标注
100
AcDbAlignedDimension
 13
95.28883882691025
 23
225.9781062421492
 33
0.0
 14
95.28883882691025
 24
65.97810624214929
 34
0.0
 52
0.0
 50
90.0
100
AcDbRotatedDimension
  0
DIMENSION
  5
166
330
1F
100
AcDbEntity
  8
文本层
100
AcDbDimension
  2
*D5
 10
95.28883882691025
 20
41.30837792354217
 30
0.0
 11
68.28883882691025
 21
44.43337792354217
 31
0.0
 70
    32
 71
     5
 42
54.0
  3
机械标注
100
AcDbAlignedDimension
 13
41.28883882691025
 23
105.9781062421493
 33
0.0
 14
95.28883882691025
 24
65.97810624214929
 34
0.0
 52
0.0
100
AcDbRotatedDimension
  0
DIMENSION
  5
173
102
{ACAD_REACTORS
330
18A
102
}
102
{ACAD_XDICTIONARY
360
180
102
}
330
1F
100
AcDbEntity
  8
文本层
100
AcDbDimension
  2
*D6
 10
125.2888388269103
 20
41.30837792354217
 30
0.0
 11
110.2888388269103
 21
44.43337792354217
 31
0.0
 70
    32
 71
     5
 42
30.0
  3
机械标注
100
AcDbAlignedDimension
 13
95.28883882691025
 23
65.97810624214929
 33
0.0
 14
125.2888388269103
 24
65.97810624214929
 34
0.0
 52
0.0
100
AcDbRotatedDimension
1001
ACAD
1000
DSTYLE
1002
{
1070
   279
1070
     1
1002
}
  0
DIMENSION
  5
1A3
102
{ACAD_REACTORS
330
1BA
102
}
102
{ACAD_XDICTIONARY
360
1B0
102
}
330
1F
100
AcDbEntity
  8
文本层
100
AcDbDimension
  2
*D8
 10
153.2888388269103
 20
41.30837792354217
 30
0.0
 11
139.2888388269103
 21
44.43337792354217
 31
0.0
 70
    32
 71
     5
 42
28.0
  3
机械标注
100
AcDbAlignedDimension
 13
125.2888388269103
 23
52.39324208284573
 33
0.0
 14
153.2888388269103
 24
112.9781062421493
 34
0.0
 52
0.0
100
AcDbRotatedDimension
  0
DIMENSION
  5
1BB
102
{ACAD_REACTORS
330
1CC
102
}
102
{ACAD_XDICTIONARY
360
1C5
102
}
330
1F
100
AcDbEntity
  8
文本层
100
AcDbDimension
  2
*D9
 10
129.2888388269103
 20
101.9781062421493
 30
0.0
 11
138.4560528260492
 21
91.34147231335649
 31
0.0
 70
   164
 71
     5
 42
3.999999999999972
  3
机械标注
100
AcDbRadialDimension
 15
126.6774558905988
 25
105.0080697996762
 35
0.0
 40
0.0
1001
ACAD
1000
DSTYLE
1002
{
1070
   279
1070
     1
1070
   288
1070
     1
1002
}
  0
DIMENSION
  5
1CD
102
{ACAD_REACTORS
330
1DE
102
}
102
{ACAD_XDICTIONARY
360
1D7
102
}
330
1F
100
AcDbEntity
  8
文本层
100
AcDbDimension
  2
*D10
 10
133.2888388269104
 20
161.9781062421493
 30
0.0
 11
122.7624885571737
 21
150.738271134156
 31
0.0
 70
   164
 71
     5
 42
3.999999999999829
  3
机械标注
100
AcDbRadialDimension
 15
136.0230829303761
 25
164.8976797011775
 35
0.0
 40
0.0
1001
ACAD
1000
DSTYLE
1002
{
1070
   279
1070
     1
1070
   288
1070
     1
1002
}
  0
DIMENSION
  5
1DF
102
{ACAD_REACTORS
330
1F2
102
}
102
{ACAD_XDICTIONARY
360
1EA
102
}
330
1F
100
AcDbEntity
  8
文本层
100
AcDbDimension
  2
*D11
 10
146.2888388269104
 20
178.9781062421496
 30
0.0
 11
168.9282614255924
 21
194.3098228682177
 31
0.0
 70
   164
 71
     5
 42
6.999999999999687
  3
机械标注
100
AcDbRadialDimension
 15
151.7286324902172
 25
183.3836306037487
 35
0.0
 40
0.0
1001
ACAD
1000
DSTYLE
1002
{
1070
   288
1070
     1
1002
}
  0
DIMENSION
  5
1F3
102
{ACAD_REACTORS
330
20A
102
}
102
{ACAD_XDICTIONARY
360
200
102
}
330
1F
100
AcDbEntity
  8
文本层
100
AcDbDimension
  2
*D12
 10
314.5152132926046
 20
200.4404850751123
 30
0.0
 11
353.9035820242386
 21
233.2233675788468
 31
0.0
 70
   163
 71
     5
 42
16.00000000000011
  3
机械标注
100
AcDbDiametricDimension
 15
326.0624643612158
 25
211.5157274091862
 35
0.0
 40
0.0
1001
ACAD
1000
DSTYLE
1002
{
1070
   288
1070
     1
1002
}
  0
DIMENSION
  5
20B
102
{ACAD_REACTORS
330
222
102
}
102
{ACAD_XDICTIONARY
360
218
102
}
330
1F
100
AcDbEntity
  8
文本层
100
AcDbDimension
  2
*D13
 10
312.7533809897839
 20
153.9916494775034
 30
0.0
 11
403.128148561898
 21
63.42185030605785
 31
0.0
 70
   163
 71
     5
 42
21.99999999999991
  3
机械标注
100
AcDbDiametricDimension
 15
327.8242966640364
 25
137.964563006795
 35
0.0
 40
0.0
1001
ACAD
1000
DSTYLE
1002
{
1070
   288
1070
     1
1002
}
  0
DIMENSION
  5
23B
102
{ACAD_REACTORS
330
252
102
}
102
{ACAD_XDICTIONARY
360
248
102
}
330
1F
100
AcDbEntity
  8
文本层
100
AcDbDimension
  2
*D15
 10
358.4763329668821
 20
192.2567761810056
 30
0.0
 11
241.5801292928504
 21
58.92425238556118
 31
0.0
 70
   163
 71
     5
 42
120.0
  3
机械标注
100
AcDbDiametricDimension
 15
282.1013446869381
 25
99.69943630329286
 35
0.0
 40
0.0
1001
ACAD
1000
DSTYLE
1002
{
1070
   288
1070
     1
1002
}
  0
VIEWPORT
  5
257
330
5E
100
AcDbEntity
 67
     1
  8
0
100
AcDbViewport
 10
133.3499908447266
 20
101.5999970436096
 30
0.0
 40
423.7327665924585
 41
228.4221935424805
 68
     1
 69
     1
 12
133.3499908447266
 22
101.5999970436096
 13
0.0
 23
0.0
 14
10.0
 24
10.0
 15
10.0
 25
10.0
 16
0.0
 26
0.0
 36
1.0
 17
0.0
 27
0.0
 37
0.0
 42
50.0
 43
0.0
 44
0.0
 45
228.4221935424805
 50
0.0
 51
0.0
 72
   100
 90
    32800
  1

281
     0
 71
     1
 74
     0
110
0.0
120
0.0
130
0.0
111
1.0
121
0.0
131
0.0
112
0.0
122
1.0
132
0.0
 79
     0
146
0.0
348
0
340
0
345
0
346
0
  0
VIEWPORT
  5
259
330
5E
100
AcDbEntity
 67
     1
  8
文本层
100
AcDbViewport
 10
133.3499939441681
 20
101.5999939441681
 30
0.0
 40
213.3599903106689
 41
162.5599903106689
 68
     1
 69
     2
 12
191.0302743933051
 22
146.2680594657642
 13
0.0
 23
0.0
 14
10.0
 24
10.0
 15
10.0
 25
10.0
 16
0.0
 26
0.0
 36
1.0
 17
0.0
 27
0.0
 37
0.0
 42
50.0
 43
0.0
 44
0.0
 45
338.646136469194
 50
0.0
 51
0.0
 72
   100
 90
    32864
  1

281
     0
 71
     1
 74
     0
110
0.0
120
0.0
130
0.0
111
1.0
121
0.0
131
0.0
112
0.0
122
1.0
132
0.0
 79
     0
146
0.0
348
0
340
0
345
0
346
0
  0
ENDSEC
  0
SECTION
  2
OBJECTS
  0
DICTIONARY
  5
C
330
0
100
AcDbDictionary
281
     1
  3
ACAD_GROUP
350
D
  3
ACAD_LAYOUT
350
1A
  3
ACAD_MLINESTYLE
350
17
  3
ACAD_PLOTSETTINGS
350
19
  3
ACAD_PLOTSTYLENAME
350
E
  3
AcDbVariableDictionary
350
67
  0
DICTIONARY
  5
D
102
{ACAD_REACTORS
330
C
102
}
330
C
100
AcDbDictionary
281
     1
  0
ACDBDICTIONARYWDFLT
  5
E
102
{ACAD_REACTORS
330
C
102
}
330
C
100
AcDbDictionary
281
     1
  3
Normal
350
F
100
AcDbDictionaryWithDefault
340
F
  0
ACDBPLACEHOLDER
  5
F
102
{ACAD_REACTORS
330
E
102
}
330
E
  0
DICTIONARY
  5
17
102
{ACAD_REACTORS
330
C
102
}
330
C
100
AcDbDictionary
281
     1
  3
Standard
350
18
  0
MLINESTYLE
  5
18
102
{ACAD_REACTORS
330
17
102
}
330
17
100
AcDbMlineStyle
  2
STANDARD
 70
     0
  3

 62
   256
 51
90.0
 52
90.0
 71
     2
 49
0.5
 62
   256
  6
BYLAYER
 49
-0.5
 62
   256
  6
BYLAYER
  0
DICTIONARY
  5
19
102
{ACAD_REACTORS
330
C
102
}
330
C
100
AcDbDictionary
281
     1
  0
DICTIONARY
  5
1A
102
{ACAD_REACTORS
330
C
102
}
330
C
100
AcDbDictionary
281
     1
  3
Model
350
22
  3
布局1
350
5A
  3
布局2
350
5F
  0
LAYOUT
  5
22
102
{ACAD_REACTORS
330
1A
102
}
330
1A
100
AcDbPlotSettings
  1

  2
none_device
  4
ANSI_A_(8.50_x_11.00_Inches)
  6

 40
6.349999904632568
 41
19.04999923706055
 42
6.350006103515625
 43
19.04998779296875
 44
215.8999938964844
 45
279.3999938964844
 46
0.0
 47
0.0
 48
0.0
 49
0.0
140
0.0
141
0.0
  6

142
1.0
143
57.07986212157697
 70
 11952
 72
     0
 73
     1
 74
     0
  7

 75
     0
147
0.01751931351673652
148
-2282.040442273535
149
2.561166666666503
100
AcDbLayout
  1
Model
 70
     1
 71
     0
 10
0.0
 20
0.0
 11
12.0
 21
9.0
 12
0.0
 22
0.0
 32
0.0
 14
0.0
 24
0.0
 34
0.0
 15
0.0
 25
0.0
 35
0.0
146
0.0
 13
0.0
 23
0.0
 33
0.0
 16
1.0
 26
0.0
 36
0.0
 17
0.0
 27
1.0
 37
0.0
 76
     0
330
1F
  0
LAYOUT
  5
5A
102
{ACAD_REACTORS
330
1A
102
}
330
1A
100
AcDbPlotSettings
  1

  2
none_device
  4
Letter_(8.50_x_11.00_Inches)
  6

 40
6.349999904632568
 41
6.349999904632568
 42
6.350006103515625
 43
6.350006103515625
 44
215.8999938964844
 45
279.3999938964844
 46
0.0
 47
0.0
 48
0.0
 49
0.0
140
0.0
141
0.0
  6

142
1.0
143
1.0
 70
   688
 72
     1
 73
     1
 74
     5
  7

 75
    16
147
1.0
148
0.0
149
0.0
100
AcDbLayout
  1
布局1
 70
     1
 71
     1
 10
-6.350006103515625
 20
-6.349999904632568
 11
273.0499877929688
 21
209.5499939918518
 12
0.0
 22
0.0
 32
0.0
 14
26.66999878883362
 24
20.31999878883363
 34
0.0
 15
240.0299890995026
 25
182.8799890995026
 35
0.0
146
0.0
 13
0.0
 23
0.0
 33
0.0
 16
1.0
 26
0.0
 36
0.0
 17
0.0
 27
1.0
 37
0.0
 76
     0
330
59
331
76
  0
LAYOUT
  5
5F
102
{ACAD_REACTORS
330
1A
102
}
330
1A
100
AcDbPlotSettings
  1

  2
none_device
  4
Letter_(8.50_x_11.00_Inches)
  6

 40
6.349999904632568
 41
6.349999904632568
 42
6.350006103515625
 43
6.350006103515625
 44
215.8999938964844
 45
279.3999938964844
 46
0.0
 47
0.0
 48
0.0
 49
0.0
140
0.0
141
0.0
  6

142
1.0
143
1.0
 70
   688
 72
     1
 73
     1
 74
     5
  7

 75
    16
147
1.0
148
0.0
149
0.0
100
AcDbLayout
  1
布局2
 70
     1
 71
     2
 10
-6.350006103515625
 20
-6.349999904632568
 11
273.0499877929688
 21
209.5499939918518
 12
0.0
 22
0.0
 32
0.0
 14
26.66999878883362
 24
20.31999878883363
 34
0.0
 15
240.0299890995026
 25
182.8799890995026
 35
0.0
146
0.0
 13
0.0
 23
0.0
 33
0.0
 16
1.0
 26
0.0
 36
0.0
 17
0.0
 27
1.0
 37
0.0
 76
     0
330
5E
331
257
  0
DICTIONARY
  5
67
102
{ACAD_REACTORS
330
C
102
}
330
C
100
AcDbDictionary
281
     1
  3
DIMASSOC
350
68
  3
HIDETEXT
350
6C
  0
DICTIONARYVAR
  5
68
102
{ACAD_REACTORS
330
67
102
}
330
67
100
DictionaryVariables
280
     0
  1
2
  0
DICTIONARYVAR
  5
6C
102
{ACAD_REACTORS
330
67
102
}
330
67
100
DictionaryVariables
280
     0
  1
1
  0
DICTIONARY
  5
113
330
105
100
AcDbDictionary
280
     1
281
     1
  3
ACAD_DIMASSOC
360
11D
  0
DICTIONARY
  5
12B
330
11E
100
AcDbDictionary
280
     1
281
     1
  3
ACAD_DIMASSOC
360
135
  0
DICTIONARY
  5
143
330
136
100
AcDbDictionary
280
     1
281
     1
  3
ACAD_DIMASSOC
360
14D
  0
DICTIONARY
  5
15B
330
14E
100
AcDbDictionary
280
     1
281
     1
  3
ACAD_DIMASSOC
360
165
  0
DICTIONARY
  5
180
330
173
100
AcDbDictionary
280
     1
281
     1
  3
ACAD_DIMASSOC
360
18A
  0
DICTIONARY
  5
1B0
330
1A3
100
AcDbDictionary
280
     1
281
     1
  3
ACAD_DIMASSOC
360
1BA
  0
DICTIONARY
  5
1C5
330
1BB
100
AcDbDictionary
280
     1
281
     1
  3
ACAD_DIMASSOC
360
1CC
  0
DICTIONARY
  5
1D7
330
1CD
100
AcDbDictionary
280
     1
281
     1
  3
ACAD_DIMASSOC
360
1DE
  0
DICTIONARY
  5
1EA
330
1DF
100
AcDbDictionary
280
     1
281
     1
  3
ACAD_DIMASSOC
360
1F2
  0
DICTIONARY
  5
200
330
1F3
100
AcDbDictionary
280
     1
281
     1
  3
ACAD_DIMASSOC
360
20A
  0
DICTIONARY
  5
218
330
20B
100
AcDbDictionary
280
     1
281
     1
  3
ACAD_DIMASSOC
360
222
  0
DICTIONARY
  5
248
330
23B
100
AcDbDictionary
280
     1
281
     1
  3
ACAD_DIMASSOC
360
252
  0
ENDSEC
  0
SECTION
  2
THUMBNAILIMAGE
 90
    18627
310
BF4800000201030100005000000002530100005C480000000000000000000000000000000000000000000000000000000000000000000000000000000000000000000000000000000000000000000000000000000000000000000000000000000000000000000028000000B400000061000000010008000000000034440000
310
00000000000000000001000000000000FFFFFF00FFFFFF0000000000FFFFFF00FFFFFF00FFFFFF00FFFFFF00FFFFFF00FFFFFF00FFFFFF00FFFFFF00330000006600000099000000CC000000FF00000000330000333300006633000099330000CC330000FF33000000660000336600006666000099660000CC660000FF6600
310
0000990000339900006699000099990000CC990000FF99000000CC000033CC000066CC000099CC0000CCCC0000FFCC000000FF000033FF000066FF000099FF0000CCFF0000FFFF000000003300330033006600330099003300CC003300FF00330000333300333333006633330099333300CC333300FF333300006633003366
310
33006666330099663300CC663300FF66330000993300339933006699330099993300CC993300FF99330000CC330033CC330066CC330099CC3300CCCC3300FFCC330000FF330033FF330066FF330099FF3300CCFF3300FFFF330000006600330066006600660099006600CC006600FF00660000336600333366006633660099
310
336600CC336600FF33660000666600336666006666660099666600CC666600FF66660000996600339966006699660099996600CC996600FF99660000CC660033CC660066CC660099CC6600CCCC6600FFCC660000FF660033FF660066FF660099FF6600CCFF6600FFFF660000009900330099006600990099009900CC009900
310
FF00990000339900333399006633990099339900CC339900FF33990000669900336699006666990099669900CC669900FF66990000999900339999006699990099999900CC999900FF99990000CC990033CC990066CC990099CC9900CCCC9900FFCC990000FF990033FF990066FF990099FF9900CCFF9900FFFF99000000CC
310
003300CC006600CC009900CC00CC00CC00FF00CC000033CC003333CC006633CC009933CC00CC33CC00FF33CC000066CC003366CC006666CC009966CC00CC66CC00FF66CC000099CC003399CC006699CC009999CC00CC99CC00FF99CC0000CCCC0033CCCC0066CCCC0099CCCC00CCCCCC00FFCCCC0000FFCC0033FFCC0066FF
310
CC0099FFCC00CCFFCC00FFFFCC000000FF003300FF006600FF009900FF00CC00FF00FF00FF000033FF003333FF006633FF009933FF00CC33FF00FF33FF000066FF003366FF006666FF009966FF00CC66FF00FF66FF000099FF003399FF006699FF009999FF00CC99FF00FF99FF0000CCFF0033CCFF0066CCFF0099CCFF00CC
310
CCFF00FFCCFF0000FFFF0033FFFF0066FFFF0099FFFF00CCFFFF0000000000FFFFFF000D0D0D001A1A1A00282828003535350043434300505050005D5D5D006B6B6B00787878008686860093939300A1A1A100AEAEAE00BBBBBB00C9C9C900D6D6D600E4E4E400F1F1F10000000000FFFFFF00FFFFFF00FFFFFF00FFFFFF00
310
FFFFFF00FFFFFF00FFFFFF00FFFFFF00FFFFFF00FFFFFF0000000000000000000000000000000000000000000000000000000000000000000000000000000000000000000000000000000000000000000000000000000000000000000000000000000000000000000000000000000000000000000000000000000000000000
310
00000000000000000000000000000000000000000000000000000000000000000000000000000000000000000000000000000000000000000000000000000000000000000000000000000000000000000000000000000000000000000000000000000000000000000000000000000000000000000000000000000000000000
310
00000000000000000000000000000000000000000000000000000000000000000000000000000000000000000000000000000000000000000000000000000000000000000000000000000000000000000000000000000000000000000000000000000000000000000000000000000000000000000000000000000000000000
310
00000000000000000000000000000000000000000000000000000000000000000000000000000000000000000000000000000000000000000000000000000000000000000000000000000000000000000000000000000000000000000000000000000000000000000000000000000000000000000000000000000000000000
310
00000000000000000000000000000000000000000000000000000000000000000000000000000000000000000000000000000000000000000000000000000000000000000000000000000000000000000000000000000000000000000000000000000000000000000000000000000000000000000000000000000000000000
310
00000000000000000000000000000000000000000000000000000000000000000000000000000000000000000000000000000000000000000000000000000000000000000000000000000000000000000000000000000000000000000000000000000000000000000000000000000000000000000000000000000000000000
310
00000000000000000000000000000000000000000000000000000000000000000000000000000000000000000000000000000000000000000000000000000000000000000000000000000000000000000000000000000000000000000000000000000000000000000000000000000000000000000000000000000000000000
310
00000000000000000000000000000000000000000000000000000000000000000000000000000000000000000000000000000000000000000000000000000000000000000000000000000000000000000000000000000000000000000000000000000000000000000000000000000000000000000000000000000000000000
310
00000000000000000000000000000000000000000000000000000000000000000000000000000000000000000000000000000000000000000000000000000000000000000000000000000000000000000000000000000000000000000000000000000000000000000000000000000000000000000000000000000000000000
310
00000000000000000000000000000000000000000000000000000000000000000000000000000000000000000000000000000000000000000000000000000000000000000000000000000000000000000000000000000000000000000000000000000000000000000000000000000000000000000000000000000000000000
310
00000000000000000000000000000000000000000000000000000000000000000000000000000000000000000000000000000000000000000000000000000000000000000000000000000000000000000000000000000000000000000000000000000000000000000000000000000000000000000000000000000000000000
310
00000000000000000000000000000000000000000000000000000000000000000000000000000000000000000000000000000000000000000000000000000000000000000000000000000000000000000000000000000000000000000000000000000000000000000000000000000000000000000000000000000000000000
310
00000000000000000000000000000000000000000000000000000000000000000000000000000000000000000000000000000000000000000000000000000000000000000000000000000000000000000000000000000000000000000000000000000000000000000000000000000000000000000000000000000000000000
310
00000000000000000000000000000000000000000000000000000000000000000000000000000000000000000000000000000000000000000000000000000000000000000000000000000000000000000000000000000000000000000000000000000000000000000000000000000000000000000000000000000000000000
310
00000000000000000000000000000000000000000000000000000000000000000000000000000000000000000000000000000000000000000000000000000000000000000000000000000000000000000000000000000000000000000000000000000000000000000000000000000000000000000000000000000000000000
310
00000000000000000000000000000000000000000000000000000000000000000000000000000000000000000000000000000000000000000000000000000000000000000000000000000000000000000000000000000000000000000000000000000000000000000000000000000000000000000000000000000000000000
310
00000000000000000000000000000000000000000000000000000000000000000000000000000000000000000000000000000000000000000000000000000000000000000000000000000000000000000000000000000000000000000000000000000000000000000000000000000000000000000000000000000000000000
310
00000000000000000000000000000000000000000000000000000000000000000000000000000000000000000000000000000000000000000000000000000000000000000000000000000000000000000000000000000000000000000000000000000000000000000000000000000000000000000000000000000000000000
310
000000000000000000000000000000000000000000000000000000000000000000000000000000000000000000000000000000000000000000000000000000000000000000000000000000000000000000000000000000000000000000000000000000000000000000000000000000000000000000009E0000000000000000
310
00000000000000009E0000000000000000009E00000000000000009E000000000000000000000000000000000000000000000000000000000000000000000000000000000000000000000000000000000000000000000000000000000000000000000000000000000000000000000000000000000000000000000000000000
310
00000000000000000000000000000000000000000000000000000000000000000000000000000000000000009E9E9E9E9E9E9E9E9E9E9E9E9E9E9E9E9E9E9E9E9E9E9E9E9E9E9E9E9E9E9E9E9E9E9E9E9E00000000000000000000000000000000000000000000000000000000000000000000000000000000000000000000
310
000000000000000000000000000000000000000000000000000000000000000000000000000000000000000000000000000000000000000000000000000000000000000000000000000000000000000000000000000000000000000000000000009E000000000000009E9E000000000000009E0000009E9E9E0000009E0000
310
9E9E9E0000009E000000000000000000000000000000000000000000000000000000000000000000000000000000000000000000000000000000000000000000000000000000000000000000000000000000000000000000000000000000000000000000000000000000000000000000000000000000000000000000000000
310
00000000000000000000000000000000000000000000009E000000000000009E9E000000000000009E0000009E9E9E0000009E0000009E9E0000009E00000000000000000000000000000000000000000000000000000000000000000000000000000000000000000000000000000000000000000000000000000000000000
310
000000000000000000000000000000000000000000000000000000000000000000000000000000000000000000000000000000000000000000000000000000000000000000000000000000009E000000000000000000000000000000009E0000000000000000009E00000000000000009E0000000000000000000000000000
310
00000000000000000000000000000000000000000000000000000000000000000000000000000000000000000000000000000000000000000000000000000000000000000000000000000000000000000000000000000000000000000000000000000000000000000000000000000000000000000000000000000000000000
310
00009E000000000000000000000000000000009E00000000BE000000009E00000000000000009E00000000000000000000000000000000000000000000000000000000000000000000000000000000000000000000000000000000BE0000000000000000000000000000000000000000000000000000000000000000000000
310
000000000000000000000000000000000000000000000000000000000000000000000000000000000000000000000000000000000000009E000000000000000000000000000000009E00000000BE000000009E00000000000000009E000000000000000000000000000000000000000000000000009E9E9E9E9E0000000000
310
0000000000000000000000000000000000BE0000000000000000000000000000000000000000000000000000000000000000000000000000000000000000000000000000000000000000000000000000000000000000000000000000000000000000000000000000000000009E000000000000000000000000000000009E00
310
000000BE000000009E00000000000000009E000000000000000000000000000000000000000000000000009E9E9E9E9E9E000000000000000000000000000000000000000000BE0000000000000000000000000000000000000000000000000000000000000000000000000000000000000000000000000000000000000000
310
000000000000000000000000000000000000000000000000000000000000000000009E000000000000000000000000000000009EF5F5F5F5BEF5F5F5F59E00000000000000009E000000000000000000000000000000000000000000000000009E9E9E9E9E009E000000000000000000000000000000F5F5F5F5F5BEF5F5F5
310
F5F5000000000000000000000000000000000000009E9E9E9E9E000000000000000000000000000000000000000000000000000000000000000000000000000000009E9E9E9E9E9E9E9E9E9E9E9E9E9E9E9E9E9E9E9E9E9E9E9E9E9E9E9E9E9E9E9E9E9E9E9E9E9E9E20F520F5BEF5F520F59EF5000000000000009E000000
310
000000000000000000000000000000000000000000000000000000009E0000000000000000000000F5F5F5F5F5F5F5F5F5BEF5F5F5F5F5F5F5F5F500000000000000000000000000009E009E9E9E9E000000000000000000000000000000000000000000000000000000000000000000000000000000009E9E000000000000
310
000000000000000000000000009E000000000000000000000000000000F520F520F520BE20202020F5F5000000000000009E00000000000000000000000000000000000000000000000000000000000000009E00000000000000F5F5F5F5F5F5F5F5F5F5F5F5BEF5F5F5F5F5F5F5F5F5F5F5F5F50000000000000000009E00
310
009E9E9E00000000000000000000000000000000000000000000000000000000000000000000000000000000009E00000000000000000000000000000000000000009E000000000000000000000000000000F5F520F520F5BEF520F5F520F5000000000000009E000000000000000000000000000000000000000000000000
310
0000000000000000009E00000000F5F5F5F5F5F5F5F5F500000000F5BE0000000000F5F5F5F5F5F5F5F5F5000000000000009E00000000000000000000000000000000000000000000000000000000000000000000000000000000000000000000009E00000000000000000000000000000000000000009E00000000000000
310
0000000000000000F520F520F520BE20F52020F5F5000000000000009E000000000000000000000000000000000000000000000000000000000000000000009E0000F5F5F5F5F5F500000000000000F5F5BEF5F5F5000000000000F5F5F5F5F5F5F5000000009E000000000000000000000000000000000000000000000000
310
0000000000000000000000000000000000000000000000009E00000000000000000000000000000000000000009E000000000000000000000000000000F5F5F5F5F5F5BEF5F5F5F5F5F5000000000000009E000000000000000000000000000000000000000000000000000000000000000000009E00F5F5F5F5F5F5000000
310
00000000F5F5F5BEF5F5F5F500000000000000F5F5F5F5F5F500009E000000000000000000000000000000000000000000000000000000000000000000000000000000000000000000000000009E00000000000000000000000000000000000000009E000000000000000000000000000000F5F5F5000000BE000000F5F5F5
310
000000000000009E00000000000000000000000000000000000000000000000000000000000000000000F59EF5F5F5F5F50000000000000000F5F5F5BEF5F5F5F5000000000000000000F5F5F5F5F5F59E00000000000000000000000000000000000000000000000000000000000000000000000000000000000000000000
310
0000009E00000000000000000000000000000000000000009E00000000000000000000000000BEBEBEBEBEBEBEBEBEBEBEBEBEBEBEBEBE00000000009E000000000000000000000000000000000000000000000000000000000000000000F5F5F59EF5F500000000000000000000F5F5F5BE82F5F5F5000000000000000000
310
00F5F5F5F59EF5000000000000000000000000000000000000000000000000000000000000000000000000000000000000000000000000009E00000000000000000000000000000000000000009E000000000000000000000000000000F5F5F5000000BE000000F5F5F5000000000000009E00000000000000000000000000
310
00000000000000000000000000000000000000F5F5F5F5F59E0000000000000000828282F5F5F5BEF5F5F5F58282820000000000000000F5F59EF5F5F50000000000000000000000000000000000000000000000000000000000000000000000000000000000000000000000009E0000000000000000000000000000000000
310
0000009E000000000000000000000000000000F5F5F5F5F5F5BEF5F5F5F5F5F500009E9E9E00009E0000000000000000000000000000000000000000000000000000000000000000F5F5F5F5009E0000000000828282000000F5F5F5BEF5F5F5F50000008282000000000000009EF5F5F5F500000000000000000000000000
310
00000000000000000000000000000000000000000000000000000000000000000000009E00000000000000000000000000000000000000009E000000000000000000000000000000F52020F520F5BEF520F520F5F5009E9E9E9E00009E00000000000000000000000000000000000000000000000000000000000000F5F5F5
310
F50000009E009E008282000000000000F5F5BEF5F5F50000000000008282000000009E0000F5F5F5F500000000000000000000000000000000000000000000000000000000000000000000000000000000000000000000009E00000000000000000000000000000000000000009E000000000000000000000000000000F5F5
310
2020F520BE20F520F520F59E009E9E9E00009E00000000000000000000000000000000000000000000000000000000000000F5F5F5F5000000009E9E82000000000000000000F5BEF5000000000000000000008200009E000000F5F5F5F5000000000000000000000000000000000000000000000000000000000000000000
310
00000000000000000000000000009E00000000000000000000000000000000000000009EF5F5F5F5F5F5F5F5F5F5F5F5F5F5F5F520F5002000BE00200020F59EF5F5F5F5F5F5F59E00000000000000000000000000000000000000000000000000000000000000F5F5F5000000000082009E00000000000000000000BEF500
310
00000000000000000000829E0000000000F5F5F5F5000000000000000000000000000000000000000000000000000000000000000000000000000000000000000000009E00000000009E9E9E9E9E9E9E9E9E9E9E9E9E9E9E9E20F520F520F520F5F520F520F520F520F5F5200020BE200020F59EF520F520F520F5F59E0000
310
00000000000000000000000000000000000000000000000000000000F5F5F5F5F5F5F5F5F58200009E000000000000F5F5F5BEF5F5F5F500000000000000009E82F5F5F5F5F500F5F5F5000000000000000000000000000000000000000000000000000000000000000000000000000000000000000000009E00000000009E
310
9E000000000000000000000000F520F520F520F520F5F520F520F520F520F5F520002000BE00200020F520F520F520F5F5209EF500000000000000000000000000000000000000000000000000000000F5F5F5F5F5F5F5F5F5F5F500009E000000F5F5F5F5F5F5BEF5F5F5F5F5F500000000009E00F5F5F5F5F5F5F500F5F5
310
F50000000000000000000000000000000000000000000000000000000000000000000000000000000000000000009E00000000009E9E000000000000000000000000F5F5F52020002000002000200020002000002000200020BE200020002000200020000020F59EF500000000000000000000000000000000000000000000
310
0000000000F5F5F5F500F5F5F5F5F5F5F50000009EF5F5F5F5F5F5F5F5BE00F5F5F5F5F5F5F5F5009E0000F5F5F5F5F5F5F500F5F5F5F500000000000000000000000000000000000000000000000000000000000000000000000000000000000000009E00000000009E00000000000000000000000000F5F5202000200000
310
200020002000200000200020002000BE002000200020002000002000209EF5000000000000000000000000000000000000000000000000000000F5F5F5F500F5F5F582F5F5F50000F5F59EF5F5F5F5000000BE00000000F5F5F5F5F59E000000F5F5F582F5F5F5F5F5F5F5F500000000000000000000000000000000000000
310
000000000000000000000000000000000000000000000000009E00000000009E00000000000000000000000000F520F52000200020002000200000200020002000200020BE200000200020002000200020F520F50000000000000000000000000000000000000000000000000000F5F5F5F500F5F5F5F582F5F5F500F5F5F5
310
F59E000000000000BE000000000000F5F59EF5F50000F5F5F582F5F5F5F500F5F5F5F5000000000000000000000000000000000000000000000000000000000000000000000000000000000000009E00000000009E00000000000000000000000000F5F5200020002000200020000020002000200020002000BE0000200020
310
0020002000200020F5F50000000000000000000000000000000000000000000000000000F5F5F5F500F5F5F5F5F5F5F5F500F5F5F5F5009E0000000000BE00000000000000F59EF5F5F500F5F5F5F5F5F5F5F500F5F5F5F5000000000000000000000000000000000000000000000000000000000000000000000000000000
310
000000009E00000000009E00000000000000000000000000F520F520F520F520F520F5F520F520F520F520F520F520BEF520F520F520F520F5002020F5F5F50000000000000000000000000000000000000000000000000000F5F5F5000000F5F5F5F5F5F5F500F5F5F50000009E00F5F5F5BEF5F500000000009EF5F5F5F5
310
00F5F5F5F5F5F5F5000000F5F5F5000000000000000000000000000000000000000000000000000000000000000000000000000000000000009E00000000009E00000000009E9E9E9E9E9E9E9E9E9E20F520F520F520F5F520F520F520F520F520F520F5BE20F520F520F520F5F5202000F520F50000000000000000000000
310
000000000000000000000000000000F5F5F5000000F5F5F5F5F5F500F5F5F5000000009EF5F5F5F5BEF5F5F5F500009E0000F5F5F5F500F5F5F5F5F50000000000F5F5F50000000000000000000000000000000000000000000000000000000000000000000000000000000000009E00000000009E0000000000009E000000
310
000000F5F5F5F5F5F5F5F5F5F5F5F5F5F5F5F5F5F5F5F5F5F5F5BEF5F5F5F5F5F5F5F520F5200020F5F500000000000000000000000000000000000000000000000000F5F5F50000000000820000000000F5F5F500000000F59EF5F5F5BEF5F5F5F5F59E000000F5F5F5F50000000000820000000000F5F5F5000000000000
310
0000000000000000000000000000000000000000000000000000000000000000000000009E00000000009E0000000000009E000000000000F5F5F50000000000000000000000000000000000000000BE00000000000000F5F520F520F520F500000000000000000000000000000000000000000000000000F5F5F500000000
310
82000000000000F5F5F5000000F5F5F59EF5F5BEF5F5F5F59EF5F5000000F5F5F5F500000000820000000000F5F5F50000000000000000000000000000000000000000000000000000000000000000000000000000000000009E00000000009E0000000000009E000000000000F5F5F5000000000000000000000000000000
310
0000000000BE00000000000000F520F520F520F5F500000000000000000000000000000000000000000000000000F5F5F500000000820000000000F5F5F500000000F5F5F5F59EF5BEF5F59E9EF5F5F5F5000000F5F5F500000000820000000000F5F5F5000000000000000000000000000000000000000000000000000000
310
0000000000000000000000000000009E00000000009E0000000000009E000000000000F5F5F50000000000000000000000000000000000000000BE00000000000000F5F5F5F5F5F5F5F500000000000000000000000000000000000000000000000000F5F5F500000000820000000000F5F5F5000000F5F5F5F5F5F59EBEF5
310
F59EF5F5F5F5F5000000F5F5F500000000008200000000F5F5F500000000000000000000000000000000000000000000000000000000000000000000000000000000009E9E000000009E9E0000000000009E000000000000F5F5F50000000000000000000000000000000000000000BE00000000000000F5F5F50000F5F5F5
310
00000000000000000000000000000000000000000000000000F5F5F500000000820000000000F5F5F5000000F5F5F5F5F5F5F59E009EF5F5F5F5F5F5000000F5F5F500000000008200000000F5F5F500000000000000000000000000000000000000000000000000000000000000000000000000000000009E9E000000009E
310
9E000000009E9E9E00000000BEBEBEBEBEBEBEBEBEBEBEBEBEBEBEBEBEBEBEBEBEBEBEBEBEBEBEBEBEBEBEBEBEBEBEBEBEBEBEBEBEBEBE000000000000000000000000000000000000000000BEBEBEBEBEBEBEBEBEBEBEBEBEBEBEBEBEBEBEBEBEBEBEBEBEBEBEBE9E9EBEBEBEBEBEBEBEBEBEBEBEBEBEBEBEBEBEBEBEBEBE
310
BEBEBEBEBEBEBE0000000000000000000000000000000000000000000000000000000000000000000000000000009E9E000000009E9E000000009E9E9E000000000000F5F5F50000000000000000000000000000000000000000BE00000000000000F5F5F50000F5F5F5000000000000000000000000000000000000000000
310
00000000F5F5F500000000820000000000F5F5F5000000F5F5F5F5F5F5009E9E00F5F5F5F5F5F5000000F5F5F500000000008200000000F5F5F500000000000000000000000000000000000000000000000000000000000000000000000000000000009E9E00000000009E0000000000009E000000000000F5F5F500000000
310
00000000000000000000000000000000BE009E9E9E000000F5F5F50000F5F5F500000000000000000000000000000000000000000000000000F5F5F500000000820000000000F5F5F5000000F5F5F5F5F5F59EBE009EF5F5F5F5F5F5000000F5F5F500000000008200000000F5F5F500000000000000000000000000000000
310
00000000000000000000000000000000000000000000000000009E00000000009E0000000000009E000000000000F5F5F50000000000000000000000000000000000000000BE009E9E9E9E0000F5F5F5F5F5F5F5F500000000000000000000000000000000000000000000000000F5F5F500000000820000000000F5F5F500
310
000000F5F5F59E9EF5BEF5F59EF5F5F5F5F5000000F5F5F500000000820000000000F5F5F50000000000000000000000000000000000000000000000000000000000000000000000000000000000009E00000000009E0000000000009E000000000000F5F5F50000000000000000000000000000000000000000BE009E009E
310
009E9EF59EF520F520F5F500000000000000000000000000000000000000000000000000F5F5F500000000820000000000F5F5F500000000F5F59E9EF5F5BEF5F5F59EF5F5F500000000F5F5F500000000820000000000F5F5F500000000000000000000000000000000000000000000000000000000000000000000000000
310
00000000009E00000000009E0000000000009E000000000000F5F5F50000000000000000000000000000000000000000BE0000000000009E9E9E20F520F520F500000000000000000000000000000000000000000000000000F5F5F50000000082000000000000F5F5F500000000F5F5F5F5F5BEF5F5F5F59EF500000000F5
310
F5F50000000000820000000000F5F5F50000000000000000000000000000000000000000000000000000000000000000000000000000000000009E00000000009E0000000000009E000000000000F5F5F5F5F5F5F5F5F5F5F5F5F5F5F5F5F5F5F5F5F5F5F5BEF5F5F5F5F5F59E9E9EF5200020F5F500000000000000000000
310
00000000000000000000000000000000F5F5F5000000008200F5F50000F5F5F50000000000F5F5F5F5BEF5F5F5F59E00000000F5F5F5F50000F5F5F5820000000000F5F5F50000000000000000000000000000000000000000000000000000000000000000000000000000000000009E00000000009E00000000009E9E9E9E
310
9E9E9E9E9E9E9EF520F520F520F5F520F520F520F520F520F520F5BE20F520F520F520F59E200020F520F50000000000000000000000000000000000000000000000000000F5F5F500000000F5F5F5F5F5F500F5F5F50000000000F5F5F5BEF5F5F500009E0000F5F5F5F5F5F5F5F5F5F5F500000000F5F5F5000000000000
310
000000000000000000000000000000000000000000000000000000000000000000000000009E00000000009E00000000000000000000000000F520F520F520F520F520F5F520F520F520F520F520F52020F520F520F520F5209E00200020F5F50000000000000000000000000000000000000000000000000000F5F5F50000
310
00F5F5F5F5F5F5F500F5F5F5F5000000000000F5BEF500000000009EF5F5F5F5F500F5F5F5F5F5F5F5000000F5F5F5000000000000000000000000000000000000000000000000000000000000000000000000000000000000009E00000000009E00000000000000000000000000F5F5200020002000200020000020002000
310
200020002020BE20002000200020009E000020F520F5000000000000000000000000000000000000000000000000000000F5F5F50000F5F5F5F5F5F5F500F5F5F5F5F5000000000000BE000000000000F59EF5F5F50000F5F5F5F5F5F5F5F50000F5F5F5000000000000000000000000000000000000000000000000000000
310
000000000000000000000000000000009E00000000009E00000000000000000000000000F520F520002000202020202020002000200020002020002000200020002000209E20200020F5F5000000000000000000000000000000000000000000000000000000F5F5F500F5F5F5F582F5F5F50000F5F5F5F5F5F500000000BE
310
0000000000F5F5F59EF5000000F5F5F582F5F5F5F500F5F5F500000000000000000000000000000000000000000000000000000000000000000000000000000000000000009E00000000009E00000000000000000000000000F5F5200020002000002000200020002000200020000020BE20002000200020009E00009EF520
310
F500000000000000000000000000000000000000000000000000000000F5F5F5F5F5F5F5F5F5F5F5000000F5F5F5F5F5F5000000BE00000000F5F5F5F5F59E000000F5F5F5F5F5F5F5F5F5F5F5F500000000000000000000000000000000000000000000000000000000000000000000000000000000000000009E00000000
310
009E9E000000000000000000000000F520F520F520F520F5F520F520F520F520F520002000002000200020F520F5209E20F5F59EF5F500000000000000000000000000000000000000000000000000000000F5F5F5F5F5F5F5F5F5F5F500000000F5F5F5F5F5F5F5F5BEF5F5F5F5F5F5F5F5009E000000F5F5F5F5F5F5F5F5
310
F5F5F50000000000000000000000000000000000000000000000000000000000000000000000000000000000000000009E00000000009E9E9E9E9E9E9E9E9E9E9E9E9E9E9E9E20F520F520F520F5F520F520F520F520F520002000BE200020F520F520F59EF520F5F59EF50000000000000000000000000000000000000000
310
0000000000000000F5F5F5F5F5F5F5F5F5F500000000000000F5F5F5F5F5F5BEF5F5F5F5F5F5F50000009E000082F5F5F5F5F500F5F5F5F50000000000000000000000000000000000000000000000000000000000000000000000000000000000000000009E0000000000000000000000000000000000000000F5F5F5F5F5
310
F5F5F5F5F5F5F5F5F5F5F5F520F5200020BE00200020F5F5F5F59EF5F5F5F5F59E9E00000000000000000000000000000000000000000000000000000000F5F5F5F5000000000082000000000000000000F5F5F5BEF5F5F5F5000000000000009E00820000000000F5F5F5F500000000000000000000000000000000000000
310
0000000000000000000000000000000000000000000000000000009E000000000000000000000000000000000000000000000000000000000000000000000000F5F52000200020002000F520F500009E000000000000009E000000000000000000000000000000000000000000000000000000F5F5F5F5F500000000008282
310
00000000000000000000BE0000000000000000000000009E0000000000F5F5F5F5F5000000000000000000000000000000000000000000000000000000000000000000000000000000000000000000009E000000000000000000000000000000000000000000000000000000000000000000000000F520F520F520BE20F520
310
F5F5F500009E00000000000000009E9E9E00000000000000000000000000000000000000000000000000F5F5F5F500000000000000820000000000009EF5F5BEF5F5F50000000000000082829E9E00000000F5F5F5F50000000000000000000000000000000000000000000000000000000000000000000000000000000000
310
0000000000009E000000000000000000000000000000000000000000000000000000000000000000000000F5F520F520F520F520F520F5F500009E00000000000000009E9E9E0000000000000000000000000000000000000000000000000000F5F5F5F500000000000000828200000000F59EF5BEF5F5F5F5000000008282
310
0000009E000000F5F5F5F50000000000000000000000000000000000000000000000000000000000000000000000000000000000000000000000009E000000000000000000000000000000000000000000000000000000000000000000000000F5F5F5F5F5F5BEF5F5F5F5F5F500009E000000000000000000000000000000
310
00000000000000000000000000000000000000000000F5F5F5F5F5000000000000000082828200F5F59EBEF5F5F5F5008282820000000000000000F5F5F5F5F50000000000000000000000000000000000000000000000000000000000000000000000000000000000000000000000009E0000000000000000000000000000
310
0000000000000000000000000000000000000000BEBEBEBEBEBEBEBEBEBEBEBEBEBEBEBEBE9E0000000000000000000000000000000000000000000000000000000000000000000000000000F5F5F5F5F50000000000000000000082F5F5F59E82F5F5F58200000000000000000000F5F5F5F5F50000000000000000000000
310
00000000000000000000000000000000000000000000000000000000000000000000000000009E000000000000000000000000000000000000000000000000000000000000000000000000F5F5F5000000BE000000F5F5F500009E000000000000000000000000000000000000000000000000000000000000000000000000
310
000000F5F5F5F5F500000000000000000000F5F5F5BE9EF5F5F500000000000000000000F5F5F5F5F500000000000000000000000000000000000000000000000000000000000000000000000000000000000000000000000000009E0000000000000000000000000000000000000000000000000000000000000000000000
310
00F5F5F5F5F5F5BEF5F5F5F5F5F500009E00000000000000000000000000000000000000000000000000000000000000000000000000000000F5F5F5F5F5000000000000000000F5F5F5BEF59EF5F5000000000000000000F5F5F5F5F500000000000000000000000000000000000000000000000000000000000000000000
310
00000000000000000000000000000000009E000000000000000000000000000000000000000000000000000000000000000000000000F5F5F520F520BE20F520F5F5F500009E0000000000000000000000000000000000000000000000000000000000000000000000000000000000F5F5F5F5F5F5F5000000000000F5F5F5
310
BEF5F59EF5000000000000F5F5F5F5F5F5F5000000000000000000000000000000000000000000000000000000000000000000000000000000000000000000000000000000009E000000000000000000000000000000000000000000000000000000000000000000000000F520F5F520F520F520F520F5F500009E00000000
310
000000000000000000000000000000000000000000000000000000000000000000000000000000F5F5F5F5F5F5F5F500000000F5F5BEF5F5F59E0000F5F5F5F5F5F5F5F5F50000000000000000000000000000000000000000000000000000000000000000000000000000000000000000000000000000000000009E000000
310
000000000000000000000000000000000000000000000000000000000000000000F5F520000020BE200020F520F500009E000000000000000000000000000000000000000000000000000000000000000000000000000000000000000000F5F5F5F5F5F5F5F5F5F50000BE0000F5F59EF5F5F5F5F5F5F5F500000000000000
310
000000000000000000000000000000000000000000000000000000000000000000000000000000000000000000000000009E9E0000000000000000000000000000000000000000000000000000000000000000000000F520F520F5F520F520F520F5F500009E00000000000000000000000000000000000000000000000000
310
0000000000000000000000000000000000000000000000F5F5F5F5F5F5F5F5F5BEF5F5F5F5F59E9EF5F5F500000000000000000000000000000000000000000000000000000000000000000000000000000000000000000000000000000000000000000000009E9E9E9E9E9E9E9E9E9E9E9E9E9E9E9E9E9E9E9E9E9E9E9E9E
310
9E9E9E9E9E9E9E9E9E9E9E9E9E9E20F520F520F5F520F520F500009E000000000000000000000000000000000000000000000000000000000000000000000000000000000000000000000000000000F5F5F5F5F5F5BEF5F5F5F5F5F5009E000000000000000000000000000000000000000000000000000000000000000000
310
000000000000000000000000000000000000000000000000000000000000000000000000000000000000000000000000000000000000000000000000000000000000F5F5F5F5F5BEF5F5F5F5F50000009E00000000000000000000000000000000000000000000000000000000000000000000000000000000000000000000
310
000000000000000000F5F5BEF5F50000000000009E00000000000000000000000000000000000000000000000000000000000000000000000000000000000000000000000000000000000000000000000000000000000000000000000000000000000000000000000000000000000000000000000000000000000000BE0000
310
0000000000009E000000000000000000000000000000000000000000000000000000000000000000000000000000000000000000000000000000000000000000BE0000000000000000009E9E9E9E00000000000000000000000000000000000000000000000000000000000000000000000000000000000000000000000000
310
00000000000000000000000000000000000000000000000000000000000000000000000000000000000000000000000000009E00000000000000009E000000000000000000000000000000000000000000000000000000000000000000000000000000000000000000000000000000000000000000BE000000000000000000
310
9E9E9E9E0000000000000000000000000000000000000000000000000000000000000000000000000000000000000000000000000000000000000000000000000000000000000000000000000000000000000000000000000000000000000000000000000000009E00000000000000009E0000000000000000000000000000
310
00000000000000000000000000000000000000000000000000000000000000000000000000000000000000000000000000000000009E9E9E9E00000000000000000000000000000000000000000000000000000000000000000000000000000000000000000000000000000000000000000000000000000000000000000000
310
00000000000000000000000000000000000000000000000000000000009E00000000000000009E00000000000000000000000000000000000000000000000000000000000000000000000000000000000000000000000000000000000000000000000000000000000000000000000000000000000000000000000000000000
310
000000000000000000000000000000000000000000000000000000000000000000000000000000000000000000000000000000000000000000000000000000000000000000000000000000000000000000009E00000000000000009E0000000000000000000000000000000000000000000000000000000000000000000000
310
00000000000000000000000000000000000000000000000000000000000000000000000000000000000000000000000000000000000000000000000000000000000000000000000000000000000000000000000000000000000000000000000000000000000000000000000000000000000000000000000000000000000000
310
00000000000000009E9E9E9E9E9E9E9E9E9E00000000000000000000000000000000000000000000000000000000000000000000000000000000000000000000000000000000000000000000000000000000000000000000000000000000000000000000000000000000000000000000000000000000000000000000000000
310
000000000000000000000000000000000000000000000000000000000000000000000000000000000000000000000000000000000000000000000000009E00009E9E9E0000009E0000000000000000000000000000000000000000000000000000000000000000000000000000000000000000000000000000000000000000
310
000000000000000000000000000000000000000000000000000000000000000000000000000000000000000000000000000000000000000000000000000000000000000000000000000000000000000000000000000000000000000000000000000000000000000000000000000000000000000000009E9E00000000000000
310
00000000000000000000000000000000000000000000000000000000000000000000000000000000000000000000000000000000000000000000000000000000000000000000000000000000000000000000000000000000000000000000000000000000000000000000000000000000000000000000000000000000000000
310
00000000000000000000000000000000000000000000000000000000000000000000000000000000000000000000000000000000000000000000000000000000000000000000000000000000000000000000000000000000000000000000000000000000000000000000000000000000000000000000000000000000000000
310
00000000000000000000000000000000000000000000000000000000000000000000000000000000000000000000000000000000000000000000000000000000000000000000000000000000000000000000000000000000000000000000000000000000000000000000000000000000000000000000000000000000000000
310
00000000000000000000000000000000000000000000000000000000000000000000000000000000000000000000000000000000000000000000000000000000000000000000000000000000000000000000000000000000000000000000000000000000000000000000000000000000000000000000000000000000000000
310
00000000000000000000000000000000000000000000000000000000000000000000000000000000000000000000000000000000000000000000000000000000000000000000000000000000000000000000000000000000000000000000000000000000000000000000000000000000000000000000000000000000000000
310
00000000000000000000000000000000000000000000000000000000000000000000000000000000000000000000000000000000000000000000000000000000000000000000000000000000000000000000000000000000000000000000000000000000000000000000000000000000000000000000000000000000000000
310
00000000000000000000000000000000000000000000000000000000000000000000000000000000000000000000000000000000000000000000000000000000000000000000000000000000000000000000000000000000000000000000000000000000000000000000000000000000000000000000000000000000000000
310
00000000000000000000000000000000000000000000000000000000000000000000000000000000000000000000000000000000000000000000000000000000000000000000000000000000000000000000000000000000000000000000000000000000000000000000000000000000000000000000000000000000000000
310
00000000000000000000000000000000000000000000000000000000000000000000000000000000000000000000000000000000000000000000000000000000000000000000000000000000000000000000000000000000000000000000000000000000000000000000000000000000000000000000000000000000000000
310
00000000000000000000000000000000000000000000000000000000000000000000000000000000000000000000000000000000000000000000000000000000000000000000000000000000000000000000000000000000000000000000000000000000000000000000000000000000000000000000000000000000000000
310
00000000000000000000000000000000000000000000000000000000000000000000000000000000000000000000000000000000000000000000000000000000000000000000000000000000000000000000000000000000000000000000000000000000000000000000000000000000000000000000000000000000000000
310
00000000000000000000000000000000000000000000000000000000000000000000000000000000000000000000000000000000000000000000000000000000000000000000000000000000000000000000000000000000000000000000000000000000000000000000000000000000000000000000000000000000000000
310
00000000000000000000000000000000000000000000000000000000000000000000000000000000000000000000000000000000000000000000000000000000000000000000000000000000000000000000000000000000000000000000000000000000000000000000000000000000000000000000000000000000000000
310
00000000000000000000000000000000000000000000000000000000000000000000000000000000000000000000000000000000000000000000000000000000000000000000000000000000000000000000000000000000000000000000000000000000000000000000000000000000000000000000000000000000000000
310
00000000000000000000000000000000000000000000000000000000000000000000000000000000000000000000000000000000000000000000000000000000000000000000000000000000000000000000000000000000000000000000000000000000000000000000000000000000000000000000000000000000000000
310
00000000000000000000000000000000000000000000000000000000000000000000000000000000000000000000000000000000000000000000000000000000000000000000000000000000000000000000000000000000000000000000000000000000000000000000000000000000000000000000000000000000000000
310
00000000000000000000000000000000000000000000000000000000000000000000000000000000000000000000000000000000000000000000000000000000000000000000000000000000000000000000000000000000000000000000000000000000000000000000000000000000000000000000000000000000000000
310
00000000000000000000000000000000000000000000000000000000000000000000000000000000000000000000000000000000000000000000000000000000000000000000000000000000000000000000000000000000000000000000000000000000000000000000000000000000000000000000000000000000000000
310
00000000000000000000000000000000000000000000000000000000000000000000000000000000000000000000000000000000000000000000000000000000000000000000000000000000000000000000000000000000000000000000000000000000000000000000000000000000000000000000000000000000000000
310
00000000000000000000000000000000000000000000000000000000000000000000000000000000000000000000000000000000000000000000000000000000000000000000000000000000000000000000000000000000000000000000000000000000000000000000000000000000000000000000000000000000000000
310
00000000000000000000000000000000000000000000000000000000000000000000000000000000000000000000000000000000000000000000000000000000000000000000000000000000000000000000000000
  0
ENDSEC
  0
EOF
