999
LibreDWG 
  0
SECTION
  2
HEADER
  9
$ACADVER
  1
AC1015
  9
$ACADMAINTVER
 70
    13
  9
$DWGCODEPAGE
  3
ANSI_936
  9
$INSBASE
 10
0.0
 20
0.0
 30
0.0
  9
$EXTMIN
 10
-6.053770287868383
 20
60.21047522026251
 30
0.0
  9
$EXTMAX
 10
370.9767240925817
 20
253.2066663466623
 30
0.0
  9
$LIMMIN
 10
0.0
 20
0.0
  9
$LIMMAX
 10
300.0
 20
240.0
  9
$ORTHOMODE
 70
     0
  9
$REGENMODE
 70
     1
  9
$FILLMODE
 70
     1
  9
$QTEXTMODE
 70
     0
  9
$MIRRTEXT
 70
     1
  9
$LTSCALE
 40
1.0
  9
$ATTMODE
 70
     1
  9
$TEXTSIZE
 40
2.5
  9
$TRACEWID
 40
1.0
  9
$TEXTSTYLE
  7
数字与字母
  9
$CLAYER
  8
文本层
  9
$CELTYPE
  6
ByLayer
  9
$CECOLOR
 62
   256
  9
$CELTSCALE
 40
1.0
  9
$DISPSILH
 70
     0
  9
$DIMSCALE
 40
1.0
  9
$DIMASZ
 40
3.5
  9
$DIMEXO
 40
0.0
  9
$DIMDLI
 40
7.5
  9
$DIMRND
 40
0.0
  9
$DIMDLE
 40
0.0
  9
$DIMEXE
 40
2.5
  9
$DIMTP
 40
0.0
  9
$DIMTM
 40
0.0
  9
$DIMTXT
 40
5.0
  9
$DIMCEN
 40
-3.0
  9
$DIMTSZ
 40
0.0
  9
$DIMTOL
 70
     0
  9
$DIMLIM
 70
     0
  9
$DIMTIH
 70
     0
  9
$DIMTOH
 70
     1
  9
$DIMSE1
 70
     0
  9
$DIMSE2
 70
     0
  9
$DIMTAD
 70
     1
  9
$DIMZIN
 70
     8
  9
$DIMBLK
  1

  9
$DIMASO
 70
     1
  9
$DIMSHO
 70
     1
  9
$DIMPOST
  1

  9
$DIMAPOST
  1

  9
$DIMALT
 70
     0
  9
$DIMALTD
 70
     3
  9
$DIMALTF
 40
0.03937007874016
  9
$DIMLFAC
 40
1.0
  9
$DIMTOFL
 70
     1
  9
$DIMTVP
 40
0.0
  9
$DIMTIX
 70
     0
  9
$DIMSOXD
 70
     0
  9
$DIMSAH
 70
     0
  9
$DIMBLK1
  1

  9
$DIMBLK2
  1

  9
$DIMSTYLE
  2
机械标注
  9
$DIMCLRD
 70
     0
  9
$DIMCLRE
 70
     0
  9
$DIMCLRT
 70
     0
  9
$DIMTFAC
 40
1.0
  9
$DIMGAP
 40
0.625
  9
$DIMJUST
 70
     0
  9
$DIMSD1
 70
     0
  9
$DIMSD2
 70
     0
  9
$DIMTOLJ
 70
     0
  9
$DIMTZIN
 70
     8
  9
$DIMALTZ
 70
     0
  9
$DIMALTTZ
 70
     0
  9
$DIMUPT
 70
     0
  9
$DIMDEC
 70
     1
  9
$DIMTDEC
 70
     1
  9
$DIMALTU
 70
     2
  9
$DIMALTTD
 70
     3
  9
$DIMTXSTY
  7
数字与字母
  9
$DIMAUNIT
 70
     0
  9
$DIMADEC
 70
     0
  9
$DIMALTRND
 40
0.0
  9
$DIMAZIN
 70
     0
  9
$DIMDSEP
 70
    46
  9
$DIMATFIT
 70
     3
  9
$DIMFRAC
 70
     0
  9
$DIMLDRBLK
  1

  9
$DIMLUNIT
 70
     2
  9
$DIMLWD
 70
    -2
  9
$DIMLWE
 70
    -2
  9
$DIMTMOVE
 70
     0
  9
$LUNITS
 70
     2
  9
$LUPREC
 70
     1
  9
$AXISMODE
 70
     0
  9
$AXISUNIT
 10
0.0
 20
0.0
  9
$SKETCHINC
 40
1.0
  9
$FILLETRAD
 40
10.0
  9
$AUNITS
 70
     0
  9
$AUPREC
 70
     1
  9
$MENU
  1
.
  9
$ELEVATION
 40
0.0
  9
$PELEVATION
 40
0.0
  9
$THICKNESS
 40
0.0
  9
$LIMCHECK
 70
     0
  9
$CHAMFERA
 40
10.0
  9
$CHAMFERB
 40
10.0
  9
$CHAMFERC
 40
20.0
  9
$CHAMFERD
 40
0.0
  9
$SKPOLY
 70
     0
  9
$TDCREATE
 40
2451911.603956590
  9
$TDUCREATE
 40
2451911.315956590
  9
$TDUPDATE
 40
2453619.340013150
  9
$TDUUPDATE
 40
2453619.052013150
  9
$TDINDWG
 40
0.040063610
  9
$TDUSRTIMER
 40
0.040063610
  9
$USRTIMER
 70
     1
  9
$ANGBASE
 50
0.0
  9
$ANGDIR
 70
     0
  9
$PDMODE
 70
     0
  9
$PDSIZE
 40
0.0
  9
$PLINEWID
 40
0.0
  9
$SPLFRAME
 70
     0
  9
$SPLINETYPE
 70
     6
  9
$SPLINESEGS
 70
     8
  9
$HANDSEED
  5
28C
  9
$SURFTAB1
 70
     6
  9
$SURFTAB2
 70
     6
  9
$SURFTYPE
 70
     6
  9
$SURFU
 70
     6
  9
$SURFV
 70
     6
  9
$UCSBASE
  2

  9
$UCSNAME
  2

  9
$UCSORG
 10
0.0
 20
0.0
 30
0.0
  9
$UCSXDIR
 10
1.0
 20
0.0
 30
0.0
  9
$UCSYDIR
 10
0.0
 20
1.0
 30
0.0
  9
$UCSORTHOREF
  2

  9
$UCSORTHOVIEW
 70
     0
  9
$UCSORGTOP
 10
0.0
 20
0.0
 30
0.0
  9
$UCSORGBOTTOM
 10
0.0
 20
0.0
 30
0.0
  9
$UCSORGLEFT
 10
0.0
 20
0.0
 30
0.0
  9
$UCSORGRIGHT
 10
0.0
 20
0.0
 30
0.0
  9
$UCSORGFRONT
 10
0.0
 20
0.0
 30
0.0
  9
$UCSORGBACK
 10
0.0
 20
0.0
 30
0.0
  9
$PUCSBASE
  2

  9
$PUCSNAME
  2

  9
$PUCSORG
 10
0.0
 20
0.0
 30
0.0
  9
$PUCSXDIR
 10
1.0
 20
0.0
 30
0.0
  9
$PUCSYDIR
 10
0.0
 20
1.0
 30
0.0
  9
$PUCSORTHOREF
  2

  9
$PUCSORTHOVIEW
 70
     0
  9
$PUCSORGTOP
 10
0.0
 20
0.0
 30
0.0
  9
$PUCSORGBOTTOM
 10
0.0
 20
0.0
 30
0.0
  9
$PUCSORGLEFT
 10
0.0
 20
0.0
 30
0.0
  9
$PUCSORGRIGHT
 10
0.0
 20
0.0
 30
0.0
  9
$PUCSORGFRONT
 10
0.0
 20
0.0
 30
0.0
  9
$PUCSORGBACK
 10
0.0
 20
0.0
 30
0.0
  9
$USERI1
 70
     0
  9
$USERI2
 70
     0
  9
$USERI3
 70
     0
  9
$USERI4
 70
     0
  9
$USERI5
 70
     0
  9
$USERR1
 40
0.0
  9
$USERR2
 40
0.0
  9
$USERR3
 40
0.0
  9
$USERR4
 40
0.0
  9
$USERR5
 40
0.0
  9
$WORLDVIEW
 70
     1
  9
$SHADEDGE
 70
     3
  9
$SHADEDIF
 70
    70
  9
$TILEMODE
 70
     1
  9
$MAXACTVP
 70
    64
  9
$PINSBASE
 10
0.0
 20
0.0
 30
0.0
  9
$PLIMCHECK
 70
     0
  9
$PEXTMIN
 10
26.66999878883362
 20
20.31999878883363
 30
0.0
  9
$PEXTMAX
 10
240.0299890995026
 20
182.8799890995026
 30
0.0
  9
$PLIMMIN
 10
-6.350006103515625
 20
-6.349999904632568
  9
$PLIMMAX
 10
273.0499877929688
 20
209.5499939918518
  9
$UNITMODE
 70
     0
  9
$VISRETAIN
 70
     1
  9
$PLINEGEN
 70
     0
  9
$PSLTSCALE
 70
     1
  9
$TREEDEPTH
 70
  3020
  9
$CMLSTYLE
  2
Standard
  9
$CMLJUST
 70
     0
  9
$CMLSCALE
 40
20.0
  9
$PROXYGRAPHICS
 70
     1
  9
$MEASUREMENT
 70
     1
  9
$CELWEIGHT
370
    -1
  9
$ENDCAPS
280
     0
  9
$JOINSTYLE
280
     0
  9
$LWDISPLAY
290
     1
  9
$INSUNITS
 70
     4
  9
$HYPERLINKBASE
  1

  9
$STYLESHEET
  1

  9
$XEDIT
290
     1
  9
$CEPSNTYPE
380
     0
  9
$PSTYLEMODE
290
     0
  9
$FINGERPRINTGUID
  2
{35BD88C3-9548-11D2-9A29-0060089B3A3F}
  9
$VERSIONGUID
  2
{4240ADC9-3185-4736-B96C-7171D2CC9EDD}
  9
$EXTNAMES
290
     1
  9
$PSVPSCALE
 40
0.0
  9
$OLESTARTUP
290
     0
  0
ENDSEC
  0
SECTION
  2
CLASSES
  0
CLASS
  1
ACDBDICTIONARYWDFLT
  2
AcDbDictionaryWithDefault
  3
AutoCAD 2000
 90
        0
280
     0
281
     0
  0
CLASS
  1
ACDBPLACEHOLDER
  2
AcDbPlaceHolder
  3
AutoCAD 2000
 90
        0
280
     0
281
     0
  0
CLASS
  1
LAYOUT
  2
AcDbLayout
  3
AutoCAD 2000
 90
        0
280
     0
281
     0
  0
CLASS
  1
DICTIONARYVAR
  2
AcDbDictionaryVar
  3
AutoCAD 2000
 90
        0
280
     0
281
     0
  0
CLASS
  1
DIMASSOC
  2
AcDbDimAssoc
  3
"AcDbDimAssoc|Product Desc:     AcDim ARX App For Dimension|Company:          Autodesk, Inc.|WEB Address:      www.autodesk.com"
 90
        0
280
     0
281
     0
  0
ENDSEC
  0
SECTION
  2
TABLES
  0
TABLE
  2
VPORT
  5
8
330
0
100
AcDbSymbolTable
 70
     1
  0
VPORT
  5
28B
330
8
100
AcDbSymbolTableRecord
100
AcDbViewportTableRecord
  2
*Active
 70
     0
 10
0.0
 20
0.0
 11
1.0
 21
1.0
 12
113.862580992315
 22
160.9137091370487
 13
0.0
 23
0.0
 14
10.0
 24
10.0
 15
10.0
 25
10.0
 16
0.0
 26
0.0
 36
1.0
 17
0.0
 27
0.0
 37
0.0
 40
217.5330668451404
 41
1.841563786008231
 42
50.0
 43
0.0
 44
0.0
 50
0.0
 51
0.0
 71
     0
 72
   100
 73
     1
 74
     3
 75
     0
 76
     0
 77
     0
 78
     0
281
     0
 65
     1
110
0.0
120
0.0
130
0.0
111
1.0
121
0.0
131
0.0
112
0.0
122
1.0
132
0.0
 79
     0
146
0.0
  0
ENDTAB
  0
TABLE
  2
LTYPE
  5
5
330
0
100
AcDbSymbolTable
 70
     4
  0
LTYPE
  5
14
330
5
100
AcDbSymbolTableRecord
100
AcDbLinetypeTableRecord
  2
ByBlock
 70
     0
  3

 72
    65
 73
     0
 40
0.0
  0
LTYPE
  5
15
330
5
100
AcDbSymbolTableRecord
100
AcDbLinetypeTableRecord
  2
ByLayer
 70
     0
  3

 72
    65
 73
     0
 40
0.0
  0
LTYPE
  5
16
330
5
100
AcDbSymbolTableRecord
100
AcDbLinetypeTableRecord
  2
Continuous
 70
     0
  3
Solid line
 72
    65
 73
     0
 40
0.0
  0
LTYPE
  5
91
330
5
100
AcDbSymbolTableRecord
100
AcDbLinetypeTableRecord
  2
ACAD_ISO08W100
 70
     0
  3
ISO long-dash short-dash ____ __ ____ __ ____ _
 72
    65
 73
     4
 40
36.0
 49
24.0
 74
     0
 49
-3.0
 74
     0
 49
6.0
 74
     0
 49
-3.0
 74
     0
  0
LTYPE
  5
92
330
5
100
AcDbSymbolTableRecord
100
AcDbLinetypeTableRecord
  2
ACAD_ISO09W100
 70
     0
  3
ISO long-dash double-short-dash ____ __ __ ____
 72
    65
 73
     6
 40
45.0
 49
24.0
 74
     0
 49
-3.0
 74
     0
 49
6.0
 74
     0
 49
-3.0
 74
     0
 49
6.0
 74
     0
 49
-3.0
 74
     0
  0
LTYPE
  5
93
330
5
100
AcDbSymbolTableRecord
100
AcDbLinetypeTableRecord
  2
ACAD_ISO02W100
 70
     0
  3
ISO dash __ __ __ __ __ __ __ __ __ __ __ __ __
 72
    65
 73
     2
 40
15.0
 49
12.0
 74
     0
 49
-3.0
 74
     0
  0
ENDTAB
  0
TABLE
  2
LAYER
  5
2
330
0
100
AcDbSymbolTable
 70
    11
  0
LAYER
  5
10
330
2
100
AcDbSymbolTableRecord
100
AcDbLayerTableRecord
  2
0
 70
     0
 62
    -7
  6
Continuous
370
    -3
390
F
  0
LAYER
  5
94
330
2
100
AcDbSymbolTableRecord
100
AcDbLayerTableRecord
  2
轮廓线
 70
     0
 62
    -7
  6
Continuous
370
    35
390
F
  0
LAYER
  5
95
330
2
100
AcDbSymbolTableRecord
100
AcDbLayerTableRecord
  2
点划线
 70
     0
 62
    -1
  6
ACAD_ISO08W100
370
    13
390
F
  0
LAYER
  5
96
330
2
100
AcDbSymbolTableRecord
100
AcDbLayerTableRecord
  2
双点划线
 70
     0
 62
    -3
  6
ACAD_ISO09W100
370
    -3
390
F
  0
LAYER
  5
97
330
2
100
AcDbSymbolTableRecord
100
AcDbLayerTableRecord
  2
隐藏线
 70
     0
 62
   -44
  6
ACAD_ISO02W100
370
    13
390
F
  0
LAYER
  5
98
330
2
100
AcDbSymbolTableRecord
100
AcDbLayerTableRecord
  2
剖面线
 70
     0
 62
  -142
  6
Continuous
370
    13
390
F
  0
LAYER
  5
99
330
2
100
AcDbSymbolTableRecord
100
AcDbLayerTableRecord
  2
波浪线
 70
     0
 62
    -7
  6
Continuous
370
    13
390
F
  0
LAYER
  5
9A
330
2
100
AcDbSymbolTableRecord
100
AcDbLayerTableRecord
  2
尺寸层
 70
     0
 62
    -5
  6
Continuous
370
    13
390
F
  0
LAYER
  5
9B
330
2
100
AcDbSymbolTableRecord
100
AcDbLayerTableRecord
  2
文本层
 70
     0
 62
  -212
  6
Continuous
370
    13
390
F
  0
LAYER
  5
9C
330
2
100
AcDbSymbolTableRecord
100
AcDbLayerTableRecord
  2
其它层
 70
     0
 62
    -7
  6
Continuous
370
    -3
390
F
  0
LAYER
  5
14C
330
2
100
AcDbSymbolTableRecord
100
AcDbLayerTableRecord
  2
Defpoints
 70
     0
 62
    -7
  6
Continuous
290
     0
370
    -3
390
F
  0
ENDTAB
  0
TABLE
  2
STYLE
  5
3
330
0
100
AcDbSymbolTable
 70
     4
  0
STYLE
  5
11
330
3
100
AcDbSymbolTableRecord
100
AcDbTextStyleTableRecord
  2
Standard
 70
     0
 40
0.0
 41
1.0
 50
0.0
 71
     0
 42
2.5
  3
txt
  4

  0
STYLE
  5
90
330
3
100
AcDbSymbolTableRecord
100
AcDbTextStyleTableRecord
  2

 70
     1
 40
0.0
 41
1.0
 50
0.0
 71
     0
 42
2.5
  3
ltypeshp.shx
  4

  0
STYLE
  5
9D
330
3
100
AcDbSymbolTableRecord
100
AcDbTextStyleTableRecord
  2
汉字
 70
     0
 40
0.0
 41
0.7
 50
0.0
 71
     0
 42
2.5
  3
SIMFANG.TTF
  4

1001
ACAD
1000
FangSong_GB2312
1071
    34353
  0
STYLE
  5
9F
330
3
100
AcDbSymbolTableRecord
100
AcDbTextStyleTableRecord
  2
数字与字母
 70
     0
 40
0.0
 41
0.7
 50
0.0
 71
     0
 42
2.5
  3
romant.shx
  4

  0
ENDTAB
  0
TABLE
  2
VIEW
  5
6
330
0
100
AcDbSymbolTable
 70
     0
  0
ENDTAB
  0
TABLE
  2
UCS
  5
7
330
0
100
AcDbSymbolTable
 70
     0
  0
ENDTAB
  0
TABLE
  2
APPID
  5
9
330
0
100
AcDbSymbolTable
 70
     1
  0
APPID
  5
12
330
9
100
AcDbSymbolTableRecord
100
AcDbRegAppTableRecord
  2
ACAD
 70
     0
  0
ENDTAB
  0
TABLE
  2
DIMSTYLE
  5
A
330
0
100
AcDbSymbolTable
 70
     3
100
AcDbDimStyleTable
 71
     2
340
A1
340
27
  0
DIMSTYLE
105
27
330
A
100
AcDbSymbolTableRecord
100
AcDbDimStyleTableRecord
  2
ISO-25
 70
     0
 41
2.5
 42
0.625
 43
3.75
 44
1.25
 73
     0
 74
     0
 77
     1
 78
     8
140
2.5
141
2.5
143
0.03937007874016
144
1.0
146
1.0
147
0.625
171
     3
172
     1
176
     0
177
     0
178
     0
271
     2
272
     2
273
     2
274
     3
277
     2
278
    44
283
     0
284
     8
289
     3
340
11
371
    -2
372
    -2
341
0
342
0
343
0
344
0
  0
DIMSTYLE
105
A1
102
{ACAD_REACTORS
330
14B
330
164
330
17C
330
194
330
1AC
330
1C4
330
1DC
330
1F4
330
20C
330
224
330
24C
330
260
330
274
102
}
330
A
100
AcDbSymbolTableRecord
100
AcDbDimStyleTableRecord
  2
机械标注
 70
     0
 41
3.5
 43
7.5
 44
2.5
 73
     0
 74
     1
 77
     1
 78
     8
140
5.0
141
-3.0
143
0.03937007874016
144
1.0
146
1.0
147
0.625
171
     3
172
     1
176
     0
177
     0
178
     0
271
     1
272
     1
273
     2
274
     3
277
     2
278
    46
283
     0
284
     8
289
     3
340
9F
371
    -2
372
    -2
341
0
342
0
343
0
344
0
  0
DIMSTYLE
105
A2
330
A
100
AcDbSymbolTableRecord
100
AcDbDimStyleTableRecord
  2
机械标注$2
 70
     0
 41
3.5
 43
7.5
 44
2.5
 73
     1
 74
     1
 77
     1
 78
     8
140
5.0
141
-3.0
143
0.03937007874016
144
1.0
146
1.0
147
0.625
171
     3
172
     1
176
     0
177
     0
178
     0
271
     1
272
     1
273
     2
274
     3
277
     2
278
    46
283
     0
284
     8
289
     3
340
9F
371
    -2
372
    -2
341
0
342
0
343
0
344
0
  0
ENDTAB
  0
TABLE
  2
BLOCK_RECORD
  5
1
330
0
100
AcDbSymbolTable
 70
    15
  0
BLOCK_RECORD
  5
1F
330
1
100
AcDbSymbolTableRecord
100
AcDbBlockTableRecord
  2
*Model_Space
340
22
  0
BLOCK_RECORD
  5
5E
330
1
100
AcDbSymbolTableRecord
100
AcDbBlockTableRecord
  2
*Paper_Space
340
5F
  0
BLOCK_RECORD
  5
59
330
1
100
AcDbSymbolTableRecord
100
AcDbBlockTableRecord
  2
*Paper_Space0
340
5A
  0
BLOCK_RECORD
  5
14D
330
1
100
AcDbSymbolTableRecord
100
AcDbBlockTableRecord
  2
*D1
340
0
  0
BLOCK_RECORD
  5
165
330
1
100
AcDbSymbolTableRecord
100
AcDbBlockTableRecord
  2
*D2
340
0
  0
BLOCK_RECORD
  5
17D
330
1
100
AcDbSymbolTableRecord
100
AcDbBlockTableRecord
  2
*D3
340
0
  0
BLOCK_RECORD
  5
195
330
1
100
AcDbSymbolTableRecord
100
AcDbBlockTableRecord
  2
*D4
340
0
  0
BLOCK_RECORD
  5
1AD
330
1
100
AcDbSymbolTableRecord
100
AcDbBlockTableRecord
  2
*D5
340
0
  0
BLOCK_RECORD
  5
1C5
330
1
100
AcDbSymbolTableRecord
100
AcDbBlockTableRecord
  2
*D6
340
0
  0
BLOCK_RECORD
  5
1DD
330
1
100
AcDbSymbolTableRecord
100
AcDbBlockTableRecord
  2
*D7
340
0
  0
BLOCK_RECORD
  5
1F5
330
1
100
AcDbSymbolTableRecord
100
AcDbBlockTableRecord
  2
*D8
340
0
  0
BLOCK_RECORD
  5
20D
330
1
100
AcDbSymbolTableRecord
100
AcDbBlockTableRecord
  2
*D9
340
0
  0
BLOCK_RECORD
  5
225
330
1
100
AcDbSymbolTableRecord
100
AcDbBlockTableRecord
  2
*D10
340
0
  0
BLOCK_RECORD
  5
239
330
1
100
AcDbSymbolTableRecord
100
AcDbBlockTableRecord
  2
*D11
340
0
  0
BLOCK_RECORD
  5
24D
330
1
100
AcDbSymbolTableRecord
100
AcDbBlockTableRecord
  2
*D12
340
0
  0
BLOCK_RECORD
  5
261
330
1
100
AcDbSymbolTableRecord
100
AcDbBlockTableRecord
  2
*D13
340
0
  0
BLOCK_RECORD
  5
275
330
1
100
AcDbSymbolTableRecord
100
AcDbBlockTableRecord
  2
*D14
340
0
  0
ENDTAB
  0
ENDSEC
  0
SECTION
  2
BLOCKS
  0
BLOCK
  5
20
330
1F
100
AcDbEntity
  8
0
100
AcDbBlockBegin
  2
*Model_Space
 70
     0
 10
0.0
 20
0.0
 30
0.0
  3
*Model_Space
  1

  0
ENDBLK
  5
21
330
1F
100
AcDbEntity
  8
0
100
AcDbBlockEnd
  0
BLOCK
  5
5B
330
59
100
AcDbEntity
  8
0
100
AcDbBlockBegin
  2
*Paper_Space0
 70
     0
 10
0.0
 20
0.0
 30
0.0
  3
*Paper_Space0
  1

  0
VIEWPORT
  5
74
330
59
100
AcDbEntity
  8
0
100
AcDbViewport
 10
133.3499908447266
 20
101.5999970436096
 30
0.0
 40
402.4920940625619
 41
218.5599527535252
 68
     0
 69
     0
 12
133.3499908447266
 22
101.5999970436096
 13
0.0
 23
0.0
 14
0.5
 24
0.5
 15
0.5
 25
0.5
 16
0.0
 26
0.0
 36
1.0
 17
0.0
 27
0.0
 37
0.0
 42
50.0
 43
0.0
 44
0.0
 45
218.5599527535252
 50
0.0
 51
0.0
 72
   100
 90
    32800
  1

281
     0
 71
     1
 74
     0
110
0.0
120
0.0
130
0.0
111
1.0
121
0.0
131
0.0
112
0.0
122
1.0
132
0.0
 79
     0
146
0.0
348
0
340
0
345
0
346
0
  0
VIEWPORT
  5
76
330
59
100
AcDbEntity
  8
0
100
AcDbViewport
 10
133.3499939441681
 20
101.5999939441681
 30
0.0
 40
213.3599903106689
 41
162.5599903106689
 68
     0
 69
     0
 12
126.5770243485717
 22
140.7961251828795
 13
0.0
 23
0.0
 14
10.0
 24
10.0
 15
10.0
 25
10.0
 16
0.0
 26
0.0
 36
1.0
 17
0.0
 27
0.0
 37
0.0
 42
50.0
 43
0.0
 44
0.0
 45
235.1539567663267
 50
0.0
 51
0.0
 72
   100
 90
    32864
  1

281
     0
 71
     1
 74
     0
110
0.0
120
0.0
130
0.0
111
1.0
121
0.0
131
0.0
112
0.0
122
1.0
132
0.0
 79
     0
146
0.0
348
0
340
0
345
0
346
0
  0
ENDBLK
  5
5C
330
59
100
AcDbEntity
  8
0
100
AcDbBlockEnd
  0
BLOCK
  5
60
330
5E
100
AcDbEntity
 67
     1
  8
0
100
AcDbBlockBegin
  2
*Paper_Space
 70
     0
 10
0.0
 20
0.0
 30
0.0
  3
*Paper_Space
  1

  0
ENDBLK
  5
61
330
5E
100
AcDbEntity
 67
     1
  8
0
100
AcDbBlockEnd
  0
BLOCK
  5
157
330
14D
100
AcDbEntity
  8
0
100
AcDbBlockBegin
  2
*D1
 70
     1
 10
0.0
 20
0.0
 30
0.0
  3
*D1
  1

  0
LINE
  5
15A
330
14D
100
AcDbEntity
  8
文本层
370
    -2
 62
     0
100
AcDbLine
 10
28.24374044376077
 20
178.1428972771652
 30
0.0
 11
10.27018522008166
 21
178.1428972771652
 31
0.0
  0
LINE
  5
15B
330
14D
100
AcDbEntity
  8
文本层
370
    -2
 62
     0
100
AcDbLine
 10
28.24374044376076
 20
136.1428972771652
 30
0.0
 11
10.27018522008166
 21
136.1428972771652
 31
0.0
  0
LINE
  5
15C
330
14D
100
AcDbEntity
  8
文本层
370
    -2
 62
     0
100
AcDbLine
 10
12.77018522008166
 20
174.6428972771652
 30
0.0
 11
12.77018522008166
 21
139.6428972771652
 31
0.0
  0
SOLID
  5
15D
330
14D
100
AcDbEntity
  8
文本层
 62
     0
100
AcDbTrace
 38
0.0
 10
12.18685188674833
 20
174.6428972771652
 11
13.353518553415
 21
174.6428972771652
 12
12.77018522008166
 22
178.1428972771652
 13
12.77018522008166
 23
178.1428972771652
  0
SOLID
  5
15E
330
14D
100
AcDbEntity
  8
文本层
 62
     0
100
AcDbTrace
 38
0.0
 10
12.18685188674832
 20
139.6428972771652
 11
13.35351855341499
 21
139.6428972771652
 12
12.77018522008166
 22
136.1428972771652
 13
12.77018522008166
 23
136.1428972771652
  0
MTEXT
  5
15F
330
14D
100
AcDbEntity
  8
文本层
 62
     0
100
AcDbMText
 10
9.645185220081634
 20
157.1428972771652
 30
0.0
210
0.0
220
0.0
230
1.0
 11
6.123031769111886E-17
 21
1.0
 31
0.0
 40
5.0
 41
0.0
 71
     5
 72
     1
  1
42
  7
数字与字母
 73
     1
 44
1.0
  0
POINT
  5
160
330
14D
100
AcDbEntity
  8
Defpoints
 62
     0
100
AcDbPoint
 10
28.24374044376077
 20
178.1428972771652
 30
0.0
 50
0.0
  0
POINT
  5
161
330
14D
100
AcDbEntity
  8
Defpoints
 62
     0
100
AcDbPoint
 10
28.24374044376076
 20
136.1428972771652
 30
0.0
 50
0.0
  0
POINT
  5
162
330
14D
100
AcDbEntity
  8
Defpoints
 62
     0
100
AcDbPoint
 10
12.77018522008166
 20
136.1428972771652
 30
0.0
 50
0.0
  0
ENDBLK
  5
158
330
14D
100
AcDbEntity
  8
0
100
AcDbBlockEnd
  0
BLOCK
  5
16F
330
165
100
AcDbEntity
  8
0
100
AcDbBlockBegin
  2
*D2
 70
     1
 10
0.0
 20
0.0
 30
0.0
  3
*D2
  1

  0
LINE
  5
172
330
165
100
AcDbEntity
  8
文本层
370
    -2
 62
     0
100
AcDbLine
 10
59.74374044376077
 20
208.1428972771652
 30
0.0
 11
-2.928770287868343
 21
208.1428972771652
 31
0.0
  0
LINE
  5
173
330
165
100
AcDbEntity
  8
文本层
370
    -2
 62
     0
100
AcDbLine
 10
59.74374044376077
 20
106.1428972771652
 30
0.0
 11
-2.928770287868365
 21
106.1428972771652
 31
0.0
  0
LINE
  5
174
330
165
100
AcDbEntity
  8
文本层
370
    -2
 62
     0
100
AcDbLine
 10
-0.4287702878683451
 20
204.6428972771652
 30
0.0
 11
-0.4287702878683662
 21
109.6428972771652
 31
0.0
  0
SOLID
  5
175
330
165
100
AcDbEntity
  8
文本层
 62
     0
100
AcDbTrace
 38
0.0
 10
-1.012103621201678
 20
204.6428972771652
 11
0.1545630454649881
 21
204.6428972771652
 12
-0.4287702878683444
 22
208.1428972771652
 13
-0.4287702878683444
 23
208.1428972771652
  0
SOLID
  5
176
330
165
100
AcDbEntity
  8
文本层
 62
     0
100
AcDbTrace
 38
0.0
 10
-1.012103621201699
 20
109.6428972771652
 11
0.154563045464967
 21
109.6428972771652
 12
-0.428770287868367
 22
106.1428972771652
 13
-0.428770287868367
 23
106.1428972771652
  0
MTEXT
  5
177
330
165
100
AcDbEntity
  8
文本层
 62
     0
100
AcDbMText
 10
-3.553770287868382
 20
157.1428972771652
 30
0.0
210
0.0
220
0.0
230
1.0
 11
6.123031769111886E-17
 21
1.0
 31
0.0
 40
5.0
 41
0.0
 71
     5
 72
     1
  1
102
  7
数字与字母
 73
     1
 44
1.0
  0
POINT
  5
178
330
165
100
AcDbEntity
  8
Defpoints
 62
     0
100
AcDbPoint
 10
59.74374044376077
 20
208.1428972771652
 30
0.0
 50
0.0
  0
POINT
  5
179
330
165
100
AcDbEntity
  8
Defpoints
 62
     0
100
AcDbPoint
 10
59.74374044376077
 20
106.1428972771652
 30
0.0
 50
0.0
  0
POINT
  5
17A
330
165
100
AcDbEntity
  8
Defpoints
 62
     0
100
AcDbPoint
 10
-0.428770287868367
 20
106.1428972771652
 30
0.0
 50
0.0
  0
ENDBLK
  5
170
330
165
100
AcDbEntity
  8
0
100
AcDbBlockEnd
  0
BLOCK
  5
187
330
17D
100
AcDbEntity
  8
0
100
AcDbBlockBegin
  2
*D3
 70
     1
 10
0.0
 20
0.0
 30
0.0
  3
*D3
  1

  0
LINE
  5
18A
330
17D
100
AcDbEntity
  8
文本层
370
    -2
 62
     0
100
AcDbLine
 10
192.5676273477446
 20
178.1428972771652
 30
0.0
 11
214.4115653409663
 21
178.1428972771652
 31
0.0
  0
LINE
  5
18B
330
17D
100
AcDbEntity
  8
文本层
370
    -2
 62
     0
100
AcDbLine
 10
192.5676273477446
 20
136.1428972771652
 30
0.0
 11
214.4115653409663
 21
136.1428972771652
 31
0.0
  0
LINE
  5
18C
330
17D
100
AcDbEntity
  8
文本层
370
    -2
 62
     0
100
AcDbLine
 10
211.9115653409663
 20
174.6428972771652
 30
0.0
 11
211.9115653409663
 21
139.6428972771652
 31
0.0
  0
SOLID
  5
18D
330
17D
100
AcDbEntity
  8
文本层
 62
     0
100
AcDbTrace
 38
0.0
 10
211.3282320076329
 20
174.6428972771652
 11
212.4948986742996
 21
174.6428972771652
 12
211.9115653409663
 22
178.1428972771652
 13
211.9115653409663
 23
178.1428972771652
  0
SOLID
  5
18E
330
17D
100
AcDbEntity
  8
文本层
 62
     0
100
AcDbTrace
 38
0.0
 10
211.3282320076329
 20
139.6428972771652
 11
212.4948986742996
 21
139.6428972771652
 12
211.9115653409663
 22
136.1428972771652
 13
211.9115653409663
 23
136.1428972771652
  0
MTEXT
  5
18F
330
17D
100
AcDbEntity
  8
文本层
 62
     0
100
AcDbMText
 10
208.7865653409662
 20
157.1428972771652
 30
0.0
210
0.0
220
0.0
230
1.0
 11
6.123031769111886E-17
 21
1.0
 31
0.0
 40
5.0
 41
0.0
 71
     5
 72
     1
  1
42
  7
数字与字母
 73
     1
 44
1.0
  0
POINT
  5
190
330
17D
100
AcDbEntity
  8
Defpoints
 62
     0
100
AcDbPoint
 10
192.5676273477446
 20
178.1428972771652
 30
0.0
 50
0.0
  0
POINT
  5
191
330
17D
100
AcDbEntity
  8
Defpoints
 62
     0
100
AcDbPoint
 10
192.5676273477446
 20
136.1428972771652
 30
0.0
 50
0.0
  0
POINT
  5
192
330
17D
100
AcDbEntity
  8
Defpoints
 62
     0
100
AcDbPoint
 10
211.9115653409663
 20
136.1428972771652
 30
0.0
 50
0.0
  0
ENDBLK
  5
188
330
17D
100
AcDbEntity
  8
0
100
AcDbBlockEnd
  0
BLOCK
  5
19F
330
195
100
AcDbEntity
  8
0
100
AcDbBlockBegin
  2
*D4
 70
     1
 10
0.0
 20
0.0
 30
0.0
  3
*D4
  1

  0
LINE
  5
1A2
330
195
100
AcDbEntity
  8
文本层
370
    -2
 62
     0
100
AcDbLine
 10
169.4676273477447
 20
143.9428972771652
 30
0.0
 11
153.0616376924919
 21
143.9428972771652
 31
0.0
  0
LINE
  5
1A3
330
195
100
AcDbEntity
  8
文本层
370
    -2
 62
     0
100
AcDbLine
 10
169.4676273477447
 20
128.3428972771652
 30
0.0
 11
153.0616376924919
 21
128.3428972771652
 31
0.0
  0
LINE
  5
1A4
330
195
100
AcDbEntity
  8
文本层
370
    -2
 62
     0
100
AcDbLine
 10
155.5616376924919
 20
140.4428972771652
 30
0.0
 11
155.5616376924919
 21
131.8428972771652
 31
0.0
  0
SOLID
  5
1A5
330
195
100
AcDbEntity
  8
文本层
 62
     0
100
AcDbTrace
 38
0.0
 10
154.9783043591586
 20
140.4428972771652
 11
156.1449710258252
 21
140.4428972771652
 12
155.5616376924919
 22
143.9428972771652
 13
155.5616376924919
 23
143.9428972771652
  0
SOLID
  5
1A6
330
195
100
AcDbEntity
  8
文本层
 62
     0
100
AcDbTrace
 38
0.0
 10
154.9783043591586
 20
131.8428972771652
 11
156.1449710258252
 21
131.8428972771652
 12
155.5616376924919
 22
128.3428972771652
 13
155.5616376924919
 23
128.3428972771652
  0
MTEXT
  5
1A7
330
195
100
AcDbEntity
  8
文本层
 62
     0
100
AcDbMText
 10
152.4366376924919
 20
136.1428972771652
 30
0.0
210
0.0
220
0.0
230
1.0
 11
6.123031769111886E-17
 21
1.0
 31
0.0
 40
5.0
 41
0.0
 71
     5
 72
     1
  1
15.6
  7
数字与字母
 73
     1
 44
1.0
  0
POINT
  5
1A8
330
195
100
AcDbEntity
  8
Defpoints
 62
     0
100
AcDbPoint
 10
169.4676273477447
 20
143.9428972771652
 30
0.0
 50
0.0
  0
POINT
  5
1A9
330
195
100
AcDbEntity
  8
Defpoints
 62
     0
100
AcDbPoint
 10
169.4676273477447
 20
128.3428972771652
 30
0.0
 50
0.0
  0
POINT
  5
1AA
330
195
100
AcDbEntity
  8
Defpoints
 62
     0
100
AcDbPoint
 10
155.5616376924919
 20
128.3428972771652
 30
0.0
 50
0.0
  0
ENDBLK
  5
1A0
330
195
100
AcDbEntity
  8
0
100
AcDbBlockEnd
  0
BLOCK
  5
1B7
330
1AD
100
AcDbEntity
  8
0
100
AcDbBlockBegin
  2
*D5
 70
     1
 10
0.0
 20
0.0
 30
0.0
  3
*D5
  1

  0
LINE
  5
1BA
330
1AD
100
AcDbEntity
  8
文本层
370
    -2
 62
     0
100
AcDbLine
 10
169.4676273477447
 20
96.54289727716518
 30
0.0
 11
169.4676273477447
 21
77.22925077502603
 31
0.0
  0
LINE
  5
1BB
330
1AD
100
AcDbEntity
  8
文本层
370
    -2
 62
     0
100
AcDbLine
 10
183.8676273477446
 20
96.54289727716518
 30
0.0
 11
183.8676273477446
 21
77.22925077502603
 31
0.0
  0
LINE
  5
1BC
330
1AD
100
AcDbEntity
  8
文本层
370
    -2
 62
     0
100
AcDbLine
 10
172.9676273477447
 20
79.72925077502603
 30
0.0
 11
180.3676273477446
 21
79.72925077502603
 31
0.0
  0
SOLID
  5
1BD
330
1AD
100
AcDbEntity
  8
文本层
 62
     0
100
AcDbTrace
 38
0.0
 10
172.9676273477447
 20
80.31258410835936
 11
172.9676273477447
 21
79.1459174416927
 12
169.4676273477447
 22
79.72925077502603
 13
169.4676273477447
 23
79.72925077502603
  0
SOLID
  5
1BE
330
1AD
100
AcDbEntity
  8
文本层
 62
     0
100
AcDbTrace
 38
0.0
 10
180.3676273477446
 20
80.31258410835936
 11
180.3676273477446
 21
79.1459174416927
 12
183.8676273477446
 22
79.72925077502603
 13
183.8676273477446
 23
79.72925077502603
  0
MTEXT
  5
1BF
330
1AD
100
AcDbEntity
  8
文本层
 62
     0
100
AcDbMText
 10
176.6676273477447
 20
82.85425077502603
 30
0.0
210
0.0
220
0.0
230
1.0
 11
1.0
 21
0.0
 31
0.0
 40
5.0
 41
0.0
 71
     5
 72
     1
  1
14.4
  7
数字与字母
 73
     1
 44
1.0
  0
POINT
  5
1C0
330
1AD
100
AcDbEntity
  8
Defpoints
 62
     0
100
AcDbPoint
 10
169.4676273477447
 20
96.54289727716518
 30
0.0
 50
0.0
  0
POINT
  5
1C1
330
1AD
100
AcDbEntity
  8
Defpoints
 62
     0
100
AcDbPoint
 10
183.8676273477446
 20
96.54289727716518
 30
0.0
 50
0.0
  0
POINT
  5
1C2
330
1AD
100
AcDbEntity
  8
Defpoints
 62
     0
100
AcDbPoint
 10
183.8676273477446
 20
79.72925077502603
 30
0.0
 50
0.0
  0
ENDBLK
  5
1B8
330
1AD
100
AcDbEntity
  8
0
100
AcDbBlockEnd
  0
BLOCK
  5
1CF
330
1C5
100
AcDbEntity
  8
0
100
AcDbBlockBegin
  2
*D6
 70
     1
 10
0.0
 20
0.0
 30
0.0
  3
*D6
  1

  0
LINE
  5
1D2
330
1C5
100
AcDbEntity
  8
文本层
370
    -2
 62
     0
100
AcDbLine
 10
169.4676273477447
 20
86.8860740260956
 30
0.0
 11
169.4676273477447
 21
60.21047522026251
 31
0.0
  0
LINE
  5
1D3
330
1C5
100
AcDbEntity
  8
文本层
370
    -2
 62
     0
100
AcDbLine
 10
195.8676273477447
 20
119.3428972771652
 30
0.0
 11
195.8676273477447
 21
60.21047522026251
 31
0.0
  0
LINE
  5
1D4
330
1C5
100
AcDbEntity
  8
文本层
370
    -2
 62
     0
100
AcDbLine
 10
172.9676273477447
 20
62.71047522026251
 30
0.0
 11
192.3676273477447
 21
62.71047522026251
 31
0.0
  0
SOLID
  5
1D5
330
1C5
100
AcDbEntity
  8
文本层
 62
     0
100
AcDbTrace
 38
0.0
 10
172.9676273477447
 20
63.29380855359585
 11
172.9676273477447
 21
62.12714188692917
 12
169.4676273477447
 22
62.71047522026251
 13
169.4676273477447
 23
62.71047522026251
  0
SOLID
  5
1D6
330
1C5
100
AcDbEntity
  8
文本层
 62
     0
100
AcDbTrace
 38
0.0
 10
192.3676273477447
 20
63.29380855359585
 11
192.3676273477447
 21
62.12714188692917
 12
195.8676273477447
 22
62.71047522026251
 13
195.8676273477447
 23
62.71047522026251
  0
MTEXT
  5
1D7
330
1C5
100
AcDbEntity
  8
文本层
 62
     0
100
AcDbMText
 10
182.6676273477447
 20
65.83547522026251
 30
0.0
210
0.0
220
0.0
230
1.0
 11
1.0
 21
0.0
 31
0.0
 40
5.0
 41
0.0
 71
     5
 72
     1
  1
26.4
  7
数字与字母
 73
     1
 44
1.0
  0
POINT
  5
1D8
330
1C5
100
AcDbEntity
  8
Defpoints
 62
     0
100
AcDbPoint
 10
169.4676273477447
 20
86.8860740260956
 30
0.0
 50
0.0
  0
POINT
  5
1D9
330
1C5
100
AcDbEntity
  8
Defpoints
 62
     0
100
AcDbPoint
 10
195.8676273477447
 20
119.3428972771652
 30
0.0
 50
0.0
  0
POINT
  5
1DA
330
1C5
100
AcDbEntity
  8
Defpoints
 62
     0
100
AcDbPoint
 10
195.8676273477447
 20
62.71047522026251
 30
0.0
 50
0.0
  0
ENDBLK
  5
1D0
330
1C5
100
AcDbEntity
  8
0
100
AcDbBlockEnd
  0
BLOCK
  5
1E7
330
1DD
100
AcDbEntity
  8
0
100
AcDbBlockBegin
  2
*D7
 70
     1
 10
0.0
 20
0.0
 30
0.0
  3
*D7
  1

  0
LINE
  5
1EA
330
1DD
100
AcDbEntity
  8
文本层
370
    -2
 62
     0
100
AcDbLine
 10
169.4676273477447
 20
217.7428972771652
 30
0.0
 11
169.4676273477447
 21
234.0529728277545
 31
0.0
  0
LINE
  5
1EB
330
1DD
100
AcDbEntity
  8
文本层
370
    -2
 62
     0
100
AcDbLine
 10
181.4676273477447
 20
215.9428972771652
 30
0.0
 11
181.4676273477447
 21
234.0529728277545
 31
0.0
  0
LINE
  5
1EC
330
1DD
100
AcDbEntity
  8
文本层
370
    -2
 62
     0
100
AcDbLine
 10
172.9676273477447
 20
231.5529728277545
 30
0.0
 11
177.9676273477447
 21
231.5529728277545
 31
0.0
  0
SOLID
  5
1ED
330
1DD
100
AcDbEntity
  8
文本层
 62
     0
100
AcDbTrace
 38
0.0
 10
172.9676273477447
 20
232.1363061610878
 11
172.9676273477447
 21
230.9696394944211
 12
169.4676273477447
 22
231.5529728277545
 13
169.4676273477447
 23
231.5529728277545
  0
SOLID
  5
1EE
330
1DD
100
AcDbEntity
  8
文本层
 62
     0
100
AcDbTrace
 38
0.0
 10
177.9676273477447
 20
232.1363061610878
 11
177.9676273477447
 21
230.9696394944211
 12
181.4676273477447
 22
231.5529728277545
 13
181.4676273477447
 23
231.5529728277545
  0
MTEXT
  5
1EF
330
1DD
100
AcDbEntity
  8
文本层
 62
     0
100
AcDbMText
 10
175.4676273477447
 20
234.6779728277545
 30
0.0
210
0.0
220
0.0
230
1.0
 11
1.0
 21
0.0
 31
0.0
 40
5.0
 41
0.0
 71
     5
 72
     1
  1
12
  7
数字与字母
 73
     1
 44
1.0
  0
POINT
  5
1F0
330
1DD
100
AcDbEntity
  8
Defpoints
 62
     0
100
AcDbPoint
 10
169.4676273477447
 20
217.7428972771652
 30
0.0
 50
0.0
  0
POINT
  5
1F1
330
1DD
100
AcDbEntity
  8
Defpoints
 62
     0
100
AcDbPoint
 10
181.4676273477447
 20
215.9428972771652
 30
0.0
 50
0.0
  0
POINT
  5
1F2
330
1DD
100
AcDbEntity
  8
Defpoints
 62
     0
100
AcDbPoint
 10
181.4676273477447
 20
231.5529728277545
 30
0.0
 50
0.0
  0
ENDBLK
  5
1E8
330
1DD
100
AcDbEntity
  8
0
100
AcDbBlockEnd
  0
BLOCK
  5
1FF
330
1F5
100
AcDbEntity
  8
0
100
AcDbBlockBegin
  2
*D8
 70
     1
 10
0.0
 20
0.0
 30
0.0
  3
*D8
  1

  0
LINE
  5
202
330
1F5
100
AcDbEntity
  8
文本层
370
    -2
 62
     0
100
AcDbLine
 10
169.4676273477447
 20
217.7428972771652
 30
0.0
 11
169.4676273477447
 21
250.0816663466623
 31
0.0
  0
LINE
  5
203
330
1F5
100
AcDbEntity
  8
文本层
370
    -2
 62
     0
100
AcDbLine
 10
189.5676273477446
 20
178.1428972771652
 30
0.0
 11
189.5676273477446
 21
250.0816663466623
 31
0.0
  0
LINE
  5
204
330
1F5
100
AcDbEntity
  8
文本层
370
    -2
 62
     0
100
AcDbLine
 10
172.9676273477447
 20
247.5816663466623
 30
0.0
 11
186.0676273477446
 21
247.5816663466623
 31
0.0
  0
SOLID
  5
205
330
1F5
100
AcDbEntity
  8
文本层
 62
     0
100
AcDbTrace
 38
0.0
 10
172.9676273477447
 20
248.1649996799956
 11
172.9676273477447
 21
246.9983330133289
 12
169.4676273477447
 22
247.5816663466623
 13
169.4676273477447
 23
247.5816663466623
  0
SOLID
  5
206
330
1F5
100
AcDbEntity
  8
文本层
 62
     0
100
AcDbTrace
 38
0.0
 10
186.0676273477446
 20
248.1649996799956
 11
186.0676273477446
 21
246.9983330133289
 12
189.5676273477446
 22
247.5816663466623
 13
189.5676273477446
 23
247.5816663466623
  0
MTEXT
  5
207
330
1F5
100
AcDbEntity
  8
文本层
 62
     0
100
AcDbMText
 10
179.5176273477447
 20
250.7066663466623
 30
0.0
210
0.0
220
0.0
230
1.0
 11
1.0
 21
0.0
 31
0.0
 40
5.0
 41
0.0
 71
     5
 72
     1
  1
20.1
  7
数字与字母
 73
     1
 44
1.0
  0
POINT
  5
208
330
1F5
100
AcDbEntity
  8
Defpoints
 62
     0
100
AcDbPoint
 10
169.4676273477447
 20
217.7428972771652
 30
0.0
 50
0.0
  0
POINT
  5
209
330
1F5
100
AcDbEntity
  8
Defpoints
 62
     0
100
AcDbPoint
 10
189.5676273477446
 20
178.1428972771652
 30
0.0
 50
0.0
  0
POINT
  5
20A
330
1F5
100
AcDbEntity
  8
Defpoints
 62
     0
100
AcDbPoint
 10
189.5676273477446
 20
247.5816663466623
 30
0.0
 50
0.0
  0
ENDBLK
  5
200
330
1F5
100
AcDbEntity
  8
0
100
AcDbBlockEnd
  0
BLOCK
  5
217
330
20D
100
AcDbEntity
  8
0
100
AcDbBlockBegin
  2
*D9
 70
     1
 10
0.0
 20
0.0
 30
0.0
  3
*D9
  1

  0
LINE
  5
21A
330
20D
100
AcDbEntity
  8
文本层
370
    -2
 62
     0
100
AcDbLine
 10
169.4676273477447
 20
181.6951456286799
 30
0.0
 11
169.4676273477447
 21
175.6428972771652
 31
0.0
  0
LINE
  5
21B
330
20D
100
AcDbEntity
  8
文本层
370
    -2
 62
     0
100
AcDbLine
 10
185.0676273477447
 20
181.6951456286799
 30
0.0
 11
185.0676273477447
 21
175.6428972771652
 31
0.0
  0
LINE
  5
21C
330
20D
100
AcDbEntity
  8
文本层
370
    -2
 62
     0
100
AcDbLine
 10
172.9676273477447
 20
178.1428972771652
 30
0.0
 11
181.5676273477447
 21
178.1428972771652
 31
0.0
  0
SOLID
  5
21D
330
20D
100
AcDbEntity
  8
文本层
 62
     0
100
AcDbTrace
 38
0.0
 10
172.9676273477447
 20
178.7262306104985
 11
172.9676273477447
 21
177.5595639438318
 12
169.4676273477447
 22
178.1428972771652
 13
169.4676273477447
 23
178.1428972771652
  0
SOLID
  5
21E
330
20D
100
AcDbEntity
  8
文本层
 62
     0
100
AcDbTrace
 38
0.0
 10
181.5676273477447
 20
178.7262306104985
 11
181.5676273477447
 21
177.5595639438318
 12
185.0676273477447
 22
178.1428972771652
 13
185.0676273477447
 23
178.1428972771652
  0
MTEXT
  5
21F
330
20D
100
AcDbEntity
  8
文本层
 62
     0
100
AcDbMText
 10
177.2676273477447
 20
181.2678972771652
 30
0.0
210
0.0
220
0.0
230
1.0
 11
1.0
 21
0.0
 31
0.0
 40
5.0
 41
0.0
 71
     5
 72
     1
  1
15.6
  7
数字与字母
 73
     1
 44
1.0
  0
POINT
  5
220
330
20D
100
AcDbEntity
  8
Defpoints
 62
     0
100
AcDbPoint
 10
169.4676273477447
 20
181.6951456286799
 30
0.0
 50
0.0
  0
POINT
  5
221
330
20D
100
AcDbEntity
  8
Defpoints
 62
     0
100
AcDbPoint
 10
185.0676273477447
 20
181.6951456286799
 30
0.0
 50
0.0
  0
POINT
  5
222
330
20D
100
AcDbEntity
  8
Defpoints
 62
     0
100
AcDbPoint
 10
185.0676273477447
 20
178.1428972771652
 30
0.0
 50
0.0
  0
ENDBLK
  5
218
330
20D
100
AcDbEntity
  8
0
100
AcDbBlockEnd
  0
BLOCK
  5
22D
330
225
100
AcDbEntity
  8
0
100
AcDbBlockBegin
  2
*D10
 70
     1
 10
0.0
 20
0.0
 30
0.0
  3
*D10
  1

  0
LINE
  5
230
330
225
100
AcDbEntity
  8
文本层
370
    -2
 62
     0
100
AcDbLine
 10
124.5602189309282
 20
225.6798518621347
 30
0.0
 11
109.1018855975949
 21
225.6798518621348
 31
0.0
  0
LINE
  5
231
330
225
100
AcDbEntity
  8
文本层
370
    -2
 62
     0
100
AcDbLine
 10
109.1018855975949
 20
225.6798518621348
 30
0.0
 11
92.17734406829886
 21
205.5955179779791
 31
0.0
  0
MTEXT
  5
232
330
225
100
AcDbEntity
  8
文本层
 62
     0
100
AcDbMText
 10
117.1435522642615
 20
228.8048518621348
 30
0.0
210
0.0
220
0.0
230
1.0
 11
1.0
 21
0.0
 31
0.0
 40
5.0
 41
0.0
 71
     5
 72
     1
  1
R32.4
  7
数字与字母
 73
     1
 44
1.0
  0
LINE
  5
233
330
225
100
AcDbEntity
  8
文本层
370
    -2
 62
     0
100
AcDbLine
 10
69.04374044376074
 20
178.1428972771651
 30
0.0
 11
89.92197881242468
 21
202.9190786338886
 31
0.0
  0
SOLID
  5
234
330
225
100
AcDbEntity
  8
文本层
 62
     0
100
AcDbTrace
 38
0.0
 10
91.73127084428378
 20
205.9714121872915
 11
92.62341729231395
 21
205.2196237686667
 12
89.92197881242468
 22
202.9190786338886
 13
89.92197881242468
 23
202.9190786338886
  0
POINT
  5
235
330
225
100
AcDbEntity
  8
Defpoints
 62
     0
100
AcDbPoint
 10
89.92197881242468
 20
202.9190786338886
 30
0.0
 50
0.0
  0
POINT
  5
236
330
225
100
AcDbEntity
  8
Defpoints
 62
     0
100
AcDbPoint
 10
69.04374044376074
 20
178.1428972771651
 30
0.0
 50
0.0
  0
ENDBLK
  5
22E
330
225
100
AcDbEntity
  8
0
100
AcDbBlockEnd
  0
BLOCK
  5
241
330
239
100
AcDbEntity
  8
0
100
AcDbBlockBegin
  2
*D11
 70
     1
 10
0.0
 20
0.0
 30
0.0
  3
*D11
  1

  0
LINE
  5
244
330
239
100
AcDbEntity
  8
文本层
370
    -2
 62
     0
100
AcDbLine
 10
90.67390632529586
 20
221.6342150467363
 30
0.0
 11
78.71557299196252
 21
221.6342150467363
 31
0.0
  0
LINE
  5
245
330
239
100
AcDbEntity
  8
文本层
370
    -2
 62
     0
100
AcDbLine
 10
78.71557299196252
 20
221.6342150467363
 30
0.0
 11
76.67633118963084
 21
218.7896600953207
 31
0.0
  0
MTEXT
  5
246
330
239
100
AcDbEntity
  8
文本层
 62
     0
100
AcDbMText
 10
85.00723965862917
 20
224.7592150467363
 30
0.0
210
0.0
220
0.0
230
1.0
 11
1.0
 21
0.0
 31
0.0
 40
5.0
 41
0.0
 71
     5
 72
     1
  1
R9.6
  7
数字与字母
 73
     1
 44
1.0
  0
LINE
  5
247
330
239
100
AcDbEntity
  8
文本层
370
    -2
 62
     0
100
AcDbLine
 10
69.04374044376067
 20
208.1428972771649
 30
0.0
 11
74.63708938729914
 21
215.9451051439051
 31
0.0
  0
SOLID
  5
248
330
239
100
AcDbEntity
  8
文本层
 62
     0
100
AcDbTrace
 38
0.0
 10
76.20223869772823
 20
219.1295337290426
 11
77.15042368153343
 21
218.4497864615987
 12
74.63708938729914
 22
215.9451051439051
 13
74.63708938729914
 23
215.9451051439051
  0
POINT
  5
249
330
239
100
AcDbEntity
  8
Defpoints
 62
     0
100
AcDbPoint
 10
74.63708938729914
 20
215.9451051439051
 30
0.0
 50
0.0
  0
POINT
  5
24A
330
239
100
AcDbEntity
  8
Defpoints
 62
     0
100
AcDbPoint
 10
69.04374044376067
 20
208.1428972771649
 30
0.0
 50
0.0
  0
ENDBLK
  5
242
330
239
100
AcDbEntity
  8
0
100
AcDbBlockEnd
  0
BLOCK
  5
255
330
24D
100
AcDbEntity
  8
0
100
AcDbBlockBegin
  2
*D12
 70
     1
 10
0.0
 20
0.0
 30
0.0
  3
*D12
  1

  0
LINE
  5
258
330
24D
100
AcDbEntity
  8
文本层
370
    -2
 62
     0
100
AcDbLine
 10
93.71889300129929
 20
221.6342150467362
 30
0.0
 11
81.76055966796594
 21
221.6342150467363
 31
0.0
  0
LINE
  5
259
330
24D
100
AcDbEntity
  8
文本层
370
    -2
 62
     0
100
AcDbLine
 10
81.76055966796594
 20
221.6342150467363
 30
0.0
 11
76.79453515810081
 21
216.3657423624235
 31
0.0
  0
MTEXT
  5
25A
330
24D
100
AcDbEntity
  8
文本层
 62
     0
100
AcDbMText
 10
88.05222633463265
 20
224.7592150467363
 30
0.0
210
0.0
220
0.0
230
1.0
 11
1.0
 21
0.0
 31
0.0
 40
5.0
 41
0.0
 71
     5
 72
     1
  1
R7.8
  7
数字与字母
 73
     1
 44
1.0
  0
LINE
  5
25B
330
24D
100
AcDbEntity
  8
文本层
370
    -2
 62
     0
100
AcDbLine
 10
69.04374044376077
 20
208.1428972771652
 30
0.0
 11
74.3938465297654
 21
213.8188434422107
 31
0.0
  0
SOLID
  5
25C
330
24D
100
AcDbEntity
  8
文本层
 62
     0
100
AcDbTrace
 38
0.0
 10
76.37005200473203
 20
216.7658571338127
 11
77.21901831146961
 21
215.9656275910342
 12
74.3938465297654
 22
213.8188434422107
 13
74.3938465297654
 23
213.8188434422107
  0
POINT
  5
25D
330
24D
100
AcDbEntity
  8
Defpoints
 62
     0
100
AcDbPoint
 10
74.3938465297654
 20
213.8188434422107
 30
0.0
 50
0.0
  0
POINT
  5
25E
330
24D
100
AcDbEntity
  8
Defpoints
 62
     0
100
AcDbPoint
 10
69.04374044376077
 20
208.1428972771652
 30
0.0
 50
0.0
  0
ENDBLK
  5
256
330
24D
100
AcDbEntity
  8
0
100
AcDbBlockEnd
  0
BLOCK
  5
269
330
261
100
AcDbEntity
  8
0
100
AcDbBlockBegin
  2
*D13
 70
     1
 10
0.0
 20
0.0
 30
0.0
  3
*D13
  1

  0
LINE
  5
26C
330
261
100
AcDbEntity
  8
文本层
370
    -2
 62
     0
100
AcDbLine
 10
49.17301572599425
 20
223.4859188999534
 30
0.0
 11
61.13134905932758
 21
223.4859188999535
 31
0.0
  0
LINE
  5
26D
330
261
100
AcDbEntity
  8
文本层
370
    -2
 62
     0
100
AcDbLine
 10
61.13134905932758
 20
223.4859188999535
 30
0.0
 11
65.5145103719852
 21
214.9864734695134
 31
0.0
  0
MTEXT
  5
26E
330
261
100
AcDbEntity
  8
文本层
 62
     0
100
AcDbMText
 10
54.83968239266089
 20
226.6109188999534
 30
0.0
210
0.0
220
0.0
230
1.0
 11
1.0
 21
0.0
 31
0.0
 40
5.0
 41
0.0
 71
     5
 72
     1
  1
R4.2
  7
数字与字母
 73
     1
 44
1.0
  0
LINE
  5
26F
330
261
100
AcDbEntity
  8
文本层
370
    -2
 62
     0
100
AcDbLine
 10
69.04374044376084
 20
208.1428972771652
 30
0.0
 11
67.11870585915594
 21
211.8757570184461
 31
0.0
  0
SOLID
  5
270
330
261
100
AcDbEntity
  8
文本层
 62
     0
100
AcDbTrace
 38
0.0
 10
66.03296311382978
 20
215.2538393840419
 11
64.99605763014064
 21
214.7191075549849
 12
67.11870585915594
 22
211.8757570184461
 13
67.11870585915594
 23
211.8757570184461
  0
POINT
  5
271
330
261
100
AcDbEntity
  8
Defpoints
 62
     0
100
AcDbPoint
 10
67.11870585915594
 20
211.8757570184461
 30
0.0
 50
0.0
  0
POINT
  5
272
330
261
100
AcDbEntity
  8
Defpoints
 62
     0
100
AcDbPoint
 10
69.04374044376084
 20
208.1428972771652
 30
0.0
 50
0.0
  0
ENDBLK
  5
26A
330
261
100
AcDbEntity
  8
0
100
AcDbBlockEnd
  0
BLOCK
  5
27B
330
275
100
AcDbEntity
  8
0
100
AcDbBlockBegin
  2
*D14
 70
     1
 10
0.0
 20
0.0
 30
0.0
  3
*D14
  1

  0
LINE
  5
27E
330
275
100
AcDbEntity
  8
文本层
370
    -2
 62
     0
100
AcDbLine
 10
72.37801798206549
 20
141.27087976628
 30
0.0
 11
61.79373097355056
 21
124.9926792218148
 31
0.0
  0
MTEXT
  5
27F
330
275
100
AcDbEntity
  8
文本层
 62
     0
100
AcDbMText
 10
65.41994103043193
 20
136.3023931174511
 30
0.0
210
0.0
220
0.0
230
1.0
 11
0.5451134940007684
 21
0.8383622598007823
 31
0.0
 40
5.0
 41
0.0
 71
     5
 72
     1
  1
R16.8
  7
数字与字母
 73
     1
 44
1.0
  0
SOLID
  5
280
330
275
100
AcDbEntity
  8
文本层
 62
     0
100
AcDbTrace
 38
0.0
 10
61.30468632200011
 20
125.3106620933152
 11
62.28277562510102
 21
124.6746963503143
 12
59.88583374454786
 22
122.058411312512
 13
59.88583374454786
 23
122.058411312512
  0
POINT
  5
281
330
275
100
AcDbEntity
  8
Defpoints
 62
     0
100
AcDbPoint
 10
59.88583374454786
 20
122.058411312512
 30
0.0
 50
0.0
  0
POINT
  5
282
330
275
100
AcDbEntity
  8
Defpoints
 62
     0
100
AcDbPoint
 10
69.04374044376075
 20
136.1428972771651
 30
0.0
 50
0.0
  0
ENDBLK
  5
27C
330
275
100
AcDbEntity
  8
0
100
AcDbBlockEnd
  0
ENDSEC
  0
SECTION
  2
ENTITIES
  0
LWPOLYLINE
  5
AA
102
{ACAD_REACTORS
330
283
102
}
330
1F
100
AcDbEntity
  8
轮廓线
100
AcDbPolyline
 90
        4
 70
     1
 43
0.0
 10
52.24374044376077
 20
136.1428972771652
 42
0.0
 10
52.24374044376077
 20
178.1428972771652
 42
-1.0
 10
85.84374044376077
 20
178.1428972771652
 42
0.0
 10
85.84374044376075
 20
136.1428972771652
 42
-1.0
  0
CIRCLE
  5
AB
330
1F
100
AcDbEntity
  8
轮廓线
100
AcDbCircle
 10
69.04374044376077
 20
106.1428972771652
 30
0.0
 40
4.2
  0
CIRCLE
  5
AC
330
1F
100
AcDbEntity
  8
轮廓线
100
AcDbCircle
 10
69.04374044376077
 20
106.1428972771652
 30
0.0
 40
7.8
  0
ARC
  5
AD
330
1F
100
AcDbEntity
  8
轮廓线
100
AcDbCircle
 10
69.04374044376077
 20
106.1428972771652
 30
0.0
 40
9.6
100
AcDbArc
 50
185.7391704772668
 51
354.2608295227333
  0
ARC
  5
AE
330
1F
100
AcDbEntity
  8
轮廓线
100
AcDbCircle
 10
39.04374044376077
 20
178.1428972771652
 30
0.0
 40
9.6
100
AcDbArc
 50
95.73917047726614
 51
180.0
  0
CIRCLE
  5
AF
330
1F
100
AcDbEntity
  8
轮廓线
100
AcDbCircle
 10
39.04374044376077
 20
178.1428972771652
 30
0.0
 40
7.8
  0
CIRCLE
  5
B0
330
1F
100
AcDbEntity
  8
轮廓线
100
AcDbCircle
 10
39.04374044376077
 20
178.1428972771652
 30
0.0
 40
4.2
  0
ARC
  5
B1
330
1F
100
AcDbEntity
  8
轮廓线
100
AcDbCircle
 10
69.04374044376077
 20
208.1428972771652
 30
0.0
 40
9.6
100
AcDbArc
 50
5.739170477265684
 51
174.2608295227343
  0
CIRCLE
  5
B2
102
{ACAD_REACTORS
330
25F
102
}
330
1F
100
AcDbEntity
  8
轮廓线
100
AcDbCircle
 10
69.04374044376077
 20
208.1428972771652
 30
0.0
 40
7.8
  0
CIRCLE
  5
B3
102
{ACAD_REACTORS
330
273
102
}
330
1F
100
AcDbEntity
  8
轮廓线
100
AcDbCircle
 10
69.04374044376077
 20
208.1428972771652
 30
0.0
 40
4.2
  0
ARC
  5
B4
330
1F
100
AcDbEntity
  8
轮廓线
100
AcDbCircle
 10
99.04374044376077
 20
136.1428972771652
 30
0.0
 40
9.6
100
AcDbArc
 50
275.7391704772668
 51
0.0
  0
CIRCLE
  5
B5
330
1F
100
AcDbEntity
  8
轮廓线
100
AcDbCircle
 10
99.04374044376077
 20
136.1428972771652
 30
0.0
 40
7.8
  0
CIRCLE
  5
B6
330
1F
100
AcDbEntity
  8
轮廓线
100
AcDbCircle
 10
99.04374044376077
 20
136.1428972771652
 30
0.0
 40
4.2
  0
ARC
  5
B7
330
1F
100
AcDbEntity
  8
轮廓线
100
AcDbCircle
 10
99.04374044376077
 20
178.1428972771652
 30
0.0
 40
9.6
100
AcDbArc
 50
0.0
 51
84.26082952273352
  0
CIRCLE
  5
B8
330
1F
100
AcDbEntity
  8
轮廓线
100
AcDbCircle
 10
99.04374044376077
 20
178.1428972771652
 30
0.0
 40
7.8
  0
CIRCLE
  5
B9
330
1F
100
AcDbEntity
  8
轮廓线
100
AcDbCircle
 10
99.04374044376077
 20
178.1428972771652
 30
0.0
 40
4.2
  0
ARC
  5
BA
330
1F
100
AcDbEntity
  8
轮廓线
100
AcDbCircle
 10
39.04374044376077
 20
136.1428972771652
 30
0.0
 40
9.6
100
AcDbArc
 50
180.0
 51
264.2608295227335
  0
CIRCLE
  5
BB
330
1F
100
AcDbEntity
  8
轮廓线
100
AcDbCircle
 10
39.04374044376077
 20
136.1428972771652
 30
0.0
 40
7.8
  0
CIRCLE
  5
BC
330
1F
100
AcDbEntity
  8
轮廓线
100
AcDbCircle
 10
39.04374044376077
 20
136.1428972771652
 30
0.0
 40
4.2
  0
LWPOLYLINE
  5
BD
330
1F
100
AcDbEntity
  8
轮廓线
100
AcDbPolyline
 90
        2
 70
     0
 43
0.0
 10
100.0037404437608
 20
126.5910178809417
 42
-0.2479731931129112
 10
78.59561983998424
 20
105.1828972771652
 42
-0.2479731931129112
  0
LWPOLYLINE
  5
BF
330
1F
100
AcDbEntity
  8
轮廓线
100
AcDbPolyline
 90
        2
 70
     0
 43
0.0
 10
108.6437404437608
 20
178.1428972771652
 10
108.6437404437607
 20
136.1428972771652
  0
LWPOLYLINE
  5
C0
330
1F
100
AcDbEntity
  8
轮廓线
100
AcDbPolyline
 90
        2
 70
     0
 43
0.0
 10
38.08374044376078
 20
187.6947766733888
 42
-0.2479731931129077
 10
59.49186104753698
 20
209.1028972771651
 42
-0.2479731931129077
  0
LWPOLYLINE
  5
C1
330
1F
100
AcDbEntity
  8
轮廓线
100
AcDbPolyline
 90
        2
 70
     0
 43
0.0
 10
29.44374044376078
 20
136.1428972771652
 10
29.44374044376077
 20
178.1428972771651
  0
LINE
  5
C2
102
{ACAD_REACTORS
330
110
102
}
330
1F
100
AcDbEntity
  8
轮廓线
100
AcDbLine
 10
169.4676273477447
 20
217.7428972771652
 30
0.0
 11
183.8676273477446
 21
217.7428972771652
 31
0.0
  0
LINE
  5
C3
102
{ACAD_REACTORS
330
110
102
}
330
1F
100
AcDbEntity
  8
轮廓线
100
AcDbLine
 10
183.8676273477446
 20
194.9428972771652
 30
0.0
 11
195.8676273477447
 21
194.9428972771652
 31
0.0
  0
LINE
  5
C4
102
{ACAD_REACTORS
330
110
330
1DB
102
}
330
1F
100
AcDbEntity
  8
轮廓线
100
AcDbLine
 10
183.8676273477446
 20
119.3428972771652
 30
0.0
 11
195.8676273477447
 21
119.3428972771652
 31
0.0
  0
LINE
  5
C5
102
{ACAD_REACTORS
330
110
330
1C3
102
}
330
1F
100
AcDbEntity
  8
轮廓线
100
AcDbLine
 10
169.4676273477447
 20
96.54289727716518
 30
0.0
 11
183.8676273477446
 21
96.54289727716518
 31
0.0
  0
LINE
  5
C6
102
{ACAD_REACTORS
330
110
330
1C3
330
1F3
330
20B
330
223
102
}
330
1F
100
AcDbEntity
  8
轮廓线
100
AcDbLine
 10
169.4676273477447
 20
96.54289727716518
 30
0.0
 11
169.4676273477447
 21
217.7428972771652
 31
0.0
  0
LINE
  5
C7
102
{ACAD_REACTORS
330
110
102
}
330
1F
100
AcDbEntity
  8
轮廓线
100
AcDbLine
 10
183.8676273477447
 20
96.54289727716518
 30
0.0
 11
183.8676273477447
 21
119.3428972771652
 31
0.0
  0
LINE
  5
C8
102
{ACAD_REACTORS
330
110
102
}
330
1F
100
AcDbEntity
  8
轮廓线
100
AcDbLine
 10
181.4676273477447
 20
98.34289727716516
 30
0.0
 11
181.4676273477446
 21
113.9428972771652
 31
0.0
  0
LINE
  5
CA
102
{ACAD_REACTORS
330
110
102
}
330
1F
100
AcDbEntity
  8
轮廓线
100
AcDbLine
 10
195.8676273477447
 20
194.9428972771652
 30
0.0
 11
195.8676273477447
 21
119.3428972771652
 31
0.0
  0
LINE
  5
D3
102
{ACAD_REACTORS
330
110
330
1F3
102
}
330
1F
100
AcDbEntity
  8
轮廓线
100
AcDbLine
 10
181.4676273477446
 20
200.3428972771652
 30
0.0
 11
181.4676273477447
 21
215.9428972771652
 31
0.0
  0
LINE
  5
D4
102
{ACAD_REACTORS
330
110
102
}
330
1F
100
AcDbEntity
  8
轮廓线
100
AcDbLine
 10
181.4676273477447
 20
215.9428972771652
 30
0.0
 11
183.8676273477447
 21
215.9428972771652
 31
0.0
  0
LINE
  5
D5
102
{ACAD_REACTORS
330
110
102
}
330
1F
100
AcDbEntity
  8
轮廓线
100
AcDbLine
 10
169.4676273477447
 20
212.3428972771652
 30
0.0
 11
181.4676273477447
 21
212.3428972771652
 31
0.0
  0
LINE
  5
D6
102
{ACAD_REACTORS
330
110
102
}
330
1F
100
AcDbEntity
  8
轮廓线
100
AcDbLine
 10
169.4676273477447
 20
203.9428972771652
 30
0.0
 11
181.4676273477447
 21
203.9428972771652
 31
0.0
  0
LINE
  5
D7
102
{ACAD_REACTORS
330
110
102
}
330
1F
100
AcDbEntity
  8
轮廓线
100
AcDbLine
 10
181.4676273477447
 20
200.3428972771652
 30
0.0
 11
183.8676273477447
 21
200.3428972771652
 31
0.0
  0
LINE
  5
D8
102
{ACAD_REACTORS
330
110
102
}
330
1F
100
AcDbEntity
  8
轮廓线
100
AcDbLine
 10
169.4676273477447
 20
185.9428972771652
 30
0.0
 11
185.0676273477447
 21
185.9428972771652
 31
0.0
  0
LINE
  5
D9
102
{ACAD_REACTORS
330
193
102
}
330
1F
100
AcDbEntity
  8
点划线
100
AcDbLine
 10
166.4676273477447
 20
178.1428972771652
 30
0.0
 11
192.5676273477446
 21
178.1428972771652
 31
0.0
  0
LINE
  5
DA
102
{ACAD_REACTORS
330
110
102
}
330
1F
100
AcDbEntity
  8
轮廓线
100
AcDbLine
 10
169.4676273477447
 20
170.3428972771652
 30
0.0
 11
185.0676273477447
 21
170.3428972771652
 31
0.0
  0
LINE
  5
DB
102
{ACAD_REACTORS
330
110
330
1AB
102
}
330
1F
100
AcDbEntity
  8
轮廓线
100
AcDbLine
 10
169.4676273477447
 20
143.9428972771652
 30
0.0
 11
185.0676273477447
 21
143.9428972771652
 31
0.0
  0
LINE
  5
DC
102
{ACAD_REACTORS
330
193
102
}
330
1F
100
AcDbEntity
  8
点划线
100
AcDbLine
 10
166.4676273477447
 20
136.1428972771652
 30
0.0
 11
192.5676273477446
 21
136.1428972771652
 31
0.0
  0
LINE
  5
DD
102
{ACAD_REACTORS
330
110
330
1AB
102
}
330
1F
100
AcDbEntity
  8
轮廓线
100
AcDbLine
 10
169.4676273477447
 20
128.3428972771652
 30
0.0
 11
185.0676273477447
 21
128.3428972771652
 31
0.0
  0
LINE
  5
DE
102
{ACAD_REACTORS
330
110
102
}
330
1F
100
AcDbEntity
  8
轮廓线
100
AcDbLine
 10
181.4676273477446
 20
113.9428972771652
 30
0.0
 11
183.8676273477447
 21
113.9428972771652
 31
0.0
  0
LINE
  5
DF
102
{ACAD_REACTORS
330
110
102
}
330
1F
100
AcDbEntity
  8
轮廓线
100
AcDbLine
 10
169.4676273477447
 20
110.3428972771652
 30
0.0
 11
181.4676273477446
 21
110.3428972771652
 31
0.0
  0
LINE
  5
E0
102
{ACAD_REACTORS
330
110
102
}
330
1F
100
AcDbEntity
  8
轮廓线
100
AcDbLine
 10
169.4676273477447
 20
101.9428972771652
 30
0.0
 11
181.4676273477446
 21
101.9428972771652
 31
0.0
  0
LINE
  5
E1
330
1F
100
AcDbEntity
  8
点划线
100
AcDbLine
 10
166.4676273477447
 20
106.1428972771652
 30
0.0
 11
186.8676273477447
 21
106.1428972771652
 31
0.0
  0
LINE
  5
E2
102
{ACAD_REACTORS
330
110
102
}
330
1F
100
AcDbEntity
  8
轮廓线
100
AcDbLine
 10
181.4676273477447
 20
98.34289727716516
 30
0.0
 11
183.8676273477447
 21
98.34289727716521
 31
0.0
  0
LINE
  5
E3
330
1F
100
AcDbEntity
  8
点划线
100
AcDbLine
 10
166.4676273477447
 20
208.1428972771652
 30
0.0
 11
186.8676273477447
 21
208.1428972771651
 31
0.0
  0
LINE
  5
E5
102
{ACAD_REACTORS
330
110
102
}
330
1F
100
AcDbEntity
  8
轮廓线
100
AcDbLine
 10
183.8676273477447
 20
194.9428972771652
 30
0.0
 11
183.8676273477447
 21
217.7428972771652
 31
0.0
  0
LINE
  5
E8
330
1F
100
AcDbEntity
  8
轮廓线
100
AcDbLine
 10
185.0676273477447
 20
128.3428972771652
 30
0.0
 11
185.0676273477447
 21
143.9428972771652
 31
0.0
  0
LINE
  5
E9
330
1F
100
AcDbEntity
  8
轮廓线
100
AcDbLine
 10
185.0676273477447
 20
170.3428972771652
 30
0.0
 11
185.0676273477447
 21
185.9428972771652
 31
0.0
  0
LINE
  5
EA
102
{ACAD_REACTORS
330
110
102
}
330
1F
100
AcDbEntity
  8
轮廓线
100
AcDbLine
 10
185.0676273477447
 20
185.9428972771652
 30
0.0
 11
189.5676273477446
 21
178.1428972771652
 31
0.0
  0
LINE
  5
EB
102
{ACAD_REACTORS
330
110
330
20B
102
}
330
1F
100
AcDbEntity
  8
轮廓线
100
AcDbLine
 10
189.5676273477446
 20
178.1428972771652
 30
0.0
 11
185.0676273477447
 21
170.3428972771652
 31
0.0
  0
LINE
  5
EC
102
{ACAD_REACTORS
330
110
102
}
330
1F
100
AcDbEntity
  8
轮廓线
100
AcDbLine
 10
185.0676273477447
 20
143.9428972771652
 30
0.0
 11
189.5676273477446
 21
136.1428972771652
 31
0.0
  0
LINE
  5
ED
102
{ACAD_REACTORS
330
110
102
}
330
1F
100
AcDbEntity
  8
轮廓线
100
AcDbLine
 10
189.5676273477446
 20
136.1428972771652
 30
0.0
 11
185.0676273477447
 21
128.3428972771652
 31
0.0
  0
HATCH
  5
110
330
1F
100
AcDbEntity
  8
剖面线
100
AcDbHatch
 10
0.0
 20
0.0
 30
0.0
210
0.0
220
0.0
230
1.0
  2
ANSI31
 70
     0
 71
     1
 91
        3
 92
        7
 72
     0
 73
     1
 93
       22
 10
195.8676273477447
 20
194.9428972771652
 10
183.8676273477447
 20
194.9428972771652
 10
183.8676273477447
 20
200.3428972771652
 10
181.4676273477446
 20
200.3428972771652
 10
181.4676273477446
 20
203.9428972771651
 10
169.4676273477447
 20
203.9428972771652
 10
169.4676273477447
 20
185.9428972771652
 10
185.0676273477446
 20
185.9428972771652
 10
189.5676273477447
 20
178.1428972771652
 10
185.0676273477447
 20
170.3428972771652
 10
169.4676273477447
 20
170.3428972771652
 10
169.4676273477447
 20
143.9428972771652
 10
185.0676273477447
 20
143.9428972771652
 10
189.5676273477447
 20
136.1428972771652
 10
185.0676273477447
 20
128.3428972771652
 10
169.4676273477447
 20
128.3428972771652
 10
169.4676273477447
 20
110.3428972771652
 10
181.4676273477446
 20
110.3428972771652
 10
181.4676273477446
 20
113.9428972771651
 10
183.8676273477447
 20
113.9428972771652
 10
183.8676273477447
 20
119.3428972771652
 10
195.8676273477446
 20
119.3428972771652
 97
       20
330
C3
330
E5
330
D7
330
D3
330
D6
330
C6
330
D8
330
EA
330
EB
330
DA
330
DB
330
EC
330
ED
330
DD
330
DF
330
C8
330
DE
330
C7
330
C4
330
CA
 92
        7
 72
     0
 73
     1
 93
        6
 10
181.4676273477446
 20
101.9428972771652
 10
169.4676273477447
 20
101.9428972771652
 10
169.4676273477447
 20
96.54289727716518
 10
183.8676273477447
 20
96.54289727716518
 10
183.8676273477447
 20
98.34289727716524
 10
181.4676273477447
 20
98.34289727716515
 97
        6
330
E0
330
C6
330
C5
330
C7
330
E2
330
C8
 92
        7
 72
     0
 73
     1
 93
        6
 10
181.4676273477446
 20
215.9428972771652
 10
183.8676273477446
 20
215.9428972771651
 10
183.8676273477447
 20
217.7428972771652
 10
169.4676273477447
 20
217.7428972771651
 10
169.4676273477447
 20
212.3428972771652
 10
181.4676273477446
 20
212.3428972771652
 97
        6
330
D4
330
E5
330
C2
330
C6
330
D5
330
D3
 75
     0
 76
     1
 52
0.0
 41
0.9
 77
     0
 78
     1
 53
45.0
 43
0.0
 44
0.0
 45
-2.020557627240559
 46
2.02055762724056
 79
     0
 47
0.1414530161793313
 98
        3
 10
180.4854563215335
 20
191.0989485428019
 10
176.7716443988481
 20
98.79799841665775
 10
175.9240179919155
 20
215.3517813303521
  0
LINE
  5
111
330
1F
100
AcDbEntity
  8
点划线
100
AcDbLine
 10
36.04374044376077
 20
178.1428972771652
 30
0.0
 11
42.04374044376077
 21
178.1428972771652
 31
0.0
  0
LINE
  5
112
330
1F
100
AcDbEntity
  8
点划线
100
AcDbLine
 10
39.04374044376077
 20
175.1428972771652
 30
0.0
 11
39.04374044376077
 21
181.1428972771652
 31
0.0
  0
LINE
  5
113
330
1F
100
AcDbEntity
  8
点划线
100
AcDbLine
 10
36.04374044376077
 20
136.1428972771652
 30
0.0
 11
42.04374044376077
 21
136.1428972771652
 31
0.0
  0
LINE
  5
114
330
1F
100
AcDbEntity
  8
点划线
100
AcDbLine
 10
39.04374044376077
 20
133.1428972771652
 30
0.0
 11
39.04374044376077
 21
139.1428972771652
 31
0.0
  0
LINE
  5
115
330
1F
100
AcDbEntity
  8
点划线
100
AcDbLine
 10
66.04374044376077
 20
106.1428972771652
 30
0.0
 11
72.04374044376077
 21
106.1428972771652
 31
0.0
  0
LINE
  5
116
330
1F
100
AcDbEntity
  8
点划线
100
AcDbLine
 10
69.04374044376077
 20
103.1428972771652
 30
0.0
 11
69.04374044376077
 21
109.1428972771652
 31
0.0
  0
LINE
  5
117
330
1F
100
AcDbEntity
  8
点划线
100
AcDbLine
 10
96.04374044376077
 20
136.1428972771652
 30
0.0
 11
102.0437404437608
 21
136.1428972771652
 31
0.0
  0
LINE
  5
118
330
1F
100
AcDbEntity
  8
点划线
100
AcDbLine
 10
99.04374044376077
 20
133.1428972771652
 30
0.0
 11
99.04374044376077
 21
139.1428972771652
 31
0.0
  0
LINE
  5
119
330
1F
100
AcDbEntity
  8
点划线
100
AcDbLine
 10
96.04374044376077
 20
178.1428972771652
 30
0.0
 11
102.0437404437608
 21
178.1428972771652
 31
0.0
  0
LINE
  5
11A
330
1F
100
AcDbEntity
  8
点划线
100
AcDbLine
 10
99.04374044376077
 20
175.1428972771652
 30
0.0
 11
99.04374044376077
 21
181.1428972771652
 31
0.0
  0
LINE
  5
11B
330
1F
100
AcDbEntity
  8
点划线
100
AcDbLine
 10
66.04374044376077
 20
208.1428972771652
 30
0.0
 11
72.04374044376077
 21
208.1428972771652
 31
0.0
  0
LINE
  5
11C
330
1F
100
AcDbEntity
  8
点划线
100
AcDbLine
 10
69.04374044376077
 20
205.1428972771652
 30
0.0
 11
69.04374044376077
 21
211.1428972771652
 31
0.0
  0
LINE
  5
11D
330
1F
100
AcDbEntity
  8
点划线
100
AcDbLine
 10
66.04374044376077
 20
208.1428972771652
 30
0.0
 11
72.04374044376077
 21
208.1428972771652
 31
0.0
  0
LINE
  5
11E
330
1F
100
AcDbEntity
  8
点划线
100
AcDbLine
 10
69.04374044376077
 20
205.1428972771652
 30
0.0
 11
69.04374044376077
 21
211.1428972771652
 31
0.0
  0
LINE
  5
11F
102
{ACAD_REACTORS
330
17B
102
}
330
1F
100
AcDbEntity
  8
点划线
100
AcDbLine
 10
63.04374044376077
 20
208.1428972771652
 30
0.0
 11
56.44374044376077
 21
208.1428972771652
 31
0.0
  0
LINE
  5
120
330
1F
100
AcDbEntity
  8
点划线
100
AcDbLine
 10
75.04374044376077
 20
208.1428972771652
 30
0.0
 11
81.64374044376076
 21
208.1428972771652
 31
0.0
  0
LINE
  5
121
330
1F
100
AcDbEntity
  8
点划线
100
AcDbLine
 10
69.04374044376077
 20
202.1428972771652
 30
0.0
 11
69.04374044376077
 21
195.5428972771652
 31
0.0
  0
LINE
  5
122
330
1F
100
AcDbEntity
  8
点划线
100
AcDbLine
 10
69.04374044376077
 20
214.1428972771652
 30
0.0
 11
69.04374044376077
 21
220.7428972771652
 31
0.0
  0
LINE
  5
123
330
1F
100
AcDbEntity
  8
点划线
100
AcDbLine
 10
36.04374044376077
 20
178.1428972771652
 30
0.0
 11
42.04374044376077
 21
178.1428972771652
 31
0.0
  0
LINE
  5
124
330
1F
100
AcDbEntity
  8
点划线
100
AcDbLine
 10
39.04374044376077
 20
175.1428972771652
 30
0.0
 11
39.04374044376077
 21
181.1428972771652
 31
0.0
  0
LINE
  5
125
102
{ACAD_REACTORS
330
163
102
}
330
1F
100
AcDbEntity
  8
点划线
100
AcDbLine
 10
33.04374044376077
 20
178.1428972771652
 30
0.0
 11
28.24374044376077
 21
178.1428972771652
 31
0.0
  0
LINE
  5
126
330
1F
100
AcDbEntity
  8
点划线
100
AcDbLine
 10
45.04374044376077
 20
178.1428972771652
 30
0.0
 11
49.84374044376077
 21
178.1428972771652
 31
0.0
  0
LINE
  5
127
330
1F
100
AcDbEntity
  8
点划线
100
AcDbLine
 10
39.04374044376077
 20
172.1428972771652
 30
0.0
 11
39.04374044376077
 21
167.3428972771652
 31
0.0
  0
LINE
  5
128
330
1F
100
AcDbEntity
  8
点划线
100
AcDbLine
 10
39.04374044376077
 20
184.1428972771652
 30
0.0
 11
39.04374044376077
 21
188.9428972771652
 31
0.0
  0
LINE
  5
129
330
1F
100
AcDbEntity
  8
点划线
100
AcDbLine
 10
96.04374044376077
 20
178.1428972771652
 30
0.0
 11
102.0437404437608
 21
178.1428972771652
 31
0.0
  0
LINE
  5
12A
330
1F
100
AcDbEntity
  8
点划线
100
AcDbLine
 10
99.04374044376077
 20
175.1428972771652
 30
0.0
 11
99.04374044376077
 21
181.1428972771652
 31
0.0
  0
LINE
  5
12B
330
1F
100
AcDbEntity
  8
点划线
100
AcDbLine
 10
93.04374044376077
 20
178.1428972771652
 30
0.0
 11
86.44374044376077
 21
178.1428972771652
 31
0.0
  0
LINE
  5
12C
330
1F
100
AcDbEntity
  8
点划线
100
AcDbLine
 10
105.0437404437608
 20
178.1428972771652
 30
0.0
 11
111.6437404437608
 21
178.1428972771652
 31
0.0
  0
LINE
  5
12D
330
1F
100
AcDbEntity
  8
点划线
100
AcDbLine
 10
99.04374044376077
 20
172.1428972771652
 30
0.0
 11
99.04374044376077
 21
165.5428972771652
 31
0.0
  0
LINE
  5
12E
330
1F
100
AcDbEntity
  8
点划线
100
AcDbLine
 10
99.04374044376077
 20
184.1428972771652
 30
0.0
 11
99.04374044376077
 21
190.7428972771652
 31
0.0
  0
LINE
  5
12F
330
1F
100
AcDbEntity
  8
点划线
100
AcDbLine
 10
36.04374044376077
 20
136.1428972771652
 30
0.0
 11
42.04374044376077
 21
136.1428972771652
 31
0.0
  0
LINE
  5
130
330
1F
100
AcDbEntity
  8
点划线
100
AcDbLine
 10
39.04374044376077
 20
133.1428972771652
 30
0.0
 11
39.04374044376077
 21
139.1428972771652
 31
0.0
  0
LINE
  5
131
102
{ACAD_REACTORS
330
163
102
}
330
1F
100
AcDbEntity
  8
点划线
100
AcDbLine
 10
33.04374044376077
 20
136.1428972771652
 30
0.0
 11
26.44374044376077
 21
136.1428972771652
 31
0.0
  0
LINE
  5
132
330
1F
100
AcDbEntity
  8
点划线
100
AcDbLine
 10
45.04374044376077
 20
136.1428972771652
 30
0.0
 11
51.64374044376077
 21
136.1428972771652
 31
0.0
  0
LINE
  5
133
330
1F
100
AcDbEntity
  8
点划线
100
AcDbLine
 10
39.04374044376077
 20
130.1428972771652
 30
0.0
 11
39.04374044376077
 21
123.5428972771652
 31
0.0
  0
LINE
  5
134
330
1F
100
AcDbEntity
  8
点划线
100
AcDbLine
 10
39.04374044376077
 20
142.1428972771652
 30
0.0
 11
39.04374044376077
 21
148.7428972771652
 31
0.0
  0
LINE
  5
135
330
1F
100
AcDbEntity
  8
点划线
100
AcDbLine
 10
36.04374044376077
 20
178.1428972771652
 30
0.0
 11
42.04374044376077
 21
178.1428972771652
 31
0.0
  0
LINE
  5
136
330
1F
100
AcDbEntity
  8
点划线
100
AcDbLine
 10
39.04374044376077
 20
175.1428972771652
 30
0.0
 11
39.04374044376077
 21
181.1428972771652
 31
0.0
  0
LINE
  5
137
330
1F
100
AcDbEntity
  8
点划线
100
AcDbLine
 10
33.04374044376077
 20
178.1428972771652
 30
0.0
 11
26.44374044376077
 21
178.1428972771652
 31
0.0
  0
LINE
  5
138
330
1F
100
AcDbEntity
  8
点划线
100
AcDbLine
 10
45.04374044376077
 20
178.1428972771652
 30
0.0
 11
51.64374044376077
 21
178.1428972771652
 31
0.0
  0
LINE
  5
139
330
1F
100
AcDbEntity
  8
点划线
100
AcDbLine
 10
39.04374044376077
 20
172.1428972771652
 30
0.0
 11
39.04374044376077
 21
165.5428972771652
 31
0.0
  0
LINE
  5
13A
330
1F
100
AcDbEntity
  8
点划线
100
AcDbLine
 10
39.04374044376077
 20
184.1428972771652
 30
0.0
 11
39.04374044376077
 21
190.7428972771652
 31
0.0
  0
LINE
  5
13B
330
1F
100
AcDbEntity
  8
点划线
100
AcDbLine
 10
96.04374044376077
 20
136.1428972771652
 30
0.0
 11
102.0437404437608
 21
136.1428972771652
 31
0.0
  0
LINE
  5
13C
330
1F
100
AcDbEntity
  8
点划线
100
AcDbLine
 10
99.04374044376077
 20
133.1428972771652
 30
0.0
 11
99.04374044376077
 21
139.1428972771652
 31
0.0
  0
LINE
  5
13D
330
1F
100
AcDbEntity
  8
点划线
100
AcDbLine
 10
93.04374044376077
 20
136.1428972771652
 30
0.0
 11
86.44374044376077
 21
136.1428972771652
 31
0.0
  0
LINE
  5
13E
330
1F
100
AcDbEntity
  8
点划线
100
AcDbLine
 10
105.0437404437608
 20
136.1428972771652
 30
0.0
 11
111.6437404437608
 21
136.1428972771652
 31
0.0
  0
LINE
  5
13F
330
1F
100
AcDbEntity
  8
点划线
100
AcDbLine
 10
99.04374044376077
 20
130.1428972771652
 30
0.0
 11
99.04374044376077
 21
123.5428972771652
 31
0.0
  0
LINE
  5
140
330
1F
100
AcDbEntity
  8
点划线
100
AcDbLine
 10
99.04374044376077
 20
142.1428972771652
 30
0.0
 11
99.04374044376077
 21
148.7428972771652
 31
0.0
  0
LINE
  5
141
330
1F
100
AcDbEntity
  8
点划线
100
AcDbLine
 10
66.04374044376077
 20
106.1428972771652
 30
0.0
 11
72.04374044376077
 21
106.1428972771652
 31
0.0
  0
LINE
  5
142
330
1F
100
AcDbEntity
  8
点划线
100
AcDbLine
 10
69.04374044376077
 20
103.1428972771652
 30
0.0
 11
69.04374044376077
 21
109.1428972771652
 31
0.0
  0
LINE
  5
143
102
{ACAD_REACTORS
330
17B
102
}
330
1F
100
AcDbEntity
  8
点划线
100
AcDbLine
 10
63.04374044376077
 20
106.1428972771652
 30
0.0
 11
56.44374044376077
 21
106.1428972771652
 31
0.0
  0
LINE
  5
144
330
1F
100
AcDbEntity
  8
点划线
100
AcDbLine
 10
75.04374044376077
 20
106.1428972771652
 30
0.0
 11
81.64374044376076
 21
106.1428972771652
 31
0.0
  0
LINE
  5
145
330
1F
100
AcDbEntity
  8
点划线
100
AcDbLine
 10
69.04374044376077
 20
100.1428972771652
 30
0.0
 11
69.04374044376077
 21
93.54289727716518
 31
0.0
  0
LINE
  5
146
330
1F
100
AcDbEntity
  8
点划线
100
AcDbLine
 10
69.04374044376077
 20
112.1428972771652
 30
0.0
 11
69.04374044376077
 21
118.7428972771652
 31
0.0
  0
LWPOLYLINE
  5
149
330
1F
100
AcDbEntity
  8
轮廓线
100
AcDbPolyline
 90
        2
 70
     0
 43
0.0
 10
59.49186104753731
 20
105.1828972771651
 42
-0.2479731931129113
 10
38.08374044376075
 20
126.5910178809416
 42
0.0
  0
LWPOLYLINE
  5
14A
102
{ACAD_REACTORS
330
237
102
}
330
1F
100
AcDbEntity
  8
轮廓线
100
AcDbPolyline
 90
        2
 70
     0
 43
0.0
 10
78.59561983998458
 20
209.1028972771651
 42
-0.2479731931129069
 10
100.0037404437607
 20
187.6947766733888
 42
0.0
  0
DIMENSION
  5
14B
102
{ACAD_REACTORS
330
163
102
}
102
{ACAD_XDICTIONARY
360
159
102
}
330
1F
100
AcDbEntity
  8
文本层
100
AcDbDimension
  2
*D1
 10
12.77018522008166
 20
136.1428972771652
 30
0.0
 11
9.645185220081634
 21
157.1428972771652
 31
0.0
 70
    32
 71
     5
 42
42.0
  3
机械标注
100
AcDbAlignedDimension
 13
28.24374044376077
 23
178.1428972771652
 33
0.0
 14
28.24374044376076
 24
136.1428972771652
 34
0.0
 52
0.0
 50
90.0
100
AcDbRotatedDimension
  0
DIMENSION
  5
164
102
{ACAD_REACTORS
330
17B
102
}
102
{ACAD_XDICTIONARY
360
171
102
}
330
1F
100
AcDbEntity
  8
文本层
100
AcDbDimension
  2
*D2
 10
-0.428770287868367
 20
106.1428972771652
 30
0.0
 11
-3.553770287868382
 21
157.1428972771652
 31
0.0
 70
    32
 71
     5
 42
102.0
  3
机械标注
100
AcDbAlignedDimension
 13
59.74374044376077
 23
208.1428972771652
 33
0.0
 14
59.74374044376077
 24
106.1428972771652
 34
0.0
 52
0.0
 50
90.0
100
AcDbRotatedDimension
  0
DIMENSION
  5
17C
102
{ACAD_REACTORS
330
193
102
}
102
{ACAD_XDICTIONARY
360
189
102
}
330
1F
100
AcDbEntity
  8
文本层
100
AcDbDimension
  2
*D3
 10
211.9115653409663
 20
136.1428972771652
 30
0.0
 11
208.7865653409662
 21
157.1428972771652
 31
0.0
 70
    32
 71
     5
 42
42.0
  3
机械标注
100
AcDbAlignedDimension
 13
192.5676273477446
 23
178.1428972771652
 33
0.0
 14
192.5676273477446
 24
136.1428972771652
 34
0.0
 52
0.0
 50
90.0
100
AcDbRotatedDimension
  0
DIMENSION
  5
194
102
{ACAD_REACTORS
330
1AB
102
}
102
{ACAD_XDICTIONARY
360
1A1
102
}
330
1F
100
AcDbEntity
  8
文本层
100
AcDbDimension
  2
*D4
 10
155.5616376924919
 20
128.3428972771652
 30
0.0
 11
152.4366376924919
 21
136.1428972771652
 31
0.0
 70
    32
 71
     5
 42
15.60000000000002
  3
机械标注
100
AcDbAlignedDimension
 13
169.4676273477447
 23
143.9428972771652
 33
0.0
 14
169.4676273477447
 24
128.3428972771652
 34
0.0
 52
0.0
 50
90.0
100
AcDbRotatedDimension
  0
DIMENSION
  5
1AC
102
{ACAD_REACTORS
330
1C3
102
}
102
{ACAD_XDICTIONARY
360
1B9
102
}
330
1F
100
AcDbEntity
  8
文本层
100
AcDbDimension
  2
*D5
 10
183.8676273477446
 20
79.72925077502603
 30
0.0
 11
176.6676273477447
 21
82.85425077502603
 31
0.0
 70
    32
 71
     5
 42
14.39999999999998
  3
机械标注
100
AcDbAlignedDimension
 13
169.4676273477447
 23
96.54289727716518
 33
0.0
 14
183.8676273477446
 24
96.54289727716518
 34
0.0
 52
0.0
100
AcDbRotatedDimension
  0
DIMENSION
  5
1C4
102
{ACAD_REACTORS
330
1DB
102
}
102
{ACAD_XDICTIONARY
360
1D1
102
}
330
1F
100
AcDbEntity
  8
文本层
100
AcDbDimension
  2
*D6
 10
195.8676273477447
 20
62.71047522026251
 30
0.0
 11
182.6676273477447
 21
65.83547522026251
 31
0.0
 70
    32
 71
     5
 42
26.40000000000001
  3
机械标注
100
AcDbAlignedDimension
 13
169.4676273477447
 23
86.8860740260956
 33
0.0
 14
195.8676273477447
 24
119.3428972771652
 34
0.0
 52
0.0
100
AcDbRotatedDimension
  0
DIMENSION
  5
1DC
102
{ACAD_REACTORS
330
1F3
102
}
102
{ACAD_XDICTIONARY
360
1E9
102
}
330
1F
100
AcDbEntity
  8
文本层
100
AcDbDimension
  2
*D7
 10
181.4676273477447
 20
231.5529728277545
 30
0.0
 11
175.4676273477447
 21
234.6779728277545
 31
0.0
 70
    32
 71
     5
 42
12.0
  3
机械标注
100
AcDbAlignedDimension
 13
169.4676273477447
 23
217.7428972771652
 33
0.0
 14
181.4676273477447
 24
215.9428972771652
 34
0.0
 52
0.0
100
AcDbRotatedDimension
  0
DIMENSION
  5
1F4
102
{ACAD_REACTORS
330
20B
102
}
102
{ACAD_XDICTIONARY
360
201
102
}
330
1F
100
AcDbEntity
  8
文本层
100
AcDbDimension
  2
*D8
 10
189.5676273477446
 20
247.5816663466623
 30
0.0
 11
179.5176273477447
 21
250.7066663466623
 31
0.0
 70
    32
 71
     5
 42
20.09999999999997
  3
机械标注
100
AcDbAlignedDimension
 13
169.4676273477447
 23
217.7428972771652
 33
0.0
 14
189.5676273477446
 24
178.1428972771652
 34
0.0
 52
0.0
100
AcDbRotatedDimension
  0
DIMENSION
  5
20C
102
{ACAD_REACTORS
330
223
102
}
102
{ACAD_XDICTIONARY
360
219
102
}
330
1F
100
AcDbEntity
  8
文本层
100
AcDbDimension
  2
*D9
 10
185.0676273477447
 20
178.1428972771652
 30
0.0
 11
177.2676273477447
 21
181.2678972771652
 31
0.0
 70
    32
 71
     5
 42
15.59999999999999
  3
机械标注
100
AcDbAlignedDimension
 13
169.4676273477447
 23
181.6951456286799
 33
0.0
 14
185.0676273477447
 24
181.6951456286799
 34
0.0
 52
0.0
100
AcDbRotatedDimension
  0
DIMENSION
  5
224
102
{ACAD_REACTORS
330
237
102
}
102
{ACAD_XDICTIONARY
360
22F
102
}
330
1F
100
AcDbEntity
  8
文本层
100
AcDbDimension
  2
*D10
 10
69.04374044376074
 20
178.1428972771651
 30
0.0
 11
117.1435522642615
 21
225.6798518621348
 31
0.0
 70
   164
 71
     5
 42
32.40000000000006
  3
机械标注
100
AcDbRadialDimension
 15
89.92197881242468
 25
202.9190786338886
 35
0.0
 40
0.0
1001
ACAD
1000
DSTYLE
1002
{
1070
   288
1070
     1
1002
}
  0
DIMENSION
  5
24C
102
{ACAD_REACTORS
330
25F
102
}
102
{ACAD_XDICTIONARY
360
257
102
}
330
1F
100
AcDbEntity
  8
文本层
100
AcDbDimension
  2
*D12
 10
69.04374044376077
 20
208.1428972771652
 30
0.0
 11
88.05222633463265
 21
221.6342150467363
 31
0.0
 70
   164
 71
     5
 42
7.799999999999898
  3
机械标注
100
AcDbRadialDimension
 15
74.3938465297654
 25
213.8188434422107
 35
0.0
 40
0.0
1001
ACAD
1000
DSTYLE
1002
{
1070
   288
1070
     1
1002
}
  0
DIMENSION
  5
260
102
{ACAD_REACTORS
330
273
102
}
102
{ACAD_XDICTIONARY
360
26B
102
}
330
1F
100
AcDbEntity
  8
文本层
100
AcDbDimension
  2
*D13
 10
69.04374044376084
 20
208.1428972771652
 30
0.0
 11
54.83968239266089
 21
223.4859188999534
 31
0.0
 70
   164
 71
     5
 42
4.200000000000017
  3
机械标注
100
AcDbRadialDimension
 15
67.11870585915594
 25
211.8757570184461
 35
0.0
 40
0.0
1001
ACAD
1000
DSTYLE
1002
{
1070
   288
1070
     1
1002
}
  0
DIMENSION
  5
274
102
{ACAD_REACTORS
330
283
102
}
102
{ACAD_XDICTIONARY
360
27D
102
}
330
1F
100
AcDbEntity
  8
文本层
100
AcDbDimension
  2
*D14
 10
69.04374044376075
 20
136.1428972771651
 30
0.0
 11
68.03982309230938
 21
134.5989134486988
 31
0.0
 70
   164
 71
     5
 42
16.79999999999993
  3
机械标注
100
AcDbRadialDimension
 15
59.88583374454786
 25
122.058411312512
 35
0.0
 40
0.0
1001
ACAD
1000
DSTYLE
1002
{
1070
   288
1070
     1
1002
}
  0
VIEWPORT
  5
288
330
5E
100
AcDbEntity
 67
     1
  8
0
100
AcDbViewport
 10
133.3499908447266
 20
101.5999970436096
 30
0.0
 40
420.6540395483951
 41
228.4221935424805
 68
     1
 69
     1
 12
133.3499908447266
 22
101.5999970436096
 13
0.0
 23
0.0
 14
10.0
 24
10.0
 15
10.0
 25
10.0
 16
0.0
 26
0.0
 36
1.0
 17
0.0
 27
0.0
 37
0.0
 42
50.0
 43
0.0
 44
0.0
 45
228.4221935424805
 50
0.0
 51
0.0
 72
   100
 90
    32800
  1

281
     0
 71
     1
 74
     0
110
0.0
120
0.0
130
0.0
111
1.0
121
0.0
131
0.0
112
0.0
122
1.0
132
0.0
 79
     0
146
0.0
348
0
340
0
345
0
346
0
  0
VIEWPORT
  5
28A
330
5E
100
AcDbEntity
 67
     1
  8
文本层
100
AcDbViewport
 10
133.3499939441681
 20
101.5999939441681
 30
0.0
 40
213.3599903106689
 41
162.5599903106689
 68
     1
 69
     2
 12
106.6216844278462
 22
151.9154473099115
 13
0.0
 23
0.0
 14
10.0
 24
10.0
 15
10.0
 25
10.0
 16
0.0
 26
0.0
 36
1.0
 17
0.0
 27
0.0
 37
0.0
 42
50.0
 43
0.0
 44
0.0
 45
212.6505395213899
 50
0.0
 51
0.0
 72
   100
 90
    32864
  1

281
     0
 71
     1
 74
     0
110
0.0
120
0.0
130
0.0
111
1.0
121
0.0
131
0.0
112
0.0
122
1.0
132
0.0
 79
     0
146
0.0
348
0
340
0
345
0
346
0
  0
ENDSEC
  0
SECTION
  2
OBJECTS
  0
DICTIONARY
  5
C
330
0
100
AcDbDictionary
281
     1
  3
ACAD_GROUP
350
D
  3
ACAD_LAYOUT
350
1A
  3
ACAD_MLINESTYLE
350
17
  3
ACAD_PLOTSETTINGS
350
19
  3
ACAD_PLOTSTYLENAME
350
E
  3
AcDbVariableDictionary
350
67
  0
DICTIONARY
  5
D
102
{ACAD_REACTORS
330
C
102
}
330
C
100
AcDbDictionary
281
     1
  0
ACDBDICTIONARYWDFLT
  5
E
102
{ACAD_REACTORS
330
C
102
}
330
C
100
AcDbDictionary
281
     1
  3
Normal
350
F
100
AcDbDictionaryWithDefault
340
F
  0
ACDBPLACEHOLDER
  5
F
102
{ACAD_REACTORS
330
E
102
}
330
E
  0
DICTIONARY
  5
17
102
{ACAD_REACTORS
330
C
102
}
330
C
100
AcDbDictionary
281
     1
  3
Standard
350
18
  0
MLINESTYLE
  5
18
102
{ACAD_REACTORS
330
17
102
}
330
17
100
AcDbMlineStyle
  2
STANDARD
 70
     0
  3

 62
   256
 51
90.0
 52
90.0
 71
     2
 49
0.5
 62
   256
  6
BYLAYER
 49
-0.5
 62
   256
  6
BYLAYER
  0
DICTIONARY
  5
19
102
{ACAD_REACTORS
330
C
102
}
330
C
100
AcDbDictionary
281
     1
  0
DICTIONARY
  5
1A
102
{ACAD_REACTORS
330
C
102
}
330
C
100
AcDbDictionary
281
     1
  3
Model
350
22
  3
布局1
350
5A
  3
布局2
350
5F
  0
LAYOUT
  5
22
102
{ACAD_REACTORS
330
1A
102
}
330
1A
100
AcDbPlotSettings
  1

  2
none_device
  4
ANSI_A_(8.50_x_11.00_Inches)
  6

 40
6.349999904632568
 41
19.04999923706055
 42
6.350006103515625
 43
19.04998779296875
 44
215.8999938964844
 45
279.3999938964844
 46
0.0
 47
0.0
 48
0.0
 49
0.0
140
0.0
141
0.0
  6

142
1.0
143
57.07986212157697
 70
 11952
 72
     0
 73
     1
 74
     0
  7

 75
     0
147
0.01751931351673652
148
-2282.040442273535
149
2.561166666666503
100
AcDbLayout
  1
Model
 70
     1
 71
     0
 10
0.0
 20
0.0
 11
12.0
 21
9.0
 12
0.0
 22
0.0
 32
0.0
 14
0.0
 24
0.0
 34
0.0
 15
0.0
 25
0.0
 35
0.0
146
0.0
 13
0.0
 23
0.0
 33
0.0
 16
1.0
 26
0.0
 36
0.0
 17
0.0
 27
1.0
 37
0.0
 76
     0
330
1F
  0
LAYOUT
  5
5A
102
{ACAD_REACTORS
330
1A
102
}
330
1A
100
AcDbPlotSettings
  1

  2
none_device
  4
Letter_(8.50_x_11.00_Inches)
  6

 40
6.349999904632568
 41
6.349999904632568
 42
6.350006103515625
 43
6.350006103515625
 44
215.8999938964844
 45
279.3999938964844
 46
0.0
 47
0.0
 48
0.0
 49
0.0
140
0.0
141
0.0
  6

142
1.0
143
1.0
 70
   688
 72
     1
 73
     1
 74
     5
  7

 75
    16
147
1.0
148
0.0
149
0.0
100
AcDbLayout
  1
布局1
 70
     1
 71
     1
 10
-6.350006103515625
 20
-6.349999904632568
 11
273.0499877929688
 21
209.5499939918518
 12
0.0
 22
0.0
 32
0.0
 14
26.66999878883362
 24
20.31999878883363
 34
0.0
 15
240.0299890995026
 25
182.8799890995026
 35
0.0
146
0.0
 13
0.0
 23
0.0
 33
0.0
 16
1.0
 26
0.0
 36
0.0
 17
0.0
 27
1.0
 37
0.0
 76
     0
330
59
331
76
  0
LAYOUT
  5
5F
102
{ACAD_REACTORS
330
1A
102
}
330
1A
100
AcDbPlotSettings
  1

  2
none_device
  4
Letter_(8.50_x_11.00_Inches)
  6

 40
6.349999904632568
 41
6.349999904632568
 42
6.350006103515625
 43
6.350006103515625
 44
215.8999938964844
 45
279.3999938964844
 46
0.0
 47
0.0
 48
0.0
 49
0.0
140
0.0
141
0.0
  6

142
1.0
143
1.0
 70
   688
 72
     1
 73
     1
 74
     5
  7

 75
    16
147
1.0
148
0.0
149
0.0
100
AcDbLayout
  1
布局2
 70
     1
 71
     2
 10
-6.350006103515625
 20
-6.349999904632568
 11
273.0499877929688
 21
209.5499939918518
 12
0.0
 22
0.0
 32
0.0
 14
26.66999878883362
 24
20.31999878883363
 34
0.0
 15
240.0299890995026
 25
182.8799890995026
 35
0.0
146
0.0
 13
0.0
 23
0.0
 33
0.0
 16
1.0
 26
0.0
 36
0.0
 17
0.0
 27
1.0
 37
0.0
 76
     0
330
5E
331
28A
  0
DICTIONARY
  5
67
102
{ACAD_REACTORS
330
C
102
}
330
C
100
AcDbDictionary
281
     1
  3
DIMASSOC
350
68
  3
HIDETEXT
350
6C
  0
DICTIONARYVAR
  5
68
102
{ACAD_REACTORS
330
67
102
}
330
67
100
DictionaryVariables
280
     0
  1
2
  0
DICTIONARYVAR
  5
6C
102
{ACAD_REACTORS
330
67
102
}
330
67
100
DictionaryVariables
280
     0
  1
1
  0
DICTIONARY
  5
159
330
14B
100
AcDbDictionary
280
     1
281
     1
  3
ACAD_DIMASSOC
360
163
  0
DICTIONARY
  5
171
330
164
100
AcDbDictionary
280
     1
281
     1
  3
ACAD_DIMASSOC
360
17B
  0
DICTIONARY
  5
189
330
17C
100
AcDbDictionary
280
     1
281
     1
  3
ACAD_DIMASSOC
360
193
  0
DICTIONARY
  5
1A1
330
194
100
AcDbDictionary
280
     1
281
     1
  3
ACAD_DIMASSOC
360
1AB
  0
DICTIONARY
  5
1B9
330
1AC
100
AcDbDictionary
280
     1
281
     1
  3
ACAD_DIMASSOC
360
1C3
  0
DICTIONARY
  5
1D1
330
1C4
100
AcDbDictionary
280
     1
281
     1
  3
ACAD_DIMASSOC
360
1DB
  0
DICTIONARY
  5
1E9
330
1DC
100
AcDbDictionary
280
     1
281
     1
  3
ACAD_DIMASSOC
360
1F3
  0
DICTIONARY
  5
201
330
1F4
100
AcDbDictionary
280
     1
281
     1
  3
ACAD_DIMASSOC
360
20B
  0
DICTIONARY
  5
219
330
20C
100
AcDbDictionary
280
     1
281
     1
  3
ACAD_DIMASSOC
360
223
  0
DICTIONARY
  5
22F
330
224
100
AcDbDictionary
280
     1
281
     1
  3
ACAD_DIMASSOC
360
237
  0
DICTIONARY
  5
257
330
24C
100
AcDbDictionary
280
     1
281
     1
  3
ACAD_DIMASSOC
360
25F
  0
DICTIONARY
  5
26B
330
260
100
AcDbDictionary
280
     1
281
     1
  3
ACAD_DIMASSOC
360
273
  0
DICTIONARY
  5
27D
330
274
100
AcDbDictionary
280
     1
281
     1
  3
ACAD_DIMASSOC
360
283
  0
ENDSEC
  0
SECTION
  2
THUMBNAILIMAGE
 90
    18627
310
BF4800000201030100005000000002530100005C480000000000000000000000000000000000000000000000000000000000000000000000000000000000000000000000000000000000000000000000000000000000000000000000000000000000000000000028000000B400000061000000010008000000000034440000
310
00000000000000000001000000000000FFFFFF00FFFFFF0000000000FFFFFF00FFFFFF00FFFFFF00FFFFFF00FFFFFF00FFFFFF00FFFFFF00FFFFFF00330000006600000099000000CC000000FF00000000330000333300006633000099330000CC330000FF33000000660000336600006666000099660000CC660000FF6600
310
0000990000339900006699000099990000CC990000FF99000000CC000033CC000066CC000099CC0000CCCC0000FFCC000000FF000033FF000066FF000099FF0000CCFF0000FFFF000000003300330033006600330099003300CC003300FF00330000333300333333006633330099333300CC333300FF333300006633003366
310
33006666330099663300CC663300FF66330000993300339933006699330099993300CC993300FF99330000CC330033CC330066CC330099CC3300CCCC3300FFCC330000FF330033FF330066FF330099FF3300CCFF3300FFFF330000006600330066006600660099006600CC006600FF00660000336600333366006633660099
310
336600CC336600FF33660000666600336666006666660099666600CC666600FF66660000996600339966006699660099996600CC996600FF99660000CC660033CC660066CC660099CC6600CCCC6600FFCC660000FF660033FF660066FF660099FF6600CCFF6600FFFF660000009900330099006600990099009900CC009900
310
FF00990000339900333399006633990099339900CC339900FF33990000669900336699006666990099669900CC669900FF66990000999900339999006699990099999900CC999900FF99990000CC990033CC990066CC990099CC9900CCCC9900FFCC990000FF990033FF990066FF990099FF9900CCFF9900FFFF99000000CC
310
003300CC006600CC009900CC00CC00CC00FF00CC000033CC003333CC006633CC009933CC00CC33CC00FF33CC000066CC003366CC006666CC009966CC00CC66CC00FF66CC000099CC003399CC006699CC009999CC00CC99CC00FF99CC0000CCCC0033CCCC0066CCCC0099CCCC00CCCCCC00FFCCCC0000FFCC0033FFCC0066FF
310
CC0099FFCC00CCFFCC00FFFFCC000000FF003300FF006600FF009900FF00CC00FF00FF00FF000033FF003333FF006633FF009933FF00CC33FF00FF33FF000066FF003366FF006666FF009966FF00CC66FF00FF66FF000099FF003399FF006699FF009999FF00CC99FF00FF99FF0000CCFF0033CCFF0066CCFF0099CCFF00CC
310
CCFF00FFCCFF0000FFFF0033FFFF0066FFFF0099FFFF00CCFFFF0000000000FFFFFF000D0D0D001A1A1A00282828003535350043434300505050005D5D5D006B6B6B00787878008686860093939300A1A1A100AEAEAE00BBBBBB00C9C9C900D6D6D600E4E4E400F1F1F10000000000FFFFFF00FFFFFF00FFFFFF00FFFFFF00
310
FFFFFF00FFFFFF00FFFFFF00FFFFFF00FFFFFF00FFFFFF0000000000000000000000000000000000000000000000000000000000000000000000000000000000000000000000000000000000000000000000000000000000000000000000000000000000000000000000000000000000000000000000000000000000000000
310
00000000000000000000000000000000000000000000000000000000000000000000000000000000000000000000000000000000000000000000000000000000000000000000000000000000000000000000000000000000000000000000000000000000000000000000000000000000000000000000000000000000000000
310
00000000000000000000000000000000000000000000000000000000000000000000000000000000000000000000000000000000000000000000000000000000000000000000000000000000000000000000000000000000000000000000000000000000000000000000000000000000000000000000000000000000000000
310
00000000000000000000000000000000000000000000000000000000000000000000000000000000000000000000000000000000000000000000000000000000000000000000000000000000000000000000000000000000000000000000000000000000000000000000000000000000000000000000000000000000000000
310
00000000000000000000000000000000000000000000000000000000000000000000000000000000000000000000000000000000000000000000000000000000000000000000000000000000000000000000000000000000000000000000000000000000000000000000000000000000000000000000000000000000000000
310
00000000000000000000000000000000000000000000000000000000000000000000000000000000000000000000000000000000000000000000000000000000000000000000000000000000000000000000000000000000000000000000000000000000000000000000000000000000000000000000000000000000000000
310
0000000000000000000000000000000000000000000000000000000000000000000000000000000000000000000000000000000000000000000000000000000000000000000000000000000000000000000000000000000000000000000000009E009E00000000000000009E9E000000000000000000000000000000000000
310
00000000000000000000000000000000000000000000000000000000000000000000000000000000000000000000000000000000000000000000000000000000000000000000000000000000000000000000000000000000000000000000000000000000000000000000000000000000000000000000000000000000000000
310
000000000000000000000000000000000000000000009E9E9E9E9E9E9E9E9E9E9E9E9E0000000000000000000000000000000000000000000000000000000000000000000000000000000000000000000000000000000000000000000000000000000000000000000000000000000000000000000000000000000000000000
310
0000000000000000000000000000000000000000000000000000000000000000000000000000000000000000000000000000000000000000000000000000000000000000000000000000009E0000009E9E9E009E9E00009E000000000000000000000000000000000000000000000000000000000000000000000000000000
310
00000000000000000000000000000000000000000000000000000000000000000000000000000000000000000000000000000000000000000000000000000000000000000000000000000000000000000000000000000000000000000000000000000000000000000000000000000000000000000000000000000000000000
310
009E0000009E9E9E009E0000009E0000000000000000000000000000000000000000000000000000000000000000000000000000000000000000000000000000000000000000000000000000000000000000000000000000000000000000000000000000000000000000000000000000000000000000000000000000000000
310
0000000000000000000000000000000000000000000000000000000000000000000000000000000000000000000000000000000000009E00000000000000000000009E000000000000000000000000000000000000000000000000000000000000000000000000000000000000000000000000000000000000000000000000
310
00000000000000000000000000000000000000000000000000000000000000000000000000000000000000000000000000000000000000000000000000000000000000000000000000000000000000000000000000000000000000000000000000000000000000000000009E00000000000000000000009E00000000000000
310
00000000000000000000000000000000000000000000000000000000000000000000000000000000000000000000000000000000000000000000000000000000000000000000000000000000000000000000000000000000000000000000000000000000000000000000000000000000000000000000000000000000000000
310
0000000000000000000000000000000000000000000000000000000000000000009E00000000000000000000009E000000000000000000000000000000000000000000000000000000000000000000000000000000000000000000000000000000000000000000000000000000000000000000000000000000000000000000
310
00000000000000000000000000000000000000000000000000000000000000000000000000000000000000000000000000000000000000000000000000000000000000000000000000000000000000000000000000009E0000000000009E000000009E00000000000000000000000000000000000000000000000000000000
310
00000000000000000000000000000000000000000000000000000000000000000000000000000000000000000000000000000000000000000000000000000000000000000000000000000000000000000000000000000000000000000000000000000000000000000000000000000000000000000000000000000000000000
310
0000000000000000000000009E9E9E9E9E9E9E9E000000009E000000000000000000000000000000000000000000000000000000000000000000000000000000000000000000000000000000000000000000000000000000000000000000000000000000000000000000000000000000000000000000000000000000000000
310
00000000000000000000000000000000000000000000000000000000000000000000000000000000000000000000000000000000000000000000000000000000009E9E9E9E9E9E9E9E000000009E00000000000000000000000000000000000000000000000000000000000000000000000000000000000000000000000000
310
000000000000000000000000000000000000000000000000000000000000000000000000000000000000000000000000000000000000000000000000000000000000000000000000000000000000000000000000000000000000000000000000000000000000000000000000000000000000000000009E9E9E9E009E9E9E00
310
0000009E000000000000000000000000000000000000000000000000000000000000000000000000000000000000000000000000000000000000000000000000000000000000000000000000000000000000000000000000000000000000000000000000000000000000000000000000000000000000000000000000000000
310
00000000000000000000000000000000000000000000000000000000000000000000000000000000000000009E009E9E00009E9E000000009E00000000000000000000000000000000000000000000000000000000000000000000000000000000000000000000000000000000000000000000000000000000000000000000
310
000000000000000000000000000000000000000000000000000000000000000000000000000000000000000000000000000000000000000000000000000000000000000000000000000000000000000000000000000000000000000000000000009E0000000000009E000000009E0000000000000000000000000000000000
310
00000000000000000000000000000000000000000000000000000000000000000000000000000000000000000000000000000000000000000000000000000000000000000000000000000000000000000000000000000000000000000000000000000000000000000000000000000000000000000000000000000000000000
310
00000000000000000000000000000000000000000000009E0000000000009E000000009E00000000000000000000000000000000000000000000000000000000000000000000000000000000000000000000000000000000000000000000000000000000000000000000000000000000000000000000000000000000000000
310
00000000000000000000000000000000000000000000000000000000000000BE00000000000000000000000000000000000000000000000000000000000000000000000000000000000000009E0000000000009E000000009E0000000000000000000000000000000000000000000000000000000000000000000000000000
310
000000000000000000000000000000000000000000000000000000000000000000000000000000000000000000000000000000000000000000000000000000000000000000000000000000000000000000F5F5F5BEF5F5F5F50000000000000000000000000000000000000000000000000000000000000000000000000000
310
0000F5F5F5F5F5F5F5F5000000009E00000000000000000000000000000000000000000000000000000000000000000000000000000000000000000000000000000000000000000000000000000000000000000000000000000000000000000000000000000000000000000000000000000000000000000000000000000000
310
000000000000F5F5F5F5BEF5F5F5F5F50000000000000000000000000000000000000000000000000000000000000000000000000000F5F5F5F5F5F5F5F5F5F50000009E0000000000000000000000000000000000000000000000000000000000000000000000000000000000000000000000000000000000000000000000
310
00000000000000000000000000000000000000000000000000000000000000000000000000000000000000000000000000000000000000000000F5F5F5F5F5F5F5F5F5F5F5F500000000000000000000000000000000000000000000000000000000000000000000000000F5F5F5F5F5F5F5F5F5F50000009E000000000000
310
000000000000000000000000000000000000000000000000000000000000000000000000000000000000000000000000000000000000000000000000000000000000000000000000000000000000000000000000000000000000000000000000000000000000000000000000000000F5F5F5F5F5F5F5F5F5F5F5F500000000
310
000000000000000000000000000000000000000000000000000000000000000000F5F5F5F5F5F5F5F5F5F50000009E0000000000000000000000000000000000000000000000000000000000000000000000000000000000000000000000000000000000000000000000000000000000000000000000000000000000000000
310
0000000000000000000000000000000000000000000000000000000000000000000000F5F5F5F5F5F5F5BEF5F5F5F5F5F5F5F50000000000000000000000000000000000000000000000000000000000000000000000F5F5F5F5F5F5F5F5F5F50000009E000000000000000000000000000000000000000000000000000000
310
0000000000000000000000000000000000000000000000000000000000000000000000000000000000000000000000000000000000000000000000000000009E9E9E9E9E9E9E9E9E9E9E9E9E9E9E9E9E9E9E9E9E9E9E9E9E9E9EBEBEBEBEBEBEBEBEF5F5F5BEF5F5F5F5000000000000000000000000000000000000000000
310
000000000000000000000000BEBEBEBEBEBEF5F5F5F50000009E000000000000000000000000000000000000000000000000000000000000000000000000000000000000000000000000000000000000000000000000000000000000000000000000000000000000000000000000000000000000009E9E0000000000000000
310
0000000000000000000000F5F5F5F5F5F5F5F5F5F5BEF5F5F5F5F5F5F5F5F5F5F50000000000000000000000000000000000000000000000000000000000000000F5F5F5F5F5F5F5F5F5F50000009E000000000000000000000000000000000000000000000000000000000000000000000000000000000000000000000000
310
000000000000000000000000000000000000000000000000000000000000000000000000000000000000009E00000000000000000000000000000000000000F5F5F5F5F5F500F5F5F5F5BEF5F5F5F5F500F5F5F5F5F5F500000000000000000000000000000000000000000000000000000000000000F5F5F5F5F5F5F5F5F5
310
F50000009E000000000000000000000000000000000000000000000000000000000000000000000000000000000000000000000000000000000000000000000000000000000000000000000000000000000000000000000000000000000000009E000000000000000000000000000000000000F5F5F5F5F5F5000000F5F5F5
310
BEF5F5F5F5000000F5F5F5F5F5F5000000000000000000000000000000000000000000000000000000000000F5F5F5F5F5F5F5F5F5F50000009E000000000000000000000000000000000000000000000000000000000000000000000000000000000000000000000000000000000000000000000000000000000000000000
310
000000000000000000000000000000000000000000009E0000000000000000000000000000000000F5F5F5F5F5F500000000F5F5F5BEF5F5F5F500000000F5F5F5F5F5F50000000000000000000000000000000000000000000000000000000000F5F5F500200020F5F5F50000009E00000000000000000000000000000000
310
0000000000000000000000000000000000000000000000000000000000000000000000000000000000000000000000000000000000000000000000000000000000000000000000000000009E0000000000000000000000000000000000F5F5F5F50000000000F5F5F5F5BEF5F5F5F5F50000000000F5F5F5F5000000000000
310
0000000000000000000000000000000000000000000000F5F5F520002000F5F5F5F5F5F5F5000000000000000000000000000000000000000000000000000000000000000000000000000000000000000000000000000000000000000000000000000000000000000000000000000000000000000000000000000000000000
310
009E00000000000000000000000000000000F5F5F5F5F500000000F5F5F5F5F5F5F5F5F5F5F5F500000000F5F5F5F5F500000000000000000000000000000000000000000000000000000000F5F5F500200020F5F5F5F5F5F5F5F5000000000000000000000000000000000000000000000000000000000000000000000000
310
0000000000000000000000000000000000000000000000000000000000000000000000000000000000000000000000000000000000009E00000000000000000000000000000000F5F5F5F500000000F5F59EF5F5F5F5F5F5F5F5F5F5F500000000F5F5F5F50000000000000000000000000000000000000000000000000000
310
0000F5F5F52000200020F5F5F5F5F5F5F50000000000000000000000000000000000000000000000000000000000000000000000000000000000000000000000000000000000000000000000000000000000000000000000000000000000000000000000000000000000009E0000000000000000000000000000F5F5F5BEF5
310
F5000000F5F5F5F59EF500000000F5F5F5F5F5F5000000F5F5BEF5F5F50000000000000000000000000000000000000000000000000000F5F5F5202000200020002000F5F5F5000000000000000000000000000000000000000000000000000000000000000000000000000000000000000000000000000000000000000000
310
0000000000000000000000000000000000000000000000000000000000000000009E00000000000000000000000000F5F5F5F5BEF5F5F500F5F5F5F5F5009E000000000000F5F5F5F50000F5F5F5BEF5F5F5F500000000000000000000000000000000000000000000000000F5F5F5F5F5F5F5F5F5F50020F5F5F500000000
310
00000000000000000000000000000000000000000000000000000000000000000000000000000000000000000000000000000000000000000000000000000000000000000000000000000000000000000000000000009E000000000000000000000000F5F5F5F5F5BEF5F5F5F5F5F5F5F500009E00000000000000F5F5F5F5
310
F5F5F5F5BEF5F5F5F5F50000000000000000000000000000000000009E9E9E9E9E9EF5F5F5F5F5F5F5F5F5F5F500F5F5F5000000000000000000000000000000000000000000000000000000000000000000000000000000000000000000000000000000000000000000000000000000000000000000000000000000000000
310
0000000000000000000000009E000000000000000000000000F5F5F5F5F5F5F5F5F5F5F5F5F5F59E9E9E9E000000000000F5F5F5F5F5F5F5F5F5F5F5F5F5F500000000000000000000000000000000009E9E9E00000000F5F5F5F5F5F5F5F5F5F5F520F5F5F500000000000000000000000000000000000000000000000000
310
00000000000000000000000000000000000000000000000000000000000000000000000000000000000000000000000000000000000000000000000000000000009E000000000000000000000000F5F5F5F5F5BEF5F5F5F5F5F5F500009E9E9E9E000000000000F5F5F5F5F5F5F5BEF5F5F5F5F50000000000000000000000
310
0000000000009E9E9E00000000F5F5F500000000F5F5F5F5F5F5F5F50000000000000000000000000000000000000000000000000000000000000000000000000000000000000000000000000000000000000000000000000000000000000000000000000000000000000000000000000000000000009E000000009E9E9E9E
310
9E9E9EBEBEBEF5F5BEBEBEF5BEBEBEBEF500009E9E9E9E9E0000000000F5BEBEBEBEF5BEBEBEF5BEBEBEBE000000000000000000000000000000009E9E9E00000000BEBEBEBEBEBEBEF5F5F5F5F5BE9E9E9E9E9E9E9E9E9E000000000000000000000000000000000000000000000000000000000000000000000000000000
310
00000000000000000000000000000000000000000000000000000000000000000000000000000000000000009E00000000009E9E0000000000F5F5F5F5F5BEF5F5F5F5F5F5F50000009E9E9E9E0000000000F5F5F5F5F5F5F5BEF5F5F5F5F500000000000000000000000000000000009E9E9E00000000F5F5F500000000F5
310
F5F5F5F5F5F5F500000000009E9E00000000000000000000000000000000000000000000000000000000000000000000000000000000000000000000000000000000000000000000000000000000000000000000000000000000000000000000009E00000000009E9E0000000000F5F5F5F5F5F5F5F5F5F5F5F5F500000000
310
9E9E9E9E00000000F5F5F5F5F5F5F5F5F5F5F5F5F500000000000000000000000000000000009E9E9E00000000F5F5F500000000F5F5F5F520F5F5F500000000009E9E000000000000000000000000000000000000000000000000000000000000000000000000000000000000000000000000000000000000000000000000
310
00000000000000000000000000000000000000000000009E00000000009E000000000000F5F5F5F5F5BEF5F5F5F5F5F5F5000000009E9E9E0000000000F5F5F5F5F5F5F5BEF5F5F5F5F5000000000000000000000000000000000000009E00000000F5F5F5F5F5F5F5F5F5F5F500F5F5F500000000009E0000000000000000
310
000000000000000000000000000000000000000000000000000000000000000000000000000000000000000000000000000000000000000000000000000000000000000000000000000000009E00000000009E000000000000F5F5F5F5F5BEF5F5F500F5F5F5000000000000000000000000F5F5F500F5F5F5BEF5F5F5F5F5
310
0000000000000000000000000000000000009E9E9E9E9E9EF5F5F5F5F5F5F5F5F5F52000F5F5F500000000009E00000000000000000000000000000000000000000000000000000000000000000000000000000000000000000000000000000000000000000000000000000000000000000000000000000000000000000000
310
00009E00000000009E000000000000F5F5F500F5BEF5000000F5F5F5000000000000000000000000F5F5F5000000F5BEF500F5F5F5000000000000000000000000000000000000000000000000F5F5F5F5F5F5F5F5F5200020F5F5F500000000009E0000000000000000000000000000000000000000000000000000000000
310
000000000000000000000000000000000000000000000000000000000000000000000000000000000000000000000000000000000000009E00000000009E000000000000F5F5F50000BE00000000F5F5F5000000000000000000000000F5F5F500000000BE0000F5F5F5000000000000000000000000000000000000000000
310
000000F5F5F5200020200020002000F5F5F500000000009E000000000000000000000000000000000000000000000000000000000000000000000000000000000000000000000000000000000000000000000000000000000000000000000000000000000000000000009E009E00000000009E000000000000F5F5F5000000
310
00000000F5F5F5000000000000000000000000F5F5F500000000000000F5F5F5000000000000000000000000000000000000000000000000F5F5F5002000202000202020F5F5F500000000009E0000000000000000000000000000000000000000000000000000000000000000000000000000000000000000000000000000
310
00000000000000000000000000000000000000000000000000000000000000009E9E9E000000009E9E000000000000F5F5F500000000000000F5F5F5000000000000000000000000F5F5F500000000000000F5F5F5000000000000000000000000000000000000000000000000F5F5F5200020002020200020F5F5F5000000
310
009E9E000000000000000000000000000000000000000000000000000000000000000000000000000000000000000000000000000000000000000000000000000000000000000000000000000000000000000000009E9E9E0000009E9E9E000000000000F5F5F500000000000000F5F5F5000000000000000000000000F5F5
310
F500000000000000F5F5F5000000000000000000000000000000000000000000000000F5F5F5002000200020002000F5F5F50000009E9E9E0000000000000000000000000000000000000000000000000000000000000000000000000000000000000000000000000000000000000000000000000000000000000000000000
310
00000000000000000000009E9E9E0000009E9E9E000000000000F5F5F500000000000000F5F5F5000000000000000000000000F5F5F500000000000000F5F5F5000000000000000000000000000000000000000000000000F5F5F5200020002000200020F5F5F50000009E9E9E000000000000000000000000000000000000
310
000000000000000000000000000000000000000000000000000000000000000000000000000000000000000000000000000000000000000000000000000000009E9E9E0000009E9E9E000000000000F5F5F500000000000000F5F5F5000000000000000000000000F5F5F500000000000000F5F5F500000000000000000000
310
0000000000000000000000000000F5F5F5202000200020002000F5F5F50000009E9E9E0000000000000000000000000000000000000000000000000000000000000000000000000000000000000000000000000000000000000000000000000000000000000000000000000000000000000000000000009E00000000009E00
310
0000000000F5F5F500000000000000F5F5F5000000000000000000000000F5F5F500000000000000F5F5F5000000000000000000000000000000000000000000000000F5F5F5002020002000200020F5F5F500000000009E000000000000000000000000000000000000000000000000000000000000000000000000000000
310
0000000000000000000000000000000000000000000000000000000000000000000000000000000000000000009E00000000009E000000000000F5F5F50000BE00000000F5F5F5000000000000000000000000F5F5F500000000BE0000F5F5F5000000000000000000000000000000000000000000000000F5F5F520002020
310
0020002000F5F5F500000000009E0000000000000000000000000000000000000000000000000000000000000000000000000000000000000000000000000000000000000000000000000000000000000000000000000000000000000000000000009E00000000009E000000000000F5F5F5F5F5BEF5F50000F5F5F5000000
310
000000000000000000F5F5F50000F5F5BEF5F5F5F5F5000000000000000000000000000000000000000000000000F5F5F5F5F5F5F5F5F5200020F5F5F500000000009E000000000000000000000000000000000000000000000000000000000000000000000000000000000000000000000000000000000000000000000000
310
0000000000000000000000000000000000000000000000009E00000000009E000000000000F5F5F5F5F5BEF5F5F5F5F5F5F5000000000000000000000000F5F5F5F5F5F5F5BEF5F5F5F5F5000000000000000000000000000000000000000000000000F5F5F5F5F5F5F5F5F5F52000F5F5F500000000009E00000000000000
310
00000000000000000000000000000000000000000000000000000000000000000000000000000000000000000000000000000000000000000000000000000000000000000000000000000000009E00000000009E000000000000F5F5F5F5F5BEF5F5F5F5F5F5F5000000000000000000000000F5F5F5F5F5F5F5BEF5F5F5F5
310
F5000000000000000000000000000000000000000000000000F5F5F5F5F5F5F5F5F5F5F520F5F5F500000000009E000000000000000000000000000000000000000000000000000000000000000000000000000000000000000000000000000000000000000000000000000000000000000000000000000000000000000000
310
0000009E00000000009E9E0000000000F5F5F5F5F5BEF5F5F5F5F5F5F5000000000000000000000000F5F5F5F5F5F5F5BEF5F5F5F5F5000000000000000000000000000000000000000000000000F5F5F500000000F5F5F5F520F5F5F500000000009E9E000000000000000000000000000000000000000000000000000000
310
00000000000000000000000000000000000000000000000000000000000000000000000000000000000000000000000000000000000000009E00000000009E9E0000000000F5F5F5F5F5BEF5F5F5F5F5F5F5000000000000000000000000F5F5F5F5F5F5F5BEF5F5F5F5F50000000000000000000000000000000000000000
310
00000000F59EF59E000000F5F5F5F5F5F5F5F500000000009E9E00000000000000000000000000000000000000000000000000000000000000000000000000000000000000000000000000000000000000000000000000000000000000000000000000000000000000000000009E000000009E9E9E9E9E9E9EBEBEBEF5F5BE
310
BEBEF5BEBEBEBEF500000000009E000000000000F5BEBEBEBEF5BEBEBEF5BEBEBEBE0000000000000000000000000000000000000000000000BE9E9E9E9E9E9EF5F5F5F5F5BE9E9E9E9E9E9E9E9E9E000000000000000000000000000000000000000000000000000000000000000000000000000000000000000000000000
310
00000000000000000000000000000000000000000000000000000000000000000000009E000000000000000000000000F5F5F5F5F5BEF5F5F5F5F5F5F50000000000009E00000000F5F5F5F5F5F5F5F5BEF5F5F5F5F5000000000000000000000000000000000000000000000000F59EF59E9E9E9EF5F5F5F5F5F5F5F50000
310
000000000000000000000000000000000000000000000000000000000000000000000000000000000000000000000000000000000000000000000000000000000000000000000000000000000000000000000000000000009E000000000000000000000000F5F5F5F5F5BEF5F5F5F5F5F5F5F50000000000009E000000F5F5
310
F5F5F5F5F5F5BEF5F5F5F5F5000000000000000000000000000000000000000000000000F5F5F59E9E9E9EF5F5F5F520F5F5F500000000000000000000000000000000000000000000000000000000000000000000000000000000000000000000000000000000000000000000000000000000000000000000000000000000
310
00000000000000000000000000009E000000000000000000000000F5F5F5F5F5BEF5F5F5F5F5F5F5F5F50000000000009E00F5F5F5F5F5F5F5F5F5BEF5F5F5F5F5000000000000000000000000000000000000000000000000F5F5F5F5F5F5F5F5F5F5F500F5F5F50000000000000000000000000000000000000000000000
310
000000000000000000000000000000000000000000000000000000000000000000000000000000000000000000000000000000000000000000000000000000000000009E00000000000000000000000000F5F5F5F5BEF5F5F50000F5F5F5F5F50000000000009EF5F5F5F50000F5F5F5BEF5F5F5F500000000000000000000
310
000000000000000000000000000000F5F5F5F5F5F5F5F5F5F59E20F5F5F50000000000000000000000000000000000000000000000000000000000000000000000000000000000000000000000000000000000000000000000000000000000000000000000000000000000000000000000000000000000009E000000000000
310
000000000000000000F5F5BEF5F5000000F5F5F5F5F5F5F50000F5F5F59EF5F5F5000000F5F5BEF5F5000000000000000000000000000000000000000000000000000000F5F5F5200020202000209E20F5F5F50000000000000000000000000000000000000000000000000000000000000000000000000000000000000000
310
000000000000000000000000000000000000000000000000000000000000000000000000000000000000000000009E00000000000000000000000000000000F5F5F5F500000000F5F5F5F5F5F5F5F5F5F5F59EF5F500000000F5F5F5F500000000000000000000000000000000000000000000000000000000F5F5F5002020
310
0020F5F5F5F5F5F5F50000000000000000000000000000000000000000000000000000000000000000000000000000000000000000000000000000000000000000000000000000000000000000000000000000000000000000000000000000000000009E00000000000000000000000000000000F5F5F5F5F500000000F5F5
310
F5F5F5BEF5F5F5F5F59E00000000F5F5F5F5F500000000000000000000000000000000000000000000000000000000F5F5F520000020F5F5F5F5F5F5F5F50000000000000000000000000000000000000000000000000000000000000000000000000000000000000000000000000000000000000000000000000000000000
310
000000000000000000000000000000000000000000000000009E0000000000000000000000000000000000F5F5F5F5F50000000000F5F5F5BEF5F5F5F500009E0000F5F5F5F5F50000000000000000000000000000000000000000000000000000000000F5F5F520202000F5F5F5F5F5F5F500000000000000000000000000
310
0000000000000000000000000000000000000000000000000000000000000000000000000000000000000000000000000000000000000000000000000000000000000000000000000000000000009E000000000000000000000000000000000000F5F5F5F5F500000000F5F5F5BEF5F5F5F50000009EF5F5F5F5F500000000
310
0000000000000000000000000000000000000000000000000000F5F5F5002000F5F5F5F59E000000000000000000000000000000000000000000000000000000000000000000000000000000000000000000000000000000000000000000000000000000000000000000000000000000000000000000000000000000000000
310
000000009E000000000000000000000000000000000000F5F5F5F5F5F50000F5F5F5F5BEF5F5F5F5F50000F59EF5F5F5F5000000000000000000000000000000000000000000000000000000000000F5F5F5F5F5F5F5F5F5F59E00000000000000000000000000000000000000000000000000000000000000000000000000
310
0000000000000000000000000000000000000000000000000000000000000000000000000000000000000000000000000000000000000000009E9E000000000000000000000000000000000000F5F5F5F5F5F5F5F5F5F5F5F5F5F5F5F5F5F5F5F5F59EF5F50000000000000000000000000000000000000000000000000000
310
0000000000F5F5F5F5F5F5F5F5F5F59E000000000000000000000000000000000000000000000000000000000000000000000000000000000000000000000000000000000000000000000000000000000000000000000000000000000000000000000000000000000000000000009E9E000000000000000000000000000000
310
00000000F5F5F5F5F5F5F5F5F5F5BEF5F5F5F5F5F5F5F5F5F59E0000000000000000000000000000000000000000000000000000000000000000F5F5F5F5F5F5F5F5F5F59E00000000000000000000000000000000000000000000000000000000000000000000000000000000000000000000000000000000000000000000
310
00000000000000000000000000000000000000000000000000000000000000000000009E9E9E9E9E9E9E9E9E9E9E9E9E9E9E9E9E9E9E9E9E9E9E9EF5F5F5BEBEBEBEBEBEBEBEF5F5F5F5F5F5F500009E00000000000000000000000000000000000000000000000000000000000000BEBEBEBEBEBEF5F5F5BE9E0000000000
310
0000000000000000000000000000000000000000000000000000000000000000000000000000000000000000000000000000000000000000000000000000000000000000000000000000000000000000000000000000000000000000000000000000000000000000000000000000000000F5F5F5F5F5F5F5BEF5F5F5F5F5F5
310
F5F5000000009E000000000000000000000000000000000000000000000000000000000000F5F5F5F5F5F5F5F5F5F59E00000000000000000000000000000000000000000000000000000000000000000000000000000000000000000000000000000000000000000000000000000000000000000000000000000000000000
310
0000000000000000000000000000000000000000000000000000000000000000000000000000000000F5F5F5F5F5BEF5F5F5F5F5F50000000000009E000000000000000000000000000000000000000000000000000000000000F5F5F5F5F5F5F5F5F5F59E0000000000000000000000000000000000000000000000000000
310
0000000000000000000000000000000000000000000000000000000000000000000000000000000000000000000000000000000000000000000000000000000000000000000000000000000000000000000000000000000000000000000000F5F5F5F5BEF5F5F5F5F500000000000000009E00000000000000000000000000
310
00000000000000000000000000000000F5F5F5F5F5F5F5F5F5F59E00000000000000000000000000000000000000000000000000000000000000000000000000000000000000000000000000000000000000000000000000000000000000000000000000000000000000000000000000000000000000000000000000000000
310
000000000000000000000000000000000000000000F5F5F5F5BEF5F5F5F5F50000000000000000009E00000000000000000000000000000000000000000000000000000000F5F5F5F5F5F5F5F5F5F59E0000000000000000000000000000000000000000000000000000000000000000000000000000000000000000000000
310
000000000000000000000000000000000000000000000000000000000000000000000000000000000000000000000000000000000000000000000000000000000000000000000000000000F5F5F5BEF5F5F5009E000000000000000000009E00000000000000000000000000000000000000000000000000000000F5F5F5F5
310
F5F5F5F5009E00000000000000000000000000000000000000000000000000000000000000000000000000000000000000000000000000000000000000000000000000000000000000000000000000000000000000000000000000000000000000000000000000000000000000000000000000000000000000000000000000
310
00009E000000000000009E9E9E9E9E9E000000009E000000000000000000000000000000000000000000000000000000009E00000000009E00009E0000000000000000000000000000000000000000000000000000000000000000000000000000000000000000000000000000000000000000000000000000000000000000
310
000000000000000000000000000000000000000000000000000000000000000000000000000000000000000000000000009E9E9E9E9E9E0000000000000000009E9E9E9E9E00000000009E0000000000000000000000000000000000000000000000000000009E00000000009E00009E000000000000000000000000000000
310
0000000000000000000000000000000000000000000000000000000000000000000000000000000000000000000000000000000000000000000000000000000000000000000000000000000000000000000000000000000000000000000000000000000000009E9E9E009E9E00000000000000009E9E9E9E009E0000000000
310
009E9E9E9E9E9E9E9E000000000000000000000000000000000000009E00000000009E00009E0000000000000000000000000000000000000000000000000000000000000000000000000000000000000000000000000000000000000000000000000000000000000000000000000000000000000000000000000000000000
310
000000000000000000000000000000000000000000000000000000009E9E9E009E9E0000000000000000000000000000000000000000009E9E9E9E9E009E000000000000000000000000000000000000009E00000000009E00009E000000000000000000000000000000000000000000000000000000000000000000000000
310
0000000000000000000000000000000000000000000000000000000000000000000000000000000000000000000000000000000000000000000000000000000000000000000000000000000000000000000000000000000000000000000000000000000000000000000000009E9E9E9E9E009E000000000000000000000000
310
000000000000009E9E9E9E9E9E9E00009E0000000000000000000000000000000000000000000000000000000000000000000000000000000000000000000000000000000000000000000000000000000000000000000000000000000000000000000000000000000000000000000000000000000000000000000000000000
310
0000000000000000000000000000000000000000000000000000000000000000000000000000000000000000000000000000000000000000000000009E009E9E9E009E00009E000000000000000000000000000000000000000000000000000000000000000000000000000000000000000000000000000000000000000000
310
00000000000000000000000000000000000000000000000000000000000000000000000000000000000000000000000000000000000000000000000000000000000000000000000000000000000000000000000000000000000000000000000000000000000000000000000000000000009E009E9E9E000000009E00000000
310
00000000000000000000000000000000000000000000000000000000000000000000000000000000000000000000000000000000000000000000000000000000000000000000000000000000000000000000000000000000000000000000000000000000000000000000000000000000000000000000000000000000000000
310
0000000000000000000000000000000000000000000000000000000000000000000000000000009E009E9E9E000000009E000000000000000000000000000000000000000000000000000000000000000000000000000000000000000000000000000000000000000000000000000000000000000000000000000000000000
310
00000000000000000000000000000000000000000000000000000000000000000000000000000000000000000000000000000000000000000000000000000000000000000000000000000000000000000000000000000000000000009E00000000000000009E00000000000000000000000000000000000000000000000000
310
00000000000000000000000000000000000000000000000000000000000000000000000000000000000000000000000000000000000000000000000000000000000000000000000000000000000000000000000000000000000000000000000000000000000000000000000000000000000000000000000000000000000000
310
0000000000000000000000000000000000009E00000000000000009E000000000000000000000000000000000000000000000000000000000000000000000000000000000000000000000000000000000000000000000000000000000000000000000000000000000000000000000000000000000000000000000000000000
310
00000000000000000000000000000000000000000000000000000000000000000000000000000000000000000000000000000000000000000000000000000000000000000000009E00000000000000009E00000000000000000000000000000000000000000000000000000000000000000000000000000000000000000000
310
000000000000000000000000000000000000000000000000000000000000000000000000000000000000000000000000000000000000000000000000000000000000000000000000000000000000000000000000000000000000000000000000000000000000000000000000000000000000000000000000000000009E9E9E
310
9E9E9E9E9E9E9E000000000000000000000000000000000000000000000000000000000000000000000000000000000000000000000000000000000000000000000000000000000000000000000000000000000000000000000000000000000000000000000000000000000000000000000000000000000000000000000000
310
00000000000000000000000000000000000000000000000000000000000000000000000000000000000000000000000000009E9E9E9E9E9E9E9E9E9E00000000000000000000000000000000000000000000000000000000000000000000000000000000000000000000000000000000000000000000000000000000000000
310
0000000000000000000000000000000000000000000000000000000000000000000000000000000000000000000000000000000000000000000000000000000000000000000000000000000000000000000000000000000000000000000000000000000000000000009E9E9E9E009E00000000000000000000000000000000
310
00000000000000000000000000000000000000000000000000000000000000000000000000000000000000000000000000000000000000000000000000000000000000000000000000000000000000000000000000000000000000000000000000000000000000000000000000000000000000000000000000000000000000
310
00000000000000000000000000000000000000000000000000000000000000009E9E9E009E000000000000000000000000000000000000000000000000000000000000000000000000000000000000000000000000000000000000000000000000000000000000000000000000000000000000000000000000000000000000
310
00000000000000000000000000000000000000000000000000000000000000000000000000000000000000000000000000000000000000000000000000000000000000000000000000000000000000000000000000000000000000000000000000000000000000000000000000000000000000000000000000000000000000
310
00000000000000000000000000000000000000000000000000000000000000000000000000000000000000000000000000000000000000000000000000000000000000000000000000000000000000000000000000000000000000000000000000000000000000000000000000000000000000000000000000000000000000
310
00000000000000000000000000000000000000000000000000000000000000000000000000000000000000000000000000000000000000000000000000000000000000000000000000000000000000000000000000000000000000000000000000000000000000000000000000000000000000000000000000000000000000
310
00000000000000000000000000000000000000000000000000000000000000000000000000000000000000000000000000000000000000000000000000000000000000000000000000000000000000000000000000000000000000000000000000000000000000000000000000000000000000000000000000000000000000
310
00000000000000000000000000000000000000000000000000000000000000000000000000000000000000000000000000000000000000000000000000000000000000000000000000000000000000000000000000000000000000000000000000000000000000000000000000000000000000000000000000000000000000
310
00000000000000000000000000000000000000000000000000000000000000000000000000000000000000000000000000000000000000000000000000000000000000000000000000000000000000000000000000000000000000000000000000000000000000000000000000000000000000000000000000000000000000
310
00000000000000000000000000000000000000000000000000000000000000000000000000000000000000000000000000000000000000000000000000000000000000000000000000000000000000000000000000000000000000000000000000000000000000000000000000000000000000000000000000000000000000
310
00000000000000000000000000000000000000000000000000000000000000000000000000000000000000000000000000000000000000000000000000000000000000000000000000000000000000000000000000000000000000000000000000000000000000000000000000000000000000000000000000000000000000
310
00000000000000000000000000000000000000000000000000000000000000000000000000000000000000000000000000000000000000000000000000000000000000000000000000000000000000000000000000000000000000000000000000000000000000000000000000000000000000000000000000000000000000
310
00000000000000000000000000000000000000000000000000000000000000000000000000000000000000000000000000000000000000000000000000000000000000000000000000000000000000000000000000
  0
ENDSEC
  0
EOF
