999
LibreDWG 
  0
SECTION
  2
HEADER
  9
$ACADVER
  1
AC1015
  9
$ACADMAINTVER
 70
    13
  9
$DWGCODEPAGE
  3
ANSI_936
  9
$INSBASE
 10
0.0
 20
0.0
 30
0.0
  9
$EXTMIN
 10
11.2897812661142
 20
49.23415209559309
 30
0.0
  9
$EXTMAX
 10
377.9800806272499
 20
283.1326605582183
 30
0.0
  9
$LIMMIN
 10
0.0
 20
0.0
  9
$LIMMAX
 10
250.0
 20
150.0
  9
$ORTHOMODE
 70
     0
  9
$REGENMODE
 70
     1
  9
$FILLMODE
 70
     1
  9
$QTEXTMODE
 70
     0
  9
$MIRRTEXT
 70
     1
  9
$LTSCALE
 40
1.0
  9
$ATTMODE
 70
     1
  9
$TEXTSIZE
 40
2.5
  9
$TRACEWID
 40
1.0
  9
$TEXTSTYLE
  7
数字与字母
  9
$CLAYER
  8
文本层
  9
$CELTYPE
  6
ByLayer
  9
$CECOLOR
 62
   256
  9
$CELTSCALE
 40
1.0
  9
$DISPSILH
 70
     0
  9
$DIMSCALE
 40
1.0
  9
$DIMASZ
 40
3.5
  9
$DIMEXO
 40
0.0
  9
$DIMDLI
 40
7.5
  9
$DIMRND
 40
0.0
  9
$DIMDLE
 40
0.0
  9
$DIMEXE
 40
2.5
  9
$DIMTP
 40
0.0
  9
$DIMTM
 40
0.0
  9
$DIMTXT
 40
5.0
  9
$DIMCEN
 40
2.5
  9
$DIMTSZ
 40
0.0
  9
$DIMTOL
 70
     0
  9
$DIMLIM
 70
     0
  9
$DIMTIH
 70
     0
  9
$DIMTOH
 70
     1
  9
$DIMSE1
 70
     0
  9
$DIMSE2
 70
     0
  9
$DIMTAD
 70
     1
  9
$DIMZIN
 70
     8
  9
$DIMBLK
  1

  9
$DIMASO
 70
     1
  9
$DIMSHO
 70
     1
  9
$DIMPOST
  1

  9
$DIMAPOST
  1

  9
$DIMALT
 70
     0
  9
$DIMALTD
 70
     3
  9
$DIMALTF
 40
0.03937007874016
  9
$DIMLFAC
 40
1.0
  9
$DIMTOFL
 70
     1
  9
$DIMTVP
 40
0.0
  9
$DIMTIX
 70
     0
  9
$DIMSOXD
 70
     0
  9
$DIMSAH
 70
     0
  9
$DIMBLK1
  1

  9
$DIMBLK2
  1

  9
$DIMSTYLE
  2
机械标注
  9
$DIMCLRD
 70
     0
  9
$DIMCLRE
 70
     0
  9
$DIMCLRT
 70
     0
  9
$DIMTFAC
 40
1.0
  9
$DIMGAP
 40
0.625
  9
$DIMJUST
 70
     0
  9
$DIMSD1
 70
     0
  9
$DIMSD2
 70
     0
  9
$DIMTOLJ
 70
     0
  9
$DIMTZIN
 70
     8
  9
$DIMALTZ
 70
     0
  9
$DIMALTTZ
 70
     0
  9
$DIMUPT
 70
     0
  9
$DIMDEC
 70
     1
  9
$DIMTDEC
 70
     1
  9
$DIMALTU
 70
     2
  9
$DIMALTTD
 70
     3
  9
$DIMTXSTY
  7
数字与字母
  9
$DIMAUNIT
 70
     0
  9
$DIMADEC
 70
     0
  9
$DIMALTRND
 40
0.0
  9
$DIMAZIN
 70
     0
  9
$DIMDSEP
 70
    46
  9
$DIMATFIT
 70
     3
  9
$DIMFRAC
 70
     0
  9
$DIMLDRBLK
  1

  9
$DIMLUNIT
 70
     2
  9
$DIMLWD
 70
    -2
  9
$DIMLWE
 70
    -2
  9
$DIMTMOVE
 70
     0
  9
$LUNITS
 70
     2
  9
$LUPREC
 70
     1
  9
$AXISMODE
 70
     0
  9
$AXISUNIT
 10
0.0
 20
0.0
  9
$SKETCHINC
 40
1.0
  9
$FILLETRAD
 40
1.0
  9
$AUNITS
 70
     0
  9
$AUPREC
 70
     1
  9
$MENU
  1
.
  9
$ELEVATION
 40
0.0
  9
$PELEVATION
 40
0.0
  9
$THICKNESS
 40
0.0
  9
$LIMCHECK
 70
     0
  9
$CHAMFERA
 40
10.0
  9
$CHAMFERB
 40
10.0
  9
$CHAMFERC
 40
20.0
  9
$CHAMFERD
 40
0.0
  9
$SKPOLY
 70
     0
  9
$TDCREATE
 40
2451911.603956590
  9
$TDUCREATE
 40
2451911.315956590
  9
$TDUPDATE
 40
2453618.452918380
  9
$TDUUPDATE
 40
2453618.164918380
  9
$TDINDWG
 40
0.043259110
  9
$TDUSRTIMER
 40
0.043259110
  9
$USRTIMER
 70
     1
  9
$ANGBASE
 50
0.0
  9
$ANGDIR
 70
     0
  9
$PDMODE
 70
     0
  9
$PDSIZE
 40
0.0
  9
$PLINEWID
 40
0.0
  9
$SPLFRAME
 70
     0
  9
$SPLINETYPE
 70
     6
  9
$SPLINESEGS
 70
     8
  9
$HANDSEED
  5
4A5
  9
$SURFTAB1
 70
     6
  9
$SURFTAB2
 70
     6
  9
$SURFTYPE
 70
     6
  9
$SURFU
 70
     6
  9
$SURFV
 70
     6
  9
$UCSBASE
  2

  9
$UCSNAME
  2

  9
$UCSORG
 10
0.0
 20
0.0
 30
0.0
  9
$UCSXDIR
 10
1.0
 20
0.0
 30
0.0
  9
$UCSYDIR
 10
0.0
 20
1.0
 30
0.0
  9
$UCSORTHOREF
  2

  9
$UCSORTHOVIEW
 70
     0
  9
$UCSORGTOP
 10
0.0
 20
0.0
 30
0.0
  9
$UCSORGBOTTOM
 10
0.0
 20
0.0
 30
0.0
  9
$UCSORGLEFT
 10
0.0
 20
0.0
 30
0.0
  9
$UCSORGRIGHT
 10
0.0
 20
0.0
 30
0.0
  9
$UCSORGFRONT
 10
0.0
 20
0.0
 30
0.0
  9
$UCSORGBACK
 10
0.0
 20
0.0
 30
0.0
  9
$PUCSBASE
  2

  9
$PUCSNAME
  2

  9
$PUCSORG
 10
0.0
 20
0.0
 30
0.0
  9
$PUCSXDIR
 10
1.0
 20
0.0
 30
0.0
  9
$PUCSYDIR
 10
0.0
 20
1.0
 30
0.0
  9
$PUCSORTHOREF
  2

  9
$PUCSORTHOVIEW
 70
     0
  9
$PUCSORGTOP
 10
0.0
 20
0.0
 30
0.0
  9
$PUCSORGBOTTOM
 10
0.0
 20
0.0
 30
0.0
  9
$PUCSORGLEFT
 10
0.0
 20
0.0
 30
0.0
  9
$PUCSORGRIGHT
 10
0.0
 20
0.0
 30
0.0
  9
$PUCSORGFRONT
 10
0.0
 20
0.0
 30
0.0
  9
$PUCSORGBACK
 10
0.0
 20
0.0
 30
0.0
  9
$USERI1
 70
     0
  9
$USERI2
 70
     0
  9
$USERI3
 70
     0
  9
$USERI4
 70
     0
  9
$USERI5
 70
     0
  9
$USERR1
 40
0.0
  9
$USERR2
 40
0.0
  9
$USERR3
 40
0.0
  9
$USERR4
 40
0.0
  9
$USERR5
 40
0.0
  9
$WORLDVIEW
 70
     1
  9
$SHADEDGE
 70
     3
  9
$SHADEDIF
 70
    70
  9
$TILEMODE
 70
     1
  9
$MAXACTVP
 70
    64
  9
$PINSBASE
 10
0.0
 20
0.0
 30
0.0
  9
$PLIMCHECK
 70
     0
  9
$PEXTMIN
 10
26.66999878883362
 20
20.31999878883363
 30
0.0
  9
$PEXTMAX
 10
240.0299890995026
 20
182.8799890995026
 30
0.0
  9
$PLIMMIN
 10
-6.350006103515625
 20
-6.349999904632568
  9
$PLIMMAX
 10
273.0499877929688
 20
209.5499939918518
  9
$UNITMODE
 70
     0
  9
$VISRETAIN
 70
     1
  9
$PLINEGEN
 70
     0
  9
$PSLTSCALE
 70
     1
  9
$TREEDEPTH
 70
  3020
  9
$CMLSTYLE
  2
Standard
  9
$CMLJUST
 70
     0
  9
$CMLSCALE
 40
20.0
  9
$PROXYGRAPHICS
 70
     1
  9
$MEASUREMENT
 70
     1
  9
$CELWEIGHT
370
    -1
  9
$ENDCAPS
280
     0
  9
$JOINSTYLE
280
     0
  9
$LWDISPLAY
290
     1
  9
$INSUNITS
 70
     4
  9
$HYPERLINKBASE
  1

  9
$STYLESHEET
  1

  9
$XEDIT
290
     1
  9
$CEPSNTYPE
380
     0
  9
$PSTYLEMODE
290
     0
  9
$FINGERPRINTGUID
  2
{35BD88C3-9548-11D2-9A29-0060089B3A3F}
  9
$VERSIONGUID
  2
{7250554A-033C-4540-AB1B-8FAC6094BF03}
  9
$EXTNAMES
290
     1
  9
$PSVPSCALE
 40
0.0
  9
$OLESTARTUP
290
     0
  0
ENDSEC
  0
SECTION
  2
CLASSES
  0
CLASS
  1
ACDBDICTIONARYWDFLT
  2
AcDbDictionaryWithDefault
  3
AutoCAD 2000
 90
        0
280
     0
281
     0
  0
CLASS
  1
ACDBPLACEHOLDER
  2
AcDbPlaceHolder
  3
AutoCAD 2000
 90
        0
280
     0
281
     0
  0
CLASS
  1
LAYOUT
  2
AcDbLayout
  3
AutoCAD 2000
 90
        0
280
     0
281
     0
  0
CLASS
  1
DICTIONARYVAR
  2
AcDbDictionaryVar
  3
AutoCAD 2000
 90
        0
280
     0
281
     0
  0
CLASS
  1
DIMASSOC
  2
AcDbDimAssoc
  3
"AcDbDimAssoc|Product Desc:     AcDim ARX App For Dimension|Company:          Autodesk, Inc.|WEB Address:      www.autodesk.com"
 90
        0
280
     0
281
     0
  0
ENDSEC
  0
SECTION
  2
TABLES
  0
TABLE
  2
VPORT
  5
8
330
0
100
AcDbSymbolTable
 70
     1
  0
VPORT
  5
4A4
330
8
100
AcDbSymbolTableRecord
100
AcDbViewportTableRecord
  2
*Active
 70
     0
 10
0.0
 20
0.0
 11
1.0
 21
1.0
 12
191.7587590240248
 22
159.9217327352954
 13
0.0
 23
0.0
 14
10.0
 24
10.0
 15
10.0
 25
10.0
 16
0.0
 26
0.0
 36
1.0
 17
0.0
 27
0.0
 37
0.0
 40
250.6911475894739
 41
1.855042016806723
 42
50.0
 43
0.0
 44
0.0
 50
0.0
 51
0.0
 71
     0
 72
   100
 73
     1
 74
     3
 75
     0
 76
     0
 77
     0
 78
     0
281
     0
 65
     1
110
0.0
120
0.0
130
0.0
111
1.0
121
0.0
131
0.0
112
0.0
122
1.0
132
0.0
 79
     0
146
0.0
  0
ENDTAB
  0
TABLE
  2
LTYPE
  5
5
330
0
100
AcDbSymbolTable
 70
     4
  0
LTYPE
  5
14
330
5
100
AcDbSymbolTableRecord
100
AcDbLinetypeTableRecord
  2
ByBlock
 70
     0
  3

 72
    65
 73
     0
 40
0.0
  0
LTYPE
  5
15
330
5
100
AcDbSymbolTableRecord
100
AcDbLinetypeTableRecord
  2
ByLayer
 70
     0
  3

 72
    65
 73
     0
 40
0.0
  0
LTYPE
  5
16
330
5
100
AcDbSymbolTableRecord
100
AcDbLinetypeTableRecord
  2
Continuous
 70
     0
  3
Solid line
 72
    65
 73
     0
 40
0.0
  0
LTYPE
  5
91
330
5
100
AcDbSymbolTableRecord
100
AcDbLinetypeTableRecord
  2
ACAD_ISO08W100
 70
     0
  3
ISO long-dash short-dash ____ __ ____ __ ____ _
 72
    65
 73
     4
 40
36.0
 49
24.0
 74
     0
 49
-3.0
 74
     0
 49
6.0
 74
     0
 49
-3.0
 74
     0
  0
LTYPE
  5
92
330
5
100
AcDbSymbolTableRecord
100
AcDbLinetypeTableRecord
  2
ACAD_ISO09W100
 70
     0
  3
ISO long-dash double-short-dash ____ __ __ ____
 72
    65
 73
     6
 40
45.0
 49
24.0
 74
     0
 49
-3.0
 74
     0
 49
6.0
 74
     0
 49
-3.0
 74
     0
 49
6.0
 74
     0
 49
-3.0
 74
     0
  0
LTYPE
  5
93
330
5
100
AcDbSymbolTableRecord
100
AcDbLinetypeTableRecord
  2
ACAD_ISO02W100
 70
     0
  3
ISO dash __ __ __ __ __ __ __ __ __ __ __ __ __
 72
    65
 73
     2
 40
15.0
 49
12.0
 74
     0
 49
-3.0
 74
     0
  0
ENDTAB
  0
TABLE
  2
LAYER
  5
2
330
0
100
AcDbSymbolTable
 70
    11
  0
LAYER
  5
10
330
2
100
AcDbSymbolTableRecord
100
AcDbLayerTableRecord
  2
0
 70
     0
 62
    -7
  6
Continuous
370
    -3
390
F
  0
LAYER
  5
94
330
2
100
AcDbSymbolTableRecord
100
AcDbLayerTableRecord
  2
轮廓线
 70
     0
 62
    -7
  6
Continuous
370
    35
390
F
  0
LAYER
  5
95
330
2
100
AcDbSymbolTableRecord
100
AcDbLayerTableRecord
  2
点划线
 70
     0
 62
    -1
  6
ACAD_ISO08W100
370
    13
390
F
  0
LAYER
  5
96
330
2
100
AcDbSymbolTableRecord
100
AcDbLayerTableRecord
  2
双点划线
 70
     0
 62
    -3
  6
ACAD_ISO09W100
370
    -3
390
F
  0
LAYER
  5
97
330
2
100
AcDbSymbolTableRecord
100
AcDbLayerTableRecord
  2
隐藏线
 70
     0
 62
   -44
  6
ACAD_ISO02W100
370
    13
390
F
  0
LAYER
  5
98
330
2
100
AcDbSymbolTableRecord
100
AcDbLayerTableRecord
  2
剖面线
 70
     0
 62
  -142
  6
Continuous
370
    13
390
F
  0
LAYER
  5
99
330
2
100
AcDbSymbolTableRecord
100
AcDbLayerTableRecord
  2
波浪线
 70
     0
 62
    -7
  6
Continuous
370
    13
390
F
  0
LAYER
  5
9A
330
2
100
AcDbSymbolTableRecord
100
AcDbLayerTableRecord
  2
尺寸层
 70
     0
 62
    -5
  6
Continuous
370
    13
390
F
  0
LAYER
  5
9B
330
2
100
AcDbSymbolTableRecord
100
AcDbLayerTableRecord
  2
文本层
 70
     0
 62
  -212
  6
Continuous
370
    13
390
F
  0
LAYER
  5
9C
330
2
100
AcDbSymbolTableRecord
100
AcDbLayerTableRecord
  2
其它层
 70
     0
 62
    -7
  6
Continuous
370
    -3
390
F
  0
LAYER
  5
15A
330
2
100
AcDbSymbolTableRecord
100
AcDbLayerTableRecord
  2
Defpoints
 70
     0
 62
    -7
  6
Continuous
290
     0
370
    -3
390
F
  0
ENDTAB
  0
TABLE
  2
STYLE
  5
3
330
0
100
AcDbSymbolTable
 70
     4
  0
STYLE
  5
11
330
3
100
AcDbSymbolTableRecord
100
AcDbTextStyleTableRecord
  2
Standard
 70
     0
 40
0.0
 41
1.0
 50
0.0
 71
     0
 42
2.5
  3
txt
  4

  0
STYLE
  5
90
330
3
100
AcDbSymbolTableRecord
100
AcDbTextStyleTableRecord
  2

 70
     1
 40
0.0
 41
1.0
 50
0.0
 71
     0
 42
2.5
  3
ltypeshp.shx
  4

  0
STYLE
  5
9D
330
3
100
AcDbSymbolTableRecord
100
AcDbTextStyleTableRecord
  2
汉字
 70
     0
 40
0.0
 41
0.7
 50
0.0
 71
     0
 42
2.5
  3
SIMFANG.TTF
  4

1001
ACAD
1000
FangSong_GB2312
1071
    34353
  0
STYLE
  5
9F
330
3
100
AcDbSymbolTableRecord
100
AcDbTextStyleTableRecord
  2
数字与字母
 70
     0
 40
0.0
 41
0.7
 50
0.0
 71
     0
 42
2.5
  3
romant.shx
  4

  0
ENDTAB
  0
TABLE
  2
VIEW
  5
6
330
0
100
AcDbSymbolTable
 70
     0
  0
ENDTAB
  0
TABLE
  2
UCS
  5
7
330
0
100
AcDbSymbolTable
 70
     0
  0
ENDTAB
  0
TABLE
  2
APPID
  5
9
330
0
100
AcDbSymbolTable
 70
     1
  0
APPID
  5
12
330
9
100
AcDbSymbolTableRecord
100
AcDbRegAppTableRecord
  2
ACAD
 70
     0
  0
ENDTAB
  0
TABLE
  2
DIMSTYLE
  5
A
330
0
100
AcDbSymbolTable
 70
     3
100
AcDbDimStyleTable
 71
     2
340
A1
340
27
  0
DIMSTYLE
105
27
330
A
100
AcDbSymbolTableRecord
100
AcDbDimStyleTableRecord
  2
ISO-25
 70
     0
 41
2.5
 42
0.625
 43
3.75
 44
1.25
 73
     0
 74
     0
 77
     1
 78
     8
140
2.5
141
2.5
143
0.03937007874016
144
1.0
146
1.0
147
0.625
171
     3
172
     1
176
     0
177
     0
178
     0
271
     2
272
     2
273
     2
274
     3
277
     2
278
    44
283
     0
284
     8
289
     3
340
11
371
    -2
372
    -2
341
0
342
0
343
0
344
0
  0
DIMSTYLE
105
A1
102
{ACAD_REACTORS
330
159
330
199
330
181
330
167
330
174
330
1B1
102
}
330
A
100
AcDbSymbolTableRecord
100
AcDbDimStyleTableRecord
  2
机械标注
 70
     0
 41
3.5
 43
7.5
 44
2.5
 73
     0
 74
     1
 77
     1
 78
     8
140
5.0
141
2.5
143
0.03937007874016
144
1.0
146
1.0
147
0.625
171
     3
172
     1
176
     0
177
     0
178
     0
271
     1
272
     1
273
     2
274
     3
277
     2
278
    46
283
     0
284
     8
289
     3
340
9F
371
    -2
372
    -2
341
0
342
0
343
0
344
0
  0
DIMSTYLE
105
A2
330
A
100
AcDbSymbolTableRecord
100
AcDbDimStyleTableRecord
  2
机械标注$2
 70
     0
 41
3.5
 43
7.5
 44
2.5
 73
     1
 74
     1
 77
     1
 78
     8
140
5.0
141
2.5
143
0.03937007874016
144
1.0
146
1.0
147
0.625
171
     3
172
     1
176
     0
177
     0
178
     0
271
     1
272
     1
273
     2
274
     3
277
     2
278
    46
283
     0
284
     8
289
     3
340
9F
371
    -2
372
    -2
341
0
342
0
343
0
344
0
  0
ENDTAB
  0
TABLE
  2
BLOCK_RECORD
  5
1
330
0
100
AcDbSymbolTable
 70
     7
  0
BLOCK_RECORD
  5
1F
330
1
100
AcDbSymbolTableRecord
100
AcDbBlockTableRecord
  2
*Model_Space
340
22
  0
BLOCK_RECORD
  5
59
330
1
100
AcDbSymbolTableRecord
100
AcDbBlockTableRecord
  2
*Paper_Space
340
5A
  0
BLOCK_RECORD
  5
5E
330
1
100
AcDbSymbolTableRecord
100
AcDbBlockTableRecord
  2
*Paper_Space0
340
5F
  0
BLOCK_RECORD
  5
15B
330
1
100
AcDbSymbolTableRecord
100
AcDbBlockTableRecord
  2
*D1
340
0
  0
BLOCK_RECORD
  5
168
330
1
100
AcDbSymbolTableRecord
100
AcDbBlockTableRecord
  2
*D2
340
0
  0
BLOCK_RECORD
  5
175
330
1
100
AcDbSymbolTableRecord
100
AcDbBlockTableRecord
  2
*D3
340
0
  0
BLOCK_RECORD
  5
182
330
1
100
AcDbSymbolTableRecord
100
AcDbBlockTableRecord
  2
*D4
340
0
  0
BLOCK_RECORD
  5
19A
330
1
100
AcDbSymbolTableRecord
100
AcDbBlockTableRecord
  2
*D5
340
0
  0
BLOCK_RECORD
  5
1B2
330
1
100
AcDbSymbolTableRecord
100
AcDbBlockTableRecord
  2
*D6
340
0
  0
ENDTAB
  0
ENDSEC
  0
SECTION
  2
BLOCKS
  0
BLOCK
  5
20
330
1F
100
AcDbEntity
  8
0
100
AcDbBlockBegin
  2
*Model_Space
 70
     0
 10
0.0
 20
0.0
 30
0.0
  3
*Model_Space
  1

  0
ENDBLK
  5
21
330
1F
100
AcDbEntity
  8
0
100
AcDbBlockEnd
  0
BLOCK
  5
5B
330
59
100
AcDbEntity
 67
     1
  8
0
100
AcDbBlockBegin
  2
*Paper_Space
 70
     0
 10
0.0
 20
0.0
 30
0.0
  3
*Paper_Space
  1

  0
ENDBLK
  5
5C
330
59
100
AcDbEntity
 67
     1
  8
0
100
AcDbBlockEnd
  0
BLOCK
  5
60
330
5E
100
AcDbEntity
  8
0
100
AcDbBlockBegin
  2
*Paper_Space0
 70
     0
 10
0.0
 20
0.0
 30
0.0
  3
*Paper_Space0
  1

  0
VIEWPORT
  5
2FE
330
5E
100
AcDbEntity
  8
0
100
AcDbViewport
 10
133.7941551702952
 20
101.5999970436096
 30
0.0
 40
423.7327665924585
 41
228.4221935424805
 68
     0
 69
     0
 12
133.7941551702952
 22
101.5999970436096
 13
0.0
 23
0.0
 14
10.0
 24
10.0
 15
10.0
 25
10.0
 16
0.0
 26
0.0
 36
1.0
 17
0.0
 27
0.0
 37
0.0
 42
50.0
 43
0.0
 44
0.0
 45
228.4221935424805
 50
0.0
 51
0.0
 72
   100
 90
    32800
  1

281
     0
 71
     1
 74
     0
110
0.0
120
0.0
130
0.0
111
1.0
121
0.0
131
0.0
112
0.0
122
1.0
132
0.0
 79
     0
146
0.0
348
0
340
0
345
0
346
0
  0
VIEWPORT
  5
300
330
5E
100
AcDbEntity
  8
文本层
100
AcDbViewport
 10
133.3499939441681
 20
101.5999939441681
 30
0.0
 40
213.3599903106689
 41
162.5599903106689
 68
     0
 69
     0
 12
182.3037343925675
 22
144.2657452126234
 13
0.0
 23
0.0
 14
10.0
 24
10.0
 15
10.0
 25
10.0
 16
0.0
 26
0.0
 36
1.0
 17
0.0
 27
0.0
 37
0.0
 42
50.0
 43
0.0
 44
0.0
 45
323.1493864453086
 50
0.0
 51
0.0
 72
   100
 90
    32864
  1

281
     0
 71
     1
 74
     0
110
0.0
120
0.0
130
0.0
111
1.0
121
0.0
131
0.0
112
0.0
122
1.0
132
0.0
 79
     0
146
0.0
348
0
340
0
345
0
346
0
  0
ENDBLK
  5
61
330
5E
100
AcDbEntity
  8
0
100
AcDbBlockEnd
  0
BLOCK
  5
165
330
15B
100
AcDbEntity
  8
0
100
AcDbBlockBegin
  2
*D1
 70
     1
 10
0.0
 20
0.0
 30
0.0
  3
*D1
  1

  0
LINE
  5
417
330
15B
100
AcDbEntity
  8
文本层
370
    -2
 62
     0
100
AcDbLine
 10
60.60439236620367
 20
243.0189992748022
 30
0.0
 11
60.60439236620367
 21
280.0076605582183
 31
0.0
  0
LINE
  5
418
330
15B
100
AcDbEntity
  8
文本层
370
    -2
 62
     0
100
AcDbLine
 10
110.6043923662037
 20
242.7295649968149
 30
0.0
 11
110.6043923662037
 21
280.0076605582183
 31
0.0
  0
LINE
  5
419
330
15B
100
AcDbEntity
  8
文本层
370
    -2
 62
     0
100
AcDbLine
 10
64.10439236620367
 20
277.5076605582183
 30
0.0
 11
107.1043923662037
 21
277.5076605582183
 31
0.0
  0
SOLID
  5
41A
330
15B
100
AcDbEntity
  8
文本层
 62
     0
100
AcDbTrace
 38
0.0
 10
64.10439236620367
 20
278.0909938915516
 11
64.10439236620367
 21
276.924327224885
 12
60.60439236620367
 22
277.5076605582183
 13
60.60439236620367
 23
277.5076605582183
  0
SOLID
  5
41B
330
15B
100
AcDbEntity
  8
文本层
 62
     0
100
AcDbTrace
 38
0.0
 10
107.1043923662037
 20
278.0909938915516
 11
107.1043923662037
 21
276.924327224885
 12
110.6043923662037
 22
277.5076605582183
 13
110.6043923662037
 23
277.5076605582183
  0
MTEXT
  5
41C
330
15B
100
AcDbEntity
  8
文本层
 62
     0
100
AcDbMText
 10
85.60439236620368
 20
280.6326605582183
 30
0.0
210
0.0
220
0.0
230
1.0
 11
1.0
 21
0.0
 31
0.0
 40
5.0
 41
0.0
 71
     5
 72
     1
  1
{\f??|b0|i0|c0|p54;25}
  7
数字与字母
 73
     1
 44
1.0
  0
POINT
  5
41D
330
15B
100
AcDbEntity
  8
Defpoints
 62
     0
100
AcDbPoint
 10
60.60439236620367
 20
243.0189992748022
 30
0.0
 50
0.0
  0
POINT
  5
41E
330
15B
100
AcDbEntity
  8
Defpoints
 62
     0
100
AcDbPoint
 10
110.6043923662037
 20
242.7295649968149
 30
0.0
 50
0.0
  0
POINT
  5
41F
330
15B
100
AcDbEntity
  8
Defpoints
 62
     0
100
AcDbPoint
 10
110.6043923662037
 20
277.5076605582183
 30
0.0
 50
0.0
  0
ENDBLK
  5
166
330
15B
100
AcDbEntity
  8
0
100
AcDbBlockEnd
  0
BLOCK
  5
172
330
168
100
AcDbEntity
  8
0
100
AcDbBlockBegin
  2
*D2
 70
     1
 10
0.0
 20
0.0
 30
0.0
  3
*D2
  1

  0
LINE
  5
47D
330
168
100
AcDbEntity
  8
文本层
370
    -2
 62
     0
100
AcDbLine
 10
65.8195451869946
 20
248.2341520955931
 30
0.0
 11
14.41478126611425
 21
248.2341520955931
 31
0.0
  0
LINE
  5
47E
330
168
100
AcDbEntity
  8
文本层
370
    -2
 62
     0
100
AcDbLine
 10
69.79307740208831
 20
58.23415209559312
 30
0.0
 11
14.41478126611421
 21
58.23415209559313
 31
0.0
  0
LINE
  5
47F
330
168
100
AcDbEntity
  8
文本层
370
    -2
 62
     0
100
AcDbLine
 10
16.91478126611425
 20
244.7341520955931
 30
0.0
 11
16.91478126611421
 21
61.73415209559312
 31
0.0
  0
SOLID
  5
480
330
168
100
AcDbEntity
  8
文本层
 62
     0
100
AcDbTrace
 38
0.0
 10
16.33144793278092
 20
244.7341520955931
 11
17.49811459944758
 21
244.7341520955931
 12
16.91478126611425
 22
248.2341520955931
 13
16.91478126611425
 23
248.2341520955931
  0
SOLID
  5
481
330
168
100
AcDbEntity
  8
文本层
 62
     0
100
AcDbTrace
 38
0.0
 10
16.33144793278088
 20
61.73415209559312
 11
17.49811459944754
 21
61.73415209559312
 12
16.91478126611421
 22
58.23415209559312
 13
16.91478126611421
 23
58.23415209559312
  0
MTEXT
  5
482
330
168
100
AcDbEntity
  8
文本层
 62
     0
100
AcDbMText
 10
13.7897812661142
 20
153.2341520955931
 30
0.0
210
0.0
220
0.0
230
1.0
 11
6.123031769111886E-17
 21
1.0
 31
0.0
 40
5.0
 41
0.0
 71
     5
 72
     1
  1
%%c{\f??|b0|i0|c0|p54;95}
  7
数字与字母
 73
     1
 44
1.0
  0
POINT
  5
483
330
168
100
AcDbEntity
  8
Defpoints
 62
     0
100
AcDbPoint
 10
65.8195451869946
 20
248.2341520955931
 30
0.0
 50
0.0
  0
POINT
  5
484
330
168
100
AcDbEntity
  8
Defpoints
 62
     0
100
AcDbPoint
 10
69.79307740208831
 20
58.23415209559312
 30
0.0
 50
0.0
  0
POINT
  5
485
330
168
100
AcDbEntity
  8
Defpoints
 62
     0
100
AcDbPoint
 10
16.91478126611421
 20
58.23415209559312
 30
0.0
 50
0.0
  0
ENDBLK
  5
173
330
168
100
AcDbEntity
  8
0
100
AcDbBlockEnd
  0
BLOCK
  5
17F
330
175
100
AcDbEntity
  8
0
100
AcDbBlockBegin
  2
*D3
 70
     1
 10
0.0
 20
0.0
 30
0.0
  3
*D3
  1

  0
LINE
  5
486
330
175
100
AcDbEntity
  8
文本层
370
    -2
 62
     0
100
AcDbLine
 10
65.66652080576904
 20
198.2341520955931
 30
0.0
 11
38.21970709021458
 21
198.2341520955931
 31
0.0
  0
LINE
  5
487
330
175
100
AcDbEntity
  8
文本层
370
    -2
 62
     0
100
AcDbLine
 10
69.45606204350514
 20
108.2341520955931
 30
0.0
 11
38.21970709021456
 21
108.2341520955931
 31
0.0
  0
LINE
  5
488
330
175
100
AcDbEntity
  8
文本层
370
    -2
 62
     0
100
AcDbLine
 10
40.71970709021458
 20
194.7341520955931
 30
0.0
 11
40.71970709021456
 21
111.7341520955931
 31
0.0
  0
SOLID
  5
489
330
175
100
AcDbEntity
  8
文本层
 62
     0
100
AcDbTrace
 38
0.0
 10
40.13637375688124
 20
194.7341520955931
 11
41.30304042354791
 21
194.7341520955931
 12
40.71970709021458
 22
198.2341520955931
 13
40.71970709021458
 23
198.2341520955931
  0
SOLID
  5
48A
330
175
100
AcDbEntity
  8
文本层
 62
     0
100
AcDbTrace
 38
0.0
 10
40.13637375688122
 20
111.7341520955931
 11
41.30304042354789
 21
111.7341520955931
 12
40.71970709021456
 22
108.2341520955931
 13
40.71970709021456
 23
108.2341520955931
  0
MTEXT
  5
48B
330
175
100
AcDbEntity
  8
文本层
 62
     0
100
AcDbMText
 10
37.59470709021454
 20
153.2341520955931
 30
0.0
210
0.0
220
0.0
230
1.0
 11
6.123031769111886E-17
 21
1.0
 31
0.0
 40
5.0
 41
0.0
 71
     5
 72
     1
  1
{\f??|b0|i0|c0|p54;45}
  7
数字与字母
 73
     1
 44
1.0
  0
POINT
  5
48C
330
175
100
AcDbEntity
  8
Defpoints
 62
     0
100
AcDbPoint
 10
65.66652080576904
 20
198.2341520955931
 30
0.0
 50
0.0
  0
POINT
  5
48D
330
175
100
AcDbEntity
  8
Defpoints
 62
     0
100
AcDbPoint
 10
69.45606204350514
 20
108.2341520955931
 30
0.0
 50
0.0
  0
POINT
  5
48E
330
175
100
AcDbEntity
  8
Defpoints
 62
     0
100
AcDbPoint
 10
40.71970709021456
 20
108.2341520955931
 30
0.0
 50
0.0
  0
ENDBLK
  5
180
330
175
100
AcDbEntity
  8
0
100
AcDbBlockEnd
  0
BLOCK
  5
18C
330
182
100
AcDbEntity
  8
0
100
AcDbBlockBegin
  2
*D4
 70
     1
 10
0.0
 20
0.0
 30
0.0
  3
*D4
  1

  0
LINE
  5
474
330
182
100
AcDbEntity
  8
文本层
370
    -2
 62
     0
100
AcDbLine
 10
110.6043923662037
 20
232.2341520955931
 30
0.0
 11
136.1805283271537
 21
232.2341520955931
 31
0.0
  0
LINE
  5
475
330
182
100
AcDbEntity
  8
文本层
370
    -2
 62
     0
100
AcDbLine
 10
110.6043923662037
 20
214.2341520955931
 30
0.0
 11
136.1805283271537
 21
214.2341520955931
 31
0.0
  0
LINE
  5
476
330
182
100
AcDbEntity
  8
文本层
370
    -2
 62
     0
100
AcDbLine
 10
133.6805283271537
 20
228.7341520955931
 30
0.0
 11
133.6805283271537
 21
217.7341520955931
 31
0.0
  0
SOLID
  5
477
330
182
100
AcDbEntity
  8
文本层
 62
     0
100
AcDbTrace
 38
0.0
 10
133.0971949938204
 20
228.7341520955931
 11
134.2638616604871
 21
228.7341520955931
 12
133.6805283271537
 22
232.2341520955931
 13
133.6805283271537
 23
232.2341520955931
  0
SOLID
  5
478
330
182
100
AcDbEntity
  8
文本层
 62
     0
100
AcDbTrace
 38
0.0
 10
133.0971949938204
 20
217.7341520955931
 11
134.2638616604871
 21
217.7341520955931
 12
133.6805283271537
 22
214.2341520955931
 13
133.6805283271537
 23
214.2341520955931
  0
MTEXT
  5
479
330
182
100
AcDbEntity
  8
文本层
 62
     0
100
AcDbMText
 10
130.5555283271537
 20
223.2341520955931
 30
0.0
210
0.0
220
0.0
230
1.0
 11
6.123031769111886E-17
 21
1.0
 31
0.0
 40
5.0
 41
0.0
 71
     5
 72
     1
  1
{\f??|b0|i0|c0|p54;9}
  7
数字与字母
 73
     1
 44
1.0
  0
POINT
  5
47A
330
182
100
AcDbEntity
  8
Defpoints
 62
     0
100
AcDbPoint
 10
110.6043923662037
 20
232.2341520955931
 30
0.0
 50
0.0
  0
POINT
  5
47B
330
182
100
AcDbEntity
  8
Defpoints
 62
     0
100
AcDbPoint
 10
110.6043923662037
 20
214.2341520955931
 30
0.0
 50
0.0
  0
POINT
  5
47C
330
182
100
AcDbEntity
  8
Defpoints
 62
     0
100
AcDbPoint
 10
133.6805283271537
 20
214.2341520955931
 30
0.0
 50
0.0
  0
ENDBLK
  5
18D
330
182
100
AcDbEntity
  8
0
100
AcDbBlockEnd
  0
BLOCK
  5
1A4
330
19A
100
AcDbEntity
  8
0
100
AcDbBlockBegin
  2
*D5
 70
     1
 10
0.0
 20
0.0
 30
0.0
  3
*D5
  1

  0
LINE
  5
46B
330
19A
100
AcDbEntity
  8
文本层
370
    -2
 62
     0
100
AcDbLine
 10
177.724152886449
 20
257.264231320753
 30
0.0
 11
147.3908195531158
 21
257.264231320753
 31
0.0
  0
LINE
  5
46C
330
19A
100
AcDbEntity
  8
文本层
370
    -2
 62
     0
100
AcDbLine
 10
147.3908195531158
 20
257.264231320753
 30
0.0
 11
99.18132502666157
 21
230.7119124242873
 31
0.0
  0
LINE
  5
46D
330
19A
100
AcDbEntity
  8
文本层
370
    -2
 62
     0
100
AcDbLine
 10
72.02745970574595
 20
215.7563917668991
 30
0.0
 11
68.96170071790063
 21
214.0678652410649
 31
0.0
  0
MTEXT
  5
46E
330
19A
100
AcDbEntity
  8
文本层
 62
     0
100
AcDbMText
 10
168.474152886449
 20
260.389231320753
 30
0.0
210
0.0
220
0.0
230
1.0
 11
1.0
 21
0.0
 31
0.0
 40
5.0
 41
0.0
 71
     5
 72
     1
  1
{\f??|b0|i0|c0|p54;15-%%c12}
  7
数字与字母
 73
     1
 44
1.0
  0
LINE
  5
46F
330
19A
100
AcDbEntity
  8
文本层
370
    -2
 62
     0
100
AcDbLine
 10
75.09321869359128
 20
217.4449182927332
 30
0.0
 11
96.11556603881624
 21
229.0233858984531
 31
0.0
  0
SOLID
  5
470
330
19A
100
AcDbEntity
  8
文本层
 62
     0
100
AcDbTrace
 38
0.0
 10
71.74603861810692
 20
216.2673515982066
 11
72.30888079338499
 21
215.2454319355915
 12
75.09321869359128
 22
217.4449182927332
 13
75.09321869359128
 23
217.4449182927332
  0
SOLID
  5
471
330
19A
100
AcDbEntity
  8
文本层
 62
     0
100
AcDbTrace
 38
0.0
 10
98.89990393902254
 20
231.2228722555948
 11
99.4627461143006
 21
230.2009525929797
 12
96.11556603881624
 22
229.0233858984531
 13
96.11556603881624
 23
229.0233858984531
  0
POINT
  5
472
330
19A
100
AcDbEntity
  8
Defpoints
 62
     0
100
AcDbPoint
 10
96.11556603881624
 20
229.0233858984531
 30
0.0
 50
0.0
  0
POINT
  5
473
330
19A
100
AcDbEntity
  8
Defpoints
 62
     0
100
AcDbPoint
 10
75.09321869359128
 20
217.4449182927332
 30
0.0
 50
0.0
  0
ENDBLK
  5
1A5
330
19A
100
AcDbEntity
  8
0
100
AcDbBlockEnd
  0
BLOCK
  5
1BA
330
1B2
100
AcDbEntity
  8
0
100
AcDbBlockBegin
  2
*D6
 70
     1
 10
0.0
 20
0.0
 30
0.0
  3
*D6
  1

  0
LINE
  5
48F
330
1B2
100
AcDbEntity
  8
文本层
370
    -2
 62
     0
100
AcDbLine
 10
153.6689289982135
 20
89.72669070815932
 30
0.0
 11
132.5855956648802
 21
89.72669070815932
 31
0.0
  0
LINE
  5
490
330
1B2
100
AcDbEntity
  8
文本层
370
    -2
 62
     0
100
AcDbLine
 10
132.5855956648802
 20
89.72669070815932
 30
0.0
 11
112.7844225759179
 21
106.6596105241637
 31
0.0
  0
MTEXT
  5
491
330
1B2
100
AcDbEntity
  8
文本层
 62
     0
100
AcDbMText
 10
147.6689289982136
 20
92.85169070815931
 30
0.0
210
0.0
220
0.0
230
1.0
 11
1.0
 21
0.0
 31
0.0
 40
5.0
 41
0.0
 71
     5
 72
     1
  1
{\f??|b0|i0|c0|p54;4-R1}
  7
数字与字母
 73
     1
 44
1.0
  0
LINE
  5
492
330
1B2
100
AcDbEntity
  8
文本层
370
    -2
 62
     0
100
AcDbLine
 10
108.6043923662037
 20
110.2341520955931
 30
0.0
 11
110.1244033515543
 21
108.9343187968915
 31
0.0
  0
SOLID
  5
493
330
1B2
100
AcDbEntity
  8
文本层
 62
     0
100
AcDbTrace
 38
0.0
 10
113.1635406213725
 20
107.1029470615576
 11
112.4053045304632
 21
106.2162739867697
 12
110.1244033515543
 22
108.9343187968915
 13
110.1244033515543
 23
108.9343187968915
  0
POINT
  5
494
330
1B2
100
AcDbEntity
  8
Defpoints
 62
     0
100
AcDbPoint
 10
110.1244033515543
 20
108.9343187968915
 30
0.0
 50
0.0
  0
POINT
  5
495
330
1B2
100
AcDbEntity
  8
Defpoints
 62
     0
100
AcDbPoint
 10
108.6043923662037
 20
110.2341520955931
 30
0.0
 50
0.0
  0
ENDBLK
  5
1BB
330
1B2
100
AcDbEntity
  8
0
100
AcDbBlockEnd
  0
ENDSEC
  0
SECTION
  2
ENTITIES
  0
LWPOLYLINE
  5
AA
330
1F
100
AcDbEntity
  8
轮廓线
100
AcDbPolyline
 90
        8
 70
     1
 43
0.0
 10
60.60439236620367
 20
60.23415209559312
 10
60.60439236620367
 20
60.23415209559312
 10
60.60439236620367
 20
60.23415209559312
 10
60.60439236620367
 20
60.23415209559312
 10
60.60439236620367
 20
104.0867687038098
 10
60.60439236620367
 20
104.0867687038098
 10
60.60439236620367
 20
104.0867687038098
 10
60.60439236620367
 20
104.0867687038098
  0
ARC
  5
AB
330
1F
100
AcDbEntity
  8
轮廓线
100
AcDbCircle
 10
62.60439236620367
 20
60.23415209559312
 30
0.0
 40
2.0
100
AcDbArc
 50
180.0
 51
270.0
  0
LINE
  5
AC
330
1F
100
AcDbEntity
  8
轮廓线
100
AcDbLine
 10
62.60439236620367
 20
58.23415209559312
 30
0.0
 11
108.6043923662037
 21
58.23415209559312
 31
0.0
  0
ARC
  5
AD
330
1F
100
AcDbEntity
  8
轮廓线
100
AcDbCircle
 10
108.6043923662037
 20
60.23415209559312
 30
0.0
 40
2.0
100
AcDbArc
 50
270.0
 51
0.0
  0
LINE
  5
AE
330
1F
100
AcDbEntity
  8
轮廓线
100
AcDbLine
 10
110.6043923662037
 20
60.23415209559312
 30
0.0
 11
110.6043923662037
 21
246.2341520955931
 31
0.0
  0
ARC
  5
AF
330
1F
100
AcDbEntity
  8
轮廓线
100
AcDbCircle
 10
108.6043923662037
 20
246.2341520955931
 30
0.0
 40
2.0
100
AcDbArc
 50
0.0
 51
90.0
  0
LINE
  5
B0
330
1F
100
AcDbEntity
  8
轮廓线
100
AcDbLine
 10
108.6043923662037
 20
248.2341520955931
 30
0.0
 11
62.60439236620367
 21
248.2341520955931
 31
0.0
  0
ARC
  5
B1
330
1F
100
AcDbEntity
  8
轮廓线
100
AcDbCircle
 10
62.60439236620367
 20
246.2341520955931
 30
0.0
 40
2.0
100
AcDbArc
 50
90.0
 51
180.0
  0
LINE
  5
B2
330
1F
100
AcDbEntity
  8
轮廓线
100
AcDbLine
 10
60.60439236620367
 20
246.2341520955931
 30
0.0
 11
60.60439236620367
 21
60.23415209559312
 31
0.0
  0
LINE
  5
B3
330
1F
100
AcDbEntity
  8
轮廓线
100
AcDbLine
 10
110.6043923662037
 20
232.2341520955931
 30
0.0
 11
93.54164629939747
 21
232.2341520955931
 31
0.0
  0
LINE
  5
B4
330
1F
100
AcDbEntity
  8
轮廓线
100
AcDbLine
 10
110.6043923662037
 20
214.2341520955931
 30
0.0
 11
93.54164629939747
 21
214.2341520955931
 31
0.0
  0
LINE
  5
B5
330
1F
100
AcDbEntity
  8
轮廓线
100
AcDbLine
 10
108.6043923662037
 20
198.2341520955931
 30
0.0
 11
62.60439236620367
 21
198.2341520955931
 31
0.0
  0
ARC
  5
B8
330
1F
100
AcDbEntity
  8
轮廓线
100
AcDbCircle
 10
62.60439236620367
 20
196.2341520955931
 30
0.0
 40
2.0
100
AcDbArc
 50
90.0
 51
180.0
  0
ARC
  5
B9
102
{ACAD_REACTORS
330
117
102
}
330
1F
100
AcDbEntity
  8
轮廓线
100
AcDbCircle
 10
108.6043923662037
 20
196.2341520955931
 30
0.0
 40
2.0
100
AcDbArc
 50
0.0
 51
90.0
  0
CIRCLE
  5
BA
102
{ACAD_REACTORS
330
117
330
1B0
102
}
330
1F
100
AcDbEntity
  8
轮廓线
100
AcDbCircle
 10
85.60439236620367
 20
223.2341520955931
 30
0.0
 40
12.0
  0
LINE
  5
BB
330
1F
100
AcDbEntity
  8
轮廓线
100
AcDbLine
 10
77.66713843300987
 20
232.2341520955931
 30
0.0
 11
60.60439236620367
 21
232.2341520955931
 31
0.0
  0
LINE
  5
BC
330
1F
100
AcDbEntity
  8
轮廓线
100
AcDbLine
 10
77.66713843300987
 20
214.2341520955931
 30
0.0
 11
60.60439236620367
 21
214.2341520955931
 31
0.0
  0
LINE
  5
BD
330
1F
100
AcDbEntity
  8
轮廓线
100
AcDbLine
 10
110.6043923662037
 20
74.23415209559312
 30
0.0
 11
93.54164629939747
 21
74.23415209559312
 31
0.0
  0
LINE
  5
BE
330
1F
100
AcDbEntity
  8
轮廓线
100
AcDbLine
 10
110.6043923662037
 20
92.23415209559312
 30
0.0
 11
93.54164629939747
 21
92.23415209559312
 31
0.0
  0
CIRCLE
  5
BF
102
{ACAD_REACTORS
330
106
102
}
330
1F
100
AcDbEntity
  8
轮廓线
100
AcDbCircle
 10
85.60439236620367
 20
83.23415209559312
 30
0.0
 40
12.0
  0
LINE
  5
C0
330
1F
100
AcDbEntity
  8
轮廓线
100
AcDbLine
 10
77.66713843300987
 20
74.23415209559312
 30
0.0
 11
60.60439236620367
 21
74.23415209559312
 31
0.0
  0
LINE
  5
C1
330
1F
100
AcDbEntity
  8
轮廓线
100
AcDbLine
 10
77.66713843300987
 20
92.23415209559312
 30
0.0
 11
60.60439236620367
 21
92.23415209559312
 31
0.0
  0
LINE
  5
C2
330
1F
100
AcDbEntity
  8
轮廓线
100
AcDbLine
 10
108.6043923662037
 20
108.2341520955931
 30
0.0
 11
62.60439236620367
 21
108.2341520955931
 31
0.0
  0
ARC
  5
D3
330
1F
100
AcDbEntity
  8
轮廓线
100
AcDbCircle
 10
62.60439236620367
 20
110.2341520955931
 30
0.0
 40
2.0
100
AcDbArc
 50
180.0
 51
270.0
  0
ARC
  5
D4
102
{ACAD_REACTORS
330
117
102
}
330
1F
100
AcDbEntity
  8
轮廓线
100
AcDbCircle
 10
108.6043923662037
 20
110.2341520955931
 30
0.0
 40
2.0
100
AcDbArc
 50
270.0
 51
0.0
  0
ARC
  5
D5
102
{ACAD_REACTORS
330
106
102
}
330
1F
100
AcDbEntity
  8
轮廓线
370
     0
 62
     7
100
AcDbCircle
 10
108.6043923662037
 20
246.2341520955931
 30
0.0
 40
2.0
100
AcDbArc
 50
0.0
 51
90.0
  0
LINE
  5
D6
102
{ACAD_REACTORS
330
106
102
}
330
1F
100
AcDbEntity
  8
轮廓线
370
     0
 62
     7
100
AcDbLine
 10
108.6043923662037
 20
248.2341520955931
 30
0.0
 11
62.60439236620367
 21
248.2341520955931
 31
0.0
  0
ARC
  5
D7
102
{ACAD_REACTORS
330
106
102
}
330
1F
100
AcDbEntity
  8
轮廓线
370
     0
 62
     7
100
AcDbCircle
 10
62.60439236620367
 20
246.2341520955931
 30
0.0
 40
2.0
100
AcDbArc
 50
90.0
 51
180.0
  0
LINE
  5
D8
102
{ACAD_REACTORS
330
106
102
}
330
1F
100
AcDbEntity
  8
轮廓线
370
     0
 62
     7
100
AcDbLine
 10
60.60439236620367
 20
246.2341520955931
 30
0.0
 11
60.60439236620367
 21
232.2341520955931
 31
0.0
  0
LINE
  5
D9
102
{ACAD_REACTORS
330
106
102
}
330
1F
100
AcDbEntity
  8
轮廓线
370
     0
 62
     7
100
AcDbLine
 10
60.60439236620367
 20
232.2341520955931
 30
0.0
 11
77.66713843300987
 21
232.2341520955931
 31
0.0
  0
ARC
  5
DA
102
{ACAD_REACTORS
330
106
102
}
330
1F
100
AcDbEntity
  8
轮廓线
370
     0
 62
     7
100
AcDbCircle
 10
85.60439236620367
 20
223.2341520955931
 30
0.0
 40
12.0
100
AcDbArc
 50
48.59037789072914
 51
131.4096221092709
  0
LINE
  5
DB
102
{ACAD_REACTORS
330
106
102
}
330
1F
100
AcDbEntity
  8
轮廓线
370
     0
 62
     7
100
AcDbLine
 10
93.54164629939747
 20
232.2341520955931
 30
0.0
 11
110.6043923662037
 21
232.2341520955931
 31
0.0
  0
LINE
  5
DC
102
{ACAD_REACTORS
330
106
330
198
102
}
330
1F
100
AcDbEntity
  8
轮廓线
370
     0
 62
     7
100
AcDbLine
 10
110.6043923662037
 20
232.2341520955931
 30
0.0
 11
110.6043923662037
 21
246.2341520955931
 31
0.0
  0
LINE
  5
DD
102
{ACAD_REACTORS
330
117
330
198
102
}
330
1F
100
AcDbEntity
  8
轮廓线
370
     0
 62
     7
100
AcDbLine
 10
110.6043923662037
 20
214.2341520955931
 30
0.0
 11
93.54164629939747
 21
214.2341520955931
 31
0.0
  0
ARC
  5
DE
330
1F
100
AcDbEntity
  8
轮廓线
370
     0
 62
     7
100
AcDbCircle
 10
85.60439236620367
 20
223.2341520955931
 30
0.0
 40
12.0
100
AcDbArc
 50
228.5903778907291
 51
311.4096221092709
  0
LINE
  5
DF
102
{ACAD_REACTORS
330
117
102
}
330
1F
100
AcDbEntity
  8
轮廓线
370
     0
 62
     7
100
AcDbLine
 10
77.66713843300987
 20
214.2341520955931
 30
0.0
 11
60.60439236620367
 21
214.2341520955931
 31
0.0
  0
LINE
  5
E0
102
{ACAD_REACTORS
330
117
102
}
330
1F
100
AcDbEntity
  8
轮廓线
370
     0
 62
     7
100
AcDbLine
 10
60.60439236620367
 20
214.2341520955931
 30
0.0
 11
60.60439236620367
 21
196.2341520955931
 31
0.0
  0
ARC
  5
E1
102
{ACAD_REACTORS
330
117
102
}
330
1F
100
AcDbEntity
  8
轮廓线
370
     0
 62
     7
100
AcDbCircle
 10
62.60439236620367
 20
196.2341520955931
 30
0.0
 40
2.0
100
AcDbArc
 50
90.0
 51
180.0
  0
LINE
  5
E2
102
{ACAD_REACTORS
330
117
102
}
330
1F
100
AcDbEntity
  8
轮廓线
370
     0
 62
     7
100
AcDbLine
 10
62.60439236620367
 20
198.2341520955931
 30
0.0
 11
108.6043923662037
 21
198.2341520955931
 31
0.0
  0
ARC
  5
E3
330
1F
100
AcDbEntity
  8
轮廓线
370
     0
 62
     7
100
AcDbCircle
 10
108.6043923662037
 20
196.2341520955931
 30
0.0
 40
2.0
100
AcDbArc
 50
0.0
 51
90.0000000000004
  0
LINE
  5
E4
102
{ACAD_REACTORS
330
117
102
}
330
1F
100
AcDbEntity
  8
轮廓线
370
     0
 62
     7
100
AcDbLine
 10
110.6043923662037
 20
196.2341520955931
 30
0.0
 11
110.6043923662037
 21
214.2341520955931
 31
0.0
  0
LINE
  5
E5
102
{ACAD_REACTORS
330
106
102
}
330
1F
100
AcDbEntity
  8
轮廓线
370
     0
 62
     7
100
AcDbLine
 10
110.6043923662037
 20
74.23415209559312
 30
0.0
 11
93.54164629939747
 21
74.23415209559312
 31
0.0
  0
ARC
  5
E6
330
1F
100
AcDbEntity
  8
轮廓线
370
     0
 62
     7
100
AcDbCircle
 10
85.60439236620367
 20
83.23415209559312
 30
0.0
 40
12.0
100
AcDbArc
 50
228.5903778907291
 51
311.4096221092709
  0
LINE
  5
E7
102
{ACAD_REACTORS
330
106
102
}
330
1F
100
AcDbEntity
  8
轮廓线
370
     0
 62
     7
100
AcDbLine
 10
77.66713843300987
 20
74.23415209559312
 30
0.0
 11
60.60439236620367
 21
74.23415209559312
 31
0.0
  0
LINE
  5
E8
102
{ACAD_REACTORS
330
106
102
}
330
1F
100
AcDbEntity
  8
轮廓线
370
     0
 62
     7
100
AcDbLine
 10
60.60439236620367
 20
74.23415209559312
 30
0.0
 11
60.60439236620367
 21
60.23415209559312
 31
0.0
  0
ARC
  5
E9
102
{ACAD_REACTORS
330
106
102
}
330
1F
100
AcDbEntity
  8
轮廓线
370
     0
 62
     7
100
AcDbCircle
 10
62.60439236620367
 20
60.23415209559312
 30
0.0
 40
2.0
100
AcDbArc
 50
180.0
 51
270.0
  0
LINE
  5
EA
102
{ACAD_REACTORS
330
106
102
}
330
1F
100
AcDbEntity
  8
轮廓线
370
     0
 62
     7
100
AcDbLine
 10
62.60439236620367
 20
58.23415209559312
 30
0.0
 11
108.6043923662037
 21
58.23415209559312
 31
0.0
  0
ARC
  5
EB
102
{ACAD_REACTORS
330
106
102
}
330
1F
100
AcDbEntity
  8
轮廓线
370
     0
 62
     7
100
AcDbCircle
 10
108.6043923662037
 20
60.23415209559312
 30
0.0
 40
2.0
100
AcDbArc
 50
270.0
 51
0.0
  0
LINE
  5
EC
102
{ACAD_REACTORS
330
106
102
}
330
1F
100
AcDbEntity
  8
轮廓线
370
     0
 62
     7
100
AcDbLine
 10
110.6043923662037
 20
60.23415209559312
 30
0.0
 11
110.6043923662037
 21
74.23415209559312
 31
0.0
  0
ARC
  5
ED
102
{ACAD_REACTORS
330
1C4
102
}
330
1F
100
AcDbEntity
  8
轮廓线
370
     0
 62
     7
100
AcDbCircle
 10
108.6043923662037
 20
110.2341520955931
 30
0.0
 40
2.0
100
AcDbArc
 50
270.0
 51
0.0
  0
LINE
  5
EE
102
{ACAD_REACTORS
330
117
102
}
330
1F
100
AcDbEntity
  8
轮廓线
370
     0
 62
     7
100
AcDbLine
 10
108.6043923662037
 20
108.2341520955931
 30
0.0
 11
62.60439236620367
 21
108.2341520955931
 31
0.0
  0
ARC
  5
EF
102
{ACAD_REACTORS
330
117
102
}
330
1F
100
AcDbEntity
  8
轮廓线
370
     0
 62
     7
100
AcDbCircle
 10
62.60439236620367
 20
110.2341520955931
 30
0.0
 40
2.0
100
AcDbArc
 50
180.0
 51
270.0
  0
LINE
  5
F0
102
{ACAD_REACTORS
330
117
102
}
330
1F
100
AcDbEntity
  8
轮廓线
370
     0
 62
     7
100
AcDbLine
 10
60.60439236620367
 20
110.2341520955931
 30
0.0
 11
60.60439236620367
 21
92.23415209559312
 31
0.0
  0
LINE
  5
F1
102
{ACAD_REACTORS
330
117
102
}
330
1F
100
AcDbEntity
  8
轮廓线
370
     0
 62
     7
100
AcDbLine
 10
60.60439236620367
 20
92.23415209559312
 30
0.0
 11
77.66713843300987
 21
92.23415209559312
 31
0.0
  0
ARC
  5
F2
102
{ACAD_REACTORS
330
117
102
}
330
1F
100
AcDbEntity
  8
轮廓线
370
     0
 62
     7
100
AcDbCircle
 10
85.60439236620367
 20
83.23415209559312
 30
0.0
 40
12.0
100
AcDbArc
 50
48.59037789072914
 51
131.4096221092709
  0
LINE
  5
F3
102
{ACAD_REACTORS
330
117
102
}
330
1F
100
AcDbEntity
  8
轮廓线
370
     0
 62
     7
100
AcDbLine
 10
93.54164629939747
 20
92.23415209559312
 30
0.0
 11
110.6043923662037
 21
92.23415209559312
 31
0.0
  0
LINE
  5
F4
102
{ACAD_REACTORS
330
117
102
}
330
1F
100
AcDbEntity
  8
轮廓线
370
     0
 62
     7
100
AcDbLine
 10
110.6043923662037
 20
92.23415209559312
 30
0.0
 11
110.6043923662037
 21
110.2341520955931
 31
0.0
  0
HATCH
  5
106
330
1F
100
AcDbEntity
  8
剖面线
100
AcDbHatch
 10
0.0
 20
0.0
 30
0.0
210
0.0
220
0.0
230
1.0
  2
ANSI31
 70
     0
 71
     1
 91
        2
 92
        7
 72
     1
 73
     1
 93
        8
 10
93.54164629939743
 20
232.2341520955931
 42
0.0
 10
110.6043923662037
 20
232.2341520955931
 42
0.0
 10
110.6043923662037
 20
246.2341520955931
 42
0.4142135623730951
 10
108.6043923662037
 20
248.2341520955931
 42
0.0
 10
62.60439236620367
 20
248.2341520955931
 42
0.4142135623730951
 10
60.60439236620367
 20
246.2341520955931
 42
0.0
 10
60.60439236620367
 20
232.2341520955931
 42
0.0
 10
77.6671384330099
 20
232.2341520955931
 42
-0.3779644730092266
 97
        8
330
D5
330
D6
330
D7
330
D8
330
D9
330
DA
330
DB
330
DC
 92
        7
 72
     1
 73
     1
 93
        8
 10
108.6043923662037
 20
58.23415209559312
 42
0.4142135623730951
 10
110.6043923662037
 20
60.23415209559312
 42
0.0
 10
110.6043923662037
 20
74.23415209559313
 42
0.0
 10
93.54164629939744
 20
74.23415209559312
 42
-0.3779644730092273
 10
77.6671384330099
 20
74.23415209559312
 42
0.0
 10
60.60439236620367
 20
74.23415209559313
 42
0.0
 10
60.60439236620367
 20
60.23415209559312
 42
0.4142135623730951
 10
62.60439236620367
 20
58.23415209559312
 42
0.0
 97
        8
330
E5
330
BF
330
E7
330
E8
330
E9
330
EA
330
EB
330
EC
 75
     0
 76
     1
 52
0.0
 41
1.6
 77
     0
 78
     1
 53
45.0
 43
-13.13850373003313
 44
18.40780034460363
 45
-3.592102448427661
 46
3.592102448427662
 79
     0
 47
0.1309639481784999
 98
        2
 10
90.2323531244035
 20
241.0674492726916
 10
94.27004925760524
 20
64.69624557943416
  0
HATCH
  5
117
330
1F
100
AcDbEntity
  8
剖面线
100
AcDbHatch
 10
0.0
 20
0.0
 30
0.0
210
0.0
220
0.0
230
1.0
  2
ANSI31
 70
     0
 71
     1
 91
        2
 92
        7
 72
     1
 73
     1
 93
        8
 10
62.60439236620367
 20
108.2341520955931
 42
-0.4142135623730951
 10
60.60439236620367
 20
110.2341520955931
 42
0.0
 10
60.60439236620367
 20
92.23415209559313
 42
0.0
 10
77.6671384330099
 20
92.23415209559312
 42
-0.3779644730092275
 10
93.54164629939746
 20
92.23415209559312
 42
0.0
 10
110.6043923662037
 20
92.23415209559313
 42
0.0
 10
110.6043923662037
 20
110.2341520955931
 42
-0.4142135623730951
 10
108.6043923662037
 20
108.2341520955931
 42
0.0
 97
        8
330
D4
330
EE
330
EF
330
F0
330
F1
330
F2
330
F3
330
F4
 92
        7
 72
     1
 73
     1
 93
        8
 10
108.6043923662037
 20
198.2341520955931
 42
-0.4142135623730951
 10
110.6043923662037
 20
196.2341520955931
 42
0.0
 10
110.6043923662037
 20
214.2341520955931
 42
0.0
 10
93.54164629939744
 20
214.2341520955931
 42
-0.3779644730092273
 10
77.6671384330099
 20
214.2341520955931
 42
0.0
 10
60.60439236620368
 20
214.2341520955931
 42
0.0
 10
60.60439236620367
 20
196.2341520955931
 42
-0.4142135623730951
 10
62.60439236620367
 20
198.2341520955931
 42
0.0
 97
        8
330
DD
330
BA
330
DF
330
E0
330
E1
330
E2
330
B9
330
E4
 75
     0
 76
     1
 52
90.0
 41
1.6
 77
     0
 78
     1
 53
135.0
 43
-13.13850373003313
 44
18.40780034460363
 45
-3.592102448427662
 46
-3.592102448427661
 79
     0
 47
0.08840558634825019
 98
        2
 10
92.43477982796593
 20
101.8900071067841
 10
99.08200207999174
 20
204.6305006605496
  0
LINE
  5
11A
330
1F
100
AcDbEntity
  8
点划线
100
AcDbLine
 10
97.60439236620367
 20
223.2341520955931
 30
0.0
 11
73.60439236620367
 21
223.2341520955931
 31
0.0
  0
LINE
  5
11D
330
1F
100
AcDbEntity
  8
点划线
100
AcDbLine
 10
119.6043923662037
 20
153.2341520955931
 30
0.0
 11
51.60439236620367
 21
153.2341520955931
 31
0.0
  0
LINE
  5
120
330
1F
100
AcDbEntity
  8
点划线
100
AcDbLine
 10
97.60439236620367
 20
83.23415209559312
 30
0.0
 11
73.60439236620367
 21
83.23415209559312
 31
0.0
  0
LINE
  5
123
330
1F
100
AcDbEntity
  8
点划线
100
AcDbLine
 10
85.60439236620367
 20
257.2341520955931
 30
0.0
 11
85.60439236620367
 21
49.23415209559309
 31
0.0
  0
LINE
  5
125
330
1F
100
AcDbEntity
  8
点划线
100
AcDbLine
 10
273.9800806272499
 20
257.2341520955931
 30
0.0
 11
273.9800806272499
 21
49.23415209559315
 31
0.0
  0
CIRCLE
  5
126
330
1F
100
AcDbEntity
  8
轮廓线
100
AcDbCircle
 10
273.9800806272499
 20
153.2341520955931
 30
0.0
 40
95.0
  0
ARC
  5
12C
330
1F
100
AcDbEntity
  8
轮廓线
100
AcDbCircle
 10
273.9800806272499
 20
223.2341520955931
 30
0.0
 40
12.0
100
AcDbArc
 50
308.0475074536199
 51
45.43868795642453
  0
ARC
  5
12D
330
1F
100
AcDbEntity
  8
轮廓线
100
AcDbCircle
 10
273.9800806272499
 20
223.2341520955931
 30
0.0
 40
12.0
100
AcDbArc
 50
134.5613120435755
 51
231.9524925463801
  0
CIRCLE
  5
12E
330
1F
100
AcDbEntity
  8
轮廓线
100
AcDbCircle
 10
273.9800806272499
 20
153.2341520955931
 30
0.0
 40
45.0
  0
CIRCLE
  5
12F
330
1F
100
AcDbEntity
  8
轮廓线
100
AcDbCircle
 10
273.9800806272499
 20
153.2341520955931
 30
0.0
 40
61.0
  0
CIRCLE
  5
130
330
1F
100
AcDbEntity
  8
隐藏线
100
AcDbCircle
 10
273.9800806272499
 20
153.2341520955931
 30
0.0
 40
70.0
  0
CIRCLE
  5
131
330
1F
100
AcDbEntity
  8
轮廓线
100
AcDbCircle
 10
273.9800806272499
 20
153.2341520955931
 30
0.0
 40
79.0
  0
ARC
  5
132
330
1F
100
AcDbEntity
  8
轮廓线
100
AcDbCircle
 10
245.5085156119438
 20
217.1823341305752
 30
0.0
 40
12.0
100
AcDbArc
 50
332.0475074536199
 51
69.43868795642453
  0
ARC
  5
133
330
1F
100
AcDbEntity
  8
轮廓线
100
AcDbCircle
 10
245.5085156119438
 20
217.1823341305752
 30
0.0
 40
12.0
100
AcDbArc
 50
158.5613120435754
 51
255.95249254638
  0
ARC
  5
134
330
1F
100
AcDbEntity
  8
轮廓线
100
AcDbCircle
 10
221.9599428438323
 20
200.0732945407132
 30
0.0
 40
12.0
100
AcDbArc
 50
356.0475074536199
 51
93.43868795642452
  0
ARC
  5
135
330
1F
100
AcDbEntity
  8
轮廓线
100
AcDbCircle
 10
221.9599428438323
 20
200.0732945407132
 30
0.0
 40
12.0
100
AcDbArc
 50
182.5613120435754
 51
279.95249254638
  0
ARC
  5
136
330
1F
100
AcDbEntity
  8
轮廓线
100
AcDbCircle
 10
207.4061244865892
 20
174.8653417018394
 30
0.0
 40
12.0
100
AcDbArc
 50
20.04750745361992
 51
117.4386879564245
  0
ARC
  5
137
330
1F
100
AcDbEntity
  8
轮廓线
100
AcDbCircle
 10
207.4061244865892
 20
174.8653417018394
 30
0.0
 40
12.0
100
AcDbArc
 50
206.5613120435755
 51
303.9524925463801
  0
ARC
  5
138
330
1F
100
AcDbEntity
  8
轮廓线
100
AcDbCircle
 10
204.3635479514707
 20
145.9171596668574
 30
0.0
 40
12.0
100
AcDbArc
 50
44.04750745361992
 51
141.4386879564245
  0
ARC
  5
139
330
1F
100
AcDbEntity
  8
轮廓线
100
AcDbCircle
 10
204.3635479514707
 20
145.9171596668574
 30
0.0
 40
12.0
100
AcDbArc
 50
230.5613120435754
 51
327.95249254638
  0
ARC
  5
13A
330
1F
100
AcDbEntity
  8
轮廓线
100
AcDbCircle
 10
213.3583023623391
 20
118.2341520955932
 30
0.0
 40
12.0
100
AcDbArc
 50
68.04750745361991
 51
165.4386879564245
  0
ARC
  5
13B
330
1F
100
AcDbEntity
  8
轮廓线
100
AcDbCircle
 10
213.3583023623391
 20
118.2341520955932
 30
0.0
 40
12.0
100
AcDbArc
 50
254.5613120435754
 51
351.95249254638
  0
ARC
  5
13C
330
1F
100
AcDbEntity
  8
轮廓线
100
AcDbCircle
 10
232.8351129667768
 20
96.60296248934679
 30
0.0
 40
12.0
100
AcDbArc
 50
92.0475074536199
 51
189.4386879564245
  0
ARC
  5
13D
330
1F
100
AcDbEntity
  8
轮廓线
100
AcDbCircle
 10
232.8351129667768
 20
96.60296248934679
 30
0.0
 40
12.0
100
AcDbArc
 50
278.5613120435754
 51
15.95249254638003
  0
ARC
  5
13E
330
1F
100
AcDbEntity
  8
轮廓线
100
AcDbCircle
 10
259.4262622700067
 20
84.76382004422672
 30
0.0
 40
12.0
100
AcDbArc
 50
116.0475074536199
 51
213.4386879564244
  0
ARC
  5
13F
330
1F
100
AcDbEntity
  8
轮廓线
100
AcDbCircle
 10
259.4262622700067
 20
84.76382004422672
 30
0.0
 40
12.0
100
AcDbArc
 50
302.5613120435754
 51
39.95249254638002
  0
ARC
  5
140
330
1F
100
AcDbEntity
  8
轮廓线
100
AcDbCircle
 10
288.533898984493
 20
84.76382004422669
 30
0.0
 40
12.0
100
AcDbArc
 50
140.0475074536199
 51
237.4386879564245
  0
ARC
  5
141
330
1F
100
AcDbEntity
  8
轮廓线
100
AcDbCircle
 10
288.533898984493
 20
84.76382004422669
 30
0.0
 40
12.0
100
AcDbArc
 50
326.5613120435754
 51
63.95249254637998
  0
ARC
  5
142
330
1F
100
AcDbEntity
  8
轮廓线
100
AcDbCircle
 10
315.1250482877229
 20
96.60296248934677
 30
0.0
 40
12.0
100
AcDbArc
 50
164.0475074536198
 51
261.4386879564245
  0
ARC
  5
143
330
1F
100
AcDbEntity
  8
轮廓线
100
AcDbCircle
 10
315.1250482877229
 20
96.60296248934677
 30
0.0
 40
12.0
100
AcDbArc
 50
350.5613120435754
 51
87.95249254637996
  0
ARC
  5
144
330
1F
100
AcDbEntity
  8
轮廓线
100
AcDbCircle
 10
334.6018588921605
 20
118.2341520955928
 30
0.0
 40
12.0
100
AcDbArc
 50
188.0475074536198
 51
285.4386879564244
  0
ARC
  5
145
330
1F
100
AcDbEntity
  8
轮廓线
100
AcDbCircle
 10
334.6018588921605
 20
118.2341520955928
 30
0.0
 40
12.0
100
AcDbArc
 50
14.56131204357534
 51
111.9524925463799
  0
ARC
  5
146
330
1F
100
AcDbEntity
  8
轮廓线
100
AcDbCircle
 10
343.596613303029
 20
145.9171596668572
 30
0.0
 40
12.0
100
AcDbArc
 50
212.0475074536198
 51
309.4386879564244
  0
ARC
  5
147
330
1F
100
AcDbEntity
  8
轮廓线
100
AcDbCircle
 10
343.596613303029
 20
145.9171596668572
 30
0.0
 40
12.0
100
AcDbArc
 50
38.56131204357531
 51
135.9524925463799
  0
ARC
  5
148
330
1F
100
AcDbEntity
  8
轮廓线
100
AcDbCircle
 10
340.5540367679108
 20
174.8653417018392
 30
0.0
 40
12.0
100
AcDbArc
 50
236.0475074536198
 51
333.4386879564244
  0
ARC
  5
149
330
1F
100
AcDbEntity
  8
轮廓线
100
AcDbCircle
 10
340.5540367679108
 20
174.8653417018392
 30
0.0
 40
12.0
100
AcDbArc
 50
62.56131204357529
 51
159.9524925463799
  0
ARC
  5
14A
330
1F
100
AcDbEntity
  8
轮廓线
100
AcDbCircle
 10
326.0002184106676
 20
200.0732945407131
 30
0.0
 40
12.0
100
AcDbArc
 50
260.0475074536197
 51
357.4386879564244
  0
ARC
  5
14B
330
1F
100
AcDbEntity
  8
轮廓线
100
AcDbCircle
 10
326.0002184106676
 20
200.0732945407131
 30
0.0
 40
12.0
100
AcDbArc
 50
86.56131204357527
 51
183.9524925463799
  0
ARC
  5
14C
330
1F
100
AcDbEntity
  8
轮廓线
100
AcDbCircle
 10
302.4516456425562
 20
217.1823341305751
 30
0.0
 40
12.0
100
AcDbArc
 50
284.0475074536197
 51
21.43868795642433
  0
ARC
  5
14D
330
1F
100
AcDbEntity
  8
轮廓线
100
AcDbCircle
 10
302.4516456425562
 20
217.1823341305751
 30
0.0
 40
12.0
100
AcDbArc
 50
110.5613120435753
 51
207.9524925463799
  0
LINE
  5
153
330
1F
100
AcDbEntity
  8
点划线
100
AcDbLine
 10
169.9800806272499
 20
153.2341520955931
 30
0.0
 11
377.9800806272499
 21
153.2341520955931
 31
0.0
  0
DIMENSION
  5
159
330
1F
100
AcDbEntity
  8
文本层
100
AcDbDimension
  2
*D1
 10
110.6043923662037
 20
277.5076605582183
 30
0.0
 11
85.60439236620368
 21
280.6326605582183
 31
0.0
 70
    32
  1
{\f??|b0|i0|c0|p54;25}
 71
     5
 42
50.00000000000003
  3
机械标注
100
AcDbAlignedDimension
 13
60.60439236620367
 23
243.0189992748022
 33
0.0
 14
110.6043923662037
 24
242.7295649968149
 34
0.0
 52
0.0
100
AcDbRotatedDimension
  0
DIMENSION
  5
167
330
1F
100
AcDbEntity
  8
文本层
100
AcDbDimension
  2
*D2
 10
16.91478126611421
 20
58.23415209559312
 30
0.0
 11
13.7897812661142
 21
153.2341520955931
 31
0.0
 70
    32
  1
%%c{\f??|b0|i0|c0|p54;95}
 71
     5
 42
190.0
  3
机械标注
100
AcDbAlignedDimension
 13
65.8195451869946
 23
248.2341520955931
 33
0.0
 14
69.79307740208831
 24
58.23415209559312
 34
0.0
 52
0.0
 50
90.0
100
AcDbRotatedDimension
  0
DIMENSION
  5
174
330
1F
100
AcDbEntity
  8
文本层
100
AcDbDimension
  2
*D3
 10
40.71970709021456
 20
108.2341520955931
 30
0.0
 11
37.59470709021454
 21
153.2341520955931
 31
0.0
 70
    32
  1
{\f??|b0|i0|c0|p54;45}
 71
     5
 42
90.00000000000001
  3
机械标注
100
AcDbAlignedDimension
 13
65.66652080576904
 23
198.2341520955931
 33
0.0
 14
69.45606204350514
 24
108.2341520955931
 34
0.0
 52
0.0
 50
90.0
100
AcDbRotatedDimension
  0
DIMENSION
  5
181
102
{ACAD_REACTORS
330
198
102
}
102
{ACAD_XDICTIONARY
360
18E
102
}
330
1F
100
AcDbEntity
  8
文本层
100
AcDbDimension
  2
*D4
 10
133.6805283271537
 20
214.2341520955931
 30
0.0
 11
130.5555283271537
 21
223.2341520955931
 31
0.0
 70
    32
  1
{\f??|b0|i0|c0|p54;9}
 71
     5
 42
18.00000000000003
  3
机械标注
100
AcDbAlignedDimension
 13
110.6043923662037
 23
232.2341520955931
 33
0.0
 14
110.6043923662037
 24
214.2341520955931
 34
0.0
 52
0.0
 50
90.0
100
AcDbRotatedDimension
  0
DIMENSION
  5
199
102
{ACAD_REACTORS
330
1B0
102
}
102
{ACAD_XDICTIONARY
360
1A6
102
}
330
1F
100
AcDbEntity
  8
文本层
100
AcDbDimension
  2
*D5
 10
75.09321869359128
 20
217.4449182927332
 30
0.0
 11
168.474152886449
 21
257.264231320753
 31
0.0
 70
   163
  1
{\f??|b0|i0|c0|p54;15-%%c12}
 71
     5
 42
23.99999999999983
  3
机械标注
100
AcDbDiametricDimension
 15
96.11556603881624
 25
229.0233858984531
 35
0.0
 40
0.0
  0
DIMENSION
  5
1B1
102
{ACAD_REACTORS
330
1C4
102
}
102
{ACAD_XDICTIONARY
360
1BC
102
}
330
1F
100
AcDbEntity
  8
文本层
100
AcDbDimension
  2
*D6
 10
108.6043923662037
 20
110.2341520955931
 30
0.0
 11
147.6689289982136
 21
89.72669070815931
 31
0.0
 70
   164
  1
{\f??|b0|i0|c0|p54;4-R1}
 71
     5
 42
2.000000000000057
  3
机械标注
100
AcDbRadialDimension
 15
110.1244033515543
 25
108.9343187968915
 35
0.0
 40
0.0
  0
VIEWPORT
  5
74
330
59
100
AcDbEntity
 67
     1
  8
0
100
AcDbViewport
 10
118.3790992647276
 20
101.2536575369942
 30
0.0
 40
365.3460671718717
 41
196.9475967993329
 68
     1
 69
     1
 12
118.3790992647276
 22
101.2536575369942
 13
0.0
 23
0.0
 14
0.5
 24
0.5
 15
0.5
 25
0.5
 16
0.0
 26
0.0
 36
1.0
 17
0.0
 27
0.0
 37
0.0
 42
50.0
 43
0.0
 44
0.0
 45
196.9475967993329
 50
0.0
 51
0.0
 72
   100
 90
    32800
  1

281
     0
 71
     1
 74
     0
110
0.0
120
0.0
130
0.0
111
1.0
121
0.0
131
0.0
112
0.0
122
1.0
132
0.0
 79
     0
146
0.0
348
0
340
0
345
0
346
0
  0
VIEWPORT
  5
76
330
59
100
AcDbEntity
 67
     1
  8
0
100
AcDbViewport
 10
133.3499939441681
 20
101.5999939441681
 30
0.0
 40
213.3599903106689
 41
162.5599903106689
 68
     1
 69
     2
 12
189.8178844703546
 22
151.5165191855306
 13
0.0
 23
0.0
 14
10.0
 24
10.0
 15
10.0
 25
10.0
 16
0.0
 26
0.0
 36
1.0
 17
0.0
 27
0.0
 37
0.0
 42
50.0
 43
0.0
 44
0.0
 45
328.962675304922
 50
0.0
 51
0.0
 72
   100
 90
    32864
  1

281
     0
 71
     1
 74
     0
110
0.0
120
0.0
130
0.0
111
1.0
121
0.0
131
0.0
112
0.0
122
1.0
132
0.0
 79
     0
146
0.0
348
0
340
0
345
0
346
0
  0
ENDSEC
  0
SECTION
  2
OBJECTS
  0
DICTIONARY
  5
C
330
0
100
AcDbDictionary
281
     1
  3
ACAD_GROUP
350
D
  3
ACAD_LAYOUT
350
1A
  3
ACAD_MLINESTYLE
350
17
  3
ACAD_PLOTSETTINGS
350
19
  3
ACAD_PLOTSTYLENAME
350
E
  3
AcDbVariableDictionary
350
67
  0
DICTIONARY
  5
D
102
{ACAD_REACTORS
330
C
102
}
330
C
100
AcDbDictionary
281
     1
  0
ACDBDICTIONARYWDFLT
  5
E
102
{ACAD_REACTORS
330
C
102
}
330
C
100
AcDbDictionary
281
     1
  3
Normal
350
F
100
AcDbDictionaryWithDefault
340
F
  0
ACDBPLACEHOLDER
  5
F
102
{ACAD_REACTORS
330
E
102
}
330
E
  0
DICTIONARY
  5
17
102
{ACAD_REACTORS
330
C
102
}
330
C
100
AcDbDictionary
281
     1
  3
Standard
350
18
  0
MLINESTYLE
  5
18
102
{ACAD_REACTORS
330
17
102
}
330
17
100
AcDbMlineStyle
  2
STANDARD
 70
     0
  3

 62
   256
 51
90.0
 52
90.0
 71
     2
 49
0.5
 62
   256
  6
BYLAYER
 49
-0.5
 62
   256
  6
BYLAYER
  0
DICTIONARY
  5
19
102
{ACAD_REACTORS
330
C
102
}
330
C
100
AcDbDictionary
281
     1
  0
DICTIONARY
  5
1A
102
{ACAD_REACTORS
330
C
102
}
330
C
100
AcDbDictionary
281
     1
  3
Model
350
22
  3
布局1
350
5A
  3
布局2
350
5F
  0
LAYOUT
  5
22
102
{ACAD_REACTORS
330
1A
102
}
330
1A
100
AcDbPlotSettings
  1

  2
none_device
  4
ANSI_A_(8.50_x_11.00_Inches)
  6

 40
6.349999904632568
 41
19.04999923706055
 42
6.350006103515625
 43
19.04998779296875
 44
215.8999938964844
 45
279.3999938964844
 46
0.0
 47
0.0
 48
0.0
 49
0.0
140
0.0
141
0.0
  6

142
1.0
143
57.07986212157697
 70
 11952
 72
     0
 73
     1
 74
     0
  7

 75
     0
147
0.01751931351673652
148
-2282.040442273535
149
2.561166666666503
100
AcDbLayout
  1
Model
 70
     1
 71
     0
 10
0.0
 20
0.0
 11
12.0
 21
9.0
 12
0.0
 22
0.0
 32
0.0
 14
0.0
 24
0.0
 34
0.0
 15
0.0
 25
0.0
 35
0.0
146
0.0
 13
0.0
 23
0.0
 33
0.0
 16
1.0
 26
0.0
 36
0.0
 17
0.0
 27
1.0
 37
0.0
 76
     0
330
1F
  0
LAYOUT
  5
5A
102
{ACAD_REACTORS
330
1A
102
}
330
1A
100
AcDbPlotSettings
  1

  2
none_device
  4
Letter_(8.50_x_11.00_Inches)
  6

 40
6.349999904632568
 41
6.349999904632568
 42
6.350006103515625
 43
6.350006103515625
 44
215.8999938964844
 45
279.3999938964844
 46
0.0
 47
0.0
 48
0.0
 49
0.0
140
0.0
141
0.0
  6

142
1.0
143
1.0
 70
   688
 72
     1
 73
     1
 74
     5
  7

 75
    16
147
1.0
148
0.0
149
0.0
100
AcDbLayout
  1
布局1
 70
     1
 71
     1
 10
-6.350006103515625
 20
-6.349999904632568
 11
273.0499877929688
 21
209.5499939918518
 12
0.0
 22
0.0
 32
0.0
 14
26.66999878883362
 24
20.31999878883363
 34
0.0
 15
240.0299890995026
 25
182.8799890995026
 35
0.0
146
0.0
 13
0.0
 23
0.0
 33
0.0
 16
1.0
 26
0.0
 36
0.0
 17
0.0
 27
1.0
 37
0.0
 76
     0
330
59
331
74
  0
LAYOUT
  5
5F
102
{ACAD_REACTORS
330
1A
102
}
330
1A
100
AcDbPlotSettings
  1

  2
none_device
  4
Letter_(8.50_x_11.00_Inches)
  6

 40
6.349999904632568
 41
6.349999904632568
 42
6.350006103515625
 43
6.350006103515625
 44
215.8999938964844
 45
279.3999938964844
 46
0.0
 47
0.0
 48
0.0
 49
0.0
140
0.0
141
0.0
  6

142
1.0
143
1.0
 70
   688
 72
     1
 73
     1
 74
     5
  7

 75
    16
147
1.0
148
0.0
149
0.0
100
AcDbLayout
  1
布局2
 70
     1
 71
     2
 10
-6.350006103515625
 20
-6.349999904632568
 11
273.0499877929688
 21
209.5499939918518
 12
0.0
 22
0.0
 32
0.0
 14
26.66999878883362
 24
20.31999878883363
 34
0.0
 15
240.0299890995026
 25
182.8799890995026
 35
0.0
146
0.0
 13
0.0
 23
0.0
 33
0.0
 16
1.0
 26
0.0
 36
0.0
 17
0.0
 27
1.0
 37
0.0
 76
     0
330
5E
331
2FE
  0
DICTIONARY
  5
67
102
{ACAD_REACTORS
330
C
102
}
330
C
100
AcDbDictionary
281
     1
  3
DIMASSOC
350
68
  3
HIDETEXT
350
6C
  3
SORTENTS
350
498
  0
DICTIONARYVAR
  5
68
102
{ACAD_REACTORS
330
67
102
}
330
67
100
DictionaryVariables
280
     0
  1
2
  0
DICTIONARYVAR
  5
6C
102
{ACAD_REACTORS
330
67
102
}
330
67
100
DictionaryVariables
280
     0
  1
1
  0
DICTIONARY
  5
18E
330
181
100
AcDbDictionary
280
     1
281
     1
  3
ACAD_DIMASSOC
360
198
  0
DICTIONARY
  5
1A6
330
199
100
AcDbDictionary
280
     1
281
     1
  3
ACAD_DIMASSOC
360
1B0
  0
DICTIONARY
  5
1BC
330
1B1
100
AcDbDictionary
280
     1
281
     1
  3
ACAD_DIMASSOC
360
1C4
  0
DICTIONARYVAR
  5
498
102
{ACAD_REACTORS
330
67
102
}
330
67
100
DictionaryVariables
280
     0
  1
1
  0
ENDSEC
  0
SECTION
  2
THUMBNAILIMAGE
 90
    18627
310
BF4800000201030100005000000002530100005C480000000000000000000000000000000000000000000000000000000000000000000000000000000000000000000000000000000000000000000000000000000000000000000000000000000000000000000028000000B400000061000000010008000000000034440000
310
00000000000000000001000000000000FFFFFF00FFFFFF0000000000FFFFFF00FFFFFF00FFFFFF00FFFFFF00FFFFFF00FFFFFF00FFFFFF00FFFFFF00330000006600000099000000CC000000FF00000000330000333300006633000099330000CC330000FF33000000660000336600006666000099660000CC660000FF6600
310
0000990000339900006699000099990000CC990000FF99000000CC000033CC000066CC000099CC0000CCCC0000FFCC000000FF000033FF000066FF000099FF0000CCFF0000FFFF000000003300330033006600330099003300CC003300FF00330000333300333333006633330099333300CC333300FF333300006633003366
310
33006666330099663300CC663300FF66330000993300339933006699330099993300CC993300FF99330000CC330033CC330066CC330099CC3300CCCC3300FFCC330000FF330033FF330066FF330099FF3300CCFF3300FFFF330000006600330066006600660099006600CC006600FF00660000336600333366006633660099
310
336600CC336600FF33660000666600336666006666660099666600CC666600FF66660000996600339966006699660099996600CC996600FF99660000CC660033CC660066CC660099CC6600CCCC6600FFCC660000FF660033FF660066FF660099FF6600CCFF6600FFFF660000009900330099006600990099009900CC009900
310
FF00990000339900333399006633990099339900CC339900FF33990000669900336699006666990099669900CC669900FF66990000999900339999006699990099999900CC999900FF99990000CC990033CC990066CC990099CC9900CCCC9900FFCC990000FF990033FF990066FF990099FF9900CCFF9900FFFF99000000CC
310
003300CC006600CC009900CC00CC00CC00FF00CC000033CC003333CC006633CC009933CC00CC33CC00FF33CC000066CC003366CC006666CC009966CC00CC66CC00FF66CC000099CC003399CC006699CC009999CC00CC99CC00FF99CC0000CCCC0033CCCC0066CCCC0099CCCC00CCCCCC00FFCCCC0000FFCC0033FFCC0066FF
310
CC0099FFCC00CCFFCC00FFFFCC000000FF003300FF006600FF009900FF00CC00FF00FF00FF000033FF003333FF006633FF009933FF00CC33FF00FF33FF000066FF003366FF006666FF009966FF00CC66FF00FF66FF000099FF003399FF006699FF009999FF00CC99FF00FF99FF0000CCFF0033CCFF0066CCFF0099CCFF00CC
310
CCFF00FFCCFF0000FFFF0033FFFF0066FFFF0099FFFF00CCFFFF0000000000FFFFFF000D0D0D001A1A1A00282828003535350043434300505050005D5D5D006B6B6B00787878008686860093939300A1A1A100AEAEAE00BBBBBB00C9C9C900D6D6D600E4E4E400F1F1F10000000000FFFFFF00FFFFFF00FFFFFF00FFFFFF00
310
FFFFFF00FFFFFF00FFFFFF00FFFFFF00FFFFFF00FFFFFF0000000000000000000000000000000000000000000000000000000000000000000000000000000000000000000000000000000000000000000000000000000000000000000000000000000000000000000000000000000000000000000000000000000000000000
310
00000000000000000000000000000000000000000000000000000000000000000000000000000000000000000000000000000000000000000000000000000000000000000000000000000000000000000000000000000000000000000000000000000000000000000000000000000000000000000000000000000000000000
310
00000000000000000000000000000000000000000000000000000000000000000000000000000000000000000000000000000000000000000000000000000000000000000000000000000000000000000000000000000000000000000000000000000000000000000000000000000000000000000000000000000000000000
310
00000000000000000000000000000000000000000000000000000000000000000000000000000000000000000000000000000000000000000000000000000000000000000000000000000000000000000000000000000000000000000000000000000000000000000000000000000000000000000000000000000000000000
310
00000000000000000000000000000000000000000000000000000000000000000000000000000000000000000000000000000000000000000000000000000000000000000000000000000000000000000000000000000000000000000000000000000000000000000000000000000000000000000000000000000000000000
310
00000000000000000000000000000000000000000000000000000000000000000000000000000000000000000000000000000000000000000000000000000000000000000000000000000000000000000000000000000000000000000000000000000000000000000000000000000000000000000000000000000000000000
310
00000000000000000000000000000000000000000000000000000000000000000000000000000000000000000000000000000000000000000000000000000000000000000000000000000000000000000000000000000000000000000000000000000000000000000000000000000000000000000000000000000000000000
310
00000000000000000000000000000000000000000000000000000000000000000000000000000000000000000000000000000000000000000000000000000000000000000000000000000000000000000000000000000000000000000000000000000000000000000000000000000000000000000000000000000000000000
310
00000000000000000000000000000000000000000000000000000000000000000000000000000000000000000000000000000000000000000000000000000000000000000000000000000000000000000000000000000000000000000000000000000000000000000000000000000000000000000000000000000000000000
310
00000000000000000000BE0000000000000000000000000000000000000000000000000000000000000000000000000000000000000000000000000000000000000000000000000000000000000000000000BE0000000000000000000000000000000000000000000000000000000000000000000000000000000000000000
310
000000000000000000000000000000000000000000000000000000000000000000000000000000000000000000000000000000000000000000000000000000BE000000000000000000000000000000000000000000000000000000000000000000000000000000000000000000000000000000000000000000000000000000
310
0000000000000000BE000000000000000000000000000000000000000000000000000000000000000000000000000000000000000000000000000000000000000000000000000000000000000000000000000000000000000000000000000000000000000000000000F5F5F5F5F5F5F5F5F5F5F5BEF5F5F5F5F5F5F5F5F5F5
310
00000000000000000000000000000000000000000000000000000000000000000000000000000000000000000000000000000000000000F5F5F5F5F5F5F5F5F5F5F5F5F50000000000000000000000000000000000000000000000000000000000000000000000000000000000000000000000000000000000000000000000
310
00000000000000000000000000009E9E9E9E9E9E9E9E9E9E9E9E9E9E9E9E9E9E9E9E9E9E9EF520F5F520BEF520F5F520F520F5F5F50000000000000000000000000000000000000000000000000000000000000000000000000000000000000000000000000000000000F5F5F5F5F5F5F5F5F5F5F5F5F5F5F5F5F500000000
310
00000000000000000000000000000000000000000000000000000000000000000000000000000000000000000000000000000000000000000000000000000000000000009E000000000000000000000000000000F5F5F520F5F520F520F5F5BEF5F520F5F520F520F5F5000000000000000000000000000000000000000000
310
00000000000000000000000000000000000000000000000000000000F5F5F5F5F5F5F5F5F5F5F5F5F5F5F5F5F5F5F5F5F5F5F5F5F500000000000000000000000000000000000000000000000000000000000000000000000000000000000000000000000000000000000000000000000000000000000000009E0000000000
310
00000000000000000000F520F50020000020002000BE20000020000020F520F5000000000000000000000000000000000000000000000000000000000000000000000000000000000000000000F5F5F5F5F5F5F5F5F5F5000000000000BE000000000000F5F5F5F5F5F5F5F5F5F50000000000000000000000000000000000
310
00000000000000000000000000000000000000000000000000000000000000000000000000000000000000000000009E000000000000000000000000000000F5F5200000200000200020BE00200000200020F5F5F5000000000000000000000000000000000000000000000000000000000000000000000000000000000000
310
00F5F5F5F5F5F5F5F5F5F50000000000000000BE0000000000000000F5F5F5F5F5F5F5F5F5F500000000000000000000000000000000000000000000000000000000000000000000000000000000000000000000000000000000000000000000000000009E000000000000000000000000000000F5F5F520000020000020F5
310
BEF500200000200020F5F50000000000000000000000000000000000000000000000000000000000000000000000000000000000F5F5F5F5F5F5F5F5000000000000000000000000BE000000000000000000000000F5F5F5F5F5F5F5F500000000000000000000000000000000000000000000000000000000000000000000
310
00000000000000000000000000000000000000000000000000009E000000000000000000000000000000F520F5F520F5F520F5F520BE20F5F520F5F520F520F500000000000000000000000000000000000000000000000000000000000000000000000000000000F5F5F5F5F5F5F50000000000000000000000F5F5F5F5F5
310
F5F50000000000000000000000F5F5F5F5F5F5F500000000000000000000000000000000000000000000000000000000000000000000000000000000000000000000000000000000000000000000009E000000000000000000000000000000F5F520F5F520F5F520F5F5BEF520F5F520F5F520F5F500000000000000000000
310
00000000000000000000000000000000000000000000000000000000F5F5F5F5F5F5F500000000000000000000F5F5F5F5F5F5F5F5F5F5F5F5F5F5000000000000000000F5F5F5F5F5F50000000000000000000000000000000000000000000000000000000000000000000000000000000000000000000000000000000000
310
00000000009E000000000000000000000000000000F5F5F5F5F5F5F5F5F50000BE00F5F5F5F5F5F5F5F5F500000000000000000000000000000000000000000000000000000000000000000000000000F5F5F5F5F5F500000000000000F5F5F5F5F5F5F5F5F5F5F5F5F5F5F5F5F5F5F5F5F5F5F500000000000000F5F5F5F5
310
F5F500000000000000000000000000000000000000000000000000000000000000000000000000000000000000000000000000000000000000009E000000000000000000000000000000F5F5F50000F5F5F5000000BE0000F5F5F50000F5F5F500000000000000000000000000000000000000000000000000000000000000
310
0000000000F5F5F5F5F5F500000000F5F5F5F5F5F5F5F5F5F5F5F5F5F5F5BEF5F5F5F5F5F5F5F5F5F5F5F5F5F5F500000000F5F5F5F5F5F5000000000000000000000000000000000000000000000000000000000000000000000000000000000000000000000000000000000000009E000000000000000000000000000000
310
F5F5F50000F5F5F5000000BE0000F5F5F50000F5F5F50000000000000000000000000000000000000000000000000000000000000000000000F5F5F5F5F5F5000000F5F5F5F5F5F5F5F5F5F5F500000000F5F5F5F5F5F500000000F5F5F5F5F5F5F5F5F50000000000F5F5F5F5F50000000000000000000000000000000000
310
000000000000000000000000000000000000000000000000000000000000000000000000009E000000000000000000000000000000F5F5F50000F5BEBEBEBEBEBEBEBEBEBEF50000F5F5F50000000000000000000000000000000000000000000000000000000000000000000000F5F5F5F500000000F5F5F5F5F5F5F5F5F5
310
F5000082828282F5F5F5F5F5828282820000F5F5F5F5F5F5F5F5F5F500000000F5F5F5F5F500000000000000000000000000000000000000000000000000000000000000000000000000000000000000000000000000000000009E000000000000000000000000000000F5F5F50000F5F5F5000000BE0000F5F5F50000F5F5
310
F500000000000000000000000000000000000000000000000000000000000000000000F5F5F5F500000000F5F5F5F5F5F5F5F5F5F5F5828200000000F5F5F5F5F5000000008282F5F5F5F5F5F5F5F5F5F5F500000000F5F5F5F5F5000000000000000000000000000000000000000000000000000000000000000000000000
310
000000000000000000000000000000009E000000000000000000000000000000F5F5F5F5F5F5F5F5F50000BE0000F5F5F5F5F5F5F5F5000000000000009E9E9E9E9E9E9E9E9E0000000000000000000000000000000000F5F5F5F5F5000000F5F5F5F5F5F5F5F5F5F5F5F5F50000F5F5F5F5F5F5F5F5F5F5F50000F5F5F5F5
310
F5F5F500F5F5F5F5F500000000F5F5F5F5F50000000000000000000000000000000000000000000000000000000000000000000000000000000000000000000000000000009E000000000000000000000000000000F5F520F5F520F5F520F5F5BEF5F5F5F520F5F520F5F50000000000009E0000009E9E9E9E9E9E00000000
310
000000000000000000000000F5F5F5F5F5000000F5F5F5F5F5000000F5F5F5F5F5F5F5F5F5F5F5F5F5F5F5F5F5F5F5F5F5F5F5F5F5F5F5820000F5F5F5F5F5F5000000F5F5F5F5F500000000000000000000000000000000000000000000000000000000000000000000000000000000000000000000000000009E00000000
310
0000000000000000000000F520F5F520F5F520F5F520BEF520F520F5F520F520F500000000009E00000000009E009E9E9E000000000000000000000000000000F5F5F5F5F5000000F5F5F5F5F50000828200F5F5F5F5F5F5F5F5F5F5F5F5F5F5F5F5F5F5F5F5F5F5F5F5F50000828200F5F5F5F5F5F5000000F5F5F5F5F500
310
0000000000000000000000000000000000000000000000000000000000000000000000000000000000000000000000009E000000000000000000000000000000F5F5F52000002000F520F5BE20F5200000200020F5F5000000009E00000000000000000000000000000000000000000000000000F5F5F5F5F5000000F5F5F5
310
F5F50000820000F5F5F5F5F5F5F5F50000000000BE0000000000F5F5F5F5F5F5F5F5000000820000F5F5F5F5F5000000F5F5F5F5000000000000000000000000000000000000000000000000000000000000000000000000000000000000000000000000009E000000000000000000000000000000F5F52000002000002000
310
00BE00200000200020F5F5F500009E9E00000000000000000000000000000000000000000000000000F5F5F5F5F500000000F5F5F5F5F500820000F5F5F5F5F5F50000000000000000BE0000000000000000F5F5F5F5F5F500000082F5F5F5F5F5F5F5000000F5F5F5F5000000000000000000000000000000000000000000
310
0000000000000000000000000000000000000000000000000000009E000000000000000000000000000000F520F50020002020002020BE20000020002000F520F5009E000000000000000000000000000000000000000000000000000000F5F5F5F500000000F5F5F5F5F5F5F50000F5F5F5F5F500000000000000000000BE
310
00000000000000000000F5F5F5F5F5000000F5F5F5F5F5F5F5000000F5F5F5F50000000000000000000000000000000000000000000000000000000000000000000000000000000000000000000000009E000000000000000000000000000000F5F5F520F520F5F520F5F5BEF5F520F520F5F520F59E9E0000000000000000
310
0000000000000000000000000000000000000000F5F5F500000000F5F5F5F5F5F5F5F5F5F5F5F5F5F500000000000000000000F5F5F500000000000000000000F5F5F5F5F5F5F5F5F5F5F5F5F5F5F5000000F5F5F5F50000000000000000000000000000000000000000000000000000000000000000000000000000000000
310
0000000000009E000000000000009E9E9E9E9E9E9E9E9E9E9E9E9EF5F520F5F520BEF520F520F5F520F59E9E00000000000000000000000000000000000000000000000000000000F5F5F500000000F5F5F5F5F5F5F5F5F5F5F5F5F5F50000000000000000F5F5F5F5F5F5F5F5F5F500000000000000F5F5F5F5F5F5F5F5F5
310
F5F5F5F5F500000000F5F5F500000000000000000000000000000000000000000000000000000000000000000000000000000000000000000000009E00000000000000009E9E0000000000F520F5F5F5F5F5F5F5F5F5BEF5F5F5F5F5F5F59E20F500000000000000000000000000000000000000000000000000000000F5F5
310
F500000000F5F5F5F5F5F5F5F5F5F5F5F5F5000000000000F5F5F5F5F5F5F5F5F5F5F5F5F5F5F5F50000000000F5F5F5F5F5F5F5F5F500F5F5F5F500000000F5F5F5000000000000000000000000000000000000000000000000000000000000000000000000000000000000000000009E00000000000000009E9E00000000
310
00F5F5F500000000000000000000000000000000F5F5F5000000000000000000000000000000000000000000000000000000F5F5F500000000F5F5F5F50000F5F5F5F5F5F5F500000000F5F5F5F5F5F5F5F5F5000000F5F5F5F5F5F5F5F5F5F5000000F5F5F5F5F5F5F5820000F5F5F500000000F5F5F50000000000000000
310
00000000000000000000000000000000000000000000000000000000000000000000000000009E00000000000000009E000000000000F5F5F50000000000000000BE00000000000000F5F5F5000000000000000000000000000000000000000000000000000000F5F5F5000000F5F5F5F5F5008200F5F5F5F500000000F5F5
310
F5F5F5F5F5F500000000BE0000000000F5F5F5F5F5F5F500000000F5F5F5F5F500820000F5F5F5000000F5F5F5000000000000000000000000000000000000000000000000000000000000000000000000000000000000000000009E00000000000000009E000000000000F5F5F50000000000000000BE00000000000000F5
310
F5F50000000000000000000000000000000000000000000000000000F5F5F500000000F5F5F5F500820000F5F5F500000000F5F5F5F5F5F500000000000000BE0000000000000000F5F5F5F5F500000000F5F5F50000820000F5F5F500000000F5F5F500000000000000000000000000000000000000000000000000000000
310
00000000000000000000000000000000009E00000000000000009E000000000000F5F5F50000000000000000BE00000000000000F5F5F50000000000000000000000000000000000000000000000000000F5F5F5000000F5F5F5F500008200F5F5F5F5000000F5F5F5F5F5F50000000000000000BE000000000000000000F5
310
F5F5F5F500000000F5F5F50000820000F5F5F5000000F5F5F50000000000000000000000000000000000000000000000000000000000000000000000000000000000000000009E00000000000000009E000000000000F5F5F50000000000000000BE00000000000000F5F5F500000000000000000000000000000000000000
310
000000000000F5F5F500000000F5F5F5F5008200F5F5F5F500000000F5F5F5F500000000000000000000BE00000000000000000000F5F5F5F5F5000000F5F5F5F5000082F5F5F5F500000000F5F5F500000000000000000000000000000000000000000000000000000000000000000000000000000000000000009E000000
310
00000000009E000000000000F5F5F50000000000000000BE00000000000000F5F5F500000000000000000000000000000000000000000000000000F5F5F500000000F5F5F5F5F58200F5F5F5F5000000F5F5F5F50000000000000000000000BE0000000000000000000000F5F5F5F5F50000F5F5F5F50000F5F5F5F5F5F500
310
0000F5F5F500000000000000000000000000000000000000000000000000000000000000000000000000000000000000009E00000000000000009E000000000000F5F5F50000000000000000BE00000000000000F5F5F500000000000000000000000000000000000000000000000000F5F5F5000000F5F5F5F5F5F5F5F5F5
310
F5F5000000F5F5F5F5F50000000000000000000000BE000000000000000000000000F5F5F5F5000000F5F5F5F5F5F5F5F5F5F5F5000000F5F5F500000000000000000000000000000000000000000000000000000000000000000000000000000000000000009E00000000000000009E000000000000F5F5F5000000000000
310
0000BE00000000000000F5F5F500000000000000000000000000000000000000000000000000F5F5F5000000F5F5F5F5F5F5F5F5F5F5F5000000F5F5F5F5000000000000000000000000BE00000000000000000000000000F5F5F5000000F5F5F5F5F5F5F5F5F5F5F5000000F5F5F500000000000000000000000000000000
310
000000000000000000000000000000000000000000000000000000009E00000000000000009E000000000000F5F5F50000000000000000BE00000000000000F5F5F5000000000000000000000000000000000000000000000000F5F5F500000000F5F5F5F5F5F5F5F5F5F5000000F5F5F5F500000000000000000000000000
310
BE0000000000000000000000000000F5F5F5000000F5F5F5F5F5F5F5F5F5F500000000F5F5F5000000000000000000000000000000000000000000000000000000000000000000000000000000000000009E00000000000000009E000000000000F5F5F50000000000000000BE00000000000000F5F5F50000000000000000
310
00000000000000000000000000000000F5F5F5000000F5F5F5F5F5F5F5F5F5F5F5000000F5F5F5F500000000000000000000000000BE0000000000000000000000000000F5F5F500000000F5F5F5F5F5F5F5F5F5F5000000F5F5F5000000000000000000000000000000000000000000000000000000000000000000000000
310
000000000000009E00000000000000009E000000000000F5F5F50000000000000000BE00000000000000F5F5F5000000000000000000000000000000000000000000000000F5F5F5000000F5F5F5000082F5F5F5F500000000F5F5F50000000000000000000000000000BE0000000000000000000000000000F5F5F5000000
310
00F5F5F5F5820000F5F5F5000000F5F5F5000000000000000000000000000000000000000000000000000000000000000000000000000000000000009E00000000000000009E000000000000F5F5F50000000000000000BE00000000000000F5F5F5000000000000000000000000000000000000000000000000F5F5F50000
310
00F5F5F500008200F5F5F5000000F5F5F5000000000000000000000000000000BE000000000000000000000000000000F5F5F5000000F5F5F500008200F5F5F5000000F5F5F5000000000000000000000000000000000000000000000000000000000000000000000000000000000000009E00000000000000009E00000000
310
0000F5F5F50000000000000000BE00000000000000F5F5F5000000000000000000000000000000000000000000000000F5F5F5000000F5F5F500008200F5F5F5000000F5F5F5000000000000000000000000000000BE000000000000000000000000000000F5F5F5000000F5F5F500008200F5F5F5000000F5F5F500000000
310
0000000000000000000000000000000000000000000000000000000000000000000000000000009E00000000000000009E000000000000F5F5F50000000000000000BE00000000000000F5F5F5000000000000000000000000000000000000000000000000F5F5F5000000F5F5F500820000F5F5F5000000F5F5F500000000
310
0000000000000000000000BE000000000000000000000000000000F5F5F500000000F5F5F500820000F5F5F5000000F5F5F5000000000000000000000000000000000000000000000000000000000000000000000000000000009E9E9E000000000000009E9E000000000000F5F5F50000000000000000BE00000000000000
310
F5F5F5000000000000000000000000000000000000000000000000F5F5F5000000F5F5F500820000F5F5F5000000F5F5F5000000000000000000000000000000BE000000000000000000000000000000F5F5F500000000F5F5F500820000F5F5F5000000F5F5F5000000000000000000000000000000000000000000000000
310
000000000000000000000000000000009E9E9E0000000000009E9E9E00000000BEBEBEBEBEBEBEBEBEBEBEBEBEBEBEBEBEBEBEBEBEBEBEBEBEBEBE000000000000000000000000000000000000BEBEBEBEBEBEBEBEBEBEBEBEBEBEBEBEBEBEBEBEBEBEBEBEBEBEBEBE00BEBEBEBEBEBEBEBEBEBEBEBEBEBEBEBEBEBEBEBEBE
310
BEBEBEBEBEBEBEBEBEBEBEBEBEBEBEBEBEBEBEBEBEBEBEBEBEBEBEBEBEBEBE00000000000000000000000000000000000000000000000000000000000000000000000000009E9E9E0000000000009E9E9E000000000000F5F5F50000000000000000BE00000000000000F5F5F5000000000000000000000000000000000000
310
000000000000F5F5F5000000F5F5F5F5F5F5F5F5F5F5000000F5F5F5000000000000000000000000000000BE000000000000000000000000000000F5F5F500000000F5F5F5F5F5F5F5F5F5F5000000F5F5F5000000000000000000000000000000000000000000000000000000000000000000000000000000009E9E9E0000
310
00000000009E9E000000000000F5F5F50000000000000000BE00000000000000F5F5F5000000000000000000000000000000000000000000000000F5F5F5000000F5F5F5F5F5F5F5F5F5F5000000F5F5F5000000000000000000000000000000BE000000000000000000000000000000F5F5F500000000F5F5F5F5F5F5F5F5
310
F5F5000000F5F5F50000000000000000000000000000000000000000000000000000000000000000000000000000000000009E00000000000000009E000000000000F5F5F50000000000000000BE00000000000000F5F5F5000000000000000000000000000000000000000000000000F5F5F5000000F5F5F5F5F5F5F5F5F5
310
F5000000F5F5F5000000000000000000000000000000BE000000000000000000000000000000F5F5F5000000F5F5F5F5F5F5F5F5F5F5000000F5F5F5F50000000000000000000000000000000000000000000000000000000000000000000000000000000000009E00000000000000009E000000000000F5F5F50000000000
310
000000BE00000000000000F5F5F5000000000000000000000000000000000000000000000000F5F5F5000000F5F5F5F5F5F5F5F5F5F5000000F5F5F5000000000000000000000000000000BE000000000000000000000000000000F5F5F5000000F5F5F5F5F5F5F5F5F5F5000000F5F5F50000000000000000000000000000
310
00000000000000000000000000000000000000000000000000000000009E00000000000000009E000000000000F5F5F50000000000000000BE00000000000000F5F5F5000000000000000000000000000000000000000000000000F5F5F5000000F5F5F5F5F5F5F5F5F5F5000000F5F5F50000000000000000000000000000
310
00BE000000000000000000000000000000F5F5F5000000F5F5F5F5F5F5F5F5F5F5000000F5F5F5000000000000000000000000000000000000000000000000000000000000000000000000000000000000009E00000000000000009E000000000000F5F5F50000000000000000BE00000000000000F5F5F500000000000000
310
0000000000000000000000000000000000F5F5F5000000F5F5F5F5F58200F5F5F5F5000000F5F5F50000000000000000000000000000BE0000000000000000000000000000F5F5F500000000F5F5F5008200F5F5F5F5000000F5F5F50000000000000000000000000000000000000000000000000000000000000000000000
310
00000000000000009E00000000000000009E000000000000F5F5F50000000000000000BE00000000000000F5F5F5000000000000000000000000000000000000000000000000F5F5F5000000F5F5F5F500008200F5F5F5000000F5F5F5F500000000000000000000000000BE0000000000000000000000000000F5F5F50000
310
00F5F5F50000820000F5F5F5000000F5F5F5000000000000000000000000000000000000000000000000000000000000000000000000000000000000009E00000000000000009E000000000000F5F5F50000000000000000BE00000000000000F5F5F5000000000000000000000000000000000000000000000000F5F5F500
310
0000F5F5F5F500008200F5F5F5000000F5F5F5F500000000000000000000000000BE0000000000000000000000000000F5F5F5000000F5F5F500008200F5F5F500000000F5F5F5000000000000000000000000000000000000000000000000000000000000000000000000000000000000009E00000000000000009E000000
310
000000F5F5F50000000000000000BE00000000000000F5F5F500000000000000000000000000000000000000000000000000F5F5F5000000F5F5F50000820000F5F5F5000000F5F5F5F5000000000000000000000000BE00000000000000000000000000F5F5F500000000F5F5F500820000F5F5F5000000F5F5F500000000
310
000000000000000000000000000000000000000000000000000000000000000000000000000000009E00000000000000009E000000000000F5F5F50000000000000000BE00000000000000F5F5F500000000000000000000000000000000000000000000000000F5F5F5000000F5F5F50000820000F5F5F5000000F5F5F5F5
310
F50000000000000000000000BE000000000000000000000000F5F5F5F5000000F5F5F50000820000F5F5F5000000F5F5F500000000000000000000000000000000000000000000000000000000000000000000000000000000000000009E00000000000000009E000000000000F5F5F50000000000000000BE000000000000
310
00F5F5F500000000000000000000000000000000000000000000000000F5F5F500000000F5F5F500008200F5F5F5F5000000F5F5F5F50000000000000000000000BE0000000000000000000000F5F5F5F5F50000F5F5F5F5F500820000F5F5F5000000F5F5F500000000000000000000000000000000000000000000000000
310
000000000000000000000000000000000000009E00000000000000009E000000000000F5F5F50000000000000000BE00000000000000F5F5F500000000000000000000000000000000000000000000000000F5F5F500000000F5F5F5F5F5F5F5F5F5F5F5F5000000F5F5F5F500000000000000000000BE0000000000000000
310
0000F5F5F5F5F50000F5F5F5F5F5F5F5F5F5F5F5F500000000F5F5F500000000000000000000000000000000000000000000000000000000000000000000000000000000000000009E00000000000000009E000000000000F5F5F50000000000000000BE00000000000000F5F5F50000000000000000000000000000000000
310
000000000000000000F5F5F5000000F5F5F5F5F5F5F5F5F5F5F5F5000000F5F5F5F5F5F50000000000000000BE000000000000000000F5F5F5F5F5000000F5F5F5F5F5F5F5F5F5F5F5F5000000F5F5F50000000000000000000000000000000000000000000000000000000000000000000000000000000000000000009E00
310
000000000000009E000000000000F5F5F50000000000000000BE00000000000000F5F5F50000000000000000000000000000000000000000000000000000F5F5F500000000F5F5F5F5F5F5F5F5F5F5F5F5000000F5F5F5F5F5F500000000000000BE0000000000000000F5F5F5F5F5000000F5F5F5F5F5F5F5F5F5F5F5F500
310
000000F5F5F50000000000000000000000000000000000000000000000000000000000000000000000000000000000000000009E00000000000000009E000000000000F5F5F50000000000000000BE00000000000000F5F5F5000000000000000000000000000000000000000000000000000000F5F5F5000000F5F5F5F5F5
310
F5F5F5F5F5F5F5F5000000F5F5F5F5F5F5F5F500000000BE0000000000F5F5F5F5F5F5F5000000F5F5F5F5F5F5F5F5F5F5F5F5F5000000F5F5F5000000000000000000000000000000000000000000000000000000000000000000000000000000000000000000009E00000000000000009E9E0000000000F5F5F500000000
310
000000000000000000000000F5F5F5000000000000000000000000000000000000000000000000000000F5F5F500000000F5F5F5F5F5F58200F5F5F5F5F500000000F5F5F5F5F5F5F5F5F500000000F5F5F5F5F5F5F5F5F5000000F5F5F5F5F50000F5F5F5F5F5F500000000F5F5F500000000000000000000000000000000
310
0000000000000000000000000000000000000000000000000000000000009E00000000000000009E9E0000000000F5F5F5F5F5F5F5F5F5F5F5BEF5F5F5F5F5F5F5F520F500000000000000000000000000000000000000000000000000000000F5F5F500000000F5F5F5F500820000F5F5F5F5F5000000000000F5F5F5F5F5
310
F5F5F5F5F5F5F5F5F5F5F50000000000F5F5F5F5F500000082F5F5F5F5F500000000F5F5F5000000000000000000000000000000000000000000000000000000000000000000000000000000000000000000009E000000000000009E9E9E9E9E9E9E9E9E9E9E9EF5F520F520F5F5BEF5F520F5F520F5F520F5000000000000
310
00000000000000000000000000000000000000000000F5F5F500000000F5F5F5F5F500820000F5F5F5F5F50000000000000000F5F5F5F5F5F5F5F5F5F500000000000000F5F5F5F5F50000008200F5F5F5F500000000F5F5F50000000000000000000000000000000000000000000000000000000000000000000000000000
310
0000000000000000009E000000000000000000000000000000F5F520F5F520F520F5F520BEF520F5F520F5F520F5F50000000000000000000000000000000000000000000000000000000000F5F5F500000000F5F5F5F5F500820000F5F5F5F5F500000000000000000000F5F5F5F5000000000000000000F5F5F5F5F5F500
310
82820000F5F5F5F5000000F5F5F5F500000000000000000000000000000000000000000000000000000000000000000000000000000000000000000000009E000000000000000000000000000000F520F52020002000002000BE20000020000020F520F5000000000000000000000000000000000000000000000000000000
310
0000F5F5F5F500000000F5F5F5F5008200F5F5F5F5F5F5F500000000000000000000BE00000000000000000000F5F5F5F5F5F5F582000000F5F5F5F5000000F5F5F5F50000000000000000000000000000000000000000000000000000000000000000000000000000000000000000000000009E0000000000000000000000
310
00000000F5F5200000200000200020BE0000200000200020F5F50000000000000000000000000000000000000000000000000000000000F5F5F5F5F500000000F5F5F5F500F5F5F5F5F5F5F5F5F5F5F5F5000000000000BE000000000000F5F5F5F5F5F5F5F5F5F5F5F50000F5F5F5F5F5000000F5F5F5F500000000000000
310
00000000000000000000000000000000000000000000000000000000000000000000000000000000009E000000000000000000000000000000F520F500200000200020F5BEF5200000200020F520F5000000000000000000000000000000000000000000000000000000000000F5F5F5F5F5000000F5F5F5F5F5F5F5F5F5F5
310
F5F5F5F5F5F5F5F5F5F5F50000BE0000F5F5F5F5F5F5F5F5F5F5F5F5F5F5F5F5F5F5F5F5F5F5000000F5F5F5F5000000000000000000000000000000000000000000000000000000000000000000000000000000000000000000000000009E000000000000000000000000000000F5F5F520F5F520F520F5F5BE20F5F520F5
310
20F5F520F500000000000000000000000000000000000000000000000000000000000000F5F5F5F5F5000000F5F5F5F5F5F5F5F5F5000000F5F5F5F5F5F5F5F5F5F5F5F5F5F5F5F5F5F5F5F5F5000000F5F5F5F5F5F5F5F5F5F5000000F5F5F5F5F50000000000000000000000000000000000000000000000000000000000
310
00000000000000000000000000000000000000009E000000000000000000000000000000F5F520F59E9E9EF5F5F5F5BEF5F520F520F5F5209E9E9E9E9E9E9E9E9E9E9E0000000000000000000000000000000000000000000000F5F5F5F5F5000000F5F5F5F5F5F5F5F5828200000000F5F5F5F5F5F5F5F5F5F5F5F5F5F5F5
310
F5000000008282F5F5F5F5F5F5F5F5000000F5F5F5F5F500000000000000000000000000000000000000000000000000000000000000000000000000000000000000000000000000009E000000000000000000000000000000F5F5F5F5F59E9E9EF50000BE00F5F5F5F5F5F5F5F5F5000000000000009E0000000000000000
310
0000000000000000000000000000000000F5F5F5F5F5000000F5F5F5F5F5F5F5000082820000F5F5F5F5F5F5F5F5F5F5F5F5F5F5F500000082820000F5F5F5F5F5F5F5000000F5F5F5F5F50000000000000000000000000000000000000000000000000000000000000000000000000000000000000000000000000000009E
310
000000000000000000000000000000F5F5F50000F5F5F59E9E00BE0000F5F5F50000F5F5F5000000000000009E0000000000000000000000000000000000000000000000000000F5F5F5F500000000F5F5F5F5F5F5F50000008282F5F5F5F5F50000BE0000F5F5F5F5F5F58282000000F5F5F5F5F5F500000000F5F5F5F5F5
310
000000000000000000000000000000000000000000000000000000000000000000000000000000000000000000000000000000009E000000000000000000000000000000F5F5F50000F5BEBEBEBE9E9EBEBEBEBEF50000F5F5F500000000009E9E9E000000000000000000000000000000000000000000000000000000F5F5
310
F5F50000000000F5F5F5F5F5F5F500F5F5F5F5F582828282828282828282F5F5F5F50000F5F5F5F5F5F50000000000F5F5F5F5F500000000000000000000000000000000000000000000000000000000000000000000000000000000000000000000000000000000009E000000000000000000000000000000F5F5F50000F5
310
F5F5000000BE9E9EF5F5F50000F5F5F500000000009E9E9E000000000000000000000000000000000000000000000000000000F5F5F5F5F5000000000000F5F5F5F5F5F5F5F5F5F5F5F5F50000BE000000F5F5F5F5F5F5F5F5F5F5F5F50000000000F5F5F5F5F5F50000000000000000000000000000000000000000000000
310
000000000000000000000000000000000000000000000000000000000000009E000000000000000000000000000000F5F5F50000F5F5F5F50000BE00F59E9EF50000F5F5F5000000000000009E00000000000000000000000000000000000000000000000000000000F5F5F5F5F5F500000000000000F5F5F5F5F5F5F5F5F5
310
F50000BE0000F5F5F5F5F5F5F5F5F5F5F5000000000000F5F5F5F5F5F5000000000000000000000000000000000000000000000000000000000000000000000000000000000000000000000000000000000000009E000000000000000000000000000000F5F5F5F5F5F5F5F5F5F500BEF5F5F5F59EF5F5F5F5F50000000000
310
00009E0000000000000000000000000000000000000000000000000000000000F5F5F5F5F5F50000000000000000F5F5F5F5F5F5F5F5F5F5F5F5F5F5F5F5F5F5F5F5F5F500000000000000F5F5F5F5F5F500000000000000000000000000000000000000000000000000000000000000000000000000000000000000000000
310
000000000000000000009E000000000000000000000000000000F5F520F5F520F5F5F520F5BEF5F520F5209E9E209E9E9E9E9E9E9E9E9E9E9E000000000000000000000000000000000000000000000000000000000000F5F5F5F5F5F5000000000000000000F5F5F5F5F5F5F5F5F5F5F5F5F5F5F5000000000000000000F5
310
F5F5F5F5F5F50000000000000000000000000000000000000000000000000000000000000000000000000000000000000000000000000000000000000000009E000000000000000000000000000000F520F520F5F520F5F5F520BE20F5F520F520F59E9EF50000000000000000000000000000000000000000000000000000
310
0000000000000000000000000000F5F5F5F5F5F5F50000000000000000000000F5F5F5F5F5F5F50000000000000000000000F5F5F5F5F5F5F500000000000000000000000000000000000000000000000000000000000000000000000000000000000000000000000000000000000000000000009E00000000000000000000
310
0000000000F5F52000200000200000F5BEF5200000200020F5F59E9E00000000000000000000000000000000000000000000000000000000000000000000000000000000F5F5F5F5F5F5F5F5000000000000000000000000BE000000000000000000000000F5F5F5F5F5F5F5F5000000000000000000000000000000000000
310
0000000000000000000000000000000000000000000000000000000000000000000000000000000000009E000000000000000000000000000000F5F5F52000202000200000BE0000200000200020F5F5009E9E00000000000000000000000000000000000000000000000000000000000000000000000000000000F5F5F5F5
310
F5F5F5F5F5F5F500000000000000BE00000000000000F5F5F5F5F5F5F5F5F5F5F500000000000000000000000000000000000000000000000000000000000000000000000000000000000000000000000000000000000000000000000000009E000000000000000000000000000000F59EF50020000020002000BE20000020
310
000020F59EF50000009E0000000000000000000000000000000000000000000000000000000000000000000000000000000000F5F5F5F5F5F5F5F5F5F5F5F5F5F50000BE0000F5F5F5F5F5F5F5F5F5F5F5F5F5F500000000000000000000000000000000000000000000000000000000000000000000000000000000000000
310
0000000000000000000000000000000000000000009E000000000000000000000000000000F59E20F5F520F5F520F520BEF520F5F520F5F5209EF5000000009E9E00000000000000000000000000000000000000000000000000000000000000000000000000000000000000F5F5F5F5F5F5F5F5F5F5F5F5F5F5F5F5F5F5F5
310
F5F5F5F5F5F5000000000000000000000000000000000000000000000000000000000000000000000000000000000000000000000000000000000000000000000000000000000000009E9E9E9E9E9E9E9E9E9E9E9E9E9E9E9E9E9E9E9E9EF5F520F5F520F5BEF5F520F5F520F5F59EF50000000000009E9E00000000000000
310
000000000000000000000000000000000000000000000000000000000000000000000000000000F5F5F5F5F5F5F5F5F5F5F5F5F5F5F500000000000000000000000000000000000000000000000000000000000000000000000000000000000000000000000000000000000000000000000000000000000000000000000000
310
00000000000000000000000000000000F59EF5F5F5F5F5F5F5F5F5BEF5F5F5F5F5F5F5F59EF500000000000000009E9E00000000000000000000000000000000000000000000000000000000000000000000000000000000000000000000000000F5F5F5F5F500000000000000000000000000000000000000000000000000
310
000000000000000000000000000000000000000000000000000000000000000000000000000000000000000000000000000000000000000000000000000000000000000000009E000000000000000000BE00000000000000009E00000000000000000000009E9E000000000000000000000000000000000000000000000000
310
00000000000000000000000000000000000000000000000000BE000000000000000000000000000000000000000000000000000000000000000000000000000000000000000000000000000000000000000000000000000000000000000000000000000000000000000000000000000000000000000000000000009E000000
310
000000000000BE00000000000000009E000000000000000000000000009E9E9E9E9E9E9E9E9E9E9E9E9E000000000000000000000000000000000000000000000000000000000000000000000000BE000000000000000000000000000000000000000000000000000000000000000000000000000000000000000000000000
310
000000000000000000000000000000000000000000000000000000000000000000000000000000000000000000000000009E0000000000000000000000000000000000009E0000000000000000000000000000000000009E9E9E9E9E9E9E9E0000000000000000000000000000000000000000000000000000000000000000
310
0000000000000000000000000000000000000000000000000000000000000000000000000000000000000000000000000000000000000000000000000000000000000000000000000000000000000000000000000000000000000000000000000000000000009E0000000000000000000000000000000000009E0000000000
310
000000000000000000000000009E9E9E009E9E9E9E00000000000000000000000000000000000000000000000000000000000000000000000000000000000000000000000000000000000000000000000000000000000000000000000000000000000000000000000000000000000000000000000000000000000000000000
310
000000000000000000000000000000000000000000000000000000009E0000000000000000000000000000000000009E00000000000000000000000000000000000000000000000000000000000000000000000000000000000000000000000000000000000000000000000000000000000000000000000000000000000000
310
0000000000000000000000000000000000000000000000000000000000000000000000000000000000000000000000000000000000000000000000000000000000000000000000000000000000000000009E0000000000000000000000000000000000009E0000000000000000000000000000000000000000000000000000
310
00000000000000000000000000000000000000000000000000000000000000000000000000000000000000000000000000000000000000000000000000000000000000000000000000000000000000000000000000000000000000000000000000000000000000000000000000000000000000000000000000000000000000
310
000000000000009E0000000000000000000000000000000000009E00000000000000000000000000000000000000000000000000000000000000000000000000000000000000000000000000000000000000000000000000000000000000000000000000000000000000000000000000000000000000000000000000000000
310
0000000000000000000000000000000000000000000000000000000000000000000000000000000000000000000000000000000000000000000000009E0000000000000000000000000000000000009E0000000000000000000000000000000000000000000000000000000000000000000000000000000000000000000000
310
00000000000000000000000000000000000000000000000000000000000000000000000000000000000000000000000000000000000000000000000000000000000000000000000000000000000000000000000000000000000000000000000000000000000000000000000000000000009E00000000000000000000000000
310
00000000009E00000000000000000000000000000000000000000000000000000000000000000000000000000000000000000000000000000000000000000000000000000000000000000000000000000000000000000000000000000000000000000000000000000000000000000000000000000000000000000000000000
310
0000000000000000000000000000000000000000000000000000000000000000000000000000009E9E9E9E9E9E9E9E9E9E9E9E9E9E9E9E9E9E9E9E0000000000000000000000000000000000000000000000000000000000000000000000000000000000000000000000000000000000000000000000000000000000000000
310
00000000000000000000000000000000000000000000000000000000000000000000000000000000000000000000000000000000000000000000000000000000000000000000000000000000000000000000000000000000000000009E00000000000000009E9E9E000000000000009E000000000000000000000000000000
310
00000000000000000000000000000000000000000000000000000000000000000000000000000000000000000000000000000000000000000000000000000000000000000000000000000000000000000000000000000000000000000000000000000000000000000000000000000000000000000000000000000000000000
310
0000000000000000000000000000000000000000000000000000009E9E9E00000000000000000000000000000000000000000000000000000000000000000000000000000000000000000000000000000000000000000000000000000000000000000000000000000000000000000000000000000000000000000000000000
310
00000000000000000000000000000000000000000000000000000000000000000000000000000000000000000000000000000000000000000000000000000000000000000000000000000000000000000000000000000000000000000000000000000000000000000000000000000000000000000000000000000000000000
310
00000000000000000000000000000000000000000000000000000000000000000000000000000000000000000000000000000000000000000000000000000000000000000000000000000000000000000000000000
  0
ENDSEC
  0
EOF
