999
LibreDWG 
  0
SECTION
  2
HEADER
  9
$ACADVER
  1
AC1015
  9
$ACADMAINTVER
 70
    13
  9
$DWGCODEPAGE
  3
ANSI_936
  9
$INSBASE
 10
0.0
 20
0.0
 30
0.0
  9
$EXTMIN
 10
31.21801286661159
 20
-2.228372497683409
 30
0.0
  9
$EXTMAX
 10
184.1285957996629
 20
94.22234160610965
 30
0.0
  9
$LIMMIN
 10
0.0
 20
0.0
  9
$LIMMAX
 10
200.0
 20
100.0
  9
$ORTHOMODE
 70
     1
  9
$REGENMODE
 70
     1
  9
$FILLMODE
 70
     1
  9
$QTEXTMODE
 70
     0
  9
$MIRRTEXT
 70
     1
  9
$LTSCALE
 40
0.5
  9
$ATTMODE
 70
     1
  9
$TEXTSIZE
 40
2.5
  9
$TRACEWID
 40
1.0
  9
$TEXTSTYLE
  7
数字与字母
  9
$CLAYER
  8
文本层
  9
$CELTYPE
  6
ByLayer
  9
$CECOLOR
 62
   256
  9
$CELTSCALE
 40
1.0
  9
$DISPSILH
 70
     0
  9
$DIMSCALE
 40
1.0
  9
$DIMASZ
 40
3.5
  9
$DIMEXO
 40
0.0
  9
$DIMDLI
 40
7.5
  9
$DIMRND
 40
0.0
  9
$DIMDLE
 40
0.0
  9
$DIMEXE
 40
2.5
  9
$DIMTP
 40
0.0
  9
$DIMTM
 40
0.0
  9
$DIMTXT
 40
5.0
  9
$DIMCEN
 40
2.5
  9
$DIMTSZ
 40
0.0
  9
$DIMTOL
 70
     0
  9
$DIMLIM
 70
     0
  9
$DIMTIH
 70
     0
  9
$DIMTOH
 70
     1
  9
$DIMSE1
 70
     0
  9
$DIMSE2
 70
     0
  9
$DIMTAD
 70
     1
  9
$DIMZIN
 70
     8
  9
$DIMBLK
  1

  9
$DIMASO
 70
     1
  9
$DIMSHO
 70
     1
  9
$DIMPOST
  1

  9
$DIMAPOST
  1

  9
$DIMALT
 70
     0
  9
$DIMALTD
 70
     3
  9
$DIMALTF
 40
0.03937007874016
  9
$DIMLFAC
 40
1.0
  9
$DIMTOFL
 70
     1
  9
$DIMTVP
 40
0.0
  9
$DIMTIX
 70
     0
  9
$DIMSOXD
 70
     0
  9
$DIMSAH
 70
     0
  9
$DIMBLK1
  1

  9
$DIMBLK2
  1

  9
$DIMSTYLE
  2
机械标注
  9
$DIMCLRD
 70
     0
  9
$DIMCLRE
 70
     0
  9
$DIMCLRT
 70
     0
  9
$DIMTFAC
 40
1.0
  9
$DIMGAP
 40
0.625
  9
$DIMJUST
 70
     0
  9
$DIMSD1
 70
     0
  9
$DIMSD2
 70
     0
  9
$DIMTOLJ
 70
     0
  9
$DIMTZIN
 70
     8
  9
$DIMALTZ
 70
     0
  9
$DIMALTTZ
 70
     0
  9
$DIMUPT
 70
     0
  9
$DIMDEC
 70
     1
  9
$DIMTDEC
 70
     1
  9
$DIMALTU
 70
     2
  9
$DIMALTTD
 70
     3
  9
$DIMTXSTY
  7
数字与字母
  9
$DIMAUNIT
 70
     0
  9
$DIMADEC
 70
     0
  9
$DIMALTRND
 40
0.0
  9
$DIMAZIN
 70
     0
  9
$DIMDSEP
 70
    46
  9
$DIMATFIT
 70
     3
  9
$DIMFRAC
 70
     0
  9
$DIMLDRBLK
  1

  9
$DIMLUNIT
 70
     2
  9
$DIMLWD
 70
    -2
  9
$DIMLWE
 70
    -2
  9
$DIMTMOVE
 70
     0
  9
$LUNITS
 70
     2
  9
$LUPREC
 70
     1
  9
$AXISMODE
 70
     0
  9
$AXISUNIT
 10
0.0
 20
0.0
  9
$SKETCHINC
 40
1.0
  9
$FILLETRAD
 40
10.0
  9
$AUNITS
 70
     0
  9
$AUPREC
 70
     1
  9
$MENU
  1
.
  9
$ELEVATION
 40
0.0
  9
$PELEVATION
 40
0.0
  9
$THICKNESS
 40
0.0
  9
$LIMCHECK
 70
     0
  9
$CHAMFERA
 40
10.0
  9
$CHAMFERB
 40
10.0
  9
$CHAMFERC
 40
20.0
  9
$CHAMFERD
 40
0.0
  9
$SKPOLY
 70
     0
  9
$TDCREATE
 40
2451911.603956590
  9
$TDUCREATE
 40
2451911.315956590
  9
$TDUPDATE
 40
2453618.527593260
  9
$TDUUPDATE
 40
2453618.239593260
  9
$TDINDWG
 40
0.036512210
  9
$TDUSRTIMER
 40
0.036512210
  9
$USRTIMER
 70
     1
  9
$ANGBASE
 50
0.0
  9
$ANGDIR
 70
     0
  9
$PDMODE
 70
     0
  9
$PDSIZE
 40
0.0
  9
$PLINEWID
 40
0.0
  9
$SPLFRAME
 70
     0
  9
$SPLINETYPE
 70
     6
  9
$SPLINESEGS
 70
     8
  9
$HANDSEED
  5
267
  9
$SURFTAB1
 70
     6
  9
$SURFTAB2
 70
     6
  9
$SURFTYPE
 70
     6
  9
$SURFU
 70
     6
  9
$SURFV
 70
     6
  9
$UCSBASE
  2

  9
$UCSNAME
  2

  9
$UCSORG
 10
0.0
 20
0.0
 30
0.0
  9
$UCSXDIR
 10
1.0
 20
0.0
 30
0.0
  9
$UCSYDIR
 10
0.0
 20
1.0
 30
0.0
  9
$UCSORTHOREF
  2

  9
$UCSORTHOVIEW
 70
     0
  9
$UCSORGTOP
 10
0.0
 20
0.0
 30
0.0
  9
$UCSORGBOTTOM
 10
0.0
 20
0.0
 30
0.0
  9
$UCSORGLEFT
 10
0.0
 20
0.0
 30
0.0
  9
$UCSORGRIGHT
 10
0.0
 20
0.0
 30
0.0
  9
$UCSORGFRONT
 10
0.0
 20
0.0
 30
0.0
  9
$UCSORGBACK
 10
0.0
 20
0.0
 30
0.0
  9
$PUCSBASE
  2

  9
$PUCSNAME
  2

  9
$PUCSORG
 10
0.0
 20
0.0
 30
0.0
  9
$PUCSXDIR
 10
1.0
 20
0.0
 30
0.0
  9
$PUCSYDIR
 10
0.0
 20
1.0
 30
0.0
  9
$PUCSORTHOREF
  2

  9
$PUCSORTHOVIEW
 70
     0
  9
$PUCSORGTOP
 10
0.0
 20
0.0
 30
0.0
  9
$PUCSORGBOTTOM
 10
0.0
 20
0.0
 30
0.0
  9
$PUCSORGLEFT
 10
0.0
 20
0.0
 30
0.0
  9
$PUCSORGRIGHT
 10
0.0
 20
0.0
 30
0.0
  9
$PUCSORGFRONT
 10
0.0
 20
0.0
 30
0.0
  9
$PUCSORGBACK
 10
0.0
 20
0.0
 30
0.0
  9
$USERI1
 70
     0
  9
$USERI2
 70
     0
  9
$USERI3
 70
     0
  9
$USERI4
 70
     0
  9
$USERI5
 70
     0
  9
$USERR1
 40
0.0
  9
$USERR2
 40
0.0
  9
$USERR3
 40
0.0
  9
$USERR4
 40
0.0
  9
$USERR5
 40
0.0
  9
$WORLDVIEW
 70
     1
  9
$SHADEDGE
 70
     3
  9
$SHADEDIF
 70
    70
  9
$TILEMODE
 70
     1
  9
$MAXACTVP
 70
    64
  9
$PINSBASE
 10
0.0
 20
0.0
 30
0.0
  9
$PLIMCHECK
 70
     0
  9
$PEXTMIN
 10
26.66999878883362
 20
20.31999878883363
 30
0.0
  9
$PEXTMAX
 10
240.0299890995026
 20
182.8799890995026
 30
0.0
  9
$PLIMMIN
 10
-6.350006103515625
 20
-6.349999904632568
  9
$PLIMMAX
 10
273.0499877929688
 20
209.5499939918518
  9
$UNITMODE
 70
     0
  9
$VISRETAIN
 70
     1
  9
$PLINEGEN
 70
     0
  9
$PSLTSCALE
 70
     1
  9
$TREEDEPTH
 70
  3020
  9
$CMLSTYLE
  2
Standard
  9
$CMLJUST
 70
     0
  9
$CMLSCALE
 40
20.0
  9
$PROXYGRAPHICS
 70
     1
  9
$MEASUREMENT
 70
     1
  9
$CELWEIGHT
370
    -1
  9
$ENDCAPS
280
     0
  9
$JOINSTYLE
280
     0
  9
$LWDISPLAY
290
     1
  9
$INSUNITS
 70
     4
  9
$HYPERLINKBASE
  1

  9
$STYLESHEET
  1

  9
$XEDIT
290
     1
  9
$CEPSNTYPE
380
     0
  9
$PSTYLEMODE
290
     0
  9
$FINGERPRINTGUID
  2
{35BD88C3-9548-11D2-9A29-0060089B3A3F}
  9
$VERSIONGUID
  2
{75016297-6542-439E-B406-CA835D11EB82}
  9
$EXTNAMES
290
     1
  9
$PSVPSCALE
 40
0.0
  9
$OLESTARTUP
290
     0
  0
ENDSEC
  0
SECTION
  2
CLASSES
  0
CLASS
  1
ACDBDICTIONARYWDFLT
  2
AcDbDictionaryWithDefault
  3
AutoCAD 2000
 90
        0
280
     0
281
     0
  0
CLASS
  1
ACDBPLACEHOLDER
  2
AcDbPlaceHolder
  3
AutoCAD 2000
 90
        0
280
     0
281
     0
  0
CLASS
  1
LAYOUT
  2
AcDbLayout
  3
AutoCAD 2000
 90
        0
280
     0
281
     0
  0
CLASS
  1
DICTIONARYVAR
  2
AcDbDictionaryVar
  3
AutoCAD 2000
 90
        0
280
     0
281
     0
  0
CLASS
  1
DIMASSOC
  2
AcDbDimAssoc
  3
"AcDbDimAssoc|Product Desc:     AcDim ARX App For Dimension|Company:          Autodesk, Inc.|WEB Address:      www.autodesk.com"
 90
        0
280
     0
281
     0
  0
ENDSEC
  0
SECTION
  2
TABLES
  0
TABLE
  2
VPORT
  5
8
330
0
100
AcDbSymbolTable
 70
     1
  0
VPORT
  5
266
330
8
100
AcDbSymbolTableRecord
100
AcDbViewportTableRecord
  2
*Active
 70
     0
 10
0.0
 20
0.0
 11
1.0
 21
1.0
 12
100.0
 22
48.88458263464805
 13
0.0
 23
0.0
 14
10.0
 24
10.0
 15
10.0
 25
10.0
 16
0.0
 26
0.0
 36
1.0
 17
0.0
 27
0.0
 37
0.0
 40
108.5453334800456
 41
1.855042016806723
 42
50.0
 43
0.0
 44
0.0
 50
0.0
 51
0.0
 71
     0
 72
   100
 73
     1
 74
     3
 75
     0
 76
     0
 77
     0
 78
     0
281
     0
 65
     1
110
0.0
120
0.0
130
0.0
111
1.0
121
0.0
131
0.0
112
0.0
122
1.0
132
0.0
 79
     0
146
0.0
  0
ENDTAB
  0
TABLE
  2
LTYPE
  5
5
330
0
100
AcDbSymbolTable
 70
     4
  0
LTYPE
  5
14
330
5
100
AcDbSymbolTableRecord
100
AcDbLinetypeTableRecord
  2
ByBlock
 70
     0
  3

 72
    65
 73
     0
 40
0.0
  0
LTYPE
  5
15
330
5
100
AcDbSymbolTableRecord
100
AcDbLinetypeTableRecord
  2
ByLayer
 70
     0
  3

 72
    65
 73
     0
 40
0.0
  0
LTYPE
  5
16
330
5
100
AcDbSymbolTableRecord
100
AcDbLinetypeTableRecord
  2
Continuous
 70
     0
  3
Solid line
 72
    65
 73
     0
 40
0.0
  0
LTYPE
  5
91
330
5
100
AcDbSymbolTableRecord
100
AcDbLinetypeTableRecord
  2
ACAD_ISO08W100
 70
     0
  3
ISO long-dash short-dash ____ __ ____ __ ____ _
 72
    65
 73
     4
 40
36.0
 49
24.0
 74
     0
 49
-3.0
 74
     0
 49
6.0
 74
     0
 49
-3.0
 74
     0
  0
LTYPE
  5
92
330
5
100
AcDbSymbolTableRecord
100
AcDbLinetypeTableRecord
  2
ACAD_ISO09W100
 70
     0
  3
ISO long-dash double-short-dash ____ __ __ ____
 72
    65
 73
     6
 40
45.0
 49
24.0
 74
     0
 49
-3.0
 74
     0
 49
6.0
 74
     0
 49
-3.0
 74
     0
 49
6.0
 74
     0
 49
-3.0
 74
     0
  0
LTYPE
  5
93
330
5
100
AcDbSymbolTableRecord
100
AcDbLinetypeTableRecord
  2
ACAD_ISO02W100
 70
     0
  3
ISO dash __ __ __ __ __ __ __ __ __ __ __ __ __
 72
    65
 73
     2
 40
15.0
 49
12.0
 74
     0
 49
-3.0
 74
     0
  0
ENDTAB
  0
TABLE
  2
LAYER
  5
2
330
0
100
AcDbSymbolTable
 70
    11
  0
LAYER
  5
10
330
2
100
AcDbSymbolTableRecord
100
AcDbLayerTableRecord
  2
0
 70
     0
 62
    -7
  6
Continuous
370
    -3
390
F
  0
LAYER
  5
94
330
2
100
AcDbSymbolTableRecord
100
AcDbLayerTableRecord
  2
轮廓线
 70
     0
 62
    -7
  6
Continuous
370
    35
390
F
  0
LAYER
  5
95
330
2
100
AcDbSymbolTableRecord
100
AcDbLayerTableRecord
  2
点划线
 70
     0
 62
    -1
  6
ACAD_ISO08W100
370
    13
390
F
  0
LAYER
  5
96
330
2
100
AcDbSymbolTableRecord
100
AcDbLayerTableRecord
  2
双点划线
 70
     0
 62
    -3
  6
ACAD_ISO09W100
370
    -3
390
F
  0
LAYER
  5
97
330
2
100
AcDbSymbolTableRecord
100
AcDbLayerTableRecord
  2
隐藏线
 70
     0
 62
   -44
  6
ACAD_ISO02W100
370
    13
390
F
  0
LAYER
  5
98
330
2
100
AcDbSymbolTableRecord
100
AcDbLayerTableRecord
  2
剖面线
 70
     0
 62
  -142
  6
Continuous
370
    13
390
F
  0
LAYER
  5
99
330
2
100
AcDbSymbolTableRecord
100
AcDbLayerTableRecord
  2
波浪线
 70
     0
 62
    -7
  6
Continuous
370
    13
390
F
  0
LAYER
  5
9A
330
2
100
AcDbSymbolTableRecord
100
AcDbLayerTableRecord
  2
尺寸层
 70
     0
 62
    -5
  6
Continuous
370
    13
390
F
  0
LAYER
  5
9B
330
2
100
AcDbSymbolTableRecord
100
AcDbLayerTableRecord
  2
文本层
 70
     0
 62
  -212
  6
Continuous
370
    13
390
F
  0
LAYER
  5
9C
330
2
100
AcDbSymbolTableRecord
100
AcDbLayerTableRecord
  2
其它层
 70
     0
 62
    -7
  6
Continuous
370
    -3
390
F
  0
LAYER
  5
137
330
2
100
AcDbSymbolTableRecord
100
AcDbLayerTableRecord
  2
Defpoints
 70
     0
 62
    -7
  6
Continuous
290
     0
370
    -3
390
F
  0
ENDTAB
  0
TABLE
  2
STYLE
  5
3
330
0
100
AcDbSymbolTable
 70
     4
  0
STYLE
  5
11
330
3
100
AcDbSymbolTableRecord
100
AcDbTextStyleTableRecord
  2
Standard
 70
     0
 40
0.0
 41
1.0
 50
0.0
 71
     0
 42
2.5
  3
txt
  4

  0
STYLE
  5
90
330
3
100
AcDbSymbolTableRecord
100
AcDbTextStyleTableRecord
  2

 70
     1
 40
0.0
 41
1.0
 50
0.0
 71
     0
 42
2.5
  3
ltypeshp.shx
  4

  0
STYLE
  5
9D
330
3
100
AcDbSymbolTableRecord
100
AcDbTextStyleTableRecord
  2
汉字
 70
     0
 40
0.0
 41
0.7
 50
0.0
 71
     0
 42
2.5
  3
SIMFANG.TTF
  4

1001
ACAD
1000
FangSong_GB2312
1071
    34353
  0
STYLE
  5
9F
330
3
100
AcDbSymbolTableRecord
100
AcDbTextStyleTableRecord
  2
数字与字母
 70
     0
 40
0.0
 41
0.7
 50
0.0
 71
     0
 42
2.5
  3
romant.shx
  4

  0
ENDTAB
  0
TABLE
  2
VIEW
  5
6
330
0
100
AcDbSymbolTable
 70
     0
  0
ENDTAB
  0
TABLE
  2
UCS
  5
7
330
0
100
AcDbSymbolTable
 70
     0
  0
ENDTAB
  0
TABLE
  2
APPID
  5
9
330
0
100
AcDbSymbolTable
 70
     1
  0
APPID
  5
12
330
9
100
AcDbSymbolTableRecord
100
AcDbRegAppTableRecord
  2
ACAD
 70
     0
  0
ENDTAB
  0
TABLE
  2
DIMSTYLE
  5
A
330
0
100
AcDbSymbolTable
 70
     3
100
AcDbDimStyleTable
 71
     2
340
A1
340
27
  0
DIMSTYLE
105
27
330
A
100
AcDbSymbolTableRecord
100
AcDbDimStyleTableRecord
  2
ISO-25
 70
     0
 41
2.5
 42
0.625
 43
3.75
 44
1.25
 73
     0
 74
     0
 77
     1
 78
     8
140
2.5
141
2.5
143
0.03937007874016
144
1.0
146
1.0
147
0.625
171
     3
172
     1
176
     0
177
     0
178
     0
271
     2
272
     2
273
     2
274
     3
277
     2
278
    44
283
     0
284
     8
289
     3
340
11
371
    -2
372
    -2
341
0
342
0
343
0
344
0
  0
DIMSTYLE
105
A1
102
{ACAD_REACTORS
330
14F
330
167
330
17F
330
197
330
1AF
330
1C7
330
1DF
330
1F7
330
20F
330
227
330
23F
102
}
330
A
100
AcDbSymbolTableRecord
100
AcDbDimStyleTableRecord
  2
机械标注
 70
     0
 41
3.5
 43
7.5
 44
2.5
 73
     0
 74
     1
 77
     1
 78
     8
140
5.0
141
2.5
143
0.03937007874016
144
1.0
146
1.0
147
0.625
171
     3
172
     1
176
     0
177
     0
178
     0
271
     1
272
     1
273
     2
274
     3
277
     2
278
    46
283
     0
284
     8
289
     3
340
9F
371
    -2
372
    -2
341
0
342
0
343
0
344
0
  0
DIMSTYLE
105
A2
330
A
100
AcDbSymbolTableRecord
100
AcDbDimStyleTableRecord
  2
机械标注$2
 70
     0
 41
3.5
 43
7.5
 44
2.5
 73
     1
 74
     1
 77
     1
 78
     8
140
5.0
141
2.5
143
0.03937007874016
144
1.0
146
1.0
147
0.625
171
     3
172
     1
176
     0
177
     0
178
     0
271
     1
272
     1
273
     2
274
     3
277
     2
278
    46
283
     0
284
     8
289
     3
340
9F
371
    -2
372
    -2
341
0
342
0
343
0
344
0
  0
ENDTAB
  0
TABLE
  2
BLOCK_RECORD
  5
1
330
0
100
AcDbSymbolTable
 70
    13
  0
BLOCK_RECORD
  5
1F
330
1
100
AcDbSymbolTableRecord
100
AcDbBlockTableRecord
  2
*Model_Space
340
22
  0
BLOCK_RECORD
  5
5E
330
1
100
AcDbSymbolTableRecord
100
AcDbBlockTableRecord
  2
*Paper_Space
340
5F
  0
BLOCK_RECORD
  5
59
330
1
100
AcDbSymbolTableRecord
100
AcDbBlockTableRecord
  2
*Paper_Space0
340
5A
  0
BLOCK_RECORD
  5
150
330
1
100
AcDbSymbolTableRecord
100
AcDbBlockTableRecord
  2
*D2
340
0
  0
BLOCK_RECORD
  5
168
330
1
100
AcDbSymbolTableRecord
100
AcDbBlockTableRecord
  2
*D3
340
0
  0
BLOCK_RECORD
  5
180
330
1
100
AcDbSymbolTableRecord
100
AcDbBlockTableRecord
  2
*D4
340
0
  0
BLOCK_RECORD
  5
198
330
1
100
AcDbSymbolTableRecord
100
AcDbBlockTableRecord
  2
*D5
340
0
  0
BLOCK_RECORD
  5
1B0
330
1
100
AcDbSymbolTableRecord
100
AcDbBlockTableRecord
  2
*D6
340
0
  0
BLOCK_RECORD
  5
1C8
330
1
100
AcDbSymbolTableRecord
100
AcDbBlockTableRecord
  2
*D7
340
0
  0
BLOCK_RECORD
  5
1E0
330
1
100
AcDbSymbolTableRecord
100
AcDbBlockTableRecord
  2
*D8
340
0
  0
BLOCK_RECORD
  5
1F8
330
1
100
AcDbSymbolTableRecord
100
AcDbBlockTableRecord
  2
*D9
340
0
  0
BLOCK_RECORD
  5
210
330
1
100
AcDbSymbolTableRecord
100
AcDbBlockTableRecord
  2
*D10
340
0
  0
BLOCK_RECORD
  5
228
330
1
100
AcDbSymbolTableRecord
100
AcDbBlockTableRecord
  2
*D11
340
0
  0
BLOCK_RECORD
  5
240
330
1
100
AcDbSymbolTableRecord
100
AcDbBlockTableRecord
  2
*D12
340
0
  0
ENDTAB
  0
ENDSEC
  0
SECTION
  2
BLOCKS
  0
BLOCK
  5
20
330
1F
100
AcDbEntity
  8
0
100
AcDbBlockBegin
  2
*Model_Space
 70
     0
 10
0.0
 20
0.0
 30
0.0
  3
*Model_Space
  1

  0
ENDBLK
  5
21
330
1F
100
AcDbEntity
  8
0
100
AcDbBlockEnd
  0
BLOCK
  5
5B
330
59
100
AcDbEntity
  8
0
100
AcDbBlockBegin
  2
*Paper_Space0
 70
     0
 10
0.0
 20
0.0
 30
0.0
  3
*Paper_Space0
  1

  0
VIEWPORT
  5
74
330
59
100
AcDbEntity
  8
0
100
AcDbViewport
 10
134.8228915879863
 20
101.5999970436096
 30
0.0
 40
405.4378955490815
 41
218.5599527535252
 68
     0
 69
     0
 12
134.8228915879863
 22
101.5999970436096
 13
0.0
 23
0.0
 14
0.5
 24
0.5
 15
0.5
 25
0.5
 16
0.0
 26
0.0
 36
1.0
 17
0.0
 27
0.0
 37
0.0
 42
50.0
 43
0.0
 44
0.0
 45
218.5599527535252
 50
0.0
 51
0.0
 72
   100
 90
    32800
  1

281
     0
 71
     1
 74
     0
110
0.0
120
0.0
130
0.0
111
1.0
121
0.0
131
0.0
112
0.0
122
1.0
132
0.0
 79
     0
146
0.0
348
0
340
0
345
0
346
0
  0
VIEWPORT
  5
76
330
59
100
AcDbEntity
  8
0
100
AcDbViewport
 10
133.3499939441681
 20
101.5999939441681
 30
0.0
 40
213.3599903106689
 41
162.5599903106689
 68
     0
 69
     0
 12
109.0387365965675
 22
35.49015892228185
 13
0.0
 23
0.0
 14
10.0
 24
10.0
 15
10.0
 25
10.0
 16
0.0
 26
0.0
 36
1.0
 17
0.0
 27
0.0
 37
0.0
 42
50.0
 43
0.0
 44
0.0
 45
135.5633654772903
 50
0.0
 51
0.0
 72
   100
 90
    32864
  1

281
     0
 71
     1
 74
     0
110
0.0
120
0.0
130
0.0
111
1.0
121
0.0
131
0.0
112
0.0
122
1.0
132
0.0
 79
     0
146
0.0
348
0
340
0
345
0
346
0
  0
ENDBLK
  5
5C
330
59
100
AcDbEntity
  8
0
100
AcDbBlockEnd
  0
BLOCK
  5
60
330
5E
100
AcDbEntity
 67
     1
  8
0
100
AcDbBlockBegin
  2
*Paper_Space
 70
     0
 10
0.0
 20
0.0
 30
0.0
  3
*Paper_Space
  1

  0
ENDBLK
  5
61
330
5E
100
AcDbEntity
 67
     1
  8
0
100
AcDbBlockEnd
  0
BLOCK
  5
15A
330
150
100
AcDbEntity
  8
0
100
AcDbBlockBegin
  2
*D2
 70
     1
 10
0.0
 20
0.0
 30
0.0
  3
*D2
  1

  0
LINE
  5
15D
330
150
100
AcDbEntity
  8
文本层
370
    -2
 62
     0
100
AcDbLine
 10
96.10001218616483
 20
72.91023334865423
 30
0.0
 11
96.10001218616483
 21
83.25282636463891
 31
0.0
  0
LINE
  5
15E
330
150
100
AcDbEntity
  8
文本层
370
    -2
 62
     0
100
AcDbLine
 10
112.1000121861648
 20
72.50203243971814
 30
0.0
 11
112.1000121861648
 21
83.25282636463891
 31
0.0
  0
LINE
  5
15F
330
150
100
AcDbEntity
  8
文本层
370
    -2
 62
     0
100
AcDbLine
 10
99.60001218616483
 20
80.75282636463891
 30
0.0
 11
108.6000121861648
 21
80.75282636463891
 31
0.0
  0
SOLID
  5
160
330
150
100
AcDbEntity
  8
文本层
 62
     0
100
AcDbTrace
 38
0.0
 10
99.60001218616483
 20
81.33615969797223
 11
99.60001218616483
 21
80.16949303130558
 12
96.10001218616483
 22
80.75282636463891
 13
96.10001218616483
 23
80.75282636463891
  0
SOLID
  5
161
330
150
100
AcDbEntity
  8
文本层
 62
     0
100
AcDbTrace
 38
0.0
 10
108.6000121861648
 20
81.33615969797223
 11
108.6000121861648
 21
80.16949303130558
 12
112.1000121861648
 22
80.75282636463891
 13
112.1000121861648
 23
80.75282636463891
  0
MTEXT
  5
162
330
150
100
AcDbEntity
  8
文本层
 62
     0
100
AcDbMText
 10
104.1000121861648
 20
83.87782636463891
 30
0.0
210
0.0
220
0.0
230
1.0
 11
1.0
 21
0.0
 31
0.0
 40
5.0
 41
0.0
 71
     5
 72
     1
  1
16
  7
数字与字母
 73
     1
 44
1.0
  0
POINT
  5
163
330
150
100
AcDbEntity
  8
Defpoints
 62
     0
100
AcDbPoint
 10
96.10001218616483
 20
72.91023334865423
 30
0.0
 50
0.0
  0
POINT
  5
164
330
150
100
AcDbEntity
  8
Defpoints
 62
     0
100
AcDbPoint
 10
112.1000121861648
 20
72.50203243971814
 30
0.0
 50
0.0
  0
POINT
  5
165
330
150
100
AcDbEntity
  8
Defpoints
 62
     0
100
AcDbPoint
 10
112.1000121861648
 20
80.75282636463891
 30
0.0
 50
0.0
  0
ENDBLK
  5
15B
330
150
100
AcDbEntity
  8
0
100
AcDbBlockEnd
  0
BLOCK
  5
172
330
168
100
AcDbEntity
  8
0
100
AcDbBlockBegin
  2
*D3
 70
     1
 10
0.0
 20
0.0
 30
0.0
  3
*D3
  1

  0
LINE
  5
175
330
168
100
AcDbEntity
  8
文本层
370
    -2
 62
     0
100
AcDbLine
 10
91.60001218616483
 20
72.91023334865423
 30
0.0
 11
91.60001218616483
 21
91.09734160610964
 31
0.0
  0
LINE
  5
176
330
168
100
AcDbEntity
  8
文本层
370
    -2
 62
     0
100
AcDbLine
 10
116.6000121861648
 20
72.91023334865423
 30
0.0
 11
116.6000121861648
 21
91.09734160610964
 31
0.0
  0
LINE
  5
177
330
168
100
AcDbEntity
  8
文本层
370
    -2
 62
     0
100
AcDbLine
 10
95.10001218616483
 20
88.59734160610964
 30
0.0
 11
113.1000121861648
 21
88.59734160610964
 31
0.0
  0
SOLID
  5
178
330
168
100
AcDbEntity
  8
文本层
 62
     0
100
AcDbTrace
 38
0.0
 10
95.10001218616483
 20
89.18067493944297
 11
95.10001218616483
 21
88.01400827277631
 12
91.60001218616483
 22
88.59734160610964
 13
91.60001218616483
 23
88.59734160610964
  0
SOLID
  5
179
330
168
100
AcDbEntity
  8
文本层
 62
     0
100
AcDbTrace
 38
0.0
 10
113.1000121861648
 20
89.18067493944297
 11
113.1000121861648
 21
88.01400827277631
 12
116.6000121861648
 22
88.59734160610964
 13
116.6000121861648
 23
88.59734160610964
  0
MTEXT
  5
17A
330
168
100
AcDbEntity
  8
文本层
 62
     0
100
AcDbMText
 10
104.1000121861648
 20
91.72234160610964
 30
0.0
210
0.0
220
0.0
230
1.0
 11
1.0
 21
0.0
 31
0.0
 40
5.0
 41
0.0
 71
     5
 72
     1
  1
25
  7
数字与字母
 73
     1
 44
1.0
  0
POINT
  5
17B
330
168
100
AcDbEntity
  8
Defpoints
 62
     0
100
AcDbPoint
 10
91.60001218616483
 20
72.91023334865423
 30
0.0
 50
0.0
  0
POINT
  5
17C
330
168
100
AcDbEntity
  8
Defpoints
 62
     0
100
AcDbPoint
 10
116.6000121861648
 20
72.91023334865423
 30
0.0
 50
0.0
  0
POINT
  5
17D
330
168
100
AcDbEntity
  8
Defpoints
 62
     0
100
AcDbPoint
 10
116.6000121861648
 20
88.59734160610964
 30
0.0
 50
0.0
  0
ENDBLK
  5
173
330
168
100
AcDbEntity
  8
0
100
AcDbBlockEnd
  0
BLOCK
  5
18A
330
180
100
AcDbEntity
  8
0
100
AcDbBlockBegin
  2
*D4
 70
     1
 10
0.0
 20
0.0
 30
0.0
  3
*D4
  1

  0
LINE
  5
18D
330
180
100
AcDbEntity
  8
文本层
370
    -2
 62
     0
100
AcDbLine
 10
104.1000121861648
 20
50.91023334865423
 30
0.0
 11
45.76500777922666
 21
50.91023334865425
 31
0.0
  0
LINE
  5
18E
330
180
100
AcDbEntity
  8
文本层
370
    -2
 62
     0
100
AcDbLine
 10
91.60001218616483
 20
72.91023334865423
 30
0.0
 11
45.76500777922666
 21
72.91023334865423
 31
0.0
  0
LINE
  5
18F
330
180
100
AcDbEntity
  8
文本层
370
    -2
 62
     0
100
AcDbLine
 10
48.26500777922666
 20
54.41023334865424
 30
0.0
 11
48.26500777922666
 21
69.41023334865423
 31
0.0
  0
SOLID
  5
190
330
180
100
AcDbEntity
  8
文本层
 62
     0
100
AcDbTrace
 38
0.0
 10
47.68167444589333
 20
54.41023334865424
 11
48.84834111256
 21
54.41023334865424
 12
48.26500777922666
 22
50.91023334865424
 13
48.26500777922666
 23
50.91023334865424
  0
SOLID
  5
191
330
180
100
AcDbEntity
  8
文本层
 62
     0
100
AcDbTrace
 38
0.0
 10
47.68167444589333
 20
69.41023334865423
 11
48.84834111256
 21
69.41023334865423
 12
48.26500777922666
 22
72.91023334865423
 13
48.26500777922666
 23
72.91023334865423
  0
MTEXT
  5
192
330
180
100
AcDbEntity
  8
文本层
 62
     0
100
AcDbMText
 10
45.14000777922666
 20
61.91023334865424
 30
0.0
210
0.0
220
0.0
230
1.0
 11
6.123031769111886E-17
 21
1.0
 31
0.0
 40
5.0
 41
0.0
 71
     5
 72
     1
  1
22
  7
数字与字母
 73
     1
 44
1.0
  0
POINT
  5
193
330
180
100
AcDbEntity
  8
Defpoints
 62
     0
100
AcDbPoint
 10
104.1000121861648
 20
50.91023334865423
 30
0.0
 50
0.0
  0
POINT
  5
194
330
180
100
AcDbEntity
  8
Defpoints
 62
     0
100
AcDbPoint
 10
91.60001218616483
 20
72.91023334865423
 30
0.0
 50
0.0
  0
POINT
  5
195
330
180
100
AcDbEntity
  8
Defpoints
 62
     0
100
AcDbPoint
 10
48.26500777922666
 20
72.91023334865423
 30
0.0
 50
0.0
  0
ENDBLK
  5
18B
330
180
100
AcDbEntity
  8
0
100
AcDbBlockEnd
  0
BLOCK
  5
1A2
330
198
100
AcDbEntity
  8
0
100
AcDbBlockBegin
  2
*D5
 70
     1
 10
0.0
 20
0.0
 30
0.0
  3
*D5
  1

  0
LINE
  5
1A5
330
198
100
AcDbEntity
  8
文本层
370
    -2
 62
     0
100
AcDbLine
 10
91.60001218616483
 20
37.91023334865423
 30
0.0
 11
34.34301286661161
 21
37.91023334865424
 31
0.0
  0
LINE
  5
1A6
330
198
100
AcDbEntity
  8
文本层
370
    -2
 62
     0
100
AcDbLine
 10
91.60001218616483
 20
72.91023334865423
 30
0.0
 11
34.34301286661162
 21
72.91023334865423
 31
0.0
  0
LINE
  5
1A7
330
198
100
AcDbEntity
  8
文本层
370
    -2
 62
     0
100
AcDbLine
 10
36.84301286661161
 20
41.41023334865424
 30
0.0
 11
36.84301286661162
 21
69.41023334865423
 31
0.0
  0
SOLID
  5
1A8
330
198
100
AcDbEntity
  8
文本层
 62
     0
100
AcDbTrace
 38
0.0
 10
36.25967953327827
 20
41.41023334865424
 11
37.42634619994494
 21
41.41023334865424
 12
36.84301286661161
 22
37.91023334865424
 13
36.84301286661161
 23
37.91023334865424
  0
SOLID
  5
1A9
330
198
100
AcDbEntity
  8
文本层
 62
     0
100
AcDbTrace
 38
0.0
 10
36.25967953327828
 20
69.41023334865423
 11
37.42634619994495
 21
69.41023334865423
 12
36.84301286661162
 22
72.91023334865423
 13
36.84301286661162
 23
72.91023334865423
  0
MTEXT
  5
1AA
330
198
100
AcDbEntity
  8
文本层
 62
     0
100
AcDbMText
 10
33.7180128666116
 20
55.41023334865424
 30
0.0
210
0.0
220
0.0
230
1.0
 11
6.123031769111886E-17
 21
1.0
 31
0.0
 40
5.0
 41
0.0
 71
     5
 72
     1
  1
35
  7
数字与字母
 73
     1
 44
1.0
  0
POINT
  5
1AB
330
198
100
AcDbEntity
  8
Defpoints
 62
     0
100
AcDbPoint
 10
91.60001218616483
 20
37.91023334865423
 30
0.0
 50
0.0
  0
POINT
  5
1AC
330
198
100
AcDbEntity
  8
Defpoints
 62
     0
100
AcDbPoint
 10
91.60001218616483
 20
72.91023334865423
 30
0.0
 50
0.0
  0
POINT
  5
1AD
330
198
100
AcDbEntity
  8
Defpoints
 62
     0
100
AcDbPoint
 10
36.84301286661162
 20
72.91023334865423
 30
0.0
 50
0.0
  0
ENDBLK
  5
1A3
330
198
100
AcDbEntity
  8
0
100
AcDbBlockEnd
  0
BLOCK
  5
1BA
330
1B0
100
AcDbEntity
  8
0
100
AcDbBlockBegin
  2
*D6
 70
     1
 10
0.0
 20
0.0
 30
0.0
  3
*D6
  1

  0
LINE
  5
1BD
330
1B0
100
AcDbEntity
  8
文本层
370
    -2
 62
     0
100
AcDbLine
 10
65.60001218616483
 20
40.91023334865423
 30
0.0
 11
65.60001218616483
 21
23.71342483641305
 31
0.0
  0
LINE
  5
1BE
330
1B0
100
AcDbEntity
  8
文本层
370
    -2
 62
     0
100
AcDbLine
 10
142.6000121861648
 20
40.91023334865423
 30
0.0
 11
142.6000121861648
 21
23.71342483641305
 31
0.0
  0
LINE
  5
1BF
330
1B0
100
AcDbEntity
  8
文本层
370
    -2
 62
     0
100
AcDbLine
 10
69.10001218616483
 20
26.21342483641305
 30
0.0
 11
139.1000121861648
 21
26.21342483641305
 31
0.0
  0
SOLID
  5
1C0
330
1B0
100
AcDbEntity
  8
文本层
 62
     0
100
AcDbTrace
 38
0.0
 10
69.10001218616483
 20
26.79675816974639
 11
69.10001218616483
 21
25.63009150307972
 12
65.60001218616483
 22
26.21342483641305
 13
65.60001218616483
 23
26.21342483641305
  0
SOLID
  5
1C1
330
1B0
100
AcDbEntity
  8
文本层
 62
     0
100
AcDbTrace
 38
0.0
 10
139.1000121861648
 20
26.79675816974639
 11
139.1000121861648
 21
25.63009150307972
 12
142.6000121861648
 22
26.21342483641305
 13
142.6000121861648
 23
26.21342483641305
  0
MTEXT
  5
1C2
330
1B0
100
AcDbEntity
  8
文本层
 62
     0
100
AcDbMText
 10
104.1000121861648
 20
29.33842483641306
 30
0.0
210
0.0
220
0.0
230
1.0
 11
1.0
 21
0.0
 31
0.0
 40
5.0
 41
0.0
 71
     5
 72
     1
  1
77
  7
数字与字母
 73
     1
 44
1.0
  0
POINT
  5
1C3
330
1B0
100
AcDbEntity
  8
Defpoints
 62
     0
100
AcDbPoint
 10
65.60001218616483
 20
40.91023334865423
 30
0.0
 50
0.0
  0
POINT
  5
1C4
330
1B0
100
AcDbEntity
  8
Defpoints
 62
     0
100
AcDbPoint
 10
142.6000121861648
 20
40.91023334865423
 30
0.0
 50
0.0
  0
POINT
  5
1C5
330
1B0
100
AcDbEntity
  8
Defpoints
 62
     0
100
AcDbPoint
 10
142.6000121861648
 20
26.21342483641305
 30
0.0
 50
0.0
  0
ENDBLK
  5
1BB
330
1B0
100
AcDbEntity
  8
0
100
AcDbBlockEnd
  0
BLOCK
  5
1D2
330
1C8
100
AcDbEntity
  8
0
100
AcDbBlockBegin
  2
*D7
 70
     1
 10
0.0
 20
0.0
 30
0.0
  3
*D7
  1

  0
LINE
  5
1D5
330
1C8
100
AcDbEntity
  8
文本层
370
    -2
 62
     0
100
AcDbLine
 10
62.60001218616483
 20
46.41023334865423
 30
0.0
 11
62.60001218616483
 21
15.30726092992137
 31
0.0
  0
LINE
  5
1D6
330
1C8
100
AcDbEntity
  8
文本层
370
    -2
 62
     0
100
AcDbLine
 10
145.6000121861648
 20
46.41023334865423
 30
0.0
 11
145.6000121861648
 21
15.30726092992137
 31
0.0
  0
LINE
  5
1D7
330
1C8
100
AcDbEntity
  8
文本层
370
    -2
 62
     0
100
AcDbLine
 10
66.10001218616483
 20
17.80726092992137
 30
0.0
 11
142.1000121861648
 21
17.80726092992137
 31
0.0
  0
SOLID
  5
1D8
330
1C8
100
AcDbEntity
  8
文本层
 62
     0
100
AcDbTrace
 38
0.0
 10
66.10001218616483
 20
18.3905942632547
 11
66.10001218616483
 21
17.22392759658804
 12
62.60001218616483
 22
17.80726092992137
 13
62.60001218616483
 23
17.80726092992137
  0
SOLID
  5
1D9
330
1C8
100
AcDbEntity
  8
文本层
 62
     0
100
AcDbTrace
 38
0.0
 10
142.1000121861648
 20
18.3905942632547
 11
142.1000121861648
 21
17.22392759658804
 12
145.6000121861648
 22
17.80726092992137
 13
145.6000121861648
 23
17.80726092992137
  0
MTEXT
  5
1DA
330
1C8
100
AcDbEntity
  8
文本层
 62
     0
100
AcDbMText
 10
104.1000121861648
 20
20.93226092992137
 30
0.0
210
0.0
220
0.0
230
1.0
 11
1.0
 21
0.0
 31
0.0
 40
5.0
 41
0.0
 71
     5
 72
     1
  1
83
  7
数字与字母
 73
     1
 44
1.0
  0
POINT
  5
1DB
330
1C8
100
AcDbEntity
  8
Defpoints
 62
     0
100
AcDbPoint
 10
62.60001218616483
 20
46.41023334865423
 30
0.0
 50
0.0
  0
POINT
  5
1DC
330
1C8
100
AcDbEntity
  8
Defpoints
 62
     0
100
AcDbPoint
 10
145.6000121861648
 20
46.41023334865423
 30
0.0
 50
0.0
  0
POINT
  5
1DD
330
1C8
100
AcDbEntity
  8
Defpoints
 62
     0
100
AcDbPoint
 10
145.6000121861648
 20
17.80726092992137
 30
0.0
 50
0.0
  0
ENDBLK
  5
1D3
330
1C8
100
AcDbEntity
  8
0
100
AcDbBlockEnd
  0
BLOCK
  5
1EA
330
1E0
100
AcDbEntity
  8
0
100
AcDbBlockBegin
  2
*D8
 70
     1
 10
0.0
 20
0.0
 30
0.0
  3
*D8
  1

  0
LINE
  5
1ED
330
1E0
100
AcDbEntity
  8
文本层
370
    -2
 62
     0
100
AcDbLine
 10
60.10001218616483
 20
46.41023334865423
 30
0.0
 11
60.10001218616483
 21
6.779743174619568
 31
0.0
  0
LINE
  5
1EE
330
1E0
100
AcDbEntity
  8
文本层
370
    -2
 62
     0
100
AcDbLine
 10
148.1000121861648
 20
46.27663569530199
 30
0.0
 11
148.1000121861648
 21
6.779743174619568
 31
0.0
  0
LINE
  5
1EF
330
1E0
100
AcDbEntity
  8
文本层
370
    -2
 62
     0
100
AcDbLine
 10
63.60001218616483
 20
9.279743174619568
 30
0.0
 11
144.6000121861648
 21
9.279743174619568
 31
0.0
  0
SOLID
  5
1F0
330
1E0
100
AcDbEntity
  8
文本层
 62
     0
100
AcDbTrace
 38
0.0
 10
63.60001218616483
 20
9.863076507952902
 11
63.60001218616483
 21
8.696409841286235
 12
60.10001218616483
 22
9.279743174619568
 13
60.10001218616483
 23
9.279743174619568
  0
SOLID
  5
1F1
330
1E0
100
AcDbEntity
  8
文本层
 62
     0
100
AcDbTrace
 38
0.0
 10
144.6000121861648
 20
9.863076507952902
 11
144.6000121861648
 21
8.696409841286235
 12
148.1000121861648
 22
9.279743174619568
 13
148.1000121861648
 23
9.279743174619568
  0
MTEXT
  5
1F2
330
1E0
100
AcDbEntity
  8
文本层
 62
     0
100
AcDbMText
 10
104.1000121861648
 20
12.40474317461957
 30
0.0
210
0.0
220
0.0
230
1.0
 11
1.0
 21
0.0
 31
0.0
 40
5.0
 41
0.0
 71
     5
 72
     1
  1
88
  7
数字与字母
 73
     1
 44
1.0
  0
POINT
  5
1F3
330
1E0
100
AcDbEntity
  8
Defpoints
 62
     0
100
AcDbPoint
 10
60.10001218616483
 20
46.41023334865423
 30
0.0
 50
0.0
  0
POINT
  5
1F4
330
1E0
100
AcDbEntity
  8
Defpoints
 62
     0
100
AcDbPoint
 10
148.1000121861648
 20
46.27663569530199
 30
0.0
 50
0.0
  0
POINT
  5
1F5
330
1E0
100
AcDbEntity
  8
Defpoints
 62
     0
100
AcDbPoint
 10
148.1000121861648
 20
9.279743174619568
 30
0.0
 50
0.0
  0
ENDBLK
  5
1EB
330
1E0
100
AcDbEntity
  8
0
100
AcDbBlockEnd
  0
BLOCK
  5
202
330
1F8
100
AcDbEntity
  8
0
100
AcDbBlockBegin
  2
*D9
 70
     1
 10
0.0
 20
0.0
 30
0.0
  3
*D9
  1

  0
LINE
  5
205
330
1F8
100
AcDbEntity
  8
文本层
370
    -2
 62
     0
100
AcDbLine
 10
54.10001218616483
 20
40.91023334865423
 30
0.0
 11
54.10001218616483
 21
-2.228372497683409
 31
0.0
  0
LINE
  5
206
330
1F8
100
AcDbEntity
  8
文本层
370
    -2
 62
     0
100
AcDbLine
 10
154.1000121861648
 20
40.91023334865423
 30
0.0
 11
154.1000121861648
 21
-2.228372497683409
 31
0.0
  0
LINE
  5
207
330
1F8
100
AcDbEntity
  8
文本层
370
    -2
 62
     0
100
AcDbLine
 10
57.60001218616483
 20
0.2716275023165906
 30
0.0
 11
150.6000121861648
 21
0.2716275023165906
 31
0.0
  0
SOLID
  5
208
330
1F8
100
AcDbEntity
  8
文本层
 62
     0
100
AcDbTrace
 38
0.0
 10
57.60001218616483
 20
0.8549608356499239
 11
57.60001218616483
 21
-0.3117058310167427
 12
54.10001218616483
 22
0.2716275023165906
 13
54.10001218616483
 23
0.2716275023165906
  0
SOLID
  5
209
330
1F8
100
AcDbEntity
  8
文本层
 62
     0
100
AcDbTrace
 38
0.0
 10
150.6000121861648
 20
0.8549608356499239
 11
150.6000121861648
 21
-0.3117058310167427
 12
154.1000121861648
 22
0.2716275023165906
 13
154.1000121861648
 23
0.2716275023165906
  0
MTEXT
  5
20A
330
1F8
100
AcDbEntity
  8
文本层
 62
     0
100
AcDbMText
 10
104.1000121861648
 20
3.396627502316591
 30
0.0
210
0.0
220
0.0
230
1.0
 11
1.0
 21
0.0
 31
0.0
 40
5.0
 41
0.0
 71
     5
 72
     1
  1
100
  7
数字与字母
 73
     1
 44
1.0
  0
POINT
  5
20B
330
1F8
100
AcDbEntity
  8
Defpoints
 62
     0
100
AcDbPoint
 10
54.10001218616483
 20
40.91023334865423
 30
0.0
 50
0.0
  0
POINT
  5
20C
330
1F8
100
AcDbEntity
  8
Defpoints
 62
     0
100
AcDbPoint
 10
154.1000121861648
 20
40.91023334865423
 30
0.0
 50
0.0
  0
POINT
  5
20D
330
1F8
100
AcDbEntity
  8
Defpoints
 62
     0
100
AcDbPoint
 10
154.1000121861648
 20
0.2716275023165906
 30
0.0
 50
0.0
  0
ENDBLK
  5
203
330
1F8
100
AcDbEntity
  8
0
100
AcDbBlockEnd
  0
BLOCK
  5
21A
330
210
100
AcDbEntity
  8
0
100
AcDbBlockBegin
  2
*D10
 70
     1
 10
0.0
 20
0.0
 30
0.0
  3
*D10
  1

  0
LINE
  5
21D
330
210
100
AcDbEntity
  8
文本层
370
    -2
 62
     0
100
AcDbLine
 10
148.1000121861648
 20
55.41023334865423
 30
0.0
 11
165.2529642221768
 21
55.41023334865423
 31
0.0
  0
LINE
  5
21E
330
210
100
AcDbEntity
  8
文本层
370
    -2
 62
     0
100
AcDbLine
 10
148.1000121861648
 20
46.41023334865423
 30
0.0
 11
165.2529642221768
 21
46.41023334865423
 31
0.0
  0
LINE
  5
21F
330
210
100
AcDbEntity
  8
文本层
370
    -2
 62
     0
100
AcDbLine
 10
162.7529642221768
 20
51.91023334865423
 30
0.0
 11
162.7529642221768
 21
49.91023334865423
 31
0.0
  0
SOLID
  5
220
330
210
100
AcDbEntity
  8
文本层
 62
     0
100
AcDbTrace
 38
0.0
 10
162.1696308888434
 20
51.91023334865423
 11
163.3362975555101
 21
51.91023334865423
 12
162.7529642221768
 22
55.41023334865423
 13
162.7529642221768
 23
55.41023334865423
  0
SOLID
  5
221
330
210
100
AcDbEntity
  8
文本层
 62
     0
100
AcDbTrace
 38
0.0
 10
162.1696308888434
 20
49.91023334865423
 11
163.3362975555101
 21
49.91023334865423
 12
162.7529642221768
 22
46.41023334865423
 13
162.7529642221768
 23
46.41023334865423
  0
MTEXT
  5
222
330
210
100
AcDbEntity
  8
文本层
 62
     0
100
AcDbMText
 10
159.6279642221768
 20
50.91023334865426
 30
0.0
210
0.0
220
0.0
230
1.0
 11
6.123031769111886E-17
 21
1.0
 31
0.0
 40
5.0
 41
0.0
 71
     5
 72
     1
  1
9
  7
数字与字母
 73
     1
 44
1.0
  0
POINT
  5
223
330
210
100
AcDbEntity
  8
Defpoints
 62
     0
100
AcDbPoint
 10
148.1000121861648
 20
55.41023334865423
 30
0.0
 50
0.0
  0
POINT
  5
224
330
210
100
AcDbEntity
  8
Defpoints
 62
     0
100
AcDbPoint
 10
148.1000121861648
 20
46.41023334865423
 30
0.0
 50
0.0
  0
POINT
  5
225
330
210
100
AcDbEntity
  8
Defpoints
 62
     0
100
AcDbPoint
 10
162.7529642221768
 20
46.41023334865423
 30
0.0
 50
0.0
  0
ENDBLK
  5
21B
330
210
100
AcDbEntity
  8
0
100
AcDbBlockEnd
  0
BLOCK
  5
232
330
228
100
AcDbEntity
  8
0
100
AcDbBlockBegin
  2
*D11
 70
     1
 10
0.0
 20
0.0
 30
0.0
  3
*D11
  1

  0
LINE
  5
235
330
228
100
AcDbEntity
  8
文本层
370
    -2
 62
     0
100
AcDbLine
 10
152.1000121861648
 20
58.41023334865423
 30
0.0
 11
174.488360917341
 21
58.41023334865423
 31
0.0
  0
LINE
  5
236
330
228
100
AcDbEntity
  8
文本层
370
    -2
 62
     0
100
AcDbLine
 10
152.1000121861648
 20
43.41023334865423
 30
0.0
 11
174.488360917341
 21
43.41023334865423
 31
0.0
  0
LINE
  5
237
330
228
100
AcDbEntity
  8
文本层
370
    -2
 62
     0
100
AcDbLine
 10
171.988360917341
 20
54.91023334865423
 30
0.0
 11
171.988360917341
 21
46.91023334865423
 31
0.0
  0
SOLID
  5
238
330
228
100
AcDbEntity
  8
文本层
 62
     0
100
AcDbTrace
 38
0.0
 10
171.4050275840077
 20
54.91023334865423
 11
172.5716942506744
 21
54.91023334865423
 12
171.988360917341
 22
58.41023334865423
 13
171.988360917341
 23
58.41023334865423
  0
SOLID
  5
239
330
228
100
AcDbEntity
  8
文本层
 62
     0
100
AcDbTrace
 38
0.0
 10
171.4050275840077
 20
46.91023334865423
 11
172.5716942506744
 21
46.91023334865423
 12
171.988360917341
 22
43.41023334865423
 13
171.988360917341
 23
43.41023334865423
  0
MTEXT
  5
23A
330
228
100
AcDbEntity
  8
文本层
 62
     0
100
AcDbMText
 10
168.863360917341
 20
50.91023334865426
 30
0.0
210
0.0
220
0.0
230
1.0
 11
6.123031769111886E-17
 21
1.0
 31
0.0
 40
5.0
 41
0.0
 71
     5
 72
     1
  1
15
  7
数字与字母
 73
     1
 44
1.0
  0
POINT
  5
23B
330
228
100
AcDbEntity
  8
Defpoints
 62
     0
100
AcDbPoint
 10
152.1000121861648
 20
58.41023334865423
 30
0.0
 50
0.0
  0
POINT
  5
23C
330
228
100
AcDbEntity
  8
Defpoints
 62
     0
100
AcDbPoint
 10
152.1000121861648
 20
43.41023334865423
 30
0.0
 50
0.0
  0
POINT
  5
23D
330
228
100
AcDbEntity
  8
Defpoints
 62
     0
100
AcDbPoint
 10
171.988360917341
 20
43.41023334865423
 30
0.0
 50
0.0
  0
ENDBLK
  5
233
330
228
100
AcDbEntity
  8
0
100
AcDbBlockEnd
  0
BLOCK
  5
24A
330
240
100
AcDbEntity
  8
0
100
AcDbBlockBegin
  2
*D12
 70
     1
 10
0.0
 20
0.0
 30
0.0
  3
*D12
  1

  0
LINE
  5
24D
330
240
100
AcDbEntity
  8
文本层
370
    -2
 62
     0
100
AcDbLine
 10
154.1000121861648
 20
60.91023334865423
 30
0.0
 11
184.1285957996629
 21
60.91023334865422
 31
0.0
  0
LINE
  5
24E
330
240
100
AcDbEntity
  8
文本层
370
    -2
 62
     0
100
AcDbLine
 10
154.1000121861648
 20
40.91023334865423
 30
0.0
 11
184.1285957996629
 21
40.91023334865422
 31
0.0
  0
LINE
  5
24F
330
240
100
AcDbEntity
  8
文本层
370
    -2
 62
     0
100
AcDbLine
 10
181.6285957996629
 20
57.41023334865422
 30
0.0
 11
181.6285957996629
 21
44.41023334865422
 31
0.0
  0
SOLID
  5
250
330
240
100
AcDbEntity
  8
文本层
 62
     0
100
AcDbTrace
 38
0.0
 10
181.0452624663296
 20
57.41023334865422
 11
182.2119291329963
 21
57.41023334865422
 12
181.6285957996629
 22
60.91023334865422
 13
181.6285957996629
 23
60.91023334865422
  0
SOLID
  5
251
330
240
100
AcDbEntity
  8
文本层
 62
     0
100
AcDbTrace
 38
0.0
 10
181.0452624663296
 20
44.41023334865422
 11
182.2119291329963
 21
44.41023334865422
 12
181.6285957996629
 22
40.91023334865422
 13
181.6285957996629
 23
40.91023334865422
  0
MTEXT
  5
252
330
240
100
AcDbEntity
  8
文本层
 62
     0
100
AcDbMText
 10
178.5035957996629
 20
50.91023334865425
 30
0.0
210
0.0
220
0.0
230
1.0
 11
6.123031769111886E-17
 21
1.0
 31
0.0
 40
5.0
 41
0.0
 71
     5
 72
     1
  1
20
  7
数字与字母
 73
     1
 44
1.0
  0
POINT
  5
253
330
240
100
AcDbEntity
  8
Defpoints
 62
     0
100
AcDbPoint
 10
154.1000121861648
 20
60.91023334865423
 30
0.0
 50
0.0
  0
POINT
  5
254
330
240
100
AcDbEntity
  8
Defpoints
 62
     0
100
AcDbPoint
 10
154.1000121861648
 20
40.91023334865423
 30
0.0
 50
0.0
  0
POINT
  5
255
330
240
100
AcDbEntity
  8
Defpoints
 62
     0
100
AcDbPoint
 10
181.6285957996629
 20
40.91023334865422
 30
0.0
 50
0.0
  0
ENDBLK
  5
24B
330
240
100
AcDbEntity
  8
0
100
AcDbBlockEnd
  0
ENDSEC
  0
SECTION
  2
ENTITIES
  0
LWPOLYLINE
  5
AA
102
{ACAD_REACTORS
330
196
102
}
330
1F
100
AcDbEntity
  8
点划线
100
AcDbPolyline
 90
        2
 70
     0
 43
0.0
 10
104.1000121861648
 20
32.51528255601238
 10
104.1000121861648
 20
77.67863382731275
  0
LWPOLYLINE
  5
AB
102
{ACAD_REACTORS
330
135
330
196
102
}
330
1F
100
AcDbEntity
  8
点划线
100
AcDbPolyline
 90
        2
 70
     0
 43
0.0
 10
47.72484456779478
 20
50.91023334865423
 10
153.9915368012944
 20
50.91023334865423
  0
LINE
  5
B5
102
{ACAD_REACTORS
330
135
330
17E
102
}
330
1F
100
AcDbEntity
  8
轮廓线
100
AcDbLine
 10
104.1000121861648
 20
72.91023334865423
 30
0.0
 11
91.60001218616483
 21
72.91023334865423
 31
0.0
  0
LINE
  5
B6
102
{ACAD_REACTORS
330
135
102
}
330
1F
100
AcDbEntity
  8
轮廓线
100
AcDbLine
 10
91.60001218616483
 20
72.91023334865423
 30
0.0
 11
91.60001218616483
 21
57.41023334865423
 31
0.0
  0
ARC
  5
B7
102
{ACAD_REACTORS
330
135
102
}
330
1F
100
AcDbEntity
  8
轮廓线
100
AcDbCircle
 10
89.60001218616483
 20
57.41023334865423
 30
0.0
 40
2.0
100
AcDbArc
 50
270.0
 51
0.0
  0
LINE
  5
B8
102
{ACAD_REACTORS
330
135
102
}
330
1F
100
AcDbEntity
  8
轮廓线
100
AcDbLine
 10
89.60001218616483
 20
55.41023334865423
 30
0.0
 11
67.60001218616483
 21
55.41023334865423
 31
0.0
  0
ARC
  5
B9
102
{ACAD_REACTORS
330
135
102
}
330
1F
100
AcDbEntity
  8
轮廓线
100
AcDbCircle
 10
67.60001218616483
 20
57.41023334865423
 30
0.0
 40
2.0
100
AcDbArc
 50
180.0
 51
270.0
  0
LINE
  5
BA
102
{ACAD_REACTORS
330
135
102
}
330
1F
100
AcDbEntity
  8
轮廓线
100
AcDbLine
 10
65.60001218616483
 20
57.41023334865423
 30
0.0
 11
65.60001218616483
 21
60.91023334865423
 31
0.0
  0
LINE
  5
BB
102
{ACAD_REACTORS
330
135
102
}
330
1F
100
AcDbEntity
  8
轮廓线
100
AcDbLine
 10
65.60001218616483
 20
60.91023334865423
 30
0.0
 11
54.10001218616483
 21
60.91023334865423
 31
0.0
  0
LINE
  5
BC
102
{ACAD_REACTORS
330
135
102
}
330
1F
100
AcDbEntity
  8
轮廓线
100
AcDbLine
 10
54.10001218616483
 20
60.91023334865423
 30
0.0
 11
54.10001218616483
 21
60.41023334865423
 31
0.0
  0
ARC
  5
BD
102
{ACAD_REACTORS
330
135
102
}
330
1F
100
AcDbEntity
  8
轮廓线
100
AcDbCircle
 10
56.10001218616483
 20
60.41023334865423
 30
0.0
 40
2.0
100
AcDbArc
 50
180.0
 51
270.0
  0
LINE
  5
BE
102
{ACAD_REACTORS
330
135
102
}
330
1F
100
AcDbEntity
  8
轮廓线
100
AcDbLine
 10
56.10001218616483
 20
58.41023334865423
 30
0.0
 11
58.10001218616483
 21
58.41023334865423
 31
0.0
  0
ARC
  5
BF
102
{ACAD_REACTORS
330
135
102
}
330
1F
100
AcDbEntity
  8
轮廓线
100
AcDbCircle
 10
58.10001218616483
 20
56.41023334865423
 30
0.0
 40
2.0
100
AcDbArc
 50
0.0
 51
90.0
  0
LINE
  5
C0
102
{ACAD_REACTORS
330
135
102
}
330
1F
100
AcDbEntity
  8
轮廓线
100
AcDbLine
 10
60.10001218616483
 20
56.41023334865423
 30
0.0
 11
60.10001218616483
 21
55.41023334865423
 31
0.0
  0
LINE
  5
C1
102
{ACAD_REACTORS
330
135
102
}
330
1F
100
AcDbEntity
  8
轮廓线
100
AcDbLine
 10
60.10001218616483
 20
55.41023334865423
 30
0.0
 11
62.60001218616483
 21
55.41023334865423
 31
0.0
  0
LINE
  5
C2
102
{ACAD_REACTORS
330
135
330
1DE
102
}
330
1F
100
AcDbEntity
  8
轮廓线
100
AcDbLine
 10
62.60001218616483
 20
55.41023334865423
 30
0.0
 11
62.60001218616483
 21
46.41023334865423
 31
0.0
  0
LINE
  5
C3
102
{ACAD_REACTORS
330
135
330
1F6
102
}
330
1F
100
AcDbEntity
  8
轮廓线
100
AcDbLine
 10
62.60001218616483
 20
46.41023334865423
 30
0.0
 11
60.10001218616483
 21
46.41023334865423
 31
0.0
  0
LINE
  5
C4
102
{ACAD_REACTORS
330
135
102
}
330
1F
100
AcDbEntity
  8
轮廓线
100
AcDbLine
 10
60.10001218616483
 20
46.41023334865423
 30
0.0
 11
60.10001218616483
 21
45.41023334865423
 31
0.0
  0
ARC
  5
C5
102
{ACAD_REACTORS
330
135
102
}
330
1F
100
AcDbEntity
  8
轮廓线
100
AcDbCircle
 10
58.10001218616483
 20
45.41023334865423
 30
0.0
 40
2.0
100
AcDbArc
 50
270.0
 51
0.0
  0
LINE
  5
C6
102
{ACAD_REACTORS
330
135
102
}
330
1F
100
AcDbEntity
  8
轮廓线
100
AcDbLine
 10
58.10001218616483
 20
43.41023334865423
 30
0.0
 11
56.10001218616483
 21
43.41023334865423
 31
0.0
  0
ARC
  5
C7
102
{ACAD_REACTORS
330
135
102
}
330
1F
100
AcDbEntity
  8
轮廓线
100
AcDbCircle
 10
56.10001218616483
 20
41.41023334865423
 30
0.0
 40
2.0
100
AcDbArc
 50
90.0
 51
180.0
  0
LINE
  5
C8
102
{ACAD_REACTORS
330
135
102
}
330
1F
100
AcDbEntity
  8
轮廓线
100
AcDbLine
 10
54.10001218616483
 20
41.41023334865423
 30
0.0
 11
54.10001218616483
 21
40.91023334865423
 31
0.0
  0
LINE
  5
CB
102
{ACAD_REACTORS
330
135
330
20E
102
}
330
1F
100
AcDbEntity
  8
轮廓线
100
AcDbLine
 10
54.10001218616483
 20
40.91023334865423
 30
0.0
 11
65.60001218616483
 21
40.91023334865423
 31
0.0
  0
LINE
  5
CC
102
{ACAD_REACTORS
330
135
102
}
330
1F
100
AcDbEntity
  8
轮廓线
100
AcDbLine
 10
65.60001218616483
 20
40.91023334865423
 30
0.0
 11
65.60001218616483
 21
44.41023334865423
 31
0.0
  0
ARC
  5
CD
102
{ACAD_REACTORS
330
135
102
}
330
1F
100
AcDbEntity
  8
轮廓线
100
AcDbCircle
 10
67.60001218616483
 20
44.41023334865423
 30
0.0
 40
2.0
100
AcDbArc
 50
90.0
 51
180.0
  0
LINE
  5
CE
102
{ACAD_REACTORS
330
135
102
}
330
1F
100
AcDbEntity
  8
轮廓线
100
AcDbLine
 10
67.60001218616483
 20
46.41023334865423
 30
0.0
 11
89.60001218616483
 21
46.41023334865423
 31
0.0
  0
ARC
  5
CF
102
{ACAD_REACTORS
330
135
102
}
330
1F
100
AcDbEntity
  8
轮廓线
100
AcDbCircle
 10
89.60001218616483
 20
44.41023334865423
 30
0.0
 40
2.0
100
AcDbArc
 50
0.0
 51
90.0
  0
LINE
  5
D0
102
{ACAD_REACTORS
330
135
102
}
330
1F
100
AcDbEntity
  8
轮廓线
100
AcDbLine
 10
91.60001218616483
 20
44.41023334865423
 30
0.0
 11
91.60001218616483
 21
37.91023334865423
 31
0.0
  0
LINE
  5
D1
102
{ACAD_REACTORS
330
135
330
1AE
102
}
330
1F
100
AcDbEntity
  8
轮廓线
100
AcDbLine
 10
91.60001218616483
 20
37.91023334865423
 30
0.0
 11
104.1000121861648
 21
37.91023334865423
 31
0.0
  0
LWPOLYLINE
  5
D3
330
1F
100
AcDbEntity
  8
轮廓线
100
AcDbPolyline
 90
        2
 70
     0
 43
0.0
 10
65.60001218616483
 20
60.91023334865423
 10
91.60001218616483
 20
60.91023334865423
  0
LWPOLYLINE
  5
D4
102
{ACAD_REACTORS
330
1C6
102
}
330
1F
100
AcDbEntity
  8
轮廓线
100
AcDbPolyline
 90
        2
 70
     0
 43
0.0
 10
65.60001218616483
 20
40.91023334865423
 10
91.60001218616483
 20
40.91023334865423
  0
LWPOLYLINE
  5
D6
102
{ACAD_REACTORS
330
135
330
166
102
}
330
1F
100
AcDbEntity
  8
轮廓线
100
AcDbPolyline
 90
        2
 70
     0
 43
0.0
 10
96.10001218616483
 20
72.91023334865423
 10
96.10001218616483
 20
37.91023334865423
  0
LINE
  5
D7
102
{ACAD_REACTORS
330
135
102
}
330
1F
100
AcDbEntity
  8
轮廓线
100
AcDbLine
 10
104.1000121861648
 20
72.91023334865423
 30
0.0
 11
116.6000121861648
 21
72.91023334865423
 31
0.0
  0
LINE
  5
D8
102
{ACAD_REACTORS
330
135
102
}
330
1F
100
AcDbEntity
  8
轮廓线
100
AcDbLine
 10
116.6000121861648
 20
37.91023334865423
 30
0.0
 11
104.1000121861648
 21
37.91023334865423
 31
0.0
  0
LWPOLYLINE
  5
D9
102
{ACAD_REACTORS
330
135
102
}
330
1F
100
AcDbEntity
  8
轮廓线
100
AcDbPolyline
 90
        2
 70
     0
 43
0.0
 10
112.1000121861648
 20
72.91023334865423
 10
112.1000121861648
 20
37.91023334865423
  0
LINE
  5
DA
102
{ACAD_REACTORS
330
135
330
1DE
102
}
330
1F
100
AcDbEntity
  8
轮廓线
100
AcDbLine
 10
145.6000121861648
 20
55.41023334865423
 30
0.0
 11
145.6000121861648
 21
46.41023334865423
 31
0.0
  0
LWPOLYLINE
  5
DB
102
{ACAD_REACTORS
330
1C6
102
}
330
1F
100
AcDbEntity
  8
轮廓线
100
AcDbPolyline
 90
        2
 70
     0
 43
0.0
 10
142.6000121861648
 20
40.91023334865423
 10
116.6000121861648
 20
40.91023334865423
  0
LINE
  5
DC
102
{ACAD_REACTORS
330
135
102
}
330
1F
100
AcDbEntity
  8
轮廓线
100
AcDbLine
 10
140.6000121861648
 20
46.41023334865423
 30
0.0
 11
118.6000121861648
 21
46.41023334865423
 31
0.0
  0
LINE
  5
DD
102
{ACAD_REACTORS
330
135
102
}
330
1F
100
AcDbEntity
  8
轮廓线
100
AcDbLine
 10
142.6000121861648
 20
40.91023334865423
 30
0.0
 11
142.6000121861648
 21
44.41023334865423
 31
0.0
  0
ARC
  5
DE
102
{ACAD_REACTORS
330
135
330
23E
102
}
330
1F
100
AcDbEntity
  8
轮廓线
100
AcDbCircle
 10
152.1000121861648
 20
41.41023334865423
 30
0.0
 40
2.0
100
AcDbArc
 50
7.016477563892661E-15
 51
90.0
  0
LINE
  5
DF
102
{ACAD_REACTORS
330
135
330
20E
102
}
330
1F
100
AcDbEntity
  8
轮廓线
100
AcDbLine
 10
154.1000121861648
 20
40.91023334865423
 30
0.0
 11
142.6000121861648
 21
40.91023334865423
 31
0.0
  0
LINE
  5
E0
102
{ACAD_REACTORS
330
135
102
}
330
1F
100
AcDbEntity
  8
轮廓线
100
AcDbLine
 10
154.1000121861648
 20
41.41023334865423
 30
0.0
 11
154.1000121861648
 21
40.91023334865423
 31
0.0
  0
LINE
  5
E1
102
{ACAD_REACTORS
330
135
330
226
102
}
330
1F
100
AcDbEntity
  8
轮廓线
100
AcDbLine
 10
145.6000121861648
 20
46.41023334865423
 30
0.0
 11
148.1000121861648
 21
46.41023334865423
 31
0.0
  0
LINE
  5
E2
102
{ACAD_REACTORS
330
135
102
}
330
1F
100
AcDbEntity
  8
轮廓线
100
AcDbLine
 10
148.1000121861648
 20
46.41023334865423
 30
0.0
 11
148.1000121861648
 21
45.41023334865423
 31
0.0
  0
LINE
  5
E3
102
{ACAD_REACTORS
330
135
102
}
330
1F
100
AcDbEntity
  8
轮廓线
100
AcDbLine
 10
150.1000121861648
 20
43.41023334865423
 30
0.0
 11
152.1000121861648
 21
43.41023334865423
 31
0.0
  0
ARC
  5
E4
102
{ACAD_REACTORS
330
135
102
}
330
1F
100
AcDbEntity
  8
轮廓线
100
AcDbCircle
 10
150.1000121861648
 20
45.41023334865423
 30
0.0
 40
2.0
100
AcDbArc
 50
180.0
 51
270.0
  0
ARC
  5
E5
102
{ACAD_REACTORS
330
135
102
}
330
1F
100
AcDbEntity
  8
轮廓线
100
AcDbCircle
 10
140.6000121861648
 20
44.41023334865423
 30
0.0
 40
2.0
100
AcDbArc
 50
7.016477563892661E-15
 51
90.0
  0
LINE
  5
E6
102
{ACAD_REACTORS
330
135
102
}
330
1F
100
AcDbEntity
  8
轮廓线
100
AcDbLine
 10
116.6000121861648
 20
44.41023334865423
 30
0.0
 11
116.6000121861648
 21
37.91023334865423
 31
0.0
  0
ARC
  5
E7
102
{ACAD_REACTORS
330
135
102
}
330
1F
100
AcDbEntity
  8
轮廓线
100
AcDbCircle
 10
118.6000121861648
 20
44.41023334865423
 30
0.0
 40
2.0
100
AcDbArc
 50
90.0
 51
180.0
  0
LWPOLYLINE
  5
E8
330
1F
100
AcDbEntity
  8
轮廓线
100
AcDbPolyline
 90
        2
 70
     0
 43
0.0
 10
142.6000121861648
 20
60.91023334865423
 10
116.6000121861648
 20
60.91023334865423
  0
LINE
  5
E9
102
{ACAD_REACTORS
330
135
102
}
330
1F
100
AcDbEntity
  8
轮廓线
100
AcDbLine
 10
118.6000121861648
 20
55.41023334865423
 30
0.0
 11
140.6000121861648
 21
55.41023334865423
 31
0.0
  0
ARC
  5
EA
102
{ACAD_REACTORS
330
135
102
}
330
1F
100
AcDbEntity
  8
轮廓线
100
AcDbCircle
 10
150.1000121861648
 20
56.41023334865423
 30
0.0
 40
2.0
100
AcDbArc
 50
90.0
 51
180.0
  0
LINE
  5
EB
102
{ACAD_REACTORS
330
135
102
}
330
1F
100
AcDbEntity
  8
轮廓线
100
AcDbLine
 10
142.6000121861648
 20
57.41023334865423
 30
0.0
 11
142.6000121861648
 21
60.91023334865423
 31
0.0
  0
LINE
  5
EC
102
{ACAD_REACTORS
330
135
330
226
102
}
330
1F
100
AcDbEntity
  8
轮廓线
100
AcDbLine
 10
148.1000121861648
 20
55.41023334865423
 30
0.0
 11
145.6000121861648
 21
55.41023334865423
 31
0.0
  0
LINE
  5
ED
102
{ACAD_REACTORS
330
135
102
}
330
1F
100
AcDbEntity
  8
轮廓线
100
AcDbLine
 10
148.1000121861648
 20
56.41023334865423
 30
0.0
 11
148.1000121861648
 21
55.41023334865423
 31
0.0
  0
ARC
  5
EE
102
{ACAD_REACTORS
330
135
102
}
330
1F
100
AcDbEntity
  8
轮廓线
100
AcDbCircle
 10
140.6000121861648
 20
57.41023334865423
 30
0.0
 40
2.0
100
AcDbArc
 50
270.0
 51
7.016477563892661E-15
  0
LINE
  5
EF
102
{ACAD_REACTORS
330
135
330
256
102
}
330
1F
100
AcDbEntity
  8
轮廓线
100
AcDbLine
 10
142.6000121861648
 20
60.91023334865423
 30
0.0
 11
154.1000121861648
 21
60.91023334865423
 31
0.0
  0
LINE
  5
F0
102
{ACAD_REACTORS
330
135
330
23E
102
}
330
1F
100
AcDbEntity
  8
轮廓线
100
AcDbLine
 10
152.1000121861648
 20
58.41023334865423
 30
0.0
 11
150.1000121861648
 21
58.41023334865423
 31
0.0
  0
ARC
  5
F1
102
{ACAD_REACTORS
330
135
102
}
330
1F
100
AcDbEntity
  8
轮廓线
100
AcDbCircle
 10
152.1000121861648
 20
60.41023334865423
 30
0.0
 40
2.0
100
AcDbArc
 50
270.0
 51
7.016477563892661E-15
  0
LINE
  5
F2
102
{ACAD_REACTORS
330
135
102
}
330
1F
100
AcDbEntity
  8
轮廓线
100
AcDbLine
 10
154.1000121861648
 20
60.91023334865423
 30
0.0
 11
154.1000121861648
 21
60.41023334865423
 31
0.0
  0
LINE
  5
F3
102
{ACAD_REACTORS
330
135
330
17E
102
}
330
1F
100
AcDbEntity
  8
轮廓线
100
AcDbLine
 10
116.6000121861648
 20
72.91023334865423
 30
0.0
 11
116.6000121861648
 21
57.41023334865423
 31
0.0
  0
ARC
  5
F4
102
{ACAD_REACTORS
330
135
102
}
330
1F
100
AcDbEntity
  8
轮廓线
100
AcDbCircle
 10
118.6000121861648
 20
57.41023334865423
 30
0.0
 40
2.0
100
AcDbArc
 50
180.0
 51
270.0
  0
HATCH
  5
135
330
1F
100
AcDbEntity
  8
剖面线
100
AcDbHatch
 10
0.0
 20
0.0
 30
0.0
210
0.0
220
0.0
230
1.0
  2
_USER
 70
     0
 71
     1
 91
        4
 92
        7
 72
     1
 73
     1
 93
       16
 10
89.60001218616483
 20
55.41023334865423
 42
0.0
 10
67.60001218616483
 20
55.41023334865423
 42
-0.4142135623730951
 10
65.60001218616483
 20
57.41023334865423
 42
0.0
 10
65.60001218616485
 20
60.91023334865424
 42
0.0
 10
54.10001218616484
 20
60.91023334865422
 42
0.0
 10
54.10001218616483
 20
60.41023334865426
 42
0.4142135623730991
 10
56.10001218616483
 20
58.41023334865423
 42
0.0
 10
58.10001218616483
 20
58.41023334865423
 42
-0.4142135623730951
 10
60.10001218616483
 20
56.41023334865423
 42
0.0
 10
60.10001218616483
 20
55.41023334865423
 42
0.0
 10
62.60001218616483
 20
55.41023334865423
 42
0.0
 10
62.60001218616483
 20
50.91023334865423
 42
0.0
 10
96.10001218616483
 20
50.91023334865422
 42
0.0
 10
96.10001218616482
 20
72.91023334865422
 42
0.0
 10
91.60001218616485
 20
72.91023334865424
 42
0.0
 10
91.60001218616483
 20
57.41023334865423
 42
-0.4142135623730951
 97
       16
330
B5
330
B6
330
B7
330
B8
330
B9
330
BA
330
BB
330
BC
330
BD
330
BE
330
BF
330
C0
330
C1
330
C2
330
AB
330
D6
 92
        7
 72
     1
 73
     1
 93
       16
 10
96.10001218616485
 20
50.91023334865423
 42
0.0
 10
62.60001218616483
 20
50.91023334865422
 42
0.0
 10
62.60001218616483
 20
46.41023334865423
 42
0.0
 10
60.10001218616483
 20
46.41023334865423
 42
0.0
 10
60.10001218616483
 20
45.41023334865424
 42
-0.4142135623730971
 10
58.10001218616483
 20
43.41023334865423
 42
0.0
 10
56.10001218616483
 20
43.41023334865423
 42
0.4142135623730951
 10
54.10001218616483
 20
41.41023334865423
 42
0.0
 10
54.10001218616483
 20
40.91023334865423
 42
0.0
 10
65.60001218616485
 20
40.91023334865423
 42
0.0
 10
65.60001218616483
 20
44.41023334865422
 42
-0.4142135623730961
 10
67.60001218616483
 20
46.41023334865423
 42
0.0
 10
89.60001218616483
 20
46.41023334865423
 42
-0.4142135623730951
 10
91.60001218616483
 20
44.41023334865423
 42
0.0
 10
91.60001218616483
 20
37.91023334865423
 42
0.0
 10
96.10001218616483
 20
37.91023334865422
 42
0.0
 97
       16
330
AB
330
C2
330
C3
330
C4
330
C5
330
C6
330
C7
330
C8
330
CB
330
CC
330
CD
330
CE
330
CF
330
D0
330
D1
330
D6
 92
        7
 72
     1
 73
     1
 93
       16
 10
145.6000121861648
 20
50.91023334865423
 42
0.0
 10
145.6000121861648
 20
55.41023334865423
 42
0.0
 10
148.1000121861648
 20
55.41023334865422
 42
0.0
 10
148.1000121861648
 20
56.41023334865423
 42
-0.4142135623730951
 10
150.1000121861648
 20
58.41023334865423
 42
0.0
 10
152.1000121861648
 20
58.41023334865423
 42
0.4142135623730951
 10
154.1000121861648
 20
60.41023334865423
 42
0.0
 10
154.1000121861648
 20
60.91023334865423
 42
0.0
 10
142.6000121861648
 20
60.91023334865424
 42
0.0
 10
142.6000121861648
 20
57.41023334865423
 42
-0.4142135623730951
 10
140.6000121861648
 20
55.41023334865423
 42
0.0
 10
118.6000121861648
 20
55.41023334865423
 42
-0.4142135623730951
 10
116.6000121861648
 20
57.41023334865423
 42
0.0
 10
116.6000121861648
 20
72.91023334865423
 42
0.0
 10
112.1000121861648
 20
72.91023334865423
 42
0.0
 10
112.1000121861648
 20
50.91023334865423
 42
0.0
 97
       16
330
EC
330
ED
330
EA
330
F0
330
F1
330
F2
330
EF
330
EB
330
EE
330
E9
330
F4
330
F3
330
D7
330
D9
330
AB
330
DA
 92
        7
 72
     1
 73
     1
 93
       16
 10
118.6000121861648
 20
46.41023334865423
 42
0.0
 10
140.6000121861648
 20
46.41023334865423
 42
-0.414213562373095
 10
142.6000121861648
 20
44.41023334865423
 42
0.0
 10
142.6000121861648
 20
40.91023334865423
 42
0.0
 10
154.1000121861648
 20
40.91023334865423
 42
0.0
 10
154.1000121861648
 20
41.41023334865423
 42
0.414213562373095
 10
152.1000121861648
 20
43.41023334865423
 42
0.0
 10
150.1000121861648
 20
43.41023334865423
 42
-0.4142135623730951
 10
148.1000121861648
 20
45.41023334865423
 42
0.0
 10
148.1000121861648
 20
46.41023334865423
 42
0.0
 10
145.6000121861648
 20
46.41023334865423
 42
0.0
 10
145.6000121861648
 20
50.91023334865423
 42
0.0
 10
112.1000121861648
 20
50.91023334865423
 42
0.0
 10
112.1000121861648
 20
37.91023334865423
 42
0.0
 10
116.6000121861648
 20
37.91023334865423
 42
0.0
 10
116.6000121861648
 20
44.41023334865423
 42
-0.4142135623730971
 97
       16
330
AB
330
D9
330
D8
330
E6
330
E7
330
DC
330
E5
330
DD
330
DF
330
E0
330
DE
330
E3
330
E4
330
E2
330
E1
330
DA
 75
     0
 76
     0
 52
45.0
 41
2.0
 77
     0
 78
     1
 53
45.0
 43
0.0
 44
0.0
 45
-1.414213562373095
 46
1.414213562373095
 79
     0
 47
0.1363213153125985
 98
        4
 10
93.69450135451774
 20
56.3829417011932
 10
93.69450135451774
 20
46.7041282774407
 10
115.6634619292641
 20
53.38387296300061
 10
115.2541024533039
 20
47.38573498116187
  0
DIMENSION
  5
14F
102
{ACAD_REACTORS
330
166
102
}
102
{ACAD_XDICTIONARY
360
15C
102
}
330
1F
100
AcDbEntity
  8
文本层
100
AcDbDimension
  2
*D2
 10
112.1000121861648
 20
80.75282636463891
 30
0.0
 11
104.1000121861648
 21
83.87782636463891
 31
0.0
 70
    32
 71
     5
 42
15.99999999999997
  3
机械标注
100
AcDbAlignedDimension
 13
96.10001218616483
 23
72.91023334865423
 33
0.0
 14
112.1000121861648
 24
72.50203243971814
 34
0.0
 52
0.0
100
AcDbRotatedDimension
  0
DIMENSION
  5
167
102
{ACAD_REACTORS
330
17E
102
}
102
{ACAD_XDICTIONARY
360
174
102
}
330
1F
100
AcDbEntity
  8
文本层
100
AcDbDimension
  2
*D3
 10
116.6000121861648
 20
88.59734160610964
 30
0.0
 11
104.1000121861648
 21
91.72234160610964
 31
0.0
 70
    32
 71
     5
 42
25.0
  3
机械标注
100
AcDbAlignedDimension
 13
91.60001218616483
 23
72.91023334865423
 33
0.0
 14
116.6000121861648
 24
72.91023334865423
 34
0.0
 52
0.0
100
AcDbRotatedDimension
  0
DIMENSION
  5
17F
102
{ACAD_REACTORS
330
196
102
}
102
{ACAD_XDICTIONARY
360
18C
102
}
330
1F
100
AcDbEntity
  8
文本层
100
AcDbDimension
  2
*D4
 10
48.26500777922666
 20
72.91023334865423
 30
0.0
 11
45.14000777922666
 21
61.91023334865424
 31
0.0
 70
    32
 71
     5
 42
21.99999999999999
  3
机械标注
100
AcDbAlignedDimension
 13
104.1000121861648
 23
50.91023334865423
 33
0.0
 14
91.60001218616483
 24
72.91023334865423
 34
0.0
 52
0.0
 50
90.0
100
AcDbRotatedDimension
  0
DIMENSION
  5
197
102
{ACAD_REACTORS
330
1AE
102
}
102
{ACAD_XDICTIONARY
360
1A4
102
}
330
1F
100
AcDbEntity
  8
文本层
100
AcDbDimension
  2
*D5
 10
36.84301286661162
 20
72.91023334865423
 30
0.0
 11
33.7180128666116
 21
55.41023334865424
 31
0.0
 70
    32
 71
     5
 42
34.99999999999999
  3
机械标注
100
AcDbAlignedDimension
 13
91.60001218616483
 23
37.91023334865423
 33
0.0
 14
91.60001218616483
 24
72.91023334865423
 34
0.0
 52
0.0
 50
90.0
100
AcDbRotatedDimension
  0
DIMENSION
  5
1AF
102
{ACAD_REACTORS
330
1C6
102
}
102
{ACAD_XDICTIONARY
360
1BC
102
}
330
1F
100
AcDbEntity
  8
文本层
100
AcDbDimension
  2
*D6
 10
142.6000121861648
 20
26.21342483641305
 30
0.0
 11
104.1000121861648
 21
29.33842483641306
 31
0.0
 70
    32
 71
     5
 42
77.0
  3
机械标注
100
AcDbAlignedDimension
 13
65.60001218616483
 23
40.91023334865423
 33
0.0
 14
142.6000121861648
 24
40.91023334865423
 34
0.0
 52
0.0
100
AcDbRotatedDimension
  0
DIMENSION
  5
1C7
102
{ACAD_REACTORS
330
1DE
102
}
102
{ACAD_XDICTIONARY
360
1D4
102
}
330
1F
100
AcDbEntity
  8
文本层
100
AcDbDimension
  2
*D7
 10
145.6000121861648
 20
17.80726092992137
 30
0.0
 11
104.1000121861648
 21
20.93226092992137
 31
0.0
 70
    32
 71
     5
 42
83.0
  3
机械标注
100
AcDbAlignedDimension
 13
62.60001218616483
 23
46.41023334865423
 33
0.0
 14
145.6000121861648
 24
46.41023334865423
 34
0.0
 52
0.0
100
AcDbRotatedDimension
  0
DIMENSION
  5
1DF
102
{ACAD_REACTORS
330
1F6
102
}
102
{ACAD_XDICTIONARY
360
1EC
102
}
330
1F
100
AcDbEntity
  8
文本层
100
AcDbDimension
  2
*D8
 10
148.1000121861648
 20
9.279743174619568
 30
0.0
 11
104.1000121861648
 21
12.40474317461957
 31
0.0
 70
    32
 71
     5
 42
88.0
  3
机械标注
100
AcDbAlignedDimension
 13
60.10001218616483
 23
46.41023334865423
 33
0.0
 14
148.1000121861648
 24
46.27663569530199
 34
0.0
 52
0.0
100
AcDbRotatedDimension
  0
DIMENSION
  5
1F7
102
{ACAD_REACTORS
330
20E
102
}
102
{ACAD_XDICTIONARY
360
204
102
}
330
1F
100
AcDbEntity
  8
文本层
100
AcDbDimension
  2
*D9
 10
154.1000121861648
 20
0.2716275023165906
 30
0.0
 11
104.1000121861648
 21
3.396627502316591
 31
0.0
 70
    32
 71
     5
 42
100.0
  3
机械标注
100
AcDbAlignedDimension
 13
54.10001218616483
 23
40.91023334865423
 33
0.0
 14
154.1000121861648
 24
40.91023334865423
 34
0.0
 52
0.0
100
AcDbRotatedDimension
  0
DIMENSION
  5
20F
102
{ACAD_REACTORS
330
226
102
}
102
{ACAD_XDICTIONARY
360
21C
102
}
330
1F
100
AcDbEntity
  8
文本层
100
AcDbDimension
  2
*D10
 10
162.7529642221768
 20
46.41023334865423
 30
0.0
 11
159.6279642221768
 21
50.91023334865426
 31
0.0
 70
    32
 71
     5
 42
9.0
  3
机械标注
100
AcDbAlignedDimension
 13
148.1000121861648
 23
55.41023334865423
 33
0.0
 14
148.1000121861648
 24
46.41023334865423
 34
0.0
 52
0.0
 50
90.0
100
AcDbRotatedDimension
  0
DIMENSION
  5
227
102
{ACAD_REACTORS
330
23E
102
}
102
{ACAD_XDICTIONARY
360
234
102
}
330
1F
100
AcDbEntity
  8
文本层
100
AcDbDimension
  2
*D11
 10
171.988360917341
 20
43.41023334865423
 30
0.0
 11
168.863360917341
 21
50.91023334865426
 31
0.0
 70
    32
 71
     5
 42
15.0
  3
机械标注
100
AcDbAlignedDimension
 13
152.1000121861648
 23
58.41023334865423
 33
0.0
 14
152.1000121861648
 24
43.41023334865423
 34
0.0
 52
0.0
 50
90.0
100
AcDbRotatedDimension
  0
DIMENSION
  5
23F
102
{ACAD_REACTORS
330
256
102
}
102
{ACAD_XDICTIONARY
360
24C
102
}
330
1F
100
AcDbEntity
  8
文本层
100
AcDbDimension
  2
*D12
 10
181.6285957996629
 20
40.91023334865422
 30
0.0
 11
178.5035957996629
 21
50.91023334865425
 31
0.0
 70
    32
 71
     5
 42
20.0
  3
机械标注
100
AcDbAlignedDimension
 13
154.1000121861648
 23
60.91023334865423
 33
0.0
 14
154.1000121861648
 24
40.91023334865423
 34
0.0
 52
0.0
 50
90.0
100
AcDbRotatedDimension
  0
VIEWPORT
  5
25B
330
5E
100
AcDbEntity
 67
     1
  8
0
100
AcDbViewport
 10
133.3499908447266
 20
101.5999970436096
 30
0.0
 40
423.7327665924585
 41
228.4221935424805
 68
     1
 69
     1
 12
133.3499908447266
 22
101.5999970436096
 13
0.0
 23
0.0
 14
10.0
 24
10.0
 15
10.0
 25
10.0
 16
0.0
 26
0.0
 36
1.0
 17
0.0
 27
0.0
 37
0.0
 42
50.0
 43
0.0
 44
0.0
 45
228.4221935424805
 50
0.0
 51
0.0
 72
   100
 90
    32800
  1

281
     0
 71
     1
 74
     0
110
0.0
120
0.0
130
0.0
111
1.0
121
0.0
131
0.0
112
0.0
122
1.0
132
0.0
 79
     0
146
0.0
348
0
340
0
345
0
346
0
  0
VIEWPORT
  5
25D
330
5E
100
AcDbEntity
 67
     1
  8
文本层
100
AcDbViewport
 10
133.3499939441681
 20
101.5999939441681
 30
0.0
 40
213.3599903106689
 41
162.5599903106689
 68
     1
 69
     2
 12
107.6733043331373
 22
45.99698455421312
 13
0.0
 23
0.0
 14
10.0
 24
10.0
 15
10.0
 25
10.0
 16
0.0
 26
0.0
 36
1.0
 17
0.0
 27
0.0
 37
0.0
 42
50.0
 43
0.0
 44
0.0
 45
118.0776685428634
 50
0.0
 51
0.0
 72
   100
 90
    32864
  1

281
     0
 71
     1
 74
     0
110
0.0
120
0.0
130
0.0
111
1.0
121
0.0
131
0.0
112
0.0
122
1.0
132
0.0
 79
     0
146
0.0
348
0
340
0
345
0
346
0
  0
ENDSEC
  0
SECTION
  2
OBJECTS
  0
DICTIONARY
  5
C
330
0
100
AcDbDictionary
281
     1
  3
ACAD_GROUP
350
D
  3
ACAD_LAYOUT
350
1A
  3
ACAD_MLINESTYLE
350
17
  3
ACAD_PLOTSETTINGS
350
19
  3
ACAD_PLOTSTYLENAME
350
E
  3
AcDbVariableDictionary
350
67
  0
DICTIONARY
  5
D
102
{ACAD_REACTORS
330
C
102
}
330
C
100
AcDbDictionary
281
     1
  0
ACDBDICTIONARYWDFLT
  5
E
102
{ACAD_REACTORS
330
C
102
}
330
C
100
AcDbDictionary
281
     1
  3
Normal
350
F
100
AcDbDictionaryWithDefault
340
F
  0
ACDBPLACEHOLDER
  5
F
102
{ACAD_REACTORS
330
E
102
}
330
E
  0
DICTIONARY
  5
17
102
{ACAD_REACTORS
330
C
102
}
330
C
100
AcDbDictionary
281
     1
  3
Standard
350
18
  0
MLINESTYLE
  5
18
102
{ACAD_REACTORS
330
17
102
}
330
17
100
AcDbMlineStyle
  2
STANDARD
 70
     0
  3

 62
   256
 51
90.0
 52
90.0
 71
     2
 49
0.5
 62
   256
  6
BYLAYER
 49
-0.5
 62
   256
  6
BYLAYER
  0
DICTIONARY
  5
19
102
{ACAD_REACTORS
330
C
102
}
330
C
100
AcDbDictionary
281
     1
  0
DICTIONARY
  5
1A
102
{ACAD_REACTORS
330
C
102
}
330
C
100
AcDbDictionary
281
     1
  3
Model
350
22
  3
布局1
350
5A
  3
布局2
350
5F
  0
LAYOUT
  5
22
102
{ACAD_REACTORS
330
1A
102
}
330
1A
100
AcDbPlotSettings
  1

  2
none_device
  4
ANSI_A_(8.50_x_11.00_Inches)
  6

 40
6.349999904632568
 41
19.04999923706055
 42
6.350006103515625
 43
19.04998779296875
 44
215.8999938964844
 45
279.3999938964844
 46
0.0
 47
0.0
 48
0.0
 49
0.0
140
0.0
141
0.0
  6

142
1.0
143
57.07986212157697
 70
 11952
 72
     0
 73
     1
 74
     0
  7

 75
     0
147
0.01751931351673652
148
-2282.040442273535
149
2.561166666666503
100
AcDbLayout
  1
Model
 70
     1
 71
     0
 10
0.0
 20
0.0
 11
12.0
 21
9.0
 12
0.0
 22
0.0
 32
0.0
 14
0.0
 24
0.0
 34
0.0
 15
0.0
 25
0.0
 35
0.0
146
0.0
 13
0.0
 23
0.0
 33
0.0
 16
1.0
 26
0.0
 36
0.0
 17
0.0
 27
1.0
 37
0.0
 76
     0
330
1F
  0
LAYOUT
  5
5A
102
{ACAD_REACTORS
330
1A
102
}
330
1A
100
AcDbPlotSettings
  1

  2
none_device
  4
Letter_(8.50_x_11.00_Inches)
  6

 40
6.349999904632568
 41
6.349999904632568
 42
6.350006103515625
 43
6.350006103515625
 44
215.8999938964844
 45
279.3999938964844
 46
0.0
 47
0.0
 48
0.0
 49
0.0
140
0.0
141
0.0
  6

142
1.0
143
1.0
 70
   688
 72
     1
 73
     1
 74
     5
  7

 75
    16
147
1.0
148
0.0
149
0.0
100
AcDbLayout
  1
布局1
 70
     1
 71
     1
 10
-6.350006103515625
 20
-6.349999904632568
 11
273.0499877929688
 21
209.5499939918518
 12
0.0
 22
0.0
 32
0.0
 14
26.66999878883362
 24
20.31999878883363
 34
0.0
 15
240.0299890995026
 25
182.8799890995026
 35
0.0
146
0.0
 13
0.0
 23
0.0
 33
0.0
 16
1.0
 26
0.0
 36
0.0
 17
0.0
 27
1.0
 37
0.0
 76
     0
330
59
331
76
  0
LAYOUT
  5
5F
102
{ACAD_REACTORS
330
1A
102
}
330
1A
100
AcDbPlotSettings
  1

  2
none_device
  4
Letter_(8.50_x_11.00_Inches)
  6

 40
6.349999904632568
 41
6.349999904632568
 42
6.350006103515625
 43
6.350006103515625
 44
215.8999938964844
 45
279.3999938964844
 46
0.0
 47
0.0
 48
0.0
 49
0.0
140
0.0
141
0.0
  6

142
1.0
143
1.0
 70
   688
 72
     1
 73
     1
 74
     5
  7

 75
    16
147
1.0
148
0.0
149
0.0
100
AcDbLayout
  1
布局2
 70
     1
 71
     2
 10
-6.350006103515625
 20
-6.349999904632568
 11
273.0499877929688
 21
209.5499939918518
 12
0.0
 22
0.0
 32
0.0
 14
26.66999878883362
 24
20.31999878883363
 34
0.0
 15
240.0299890995026
 25
182.8799890995026
 35
0.0
146
0.0
 13
0.0
 23
0.0
 33
0.0
 16
1.0
 26
0.0
 36
0.0
 17
0.0
 27
1.0
 37
0.0
 76
     0
330
5E
331
25B
  0
DICTIONARY
  5
67
102
{ACAD_REACTORS
330
C
102
}
330
C
100
AcDbDictionary
281
     1
  3
DIMASSOC
350
68
  3
HIDETEXT
350
6C
  0
DICTIONARYVAR
  5
68
102
{ACAD_REACTORS
330
67
102
}
330
67
100
DictionaryVariables
280
     0
  1
2
  0
DICTIONARYVAR
  5
6C
102
{ACAD_REACTORS
330
67
102
}
330
67
100
DictionaryVariables
280
     0
  1
1
  0
DICTIONARY
  5
15C
330
14F
100
AcDbDictionary
280
     1
281
     1
  3
ACAD_DIMASSOC
360
166
  0
DICTIONARY
  5
174
330
167
100
AcDbDictionary
280
     1
281
     1
  3
ACAD_DIMASSOC
360
17E
  0
DICTIONARY
  5
18C
330
17F
100
AcDbDictionary
280
     1
281
     1
  3
ACAD_DIMASSOC
360
196
  0
DICTIONARY
  5
1A4
330
197
100
AcDbDictionary
280
     1
281
     1
  3
ACAD_DIMASSOC
360
1AE
  0
DICTIONARY
  5
1BC
330
1AF
100
AcDbDictionary
280
     1
281
     1
  3
ACAD_DIMASSOC
360
1C6
  0
DICTIONARY
  5
1D4
330
1C7
100
AcDbDictionary
280
     1
281
     1
  3
ACAD_DIMASSOC
360
1DE
  0
DICTIONARY
  5
1EC
330
1DF
100
AcDbDictionary
280
     1
281
     1
  3
ACAD_DIMASSOC
360
1F6
  0
DICTIONARY
  5
204
330
1F7
100
AcDbDictionary
280
     1
281
     1
  3
ACAD_DIMASSOC
360
20E
  0
DICTIONARY
  5
21C
330
20F
100
AcDbDictionary
280
     1
281
     1
  3
ACAD_DIMASSOC
360
226
  0
DICTIONARY
  5
234
330
227
100
AcDbDictionary
280
     1
281
     1
  3
ACAD_DIMASSOC
360
23E
  0
DICTIONARY
  5
24C
330
23F
100
AcDbDictionary
280
     1
281
     1
  3
ACAD_DIMASSOC
360
256
  0
ENDSEC
  0
SECTION
  2
THUMBNAILIMAGE
 90
    18627
310
BF4800000201030100005000000002530100005C480000000000000000000000000000000000000000000000000000000000000000000000000000000000000000000000000000000000000000000000000000000000000000000000000000000000000000000028000000B400000061000000010008000000000034440000
310
00000000000000000001000000000000FFFFFF00FFFFFF0000000000FFFFFF00FFFFFF00FFFFFF00FFFFFF00FFFFFF00FFFFFF00FFFFFF00FFFFFF00330000006600000099000000CC000000FF00000000330000333300006633000099330000CC330000FF33000000660000336600006666000099660000CC660000FF6600
310
0000990000339900006699000099990000CC990000FF99000000CC000033CC000066CC000099CC0000CCCC0000FFCC000000FF000033FF000066FF000099FF0000CCFF0000FFFF000000003300330033006600330099003300CC003300FF00330000333300333333006633330099333300CC333300FF333300006633003366
310
33006666330099663300CC663300FF66330000993300339933006699330099993300CC993300FF99330000CC330033CC330066CC330099CC3300CCCC3300FFCC330000FF330033FF330066FF330099FF3300CCFF3300FFFF330000006600330066006600660099006600CC006600FF00660000336600333366006633660099
310
336600CC336600FF33660000666600336666006666660099666600CC666600FF66660000996600339966006699660099996600CC996600FF99660000CC660033CC660066CC660099CC6600CCCC6600FFCC660000FF660033FF660066FF660099FF6600CCFF6600FFFF660000009900330099006600990099009900CC009900
310
FF00990000339900333399006633990099339900CC339900FF33990000669900336699006666990099669900CC669900FF66990000999900339999006699990099999900CC999900FF99990000CC990033CC990066CC990099CC9900CCCC9900FFCC990000FF990033FF990066FF990099FF9900CCFF9900FFFF99000000CC
310
003300CC006600CC009900CC00CC00CC00FF00CC000033CC003333CC006633CC009933CC00CC33CC00FF33CC000066CC003366CC006666CC009966CC00CC66CC00FF66CC000099CC003399CC006699CC009999CC00CC99CC00FF99CC0000CCCC0033CCCC0066CCCC0099CCCC00CCCCCC00FFCCCC0000FFCC0033FFCC0066FF
310
CC0099FFCC00CCFFCC00FFFFCC000000FF003300FF006600FF009900FF00CC00FF00FF00FF000033FF003333FF006633FF009933FF00CC33FF00FF33FF000066FF003366FF006666FF009966FF00CC66FF00FF66FF000099FF003399FF006699FF009999FF00CC99FF00FF99FF0000CCFF0033CCFF0066CCFF0099CCFF00CC
310
CCFF00FFCCFF0000FFFF0033FFFF0066FFFF0099FFFF00CCFFFF0000000000FFFFFF000D0D0D001A1A1A00282828003535350043434300505050005D5D5D006B6B6B00787878008686860093939300A1A1A100AEAEAE00BBBBBB00C9C9C900D6D6D600E4E4E400F1F1F10000000000FFFFFF00FFFFFF00FFFFFF00FFFFFF00
310
FFFFFF00FFFFFF00FFFFFF00FFFFFF00FFFFFF00FFFFFF0000000000000000000000000000000000000000000000000000000000000000000000000000000000000000000000000000000000000000000000000000000000000000000000000000000000000000000000000000000000000000000000000000000000000000
310
00000000000000000000000000000000000000000000000000000000000000000000000000000000000000000000000000000000000000000000000000000000000000000000000000000000000000000000000000000000000000000000000000000000000000000000000000000000000000000000000000000000000000
310
00000000000000000000000000000000000000000000000000000000000000000000000000000000000000000000000000000000000000000000000000000000000000000000000000000000000000000000000000000000000000000000000000000000000000000000000000000000000000000000000000000000000000
310
00000000000000000000000000000000000000000000000000000000000000000000000000000000000000000000000000000000000000000000000000000000000000000000000000000000000000000000000000000000000000000000000000000000000000000000000000000000000000000000000000000000000000
310
0000000000000000000000000000000000000000000000000000000000000000000000000000000000000000000000000000000000000000000000000000000000000000000000000000000000000000000000000000000000000000000000000000000000000000009E000000000000000000000000000000000000000000
310
000000000000000000000000000000000000000000000000000000000000000000000000000000000000000000000000000000000000000000000000000000000000009E0000000000000000000000000000000000000000000000000000000000000000000000000000000000000000000000000000000000000000000000
310
000000000000000000000000000000000000000000000000000000000000009E009E9E0000000000000000000000000000000000000000000000000000000000000000000000000000000000000000000000000000000000000000000000000000000000000000000000000000000000000000009E9E00009E000000000000
310
0000000000000000000000000000000000000000000000000000000000000000000000000000000000000000000000000000000000000000000000000000000000000000000000000000000000000000000000009E9E9E9E9E9E9E9E9E9E9E9E9E9E9E9E9E9E9E9E9E9E9E9E9E9E9E9E9E9E9E9E9E9E9E9E9E9E9E9E9E9E9E
310
9E9E9E9E9E9E9E9E9E9E9E9E9E9E9E9E9E9E9E9E9E9E9E9E9E9E9E9E9E9E9E9E9E9E9E9E9E9E9E9E9E9E9E9E9E9E9E0000000000000000000000000000000000000000000000000000000000000000000000000000000000000000000000000000000000000000000000000000000000000000000000000000000000000000
310
000000000000000000009E009E9E0000000000000000000000000000000000000000000000000000000000000000000000009E9E9E9E9E9E9E9E9E0000000000000000000000000000000000000000000000000000000000000000000000009E9E9E009E000000000000000000000000000000000000000000000000000000
310
0000000000000000000000000000000000000000000000000000000000000000000000000000000000000000000000000000000000000000000000000000009E000000000000000000000000000000000000000000000000000000000000000000000000000000009E009E009E9E009E000000000000000000000000000000
310
000000000000000000000000000000000000000000000000009E0000000000000000000000000000000000000000000000000000000000000000000000000000000000000000000000000000000000000000000000000000000000000000000000000000000000000000000000000000000000009E00000000000000000000
310
0000000000000000000000000000000000000000000000000000000000009E009E009E9E009E000000000000000000000000000000000000000000000000000000000000000000000000000000009E000000000000000000000000000000000000000000000000000000000000000000000000000000000000000000000000
310
0000000000000000000000000000000000000000000000000000000000000000000000000000000000009E0000000000000000000000000000000000000000000000000000000000000000000000000000009E9E009E009E9E009E000000000000000000000000000000000000000000000000000000000000000000000000
310
000000009E0000000000000000000000000000000000000000000000000000000000000000000000000000000000000000000000000000000000000000000000000000000000000000000000000000000000000000000000000000000000009E00000000000000000000000000000000000000000000000000000000000000
310
0000000000000000009E009E9E9E9E9E9E000000000000000000000000000000000000000000000000000000000000000000000000000000009E000000000000000000000000000000000000000000000000000000000000000000000000000000000000000000000000000000000000000000000000000000000000000000
310
0000000000000000000000000000000000000000009E000000009E00000000000000000000000000000000000000000000000000000000000000000000000000000000000000000000000000000000000000000000000000000000000000000000000000000000009E00000000009E00000000000000000000000000000000
310
00000000000000000000000000000000000000000000000000000000000000000000000000000000000000000000000000000000000000000000000000000000000000000000000000009E000000009E009E9E0000000000000000000000000000000000000000000000000000000000000000000000000000000000000000
310
0000000000000000000000000000000000000000000000000000009E9E009E00000000009E000000000000000000000000000000000000000000000000000000000000000000000000000000000000000000000000000000000000000000000000000000000000000000000000000000000000000000000000000000000000
310
9E000000009E9E9E9E9E9E9E9E9E9E9E9E9E9E9E9E9E9E9E9E9E9E9E9E9E9E9E9E9E9E9E9E9E9E9E9E9E9E9E9E9E9E9E9E9E9E9E9E9E9E9E9E9E9E9E9E9E9E9E9E9E9E9E9E9E9E9E9E9E9E9E9E9E9E9E9E9E9E9E00000000009E00000000000000000000000000000000000000000000000000000000000000000000000000
310
00000000000000000000000000000000000000000000000000000000000000000000000000000000000000000000000000000000009E000000009E0000000000000000000000000000000000000000000000000000000000000000000000009E9E9E9E9E9E0000000000000000000000000000000000000000000000000000
310
0000000000000000009E00000000009E0000000000000000000000000000000000000000000000000000000000000000000000000000000000000000000000000000000000000000000000000000000000000000000000000000000000000000000000000000000000009E000000009E000000000000000000000000000000
310
0000000000000000000000000000000000000000009E9E9E9E9E9E00000000000000000000000000000000000000000000000000000000000000000000009E00000000009E00000000000000000000000000000000000000000000000000000000000000000000000000000000000000000000000000000000000000000000
310
00000000000000000000000000000000000000000000000000000000000000009E000000009E0000000000000000000000000000000000000000000000000000000000000000000000009E9E9E9E9E9E00000000000000000000000000000000000000000000000000000000000000000000009E00000000009E0000000000
310
000000000000000000000000000000000000000000000000000000000000000000000000000000000000000000000000000000000000000000000000000000000000000000000000000000000000000000000000009E000000009E000000000000000000000000000000000000000000000000000000000000000000000000
310
9E9E9E9E9E9E00000000000000000000000000000000000000000000000000000000000000000000009E00000000009E00000000000000000000000000000000000000000000000000000000000000000000000000000000000000000000000000000000000000000000000000000000000000000000000000000000000000
310
00000000000000000000009E000000009E009E000000000000000000000000000000000000000000000000000000000000000000009E9E009E9E000000000000000000000000000000000000000000000000000000000000000000009E009E00000000009E0000000000000000000000000000000000000000000000000000
310
000000000000000000000000000000000000000000000000000000000000000000000000000000000000000000000000000000000000000000000000000000009E000000009E009E00000000000000000000000000000000000000000000000000000000000000000000000000000000000000000000000000000000000000
310
0000000000000000000000000000000000009E009E00000000009E0000000000000000000000000000000000000000000000000000000000000000000000000000000000000000000000000000000000000000000000000000000000000000000000000000000000000000000000000000000000009E000000009E009E009E
310
9E000000000000000000000000000000000000000000000000000000000000000000000000000000000000000000000000000000000000000000000000000000000000009E9E009E009E00000000009E0000000000000000000000000000000000000000000000000000000000000000000000000000000000000000000000
310
000000000000000000000000000000000000000000000000000000000000000000000000000000000000009E000000009E009E9E9E9E9E9E9E9E9E9E9E9E9E9E9E9E9E9E9E9E9E9E9E9E9E9E9E9E9E9E9E9E9E9E9E9E9E9E9E9E9E9E9E9E9E9E9E9E9E9E9E9E9E9E9E9E9E9E9E9E9E9E9E9E9E9E9E9E9E9E9E9E9E9E9E009E
310
00000000009E0000000000000000000000000000000000000000000000000000000000000000000000000000000000000000000000000000000000000000000000000000000000000000000000000000000000000000000000000000000000009E000000009E009E0000000000000000000000000000000000000000000000
310
00000000000000000000009E9E9E9E9E9E0000000000000000000000000000000000000000000000000000000000000000009E009E00000000009E0000000000000000000000000000000000000000000000000000000000000000000000000000000000000000000000000000000000000000000000000000000000000000
310
000000000000000000000000000000000000000000009E000000009E009E000000000000000000000000000000000000000000000000000000000000000000009E9E9E009E9E0000000000000000000000000000000000000000000000000000000000000000009E009E00000000009E000000000000000000000000000000
310
0000000000000000000000000000000000000000000000000000000000000000000000000000000000000000000000000000000000000000000000000000000000000000000000000000009E000000009E009E000000000000000000000000000000000000000000000000000000000000000000009E9E9E9E9E9E00000000
310
00000000000000000000000000000000000000000000000000000000009E009E00000000009E0000000000000000000000000000000000000000000000000000000000000000000000000000000000000000000000000000000000000000000000000000000000000000000000000000000000000000000000000000000000
310
009E000000009E009E000000000000000000000000000000000000000000000000000000000000000000009E9E9E9E9E9E0000000000000000000000000000000000000000000000000000000000000000009E009E00000000009E000000000000000000000000000000000000000000000000000000000000000000000000
310
0000000000000000000000000000000000000000000000000000000000000000000000000000000000000000000000000000000000009E000000009E009E00009E0000000000000000000000000000000000000000000000000000000000000000000000000000000000000000000000000000000000000000000000000000
310
00000000009E00009E009E00000000009E0000000000000000000000000000000000000000000000000000000000000000000000000000000000000000000000000000000000000000000000000000000000000000000000000000000000000000000000000000000000009E000000009E009E00009E009E9E000000000000
310
000000000000000000000000000000000000000000000000000000000000000000000000000000000000000000000000000000000000009E9E009E00009E009E00000000009E000000000000000000000000000000000000000000000000000000000000000000000000000000000000000000000000000000000000000000
310
0000000000000000000000000000000000000000000000000000000000000000009E000000009E009E00009E9E9E9E9E9E9E9E9E9E9E9E9E9E9E9E9E9E9E9E9E9E9E9E9E9E9E9E9E9E9E9E9E9E9E9E9E9E9E9E9E9E9E9E9E9E9E9E9E9E9E9E9E9E9E9E9E9E9E9E9E9E9E9E9E9E9E9E9E00009E009E00000000009E00000000
310
00000000000000000000000000000000000000000000000000000000000000000000000000000000000000000000000000000000000000000000000000000000000000000000000000000000000000000000000000009E000000009E009E00009E000000000000000000000000000000000000000000000000000000000000
310
009E9E009E9E000000000000000000000000000000000000000000000000000000000000009E00009E009E00000000009E000000000000000000000000000000000000000000000000000000000000000000000000000000000000000000000000000000000000000000000000000000000000000000000000000000000000
310
0000000000000000000000009E000000009E009E00009E00000000000000000000000000000000000000000000000000000000000000009E009E9E000000000000000000000000000000000000000000000000000000000000009E00009E009E00000000009E00000000000000000000000000000000000000000000000000
310
00000000000000000000000000000000000000000000000000000000000000000000000000000000000000000000000000000000000000000000000000000000009E000000009E009E00009E00000000000000000000000000000000000000000000000000000000000000009E00009E000000000000000000000000000000
310
000000000000000000000000000000009E00009E009E00000000009E0000000000000000000000000000000000000000000000000000000000000000000000000000000000000000000000000000000000000000000000000000000000000000000000000000000000000000000000000000000000009E000000009E009E00
310
009E000000000000000000000000000000000000000000000000000000000000009E9E9E9E9E9E0000000000000000000000000000000000000000000000000000000000009E00009E009E00000000009E00000000000000000000000000000000000000000000000000000000000000000000000000000000000000000000
310
00000000000000000000000000000000000000000000000000000000000000000000000000000000000000009E000000009E009E00009E000000000000000000000000000000000000000000000000000000000000009E9E9E9E9E9E0000000000000000000000000000000000000000000000000000000000009E00009E00
310
9E00000000009E0000000000000000000000000000000000000000000000000000000000000000000000000000000000000000000000000000000000000000000000000000000000000000000000000000000000000000000000000000000000009E000000009E009E00009E00000000000000000000000000000000000000
310
0000000000000000000000000000BE0000000000000000000000000000000000000000000000000000000000000000009E00009E009E00000000009E00000000000000000000000000000000000000000000000000000000000000000000000000000000000000000000000000000000000000000000000000000000000000
310
00000000000000000000000000000000000000000000009E000000009E009E00009E000000000000000000000000000000000000000000000000000000000000000000BE0000000000000000000000000000000000000000000000000000000000000000009E00009E009E00000000009E0000000000000000000000000000
310
000000000000000000000000000000000000000000000000000000000000000000000000000000000000000000000000000000000000000000000000000000000000000000000000000000009E000000009E009E00009E000000000000000000000000000000000000000000000000000000000000000000BE000000000000
310
0000000000000000000000000000000000000000000000000000009E00009E009E00000000009E00000000000000000000000000000000000000000000000000000000000000000000000000000000000000000000000000000000000000000000000000000000000000000000000000000000000000000000000000000000
310
00009E000000009E009E00009E00000000000000000000000000000000000000000000F5F5F5F5F5F5F5F5F5F5F5F5F5F5F5F5F5F5F5F5F5F5F5000000000000000000000000000000000000000000009E00009E009E00000000009E0000000000000000000000000000000000000000000000000000000000000000000000
310
000000000000000000000000000000000000000000000000000000000000000000000000009E9E9E9E9E9E9E9E9E9E9E9E9E9E9E9E9E9E9E9E9E9E9E9E9E9E9E9E9E9E9E9E9E9E9E9E9E9E9E9E9E9E9E9E9E9E9E9E9E9E9E9EF5F520F5F5F5F5F5F5F5F5F5F5F5F5F5F5F5F520F5F5F5000000000000000000000000000000
310
0000000000009E00009E009E00000000009E00000000000000000000000000000000000000000000000000000000000000000000000000000000000000000000000000000000000000000000000000000000000000000000000000009E0000000000000000000000000000009E000000009E009E00009E0000000000000000
310
00000000000000000000000000F5F520F5F520F5F5F5F5F5F5F5F5F5F5F5F5F520F5F520F5F50000000000000000000000000000000000000000009E00009E009E00000000009E0000000000000000000000000000000000000000000000000000000000000000000000000000000000000000000000000000000000000000
310
0000000000000000000000000000000000009E9E00000000000000000000000000009EF5F5F5F59EF59EF5F59EF5F5F5F5F5F5F5F5F5F5F5F5F5F5F5F5F5F5F5F5F5F5F5F520F520F50000000000BE0000000000F5F52000F520F5F5F5F5F5F5F5F5F5F5F5F5F5F5F5F5F5F5F5F5F5F59EF5F59EF59EF5F5F5F5F59EF50000
310
00000000000000000000000000000000000000000000000000000000000000000000000000000000000000000000000000000000000000000000000000000000000000000000009E9E00000000000000000000000000F59E20F520F59E209E20F59EF5F5F5F5F5F5F5F5F5F5F5F5F5F5F5F5F5F5F5F5F5F520F50020F5F500
310
00000000BE0000000000F520F520F5F5F5F5F5F5F5F5F5F5F5F5F5F5F5F5F5F5F5F5F5F5F5F59EF5F59EF59E20F520F5F59E9E9E9E9E9E9E9E9E9E9E9E9E9E9E9E9E9E9E9E9E9E9E9E9E9E9E0000000000000000000000000000000000000000000000000000000000000000000000000000000000000000000000009E0000
310
000000000000000000000000F5F5F520F5209EF59EF520F5F5F5F5F5F5F5F5F5F5F5F5F5F5F5F5F5F5F5F5F5F5F5F52000F520F50000000000BE0000000000F5F5200020F5F5F5F5F5F5F5F5F5F5F5F5F5F5F5F5F5F5F5F5F5F5F5F520F59E209EF520F520F5F5F5000000000000000000000000000000000000000000009E
310
00000000000000000000000000000000000000000000000000000000000000000000000000000000000000000000000000009E0000000000000000000000000000F5F5F5F520F59EF59E20F520F50000000000000000000000000000000000000000F520F520F5F5F50000000000BE0000000000F5F5F520F520F500000000
310
00000000000000000000000000000000F520F5209EF59EF5F5209E9E9E9E9E9E9E9E9E9E9E9E9E9E9E9E9E9E9E9E9E00000000009E9E000000000000000000000000000000000000000000000000000000000000000000000000000000000000000000000000009E000000000000000000000000000000F5F5F5F5F59E209E
310
0020F5F50000000000000000000000000000000000000000F5F5200020F5F50000000000BE0000000000F520F50020F5F50000000000000000000000000000000000000000F5F520009EF59E20F5F5F5F5F500000000000000000000000000009E00000000000000009E9E0000000000000000000000000000000000000000
310
00000000000000000000000000000000000000000000000000000000009E00000000000000000000000000000000000000F59EF59E00F520F5F5F5F5F5F5F5F5F5F5F5F5F5F5F5F5F5F5F5F5F5F520F520F520F50000000000BE0000000000F5F52000F520F5F5F5F5F5F5F5F5F5F5F5F5F5F5F5F5F5F5F5F5F5F520F5209E
310
209EF5000000000000000000000000000000000000009E9E000000000000009E00000000000000000000000000000000000000000000000000000000000000000000000000000000000000000000000000009E00000000000000000000000000000000000000F59EF59E20F520F5F520F520F5F520F5F520F520F5F520F520
310
F5F520F5F5200020F5F50000000000BE0000000000F520F520F5F520F520F5F520F520F5F520F520F5F520F520F5F520F5F520F59EF59E9E9E9E9E9E9E9E9E9E9E9E9E9E9E9E9E000000009E9E000000000000009E000000000000000000000000000000000000000000000000000000000000000000000000000000000000
310
00000000000000009E0000000000000000000000000000000000000000F5F5F5F520F520F5F520F520F5F520F5F520F520F5F520F520F5F520F50020F520F50000000000BE0000000000F5F5200020F5F520F520F5F520F520F5F520F520F5F520F520F5F520F50020F5F5F50000000000000000000000009E000000000000
310
009E0000009E9E009E9E9E00000000000000000000000000000000000000000000000000000000000000000000000000000000000000000000000000009E000000000000000000000000000000000000000000F520F5002000200000200020000020000020002000002000200000200020F5F5F50000000000BE0000000000
310
F5F5F5200020000020002000002000200000200020000020002000002000F520F5000000000000000000000000009E9E009E9E9E9E9E9E0000009E9E009E9E9E00000000000000000000000000000000000000000000000000000000000000000000000000000000000000000000000000009E000000000000000000000000
310
000000000000000000F5F52000002000200000200020000020000020002000002000200000200020F5F50000000000BE0000000000F520F5002000200000200020000020002000002000200000200020000020F5F5F500000000000000009E9E9E9E9E9E9E0000000000009E0000009E9E9E9E9E9E00000000000000000000
310
000000000000000000000000000000000000000000000000000000000000000000000000000000009E000000000000009E9E9E9E9E9E9E9E9E9E9E9E9E9E9E9E9E9E9E9E9E9E9E9E9E9E9E9E9E9E9E9E9E9E9E9E9E9E9E9E9E9E9E9E9E9E9E9E9E9E9E9E9EBEBEBEBEBEF5F520BEBE20BE20BEBE20BE20BEBE20BE20BEBE20
310
BE20BEBE20BE20BEBE20F5F5BEBEBEBEBEBE00009E9E009E9E9E00009E9E9E9E9E9E000000009E9E9E9E9E000000000000000000000000000000000000000000000000000000000000000000000000000000000000000000009E9E009E9E000000000000000000009E00000000000000000000F5F520002000002000200000
310
20002000002000002000200000200020000020F5F50000000000BE0000000000F520F5200000200020000020002000002000200000200020000020002000F520F50000000000000000009E9E9E9E9E9E009E9E9E009E9E0000009E9E9E9E9E9E00000000000000000000000000000000000000000000000000000000000000
310
00000000000000000000000000009E9E9E009E9E0000000000000000009E9E00000000000000000000F5F5F5200020000020002000002000200000200000200020000020002000F520F50000000000BE0000000000F5F52000200000200020000020002000002000200000200020000020002020F5F5000000000000000000
310
000000009E9E009E9E9E9E9E9E0000009E9E9E9E9E9E0000000000000000000000000000000000000000000000000000000000000000000000000000000000000000009E9E9E9E9E9E0000000000000000009E9E000000000000000000F5F520F50020F520F5F520F520F5F520F520F5F520F5F520F520F5F5200020F5F5F5
310
0000000000BE0000000000F5F5F5200020F5F520F520F5F520F520F5F520F520F5F520F520F5F52000F520F5F50000000000000000000000009E000000000000009E9E000000000000009E00000000000000000000000000000000000000000000000000000000000000000000000000000000000000000000009E009E9E00
310
0000000000000000009E0000000000000000F5F520F52020F520F520F5F520F520F5F520F520F5F520F5F520F520F5F5200020F5F50000000000BE0000000000F520F50020F520F5F520F520F5F520F520F5F520F520F5F520F520F5F520F520F59E9E9E9E9E9E9E9E9E9E9E9E9E9E9E9E9E000000009E9E00000000000000
310
9E0000000000000000000000000000000000000000000000000000000000000000000000000000000000000000009E9E9E009E9E000000000000000000009E0000000000F5F5F5F520F52000F520F5F5F5F5F5F5F5F5F5F5F5F5F5F5F5F5F5F5F5F5F5F5F5F520F520F50000000000BE0000000000F5F52000F520F5F5F5F5
310
F5F5F5F5F5F5F5F5F5F5F5F5F5F5F5F5F5F5F5F520F520F5F5F5F5F5F50000000000000000000000000000009E00000000000000009E0000000000000000000000000000000000000000000000000000000000000000000000000000000000000000009E9E9E9E9E9E000000000000000000009E000000F5F520F5F520F520
310
0020F5F5F50000000000000000000000000000000000000000F520F50020F5F50000000000BE0000000000F520F520F5F5F50000000000000000000000000000000000000000F520F50020F520F5F5F59E9E9E9E9E9E9E9E9E9E9E9E9E9E9E9E9E9E9E9E9E00000000009E9E00000000000000000000000000000000000000
310
0000000000000000000000000000000000000000000000000000000000009E00000000009E9E9E9E9E9E000000F5F5F520F5F520F5200020F5F50000000000000000000000000000000000000000F5F52000F520F50000000000BE0000000000F5F5200020F5F50000000000000000000000000000000000000000F5F52000
310
0020F520F5F5F520F5F5000000000000000000000000000000000000000000009E9E000000000000000000000000000000000000000000000000000000000000000000000000000000000000000000000000009E00000000009E009E009E9E000000F520F520F5F520F520F5F520F5F5F5F5F5F5F5F5F5F5F5F5F5F5F5F5F5
310
F5F5F5F5F520F520F5F5F50000000000BE0000000000F5F5F520F520F5F5F5F5F5F5F5F5F5F5F5F5F5F5F5F5F5F5F5F5F5F520F520F5F520F520F5F520F5F5000000000000000000000000000000000000000000009E0000000000000000000000000000000000000000000000000000000000000000000000000000000000
310
0000000000000000009E00000000009E9E009E9E9E000000F5F520F520F5F520F520F5F5F5F5F5F5F5F5F5F5F5F5F5F5F5F5F5F5F5F5F5F5F5F5F5200020F5F50000000000BE0000000000F520F50020F5F5F5F5F5F5F5F5F5F5F5F5F5F5F5F5F5F5F5F5F5F5F5F520F520F5F520F520F5F59E9E9E9E9E9E9E9E9E9E9E9E9E
310
9E9E9E9E9E9E9E9E9E9E9E9E9E9E0000000000000000000000000000000000000000000000000000000000000000000000000000000000000000000000009E00000000009E9E9E9E9E9E00000000F5F5F5F5F5F5F5F5F5F5F5F5F5F5F5F5F5F5F5F5F5F5F5F5F5F5F5F5F5F5F5F5F5F5F520F520F50000000000BE00000000
310
00F5F52000F520F5F5F5F5F5F5F5F5F5F5F5F5F5F5F5F5F5F5F5F5F5F5F5F5F5F5F5F5F5F5F5F5F5F500000000000000000000000000000000000000000000000000000000000000000000000000000000000000000000000000000000000000000000000000000000000000000000000000009E00000000009E009E009E9E
310
000000000000000000000000000000000000000000000000000000000000000000000000F520F50020F5F50000000000BE0000000000F520F520F5F5F5000000000000000000000000000000000000000000000000000000000000000000000000000000000000000000000000000000000000000000000000000000000000
310
00000000000000000000000000000000000000000000000000000000000000000000000000000000009E00000000009E9E009E9E9E000000000000000000000000000000000000000000000000000000000000000000000000F5F52000F520F50000000000BE0000000000F5F5200020F5F500000000000000000000000000
310
000000000000000000000000000000000000000000000000000000000000000000000000000000000000000000000000000000000000000000000000000000000000000000000000000000000000000000000000000000000000000000009E000000000000000000009E000000000000000000000000000000000000000000
310
000000000000000000000000000000F520F520F5F5F50000000000BE0000000000F5F5F520F520F5000000000000000000000000000000000000000000000000000000000000000000000000000000000000000000000000000000000000000000000000000000000000000000000000000000000000000000000000000000
310
00000000000000000000000000000000000000009E000000000000000000009E000000000000000000000000000000000000000000000000000000000000000000000000F5F5200020F5F50000000000BE0000000000F520F50020F5F500000000000000000000000000000000000000000000000000000000000000000000
310
000000000000000000000000000000000000000000000000000000000000000000000000000000000000000000000000000000000000000000000000000000000000000000000000009E000000000000000000009E000000000000000000000000000000000000000000000000000000000000000000000000F5F5F520F520
310
F50000000000BE0000000000F5F52000F520F500000000000000000000000000000000000000000000000000000000000000000000000000000000000000000000000000000000000000000000000000000000000000000000000000000000000000000000000000000000000000000000000000000000000000000000009E
310
9E00000000000000009E9E000000000000000000000000000000000000000000000000000000000000000000000000F520F50020F5F50000000000BE0000000000F520F520F5F5F500000000000000000000000000000000000000000000000000000000000000000000000000000000000000000000000000000000000000
310
000000000000000000000000000000000000000000000000000000000000000000000000000000000000000000000000000000009E9E00000000000000009E9E000000000000000000000000000000000000000000000000000000000000000000000000F5F52000F520F50000000000BE0000000000F5F5200020F5F50000
310
0000000000000000000000000000000000000000000000000000000000000000000000000000000000000000000000000000000000000000000000000000000000000000000000000000000000000000000000000000000000000000000000000000000000000000009E000000000000000000009E00000000000000000000
310
0000000000000000000000000000000000000000000000000000F520F52020F5F5F5F5F5F5F5F5F5F5F5F5F5F5F5F520F520F500000000000000000000000000000000000000000000000000000000000000000000000000000000000000000000000000000000000000000000000000000000000000000000000000000000
310
00000000000000000000000000000000000000000000000000000000009E9E9E9E9E9E9E9E9E9E9E9E9E9E9E9E9E9E9E9E9E9E9E9E9E9E9E9E9E9E9E9E9E9E9E9E9E9E9E9E9E9E9E9E9E9E9E9E9E9E9E9E20F5F59EF5F5F5F5F5F5F5F5F5F5F5F5F59E20F5209EF50000000000000000000000000000000000000000000000
310
00000000000000000000000000000000000000000000000000000000000000000000000000000000000000000000000000000000000000000000000000000000000000000000000000000000000000000000000000000000000000000000000000000000000000000000000000000000000000000000000000000000000000
310
0000000000009EF5F5F59EF5F5F5F5F5F5F5F5F5F5F5F5F59EF5F5F59E0000000000000000000000000000000000000000000000000000000000000000000000000000000000000000000000000000000000000000000000000000000000000000000000000000000000000000000000000000000000000000000000000000
310
00000000000000000000000000000000000000000000000000000000000000000000000000000000000000000000000000000000000000000000009E0000009E000000000000BE0000000000009E0000009E000000000000000000000000000000000000000000000000000000000000000000000000000000000000000000
310
000000000000000000000000000000000000000000000000000000000000000000000000000000000000000000000000000000000000000000000000000000000000000000000000000000000000000000000000000000000000000000000000000000000000000000000000000000009E0000009E000000000000BE000000
310
0000009E0000009E0000000000000000000000000000000000000000000000000000000000000000000000000000000000000000000000000000000000000000000000000000000000000000000000000000000000000000000000000000000000000000000000000000000000000000000000000000000000000000000000
310
00000000000000000000000000000000000000000000000000000000000000000000000000009E0000009E000000000000BE0000000000009E0000009E000000000000000000000000000000000000000000000000000000000000000000000000000000000000000000000000000000000000000000000000000000000000
310
000000000000000000000000000000000000000000000000000000000000000000000000000000000000000000000000000000000000000000000000000000000000000000000000000000000000000000000000000000000000009E0000009E000000000000000000000000009E0000009E00000000000000000000000000
310
00000000000000000000000000000000000000000000000000000000000000000000000000000000000000000000000000000000000000000000000000000000000000000000000000000000000000000000000000000000000000000000000000000000000000000000000000000000000000000000000000000000000000
310
00000000000000000000000000000000009E0000009E000000000000000000000000009E0000009E000000000000000000000000000000000000000000000000000000000000000000000000000000000000000000000000000000000000000000000000000000000000000000000000000000000000000000000000000000
310
000000000000000000000000000000000000000000000000000000000000000000000000000000000000000000000000000000000000000000000000000000000000000000009E0000009E9E9E9E9E9E9E9E9E9E9E9E9E9E9E0000009E00000000000000000000000000000000000000000000000000000000000000000000
310
0000000000000000000000000000000000000000000000000000000000000000000000000000000000000000000000000000000000000000000000000000000000000000000000000000000000000000000000000000000000000000000000000000000000000000000000000000000000000000000000000000009E000000
310
9E009E9E009E9E009E9E009E9E009E0000009E000000000000000000000000000000000000000000000000000000000000000000000000000000000000000000000000000000000000000000000000000000000000000000000000000000000000000000000000000000000000000000000000000000000000000000000000
310
000000000000000000000000000000000000000000000000000000000000000000000000000000000000000000000000009E0000009E000000009E9E9E9E9E9E0000009E0000009E00000000000000000000000000000000000000000000000000000000000000000000000000000000000000000000000000000000000000
310
0000000000000000000000000000000000000000000000000000000000000000000000000000000000000000000000000000000000000000000000000000000000000000000000000000000000000000000000000000000000000000000000000000000000009E00000000000000009E9E9E9E9E00000000000000009E0000
310
00000000000000000000000000000000000000000000000000000000000000000000000000000000000000000000000000000000000000000000000000000000000000000000000000000000000000000000000000000000000000000000000000000000000000000000000000000000000000000000000000000000000000
310
000000000000000000000000000000000000000000000000000000009E00000000000000009E9E009E9E00000000000000009E00000000000000000000000000000000000000000000000000000000000000000000000000000000000000000000000000000000000000000000000000000000000000000000000000000000
310
0000000000000000000000000000000000000000000000000000000000000000000000000000000000000000000000000000000000000000000000000000000000000000000000000000000000000000009E00000000000000009E9E009E9E00000000000000009E0000000000000000000000000000000000000000000000
310
00000000000000000000000000000000000000000000000000000000000000000000000000000000000000000000000000000000000000000000000000000000000000000000000000000000000000000000000000000000000000000000000000000000000000000000000000000000000000000000000000000000000000
310
000000000000009E0000000000000000000000000000000000000000009E00000000000000000000000000000000000000000000000000000000000000000000000000000000000000000000000000000000000000000000000000000000000000000000000000000000000000000000000000000000000000000000000000
310
0000000000000000000000000000000000000000000000000000000000000000000000000000000000000000000000000000000000000000000000009E9E9E9E9E9E9E9E9E9E9E9E9E9E9E9E9E9E9E9E9E9E9E0000000000000000000000000000000000000000000000000000000000000000000000000000000000000000
310
00000000000000000000000000000000000000000000000000000000000000000000000000000000000000000000000000000000000000000000000000000000000000000000000000000000000000000000000000000000000000000000000000000000000000000000000000000000009E009E9E00000000009E9E9E9E9E
310
9E000000009E9E009E00000000000000000000000000000000000000000000000000000000000000000000000000000000000000000000000000000000000000000000000000000000000000000000000000000000000000000000000000000000000000000000000000000000000000000000000000000000000000000000
310
0000000000000000000000000000000000000000000000000000000000000000000000000000009E00000000000000009E009E9E9E9E000000000000009E0000000000000000000000000000000000000000000000000000000000000000000000000000000000000000000000000000000000000000000000000000000000
310
00000000000000000000000000000000000000000000000000000000000000000000000000000000000000000000000000000000000000000000000000000000000000000000000000000000000000000000000000000000000000000000000000000000009E9E9E9E9E9E0000000000000000000000000000000000000000
310
00000000000000000000000000000000000000000000000000000000000000000000000000000000000000000000000000000000000000000000000000000000000000000000000000000000000000000000000000000000000000000000000000000000000000000000000000000000000000000000000000000000000000
310
0000000000000000000000000000000000000000000000000000009E9E9E9E9E0000000000000000000000000000000000000000000000000000000000000000000000000000000000000000000000000000000000000000000000000000000000000000000000000000000000000000000000000000000000000000000000
310
00000000000000000000000000000000000000000000000000000000000000000000000000000000000000000000000000000000000000000000000000000000000000000000000000000000000000009E9E9E9E9E000000000000000000000000000000000000000000000000000000000000000000000000000000000000
310
00000000000000000000000000000000000000000000000000000000000000000000000000000000000000000000000000000000000000000000000000000000000000000000000000000000000000000000000000000000000000000000000000000000000000000000000000000000000000000000000000000000000000
310
00000000000000000000000000000000000000000000000000000000000000000000000000000000000000000000000000000000000000000000000000000000000000000000000000000000000000000000000000000000000000000000000000000000000000000000000000000000000000000000000000000000000000
310
00000000000000000000000000000000000000000000000000000000000000000000000000000000000000000000000000000000000000000000000000000000000000000000000000000000000000000000000000000000000000000000000000000000000000000000000000000000000000000000000000000000000000
310
00000000000000000000000000000000000000000000000000000000000000000000000000000000000000000000000000000000000000000000000000000000000000000000000000000000000000000000000000000000000000000000000000000000000000000000000000000000000000000000000000000000000000
310
00000000000000000000000000000000000000000000000000000000000000000000000000000000000000000000000000000000000000000000000000000000000000000000000000000000000000000000000000000000000000000000000000000000000000000000000000000000000000000000000000000000000000
310
00000000000000000000000000000000000000000000000000000000000000000000000000000000000000000000000000000000000000000000000000000000000000000000000000000000000000000000000000000000000000000000000000000000000000000000000000000000000000000000000000000000000000
310
00000000000000000000000000000000000000000000000000000000000000000000000000000000000000000000000000000000000000000000000000000000000000000000000000000000000000000000000000000000000000000000000000000000000000000000000000000000000000000000000000000000000000
310
00000000000000000000000000000000000000000000000000000000000000000000000000000000000000000000000000000000000000000000000000000000000000000000000000000000000000000000000000000000000000000000000000000000000000000000000000000000000000000000000000000000000000
310
00000000000000000000000000000000000000000000000000000000000000000000000000000000000000000000000000000000000000000000000000000000000000000000000000000000000000000000000000000000000000000000000000000000000000000000000000000000000000000000000000000000000000
310
00000000000000000000000000000000000000000000000000000000000000000000000000000000000000000000000000000000000000000000000000000000000000000000000000000000000000000000000000000000000000000000000000000000000000000000000000000000000000000000000000000000000000
310
00000000000000000000000000000000000000000000000000000000000000000000000000000000000000000000000000000000000000000000000000000000000000000000000000000000000000000000000000000000000000000000000000000000000000000000000000000000000000000000000000000000000000
310
00000000000000000000000000000000000000000000000000000000000000000000000000000000000000000000000000000000000000000000000000000000000000000000000000000000000000000000000000
  0
ENDSEC
  0
EOF
