999
LibreDWG 
  0
SECTION
  2
HEADER
  9
$ACADVER
  1
AC1015
  9
$ACADMAINTVER
 70
    13
  9
$DWGCODEPAGE
  3
ANSI_936
  9
$INSBASE
 10
0.0
 20
0.0
 30
0.0
  9
$EXTMIN
 10
3.401449142308465
 20
14.41096403463159
 30
0.0
  9
$EXTMAX
 10
179.9744732852537
 20
138.8771687770404
 30
0.0
  9
$LIMMIN
 10
0.0
 20
0.0
  9
$LIMMAX
 10
200.0
 20
150.0
  9
$ORTHOMODE
 70
     0
  9
$REGENMODE
 70
     1
  9
$FILLMODE
 70
     1
  9
$QTEXTMODE
 70
     0
  9
$MIRRTEXT
 70
     1
  9
$LTSCALE
 40
1.0
  9
$ATTMODE
 70
     1
  9
$TEXTSIZE
 40
2.5
  9
$TRACEWID
 40
1.0
  9
$TEXTSTYLE
  7
数字与字母
  9
$CLAYER
  8
文本层
  9
$CELTYPE
  6
ByLayer
  9
$CECOLOR
 62
   256
  9
$CELTSCALE
 40
1.0
  9
$DISPSILH
 70
     0
  9
$DIMSCALE
 40
1.0
  9
$DIMASZ
 40
3.5
  9
$DIMEXO
 40
0.0
  9
$DIMDLI
 40
7.5
  9
$DIMRND
 40
0.0
  9
$DIMDLE
 40
0.0
  9
$DIMEXE
 40
2.5
  9
$DIMTP
 40
0.0
  9
$DIMTM
 40
0.0
  9
$DIMTXT
 40
5.0
  9
$DIMCEN
 40
2.5
  9
$DIMTSZ
 40
0.0
  9
$DIMTOL
 70
     0
  9
$DIMLIM
 70
     0
  9
$DIMTIH
 70
     0
  9
$DIMTOH
 70
     1
  9
$DIMSE1
 70
     0
  9
$DIMSE2
 70
     0
  9
$DIMTAD
 70
     1
  9
$DIMZIN
 70
     8
  9
$DIMBLK
  1

  9
$DIMASO
 70
     1
  9
$DIMSHO
 70
     1
  9
$DIMPOST
  1

  9
$DIMAPOST
  1

  9
$DIMALT
 70
     0
  9
$DIMALTD
 70
     3
  9
$DIMALTF
 40
0.03937007874016
  9
$DIMLFAC
 40
1.0
  9
$DIMTOFL
 70
     1
  9
$DIMTVP
 40
0.0
  9
$DIMTIX
 70
     0
  9
$DIMSOXD
 70
     0
  9
$DIMSAH
 70
     0
  9
$DIMBLK1
  1

  9
$DIMBLK2
  1

  9
$DIMSTYLE
  2
机械标注
  9
$DIMCLRD
 70
     0
  9
$DIMCLRE
 70
     0
  9
$DIMCLRT
 70
     0
  9
$DIMTFAC
 40
1.0
  9
$DIMGAP
 40
0.625
  9
$DIMJUST
 70
     0
  9
$DIMSD1
 70
     0
  9
$DIMSD2
 70
     0
  9
$DIMTOLJ
 70
     0
  9
$DIMTZIN
 70
     8
  9
$DIMALTZ
 70
     0
  9
$DIMALTTZ
 70
     0
  9
$DIMUPT
 70
     0
  9
$DIMDEC
 70
     1
  9
$DIMTDEC
 70
     1
  9
$DIMALTU
 70
     2
  9
$DIMALTTD
 70
     3
  9
$DIMTXSTY
  7
数字与字母
  9
$DIMAUNIT
 70
     0
  9
$DIMADEC
 70
     0
  9
$DIMALTRND
 40
0.0
  9
$DIMAZIN
 70
     0
  9
$DIMDSEP
 70
    46
  9
$DIMATFIT
 70
     3
  9
$DIMFRAC
 70
     0
  9
$DIMLDRBLK
  1

  9
$DIMLUNIT
 70
     2
  9
$DIMLWD
 70
    -2
  9
$DIMLWE
 70
    -2
  9
$DIMTMOVE
 70
     0
  9
$LUNITS
 70
     2
  9
$LUPREC
 70
     1
  9
$AXISMODE
 70
     0
  9
$AXISUNIT
 10
0.0
 20
0.0
  9
$SKETCHINC
 40
1.0
  9
$FILLETRAD
 40
0.0
  9
$AUNITS
 70
     0
  9
$AUPREC
 70
     1
  9
$MENU
  1
.
  9
$ELEVATION
 40
0.0
  9
$PELEVATION
 40
0.0
  9
$THICKNESS
 40
0.0
  9
$LIMCHECK
 70
     0
  9
$CHAMFERA
 40
10.0
  9
$CHAMFERB
 40
10.0
  9
$CHAMFERC
 40
20.0
  9
$CHAMFERD
 40
0.0
  9
$SKPOLY
 70
     0
  9
$TDCREATE
 40
2451911.603956590
  9
$TDUCREATE
 40
2451911.315956590
  9
$TDUPDATE
 40
2453619.292260880
  9
$TDUUPDATE
 40
2453619.004260880
  9
$TDINDWG
 40
0.049664610
  9
$TDUSRTIMER
 40
0.049664610
  9
$USRTIMER
 70
     1
  9
$ANGBASE
 50
0.0
  9
$ANGDIR
 70
     0
  9
$PDMODE
 70
     0
  9
$PDSIZE
 40
0.0
  9
$PLINEWID
 40
0.0
  9
$SPLFRAME
 70
     0
  9
$SPLINETYPE
 70
     6
  9
$SPLINESEGS
 70
     8
  9
$HANDSEED
  5
298
  9
$SURFTAB1
 70
     6
  9
$SURFTAB2
 70
     6
  9
$SURFTYPE
 70
     6
  9
$SURFU
 70
     6
  9
$SURFV
 70
     6
  9
$UCSBASE
  2

  9
$UCSNAME
  2

  9
$UCSORG
 10
0.0
 20
0.0
 30
0.0
  9
$UCSXDIR
 10
1.0
 20
0.0
 30
0.0
  9
$UCSYDIR
 10
0.0
 20
1.0
 30
0.0
  9
$UCSORTHOREF
  2

  9
$UCSORTHOVIEW
 70
     0
  9
$UCSORGTOP
 10
0.0
 20
0.0
 30
0.0
  9
$UCSORGBOTTOM
 10
0.0
 20
0.0
 30
0.0
  9
$UCSORGLEFT
 10
0.0
 20
0.0
 30
0.0
  9
$UCSORGRIGHT
 10
0.0
 20
0.0
 30
0.0
  9
$UCSORGFRONT
 10
0.0
 20
0.0
 30
0.0
  9
$UCSORGBACK
 10
0.0
 20
0.0
 30
0.0
  9
$PUCSBASE
  2

  9
$PUCSNAME
  2

  9
$PUCSORG
 10
0.0
 20
0.0
 30
0.0
  9
$PUCSXDIR
 10
1.0
 20
0.0
 30
0.0
  9
$PUCSYDIR
 10
0.0
 20
1.0
 30
0.0
  9
$PUCSORTHOREF
  2

  9
$PUCSORTHOVIEW
 70
     0
  9
$PUCSORGTOP
 10
0.0
 20
0.0
 30
0.0
  9
$PUCSORGBOTTOM
 10
0.0
 20
0.0
 30
0.0
  9
$PUCSORGLEFT
 10
0.0
 20
0.0
 30
0.0
  9
$PUCSORGRIGHT
 10
0.0
 20
0.0
 30
0.0
  9
$PUCSORGFRONT
 10
0.0
 20
0.0
 30
0.0
  9
$PUCSORGBACK
 10
0.0
 20
0.0
 30
0.0
  9
$USERI1
 70
     0
  9
$USERI2
 70
     0
  9
$USERI3
 70
     0
  9
$USERI4
 70
     0
  9
$USERI5
 70
     0
  9
$USERR1
 40
0.0
  9
$USERR2
 40
0.0
  9
$USERR3
 40
0.0
  9
$USERR4
 40
0.0
  9
$USERR5
 40
0.0
  9
$WORLDVIEW
 70
     1
  9
$SHADEDGE
 70
     3
  9
$SHADEDIF
 70
    70
  9
$TILEMODE
 70
     1
  9
$MAXACTVP
 70
    64
  9
$PINSBASE
 10
0.0
 20
0.0
 30
0.0
  9
$PLIMCHECK
 70
     0
  9
$PEXTMIN
 10
26.66999878883362
 20
20.31999878883363
 30
0.0
  9
$PEXTMAX
 10
240.0299890995026
 20
182.8799890995026
 30
0.0
  9
$PLIMMIN
 10
-6.350006103515625
 20
-6.349999904632568
  9
$PLIMMAX
 10
273.0499877929688
 20
209.5499939918518
  9
$UNITMODE
 70
     0
  9
$VISRETAIN
 70
     1
  9
$PLINEGEN
 70
     0
  9
$PSLTSCALE
 70
     1
  9
$TREEDEPTH
 70
  3020
  9
$CMLSTYLE
  2
Standard
  9
$CMLJUST
 70
     0
  9
$CMLSCALE
 40
20.0
  9
$PROXYGRAPHICS
 70
     1
  9
$MEASUREMENT
 70
     1
  9
$CELWEIGHT
370
    -1
  9
$ENDCAPS
280
     0
  9
$JOINSTYLE
280
     0
  9
$LWDISPLAY
290
     1
  9
$INSUNITS
 70
     4
  9
$HYPERLINKBASE
  1

  9
$STYLESHEET
  1

  9
$XEDIT
290
     1
  9
$CEPSNTYPE
380
     0
  9
$PSTYLEMODE
290
     0
  9
$FINGERPRINTGUID
  2
{35BD88C3-9548-11D2-9A29-0060089B3A3F}
  9
$VERSIONGUID
  2
{E611C984-3802-43A1-B88F-CA8474BEE1E1}
  9
$EXTNAMES
290
     1
  9
$PSVPSCALE
 40
0.0
  9
$OLESTARTUP
290
     0
  0
ENDSEC
  0
SECTION
  2
CLASSES
  0
CLASS
  1
ACDBDICTIONARYWDFLT
  2
AcDbDictionaryWithDefault
  3
AutoCAD 2000
 90
        0
280
     0
281
     0
  0
CLASS
  1
ACDBPLACEHOLDER
  2
AcDbPlaceHolder
  3
AutoCAD 2000
 90
        0
280
     0
281
     0
  0
CLASS
  1
LAYOUT
  2
AcDbLayout
  3
AutoCAD 2000
 90
        0
280
     0
281
     0
  0
CLASS
  1
DICTIONARYVAR
  2
AcDbDictionaryVar
  3
AutoCAD 2000
 90
        0
280
     0
281
     0
  0
CLASS
  1
DIMASSOC
  2
AcDbDimAssoc
  3
"AcDbDimAssoc|Product Desc:     AcDim ARX App For Dimension|Company:          Autodesk, Inc.|WEB Address:      www.autodesk.com"
 90
        0
280
     0
281
     0
  0
ENDSEC
  0
SECTION
  2
TABLES
  0
TABLE
  2
VPORT
  5
8
330
0
100
AcDbSymbolTable
 70
     1
  0
VPORT
  5
297
330
8
100
AcDbSymbolTableRecord
100
AcDbViewportTableRecord
  2
*Active
 70
     0
 10
0.0
 20
0.0
 11
1.0
 21
1.0
 12
95.21860345841321
 22
76.66197967423167
 13
0.0
 23
0.0
 14
10.0
 24
10.0
 15
10.0
 25
10.0
 16
0.0
 26
0.0
 36
1.0
 17
0.0
 27
0.0
 37
0.0
 40
166.3334196414777
 41
1.841563786008231
 42
50.0
 43
0.0
 44
0.0
 50
0.0
 51
0.0
 71
     0
 72
   100
 73
     1
 74
     3
 75
     0
 76
     0
 77
     0
 78
     0
281
     0
 65
     1
110
0.0
120
0.0
130
0.0
111
1.0
121
0.0
131
0.0
112
0.0
122
1.0
132
0.0
 79
     0
146
0.0
  0
ENDTAB
  0
TABLE
  2
LTYPE
  5
5
330
0
100
AcDbSymbolTable
 70
     4
  0
LTYPE
  5
14
330
5
100
AcDbSymbolTableRecord
100
AcDbLinetypeTableRecord
  2
ByBlock
 70
     0
  3

 72
    65
 73
     0
 40
0.0
  0
LTYPE
  5
15
330
5
100
AcDbSymbolTableRecord
100
AcDbLinetypeTableRecord
  2
ByLayer
 70
     0
  3

 72
    65
 73
     0
 40
0.0
  0
LTYPE
  5
16
330
5
100
AcDbSymbolTableRecord
100
AcDbLinetypeTableRecord
  2
Continuous
 70
     0
  3
Solid line
 72
    65
 73
     0
 40
0.0
  0
LTYPE
  5
91
330
5
100
AcDbSymbolTableRecord
100
AcDbLinetypeTableRecord
  2
ACAD_ISO08W100
 70
     0
  3
ISO long-dash short-dash ____ __ ____ __ ____ _
 72
    65
 73
     4
 40
36.0
 49
24.0
 74
     0
 49
-3.0
 74
     0
 49
6.0
 74
     0
 49
-3.0
 74
     0
  0
LTYPE
  5
92
330
5
100
AcDbSymbolTableRecord
100
AcDbLinetypeTableRecord
  2
ACAD_ISO09W100
 70
     0
  3
ISO long-dash double-short-dash ____ __ __ ____
 72
    65
 73
     6
 40
45.0
 49
24.0
 74
     0
 49
-3.0
 74
     0
 49
6.0
 74
     0
 49
-3.0
 74
     0
 49
6.0
 74
     0
 49
-3.0
 74
     0
  0
LTYPE
  5
93
330
5
100
AcDbSymbolTableRecord
100
AcDbLinetypeTableRecord
  2
ACAD_ISO02W100
 70
     0
  3
ISO dash __ __ __ __ __ __ __ __ __ __ __ __ __
 72
    65
 73
     2
 40
15.0
 49
12.0
 74
     0
 49
-3.0
 74
     0
  0
ENDTAB
  0
TABLE
  2
LAYER
  5
2
330
0
100
AcDbSymbolTable
 70
    11
  0
LAYER
  5
10
330
2
100
AcDbSymbolTableRecord
100
AcDbLayerTableRecord
  2
0
 70
     0
 62
    -7
  6
Continuous
370
    -3
390
F
  0
LAYER
  5
94
330
2
100
AcDbSymbolTableRecord
100
AcDbLayerTableRecord
  2
轮廓线
 70
     0
 62
    -7
  6
Continuous
370
    35
390
F
  0
LAYER
  5
95
330
2
100
AcDbSymbolTableRecord
100
AcDbLayerTableRecord
  2
点划线
 70
     0
 62
    -1
  6
ACAD_ISO08W100
370
    13
390
F
  0
LAYER
  5
96
330
2
100
AcDbSymbolTableRecord
100
AcDbLayerTableRecord
  2
双点划线
 70
     0
 62
    -3
  6
ACAD_ISO09W100
370
    -3
390
F
  0
LAYER
  5
97
330
2
100
AcDbSymbolTableRecord
100
AcDbLayerTableRecord
  2
隐藏线
 70
     0
 62
   -44
  6
ACAD_ISO02W100
370
    13
390
F
  0
LAYER
  5
98
330
2
100
AcDbSymbolTableRecord
100
AcDbLayerTableRecord
  2
剖面线
 70
     0
 62
  -142
  6
Continuous
370
    13
390
F
  0
LAYER
  5
99
330
2
100
AcDbSymbolTableRecord
100
AcDbLayerTableRecord
  2
波浪线
 70
     0
 62
    -7
  6
Continuous
370
    13
390
F
  0
LAYER
  5
9A
330
2
100
AcDbSymbolTableRecord
100
AcDbLayerTableRecord
  2
尺寸层
 70
     0
 62
    -5
  6
Continuous
370
    13
390
F
  0
LAYER
  5
9B
330
2
100
AcDbSymbolTableRecord
100
AcDbLayerTableRecord
  2
文本层
 70
     0
 62
  -212
  6
Continuous
370
    13
390
F
  0
LAYER
  5
9C
330
2
100
AcDbSymbolTableRecord
100
AcDbLayerTableRecord
  2
其它层
 70
     0
 62
    -7
  6
Continuous
370
    -3
390
F
  0
LAYER
  5
122
330
2
100
AcDbSymbolTableRecord
100
AcDbLayerTableRecord
  2
Defpoints
 70
     0
 62
    -7
  6
Continuous
290
     0
370
    -3
390
F
  0
ENDTAB
  0
TABLE
  2
STYLE
  5
3
330
0
100
AcDbSymbolTable
 70
     4
  0
STYLE
  5
11
330
3
100
AcDbSymbolTableRecord
100
AcDbTextStyleTableRecord
  2
Standard
 70
     0
 40
0.0
 41
1.0
 50
0.0
 71
     0
 42
2.5
  3
txt
  4

  0
STYLE
  5
90
330
3
100
AcDbSymbolTableRecord
100
AcDbTextStyleTableRecord
  2

 70
     1
 40
0.0
 41
1.0
 50
0.0
 71
     0
 42
2.5
  3
ltypeshp.shx
  4

  0
STYLE
  5
9D
330
3
100
AcDbSymbolTableRecord
100
AcDbTextStyleTableRecord
  2
汉字
 70
     0
 40
0.0
 41
0.7
 50
0.0
 71
     0
 42
2.5
  3
SIMFANG.TTF
  4

1001
ACAD
1000
FangSong_GB2312
1071
    34353
  0
STYLE
  5
9F
330
3
100
AcDbSymbolTableRecord
100
AcDbTextStyleTableRecord
  2
数字与字母
 70
     0
 40
0.0
 41
0.7
 50
0.0
 71
     0
 42
2.5
  3
romant.shx
  4

  0
ENDTAB
  0
TABLE
  2
VIEW
  5
6
330
0
100
AcDbSymbolTable
 70
     0
  0
ENDTAB
  0
TABLE
  2
UCS
  5
7
330
0
100
AcDbSymbolTable
 70
     0
  0
ENDTAB
  0
TABLE
  2
APPID
  5
9
330
0
100
AcDbSymbolTable
 70
     1
  0
APPID
  5
12
330
9
100
AcDbSymbolTableRecord
100
AcDbRegAppTableRecord
  2
ACAD
 70
     0
  0
ENDTAB
  0
TABLE
  2
DIMSTYLE
  5
A
330
0
100
AcDbSymbolTable
 70
     3
100
AcDbDimStyleTable
 71
     2
340
A1
340
27
  0
DIMSTYLE
105
27
330
A
100
AcDbSymbolTableRecord
100
AcDbDimStyleTableRecord
  2
ISO-25
 70
     0
 41
2.5
 42
0.625
 43
3.75
 44
1.25
 73
     0
 74
     0
 77
     1
 78
     8
140
2.5
141
2.5
143
0.03937007874016
144
1.0
146
1.0
147
0.625
171
     3
172
     1
176
     0
177
     0
178
     0
271
     2
272
     2
273
     2
274
     3
277
     2
278
    44
283
     0
284
     8
289
     3
340
11
371
    -2
372
    -2
341
0
342
0
343
0
344
0
  0
DIMSTYLE
105
A1
102
{ACAD_REACTORS
330
121
330
12F
330
147
330
15F
330
177
330
193
330
1AB
330
1C3
330
1DF
330
231
330
241
330
251
330
261
102
}
330
A
100
AcDbSymbolTableRecord
100
AcDbDimStyleTableRecord
  2
机械标注
 70
     0
 41
3.5
 43
7.5
 44
2.5
 73
     0
 74
     1
 77
     1
 78
     8
140
5.0
141
2.5
143
0.03937007874016
144
1.0
146
1.0
147
0.625
171
     3
172
     1
176
     0
177
     0
178
     0
271
     1
272
     1
273
     2
274
     3
277
     2
278
    46
283
     0
284
     8
289
     3
340
9F
371
    -2
372
    -2
341
0
342
0
343
0
344
0
  0
DIMSTYLE
105
A2
102
{ACAD_REACTORS
330
211
102
}
330
A
100
AcDbSymbolTableRecord
100
AcDbDimStyleTableRecord
  2
机械标注$2
 70
     0
 41
3.5
 43
7.5
 44
2.5
 73
     1
 74
     1
 77
     1
 78
     8
140
5.0
141
2.5
143
0.03937007874016
144
1.0
146
1.0
147
0.625
171
     3
172
     1
176
     0
177
     0
178
     0
271
     1
272
     1
273
     2
274
     3
277
     2
278
    46
283
     0
284
     8
289
     3
340
9F
371
    -2
372
    -2
341
0
342
0
343
0
344
0
  0
ENDTAB
  0
TABLE
  2
BLOCK_RECORD
  5
1
330
0
100
AcDbSymbolTable
 70
    16
  0
BLOCK_RECORD
  5
1F
330
1
100
AcDbSymbolTableRecord
100
AcDbBlockTableRecord
  2
*Model_Space
340
22
  0
BLOCK_RECORD
  5
5E
330
1
100
AcDbSymbolTableRecord
100
AcDbBlockTableRecord
  2
*Paper_Space
340
5F
  0
BLOCK_RECORD
  5
59
330
1
100
AcDbSymbolTableRecord
100
AcDbBlockTableRecord
  2
*Paper_Space0
340
5A
  0
BLOCK_RECORD
  5
123
330
1
100
AcDbSymbolTableRecord
100
AcDbBlockTableRecord
  2
*D1
340
0
  0
BLOCK_RECORD
  5
130
330
1
100
AcDbSymbolTableRecord
100
AcDbBlockTableRecord
  2
*D2
340
0
  0
BLOCK_RECORD
  5
148
330
1
100
AcDbSymbolTableRecord
100
AcDbBlockTableRecord
  2
*D3
340
0
  0
BLOCK_RECORD
  5
160
330
1
100
AcDbSymbolTableRecord
100
AcDbBlockTableRecord
  2
*D4
340
0
  0
BLOCK_RECORD
  5
178
330
1
100
AcDbSymbolTableRecord
100
AcDbBlockTableRecord
  2
*D5
340
0
  0
BLOCK_RECORD
  5
194
330
1
100
AcDbSymbolTableRecord
100
AcDbBlockTableRecord
  2
*D6
340
0
  0
BLOCK_RECORD
  5
1AC
330
1
100
AcDbSymbolTableRecord
100
AcDbBlockTableRecord
  2
*D7
340
0
  0
BLOCK_RECORD
  5
1C4
330
1
100
AcDbSymbolTableRecord
100
AcDbBlockTableRecord
  2
*D8
340
0
  0
BLOCK_RECORD
  5
1E0
330
1
100
AcDbSymbolTableRecord
100
AcDbBlockTableRecord
  2
*D9
340
0
  0
BLOCK_RECORD
  5
212
330
1
100
AcDbSymbolTableRecord
100
AcDbBlockTableRecord
  2
*D11
340
0
  0
BLOCK_RECORD
  5
232
330
1
100
AcDbSymbolTableRecord
100
AcDbBlockTableRecord
  2
*D12
340
0
  0
BLOCK_RECORD
  5
242
330
1
100
AcDbSymbolTableRecord
100
AcDbBlockTableRecord
  2
*D13
340
0
  0
BLOCK_RECORD
  5
252
330
1
100
AcDbSymbolTableRecord
100
AcDbBlockTableRecord
  2
*D14
340
0
  0
BLOCK_RECORD
  5
262
330
1
100
AcDbSymbolTableRecord
100
AcDbBlockTableRecord
  2
*D15
340
0
  0
ENDTAB
  0
ENDSEC
  0
SECTION
  2
BLOCKS
  0
BLOCK
  5
20
330
1F
100
AcDbEntity
  8
0
100
AcDbBlockBegin
  2
*Model_Space
 70
     0
 10
0.0
 20
0.0
 30
0.0
  3
*Model_Space
  1

  0
ENDBLK
  5
21
330
1F
100
AcDbEntity
  8
0
100
AcDbBlockEnd
  0
BLOCK
  5
5B
330
59
100
AcDbEntity
  8
0
100
AcDbBlockBegin
  2
*Paper_Space0
 70
     0
 10
0.0
 20
0.0
 30
0.0
  3
*Paper_Space0
  1

  0
VIEWPORT
  5
74
330
59
100
AcDbEntity
  8
0
100
AcDbViewport
 10
133.3499908447266
 20
101.5999970436096
 30
0.0
 40
402.4920940625619
 41
218.5599527535252
 68
     0
 69
     0
 12
133.3499908447266
 22
101.5999970436096
 13
0.0
 23
0.0
 14
0.5
 24
0.5
 15
0.5
 25
0.5
 16
0.0
 26
0.0
 36
1.0
 17
0.0
 27
0.0
 37
0.0
 42
50.0
 43
0.0
 44
0.0
 45
218.5599527535252
 50
0.0
 51
0.0
 72
   100
 90
    32800
  1

281
     0
 71
     1
 74
     0
110
0.0
120
0.0
130
0.0
111
1.0
121
0.0
131
0.0
112
0.0
122
1.0
132
0.0
 79
     0
146
0.0
348
0
340
0
345
0
346
0
  0
VIEWPORT
  5
76
330
59
100
AcDbEntity
  8
0
100
AcDbViewport
 10
133.3499939441681
 20
101.5999939441681
 30
0.0
 40
213.3599903106689
 41
162.5599903106689
 68
     0
 69
     0
 12
110.3652913993253
 22
75.36544752457286
 13
0.0
 23
0.0
 14
10.0
 24
10.0
 15
10.0
 25
10.0
 16
0.0
 26
0.0
 36
1.0
 17
0.0
 27
0.0
 37
0.0
 42
50.0
 43
0.0
 44
0.0
 45
167.9671118903537
 50
0.0
 51
0.0
 72
   100
 90
    32864
  1

281
     0
 71
     1
 74
     0
110
0.0
120
0.0
130
0.0
111
1.0
121
0.0
131
0.0
112
0.0
122
1.0
132
0.0
 79
     0
146
0.0
348
0
340
0
345
0
346
0
  0
ENDBLK
  5
5C
330
59
100
AcDbEntity
  8
0
100
AcDbBlockEnd
  0
BLOCK
  5
60
330
5E
100
AcDbEntity
 67
     1
  8
0
100
AcDbBlockBegin
  2
*Paper_Space
 70
     0
 10
0.0
 20
0.0
 30
0.0
  3
*Paper_Space
  1

  0
ENDBLK
  5
61
330
5E
100
AcDbEntity
 67
     1
  8
0
100
AcDbBlockEnd
  0
BLOCK
  5
12D
330
123
100
AcDbEntity
  8
0
100
AcDbBlockBegin
  2
*D1
 70
     1
 10
0.0
 20
0.0
 30
0.0
  3
*D1
  1

  0
LINE
  5
124
330
123
100
AcDbEntity
  8
文本层
370
    -2
 62
     0
100
AcDbLine
 10
142.8340645595782
 20
56.62360579731431
 30
0.0
 11
157.2068673216251
 21
56.6236057973143
 31
0.0
  0
LINE
  5
125
330
123
100
AcDbEntity
  8
文本层
370
    -2
 62
     0
100
AcDbLine
 10
143.1169888510878
 20
94.62360579731433
 30
0.0
 11
157.2068673216252
 21
94.62360579731433
 31
0.0
  0
LINE
  5
126
330
123
100
AcDbEntity
  8
文本层
370
    -2
 62
     0
100
AcDbLine
 10
154.7068673216251
 20
60.1236057973143
 30
0.0
 11
154.7068673216252
 21
91.12360579731433
 31
0.0
  0
SOLID
  5
127
330
123
100
AcDbEntity
  8
文本层
 62
     0
100
AcDbTrace
 38
0.0
 10
154.1235339882918
 20
60.1236057973143
 11
155.2902006549585
 21
60.1236057973143
 12
154.7068673216251
 22
56.6236057973143
 13
154.7068673216251
 23
56.6236057973143
  0
SOLID
  5
128
330
123
100
AcDbEntity
  8
文本层
 62
     0
100
AcDbTrace
 38
0.0
 10
154.1235339882918
 20
91.12360579731433
 11
155.2902006549585
 21
91.12360579731433
 12
154.7068673216252
 22
94.62360579731433
 13
154.7068673216252
 23
94.62360579731433
  0
MTEXT
  5
129
330
123
100
AcDbEntity
  8
文本层
 62
     0
100
AcDbMText
 10
151.5818673216251
 20
75.62360579731434
 30
0.0
210
0.0
220
0.0
230
1.0
 11
6.123031769111886E-17
 21
1.0
 31
0.0
 40
5.0
 41
0.0
 71
     5
 72
     1
  1
38
  7
数字与字母
 73
     1
 44
1.0
  0
POINT
  5
12A
330
123
100
AcDbEntity
  8
Defpoints
 62
     0
100
AcDbPoint
 10
142.8340645595782
 20
56.62360579731431
 30
0.0
 50
0.0
  0
POINT
  5
12B
330
123
100
AcDbEntity
  8
Defpoints
 62
     0
100
AcDbPoint
 10
143.1169888510878
 20
94.62360579731433
 30
0.0
 50
0.0
  0
POINT
  5
12C
330
123
100
AcDbEntity
  8
Defpoints
 62
     0
100
AcDbPoint
 10
154.7068673216252
 20
94.62360579731433
 30
0.0
 50
0.0
  0
ENDBLK
  5
12E
330
123
100
AcDbEntity
  8
0
100
AcDbBlockEnd
  0
BLOCK
  5
13A
330
130
100
AcDbEntity
  8
0
100
AcDbBlockBegin
  2
*D2
 70
     1
 10
0.0
 20
0.0
 30
0.0
  3
*D2
  1

  0
LINE
  5
13D
330
130
100
AcDbEntity
  8
文本层
370
    -2
 62
     0
100
AcDbLine
 10
143.5535357550955
 20
99.62360579731433
 30
0.0
 11
164.9496900126364
 21
99.62360579731431
 31
0.0
  0
LINE
  5
13E
330
130
100
AcDbEntity
  8
文本层
370
    -2
 62
     0
100
AcDbLine
 10
143.5535357550955
 20
51.62360579731433
 30
0.0
 11
164.9496900126363
 21
51.62360579731432
 31
0.0
  0
LINE
  5
13F
330
130
100
AcDbEntity
  8
文本层
370
    -2
 62
     0
100
AcDbLine
 10
162.4496900126364
 20
96.12360579731431
 30
0.0
 11
162.4496900126363
 21
55.12360579731432
 31
0.0
  0
SOLID
  5
140
330
130
100
AcDbEntity
  8
文本层
 62
     0
100
AcDbTrace
 38
0.0
 10
161.866356679303
 20
96.12360579731431
 11
163.0330233459697
 21
96.12360579731431
 12
162.4496900126364
 22
99.62360579731431
 13
162.4496900126364
 23
99.62360579731431
  0
SOLID
  5
141
330
130
100
AcDbEntity
  8
文本层
 62
     0
100
AcDbTrace
 38
0.0
 10
161.866356679303
 20
55.12360579731432
 11
163.0330233459697
 21
55.12360579731432
 12
162.4496900126363
 22
51.62360579731432
 13
162.4496900126363
 23
51.62360579731432
  0
MTEXT
  5
142
330
130
100
AcDbEntity
  8
文本层
 62
     0
100
AcDbMText
 10
159.3246900126363
 20
75.62360579731434
 30
0.0
210
0.0
220
0.0
230
1.0
 11
6.123031769111886E-17
 21
1.0
 31
0.0
 40
5.0
 41
0.0
 71
     5
 72
     1
  1
48
  7
数字与字母
 73
     1
 44
1.0
  0
POINT
  5
143
330
130
100
AcDbEntity
  8
Defpoints
 62
     0
100
AcDbPoint
 10
143.5535357550955
 20
99.62360579731433
 30
0.0
 50
0.0
  0
POINT
  5
144
330
130
100
AcDbEntity
  8
Defpoints
 62
     0
100
AcDbPoint
 10
143.5535357550955
 20
51.62360579731433
 30
0.0
 50
0.0
  0
POINT
  5
145
330
130
100
AcDbEntity
  8
Defpoints
 62
     0
100
AcDbPoint
 10
162.4496900126363
 20
51.62360579731432
 30
0.0
 50
0.0
  0
ENDBLK
  5
13B
330
130
100
AcDbEntity
  8
0
100
AcDbBlockEnd
  0
BLOCK
  5
152
330
148
100
AcDbEntity
  8
0
100
AcDbBlockBegin
  2
*D3
 70
     1
 10
0.0
 20
0.0
 30
0.0
  3
*D3
  1

  0
LINE
  5
155
330
148
100
AcDbEntity
  8
文本层
370
    -2
 62
     0
100
AcDbLine
 10
143.5535357550955
 20
45.62778741032747
 30
0.0
 11
171.8284872895486
 21
45.62778741032746
 31
0.0
  0
LINE
  5
156
330
148
100
AcDbEntity
  8
文本层
370
    -2
 62
     0
100
AcDbLine
 10
143.5535357550955
 20
105.6194241843012
 30
0.0
 11
171.8284872895487
 21
105.6194241843012
 31
0.0
  0
LINE
  5
157
330
148
100
AcDbEntity
  8
文本层
370
    -2
 62
     0
100
AcDbLine
 10
169.3284872895486
 20
49.12778741032746
 30
0.0
 11
169.3284872895487
 21
102.1194241843012
 31
0.0
  0
SOLID
  5
158
330
148
100
AcDbEntity
  8
文本层
 62
     0
100
AcDbTrace
 38
0.0
 10
168.7451539562153
 20
49.12778741032746
 11
169.911820622882
 21
49.12778741032746
 12
169.3284872895486
 22
45.62778741032746
 13
169.3284872895486
 23
45.62778741032746
  0
SOLID
  5
159
330
148
100
AcDbEntity
  8
文本层
 62
     0
100
AcDbTrace
 38
0.0
 10
168.7451539562153
 20
102.1194241843012
 11
169.911820622882
 21
102.1194241843012
 12
169.3284872895487
 22
105.6194241843012
 13
169.3284872895487
 23
105.6194241843012
  0
MTEXT
  5
15A
330
148
100
AcDbEntity
  8
文本层
 62
     0
100
AcDbMText
 10
166.2034872895486
 20
75.62360579731434
 30
0.0
210
0.0
220
0.0
230
1.0
 11
6.123031769111886E-17
 21
1.0
 31
0.0
 40
5.0
 41
0.0
 71
     5
 72
     1
  1
60
  7
数字与字母
 73
     1
 44
1.0
  0
POINT
  5
15B
330
148
100
AcDbEntity
  8
Defpoints
 62
     0
100
AcDbPoint
 10
143.5535357550955
 20
45.62778741032747
 30
0.0
 50
0.0
  0
POINT
  5
15C
330
148
100
AcDbEntity
  8
Defpoints
 62
     0
100
AcDbPoint
 10
143.5535357550955
 20
105.6194241843012
 30
0.0
 50
0.0
  0
POINT
  5
15D
330
148
100
AcDbEntity
  8
Defpoints
 62
     0
100
AcDbPoint
 10
169.3284872895487
 20
105.6194241843012
 30
0.0
 50
0.0
  0
ENDBLK
  5
153
330
148
100
AcDbEntity
  8
0
100
AcDbBlockEnd
  0
BLOCK
  5
16A
330
160
100
AcDbEntity
  8
0
100
AcDbBlockBegin
  2
*D4
 70
     1
 10
0.0
 20
0.0
 30
0.0
  3
*D4
  1

  0
LINE
  5
16D
330
160
100
AcDbEntity
  8
文本层
370
    -2
 62
     0
100
AcDbLine
 10
140.5920825112932
 20
110.3587400664986
 30
0.0
 11
179.9744732852537
 21
110.3587400664986
 31
0.0
  0
LINE
  5
16E
330
160
100
AcDbEntity
  8
文本层
370
    -2
 62
     0
100
AcDbLine
 10
140.5920825112932
 20
40.88847152813
 30
0.0
 11
179.9744732852537
 21
40.88847152812999
 31
0.0
  0
LINE
  5
16F
330
160
100
AcDbEntity
  8
文本层
370
    -2
 62
     0
100
AcDbLine
 10
177.4744732852537
 20
106.8587400664986
 30
0.0
 11
177.4744732852537
 21
44.38847152812999
 31
0.0
  0
SOLID
  5
170
330
160
100
AcDbEntity
  8
文本层
 62
     0
100
AcDbTrace
 38
0.0
 10
176.8911399519204
 20
106.8587400664986
 11
178.0578066185871
 21
106.8587400664986
 12
177.4744732852537
 22
110.3587400664986
 13
177.4744732852537
 23
110.3587400664986
  0
SOLID
  5
171
330
160
100
AcDbEntity
  8
文本层
 62
     0
100
AcDbTrace
 38
0.0
 10
176.8911399519203
 20
44.38847152812999
 11
178.057806618587
 21
44.38847152812999
 12
177.4744732852537
 22
40.88847152812999
 13
177.4744732852537
 23
40.88847152812999
  0
MTEXT
  5
172
330
160
100
AcDbEntity
  8
文本层
 62
     0
100
AcDbMText
 10
174.3494732852537
 20
75.62360579731434
 30
0.0
210
0.0
220
0.0
230
1.0
 11
6.123031769111886E-17
 21
1.0
 31
0.0
 40
5.0
 41
0.0
 71
     5
 72
     1
  1
69.5
  7
数字与字母
 73
     1
 44
1.0
  0
POINT
  5
173
330
160
100
AcDbEntity
  8
Defpoints
 62
     0
100
AcDbPoint
 10
140.5920825112932
 20
110.3587400664986
 30
0.0
 50
0.0
  0
POINT
  5
174
330
160
100
AcDbEntity
  8
Defpoints
 62
     0
100
AcDbPoint
 10
140.5920825112932
 20
40.88847152813
 30
0.0
 50
0.0
  0
POINT
  5
175
330
160
100
AcDbEntity
  8
Defpoints
 62
     0
100
AcDbPoint
 10
177.4744732852537
 20
40.88847152812999
 30
0.0
 50
0.0
  0
ENDBLK
  5
16B
330
160
100
AcDbEntity
  8
0
100
AcDbBlockEnd
  0
BLOCK
  5
184
330
178
100
AcDbEntity
  8
0
100
AcDbBlockBegin
  2
*D5
 70
     1
 10
0.0
 20
0.0
 30
0.0
  3
*D5
  1

  0
LINE
  5
27E
330
178
100
AcDbEntity
  8
文本层
370
    -2
 62
     0
100
AcDbLine
 10
137.0535357550955
 20
97.12360579731433
 30
0.0
 11
137.0535357550955
 21
79.00086403486836
 31
0.0
  0
LINE
  5
27F
330
178
100
AcDbEntity
  8
文本层
370
    -2
 62
     0
100
AcDbLine
 10
143.5535357550955
 20
94.62360579731433
 30
0.0
 11
143.5535357550955
 21
79.00086403486836
 31
0.0
  0
LINE
  5
280
330
178
100
AcDbEntity
  8
文本层
370
    -2
 62
     0
100
AcDbLine
 10
147.0535357550955
 20
81.50086403486836
 30
0.0
 11
150.5535357550955
 21
81.50086403486836
 31
0.0
  0
LINE
  5
281
330
178
100
AcDbEntity
  8
文本层
370
    -2
 62
     0
100
AcDbLine
 10
133.5535357550955
 20
81.50086403486836
 30
0.0
 11
121.3035357550955
 21
81.50086403486836
 31
0.0
  0
LINE
  5
282
330
178
100
AcDbEntity
  8
文本层
370
    -2
 62
     0
100
AcDbLine
 10
143.5535357550955
 20
81.50086403486836
 30
0.0
 11
137.0535357550955
 21
81.50086403486836
 31
0.0
  0
SOLID
  5
283
330
178
100
AcDbEntity
  8
文本层
 62
     0
100
AcDbTrace
 38
0.0
 10
147.0535357550955
 20
82.08419736820169
 11
147.0535357550955
 21
80.91753070153503
 12
143.5535357550955
 22
81.50086403486836
 13
143.5535357550955
 23
81.50086403486836
  0
SOLID
  5
284
330
178
100
AcDbEntity
  8
文本层
 62
     0
100
AcDbTrace
 38
0.0
 10
133.5535357550955
 20
82.08419736820169
 11
133.5535357550955
 21
80.91753070153503
 12
137.0535357550955
 22
81.50086403486836
 13
137.0535357550955
 23
81.50086403486836
  0
MTEXT
  5
285
330
178
100
AcDbEntity
  8
文本层
 62
     0
100
AcDbMText
 10
125.6785357550955
 20
84.62586403486836
 30
0.0
210
0.0
220
0.0
230
1.0
 11
1.0
 21
0.0
 31
0.0
 40
5.0
 41
0.0
 71
     5
 72
     1
  1
6.5
  7
数字与字母
 73
     1
 44
1.0
  0
POINT
  5
286
330
178
100
AcDbEntity
  8
Defpoints
 62
     0
100
AcDbPoint
 10
137.0535357550955
 20
97.12360579731433
 30
0.0
 50
0.0
  0
POINT
  5
287
330
178
100
AcDbEntity
  8
Defpoints
 62
     0
100
AcDbPoint
 10
143.5535357550955
 20
94.62360579731433
 30
0.0
 50
0.0
  0
POINT
  5
288
330
178
100
AcDbEntity
  8
Defpoints
 62
     0
100
AcDbPoint
 10
143.5535357550955
 20
81.50086403486836
 30
0.0
 50
0.0
  0
ENDBLK
  5
185
330
178
100
AcDbEntity
  8
0
100
AcDbBlockEnd
  0
BLOCK
  5
19E
330
194
100
AcDbEntity
  8
0
100
AcDbBlockBegin
  2
*D6
 70
     1
 10
0.0
 20
0.0
 30
0.0
  3
*D6
  1

  0
LINE
  5
1A1
330
194
100
AcDbEntity
  8
文本层
370
    -2
 62
     0
100
AcDbLine
 10
118.5535357550955
 20
105.6194241843012
 30
0.0
 11
118.5535357550955
 21
135.7521687770404
 31
0.0
  0
LINE
  5
1A2
330
194
100
AcDbEntity
  8
文本层
370
    -2
 62
     0
100
AcDbLine
 10
143.5535357550955
 20
105.6194241843012
 30
0.0
 11
143.5535357550955
 21
135.7521687770404
 31
0.0
  0
LINE
  5
1A3
330
194
100
AcDbEntity
  8
文本层
370
    -2
 62
     0
100
AcDbLine
 10
122.0535357550955
 20
133.2521687770404
 30
0.0
 11
140.0535357550955
 21
133.2521687770404
 31
0.0
  0
SOLID
  5
1A4
330
194
100
AcDbEntity
  8
文本层
 62
     0
100
AcDbTrace
 38
0.0
 10
122.0535357550955
 20
133.8355021103738
 11
122.0535357550955
 21
132.6688354437071
 12
118.5535357550955
 22
133.2521687770404
 13
118.5535357550955
 23
133.2521687770404
  0
SOLID
  5
1A5
330
194
100
AcDbEntity
  8
文本层
 62
     0
100
AcDbTrace
 38
0.0
 10
140.0535357550955
 20
133.8355021103738
 11
140.0535357550955
 21
132.6688354437071
 12
143.5535357550955
 22
133.2521687770404
 13
143.5535357550955
 23
133.2521687770404
  0
MTEXT
  5
1A6
330
194
100
AcDbEntity
  8
文本层
 62
     0
100
AcDbMText
 10
131.0535357550955
 20
136.3771687770404
 30
0.0
210
0.0
220
0.0
230
1.0
 11
1.0
 21
0.0
 31
0.0
 40
5.0
 41
0.0
 71
     5
 72
     1
  1
25
  7
数字与字母
 73
     1
 44
1.0
  0
POINT
  5
1A7
330
194
100
AcDbEntity
  8
Defpoints
 62
     0
100
AcDbPoint
 10
118.5535357550955
 20
105.6194241843012
 30
0.0
 50
0.0
  0
POINT
  5
1A8
330
194
100
AcDbEntity
  8
Defpoints
 62
     0
100
AcDbPoint
 10
143.5535357550955
 20
105.6194241843012
 30
0.0
 50
0.0
  0
POINT
  5
1A9
330
194
100
AcDbEntity
  8
Defpoints
 62
     0
100
AcDbPoint
 10
143.5535357550955
 20
133.2521687770404
 30
0.0
 50
0.0
  0
ENDBLK
  5
19F
330
194
100
AcDbEntity
  8
0
100
AcDbBlockEnd
  0
BLOCK
  5
1B6
330
1AC
100
AcDbEntity
  8
0
100
AcDbBlockBegin
  2
*D7
 70
     1
 10
0.0
 20
0.0
 30
0.0
  3
*D7
  1

  0
LINE
  5
1B9
330
1AC
100
AcDbEntity
  8
文本层
370
    -2
 62
     0
100
AcDbLine
 10
116.3428089389515
 20
75.62360579731433
 30
0.0
 11
105.0835569525491
 21
75.62360579731433
 31
0.0
  0
LINE
  5
1BA
330
1AC
100
AcDbEntity
  8
文本层
370
    -2
 62
     0
100
AcDbLine
 10
131.0535357550955
 20
25.62360579731434
 30
0.0
 11
105.0835569525491
 21
25.62360579731434
 31
0.0
  0
LINE
  5
1BB
330
1AC
100
AcDbEntity
  8
文本层
370
    -2
 62
     0
100
AcDbLine
 10
107.5835569525491
 20
72.12360579731433
 30
0.0
 11
107.5835569525491
 21
29.12360579731434
 31
0.0
  0
SOLID
  5
1BC
330
1AC
100
AcDbEntity
  8
文本层
 62
     0
100
AcDbTrace
 38
0.0
 10
107.0002236192158
 20
72.12360579731433
 11
108.1668902858824
 21
72.12360579731433
 12
107.5835569525491
 22
75.62360579731433
 13
107.5835569525491
 23
75.62360579731433
  0
SOLID
  5
1BD
330
1AC
100
AcDbEntity
  8
文本层
 62
     0
100
AcDbTrace
 38
0.0
 10
107.0002236192157
 20
29.12360579731434
 11
108.1668902858824
 21
29.12360579731434
 12
107.5835569525491
 22
25.62360579731434
 13
107.5835569525491
 23
25.62360579731434
  0
MTEXT
  5
1BE
330
1AC
100
AcDbEntity
  8
文本层
 62
     0
100
AcDbMText
 10
104.4585569525491
 20
50.62360579731435
 30
0.0
210
0.0
220
0.0
230
1.0
 11
6.123031769111886E-17
 21
1.0
 31
0.0
 40
5.0
 41
0.0
 71
     5
 72
     1
  1
50
  7
数字与字母
 73
     1
 44
1.0
  0
POINT
  5
1BF
330
1AC
100
AcDbEntity
  8
Defpoints
 62
     0
100
AcDbPoint
 10
116.3428089389515
 20
75.62360579731433
 30
0.0
 50
0.0
  0
POINT
  5
1C0
330
1AC
100
AcDbEntity
  8
Defpoints
 62
     0
100
AcDbPoint
 10
131.0535357550955
 20
25.62360579731434
 30
0.0
 50
0.0
  0
POINT
  5
1C1
330
1AC
100
AcDbEntity
  8
Defpoints
 62
     0
100
AcDbPoint
 10
107.5835569525491
 20
25.62360579731434
 30
0.0
 50
0.0
  0
ENDBLK
  5
1B7
330
1AC
100
AcDbEntity
  8
0
100
AcDbBlockEnd
  0
BLOCK
  5
1D0
330
1C4
100
AcDbEntity
  8
0
100
AcDbBlockBegin
  2
*D8
 70
     1
 10
0.0
 20
0.0
 30
0.0
  3
*D8
  1

  0
LINE
  5
1D3
330
1C4
100
AcDbEntity
  8
文本层
370
    -2
 62
     0
100
AcDbLine
 10
51.21424764124617
 20
92.62360579731433
 30
0.0
 11
51.21424764124617
 21
124.586598901173
 31
0.0
  0
LINE
  5
1D4
330
1C4
100
AcDbEntity
  8
文本层
370
    -2
 62
     0
100
AcDbLine
 10
59.21424764124617
 20
92.62360579731433
 30
0.0
 11
59.21424764124617
 21
124.586598901173
 31
0.0
  0
LINE
  5
1D5
330
1C4
100
AcDbEntity
  8
文本层
370
    -2
 62
     0
100
AcDbLine
 10
47.71424764124617
 20
122.086598901173
 30
0.0
 11
44.21424764124617
 21
122.086598901173
 31
0.0
  0
LINE
  5
1D6
330
1C4
100
AcDbEntity
  8
文本层
370
    -2
 62
     0
100
AcDbLine
 10
62.71424764124617
 20
122.086598901173
 30
0.0
 11
66.21424764124617
 21
122.086598901173
 31
0.0
  0
LINE
  5
1D7
330
1C4
100
AcDbEntity
  8
文本层
370
    -2
 62
     0
100
AcDbLine
 10
51.21424764124617
 20
122.086598901173
 30
0.0
 11
59.21424764124617
 21
122.086598901173
 31
0.0
  0
SOLID
  5
1D8
330
1C4
100
AcDbEntity
  8
文本层
 62
     0
100
AcDbTrace
 38
0.0
 10
47.71424764124617
 20
122.6699322345064
 11
47.71424764124617
 21
121.5032655678397
 12
51.21424764124617
 22
122.086598901173
 13
51.21424764124617
 23
122.086598901173
  0
SOLID
  5
1D9
330
1C4
100
AcDbEntity
  8
文本层
 62
     0
100
AcDbTrace
 38
0.0
 10
62.71424764124617
 20
122.6699322345064
 11
62.71424764124617
 21
121.5032655678397
 12
59.21424764124617
 22
122.086598901173
 13
59.21424764124617
 23
122.086598901173
  0
MTEXT
  5
1DA
330
1C4
100
AcDbEntity
  8
文本层
 62
     0
100
AcDbMText
 10
55.21424764124617
 20
125.211598901173
 30
0.0
210
0.0
220
0.0
230
1.0
 11
1.0
 21
0.0
 31
0.0
 40
5.0
 41
0.0
 71
     5
 72
     1
  1
8
  7
数字与字母
 73
     1
 44
1.0
  0
POINT
  5
1DB
330
1C4
100
AcDbEntity
  8
Defpoints
 62
     0
100
AcDbPoint
 10
51.21424764124617
 20
92.62360579731433
 30
0.0
 50
0.0
  0
POINT
  5
1DC
330
1C4
100
AcDbEntity
  8
Defpoints
 62
     0
100
AcDbPoint
 10
59.21424764124617
 20
92.62360579731433
 30
0.0
 50
0.0
  0
POINT
  5
1DD
330
1C4
100
AcDbEntity
  8
Defpoints
 62
     0
100
AcDbPoint
 10
59.21424764124617
 20
122.086598901173
 30
0.0
 50
0.0
  0
ENDBLK
  5
1D1
330
1C4
100
AcDbEntity
  8
0
100
AcDbBlockEnd
  0
BLOCK
  5
1EA
330
1E0
100
AcDbEntity
  8
0
100
AcDbBlockBegin
  2
*D9
 70
     1
 10
0.0
 20
0.0
 30
0.0
  3
*D9
  1

  0
LINE
  5
1ED
330
1E0
100
AcDbEntity
  8
文本层
370
    -2
 62
     0
100
AcDbLine
 10
51.21424764124617
 20
92.62360579731433
 30
0.0
 11
6.526449142308478
 21
92.62360579731434
 31
0.0
  0
LINE
  5
1EE
330
1E0
100
AcDbEntity
  8
文本层
370
    -2
 62
     0
100
AcDbLine
 10
55.21424764124617
 20
61.62360579731433
 30
0.0
 11
6.526449142308478
 21
61.62360579731434
 31
0.0
  0
LINE
  5
1EF
330
1E0
100
AcDbEntity
  8
文本层
370
    -2
 62
     0
100
AcDbLine
 10
9.026449142308481
 20
89.12360579731434
 30
0.0
 11
9.026449142308476
 21
65.12360579731434
 31
0.0
  0
SOLID
  5
1F0
330
1E0
100
AcDbEntity
  8
文本层
 62
     0
100
AcDbTrace
 38
0.0
 10
8.443115808975147
 20
89.12360579731434
 11
9.609782475641815
 21
89.12360579731434
 12
9.026449142308483
 22
92.62360579731434
 13
9.026449142308483
 23
92.62360579731434
  0
SOLID
  5
1F1
330
1E0
100
AcDbEntity
  8
文本层
 62
     0
100
AcDbTrace
 38
0.0
 10
8.443115808975142
 20
65.12360579731434
 11
9.60978247564181
 21
65.12360579731434
 12
9.026449142308476
 22
61.62360579731434
 13
9.026449142308476
 23
61.62360579731434
  0
MTEXT
  5
1F2
330
1E0
100
AcDbEntity
  8
文本层
 62
     0
100
AcDbMText
 10
5.901449142308466
 20
77.12360579731434
 30
0.0
210
0.0
220
0.0
230
1.0
 11
6.123031769111886E-17
 21
1.0
 31
0.0
 40
5.0
 41
0.0
 71
     5
 72
     1
  1
31
  7
数字与字母
 73
     1
 44
1.0
  0
POINT
  5
1F3
330
1E0
100
AcDbEntity
  8
Defpoints
 62
     0
100
AcDbPoint
 10
51.21424764124617
 20
92.62360579731433
 30
0.0
 50
0.0
  0
POINT
  5
1F4
330
1E0
100
AcDbEntity
  8
Defpoints
 62
     0
100
AcDbPoint
 10
55.21424764124617
 20
61.62360579731433
 30
0.0
 50
0.0
  0
POINT
  5
1F5
330
1E0
100
AcDbEntity
  8
Defpoints
 62
     0
100
AcDbPoint
 10
9.026449142308476
 20
61.62360579731434
 30
0.0
 50
0.0
  0
ENDBLK
  5
1EB
330
1E0
100
AcDbEntity
  8
0
100
AcDbBlockEnd
  0
BLOCK
  5
220
330
212
100
AcDbEntity
  8
0
100
AcDbBlockBegin
  2
*D11
 70
     1
 10
0.0
 20
0.0
 30
0.0
  3
*D11
  1

  0
LINE
  5
223
330
212
100
AcDbEntity
  8
文本层
370
    -2
 62
     0
100
AcDbLine
 10
118.5535357550955
 20
45.62778741032744
 30
0.0
 11
118.5535357550955
 21
14.41096403463159
 31
0.0
  0
LINE
  5
224
330
212
100
AcDbEntity
  8
文本层
370
    -2
 62
     0
100
AcDbLine
 10
131.0535357550955
 20
25.62360579731433
 30
0.0
 11
135.0959318300421
 21
19.15441977851714
 31
0.0
  0
ARC
  5
225
330
212
100
AcDbEntity
  8
文本层
370
    -2
 62
     0
100
AcDbCircle
 10
118.5535357550955
 20
45.62778741032745
 30
0.0
 40
28.71682337569584
100
AcDbArc
 50
256.0249475487441
 51
263.012473774372
  0
ARC
  5
226
330
212
100
AcDbEntity
  8
文本层
370
    -2
 62
     0
100
AcDbCircle
 10
118.5535357550955
 20
45.62778741032745
 30
0.0
 40
28.71682337569584
100
AcDbArc
 50
308.9875262256279
 51
315.9750524512559
  0
ARC
  5
227
330
212
100
AcDbEntity
  8
文本层
370
    -2
 62
     0
100
AcDbCircle
 10
118.5535357550955
 20
45.62778741032745
 30
0.0
 40
28.71682337569584
100
AcDbArc
 50
270.0
 51
301.9999999999999
  0
SOLID
  5
228
330
212
100
AcDbEntity
  8
文本层
 62
     0
100
AcDbTrace
 38
0.0
 10
115.0955889904435
 20
17.70650281471136
 11
115.0244924544529
 21
16.5420044704956
 12
118.5535357550955
 22
16.91096403463159
 13
118.5535357550955
 23
16.91096403463159
  0
SOLID
  5
229
330
212
100
AcDbEntity
  8
文本层
 62
     0
100
AcDbTrace
 38
0.0
 10
136.9594509025814
 20
22.83175259230762
 11
136.2820675148236
 21
23.78162777205543
 12
133.7711336694591
 22
21.27454001890821
 13
133.7711336694591
 23
21.27454001890821
  0
MTEXT
  5
22A
330
212
100
AcDbEntity
  8
文本层
 62
     0
100
AcDbMText
 10
126.4689650178361
 20
18.02340507024489
 30
0.0
210
0.0
220
0.0
230
1.0
 11
1.0
 21
0.0
 31
0.0
 40
5.0
 41
0.0
 71
     5
 72
     1
  1
32°
  7
数字与字母
 73
     1
 44
1.0
  0
POINT
  5
22B
330
212
100
AcDbEntity
  8
Defpoints
 62
     0
100
AcDbPoint
 10
123.8688739679086
 20
17.40717217120978
 30
0.0
 50
0.0
  0
POINT
  5
22C
330
212
100
AcDbEntity
  8
Defpoints
 62
     0
100
AcDbPoint
 10
118.5535357550955
 20
45.62778741032744
 30
0.0
 50
0.0
  0
POINT
  5
22D
330
212
100
AcDbEntity
  8
Defpoints
 62
     0
100
AcDbPoint
 10
131.0535357550955
 20
25.62360579731433
 30
0.0
 50
0.0
  0
POINT
  5
22E
330
212
100
AcDbEntity
  8
Defpoints
 62
     0
100
AcDbPoint
 10
121.5149889988978
 20
40.88847152813
 30
0.0
 50
0.0
  0
POINT
  5
22F
330
212
100
AcDbEntity
  8
Defpoints
 62
     0
100
AcDbPoint
 10
118.5535357550955
 20
75.62360579731433
 30
0.0
 50
0.0
  0
ENDBLK
  5
221
330
212
100
AcDbEntity
  8
0
100
AcDbBlockEnd
  0
BLOCK
  5
238
330
232
100
AcDbEntity
  8
0
100
AcDbBlockBegin
  2
*D12
 70
     1
 10
0.0
 20
0.0
 30
0.0
  3
*D12
  1

  0
LINE
  5
23B
330
232
100
AcDbEntity
  8
文本层
370
    -2
 62
     0
100
AcDbLine
 10
131.1251936353905
 20
25.86311602296582
 30
0.0
 11
135.2096928122377
 21
39.5151988850911
 31
0.0
  0
MTEXT
  5
23C
330
232
100
AcDbEntity
  8
文本层
 62
     0
100
AcDbMText
 10
129.6719602411036
 20
31.90830937816377
 30
0.0
210
0.0
220
0.0
230
1.0
 11
0.2866315211822605
 21
0.958040902605282
 31
0.0
 40
5.0
 41
0.0
 71
     5
 72
     1
  1
R18
  7
数字与字母
 73
     1
 44
1.0
  0
SOLID
  5
23D
330
232
100
AcDbEntity
  8
文本层
 62
     0
100
AcDbTrace
 38
0.0
 10
134.6508356190513
 20
39.68240060578075
 11
135.7685500054241
 21
39.34799716440145
 12
136.2129031363756
 22
42.86834204420957
 13
136.2129031363756
 23
42.86834204420957
  0
POINT
  5
23E
330
232
100
AcDbEntity
  8
Defpoints
 62
     0
100
AcDbPoint
 10
136.2129031363756
 20
42.86834204420957
 30
0.0
 50
0.0
  0
POINT
  5
23F
330
232
100
AcDbEntity
  8
Defpoints
 62
     0
100
AcDbPoint
 10
131.0535357550949
 20
25.62360579731443
 30
0.0
 50
0.0
  0
ENDBLK
  5
239
330
232
100
AcDbEntity
  8
0
100
AcDbBlockEnd
  0
BLOCK
  5
248
330
242
100
AcDbEntity
  8
0
100
AcDbBlockBegin
  2
*D13
 70
     1
 10
0.0
 20
0.0
 30
0.0
  3
*D13
  1

  0
LINE
  5
24B
330
242
100
AcDbEntity
  8
文本层
370
    -2
 62
     0
100
AcDbLine
 10
130.3578111780004
 20
123.4838704602164
 30
0.0
 11
125.9515555230647
 21
109.9322133252624
 31
0.0
  0
MTEXT
  5
24C
330
242
100
AcDbEntity
  8
文本层
 62
     0
100
AcDbMText
 10
125.7239478311926
 20
119.3385646231144
 30
0.0
210
0.0
220
0.0
230
1.0
 11
0.3092109231533813
 21
0.9509934831546606
 31
0.0
 40
5.0
 41
0.0
 71
     5
 72
     1
  1
R20
  7
数字与字母
 73
     1
 44
1.0
  0
SOLID
  5
24D
330
242
100
AcDbEntity
  8
文本层
 62
     0
100
AcDbTrace
 38
0.0
 10
125.3968093245578
 20
110.1125863637686
 11
126.5063017215715
 21
109.7518402867563
 12
124.8693172920278
 22
106.6037361342211
 13
124.8693172920278
 23
106.6037361342211
  0
POINT
  5
24E
330
242
100
AcDbEntity
  8
Defpoints
 62
     0
100
AcDbPoint
 10
124.8693172920278
 20
106.6037361342211
 30
0.0
 50
0.0
  0
POINT
  5
24F
330
242
100
AcDbEntity
  8
Defpoints
 62
     0
100
AcDbPoint
 10
131.0535357550955
 20
125.6236057973144
 30
0.0
 50
0.0
  0
ENDBLK
  5
249
330
242
100
AcDbEntity
  8
0
100
AcDbBlockEnd
  0
BLOCK
  5
258
330
252
100
AcDbEntity
  8
0
100
AcDbBlockBegin
  2
*D14
 70
     1
 10
0.0
 20
0.0
 30
0.0
  3
*D14
  1

  0
LINE
  5
25B
330
252
100
AcDbEntity
  8
文本层
370
    -2
 62
     0
100
AcDbLine
 10
132.8902435565584
 20
120.7053739552755
 30
0.0
 11
137.875593303386
 21
107.3558875268841
 31
0.0
  0
MTEXT
  5
25C
330
252
100
AcDbEntity
  8
文本层
 62
     0
100
AcDbMText
 10
137.6982014497459
 20
116.7633198083444
 30
0.0
210
0.0
220
0.0
230
1.0
 11
0.3498491050405357
 21
-0.9368060651502723
 31
0.0
 40
5.0
 41
0.0
 71
     5
 72
     1
  1
R23
  7
数字与字母
 73
     1
 44
1.0
  0
SOLID
  5
25D
330
252
100
AcDbEntity
  8
文本层
 62
     0
100
AcDbTrace
 38
0.0
 10
138.422063508057
 20
107.5599661714911
 11
137.329123098715
 21
107.1518088822771
 12
139.1000651710279
 22
104.0770662988581
 13
139.1000651710279
 23
104.0770662988581
  0
POINT
  5
25E
330
252
100
AcDbEntity
  8
Defpoints
 62
     0
100
AcDbPoint
 10
139.1000651710279
 20
104.0770662988581
 30
0.0
 50
0.0
  0
POINT
  5
25F
330
252
100
AcDbEntity
  8
Defpoints
 62
     0
100
AcDbPoint
 10
131.0535357550955
 20
125.6236057973145
 30
0.0
 50
0.0
  0
ENDBLK
  5
259
330
252
100
AcDbEntity
  8
0
100
AcDbBlockEnd
  0
BLOCK
  5
269
330
262
100
AcDbEntity
  8
0
100
AcDbBlockBegin
  2
*D15
 70
     1
 10
0.0
 20
0.0
 30
0.0
  3
*D15
  1

  0
LINE
  5
26C
330
262
100
AcDbEntity
  8
文本层
370
    -2
 62
     0
100
AcDbLine
 10
101.5554043609254
 20
100.044573277327
 30
0.0
 11
113.5137376942587
 21
100.044573277327
 31
0.0
  0
LINE
  5
26D
330
262
100
AcDbEntity
  8
文本层
370
    -2
 62
     0
100
AcDbLine
 10
113.5137376942587
 20
100.044573277327
 30
0.0
 11
121.6019780644811
 21
97.43107605836833
 31
0.0
  0
MTEXT
  5
26E
330
262
100
AcDbEntity
  8
文本层
 62
     0
100
AcDbMText
 10
107.2220710275921
 20
103.169573277327
 30
0.0
210
0.0
220
0.0
230
1.0
 11
1.0
 21
0.0
 31
0.0
 40
5.0
 41
0.0
 71
     5
 72
     1
  1
R2.5
  7
数字与字母
 73
     1
 44
1.0
  0
SOLID
  5
26F
330
262
100
AcDbEntity
  8
文本层
 62
     0
100
AcDbTrace
 38
0.0
 10
121.7813357167626
 20
97.98615137789341
 11
121.4226204121996
 21
96.87600073884326
 12
124.9324299816315
 22
96.35493014467946
 13
124.9324299816315
 23
96.35493014467946
  0
POINT
  5
270
330
262
100
AcDbEntity
  8
Defpoints
 62
     0
100
AcDbPoint
 10
124.9324299816315
 20
96.35493014467946
 30
0.0
 50
0.0
  0
POINT
  5
271
330
262
100
AcDbEntity
  8
Defpoints
 62
     0
100
AcDbPoint
 10
122.5535357550954
 20
97.1236057973144
 30
0.0
 50
0.0
  0
ENDBLK
  5
26A
330
262
100
AcDbEntity
  8
0
100
AcDbBlockEnd
  0
ENDSEC
  0
SECTION
  2
ENTITIES
  0
LWPOLYLINE
  5
A9
330
1F
100
AcDbEntity
  8
点划线
100
AcDbPolyline
 90
        2
 70
     0
 43
0.0
 10
16.47911337206185
 20
75.62360579731433
 10
93.94938191043049
 20
75.62360579731433
  0
LWPOLYLINE
  5
AA
330
1F
100
AcDbEntity
  8
点划线
100
AcDbPolyline
 90
        2
 70
     0
 43
0.0
 10
55.21424764124617
 20
36.88847152812999
 10
55.21424764124617
 20
114.3587400664987
  0
LWPOLYLINE
  5
AB
330
1F
100
AcDbEntity
  8
点划线
100
AcDbPolyline
 90
        2
 70
     0
 43
0.0
 10
131.0535357550955
 20
21.62360579731433
 10
131.0535357550955
 20
129.6236057973143
  0
LWPOLYLINE
  5
AC
330
1F
100
AcDbEntity
  8
轮廓线
100
AcDbPolyline
 90
        2
 70
     0
 43
0.0
 10
118.5535357550955
 20
61.62360579731433
 10
143.5535357550955
 20
61.62360579731433
  0
ARC
  5
B2
102
{ACAD_REACTORS
330
240
102
}
330
1F
100
AcDbEntity
  8
轮廓线
100
AcDbCircle
 10
131.0535357550955
 20
25.62360579731434
 30
0.0
 40
18.0
100
AcDbArc
 50
58.0
 51
122.0
  0
ARC
  5
B3
330
1F
100
AcDbEntity
  8
点划线
100
AcDbCircle
 10
131.0535357550955
 20
25.62360579731432
 30
0.0
 40
20.0
100
AcDbArc
 50
58.00000000000003
 51
122.0
  0
ARC
  5
B4
330
1F
100
AcDbEntity
  8
轮廓线
100
AcDbCircle
 10
131.0535357550955
 20
25.62360579731432
 30
0.0
 40
23.0
100
AcDbArc
 50
58.00000000000005
 51
122.0
  0
LWPOLYLINE
  5
B7
330
1F
100
AcDbEntity
  8
点划线
100
AcDbPolyline
 90
        2
 70
     0
 43
0.0
 10
118.8653926777318
 20
45.12871200891211
 10
118.5535357550955
 20
45.62778741032744
  0
LWPOLYLINE
  5
B8
330
1F
100
AcDbEntity
  8
点划线
100
AcDbPolyline
 90
        2
 70
     0
 43
0.0
 10
143.2416788324592
 20
45.1287120089121
 10
143.5535357550955
 20
45.62778741032747
  0
LWPOLYLINE
  5
BC
102
{ACAD_REACTORS
330
230
102
}
330
1F
100
AcDbEntity
  8
轮廓线
100
AcDbPolyline
 90
        3
 70
     0
 43
0.0
 10
121.5149889988978
 20
40.88847152813
 10
118.5535357550955
 20
45.62778741032744
 10
118.5535357550955
 20
75.62360579731433
  0
LWPOLYLINE
  5
BD
102
{ACAD_REACTORS
330
15E
102
}
330
1F
100
AcDbEntity
  8
轮廓线
100
AcDbPolyline
 90
        3
 70
     0
 43
0.0
 10
140.5920825112932
 20
40.88847152813
 10
143.5535357550955
 20
45.62778741032747
 10
143.5535357550955
 20
75.62360579731433
  0
LWPOLYLINE
  5
BE
102
{ACAD_REACTORS
330
230
102
}
330
1F
100
AcDbEntity
  8
点划线
100
AcDbPolyline
 90
        2
 70
     0
 43
0.0
 10
131.0535357550955
 20
25.62360579731433
 10
121.5149889988978
 20
40.88847152813
  0
LWPOLYLINE
  5
BF
102
{ACAD_REACTORS
330
176
330
1C2
102
}
330
1F
100
AcDbEntity
  8
点划线
100
AcDbPolyline
 90
        2
 70
     0
 43
0.0
 10
131.0535357550955
 20
25.62360579731434
 10
140.5920825112932
 20
40.88847152813
  0
LWPOLYLINE
  5
C0
330
1F
100
AcDbEntity
  8
轮廓线
100
AcDbPolyline
 90
        2
 70
     0
 43
0.0
 10
118.5535357550955
 20
56.62360579731433
 10
122.5535357550955
 20
56.62360579731433
  0
LWPOLYLINE
  5
C1
330
1F
100
AcDbEntity
  8
轮廓线
100
AcDbPolyline
 90
        2
 70
     0
 43
0.0
 10
118.5535357550955
 20
51.62360579731433
 10
122.5535357550955
 20
51.62360579731433
  0
LWPOLYLINE
  5
C4
330
1F
100
AcDbEntity
  8
轮廓线
100
AcDbPolyline
 90
        2
 70
     0
 43
0.0
 10
139.5535357550955
 20
56.62360579731433
 10
143.5535357550955
 20
56.62360579731433
  0
LWPOLYLINE
  5
C5
102
{ACAD_REACTORS
330
146
102
}
330
1F
100
AcDbEntity
  8
轮廓线
100
AcDbPolyline
 90
        2
 70
     0
 43
0.0
 10
139.5535357550955
 20
51.62360579731433
 10
143.5535357550955
 20
51.62360579731433
  0
ARC
  5
CC
330
1F
100
AcDbEntity
  8
轮廓线
100
AcDbCircle
 10
122.5535357550955
 20
54.12360579731433
 30
0.0
 40
2.5
100
AcDbArc
 50
270.0
 51
90.0
  0
ARC
  5
CD
330
1F
100
AcDbEntity
  8
轮廓线
100
AcDbCircle
 10
139.5535357550955
 20
54.12360579731433
 30
0.0
 40
2.5
100
AcDbArc
 50
90.0
 51
270.0
  0
LWPOLYLINE
  5
CE
102
{ACAD_REACTORS
330
15E
102
}
330
1F
100
AcDbEntity
  8
轮廓线
100
AcDbPolyline
 90
        3
 70
     0
 43
0.0
 10
140.5920825112932
 20
110.3587400664987
 10
143.5535357550955
 20
105.6194241843012
 10
143.5535357550955
 20
75.62360579731433
  0
LWPOLYLINE
  5
CF
102
{ACAD_REACTORS
330
1AA
102
}
330
1F
100
AcDbEntity
  8
轮廓线
100
AcDbPolyline
 90
        3
 70
     0
 43
0.0
 10
121.5149889988978
 20
110.3587400664987
 10
118.5535357550955
 20
105.6194241843012
 10
118.5535357550955
 20
75.62360579731433
  0
LWPOLYLINE
  5
D0
330
1F
100
AcDbEntity
  8
点划线
100
AcDbPolyline
 90
        2
 70
     0
 43
0.0
 10
131.0535357550955
 20
125.6236057973143
 10
140.5920825112932
 20
110.3587400664987
  0
LWPOLYLINE
  5
D1
330
1F
100
AcDbEntity
  8
点划线
100
AcDbPolyline
 90
        2
 70
     0
 43
0.0
 10
131.0535357550955
 20
125.6236057973143
 10
121.5149889988978
 20
110.3587400664987
  0
ARC
  5
D2
102
{ACAD_REACTORS
330
250
102
}
330
1F
100
AcDbEntity
  8
点划线
100
AcDbCircle
 10
131.0535357550955
 20
125.6236057973143
 30
0.0
 40
20.0
100
AcDbArc
 50
238.0
 51
301.9999999999999
  0
LWPOLYLINE
  5
D3
330
1F
100
AcDbEntity
  8
轮廓线
100
AcDbPolyline
 90
        2
 70
     0
 43
0.0
 10
118.5535357550955
 20
89.62360579731433
 10
143.5535357550955
 20
89.62360579731433
  0
ARC
  5
D4
102
{ACAD_REACTORS
330
176
102
}
330
1F
100
AcDbEntity
  8
轮廓线
100
AcDbCircle
 10
131.0535357550955
 20
125.6236057973143
 30
0.0
 40
18.0
100
AcDbArc
 50
237.9999999999999
 51
302.0
  0
ARC
  5
D5
102
{ACAD_REACTORS
330
260
102
}
330
1F
100
AcDbEntity
  8
轮廓线
100
AcDbCircle
 10
131.0535357550955
 20
125.6236057973143
 30
0.0
 40
23.0
100
AcDbArc
 50
237.9999999999999
 51
301.9999999999999
  0
LWPOLYLINE
  5
D6
330
1F
100
AcDbEntity
  8
点划线
100
AcDbPolyline
 90
        2
 70
     0
 43
0.0
 10
118.8653926777318
 20
106.1184995857165
 10
118.5535357550955
 20
105.6194241843012
  0
ARC
  5
D7
102
{ACAD_REACTORS
330
272
102
}
330
1F
100
AcDbEntity
  8
轮廓线
100
AcDbCircle
 10
122.5535357550955
 20
97.12360579731433
 30
0.0
 40
2.5
100
AcDbArc
 50
270.0
 51
90.00000000000001
  0
LWPOLYLINE
  5
D8
330
1F
100
AcDbEntity
  8
轮廓线
100
AcDbPolyline
 90
        2
 70
     0
 43
0.0
 10
118.5535357550955
 20
99.62360579731433
 10
122.5535357550955
 20
99.62360579731433
  0
LWPOLYLINE
  5
D9
330
1F
100
AcDbEntity
  8
轮廓线
100
AcDbPolyline
 90
        2
 70
     0
 43
0.0
 10
118.5535357550955
 20
94.62360579731433
 10
122.5535357550955
 20
94.62360579731433
  0
LWPOLYLINE
  5
DA
330
1F
100
AcDbEntity
  8
点划线
100
AcDbPolyline
 90
        2
 70
     0
 43
0.0
 10
143.2416788324592
 20
106.1184995857165
 10
143.5535357550955
 20
105.6194241843012
  0
ARC
  5
DB
102
{ACAD_REACTORS
330
192
102
}
330
1F
100
AcDbEntity
  8
轮廓线
100
AcDbCircle
 10
139.5535357550955
 20
97.12360579731433
 30
0.0
 40
2.5
100
AcDbArc
 50
90.00000000000001
 51
270.0
  0
LWPOLYLINE
  5
DC
102
{ACAD_REACTORS
330
146
102
}
330
1F
100
AcDbEntity
  8
轮廓线
100
AcDbPolyline
 90
        2
 70
     0
 43
0.0
 10
139.5535357550955
 20
99.62360579731433
 10
143.5535357550955
 20
99.62360579731433
  0
LWPOLYLINE
  5
DD
102
{ACAD_REACTORS
330
192
102
}
330
1F
100
AcDbEntity
  8
轮廓线
100
AcDbPolyline
 90
        2
 70
     0
 43
0.0
 10
139.5535357550955
 20
94.62360579731433
 10
143.5535357550955
 20
94.62360579731433
  0
ARC
  5
E5
102
{ACAD_REACTORS
330
1F6
102
}
330
1F
100
AcDbEntity
  8
轮廓线
100
AcDbCircle
 10
55.21424764124617
 20
75.62360579731433
 30
0.0
 40
14.0
100
AcDbArc
 50
106.6015495990202
 51
73.39845040097977
  0
CIRCLE
  5
E6
330
1F
100
AcDbEntity
  8
轮廓线
100
AcDbCircle
 10
55.21424764124617
 20
75.62360579731433
 30
0.0
 40
19.0
  0
CIRCLE
  5
E7
330
1F
100
AcDbEntity
  8
轮廓线
100
AcDbCircle
 10
55.21424764124617
 20
75.62360579731433
 30
0.0
 40
24.0
  0
CIRCLE
  5
E8
330
1F
100
AcDbEntity
  8
轮廓线
100
AcDbCircle
 10
55.21424764124617
 20
75.62360579731433
 30
0.0
 40
29.99627854506095
  0
CIRCLE
  5
E9
330
1F
100
AcDbEntity
  8
轮廓线
100
AcDbCircle
 10
55.21424764124617
 20
75.62360579731433
 30
0.0
 40
30.49489378840221
  0
CIRCLE
  5
EA
330
1F
100
AcDbEntity
  8
点划线
100
AcDbCircle
 10
55.21424764124617
 20
75.62360579731433
 30
0.0
 40
33.03903807687149
  0
CIRCLE
  5
EB
330
1F
100
AcDbEntity
  8
轮廓线
100
AcDbCircle
 10
55.21424764124617
 20
75.62360579731433
 30
0.0
 40
34.73513426918433
  0
LWPOLYLINE
  5
EC
102
{ACAD_REACTORS
330
1DE
102
}
330
1F
100
AcDbEntity
  8
轮廓线
100
AcDbPolyline
 90
        2
 70
     0
 43
0.0
 10
51.21424764124617
 20
92.62360579731433
 10
59.21424764124617
 20
92.62360579731433
  0
LWPOLYLINE
  5
F1
330
1F
100
AcDbEntity
  8
轮廓线
100
AcDbPolyline
 90
        2
 70
     0
 43
0.0
 10
118.5535357550955
 20
92.62360579731433
 10
143.5535357550955
 20
92.62360579731433
  0
LWPOLYLINE
  5
F2
330
1F
100
AcDbEntity
  8
轮廓线
100
AcDbPolyline
 90
        2
 70
     0
 43
0.0
 10
51.21424764124617
 20
89.04001366231304
 10
51.21424764124617
 20
92.62360579731433
  0
LWPOLYLINE
  5
F3
330
1F
100
AcDbEntity
  8
轮廓线
100
AcDbPolyline
 90
        2
 70
     0
 43
0.0
 10
59.21424764124617
 20
89.04001366231304
 10
59.21424764124617
 20
92.62360579731433
  0
HATCH
  5
118
330
1F
100
AcDbEntity
  8
轮廓线
100
AcDbHatch
 10
0.0
 20
0.0
 30
0.0
210
0.0
220
0.0
230
1.0
  2
ANSI31
 70
     0
 71
     0
 91
        4
 92
        7
 72
     1
 73
     1
 93
        9
 10
131.0535357550955
 20
102.6236057973144
 42
-0.1405408347023914
 10
118.8653926777318
 20
106.1184995857165
 42
0.0
 10
118.5535357550955
 20
105.6194241843012
 42
0.0
 10
118.5535357550955
 20
99.62360579731433
 42
0.0
 10
122.5535357550955
 20
99.62360579731433
 42
-1.0
 10
122.5535357550955
 20
94.62360579731433
 42
0.0
 10
118.5535357550955
 20
94.62360579731433
 42
0.0
 10
118.5535357550955
 20
92.62360579731431
 42
0.0
 10
131.0535357550955
 20
92.62360579731431
 42
0.0
 97
        0
 92
        7
 72
     1
 73
     1
 93
        9
 10
139.5535357550955
 20
99.62360579731433
 42
0.0
 10
143.5535357550955
 20
99.62360579731433
 42
0.0
 10
143.5535357550955
 20
105.6194241843012
 42
0.0
 10
143.2416788324592
 20
106.1184995857165
 42
-0.1405408347023912
 10
131.0535357550955
 20
102.6236057973144
 42
0.0
 10
131.0535357550955
 20
92.62360579731433
 42
0.0
 10
143.5535357550955
 20
92.62360579731431
 42
0.0
 10
143.5535357550955
 20
94.62360579731433
 42
0.0
 10
139.5535357550955
 20
94.62360579731433
 42
-1.0
 97
        0
 92
        7
 72
     1
 73
     1
 93
        9
 10
143.5535357550955
 20
61.62360579731432
 42
0.0
 10
131.0535357550955
 20
61.62360579731433
 42
0.0
 10
131.0535357550955
 20
48.62360579731431
 42
-0.1405408347023912
 10
143.2416788324592
 20
45.12871200891212
 42
0.0
 10
143.5535357550955
 20
45.62778741032748
 42
0.0
 10
143.5535357550955
 20
51.62360579731433
 42
0.0
 10
139.5535357550955
 20
51.62360579731433
 42
-1.0
 10
139.5535357550955
 20
56.62360579731433
 42
0.0
 10
143.5535357550955
 20
56.62360579731433
 42
0.0
 97
        0
 92
        7
 72
     1
 73
     1
 93
        9
 10
131.0535357550955
 20
61.62360579731433
 42
0.0
 10
118.5535357550955
 20
61.62360579731433
 42
0.0
 10
118.5535357550955
 20
56.62360579731433
 42
0.0
 10
122.5535357550955
 20
56.62360579731433
 42
-1.0
 10
122.5535357550955
 20
51.62360579731433
 42
0.0
 10
118.5535357550955
 20
51.62360579731433
 42
0.0
 10
118.5535357550955
 20
45.62778741032744
 42
0.0
 10
118.8653926777318
 20
45.1287120089121
 42
-0.1405408347023916
 10
131.0535357550955
 20
48.62360579731431
 42
0.0
 97
        0
 75
     0
 76
     1
 52
0.0
 41
0.6
 77
     0
 78
     1
 53
45.0
 43
0.0
 44
0.0
 45
-1.347038418160373
 46
1.347038418160373
 79
     0
 47
0.2310664135363224
 98
        4
 10
127.3361497461644
 20
98.93113316856108
 10
134.505936465159
 20
97.54473451957352
 10
134.2746528877876
 20
56.87704585938332
 10
128.0300000138876
 20
56.87704585938332
  0
LWPOLYLINE
  5
120
102
{ACAD_REACTORS
330
1C2
102
}
330
1F
100
AcDbEntity
  8
点划线
100
AcDbPolyline
 90
        2
 70
     0
 43
0.0
 10
114.5535357550955
 20
75.62360579731433
 10
147.5535357550955
 20
75.62360579731433
  0
DIMENSION
  5
121
330
1F
100
AcDbEntity
  8
文本层
100
AcDbDimension
  2
*D1
 10
154.7068673216252
 20
94.62360579731433
 30
0.0
 11
151.5818673216251
 21
75.62360579731434
 31
0.0
 70
    32
 71
     5
 42
38.00000000000001
  3
机械标注
100
AcDbAlignedDimension
 13
142.8340645595782
 23
56.62360579731431
 33
0.0
 14
143.1169888510878
 24
94.62360579731433
 34
0.0
 52
0.0
 50
90.0
100
AcDbRotatedDimension
  0
DIMENSION
  5
12F
102
{ACAD_REACTORS
330
146
102
}
102
{ACAD_XDICTIONARY
360
13C
102
}
330
1F
100
AcDbEntity
  8
文本层
100
AcDbDimension
  2
*D2
 10
162.4496900126363
 20
51.62360579731432
 30
0.0
 11
159.3246900126363
 21
75.62360579731434
 31
0.0
 70
    32
 71
     5
 42
48.0
  3
机械标注
100
AcDbAlignedDimension
 13
143.5535357550955
 23
99.62360579731433
 33
0.0
 14
143.5535357550955
 24
51.62360579731433
 34
0.0
 52
0.0
 50
90.0
100
AcDbRotatedDimension
  0
DIMENSION
  5
147
102
{ACAD_REACTORS
330
15E
102
}
102
{ACAD_XDICTIONARY
360
154
102
}
330
1F
100
AcDbEntity
  8
文本层
100
AcDbDimension
  2
*D3
 10
169.3284872895487
 20
105.6194241843012
 30
0.0
 11
166.2034872895486
 21
75.62360579731434
 31
0.0
 70
    32
 71
     5
 42
59.99163677397371
  3
机械标注
100
AcDbAlignedDimension
 13
143.5535357550955
 23
45.62778741032747
 33
0.0
 14
143.5535357550955
 24
105.6194241843012
 34
0.0
 52
0.0
 50
90.0
100
AcDbRotatedDimension
  0
DIMENSION
  5
15F
102
{ACAD_REACTORS
330
176
102
}
102
{ACAD_XDICTIONARY
360
16C
102
}
330
1F
100
AcDbEntity
  8
文本层
100
AcDbDimension
  2
*D4
 10
177.4744732852537
 20
40.88847152812999
 30
0.0
 11
174.3494732852537
 21
75.62360579731434
 31
0.0
 70
    32
 71
     5
 42
69.47026853836863
  3
机械标注
100
AcDbAlignedDimension
 13
140.5920825112932
 23
110.3587400664986
 33
0.0
 14
140.5920825112932
 24
40.88847152813
 34
0.0
 52
0.0
 50
90.0
100
AcDbRotatedDimension
  0
DIMENSION
  5
177
102
{ACAD_REACTORS
330
192
102
}
102
{ACAD_XDICTIONARY
360
186
102
}
330
1F
100
AcDbEntity
  8
文本层
100
AcDbDimension
  2
*D5
 10
143.5535357550955
 20
81.50086403486836
 30
0.0
 11
125.6785357550955
 21
81.50086403486836
 31
0.0
 70
   160
 71
     5
 42
6.5
  3
机械标注
100
AcDbAlignedDimension
 13
137.0535357550955
 23
97.12360579731433
 33
0.0
 14
143.5535357550955
 24
94.62360579731433
 34
0.0
 52
0.0
100
AcDbRotatedDimension
  0
DIMENSION
  5
193
102
{ACAD_REACTORS
330
1AA
102
}
102
{ACAD_XDICTIONARY
360
1A0
102
}
330
1F
100
AcDbEntity
  8
文本层
100
AcDbDimension
  2
*D6
 10
143.5535357550955
 20
133.2521687770404
 30
0.0
 11
131.0535357550955
 21
136.3771687770404
 31
0.0
 70
    32
 71
     5
 42
25.0
  3
机械标注
100
AcDbAlignedDimension
 13
118.5535357550955
 23
105.6194241843012
 33
0.0
 14
143.5535357550955
 24
105.6194241843012
 34
0.0
 52
0.0
100
AcDbRotatedDimension
  0
DIMENSION
  5
1AB
102
{ACAD_REACTORS
330
1C2
102
}
102
{ACAD_XDICTIONARY
360
1B8
102
}
330
1F
100
AcDbEntity
  8
文本层
100
AcDbDimension
  2
*D7
 10
107.5835569525491
 20
25.62360579731434
 30
0.0
 11
104.4585569525491
 21
50.62360579731435
 31
0.0
 70
    32
 71
     5
 42
49.99999999999999
  3
机械标注
100
AcDbAlignedDimension
 13
116.3428089389515
 23
75.62360579731433
 33
0.0
 14
131.0535357550955
 24
25.62360579731434
 34
0.0
 52
0.0
 50
90.0
100
AcDbRotatedDimension
  0
DIMENSION
  5
1C3
102
{ACAD_REACTORS
330
1DE
102
}
102
{ACAD_XDICTIONARY
360
1D2
102
}
330
1F
100
AcDbEntity
  8
文本层
100
AcDbDimension
  2
*D8
 10
59.21424764124617
 20
122.086598901173
 30
0.0
 11
55.21424764124617
 21
125.211598901173
 31
0.0
 70
    32
 71
     5
 42
8.0
  3
机械标注
100
AcDbAlignedDimension
 13
51.21424764124617
 23
92.62360579731433
 33
0.0
 14
59.21424764124617
 24
92.62360579731433
 34
0.0
 52
0.0
100
AcDbRotatedDimension
  0
DIMENSION
  5
1DF
102
{ACAD_REACTORS
330
1F6
102
}
102
{ACAD_XDICTIONARY
360
1EC
102
}
330
1F
100
AcDbEntity
  8
文本层
100
AcDbDimension
  2
*D9
 10
9.026449142308476
 20
61.62360579731434
 30
0.0
 11
5.901449142308466
 21
77.12360579731434
 31
0.0
 70
    32
 71
     5
 42
31.0
  3
机械标注
100
AcDbAlignedDimension
 13
51.21424764124617
 23
92.62360579731433
 33
0.0
 14
55.21424764124617
 24
61.62360579731433
 34
0.0
 52
0.0
 50
90.0
100
AcDbRotatedDimension
  0
DIMENSION
  5
211
102
{ACAD_REACTORS
330
230
102
}
102
{ACAD_XDICTIONARY
360
222
102
}
330
1F
100
AcDbEntity
  8
文本层
100
AcDbDimension
  2
*D11
 10
123.8688739679086
 20
17.40717217120978
 30
0.0
 11
126.4689650178361
 21
18.02340507024488
 31
0.0
 70
    34
 71
     5
 42
0.5585053606381845
  3
机械标注$2
100
AcDb2LineAngularDimension
 13
131.0535357550955
 23
25.62360579731433
 33
0.0
 14
121.5149889988978
 24
40.88847152813
 34
0.0
 15
118.5535357550955
 25
45.62778741032744
 35
0.0
 16
118.5535357550955
 26
75.62360579731433
 36
0.0
  0
DIMENSION
  5
231
102
{ACAD_REACTORS
330
240
102
}
102
{ACAD_XDICTIONARY
360
23A
102
}
330
1F
100
AcDbEntity
  8
文本层
100
AcDbDimension
  2
*D12
 10
131.0535357550949
 20
25.62360579731443
 30
0.0
 11
132.6658380617451
 21
31.0125858744692
 31
0.0
 70
   164
 71
     5
 42
18.00000000000007
  3
机械标注
100
AcDbRadialDimension
 15
136.2129031363756
 25
42.86834204420957
 35
0.0
 40
0.0
1001
ACAD
1000
DSTYLE
1002
{
1070
   288
1070
     1
1002
}
  0
DIMENSION
  5
241
102
{ACAD_REACTORS
330
250
102
}
102
{ACAD_XDICTIONARY
360
24A
102
}
330
1F
100
AcDbEntity
  8
文本层
100
AcDbDimension
  2
*D13
 10
131.0535357550955
 20
125.6236057973144
 30
0.0
 11
128.6958024660509
 21
118.37228048826
 31
0.0
 70
   164
 71
     5
 42
20.0
  3
机械标注
100
AcDbRadialDimension
 15
124.8693172920278
 25
106.6037361342211
 35
0.0
 40
0.0
1001
ACAD
1000
DSTYLE
1002
{
1070
   288
1070
     1
1002
}
  0
DIMENSION
  5
251
102
{ACAD_REACTORS
330
260
102
}
102
{ACAD_XDICTIONARY
360
25A
102
}
330
1F
100
AcDbEntity
  8
文本层
100
AcDbDimension
  2
*D14
 10
131.0535357550955
 20
125.6236057973145
 30
0.0
 11
134.7706824961513
 21
115.6700413550927
 31
0.0
 70
   164
 71
     5
 42
23.00000000000009
  3
机械标注
100
AcDbRadialDimension
 15
139.1000651710279
 25
104.0770662988581
 35
0.0
 40
0.0
1001
ACAD
1000
DSTYLE
1002
{
1070
   288
1070
     1
1002
}
  0
DIMENSION
  5
261
102
{ACAD_REACTORS
330
272
102
}
102
{ACAD_XDICTIONARY
360
26B
102
}
330
1F
100
AcDbEntity
  8
文本层
100
AcDbDimension
  2
*D15
 10
122.5535357550954
 20
97.1236057973144
 30
0.0
 11
113.5137376942587
 21
100.044573277327
 31
0.0
 70
   164
 71
     5
 42
2.500000000000099
  3
机械标注
100
AcDbRadialDimension
 15
124.9324299816315
 25
96.35493014467946
 35
0.0
 40
0.0
1001
ACAD
1000
DSTYLE
1002
{
1070
   279
1070
     1
1070
   288
1070
     1
1002
}
  0
VIEWPORT
  5
28D
330
5E
100
AcDbEntity
 67
     1
  8
0
100
AcDbViewport
 10
133.3499908447266
 20
101.5999970436096
 30
0.0
 40
420.6540395483951
 41
228.4221935424805
 68
     1
 69
     1
 12
133.3499908447266
 22
101.5999970436096
 13
0.0
 23
0.0
 14
10.0
 24
10.0
 15
10.0
 25
10.0
 16
0.0
 26
0.0
 36
1.0
 17
0.0
 27
0.0
 37
0.0
 42
50.0
 43
0.0
 44
0.0
 45
228.4221935424805
 50
0.0
 51
0.0
 72
   100
 90
    32800
  1

281
     0
 71
     1
 74
     0
110
0.0
120
0.0
130
0.0
111
1.0
121
0.0
131
0.0
112
0.0
122
1.0
132
0.0
 79
     0
146
0.0
348
0
340
0
345
0
346
0
  0
VIEWPORT
  5
28F
330
5E
100
AcDbEntity
 67
     1
  8
文本层
100
AcDbViewport
 10
133.3499939441681
 20
101.5999939441681
 30
0.0
 40
213.3599903106689
 41
162.5599903106689
 68
     1
 69
     2
 12
91.68796121378109
 22
76.64406640583601
 13
0.0
 23
0.0
 14
10.0
 24
10.0
 15
10.0
 25
10.0
 16
0.0
 26
0.0
 36
1.0
 17
0.0
 27
0.0
 37
0.0
 42
50.0
 43
0.0
 44
0.0
 45
136.3176467084523
 50
0.0
 51
0.0
 72
   100
 90
    32864
  1

281
     0
 71
     1
 74
     0
110
0.0
120
0.0
130
0.0
111
1.0
121
0.0
131
0.0
112
0.0
122
1.0
132
0.0
 79
     0
146
0.0
348
0
340
0
345
0
346
0
  0
ENDSEC
  0
SECTION
  2
OBJECTS
  0
DICTIONARY
  5
C
330
0
100
AcDbDictionary
281
     1
  3
ACAD_GROUP
350
D
  3
ACAD_LAYOUT
350
1A
  3
ACAD_MLINESTYLE
350
17
  3
ACAD_PLOTSETTINGS
350
19
  3
ACAD_PLOTSTYLENAME
350
E
  3
AcDbVariableDictionary
350
67
  0
DICTIONARY
  5
D
102
{ACAD_REACTORS
330
C
102
}
330
C
100
AcDbDictionary
281
     1
  0
ACDBDICTIONARYWDFLT
  5
E
102
{ACAD_REACTORS
330
C
102
}
330
C
100
AcDbDictionary
281
     1
  3
Normal
350
F
100
AcDbDictionaryWithDefault
340
F
  0
ACDBPLACEHOLDER
  5
F
102
{ACAD_REACTORS
330
E
102
}
330
E
  0
DICTIONARY
  5
17
102
{ACAD_REACTORS
330
C
102
}
330
C
100
AcDbDictionary
281
     1
  3
Standard
350
18
  0
MLINESTYLE
  5
18
102
{ACAD_REACTORS
330
17
102
}
330
17
100
AcDbMlineStyle
  2
STANDARD
 70
     0
  3

 62
   256
 51
90.0
 52
90.0
 71
     2
 49
0.5
 62
   256
  6
BYLAYER
 49
-0.5
 62
   256
  6
BYLAYER
  0
DICTIONARY
  5
19
102
{ACAD_REACTORS
330
C
102
}
330
C
100
AcDbDictionary
281
     1
  0
DICTIONARY
  5
1A
102
{ACAD_REACTORS
330
C
102
}
330
C
100
AcDbDictionary
281
     1
  3
Model
350
22
  3
布局1
350
5A
  3
布局2
350
5F
  0
LAYOUT
  5
22
102
{ACAD_REACTORS
330
1A
102
}
330
1A
100
AcDbPlotSettings
  1

  2
none_device
  4
ANSI_A_(8.50_x_11.00_Inches)
  6

 40
6.349999904632568
 41
19.04999923706055
 42
6.350006103515625
 43
19.04998779296875
 44
215.8999938964844
 45
279.3999938964844
 46
0.0
 47
0.0
 48
0.0
 49
0.0
140
0.0
141
0.0
  6

142
1.0
143
57.07986212157697
 70
 11952
 72
     0
 73
     1
 74
     0
  7

 75
     0
147
0.01751931351673652
148
-2282.040442273535
149
2.561166666666503
100
AcDbLayout
  1
Model
 70
     1
 71
     0
 10
0.0
 20
0.0
 11
12.0
 21
9.0
 12
0.0
 22
0.0
 32
0.0
 14
0.0
 24
0.0
 34
0.0
 15
0.0
 25
0.0
 35
0.0
146
0.0
 13
0.0
 23
0.0
 33
0.0
 16
1.0
 26
0.0
 36
0.0
 17
0.0
 27
1.0
 37
0.0
 76
     0
330
1F
  0
LAYOUT
  5
5A
102
{ACAD_REACTORS
330
1A
102
}
330
1A
100
AcDbPlotSettings
  1

  2
none_device
  4
Letter_(8.50_x_11.00_Inches)
  6

 40
6.349999904632568
 41
6.349999904632568
 42
6.350006103515625
 43
6.350006103515625
 44
215.8999938964844
 45
279.3999938964844
 46
0.0
 47
0.0
 48
0.0
 49
0.0
140
0.0
141
0.0
  6

142
1.0
143
1.0
 70
   688
 72
     1
 73
     1
 74
     5
  7

 75
    16
147
1.0
148
0.0
149
0.0
100
AcDbLayout
  1
布局1
 70
     1
 71
     1
 10
-6.350006103515625
 20
-6.349999904632568
 11
273.0499877929688
 21
209.5499939918518
 12
0.0
 22
0.0
 32
0.0
 14
26.66999878883362
 24
20.31999878883363
 34
0.0
 15
240.0299890995026
 25
182.8799890995026
 35
0.0
146
0.0
 13
0.0
 23
0.0
 33
0.0
 16
1.0
 26
0.0
 36
0.0
 17
0.0
 27
1.0
 37
0.0
 76
     0
330
59
331
76
  0
LAYOUT
  5
5F
102
{ACAD_REACTORS
330
1A
102
}
330
1A
100
AcDbPlotSettings
  1

  2
none_device
  4
Letter_(8.50_x_11.00_Inches)
  6

 40
6.349999904632568
 41
6.349999904632568
 42
6.350006103515625
 43
6.350006103515625
 44
215.8999938964844
 45
279.3999938964844
 46
0.0
 47
0.0
 48
0.0
 49
0.0
140
0.0
141
0.0
  6

142
1.0
143
1.0
 70
   688
 72
     1
 73
     1
 74
     5
  7

 75
    16
147
1.0
148
0.0
149
0.0
100
AcDbLayout
  1
布局2
 70
     1
 71
     2
 10
-6.350006103515625
 20
-6.349999904632568
 11
273.0499877929688
 21
209.5499939918518
 12
0.0
 22
0.0
 32
0.0
 14
26.66999878883362
 24
20.31999878883363
 34
0.0
 15
240.0299890995026
 25
182.8799890995026
 35
0.0
146
0.0
 13
0.0
 23
0.0
 33
0.0
 16
1.0
 26
0.0
 36
0.0
 17
0.0
 27
1.0
 37
0.0
 76
     0
330
5E
331
28D
  0
DICTIONARY
  5
67
102
{ACAD_REACTORS
330
C
102
}
330
C
100
AcDbDictionary
281
     1
  3
DIMASSOC
350
68
  3
HIDETEXT
350
6C
  0
DICTIONARYVAR
  5
68
102
{ACAD_REACTORS
330
67
102
}
330
67
100
DictionaryVariables
280
     0
  1
2
  0
DICTIONARYVAR
  5
6C
102
{ACAD_REACTORS
330
67
102
}
330
67
100
DictionaryVariables
280
     0
  1
1
  0
DICTIONARY
  5
13C
330
12F
100
AcDbDictionary
280
     1
281
     1
  3
ACAD_DIMASSOC
360
146
  0
DICTIONARY
  5
154
330
147
100
AcDbDictionary
280
     1
281
     1
  3
ACAD_DIMASSOC
360
15E
  0
DICTIONARY
  5
16C
330
15F
100
AcDbDictionary
280
     1
281
     1
  3
ACAD_DIMASSOC
360
176
  0
DICTIONARY
  5
186
330
177
100
AcDbDictionary
280
     1
281
     1
  3
ACAD_DIMASSOC
360
192
  0
DICTIONARY
  5
1A0
330
193
100
AcDbDictionary
280
     1
281
     1
  3
ACAD_DIMASSOC
360
1AA
  0
DICTIONARY
  5
1B8
330
1AB
100
AcDbDictionary
280
     1
281
     1
  3
ACAD_DIMASSOC
360
1C2
  0
DICTIONARY
  5
1D2
330
1C3
100
AcDbDictionary
280
     1
281
     1
  3
ACAD_DIMASSOC
360
1DE
  0
DICTIONARY
  5
1EC
330
1DF
100
AcDbDictionary
280
     1
281
     1
  3
ACAD_DIMASSOC
360
1F6
  0
DICTIONARY
  5
222
330
211
100
AcDbDictionary
280
     1
281
     1
  3
ACAD_DIMASSOC
360
230
  0
DICTIONARY
  5
23A
330
231
100
AcDbDictionary
280
     1
281
     1
  3
ACAD_DIMASSOC
360
240
  0
DICTIONARY
  5
24A
330
241
100
AcDbDictionary
280
     1
281
     1
  3
ACAD_DIMASSOC
360
250
  0
DICTIONARY
  5
25A
330
251
100
AcDbDictionary
280
     1
281
     1
  3
ACAD_DIMASSOC
360
260
  0
DICTIONARY
  5
26B
330
261
100
AcDbDictionary
280
     1
281
     1
  3
ACAD_DIMASSOC
360
272
  0
ENDSEC
  0
SECTION
  2
THUMBNAILIMAGE
 90
    18627
310
BF4800000201030100005000000002530100005C480000000000000000000000000000000000000000000000000000000000000000000000000000000000000000000000000000000000000000000000000000000000000000000000000000000000000000000028000000B400000061000000010008000000000034440000
310
00000000000000000001000000000000FFFFFF00FFFFFF0000000000FFFFFF00FFFFFF00FFFFFF00FFFFFF00FFFFFF00FFFFFF00FFFFFF00FFFFFF00330000006600000099000000CC000000FF00000000330000333300006633000099330000CC330000FF33000000660000336600006666000099660000CC660000FF6600
310
0000990000339900006699000099990000CC990000FF99000000CC000033CC000066CC000099CC0000CCCC0000FFCC000000FF000033FF000066FF000099FF0000CCFF0000FFFF000000003300330033006600330099003300CC003300FF00330000333300333333006633330099333300CC333300FF333300006633003366
310
33006666330099663300CC663300FF66330000993300339933006699330099993300CC993300FF99330000CC330033CC330066CC330099CC3300CCCC3300FFCC330000FF330033FF330066FF330099FF3300CCFF3300FFFF330000006600330066006600660099006600CC006600FF00660000336600333366006633660099
310
336600CC336600FF33660000666600336666006666660099666600CC666600FF66660000996600339966006699660099996600CC996600FF99660000CC660033CC660066CC660099CC6600CCCC6600FFCC660000FF660033FF660066FF660099FF6600CCFF6600FFFF660000009900330099006600990099009900CC009900
310
FF00990000339900333399006633990099339900CC339900FF33990000669900336699006666990099669900CC669900FF66990000999900339999006699990099999900CC999900FF99990000CC990033CC990066CC990099CC9900CCCC9900FFCC990000FF990033FF990066FF990099FF9900CCFF9900FFFF99000000CC
310
003300CC006600CC009900CC00CC00CC00FF00CC000033CC003333CC006633CC009933CC00CC33CC00FF33CC000066CC003366CC006666CC009966CC00CC66CC00FF66CC000099CC003399CC006699CC009999CC00CC99CC00FF99CC0000CCCC0033CCCC0066CCCC0099CCCC00CCCCCC00FFCCCC0000FFCC0033FFCC0066FF
310
CC0099FFCC00CCFFCC00FFFFCC000000FF003300FF006600FF009900FF00CC00FF00FF00FF000033FF003333FF006633FF009933FF00CC33FF00FF33FF000066FF003366FF006666FF009966FF00CC66FF00FF66FF000099FF003399FF006699FF009999FF00CC99FF00FF99FF0000CCFF0033CCFF0066CCFF0099CCFF00CC
310
CCFF00FFCCFF0000FFFF0033FFFF0066FFFF0099FFFF00CCFFFF0000000000FFFFFF000D0D0D001A1A1A00282828003535350043434300505050005D5D5D006B6B6B00787878008686860093939300A1A1A100AEAEAE00BBBBBB00C9C9C900D6D6D600E4E4E400F1F1F10000000000FFFFFF00FFFFFF00FFFFFF00FFFFFF00
310
FFFFFF00FFFFFF00FFFFFF00FFFFFF00FFFFFF00FFFFFF0000000000000000000000000000000000000000000000000000000000000000000000000000000000000000000000000000000000000000000000000000000000000000000000000000000000000000000000000000000000000000000000000000000000000000
310
00000000000000000000000000000000000000000000000000000000000000000000000000000000000000000000000000000000000000000000000000000000000000000000000000000000000000000000000000000000000000000000000000000000000000000000000000000000000000000000000000000000000000
310
00000000000000000000000000000000000000000000000000000000000000000000000000000000000000000000000000000000000000000000000000000000000000000000000000000000000000000000000000000000000000000000000000000000000000000000000000000000000000000000000000000000000000
310
00000000000000000000000000000000000000000000000000000000000000000000000000000000000000000000000000000000000000000000000000000000000000000000000000000000000000000000000000000000000000000000000000000000000000000000000000000000000000000000000000000000000000
310
00000000000000000000000000000000000000000000000000000000000000000000000000000000000000000000000000000000000000000000000000000000000000000000000000000000000000000000000000000000000000000000000000000000000000000000000000000000000000000000000000000000000000
310
00000000000000000000000000000000000000000000000000000000000000000000000000000000000000000000000000000000000000000000000000000000000000000000000000000000000000000000000000000000000000000000000000000000000000000000000000000000000000000000000000000000000000
310
00000000000000000000000000000000000000000000000000000000000000000000000000000000000000000000000000000000000000000000000000000000000000000000000000000000000000000000000000000000000000000000000000000000000000000000000000000000000000000000000000000000000000
310
00000000000000000000000000000000000000000000000000000000000000000000000000000000000000000000000000000000000000000000000000000000000000000000000000000000000000000000000000000000000000000000000000000000000000000000000000000000000000000000000000000000000000
310
00000000000000000000000000000000000000000000000000000000000000000000000000000000000000000000000000000000000000000000000000000000000000000000000000000000000000000000000000000000000000000000000000000000000000000000000000000000000000000000000000000000000000
310
00000000000000000000000000000000000000000000000000000000000000000000000000000000000000000000000000000000000000000000000000000000000000000000000000000000000000000000000000000000000000000000000000000000000000000000000000000000000000000000000000000000000000
310
00000000000000000000000000000000000000000000000000000000000000000000000000000000000000000000000000000000000000000000000000000000000000000000000000000000000000000000000000000000000000000000000000000000000000000000000000000000000000000000000000000000000000
310
00000000000000000000000000000000000000000000000000000000000000000000000000000000000000000000000000000000000000000000000000000000000000000000000000000000000000000000000000000000000000000000000000000000000000000000000000000000000000000000000000000000000000
310
00000000000000000000000000000000000000000000000000000000000000000000000000000000000000000000000000000000000000000000000000000000000000000000000000000000000000000000000000000000000000000000000000000000000000000000000000000000000000000000000000000000000000
310
00000000000000000000000000000000000000000000000000000000000000000000000000000000000000000000000000000000000000000000000000000000000000000000000000000000000000000000000000000000000000000000000000000000000000000000000000000000000000000000000000000000000000
310
00000000000000000000000000000000000000000000000000000000000000000000000000000000000000000000000000000000000000000000000000000000000000000000000000000000000000000000000000000000000000000000000000000000000000000000000000000000000000000000000000000000000000
310
00000000000000000000000000000000000000000000000000000000000000000000000000000000000000000000000000000000000000000000000000000000000000000000000000000000000000000000000000000000000000000000000000000000000000000000000000000000000000000000000000000000000000
310
00000000000000000000000000000000000000000000000000000000000000000000000000000000000000000000000000000000000000000000000000000000000000000000000000000000000000000000000000000000000000000000000000000000000000000000000000000000000000000000000000000000000000
310
00000000000000000000000000000000000000000000000000000000000000000000000000000000000000000000000000000000000000000000000000000000000000000000000000000000000000000000000000000000000000000000000000000000000000000000000000000000000000000000000000000000000000
310
009E0000000000000000000000000000000000000000000000000000000000000000000000000000000000000000000000000000000000000000000000000000000000000000000000000000000000000000000000000000000000000000000000000000000000000000000000000000000000000000000000000000000000
310
000000000000000000000000000000000000000000000000000000000000000000000000000000000000000000000000000000009E009E009E9E9E9E9E000000000000000000000000000000000000000000000000000000000000000000000000000000000000000000000000000000000000000000000000000000000000
310
000000000000000000000000000000000000000000000000000000000000000000000000000000000000000000000000000000000000000000000000000000000000000000000000000000000000000000000000000000000000000000000000000000000000009E9E9E9E9E9E9E9E9E9E0000000000000000000000000000
310
00000000000000000000000000000000000000000000000000000000000000000000000000000000000000000000000000000000000000000000000000000000000000000000000000000000000000000000000000000000000000000000000000000000000000000000000000000000000000000000000000000000000000
310
0000000000000000000000000000000000000000000000000000000000000000009E009E9E9E9E9E9E00009E0000000000000000000000000000000000000000000000000000000000000000000000000000000000000000000000000000000000000000000000000000000000000000000000000000000000000000000000
310
00000000000000000000000000000000000000000000000000000000000000000000000000000000000000000000000000000000000000000000000000000000000000000000000000000000000000000000000000009E00009E009E9E9E9E9E00000000000000000000000000000000000000000000000000000000000000
310
00000000000000000000000000000000000000000000000000000000000000000000000000000000000000000000000000000000000000000000000000000000000000000000000000000000000000000000000000000000000000000000000000000000000000000000000000000000000000000000000000000000000000
310
0000000000000000000000009E000000000000BE009E9E9E00000000000000000000000000000000000000000000000000000000000000000000000000000000000000000000000000000000000000000000000000000000000000000000000000000000000000000000000000000000000000000000000000000000000000
310
00000000000000000000000000000000000000000000000000000000000000000000000000000000000000000000000000000000000000000000000000000000009E000000000000BE9E0000009E00000000000000000000000000000000000000000000000000000000000000000000000000000000000000000000000000
310
00000000000000000000000000000000000000000000000000000000000000000000000000000000000000000000000000000000000000000000000000000000000000000000000000000000000000000000000000000000000000000000000000000000000000000000000000009E9E9E9E9E9E9E9E9E9E9E9E9E9E9E9E00
310
0000009E000000000000000000000000000000000000000000000000000000000000000000000000000000000000000000000000000000000000000000000000000000000000000000000000000000000000000000000000000000000000000000000000000000000000000000000000000000000000000000000000000000
310
00000000000000000000000000000000000000000000000000000000000000000000000000009E00000000009E0000009E9E9E9EBE0000000000000000000000000000000000000000000000000000000000000000000000000000000000000000000000000000000000000000000000000000000000000000000000000000
310
0000000000000000000000000000000000000000000000000000000000000000000000000000000000000000000000000000000000000000000000000000000000000000000000000000000000000000000000000000000000009E9E00000000009E000000009E9E9E9EBE0000000000000000000000000000000000000000
310
00000000000000000000000000000000000000000000000000000000000000000000000000000000000000000000000000000000000000000000000000000000000000000000000000000000000000000000000000000000000000000000000000000000000000000000000000000000000000000000000000000000000000
310
00000000000000000000000000000000009E00000000009E00000000BE9E9E9EBE00000000000000000000000000000000000000000000000000000000000000000000000000000000000000000000000000000000000000000000000000000000000000000000000000000000000000000000000000000000000000000000
310
000000000000000000000000000000000000000000000000000000000000000000000000000000000000000000000000000000000000000000000000000000000000000000009E00000000009E000000009E9E9E9E9EBE00000000000000000000000000000000000000000000000000000000000000000000000000000000
310
0000000000000000000000000000000000000000000000000000000000000000000000000000000000000000000000000000000000000000000000000000000000000000000000000000000000000000000000000000000000000000000000000000000000000000000000000000000000000000000000000000009E000000
310
00009E000000BE009E9E9E9E00BE0000000000000000000000000000000000000000000000000000000000000000000000000000000000000000000000000000000000000000000000000000000000000000000000000000000000000000000000000000000000000000000000000000000000000000000000000000000000
310
000000000000000000000000000000000000BE0000000000000000000000000000000000000000000000000000000000009E00000000009E0000BE00009E9E9E9E0000BE0000000000000000000000000000000000000000000000000000000000000000000000000000000000000000000000000000000000000000000000
310
00000000000000000000000000000000000000000000000000000000000000000000000000000000000000000000000000000000000000000000000000000000000000000000F5F5F500000000000000000000000000000000000000000000000000000000009E00000000009EF5F5BE000000BE00009E00BEF5F500000000
310
0000000000000000000000000000000000000000000000000000000000000000000000000000000000000000000000000000000000000000000000000000000000000000000000000000000000000000000000000000000000000000000000000000000000000000000000000000000000000000000000F5F5F5F5F5F5F5F5
310
F5F5F5000000000000000000000000000000000000000000000000009E00000000009EF59EF5F5F500BE00009EF5F59E9E9E9E9E9E9E9E9E9E9E9E9E9E9E9E9E9E9E9E9E9E9E9E0000000000000000000000000000000000000000000000000000000000000000000000000000000000000000000000000000000000000000
310
0000000000000000000000000000000000000000000000000000000000000000000000000000000000F5F5F5F5F5F5F5F5F5F5F5F5F5F5F5F5F5F5F50000000000000000000000000000000000000000009E00000000009EF5F5F5F5F5F5F5F5F59EF5F5F5F5F5000000000000000000000000000000000000009E00000000
310
0000000000000000000000000000000000000000000000000000000000000000000000000000000000000000000000000000000000000000000000000000000000000000000000000000000000000000000000000000000000000000F5F5F5F5F5F5F5F5F5F5F5F5F5F5F5F5F5F5F5F5F5F5F5000000000000000000000000
310
000000000000009E00000000F59EF5F5BEF5F5F5F5F5F5F5F5BEF5F5F5F500000000000000000000000000000000009E9E000000000000000000000000000000000000000000000000000000000000000000000000000000000000000000000000000000000000000000000000000000000000000000000000000000000000
310
0000000000000000000000000000000000F5F5F5F5F5F5F5F5F5F5F5F5F5F5F5F5F5F5F5F5F5F5F5F5F50000000000000000000000000000000000009E00000000F59EF5F5F5F5BEBEBEBEBEF5F5F5F5F59E9E9E9E9E9E9E9E9E9E9E9E9E9E9E9E9E0000009E00000000000000000000000000000000000000000000000000
310
0000000000000000000000000000000000000000000000000000000000000000000000000000000000000000000000000000000000000000000000000000000000000000F5F5F5F5F5F5F5F5F5F5F5F5F5F5F5F5F5F5F5F5F5F5F5F5F5F5F5F5F500000000000000000000000000009E9E9E00000000F5F5F5F5F5F5F5F5F5
310
F5F5F5F5F5F5F5F5F5000000000000000000000000009E000000009E0000000000000000000000000000000000000000000000000000000000000000000000000000000000000000000000000000000000000000000000000000000000000000000000000000000000000000000000000000000000000000F5F5F5F5F5F5F5
310
F5F5F5F500000000BE0000000000F5F5F5F5F5F5F5F5F5F500000000000000000000009E9E9E9E9E00000000F5F5F5F5F5F5F5F5F5F5F5F5F5F5F5F5F5F50000000000000000000000009E9E000000009E00000000000000000000000000000000000000000000000000000000000000000000000000000000000000000000
310
000000000000000000000000000000000000000000000000000000000000000000000000000000000000000000F5F5F5F5F5F5F5F5F5F50000F5F5F5F5F5F5F5F5F50000F5F5F5F5F5F5F5F5F5F500000000000000000000009E9E9E9E00000000F5F5F5F5F5F5F5F5F5F5F5F5F5F5F5F5F5F5000000000000000000000000
310
009E000000009E000000000000000000000000000000000000000000000000000000000000000000000000000000000000000000000000000000000000000000000000000000000000000000000000000000000000000000000000000000000000F5F5F5F5F5F5F5F5F500F5F5F5F5F5F5F5F5F5F5F5F5F5F5F500F5F5F5F5
310
F5F5F5F5F50000000000000000009E9E9E9E9E00000000F5F5F5F5F5F5F5F5F5F5F5F5F5F5F5F59E9E9E9E9E9E9E9E9E9E9E9E9E00009E000000009E00000000000000000000000000000000000000000000000000000000000000000000000000000000000000000000000000000000000000000000000000000000000000
310
00000000000000000000000000000000000000000000F5F5F5F5F5F5F5F5F5F5F5F5F5F5F5F5F5F5F5F5F5F5F5F5F5F5F5F5F5F5F5F5F5F5F5F5F50000000000000000009E9E9E9E00000000F5F5F5F5F5F5F5F5F5F5F5F5F5F5F5F5F5F50000000000000000009E0000009E000000009E0000000000000000000000000000
310
000000000000000000000000000000000000000000000000000000000000000000000000000000000000000000000000000000000000000000000000000000000000000000000000000000F5F5F5F5F5F5F5F5F5F5F5F5F5F500F5F5F5F5F5F5F5F5F5F5F5F5F5F500F5F5F5F5F5F5F50000000000000000000000009E0000
310
0000F5F5F5F5F5F5F5F5F5F5F5F5F5F5F59E9E9E9E9E9E9E9E9E9E009E9E0000009E000000009E00000000000000000000000000000000000000000000000000000000000000000000000000000000000000000000000000000000000000000000000000000000000000000000000000000000000000000000000000000000
310
00F5F5F5F5F5F5F5F5F5F5F5F5F5F5F5F5F5F5F5F5F5F5F5F5F5F5F5F5F5F500F5F5F5F5F5F5F500000000000000000000009E00000000F5F5F5F5F5F5F5F5F5F5F5F5F5F5F5F5F5F5000000009E9E0000009E0000009E000000009E0000000000000000000000000000000000000000000000000000000000000000000000
310
0000000000000000000000000000000000000000000000000000000000000000000000000000000000000000000000000000000000F5F5F5F5F5F5F5F5F5F5F5F5F5F5F5F5F5F500F5F5F5F5F5F5F5F5F5F5F5F5F5F5F5F5F5F5F5F500000000000000000000009E00000000F5F5F5F5F5F5F5F5F5F5F5F5F5F5F5F5F5F500
310
0000009E9E0000009E0000009E000000009E000000000000000000000000000000000000000000000000000000000000000000000000000000000000000000000000000000000000000000000000000000000000000000000000000000000000009E9E9E9E9E9E9E9E9E9E9E9E9E9E9E9E9E9E9E9E9E9E9E9E9E9E9E9E9EF5
310
F5F500F5F5F5F5F5F5F5F5F5F5F5F5BEF5F5F5000000000000000000009E00000000F5F5F5F5F5F5F5F5F5F5F5F5F5F5F5F5F5F5000000009E000000009E0000009E000000009E0000000000000000000000000000000000000000000000000000000000000000000000000000000000000000000000000000000000000000
310
0000000000000000000000000000000000000000000000009E000000000000F5F5F5F5F5F5F5F5F5F5F5F5F5F5F5F5F5F5F5F5F5F5F5F5F5F5F5F5F5F5F5F5F5F5F5F5F5F5F5F5F5000000000000000000009E00000000F5F5F5F5F5F5F5F5F5F5F5F5F5F5F5F5F5F5000000009E000000009E0000009E000000009E000000
310
00000000000000000000000000000000000000000000000000000000000000000000000000000000000000000000000000000000000000000000000000000000000000000000000000000000009E000000000000F5F5F5F5F5F5F5F5F5F5F5F5F5F5F5F5F5F5F5F5BE00F5F5F5F5F5F5F5F5F5F5F5F5F5F5F5F5F5F5F50000
310
00000000000000009E00000000F5F5F50000000000BE000000000000F5F5F5000000009E000000009E0000009E000000009E0000000000000000000000000000000000000000000000000000000000000000000000000000000000000000000000000000000000000000000000000000000000000000000000000000000000
310
0000009E0000000000F5F5F5BEF5F5F5F5F5F5F5F5F5F5F5F5F5F5000000BE000000F5F5F5F5F5F5F5F5F5F5F5F5F5F5F5F5F5F50000000000000000009E00000000F5F5F50000000000BE000000000000F5F5F5000000009E000000009E0000009E000000009E000000000000000000000000000000000000000000000000
310
00000000000000000000000000000000000000000000000000000000000000000000000000000000000000000000000000000000000000009E0000000000F5F5F5F5F5F5F5F5F500F5F5F5F5F5F5F500000000BE00000000F5F5F5F5F5F5F500F5F5F5F5F5F5F5F5F50000000000000000009E00000000F5F5F50000000000
310
BE000000000000F5F5F5000000009E000000009E0000009E000000009E00000000000000000000000000000000000000000000000000000000000000000000000000000000000000000000000000000000000000000000000000000000000000000000000000000000000000009E0000000000F5F5F5F5F5F5F5F5F5F5F5F5
310
F5F5F5F50000000000BE0000000000F5F5F5F5F5F5F5F5F5F5F5F5F5F5F5F50000000000000000009E00000000F5F5F50000000000BE000000000000F5F5F5000000009E000000009E0000009E009E9E9E9E000000000000000000000000000000000000000000000000000000000000000000000000000000000000000000
310
00000000000000000000000000000000000000000000000000000000000000000000009E0000000000F5F5F5F5F5F5F5F5F5F5F5F5F5F5F5000000000000BE000000000000F5F5F5F5F5F5F5F5F5F5F5F5F5F5F500000000000000009E9E00000000F5F5F5000000000000000000000000F5F5F5000000009E000000009E00
310
00009E9E9E9E9E9E00000000000000000000000000000000000000000000000000000000000000000000000000000000000000000000000000000000000000000000000000000000000000000000000000000000000000009E0000000000F5F5F5F5F5F5F5F5F5F5F5F5F5F5F5000000000000BE000000000000F5F5F5F5F5
310
F5F5F5F500F5F5F5F5F50000000000000000009E00000000F5F5F50000000000BE000000000000F5F5F5009E9E9E9E0000009E9E9E9E9E9E9E9E9E9E9E000000000000000000000000000000000000000000000000000000000000000000000000000000000000000000000000000000000000000000000000000000000000
310
00000000000000000000009E9E9E9E000000BEBEF5F5F5F5F5F5F5F5F5F5F5F5F5F5F5BEBEBEBEBEBEBEBEBEBEBEBEBEF5F5F5F5F5F5F5F5F5BEF5F5F5F5F5BEBE00000000009E9E9E9E9E9E9E9E9EBEBEBEBEBEBEBEBEBEBEBEBEBEBEBEBEBE9E9E9E9E009E9E9E9E9E9E9E9E9E9E9E9E9E00000000000000000000000000
310
000000000000000000000000000000000000000000000000000000000000000000000000000000000000000000000000000000000000000000000000000000009E9E9E9E0000000000F5F5F5F5F5F5F5F5F5F5F5F5F5F5F5000000000000BE000000000000F5F5F5F5F5F5F5F5F500F5F5F5F5F50000000000000000000000
310
000000F5F5F50000000000BE000000000000F5F5F5009E9E9E9E009E9E9E9E9E9E9E9E009E9E9E9E00000000000000000000000000000000000000000000000000000000000000000000000000000000000000000000000000000000000000000000000000000000000000000000000000000000009E9E9E9E0000000000F5
310
F5F5F5F5F5F5F5F5F5F5F5F5F5F5000000000000BE000000000000F5F5F5F5F5F5F5F5F500F5F5F5F5F50000000000000000000000000000F5F5F50000000000BE0000009E0000F59EF5009E9E9E9E009E9E9E9E9E9E9E9E9E9E9E9E9E00000000000000000000000000000000000000000000000000000000000000000000
310
000000000000000000000000000000000000000000000000000000000000000000000000000000000000000000009E0000000000F5F5F5F5F5F5F5F5F5F5F5F5F5F5F5F50000000000BE000000000000F5F5F5F5F5F5F5F5F5F5F5F5F5F5F50000000000000000000000000000F5F5F5000000000000009E009E0000F59EF5
310
9E0000009E000000009E0000009E9E9E9E9E9E00000000000000000000000000000000000000000000000000000000000000000000000000000000000000000000000000000000000000000000000000000000000000000000000000000000000000009E0000000000F5F5F5F5F5F5F5F5F5F5F5F5F5F5F5F5F500000000BE
310
0000000000F5F5F5F5F5F5F5F5F5F5F5F5F5F5F5F50000000000000000000000000000F5F5F59E9E9E9E9E9E9E9E9E9E9E9E9E9E9E9E9E9E009E000000009E0000009E00009E009E00000000000000000000000000000000000000000000000000000000000000000000000000000000000000000000000000000000000000
310
000000000000000000000000000000000000000000000000009E0000000000F5F5F5BEF5F500F5F5F5F5F5F5F5F5F5F500000000BE00000000F5F5F5F5F5F5F5F5F5F500F5F5F5F5F5F50000000000000000000000000000F5F5F59E9E9E9E9EBE0000009E0000F59EF5000000009E000000009E0000009E000000009E0000
310
0000000000000000000000000000000000000000000000000000000000000000000000000000000000000000000000000000000000000000000000000000000000000000000000000000000000009E000000000000F5F5F5F5F5F5F5F5F5F5F5F5F5F5F5F5F5000000BE000000F5F5F5F5F5F5F5F5F5F5F5F5F5F5F5F5F5F5
310
0000000000000000000000000000F5F5F59E9E009E9EBE0000009E0000F59EF5000000009E000000009E0000009E000000009E00000000000000000000000000000000000000000000000000000000000000000000000000000000000000000000000000000000000000000000000000000000000000000000000000000000
310
000000009E000000000000F5F5F5F5F5F5F5F5F5F5F5F5F5F5F5F5F5F5F500BE00F5F5F5F5F5F5F5F5F5F5F5F5F5F5F5F5F5F5F5000000000000000000000000000000F5F5F59E9EF59E9EF5F5F5F59EF5F5F59EF5000000009E000000009E0000009E000000009E0000000000000000000000000000000000000000000000
310
0000000000000000000000000000000000000000000000000000000000000000000000000000000000000000000000000000000000000000009E000000000000F5F5F5F5F5F5F5F5F5F5F5F5F5F5F5F5F5F5F5F500F5F5F5F5F5F5F5F5F5F5F5F5F500F5F5F5F5F5F5000000000000000000000000000000F5F5F5F5F5F5F5
310
F5F5F5F5F59EF5F5F59EF5000000009E000000009E0000009E000000009E00000000000000000000000000000000000000000000000000000000000000000000000000000000000000000000000000000000000000000000000000000000000000000000000000000000000000009E00000000000000F5F5F5F5F5F5F5F5F5
310
F5F5F5F5F5F5F5F5F5F5F5F5F5F500F5F5F5F5F5F5F5F5F5F5F5F5BEF5F5F5000000000000000000000000000000F5F5F5F5F5F5F5F5F5F5F5F59EF5F5F59EF5000000009E9E0000009E0000009E000000009E0000000000000000000000000000000000000000000000000000000000000000000000000000000000000000
310
00000000000000000000000000000000000000000000000000000000000000000000009E9E9E9E9E9E9E9E9E9E9E9E9E9E9E9E9E9E9E9E9E9E9E9E9E9E9EF5F5F59EF5F5F5F5F5F5F5F5F5F5F5F5F5F5F5F5F500000000000000000000000000000000F5F5F5F5F5F5F5F5F5F5F5F59EF5F5F59EF5000000009E9E0000009E
310
0000009E000000009E0000000000000000000000000000000000000000000000000000000000000000000000000000000000000000000000000000000000000000000000000000000000000000000000000000000000000000000000000000000000F5F5F5F5F5F5F5F5F5F5F5F5F5F5F5F59EF5F5F59EF5F5F5F5F5F5F5F5
310
F500F5F5F5F5F5F5F500000000000000000000000000000000F5F5F5F5F5F5F5F5F5F5F5F59EF5F59E9E9E9E9E9E9E9E9E9E00009E0000009E000000009E0000000000000000000000000000000000000000000000000000000000000000000000000000000000000000000000000000000000000000000000000000000000
310
000000000000000000000000000000000000000000000000F5F5F5F5F5F5F5F5F5F5F5F5F5F5F5F59EF5F5F59EF5F5F5F5F5F5F5F500F5F5F5F5F5F5F50000000000000000000000000000000000F5F5F5F5F59EF5F5F5F5F5F59EF5F5F5F5F500000000000000009E9E0000009E000000009E000000000000000000000000
310
0000000000000000000000000000000000000000000000000000000000000000000000000000000000000000000000000000000000000000000000000000000000000000000000000000000000F5F5F5F5F5F5F5F5F5F5F5F5F5F5F5F59EF5F5F59EF5F5F5F5F5F5F5F5F5F5F5F5F5F5F5F500000000000000000000000000
310
00000000F59E9E9E9EF5F5F5F5F5F5F59EF5F5F5F5F50000000000000000009E0000009E000000009E0000000000000000000000000000000000000000000000000000000000000000000000000000000000000000000000000000000000000000000000000000000000000000000000000000000000000000000000000000
310
00000000F5F5F5F5F5F5F5F5F500F5F5F5F5F59EF5F5F59EF5F5F5F5F500F5F5F5F5F5F5F5F5F50000000000000000009E9E9E9E9E9E9E9E9E9EF5F5F5F5F5F5F5F5F5F5F5F5F5F5F59E9E9E9E9E9E9E9E9E9E9E9E9E00009E000000009E000000000000000000000000000000000000000000000000000000000000000000
310
00000000000000000000000000000000000000000000000000000000000000000000000000000000000000000000000000000000000000000000F5F5F5F5F5F5F5F5F5F5F500F5F59EF5F5F59EF5F500F5F5F5F5F5F5F5F5F5F5F5000000000000000000009E9E9E9E9E9E9E9E00F5F5F5F5F5F5F5F5F5F5F5F5F5F5F5F5F5
310
F5000000000000000000000000009E000000009E0000000000000000000000000000000000000000000000000000000000000000000000000000000000000000000000000000000000000000000000000000000000000000000000000000000000000000000000000000000000000000F5F5F5F5F5F5F5F5F5F5F5F5F59E00
310
BE009EF5F5F5F5F5F5F5F5F5F5F5F5F500000000000000000000009E9E009E9E9E9E9E00F5F5F5F5F5F5F5F5F5F5F5F5F5F5F5F5F5F50000000000000000000000009E9E000000009E000000000000000000000000000000000000000000000000000000000000000000000000000000000000000000000000000000000000
310
000000000000000000000000000000000000000000000000000000000000000000000000000000F5F5F5F5F5F5F5F5F5F5F5F59EF5F5F59EF5F5F5F5F5F5F5F5F5F5F5F50000000000000000000000009E9E9E9E9E009E9E00F5F5F5F5F5F5F5F5F5F5F5F5F59EF5F5F5F5000000000000000000000000009E000000009E00
310
00000000000000000000000000000000000000000000000000000000000000000000000000000000000000000000000000000000000000000000000000000000000000000000000000000000000000000000000000000000000000000000F5F5F5F5F5F5F5F5F5F59EF5F5F59EF5F5F5F5F5F5F5F5F5F50000000000000000
310
0000000000009E9E9E9E9E009E9E00F59EF5F5F59EF5F5F5F5F5F5F59EF5F59E9E9E9E9E9E9E9E9E9E9E9E9E9E9E9E9E00009E9E000000000000000000000000000000000000000000000000000000000000000000000000000000000000000000000000000000000000000000000000000000000000000000000000000000
310
000000000000000000000000000000000000000000F5F5F5F5F5F5F5F5F59EF5F5F59EF5F5F5F5F5F5F5F5F5000000000000000000000000000000000000000000000000F59EF5F5F59E9EF5F5F5F5F59E9EF5F59EF50000000000000000000000000000000000009E00000000000000000000000000000000000000000000
310
00000000000000000000000000000000000000000000000000000000000000000000000000000000000000000000000000000000000000000000000000000000000000000000000000000000F5F5F5F5F5F5F59EF5F5F59EF5F5F5F5F5F5F50000000000000000000000000000000000000000000000000000009EF5F5F59E
310
9EF5F5F5F5F59EF59E9E9E9E9E9E9E9E9E9E9E9E9E9E9E9E9E9E9E9E9E9E9E9E0000000000000000000000000000000000000000000000000000000000000000000000000000000000000000000000000000000000000000000000000000000000000000000000000000000000000000000000000000000000000000000000
310
0000000000F5F5F5F59EF5F5F59EF5F5F5F50000000000000000000000000000000000000000000000000000000000009EF5F5F59E0000BE00009E9E9EF5F59E000000000000000000000000000000000000000000000000000000000000000000000000000000000000000000000000000000000000000000000000000000
310
00000000000000000000000000000000000000000000000000000000000000000000000000000000000000000000000000000000000000000000000000009E00BE009E000000000000000000000000000000000000000000000000000000000000000000009E0000BE009E00BE00009E9E9E9E009E00000000000000000000
310
000000000000000000000000000000000000000000000000000000000000000000000000000000000000000000000000000000000000000000000000000000000000000000000000000000000000000000000000000000000000000000000000000000000000000000000000000000000000009E00BE009E00000000000000
310
0000000000000000000000000000000000000000000000000000009E009E009E9E00BE00009E9E9E9E009E000000000000000000000000000000000000000000000000000000000000000000000000000000000000000000000000000000000000000000000000000000000000000000000000000000000000000000000000
310
00000000000000000000000000000000000000000000000000000000000000000000000000000000009E0000009E000000000000000000000000000000000000000000000000000000000000000000009E009E9E9E9E9E0000009E9E9E9E009E00000000000000000000000000000000000000000000000000000000000000
310
000000000000000000000000000000000000000000000000000000000000000000000000000000000000000000000000000000000000000000000000000000000000000000000000000000000000000000000000000000000000000000009E0000009E00000000000000000000000000000000000000000000000000000000
310
0000000000009E009E9E9E9E9EBE009E9E9E9E9E009E000000000000000000000000000000000000000000000000000000000000000000000000000000000000000000000000000000000000000000000000000000000000000000000000000000000000000000000000000000000000000000000000000000000000000000
310
00000000000000000000000000000000000000009E0000009E000000000000000000000000000000000000000000000000000000000000000000009E00009E9E9E9EBE009E9E9E9E00009E00000000000000000000000000000000000000000000000000000000000000000000000000000000000000000000000000000000
310
0000000000000000000000000000000000000000000000000000000000000000000000000000000000000000000000000000000000000000000000000000000000000000009E9E9E9E9E9E9E9E9E9E9E9E9E9E00000000000000000000000000000000000000000000000000000000009E00009E9E9E9E9EBE00009E9E0000
310
9E0000000000000000000000000000000000000000000000000000000000000000000000000000000000000000000000000000000000000000000000000000000000000000000000000000000000000000000000000000000000000000000000000000000000000000000000000000000000000000000000000000009E9E9E
310
9E9E9E9E009E9E000000000000000000000000000000000000000000000000000000000000009E0000009E9E9E9EBE0000000000009E00000000000000000000000000000000000000000000000000000000000000000000000000000000000000000000000000000000000000000000000000000000000000000000000000
310
000000000000000000000000000000000000000000000000000000000000000000000000000000000000000000000000000000009E9E9E9E9E000000000000000000000000000000000000000000000000000000000000000000009E0000000000009E000000000000009E0000000000000000000000000000000000000000
310
00000000000000000000000000000000000000000000000000000000000000000000000000000000000000000000000000000000000000000000000000000000000000000000000000000000000000000000000000000000000000000000000000000000000000000000009E9E000000000000000000000000000000000000
310
00000000000000000000000000000000009E000000000000BE000000000000009E00000000000000000000000000000000000000000000000000000000000000000000000000000000000000000000000000000000000000000000000000000000000000000000000000000000000000000000000000000000000000000000
310
000000000000000000000000000000000000000000000000000000000000000000000000000000000000000000000000000000000000000000000000000000000000000000009E000000000000BE000000000000009E0000000000000000000000000000000000000000000000000000000000000000000000000000000000
310
0000000000000000000000000000000000000000000000000000000000000000000000000000000000000000000000000000000000000000000000000000000000000000000000000000000000000000000000000000000000000000000000000000000000000000000000000000000000000000000000000000009E000000
310
000000BE000000000000009E00000000000000000000000000000000000000000000000000000000000000000000000000000000000000000000000000000000000000000000000000000000000000000000000000000000000000000000000000000000000000000000000000000000000000000000000000000000000000
310
000000000000000000000000000000000000000000000000000000000000000000000000000000000000000000000000009E009E000000000000000000009E009E0000000000000000000000000000000000000000000000000000000000000000000000000000000000000000000000000000000000000000000000000000
310
0000000000000000000000000000000000000000000000000000000000000000000000000000000000000000000000000000000000000000000000000000000000000000000000000000000000000000000000000000000000000000000000000000000000009E9E9E9E9E9E9E9E9E9E9E9E9E9E9E9E000000000000000000
310
00000000000000000000000000000000000000000000000000000000000000000000000000000000000000000000000000000000000000000000000000000000000000000000000000000000000000000000000000000000000000000000000000000000000000000000000000000000000000000000000000000000000000
310
000000000000000000000000000000000000000000000000000000009E00000000009E9E9E9E00000000009E0000000000000000000000000000000000000000000000000000000000000000000000000000000000000000000000000000000000000000000000000000000000000000000000000000000000000000000000
310
0000000000000000000000000000000000000000000000000000000000000000000000000000000000000000000000000000000000000000000000000000000000000000000000000000000000000000000000000000009E9E9E9E000000000000000000000000000000000000000000000000000000000000000000000000
310
00000000000000000000000000000000000000000000000000000000000000000000000000000000000000000000000000000000000000000000000000000000000000000000000000000000000000000000000000000000000000000000000000000000000000000000000000000000000000000000000000000000000000
310
000000000000000000000000009E9E9E9E0000000000000000000000000000000000000000000000000000000000000000000000000000000000000000000000000000000000000000000000000000000000000000000000000000000000000000000000000000000000000000000000000000000000000000000000000000
310
00000000000000000000000000000000000000000000000000000000000000000000000000000000000000000000000000000000000000000000000000000000000000000000000000000000000000000000000000000000000000000000000000000000000000000000000000000000000000000000000000000000000000
310
00000000000000000000000000000000000000000000000000000000000000000000000000000000000000000000000000000000000000000000000000000000000000000000000000000000000000000000000000000000000000000000000000000000000000000000000000000000000000000000000000000000000000
310
00000000000000000000000000000000000000000000000000000000000000000000000000000000000000000000000000000000000000000000000000000000000000000000000000000000000000000000000000000000000000000000000000000000000000000000000000000000000000000000000000000000000000
310
00000000000000000000000000000000000000000000000000000000000000000000000000000000000000000000000000000000000000000000000000000000000000000000000000000000000000000000000000000000000000000000000000000000000000000000000000000000000000000000000000000000000000
310
00000000000000000000000000000000000000000000000000000000000000000000000000000000000000000000000000000000000000000000000000000000000000000000000000000000000000000000000000000000000000000000000000000000000000000000000000000000000000000000000000000000000000
310
00000000000000000000000000000000000000000000000000000000000000000000000000000000000000000000000000000000000000000000000000000000000000000000000000000000000000000000000000000000000000000000000000000000000000000000000000000000000000000000000000000000000000
310
00000000000000000000000000000000000000000000000000000000000000000000000000000000000000000000000000000000000000000000000000000000000000000000000000000000000000000000000000000000000000000000000000000000000000000000000000000000000000000000000000000000000000
310
00000000000000000000000000000000000000000000000000000000000000000000000000000000000000000000000000000000000000000000000000000000000000000000000000000000000000000000000000000000000000000000000000000000000000000000000000000000000000000000000000000000000000
310
00000000000000000000000000000000000000000000000000000000000000000000000000000000000000000000000000000000000000000000000000000000000000000000000000000000000000000000000000000000000000000000000000000000000000000000000000000000000000000000000000000000000000
310
00000000000000000000000000000000000000000000000000000000000000000000000000000000000000000000000000000000000000000000000000000000000000000000000000000000000000000000000000000000000000000000000000000000000000000000000000000000000000000000000000000000000000
310
00000000000000000000000000000000000000000000000000000000000000000000000000000000000000000000000000000000000000000000000000000000000000000000000000000000000000000000000000000000000000000000000000000000000000000000000000000000000000000000000000000000000000
310
00000000000000000000000000000000000000000000000000000000000000000000000000000000000000000000000000000000000000000000000000000000000000000000000000000000000000000000000000000000000000000000000000000000000000000000000000000000000000000000000000000000000000
310
00000000000000000000000000000000000000000000000000000000000000000000000000000000000000000000000000000000000000000000000000000000000000000000000000000000000000000000000000000000000000000000000000000000000000000000000000000000000000000000000000000000000000
310
00000000000000000000000000000000000000000000000000000000000000000000000000000000000000000000000000000000000000000000000000000000000000000000000000000000000000000000000000000000000000000000000000000000000000000000000000000000000000000000000000000000000000
310
00000000000000000000000000000000000000000000000000000000000000000000000000000000000000000000000000000000000000000000000000000000000000000000000000000000000000000000000000000000000000000000000000000000000000000000000000000000000000000000000000000000000000
310
00000000000000000000000000000000000000000000000000000000000000000000000000000000000000000000000000000000000000000000000000000000000000000000000000000000000000000000000000000000000000000000000000000000000000000000000000000000000000000000000000000000000000
310
00000000000000000000000000000000000000000000000000000000000000000000000000000000000000000000000000000000000000000000000000000000000000000000000000000000000000000000000000
  0
ENDSEC
  0
EOF
