999
LibreDWG 
  0
SECTION
  2
HEADER
  9
$ACADVER
  1
AC1015
  9
$ACADMAINTVER
 70
    13
  9
$DWGCODEPAGE
  3
ANSI_936
  9
$INSBASE
 10
0.0
 20
0.0
 30
0.0
  9
$EXTMIN
 10
4.186758966713338
 20
96.80789869371597
 30
0.0
  9
$EXTMAX
 10
384.1296557570049
 20
234.8367347046139
 30
0.0
  9
$LIMMIN
 10
0.0
 20
0.0
  9
$LIMMAX
 10
120.0
 20
75.0
  9
$ORTHOMODE
 70
     0
  9
$REGENMODE
 70
     1
  9
$FILLMODE
 70
     1
  9
$QTEXTMODE
 70
     0
  9
$MIRRTEXT
 70
     1
  9
$LTSCALE
 40
0.25
  9
$ATTMODE
 70
     1
  9
$TEXTSIZE
 40
2.5
  9
$TRACEWID
 40
1.0
  9
$TEXTSTYLE
  7
数字与字母
  9
$CLAYER
  8
文本层
  9
$CELTYPE
  6
ByLayer
  9
$CECOLOR
 62
   256
  9
$CELTSCALE
 40
1.0
  9
$DISPSILH
 70
     0
  9
$DIMSCALE
 40
1.0
  9
$DIMASZ
 40
3.5
  9
$DIMEXO
 40
0.0
  9
$DIMDLI
 40
7.5
  9
$DIMRND
 40
0.0
  9
$DIMDLE
 40
0.0
  9
$DIMEXE
 40
2.5
  9
$DIMTP
 40
0.0
  9
$DIMTM
 40
0.0
  9
$DIMTXT
 40
5.0
  9
$DIMCEN
 40
2.5
  9
$DIMTSZ
 40
0.0
  9
$DIMTOL
 70
     0
  9
$DIMLIM
 70
     0
  9
$DIMTIH
 70
     0
  9
$DIMTOH
 70
     1
  9
$DIMSE1
 70
     0
  9
$DIMSE2
 70
     0
  9
$DIMTAD
 70
     1
  9
$DIMZIN
 70
     8
  9
$DIMBLK
  1

  9
$DIMASO
 70
     1
  9
$DIMSHO
 70
     1
  9
$DIMPOST
  1

  9
$DIMAPOST
  1

  9
$DIMALT
 70
     0
  9
$DIMALTD
 70
     3
  9
$DIMALTF
 40
0.03937007874016
  9
$DIMLFAC
 40
1.0
  9
$DIMTOFL
 70
     1
  9
$DIMTVP
 40
0.0
  9
$DIMTIX
 70
     0
  9
$DIMSOXD
 70
     0
  9
$DIMSAH
 70
     0
  9
$DIMBLK1
  1

  9
$DIMBLK2
  1

  9
$DIMSTYLE
  2
机械标注
  9
$DIMCLRD
 70
     0
  9
$DIMCLRE
 70
     0
  9
$DIMCLRT
 70
     0
  9
$DIMTFAC
 40
1.0
  9
$DIMGAP
 40
0.625
  9
$DIMJUST
 70
     0
  9
$DIMSD1
 70
     0
  9
$DIMSD2
 70
     0
  9
$DIMTOLJ
 70
     0
  9
$DIMTZIN
 70
     8
  9
$DIMALTZ
 70
     0
  9
$DIMALTTZ
 70
     0
  9
$DIMUPT
 70
     0
  9
$DIMDEC
 70
     1
  9
$DIMTDEC
 70
     1
  9
$DIMALTU
 70
     2
  9
$DIMALTTD
 70
     3
  9
$DIMTXSTY
  7
数字与字母
  9
$DIMAUNIT
 70
     0
  9
$DIMADEC
 70
     0
  9
$DIMALTRND
 40
0.0
  9
$DIMAZIN
 70
     0
  9
$DIMDSEP
 70
    46
  9
$DIMATFIT
 70
     3
  9
$DIMFRAC
 70
     0
  9
$DIMLDRBLK
  1

  9
$DIMLUNIT
 70
     2
  9
$DIMLWD
 70
    -2
  9
$DIMLWE
 70
    -2
  9
$DIMTMOVE
 70
     0
  9
$LUNITS
 70
     2
  9
$LUPREC
 70
     1
  9
$AXISMODE
 70
     0
  9
$AXISUNIT
 10
0.0
 20
0.0
  9
$SKETCHINC
 40
1.0
  9
$FILLETRAD
 40
10.0
  9
$AUNITS
 70
     0
  9
$AUPREC
 70
     1
  9
$MENU
  1
.
  9
$ELEVATION
 40
0.0
  9
$PELEVATION
 40
0.0
  9
$THICKNESS
 40
0.0
  9
$LIMCHECK
 70
     0
  9
$CHAMFERA
 40
10.0
  9
$CHAMFERB
 40
10.0
  9
$CHAMFERC
 40
1.0
  9
$CHAMFERD
 40
0.7853981633974483
  9
$SKPOLY
 70
     0
  9
$TDCREATE
 40
2451911.603956590
  9
$TDUCREATE
 40
2451911.315956590
  9
$TDUPDATE
 40
2453618.325989260
  9
$TDUUPDATE
 40
2453618.037989260
  9
$TDINDWG
 40
0.038151150
  9
$TDUSRTIMER
 40
0.038151150
  9
$USRTIMER
 70
     1
  9
$ANGBASE
 50
0.0
  9
$ANGDIR
 70
     0
  9
$PDMODE
 70
     0
  9
$PDSIZE
 40
0.0
  9
$PLINEWID
 40
0.0
  9
$SPLFRAME
 70
     0
  9
$SPLINETYPE
 70
     6
  9
$SPLINESEGS
 70
     8
  9
$HANDSEED
  5
199
  9
$SURFTAB1
 70
     6
  9
$SURFTAB2
 70
     6
  9
$SURFTYPE
 70
     6
  9
$SURFU
 70
     6
  9
$SURFV
 70
     6
  9
$UCSBASE
  2

  9
$UCSNAME
  2

  9
$UCSORG
 10
0.0
 20
0.0
 30
0.0
  9
$UCSXDIR
 10
1.0
 20
0.0
 30
0.0
  9
$UCSYDIR
 10
0.0
 20
1.0
 30
0.0
  9
$UCSORTHOREF
  2

  9
$UCSORTHOVIEW
 70
     0
  9
$UCSORGTOP
 10
0.0
 20
0.0
 30
0.0
  9
$UCSORGBOTTOM
 10
0.0
 20
0.0
 30
0.0
  9
$UCSORGLEFT
 10
0.0
 20
0.0
 30
0.0
  9
$UCSORGRIGHT
 10
0.0
 20
0.0
 30
0.0
  9
$UCSORGFRONT
 10
0.0
 20
0.0
 30
0.0
  9
$UCSORGBACK
 10
0.0
 20
0.0
 30
0.0
  9
$PUCSBASE
  2

  9
$PUCSNAME
  2

  9
$PUCSORG
 10
0.0
 20
0.0
 30
0.0
  9
$PUCSXDIR
 10
1.0
 20
0.0
 30
0.0
  9
$PUCSYDIR
 10
0.0
 20
1.0
 30
0.0
  9
$PUCSORTHOREF
  2

  9
$PUCSORTHOVIEW
 70
     0
  9
$PUCSORGTOP
 10
0.0
 20
0.0
 30
0.0
  9
$PUCSORGBOTTOM
 10
0.0
 20
0.0
 30
0.0
  9
$PUCSORGLEFT
 10
0.0
 20
0.0
 30
0.0
  9
$PUCSORGRIGHT
 10
0.0
 20
0.0
 30
0.0
  9
$PUCSORGFRONT
 10
0.0
 20
0.0
 30
0.0
  9
$PUCSORGBACK
 10
0.0
 20
0.0
 30
0.0
  9
$USERI1
 70
     0
  9
$USERI2
 70
     0
  9
$USERI3
 70
     0
  9
$USERI4
 70
     0
  9
$USERI5
 70
     0
  9
$USERR1
 40
0.0
  9
$USERR2
 40
0.0
  9
$USERR3
 40
0.0
  9
$USERR4
 40
0.0
  9
$USERR5
 40
0.0
  9
$WORLDVIEW
 70
     1
  9
$SHADEDGE
 70
     3
  9
$SHADEDIF
 70
    70
  9
$TILEMODE
 70
     1
  9
$MAXACTVP
 70
    64
  9
$PINSBASE
 10
0.0
 20
0.0
 30
0.0
  9
$PLIMCHECK
 70
     0
  9
$PEXTMIN
 10
26.66999878883362
 20
20.31999878883363
 30
0.0
  9
$PEXTMAX
 10
240.0299890995026
 20
182.8799890995026
 30
0.0
  9
$PLIMMIN
 10
-6.350006103515625
 20
-6.349999904632568
  9
$PLIMMAX
 10
273.0499877929688
 20
209.5499939918518
  9
$UNITMODE
 70
     0
  9
$VISRETAIN
 70
     1
  9
$PLINEGEN
 70
     0
  9
$PSLTSCALE
 70
     1
  9
$TREEDEPTH
 70
  3020
  9
$CMLSTYLE
  2
Standard
  9
$CMLJUST
 70
     0
  9
$CMLSCALE
 40
20.0
  9
$PROXYGRAPHICS
 70
     1
  9
$MEASUREMENT
 70
     1
  9
$CELWEIGHT
370
    -1
  9
$ENDCAPS
280
     0
  9
$JOINSTYLE
280
     0
  9
$LWDISPLAY
290
     1
  9
$INSUNITS
 70
     4
  9
$HYPERLINKBASE
  1

  9
$STYLESHEET
  1

  9
$XEDIT
290
     1
  9
$CEPSNTYPE
380
     0
  9
$PSTYLEMODE
290
     0
  9
$FINGERPRINTGUID
  2
{35BD88C3-9548-11D2-9A29-0060089B3A3F}
  9
$VERSIONGUID
  2
{E8C8F994-EDC5-4FFF-BBBA-DB9DEC17F01B}
  9
$EXTNAMES
290
     1
  9
$PSVPSCALE
 40
0.0
  9
$OLESTARTUP
290
     0
  0
ENDSEC
  0
SECTION
  2
CLASSES
  0
CLASS
  1
ACDBDICTIONARYWDFLT
  2
AcDbDictionaryWithDefault
  3
AutoCAD 2000
 90
        0
280
     0
281
     0
  0
CLASS
  1
ACDBPLACEHOLDER
  2
AcDbPlaceHolder
  3
AutoCAD 2000
 90
        0
280
     0
281
     0
  0
CLASS
  1
LAYOUT
  2
AcDbLayout
  3
AutoCAD 2000
 90
        0
280
     0
281
     0
  0
CLASS
  1
DICTIONARYVAR
  2
AcDbDictionaryVar
  3
AutoCAD 2000
 90
        0
280
     0
281
     0
  0
CLASS
  1
DIMASSOC
  2
AcDbDimAssoc
  3
"AcDbDimAssoc|Product Desc:     AcDim ARX App For Dimension|Company:          Autodesk, Inc.|WEB Address:      www.autodesk.com"
 90
        0
280
     0
281
     0
  0
ENDSEC
  0
SECTION
  2
TABLES
  0
TABLE
  2
VPORT
  5
8
330
0
100
AcDbSymbolTable
 70
     1
  0
VPORT
  5
198
330
8
100
AcDbSymbolTableRecord
100
AcDbViewportTableRecord
  2
*Active
 70
     0
 10
0.0
 20
0.0
 11
1.0
 21
1.0
 12
242.7552964184853
 22
135.5459752340724
 13
0.0
 23
0.0
 14
10.0
 24
10.0
 15
10.0
 25
10.0
 16
0.0
 26
0.0
 36
1.0
 17
0.0
 27
0.0
 37
0.0
 40
293.3842931982801
 41
1.855042016806723
 42
50.0
 43
0.0
 44
0.0
 50
0.0
 51
0.0
 71
     0
 72
   100
 73
     1
 74
     3
 75
     0
 76
     0
 77
     0
 78
     0
281
     0
 65
     1
110
0.0
120
0.0
130
0.0
111
1.0
121
0.0
131
0.0
112
0.0
122
1.0
132
0.0
 79
     0
146
0.0
  0
ENDTAB
  0
TABLE
  2
LTYPE
  5
5
330
0
100
AcDbSymbolTable
 70
     4
  0
LTYPE
  5
14
330
5
100
AcDbSymbolTableRecord
100
AcDbLinetypeTableRecord
  2
ByBlock
 70
     0
  3

 72
    65
 73
     0
 40
0.0
  0
LTYPE
  5
15
330
5
100
AcDbSymbolTableRecord
100
AcDbLinetypeTableRecord
  2
ByLayer
 70
     0
  3

 72
    65
 73
     0
 40
0.0
  0
LTYPE
  5
16
330
5
100
AcDbSymbolTableRecord
100
AcDbLinetypeTableRecord
  2
Continuous
 70
     0
  3
Solid line
 72
    65
 73
     0
 40
0.0
  0
LTYPE
  5
91
330
5
100
AcDbSymbolTableRecord
100
AcDbLinetypeTableRecord
  2
ACAD_ISO08W100
 70
     0
  3
ISO long-dash short-dash ____ __ ____ __ ____ _
 72
    65
 73
     4
 40
36.0
 49
24.0
 74
     0
 49
-3.0
 74
     0
 49
6.0
 74
     0
 49
-3.0
 74
     0
  0
LTYPE
  5
92
330
5
100
AcDbSymbolTableRecord
100
AcDbLinetypeTableRecord
  2
ACAD_ISO09W100
 70
     0
  3
ISO long-dash double-short-dash ____ __ __ ____
 72
    65
 73
     6
 40
45.0
 49
24.0
 74
     0
 49
-3.0
 74
     0
 49
6.0
 74
     0
 49
-3.0
 74
     0
 49
6.0
 74
     0
 49
-3.0
 74
     0
  0
LTYPE
  5
93
330
5
100
AcDbSymbolTableRecord
100
AcDbLinetypeTableRecord
  2
ACAD_ISO02W100
 70
     0
  3
ISO dash __ __ __ __ __ __ __ __ __ __ __ __ __
 72
    65
 73
     2
 40
15.0
 49
12.0
 74
     0
 49
-3.0
 74
     0
  0
ENDTAB
  0
TABLE
  2
LAYER
  5
2
330
0
100
AcDbSymbolTable
 70
    11
  0
LAYER
  5
10
330
2
100
AcDbSymbolTableRecord
100
AcDbLayerTableRecord
  2
0
 70
     0
 62
    -7
  6
Continuous
370
    -3
390
F
  0
LAYER
  5
94
330
2
100
AcDbSymbolTableRecord
100
AcDbLayerTableRecord
  2
轮廓线
 70
     0
 62
    -7
  6
Continuous
370
    35
390
F
  0
LAYER
  5
95
330
2
100
AcDbSymbolTableRecord
100
AcDbLayerTableRecord
  2
点划线
 70
     0
 62
    -1
  6
ACAD_ISO08W100
370
    13
390
F
  0
LAYER
  5
96
330
2
100
AcDbSymbolTableRecord
100
AcDbLayerTableRecord
  2
双点划线
 70
     0
 62
    -3
  6
ACAD_ISO09W100
370
    -3
390
F
  0
LAYER
  5
97
330
2
100
AcDbSymbolTableRecord
100
AcDbLayerTableRecord
  2
隐藏线
 70
     0
 62
   -44
  6
ACAD_ISO02W100
370
    13
390
F
  0
LAYER
  5
98
330
2
100
AcDbSymbolTableRecord
100
AcDbLayerTableRecord
  2
剖面线
 70
     0
 62
  -142
  6
Continuous
370
    13
390
F
  0
LAYER
  5
99
330
2
100
AcDbSymbolTableRecord
100
AcDbLayerTableRecord
  2
波浪线
 70
     0
 62
    -7
  6
Continuous
370
    13
390
F
  0
LAYER
  5
9A
330
2
100
AcDbSymbolTableRecord
100
AcDbLayerTableRecord
  2
尺寸层
 70
     0
 62
    -5
  6
Continuous
370
    13
390
F
  0
LAYER
  5
9B
330
2
100
AcDbSymbolTableRecord
100
AcDbLayerTableRecord
  2
文本层
 70
     0
 62
  -212
  6
Continuous
370
    13
390
F
  0
LAYER
  5
9C
330
2
100
AcDbSymbolTableRecord
100
AcDbLayerTableRecord
  2
其它层
 70
     0
 62
    -7
  6
Continuous
370
    -3
390
F
  0
LAYER
  5
E0
330
2
100
AcDbSymbolTableRecord
100
AcDbLayerTableRecord
  2
Defpoints
 70
     0
 62
    -7
  6
Continuous
290
     0
370
    -3
390
F
  0
ENDTAB
  0
TABLE
  2
STYLE
  5
3
330
0
100
AcDbSymbolTable
 70
     4
  0
STYLE
  5
11
330
3
100
AcDbSymbolTableRecord
100
AcDbTextStyleTableRecord
  2
Standard
 70
     0
 40
0.0
 41
1.0
 50
0.0
 71
     0
 42
2.5
  3
txt
  4

  0
STYLE
  5
90
330
3
100
AcDbSymbolTableRecord
100
AcDbTextStyleTableRecord
  2

 70
     1
 40
0.0
 41
1.0
 50
0.0
 71
     0
 42
2.5
  3
ltypeshp.shx
  4

  0
STYLE
  5
9D
330
3
100
AcDbSymbolTableRecord
100
AcDbTextStyleTableRecord
  2
汉字
 70
     0
 40
0.0
 41
0.7
 50
0.0
 71
     0
 42
2.5
  3
SIMFANG.TTF
  4

1001
ACAD
1000
FangSong_GB2312
1071
    34353
  0
STYLE
  5
9F
330
3
100
AcDbSymbolTableRecord
100
AcDbTextStyleTableRecord
  2
数字与字母
 70
     0
 40
0.0
 41
0.7
 50
0.0
 71
     0
 42
2.5
  3
romant.shx
  4

  0
ENDTAB
  0
TABLE
  2
VIEW
  5
6
330
0
100
AcDbSymbolTable
 70
     0
  0
ENDTAB
  0
TABLE
  2
UCS
  5
7
330
0
100
AcDbSymbolTable
 70
     0
  0
ENDTAB
  0
TABLE
  2
APPID
  5
9
330
0
100
AcDbSymbolTable
 70
     1
  0
APPID
  5
12
330
9
100
AcDbSymbolTableRecord
100
AcDbRegAppTableRecord
  2
ACAD
 70
     0
  0
ENDTAB
  0
TABLE
  2
DIMSTYLE
  5
A
330
0
100
AcDbSymbolTable
 70
     3
100
AcDbDimStyleTable
 71
     2
340
A1
340
27
  0
DIMSTYLE
105
27
330
A
100
AcDbSymbolTableRecord
100
AcDbDimStyleTableRecord
  2
ISO-25
 70
     0
 41
2.5
 42
0.625
 43
3.75
 44
1.25
 73
     0
 74
     0
 77
     1
 78
     8
140
2.5
141
2.5
143
0.03937007874016
144
1.0
146
1.0
147
0.625
171
     3
172
     1
176
     0
177
     0
178
     0
271
     2
272
     2
273
     2
274
     3
277
     2
278
    44
283
     0
284
     8
289
     3
340
11
371
    -2
372
    -2
341
0
342
0
343
0
344
0
  0
DIMSTYLE
105
A1
102
{ACAD_REACTORS
330
DF
330
F8
330
110
330
11D
330
12D
330
145
102
}
330
A
100
AcDbSymbolTableRecord
100
AcDbDimStyleTableRecord
  2
机械标注
 70
     0
 41
3.5
 43
7.5
 44
2.5
 73
     0
 74
     1
 77
     1
 78
     8
140
5.0
141
2.5
143
0.03937007874016
144
1.0
146
1.0
147
0.625
171
     3
172
     1
176
     0
177
     0
178
     0
271
     1
272
     1
273
     2
274
     3
277
     2
278
    46
283
     0
284
     8
289
     3
340
9F
371
    -2
372
    -2
341
0
342
0
343
0
344
0
  0
DIMSTYLE
105
A2
330
A
100
AcDbSymbolTableRecord
100
AcDbDimStyleTableRecord
  2
机械标注$2
 70
     0
 41
3.5
 43
7.5
 44
2.5
 73
     1
 74
     1
 77
     1
 78
     8
140
5.0
141
2.5
143
0.03937007874016
144
1.0
146
1.0
147
0.625
171
     3
172
     1
176
     0
177
     0
178
     0
271
     1
272
     1
273
     2
274
     3
277
     2
278
    46
283
     0
284
     8
289
     3
340
9F
371
    -2
372
    -2
341
0
342
0
343
0
344
0
  0
ENDTAB
  0
TABLE
  2
BLOCK_RECORD
  5
1
330
0
100
AcDbSymbolTable
 70
     7
  0
BLOCK_RECORD
  5
1F
330
1
100
AcDbSymbolTableRecord
100
AcDbBlockTableRecord
  2
*Model_Space
340
22
  0
BLOCK_RECORD
  5
59
330
1
100
AcDbSymbolTableRecord
100
AcDbBlockTableRecord
  2
*Paper_Space
340
5A
  0
BLOCK_RECORD
  5
5E
330
1
100
AcDbSymbolTableRecord
100
AcDbBlockTableRecord
  2
*Paper_Space0
340
5F
  0
BLOCK_RECORD
  5
E1
330
1
100
AcDbSymbolTableRecord
100
AcDbBlockTableRecord
  2
*D1
340
0
  0
BLOCK_RECORD
  5
F9
330
1
100
AcDbSymbolTableRecord
100
AcDbBlockTableRecord
  2
*D2
340
0
  0
BLOCK_RECORD
  5
111
330
1
100
AcDbSymbolTableRecord
100
AcDbBlockTableRecord
  2
*D3
340
0
  0
BLOCK_RECORD
  5
11E
330
1
100
AcDbSymbolTableRecord
100
AcDbBlockTableRecord
  2
*D4
340
0
  0
BLOCK_RECORD
  5
12E
330
1
100
AcDbSymbolTableRecord
100
AcDbBlockTableRecord
  2
*D5
340
0
  0
BLOCK_RECORD
  5
146
330
1
100
AcDbSymbolTableRecord
100
AcDbBlockTableRecord
  2
*D6
340
0
  0
ENDTAB
  0
ENDSEC
  0
SECTION
  2
BLOCKS
  0
BLOCK
  5
20
330
1F
100
AcDbEntity
  8
0
100
AcDbBlockBegin
  2
*Model_Space
 70
     0
 10
0.0
 20
0.0
 30
0.0
  3
*Model_Space
  1

  0
ENDBLK
  5
21
330
1F
100
AcDbEntity
  8
0
100
AcDbBlockEnd
  0
BLOCK
  5
5B
330
59
100
AcDbEntity
 67
     1
  8
0
100
AcDbBlockBegin
  2
*Paper_Space
 70
     0
 10
0.0
 20
0.0
 30
0.0
  3
*Paper_Space
  1

  0
ENDBLK
  5
5C
330
59
100
AcDbEntity
 67
     1
  8
0
100
AcDbBlockEnd
  0
BLOCK
  5
60
330
5E
100
AcDbEntity
  8
0
100
AcDbBlockBegin
  2
*Paper_Space0
 70
     0
 10
0.0
 20
0.0
 30
0.0
  3
*Paper_Space0
  1

  0
VIEWPORT
  5
D5
330
5E
100
AcDbEntity
  8
0
100
AcDbViewport
 10
134.8893543667583
 20
101.5999970436096
 30
0.0
 40
423.7327665924585
 41
228.4221935424805
 68
     0
 69
     0
 12
134.8893543667583
 22
101.5999970436096
 13
0.0
 23
0.0
 14
10.0
 24
10.0
 15
10.0
 25
10.0
 16
0.0
 26
0.0
 36
1.0
 17
0.0
 27
0.0
 37
0.0
 42
50.0
 43
0.0
 44
0.0
 45
228.4221935424805
 50
0.0
 51
0.0
 72
   100
 90
    32800
  1

281
     0
 71
     1
 74
     0
110
0.0
120
0.0
130
0.0
111
1.0
121
0.0
131
0.0
112
0.0
122
1.0
132
0.0
 79
     0
146
0.0
348
0
340
0
345
0
346
0
  0
VIEWPORT
  5
D7
330
5E
100
AcDbEntity
  8
轮廓线
100
AcDbViewport
 10
133.3499939441681
 20
101.5999939441681
 30
0.0
 40
213.3599903106689
 41
162.5599903106689
 68
     0
 69
     0
 12
193.1867589667134
 22
171.5989689985462
 13
0.0
 23
0.0
 14
10.0
 24
10.0
 15
10.0
 25
10.0
 16
0.0
 26
0.0
 36
1.0
 17
0.0
 27
0.0
 37
0.0
 42
50.0
 43
0.0
 44
0.0
 45
291.8230047081271
 50
0.0
 51
0.0
 72
   100
 90
    32864
  1

281
     0
 71
     1
 74
     0
110
0.0
120
0.0
130
0.0
111
1.0
121
0.0
131
0.0
112
0.0
122
1.0
132
0.0
 79
     0
146
0.0
348
0
340
0
345
0
346
0
  0
ENDBLK
  5
61
330
5E
100
AcDbEntity
  8
0
100
AcDbBlockEnd
  0
BLOCK
  5
EB
330
E1
100
AcDbEntity
  8
0
100
AcDbBlockBegin
  2
*D1
 70
     1
 10
0.0
 20
0.0
 30
0.0
  3
*D1
  1

  0
LINE
  5
161
330
E1
100
AcDbEntity
  8
文本层
370
    -2
 62
     0
100
AcDbLine
 10
88.18675896671334
 20
150.0906007867211
 30
0.0
 11
88.18675896671334
 21
124.4433068267535
 31
0.0
  0
LINE
  5
162
330
E1
100
AcDbEntity
  8
文本层
370
    -2
 62
     0
100
AcDbLine
 10
208.1867589667133
 20
152.090600786721
 30
0.0
 11
208.1867589667133
 21
124.4433068267535
 31
0.0
  0
LINE
  5
163
330
E1
100
AcDbEntity
  8
文本层
370
    -2
 62
     0
100
AcDbLine
 10
91.68675896671334
 20
126.9433068267535
 30
0.0
 11
204.6867589667133
 21
126.9433068267535
 31
0.0
  0
SOLID
  5
164
330
E1
100
AcDbEntity
  8
文本层
 62
     0
100
AcDbTrace
 38
0.0
 10
91.68675896671334
 20
127.5266401600869
 11
91.68675896671334
 21
126.3599734934202
 12
88.18675896671334
 22
126.9433068267535
 13
88.18675896671334
 23
126.9433068267535
  0
SOLID
  5
165
330
E1
100
AcDbEntity
  8
文本层
 62
     0
100
AcDbTrace
 38
0.0
 10
204.6867589667133
 20
127.5266401600869
 11
204.6867589667133
 21
126.3599734934202
 12
208.1867589667133
 22
126.9433068267535
 13
208.1867589667133
 23
126.9433068267535
  0
MTEXT
  5
166
330
E1
100
AcDbEntity
  8
文本层
 62
     0
100
AcDbMText
 10
148.1867589667133
 20
130.0683068267535
 30
0.0
210
0.0
220
0.0
230
1.0
 11
1.0
 21
0.0
 31
0.0
 40
5.0
 41
0.0
 71
     5
 72
     1
  1
{\f??|b0|i0|c0|p54;30}
  7
数字与字母
 73
     1
 44
1.0
  0
POINT
  5
167
330
E1
100
AcDbEntity
  8
Defpoints
 62
     0
100
AcDbPoint
 10
88.18675896671334
 20
150.0906007867211
 30
0.0
 50
0.0
  0
POINT
  5
168
330
E1
100
AcDbEntity
  8
Defpoints
 62
     0
100
AcDbPoint
 10
208.1867589667133
 20
152.090600786721
 30
0.0
 50
0.0
  0
POINT
  5
169
330
E1
100
AcDbEntity
  8
Defpoints
 62
     0
100
AcDbPoint
 10
208.1867589667133
 20
126.9433068267535
 30
0.0
 50
0.0
  0
ENDBLK
  5
EC
330
E1
100
AcDbEntity
  8
0
100
AcDbBlockEnd
  0
BLOCK
  5
103
330
F9
100
AcDbEntity
  8
0
100
AcDbBlockBegin
  2
*D2
 70
     1
 10
0.0
 20
0.0
 30
0.0
  3
*D2
  1

  0
LINE
  5
173
330
F9
100
AcDbEntity
  8
文本层
370
    -2
 62
     0
100
AcDbLine
 10
16.18675896671334
 20
137.9662451337389
 30
0.0
 11
16.18675896671333
 21
96.80789869371597
 31
0.0
  0
LINE
  5
174
330
F9
100
AcDbEntity
  8
文本层
370
    -2
 62
     0
100
AcDbLine
 10
52.18675896671333
 20
125.8418894807567
 30
0.0
 11
52.18675896671333
 21
96.80789869371597
 31
0.0
  0
LINE
  5
175
330
F9
100
AcDbEntity
  8
文本层
370
    -2
 62
     0
100
AcDbLine
 10
19.68675896671333
 20
99.30789869371597
 30
0.0
 11
48.68675896671333
 21
99.30789869371597
 31
0.0
  0
SOLID
  5
176
330
F9
100
AcDbEntity
  8
文本层
 62
     0
100
AcDbTrace
 38
0.0
 10
19.68675896671333
 20
99.8912320270493
 11
19.68675896671333
 21
98.72456536038264
 12
16.18675896671333
 22
99.30789869371597
 13
16.18675896671333
 23
99.30789869371597
  0
SOLID
  5
177
330
F9
100
AcDbEntity
  8
文本层
 62
     0
100
AcDbTrace
 38
0.0
 10
48.68675896671333
 20
99.8912320270493
 11
48.68675896671333
 21
98.72456536038264
 12
52.18675896671333
 22
99.30789869371597
 13
52.18675896671333
 23
99.30789869371597
  0
MTEXT
  5
178
330
F9
100
AcDbEntity
  8
文本层
 62
     0
100
AcDbMText
 10
34.18675896671333
 20
102.432898693716
 30
0.0
210
0.0
220
0.0
230
1.0
 11
1.0
 21
0.0
 31
0.0
 40
5.0
 41
0.0
 71
     5
 72
     1
  1
{\f??|b0|i0|c0|p54;9}
  7
数字与字母
 73
     1
 44
1.0
  0
POINT
  5
179
330
F9
100
AcDbEntity
  8
Defpoints
 62
     0
100
AcDbPoint
 10
16.18675896671334
 20
137.9662451337389
 30
0.0
 50
0.0
  0
POINT
  5
17A
330
F9
100
AcDbEntity
  8
Defpoints
 62
     0
100
AcDbPoint
 10
52.18675896671333
 20
125.8418894807567
 30
0.0
 50
0.0
  0
POINT
  5
17B
330
F9
100
AcDbEntity
  8
Defpoints
 62
     0
100
AcDbPoint
 10
52.18675896671333
 20
99.30789869371597
 30
0.0
 50
0.0
  0
ENDBLK
  5
104
330
F9
100
AcDbEntity
  8
0
100
AcDbBlockEnd
  0
BLOCK
  5
11B
330
111
100
AcDbEntity
  8
0
100
AcDbBlockBegin
  2
*D3
 70
     1
 10
0.0
 20
0.0
 30
0.0
  3
*D3
  1

  0
LINE
  5
16A
330
111
100
AcDbEntity
  8
文本层
370
    -2
 62
     0
100
AcDbLine
 10
52.18675896671333
 20
111.3248940872364
 30
0.0
 11
52.18675896671333
 21
96.80789869371597
 31
0.0
  0
LINE
  5
16B
330
111
100
AcDbEntity
  8
文本层
370
    -2
 62
     0
100
AcDbLine
 10
208.1867589667133
 20
138.2669538067373
 30
0.0
 11
208.1867589667133
 21
96.80789869371597
 31
0.0
  0
LINE
  5
16C
330
111
100
AcDbEntity
  8
文本层
370
    -2
 62
     0
100
AcDbLine
 10
55.68675896671333
 20
99.30789869371597
 30
0.0
 11
204.6867589667133
 21
99.30789869371597
 31
0.0
  0
SOLID
  5
16D
330
111
100
AcDbEntity
  8
文本层
 62
     0
100
AcDbTrace
 38
0.0
 10
55.68675896671333
 20
99.8912320270493
 11
55.68675896671333
 21
98.72456536038264
 12
52.18675896671333
 22
99.30789869371597
 13
52.18675896671333
 23
99.30789869371597
  0
SOLID
  5
16E
330
111
100
AcDbEntity
  8
文本层
 62
     0
100
AcDbTrace
 38
0.0
 10
204.6867589667133
 20
99.8912320270493
 11
204.6867589667133
 21
98.72456536038264
 12
208.1867589667133
 22
99.30789869371597
 13
208.1867589667133
 23
99.30789869371597
  0
MTEXT
  5
16F
330
111
100
AcDbEntity
  8
文本层
 62
     0
100
AcDbMText
 10
130.1867589667133
 20
102.432898693716
 30
0.0
210
0.0
220
0.0
230
1.0
 11
1.0
 21
0.0
 31
0.0
 40
5.0
 41
0.0
 71
     5
 72
     1
  1
{\f??|b0|i0|c0|p54;39}
  7
数字与字母
 73
     1
 44
1.0
  0
POINT
  5
170
330
111
100
AcDbEntity
  8
Defpoints
 62
     0
100
AcDbPoint
 10
52.18675896671333
 20
111.3248940872364
 30
0.0
 50
0.0
  0
POINT
  5
171
330
111
100
AcDbEntity
  8
Defpoints
 62
     0
100
AcDbPoint
 10
208.1867589667133
 20
138.2669538067373
 30
0.0
 50
0.0
  0
POINT
  5
172
330
111
100
AcDbEntity
  8
Defpoints
 62
     0
100
AcDbPoint
 10
208.1867589667133
 20
99.30789869371597
 30
0.0
 50
0.0
  0
ENDBLK
  5
11C
330
111
100
AcDbEntity
  8
0
100
AcDbBlockEnd
  0
BLOCK
  5
124
330
11E
100
AcDbEntity
  8
0
100
AcDbBlockBegin
  2
*D4
 70
     1
 10
0.0
 20
0.0
 30
0.0
  3
*D4
  1

  0
LINE
  5
17C
330
11E
100
AcDbEntity
  8
文本层
370
    -2
 62
     0
100
AcDbLine
 10
37.10409538399661
 20
185.4832573441992
 30
0.0
 11
21.85238984441694
 21
189.8320953184987
 31
0.0
  0
MTEXT
  5
17D
330
11E
100
AcDbEntity
  8
文本层
 62
     0
100
AcDbMText
 10
33.27285464257135
 20
189.8252435695624
 30
0.0
210
0.0
220
0.0
230
1.0
 11
0.9616702499521478
 21
-0.274208552669266
 31
0.0
 40
5.0
 41
0.0
 71
     5
 72
     1
  1
{\f??|b0|i0|c0|p54;R15}
  7
数字与字母
 73
     1
 44
1.0
  0
SOLID
  5
17E
330
11E
100
AcDbEntity
  8
文本层
 62
     0
100
AcDbTrace
 38
0.0
 10
22.01234483347401
 20
190.3930696309708
 11
21.69243485535987
 21
189.2711210060266
 12
18.48654396958442
 22
190.7918252528411
 13
18.48654396958442
 23
190.7918252528411
  0
POINT
  5
17F
330
11E
100
AcDbEntity
  8
Defpoints
 62
     0
100
AcDbPoint
 10
18.48654396958442
 20
190.7918252528411
 30
0.0
 50
0.0
  0
POINT
  5
180
330
11E
100
AcDbEntity
  8
Defpoints
 62
     0
100
AcDbPoint
 10
76.18675896671328
 20
174.3393120926852
 30
0.0
 50
0.0
  0
ENDBLK
  5
125
330
11E
100
AcDbEntity
  8
0
100
AcDbBlockEnd
  0
BLOCK
  5
138
330
12E
100
AcDbEntity
  8
0
100
AcDbBlockBegin
  2
*D5
 70
     1
 10
0.0
 20
0.0
 30
0.0
  3
*D5
  1

  0
LINE
  5
181
330
12E
100
AcDbEntity
  8
文本层
370
    -2
 62
     0
100
AcDbLine
 10
264.4679203950991
 20
150.0906007867211
 30
0.0
 11
264.4679203950991
 21
97.64533511750187
 31
0.0
  0
LINE
  5
182
330
12E
100
AcDbEntity
  8
文本层
370
    -2
 62
     0
100
AcDbLine
 10
348.467920395099
 20
150.090600786721
 30
0.0
 11
348.467920395099
 21
97.64533511750187
 31
0.0
  0
LINE
  5
183
330
12E
100
AcDbEntity
  8
文本层
370
    -2
 62
     0
100
AcDbLine
 10
267.9679203950991
 20
100.1453351175019
 30
0.0
 11
344.967920395099
 21
100.1453351175019
 31
0.0
  0
SOLID
  5
184
330
12E
100
AcDbEntity
  8
文本层
 62
     0
100
AcDbTrace
 38
0.0
 10
267.9679203950991
 20
100.7286684508352
 11
267.9679203950991
 21
99.56200178416854
 12
264.4679203950991
 22
100.1453351175019
 13
264.4679203950991
 23
100.1453351175019
  0
SOLID
  5
185
330
12E
100
AcDbEntity
  8
文本层
 62
     0
100
AcDbTrace
 38
0.0
 10
344.967920395099
 20
100.7286684508352
 11
344.967920395099
 21
99.56200178416854
 12
348.467920395099
 22
100.1453351175019
 13
348.467920395099
 23
100.1453351175019
  0
MTEXT
  5
186
330
12E
100
AcDbEntity
  8
文本层
 62
     0
100
AcDbMText
 10
306.4679203950991
 20
103.2703351175019
 30
0.0
210
0.0
220
0.0
230
1.0
 11
1.0
 21
0.0
 31
0.0
 40
5.0
 41
0.0
 71
     5
 72
     1
  1
{\f??|b0|i0|c0|p54;21}
  7
数字与字母
 73
     1
 44
1.0
  0
POINT
  5
187
330
12E
100
AcDbEntity
  8
Defpoints
 62
     0
100
AcDbPoint
 10
264.4679203950991
 20
150.0906007867211
 30
0.0
 50
0.0
  0
POINT
  5
188
330
12E
100
AcDbEntity
  8
Defpoints
 62
     0
100
AcDbPoint
 10
348.467920395099
 20
150.090600786721
 30
0.0
 50
0.0
  0
POINT
  5
189
330
12E
100
AcDbEntity
  8
Defpoints
 62
     0
100
AcDbPoint
 10
348.467920395099
 20
100.1453351175019
 30
0.0
 50
0.0
  0
ENDBLK
  5
139
330
12E
100
AcDbEntity
  8
0
100
AcDbBlockEnd
  0
BLOCK
  5
150
330
146
100
AcDbEntity
  8
0
100
AcDbBlockBegin
  2
*D6
 70
     1
 10
0.0
 20
0.0
 30
0.0
  3
*D6
  1

  0
LINE
  5
18A
330
146
100
AcDbEntity
  8
文本层
370
    -2
 62
     0
100
AcDbLine
 10
306.4679203950991
 20
222.8367347046139
 30
0.0
 11
384.1296557570049
 21
222.8367347046139
 31
0.0
  0
LINE
  5
18B
330
146
100
AcDbEntity
  8
文本层
370
    -2
 62
     0
100
AcDbLine
 10
306.467920395099
 20
125.8418894807567
 30
0.0
 11
384.1296557570049
 21
125.8418894807567
 31
0.0
  0
LINE
  5
18C
330
146
100
AcDbEntity
  8
文本层
370
    -2
 62
     0
100
AcDbLine
 10
381.6296557570049
 20
219.3367347046139
 30
0.0
 11
381.6296557570049
 21
129.3418894807567
 31
0.0
  0
SOLID
  5
18D
330
146
100
AcDbEntity
  8
文本层
 62
     0
100
AcDbTrace
 38
0.0
 10
381.0463224236716
 20
219.3367347046139
 11
382.2129890903382
 21
219.3367347046139
 12
381.6296557570049
 22
222.8367347046139
 13
381.6296557570049
 23
222.8367347046139
  0
SOLID
  5
18E
330
146
100
AcDbEntity
  8
文本层
 62
     0
100
AcDbTrace
 38
0.0
 10
381.0463224236716
 20
129.3418894807567
 11
382.2129890903382
 21
129.3418894807567
 12
381.6296557570049
 22
125.8418894807567
 13
381.6296557570049
 23
125.8418894807567
  0
MTEXT
  5
18F
330
146
100
AcDbEntity
  8
文本层
 62
     0
100
AcDbMText
 10
378.5046557570049
 20
174.3393120926853
 30
0.0
210
0.0
220
0.0
230
1.0
 11
6.123031769111886E-17
 21
1.0
 31
0.0
 40
5.0
 41
0.0
 71
     5
 72
     1
  1
{\f??|b0|i0|c0|p54;24}
  7
数字与字母
 73
     1
 44
1.0
  0
POINT
  5
190
330
146
100
AcDbEntity
  8
Defpoints
 62
     0
100
AcDbPoint
 10
306.4679203950991
 20
222.8367347046139
 30
0.0
 50
0.0
  0
POINT
  5
191
330
146
100
AcDbEntity
  8
Defpoints
 62
     0
100
AcDbPoint
 10
306.467920395099
 20
125.8418894807567
 30
0.0
 50
0.0
  0
POINT
  5
192
330
146
100
AcDbEntity
  8
Defpoints
 62
     0
100
AcDbPoint
 10
381.6296557570049
 20
125.8418894807567
 30
0.0
 50
0.0
  0
ENDBLK
  5
151
330
146
100
AcDbEntity
  8
0
100
AcDbBlockEnd
  0
ENDSEC
  0
SECTION
  2
ENTITIES
  0
LINE
  5
AC
102
{ACAD_REACTORS
330
15C
102
}
330
1F
100
AcDbEntity
  8
点划线
100
AcDbLine
 10
306.467920395099
 20
234.8367347046139
 30
0.0
 11
306.467920395099
 21
113.8418894807568
 31
0.0
  0
LWPOLYLINE
  5
AD
102
{ACAD_REACTORS
330
144
330
15C
102
}
330
1F
100
AcDbEntity
  8
轮廓线
100
AcDbPolyline
 90
        6
 70
     1
 43
0.0
 10
264.4679203950991
 20
150.0906007867211
 10
306.4679203950991
 20
125.8418894807567
 10
348.467920395099
 20
150.090600786721
 10
348.4679203950991
 20
198.5880233986496
 10
306.4679203950991
 20
222.8367347046139
 10
264.4679203950991
 20
198.5880233986497
  0
CIRCLE
  5
AE
330
1F
100
AcDbEntity
  8
轮廓线
100
AcDbCircle
 10
306.467920395099
 20
174.3393120926853
 30
0.0
 40
41.99999999999996
  0
LINE
  5
B3
330
1F
100
AcDbEntity
  8
点划线
100
AcDbLine
 10
4.186758966713338
 20
174.3393120926852
 30
0.0
 11
220.1867589667133
 21
174.3393120926852
 31
0.0
  0
LINE
  5
B4
330
1F
100
AcDbEntity
  8
轮廓线
100
AcDbLine
 10
208.1867589667133
 20
154.090600786721
 30
0.0
 11
208.1867589667134
 21
194.5880233986497
 31
0.0
  0
LINE
  5
B5
102
{ACAD_REACTORS
330
F7
102
}
330
1F
100
AcDbEntity
  8
轮廓线
100
AcDbLine
 10
88.18675896671334
 20
198.5880233986497
 30
0.0
 11
88.18675896671334
 21
150.0906007867211
 31
0.0
  0
LINE
  5
B6
102
{ACAD_REACTORS
330
10F
102
}
330
1F
100
AcDbEntity
  8
轮廓线
100
AcDbLine
 10
52.18675896671333
 20
125.8418894807567
 30
0.0
 11
52.18675896671333
 21
222.8367347046139
 31
0.0
  0
LINE
  5
B7
102
{ACAD_REACTORS
330
10F
102
}
330
1F
100
AcDbEntity
  8
轮廓线
100
AcDbLine
 10
16.18675896671334
 20
137.9662451337389
 30
0.0
 11
16.18675896671334
 21
211.4534504339497
 31
0.0
  0
LINE
  5
B8
330
1F
100
AcDbEntity
  8
轮廓线
100
AcDbLine
 10
21.30506803066435
 20
222.8367347046139
 30
0.0
 11
52.18675896671333
 21
222.8367347046139
 31
0.0
  0
LINE
  5
BA
330
1F
100
AcDbEntity
  8
轮廓线
100
AcDbLine
 10
21.30506803066435
 20
198.5880233986497
 30
0.0
 11
204.1867589667134
 21
198.5880233986497
 31
0.0
  0
LINE
  5
BB
330
1F
100
AcDbEntity
  8
轮廓线
100
AcDbLine
 10
21.30506803066433
 20
150.0906007867211
 30
0.0
 11
204.1867589667133
 21
150.090600786721
 31
0.0
  0
LINE
  5
BD
330
1F
100
AcDbEntity
  8
轮廓线
100
AcDbLine
 10
21.30506803066435
 20
125.8418894807567
 30
0.0
 11
52.18675896671333
 21
125.8418894807567
 31
0.0
  0
ARC
  5
BE
102
{ACAD_REACTORS
330
12C
102
}
330
1F
100
AcDbEntity
  8
轮廓线
100
AcDbCircle
 10
76.18675896671334
 20
174.3393120926854
 30
0.0
 40
60.0
100
AcDbArc
 50
156.1624286630942
 51
203.8375713369057
  0
ARC
  5
BF
330
1F
100
AcDbEntity
  8
轮廓线
100
AcDbCircle
 10
33.05247562462433
 20
210.7123790516318
 30
0.0
 40
16.88198996500789
100
AcDbArc
 50
134.0953438222719
 51
225.9046561777282
  0
ARC
  5
C0
330
1F
100
AcDbEntity
  8
轮廓线
100
AcDbCircle
 10
33.10612486569509
 20
137.9662451337389
 30
0.0
 40
16.91936589898175
100
AcDbArc
 50
134.2258218963088
 51
225.7741781036912
  0
LINE
  5
C2
330
1F
100
AcDbEntity
  8
点划线
100
AcDbLine
 10
252.4679203950991
 20
174.3393120926852
 30
0.0
 11
360.467920395099
 21
174.3393120926852
 31
0.0
  0
LINE
  5
C8
330
1F
100
AcDbEntity
  8
轮廓线
100
AcDbLine
 10
204.1867589667133
 20
150.090600786721
 30
0.0
 11
208.1867589667133
 21
154.090600786721
 31
0.0
  0
LINE
  5
C9
102
{ACAD_REACTORS
330
15F
102
}
330
1F
100
AcDbEntity
  8
轮廓线
100
AcDbLine
 10
208.1867589667134
 20
194.5880233986497
 30
0.0
 11
204.1867589667134
 21
198.5880233986497
 31
0.0
  0
LINE
  5
CA
330
1F
100
AcDbEntity
  8
轮廓线
100
AcDbLine
 10
204.1867589667134
 20
198.5880233986497
 30
0.0
 11
204.1867589667134
 21
150.0906007867211
 31
0.0
  0
LINE
  5
CB
330
1F
100
AcDbEntity
  8
隐藏线
100
AcDbLine
 10
208.1867589667134
 20
194.5880233986497
 30
0.0
 11
88.18675896671334
 21
194.5880233986497
 31
0.0
  0
LINE
  5
CC
102
{ACAD_REACTORS
330
F7
102
}
330
1F
100
AcDbEntity
  8
隐藏线
100
AcDbLine
 10
208.1867589667133
 20
154.090600786721
 30
0.0
 11
88.18675896671334
 21
154.0906007867211
 31
0.0
  0
DIMENSION
  5
DF
102
{ACAD_REACTORS
330
F7
102
}
102
{ACAD_XDICTIONARY
360
ED
102
}
330
1F
100
AcDbEntity
  8
文本层
100
AcDbDimension
  2
*D1
 10
208.1867589667133
 20
126.9433068267535
 30
0.0
 11
148.1867589667133
 21
130.0683068267535
 31
0.0
 70
    32
  1
{\f??|b0|i0|c0|p54;30}
 71
     5
 42
120.0
  3
机械标注
100
AcDbAlignedDimension
 13
88.18675896671334
 23
150.0906007867211
 33
0.0
 14
208.1867589667133
 24
152.090600786721
 34
0.0
 52
0.0
100
AcDbRotatedDimension
  0
DIMENSION
  5
F8
102
{ACAD_REACTORS
330
10F
102
}
102
{ACAD_XDICTIONARY
360
105
102
}
330
1F
100
AcDbEntity
  8
文本层
100
AcDbDimension
  2
*D2
 10
52.18675896671333
 20
99.30789869371597
 30
0.0
 11
34.18675896671333
 21
102.432898693716
 31
0.0
 70
    32
  1
{\f??|b0|i0|c0|p54;9}
 71
     5
 42
36.0
  3
机械标注
100
AcDbAlignedDimension
 13
16.18675896671334
 23
137.9662451337389
 33
0.0
 14
52.18675896671333
 24
125.8418894807567
 34
0.0
 52
0.0
100
AcDbRotatedDimension
  0
DIMENSION
  5
110
330
1F
100
AcDbEntity
  8
文本层
100
AcDbDimension
  2
*D3
 10
208.1867589667133
 20
99.30789869371597
 30
0.0
 11
130.1867589667133
 21
102.432898693716
 31
0.0
 70
    32
  1
{\f??|b0|i0|c0|p54;39}
 71
     5
 42
156.0
  3
机械标注
100
AcDbAlignedDimension
 13
52.18675896671333
 23
111.3248940872364
 33
0.0
 14
208.1867589667133
 24
138.2669538067373
 34
0.0
 52
0.0
100
AcDbRotatedDimension
  0
DIMENSION
  5
11D
102
{ACAD_REACTORS
330
12C
102
}
102
{ACAD_XDICTIONARY
360
126
102
}
330
1F
100
AcDbEntity
  8
文本层
100
AcDbDimension
  2
*D4
 10
76.18675896671328
 20
174.3393120926852
 30
0.0
 11
32.41595291547989
 21
186.8200240384619
 31
0.0
 70
   164
  1
{\f??|b0|i0|c0|p54;R15}
 71
     5
 42
59.99999999999999
  3
机械标注
100
AcDbRadialDimension
 15
18.48654396958442
 25
190.7918252528411
 35
0.0
 40
0.0
1001
ACAD
1000
DSTYLE
1002
{
1070
   288
1070
     1
1002
}
  0
DIMENSION
  5
12D
102
{ACAD_REACTORS
330
144
102
}
102
{ACAD_XDICTIONARY
360
13A
102
}
330
1F
100
AcDbEntity
  8
文本层
100
AcDbDimension
  2
*D5
 10
348.467920395099
 20
100.1453351175019
 30
0.0
 11
306.4679203950991
 21
103.2703351175019
 31
0.0
 70
    32
  1
{\f??|b0|i0|c0|p54;21}
 71
     5
 42
83.99999999999994
  3
机械标注
100
AcDbAlignedDimension
 13
264.4679203950991
 23
150.0906007867211
 33
0.0
 14
348.467920395099
 24
150.090600786721
 34
0.0
 52
0.0
100
AcDbRotatedDimension
  0
DIMENSION
  5
145
102
{ACAD_REACTORS
330
15C
102
}
102
{ACAD_XDICTIONARY
360
152
102
}
330
1F
100
AcDbEntity
  8
文本层
100
AcDbDimension
  2
*D6
 10
381.6296557570049
 20
125.8418894807567
 30
0.0
 11
378.5046557570049
 21
174.3393120926853
 31
0.0
 70
    32
  1
{\f??|b0|i0|c0|p54;24}
 71
     5
 42
96.9948452238572
  3
机械标注
100
AcDbAlignedDimension
 13
306.4679203950991
 23
222.8367347046139
 33
0.0
 14
306.467920395099
 24
125.8418894807567
 34
0.0
 52
0.0
 50
90.0
100
AcDbRotatedDimension
  0
LEADER
  5
15D
102
{ACAD_REACTORS
330
15F
102
}
102
{ACAD_XDICTIONARY
360
15E
102
}
330
1F
100
AcDbEntity
  8
文本层
100
AcDbLeader
  3
机械标注
 71
     1
 73
     3
 72
     0
 74
     1
 40
0.0
 41
0.0
 76
     3
 10
206.1867589667134
 20
196.5880233986497
 30
0.0
 10
218.0984697005615
 20
212.2243529905948
 30
0.0
 10
228.8209637595
 20
212.2243529905948
 30
0.0
210
0.0
220
0.0
230
1.0
211
1.0
221
0.0
231
0.0
212
0.0
222
0.0
232
0.0
213
0.0
223
0.0
233
0.0
340
0
1001
ACAD
1000
DSTYLE
1002
{
1070
   147
1040
0.625
1070
    77
1070
     0
1002
}
  0
TEXT
  5
160
330
1F
100
AcDbEntity
  8
文本层
100
AcDbText
 10
231.5718642171532
 20
210.8541750728866
 30
0.0
 40
3.75
  1
1x45%%d
 41
0.7
  7
数字与字母
 11
0.0
 21
0.0
 31
0.0
100
AcDbText
  0
VIEWPORT
  5
74
330
59
100
AcDbEntity
 67
     1
  8
0
100
AcDbViewport
 10
134.8228915879863
 20
101.5999970436096
 30
0.0
 40
405.4378955490815
 41
218.5599527535252
 68
     1
 69
     1
 12
134.8228915879863
 22
101.5999970436096
 13
0.0
 23
0.0
 14
0.5
 24
0.5
 15
0.5
 25
0.5
 16
0.0
 26
0.0
 36
1.0
 17
0.0
 27
0.0
 37
0.0
 42
50.0
 43
0.0
 44
0.0
 45
218.5599527535252
 50
0.0
 51
0.0
 72
   100
 90
    32800
  1

281
     0
 71
     1
 74
     0
110
0.0
120
0.0
130
0.0
111
1.0
121
0.0
131
0.0
112
0.0
122
1.0
132
0.0
 79
     0
146
0.0
348
0
340
0
345
0
346
0
  0
VIEWPORT
  5
76
330
59
100
AcDbEntity
 67
     1
  8
0
100
AcDbViewport
 10
133.3499939441681
 20
101.5999939441681
 30
0.0
 40
213.3599903106689
 41
162.5599903106689
 68
     1
 69
     2
 12
210.0
 22
148.5
 13
0.0
 23
0.0
 14
10.0
 24
10.0
 15
10.0
 25
10.0
 16
0.0
 26
0.0
 36
1.0
 17
0.0
 27
0.0
 37
0.0
 42
50.0
 43
0.0
 44
0.0
 45
323.8170928200298
 50
0.0
 51
0.0
 72
   100
 90
    32864
  1

281
     0
 71
     1
 74
     0
110
0.0
120
0.0
130
0.0
111
1.0
121
0.0
131
0.0
112
0.0
122
1.0
132
0.0
 79
     0
146
0.0
348
0
340
0
345
0
346
0
  0
ENDSEC
  0
SECTION
  2
OBJECTS
  0
DICTIONARY
  5
C
330
0
100
AcDbDictionary
281
     1
  3
ACAD_GROUP
350
D
  3
ACAD_LAYOUT
350
1A
  3
ACAD_MLINESTYLE
350
17
  3
ACAD_PLOTSETTINGS
350
19
  3
ACAD_PLOTSTYLENAME
350
E
  3
AcDbVariableDictionary
350
67
  0
DICTIONARY
  5
D
102
{ACAD_REACTORS
330
C
102
}
330
C
100
AcDbDictionary
281
     1
  0
ACDBDICTIONARYWDFLT
  5
E
102
{ACAD_REACTORS
330
C
102
}
330
C
100
AcDbDictionary
281
     1
  3
Normal
350
F
100
AcDbDictionaryWithDefault
340
F
  0
ACDBPLACEHOLDER
  5
F
102
{ACAD_REACTORS
330
E
102
}
330
E
  0
DICTIONARY
  5
17
102
{ACAD_REACTORS
330
C
102
}
330
C
100
AcDbDictionary
281
     1
  3
Standard
350
18
  0
MLINESTYLE
  5
18
102
{ACAD_REACTORS
330
17
102
}
330
17
100
AcDbMlineStyle
  2
STANDARD
 70
     0
  3

 62
   256
 51
90.0
 52
90.0
 71
     2
 49
0.5
 62
   256
  6
BYLAYER
 49
-0.5
 62
   256
  6
BYLAYER
  0
DICTIONARY
  5
19
102
{ACAD_REACTORS
330
C
102
}
330
C
100
AcDbDictionary
281
     1
  0
DICTIONARY
  5
1A
102
{ACAD_REACTORS
330
C
102
}
330
C
100
AcDbDictionary
281
     1
  3
Model
350
22
  3
布局1
350
5A
  3
布局2
350
5F
  0
LAYOUT
  5
22
102
{ACAD_REACTORS
330
1A
102
}
330
1A
100
AcDbPlotSettings
  1

  2
none_device
  4
ANSI_A_(8.50_x_11.00_Inches)
  6

 40
6.349999904632568
 41
19.04999923706055
 42
6.350006103515625
 43
19.04998779296875
 44
215.8999938964844
 45
279.3999938964844
 46
0.0
 47
0.0
 48
0.0
 49
0.0
140
0.0
141
0.0
  6

142
1.0
143
57.07986212157697
 70
 11952
 72
     0
 73
     1
 74
     0
  7

 75
     0
147
0.01751931351673652
148
-2282.040442273535
149
2.561166666666503
100
AcDbLayout
  1
Model
 70
     1
 71
     0
 10
0.0
 20
0.0
 11
12.0
 21
9.0
 12
0.0
 22
0.0
 32
0.0
 14
0.0
 24
0.0
 34
0.0
 15
0.0
 25
0.0
 35
0.0
146
0.0
 13
0.0
 23
0.0
 33
0.0
 16
1.0
 26
0.0
 36
0.0
 17
0.0
 27
1.0
 37
0.0
 76
     0
330
1F
  0
LAYOUT
  5
5A
102
{ACAD_REACTORS
330
1A
102
}
330
1A
100
AcDbPlotSettings
  1

  2
none_device
  4
Letter_(8.50_x_11.00_Inches)
  6

 40
6.349999904632568
 41
6.349999904632568
 42
6.350006103515625
 43
6.350006103515625
 44
215.8999938964844
 45
279.3999938964844
 46
0.0
 47
0.0
 48
0.0
 49
0.0
140
0.0
141
0.0
  6

142
1.0
143
1.0
 70
   688
 72
     1
 73
     1
 74
     5
  7

 75
    16
147
1.0
148
0.0
149
0.0
100
AcDbLayout
  1
布局1
 70
     1
 71
     1
 10
-6.350006103515625
 20
-6.349999904632568
 11
273.0499877929688
 21
209.5499939918518
 12
0.0
 22
0.0
 32
0.0
 14
26.66999878883362
 24
20.31999878883363
 34
0.0
 15
240.0299890995026
 25
182.8799890995026
 35
0.0
146
0.0
 13
0.0
 23
0.0
 33
0.0
 16
1.0
 26
0.0
 36
0.0
 17
0.0
 27
1.0
 37
0.0
 76
     0
330
59
331
74
  0
LAYOUT
  5
5F
102
{ACAD_REACTORS
330
1A
102
}
330
1A
100
AcDbPlotSettings
  1

  2
none_device
  4
Letter_(8.50_x_11.00_Inches)
  6

 40
6.349999904632568
 41
6.349999904632568
 42
6.350006103515625
 43
6.350006103515625
 44
215.8999938964844
 45
279.3999938964844
 46
0.0
 47
0.0
 48
0.0
 49
0.0
140
0.0
141
0.0
  6

142
1.0
143
1.0
 70
   688
 72
     1
 73
     1
 74
     5
  7

 75
    16
147
1.0
148
0.0
149
0.0
100
AcDbLayout
  1
布局2
 70
     1
 71
     2
 10
-6.350006103515625
 20
-6.349999904632568
 11
273.0499877929688
 21
209.5499939918518
 12
0.0
 22
0.0
 32
0.0
 14
26.66999878883362
 24
20.31999878883363
 34
0.0
 15
240.0299890995026
 25
182.8799890995026
 35
0.0
146
0.0
 13
0.0
 23
0.0
 33
0.0
 16
1.0
 26
0.0
 36
0.0
 17
0.0
 27
1.0
 37
0.0
 76
     0
330
5E
331
D5
  0
DICTIONARY
  5
67
102
{ACAD_REACTORS
330
C
102
}
330
C
100
AcDbDictionary
281
     1
  3
DIMASSOC
350
68
  3
HIDETEXT
350
6C
  0
DICTIONARYVAR
  5
68
102
{ACAD_REACTORS
330
67
102
}
330
67
100
DictionaryVariables
280
     0
  1
2
  0
DICTIONARYVAR
  5
6C
102
{ACAD_REACTORS
330
67
102
}
330
67
100
DictionaryVariables
280
     0
  1
1
  0
DICTIONARY
  5
ED
330
DF
100
AcDbDictionary
280
     1
281
     1
  3
ACAD_DIMASSOC
360
F7
  0
DICTIONARY
  5
105
330
F8
100
AcDbDictionary
280
     1
281
     1
  3
ACAD_DIMASSOC
360
10F
  0
DICTIONARY
  5
126
330
11D
100
AcDbDictionary
280
     1
281
     1
  3
ACAD_DIMASSOC
360
12C
  0
DICTIONARY
  5
13A
330
12D
100
AcDbDictionary
280
     1
281
     1
  3
ACAD_DIMASSOC
360
144
  0
DICTIONARY
  5
152
330
145
100
AcDbDictionary
280
     1
281
     1
  3
ACAD_DIMASSOC
360
15C
  0
DICTIONARY
  5
15E
330
15D
100
AcDbDictionary
280
     1
281
     1
  3
ACAD_DIMASSOC
360
15F
  0
ENDSEC
  0
SECTION
  2
THUMBNAILIMAGE
 90
    18627
310
BF4800000201030100005000000002530100005C480000000000000000000000000000000000000000000000000000000000000000000000000000000000000000000000000000000000000000000000000000000000000000000000000000000000000000000028000000B400000061000000010008000000000034440000
310
00000000000000000001000000000000FFFFFF00FFFFFF0000000000FFFFFF00FFFFFF00FFFFFF00FFFFFF00FFFFFF00FFFFFF00FFFFFF00FFFFFF00330000006600000099000000CC000000FF00000000330000333300006633000099330000CC330000FF33000000660000336600006666000099660000CC660000FF6600
310
0000990000339900006699000099990000CC990000FF99000000CC000033CC000066CC000099CC0000CCCC0000FFCC000000FF000033FF000066FF000099FF0000CCFF0000FFFF000000003300330033006600330099003300CC003300FF00330000333300333333006633330099333300CC333300FF333300006633003366
310
33006666330099663300CC663300FF66330000993300339933006699330099993300CC993300FF99330000CC330033CC330066CC330099CC3300CCCC3300FFCC330000FF330033FF330066FF330099FF3300CCFF3300FFFF330000006600330066006600660099006600CC006600FF00660000336600333366006633660099
310
336600CC336600FF33660000666600336666006666660099666600CC666600FF66660000996600339966006699660099996600CC996600FF99660000CC660033CC660066CC660099CC6600CCCC6600FFCC660000FF660033FF660066FF660099FF6600CCFF6600FFFF660000009900330099006600990099009900CC009900
310
FF00990000339900333399006633990099339900CC339900FF33990000669900336699006666990099669900CC669900FF66990000999900339999006699990099999900CC999900FF99990000CC990033CC990066CC990099CC9900CCCC9900FFCC990000FF990033FF990066FF990099FF9900CCFF9900FFFF99000000CC
310
003300CC006600CC009900CC00CC00CC00FF00CC000033CC003333CC006633CC009933CC00CC33CC00FF33CC000066CC003366CC006666CC009966CC00CC66CC00FF66CC000099CC003399CC006699CC009999CC00CC99CC00FF99CC0000CCCC0033CCCC0066CCCC0099CCCC00CCCCCC00FFCCCC0000FFCC0033FFCC0066FF
310
CC0099FFCC00CCFFCC00FFFFCC000000FF003300FF006600FF009900FF00CC00FF00FF00FF000033FF003333FF006633FF009933FF00CC33FF00FF33FF000066FF003366FF006666FF009966FF00CC66FF00FF66FF000099FF003399FF006699FF009999FF00CC99FF00FF99FF0000CCFF0033CCFF0066CCFF0099CCFF00CC
310
CCFF00FFCCFF0000FFFF0033FFFF0066FFFF0099FFFF00CCFFFF0000000000FFFFFF000D0D0D001A1A1A00282828003535350043434300505050005D5D5D006B6B6B00787878008686860093939300A1A1A100AEAEAE00BBBBBB00C9C9C900D6D6D600E4E4E400F1F1F10000000000FFFFFF00FFFFFF00FFFFFF00FFFFFF00
310
FFFFFF00FFFFFF00FFFFFF00FFFFFF00FFFFFF00FFFFFF0000000000000000000000000000000000000000000000000000000000000000000000000000000000000000000000000000000000000000000000000000000000000000000000000000000000000000000000000000000000000000000000000000000000000000
310
00000000000000000000000000000000000000000000000000000000000000000000000000000000000000000000000000000000000000000000000000000000000000000000000000000000000000000000000000000000000000000000000000000000000000000000000000000000000000000000000000000000000000
310
00000000000000000000000000000000000000000000000000000000000000000000000000000000000000000000000000000000000000000000000000000000000000000000000000000000000000000000000000000000000000000000000000000000000000000000000000000000000000000000000000000000000000
310
00000000000000000000000000000000000000000000000000000000000000000000000000000000000000000000000000000000000000000000000000000000000000000000000000000000000000000000000000000000000000000000000000000000000000000000000000000000000000000000000000000000000000
310
00000000000000000000000000000000000000000000000000000000000000000000000000000000000000000000000000000000000000000000000000000000000000000000000000000000000000000000000000000000000000000000000000000000000000000000000000000000000000000000000000000000000000
310
00000000000000000000000000000000000000000000000000000000000000000000000000000000000000000000000000000000000000000000000000000000000000000000000000000000000000000000000000000000000000000000000000000000000000000000000000000000000000000000000000000000000000
310
00000000000000000000000000000000000000000000000000000000000000000000000000000000000000000000000000000000000000000000000000000000000000000000000000000000000000000000000000000000000000000000000000000000000000000000000000000000000000000000000000000000000000
310
00000000000000000000000000000000000000000000000000000000000000000000000000000000000000000000000000000000000000000000000000000000000000000000000000000000000000000000000000000000000000000000000000000000000000000000000000000000000000000000000000000000000000
310
00000000000000000000000000000000000000000000000000000000000000000000000000000000000000000000000000000000000000000000000000000000000000000000000000000000000000000000000000000000000000000000000000000000000000000000000000000000000000000000000000000000000000
310
00000000000000000000000000000000000000000000000000000000000000000000000000000000000000000000000000000000000000000000000000000000000000000000000000000000000000000000000000000000000000000000000000000000000000000000000000000000000000000000000000000000000000
310
00000000000000000000000000000000000000000000000000000000000000000000000000000000000000000000000000000000000000000000000000000000000000000000000000000000000000000000000000000000000000000000000000000000000000000000000000000000000000000000000000000000000000
310
00000000000000000000000000000000000000000000000000000000000000000000000000000000000000000000000000000000000000000000000000000000000000000000000000000000000000000000000000000000000000000000000000000000000000000000000000000000000000000000000000000000000000
310
00000000000000000000000000000000000000000000000000000000000000000000000000000000000000000000000000000000000000000000000000000000000000000000000000000000000000000000000000000000000000000000000000000000000000000000000000000000000000000000000000000000000000
310
00000000000000000000000000000000000000000000000000000000000000000000000000000000000000000000000000000000000000000000000000000000000000000000000000000000000000000000000000000000000000000000000000000000000000000000000000000000000000000000000000000000000000
310
00000000000000000000000000000000000000000000000000000000000000000000000000000000000000000000000000000000000000000000000000000000000000000000000000000000000000000000000000000000000000000000000000000000000000000000000000000000000000000000000000000000000000
310
00000000000000000000000000000000000000000000000000000000000000000000000000000000000000000000000000000000000000000000000000000000000000000000000000000000000000000000000000000000000000000000000000000000000000000000000000000000000000000000000000000000000000
310
00000000000000000000000000000000000000000000000000000000000000000000000000000000000000000000000000000000000000000000000000000000000000000000000000000000000000000000000000000000000000000000000000000000000000000000000000000000000000000000000000000000000000
310
00000000000000000000000000000000000000000000000000000000000000000000000000000000000000000000000000000000000000000000000000000000000000000000000000000000000000000000000000000000000000000000000000000000000000000000000000000000000000000000000000000000000000
310
00000000000000000000000000000000000000000000000000000000000000000000000000000000000000000000000000000000000000000000000000000000000000000000000000000000000000000000000000000000000000000000000000000000000000000000000000000000000000000000000000000000000000
310
00000000000000000000000000000000000000000000000000000000000000000000000000000000000000000000000000000000000000000000000000000000000000000000000000000000000000000000000000000000000000000000000000000000000000000000000000000000000000000000000000000000000000
310
00000000000000000000000000000000000000000000000000000000000000000000000000000000000000000000000000000000000000000000000000000000000000000000000000000000000000000000000000000000000000000000000000000000000000000000000000000000000000000000000000000000000000
310
00000000000000000000000000000000000000000000000000000000000000000000000000000000000000000000000000000000000000000000000000000000000000000000000000000000000000000000000000000000000000000000000000000000000000000000000000000000000000000000000000000000000000
310
00000000000000000000000000000000000000000000000000000000000000000000000000000000000000000000000000000000000000000000000000000000000000000000000000000000000000000000000000000000000000000000000000000000000000000000000000000000000000000000000000000000000000
310
00000000000000000000000000000000000000000000000000000000000000000000000000000000000000000000000000000000000000000000000000000000000000000000000000000000000000000000000000000000000000000000000000000000000000000000000000000000000000000000000000000000000000
310
00000000000000000000000000000000000000000000000000000000000000000000000000000000000000000000000000000000000000000000000000000000000000000000000000000000000000000000000000000000000000000000000000000000000000000000000000000000000000000000000000000000000000
310
00000000000000000000000000000000000000000000000000000000000000000000000000000000000000000000000000000000000000000000000000000000000000000000000000000000000000000000000000000000000000000000000000000000000000000000000000000000000000000000000000000000000000
310
00000000000000000000000000000000000000000000000000000000000000000000000000000000000000000000000000000000000000000000000000000000000000000000000000000000000000000000000000000000000000000000000000000000000000000000000000000000000000000000000000000000000000
310
00000000000000000000000000000000000000000000000000000000000000000000000000000000000000000000000000000000000000000000000000000000000000000000000000000000000000000000000000000000000000000000000000000000000000000000000000000000000000000000000000000000000000
310
00000000000000000000000000000000000000000000000000000000000000000000000000000000000000000000000000000000000000000000000000000000000000000000000000000000000000000000000000000000000000000000000000000000000000000000000000000000000000000000000000000000000000
310
00000000000000000000000000000000000000000000000000000000000000000000000000000000000000000000000000000000000000000000000000000000000000000000000000000000000000000000000000000000000000000000000000000000000000000000000000000000000000000000000000000000000000
310
00000000000000000000000000000000000000000000000000000000000000000000000000000000000000000000000000000000000000000000000000000000000000000000000000000000000000000000000000000000000000000000000000000000000000000000000000000000000000000000000000000000000000
310
00000000000000000000000000000000000000000000000000000000000000000000000000000000000000000000000000000000000000000000000000000000000000000000000000000000000000000000000000000000000000000000000000000000000000000000000000000000000000000000000000000000000000
310
00000000000000000000000000000000000000000000000000000000000000000000000000000000000000000000000000000000000000000000000000000000000000000000000000000000000000000000000000000000000000000000000000000000000000000000000000000000000000000000000000000000000000
310
00000000000000000000000000000000000000000000000000000000000000000000000000000000000000000000000000000000000000000000000000000000000000000000000000000000000000000000000000000000000000000000000000000000000000000000000000000000000000000000000000000000000000
310
00000000000000000000000000000000000000000000000000000000000000000000000000000000000000000000000000000000000000000000000000000000000000000000000000000000000000000000000000000000000000000000000000000000000000000000000000000000000000000000000000000000000000
310
00000000000000000000000000000000000000000000000000000000000000000000000000000000000000000000000000000000000000000000000000000000000000000000000000000000000000000000000000000000000000000000000000000000000000000000000000000000000000000000000000000000000000
310
00000000000000000000000000000000000000000000000000000000000000000000000000000000000000000000000000000000000000000000000000000000000000000000000000000000000000000000000000000000000000000000000000000000000000000000000000000000000000000000000000000000000000
310
00000000000000000000000000000000000000000000000000000000000000000000000000000000000000000000000000000000000000000000000000000000000000000000000000000000000000000000000000000000000000000000000000000000000000000000000000000000000000000000000000000000000000
310
00000000000000000000000000000000000000000000000000000000000000000000000000000000000000000000000000000000000000000000000000000000000000000000000000000000000000000000000000000000000000000000000000000000000000000000000000000000000000000000000000000000000000
310
00000000000000000000000000000000000000000000000000000000000000000000000000000000000000000000000000000000000000000000000000000000000000000000000000000000000000000000000000000000000000000000000000000000000000000000000000000000000000000000000000000000000000
310
00000000000000000000000000000000000000000000000000000000000000000000000000000000000000000000000000000000000000000000000000000000000000000000000000000000000000000000000000000000000000000000000000000000000000000000000000000000000000000000000000000000000000
310
00000000000000000000000000000000000000000000000000000000000000000000000000000000000000000000000000000000000000000000000000000000000000000000000000000000000000000000000000000000000000000000000000000000000000000000000000000000000000000000000000000000000000
310
00000000000000000000000000000000000000000000000000000000000000000000000000000000000000000000000000000000000000000000000000000000000000000000000000000000000000000000000000000000000000000000000000000000000000000000000000000000000000000000000000000000000000
310
00000000000000000000000000000000000000000000000000000000000000000000000000000000000000000000000000000000000000000000000000000000000000000000000000000000000000000000000000000000000000000000000000000000000000000000000000000000000000000000000000000000000000
310
00000000000000000000000000000000000000000000000000000000000000000000000000000000000000000000000000000000000000000000000000000000000000000000000000000000000000000000000000000000000000000000000000000000000000000000000000000000000000000000000000000000000000
310
00000000000000000000000000000000000000000000000000000000000000000000000000000000000000000000000000000000000000000000000000000000000000000000000000000000000000000000000000000000000000000000000000000000000000000000000000000000000000000000000000000000000000
310
00000000000000000000000000000000000000000000000000000000000000000000000000000000000000000000000000000000000000000000000000000000000000000000000000000000000000000000000000000000000000000000000000000000000000000000000000000000000000000000000000000000000000
310
00000000000000000000000000000000000000000000000000000000000000000000000000000000000000000000000000000000000000000000000000000000000000000000000000000000000000000000000000000000000000000000000000000000000000000000000000000000000000000000000000000000000000
310
00000000000000000000000000000000000000000000000000000000000000000000000000000000000000000000000000000000000000000000000000000000000000000000000000000000000000000000000000000000000000000000000000000000000000000000000000000000000000000000000000000000000000
310
00000000000000000000000000000000000000000000000000000000000000000000000000000000000000000000000000000000000000000000000000000000000000000000000000000000000000000000000000000000000000000000000000000000000000000000000000000000000000009E00000000000000000000
310
009E00000000000000000000000000000000000000000000000000000000000000000000000000000000000000000000000000009E0000000000000000000000000000000000000000000000000000000000000000000000000000000000000000000000000000000000000000000000000000000000000000000000000000
310
0000000000000000000000000000000000000000000000000000000000000000000000000000000000009E9E9E9E9E9E9E9E9E9E9E9E9E9E9E9E9E9E9E9E9E9E9E9E9E9E9E9E9E9E9E9E9E9E9E9E9E9E9E9E9E9E9E9E9E9E9E9E9E9E9E9E9E9E9E9E9E9E9E9E9E9E9E9E0000000000000000000000000000000000009E9E9E
310
9E9E9E9E9E9E9E9E9E9E9E9E9E9E9E9E9E9E9E9E9E9E9E9E9E000000000000000000000000000000000000000000000000000000000000000000000000000000000000000000000000000000000000000000000000000000000000000000009E00000000009E00000000009E00000000000000000000000000000000000000
310
00000000009E9E0000000000000000000000000000000000000000000000009E0000000000000000000000000000000000009E9E00000000000000000000009E9E00000000000000000000009E9E00000000000000000000000000000000000000000000000000000000000000000000000000000000000000000000000000
310
0000000000000000000000000000000000000000009E00000000009E00000000009E0000000000000000000000000000000000000000000000009E9E0000000000000000000000000000000000000000000000009E0000000000000000000000000000000000009E0000000000000000000000009E9E000000000000000000
310
0000009E000000000000000000000000000000000000000000000000000000000000000000000000000000000000000000000000000000000000000000000000000000000000000000009E00000000000000000000009E00000000000000000000000000000000000000000000000000000000000000000000000000000000
310
000000000000000000009E0000000000000000000000000000000000009E00000000000000000000000000000000000000000000000000009E00000000000000000000000000000000000000000000000000000000000000000000000000000000000000000000000000000000000000000000000000000000000000000000
310
9E00000000000000000000009E00000000000000000000000000000000000000000000000000000000000000000000000000000000000000000000000000009E0000000000000000000000000000000000009E00000000000000000000000000000000000000000000000000009E0000000000000000000000000000000000
310
00000000000000000000000000000000000000000000000000000000000000000000000000000000000000000000000000000000009E00000000000000000000009E00000000000000000000000000000000000000000000000000000000000000000000000000000000000000000000000000009E00000000000000000000
310
00000000000000009E000000000000000000000000BE000000000000000000000000009E000000000000000000000000000000000000000000000000000000000000000000000000000000000000000000000000000000000000000000000000000000000000000000009E00000000000000000000009E0000000000000000
310
0000000000000000000000000000000000000000000000000000000000000000000000000000000000009E0000000000000000000000000000000000009E000000000000000000000000BE000000000000000000000000009E0000000000000000000000000000000000000000000000000000000000000000000000000000
310
00000000000000000000000000000000000000000000000000000000000000009E00000000000000000000009E00000000000000000000000000000000000000000000000000000000000000000000000000000000000000000000000000009E0000000000000000000000000000000000009E000000000000000000000000
310
BE000000000000000000000000009E000000000000000000000000000000000000000000000000000000000000000000000000000000000000000000000000000000000000000000000000000000000000000000009EF5F5F5F5F5F5F5F5F5F5F59E00000000000000000000009E0000000000000000000000000000000000
310
0000000000000000000000000000000000000000009E0000000000000000000000000000000000009E0000000000000000000000F5F5000000000000000000000000009E0000000000000000000000000000000000000000000000000000000000000000000000000000000000000000000000000000000000000000000000
310
00000000000000000000009EF5F5F5F5F5F5F5F5F5F5F59EF5000000000000000000009E9E9E9E9E9E9E9E9E9E9E9E9E9E9E9E9E9E9E9E9E9E9E9E9E9E9E9E9E9E9E9E9E9E9E9E9E9E9E9E0000000000000000000000000000000000009E000000000000000000F5F5F59E9E9E9E9E9E9E9E9E9E9E9E9E9E9E9E9E9E9E9E9E
310
9E9E9E9E9E9E000000000000000000000000000000000000000000000000000000000000000000000000000000000000000000000000000000000000000000F59EF5F5F5F5F5F5F5F5F5F5F5F5F5000000000000000000009E00000000000000000000000000000000009E9E9E000000000000000000000000000000000000
310
9E0000000000000000000000000000000000009E00000000000000F5F5F5F5F5F5F5F5F5F50000000000000000009E000000000000000000009E00000000000000000000000000000000000000000000000000000000000000000000000000000000000000000000000000000000000000000000F59EF5F500000000000000
310
00F5F5F5000000000000000000009E0000000000000000000000000000000000009E9E0000000000000000000000000000000000009E0000000000000000000000000000000000009E000000000000F5F5F5F5F5F5F5F5F5F5F5F5F5000000000000009E000000000000000000009E00000000000000000000000000000000
310
000000000000000000000000000000000000000000000000000000000000000000000000000000000000F59EF5000000000000000000F5F5F5000000000000000000009E00000000000000000000000000000000000000000000000000000000000000000000000000009E0000000000000000000000000000000000009E00
310
000000F5F5F5F5F5F5F5F5F5F5F5F5F5F5F5F50000000000009E000000000000000000009E00000000000000000000000000000000000000000000000000000000000000000000000000000000000000000000000000000000000000000000F59EF5000000000000000000F5F5F5000000000000000000009E000000000000
310
00000000000000000000000000000000000000000000000000000000000000009E0000000000000000000000000000000000009E000000F5F5F5F5F5F5F5F500BE0000F5F5F5F5F5F5F5F50000009E000000000000000000009E00000000000000000000000000000000000000000000000000000000000000000000000000
310
000000000000000000000000000000000000000000F5F5F5F50000000000000000F5F5F5000000000000000000009E00000000000000000000000000000000000000000000000000000000000000000000000000009E0000000000000000000000000000000000009E00F5F5F5F5F5F5F500000000BE0000000000F5F5F5F5
310
F5F500009E000000000000000000009E00000000000000000000000000000000000000000000000000000000000000000000000000000000000000000000000000000000000000000000F5F5F5F50000000000000000F5F5F5000000000000000000009E000000000000000000000000000000000000000000000000000000
310
00000000000000000000009E0000000000000000000000000000000000009EF5F5F5F5F5F5000000000000BE00000000000000F5F5F5F5F5F59E000000000000000000009E00000000000000000000000000000000000000000000000000000000000000000000000000000000000000000000000000000000000000000000
310
F5F5F5F5F5F5F5F5F5F5F5F5F5F5F5F5F5F5F5F5F5F5F5F5F59EF5F5F5F5F5F5F5F5F5F5F5F5F5F5F5F5F5F5F5F5F5F5F5F5F5F5F5F5F5F5F5F5F5F5F5F5F5F59E0000000000000000000000000000000000F59EF5F5F5F5F500000000000000BE0000000000000000F5F5F5F5F59E000000000000000000009E0000000000
310
0000000000000000000000000000000000000000000000000000000000000000000000000000000000000000000000000000000000F5F5F5F5F5F5F5F5F5F5F5F5F5F5F5F5F5F5F5F5F5F5F5F5F59EF5F5F5F5F5F5F5F5F5F5F5F5F5F5F5F5F5F5F5F5F5F5F5F5F5F5F5F5F5F5F5F5F5F5F5F5F5F59EF50000000000000000
310
0000000000000000F59EF5F5F5F50000000000000000BE000000000000000000F5F5F5F59EF50000000000000000009E00000000000000000000000000000000000000000000000000000000000000000000000000000000000000000000000000000000000000000000F5F5F5F5F5F5F5F5F5F5F5F5F5F5F5F5F5F5F5F5F5
310
F5F5F5F582828282828282828282828282828282828282828282828282828282828282828282828282828282F500000000000000000000000000000000F5F5F5F5F5000000000000000000BE00000000000000000000F5F5F5F5F50000000000000000009E0000000000000000000000000000000000000000000000000000
310
0000000000000000000000000000000000000000000000000000000000000000F5F5F5F50000000000000000F5F5F5000000000000000000F5F5F50000000000000000000000000000000000000000000000000000000000000000000000F5F5F5F500000000000000000000000000000000F5F5F5F5000000000000000000
310
00BE0000000000000000000000F5F5F5F50000000000000000009E00000000000000000000000000000000000000000000000000000000000000000000000000000000000000000000000000000000000000000000F5F5F5F50000000000000000F5F5F5000000000000000000F5F5F5000000000000000000000000000000
310
0000000000000000000000000000000000000000F5F5F5F500000000000000000000000000000000F5F5F5F500000000000000000000BE0000000000000000000000F5F5F5F50000000000000000009E0000000000000000000000000000000000000000000000000000000000000000000000000000000000000000000000
310
0000000000000000000000F5F5F5000000000000000000F5F5F5000000000000000000F5F5F50000000000000000000000000000000000000000000000000000000000000000000000F5F5F5F500000000000000000000000000000000F5F5F50000000000000000000000BE000000000000000000000000F5F5F500000000
310
00000000009E00000000000000000000000000000000000000000000000000000000000000000000000000000000000000000000000000000000000000000000F5F5F5000000000000000000F5F5F5000000000000000000F5F5F50000000000000000000000000000000000000000000000000000000000000000000000F5
310
F5F5F500000000000000000000000000000000F5F5F50000000000000000000000BE000000000000000000000000F5F5F50000000000000000009E00000000000000000000000000000000000000000000000000000000000000000000000000000000000000000000000000000000000000000000F5F5F500000000000000
310
0000F5F5F5000000000000000000F5F5F50000000000000000000000000000000000000000000000000000000000000000000000F5F5F5F500000000000000000000000000000000F5F5F50000000000000000000000BE000000000000000000000000F5F5F50000000000000000009E000000000000000000000000000000
310
00000000000000000000000000000000000000000000000000000000000000000000000000000000000000F5F5F5000000000000000000F5F5F5000000000000000000F5F5F50000000000000000000000000000000000000000000000000000000000000000000000F5F5F5F500000000000000000000000000000000F5F5
310
F50000000000000000000000BE000000000000000000000000F5F5F5000000000000009E9E9E00000000000000000000000000000000000000000000000000000000000000000000000000000000000000000000000000000000000000BEBEBEF5F5F5BEBEBEBEBEBEBEBEBEF5F5F5BEBEBEBEBEBE9EBEBEF5F5F5BEBEBEBE
310
BEBEBEBEBEBEBEBEBEBEBEBEBEBEBEBEBEBEBEBEBEBEBEBEBEBEBEBEBEBEBEF5F5F5F5BEBEBE00000000000000000000BEBEBEBEBEBEBEBEBEBEBEBEBEBEBEBEBEBEBEBEBEBEBEBEBEBEBEBEBEBEBEBEBEBEBEBE000000009E9E9E000000000000000000000000000000000000000000000000000000000000000000000000
310
00000000000000000000000000000000000000000000F5F5F5000000000000000000F5F5F5000000000000000000F5F5F50000000000000000000000000000000000000000000000000000000000000000000000F5F5F5F500000000000000000000000000000000F5F5F50000000000000000000000BE0000000000000000
310
00000000F5F5F500000000000000009E9E00000000000000000000000000000000000000000000000000000000000000000000000000000000000000000000000000000000000000000000F5F5F5000000000000000000F5F5F5000000000000000000F5F5F500000000000000000000000000000000000000000000000000
310
00000000000000000000F5F5F5F500000000000000000000000000000000F5F5F50000000000000000000000BE000000000000000000000000F5F5F50000000000000000009E000000000000000000000000000000000000000000000000000000000000000000000000000000000000000000000000000000000000000000
310
00F5F5F5000000009E9E000000F5F5F5000000000000000000F5F5F50000000000000000000000000000000000000000000000000000000000000000000000F5F5F5F500000000000000000000000000000000F5F5F50000000000000000000000BE000000000000000000000000F5F5F50000000000000000009E00000000
310
000000000000000000000000000000000000000000000000000000000000000000000000000000000000000000000000000000000000F5F5F5F5009E9E9E9E000000F5F5F5000000000000000000F5F5F50000000000000000000000000000000000000000000000000000000000000000000000F5F5F5F500000000000000
310
000000000000000000F5F5F50000000000000000000000BE000000000000000000000000F5F5F50000000000000000009E00000000000000000000000000000000000000000000000000000000000000000000000000000000000000000000000000000000000000000000F5F59E9E9E9E9E9E9E000000F5F5F50000000000
310
00000000F5F5F50000000000000000000000000000000000000000000000000000000000000000000000F5F5F5F500000000000000000000000000000000F5F5F5F500000000000000000000BE000000000000000000000000F5F5F50000000000000000009E00000000000000000000000000000000000000000000000000
310
000000000000000000000000000000000000000000000000000000000000000000F5F5F5F5009E9E9E00000000F5F5F5000000000000000000F582828282828282828282828282828282828282828282828282828282828282828282828282828282F500000000000000000000000000000000F5F5F5F50000000000000000
310
0000BE0000000000000000000000F5F5F5F50000000000000000009E00000000000000000000000000000000000000000000000000000000000000000000000000000000000000000000000000000000000000000000F5F5F5F5F5F5F5F5F5F5F5F5F5F5F5F5F5F5F5F5F5F5F5F5F5F5F5F5F5F5F5F5F5F5F5F5F5F5F5F5F5
310
F5F5F5F5F5F5F5F5F5F5F5F5F5F5F5F5F5F5F5F5F5F59EF5F500000000000000000000000000000000F5F5F5F5F5000000000000000000BE00000000000000000000F5F5F5F5F50000000000000000009E00000000000000000000000000000000000000000000000000000000000000000000000000000000000000000000
310
000000000000000000000000F5F5F5F5F5F5F5F5F5F5F5F5F5F5F5F5F5F5F5F5F5F5F5F5F5F5F5F5F5F5F5F5F5F5F5F5F5F5F5F5F5F5F5F5F5F5F5F5F5F5F5F5F5F5F5F5F5F5F5F5F5F5F5F59E0000000000000000000000000000000000F5F5F5F5F5F50000000000000000BE000000000000000000F5F5F5F5F5F5000000
310
0000000000009E00000000000000000000000000000000000000000000000000000000000000000000000000000000000000000000000000000000000000000000F5F5F5F5F5F5F5F5F5F5F5F5F5F5F5F5F5F5F5F5F5F5F5F5F5F5F5F5F5F5F5F5F5F5F5F5F5F5F5F5F5F5F5F5F5F5F5F5F5F5F5F5F5F5F5F5F5F5F5F5F5F5
310
F5F5009E00000000000000000000000000000000F5F5F5F5F5F5F500000000000000BE0000000000000000F5F5F5F5F5F5000000000000000000009E00000000000000000000000000000000000000000000000000000000000000000000000000000000000000000000000000000000000000000000F5F5F5F50000000000
310
000000F5F5F50000000000000000000000000000000000000000000000000000000000000000000000000000000000000000000000000000009E00000000000000000000000000000000F5F5F5F5F5F5F5000000000000BE00000000000000F5F5F5F5F5F500000000000000000000009E0000000000000000000000000000
310
0000000000000000000000000000000000000000000000000000000000000000000000000000000000000000F5F5F5000000000000000000F5F5F50000000000000000000000000000000000000000000000000000000000000000000000000000000000000000000000000000009E00000000000000000000000000000000
310
0000F5F5F5F5F5F5F500000000BE000000000000F5F5F5F5F5000000000000000000000000009E00000000000000000000000000000000000000000000000000000000000000000000000000000000000000000000000000000000000000000000F5F5F5000000000000000000F5F5F5000000000000000000000000000000
310
000000000000000000000000000000000000000000000000000000000000000000000000009E9E9E9E9E9E9E9E9E0000000000000000000000F5F5F5F5F5F5F5F5F5F5F5F5F5F5F5F5F5F5F5F500000000000000000000000000009E0000000000000000000000000000000000000000000000000000000000000000000000
310
0000000000000000000000000000000000000000000000F5F5F5F50000000000000000F5F5F50000000000000000000000000000000000000000000000000000000000000000000000000000000000000000000000000000000000000000009E009E9E9E0000000000000000000000F5F5F5F5F5F5F5F5F5F5F5F5F5F5F5F5
310
F5000000000000000000000000000000009E00000000000000000000000000000000000000000000000000000000000000000000000000000000000000000000000000000000000000000000F5F5F5F50000000000000000F5F5F5000000000000000000000000000000000000000000000000000000000000000000000000
310
000000000000000000000000000000000000000000000000000000000000000000000000000000F5F5F5F5F5F5F5F5F5F5F5F5F50000000000000000000000000000000000009E0000000000000000000000000000000000000000000000000000000000000000000000000000000000000000000000000000000000000000
310
000000F5F5F5F5F5F5F5F5F5F5F5F5F5F500000000000000000000000000000000000000000000000000000000000000000000000000000000000000000000000000000000000000000000000000000000000000000000000000000000F5F5F5F5F5F5F5F5F5F500000000000000000000000000000000000000009E000000
310
0000000000000000000000000000000000000000000000000000000000000000000000000000000000000000000000000000000000000000F5F5F5F5F5F5F5F5F5F5F5F5F5F5000000000000000000000000000000000000000000000000000000000000000000000000000000000000000000000000000000000000000000
310
000000000000000000000000000000000000000000F5F5F59E9E9E9E9E9E9E9E9E9E9E9E9E9E9E9E9E9E9E9E9E9E9E9E9E9E9E0000000000000000000000000000000000000000000000000000000000000000000000000000000000000000000000000000000000000000000000F5F5F5F5F5F5F5F5F5F5F5F50000000000
310
00000000000000000000000000000000000000000000000000000000000000000000000000000000000000000000000000000000000000000000000000000000000000000000000000000000F5F500000000000000000000000000000000000000000000000000000000000000000000000000000000000000000000000000
310
00000000000000000000000000000000000000000000000000000000000000000000000000000000000000000000000000000000000000000000000000000000000000000000000000000000000000000000000000000000000000000000000000000000000000000000000000000000000000000000000000000000000000
310
000000BE000000000000000000000000000000000000000000000000000000000000000000000000000000000000000000000000000000000000000000000000000000000000000000000000000000000000000000000000000000000000000000000000000000000000000000000000000000000000000000000000000000
310
0000000000000000000000000000000000000000000000000000000000000000000000000000000000000000000000000000000000000000BE00000000000000000000000000000000000000000000000000000000000000000000000000000000000000000000000000000000000000000000000000000000000000000000
310
00000000000000000000000000000000000000000000000000000000000000000000000000000000000000000000000000000000000000000000000000000000000000000000000000000000000000000000000000000000000000000000000000000000000000000000000000000000000000000000000000000000000000
310
00000000000000000000000000000000000000000000000000000000000000000000000000000000000000000000000000000000000000000000000000000000000000000000000000000000000000000000000000000000000000000000000000000000000000000000000000000000000000000000000000000000000000
310
00000000000000000000000000000000000000000000000000000000000000000000000000000000000000000000000000000000000000000000000000000000000000000000000000000000000000000000000000000000000000000000000000000000000000000000000000000000000000000000000000000000000000
310
00000000000000000000000000000000000000000000000000000000000000000000000000000000000000000000000000000000000000000000000000000000000000000000000000000000000000000000000000000000000000000000000000000000000000000000000000000000000000000000000000000000000000
310
00000000000000000000000000000000000000000000000000000000000000000000000000000000000000000000000000000000000000000000000000000000000000000000000000000000000000000000000000000000000000000000000000000000000000000000000000000000000000000000000000000000000000
310
00000000000000000000000000000000000000000000000000000000000000000000000000000000000000000000000000000000000000000000000000000000000000000000000000000000000000000000000000000000000000000000000000000000000000000000000000000000000000000000000000000000000000
310
00000000000000000000000000000000000000000000000000000000000000000000000000000000000000000000000000000000000000000000000000000000000000000000000000000000000000000000000000000000000000000000000000000000000000000000000000000000000000000000000000000000000000
310
00000000000000000000000000000000000000000000000000000000000000000000000000000000000000000000000000000000000000000000000000000000000000000000000000000000000000000000000000000000000000000000000000000000000000000000000000000000000000000000000000000000000000
310
00000000000000000000000000000000000000000000000000000000000000000000000000000000000000000000000000000000000000000000000000000000000000000000000000000000000000000000000000000000000000000000000000000000000000000000000000000000000000000000000000000000000000
310
00000000000000000000000000000000000000000000000000000000000000000000000000000000000000000000000000000000000000000000000000000000000000000000000000000000000000000000000000000000000000000000000000000000000000000000000000000000000000000000000000000000000000
310
00000000000000000000000000000000000000000000000000000000000000000000000000000000000000000000000000000000000000000000000000000000000000000000000000000000000000000000000000000000000000000000000000000000000000000000000000000000000000000000000000000000000000
310
00000000000000000000000000000000000000000000000000000000000000000000000000000000000000000000000000000000000000000000000000000000000000000000000000000000000000000000000000000000000000000000000000000000000000000000000000000000000000000000000000000000000000
310
00000000000000000000000000000000000000000000000000000000000000000000000000000000000000000000000000000000000000000000000000000000000000000000000000000000000000000000000000000000000000000000000000000000000000000000000000000000000000000000000000000000000000
310
00000000000000000000000000000000000000000000000000000000000000000000000000000000000000000000000000000000000000000000000000000000000000000000000000000000000000000000000000000000000000000000000000000000000000000000000000000000000000000000000000000000000000
310
00000000000000000000000000000000000000000000000000000000000000000000000000000000000000000000000000000000000000000000000000000000000000000000000000000000000000000000000000000000000000000000000000000000000000000000000000000000000000000000000000000000000000
310
00000000000000000000000000000000000000000000000000000000000000000000000000000000000000000000000000000000000000000000000000000000000000000000000000000000000000000000000000000000000000000000000000000000000000000000000000000000000000000000000000000000000000
310
00000000000000000000000000000000000000000000000000000000000000000000000000000000000000000000000000000000000000000000000000000000000000000000000000000000000000000000000000000000000000000000000000000000000000000000000000000000000000000000000000000000000000
310
00000000000000000000000000000000000000000000000000000000000000000000000000000000000000000000000000000000000000000000000000000000000000000000000000000000000000000000000000000000000000000000000000000000000000000000000000000000000000000000000000000000000000
310
00000000000000000000000000000000000000000000000000000000000000000000000000000000000000000000000000000000000000000000000000000000000000000000000000000000000000000000000000000000000000000000000000000000000000000000000000000000000000000000000000000000000000
310
00000000000000000000000000000000000000000000000000000000000000000000000000000000000000000000000000000000000000000000000000000000000000000000000000000000000000000000000000000000000000000000000000000000000000000000000000000000000000000000000000000000000000
310
00000000000000000000000000000000000000000000000000000000000000000000000000000000000000000000000000000000000000000000000000000000000000000000000000000000000000000000000000000000000000000000000000000000000000000000000000000000000000000000000000000000000000
310
00000000000000000000000000000000000000000000000000000000000000000000000000000000000000000000000000000000000000000000000000000000000000000000000000000000000000000000000000000000000000000000000000000000000000000000000000000000000000000000000000000000000000
310
00000000000000000000000000000000000000000000000000000000000000000000000000000000000000000000000000000000000000000000000000000000000000000000000000000000000000000000000000
  0
ENDSEC
  0
EOF
