999
LibreDWG 
  0
SECTION
  2
HEADER
  9
$ACADVER
  1
AC1015
  9
$ACADMAINTVER
 70
    13
  9
$DWGCODEPAGE
  3
ANSI_936
  9
$INSBASE
 10
0.0
 20
0.0
 30
0.0
  9
$EXTMIN
 10
35.78796460734213
 20
18.16439867270191
 30
-0.001525820700358338
  9
$EXTMAX
 10
225.0732427987657
 20
204.6164197963877
 30
3.49246036535078E-08
  9
$LIMMIN
 10
0.0
 20
0.0
  9
$LIMMAX
 10
300.0
 20
200.0
  9
$ORTHOMODE
 70
     1
  9
$REGENMODE
 70
     1
  9
$FILLMODE
 70
     1
  9
$QTEXTMODE
 70
     0
  9
$MIRRTEXT
 70
     1
  9
$LTSCALE
 40
1.0
  9
$ATTMODE
 70
     1
  9
$TEXTSIZE
 40
2.5
  9
$TRACEWID
 40
1.0
  9
$TEXTSTYLE
  7
数字与字母
  9
$CLAYER
  8
文本层
  9
$CELTYPE
  6
ByLayer
  9
$CECOLOR
 62
   256
  9
$CELTSCALE
 40
1.0
  9
$DISPSILH
 70
     0
  9
$DIMSCALE
 40
1.0
  9
$DIMASZ
 40
3.5
  9
$DIMEXO
 40
0.0
  9
$DIMDLI
 40
7.5
  9
$DIMRND
 40
0.0
  9
$DIMDLE
 40
0.0
  9
$DIMEXE
 40
2.5
  9
$DIMTP
 40
0.0
  9
$DIMTM
 40
0.0
  9
$DIMTXT
 40
5.0
  9
$DIMCEN
 40
11.0
  9
$DIMTSZ
 40
0.0
  9
$DIMTOL
 70
     0
  9
$DIMLIM
 70
     0
  9
$DIMTIH
 70
     0
  9
$DIMTOH
 70
     1
  9
$DIMSE1
 70
     0
  9
$DIMSE2
 70
     0
  9
$DIMTAD
 70
     1
  9
$DIMZIN
 70
     8
  9
$DIMBLK
  1

  9
$DIMASO
 70
     1
  9
$DIMSHO
 70
     1
  9
$DIMPOST
  1

  9
$DIMAPOST
  1

  9
$DIMALT
 70
     0
  9
$DIMALTD
 70
     3
  9
$DIMALTF
 40
0.03937007874016
  9
$DIMLFAC
 40
1.0
  9
$DIMTOFL
 70
     1
  9
$DIMTVP
 40
0.0
  9
$DIMTIX
 70
     0
  9
$DIMSOXD
 70
     0
  9
$DIMSAH
 70
     0
  9
$DIMBLK1
  1

  9
$DIMBLK2
  1

  9
$DIMSTYLE
  2
机械标注
  9
$DIMCLRD
 70
     0
  9
$DIMCLRE
 70
     0
  9
$DIMCLRT
 70
     0
  9
$DIMTFAC
 40
1.0
  9
$DIMGAP
 40
0.625
  9
$DIMJUST
 70
     0
  9
$DIMSD1
 70
     0
  9
$DIMSD2
 70
     0
  9
$DIMTOLJ
 70
     0
  9
$DIMTZIN
 70
     8
  9
$DIMALTZ
 70
     0
  9
$DIMALTTZ
 70
     0
  9
$DIMUPT
 70
     0
  9
$DIMDEC
 70
     1
  9
$DIMTDEC
 70
     1
  9
$DIMALTU
 70
     2
  9
$DIMALTTD
 70
     3
  9
$DIMTXSTY
  7
数字与字母
  9
$DIMAUNIT
 70
     0
  9
$DIMADEC
 70
     0
  9
$DIMALTRND
 40
0.0
  9
$DIMAZIN
 70
     0
  9
$DIMDSEP
 70
    46
  9
$DIMATFIT
 70
     3
  9
$DIMFRAC
 70
     0
  9
$DIMLDRBLK
  1

  9
$DIMLUNIT
 70
     2
  9
$DIMLWD
 70
    -2
  9
$DIMLWE
 70
    -2
  9
$DIMTMOVE
 70
     0
  9
$LUNITS
 70
     2
  9
$LUPREC
 70
     1
  9
$AXISMODE
 70
     0
  9
$AXISUNIT
 10
0.0
 20
0.0
  9
$SKETCHINC
 40
1.0
  9
$FILLETRAD
 40
30.0
  9
$AUNITS
 70
     0
  9
$AUPREC
 70
     1
  9
$MENU
  1
.
  9
$ELEVATION
 40
0.0
  9
$PELEVATION
 40
0.0
  9
$THICKNESS
 40
0.0
  9
$LIMCHECK
 70
     0
  9
$CHAMFERA
 40
10.0
  9
$CHAMFERB
 40
10.0
  9
$CHAMFERC
 40
20.0
  9
$CHAMFERD
 40
0.0
  9
$SKPOLY
 70
     0
  9
$TDCREATE
 40
2451911.603956590
  9
$TDUCREATE
 40
2451911.315956590
  9
$TDUPDATE
 40
2453618.541218750
  9
$TDUUPDATE
 40
2453618.253218750
  9
$TDINDWG
 40
0.029976500
  9
$TDUSRTIMER
 40
0.029976500
  9
$USRTIMER
 70
     1
  9
$ANGBASE
 50
0.0
  9
$ANGDIR
 70
     0
  9
$PDMODE
 70
     0
  9
$PDSIZE
 40
0.0
  9
$PLINEWID
 40
0.0
  9
$SPLFRAME
 70
     0
  9
$SPLINETYPE
 70
     6
  9
$SPLINESEGS
 70
     8
  9
$HANDSEED
  5
1E3
  9
$SURFTAB1
 70
     6
  9
$SURFTAB2
 70
     6
  9
$SURFTYPE
 70
     6
  9
$SURFU
 70
     6
  9
$SURFV
 70
     6
  9
$UCSBASE
  2

  9
$UCSNAME
  2

  9
$UCSORG
 10
0.0
 20
0.0
 30
0.0
  9
$UCSXDIR
 10
1.0
 20
0.0
 30
0.0
  9
$UCSYDIR
 10
0.0
 20
1.0
 30
0.0
  9
$UCSORTHOREF
  2

  9
$UCSORTHOVIEW
 70
     0
  9
$UCSORGTOP
 10
0.0
 20
0.0
 30
0.0
  9
$UCSORGBOTTOM
 10
0.0
 20
0.0
 30
0.0
  9
$UCSORGLEFT
 10
0.0
 20
0.0
 30
0.0
  9
$UCSORGRIGHT
 10
0.0
 20
0.0
 30
0.0
  9
$UCSORGFRONT
 10
0.0
 20
0.0
 30
0.0
  9
$UCSORGBACK
 10
0.0
 20
0.0
 30
0.0
  9
$PUCSBASE
  2

  9
$PUCSNAME
  2

  9
$PUCSORG
 10
0.0
 20
0.0
 30
0.0
  9
$PUCSXDIR
 10
1.0
 20
0.0
 30
0.0
  9
$PUCSYDIR
 10
0.0
 20
1.0
 30
0.0
  9
$PUCSORTHOREF
  2

  9
$PUCSORTHOVIEW
 70
     0
  9
$PUCSORGTOP
 10
0.0
 20
0.0
 30
0.0
  9
$PUCSORGBOTTOM
 10
0.0
 20
0.0
 30
0.0
  9
$PUCSORGLEFT
 10
0.0
 20
0.0
 30
0.0
  9
$PUCSORGRIGHT
 10
0.0
 20
0.0
 30
0.0
  9
$PUCSORGFRONT
 10
0.0
 20
0.0
 30
0.0
  9
$PUCSORGBACK
 10
0.0
 20
0.0
 30
0.0
  9
$USERI1
 70
     0
  9
$USERI2
 70
     0
  9
$USERI3
 70
     0
  9
$USERI4
 70
     0
  9
$USERI5
 70
     0
  9
$USERR1
 40
0.0
  9
$USERR2
 40
0.0
  9
$USERR3
 40
0.0
  9
$USERR4
 40
0.0
  9
$USERR5
 40
0.0
  9
$WORLDVIEW
 70
     1
  9
$SHADEDGE
 70
     3
  9
$SHADEDIF
 70
    70
  9
$TILEMODE
 70
     1
  9
$MAXACTVP
 70
    64
  9
$PINSBASE
 10
0.0
 20
0.0
 30
0.0
  9
$PLIMCHECK
 70
     0
  9
$PEXTMIN
 10
26.66999878883362
 20
20.31999878883363
 30
0.0
  9
$PEXTMAX
 10
240.0299890995026
 20
182.8799890995026
 30
0.0
  9
$PLIMMIN
 10
-6.350006103515625
 20
-6.349999904632568
  9
$PLIMMAX
 10
273.0499877929688
 20
209.5499939918518
  9
$UNITMODE
 70
     0
  9
$VISRETAIN
 70
     1
  9
$PLINEGEN
 70
     0
  9
$PSLTSCALE
 70
     1
  9
$TREEDEPTH
 70
  3020
  9
$CMLSTYLE
  2
Standard
  9
$CMLJUST
 70
     0
  9
$CMLSCALE
 40
20.0
  9
$PROXYGRAPHICS
 70
     1
  9
$MEASUREMENT
 70
     1
  9
$CELWEIGHT
370
    -1
  9
$ENDCAPS
280
     0
  9
$JOINSTYLE
280
     0
  9
$LWDISPLAY
290
     1
  9
$INSUNITS
 70
     4
  9
$HYPERLINKBASE
  1

  9
$STYLESHEET
  1

  9
$XEDIT
290
     1
  9
$CEPSNTYPE
380
     0
  9
$PSTYLEMODE
290
     0
  9
$FINGERPRINTGUID
  2
{35BD88C3-9548-11D2-9A29-0060089B3A3F}
  9
$VERSIONGUID
  2
{4C3E83A8-77FC-4397-A3CD-ECAC0311F73F}
  9
$EXTNAMES
290
     1
  9
$PSVPSCALE
 40
0.0
  9
$OLESTARTUP
290
     0
  0
ENDSEC
  0
SECTION
  2
CLASSES
  0
CLASS
  1
ACDBDICTIONARYWDFLT
  2
AcDbDictionaryWithDefault
  3
AutoCAD 2000
 90
        0
280
     0
281
     0
  0
CLASS
  1
ACDBPLACEHOLDER
  2
AcDbPlaceHolder
  3
AutoCAD 2000
 90
        0
280
     0
281
     0
  0
CLASS
  1
LAYOUT
  2
AcDbLayout
  3
AutoCAD 2000
 90
        0
280
     0
281
     0
  0
CLASS
  1
DICTIONARYVAR
  2
AcDbDictionaryVar
  3
AutoCAD 2000
 90
        0
280
     0
281
     0
  0
CLASS
  1
DIMASSOC
  2
AcDbDimAssoc
  3
"AcDbDimAssoc|Product Desc:     AcDim ARX App For Dimension|Company:          Autodesk, Inc.|WEB Address:      www.autodesk.com"
 90
        0
280
     0
281
     0
  0
ENDSEC
  0
SECTION
  2
TABLES
  0
TABLE
  2
VPORT
  5
8
330
0
100
AcDbSymbolTable
 70
     1
  0
VPORT
  5
1E2
330
8
100
AcDbSymbolTableRecord
100
AcDbViewportTableRecord
  2
*Active
 70
     0
 10
0.0
 20
0.0
 11
1.0
 21
1.0
 12
150.0
 22
102.3082098981939
 13
0.0
 23
0.0
 14
10.0
 24
10.0
 15
10.0
 25
10.0
 16
0.0
 26
0.0
 36
1.0
 17
0.0
 27
0.0
 37
0.0
 40
207.1902112403674
 41
1.855042016806723
 42
50.0
 43
0.0
 44
0.0
 50
0.0
 51
0.0
 71
     0
 72
   100
 73
     1
 74
     3
 75
     0
 76
     0
 77
     0
 78
     0
281
     0
 65
     1
110
0.0
120
0.0
130
0.0
111
1.0
121
0.0
131
0.0
112
0.0
122
1.0
132
0.0
 79
     0
146
0.0
  0
ENDTAB
  0
TABLE
  2
LTYPE
  5
5
330
0
100
AcDbSymbolTable
 70
     4
  0
LTYPE
  5
14
330
5
100
AcDbSymbolTableRecord
100
AcDbLinetypeTableRecord
  2
ByBlock
 70
     0
  3

 72
    65
 73
     0
 40
0.0
  0
LTYPE
  5
15
330
5
100
AcDbSymbolTableRecord
100
AcDbLinetypeTableRecord
  2
ByLayer
 70
     0
  3

 72
    65
 73
     0
 40
0.0
  0
LTYPE
  5
16
330
5
100
AcDbSymbolTableRecord
100
AcDbLinetypeTableRecord
  2
Continuous
 70
     0
  3
Solid line
 72
    65
 73
     0
 40
0.0
  0
LTYPE
  5
91
330
5
100
AcDbSymbolTableRecord
100
AcDbLinetypeTableRecord
  2
ACAD_ISO08W100
 70
     0
  3
ISO long-dash short-dash ____ __ ____ __ ____ _
 72
    65
 73
     4
 40
36.0
 49
24.0
 74
     0
 49
-3.0
 74
     0
 49
6.0
 74
     0
 49
-3.0
 74
     0
  0
LTYPE
  5
92
330
5
100
AcDbSymbolTableRecord
100
AcDbLinetypeTableRecord
  2
ACAD_ISO09W100
 70
     0
  3
ISO long-dash double-short-dash ____ __ __ ____
 72
    65
 73
     6
 40
45.0
 49
24.0
 74
     0
 49
-3.0
 74
     0
 49
6.0
 74
     0
 49
-3.0
 74
     0
 49
6.0
 74
     0
 49
-3.0
 74
     0
  0
LTYPE
  5
93
330
5
100
AcDbSymbolTableRecord
100
AcDbLinetypeTableRecord
  2
ACAD_ISO02W100
 70
     0
  3
ISO dash __ __ __ __ __ __ __ __ __ __ __ __ __
 72
    65
 73
     2
 40
15.0
 49
12.0
 74
     0
 49
-3.0
 74
     0
  0
ENDTAB
  0
TABLE
  2
LAYER
  5
2
330
0
100
AcDbSymbolTable
 70
    11
  0
LAYER
  5
10
330
2
100
AcDbSymbolTableRecord
100
AcDbLayerTableRecord
  2
0
 70
     0
 62
    -7
  6
Continuous
370
    -3
390
F
  0
LAYER
  5
94
330
2
100
AcDbSymbolTableRecord
100
AcDbLayerTableRecord
  2
轮廓线
 70
     0
 62
    -7
  6
Continuous
370
    35
390
F
  0
LAYER
  5
95
330
2
100
AcDbSymbolTableRecord
100
AcDbLayerTableRecord
  2
点划线
 70
     0
 62
    -1
  6
ACAD_ISO08W100
370
    13
390
F
  0
LAYER
  5
96
330
2
100
AcDbSymbolTableRecord
100
AcDbLayerTableRecord
  2
双点划线
 70
     0
 62
    -3
  6
ACAD_ISO09W100
370
    -3
390
F
  0
LAYER
  5
97
330
2
100
AcDbSymbolTableRecord
100
AcDbLayerTableRecord
  2
隐藏线
 70
     0
 62
   -44
  6
ACAD_ISO02W100
370
    13
390
F
  0
LAYER
  5
98
330
2
100
AcDbSymbolTableRecord
100
AcDbLayerTableRecord
  2
剖面线
 70
     0
 62
  -142
  6
Continuous
370
    13
390
F
  0
LAYER
  5
99
330
2
100
AcDbSymbolTableRecord
100
AcDbLayerTableRecord
  2
波浪线
 70
     0
 62
    -7
  6
Continuous
370
    13
390
F
  0
LAYER
  5
9A
330
2
100
AcDbSymbolTableRecord
100
AcDbLayerTableRecord
  2
尺寸层
 70
     0
 62
    -5
  6
Continuous
370
    13
390
F
  0
LAYER
  5
9B
330
2
100
AcDbSymbolTableRecord
100
AcDbLayerTableRecord
  2
文本层
 70
     0
 62
  -212
  6
Continuous
370
    13
390
F
  0
LAYER
  5
9C
330
2
100
AcDbSymbolTableRecord
100
AcDbLayerTableRecord
  2
其它层
 70
     0
 62
    -7
  6
Continuous
370
    -3
390
F
  0
LAYER
  5
C3
330
2
100
AcDbSymbolTableRecord
100
AcDbLayerTableRecord
  2
Defpoints
 70
     0
 62
    -7
  6
Continuous
290
     0
370
    -3
390
F
  0
ENDTAB
  0
TABLE
  2
STYLE
  5
3
330
0
100
AcDbSymbolTable
 70
     4
  0
STYLE
  5
11
330
3
100
AcDbSymbolTableRecord
100
AcDbTextStyleTableRecord
  2
Standard
 70
     0
 40
0.0
 41
1.0
 50
0.0
 71
     0
 42
2.5
  3
txt
  4

  0
STYLE
  5
90
330
3
100
AcDbSymbolTableRecord
100
AcDbTextStyleTableRecord
  2

 70
     1
 40
0.0
 41
1.0
 50
0.0
 71
     0
 42
2.5
  3
ltypeshp.shx
  4

  0
STYLE
  5
9D
330
3
100
AcDbSymbolTableRecord
100
AcDbTextStyleTableRecord
  2
汉字
 70
     0
 40
0.0
 41
0.7
 50
0.0
 71
     0
 42
2.5
  3
SIMFANG.TTF
  4

1001
ACAD
1000
FangSong_GB2312
1071
    34353
  0
STYLE
  5
9F
330
3
100
AcDbSymbolTableRecord
100
AcDbTextStyleTableRecord
  2
数字与字母
 70
     0
 40
0.0
 41
0.7
 50
0.0
 71
     0
 42
2.5
  3
romant.shx
  4

  0
ENDTAB
  0
TABLE
  2
VIEW
  5
6
330
0
100
AcDbSymbolTable
 70
     0
  0
ENDTAB
  0
TABLE
  2
UCS
  5
7
330
0
100
AcDbSymbolTable
 70
     0
  0
ENDTAB
  0
TABLE
  2
APPID
  5
9
330
0
100
AcDbSymbolTable
 70
     1
  0
APPID
  5
12
330
9
100
AcDbSymbolTableRecord
100
AcDbRegAppTableRecord
  2
ACAD
 70
     0
  0
ENDTAB
  0
TABLE
  2
DIMSTYLE
  5
A
330
0
100
AcDbSymbolTable
 70
     3
100
AcDbDimStyleTable
 71
     2
340
A1
340
27
  0
DIMSTYLE
105
27
330
A
100
AcDbSymbolTableRecord
100
AcDbDimStyleTableRecord
  2
ISO-25
 70
     0
 41
2.5
 42
0.625
 43
3.75
 44
1.25
 73
     0
 74
     0
 77
     1
 78
     8
140
2.5
141
2.5
143
0.03937007874016
144
1.0
146
1.0
147
0.625
171
     3
172
     1
176
     0
177
     0
178
     0
271
     2
272
     2
273
     2
274
     3
277
     2
278
    44
283
     0
284
     8
289
     3
340
11
371
    -2
372
    -2
341
0
342
0
343
0
344
0
  0
DIMSTYLE
105
A1
102
{ACAD_REACTORS
330
C2
330
DB
330
F3
330
10B
330
123
330
13C
330
15A
330
167
330
17B
330
18B
330
19B
330
1AB
330
1C3
102
}
330
A
100
AcDbSymbolTableRecord
100
AcDbDimStyleTableRecord
  2
机械标注
 70
     0
 41
3.5
 43
7.5
 44
2.5
 73
     0
 74
     1
 77
     1
 78
     8
140
5.0
141
11.0
143
0.03937007874016
144
1.0
146
1.0
147
0.625
171
     3
172
     1
176
     0
177
     0
178
     0
271
     1
272
     1
273
     2
274
     3
277
     2
278
    46
283
     0
284
     8
289
     3
340
9F
371
    -2
372
    -2
341
0
342
0
343
0
344
0
  0
DIMSTYLE
105
A2
330
A
100
AcDbSymbolTableRecord
100
AcDbDimStyleTableRecord
  2
机械标注$2
 70
     0
 41
3.5
 43
7.5
 44
2.5
 73
     1
 74
     1
 77
     1
 78
     8
140
5.0
141
11.0
143
0.03937007874016
144
1.0
146
1.0
147
0.625
171
     3
172
     1
176
     0
177
     0
178
     0
271
     1
272
     1
273
     2
274
     3
277
     2
278
    46
283
     0
284
     8
289
     3
340
9F
371
    -2
372
    -2
341
0
342
0
343
0
344
0
  0
ENDTAB
  0
TABLE
  2
BLOCK_RECORD
  5
1
330
0
100
AcDbSymbolTable
 70
    14
  0
BLOCK_RECORD
  5
1F
330
1
100
AcDbSymbolTableRecord
100
AcDbBlockTableRecord
  2
*Model_Space
340
22
  0
BLOCK_RECORD
  5
5E
330
1
100
AcDbSymbolTableRecord
100
AcDbBlockTableRecord
  2
*Paper_Space
340
5F
  0
BLOCK_RECORD
  5
59
330
1
100
AcDbSymbolTableRecord
100
AcDbBlockTableRecord
  2
*Paper_Space0
340
5A
  0
BLOCK_RECORD
  5
C4
330
1
100
AcDbSymbolTableRecord
100
AcDbBlockTableRecord
  2
*D1
340
0
  0
BLOCK_RECORD
  5
DC
330
1
100
AcDbSymbolTableRecord
100
AcDbBlockTableRecord
  2
*D2
340
0
  0
BLOCK_RECORD
  5
F4
330
1
100
AcDbSymbolTableRecord
100
AcDbBlockTableRecord
  2
*D3
340
0
  0
BLOCK_RECORD
  5
10C
330
1
100
AcDbSymbolTableRecord
100
AcDbBlockTableRecord
  2
*D4
340
0
  0
BLOCK_RECORD
  5
124
330
1
100
AcDbSymbolTableRecord
100
AcDbBlockTableRecord
  2
*D5
340
0
  0
BLOCK_RECORD
  5
13D
330
1
100
AcDbSymbolTableRecord
100
AcDbBlockTableRecord
  2
*D6
340
0
  0
BLOCK_RECORD
  5
15B
330
1
100
AcDbSymbolTableRecord
100
AcDbBlockTableRecord
  2
*D7
340
0
  0
BLOCK_RECORD
  5
168
330
1
100
AcDbSymbolTableRecord
100
AcDbBlockTableRecord
  2
*D8
340
0
  0
BLOCK_RECORD
  5
17C
330
1
100
AcDbSymbolTableRecord
100
AcDbBlockTableRecord
  2
*D9
340
0
  0
BLOCK_RECORD
  5
18C
330
1
100
AcDbSymbolTableRecord
100
AcDbBlockTableRecord
  2
*D10
340
0
  0
BLOCK_RECORD
  5
19C
330
1
100
AcDbSymbolTableRecord
100
AcDbBlockTableRecord
  2
*D11
340
0
  0
BLOCK_RECORD
  5
1AC
330
1
100
AcDbSymbolTableRecord
100
AcDbBlockTableRecord
  2
*D12
340
0
  0
BLOCK_RECORD
  5
1C4
330
1
100
AcDbSymbolTableRecord
100
AcDbBlockTableRecord
  2
*D13
340
0
  0
ENDTAB
  0
ENDSEC
  0
SECTION
  2
BLOCKS
  0
BLOCK
  5
20
330
1F
100
AcDbEntity
  8
0
100
AcDbBlockBegin
  2
*Model_Space
 70
     0
 10
0.0
 20
0.0
 30
0.0
  3
*Model_Space
  1

  0
ENDBLK
  5
21
330
1F
100
AcDbEntity
  8
0
100
AcDbBlockEnd
  0
BLOCK
  5
5B
330
59
100
AcDbEntity
  8
0
100
AcDbBlockBegin
  2
*Paper_Space0
 70
     0
 10
0.0
 20
0.0
 30
0.0
  3
*Paper_Space0
  1

  0
VIEWPORT
  5
74
330
59
100
AcDbEntity
  8
0
100
AcDbViewport
 10
134.8228915879863
 20
101.5999970436096
 30
0.0
 40
405.4378955490815
 41
218.5599527535252
 68
     0
 69
     0
 12
134.8228915879863
 22
101.5999970436096
 13
0.0
 23
0.0
 14
0.5
 24
0.5
 15
0.5
 25
0.5
 16
0.0
 26
0.0
 36
1.0
 17
0.0
 27
0.0
 37
0.0
 42
50.0
 43
0.0
 44
0.0
 45
218.5599527535252
 50
0.0
 51
0.0
 72
   100
 90
    32800
  1

281
     0
 71
     1
 74
     0
110
0.0
120
0.0
130
0.0
111
1.0
121
0.0
131
0.0
112
0.0
122
1.0
132
0.0
 79
     0
146
0.0
348
0
340
0
345
0
346
0
  0
VIEWPORT
  5
76
330
59
100
AcDbEntity
  8
0
100
AcDbViewport
 10
133.3499939441681
 20
101.5999939441681
 30
0.0
 40
213.3599903106689
 41
162.5599903106689
 68
     0
 69
     0
 12
144.1906995662605
 22
88.23276917922266
 13
0.0
 23
0.0
 14
10.0
 24
10.0
 15
10.0
 25
10.0
 16
0.0
 26
0.0
 36
1.0
 17
0.0
 27
0.0
 37
0.0
 42
50.0
 43
0.0
 44
0.0
 45
260.8052452670224
 50
0.0
 51
0.0
 72
   100
 90
    32864
  1

281
     0
 71
     1
 74
     0
110
0.0
120
0.0
130
0.0
111
1.0
121
0.0
131
0.0
112
0.0
122
1.0
132
0.0
 79
     0
146
0.0
348
0
340
0
345
0
346
0
  0
ENDBLK
  5
5C
330
59
100
AcDbEntity
  8
0
100
AcDbBlockEnd
  0
BLOCK
  5
60
330
5E
100
AcDbEntity
 67
     1
  8
0
100
AcDbBlockBegin
  2
*Paper_Space
 70
     0
 10
0.0
 20
0.0
 30
0.0
  3
*Paper_Space
  1

  0
ENDBLK
  5
61
330
5E
100
AcDbEntity
 67
     1
  8
0
100
AcDbBlockEnd
  0
BLOCK
  5
CE
330
C4
100
AcDbEntity
  8
0
100
AcDbBlockBegin
  2
*D1
 70
     1
 10
0.0
 20
0.0
 30
0.0
  3
*D1
  1

  0
LINE
  5
D1
330
C4
100
AcDbEntity
  8
文本层
370
    -2
 62
     0
100
AcDbLine
 10
86.53891807567072
 20
146.7438656162404
 30
0.0
 11
39.26790068575715
 21
146.7438656162404
 31
0.0
  0
LINE
  5
D2
330
C4
100
AcDbEntity
  8
文本层
370
    -2
 62
     0
100
AcDbLine
 10
128.5389180756707
 20
38.74386561624038
 30
0.0
 11
39.26790068575712
 21
38.74386561624041
 31
0.0
  0
LINE
  5
D3
330
C4
100
AcDbEntity
  8
文本层
370
    -2
 62
     0
100
AcDbLine
 10
41.76790068575714
 20
143.2438656162404
 30
0.0
 11
41.76790068575712
 21
42.24386561624041
 31
0.0
  0
SOLID
  5
D4
330
C4
100
AcDbEntity
  8
文本层
 62
     0
100
AcDbTrace
 38
0.0
 10
41.18456735242381
 20
143.2438656162404
 11
42.35123401909048
 21
143.2438656162404
 12
41.76790068575715
 22
146.7438656162404
 13
41.76790068575715
 23
146.7438656162404
  0
SOLID
  5
D5
330
C4
100
AcDbEntity
  8
文本层
 62
     0
100
AcDbTrace
 38
0.0
 10
41.18456735242378
 20
42.24386561624041
 11
42.35123401909046
 21
42.24386561624041
 12
41.76790068575712
 22
38.74386561624041
 13
41.76790068575712
 23
38.74386561624041
  0
MTEXT
  5
D6
330
C4
100
AcDbEntity
  8
文本层
 62
     0
100
AcDbMText
 10
38.64290068575712
 20
92.74386561624041
 30
0.0
210
0.0
220
0.0
230
1.0
 11
6.123031769111886E-17
 21
1.0
 31
0.0
 40
5.0
 41
0.0
 71
     5
 72
     1
  1
108
  7
数字与字母
 73
     1
 44
1.0
  0
POINT
  5
D7
330
C4
100
AcDbEntity
  8
Defpoints
 62
     0
100
AcDbPoint
 10
86.53891807567072
 20
146.7438656162404
 30
0.0
 50
0.0
  0
POINT
  5
D8
330
C4
100
AcDbEntity
  8
Defpoints
 62
     0
100
AcDbPoint
 10
128.5389180756707
 20
38.74386561624038
 30
0.0
 50
0.0
  0
POINT
  5
D9
330
C4
100
AcDbEntity
  8
Defpoints
 62
     0
100
AcDbPoint
 10
41.76790068575712
 20
38.74386561624041
 30
0.0
 50
0.0
  0
ENDBLK
  5
CF
330
C4
100
AcDbEntity
  8
0
100
AcDbBlockEnd
  0
BLOCK
  5
E6
330
DC
100
AcDbEntity
  8
0
100
AcDbBlockBegin
  2
*D2
 70
     1
 10
0.0
 20
0.0
 30
0.0
  3
*D2
  1

  0
LINE
  5
E9
330
DC
100
AcDbEntity
  8
文本层
370
    -2
 62
     0
100
AcDbLine
 10
128.5389180756707
 20
38.74386561624038
 30
0.0
 11
128.5389180756707
 21
18.16720831024031
 31
0.0
  0
LINE
  5
EA
330
DC
100
AcDbEntity
  8
文本层
370
    -2
 62
     0
100
AcDbLine
 10
142.5389180756707
 20
38.74386561624038
 30
0.0
 11
142.5389180756707
 21
18.16720831024031
 31
0.0
  0
LINE
  5
EB
330
DC
100
AcDbEntity
  8
文本层
370
    -2
 62
     0
100
AcDbLine
 10
132.0389180756707
 20
20.66720831024031
 30
0.0
 11
139.0389180756707
 21
20.66720831024031
 31
0.0
  0
SOLID
  5
EC
330
DC
100
AcDbEntity
  8
文本层
 62
     0
100
AcDbTrace
 38
0.0
 10
132.0389180756707
 20
21.25054164357364
 11
132.0389180756707
 21
20.08387497690698
 12
128.5389180756707
 22
20.66720831024031
 13
128.5389180756707
 23
20.66720831024031
  0
SOLID
  5
ED
330
DC
100
AcDbEntity
  8
文本层
 62
     0
100
AcDbTrace
 38
0.0
 10
139.0389180756707
 20
21.25054164357364
 11
139.0389180756707
 21
20.08387497690698
 12
142.5389180756707
 22
20.66720831024031
 13
142.5389180756707
 23
20.66720831024031
  0
MTEXT
  5
EE
330
DC
100
AcDbEntity
  8
文本层
 62
     0
100
AcDbMText
 10
135.5389180756707
 20
23.79220831024031
 30
0.0
210
0.0
220
0.0
230
1.0
 11
1.0
 21
0.0
 31
0.0
 40
5.0
 41
0.0
 71
     5
 72
     1
  1
14
  7
数字与字母
 73
     1
 44
1.0
  0
POINT
  5
EF
330
DC
100
AcDbEntity
  8
Defpoints
 62
     0
100
AcDbPoint
 10
128.5389180756707
 20
38.74386561624038
 30
0.0
 50
0.0
  0
POINT
  5
F0
330
DC
100
AcDbEntity
  8
Defpoints
 62
     0
100
AcDbPoint
 10
142.5389180756707
 20
38.74386561624038
 30
0.0
 50
0.0
  0
POINT
  5
F1
330
DC
100
AcDbEntity
  8
Defpoints
 62
     0
100
AcDbPoint
 10
142.5389180756707
 20
20.66720831024031
 30
0.0
 50
0.0
  0
ENDBLK
  5
E7
330
DC
100
AcDbEntity
  8
0
100
AcDbBlockEnd
  0
BLOCK
  5
FE
330
F4
100
AcDbEntity
  8
0
100
AcDbBlockBegin
  2
*D3
 70
     1
 10
0.0
 20
0.0
 30
0.0
  3
*D3
  1

  0
LINE
  5
101
330
F4
100
AcDbEntity
  8
文本层
370
    -2
 62
     0
100
AcDbLine
 10
142.5389180756707
 20
38.74386561624038
 30
0.0
 11
142.5389180756707
 21
18.16720831024031
 31
0.0
  0
LINE
  5
102
330
F4
100
AcDbEntity
  8
文本层
370
    -2
 62
     0
100
AcDbLine
 10
152.5389180756707
 20
118.7438656162404
 30
0.0
 11
152.5389180756707
 21
18.16720831024031
 31
0.0
  0
LINE
  5
103
330
F4
100
AcDbEntity
  8
文本层
370
    -2
 62
     0
100
AcDbLine
 10
146.0389180756707
 20
20.66720831024031
 30
0.0
 11
149.0389180756707
 21
20.66720831024031
 31
0.0
  0
SOLID
  5
104
330
F4
100
AcDbEntity
  8
文本层
 62
     0
100
AcDbTrace
 38
0.0
 10
146.0389180756707
 20
21.25054164357364
 11
146.0389180756707
 21
20.08387497690698
 12
142.5389180756707
 22
20.66720831024031
 13
142.5389180756707
 23
20.66720831024031
  0
SOLID
  5
105
330
F4
100
AcDbEntity
  8
文本层
 62
     0
100
AcDbTrace
 38
0.0
 10
149.0389180756707
 20
21.25054164357364
 11
149.0389180756707
 21
20.08387497690698
 12
152.5389180756707
 22
20.66720831024031
 13
152.5389180756707
 23
20.66720831024031
  0
MTEXT
  5
106
330
F4
100
AcDbEntity
  8
文本层
 62
     0
100
AcDbMText
 10
147.5389180756707
 20
23.79220831024031
 30
0.0
210
0.0
220
0.0
230
1.0
 11
1.0
 21
0.0
 31
0.0
 40
5.0
 41
0.0
 71
     5
 72
     1
  1
10
  7
数字与字母
 73
     1
 44
1.0
  0
POINT
  5
107
330
F4
100
AcDbEntity
  8
Defpoints
 62
     0
100
AcDbPoint
 10
142.5389180756707
 20
38.74386561624038
 30
0.0
 50
0.0
  0
POINT
  5
108
330
F4
100
AcDbEntity
  8
Defpoints
 62
     0
100
AcDbPoint
 10
152.5389180756707
 20
118.7438656162404
 30
0.0
 50
0.0
  0
POINT
  5
109
330
F4
100
AcDbEntity
  8
Defpoints
 62
     0
100
AcDbPoint
 10
152.5389180756707
 20
20.66720831024031
 30
0.0
 50
0.0
  0
ENDBLK
  5
FF
330
F4
100
AcDbEntity
  8
0
100
AcDbBlockEnd
  0
BLOCK
  5
116
330
10C
100
AcDbEntity
  8
0
100
AcDbBlockBegin
  2
*D4
 70
     1
 10
0.0
 20
0.0
 30
0.0
  3
*D4
  1

  0
LINE
  5
131
330
10C
100
AcDbEntity
  8
文本层
370
    -2
 62
     0
100
AcDbLine
 10
128.5389180756707
 20
38.74386561624038
 30
0.0
 11
92.18687108484119
 21
38.74386561624039
 31
0.0
  0
LINE
  5
132
330
10C
100
AcDbEntity
  8
文本层
370
    -2
 62
     0
100
AcDbLine
 10
128.5389180756707
 20
81.74386561624038
 30
0.0
 11
92.18687108484119
 21
81.7438656162404
 31
0.0
  0
LINE
  5
133
330
10C
100
AcDbEntity
  8
文本层
370
    -2
 62
     0
100
AcDbLine
 10
94.68687108484119
 20
42.24386561624039
 30
0.0
 11
94.68687108484119
 21
78.2438656162404
 31
0.0
  0
SOLID
  5
134
330
10C
100
AcDbEntity
  8
文本层
 62
     0
100
AcDbTrace
 38
0.0
 10
94.10353775150786
 20
42.24386561624039
 11
95.27020441817452
 21
42.24386561624039
 12
94.68687108484119
 22
38.74386561624039
 13
94.68687108484119
 23
38.74386561624039
  0
SOLID
  5
135
330
10C
100
AcDbEntity
  8
文本层
 62
     0
100
AcDbTrace
 38
0.0
 10
94.10353775150786
 20
78.2438656162404
 11
95.27020441817452
 21
78.2438656162404
 12
94.68687108484119
 22
81.7438656162404
 13
94.68687108484119
 23
81.7438656162404
  0
MTEXT
  5
136
330
10C
100
AcDbEntity
  8
文本层
 62
     0
100
AcDbMText
 10
91.56187108484117
 20
60.24386561624041
 30
0.0
210
0.0
220
0.0
230
1.0
 11
6.123031769111886E-17
 21
1.0
 31
0.0
 40
5.0
 41
0.0
 71
     5
 72
     1
  1
43
  7
数字与字母
 73
     1
 44
1.0
  0
POINT
  5
137
330
10C
100
AcDbEntity
  8
Defpoints
 62
     0
100
AcDbPoint
 10
128.5389180756707
 20
38.74386561624038
 30
0.0
 50
0.0
  0
POINT
  5
138
330
10C
100
AcDbEntity
  8
Defpoints
 62
     0
100
AcDbPoint
 10
128.5389180756707
 20
81.74386561624038
 30
0.0
 50
0.0
  0
POINT
  5
139
330
10C
100
AcDbEntity
  8
Defpoints
 62
     0
100
AcDbPoint
 10
94.68687108484119
 20
81.7438656162404
 30
0.0
 50
0.0
  0
ENDBLK
  5
117
330
10C
100
AcDbEntity
  8
0
100
AcDbBlockEnd
  0
BLOCK
  5
12E
330
124
100
AcDbEntity
  8
0
100
AcDbBlockBegin
  2
*D5
 70
     1
 10
0.0
 20
0.0
 30
0.0
  3
*D5
  1

  0
LINE
  5
125
330
124
100
AcDbEntity
  8
文本层
370
    -2
 62
     0
100
AcDbLine
 10
86.53891807567072
 20
146.7438656162404
 30
0.0
 11
86.53891807567071
 21
18.55430957197945
 31
0.0
  0
LINE
  5
126
330
124
100
AcDbEntity
  8
文本层
370
    -2
 62
     0
100
AcDbLine
 10
128.5389180756707
 20
28.40922741528095
 30
0.0
 11
128.5389180756707
 21
18.55430957197945
 31
0.0
  0
LINE
  5
127
330
124
100
AcDbEntity
  8
文本层
370
    -2
 62
     0
100
AcDbLine
 10
90.03891807567071
 20
21.05430957197945
 30
0.0
 11
125.0389180756707
 21
21.05430957197945
 31
0.0
  0
SOLID
  5
128
330
124
100
AcDbEntity
  8
文本层
 62
     0
100
AcDbTrace
 38
0.0
 10
90.03891807567071
 20
21.63764290531278
 11
90.03891807567071
 21
20.47097623864611
 12
86.53891807567071
 22
21.05430957197945
 13
86.53891807567071
 23
21.05430957197945
  0
SOLID
  5
129
330
124
100
AcDbEntity
  8
文本层
 62
     0
100
AcDbTrace
 38
0.0
 10
125.0389180756707
 20
21.63764290531278
 11
125.0389180756707
 21
20.47097623864611
 12
128.5389180756707
 22
21.05430957197945
 13
128.5389180756707
 23
21.05430957197945
  0
MTEXT
  5
12A
330
124
100
AcDbEntity
  8
文本层
 62
     0
100
AcDbMText
 10
107.5389180756707
 20
24.17930957197945
 30
0.0
210
0.0
220
0.0
230
1.0
 11
1.0
 21
0.0
 31
0.0
 40
5.0
 41
0.0
 71
     5
 72
     1
  1
42
  7
数字与字母
 73
     1
 44
1.0
  0
POINT
  5
12B
330
124
100
AcDbEntity
  8
Defpoints
 62
     0
100
AcDbPoint
 10
86.53891807567072
 20
146.7438656162404
 30
0.0
 50
0.0
  0
POINT
  5
12C
330
124
100
AcDbEntity
  8
Defpoints
 62
     0
100
AcDbPoint
 10
128.5389180756707
 20
28.40922741528095
 30
0.0
 50
0.0
  0
POINT
  5
12D
330
124
100
AcDbEntity
  8
Defpoints
 62
     0
100
AcDbPoint
 10
128.5389180756707
 20
21.05430957197945
 30
0.0
 50
0.0
  0
ENDBLK
  5
12F
330
124
100
AcDbEntity
  8
0
100
AcDbBlockEnd
  0
BLOCK
  5
14A
330
13D
100
AcDbEntity
  8
0
100
AcDbBlockBegin
  2
*D6
 70
     1
 10
0.0
 20
0.0
 30
0.0
  3
*D6
  1

  0
LINE
  5
14D
330
13D
100
AcDbEntity
  8
文本层
370
    -2
 62
     0
100
AcDbLine
 10
128.5389180756707
 20
81.74386561624038
 30
0.0
 11
91.94807105656707
 21
81.7438656162404
 31
0.0
  0
LINE
  5
14E
330
13D
100
AcDbEntity
  8
文本层
370
    -2
 62
     0
100
AcDbLine
 10
128.5389180756707
 20
84.74386561624038
 30
0.0
 11
91.94807105656707
 21
84.7438656162404
 31
0.0
  0
LINE
  5
14F
330
13D
100
AcDbEntity
  8
文本层
370
    -2
 62
     0
100
AcDbLine
 10
94.44807105656707
 20
78.2438656162404
 30
0.0
 11
94.44807105656707
 21
74.7438656162404
 31
0.0
  0
LINE
  5
150
330
13D
100
AcDbEntity
  8
文本层
370
    -2
 62
     0
100
AcDbLine
 10
94.44807105656707
 20
88.2438656162404
 30
0.0
 11
94.44807105656707
 21
91.7438656162404
 31
0.0
  0
LINE
  5
151
330
13D
100
AcDbEntity
  8
文本层
370
    -2
 62
     0
100
AcDbLine
 10
94.44807105656707
 20
91.7438656162404
 30
0.0
 11
97.4064043899004
 21
91.74386561624038
 31
0.0
  0
LINE
  5
152
330
13D
100
AcDbEntity
  8
文本层
370
    -2
 62
     0
100
AcDbLine
 10
94.44807105656707
 20
81.7438656162404
 30
0.0
 11
94.44807105656707
 21
84.7438656162404
 31
0.0
  0
SOLID
  5
153
330
13D
100
AcDbEntity
  8
文本层
 62
     0
100
AcDbTrace
 38
0.0
 10
93.86473772323374
 20
78.2438656162404
 11
95.0314043899004
 21
78.2438656162404
 12
94.44807105656707
 22
81.7438656162404
 13
94.44807105656707
 23
81.7438656162404
  0
SOLID
  5
154
330
13D
100
AcDbEntity
  8
文本层
 62
     0
100
AcDbTrace
 38
0.0
 10
93.86473772323374
 20
88.2438656162404
 11
95.0314043899004
 21
88.2438656162404
 12
94.44807105656707
 22
84.7438656162404
 13
94.44807105656707
 23
84.7438656162404
  0
MTEXT
  5
155
330
13D
100
AcDbEntity
  8
文本层
 62
     0
100
AcDbMText
 10
96.23973772323373
 20
94.86886561624041
 30
0.0
210
0.0
220
0.0
230
1.0
 11
1.0
 21
0.0
 31
0.0
 40
5.0
 41
0.0
 71
     5
 72
     1
  1
3
  7
数字与字母
 73
     1
 44
1.0
  0
POINT
  5
156
330
13D
100
AcDbEntity
  8
Defpoints
 62
     0
100
AcDbPoint
 10
128.5389180756707
 20
81.74386561624038
 30
0.0
 50
0.0
  0
POINT
  5
157
330
13D
100
AcDbEntity
  8
Defpoints
 62
     0
100
AcDbPoint
 10
128.5389180756707
 20
84.74386561624038
 30
0.0
 50
0.0
  0
POINT
  5
158
330
13D
100
AcDbEntity
  8
Defpoints
 62
     0
100
AcDbPoint
 10
94.44807105656707
 20
84.7438656162404
 30
0.0
 50
0.0
  0
ENDBLK
  5
14B
330
13D
100
AcDbEntity
  8
0
100
AcDbBlockEnd
  0
BLOCK
  5
165
330
15B
100
AcDbEntity
  8
0
100
AcDbBlockBegin
  2
*D7
 70
     1
 10
0.0
 20
0.0
 30
0.0
  3
*D7
  1

  0
LINE
  5
15C
330
15B
100
AcDbEntity
  8
文本层
370
    -2
 62
     0
100
AcDbLine
 10
152.5389180756707
 20
118.7438656162404
 30
0.0
 11
225.0672400433718
 21
118.7438656162404
 31
0.0
  0
LINE
  5
15D
330
15B
100
AcDbEntity
  8
文本层
370
    -2
 62
     0
100
AcDbLine
 10
142.5389180756707
 20
38.74386561624038
 30
0.0
 11
225.0672400433717
 21
38.74386561624036
 31
0.0
  0
LINE
  5
15E
330
15B
100
AcDbEntity
  8
文本层
370
    -2
 62
     0
100
AcDbLine
 10
222.5672400433718
 20
115.2438656162404
 30
0.0
 11
222.5672400433717
 21
42.24386561624036
 31
0.0
  0
SOLID
  5
15F
330
15B
100
AcDbEntity
  8
文本层
 62
     0
100
AcDbTrace
 38
0.0
 10
221.9839067100384
 20
115.2438656162404
 11
223.1505733767051
 21
115.2438656162404
 12
222.5672400433718
 22
118.7438656162404
 13
222.5672400433718
 23
118.7438656162404
  0
SOLID
  5
160
330
15B
100
AcDbEntity
  8
文本层
 62
     0
100
AcDbTrace
 38
0.0
 10
221.9839067100384
 20
42.24386561624036
 11
223.1505733767051
 21
42.24386561624036
 12
222.5672400433717
 22
38.74386561624036
 13
222.5672400433717
 23
38.74386561624036
  0
MTEXT
  5
161
330
15B
100
AcDbEntity
  8
文本层
 62
     0
100
AcDbMText
 10
219.4422400433717
 20
78.7438656162404
 30
0.0
210
0.0
220
0.0
230
1.0
 11
6.123031769111886E-17
 21
1.0
 31
0.0
 40
5.0
 41
0.0
 71
     5
 72
     1
  1
80
  7
数字与字母
 73
     1
 44
1.0
  0
POINT
  5
162
330
15B
100
AcDbEntity
  8
Defpoints
 62
     0
100
AcDbPoint
 10
152.5389180756707
 20
118.7438656162404
 30
0.0
 50
0.0
  0
POINT
  5
163
330
15B
100
AcDbEntity
  8
Defpoints
 62
     0
100
AcDbPoint
 10
142.5389180756707
 20
38.74386561624038
 30
0.0
 50
0.0
  0
POINT
  5
164
330
15B
100
AcDbEntity
  8
Defpoints
 62
     0
100
AcDbPoint
 10
222.5672400433717
 20
38.74386561624036
 30
0.0
 50
0.0
  0
ENDBLK
  5
166
330
15B
100
AcDbEntity
  8
0
100
AcDbBlockEnd
  0
BLOCK
  5
170
330
168
100
AcDbEntity
  8
0
100
AcDbBlockBegin
  2
*D8
 70
     1
 10
0.0
 20
0.0
 30
0.0
  3
*D8
  1

  0
LINE
  5
173
330
168
100
AcDbEntity
  8
文本层
370
    -2
 62
     0
100
AcDbLine
 10
208.812417401472
 20
81.11327023114768
 30
0.0
 11
198.687417401472
 21
81.11327023114769
 31
0.0
  0
LINE
  5
174
330
168
100
AcDbEntity
  8
文本层
370
    -2
 62
     0
100
AcDbLine
 10
198.687417401472
 20
81.11327023114769
 30
0.0
 11
182.376561538798
 21
94.4135340819744
 31
0.0
  0
MTEXT
  5
175
330
168
100
AcDbEntity
  8
文本层
 62
     0
100
AcDbMText
 10
204.062417401472
 20
84.23827023114771
 30
0.0
210
0.0
220
0.0
230
1.0
 11
1.0
 21
0.0
 31
0.0
 40
5.0
 41
0.0
 71
     5
 72
     1
  1
R35
  7
数字与字母
 73
     1
 44
1.0
  0
LINE
  5
176
330
168
100
AcDbEntity
  8
文本层
370
    -2
 62
     0
100
AcDbLine
 10
152.5389180756708
 20
118.7438656162405
 30
0.0
 11
179.6640484966955
 21
96.62538240327132
 31
0.0
  0
SOLID
  5
177
330
168
100
AcDbEntity
  8
文本层
 62
     0
100
AcDbTrace
 38
0.0
 10
182.7452029256808
 20
94.86561958899148
 11
182.0079201519151
 21
93.9614485749573
 12
179.6640484966955
 22
96.62538240327132
 13
179.6640484966955
 23
96.62538240327132
  0
POINT
  5
178
330
168
100
AcDbEntity
  8
Defpoints
 62
     0
100
AcDbPoint
 10
179.6640484966955
 20
96.62538240327132
 30
0.0
 50
0.0
  0
POINT
  5
179
330
168
100
AcDbEntity
  8
Defpoints
 62
     0
100
AcDbPoint
 10
152.5389180756708
 20
118.7438656162405
 30
0.0
 50
0.0
  0
ENDBLK
  5
171
330
168
100
AcDbEntity
  8
0
100
AcDbBlockEnd
  0
BLOCK
  5
182
330
17C
100
AcDbEntity
  8
0
100
AcDbBlockBegin
  2
*D9
 70
     1
 10
0.0
 20
0.0
 30
0.0
  3
*D9
  1

  0
LINE
  5
185
330
17C
100
AcDbEntity
  8
文本层
370
    -2
 62
     0
100
AcDbLine
 10
174.2284736530494
 20
54.38900173286277
 30
0.0
 11
157.7341626930536
 21
78.87611691680802
 31
0.0
  0
MTEXT
  5
186
330
17C
100
AcDbEntity
  8
文本层
 62
     0
100
AcDbMText
 10
173.8174661562016
 20
60.59281691688744
 30
0.0
210
0.0
220
0.0
230
1.0
 11
0.5586700144383845
 21
-0.8293900258427366
 31
0.0
 40
5.0
 41
0.0
 71
     5
 72
     1
  1
R30
  7
数字与字母
 73
     1
 44
1.0
  0
SOLID
  5
187
330
17C
100
AcDbEntity
  8
文本层
 62
     0
100
AcDbTrace
 38
0.0
 10
158.2179735414619
 20
79.20200775856374
 11
157.2503518446453
 21
78.55022607505228
 12
155.7788176425192
 22
81.7789820072576
 13
155.7788176425192
 23
81.7789820072576
  0
POINT
  5
188
330
17C
100
AcDbEntity
  8
Defpoints
 62
     0
100
AcDbPoint
 10
155.7788176425192
 20
81.7789820072576
 30
0.0
 50
0.0
  0
POINT
  5
189
330
17C
100
AcDbEntity
  8
Defpoints
 62
     0
100
AcDbPoint
 10
172.5389180756708
 20
56.89728123197541
 30
0.0
 50
0.0
  0
ENDBLK
  5
183
330
17C
100
AcDbEntity
  8
0
100
AcDbBlockEnd
  0
BLOCK
  5
192
330
18C
100
AcDbEntity
  8
0
100
AcDbBlockBegin
  2
*D10
 70
     1
 10
0.0
 20
0.0
 30
0.0
  3
*D10
  1

  0
LINE
  5
195
330
18C
100
AcDbEntity
  8
文本层
370
    -2
 62
     0
100
AcDbLine
 10
110.4280491675869
 20
85.96602915585183
 30
0.0
 11
122.3925460830563
 21
93.70639824005733
 31
0.0
  0
MTEXT
  5
196
330
18C
100
AcDbEntity
  8
文本层
 62
     0
100
AcDbMText
 10
113.2435240821487
 20
91.50943523925157
 30
0.0
210
0.0
220
0.0
230
1.0
 11
0.8396138186294293
 21
0.5431837953828411
 31
0.0
 40
5.0
 41
0.0
 71
     5
 72
     1
  1
R20
  7
数字与字母
 73
     1
 44
1.0
  0
SOLID
  5
197
330
18C
100
AcDbEntity
  8
文本层
 62
     0
100
AcDbTrace
 38
0.0
 10
122.075688869083
 20
94.19617296759117
 11
122.7094032970296
 21
93.2166235125235
 12
125.3311944482593
 22
95.60754152389728
 13
125.3311944482593
 23
95.60754152389728
  0
POINT
  5
198
330
18C
100
AcDbEntity
  8
Defpoints
 62
     0
100
AcDbPoint
 10
125.3311944482593
 20
95.60754152389728
 30
0.0
 50
0.0
  0
POINT
  5
199
330
18C
100
AcDbEntity
  8
Defpoints
 62
     0
100
AcDbPoint
 10
108.5389180756706
 20
84.74386561624033
 30
0.0
 50
0.0
  0
ENDBLK
  5
193
330
18C
100
AcDbEntity
  8
0
100
AcDbBlockEnd
  0
BLOCK
  5
1A2
330
19C
100
AcDbEntity
  8
0
100
AcDbBlockBegin
  2
*D11
 70
     1
 10
0.0
 20
0.0
 30
0.0
  3
*D11
  1

  0
LINE
  5
1A5
330
19C
100
AcDbEntity
  8
文本层
370
    -2
 62
     0
100
AcDbLine
 10
135.1446546134129
 20
135.2831324344862
 30
0.0
 11
150.6388173801886
 21
162.6356718434442
 31
0.0
  0
MTEXT
  5
1A6
330
19C
100
AcDbEntity
  8
文本层
 62
     0
100
AcDbMText
 10
135.0748126661276
 20
141.5001552028536
 30
0.0
210
0.0
220
0.0
230
1.0
 11
0.4928774954758837
 21
0.8700987153498275
 31
0.0
 40
5.0
 41
0.0
 71
     5
 72
     1
  1
R85
  7
数字与字母
 73
     1
 44
1.0
  0
SOLID
  5
1A7
330
19C
100
AcDbEntity
  8
文本层
 62
     0
100
AcDbTrace
 38
0.0
 10
150.1312597962345
 20
162.9231837158052
 11
151.1463749641426
 21
162.3481599710833
 12
152.3638886143542
 22
165.6810173471686
 13
152.3638886143542
 23
165.6810173471686
  0
POINT
  5
1A8
330
19C
100
AcDbEntity
  8
Defpoints
 62
     0
100
AcDbPoint
 10
152.3638886143542
 20
165.6810173471686
 30
0.0
 50
0.0
  0
POINT
  5
1A9
330
19C
100
AcDbEntity
  8
Defpoints
 62
     0
100
AcDbPoint
 10
110.4693014989041
 20
91.72262654243328
 30
0.0
 50
0.0
  0
ENDBLK
  5
1A3
330
19C
100
AcDbEntity
  8
0
100
AcDbBlockEnd
  0
BLOCK
  5
1B6
330
1AC
100
AcDbEntity
  8
0
100
AcDbBlockBegin
  2
*D12
 70
     1
 10
0.0
 20
0.0
 30
0.0
  3
*D12
  1

  0
LINE
  5
1B9
330
1AC
100
AcDbEntity
  8
文本层
370
    -2
 62
     0
100
AcDbLine
 10
35.79822492038796
 20
176.444182547317
 30
0.0
 11
45.5898915870547
 21
176.444182547317
 31
0.0
  0
LINE
  5
1BA
330
1AC
100
AcDbEntity
  8
文本层
370
    -2
 62
     0
100
AcDbLine
 10
45.5898915870547
 20
176.444182547317
 30
0.0
 11
73.58699591499526
 21
156.1378909698257
 31
0.0
  0
LINE
  5
1BB
330
1AC
100
AcDbEntity
  8
文本层
370
    -2
 62
     0
100
AcDbLine
 10
99.49084023634617
 20
137.349840262655
 30
0.0
 11
102.3240732089939
 21
135.2948972165582
 31
0.0
  0
MTEXT
  5
1BC
330
1AC
100
AcDbEntity
  8
文本层
 62
     0
100
AcDbMText
 10
40.38155825372129
 20
179.569182547317
 30
0.0
210
0.0
220
0.0
230
1.0
 11
1.0
 21
0.0
 31
0.0
 40
5.0
 41
0.0
 71
     5
 72
     1
  1
\U+220525
  7
数字与字母
 73
     1
 44
1.0
  0
LINE
  5
1BD
330
1AC
100
AcDbEntity
  8
文本层
370
    -2
 62
     0
100
AcDbLine
 10
96.65760726369841
 20
139.4047833087518
 30
0.0
 11
76.42022888764302
 21
154.0829479237289
 31
0.0
  0
SOLID
  5
1BE
330
1AC
100
AcDbEntity
  8
文本层
 62
     0
100
AcDbTrace
 38
0.0
 10
99.83333074402897
 20
137.8220457580963
 11
99.14834972866336
 21
136.8776347672137
 12
96.65760726369841
 22
139.4047833087518
 13
96.65760726369841
 23
139.4047833087518
  0
SOLID
  5
1BF
330
1AC
100
AcDbEntity
  8
文本层
 62
     0
100
AcDbTrace
 38
0.0
 10
73.92948642267805
 20
156.610096465267
 11
73.24450540731245
 21
155.6656854743844
 12
76.42022888764302
 22
154.0829479237289
 13
76.42022888764302
 23
154.0829479237289
  0
POINT
  5
1C0
330
1AC
100
AcDbEntity
  8
Defpoints
 62
     0
100
AcDbPoint
 10
76.42022888764302
 20
154.0829479237289
 30
0.0
 50
0.0
  0
POINT
  5
1C1
330
1AC
100
AcDbEntity
  8
Defpoints
 62
     0
100
AcDbPoint
 10
96.65760726369841
 20
139.4047833087518
 30
0.0
 50
0.0
  0
ENDBLK
  5
1B7
330
1AC
100
AcDbEntity
  8
0
100
AcDbBlockEnd
  0
BLOCK
  5
1CE
330
1C4
100
AcDbEntity
  8
0
100
AcDbBlockBegin
  2
*D13
 70
     1
 10
0.0
 20
0.0
 30
0.0
  3
*D13
  1

  0
LINE
  5
1D1
330
1C4
100
AcDbEntity
  8
文本层
370
    -2
 62
     0
100
AcDbLine
 10
51.82107949211179
 20
198.985175112981
 30
0.0
 11
61.61274615877848
 21
198.985175112981
 31
0.0
  0
LINE
  5
1D2
330
1C4
100
AcDbEntity
  8
文本层
370
    -2
 62
     0
100
AcDbLine
 10
61.61274615877848
 20
198.985175112981
 30
0.0
 11
74.26600442138246
 21
172.465949327215
 31
0.0
  0
LINE
  5
1D3
330
1C4
100
AcDbEntity
  8
文本层
370
    -2
 62
     0
100
AcDbLine
 10
98.81183172995898
 20
121.0217819052658
 30
0.0
 11
100.3190316524154
 21
117.8629295197075
 31
0.0
  0
MTEXT
  5
1D4
330
1C4
100
AcDbEntity
  8
文本层
 62
     0
100
AcDbMText
 10
56.40441282544514
 20
202.110175112981
 30
0.0
210
0.0
220
0.0
230
1.0
 11
1.0
 21
0.0
 31
0.0
 40
5.0
 41
0.0
 71
     5
 72
     1
  1
\U+220550
  7
数字与字母
 73
     1
 44
1.0
  0
LINE
  5
1D5
330
1C4
100
AcDbEntity
  8
文本层
370
    -2
 62
     0
100
AcDbLine
 10
97.30463180750252
 20
124.1806342908241
 30
0.0
 11
75.77320434383893
 21
169.3070969416567
 31
0.0
  0
SOLID
  5
1D6
330
1C4
100
AcDbEntity
  8
文本层
 62
     0
100
AcDbTrace
 38
0.0
 10
99.33830712755204
 20
121.2729818923418
 11
98.28535633236592
 21
120.7705819181897
 12
97.30463180750252
 22
124.1806342908241
 13
97.30463180750252
 23
124.1806342908241
  0
SOLID
  5
1D7
330
1C4
100
AcDbEntity
  8
文本层
 62
     0
100
AcDbTrace
 38
0.0
 10
74.79247981897552
 20
172.7171493142911
 11
73.73952902378943
 21
172.2147493401389
 12
75.77320434383893
 22
169.3070969416567
 13
75.77320434383893
 23
169.3070969416567
  0
POINT
  5
1D8
330
1C4
100
AcDbEntity
  8
Defpoints
 62
     0
100
AcDbPoint
 10
75.77320434383893
 20
169.3070969416567
 30
0.0
 50
0.0
  0
POINT
  5
1D9
330
1C4
100
AcDbEntity
  8
Defpoints
 62
     0
100
AcDbPoint
 10
97.30463180750252
 20
124.1806342908241
 30
0.0
 50
0.0
  0
ENDBLK
  5
1CF
330
1C4
100
AcDbEntity
  8
0
100
AcDbBlockEnd
  0
ENDSEC
  0
SECTION
  2
ENTITIES
  0
LINE
  5
AA
102
{ACAD_REACTORS
330
DA
102
}
330
1F
100
AcDbEntity
  8
轮廓线
100
AcDbLine
 10
128.5389180756707
 20
81.74386561624038
 30
0.0
 11
128.5389180756707
 21
38.74386561624038
 31
0.0
  0
LINE
  5
AB
330
1F
100
AcDbEntity
  8
轮廓线
100
AcDbLine
 10
128.5389180756707
 20
38.74386561624038
 30
0.0
 11
142.5389180756707
 21
38.74386561624038
 31
0.0
  0
LINE
  5
AC
102
{ACAD_REACTORS
330
F2
330
10A
102
}
330
1F
100
AcDbEntity
  8
轮廓线
100
AcDbLine
 10
142.5389180756707
 20
38.74386561624038
 30
0.0
 11
142.5389180756707
 21
81.74386561624038
 31
0.0
  0
LINE
  5
AD
330
1F
100
AcDbEntity
  8
轮廓线
100
AcDbLine
 10
142.5389180756707
 20
81.74386561624038
 30
0.0
 11
128.5389180756707
 21
81.74386561624038
 31
0.0
  0
CIRCLE
  5
AF
102
{ACAD_REACTORS
330
DA
330
1DA
102
}
330
1F
100
AcDbEntity
  8
轮廓线
100
AcDbCircle
 10
86.53891807567072
 20
146.7438656162404
 30
0.0
 40
25.0
  0
CIRCLE
  5
B0
102
{ACAD_REACTORS
330
1C2
102
}
330
1F
100
AcDbEntity
  8
轮廓线
100
AcDbCircle
 10
86.53891807567072
 20
146.7438656162404
 30
0.0
 40
12.5
  0
ARC
  5
B2
102
{ACAD_REACTORS
330
10A
330
17A
102
}
330
1F
100
AcDbEntity
  8
轮廓线
100
AcDbCircle
 10
152.5389180756707
 20
118.7438656162404
 30
0.0
 40
35.0
100
AcDbArc
 50
287.9202131393923
 51
32.71256024374914
  0
ARC
  5
B9
102
{ACAD_REACTORS
330
18A
102
}
330
1F
100
AcDbEntity
  8
轮廓线
100
AcDbCircle
 10
172.5389180756707
 20
56.89728123197548
 30
0.0
 40
30.0
100
AcDbArc
 50
107.9202131393923
 51
180.0
  0
ARC
  5
BA
102
{ACAD_REACTORS
330
1AA
102
}
330
1F
100
AcDbEntity
  8
轮廓线
100
AcDbCircle
 10
110.4693014989041
 20
91.72262654243326
 30
0.0
 40
85.0
100
AcDbArc
 50
32.71256024374915
 51
113.5056640224032
  0
LINE
  5
BC
330
1F
100
AcDbEntity
  8
点划线
100
AcDbLine
 10
147.5389180756707
 20
118.7438656162404
 30
0.0
 11
157.5389180756707
 21
118.7438656162404
 31
0.0
  0
LINE
  5
BD
330
1F
100
AcDbEntity
  8
点划线
100
AcDbLine
 10
152.5389180756707
 20
113.7438656162404
 30
0.0
 11
152.5389180756707
 21
123.7438656162404
 31
0.0
  0
LINE
  5
C0
330
1F
100
AcDbEntity
  8
点划线
100
AcDbLine
 10
55.53891807567072
 20
146.7438656162404
 30
0.0
 11
117.5389180756707
 21
146.7438656162404
 31
0.0
  0
LINE
  5
C1
330
1F
100
AcDbEntity
  8
点划线
100
AcDbLine
 10
86.53891807567072
 20
110.7438656162404
 30
0.0
 11
86.53891807567072
 21
177.7438656162404
 31
0.0
  0
DIMENSION
  5
C2
102
{ACAD_REACTORS
330
DA
102
}
102
{ACAD_XDICTIONARY
360
D0
102
}
330
1F
100
AcDbEntity
  8
文本层
100
AcDbDimension
  2
*D1
 10
41.76790068575712
 20
38.74386561624041
 30
0.0
 11
38.64290068575712
 21
92.74386561624041
 31
0.0
 70
    32
 71
     5
 42
108.0
  3
机械标注
100
AcDbAlignedDimension
 13
86.53891807567072
 23
146.7438656162404
 33
0.0
 14
128.5389180756707
 24
38.74386561624038
 34
0.0
 52
0.0
 50
90.0
100
AcDbRotatedDimension
  0
DIMENSION
  5
DB
102
{ACAD_REACTORS
330
F2
102
}
102
{ACAD_XDICTIONARY
360
E8
102
}
330
1F
100
AcDbEntity
  8
文本层
100
AcDbDimension
  2
*D2
 10
142.5389180756707
 20
20.66720831024031
 30
0.0
 11
135.5389180756707
 21
23.79220831024031
 31
0.0
 70
    32
 71
     5
 42
14.0
  3
机械标注
100
AcDbAlignedDimension
 13
128.5389180756707
 23
38.74386561624038
 33
0.0
 14
142.5389180756707
 24
38.74386561624038
 34
0.0
 52
0.0
100
AcDbRotatedDimension
  0
DIMENSION
  5
F3
102
{ACAD_REACTORS
330
10A
102
}
102
{ACAD_XDICTIONARY
360
100
102
}
330
1F
100
AcDbEntity
  8
文本层
100
AcDbDimension
  2
*D3
 10
152.5389180756707
 20
20.66720831024031
 30
0.0
 11
147.5389180756707
 21
23.79220831024031
 31
0.0
 70
    32
 71
     5
 42
10.0
  3
机械标注
100
AcDbAlignedDimension
 13
142.5389180756707
 23
38.74386561624038
 33
0.0
 14
152.5389180756707
 24
118.7438656162404
 34
0.0
 52
0.0
100
AcDbRotatedDimension
1001
ACAD
1000
DSTYLE
1002
{
1070
   279
1070
     1
1002
}
  0
DIMENSION
  5
10B
330
1F
100
AcDbEntity
  8
文本层
100
AcDbDimension
  2
*D4
 10
94.68687108484119
 20
81.7438656162404
 30
0.0
 11
91.56187108484117
 21
60.24386561624041
 31
0.0
 70
    32
 71
     5
 42
43.0
  3
机械标注
100
AcDbAlignedDimension
 13
128.5389180756707
 23
38.74386561624038
 33
0.0
 14
128.5389180756707
 24
81.74386561624038
 34
0.0
 52
0.0
 50
90.0
100
AcDbRotatedDimension
  0
DIMENSION
  5
123
330
1F
100
AcDbEntity
  8
文本层
100
AcDbDimension
  2
*D5
 10
128.5389180756707
 20
21.05430957197945
 30
0.0
 11
107.5389180756707
 21
24.17930957197945
 31
0.0
 70
    32
 71
     5
 42
42.0
  3
机械标注
100
AcDbAlignedDimension
 13
86.53891807567072
 23
146.7438656162404
 33
0.0
 14
128.5389180756707
 24
28.40922741528095
 34
0.0
 52
0.0
100
AcDbRotatedDimension
  0
LINE
  5
130
330
1F
100
AcDbEntity
  8
轮廓线
100
AcDbLine
 10
128.5389180756707
 20
81.74386561624038
 30
0.0
 11
128.5389180756707
 21
84.74386561624038
 31
0.0
  0
ARC
  5
13A
102
{ACAD_REACTORS
330
159
330
19A
102
}
330
1F
100
AcDbEntity
  8
轮廓线
100
AcDbCircle
 10
108.5389180756707
 20
84.74386561624038
 30
0.0
 40
20.0
100
AcDbArc
 50
0.0
 51
62.69525012707776
  0
LINE
  5
13B
330
1F
100
AcDbEntity
  8
轮廓线
100
AcDbLine
 10
75.07083757327901
 20
124.5293854379724
 30
0.0
 11
117.7133824775841
 21
102.5154497588548
 31
0.0
  0
DIMENSION
  5
13C
102
{ACAD_REACTORS
330
159
102
}
102
{ACAD_XDICTIONARY
360
14C
102
}
330
1F
100
AcDbEntity
  8
文本层
100
AcDbDimension
  2
*D6
 10
94.44807105656707
 20
84.7438656162404
 30
0.0
 11
96.23973772323373
 21
94.86886561624041
 31
0.0
 70
    32
 71
     5
 42
3.0
  3
机械标注
100
AcDbAlignedDimension
 13
128.5389180756707
 23
81.74386561624038
 33
0.0
 14
128.5389180756707
 24
84.74386561624038
 34
0.0
 52
0.0
 50
90.0
100
AcDbRotatedDimension
  0
DIMENSION
  5
15A
330
1F
100
AcDbEntity
  8
文本层
100
AcDbDimension
  2
*D7
 10
222.5672400433717
 20
38.74386561624036
 30
0.0
 11
219.4422400433717
 21
78.7438656162404
 31
0.0
 70
    32
 71
     5
 42
80.0
  3
机械标注
100
AcDbAlignedDimension
 13
152.5389180756707
 23
118.7438656162404
 33
0.0
 14
142.5389180756707
 24
38.74386561624038
 34
0.0
 52
0.0
 50
90.0
100
AcDbRotatedDimension
  0
DIMENSION
  5
167
102
{ACAD_REACTORS
330
17A
102
}
102
{ACAD_XDICTIONARY
360
172
102
}
330
1F
100
AcDbEntity
  8
文本层
100
AcDbDimension
  2
*D8
 10
152.5389180756708
 20
118.7438656162405
 30
0.0
 11
204.062417401472
 21
81.11327023114771
 31
0.0
 70
   164
 71
     5
 42
34.99999999999999
  3
机械标注
100
AcDbRadialDimension
 15
179.6640484966955
 25
96.62538240327132
 35
0.0
 40
0.0
1001
ACAD
1000
DSTYLE
1002
{
1070
   288
1070
     1
1002
}
  0
DIMENSION
  5
17B
102
{ACAD_REACTORS
330
18A
102
}
102
{ACAD_XDICTIONARY
360
184
102
}
330
1F
100
AcDbEntity
  8
文本层
100
AcDbDimension
  2
*D9
 10
172.5389180756708
 20
56.89728123197541
 30
0.0
 11
171.2256223254431
 21
58.84697312176749
 31
0.0
 70
   164
 71
     5
 42
30.0000000000001
  3
机械标注
100
AcDbRadialDimension
 15
155.7788176425192
 25
81.7789820072576
 35
0.0
 40
0.0
1001
ACAD
1000
DSTYLE
1002
{
1070
   288
1070
     1
1002
}
  0
DIMENSION
  5
18B
102
{ACAD_REACTORS
330
19A
102
}
102
{ACAD_XDICTIONARY
360
194
102
}
330
1F
100
AcDbEntity
  8
文本层
100
AcDbDimension
  2
*D10
 10
108.5389180756706
 20
84.74386561624033
 30
0.0
 11
114.9409734427201
 21
88.8856420560346
 31
0.0
 70
   164
 71
     5
 42
20.0000000000002
  3
机械标注
100
AcDbRadialDimension
 15
125.3311944482593
 25
95.60754152389728
 35
0.0
 40
0.0
1001
ACAD
1000
DSTYLE
1002
{
1070
   288
1070
     1
1002
}
  0
DIMENSION
  5
19B
102
{ACAD_REACTORS
330
1AA
102
}
102
{ACAD_XDICTIONARY
360
1A4
102
}
330
1F
100
AcDbEntity
  8
文本层
100
AcDbDimension
  2
*D11
 10
110.4693014989041
 20
91.72262654243328
 30
0.0
 11
137.7938711515958
 21
139.9599130294915
 31
0.0
 70
   164
 71
     5
 42
85.0
  3
机械标注
100
AcDbRadialDimension
 15
152.3638886143542
 25
165.6810173471686
 35
0.0
 40
0.0
1001
ACAD
1000
DSTYLE
1002
{
1070
   288
1070
     1
1002
}
  0
DIMENSION
  5
1AB
102
{ACAD_REACTORS
330
1C2
102
}
102
{ACAD_XDICTIONARY
360
1B8
102
}
330
1F
100
AcDbEntity
  8
文本层
100
AcDbDimension
  2
*D12
 10
96.65760726369841
 20
139.4047833087518
 30
0.0
 11
40.38155825372129
 21
176.444182547317
 31
0.0
 70
   163
 71
     5
 42
25.0
  3
机械标注
100
AcDbDiametricDimension
 15
76.42022888764302
 25
154.0829479237289
 35
0.0
 40
0.0
1001
ACAD
1000
DSTYLE
1002
{
1070
   288
1070
     1
1002
}
  0
DIMENSION
  5
1C3
102
{ACAD_REACTORS
330
1DA
102
}
102
{ACAD_XDICTIONARY
360
1D0
102
}
330
1F
100
AcDbEntity
  8
文本层
100
AcDbDimension
  2
*D13
 10
97.30463180750252
 20
124.1806342908241
 30
0.0
 11
56.40441282544514
 21
198.985175112981
 31
0.0
 70
   163
 71
     5
 42
50.00000000000001
  3
机械标注
100
AcDbDiametricDimension
 15
75.77320434383893
 25
169.3070969416567
 35
0.0
 40
0.0
1001
ACAD
1000
DSTYLE
1002
{
1070
   288
1070
     1
1002
}
  0
VIEWPORT
  5
1DF
330
5E
100
AcDbEntity
 67
     1
  8
0
100
AcDbViewport
 10
133.3499908447266
 20
101.5999970436096
 30
0.0
 40
423.7327665924585
 41
228.4221935424805
 68
     1
 69
     1
 12
133.3499908447266
 22
101.5999970436096
 13
0.0
 23
0.0
 14
10.0
 24
10.0
 15
10.0
 25
10.0
 16
0.0
 26
0.0
 36
1.0
 17
0.0
 27
0.0
 37
0.0
 42
50.0
 43
0.0
 44
0.0
 45
228.4221935424805
 50
0.0
 51
0.0
 72
   100
 90
    32800
  1

281
     0
 71
     1
 74
     0
110
0.0
120
0.0
130
0.0
111
1.0
121
0.0
131
0.0
112
0.0
122
1.0
132
0.0
 79
     0
146
0.0
348
0
340
0
345
0
346
0
  0
VIEWPORT
  5
1E1
330
5E
100
AcDbEntity
 67
     1
  8
文本层
100
AcDbViewport
 10
133.3499939441681
 20
101.5999939441681
 30
0.0
 40
213.3599903106689
 41
162.5599903106689
 68
     1
 69
     2
 12
130.4306037030539
 22
111.3904092345448
 13
0.0
 23
0.0
 14
10.0
 24
10.0
 15
10.0
 25
10.0
 16
0.0
 26
0.0
 36
1.0
 17
0.0
 27
0.0
 37
0.0
 42
50.0
 43
0.0
 44
0.0
 45
189.7716416778167
 50
0.0
 51
0.0
 72
   100
 90
    32864
  1

281
     0
 71
     1
 74
     0
110
0.0
120
0.0
130
0.0
111
1.0
121
0.0
131
0.0
112
0.0
122
1.0
132
0.0
 79
     0
146
0.0
348
0
340
0
345
0
346
0
  0
ENDSEC
  0
SECTION
  2
OBJECTS
  0
DICTIONARY
  5
C
330
0
100
AcDbDictionary
281
     1
  3
ACAD_GROUP
350
D
  3
ACAD_LAYOUT
350
1A
  3
ACAD_MLINESTYLE
350
17
  3
ACAD_PLOTSETTINGS
350
19
  3
ACAD_PLOTSTYLENAME
350
E
  3
AcDbVariableDictionary
350
67
  0
DICTIONARY
  5
D
102
{ACAD_REACTORS
330
C
102
}
330
C
100
AcDbDictionary
281
     1
  0
ACDBDICTIONARYWDFLT
  5
E
102
{ACAD_REACTORS
330
C
102
}
330
C
100
AcDbDictionary
281
     1
  3
Normal
350
F
100
AcDbDictionaryWithDefault
340
F
  0
ACDBPLACEHOLDER
  5
F
102
{ACAD_REACTORS
330
E
102
}
330
E
  0
DICTIONARY
  5
17
102
{ACAD_REACTORS
330
C
102
}
330
C
100
AcDbDictionary
281
     1
  3
Standard
350
18
  0
MLINESTYLE
  5
18
102
{ACAD_REACTORS
330
17
102
}
330
17
100
AcDbMlineStyle
  2
STANDARD
 70
     0
  3

 62
   256
 51
90.0
 52
90.0
 71
     2
 49
0.5
 62
   256
  6
BYLAYER
 49
-0.5
 62
   256
  6
BYLAYER
  0
DICTIONARY
  5
19
102
{ACAD_REACTORS
330
C
102
}
330
C
100
AcDbDictionary
281
     1
  0
DICTIONARY
  5
1A
102
{ACAD_REACTORS
330
C
102
}
330
C
100
AcDbDictionary
281
     1
  3
Model
350
22
  3
布局1
350
5A
  3
布局2
350
5F
  0
LAYOUT
  5
22
102
{ACAD_REACTORS
330
1A
102
}
330
1A
100
AcDbPlotSettings
  1

  2
none_device
  4
ANSI_A_(8.50_x_11.00_Inches)
  6

 40
6.349999904632568
 41
19.04999923706055
 42
6.350006103515625
 43
19.04998779296875
 44
215.8999938964844
 45
279.3999938964844
 46
0.0
 47
0.0
 48
0.0
 49
0.0
140
0.0
141
0.0
  6

142
1.0
143
57.07986212157697
 70
 11952
 72
     0
 73
     1
 74
     0
  7

 75
     0
147
0.01751931351673652
148
-2282.040442273535
149
2.561166666666503
100
AcDbLayout
  1
Model
 70
     1
 71
     0
 10
0.0
 20
0.0
 11
12.0
 21
9.0
 12
0.0
 22
0.0
 32
0.0
 14
0.0
 24
0.0
 34
0.0
 15
0.0
 25
0.0
 35
0.0
146
0.0
 13
0.0
 23
0.0
 33
0.0
 16
1.0
 26
0.0
 36
0.0
 17
0.0
 27
1.0
 37
0.0
 76
     0
330
1F
  0
LAYOUT
  5
5A
102
{ACAD_REACTORS
330
1A
102
}
330
1A
100
AcDbPlotSettings
  1

  2
none_device
  4
Letter_(8.50_x_11.00_Inches)
  6

 40
6.349999904632568
 41
6.349999904632568
 42
6.350006103515625
 43
6.350006103515625
 44
215.8999938964844
 45
279.3999938964844
 46
0.0
 47
0.0
 48
0.0
 49
0.0
140
0.0
141
0.0
  6

142
1.0
143
1.0
 70
   688
 72
     1
 73
     1
 74
     5
  7

 75
    16
147
1.0
148
0.0
149
0.0
100
AcDbLayout
  1
布局1
 70
     1
 71
     1
 10
-6.350006103515625
 20
-6.349999904632568
 11
273.0499877929688
 21
209.5499939918518
 12
0.0
 22
0.0
 32
0.0
 14
26.66999878883362
 24
20.31999878883363
 34
0.0
 15
240.0299890995026
 25
182.8799890995026
 35
0.0
146
0.0
 13
0.0
 23
0.0
 33
0.0
 16
1.0
 26
0.0
 36
0.0
 17
0.0
 27
1.0
 37
0.0
 76
     0
330
59
331
74
  0
LAYOUT
  5
5F
102
{ACAD_REACTORS
330
1A
102
}
330
1A
100
AcDbPlotSettings
  1

  2
none_device
  4
Letter_(8.50_x_11.00_Inches)
  6

 40
6.349999904632568
 41
6.349999904632568
 42
6.350006103515625
 43
6.350006103515625
 44
215.8999938964844
 45
279.3999938964844
 46
0.0
 47
0.0
 48
0.0
 49
0.0
140
0.0
141
0.0
  6

142
1.0
143
1.0
 70
   688
 72
     1
 73
     1
 74
     5
  7

 75
    16
147
1.0
148
0.0
149
0.0
100
AcDbLayout
  1
布局2
 70
     1
 71
     2
 10
-6.350006103515625
 20
-6.349999904632568
 11
273.0499877929688
 21
209.5499939918518
 12
0.0
 22
0.0
 32
0.0
 14
26.66999878883362
 24
20.31999878883363
 34
0.0
 15
240.0299890995026
 25
182.8799890995026
 35
0.0
146
0.0
 13
0.0
 23
0.0
 33
0.0
 16
1.0
 26
0.0
 36
0.0
 17
0.0
 27
1.0
 37
0.0
 76
     0
330
5E
331
1DF
  0
DICTIONARY
  5
67
102
{ACAD_REACTORS
330
C
102
}
330
C
100
AcDbDictionary
281
     1
  3
DIMASSOC
350
68
  3
HIDETEXT
350
6C
  0
DICTIONARYVAR
  5
68
102
{ACAD_REACTORS
330
67
102
}
330
67
100
DictionaryVariables
280
     0
  1
2
  0
DICTIONARYVAR
  5
6C
102
{ACAD_REACTORS
330
67
102
}
330
67
100
DictionaryVariables
280
     0
  1
1
  0
DICTIONARY
  5
D0
330
C2
100
AcDbDictionary
280
     1
281
     1
  3
ACAD_DIMASSOC
360
DA
  0
DICTIONARY
  5
E8
330
DB
100
AcDbDictionary
280
     1
281
     1
  3
ACAD_DIMASSOC
360
F2
  0
DICTIONARY
  5
100
330
F3
100
AcDbDictionary
280
     1
281
     1
  3
ACAD_DIMASSOC
360
10A
  0
DICTIONARY
  5
14C
330
13C
100
AcDbDictionary
280
     1
281
     1
  3
ACAD_DIMASSOC
360
159
  0
DICTIONARY
  5
172
330
167
100
AcDbDictionary
280
     1
281
     1
  3
ACAD_DIMASSOC
360
17A
  0
DICTIONARY
  5
184
330
17B
100
AcDbDictionary
280
     1
281
     1
  3
ACAD_DIMASSOC
360
18A
  0
DICTIONARY
  5
194
330
18B
100
AcDbDictionary
280
     1
281
     1
  3
ACAD_DIMASSOC
360
19A
  0
DICTIONARY
  5
1A4
330
19B
100
AcDbDictionary
280
     1
281
     1
  3
ACAD_DIMASSOC
360
1AA
  0
DICTIONARY
  5
1B8
330
1AB
100
AcDbDictionary
280
     1
281
     1
  3
ACAD_DIMASSOC
360
1C2
  0
DICTIONARY
  5
1D0
330
1C3
100
AcDbDictionary
280
     1
281
     1
  3
ACAD_DIMASSOC
360
1DA
  0
ENDSEC
  0
SECTION
  2
THUMBNAILIMAGE
 90
    18627
310
BF4800000201030100005000000002530100005C480000000000000000000000000000000000000000000000000000000000000000000000000000000000000000000000000000000000000000000000000000000000000000000000000000000000000000000028000000B400000061000000010008000000000034440000
310
00000000000000000001000000000000FFFFFF00FFFFFF0000000000FFFFFF00FFFFFF00FFFFFF00FFFFFF00FFFFFF00FFFFFF00FFFFFF00FFFFFF00330000006600000099000000CC000000FF00000000330000333300006633000099330000CC330000FF33000000660000336600006666000099660000CC660000FF6600
310
0000990000339900006699000099990000CC990000FF99000000CC000033CC000066CC000099CC0000CCCC0000FFCC000000FF000033FF000066FF000099FF0000CCFF0000FFFF000000003300330033006600330099003300CC003300FF00330000333300333333006633330099333300CC333300FF333300006633003366
310
33006666330099663300CC663300FF66330000993300339933006699330099993300CC993300FF99330000CC330033CC330066CC330099CC3300CCCC3300FFCC330000FF330033FF330066FF330099FF3300CCFF3300FFFF330000006600330066006600660099006600CC006600FF00660000336600333366006633660099
310
336600CC336600FF33660000666600336666006666660099666600CC666600FF66660000996600339966006699660099996600CC996600FF99660000CC660033CC660066CC660099CC6600CCCC6600FFCC660000FF660033FF660066FF660099FF6600CCFF6600FFFF660000009900330099006600990099009900CC009900
310
FF00990000339900333399006633990099339900CC339900FF33990000669900336699006666990099669900CC669900FF66990000999900339999006699990099999900CC999900FF99990000CC990033CC990066CC990099CC9900CCCC9900FFCC990000FF990033FF990066FF990099FF9900CCFF9900FFFF99000000CC
310
003300CC006600CC009900CC00CC00CC00FF00CC000033CC003333CC006633CC009933CC00CC33CC00FF33CC000066CC003366CC006666CC009966CC00CC66CC00FF66CC000099CC003399CC006699CC009999CC00CC99CC00FF99CC0000CCCC0033CCCC0066CCCC0099CCCC00CCCCCC00FFCCCC0000FFCC0033FFCC0066FF
310
CC0099FFCC00CCFFCC00FFFFCC000000FF003300FF006600FF009900FF00CC00FF00FF00FF000033FF003333FF006633FF009933FF00CC33FF00FF33FF000066FF003366FF006666FF009966FF00CC66FF00FF66FF000099FF003399FF006699FF009999FF00CC99FF00FF99FF0000CCFF0033CCFF0066CCFF0099CCFF00CC
310
CCFF00FFCCFF0000FFFF0033FFFF0066FFFF0099FFFF00CCFFFF0000000000FFFFFF000D0D0D001A1A1A00282828003535350043434300505050005D5D5D006B6B6B00787878008686860093939300A1A1A100AEAEAE00BBBBBB00C9C9C900D6D6D600E4E4E400F1F1F10000000000FFFFFF00FFFFFF00FFFFFF00FFFFFF00
310
FFFFFF00FFFFFF00FFFFFF00FFFFFF00FFFFFF00FFFFFF0000000000000000000000000000000000000000000000000000000000000000000000000000000000000000000000000000000000000000000000000000000000000000000000000000000000000000000000000000000000000000000000000000000000000000
310
00000000000000000000000000000000000000000000000000000000000000000000000000000000000000000000000000000000000000000000000000000000000000000000000000000000000000000000000000000000000000000000000000000000000000000000000000000000000000000000000000000000000000
310
00000000000000000000000000000000000000000000000000000000000000000000000000000000000000000000000000000000000000000000000000000000000000000000000000000000000000000000000000000000000000000000000000000000000000000000000000000000000000000000000000000000000000
310
00000000000000000000000000000000000000000000000000000000000000000000000000000000000000000000000000000000000000000000000000000000000000000000000000000000000000000000000000000000000000000000000000000000000000000000000000000000000000000000000000000000000000
310
00000000000000000000000000000000000000000000000000000000000000000000000000000000000000000000000000000000000000000000000000000000000000000000000000000000000000000000000000000000000000000000000000000000000000000000000000000000000000000000000000000000000000
310
00000000000000000000000000000000000000000000000000000000000000000000000000000000000000000000000000000000000000000000000000000000000000000000000000000000000000000000000000000000000000000000000000000000000000000000000000000000000000000000000000000000000000
310
00000000000000000000000000000000000000000000000000000000000000000000000000000000000000000000000000000000000000000000000000000000000000000000000000000000000000000000000000000000000000000000000000000000000000000000000000000000000000000000000000000000000000
310
00000000000000000000000000000000000000000000000000000000000000000000000000000000000000000000000000000000000000000000000000000000000000000000000000000000000000000000000000000000000000000000000000000000000000000000000000000000000000000000000000000000000000
310
00000000000000000000000000000000000000000000000000000000000000000000000000000000000000000000000000000000000000000000000000000000000000000000000000000000000000000000000000000000000000000000000000000000000000000000000000000000000000000000000000000000000000
310
00000000000000000000000000000000000000000000000000000000000000000000000000000000000000000000000000000000000000000000000000000000000000000000000000000000000000000000000000000000000000000000000000000000000000000000000000000000000000000000000000000000000000
310
00000000000000000000000000000000000000000000000000000000000000000000000000000000000000000000000000000000000000000000000000000000000000000000000000000000000000000000000000000000000000000000000000000000000000000000000000000000000000000000000000000000000000
310
00000000000000000000000000000000000000000000000000000000000000000000000000000000000000000000000000000000000000000000000000000000000000000000000000000000000000000000000000000000000000000000000000000000000000000000000000000000000000000000000000000000000000
310
00000000000000000000000000000000000000000000000000000000000000000000000000000000000000000000000000000000000000000000000000000000000000000000000000000000000000000000000000000000000000000000000000000000000000000000000000000000000000000000000000000000000000
310
00000000000000000000000000000000000000000000000000000000000000000000000000000000000000000000000000000000009E000000000000000000000000000000000000009E00000000009E000000009E000000000000000000000000000000000000000000000000000000000000000000000000000000000000
310
000000000000000000000000000000000000000000000000000000000000000000000000000000000000000000000000000000000000000000000000000000000000000000000000000000000000000000000000000000000000000000000000000000000000000000009E9E9E9E9E9E9E9E9E9E9E9E9E9E9E9E9E9E9E9E9E
310
9E9E9E9E9E9E9E9E9E9E9E0000000000000000000000000000000000000000000000000000000000000000000000000000000000000000000000000000000000000000000000000000000000000000000000000000000000000000000000000000000000000000000000000000000000000000000000000000000000000000
310
00000000000000000000000000000000000000000000000000000000000000009E9E9E00000000009E9E9E9E0000000000009E9E9E009E9E9E009E9E9E9E9E9E000000000000000000000000000000000000000000000000000000000000000000000000000000000000000000000000000000000000000000000000000000
310
000000000000000000000000000000000000000000000000000000000000000000000000000000000000000000000000000000000000000000000000000000000000000000000000000000000000000000000000009E00000000000000009E9E9E00000000000000009E009E009E009E9E9E9E9E9E00000000000000000000
310
00000000000000000000000000000000000000000000000000000000000000000000000000000000000000000000000000000000000000000000000000000000000000000000000000000000000000000000000000000000000000000000000000000000000000000000000000000000000000000000000000000000000000
310
00000000000000000000009E00000000000000009E9E9E00000000000000009E009E009E009E9E9E9E009E000000000000000000000000000000000000000000000000000000000000000000000000000000000000000000000000000000000000000000000000000000000000000000000000000000000000000000000000
310
000000000000000000000000000000000000000000000000000000000000000000000000000000000000000000000000000000000000000000000000000000009E000000000000000000000000000000000000009E00000000009E000000009E00000000000000000000000000000000000000000000000000000000000000
310
0000000000000000000000000000000000000000000000000000000000000000000000000000000000000000000000000000000000000000000000000000000000000000000000000000000000000000000000000000000000000000000000000000000000000000000000000000000000000000009E000000000000000000
310
000000000000000000009E00000000009E000000009E000000000000000000000000000000000000000000000000000000000000000000000000000000000000000000000000000000000000000000000000000000000000000000000000000000000000000000000000000000000000000000000000000000000000000000
310
000000000000000000000000000000000000000000000000000000000000000000000000000000000000009E000000000000000000000000000000000000009E00000000009E000000009E00000000000000000000000000000000000000000000000000000000000000000000000000000000000000000000000000000000
310
0000000000000000000000000000000000000000000000000000000000000000000000000000000000000000000000000000000000000000000000000000000000000000000000000000000000000000000000000000000000000000000000009E000000000000000000000000000000000000009E00000000009E00000000
310
9E000000000000000000000000000000000000000000000000000000000000000000000000000000000000000000000000000000000000000000000000000000000000000000000000000000000000000000000000000000000000000000000000000000000000000000000000000000000000000000000000000000000000
310
000000000000000000000000000000000000000000009E00000000000000000000000000000000000000F5F5F5F5F5F5F5000000009E00000000000000000000000000000000000000000000000000000000000000000000000000000000000000000000000000000000000000000000000000000000000000000000000000
310
00000000000000000000000000000000000000000000000000000000000000000000000000000000000000000000000000000000009E9E9E9E9E9E9E9E9E9E9E9E9E9E9E9E9E9E9E9E9E9E9E9E9E9E9E9E9E9E9E9E9E9E9E9E9E9E9E9E9EF5F5F5F5F5F5F5F5F59E9E9E9E9E9E9E9E9E9E9E9E9E9E9E9E9E9E9E9E9E9E9E9E
310
9E9E9E9E9E9E9E9E9E9E9E9E9E000000000000000000000000000000000000000000000000000000000000000000000000000000000000000000000000000000000000000000000000000000000000000000000000000000000000000000000000000000000000000000009E00000000000000000000000000000000000000
310
009E00009E9E0000000000000000000000000000F5F5F5F5F5F5F5F5F50000009E000000000000000000000000000000000000000000000000000000000000009E9E00000000000000000000000000000000000000000000000000000000000000000000000000000000000000000000000000000000000000000000000000
310
0000000000000000000000000000000000000000000000000000000000000000009E00000000000000000000000000000000000000009E0000009E0000000000000000000000000000F5F5F5000000F5F5F50000009E000000000000000000000000000000000000000000000000000000000000009E000000000000000000
310
00000000000000000000000000000000000000000000000000000000000000000000000000000000000000000000000000000000000000000000000000000000000000000000000000000000000000000000000000009E00000000000000000000000000000000000000009E0000009E0000000000000000000000000000F5
310
F5F5000000F5F5F50000009E000000000000000000000000000000000000000000000000000000000000009E0000000000000000000000000000000000000000000000000000000000000000000000000000000000000000000000000000000000000000000000000000000000000000000000000000000000000000000000
310
0000000000000000000000009E00000000000000000000000000000000000000009E0000009E0000000000000000000000000000F5F5F5000000F5F5F50000009E000000000000000000000000000000000000000000000000000000000000009E000000000000000000000000000000000000000000000000000000000000
310
00000000000000000000000000000000000000000000000000000000000000000000000000000000000000000000000000000000000000000000000000000000009E00000000000000000000000000000000000000009E0000009E0000000000000000000000000000F5F5F5000000F5F5F50000009E000000000000000000
310
000000000000000000000000000000000000000000009E00000000000000000000000000000000000000000000000000000000000000000000000000000000000000000000000000000000000000000000000000000000000000000000000000000000000000000000000000000000000000000000009E0000000000000000
310
0000000000000000000000009E0000009E0000000000000000000000000000F5F5F5000000F5F5F50000009E000000000000000000000000000000000000000000000000000000000000009E000000000000000000000000000000000000000000000000000000000000000000000000000000000000000000000000000000
310
00000000000000000000000000000000000000000000000000000000000000000000000000000000000000009E00000000000000000000000000000000000000009E0000009E0000000000000000000000000000F5F5F5000000F5F5F50000009E0000000000000000009E0000000000000000000000000000000000000000
310
009E00000000000000000000000000000000000000000000000000000000000000000000000000000000000000000000000000000000000000000000000000000000000000000000000000000000000000000000000000000000000000000000009E00000000000000000000000000000000000000009E00009E9E00000000
310
00000000000000000000F5F5F5000000F5F5F50000009E00000000000000009E9E9E00000000000000000000000000000000000000009E000000000000000000000000000000000000000000000000000000000000000000000000000000000000000000000000000000000000000000000000000000000000000000000000
310
00000000000000000000000000000000000000000000009E00000000000000000000000000000000000000009E9E9E9E9E0000000000000000000000000000F5F5F5000000F5F5F50000009E00000000000000009E9E9E9E000000000000000000000000000000000000009E00000000000000000000000000000000000000
310
000000000000000000000000000000000000000000000000000000000000000000000000000000000000000000000000000000000000000000000000000000000000000000000000000000009E00000000000000000000000000000000000000009E9E9E9E9E0000000000000000000000000000F5F5F5000000F5F5F50000
310
009E000000000000009E9E9E9E00000000000000000000000000000000000000009E000000000000000000000000000000000000000000000000000000000000000000000000000000000000000000000000000000000000000000000000000000000000000000000000000000000000000000000000000000000000000000
310
00009E00000000000000000000000000000000000000009E9E9E9E9E0000000000000000000000000000F5F5F5000000F5F5F5F500009E0000000000009E9E9E9E0000000000000000000000000000000000000000009E00000000000000000000000000000000000000000000000000000000000000000000000000000000
310
000000000000000000000000000000000000000000000000000000000000000000000000000000000000000000000000000000000000009E00000000000000000000000000000000000000009E0000009E0000000000000000000000000000F5F5F5000000F5F5F5F500009E00000000009E00009E9E000000000000000000
310
0000000000000000000000009E00000000000000000000000000000000000000000000000000000000000000000000000000000000000000000000000000000000000000000000000000000000000000000000000000000000000000000000000000000000000000000000009E000000000000000000000000000000000000
310
00009E0000009E0000000000000000000000000000F5F5F5000000F5F5F5F5F5009E00000000009E000000000000000000000000000000000000000000000000009E00000000000000000000000000000000000000000000000000000000000000000000000000000000000000000000000000000000000000000000000000
310
000000000000000000000000000000000000000000000000000000000000000000009E00000000000000000000000000000000000000009E0000009E0000000000000000000000000000F5F5F5000000F5F5F5F5F5009E000000009E00000000000000000000000000000000000000000000000000009E0000000000000000
310
0000000000000000000000000000000000000000000000000000000000000000000000000000000000000000000000000000000000000000000000000000000000000000000000000000000000000000000000000000009E00000000000000000000000000000000000000009E0000009E0000000000000000000000000000
310
F5F5F5000000F5F5F5F5F5F59E0000009E0000000000000000000000000000000000000000000000000000009E00000000000000000000000000000000000000000000000000000000000000000000000000000000000000000000000000000000000000000000000000000000000000000000000000000000000000000000
310
000000000000000000000000009E00000000000000000000000000000000000000009E0000009E0000000000000000000000000000F5F5F5000000F5F5F5F5F5F59E00009E000000000000000000000000000000000000000000000000000000009E0000000000000000000000000000000000000000000000000000000000
310
0000000000000000000000000000000000000000000000000000000000000000000000000000000000000000000000000000000000000000000000000000000000009E00000000000000000000000000000000000000009E0000009E0000000000000000000000000000F5F5F5000000F5F5F5F5F5F59EF5009E0000000000
310
0000000000000000000000000000000000000000009E9E9E00000000000000000000000000000000000000000000000000000000000000000000000000000000000000000000000000000000000000000000000000000000000000000000000000000000000000000000000000000000000000000000009E00000000000000
310
000000000000000000000000009E00009E9E0000000000000000000000000000F5F5F5F5F5F5F5F5F5F5F5F59EF59E0000000000000000000000000000000000000000000000000000009E9E9E0000000000000000000000000000000000000000000000000000000000000000000000000000000000000000000000000000
310
0000000000000000000000000000000000000000000000000000000000000000000000000000000000000000009E00000000000000000000000000000000000000009E009E9E9E9E9E9E9E9E9E9E9E9E9E9E9E9E9EF5F5F5F5F5F5F5F5F500F5F59E9EF5F5F5000000000000000000000000000000009E9E9E9E9E9E000000
310
9E9E9E00000000000000000000000000000000000000000000000000000000000000000000000000000000000000000000000000000000000000000000000000000000000000000000000000000000000000000000000000000000000000000000009E00000000000000000000000000000000000000009E0000009E000000
310
00000000000000000000F5F5F5F5F5F5F5F5F5000000F59EF5F5F5F5F5F5F50000000000000000000000009E009E9E9E9E9E00000000009E0000000000000000000000000000000000000000000000000000000000000000000000000000000000000000000000000000000000000000000000000000000000000000000000
310
0000000000000000000000000000000000000000000000009E00000000000000000000000000000000000000009E009E9E9E9E9E9E9E9E9E9E9E9E9E9E9E9E9EF5F5F50000000000000000009EF5F5F5F5F5F5F5F5F50000000000000000009E00009E9E9E9E9E00000000009E000000000000000000000000000000000000
310
00000000000000000000000000000000000000000000000000000000000000000000000000000000000000000000000000000000000000000000000000000000000000000000000000000000009E00000000000000000000000000000000000000009E00009E9E0000000000009E9E9E00000000F5F5F50000000000000000
310
00009E00F5F5F5F5F5F5F5F5F50000000000009E9E00009E9E9E9E9E9E00000000009E0000000000000000000000000000000000000000000000000000000000000000000000000000000000000000000000000000000000000000000000000000000000000000000000000000000000000000000000000000000000000000
310
9E9E9E9E00000000000000000000000000000000000000009E0000009E0000000000009E9E9E9E000000F5F5F5000000000000000000009E00000000F5F5F5F5F5F5F5000000009E0000000000000000000000000000009E000000000000000000000000000000000000000000000000000000000000000000000000000000
310
00000000000000000000000000000000000000000000000000000000000000000000000000000000000000000000000000000000009E9E9E9E00000000000000000000000000000000000000009E0000009E9E000000009E9E9E9E9E9E9EF5F5F5F5000000000000000000009E000000000000F5F5F5F5F5F5F5009E000000
310
000000000000000000000000009E00000000000000000000000000000000000000000000000000000000000000000000000000000000000000000000000000000000000000000000000000000000000000000000000000000000000000000000000000000000000000009E9E9E9E0000000000000000000000000000000000
310
0000009E0000009E9E0000000000009E9E9E9E9E9EF5F5F5000000000000000000009E00000000000000F5F5F5F5F59E9E00000000000000000000000000000000009E000000000000000000000000000000000000000000000000000000000000000000000000000000000000000000000000000000000000000000000000
310
00000000000000000000000000000000000000000000000000000000000000009E9E9E9E00000000000000000000000000000000000000009E0000009E9E000000000000009E9E00F59E9EF5F5000000000000000000009E000000000000000000F5F59E9E9E00000000000000000000000000000000009E00000000000000
310
0000000000000000000000000000000000000000000000000000000000000000000000000000000000000000000000000000000000000000000000000000000000000000000000000000000000000000000000000000009E9E00000000000000000000000000000000000000009E0000009E9E0000000000000000F5F5F5F5
310
F5F500000000000000000000009E000000000000000000009EF5F5F5F5000000000000000000000000000000009E000000000000000000000000000000000000000000000000000000000000000000000000000000000000000000000000000000000000000000000000000000000000000000000000000000000000000000
310
00000000000000000000000000009E00000000000000000000000000000000000000009E00000000000000000000000000F5F5F5F5F5F500000000000000000000009E0000000000000000009E00F5F5F5F5000000000000000000000000000000009E00000000000000000000000000000000000000000000000000000000
310
000000000000000000000000000000000000000000000000000000000000000000000000000000000000000000000000000000000000000000000000000000000000009E00000000000000000000000000000000000000009E0000000000000000000000F5F5F5F5F5F5F50000000000000000000000009E00000000000000
310
009E0000F5F5F5F5F50000000000000000000000000000009E00000000000000000000000000000000000000000000000000000000000000000000000000000000000000000000000000000000000000000000000000000000000000000000000000000000000000000000000000000000000000000000009E000000000000
310
00000000000000000000000000009E000000000000000000F5F5F5F5F5F5F500000000000000000000000000009E000000000000009E00000000F5F5F5F50000000000000000000000000000009E00000000000000000000000000000000000000000000000000000000000000000000000000000000000000000000000000
310
000000000000000000000000000000000000000000000000000000000000000000000000000000000000000000009E00000000000000000000000000000000000000009E00000000000000F5F5F5F5F5F500000000000000000000000000000000009E00000000009E9E0000000000F5F5F5F5000000000000000000000000
310
0000009E00000000000000000000000000000000000000000000000000000000000000000000000000000000000000000000000000000000000000000000000000000000000000000000000000000000000000000000000000000000000000000000009E00000000000000000000000000000000000000009E0000000000F5
310
F5F5F5F5F5000000000000000000000000000000000000009E000000009E0000000000000000F5F5F5F500000000000000000000000000009E00000000000000000000000000000000000000000000000000000000000000000000000000000000000000000000000000000000000000000000000000000000000000000000
310
000000000000000000000000000000000000000000000000009E0000000000000000000000000000000000000000BE000000F5F5F5F5F5F50000000000000000000000000000000000000000009E0000009E000000000000000000F5F5F5F500000000000000000000000000009E0000000000000000000000000000000000
310
0000000000000000000000000000000000000000000000000000000000000000000000000000000000000000000000000000000000000000000000000000000000000000000000000000000000009E0000000000000000000000000000000000000000BE00F5F5F5F5F5F50000000000000000000000000000000000000000
310
000000BE00009E00000000000000000000F5F5F5F500000000000000000000000000009E00000000000000000000000000000000000000000000000000000000000000000000000000000000000000000000000000000000000000000000000000000000000000000000000000000000000000000000000000000000000000
310
000000009E0000000000000000000000000000000000000000F5F5F5F5F5F500000000000000000000000000000000000000000000000000BE009E000000000000000000000000F5F5F500000000000000000000000000009E9E00000000000000000000000000000000000000000000000000000000000000000000000000
310
0000000000000000000000000000000000000000000000000000000000000000000000000000000000000000000000000000000000000000009E000000000000000000000000000000000000F5F5F5F5F5F500009E000000000000000000000000000000000000000000000000BE9E00000000000000000000000000F5F5F5
310
00000000000000000000000000009E9E000000000000000000000000000000000000000000000000000000000000000000000000000000000000000000000000000000000000000000000000000000000000000000000000000000000000000000000000000000000000000000009E00000000000000000000000000000000
310
F5F5F5F5F5F5F5F5F5009E000000000000000000000000000000000000000000BEBEBEBE9E9E9E9E9E9E9E9E9E9E9E9E9E9EF5F5F59E9E9E9E9E9E9E9E9E9E9E9E9E9E9E9E00000000000000000000000000000000000000000000000000000000000000000000000000000000000000000000000000000000000000000000
310
0000000000000000000000000000000000000000000000000000000000000000000000009E00000000000000000000000000F5F5F5F5F5F5F5BEF5F5F5F5F5F5F50000000000000000000000000000000000000000000000BE0000000000000000000000000000F5F5F5000000000000000000000000000000000000000000
310
00000000000000000000000000000000000000000000000000000000000000000000000000000000000000000000000000000000000000000000000000000000000000000000000000000000000000000000000000000000009E000000000000000000000000F5F5F5F5F5F5F5F5BEF5F5F5F5F5F5F5F50000000000000000
310
0000000000000000000000000000BE0000000000000000000000000000F5F5F50000000000000000000000000000000000000000000000000000000000000000000000000000000000000000000000000000000000000000000000000000000000000000000000000000000000000000000000000000000000000000000000
310
0000000000000000000000000000009E0000000000000000000000F5F5F5F5F5F5F5F500BE00F5F5F5F5F5F5F5F50000000000000000000000000000000000000000000000000000000000000000000000F5F5F5F5000000000000000000000000000000000000000000000000000000000000000000000000000000000000
310
00000000000000000000000000000000000000000000000000000000000000000000000000000000000000000000000000000000000000000000000000000000000000009E00000000000000000000F5F5F5F5F50000000000BE0000009EF5F5F5F5F5F5000000000000000000000000000000000000000000000000000000
310
00000000000000F5F5F5F500000000000000000000000000000000000000000000000000000000000000000000000000000000000000000000000000000000000000000000000000000000000000000000000000000000000000000000000000000000000000000000000000000000000000000000000000009E0000000000
310
00000000F5F5F5F5F5F50000000000BE0000009E00F5F5F5F5F5F50000000000000000000000000000000000000000000000000000000000000000F5F5F5F500000000000000000000000000000000000000000000000000000000000000000000000000000000000000000000000000000000000000000000000000000000
310
00000000000000000000000000000000000000000000000000000000000000000000000000000000000000000000009E000000000000000000F5F5F5F5F50000F5F5F5F5F5F5F5F5F50000F5F5F5F5F50000000000000000000000000000000000000000000000000000000000000000F5F5F5F50000000000000000000000
310
000000000000000000000000000000000000000000000000000000000000000000000000000000000000000000000000000000000000000000000000000000000000000000000000000000000000000000000000000000000000000000000000000000009E0000000000000000F5F5F5F5F50000F5F5F5F5F5F5F5F5F5F5F5
310
009EF5F5F5F5F5000000000000000000009E0000000000000000000000000000000000000000F5F5F5F500000000000000000000000000000000000000000000000000000000000000000000000000000000000000000000000000000000000000000000000000000000000000000000000000000000000000000000000000
310
00000000000000000000000000000000000000000000000000009E0000000000000000F5F5F5F50000F5F5F5F5F5F5F5F5F5F5F5F5F50000F5F5F5F50000000000000000009E9E9E000000000000000000000000000000000000F5F5F5F5000000000000000000000000000000000000000000000000000000000000000000
310
000000000000000000000000000000000000000000000000000000000000000000000000000000000000000000000000000000000000000000000000000000000000000000000000000000000000009E0000000000000000F5F5F5000000F5F5F5F5F500BE00F5F5F5F5F50000F5F5F5F5000000000000009E9E9E9E9E0000
310
000000000000000000000000000000F5F5F5F5F50000000000000000000000000000000000000000000000000000000000000000000000000000000000000000000000000000000000000000000000000000000000000000000000000000000000000000000000000000000000000000000000000000000000000000000000
310
00000000009E00000000000000F5F5F5F50000F5F5F5F5F50000BE9E00F5F5F5F5F50000F5F5F5F5000000000000009E9E9E9E9E000000000000000000000000000000F5F5F5F5F500000000000000000000000000000000000000000000000000000000000000000000000000000000000000000000000000000000000000
310
000000000000000000000000000000000000000000000000000000000000000000000000000000000000000000000000000000000000000000009E00000000000000F5F5F5F50000F5F5F5F5000000BE9E9E00F5F5F5F50000F5F5F5F500000000000000009E9E9E9E0000000000000000000000000000F5F5F5F5F5F50000
310
0000000000000000000000000000000000000000000000000000000000000000000000000000000000000000000000000000000000000000000000000000000000000000000000000000000000000000000000000000000000000000000000000000000000000000000000000000009E00000000000000F5F5F5000000F5F5
310
F500000000BE9E0000F5F5F5F50000F5F5F5F500000000000000009E9E9E009E00000000000000000000000000F5F5F5F5F50000000000000000000000000000000000000000000000000000000000000000000000000000000000000000000000000000000000000000000000000000000000000000000000000000000000
310
0000000000000000000000000000000000000000000000000000000000000000000000009E9E9E9E9E9E9E9EBEF5F5F5BEBEBEF5F5F5BEBE9E9EBEBE00BEF5F5F5F5BEBEF5F5F5F5BE00000000000000009E00009E000000000000000000000000F5F5F5F5F500000000000000000000000000000000000000000000000000
310
0000000000000000000000000000000000000000000000000000000000000000000000000000000000000000000000000000000000000000000000000000000000000000000000000000000000000000000000000000000000000000000000000000F5F5F5F50000F5F5F5F5009E9EBE000000F5F5F5F50000F5F5F5F50000
310
00000000000000000000009E00000000000000000000F5F5F5F5F500000000000000000000000000000000000000000000000000000000000000000000000000000000000000000000000000000000000000000000000000000000000000000000000000000000000000000000000000000000000000000000000000000000
310
000000000000000000000000000000000000000000000000F5F5F5F50000F5F5F5F5F5009EBE0000F5F5F5F5F50000F5F5F5F5000000000000000000000000009E000000000000000000F5F5F5F5F5000000000000000000000000000000000000000000000000000000000000000000000000000000000000000000000000
310
0000000000000000000000000000000000000000000000000000000000000000000000000000000000000000000000000000000000000000000000000000000000000000000000000000000000F5F5F5F50000F5F5F5F5F5F500BE00F5F5F5F5F5000000F5F5F50000000000000000000000000000009E000000000000F5F5
310
F5F5F5F5000000000000000000000000000000000000000000000000000000000000000000000000000000000000000000000000000000000000000000000000000000000000000000000000000000000000000000000000000000000000000000000000000000000000000000000000000000000000000000000000000000
310
00000000F5F5F5F50000F5F5F5F5F5F5F5F5F5F5F5F5F50000F5F5F5F50000000000000000000000000000009E0000000000F5F5F5F5F5F50000000000000000000000000000000000000000000000000000000000000000000000000000000000000000000000000000000000000000000000000000000000000000000000
310
000000000000000000000000000000000000000000000000000000000000000000000000000000000000000000000000000000000000000000F5F5F5F5F59E00F5F5F5F5F5F5F5F5F5F5F50000F5F5F5F5F5000000000000000000000000000000009E000000F5F5F5F5F5F500000000000000000000000000000000000000
310
0000000000000000000000000000000000000000000000000000000000000000000000000000000000000000000000000000000000000000000000000000000000000000000000000000000000000000000000000000000000000000000000000000000000000000000000000000F5F5F5F5F5000000F5F5F5F5F5F5F5F5F5
310
000000F5F5F5F500000000000000000000000000000000009E00F5F5F5F5F5F5F500000000000000000000000000000000000000000000000000000000000000000000000000000000000000000000000000000000000000000000000000000000000000000000000000000000000000000000000000000000000000000000
310
00000000000000000000000000000000000000000000000000000000000000000000000000F5F5F5F5F500009E000000BE0000000000F5F5F5F5F5F50000000000000000000000000000000000F59EF5F5F5F5F5F5000000000000000000000000000000000000000000000000000000000000000000000000000000000000
310
00000000000000000000000000000000000000000000000000000000000000000000000000000000000000000000000000000000000000000000000000000000000000000000000000000000000000000000000000000000009E00F5F5F5F5F5F59E000000BE00000000F5F5F5F5F5F5000000000000000000000000000000
310
0000F5F5F59EF5F5F500000000000000000000000000000000000000000000000000000000000000000000000000000000000000000000000000000000000000000000000000000000000000000000000000000000000000000000000000000000000000000000000000000000000000000000000000000000000000000000
310
00000000000000000000000000009E0000F5F5F5F5F5F5F5F50000BE0000F5F5F5F5F5F5F5000000000000000000000000000000F5F5F5F5F5F5F5F5F5000000000000000000000000000000000000000000000000000000000000000000000000000000000000000000000000000000000000000000000000000000000000
310
00000000000000000000000000000000000000000000000000000000000000000000000000000000000000000000000000000000000000000000000000000000009E9E0000000000F5F5F5F5F5F5F5F5BEF5F5F5F5F5F5F5F50000000000000000000000000000F5F5F5F5F5F5F5F5F5000000000000000000000000000000
310
0000000000000000000000000000000000000000000000000000000000000000000000000000000000000000000000000000000000000000000000000000000000000000000000000000000000000000000000000000000000000000000000000000000000000000000000000000000000000000009E0000000000000000F5
310
F5F5F5F5F5F5BEF5F5F5F5F5F5F50000000000000000000000F5F5F5F5F5F5F5F5F5F5F500000000000000000000000000000000000000000000000000000000000000000000000000000000000000000000000000000000000000000000000000000000000000000000000000000000000000000000000000000000000000
310
00000000000000000000000000000000000000000000000000000000000000000000000000000000009E9E000000000000000000009EF5F5F5F5F5BEF5F5F5F5F5F5F5F5F5F5F5F5F5F5F5F5F5F5F5F5F5F5F5F5F5F5F500000000000000000000000000000000000000000000000000000000000000000000000000000000
310
000000000000000000000000000000000000000000000000000000000000000000000000000000000000000000000000000000000000000000000000000000000000000000000000000000000000000000000000000000009E9E9E9E9E9E0000000000000000000000009E000000F5F5BEF5F5F5F5F5F5F5F5F5F5F5F5F5F5
310
F5F5F5F5F5F5F5F5F5F5000000000000000000000000000000000000000000000000000000000000000000000000000000000000000000000000000000000000000000000000000000000000000000000000000000000000000000000000000000000000000000000000000000000000000000000000000000000000000000
310
0000000000000000000000000000009E9E9E9E9E00000000000000000000009E000000000000BEF5F5F5F5F5F5F5F5F5F5F5F5F5F5F5F5F5F5F5F5F500000000000000000000000000000000000000000000000000000000000000000000000000000000000000000000000000000000000000000000000000000000000000
310
000000000000000000000000000000000000000000000000000000000000000000000000000000000000000000000000000000000000000000000000000000000000009E9E9E9E9E9E00000000000000000000009E000000000000000000000000000000000000000000000000000000000000000000000000000000000000
310
000000000000000000000000000000000000000000000000000000000000000000000000000000000000000000000000000000000000000000000000000000000000000000000000000000000000000000000000000000000000000000000000000000000000000000000000000000000000000000000000009E9E9E9E9E00
310
0000000000000000009E000000000000000000000000000000000000000000000000000000000000000000000000000000000000000000000000000000000000000000000000000000000000000000000000000000000000000000000000000000000000000000000000000000000000000000000000000000000000000000
310
00000000000000000000000000000000000000000000000000000000000000000000000000000000000000000000000000000000000000000000000000009E00000000000000000000000000000000000000000000000000000000000000000000000000000000000000000000000000000000000000000000000000000000
310
0000000000000000000000000000000000000000000000000000000000000000000000000000000000000000000000000000000000000000000000000000000000000000000000000000000000000000000000000000000000000000000000000000000000000000000000000000000000009E000000000000000000000000
310
00000000000000000000000000000000000000000000000000000000000000000000000000000000000000000000000000000000000000000000000000000000000000000000000000000000000000000000000000000000000000000000000000000000000000000000000000000000000000000000000000000000000000
310
000000000000000000000000000000000000000000000000000000000000000000000000000000009E0000000000000000000000000000000000000000000000000000000000000000000000000000000000000000000000000000000000000000000000000000000000000000000000000000000000000000000000000000
310
00000000000000000000000000000000000000000000000000000000000000000000000000000000000000000000000000000000000000000000000000000000000000000000000000000000000000000000000000000000000000009E00000000000000000000000000000000000000000000000000000000000000000000
310
00000000000000000000000000000000000000000000000000000000000000000000000000000000000000000000000000000000000000000000000000000000000000000000000000000000000000000000000000000000000000000000000000000000000000000000000000000000000000000000000000000000000000
310
0000000000000000000000000000000000009E000000000000000000000000000000000000000000000000000000000000000000000000000000000000000000000000000000000000000000000000000000000000000000000000000000000000000000000000000000000000000000000000000000000000000000000000
310
000000000000000000000000000000000000000000000000000000000000000000000000000000000000000000000000000000000000000000000000000000000000000000009E0000000000000000000000000000000000000000000000000000000000000000000000000000000000000000000000000000000000000000
310
0000000000000000000000000000000000000000000000000000000000000000000000000000000000000000000000000000000000000000000000000000000000000000000000000000000000000000000000000000000000000000000000000000000000000000000000000000000000000000000000000000009E000000
310
00000000000000000000000000000000000000000000000000000000000000000000000000000000000000000000000000000000000000000000000000000000000000000000000000000000000000000000000000000000000000000000000000000000000000000000000000000000000000000000000000000000000000
310
00000000000000000000000000000000000000000000000000000000000000000000000000000000000000009E9E9E9E9E000000000000000000000000000000000000000000000000000000000000000000000000000000000000000000000000000000000000000000000000000000000000000000000000000000000000
310
000000000000000000000000000000000000000000000000000000000000000000000000000000000000000000000000000000000000000000000000000000000000000000000000000000000000000000000000000000000000000000000000009E9E9E9E9E00000000000000000000000000000000000000000000000000
310
00000000000000000000000000000000000000000000000000000000000000000000000000000000000000000000000000000000000000000000000000000000000000000000000000000000000000000000000000000000000000000000000000000000000000000000000000000000000000000000000000000000000000
310
00000000000000000000000000000000000000000000009E9E9E9E9E000000000000000000000000000000000000000000000000000000000000000000000000000000000000000000000000000000000000000000000000000000000000000000000000000000000000000000000000000000000000000000000000000000
310
00000000000000000000000000000000000000000000000000000000000000000000000000000000000000000000000000000000000000000000000000000000000000000000000000000000000000000000000000000000000000000000000000000000000000000000000000000000000000000000000000000000000000
310
00000000000000000000000000000000000000000000000000000000000000000000000000000000000000000000000000000000000000000000000000000000000000000000000000000000000000000000000000
  0
ENDSEC
  0
EOF
