999
LibreDWG 
  0
SECTION
  2
HEADER
  9
$ACADVER
  1
AC1015
  9
$ACADMAINTVER
 70
    13
  9
$DWGCODEPAGE
  3
ANSI_936
  9
$INSBASE
 10
0.0
 20
0.0
 30
0.0
  9
$EXTMIN
 10
58.08105545360718
 20
11.39375503722761
 30
-3.491819480175989E-08
  9
$EXTMAX
 10
243.2235724097393
 20
147.5977658203992
 30
8.14935746090012E-08
  9
$LIMMIN
 10
0.0
 20
0.0
  9
$LIMMAX
 10
300.0
 20
150.0
  9
$ORTHOMODE
 70
     0
  9
$REGENMODE
 70
     1
  9
$FILLMODE
 70
     1
  9
$QTEXTMODE
 70
     0
  9
$MIRRTEXT
 70
     1
  9
$LTSCALE
 40
1.0
  9
$ATTMODE
 70
     1
  9
$TEXTSIZE
 40
2.5
  9
$TRACEWID
 40
1.0
  9
$TEXTSTYLE
  7
数字与字母
  9
$CLAYER
  8
文本层
  9
$CELTYPE
  6
ByLayer
  9
$CECOLOR
 62
   256
  9
$CELTSCALE
 40
1.0
  9
$DISPSILH
 70
     0
  9
$DIMSCALE
 40
1.0
  9
$DIMASZ
 40
3.5
  9
$DIMEXO
 40
0.0
  9
$DIMDLI
 40
7.5
  9
$DIMRND
 40
0.0
  9
$DIMDLE
 40
0.0
  9
$DIMEXE
 40
2.5
  9
$DIMTP
 40
0.0
  9
$DIMTM
 40
0.0
  9
$DIMTXT
 40
5.0
  9
$DIMCEN
 40
2.5
  9
$DIMTSZ
 40
0.0
  9
$DIMTOL
 70
     0
  9
$DIMLIM
 70
     0
  9
$DIMTIH
 70
     0
  9
$DIMTOH
 70
     1
  9
$DIMSE1
 70
     0
  9
$DIMSE2
 70
     0
  9
$DIMTAD
 70
     1
  9
$DIMZIN
 70
     8
  9
$DIMBLK
  1

  9
$DIMASO
 70
     1
  9
$DIMSHO
 70
     1
  9
$DIMPOST
  1

  9
$DIMAPOST
  1

  9
$DIMALT
 70
     0
  9
$DIMALTD
 70
     3
  9
$DIMALTF
 40
0.03937007874016
  9
$DIMLFAC
 40
1.0
  9
$DIMTOFL
 70
     1
  9
$DIMTVP
 40
0.0
  9
$DIMTIX
 70
     0
  9
$DIMSOXD
 70
     0
  9
$DIMSAH
 70
     0
  9
$DIMBLK1
  1

  9
$DIMBLK2
  1

  9
$DIMSTYLE
  2
机械标注
  9
$DIMCLRD
 70
     0
  9
$DIMCLRE
 70
     0
  9
$DIMCLRT
 70
     0
  9
$DIMTFAC
 40
1.0
  9
$DIMGAP
 40
0.625
  9
$DIMJUST
 70
     0
  9
$DIMSD1
 70
     0
  9
$DIMSD2
 70
     0
  9
$DIMTOLJ
 70
     0
  9
$DIMTZIN
 70
     8
  9
$DIMALTZ
 70
     0
  9
$DIMALTTZ
 70
     0
  9
$DIMUPT
 70
     0
  9
$DIMDEC
 70
     1
  9
$DIMTDEC
 70
     1
  9
$DIMALTU
 70
     2
  9
$DIMALTTD
 70
     3
  9
$DIMTXSTY
  7
数字与字母
  9
$DIMAUNIT
 70
     0
  9
$DIMADEC
 70
     0
  9
$DIMALTRND
 40
0.0
  9
$DIMAZIN
 70
     0
  9
$DIMDSEP
 70
    46
  9
$DIMATFIT
 70
     3
  9
$DIMFRAC
 70
     0
  9
$DIMLDRBLK
  1

  9
$DIMLUNIT
 70
     2
  9
$DIMLWD
 70
    -2
  9
$DIMLWE
 70
    -2
  9
$DIMTMOVE
 70
     0
  9
$LUNITS
 70
     2
  9
$LUPREC
 70
     1
  9
$AXISMODE
 70
     0
  9
$AXISUNIT
 10
0.0
 20
0.0
  9
$SKETCHINC
 40
1.0
  9
$FILLETRAD
 40
36.0
  9
$AUNITS
 70
     0
  9
$AUPREC
 70
     1
  9
$MENU
  1
.
  9
$ELEVATION
 40
0.0
  9
$PELEVATION
 40
0.0
  9
$THICKNESS
 40
0.0
  9
$LIMCHECK
 70
     0
  9
$CHAMFERA
 40
10.0
  9
$CHAMFERB
 40
10.0
  9
$CHAMFERC
 40
20.0
  9
$CHAMFERD
 40
0.0
  9
$SKPOLY
 70
     0
  9
$TDCREATE
 40
2451911.603956590
  9
$TDUCREATE
 40
2451911.315956590
  9
$TDUPDATE
 40
2453618.584175220
  9
$TDUUPDATE
 40
2453618.296175220
  9
$TDINDWG
 40
0.032007830
  9
$TDUSRTIMER
 40
0.032007830
  9
$USRTIMER
 70
     1
  9
$ANGBASE
 50
0.0
  9
$ANGDIR
 70
     0
  9
$PDMODE
 70
     0
  9
$PDSIZE
 40
0.0
  9
$PLINEWID
 40
0.0
  9
$SPLFRAME
 70
     0
  9
$SPLINETYPE
 70
     6
  9
$SPLINESEGS
 70
     8
  9
$HANDSEED
  5
2B2
  9
$SURFTAB1
 70
     6
  9
$SURFTAB2
 70
     6
  9
$SURFTYPE
 70
     6
  9
$SURFU
 70
     6
  9
$SURFV
 70
     6
  9
$UCSBASE
  2

  9
$UCSNAME
  2

  9
$UCSORG
 10
0.0
 20
0.0
 30
0.0
  9
$UCSXDIR
 10
1.0
 20
0.0
 30
0.0
  9
$UCSYDIR
 10
0.0
 20
1.0
 30
0.0
  9
$UCSORTHOREF
  2

  9
$UCSORTHOVIEW
 70
     0
  9
$UCSORGTOP
 10
0.0
 20
0.0
 30
0.0
  9
$UCSORGBOTTOM
 10
0.0
 20
0.0
 30
0.0
  9
$UCSORGLEFT
 10
0.0
 20
0.0
 30
0.0
  9
$UCSORGRIGHT
 10
0.0
 20
0.0
 30
0.0
  9
$UCSORGFRONT
 10
0.0
 20
0.0
 30
0.0
  9
$UCSORGBACK
 10
0.0
 20
0.0
 30
0.0
  9
$PUCSBASE
  2

  9
$PUCSNAME
  2

  9
$PUCSORG
 10
0.0
 20
0.0
 30
0.0
  9
$PUCSXDIR
 10
1.0
 20
0.0
 30
0.0
  9
$PUCSYDIR
 10
0.0
 20
1.0
 30
0.0
  9
$PUCSORTHOREF
  2

  9
$PUCSORTHOVIEW
 70
     0
  9
$PUCSORGTOP
 10
0.0
 20
0.0
 30
0.0
  9
$PUCSORGBOTTOM
 10
0.0
 20
0.0
 30
0.0
  9
$PUCSORGLEFT
 10
0.0
 20
0.0
 30
0.0
  9
$PUCSORGRIGHT
 10
0.0
 20
0.0
 30
0.0
  9
$PUCSORGFRONT
 10
0.0
 20
0.0
 30
0.0
  9
$PUCSORGBACK
 10
0.0
 20
0.0
 30
0.0
  9
$USERI1
 70
     0
  9
$USERI2
 70
     0
  9
$USERI3
 70
     0
  9
$USERI4
 70
     0
  9
$USERI5
 70
     0
  9
$USERR1
 40
0.0
  9
$USERR2
 40
0.0
  9
$USERR3
 40
0.0
  9
$USERR4
 40
0.0
  9
$USERR5
 40
0.0
  9
$WORLDVIEW
 70
     1
  9
$SHADEDGE
 70
     3
  9
$SHADEDIF
 70
    70
  9
$TILEMODE
 70
     1
  9
$MAXACTVP
 70
    64
  9
$PINSBASE
 10
0.0
 20
0.0
 30
0.0
  9
$PLIMCHECK
 70
     0
  9
$PEXTMIN
 10
26.66999878883362
 20
20.31999878883363
 30
0.0
  9
$PEXTMAX
 10
240.0299890995026
 20
182.8799890995026
 30
0.0
  9
$PLIMMIN
 10
-6.350006103515625
 20
-6.349999904632568
  9
$PLIMMAX
 10
273.0499877929688
 20
209.5499939918518
  9
$UNITMODE
 70
     0
  9
$VISRETAIN
 70
     1
  9
$PLINEGEN
 70
     0
  9
$PSLTSCALE
 70
     1
  9
$TREEDEPTH
 70
  3020
  9
$CMLSTYLE
  2
Standard
  9
$CMLJUST
 70
     0
  9
$CMLSCALE
 40
20.0
  9
$PROXYGRAPHICS
 70
     1
  9
$MEASUREMENT
 70
     1
  9
$CELWEIGHT
370
    -1
  9
$ENDCAPS
280
     0
  9
$JOINSTYLE
280
     0
  9
$LWDISPLAY
290
     1
  9
$INSUNITS
 70
     4
  9
$HYPERLINKBASE
  1

  9
$STYLESHEET
  1

  9
$XEDIT
290
     1
  9
$CEPSNTYPE
380
     0
  9
$PSTYLEMODE
290
     0
  9
$FINGERPRINTGUID
  2
{35BD88C3-9548-11D2-9A29-0060089B3A3F}
  9
$VERSIONGUID
  2
{5CF1DC96-37FA-44A5-B367-A30EA76CB737}
  9
$EXTNAMES
290
     1
  9
$PSVPSCALE
 40
0.0
  9
$OLESTARTUP
290
     0
  0
ENDSEC
  0
SECTION
  2
CLASSES
  0
CLASS
  1
ACDBDICTIONARYWDFLT
  2
AcDbDictionaryWithDefault
  3
AutoCAD 2000
 90
        0
280
     0
281
     0
  0
CLASS
  1
ACDBPLACEHOLDER
  2
AcDbPlaceHolder
  3
AutoCAD 2000
 90
        0
280
     0
281
     0
  0
CLASS
  1
LAYOUT
  2
AcDbLayout
  3
AutoCAD 2000
 90
        0
280
     0
281
     0
  0
CLASS
  1
DICTIONARYVAR
  2
AcDbDictionaryVar
  3
AutoCAD 2000
 90
        0
280
     0
281
     0
  0
CLASS
  1
DIMASSOC
  2
AcDbDimAssoc
  3
"AcDbDimAssoc|Product Desc:     AcDim ARX App For Dimension|Company:          Autodesk, Inc.|WEB Address:      www.autodesk.com"
 90
        0
280
     0
281
     0
  0
ENDSEC
  0
SECTION
  2
TABLES
  0
TABLE
  2
VPORT
  5
8
330
0
100
AcDbSymbolTable
 70
     1
  0
VPORT
  5
2B1
330
8
100
AcDbSymbolTableRecord
100
AcDbViewportTableRecord
  2
*Active
 70
     0
 10
0.0
 20
0.0
 11
1.0
 21
1.0
 12
150.0
 22
75.00000000000001
 13
0.0
 23
0.0
 14
10.0
 24
10.0
 15
10.0
 25
10.0
 16
0.0
 26
0.0
 36
1.0
 17
0.0
 27
0.0
 37
0.0
 40
162.8180002200684
 41
1.855042016806723
 42
50.0
 43
0.0
 44
0.0
 50
0.0
 51
0.0
 71
     0
 72
   100
 73
     1
 74
     3
 75
     0
 76
     0
 77
     0
 78
     0
281
     0
 65
     1
110
0.0
120
0.0
130
0.0
111
1.0
121
0.0
131
0.0
112
0.0
122
1.0
132
0.0
 79
     0
146
0.0
  0
ENDTAB
  0
TABLE
  2
LTYPE
  5
5
330
0
100
AcDbSymbolTable
 70
     4
  0
LTYPE
  5
14
330
5
100
AcDbSymbolTableRecord
100
AcDbLinetypeTableRecord
  2
ByBlock
 70
     0
  3

 72
    65
 73
     0
 40
0.0
  0
LTYPE
  5
15
330
5
100
AcDbSymbolTableRecord
100
AcDbLinetypeTableRecord
  2
ByLayer
 70
     0
  3

 72
    65
 73
     0
 40
0.0
  0
LTYPE
  5
16
330
5
100
AcDbSymbolTableRecord
100
AcDbLinetypeTableRecord
  2
Continuous
 70
     0
  3
Solid line
 72
    65
 73
     0
 40
0.0
  0
LTYPE
  5
91
330
5
100
AcDbSymbolTableRecord
100
AcDbLinetypeTableRecord
  2
ACAD_ISO08W100
 70
     0
  3
ISO long-dash short-dash ____ __ ____ __ ____ _
 72
    65
 73
     4
 40
36.0
 49
24.0
 74
     0
 49
-3.0
 74
     0
 49
6.0
 74
     0
 49
-3.0
 74
     0
  0
LTYPE
  5
92
330
5
100
AcDbSymbolTableRecord
100
AcDbLinetypeTableRecord
  2
ACAD_ISO09W100
 70
     0
  3
ISO long-dash double-short-dash ____ __ __ ____
 72
    65
 73
     6
 40
45.0
 49
24.0
 74
     0
 49
-3.0
 74
     0
 49
6.0
 74
     0
 49
-3.0
 74
     0
 49
6.0
 74
     0
 49
-3.0
 74
     0
  0
LTYPE
  5
93
330
5
100
AcDbSymbolTableRecord
100
AcDbLinetypeTableRecord
  2
ACAD_ISO02W100
 70
     0
  3
ISO dash __ __ __ __ __ __ __ __ __ __ __ __ __
 72
    65
 73
     2
 40
15.0
 49
12.0
 74
     0
 49
-3.0
 74
     0
  0
ENDTAB
  0
TABLE
  2
LAYER
  5
2
330
0
100
AcDbSymbolTable
 70
    11
  0
LAYER
  5
10
330
2
100
AcDbSymbolTableRecord
100
AcDbLayerTableRecord
  2
0
 70
     0
 62
    -7
  6
Continuous
370
    -3
390
F
  0
LAYER
  5
94
330
2
100
AcDbSymbolTableRecord
100
AcDbLayerTableRecord
  2
轮廓线
 70
     0
 62
    -7
  6
Continuous
370
    35
390
F
  0
LAYER
  5
95
330
2
100
AcDbSymbolTableRecord
100
AcDbLayerTableRecord
  2
点划线
 70
     0
 62
    -1
  6
ACAD_ISO08W100
370
    13
390
F
  0
LAYER
  5
96
330
2
100
AcDbSymbolTableRecord
100
AcDbLayerTableRecord
  2
双点划线
 70
     0
 62
    -3
  6
ACAD_ISO09W100
370
    -3
390
F
  0
LAYER
  5
97
330
2
100
AcDbSymbolTableRecord
100
AcDbLayerTableRecord
  2
隐藏线
 70
     0
 62
   -44
  6
ACAD_ISO02W100
370
    13
390
F
  0
LAYER
  5
98
330
2
100
AcDbSymbolTableRecord
100
AcDbLayerTableRecord
  2
剖面线
 70
     0
 62
  -142
  6
Continuous
370
    13
390
F
  0
LAYER
  5
99
330
2
100
AcDbSymbolTableRecord
100
AcDbLayerTableRecord
  2
波浪线
 70
     0
 62
    -7
  6
Continuous
370
    13
390
F
  0
LAYER
  5
9A
330
2
100
AcDbSymbolTableRecord
100
AcDbLayerTableRecord
  2
尺寸层
 70
     0
 62
    -5
  6
Continuous
370
    13
390
F
  0
LAYER
  5
9B
330
2
100
AcDbSymbolTableRecord
100
AcDbLayerTableRecord
  2
文本层
 70
     0
 62
  -212
  6
Continuous
370
    13
390
F
  0
LAYER
  5
9C
330
2
100
AcDbSymbolTableRecord
100
AcDbLayerTableRecord
  2
其它层
 70
     0
 62
    -7
  6
Continuous
370
    -3
390
F
  0
LAYER
  5
D3
330
2
100
AcDbSymbolTableRecord
100
AcDbLayerTableRecord
  2
Defpoints
 70
     0
 62
    -7
  6
Continuous
290
     0
370
    -3
390
F
  0
ENDTAB
  0
TABLE
  2
STYLE
  5
3
330
0
100
AcDbSymbolTable
 70
     4
  0
STYLE
  5
11
330
3
100
AcDbSymbolTableRecord
100
AcDbTextStyleTableRecord
  2
Standard
 70
     0
 40
0.0
 41
1.0
 50
0.0
 71
     0
 42
2.5
  3
txt
  4

  0
STYLE
  5
90
330
3
100
AcDbSymbolTableRecord
100
AcDbTextStyleTableRecord
  2

 70
     1
 40
0.0
 41
1.0
 50
0.0
 71
     0
 42
2.5
  3
ltypeshp.shx
  4

  0
STYLE
  5
9D
330
3
100
AcDbSymbolTableRecord
100
AcDbTextStyleTableRecord
  2
汉字
 70
     0
 40
0.0
 41
0.7
 50
0.0
 71
     0
 42
2.5
  3
SIMFANG.TTF
  4

1001
ACAD
1000
FangSong_GB2312
1071
    34353
  0
STYLE
  5
9F
330
3
100
AcDbSymbolTableRecord
100
AcDbTextStyleTableRecord
  2
数字与字母
 70
     0
 40
0.0
 41
0.7
 50
0.0
 71
     0
 42
2.5
  3
romant.shx
  4

  0
ENDTAB
  0
TABLE
  2
VIEW
  5
6
330
0
100
AcDbSymbolTable
 70
     0
  0
ENDTAB
  0
TABLE
  2
UCS
  5
7
330
0
100
AcDbSymbolTable
 70
     0
  0
ENDTAB
  0
TABLE
  2
APPID
  5
9
330
0
100
AcDbSymbolTable
 70
     1
  0
APPID
  5
12
330
9
100
AcDbSymbolTableRecord
100
AcDbRegAppTableRecord
  2
ACAD
 70
     0
  0
ENDTAB
  0
TABLE
  2
DIMSTYLE
  5
A
330
0
100
AcDbSymbolTable
 70
     3
100
AcDbDimStyleTable
 71
     2
340
A1
340
27
  0
DIMSTYLE
105
27
330
A
100
AcDbSymbolTableRecord
100
AcDbDimStyleTableRecord
  2
ISO-25
 70
     0
 41
2.5
 42
0.625
 43
3.75
 44
1.25
 73
     0
 74
     0
 77
     1
 78
     8
140
2.5
141
2.5
143
0.03937007874016
144
1.0
146
1.0
147
0.625
171
     3
172
     1
176
     0
177
     0
178
     0
271
     2
272
     2
273
     2
274
     3
277
     2
278
    44
283
     0
284
     8
289
     3
340
11
371
    -2
372
    -2
341
0
342
0
343
0
344
0
  0
DIMSTYLE
105
A1
102
{ACAD_REACTORS
330
D2
330
EB
330
103
330
110
330
128
330
135
330
14D
330
165
330
17D
330
18A
330
19C
330
1AE
330
1C2
330
1D6
330
1FC
330
20C
330
21C
330
245
330
25D
330
275
330
28D
102
}
330
A
100
AcDbSymbolTableRecord
100
AcDbDimStyleTableRecord
  2
机械标注
 70
     0
 41
3.5
 43
7.5
 44
2.5
 73
     0
 74
     1
 77
     1
 78
     8
140
5.0
141
2.5
143
0.03937007874016
144
1.0
146
1.0
147
0.625
171
     3
172
     1
176
     0
177
     0
178
     0
271
     1
272
     1
273
     2
274
     3
277
     2
278
    46
283
     0
284
     8
289
     3
340
9F
371
    -2
372
    -2
341
0
342
0
343
0
344
0
  0
DIMSTYLE
105
A2
330
A
100
AcDbSymbolTableRecord
100
AcDbDimStyleTableRecord
  2
机械标注$2
 70
     0
 41
3.5
 43
7.5
 44
2.5
 73
     1
 74
     1
 77
     1
 78
     8
140
5.0
141
2.5
143
0.03937007874016
144
1.0
146
1.0
147
0.625
171
     3
172
     1
176
     0
177
     0
178
     0
271
     1
272
     1
273
     2
274
     3
277
     2
278
    46
283
     0
284
     8
289
     3
340
9F
371
    -2
372
    -2
341
0
342
0
343
0
344
0
  0
ENDTAB
  0
TABLE
  2
BLOCK_RECORD
  5
1
330
0
100
AcDbSymbolTable
 70
    24
  0
BLOCK_RECORD
  5
1F
330
1
100
AcDbSymbolTableRecord
100
AcDbBlockTableRecord
  2
*Model_Space
340
22
  0
BLOCK_RECORD
  5
5E
330
1
100
AcDbSymbolTableRecord
100
AcDbBlockTableRecord
  2
*Paper_Space
340
5F
  0
BLOCK_RECORD
  5
59
330
1
100
AcDbSymbolTableRecord
100
AcDbBlockTableRecord
  2
*Paper_Space0
340
5A
  0
BLOCK_RECORD
  5
D4
330
1
100
AcDbSymbolTableRecord
100
AcDbBlockTableRecord
  2
*D1
340
0
  0
BLOCK_RECORD
  5
EC
330
1
100
AcDbSymbolTableRecord
100
AcDbBlockTableRecord
  2
*D2
340
0
  0
BLOCK_RECORD
  5
104
330
1
100
AcDbSymbolTableRecord
100
AcDbBlockTableRecord
  2
*D3
340
0
  0
BLOCK_RECORD
  5
111
330
1
100
AcDbSymbolTableRecord
100
AcDbBlockTableRecord
  2
*D4
340
0
  0
BLOCK_RECORD
  5
129
330
1
100
AcDbSymbolTableRecord
100
AcDbBlockTableRecord
  2
*D5
340
0
  0
BLOCK_RECORD
  5
136
330
1
100
AcDbSymbolTableRecord
100
AcDbBlockTableRecord
  2
*D6
340
0
  0
BLOCK_RECORD
  5
14E
330
1
100
AcDbSymbolTableRecord
100
AcDbBlockTableRecord
  2
*D7
340
0
  0
BLOCK_RECORD
  5
166
330
1
100
AcDbSymbolTableRecord
100
AcDbBlockTableRecord
  2
*D8
340
0
  0
BLOCK_RECORD
  5
17E
330
1
100
AcDbSymbolTableRecord
100
AcDbBlockTableRecord
  2
*D9
340
0
  0
BLOCK_RECORD
  5
18B
330
1
100
AcDbSymbolTableRecord
100
AcDbBlockTableRecord
  2
*D10
340
0
  0
BLOCK_RECORD
  5
19D
330
1
100
AcDbSymbolTableRecord
100
AcDbBlockTableRecord
  2
*D11
340
0
  0
BLOCK_RECORD
  5
1AF
330
1
100
AcDbSymbolTableRecord
100
AcDbBlockTableRecord
  2
*D12
340
0
  0
BLOCK_RECORD
  5
1C3
330
1
100
AcDbSymbolTableRecord
100
AcDbBlockTableRecord
  2
*D13
340
0
  0
BLOCK_RECORD
  5
1D7
330
1
100
AcDbSymbolTableRecord
100
AcDbBlockTableRecord
  2
*D14
340
0
  0
BLOCK_RECORD
  5
1EB
330
1
100
AcDbSymbolTableRecord
100
AcDbBlockTableRecord
  2
*D15
340
0
  0
BLOCK_RECORD
  5
1FD
330
1
100
AcDbSymbolTableRecord
100
AcDbBlockTableRecord
  2
*D16
340
0
  0
BLOCK_RECORD
  5
20D
330
1
100
AcDbSymbolTableRecord
100
AcDbBlockTableRecord
  2
*D17
340
0
  0
BLOCK_RECORD
  5
21D
330
1
100
AcDbSymbolTableRecord
100
AcDbBlockTableRecord
  2
*D18
340
0
  0
BLOCK_RECORD
  5
235
330
1
100
AcDbSymbolTableRecord
100
AcDbBlockTableRecord
  2
*D19
340
0
  0
BLOCK_RECORD
  5
246
330
1
100
AcDbSymbolTableRecord
100
AcDbBlockTableRecord
  2
*D20
340
0
  0
BLOCK_RECORD
  5
25E
330
1
100
AcDbSymbolTableRecord
100
AcDbBlockTableRecord
  2
*D21
340
0
  0
BLOCK_RECORD
  5
276
330
1
100
AcDbSymbolTableRecord
100
AcDbBlockTableRecord
  2
*D22
340
0
  0
BLOCK_RECORD
  5
28E
330
1
100
AcDbSymbolTableRecord
100
AcDbBlockTableRecord
  2
*D23
340
0
  0
ENDTAB
  0
ENDSEC
  0
SECTION
  2
BLOCKS
  0
BLOCK
  5
20
330
1F
100
AcDbEntity
  8
0
100
AcDbBlockBegin
  2
*Model_Space
 70
     0
 10
0.0
 20
0.0
 30
0.0
  3
*Model_Space
  1

  0
ENDBLK
  5
21
330
1F
100
AcDbEntity
  8
0
100
AcDbBlockEnd
  0
BLOCK
  5
5B
330
59
100
AcDbEntity
  8
0
100
AcDbBlockBegin
  2
*Paper_Space0
 70
     0
 10
0.0
 20
0.0
 30
0.0
  3
*Paper_Space0
  1

  0
VIEWPORT
  5
74
330
59
100
AcDbEntity
  8
0
100
AcDbViewport
 10
134.8228915879863
 20
101.5999970436096
 30
0.0
 40
405.4378955490815
 41
218.5599527535252
 68
     0
 69
     0
 12
134.8228915879863
 22
101.5999970436096
 13
0.0
 23
0.0
 14
0.5
 24
0.5
 15
0.5
 25
0.5
 16
0.0
 26
0.0
 36
1.0
 17
0.0
 27
0.0
 37
0.0
 42
50.0
 43
0.0
 44
0.0
 45
218.5599527535252
 50
0.0
 51
0.0
 72
   100
 90
    32800
  1

281
     0
 71
     1
 74
     0
110
0.0
120
0.0
130
0.0
111
1.0
121
0.0
131
0.0
112
0.0
122
1.0
132
0.0
 79
     0
146
0.0
348
0
340
0
345
0
346
0
  0
VIEWPORT
  5
76
330
59
100
AcDbEntity
  8
0
100
AcDbViewport
 10
133.3499939441681
 20
101.5999939441681
 30
0.0
 40
213.3599903106689
 41
162.5599903106689
 68
     0
 69
     0
 12
165.4395619523197
 22
75.33644284078603
 13
0.0
 23
0.0
 14
10.0
 24
10.0
 15
10.0
 25
10.0
 16
0.0
 26
0.0
 36
1.0
 17
0.0
 27
0.0
 37
0.0
 42
50.0
 43
0.0
 44
0.0
 45
169.1801565445105
 50
0.0
 51
0.0
 72
   100
 90
    32864
  1

281
     0
 71
     1
 74
     0
110
0.0
120
0.0
130
0.0
111
1.0
121
0.0
131
0.0
112
0.0
122
1.0
132
0.0
 79
     0
146
0.0
348
0
340
0
345
0
346
0
  0
ENDBLK
  5
5C
330
59
100
AcDbEntity
  8
0
100
AcDbBlockEnd
  0
BLOCK
  5
60
330
5E
100
AcDbEntity
 67
     1
  8
0
100
AcDbBlockBegin
  2
*Paper_Space
 70
     0
 10
0.0
 20
0.0
 30
0.0
  3
*Paper_Space
  1

  0
ENDBLK
  5
61
330
5E
100
AcDbEntity
 67
     1
  8
0
100
AcDbBlockEnd
  0
BLOCK
  5
DE
330
D4
100
AcDbEntity
  8
0
100
AcDbBlockBegin
  2
*D1
 70
     1
 10
0.0
 20
0.0
 30
0.0
  3
*D1
  1

  0
LINE
  5
E1
330
D4
100
AcDbEntity
  8
文本层
370
    -2
 62
     0
100
AcDbLine
 10
85.77376298717516
 20
111.510322728205
 30
0.0
 11
61.22891005079384
 21
111.510322728205
 31
0.0
  0
LINE
  5
E2
330
D4
100
AcDbEntity
  8
文本层
370
    -2
 62
     0
100
AcDbLine
 10
85.77376298717516
 20
94.51032272820498
 30
0.0
 11
61.22891005079384
 21
94.51032272820498
 31
0.0
  0
LINE
  5
E3
330
D4
100
AcDbEntity
  8
文本层
370
    -2
 62
     0
100
AcDbLine
 10
63.72891005079384
 20
108.010322728205
 30
0.0
 11
63.72891005079384
 21
98.01032272820498
 31
0.0
  0
SOLID
  5
E4
330
D4
100
AcDbEntity
  8
文本层
 62
     0
100
AcDbTrace
 38
0.0
 10
63.14557671746051
 20
108.010322728205
 11
64.31224338412719
 21
108.010322728205
 12
63.72891005079384
 22
111.510322728205
 13
63.72891005079384
 23
111.510322728205
  0
SOLID
  5
E5
330
D4
100
AcDbEntity
  8
文本层
 62
     0
100
AcDbTrace
 38
0.0
 10
63.14557671746051
 20
98.01032272820498
 11
64.31224338412719
 21
98.01032272820498
 12
63.72891005079384
 22
94.51032272820498
 13
63.72891005079384
 23
94.51032272820498
  0
MTEXT
  5
E6
330
D4
100
AcDbEntity
  8
文本层
 62
     0
100
AcDbMText
 10
60.60391005079383
 20
103.010322728205
 30
0.0
210
0.0
220
0.0
230
1.0
 11
6.123031769111886E-17
 21
1.0
 31
0.0
 40
5.0
 41
0.0
 71
     5
 72
     1
  1
17
  7
数字与字母
 73
     1
 44
1.0
  0
POINT
  5
E7
330
D4
100
AcDbEntity
  8
Defpoints
 62
     0
100
AcDbPoint
 10
85.77376298717516
 20
111.510322728205
 30
0.0
 50
0.0
  0
POINT
  5
E8
330
D4
100
AcDbEntity
  8
Defpoints
 62
     0
100
AcDbPoint
 10
85.77376298717516
 20
94.51032272820498
 30
0.0
 50
0.0
  0
POINT
  5
E9
330
D4
100
AcDbEntity
  8
Defpoints
 62
     0
100
AcDbPoint
 10
63.72891005079384
 20
94.51032272820498
 30
0.0
 50
0.0
  0
ENDBLK
  5
DF
330
D4
100
AcDbEntity
  8
0
100
AcDbBlockEnd
  0
BLOCK
  5
F6
330
EC
100
AcDbEntity
  8
0
100
AcDbBlockBegin
  2
*D2
 70
     1
 10
0.0
 20
0.0
 30
0.0
  3
*D2
  1

  0
LINE
  5
F9
330
EC
100
AcDbEntity
  8
文本层
370
    -2
 62
     0
100
AcDbLine
 10
101.0708215279535
 20
103.010322728205
 30
0.0
 11
70.45393779117752
 21
103.010322728205
 31
0.0
  0
LINE
  5
FA
330
EC
100
AcDbEntity
  8
文本层
370
    -2
 62
     0
100
AcDbLine
 10
146.0708215279535
 20
47.01032272820498
 30
0.0
 11
70.45393779117751
 21
47.01032272820501
 31
0.0
  0
LINE
  5
FB
330
EC
100
AcDbEntity
  8
文本层
370
    -2
 62
     0
100
AcDbLine
 10
72.95393779117752
 20
99.510322728205
 30
0.0
 11
72.95393779117751
 21
50.51032272820501
 31
0.0
  0
SOLID
  5
FC
330
EC
100
AcDbEntity
  8
文本层
 62
     0
100
AcDbTrace
 38
0.0
 10
72.37060445784419
 20
99.510322728205
 11
73.53727112451085
 21
99.510322728205
 12
72.95393779117752
 22
103.010322728205
 13
72.95393779117752
 23
103.010322728205
  0
SOLID
  5
FD
330
EC
100
AcDbEntity
  8
文本层
 62
     0
100
AcDbTrace
 38
0.0
 10
72.37060445784418
 20
50.51032272820501
 11
73.53727112451084
 21
50.51032272820501
 12
72.95393779117751
 22
47.01032272820501
 13
72.95393779117751
 23
47.01032272820501
  0
MTEXT
  5
FE
330
EC
100
AcDbEntity
  8
文本层
 62
     0
100
AcDbMText
 10
69.82893779117749
 20
75.01032272820501
 30
0.0
210
0.0
220
0.0
230
1.0
 11
6.123031769111886E-17
 21
1.0
 31
0.0
 40
5.0
 41
0.0
 71
     5
 72
     1
  1
56
  7
数字与字母
 73
     1
 44
1.0
  0
POINT
  5
FF
330
EC
100
AcDbEntity
  8
Defpoints
 62
     0
100
AcDbPoint
 10
101.0708215279535
 20
103.010322728205
 30
0.0
 50
0.0
  0
POINT
  5
100
330
EC
100
AcDbEntity
  8
Defpoints
 62
     0
100
AcDbPoint
 10
146.0708215279535
 20
47.01032272820498
 30
0.0
 50
0.0
  0
POINT
  5
101
330
EC
100
AcDbEntity
  8
Defpoints
 62
     0
100
AcDbPoint
 10
72.95393779117751
 20
47.01032272820501
 30
0.0
 50
0.0
  0
ENDBLK
  5
F7
330
EC
100
AcDbEntity
  8
0
100
AcDbBlockEnd
  0
BLOCK
  5
10E
330
104
100
AcDbEntity
  8
0
100
AcDbBlockBegin
  2
*D3
 70
     1
 10
0.0
 20
0.0
 30
0.0
  3
*D3
  1

  0
LINE
  5
105
330
104
100
AcDbEntity
  8
文本层
370
    -2
 62
     0
100
AcDbLine
 10
101.0708215279535
 20
103.010322728205
 30
0.0
 11
101.0708215279535
 21
11.40058255896929
 31
0.0
  0
LINE
  5
106
330
104
100
AcDbEntity
  8
文本层
370
    -2
 62
     0
100
AcDbLine
 10
146.0708215279535
 20
47.01032272820498
 30
0.0
 11
146.0708215279535
 21
11.40058255896929
 31
0.0
  0
LINE
  5
107
330
104
100
AcDbEntity
  8
文本层
370
    -2
 62
     0
100
AcDbLine
 10
104.5708215279535
 20
13.90058255896929
 30
0.0
 11
142.5708215279535
 21
13.90058255896929
 31
0.0
  0
SOLID
  5
108
330
104
100
AcDbEntity
  8
文本层
 62
     0
100
AcDbTrace
 38
0.0
 10
104.5708215279535
 20
14.48391589230262
 11
104.5708215279535
 21
13.31724922563596
 12
101.0708215279535
 22
13.90058255896929
 13
101.0708215279535
 23
13.90058255896929
  0
SOLID
  5
109
330
104
100
AcDbEntity
  8
文本层
 62
     0
100
AcDbTrace
 38
0.0
 10
142.5708215279535
 20
14.48391589230262
 11
142.5708215279535
 21
13.31724922563596
 12
146.0708215279535
 22
13.90058255896929
 13
146.0708215279535
 23
13.90058255896929
  0
MTEXT
  5
10A
330
104
100
AcDbEntity
  8
文本层
 62
     0
100
AcDbMText
 10
123.5708215279535
 20
17.02558255896929
 30
0.0
210
0.0
220
0.0
230
1.0
 11
1.0
 21
0.0
 31
0.0
 40
5.0
 41
0.0
 71
     5
 72
     1
  1
45
  7
数字与字母
 73
     1
 44
1.0
  0
POINT
  5
10B
330
104
100
AcDbEntity
  8
Defpoints
 62
     0
100
AcDbPoint
 10
101.0708215279535
 20
103.010322728205
 30
0.0
 50
0.0
  0
POINT
  5
10C
330
104
100
AcDbEntity
  8
Defpoints
 62
     0
100
AcDbPoint
 10
146.0708215279535
 20
47.01032272820498
 30
0.0
 50
0.0
  0
POINT
  5
10D
330
104
100
AcDbEntity
  8
Defpoints
 62
     0
100
AcDbPoint
 10
146.0708215279535
 20
13.90058255896929
 30
0.0
 50
0.0
  0
ENDBLK
  5
10F
330
104
100
AcDbEntity
  8
0
100
AcDbBlockEnd
  0
BLOCK
  5
11B
330
111
100
AcDbEntity
  8
0
100
AcDbBlockBegin
  2
*D4
 70
     1
 10
0.0
 20
0.0
 30
0.0
  3
*D4
  1

  0
LINE
  5
11E
330
111
100
AcDbEntity
  8
文本层
370
    -2
 62
     0
100
AcDbLine
 10
146.0708215279535
 20
23.45803345939851
 30
0.0
 11
146.0708215279535
 21
11.74192043145797
 31
0.0
  0
LINE
  5
11F
330
111
100
AcDbEntity
  8
文本层
370
    -2
 62
     0
100
AcDbLine
 10
206.0708215279535
 20
85.01032272820498
 30
0.0
 11
206.0708215279535
 21
11.74192043145797
 31
0.0
  0
LINE
  5
120
330
111
100
AcDbEntity
  8
文本层
370
    -2
 62
     0
100
AcDbLine
 10
149.5708215279535
 20
14.24192043145797
 30
0.0
 11
202.5708215279535
 21
14.24192043145797
 31
0.0
  0
SOLID
  5
121
330
111
100
AcDbEntity
  8
文本层
 62
     0
100
AcDbTrace
 38
0.0
 10
149.5708215279535
 20
14.8252537647913
 11
149.5708215279535
 21
13.65858709812464
 12
146.0708215279535
 22
14.24192043145797
 13
146.0708215279535
 23
14.24192043145797
  0
SOLID
  5
122
330
111
100
AcDbEntity
  8
文本层
 62
     0
100
AcDbTrace
 38
0.0
 10
202.5708215279535
 20
14.8252537647913
 11
202.5708215279535
 21
13.65858709812464
 12
206.0708215279535
 22
14.24192043145797
 13
206.0708215279535
 23
14.24192043145797
  0
MTEXT
  5
123
330
111
100
AcDbEntity
  8
文本层
 62
     0
100
AcDbMText
 10
176.0708215279535
 20
17.36692043145797
 30
0.0
210
0.0
220
0.0
230
1.0
 11
1.0
 21
0.0
 31
0.0
 40
5.0
 41
0.0
 71
     5
 72
     1
  1
60
  7
数字与字母
 73
     1
 44
1.0
  0
POINT
  5
124
330
111
100
AcDbEntity
  8
Defpoints
 62
     0
100
AcDbPoint
 10
146.0708215279535
 20
23.45803345939851
 30
0.0
 50
0.0
  0
POINT
  5
125
330
111
100
AcDbEntity
  8
Defpoints
 62
     0
100
AcDbPoint
 10
206.0708215279535
 20
85.01032272820498
 30
0.0
 50
0.0
  0
POINT
  5
126
330
111
100
AcDbEntity
  8
Defpoints
 62
     0
100
AcDbPoint
 10
206.0708215279535
 20
14.24192043145797
 30
0.0
 50
0.0
  0
ENDBLK
  5
11C
330
111
100
AcDbEntity
  8
0
100
AcDbBlockEnd
  0
BLOCK
  5
133
330
129
100
AcDbEntity
  8
0
100
AcDbBlockBegin
  2
*D5
 70
     1
 10
0.0
 20
0.0
 30
0.0
  3
*D5
  1

  0
LINE
  5
12A
330
129
100
AcDbEntity
  8
文本层
370
    -2
 62
     0
100
AcDbLine
 10
146.0708215279535
 20
47.01032272820498
 30
0.0
 11
243.2127700234902
 21
47.01032272820495
 31
0.0
  0
LINE
  5
12B
330
129
100
AcDbEntity
  8
文本层
370
    -2
 62
     0
100
AcDbLine
 10
206.0708215279535
 20
85.01032272820498
 30
0.0
 11
243.2127700234902
 21
85.01032272820497
 31
0.0
  0
LINE
  5
12C
330
129
100
AcDbEntity
  8
文本层
370
    -2
 62
     0
100
AcDbLine
 10
240.7127700234902
 20
50.51032272820495
 30
0.0
 11
240.7127700234902
 21
81.51032272820497
 31
0.0
  0
SOLID
  5
12D
330
129
100
AcDbEntity
  8
文本层
 62
     0
100
AcDbTrace
 38
0.0
 10
240.1294366901568
 20
50.51032272820495
 11
241.2961033568235
 21
50.51032272820495
 12
240.7127700234902
 22
47.01032272820495
 13
240.7127700234902
 23
47.01032272820495
  0
SOLID
  5
12E
330
129
100
AcDbEntity
  8
文本层
 62
     0
100
AcDbTrace
 38
0.0
 10
240.1294366901568
 20
81.51032272820497
 11
241.2961033568235
 21
81.51032272820497
 12
240.7127700234902
 22
85.01032272820497
 13
240.7127700234902
 23
85.01032272820497
  0
MTEXT
  5
12F
330
129
100
AcDbEntity
  8
文本层
 62
     0
100
AcDbMText
 10
237.5877700234902
 20
66.010322728205
 30
0.0
210
0.0
220
0.0
230
1.0
 11
6.123031769111886E-17
 21
1.0
 31
0.0
 40
5.0
 41
0.0
 71
     5
 72
     1
  1
38
  7
数字与字母
 73
     1
 44
1.0
  0
POINT
  5
130
330
129
100
AcDbEntity
  8
Defpoints
 62
     0
100
AcDbPoint
 10
146.0708215279535
 20
47.01032272820498
 30
0.0
 50
0.0
  0
POINT
  5
131
330
129
100
AcDbEntity
  8
Defpoints
 62
     0
100
AcDbPoint
 10
206.0708215279535
 20
85.01032272820498
 30
0.0
 50
0.0
  0
POINT
  5
132
330
129
100
AcDbEntity
  8
Defpoints
 62
     0
100
AcDbPoint
 10
240.7127700234902
 20
85.01032272820497
 30
0.0
 50
0.0
  0
ENDBLK
  5
134
330
129
100
AcDbEntity
  8
0
100
AcDbBlockEnd
  0
BLOCK
  5
140
330
136
100
AcDbEntity
  8
0
100
AcDbBlockBegin
  2
*D6
 70
     1
 10
0.0
 20
0.0
 30
0.0
  3
*D6
  1

  0
LINE
  5
143
330
136
100
AcDbEntity
  8
文本层
370
    -2
 62
     0
100
AcDbLine
 10
157.0708215279535
 20
106.010322728205
 30
0.0
 11
157.0708215279535
 21
144.47078761599
 31
0.0
  0
LINE
  5
144
330
136
100
AcDbEntity
  8
文本层
370
    -2
 62
     0
100
AcDbLine
 10
206.0708215279535
 20
85.01032272820498
 30
0.0
 11
206.0708215279535
 21
144.47078761599
 31
0.0
  0
LINE
  5
145
330
136
100
AcDbEntity
  8
文本层
370
    -2
 62
     0
100
AcDbLine
 10
160.5708215279535
 20
141.97078761599
 30
0.0
 11
202.5708215279535
 21
141.97078761599
 31
0.0
  0
SOLID
  5
146
330
136
100
AcDbEntity
  8
文本层
 62
     0
100
AcDbTrace
 38
0.0
 10
160.5708215279535
 20
142.5541209493234
 11
160.5708215279535
 21
141.3874542826567
 12
157.0708215279535
 22
141.97078761599
 13
157.0708215279535
 23
141.97078761599
  0
SOLID
  5
147
330
136
100
AcDbEntity
  8
文本层
 62
     0
100
AcDbTrace
 38
0.0
 10
202.5708215279535
 20
142.5541209493234
 11
202.5708215279535
 21
141.3874542826567
 12
206.0708215279535
 22
141.97078761599
 13
206.0708215279535
 23
141.97078761599
  0
MTEXT
  5
148
330
136
100
AcDbEntity
  8
文本层
 62
     0
100
AcDbMText
 10
181.5708215279535
 20
145.09578761599
 30
0.0
210
0.0
220
0.0
230
1.0
 11
1.0
 21
0.0
 31
0.0
 40
5.0
 41
0.0
 71
     5
 72
     1
  1
49
  7
数字与字母
 73
     1
 44
1.0
  0
POINT
  5
149
330
136
100
AcDbEntity
  8
Defpoints
 62
     0
100
AcDbPoint
 10
157.0708215279535
 20
106.010322728205
 30
0.0
 50
0.0
  0
POINT
  5
14A
330
136
100
AcDbEntity
  8
Defpoints
 62
     0
100
AcDbPoint
 10
206.0708215279535
 20
85.01032272820498
 30
0.0
 50
0.0
  0
POINT
  5
14B
330
136
100
AcDbEntity
  8
Defpoints
 62
     0
100
AcDbPoint
 10
206.0708215279535
 20
141.97078761599
 30
0.0
 50
0.0
  0
ENDBLK
  5
141
330
136
100
AcDbEntity
  8
0
100
AcDbBlockEnd
  0
BLOCK
  5
158
330
14E
100
AcDbEntity
  8
0
100
AcDbBlockBegin
  2
*D7
 70
     1
 10
0.0
 20
0.0
 30
0.0
  3
*D7
  1

  0
LINE
  5
15B
330
14E
100
AcDbEntity
  8
文本层
370
    -2
 62
     0
100
AcDbLine
 10
132.0708215279535
 20
92.01032272820498
 30
0.0
 11
115.3577433991017
 21
92.01032272820498
 31
0.0
  0
LINE
  5
15C
330
14E
100
AcDbEntity
  8
文本层
370
    -2
 62
     0
100
AcDbLine
 10
146.0708215279535
 20
47.01032272820498
 30
0.0
 11
115.3577433991017
 21
47.01032272820499
 31
0.0
  0
LINE
  5
15D
330
14E
100
AcDbEntity
  8
文本层
370
    -2
 62
     0
100
AcDbLine
 10
117.8577433991017
 20
88.51032272820498
 30
0.0
 11
117.8577433991017
 21
50.51032272820499
 31
0.0
  0
SOLID
  5
15E
330
14E
100
AcDbEntity
  8
文本层
 62
     0
100
AcDbTrace
 38
0.0
 10
117.2744100657683
 20
88.51032272820498
 11
118.441076732435
 21
88.51032272820498
 12
117.8577433991017
 22
92.01032272820498
 13
117.8577433991017
 23
92.01032272820498
  0
SOLID
  5
15F
330
14E
100
AcDbEntity
  8
文本层
 62
     0
100
AcDbTrace
 38
0.0
 10
117.2744100657683
 20
50.51032272820499
 11
118.441076732435
 21
50.51032272820499
 12
117.8577433991017
 22
47.01032272820499
 13
117.8577433991017
 23
47.01032272820499
  0
MTEXT
  5
160
330
14E
100
AcDbEntity
  8
文本层
 62
     0
100
AcDbMText
 10
114.7327433991016
 20
69.51032272820501
 30
0.0
210
0.0
220
0.0
230
1.0
 11
6.123031769111886E-17
 21
1.0
 31
0.0
 40
5.0
 41
0.0
 71
     5
 72
     1
  1
45
  7
数字与字母
 73
     1
 44
1.0
  0
POINT
  5
161
330
14E
100
AcDbEntity
  8
Defpoints
 62
     0
100
AcDbPoint
 10
132.0708215279535
 20
92.01032272820498
 30
0.0
 50
0.0
  0
POINT
  5
162
330
14E
100
AcDbEntity
  8
Defpoints
 62
     0
100
AcDbPoint
 10
146.0708215279535
 20
47.01032272820498
 30
0.0
 50
0.0
  0
POINT
  5
163
330
14E
100
AcDbEntity
  8
Defpoints
 62
     0
100
AcDbPoint
 10
117.8577433991017
 20
47.01032272820499
 30
0.0
 50
0.0
  0
ENDBLK
  5
159
330
14E
100
AcDbEntity
  8
0
100
AcDbBlockEnd
  0
BLOCK
  5
170
330
166
100
AcDbEntity
  8
0
100
AcDbBlockBegin
  2
*D8
 70
     1
 10
0.0
 20
0.0
 30
0.0
  3
*D8
  1

  0
LINE
  5
173
330
166
100
AcDbEntity
  8
文本层
370
    -2
 62
     0
100
AcDbLine
 10
132.0708215279535
 20
92.01032272820498
 30
0.0
 11
132.0708215279535
 21
60.51032272820498
 31
0.0
  0
LINE
  5
174
330
166
100
AcDbEntity
  8
文本层
370
    -2
 62
     0
100
AcDbLine
 10
164.0708215279535
 20
85.01032272820498
 30
0.0
 11
164.0708215279535
 21
60.51032272820498
 31
0.0
  0
LINE
  5
175
330
166
100
AcDbEntity
  8
文本层
370
    -2
 62
     0
100
AcDbLine
 10
135.5708215279535
 20
63.01032272820498
 30
0.0
 11
160.5708215279535
 21
63.01032272820498
 31
0.0
  0
SOLID
  5
176
330
166
100
AcDbEntity
  8
文本层
 62
     0
100
AcDbTrace
 38
0.0
 10
135.5708215279535
 20
63.59365606153832
 11
135.5708215279535
 21
62.42698939487165
 12
132.0708215279535
 22
63.01032272820498
 13
132.0708215279535
 23
63.01032272820498
  0
SOLID
  5
177
330
166
100
AcDbEntity
  8
文本层
 62
     0
100
AcDbTrace
 38
0.0
 10
160.5708215279535
 20
63.59365606153832
 11
160.5708215279535
 21
62.42698939487165
 12
164.0708215279535
 22
63.01032272820498
 13
164.0708215279535
 23
63.01032272820498
  0
MTEXT
  5
178
330
166
100
AcDbEntity
  8
文本层
 62
     0
100
AcDbMText
 10
148.0708215279535
 20
66.13532272820498
 30
0.0
210
0.0
220
0.0
230
1.0
 11
1.0
 21
0.0
 31
0.0
 40
5.0
 41
0.0
 71
     5
 72
     1
  1
32
  7
数字与字母
 73
     1
 44
1.0
  0
POINT
  5
179
330
166
100
AcDbEntity
  8
Defpoints
 62
     0
100
AcDbPoint
 10
132.0708215279535
 20
92.01032272820498
 30
0.0
 50
0.0
  0
POINT
  5
17A
330
166
100
AcDbEntity
  8
Defpoints
 62
     0
100
AcDbPoint
 10
164.0708215279535
 20
85.01032272820498
 30
0.0
 50
0.0
  0
POINT
  5
17B
330
166
100
AcDbEntity
  8
Defpoints
 62
     0
100
AcDbPoint
 10
164.0708215279535
 20
63.01032272820498
 30
0.0
 50
0.0
  0
ENDBLK
  5
171
330
166
100
AcDbEntity
  8
0
100
AcDbBlockEnd
  0
BLOCK
  5
188
330
17E
100
AcDbEntity
  8
0
100
AcDbBlockBegin
  2
*D9
 70
     1
 10
0.0
 20
0.0
 30
0.0
  3
*D9
  1

  0
LINE
  5
17F
330
17E
100
AcDbEntity
  8
文本层
370
    -2
 62
     0
100
AcDbLine
 10
164.0708215279535
 20
74.28843868187329
 30
0.0
 11
164.0708215279535
 21
60.78399844083691
 31
0.0
  0
LINE
  5
180
330
17E
100
AcDbEntity
  8
文本层
370
    -2
 62
     0
100
AcDbLine
 10
206.0708215279535
 20
74.08080760253887
 30
0.0
 11
206.0708215279535
 21
60.78399844083691
 31
0.0
  0
LINE
  5
181
330
17E
100
AcDbEntity
  8
文本层
370
    -2
 62
     0
100
AcDbLine
 10
167.5708215279535
 20
63.28399844083691
 30
0.0
 11
202.5708215279535
 21
63.28399844083691
 31
0.0
  0
SOLID
  5
182
330
17E
100
AcDbEntity
  8
文本层
 62
     0
100
AcDbTrace
 38
0.0
 10
167.5708215279535
 20
63.86733177417025
 11
167.5708215279535
 21
62.70066510750357
 12
164.0708215279535
 22
63.28399844083691
 13
164.0708215279535
 23
63.28399844083691
  0
SOLID
  5
183
330
17E
100
AcDbEntity
  8
文本层
 62
     0
100
AcDbTrace
 38
0.0
 10
202.5708215279535
 20
63.86733177417025
 11
202.5708215279535
 21
62.70066510750357
 12
206.0708215279535
 22
63.28399844083691
 13
206.0708215279535
 23
63.28399844083691
  0
MTEXT
  5
184
330
17E
100
AcDbEntity
  8
文本层
 62
     0
100
AcDbMText
 10
185.0708215279535
 20
66.40899844083691
 30
0.0
210
0.0
220
0.0
230
1.0
 11
1.0
 21
0.0
 31
0.0
 40
5.0
 41
0.0
 71
     5
 72
     1
  1
42
  7
数字与字母
 73
     1
 44
1.0
  0
POINT
  5
185
330
17E
100
AcDbEntity
  8
Defpoints
 62
     0
100
AcDbPoint
 10
164.0708215279535
 20
74.28843868187329
 30
0.0
 50
0.0
  0
POINT
  5
186
330
17E
100
AcDbEntity
  8
Defpoints
 62
     0
100
AcDbPoint
 10
206.0708215279535
 20
74.08080760253887
 30
0.0
 50
0.0
  0
POINT
  5
187
330
17E
100
AcDbEntity
  8
Defpoints
 62
     0
100
AcDbPoint
 10
206.0708215279535
 20
63.28399844083691
 30
0.0
 50
0.0
  0
ENDBLK
  5
189
330
17E
100
AcDbEntity
  8
0
100
AcDbBlockEnd
  0
BLOCK
  5
192
330
18B
100
AcDbEntity
  8
0
100
AcDbBlockBegin
  2
*D10
 70
     1
 10
0.0
 20
0.0
 30
0.0
  3
*D10
  1

  0
LINE
  5
195
330
18B
100
AcDbEntity
  8
文本层
370
    -2
 62
     0
100
AcDbLine
 10
175.2631110279622
 20
53.69892150051089
 30
0.0
 11
168.4714443612956
 21
53.6989215005109
 31
0.0
  0
LINE
  5
196
330
18B
100
AcDbEntity
  8
文本层
370
    -2
 62
     0
100
AcDbLine
 10
168.4714443612956
 20
53.6989215005109
 30
0.0
 11
158.3938565655246
 21
66.55155197206984
 31
0.0
  0
MTEXT
  5
197
330
18B
100
AcDbEntity
  8
文本层
 62
     0
100
AcDbMText
 10
172.1797776946289
 20
56.82392150051088
 30
0.0
210
0.0
220
0.0
230
1.0
 11
1.0
 21
0.0
 31
0.0
 40
5.0
 41
0.0
 71
     5
 72
     1
  1
R8
  7
数字与字母
 73
     1
 44
1.0
  0
SOLID
  5
198
330
18B
100
AcDbEntity
  8
文本层
 62
     0
100
AcDbTrace
 38
0.0
 10
158.8529048008404
 20
66.91148598745492
 11
157.9348083302087
 21
66.19161795668477
 12
156.2342524732141
 22
69.30584138396466
 13
156.2342524732141
 23
69.30584138396466
  0
POINT
  5
199
330
18B
100
AcDbEntity
  8
Defpoints
 62
     0
100
AcDbPoint
 10
156.2342524732141
 20
69.30584138396466
 30
0.0
 50
0.0
  0
POINT
  5
19A
330
18B
100
AcDbEntity
  8
Defpoints
 62
     0
100
AcDbPoint
 10
161.1704903984952
 20
63.01032272820502
 30
0.0
 50
0.0
  0
ENDBLK
  5
193
330
18B
100
AcDbEntity
  8
0
100
AcDbBlockEnd
  0
BLOCK
  5
1A4
330
19D
100
AcDbEntity
  8
0
100
AcDbBlockBegin
  2
*D11
 70
     1
 10
0.0
 20
0.0
 30
0.0
  3
*D11
  1

  0
LINE
  5
1A7
330
19D
100
AcDbEntity
  8
文本层
370
    -2
 62
     0
100
AcDbLine
 10
196.470974821697
 20
117.5648819724496
 30
0.0
 11
186.345974821697
 21
117.5648819724496
 31
0.0
  0
LINE
  5
1A8
330
19D
100
AcDbEntity
  8
文本层
370
    -2
 62
     0
100
AcDbLine
 10
186.345974821697
 20
117.5648819724496
 30
0.0
 11
177.3839722932888
 21
103.5322098386187
 31
0.0
  0
MTEXT
  5
1A9
330
19D
100
AcDbEntity
  8
文本层
 62
     0
100
AcDbMText
 10
191.720974821697
 20
120.6898819724496
 30
0.0
210
0.0
220
0.0
230
1.0
 11
1.0
 21
0.0
 31
0.0
 40
5.0
 41
0.0
 71
     5
 72
     1
  1
R10
  7
数字与字母
 73
     1
 44
1.0
  0
SOLID
  5
1AA
330
19D
100
AcDbEntity
  8
文本层
 62
     0
100
AcDbTrace
 38
0.0
 10
176.8923467775566
 20
103.8461877519485
 11
177.8755978090209
 21
103.2182319252889
 12
175.5001048133101
 22
100.5824567442261
 13
175.5001048133101
 23
100.5824567442261
  0
POINT
  5
1AB
330
19D
100
AcDbEntity
  8
Defpoints
 62
     0
100
AcDbPoint
 10
175.5001048133101
 20
100.5824567442261
 30
0.0
 50
0.0
  0
POINT
  5
1AC
330
19D
100
AcDbEntity
  8
Defpoints
 62
     0
100
AcDbPoint
 10
180.8825833275348
 20
109.0103227282049
 30
0.0
 50
0.0
  0
ENDBLK
  5
1A5
330
19D
100
AcDbEntity
  8
0
100
AcDbBlockEnd
  0
BLOCK
  5
1B7
330
1AF
100
AcDbEntity
  8
0
100
AcDbBlockBegin
  2
*D12
 70
     1
 10
0.0
 20
0.0
 30
0.0
  3
*D12
  1

  0
LINE
  5
1BA
330
1AF
100
AcDbEntity
  8
文本层
370
    -2
 62
     0
100
AcDbLine
 10
180.476337108968
 20
125.9121553859176
 30
0.0
 11
170.1846704423014
 21
125.9121553859176
 31
0.0
  0
LINE
  5
1BB
330
1AF
100
AcDbEntity
  8
文本层
370
    -2
 62
     0
100
AcDbLine
 10
170.1846704423014
 20
125.9121553859176
 30
0.0
 11
166.6996324306588
 21
120.6231937876493
 31
0.0
  0
MTEXT
  5
1BC
330
1AF
100
AcDbEntity
  8
文本层
 62
     0
100
AcDbMText
 10
175.6430037756347
 20
129.0371553859176
 30
0.0
210
0.0
220
0.0
230
1.0
 11
1.0
 21
0.0
 31
0.0
 40
5.0
 41
0.0
 71
     5
 72
     1
  1
R14
  7
数字与字母
 73
     1
 44
1.0
  0
LINE
  5
1BD
330
1AF
100
AcDbEntity
  8
文本层
370
    -2
 62
     0
100
AcDbLine
 10
157.0708215279537
 20
106.0103227282051
 30
0.0
 11
164.7738702501177
 21
117.7006195757604
 31
0.0
  0
SOLID
  5
1BE
330
1AF
100
AcDbEntity
  8
文本层
 62
     0
100
AcDbTrace
 38
0.0
 10
166.2125367286773
 20
120.9441541510728
 11
167.1867281326402
 21
120.3022334242257
 12
164.7738702501177
 22
117.7006195757604
 13
164.7738702501177
 23
117.7006195757604
  0
POINT
  5
1BF
330
1AF
100
AcDbEntity
  8
Defpoints
 62
     0
100
AcDbPoint
 10
164.7738702501177
 20
117.7006195757604
 30
0.0
 50
0.0
  0
POINT
  5
1C0
330
1AF
100
AcDbEntity
  8
Defpoints
 62
     0
100
AcDbPoint
 10
157.0708215279537
 20
106.0103227282051
 30
0.0
 50
0.0
  0
ENDBLK
  5
1B8
330
1AF
100
AcDbEntity
  8
0
100
AcDbBlockEnd
  0
BLOCK
  5
1CB
330
1C3
100
AcDbEntity
  8
0
100
AcDbBlockBegin
  2
*D13
 70
     1
 10
0.0
 20
0.0
 30
0.0
  3
*D13
  1

  0
LINE
  5
1CE
330
1C3
100
AcDbEntity
  8
文本层
370
    -2
 62
     0
100
AcDbLine
 10
137.8157870084692
 20
112.3871920043743
 30
0.0
 11
144.6074536751359
 21
112.3871920043743
 31
0.0
  0
LINE
  5
1CF
330
1C3
100
AcDbEntity
  8
文本层
370
    -2
 62
     0
100
AcDbLine
 10
144.6074536751359
 20
112.3871920043743
 30
0.0
 11
147.7232956383403
 21
110.7929746853319
 31
0.0
  0
MTEXT
  5
1D0
330
1C3
100
AcDbEntity
  8
文本层
 62
     0
100
AcDbMText
 10
140.8991203418026
 20
115.5121920043743
 30
0.0
210
0.0
220
0.0
230
1.0
 11
1.0
 21
0.0
 31
0.0
 40
5.0
 41
0.0
 71
     5
 72
     1
  1
R7
  7
数字与字母
 73
     1
 44
1.0
  0
LINE
  5
1D1
330
1C3
100
AcDbEntity
  8
文本层
370
    -2
 62
     0
100
AcDbLine
 10
157.0708215279535
 20
106.0103227282048
 30
0.0
 11
150.8391376015447
 21
109.1987573662896
 31
0.0
  0
SOLID
  5
1D2
330
1C3
100
AcDbEntity
  8
文本层
 62
     0
100
AcDbTrace
 38
0.0
 10
147.9889985248473
 20
111.3122816791993
 11
147.4575927518332
 21
110.2736676914645
 12
150.8391376015447
 22
109.1987573662896
 13
150.8391376015447
 23
109.1987573662896
  0
POINT
  5
1D3
330
1C3
100
AcDbEntity
  8
Defpoints
 62
     0
100
AcDbPoint
 10
150.8391376015447
 20
109.1987573662896
 30
0.0
 50
0.0
  0
POINT
  5
1D4
330
1C3
100
AcDbEntity
  8
Defpoints
 62
     0
100
AcDbPoint
 10
157.0708215279535
 20
106.0103227282048
 30
0.0
 50
0.0
  0
ENDBLK
  5
1CC
330
1C3
100
AcDbEntity
  8
0
100
AcDbBlockEnd
  0
BLOCK
  5
1DF
330
1D7
100
AcDbEntity
  8
0
100
AcDbBlockBegin
  2
*D14
 70
     1
 10
0.0
 20
0.0
 30
0.0
  3
*D14
  1

  0
LINE
  5
1E2
330
1D7
100
AcDbEntity
  8
文本层
370
    -2
 62
     0
100
AcDbLine
 10
118.9640159680722
 20
111.4218224633824
 30
0.0
 11
129.0890159680722
 21
111.4218224633824
 31
0.0
  0
LINE
  5
1E3
330
1D7
100
AcDbEntity
  8
文本层
370
    -2
 62
     0
100
AcDbLine
 10
129.0890159680722
 20
111.4218224633824
 30
0.0
 11
130.0211244384812
 21
105.3538133450342
 31
0.0
  0
MTEXT
  5
1E4
330
1D7
100
AcDbEntity
  8
文本层
 62
     0
100
AcDbMText
 10
123.7140159680722
 20
114.5468224633824
 30
0.0
210
0.0
220
0.0
230
1.0
 11
1.0
 21
0.0
 31
0.0
 40
5.0
 41
0.0
 71
     5
 72
     1
  1
R10
  7
数字与字母
 73
     1
 44
1.0
  0
LINE
  5
1E5
330
1D7
100
AcDbEntity
  8
文本层
370
    -2
 62
     0
100
AcDbLine
 10
132.0708215279535
 20
92.01032272820503
 30
0.0
 11
130.5525273876036
 21
101.8943898517822
 31
0.0
  0
SOLID
  5
1E6
330
1D7
100
AcDbEntity
  8
文本层
 62
     0
100
AcDbTrace
 38
0.0
 10
130.5976950206899
 20
105.4423805032213
 11
129.4445538562725
 21
105.2652461868471
 12
130.5525273876036
 22
101.8943898517822
 13
130.5525273876036
 23
101.8943898517822
  0
POINT
  5
1E7
330
1D7
100
AcDbEntity
  8
Defpoints
 62
     0
100
AcDbPoint
 10
130.5525273876036
 20
101.8943898517822
 30
0.0
 50
0.0
  0
POINT
  5
1E8
330
1D7
100
AcDbEntity
  8
Defpoints
 62
     0
100
AcDbPoint
 10
132.0708215279535
 20
92.01032272820503
 30
0.0
 50
0.0
  0
ENDBLK
  5
1E0
330
1D7
100
AcDbEntity
  8
0
100
AcDbBlockEnd
  0
BLOCK
  5
1F2
330
1EB
100
AcDbEntity
  8
0
100
AcDbBlockBegin
  2
*D15
 70
     1
 10
0.0
 20
0.0
 30
0.0
  3
*D15
  1

  0
LINE
  5
1F5
330
1EB
100
AcDbEntity
  8
文本层
370
    -2
 62
     0
100
AcDbLine
 10
156.3982011653085
 20
84.53712024982788
 30
0.0
 11
163.1898678319752
 21
84.53712024982786
 31
0.0
  0
LINE
  5
1F6
330
1EB
100
AcDbEntity
  8
文本层
370
    -2
 62
     0
100
AcDbLine
 10
163.1898678319752
 20
84.53712024982786
 30
0.0
 11
166.2732057678992
 21
86.19332892414754
 31
0.0
  0
MTEXT
  5
1F7
330
1EB
100
AcDbEntity
  8
文本层
 62
     0
100
AcDbMText
 10
159.4815344986418
 20
87.66212024982788
 30
0.0
210
0.0
220
0.0
230
1.0
 11
1.0
 21
0.0
 31
0.0
 40
5.0
 41
0.0
 71
     5
 72
     1
  1
R6
  7
数字与字母
 73
     1
 44
1.0
  0
SOLID
  5
1F8
330
1EB
100
AcDbEntity
  8
文本层
 62
     0
100
AcDbTrace
 38
0.0
 10
165.997170988846
 20
86.70721858013488
 11
166.5492405469525
 21
85.67943926816019
 12
169.3565437038233
 22
87.84953759846719
 13
169.3565437038233
 23
87.84953759846719
  0
POINT
  5
1F9
330
1EB
100
AcDbEntity
  8
Defpoints
 62
     0
100
AcDbPoint
 10
169.3565437038233
 20
87.84953759846719
 30
0.0
 50
0.0
  0
POINT
  5
1FA
330
1EB
100
AcDbEntity
  8
Defpoints
 62
     0
100
AcDbPoint
 10
164.0708215279536
 20
85.01032272820498
 30
0.0
 50
0.0
  0
ENDBLK
  5
1F3
330
1EB
100
AcDbEntity
  8
0
100
AcDbBlockEnd
  0
BLOCK
  5
203
330
1FD
100
AcDbEntity
  8
0
100
AcDbBlockBegin
  2
*D16
 70
     1
 10
0.0
 20
0.0
 30
0.0
  3
*D16
  1

  0
LINE
  5
206
330
1FD
100
AcDbEntity
  8
文本层
370
    -2
 62
     0
100
AcDbLine
 10
145.3523220439447
 20
93.4991832654608
 30
0.0
 11
142.0766988164143
 21
79.63077339009068
 31
0.0
  0
MTEXT
  5
207
330
1FD
100
AcDbEntity
  8
文本层
 62
     0
100
AcDbMText
 10
141.0754619942249
 20
88.98645480973578
 30
0.0
210
0.0
220
0.0
230
1.0
 11
0.2298682966687977
 21
0.9732217456400086
 31
0.0
 40
5.0
 41
0.0
 71
     5
 72
     1
  1
R36
  7
数字与字母
 73
     1
 44
1.0
  0
SOLID
  5
208
330
1FD
100
AcDbEntity
  8
文本层
 62
     0
100
AcDbTrace
 38
0.0
 10
141.5089861314577
 20
79.76486322981415
 11
142.644411501371
 21
79.49668355036722
 12
141.2721597780736
 22
76.22449728035065
 13
141.2721597780736
 23
76.22449728035065
  0
POINT
  5
209
330
1FD
100
AcDbEntity
  8
Defpoints
 62
     0
100
AcDbPoint
 10
141.2721597780736
 20
76.22449728035065
 30
0.0
 50
0.0
  0
POINT
  5
20A
330
1FD
100
AcDbEntity
  8
Defpoints
 62
     0
100
AcDbPoint
 10
149.5474184581503
 20
111.2604801233912
 30
0.0
 50
0.0
  0
ENDBLK
  5
204
330
1FD
100
AcDbEntity
  8
0
100
AcDbBlockEnd
  0
BLOCK
  5
213
330
20D
100
AcDbEntity
  8
0
100
AcDbBlockBegin
  2
*D17
 70
     1
 10
0.0
 20
0.0
 30
0.0
  3
*D17
  1

  0
LINE
  5
216
330
20D
100
AcDbEntity
  8
文本层
370
    -2
 62
     0
100
AcDbLine
 10
105.8000584498263
 20
51.30987972260074
 30
0.0
 11
123.2757429219655
 21
61.12247480804479
 31
0.0
  0
MTEXT
  5
217
330
20D
100
AcDbEntity
  8
文本层
 62
     0
100
AcDbMText
 10
108.9567826243062
 20
56.66630973579552
 30
0.0
210
0.0
220
0.0
230
1.0
 11
0.8719479056831265
 21
0.4895986619414002
 31
0.0
 40
5.0
 41
0.0
 71
     5
 72
     1
  1
R49
  7
数字与字母
 73
     1
 44
1.0
  0
SOLID
  5
218
330
20D
100
AcDbEntity
  8
文本层
 62
     0
100
AcDbTrace
 38
0.0
 10
122.9901437024997
 20
61.63111108635994
 11
123.5613421414313
 21
60.61383852972963
 12
126.3275605918564
 22
62.83607012483969
 13
126.3275605918564
 23
62.83607012483969
  0
POINT
  5
219
330
20D
100
AcDbEntity
  8
Defpoints
 62
     0
100
AcDbPoint
 10
126.3275605918564
 20
62.83607012483969
 30
0.0
 50
0.0
  0
POINT
  5
21A
330
20D
100
AcDbEntity
  8
Defpoints
 62
     0
100
AcDbPoint
 10
83.60211321338329
 20
38.8457356897111
 30
0.0
 50
0.0
  0
ENDBLK
  5
214
330
20D
100
AcDbEntity
  8
0
100
AcDbBlockEnd
  0
BLOCK
  5
227
330
21D
100
AcDbEntity
  8
0
100
AcDbBlockBegin
  2
*D18
 70
     1
 10
0.0
 20
0.0
 30
0.0
  3
*D18
  1

  0
LINE
  5
22A
330
21D
100
AcDbEntity
  8
文本层
370
    -2
 62
     0
100
AcDbLine
 10
74.98950555771484
 20
134.7007248795405
 30
0.0
 11
84.78117222438158
 21
134.7007248795405
 31
0.0
  0
LINE
  5
22B
330
21D
100
AcDbEntity
  8
文本层
370
    -2
 62
     0
100
AcDbLine
 10
84.78117222438158
 20
134.7007248795405
 30
0.0
 11
91.470368826564
 21
121.6873489349753
 31
0.0
  0
LINE
  5
22C
330
21D
100
AcDbEntity
  8
文本层
370
    -2
 62
     0
100
AcDbLine
 10
110.6712742293431
 20
84.33329652143478
 30
0.0
 11
112.2713496795747
 21
81.2204588203064
 31
0.0
  0
MTEXT
  5
22D
330
21D
100
AcDbEntity
  8
文本层
 62
     0
100
AcDbMText
 10
79.57283889104815
 20
137.8257248795405
 30
0.0
210
0.0
220
0.0
230
1.0
 11
1.0
 21
0.0
 31
0.0
 40
5.0
 41
0.0
 71
     5
 72
     1
  1
\U+220535
  7
数字与字母
 73
     1
 44
1.0
  0
LINE
  5
22E
330
21D
100
AcDbEntity
  8
文本层
370
    -2
 62
     0
100
AcDbLine
 10
109.0711987791115
 20
87.44613422256315
 30
0.0
 11
93.07044427679558
 21
118.5745112338469
 31
0.0
  0
SOLID
  5
22F
330
21D
100
AcDbEntity
  8
文本层
 62
     0
100
AcDbTrace
 38
0.0
 10
111.1900805128645
 20
84.59997576314004
 11
110.1524679458217
 21
84.06661727972951
 12
109.0711987791115
 22
87.44613422256315
 13
109.0711987791115
 23
87.44613422256315
  0
SOLID
  5
230
330
21D
100
AcDbEntity
  8
文本层
 62
     0
100
AcDbTrace
 38
0.0
 10
91.9891751100854
 20
121.9540281766805
 11
90.9515625430426
 21
121.42066969327
 12
93.07044427679558
 22
118.5745112338469
 13
93.07044427679558
 23
118.5745112338469
  0
POINT
  5
231
330
21D
100
AcDbEntity
  8
Defpoints
 62
     0
100
AcDbPoint
 10
93.07044427679558
 20
118.5745112338469
 30
0.0
 50
0.0
  0
POINT
  5
232
330
21D
100
AcDbEntity
  8
Defpoints
 62
     0
100
AcDbPoint
 10
109.0711987791115
 20
87.44613422256315
 30
0.0
 50
0.0
  0
ENDBLK
  5
228
330
21D
100
AcDbEntity
  8
0
100
AcDbBlockEnd
  0
BLOCK
  5
23C
330
235
100
AcDbEntity
  8
0
100
AcDbBlockBegin
  2
*D19
 70
     1
 10
0.0
 20
0.0
 30
0.0
  3
*D19
  1

  0
LINE
  5
23F
330
235
100
AcDbEntity
  8
文本层
370
    -2
 62
     0
100
AcDbLine
 10
151.5159502668464
 20
51.66879500206336
 30
0.0
 11
138.0922731492448
 21
40.18443335255552
 31
0.0
  0
MTEXT
  5
240
330
235
100
AcDbEntity
  8
文本层
 62
     0
100
AcDbMText
 10
145.526822288623
 20
50.65750514669419
 30
0.0
210
0.0
220
0.0
230
1.0
 11
0.7598617503532139
 21
0.6500847024428048
 31
0.0
 40
5.0
 41
0.0
 71
     5
 72
     1
  1
\U+220528
  7
数字与字母
 73
     1
 44
1.0
  0
SOLID
  5
241
330
235
100
AcDbEntity
  8
文本层
 62
     0
100
AcDbTrace
 38
0.0
 10
137.7130570728198
 20
40.62768604026157
 11
138.4714892256698
 21
39.74118066484948
 12
135.4327570230085
 22
37.90913689400572
 13
135.4327570230085
 23
37.90913689400572
  0
POINT
  5
242
330
235
100
AcDbEntity
  8
Defpoints
 62
     0
100
AcDbPoint
 10
135.4327570230085
 20
37.90913689400572
 30
0.0
 50
0.0
  0
POINT
  5
243
330
235
100
AcDbEntity
  8
Defpoints
 62
     0
100
AcDbPoint
 10
156.7088860328986
 20
56.11150856240427
 30
0.0
 50
0.0
  0
ENDBLK
  5
23D
330
235
100
AcDbEntity
  8
0
100
AcDbBlockEnd
  0
BLOCK
  5
250
330
246
100
AcDbEntity
  8
0
100
AcDbBlockBegin
  2
*D20
 70
     1
 10
0.0
 20
0.0
 30
0.0
  3
*D20
  1

  0
LINE
  5
253
330
246
100
AcDbEntity
  8
文本层
370
    -2
 62
     0
100
AcDbLine
 10
170.4945596310887
 20
31.44609468574542
 30
0.0
 11
160.5362262977554
 21
31.44609468574541
 31
0.0
  0
LINE
  5
254
330
246
100
AcDbEntity
  8
文本层
370
    -2
 62
     0
100
AcDbLine
 10
160.5362262977554
 20
31.44609468574541
 30
0.0
 11
153.218982377833
 21
39.31917219891153
 31
0.0
  0
LINE
  5
255
330
246
100
AcDbEntity
  8
文本层
370
    -2
 62
     0
100
AcDbLine
 10
138.9226606780741
 20
54.70147325749842
 30
0.0
 11
136.539940394781
 21
57.26519010059623
 31
0.0
  0
MTEXT
  5
256
330
246
100
AcDbEntity
  8
文本层
 62
     0
100
AcDbMText
 10
165.8278929644221
 20
34.57109468574542
 30
0.0
210
0.0
220
0.0
230
1.0
 11
1.0
 21
0.0
 31
0.0
 40
5.0
 41
0.0
 71
     5
 72
     1
  1
\U+220514
  7
数字与字母
 73
     1
 44
1.0
  0
LINE
  5
257
330
246
100
AcDbEntity
  8
文本层
370
    -2
 62
     0
100
AcDbLine
 10
141.3053809613672
 20
52.13775641440061
 30
0.0
 11
150.8362620945398
 21
41.88288904200934
 31
0.0
  0
SOLID
  5
258
330
246
100
AcDbEntity
  8
文本层
 62
     0
100
AcDbTrace
 38
0.0
 10
139.3499468185904
 20
55.09859330471396
 11
138.4953745375578
 21
54.3043532102829
 12
141.3053809613672
 22
52.13775641440061
 13
141.3053809613672
 23
52.13775641440061
  0
SOLID
  5
259
330
246
100
AcDbEntity
  8
文本层
 62
     0
100
AcDbTrace
 38
0.0
 10
153.6462685183493
 20
39.71629224612707
 11
152.7916962373167
 21
38.92205215169601
 12
150.8362620945398
 22
41.88288904200934
 13
150.8362620945398
 23
41.88288904200934
  0
POINT
  5
25A
330
246
100
AcDbEntity
  8
Defpoints
 62
     0
100
AcDbPoint
 10
150.8362620945398
 20
41.88288904200934
 30
0.0
 50
0.0
  0
POINT
  5
25B
330
246
100
AcDbEntity
  8
Defpoints
 62
     0
100
AcDbPoint
 10
141.3053809613672
 20
52.13775641440061
 30
0.0
 50
0.0
  0
ENDBLK
  5
251
330
246
100
AcDbEntity
  8
0
100
AcDbBlockEnd
  0
BLOCK
  5
268
330
25E
100
AcDbEntity
  8
0
100
AcDbBlockBegin
  2
*D21
 70
     1
 10
0.0
 20
0.0
 30
0.0
  3
*D21
  1

  0
LINE
  5
26B
330
25E
100
AcDbEntity
  8
文本层
370
    -2
 62
     0
100
AcDbLine
 10
116.9883352683219
 20
29.5786194427633
 30
0.0
 11
126.7800019349885
 21
29.57861944276332
 31
0.0
  0
LINE
  5
26C
330
25E
100
AcDbEntity
  8
文本层
370
    -2
 62
     0
100
AcDbLine
 10
126.7800019349885
 20
29.57861944276332
 30
0.0
 11
133.0866160326886
 21
35.27744551685002
 31
0.0
  0
LINE
  5
26D
330
25E
100
AcDbEntity
  8
文本层
370
    -2
 62
     0
100
AcDbLine
 10
159.0550270232184
 20
58.74319993955993
 30
0.0
 11
161.6518681222714
 21
61.08977538183092
 31
0.0
  0
MTEXT
  5
26E
330
25E
100
AcDbEntity
  8
文本层
 62
     0
100
AcDbMText
 10
121.5716686016552
 20
32.70361944276332
 30
0.0
210
0.0
220
0.0
230
1.0
 11
1.0
 21
0.0
 31
0.0
 40
5.0
 41
0.0
 71
     5
 72
     1
  1
\U+220528
  7
数字与字母
 73
     1
 44
1.0
  0
LINE
  5
26F
330
25E
100
AcDbEntity
  8
文本层
370
    -2
 62
     0
100
AcDbLine
 10
156.4581859241654
 20
56.39662449728894
 30
0.0
 11
135.6834571317416
 21
37.624020959121
 31
0.0
  0
SOLID
  5
270
330
25E
100
AcDbEntity
  8
文本层
 62
     0
100
AcDbTrace
 38
0.0
 10
158.6639311161732
 20
59.17600678940209
 11
159.4461229302636
 21
58.31039308971776
 12
156.4581859241654
 22
56.39662449728894
 13
156.4581859241654
 23
56.39662449728894
  0
SOLID
  5
271
330
25E
100
AcDbEntity
  8
文本层
 62
     0
100
AcDbTrace
 38
0.0
 10
132.6955201256434
 20
35.71025236669218
 11
133.4777119397338
 21
34.84463866700785
 12
135.6834571317416
 22
37.624020959121
 13
135.6834571317416
 23
37.624020959121
  0
POINT
  5
272
330
25E
100
AcDbEntity
  8
Defpoints
 62
     0
100
AcDbPoint
 10
135.6834571317416
 20
37.624020959121
 30
0.0
 50
0.0
  0
POINT
  5
273
330
25E
100
AcDbEntity
  8
Defpoints
 62
     0
100
AcDbPoint
 10
156.4581859241654
 20
56.39662449728894
 30
0.0
 50
0.0
  0
ENDBLK
  5
269
330
25E
100
AcDbEntity
  8
0
100
AcDbBlockEnd
  0
BLOCK
  5
280
330
276
100
AcDbEntity
  8
0
100
AcDbBlockBegin
  2
*D22
 70
     1
 10
0.0
 20
0.0
 30
0.0
  3
*D22
  1

  0
LINE
  5
283
330
276
100
AcDbEntity
  8
文本层
370
    -2
 62
     0
100
AcDbLine
 10
225.8730299361349
 20
100.6494320146411
 30
0.0
 11
215.9146966028015
 21
100.6494320146411
 31
0.0
  0
LINE
  5
284
330
276
100
AcDbEntity
  8
文本层
370
    -2
 62
     0
100
AcDbLine
 10
215.9146966028015
 20
100.6494320146411
 30
0.0
 11
211.6641517092154
 21
93.89652875121529
 31
0.0
  0
LINE
  5
285
330
276
100
AcDbEntity
  8
文本层
370
    -2
 62
     0
100
AcDbLine
 10
200.4774913466916
 20
76.12411670519465
 30
0.0
 11
198.6130479529376
 21
73.16204803085789
 31
0.0
  0
MTEXT
  5
286
330
276
100
AcDbEntity
  8
文本层
 62
     0
100
AcDbMText
 10
221.2063632694682
 20
103.7744320146411
 30
0.0
210
0.0
220
0.0
230
1.0
 11
1.0
 21
0.0
 31
0.0
 40
5.0
 41
0.0
 71
     5
 72
     1
  1
\U+220514
  7
数字与字母
 73
     1
 44
1.0
  0
LINE
  5
287
330
276
100
AcDbEntity
  8
文本层
370
    -2
 62
     0
100
AcDbLine
 10
202.3419347404456
 20
79.08618537953144
 30
0.0
 11
209.7997083154614
 21
90.93446007687849
 31
0.0
  0
SOLID
  5
288
330
276
100
AcDbEntity
  8
文本层
 62
     0
100
AcDbTrace
 38
0.0
 10
199.9838132343021
 20
76.43485727082032
 11
200.9711694590811
 21
75.81337613956899
 12
202.3419347404456
 22
79.08618537953144
 13
202.3419347404456
 23
79.08618537953144
  0
SOLID
  5
289
330
276
100
AcDbEntity
  8
文本层
 62
     0
100
AcDbTrace
 38
0.0
 10
211.1704735968259
 20
94.20726931684095
 11
212.1578298216048
 21
93.58578818558962
 12
209.7997083154614
 22
90.93446007687849
 13
209.7997083154614
 23
90.93446007687849
  0
POINT
  5
28A
330
276
100
AcDbEntity
  8
Defpoints
 62
     0
100
AcDbPoint
 10
209.7997083154614
 20
90.93446007687849
 30
0.0
 50
0.0
  0
POINT
  5
28B
330
276
100
AcDbEntity
  8
Defpoints
 62
     0
100
AcDbPoint
 10
202.3419347404456
 20
79.08618537953144
 30
0.0
 50
0.0
  0
ENDBLK
  5
281
330
276
100
AcDbEntity
  8
0
100
AcDbBlockEnd
  0
BLOCK
  5
298
330
28E
100
AcDbEntity
  8
0
100
AcDbBlockBegin
  2
*D23
 70
     1
 10
0.0
 20
0.0
 30
0.0
  3
*D23
  1

  0
LINE
  5
29B
330
28E
100
AcDbEntity
  8
文本层
370
    -2
 62
     0
100
AcDbLine
 10
235.7221926402641
 20
94.88501850636888
 30
0.0
 11
225.9305259735974
 21
94.88501850636889
 31
0.0
  0
LINE
  5
29C
330
28E
100
AcDbEntity
  8
文本层
370
    -2
 62
     0
100
AcDbLine
 10
225.9305259735974
 20
94.88501850636889
 30
0.0
 11
221.7406666216222
 21
92.80172534521991
 31
0.0
  0
LINE
  5
29D
330
28E
100
AcDbEntity
  8
文本层
370
    -2
 62
     0
100
AcDbLine
 10
190.4009764342848
 20
77.21892011119002
 30
0.0
 11
187.267007415551
 21
75.66063958778703
 31
0.0
  0
MTEXT
  5
29E
330
28E
100
AcDbEntity
  8
文本层
 62
     0
100
AcDbMText
 10
231.1388593069307
 20
98.01001850636891
 30
0.0
210
0.0
220
0.0
230
1.0
 11
1.0
 21
0.0
 31
0.0
 40
5.0
 41
0.0
 71
     5
 72
     1
  1
\U+220528
  7
数字与字母
 73
     1
 44
1.0
  0
LINE
  5
29F
330
28E
100
AcDbEntity
  8
文本层
370
    -2
 62
     0
100
AcDbLine
 10
193.5349454530185
 20
78.777200634593
 30
0.0
 11
218.6066976028885
 21
91.24344482181691
 31
0.0
  0
SOLID
  5
2A0
330
28E
100
AcDbEntity
  8
文本层
 62
     0
100
AcDbTrace
 38
0.0
 10
190.1412630137176
 20
77.74124828097898
 11
190.660689854852
 21
76.69659194140107
 12
193.5349454530185
 22
78.777200634593
 13
193.5349454530185
 23
78.777200634593
  0
SOLID
  5
2A1
330
28E
100
AcDbEntity
  8
文本层
 62
     0
100
AcDbTrace
 38
0.0
 10
221.480953201055
 20
93.32405351500887
 11
222.0003800421894
 21
92.27939717543096
 12
218.6066976028885
 22
91.24344482181691
 13
218.6066976028885
 23
91.24344482181691
  0
POINT
  5
2A2
330
28E
100
AcDbEntity
  8
Defpoints
 62
     0
100
AcDbPoint
 10
218.6066976028885
 20
91.24344482181691
 30
0.0
 50
0.0
  0
POINT
  5
2A3
330
28E
100
AcDbEntity
  8
Defpoints
 62
     0
100
AcDbPoint
 10
193.5349454530185
 20
78.777200634593
 30
0.0
 50
0.0
  0
ENDBLK
  5
299
330
28E
100
AcDbEntity
  8
0
100
AcDbBlockEnd
  0
ENDSEC
  0
SECTION
  2
ENTITIES
  0
CIRCLE
  5
A9
102
{ACAD_REACTORS
330
25C
102
}
330
1F
100
AcDbEntity
  8
轮廓线
100
AcDbCircle
 10
146.0708215279535
 20
47.01032272820498
 30
0.0
 40
7.0
  0
CIRCLE
  5
AA
102
{ACAD_REACTORS
330
102
330
274
102
}
330
1F
100
AcDbEntity
  8
轮廓线
100
AcDbCircle
 10
146.0708215279535
 20
47.01032272820498
 30
0.0
 40
14.0
  0
ARC
  5
AB
102
{ACAD_REACTORS
330
EA
330
102
330
233
102
}
330
1F
100
AcDbEntity
  8
轮廓线
100
AcDbCircle
 10
101.0708215279535
 20
103.010322728205
 30
0.0
 40
17.5
100
AcDbArc
 50
209.0592810680405
 51
150.9407189319595
  0
ARC
  5
AC
330
1F
100
AcDbEntity
  8
轮廓线
100
AcDbCircle
 10
101.0708215279535
 20
103.010322728205
 30
0.0
 40
8.5
100
AcDbArc
 50
270.0
 51
90.0
  0
CIRCLE
  5
AD
102
{ACAD_REACTORS
330
127
330
2A4
102
}
330
1F
100
AcDbEntity
  8
轮廓线
100
AcDbCircle
 10
206.0708215279535
 20
85.01032272820498
 30
0.0
 40
14.0
  0
CIRCLE
  5
AE
102
{ACAD_REACTORS
330
28C
102
}
330
1F
100
AcDbEntity
  8
轮廓线
100
AcDbCircle
 10
206.0708215279535
 20
85.01032272820498
 30
0.0
 40
7.0
  0
ARC
  5
AF
102
{ACAD_REACTORS
330
1C1
102
}
330
1F
100
AcDbEntity
  8
轮廓线
100
AcDbCircle
 10
157.0708215279535
 20
106.010322728205
 30
0.0
 40
14.0
100
AcDbArc
 50
7.180755781458269
 51
89.48830133092721
  0
CIRCLE
  5
B0
102
{ACAD_REACTORS
330
14C
330
1D5
102
}
330
1F
100
AcDbEntity
  8
轮廓线
100
AcDbCircle
 10
157.0708215279535
 20
106.010322728205
 30
0.0
 40
7.0
  0
ARC
  5
B1
102
{ACAD_REACTORS
330
21B
102
}
330
1F
100
AcDbEntity
  8
轮廓线
100
AcDbCircle
 10
83.60211321338326
 20
38.84573568971103
 30
0.0
 40
49.0
100
AcDbArc
 50
7.446283139234103
 51
74.77042048193876
  0
LINE
  5
B2
330
1F
100
AcDbEntity
  8
轮廓线
100
AcDbLine
 10
85.77376298717516
 20
111.510322728205
 30
0.0
 11
101.0708215279535
 21
111.510322728205
 31
0.0
  0
LINE
  5
B3
330
1F
100
AcDbEntity
  8
轮廓线
100
AcDbLine
 10
180.8825833275348
 20
99.010322728205
 30
0.0
 11
206.0708215279535
 21
99.01032272820498
 31
0.0
  0
LINE
  5
B4
330
1F
100
AcDbEntity
  8
轮廓线
100
AcDbLine
 10
85.77376298717516
 20
94.51032272820498
 30
0.0
 11
101.0708215279535
 21
94.51032272820498
 31
0.0
  0
LINE
  5
B5
330
1F
100
AcDbEntity
  8
轮廓线
100
AcDbLine
 10
161.170490398495
 20
71.01032272820498
 30
0.0
 11
206.0708215279535
 21
71.01032272820498
 31
0.0
  0
LINE
  5
B8
330
1F
100
AcDbEntity
  8
轮廓线
100
AcDbLine
 10
101.227108915047
 20
120.509624835793
 30
0.0
 11
157.1958514376283
 21
120.0097644142754
 31
0.0
  0
ARC
  5
B9
102
{ACAD_REACTORS
330
1AD
102
}
330
1F
100
AcDbEntity
  8
轮廓线
100
AcDbCircle
 10
180.8825833275348
 20
109.010322728205
 30
0.0
 40
10.0
100
AcDbArc
 50
187.1807557814583
 51
270.0
  0
ARC
  5
BA
102
{ACAD_REACTORS
330
19B
102
}
330
1F
100
AcDbEntity
  8
轮廓线
100
AcDbCircle
 10
161.170490398495
 20
63.01032272820498
 30
0.0
 40
8.0
100
AcDbArc
 50
90.0000000000002
 51
226.6582417727776
  0
ARC
  5
BB
102
{ACAD_REACTORS
330
2A8
102
}
330
1F
100
AcDbEntity
  8
轮廓线
100
AcDbCircle
 10
164.0708215279535
 20
85.01032272820498
 30
0.0
 40
6.0
100
AcDbArc
 50
298.9544034435894
 51
106.0493896568332
  0
ARC
  5
BC
102
{ACAD_REACTORS
330
1E9
102
}
330
1F
100
AcDbEntity
  8
轮廓线
100
AcDbCircle
 10
132.0708215279535
 20
92.01032272820498
 30
0.0
 40
10.0
100
AcDbArc
 50
37.67735097825498
 51
227.7647052173882
  0
ARC
  5
C0
330
1F
100
AcDbEntity
  8
轮廓线
100
AcDbCircle
 10
156.6062429692006
 20
110.9579636024773
 30
0.0
 40
21.0
100
AcDbArc
 50
217.6773509782549
 51
286.0493896568332
  0
ARC
  5
C5
102
{ACAD_REACTORS
330
20B
102
}
330
1F
100
AcDbEntity
  8
轮廓线
100
AcDbCircle
 10
149.5474184581504
 20
111.2604801233909
 30
0.0
 40
36.0
100
AcDbArc
 50
227.7647052173882
 51
298.9544034435894
  0
LINE
  5
C6
330
1F
100
AcDbEntity
  8
点划线
100
AcDbLine
 10
98.57082152795351
 20
103.010322728205
 30
0.0
 11
103.5708215279535
 21
103.010322728205
 31
0.0
  0
LINE
  5
C7
330
1F
100
AcDbEntity
  8
点划线
100
AcDbLine
 10
101.0708215279535
 20
100.510322728205
 30
0.0
 11
101.0708215279535
 21
105.510322728205
 31
0.0
  0
LINE
  5
C8
102
{ACAD_REACTORS
330
164
102
}
330
1F
100
AcDbEntity
  8
点划线
100
AcDbLine
 10
129.5708215279535
 20
92.01032272820498
 30
0.0
 11
134.5708215279535
 21
92.01032272820498
 31
0.0
  0
LINE
  5
C9
102
{ACAD_REACTORS
330
164
102
}
330
1F
100
AcDbEntity
  8
点划线
100
AcDbLine
 10
132.0708215279535
 20
89.51032272820498
 30
0.0
 11
132.0708215279535
 21
94.51032272820498
 31
0.0
  0
LINE
  5
CA
102
{ACAD_REACTORS
330
17C
102
}
330
1F
100
AcDbEntity
  8
点划线
100
AcDbLine
 10
161.5708215279535
 20
85.01032272820498
 30
0.0
 11
166.5708215279535
 21
85.01032272820498
 31
0.0
  0
LINE
  5
CB
102
{ACAD_REACTORS
330
17C
102
}
330
1F
100
AcDbEntity
  8
点划线
100
AcDbLine
 10
164.0708215279535
 20
82.51032272820498
 30
0.0
 11
164.0708215279535
 21
87.51032272820498
 31
0.0
  0
LINE
  5
CC
330
1F
100
AcDbEntity
  8
点划线
100
AcDbLine
 10
154.5708215279535
 20
106.010322728205
 30
0.0
 11
159.5708215279535
 21
106.010322728205
 31
0.0
  0
LINE
  5
CD
330
1F
100
AcDbEntity
  8
点划线
100
AcDbLine
 10
157.0708215279535
 20
103.510322728205
 30
0.0
 11
157.0708215279535
 21
108.510322728205
 31
0.0
  0
LINE
  5
CE
330
1F
100
AcDbEntity
  8
点划线
100
AcDbLine
 10
203.5708215279535
 20
85.01032272820498
 30
0.0
 11
208.5708215279535
 21
85.01032272820498
 31
0.0
  0
LINE
  5
CF
330
1F
100
AcDbEntity
  8
点划线
100
AcDbLine
 10
206.0708215279535
 20
82.51032272820498
 30
0.0
 11
206.0708215279535
 21
87.51032272820498
 31
0.0
  0
LINE
  5
D0
330
1F
100
AcDbEntity
  8
点划线
100
AcDbLine
 10
143.5708215279535
 20
47.01032272820498
 30
0.0
 11
148.5708215279535
 21
47.01032272820498
 31
0.0
  0
LINE
  5
D1
330
1F
100
AcDbEntity
  8
点划线
100
AcDbLine
 10
146.0708215279535
 20
44.51032272820498
 30
0.0
 11
146.0708215279535
 21
49.51032272820498
 31
0.0
  0
DIMENSION
  5
D2
102
{ACAD_REACTORS
330
EA
102
}
102
{ACAD_XDICTIONARY
360
E0
102
}
330
1F
100
AcDbEntity
  8
文本层
100
AcDbDimension
  2
*D1
 10
63.72891005079384
 20
94.51032272820498
 30
0.0
 11
60.60391005079383
 21
103.010322728205
 31
0.0
 70
    32
 71
     5
 42
17.0
  3
机械标注
100
AcDbAlignedDimension
 13
85.77376298717516
 23
111.510322728205
 33
0.0
 14
85.77376298717516
 24
94.51032272820498
 34
0.0
 52
0.0
 50
90.0
100
AcDbRotatedDimension
  0
DIMENSION
  5
EB
102
{ACAD_REACTORS
330
102
102
}
102
{ACAD_XDICTIONARY
360
F8
102
}
330
1F
100
AcDbEntity
  8
文本层
100
AcDbDimension
  2
*D2
 10
72.95393779117751
 20
47.01032272820501
 30
0.0
 11
69.82893779117749
 21
75.01032272820501
 31
0.0
 70
    32
 71
     5
 42
55.99999999999999
  3
机械标注
100
AcDbAlignedDimension
 13
101.0708215279535
 23
103.010322728205
 33
0.0
 14
146.0708215279535
 24
47.01032272820498
 34
0.0
 52
0.0
 50
90.0
100
AcDbRotatedDimension
  0
DIMENSION
  5
103
330
1F
100
AcDbEntity
  8
文本层
100
AcDbDimension
  2
*D3
 10
146.0708215279535
 20
13.90058255896929
 30
0.0
 11
123.5708215279535
 21
17.02558255896929
 31
0.0
 70
    32
 71
     5
 42
45.0
  3
机械标注
100
AcDbAlignedDimension
 13
101.0708215279535
 23
103.010322728205
 33
0.0
 14
146.0708215279535
 24
47.01032272820498
 34
0.0
 52
0.0
100
AcDbRotatedDimension
  0
DIMENSION
  5
110
102
{ACAD_REACTORS
330
127
102
}
102
{ACAD_XDICTIONARY
360
11D
102
}
330
1F
100
AcDbEntity
  8
文本层
100
AcDbDimension
  2
*D4
 10
206.0708215279535
 20
14.24192043145797
 30
0.0
 11
176.0708215279535
 21
17.36692043145797
 31
0.0
 70
    32
 71
     5
 42
60.0
  3
机械标注
100
AcDbAlignedDimension
 13
146.0708215279535
 23
23.45803345939851
 33
0.0
 14
206.0708215279535
 24
85.01032272820498
 34
0.0
 52
0.0
100
AcDbRotatedDimension
  0
DIMENSION
  5
128
330
1F
100
AcDbEntity
  8
文本层
100
AcDbDimension
  2
*D5
 10
240.7127700234902
 20
85.01032272820497
 30
0.0
 11
237.5877700234902
 21
66.010322728205
 31
0.0
 70
    32
 71
     5
 42
38.00000000000001
  3
机械标注
100
AcDbAlignedDimension
 13
146.0708215279535
 23
47.01032272820498
 33
0.0
 14
206.0708215279535
 24
85.01032272820498
 34
0.0
 52
0.0
 50
90.0
100
AcDbRotatedDimension
  0
DIMENSION
  5
135
102
{ACAD_REACTORS
330
14C
102
}
102
{ACAD_XDICTIONARY
360
142
102
}
330
1F
100
AcDbEntity
  8
文本层
100
AcDbDimension
  2
*D6
 10
206.0708215279535
 20
141.97078761599
 30
0.0
 11
181.5708215279535
 21
145.09578761599
 31
0.0
 70
    32
 71
     5
 42
49.0
  3
机械标注
100
AcDbAlignedDimension
 13
157.0708215279535
 23
106.010322728205
 33
0.0
 14
206.0708215279535
 24
85.01032272820498
 34
0.0
 52
0.0
100
AcDbRotatedDimension
  0
DIMENSION
  5
14D
102
{ACAD_REACTORS
330
164
102
}
102
{ACAD_XDICTIONARY
360
15A
102
}
330
1F
100
AcDbEntity
  8
文本层
100
AcDbDimension
  2
*D7
 10
117.8577433991017
 20
47.01032272820499
 30
0.0
 11
114.7327433991016
 21
69.51032272820501
 31
0.0
 70
    32
 71
     5
 42
44.99999999999999
  3
机械标注
100
AcDbAlignedDimension
 13
132.0708215279535
 23
92.01032272820498
 33
0.0
 14
146.0708215279535
 24
47.01032272820498
 34
0.0
 52
0.0
 50
90.0
100
AcDbRotatedDimension
  0
DIMENSION
  5
165
102
{ACAD_REACTORS
330
17C
102
}
102
{ACAD_XDICTIONARY
360
172
102
}
330
1F
100
AcDbEntity
  8
文本层
100
AcDbDimension
  2
*D8
 10
164.0708215279535
 20
63.01032272820498
 30
0.0
 11
148.0708215279535
 21
66.13532272820498
 31
0.0
 70
    32
 71
     5
 42
32.0
  3
机械标注
100
AcDbAlignedDimension
 13
132.0708215279535
 23
92.01032272820498
 33
0.0
 14
164.0708215279535
 24
85.01032272820498
 34
0.0
 52
0.0
100
AcDbRotatedDimension
  0
DIMENSION
  5
17D
330
1F
100
AcDbEntity
  8
文本层
100
AcDbDimension
  2
*D9
 10
206.0708215279535
 20
63.28399844083691
 30
0.0
 11
185.0708215279535
 21
66.40899844083691
 31
0.0
 70
    32
 71
     5
 42
42.0
  3
机械标注
100
AcDbAlignedDimension
 13
164.0708215279535
 23
74.28843868187329
 33
0.0
 14
206.0708215279535
 24
74.08080760253887
 34
0.0
 52
0.0
100
AcDbRotatedDimension
  0
DIMENSION
  5
18A
102
{ACAD_REACTORS
330
19B
102
}
102
{ACAD_XDICTIONARY
360
194
102
}
330
1F
100
AcDbEntity
  8
文本层
100
AcDbDimension
  2
*D10
 10
161.1704903984952
 20
63.01032272820502
 30
0.0
 11
168.4714443612956
 21
53.69892150051089
 31
0.0
 70
   164
 71
     5
 42
8.000000000000057
  3
机械标注
100
AcDbRadialDimension
 15
156.2342524732141
 25
69.30584138396466
 35
0.0
 40
0.0
1001
ACAD
1000
DSTYLE
1002
{
1070
   279
1070
     1
1070
   288
1070
     1
1002
}
  0
DIMENSION
  5
19C
102
{ACAD_REACTORS
330
1AD
102
}
102
{ACAD_XDICTIONARY
360
1A6
102
}
330
1F
100
AcDbEntity
  8
文本层
100
AcDbDimension
  2
*D11
 10
180.8825833275348
 20
109.0103227282049
 30
0.0
 11
186.345974821697
 21
117.5648819724496
 31
0.0
 70
   164
 71
     5
 42
9.999999999999943
  3
机械标注
100
AcDbRadialDimension
 15
175.5001048133101
 25
100.5824567442261
 35
0.0
 40
0.0
1001
ACAD
1000
DSTYLE
1002
{
1070
   279
1070
     1
1070
   288
1070
     1
1002
}
  0
DIMENSION
  5
1AE
102
{ACAD_REACTORS
330
1C1
102
}
102
{ACAD_XDICTIONARY
360
1B9
102
}
330
1F
100
AcDbEntity
  8
文本层
100
AcDbDimension
  2
*D12
 10
157.0708215279537
 20
106.0103227282051
 30
0.0
 11
175.6430037756347
 21
125.9121553859176
 31
0.0
 70
   164
 71
     5
 42
13.99999999999977
  3
机械标注
100
AcDbRadialDimension
 15
164.7738702501177
 25
117.7006195757604
 35
0.0
 40
0.0
1001
ACAD
1000
DSTYLE
1002
{
1070
   288
1070
     1
1002
}
  0
DIMENSION
  5
1C2
102
{ACAD_REACTORS
330
1D5
102
}
102
{ACAD_XDICTIONARY
360
1CD
102
}
330
1F
100
AcDbEntity
  8
文本层
100
AcDbDimension
  2
*D13
 10
157.0708215279535
 20
106.0103227282048
 30
0.0
 11
140.8991203418026
 21
115.5121920043743
 31
0.0
 70
    36
 71
     5
 42
7.000000000000028
  3
机械标注
100
AcDbRadialDimension
 15
150.8391376015447
 25
109.1987573662896
 35
0.0
 40
0.0
1001
ACAD
1000
DSTYLE
1002
{
1070
   288
1070
     1
1002
}
  0
DIMENSION
  5
1D6
102
{ACAD_REACTORS
330
1E9
102
}
102
{ACAD_XDICTIONARY
360
1E1
102
}
330
1F
100
AcDbEntity
  8
文本层
100
AcDbDimension
  2
*D14
 10
132.0708215279535
 20
92.01032272820503
 30
0.0
 11
123.7140159680722
 21
111.4218224633824
 31
0.0
 70
   164
 71
     5
 42
9.999999999999957
  3
机械标注
100
AcDbRadialDimension
 15
130.5525273876036
 25
101.8943898517822
 35
0.0
 40
0.0
1001
ACAD
1000
DSTYLE
1002
{
1070
   288
1070
     1
1002
}
  0
DIMENSION
  5
1FC
102
{ACAD_REACTORS
330
20B
102
}
102
{ACAD_XDICTIONARY
360
205
102
}
330
1F
100
AcDbEntity
  8
文本层
100
AcDbDimension
  2
*D16
 10
149.5474184581503
 20
111.2604801233912
 30
0.0
 11
144.1167799493499
 21
88.26811638264579
 31
0.0
 70
   164
 71
     5
 42
36.0000000000002
  3
机械标注
100
AcDbRadialDimension
 15
141.2721597780736
 25
76.22449728035065
 35
0.0
 40
0.0
1001
ACAD
1000
DSTYLE
1002
{
1070
   288
1070
     1
1002
}
  0
DIMENSION
  5
20C
102
{ACAD_REACTORS
330
21B
102
}
102
{ACAD_XDICTIONARY
360
215
102
}
330
1F
100
AcDbEntity
  8
文本层
100
AcDbDimension
  2
*D17
 10
83.60211321338329
 20
38.8457356897111
 30
0.0
 11
110.4867784428731
 21
53.94147253053575
 31
0.0
 70
   164
 71
     5
 42
48.99999999999994
  3
机械标注
100
AcDbRadialDimension
 15
126.3275605918564
 25
62.83607012483969
 35
0.0
 40
0.0
1001
ACAD
1000
DSTYLE
1002
{
1070
   288
1070
     1
1002
}
  0
DIMENSION
  5
21C
102
{ACAD_REACTORS
330
233
102
}
102
{ACAD_XDICTIONARY
360
229
102
}
330
1F
100
AcDbEntity
  8
文本层
100
AcDbDimension
  2
*D18
 10
109.0711987791115
 20
87.44613422256315
 30
0.0
 11
79.57283889104815
 21
134.7007248795405
 31
0.0
 70
   163
 71
     5
 42
35.0
  3
机械标注
100
AcDbDiametricDimension
 15
93.07044427679558
 25
118.5745112338469
 35
0.0
 40
0.0
1001
ACAD
1000
DSTYLE
1002
{
1070
   288
1070
     1
1002
}
  0
DIMENSION
  5
245
102
{ACAD_REACTORS
330
25C
102
}
102
{ACAD_XDICTIONARY
360
252
102
}
330
1F
100
AcDbEntity
  8
文本层
100
AcDbDimension
  2
*D20
 10
141.3053809613672
 20
52.13775641440061
 30
0.0
 11
165.8278929644221
 21
31.44609468574542
 31
0.0
 70
   163
 71
     5
 42
14.00000000000002
  3
机械标注
100
AcDbDiametricDimension
 15
150.8362620945398
 25
41.88288904200934
 35
0.0
 40
0.0
1001
ACAD
1000
DSTYLE
1002
{
1070
   288
1070
     1
1002
}
  0
DIMENSION
  5
25D
102
{ACAD_REACTORS
330
274
102
}
102
{ACAD_XDICTIONARY
360
26A
102
}
330
1F
100
AcDbEntity
  8
文本层
100
AcDbDimension
  2
*D21
 10
156.4581859241654
 20
56.39662449728894
 30
0.0
 11
121.5716686016552
 21
32.70361944276332
 31
0.0
 70
    35
 71
     5
 42
27.99999999999999
  3
机械标注
100
AcDbDiametricDimension
 15
135.6834571317416
 25
37.624020959121
 35
0.0
 40
0.0
1001
ACAD
1000
DSTYLE
1002
{
1070
   288
1070
     1
1002
}
  0
DIMENSION
  5
275
102
{ACAD_REACTORS
330
28C
102
}
102
{ACAD_XDICTIONARY
360
282
102
}
330
1F
100
AcDbEntity
  8
文本层
100
AcDbDimension
  2
*D22
 10
202.3419347404456
 20
79.08618537953144
 30
0.0
 11
221.2063632694682
 21
100.6494320146411
 31
0.0
 70
   163
 71
     5
 42
13.99999999999997
  3
机械标注
100
AcDbDiametricDimension
 15
209.7997083154614
 25
90.93446007687849
 35
0.0
 40
0.0
1001
ACAD
1000
DSTYLE
1002
{
1070
   288
1070
     1
1002
}
  0
DIMENSION
  5
28D
102
{ACAD_REACTORS
330
2A4
102
}
102
{ACAD_XDICTIONARY
360
29A
102
}
330
1F
100
AcDbEntity
  8
文本层
100
AcDbDimension
  2
*D23
 10
193.5349454530185
 20
78.777200634593
 30
0.0
 11
231.1388593069307
 21
94.88501850636891
 31
0.0
 70
   163
 71
     5
 42
28.00000000000003
  3
机械标注
100
AcDbDiametricDimension
 15
218.6066976028885
 25
91.24344482181691
 35
0.0
 40
0.0
1001
ACAD
1000
DSTYLE
1002
{
1070
   288
1070
     1
1002
}
  0
LEADER
  5
2A5
102
{ACAD_REACTORS
330
2A8
102
}
102
{ACAD_XDICTIONARY
360
2A7
102
}
330
1F
100
AcDbEntity
  8
文本层
100
AcDbLeader
  3
机械标注
 71
     1
 73
     0
 72
     0
 40
5.000000000000002
 41
6.166666666666669
 76
     3
 10
168.9587052864962
 20
88.4900630005492
 30
0.0
 10
171.2842411352809
 20
92.518009245467
 30
0.0
 10
174.5991850927912
 20
92.518009245467
 30
0.0
210
0.0
220
0.0
230
1.0
211
1.0
221
0.0
231
0.0
212
0.0
222
0.0
232
0.0
213
0.0
223
-2.5
233
0.0
340
2A6
1001
ACAD
1000
DSTYLE
1002
{
1070
   147
1040
0.625
1070
    77
1070
     0
1002
}
  0
MTEXT
  5
2A6
102
{ACAD_REACTORS
330
2A5
102
}
330
1F
100
AcDbEntity
  8
文本层
100
AcDbMText
 10
175.2241850927912
 20
95.018009245467
 30
0.0
210
0.0
220
0.0
230
1.0
 11
1.0
 21
0.0
 31
0.0
 40
5.0
 41
3.5
 71
     1
 72
     1
  1
R6
  7
数字与字母
 73
     1
 44
1.0
  0
VIEWPORT
  5
2AD
330
5E
100
AcDbEntity
 67
     1
  8
0
100
AcDbViewport
 10
133.3499908447266
 20
101.5999970436096
 30
0.0
 40
423.7327665924585
 41
228.4221935424805
 68
     1
 69
     1
 12
133.3499908447266
 22
101.5999970436096
 13
0.0
 23
0.0
 14
10.0
 24
10.0
 15
10.0
 25
10.0
 16
0.0
 26
0.0
 36
1.0
 17
0.0
 27
0.0
 37
0.0
 42
50.0
 43
0.0
 44
0.0
 45
228.4221935424805
 50
0.0
 51
0.0
 72
   100
 90
    32800
  1

281
     0
 71
     1
 74
     0
110
0.0
120
0.0
130
0.0
111
1.0
121
0.0
131
0.0
112
0.0
122
1.0
132
0.0
 79
     0
146
0.0
348
0
340
0
345
0
346
0
  0
VIEWPORT
  5
2AF
330
5E
100
AcDbEntity
 67
     1
  8
文本层
100
AcDbViewport
 10
133.3499939441681
 20
101.5999939441681
 30
0.0
 40
213.3599903106689
 41
162.5599903106689
 68
     1
 69
     2
 12
150.6523139316732
 22
79.49576042881338
 13
0.0
 23
0.0
 14
10.0
 24
10.0
 15
10.0
 25
10.0
 16
0.0
 26
0.0
 36
1.0
 17
0.0
 27
0.0
 37
0.0
 42
50.0
 43
0.0
 44
0.0
 45
142.967192531789
 50
0.0
 51
0.0
 72
   100
 90
    32864
  1

281
     0
 71
     1
 74
     0
110
0.0
120
0.0
130
0.0
111
1.0
121
0.0
131
0.0
112
0.0
122
1.0
132
0.0
 79
     0
146
0.0
348
0
340
0
345
0
346
0
  0
ENDSEC
  0
SECTION
  2
OBJECTS
  0
DICTIONARY
  5
C
330
0
100
AcDbDictionary
281
     1
  3
ACAD_GROUP
350
D
  3
ACAD_LAYOUT
350
1A
  3
ACAD_MLINESTYLE
350
17
  3
ACAD_PLOTSETTINGS
350
19
  3
ACAD_PLOTSTYLENAME
350
E
  3
AcDbVariableDictionary
350
67
  0
DICTIONARY
  5
D
102
{ACAD_REACTORS
330
C
102
}
330
C
100
AcDbDictionary
281
     1
  0
ACDBDICTIONARYWDFLT
  5
E
102
{ACAD_REACTORS
330
C
102
}
330
C
100
AcDbDictionary
281
     1
  3
Normal
350
F
100
AcDbDictionaryWithDefault
340
F
  0
ACDBPLACEHOLDER
  5
F
102
{ACAD_REACTORS
330
E
102
}
330
E
  0
DICTIONARY
  5
17
102
{ACAD_REACTORS
330
C
102
}
330
C
100
AcDbDictionary
281
     1
  3
Standard
350
18
  0
MLINESTYLE
  5
18
102
{ACAD_REACTORS
330
17
102
}
330
17
100
AcDbMlineStyle
  2
STANDARD
 70
     0
  3

 62
   256
 51
90.0
 52
90.0
 71
     2
 49
0.5
 62
   256
  6
BYLAYER
 49
-0.5
 62
   256
  6
BYLAYER
  0
DICTIONARY
  5
19
102
{ACAD_REACTORS
330
C
102
}
330
C
100
AcDbDictionary
281
     1
  0
DICTIONARY
  5
1A
102
{ACAD_REACTORS
330
C
102
}
330
C
100
AcDbDictionary
281
     1
  3
Model
350
22
  3
布局1
350
5A
  3
布局2
350
5F
  0
LAYOUT
  5
22
102
{ACAD_REACTORS
330
1A
102
}
330
1A
100
AcDbPlotSettings
  1

  2
none_device
  4
ANSI_A_(8.50_x_11.00_Inches)
  6

 40
6.349999904632568
 41
19.04999923706055
 42
6.350006103515625
 43
19.04998779296875
 44
215.8999938964844
 45
279.3999938964844
 46
0.0
 47
0.0
 48
0.0
 49
0.0
140
0.0
141
0.0
  6

142
1.0
143
57.07986212157697
 70
 11952
 72
     0
 73
     1
 74
     0
  7

 75
     0
147
0.01751931351673652
148
-2282.040442273535
149
2.561166666666503
100
AcDbLayout
  1
Model
 70
     1
 71
     0
 10
0.0
 20
0.0
 11
12.0
 21
9.0
 12
0.0
 22
0.0
 32
0.0
 14
0.0
 24
0.0
 34
0.0
 15
0.0
 25
0.0
 35
0.0
146
0.0
 13
0.0
 23
0.0
 33
0.0
 16
1.0
 26
0.0
 36
0.0
 17
0.0
 27
1.0
 37
0.0
 76
     0
330
1F
  0
LAYOUT
  5
5A
102
{ACAD_REACTORS
330
1A
102
}
330
1A
100
AcDbPlotSettings
  1

  2
none_device
  4
Letter_(8.50_x_11.00_Inches)
  6

 40
6.349999904632568
 41
6.349999904632568
 42
6.350006103515625
 43
6.350006103515625
 44
215.8999938964844
 45
279.3999938964844
 46
0.0
 47
0.0
 48
0.0
 49
0.0
140
0.0
141
0.0
  6

142
1.0
143
1.0
 70
   688
 72
     1
 73
     1
 74
     5
  7

 75
    16
147
1.0
148
0.0
149
0.0
100
AcDbLayout
  1
布局1
 70
     1
 71
     1
 10
-6.350006103515625
 20
-6.349999904632568
 11
273.0499877929688
 21
209.5499939918518
 12
0.0
 22
0.0
 32
0.0
 14
26.66999878883362
 24
20.31999878883363
 34
0.0
 15
240.0299890995026
 25
182.8799890995026
 35
0.0
146
0.0
 13
0.0
 23
0.0
 33
0.0
 16
1.0
 26
0.0
 36
0.0
 17
0.0
 27
1.0
 37
0.0
 76
     0
330
59
331
74
  0
LAYOUT
  5
5F
102
{ACAD_REACTORS
330
1A
102
}
330
1A
100
AcDbPlotSettings
  1

  2
none_device
  4
Letter_(8.50_x_11.00_Inches)
  6

 40
6.349999904632568
 41
6.349999904632568
 42
6.350006103515625
 43
6.350006103515625
 44
215.8999938964844
 45
279.3999938964844
 46
0.0
 47
0.0
 48
0.0
 49
0.0
140
0.0
141
0.0
  6

142
1.0
143
1.0
 70
   688
 72
     1
 73
     1
 74
     5
  7

 75
    16
147
1.0
148
0.0
149
0.0
100
AcDbLayout
  1
布局2
 70
     1
 71
     2
 10
-6.350006103515625
 20
-6.349999904632568
 11
273.0499877929688
 21
209.5499939918518
 12
0.0
 22
0.0
 32
0.0
 14
26.66999878883362
 24
20.31999878883363
 34
0.0
 15
240.0299890995026
 25
182.8799890995026
 35
0.0
146
0.0
 13
0.0
 23
0.0
 33
0.0
 16
1.0
 26
0.0
 36
0.0
 17
0.0
 27
1.0
 37
0.0
 76
     0
330
5E
331
2AD
  0
DICTIONARY
  5
67
102
{ACAD_REACTORS
330
C
102
}
330
C
100
AcDbDictionary
281
     1
  3
DIMASSOC
350
68
  3
HIDETEXT
350
6C
  0
DICTIONARYVAR
  5
68
102
{ACAD_REACTORS
330
67
102
}
330
67
100
DictionaryVariables
280
     0
  1
2
  0
DICTIONARYVAR
  5
6C
102
{ACAD_REACTORS
330
67
102
}
330
67
100
DictionaryVariables
280
     0
  1
1
  0
DICTIONARY
  5
E0
330
D2
100
AcDbDictionary
280
     1
281
     1
  3
ACAD_DIMASSOC
360
EA
  0
DICTIONARY
  5
F8
330
EB
100
AcDbDictionary
280
     1
281
     1
  3
ACAD_DIMASSOC
360
102
  0
DICTIONARY
  5
11D
330
110
100
AcDbDictionary
280
     1
281
     1
  3
ACAD_DIMASSOC
360
127
  0
DICTIONARY
  5
142
330
135
100
AcDbDictionary
280
     1
281
     1
  3
ACAD_DIMASSOC
360
14C
  0
DICTIONARY
  5
15A
330
14D
100
AcDbDictionary
280
     1
281
     1
  3
ACAD_DIMASSOC
360
164
  0
DICTIONARY
  5
172
330
165
100
AcDbDictionary
280
     1
281
     1
  3
ACAD_DIMASSOC
360
17C
  0
DICTIONARY
  5
194
330
18A
100
AcDbDictionary
280
     1
281
     1
  3
ACAD_DIMASSOC
360
19B
  0
DICTIONARY
  5
1A6
330
19C
100
AcDbDictionary
280
     1
281
     1
  3
ACAD_DIMASSOC
360
1AD
  0
DICTIONARY
  5
1B9
330
1AE
100
AcDbDictionary
280
     1
281
     1
  3
ACAD_DIMASSOC
360
1C1
  0
DICTIONARY
  5
1CD
330
1C2
100
AcDbDictionary
280
     1
281
     1
  3
ACAD_DIMASSOC
360
1D5
  0
DICTIONARY
  5
1E1
330
1D6
100
AcDbDictionary
280
     1
281
     1
  3
ACAD_DIMASSOC
360
1E9
  0
DICTIONARY
  5
205
330
1FC
100
AcDbDictionary
280
     1
281
     1
  3
ACAD_DIMASSOC
360
20B
  0
DICTIONARY
  5
215
330
20C
100
AcDbDictionary
280
     1
281
     1
  3
ACAD_DIMASSOC
360
21B
  0
DICTIONARY
  5
229
330
21C
100
AcDbDictionary
280
     1
281
     1
  3
ACAD_DIMASSOC
360
233
  0
DICTIONARY
  5
252
330
245
100
AcDbDictionary
280
     1
281
     1
  3
ACAD_DIMASSOC
360
25C
  0
DICTIONARY
  5
26A
330
25D
100
AcDbDictionary
280
     1
281
     1
  3
ACAD_DIMASSOC
360
274
  0
DICTIONARY
  5
282
330
275
100
AcDbDictionary
280
     1
281
     1
  3
ACAD_DIMASSOC
360
28C
  0
DICTIONARY
  5
29A
330
28D
100
AcDbDictionary
280
     1
281
     1
  3
ACAD_DIMASSOC
360
2A4
  0
DICTIONARY
  5
2A7
330
2A5
100
AcDbDictionary
280
     1
281
     1
  3
ACAD_DIMASSOC
360
2A8
  0
ENDSEC
  0
SECTION
  2
THUMBNAILIMAGE
 90
    18627
310
BF4800000201030100005000000002530100005C480000000000000000000000000000000000000000000000000000000000000000000000000000000000000000000000000000000000000000000000000000000000000000000000000000000000000000000028000000B400000061000000010008000000000034440000
310
00000000000000000001000000000000FFFFFF00FFFFFF0000000000FFFFFF00FFFFFF00FFFFFF00FFFFFF00FFFFFF00FFFFFF00FFFFFF00FFFFFF00330000006600000099000000CC000000FF00000000330000333300006633000099330000CC330000FF33000000660000336600006666000099660000CC660000FF6600
310
0000990000339900006699000099990000CC990000FF99000000CC000033CC000066CC000099CC0000CCCC0000FFCC000000FF000033FF000066FF000099FF0000CCFF0000FFFF000000003300330033006600330099003300CC003300FF00330000333300333333006633330099333300CC333300FF333300006633003366
310
33006666330099663300CC663300FF66330000993300339933006699330099993300CC993300FF99330000CC330033CC330066CC330099CC3300CCCC3300FFCC330000FF330033FF330066FF330099FF3300CCFF3300FFFF330000006600330066006600660099006600CC006600FF00660000336600333366006633660099
310
336600CC336600FF33660000666600336666006666660099666600CC666600FF66660000996600339966006699660099996600CC996600FF99660000CC660033CC660066CC660099CC6600CCCC6600FFCC660000FF660033FF660066FF660099FF6600CCFF6600FFFF660000009900330099006600990099009900CC009900
310
FF00990000339900333399006633990099339900CC339900FF33990000669900336699006666990099669900CC669900FF66990000999900339999006699990099999900CC999900FF99990000CC990033CC990066CC990099CC9900CCCC9900FFCC990000FF990033FF990066FF990099FF9900CCFF9900FFFF99000000CC
310
003300CC006600CC009900CC00CC00CC00FF00CC000033CC003333CC006633CC009933CC00CC33CC00FF33CC000066CC003366CC006666CC009966CC00CC66CC00FF66CC000099CC003399CC006699CC009999CC00CC99CC00FF99CC0000CCCC0033CCCC0066CCCC0099CCCC00CCCCCC00FFCCCC0000FFCC0033FFCC0066FF
310
CC0099FFCC00CCFFCC00FFFFCC000000FF003300FF006600FF009900FF00CC00FF00FF00FF000033FF003333FF006633FF009933FF00CC33FF00FF33FF000066FF003366FF006666FF009966FF00CC66FF00FF66FF000099FF003399FF006699FF009999FF00CC99FF00FF99FF0000CCFF0033CCFF0066CCFF0099CCFF00CC
310
CCFF00FFCCFF0000FFFF0033FFFF0066FFFF0099FFFF00CCFFFF0000000000FFFFFF000D0D0D001A1A1A00282828003535350043434300505050005D5D5D006B6B6B00787878008686860093939300A1A1A100AEAEAE00BBBBBB00C9C9C900D6D6D600E4E4E400F1F1F10000000000FFFFFF00FFFFFF00FFFFFF00FFFFFF00
310
FFFFFF00FFFFFF00FFFFFF00FFFFFF00FFFFFF00FFFFFF0000000000000000000000000000000000000000000000000000000000000000000000000000000000000000000000000000000000000000000000000000000000000000000000000000000000000000000000000000000000000000000000000000000000000000
310
00000000000000000000000000000000000000000000000000000000000000000000000000000000000000000000000000000000000000000000000000000000000000000000000000000000000000000000000000000000000000000000000000000000000000000000000000000000000000000000000000000000000000
310
00000000000000000000000000000000000000000000000000000000000000000000000000000000000000000000000000000000000000000000000000000000000000000000000000000000000000000000000000000000000000000000000000000000000000000000000000000000000000000000000000000000000000
310
00000000000000000000000000000000000000000000000000000000000000000000000000000000000000000000000000000000000000000000000000000000000000000000000000000000000000000000000000000000000000000000000000000000000000000000000000000000000000000000000000000000000000
310
00000000000000000000000000000000000000000000000000000000000000000000000000000000000000000000000000000000000000000000000000000000000000000000000000000000000000000000000000000000000000000000000000000000000000000000000000000000000000000000000000000000000000
310
00000000000000000000000000000000000000000000000000000000000000000000000000000000000000000000000000000000000000000000000000000000000000000000000000000000000000000000000000000000000000000000000000000000000000000000000000000000000000000000000000000000000000
310
00000000000000000000000000000000000000000000000000000000000000000000000000000000000000000000000000000000000000000000000000000000000000000000000000000000000000000000000000000000000000000000000000000000000000000000000000000000000000000000000000000000000000
310
00000000000000000000000000000000000000000000000000000000000000000000000000000000000000000000000000000000000000000000000000000000000000000000000000000000000000000000000000000000000000000000000000000000000000000000000000000000000000000000000000000000000000
310
00000000000000000000000000000000000000000000000000000000000000000000000000000000000000000000000000000000000000000000000000000000000000000000000000000000000000000000000000000000000000000000000000000000000000000000000000000000000000000000000000000000000000
310
00000000000000000000000000000000000000000000000000000000000000000000000000000000000000000000000000000000000000000000000000000000000000000000000000000000000000000000000000000000000000000000000000000000000000000000000000000000000000000000000000000000000000
310
00000000000000000000000000000000000000000000000000000000000000000000000000000000000000000000000000000000000000000000000000000000000000000000000000000000000000000000000000000000000000000000000000000000000000000000000000000000000000000000000000000000000000
310
00000000000000000000000000000000000000000000000000000000000000000000000000000000000000000000000000000000000000000000000000000000000000000000000000000000000000000000000000000000000000000000000000000000000000000000000000000000000000000000000000000000000000
310
00000000000000000000000000000000000000000000000000000000000000000000000000000000000000000000000000000000000000000000000000000000000000000000000000000000000000000000000000000000000000000000000000000000000000000000000000000000000000000000000000000000000000
310
00000000000000000000000000000000000000000000000000000000000000000000000000000000000000000000000000000000000000000000000000000000000000000000000000000000000000000000000000000000000000000000000000000000000000000000000000000000000000000000000000000000000000
310
00000000000000000000000000000000000000000000000000000000000000000000000000000000000000000000000000000000000000000000000000000000000000000000000000000000000000000000000000000000000000000000000000000000000000000000000000000000000000000000000000000000000000
310
00000000000000000000000000000000000000000000000000000000000000000000000000000000000000000000000000000000000000000000000000000000000000000000000000000000000000000000000000000000000000000000000000000000000000000000000000000000000000000000000000000000000000
310
0000000000000000000000000000000000000000000000000000000000000000009E000000000000000000000000000000000000000000000000009E00000000000000000000000000000000000000000000000000000000000000000000009E00000000000000000000000000000000000000000000000000000000000000
310
00000000000000000000000000000000000000000000000000000000000000000000000000000000000000000000000000000000000000000000000000000000000000000000000000000000000000000000000000009E9E9E9E9E9E9E9E9E9E9E9E9E9E9E9E9E9E9E9E9E9E9E9E9E9E9E9E9E9E9E9E9E9E9E9E9E9E9E9E9E
310
9E9E9E9E9E9E9E9E9E9E9E9E9E9E9E9E9E9E9E9E9E9E000000000000000000000000000000000000000000000000000000000000000000000000000000000000000000000000000000000000000000000000000000000000000000000000000000000000000000000000000000000000000000000000000000000000000000
310
0000000000000000000000009E000000000000000000009E9E9E9E9E000000000000000000009E9E9E000000000000000000000000009E9E9E9E9E000000000000000000000000009E9E9E00000000000000000000000000000000000000000000000000000000000000000000000000000000000000000000000000000000
310
00000000000000000000000000000000000000000000000000000000000000000000000000000000000000000000000000000000000000000000000000000000009E00000000000000000000009E9E9E00000000000000000000009E0000000000000000000000000000009E9E9E9E9E000000000000000000000000000000
310
9E0000000000000000000000000000000000000000000000000000000000000000000000000000000000000000000000000000000000000000000000000000000000000000000000000000000000000000000000000000000000000000000000000000000000000000000000000000000000000000009E0000000000000000
310
0000009E9E9E00000000000000000000009E0000000000000000000000000000009E9E9E9E9E0000000000000000000000000000009E00000000000000000000000000000000000000000000000000000000000000000000000000000000000000000000000000000000000000000000000000000000000000000000000000
310
00000000000000000000000000000000000000000000000000000000000000000000000000000000000000009E000000000000000000000000000000000000000000000000009E00000000000000000000000000000000000000000000000000000000000000000000009E0000000000000000000000000000000000000000
310
000000000000000000000000000000000000000000000000000000000000000000000000000000000000000000000000000000000000000000000000000000000000000000000000000000000000000000000000000000000000000000000000009E000000000000000000000000000000000000000000000000009E000000
310
00000000000000000000000000000000000000000000000000000000000000009E00000000000000000000000000000000000000000000000000000000000000000000000000000000000000000000000000000000000000000000000000000000000000000000000000000000000000000000000000000000000000000000
310
00000000000000000000000000000000000000000000009E000000000000000000000000000000000000000000000000009E00000000000000000000000000000000000000000000000000000000000000000000009E0000000000000000000000000000000000000000000000000000000000000000000000000000000000
310
000000000000000000000000000000000000000000000000000000000000000000000000000000000000000000000000000000000000000000000000000000000000000000000000000000009E000000000000000000000000000000000000000000000000009E000000000000000000000000000000000000000000000000
310
00000000000000000000009E00000000000000000000000000000000000000000000000000000000000000000000000000000000000000000000000000000000000000000000000000000000000000000000000000000000000000000000000000000000000000000000000000000000000000000000000000000000000000
310
00009E000000000000000000000000000000000000000000000000009E00000000000000000000000000000000000000000000000000000000000000000000009E0000000000000000000000000000000000000000000000000000000000000000000000000000000000000000000000000000000000000000000000000000
310
000000000000000000000000000000000000000000000000000000000000000000000000000000000000000000000000000000000000009E00000000000000009E9E9E9E9E9E9E000000000000000000009E00000000000000000000000000000000000000000000000000000000000000000000009E000000000000000000
310
0000000000000000000000000000000000000000000000000000000000000000000000000000000000000000000000000000000000000000000000000000000000000000000000000000000000000000000000000000000000000000000000000000000000000000000000009E00000000000000009E9E9E9E9E9E9E9E0000
310
00000000F5F5F59EF5F5F500000000009E9E9E9E9E9E9E00000000000000000000000000000000000000009E0000000000000000000000000000000000000000000000000000000000000000000000000000000000000000000000000000000000000000000000000000000000000000000000000000000000000000000000
310
000000000000000000000000000000000000000000000000000000000000000000009E00000000000000009E9E9E9E9E9E9E009E000000F5F5F5F5F59EF5F5F5F5F500009E009E9E9E9E9E9E00000000000000000000000000000000000000009E000000000000000000000000000000000000000000000000000000000000
310
0000000000000000000000000000000000000000000000000000000000000000000000000000000000000000000000000000000000000000000000000000000000000000000000000000000000000000000000000000009E00000000000000009E9E9E9E9E9E00009E009EF5F5F5F5F5F59EF5F5F5F5F5F59E009E9E9E9E9E
310
9E9E00000000000000000000000000000000000000009E0000000000000000000000000000000000000000000000000000000000000000000000000000000000000000000000000000000000000000000000000000000000000000000000000000000000000000000000000000000000000000000000000000000000000000
310
000000000000000000000000009E00000000000000000000009E009E0000009E9E9EF5F5F5F5F59E00F5F5F5F59EF5F59E9E9E9E009E0000000000000000000000000000000000000000009E000000000000000000000000000000000000000000000000000000000000000000000000000000000000000000000000000000
310
0000000000000000000000000000000000000000000000000000000000000000000000000000000000000000000000000000000000000000000000000000000000009E0000000000000000000000000000000000F59E9EF5F500F5F59EF5F500F59EF5F5F50000009E009E0000000000000000000000000000000000000000
310
009E000000000000000000000000000000000000000000000000000000000000000000000000000000000000000000000000000000000000000000000000000000000000000000000000000000000000000000000000000000000000000000000000000000000000000000009E000000000000000000009E00000000000000
310
000000000000000000F5F5F5F59EF5F5F5F59EF5F5F59E9EF5F5F5F500000000000000000000000000000000000000000000000000009E000000000000000000000000000000000000000000000000000000000000000000000000000000000000000000000000000000000000000000000000000000000000000000000000
310
0000000000000000000000000000000000000000000000000000000000000000000000000000000000000000009E00000000000000000000000000000000F5F5F5F5009EF5F5F59EF5F59E9EF5F5F5F5F500000000000000000000000000000000000000000000000000009E00000000000000000000000000000000000000
310
00000000000000000000000000000000000000000000000000000000000000000000000000000000000000000000000000000000000000000000000000000000000000000000000000000000000000000000000000000000000000000000000000009E00000000000000000000000000000000F5F5F5F5F5F59EF5F59EF59E
310
F5F5F500F5F5F500000000000000000000000000000000000000000000000000009E000000000000000000000000000000000000000000000000000000000000000000000000000000000000000000000000000000000000000000000000000000000000000000000000000000000000000000000000000000000000000000
310
0000000000000000000000000000000000000000000000009E00000000000000000000000000000000F5F5F500F5F5F59E009E9EF5F5F5F500F5F5F500000000000000000000000000000000000000000000000000009E00000000000000000000000000000000000000000000000000000000000000000000000000000000
310
000000000000000000000000000000000000000000000000000000000000000000000000000000000000000000000000000000000000000000009E9E9E9E9E9E9E9E9E9E9E9E9E9E9E9E9E9E9E9E9E9E9E9E9E9E9E9E9E9E9E9E9E9E9E9E9E9E9E9E9E9E9E9E9E9E9E9E9E9E9E9E9E9E9E9E9E9E9E9E9E9E9E9E9E9E9E9E9E
310
9E9E9E9E9E9E9E9E9E9E9E9E9E9E9E9E9E9E9E9E9E9E9E9E9E9E9E9E9E9E9E9E9E9E9E0000000000000000000000000000000000000000000000000000000000000000000000000000000000000000000000000000000000000000000000000000000000000000000000000000000000009E00000000000000000000000000
310
0000009E00000000000000009E00000000000000F5F5F500F5F5F500009E9E00F5F5F500F5F5F500000000000000000000000000000000000000000000000000009E000000000000000000000000000000000000009E0000000000000000000000000000000000000000000000000000000000000000000000000000000000
310
00000000000000000000000000000000000000000000000000000000000000000000000000009E9E000000000000000000000000000000009E00000000000000009E9E0000000000F5F5F5F500F5F5F5F59EBE009EF5F5F500F5F5F500000000000000000000000000000000000000000000000000009E0000000000000000
310
00000000000000000000009E9E0000000000000000000000000000000000000000000000000000000000000000000000000000000000000000000000000000000000000000000000000000000000000000000000000000000000009E9E000000000000000000000000000000009E009E0000000000009E9E0000000000F5F5
310
F5F5F5F5F5F59EF5F5F5F59EF5F500F5F5F500000000000000000000000000000000000000000000000000009E000000000000000000000000000000000000009E9E00000000000000000000000000000000000000000000000000000000000000000000000000000000000000000000000000000000000000000000000000
310
0000000000000000000000000000000000009E000000000000000000000000000000009E009E9E9E000000009E000000000000F5F5F5F5F500F59EF5F5F5F5F5F59EF5F5F5F5F50000009E9E9E9E9E0000000000000000000000000000000000009E000000000000000000000000000000000000009E000000000000000000
310
00000000000000000000000000000000000000000000000000000000000000000000000000000000000000000000000000000000000000000000000000000000000000000000009E000000000000000000000000000000009E009E9E9E9E9E00009E0000000000F5F5F5F5F5F5F59EF5F5F5F5F5F5F5F59EF5F5F5F500009E
310
009E9E9E9E0000000000000000000000000000000000009E000000000000000000000000000000000000009E00000000000000000000000000000000000000000000000000000000000000000000000000000000000000000000000000000000000000000000000000000000000000000000000000000000000000009E0000
310
00000000000000000000000000009E9E9E9E9E9E9E9E9E9E0000000000F5F5F5F5F5F5F59E00F5F5F5F5F500F5F59EF5F50000009E009E9E9E9E0000000000000000000000000000000000009E000000000000000000000000000000000000009E000000000000000000000000000000000000000000000000000000000000
310
00000000000000000000000000000000000000000000000000000000000000000000000000000000000000000000000000009E000000000000000000000000000000009E009E9E9E9E9E9E009E9E00000000F5F5F500F5F59EF5F5F5F50000F5F5F5F5F59E9E00009E00009E9E9E9E00000000000000000000000000000000
310
00009E000000000000000000000000000000000000009E00000000000000000000000000000000000000000000000000000000000000000000000000000000000000000000000000000000000000000000000000000000000000000000000000000000000000009E000000000000000000000000000000009E0000009E9E9E
310
00009E009E9E00F5F5F5F59E00F5F5F5F5F5F5F5F5F5F5F5F5F5F59E9E9E9E00009E9E9E9E0000000000000000000000000000000000009E000000000000000000000000000000000000009E000000000000000000000000000000000000000000000000000000000000000000000000000000000000000000000000000000
310
00000000000000000000000000000000000000000000000000000000009E000000000000000000000000000000009E000000009E9E00009E00009E9EF5F5F5F59E0000F5F5F5F5F5F5F5F5F5F5F5F500009E009E0000000000000000000000000000000000000000000000009E000000000000000000000000000000000000
310
009E00000000000000000000000000000000000000000000000000000000000000000000000000000000000000000000000000000000000000000000000000000000000000000000000000000000000000009E000000000000000000000000000000009E00000000000000009E0000009E9EF5F5009E9E9E9E9E9E9E9E9E9E
310
9E9E9E9E9E9E9E9E9E9E9E9E9E9E9E9E9E9E9E9E9E9E9E9E9E9E9E9E9E9E9E9E9E9E9E000000000000000000000000000000009E9E9E9E000000000000000000000000000000000000000000000000000000000000000000000000000000000000000000000000000000000000000000000000000000000000000000000000
310
00000000000000009E000000000000000000000000000000009E00000000000000009E0000F5F5F5F5F5009E000000000000009E9E9E9EF5F5F5009E00009E000000000000000000009E9E9E9E000000000000000000009E000000000000000000000000000000009E9E9E9E00000000000000000000000000000000000000
310
000000000000000000000000000000000000000000000000000000000000000000000000000000000000000000000000000000000000000000000000009E000000000000000000000000000000009E000000000000009E9E0000F5F5F5F500009E000000000000009E9E9E9EF5F5F59E9E00009E000000000000000000009E
310
9E9E9E000000000000000000009E000000000000000000000000000000009E9E9E9E00000000000000000000000000000000000000000000000000000000000000000000000000000000000000000000000000000000000000000000000000000000000000000000000000000000000000009E000000000000000000000000
310
000000009E00000000009E9E9E9E00F5F5F5F50000009E000000000000009E9E9E9EF5F5F59EF5F5009E000000000000000000009E9E9E9E000000000000000000009E000000000000000000000000000000009E9E9E9E00000000000000000000000000000000000000000000000000000000000000000000000000000000
310
000000000000000000000000000000000000000000000000000000000000000000000000000000009E000000000000000000000000000000009E00000000009E9E9E9EF5F5F5F5F50000009E0000000000000000000000F5F59EF5F5F5F59EF5F5F5F5F5F5F5F5F5F5F5F5F5F5F5F5F5F5F5F5F5F5F5F59EF5F5F5F5000000
310
0000000000000000000000009E0000000000000000000000000000000000000000000000000000000000000000000000000000000000000000000000000000000000000000000000000000000000000000000000000000000000009E9E9E000000000000000000000000000000009E00000000009E9E9E9EF5F5F5F5000000
310
009E000000000000000000000000F5F5F5F5F5F59EF5F5F5F5F5F5F5F5F5F5F5F5F5F5F5F5F5F5F5F5F5F5F5F59EF5F5F5F5F5F5000000000000000000000000009E00000000000000000000000000000000000000000000000000000000000000000000000000000000000000000000000000000000000000000000000000
310
000000000000000000000000000000009E9E9E9E000000000000000000000000000000009E000000000000F5F59EF5F5F500000000009E0000000000F5F5F5F5F5F5F5F5F5F5F5F5F59EF5F5F5F5F5F5F5F5F5F5F5F5F5F5F5F5F5F5F59EF5F5F5F59EF5F5F5F5F5F5F50000000000000000000000009E0000000000000000
310
0000000000000000000000000000000000000000000000000000000000000000000000000000000000000000000000000000000000000000000000000000000000000000009E9E9E9E000000000000000000000000000000009E000000000000F5F59EF5F50000000000009E00F5F5F5F5F5F5F5F5F5F5F5F5F5F5F5F5F59E
310
000000000000000000000000009E0000F5F5F5F59E9E00009E0000F5F5F5F5F5F500000000000000000000009E00000000000000000000000000000000000000000000000000000000000000000000000000000000000000000000000000000000000000000000000000000000000000000000000000000000009E9E9E9E00
310
0000000000000000000000000000009E0000000000F5F5F59E00000000000000009EF5F5F5F59EF5F5F5F5F5F5F5F5F5F5F5F5F59EF5F50000000000000000000000009E9EF5F5F5F59E9E9EF59EF5F5F5F5F5F5F5F500000000000000000000009E0000000000000000000000000000000000000000000000000000000000
310
0000000000000000000000000000000000000000000000000000000000000000000000000000000000000000000000009E9E9E9E000000000000000000000000000000009E000000F5F5F5F5F59E000000000000F5F59EF5F5F5F59E9EF5000000000000F5F5F5F5F59EF5F5F500000000000000000000009E9E9EF5F5F5F5
310
9E9EF59EF5F5F5F5F5F5F5F5F5000000000000000000009E00000000000000000000000000000000000000000000000000000000000000000000000000000000000000000000000000000000000000000000000000000000000000000000000000000000000000009E000000000000000000000000000000009EF5F5F5F5F5
310
F5F5F59E00000000F5F5F5F59EF5F5F5009E9E00000000000000000000F5F59EF5F5F5F50000000000000000000000F5F59E9EF5F5F5F59E9EF5F5F5F5F5F5F5F5F5000000000000000000009E0000000000000000000000000000000000000000000000000000000000000000000000000000000000000000000000000000
310
0000000000000000000000000000000000000000000000000000000000009E000000000000000000000000000000F59EF5F5F5F5F59EF5009E00000000F5F5F5F59EF5000000009E0000000000000000000000009EF5F5F5F500000000000000000000F5F5F5F5009E9EF5F59E9EF5F5F5F5F5F5F5F5F50000000000000000
310
00009E9E000000000000000000000000000000000000000000000000000000000000000000000000000000000000000000000000000000000000000000000000000000000000000000000000000000000000009E000000000000000000000000F5F5F5F59EF5F5F5F59E9E00009E000000F5F5F5F5F59E000000009E9E9E00
310
000000000000000000009EF5F5F5F500000000000000000000F5F5F5F500F5F59E9E009E00F5F5F5F500F5F5F5000000000000000000009E9E00000000000000000000000000000000000000000000000000000000000000000000000000000000000000000000000000000000000000000000000000000000000000000000
310
0000000000000000009E00000000000000000000F5F5F5F5F5F59EF5F5F5F59E0000009E0000F5F5F5F5F5009E00009E9E9E9E9E000000000000000000BEBE9EBEF5F5F500000000000000000000F5F5F5F500F5F5F5BE9E9E9E9E9E9E9E9E9E9E9E9E9E9E9E9E9E9E9E9E9E9E9E9E00000000000000000000000000000000
310
00000000000000000000000000000000000000000000000000000000000000000000000000000000000000000000000000000000000000000000000000009E0000000000000000F5F5F5F5F5F5F5F59EF5F5F59EF5F5F5009E00F5F5F5F5F500009E00009E9E9E9E9E0000000000000000000000BE00F5F5F5000000000000
310
00000000F5F5F5F500F5F5F500009E9E9EF5F5F500F5F5F5000000000000000000000000000000000000000000000000000000000000000000000000000000000000000000000000000000000000000000000000000000000000000000000000000000000000000000000000000000000000009E00000000000000F5F5F5F5
310
F5F5F5F5009E00F5F59EF5F5F5F59E9EF5F5F5F50000009E0000009E9E9E9E0000F5F5F5F5F5F5F5F5F5F5F5F59EF500000000000000000000F5F5F5F500F5F5F5F5F59E9EF59E9EF5F5F5F5F50000000000000000000000000000000000000000000000000000000000000000000000000000000000000000000000000000
310
00000000000000000000000000000000000000000000000000000000000000000000000000000000009E000000000000F5F5F5F5F5F5000000009E00009EF5F5F5F5F59E9EF5F5F5000000009E0000009E9E9E9E9EF5F5F5F5F5F5F5F5F5F5F5F5F5F59E009E9E9E9E9E0000000000F5F5F5F5F5F5F5F5F59EF59EF5F59E9E
310
F5F5F5000000000000000000000000000000000000000000000000000000000000000000000000000000000000000000000000000000000000000000000000000000000000000000000000000000000000000000000000000000000000009E000000000000F5F5F5F5F500000000009E00009E00F5F5F59E9E9E9E9E9E9E9E
310
9E9E9EBE00009E9E9E9E9EF5F5F5F5F5F5F5F5F5F5F5F5F5F59E9E9E9E9E9E9E0000000000F5F5F5F500F5F5F5F59EF5F59EF5F5F59E9E9E0000000000000000000000000000000000000000000000000000000000000000000000000000000000000000000000000000000000000000000000000000000000000000000000
310
00000000000000000000000000000000000000009E0000000000F5F5F5F5F5F5F5F5F5F5F59EF59EF50000F5F5F5F5F5F5F5F5000000009E0000009E9E9E9E9EF5F5F500000000000000000000000000009E9E9E9E000000000000F5F5F5F5F5F5F5F59EF5F59EF5F5F5F59E9E9E9E00000000000000000000000000000000
310
0000000000000000000000000000000000000000000000000000000000000000000000000000000000000000000000000000000000000000000000000000000000009E9E9E9E9E9E9E9E9E9E9E9E9E9E9EF5F5F5F5F5F5F5F5F59EF59EF5F50000F5F5F5F500F5F5F50000009E000000F5F5F5F5F5F5000000000000000000
310
0000000000009E9E9E9E9E000000000000F5F5F5F5F5F500009E00F5F59EF5F5F5F50000009E9E9E9E9E9E00000000000000000000000000000000000000000000000000000000000000000000000000000000000000000000000000000000000000000000000000000000000000000000000000000000009E9E000000009E
310
0000000000F5F5F5F5F5F5F5F5F5F5F59E9EF5F5F5F50000F5F5F5F5F5F5F50000009E000000F5F5F5F500000000F5F5F5F5F5F50000000000000000F5F5F5F5F5F5F5F5F5F5F5F5F5F5F5F5F5F59EF5F5F5F59EF5F5000000009E9E9E9E9E9E9E000000000000000000000000000000000000000000000000000000000000
310
000000000000000000000000000000000000000000000000000000000000000000000000000000000000000000009E9E0000009E9E000000000000000000000000000000009E9EF5F5F5F50000F5F5F5F5F5F5F5F5009E00F5F5F5F5F5F500000000F5F5F5F5F5F5F5F50000000000F5F5F5F5F5F5F5F5F5F5F5F5F5F5F5F5
310
F5F5F5F59EF5F5F5F59E0000000000009E9E9E9E9E9E00000000000000000000000000000000000000000000000000000000000000000000000000000000000000000000000000000000000000000000000000000000000000000000000000009E9E9E9E000000009E9E000000000000000000000000000000009E0000F5F5
310
F5F50000F5F5F5F5F5F5F5F59EF5F5F5F5F5F500000000F5F5F5F5F5F5F5F5F5F5000000F5F5F59EF5F5F5F5F5F5F5F5F5F5F5F5F5F5F5F5F59EF5F5F5F5009E9E9E9E9E9E009E9E9E9E9E00000000000000000000000000000000000000000000000000000000000000000000000000000000000000000000000000000000
310
000000000000000000000000000000000000000000009E9E9E9E00000000009E000000000000000000000000000000009E0000F5F5F5F50000F5F5F500F5F5F5F59EF5F5F5F5F50000000000F5F5F5F5F5F5F5F5F5F5F50000F5F5F59E9EF50000000000000000000000000000009E00000000009E9E9E9E9E9E9E00000000
310
0000000000000000000000000000000000000000000000000000000000000000000000000000000000000000000000000000000000000000000000000000000000000000000000000000009E9E9E9E0000009E9E9E9E9E9E9E9E9E9E9E9E9E9E9E9E9E9E9E9EBE00F5F5F5F50000F5F5F5000000F5F59EF5F5F50000000000
310
0000F5F5F5F500BE00F5F5F5F500F5F5F5F59E9E000000000000000000000000000000009E00000000009E9E9E9E009E00000000000000000000000000000000000000000000000000000000000000000000000000000000000000000000000000000000000000000000000000000000000000000000000000000000000000
310
009E9E9E9E0000000000000000000000000000000000000000009EBE0000F5F5F5F50000F5F5F5000000009E9E00000000000000000000F5F5F5BEBE9EBEF5F5F5F500F5F5F5F500009E0000000000000000000000000000009E00000000009E9E009E009E0000000000000000000000000000000000000000000000000000
310
0000000000000000000000000000000000000000000000000000000000000000000000000000000000000000000000000000000000000000009E9E000000000000000000000000000000000000009E000000F5F5F5F50000F5F5F5F500000000009E00000000000000000000F5F5F59E9E9E9EF5F5F5F500F5F5F50000009E
310
0000000000000000000000000000009E000000000000000000000000000000000000000000000000000000000000000000000000000000000000000000000000000000000000000000000000000000000000000000000000000000000000000000000000000000000000000000009E9E000000000000000000000000000000
310
000000009EF5F5F5F5F5F5F50000F5F5F5F5000000009E0000000000000000000000F59E9EF5009E9EF5F5F5F5F5F5F5F5000000009E00000000000000000000000000009E00000000000000000000000000000000000000000000000000000000000000000000000000000000000000000000000000000000000000000000
310
0000000000000000000000000000000000000000000000000000000000000000000000009E000000000000000000000000F5F5F5F5F5F5F59EF5F5F5F5F5F5F50000F5F5F59E9E9E9E9E9E9E000000000000000000009E9EF5F5F5F59EF59EF5F5F5F5F5F5F500000000009E000000000000000000000000009E0000000000
310
000000000000000000000000000000000000000000000000000000000000000000000000000000000000000000000000000000000000000000000000000000000000000000000000000000000000000000000000000000009E9E9E9E9E9E9E9E9E9E9E9E9E9E9EF5F5F5F5F5F59EF5F5F5F5F5F50000F5F5F5F59E9E9E9E9E
310
9E9E000000009E9E9E9E9E9E00F5F5F5F5F59EF59EF5F5F5F5F5F5F500000000009E000000000000000000000000009E00000000000000000000000000000000000000000000000000000000000000000000000000000000000000000000000000000000000000000000000000000000000000000000000000000000000000
310
00000000000000000000000000000000000000000000000000000000F5F5F5F5F5F59EF5F5F5F500000000F5F5F5F5F59E9E009E9E9E9E00000000009E9E9E00000000F5F5F5F59EF5F59EF5F5F5F5F5000000000000009E0000000000000000000000009E0000000000000000000000000000000000000000000000000000
310
000000000000000000000000000000000000000000000000000000000000000000000000000000000000000000000000000000000000000000000000000000000000000000000000000000000000000000F5F5F5F5F5F59E00000000000000F5F5F5F5F5F59E9E9E9E9E9E9E00000000009E9E9E00000000000000009E0000
310
9EF5F5F5F5F5000000000000009E0000000000000000000000009E00000000000000000000000000000000000000000000000000000000000000000000000000000000000000000000000000000000000000000000000000000000000000000000000000000000000000000000000000000000000000000000000000000000
310
0000000000000000F5F5F5F59EF5F500000000F5F5F5F5F5F5F5009E9E9E9E009E00000000009E9E9E9E9E000000000000009EF5F5F59EF5F5F50000000000000000009E9E9E9E9E9E9E00000000009E0000000000000000000000000000000000000000000000000000000000000000000000000000000000000000000000
310
0000000000000000000000000000000000000000000000000000000000000000000000000000000000000000000000000000000000000000000000000000F5F5F59EF5F5F5F5F5F5F5F5F5F5F5F5F5F5F5F5F5F5F5F5F5F5F5F5F5F5F5F5F5F5F5F5F5F5F5F5F59EF5F5F5F59EF500000000000000000000009E9E9E009E9E
310
00000000009E0000000000000000000000000000000000000000000000000000000000000000000000000000000000000000000000000000000000000000000000000000000000000000000000000000000000000000000000000000000000000000000000000000000000000000000000000000009E9EF5F5F5F5F5F5F5F5
310
F5F5F5F5F5F5F5F5F5F5F5F5F5F5F5F5F5F5F5F5F5F5F5F5F5F5F5F5F59EF5F5F5F59E9E00000000000000000000009E9E9E009E9E00000000009E0000000000000000000000000000000000000000000000000000000000000000000000000000000000000000000000000000000000000000000000000000000000000000
310
000000000000000000000000000000000000000000000000000000000000000000000000000000000000009E00F5F5F5F5F5F5F5F5F5F5F5F5F5F5F5F5F5F5F5F5F5F5F5F5F5F5F5F5F5F5F5F5F5F5F5F5F59EF5000000009E000000000000000000009E9E9E9E009E9E00000000009E000000000000000000000000000000
310
00000000000000000000000000000000000000000000000000000000000000000000000000000000000000000000000000000000000000000000000000000000000000000000000000000000000000000000000000000000000000000000009E00000000000000000000000000000000000000000000000000000000000000
310
00000000000000009E00000000009E000000000000000000000000000000000000000000009E0000000000000000000000000000000000000000000000000000000000000000000000000000000000000000000000000000000000000000000000000000000000000000000000000000000000000000000000000000000000
310
0000000000000000000000000000000000000000009E0000000000000000000000000000000000000000000000000000000000000000000000000000009E0000000000009E9E9E9E9E9E9E9E00000000000000000000000000009E000000000000000000000000000000000000000000000000000000000000000000000000
310
000000000000000000000000000000000000000000000000000000000000000000000000000000000000000000000000000000000000000000000000000000000000000000000000009E000000000000000000000000000000000000000000000000000000000000000000000000000000009E000000000000009E9E9E9E9E
310
9E9E00000000000000000000000000009E000000000000000000000000000000000000000000000000000000000000000000000000000000000000000000000000000000000000000000000000000000000000000000000000000000000000000000000000000000000000000000000000000000000000000000000000009E
310
000000000000000000000000000000000000000000000000000000000000000000000000000000009E000000000000009E9E9E9E009E0000000000000000000000000000009E000000000000000000000000000000000000000000000000000000000000000000000000000000000000000000000000000000000000000000
310
0000000000000000000000000000000000000000000000000000000000000000000000000000000000000000000000000000009E00000000000000000000000000000000000000000000000000000000000000000000000000000000009E000000000000009E9E9E9E009E0000000000000000000000000000009E00000000
310
00000000000000000000000000000000000000000000000000000000000000000000000000000000000000000000000000000000000000000000000000000000000000000000000000000000000000000000000000000000000000000000000000000000000000009E00000000000000000000000000000000000000000000
310
000000000000000000000000000000000000009E000000000000000000000000000000000000000000000000000000009E000000000000000000000000000000000000000000000000000000000000000000000000000000000000000000000000000000000000000000000000000000000000000000000000000000000000
310
00000000000000000000000000000000000000000000009E9E9E9E9E9E9E0000000000000000000000000000000000000000000000000000000000000000000000000000000000009E000000000000000000000000000000000000000000000000000000009E00000000000000000000000000000000000000000000000000
310
000000000000000000000000000000000000000000000000000000000000000000000000000000000000000000000000000000000000000000000000000000000000000000000000000000009E9E9E9E9E9E9E0000000000000000000000000000000000000000000000000000000000000000000000000000000000009E00
310
0000000000000000000000000000000000000000000000000000009E000000000000000000000000000000000000000000000000000000000000000000000000000000000000000000000000000000000000000000000000000000000000000000000000000000000000000000000000000000000000000000000000000000
310
00009E9E9E9E9E9E9E0000000000000000000000000000000000000000000000000000000000000000000000000000000000009E000000000000000000000000000000000000000000000000000000009E00000000000000000000000000000000000000000000000000000000000000000000000000000000000000000000
310
000000000000000000000000000000000000000000000000000000000000000000000000000000000000000000000000000000000000009E9E9E9E9E9E000000000000000000000000000000000000000000000000000000000000000000000000000000000000009E00000000000000000000000000000000000000000000
310
0000000000009E00000000000000000000000000000000000000000000000000000000000000000000000000000000000000000000000000000000000000000000000000000000000000000000000000000000000000000000000000000000000000000000000000000000000000009E9E9E00000000000000000000000000
310
0000000000000000000000000000000000000000000000000000000000009E9E9E9E9E9E9E9E9E9E9E9E9E9E9E9E9E9E9E9E9E9E9E9E9E9E9E9E9E9E00000000000000000000000000000000000000000000000000000000000000000000000000000000000000000000000000000000000000000000000000000000000000
310
00000000000000000000000000000000000000000000000000000000000000000000000000000000000000000000000000000000000000000000000000000000000000000000000000000000000000000000009E9E9E000000000000000000009E9E9E9E000000000000000000009E9E9E0000000000000000000000000000
310
00000000000000000000000000000000000000000000000000000000000000000000000000000000000000000000000000000000000000000000000000000000000000000000000000000000000000000000000000000000000000000000000000000000000000000000000000000000000000000000000000000000000000
310
0000000000000000009E00000000000000000000009E9E9E9E9E0000000000000000000000009E00000000000000000000000000000000000000000000000000000000000000000000000000000000000000000000000000000000000000000000000000000000000000000000000000000000000000000000000000000000
310
0000000000000000000000000000000000000000000000000000000000000000000000000000000000000000000000000000000000000000000000000000000000000000000000000000009E9E9E9E000000000000000000000000000000000000000000000000000000000000000000000000000000000000000000000000
310
00000000000000000000000000000000000000000000000000000000000000000000000000000000000000000000000000000000000000000000000000000000000000000000000000000000000000000000000000000000000000000000000000000000000000000000000000000000000000000000000000000000000000
310
009E9E9E9E0000000000000000000000000000000000000000000000000000000000000000000000000000000000000000000000000000000000000000000000000000000000000000000000000000000000000000000000000000000000000000000000000000000000000000000000000000000000000000000000000000
310
00000000000000000000000000000000000000000000000000000000000000000000000000000000000000000000000000000000000000000000000000000000000000000000000000000000000000000000000000000000000000000000000000000000000000000000000000000000000000000000000000000000000000
310
00000000000000000000000000000000000000000000000000000000000000000000000000000000000000000000000000000000000000000000000000000000000000000000000000000000000000000000000000000000000000000000000000000000000000000000000000000000000000000000000000000000000000
310
00000000000000000000000000000000000000000000000000000000000000000000000000000000000000000000000000000000000000000000000000000000000000000000000000000000000000000000000000000000000000000000000000000000000000000000000000000000000000000000000000000000000000
310
00000000000000000000000000000000000000000000000000000000000000000000000000000000000000000000000000000000000000000000000000000000000000000000000000000000000000000000000000000000000000000000000000000000000000000000000000000000000000000000000000000000000000
310
00000000000000000000000000000000000000000000000000000000000000000000000000000000000000000000000000000000000000000000000000000000000000000000000000000000000000000000000000000000000000000000000000000000000000000000000000000000000000000000000000000000000000
310
00000000000000000000000000000000000000000000000000000000000000000000000000000000000000000000000000000000000000000000000000000000000000000000000000000000000000000000000000000000000000000000000000000000000000000000000000000000000000000000000000000000000000
310
00000000000000000000000000000000000000000000000000000000000000000000000000000000000000000000000000000000000000000000000000000000000000000000000000000000000000000000000000
  0
ENDSEC
  0
EOF
