999
LibreDWG 
  0
SECTION
  2
HEADER
  9
$ACADVER
  1
AC1015
  9
$ACADMAINTVER
 70
    13
  9
$DWGCODEPAGE
  3
ANSI_936
  9
$INSBASE
 10
0.0
 20
0.0
 30
0.0
  9
$EXTMIN
 10
18.88427783139548
 20
58.5205082298728
 30
-0.001525820700358338
  9
$EXTMAX
 10
128.0761722569309
 20
119.9180606169604
 30
3.49246036535078E-08
  9
$LIMMIN
 10
0.0
 20
0.0
  9
$LIMMAX
 10
200.0
 20
150.0
  9
$ORTHOMODE
 70
     0
  9
$REGENMODE
 70
     1
  9
$FILLMODE
 70
     1
  9
$QTEXTMODE
 70
     0
  9
$MIRRTEXT
 70
     1
  9
$LTSCALE
 40
1.0
  9
$ATTMODE
 70
     1
  9
$TEXTSIZE
 40
2.5
  9
$TRACEWID
 40
1.0
  9
$TEXTSTYLE
  7
数字与字母
  9
$CLAYER
  8
文本层
  9
$CELTYPE
  6
ByLayer
  9
$CECOLOR
 62
   256
  9
$CELTSCALE
 40
1.0
  9
$DISPSILH
 70
     0
  9
$DIMSCALE
 40
1.0
  9
$DIMASZ
 40
0.5
  9
$DIMEXO
 40
0.625
  9
$DIMDLI
 40
3.75
  9
$DIMRND
 40
0.0
  9
$DIMDLE
 40
0.0
  9
$DIMEXE
 40
1.25
  9
$DIMTP
 40
0.0
  9
$DIMTM
 40
0.0
  9
$DIMTXT
 40
1.0
  9
$DIMCEN
 40
2.5
  9
$DIMTSZ
 40
0.0
  9
$DIMTOL
 70
     0
  9
$DIMLIM
 70
     0
  9
$DIMTIH
 70
     0
  9
$DIMTOH
 70
     0
  9
$DIMSE1
 70
     0
  9
$DIMSE2
 70
     0
  9
$DIMTAD
 70
     1
  9
$DIMZIN
 70
     8
  9
$DIMBLK
  1

  9
$DIMASO
 70
     1
  9
$DIMSHO
 70
     1
  9
$DIMPOST
  1

  9
$DIMAPOST
  1

  9
$DIMALT
 70
     0
  9
$DIMALTD
 70
     3
  9
$DIMALTF
 40
0.03937007874016
  9
$DIMLFAC
 40
1.0
  9
$DIMTOFL
 70
     1
  9
$DIMTVP
 40
0.0
  9
$DIMTIX
 70
     0
  9
$DIMSOXD
 70
     0
  9
$DIMSAH
 70
     0
  9
$DIMBLK1
  1

  9
$DIMBLK2
  1

  9
$DIMSTYLE
  2
ISO-25
  9
$DIMCLRD
 70
     0
  9
$DIMCLRE
 70
     0
  9
$DIMCLRT
 70
     0
  9
$DIMTFAC
 40
1.0
  9
$DIMGAP
 40
0.625
  9
$DIMJUST
 70
     0
  9
$DIMSD1
 70
     0
  9
$DIMSD2
 70
     0
  9
$DIMTOLJ
 70
     0
  9
$DIMTZIN
 70
     8
  9
$DIMALTZ
 70
     0
  9
$DIMALTTZ
 70
     0
  9
$DIMUPT
 70
     0
  9
$DIMDEC
 70
     2
  9
$DIMTDEC
 70
     2
  9
$DIMALTU
 70
     2
  9
$DIMALTTD
 70
     3
  9
$DIMTXSTY
  7
Standard
  9
$DIMAUNIT
 70
     0
  9
$DIMADEC
 70
     0
  9
$DIMALTRND
 40
0.0
  9
$DIMAZIN
 70
     0
  9
$DIMDSEP
 70
    44
  9
$DIMATFIT
 70
     3
  9
$DIMFRAC
 70
     0
  9
$DIMLDRBLK
  1

  9
$DIMLUNIT
 70
     2
  9
$DIMLWD
 70
    -2
  9
$DIMLWE
 70
    -2
  9
$DIMTMOVE
 70
     0
  9
$LUNITS
 70
     2
  9
$LUPREC
 70
     1
  9
$AXISMODE
 70
     0
  9
$AXISUNIT
 10
0.0
 20
0.0
  9
$SKETCHINC
 40
1.0
  9
$FILLETRAD
 40
10.0
  9
$AUNITS
 70
     0
  9
$AUPREC
 70
     1
  9
$MENU
  1
.
  9
$ELEVATION
 40
0.0
  9
$PELEVATION
 40
0.0
  9
$THICKNESS
 40
0.0
  9
$LIMCHECK
 70
     0
  9
$CHAMFERA
 40
10.0
  9
$CHAMFERB
 40
10.0
  9
$CHAMFERC
 40
20.0
  9
$CHAMFERD
 40
0.0
  9
$SKPOLY
 70
     0
  9
$TDCREATE
 40
2451911.603956590
  9
$TDUCREATE
 40
2451911.315956590
  9
$TDUPDATE
 40
2453618.713003160
  9
$TDUUPDATE
 40
2453618.425003160
  9
$TDINDWG
 40
0.036302600
  9
$TDUSRTIMER
 40
0.036302600
  9
$USRTIMER
 70
     1
  9
$ANGBASE
 50
0.0
  9
$ANGDIR
 70
     0
  9
$PDMODE
 70
     0
  9
$PDSIZE
 40
0.0
  9
$PLINEWID
 40
0.0
  9
$SPLFRAME
 70
     0
  9
$SPLINETYPE
 70
     6
  9
$SPLINESEGS
 70
     8
  9
$HANDSEED
  5
34D
  9
$SURFTAB1
 70
     6
  9
$SURFTAB2
 70
     6
  9
$SURFTYPE
 70
     6
  9
$SURFU
 70
     6
  9
$SURFV
 70
     6
  9
$UCSBASE
  2

  9
$UCSNAME
  2

  9
$UCSORG
 10
0.0
 20
0.0
 30
0.0
  9
$UCSXDIR
 10
1.0
 20
0.0
 30
0.0
  9
$UCSYDIR
 10
0.0
 20
1.0
 30
0.0
  9
$UCSORTHOREF
  2

  9
$UCSORTHOVIEW
 70
     0
  9
$UCSORGTOP
 10
0.0
 20
0.0
 30
0.0
  9
$UCSORGBOTTOM
 10
0.0
 20
0.0
 30
0.0
  9
$UCSORGLEFT
 10
0.0
 20
0.0
 30
0.0
  9
$UCSORGRIGHT
 10
0.0
 20
0.0
 30
0.0
  9
$UCSORGFRONT
 10
0.0
 20
0.0
 30
0.0
  9
$UCSORGBACK
 10
0.0
 20
0.0
 30
0.0
  9
$PUCSBASE
  2

  9
$PUCSNAME
  2

  9
$PUCSORG
 10
0.0
 20
0.0
 30
0.0
  9
$PUCSXDIR
 10
1.0
 20
0.0
 30
0.0
  9
$PUCSYDIR
 10
0.0
 20
1.0
 30
0.0
  9
$PUCSORTHOREF
  2

  9
$PUCSORTHOVIEW
 70
     0
  9
$PUCSORGTOP
 10
0.0
 20
0.0
 30
0.0
  9
$PUCSORGBOTTOM
 10
0.0
 20
0.0
 30
0.0
  9
$PUCSORGLEFT
 10
0.0
 20
0.0
 30
0.0
  9
$PUCSORGRIGHT
 10
0.0
 20
0.0
 30
0.0
  9
$PUCSORGFRONT
 10
0.0
 20
0.0
 30
0.0
  9
$PUCSORGBACK
 10
0.0
 20
0.0
 30
0.0
  9
$USERI1
 70
     0
  9
$USERI2
 70
     0
  9
$USERI3
 70
     0
  9
$USERI4
 70
     0
  9
$USERI5
 70
     0
  9
$USERR1
 40
0.0
  9
$USERR2
 40
0.0
  9
$USERR3
 40
0.0
  9
$USERR4
 40
0.0
  9
$USERR5
 40
0.0
  9
$WORLDVIEW
 70
     1
  9
$SHADEDGE
 70
     3
  9
$SHADEDIF
 70
    70
  9
$TILEMODE
 70
     1
  9
$MAXACTVP
 70
    64
  9
$PINSBASE
 10
0.0
 20
0.0
 30
0.0
  9
$PLIMCHECK
 70
     0
  9
$PEXTMIN
 10
26.66999878883362
 20
20.31999878883363
 30
0.0
  9
$PEXTMAX
 10
240.0299890995026
 20
182.8799890995026
 30
0.0
  9
$PLIMMIN
 10
-6.350006103515625
 20
-6.349999904632568
  9
$PLIMMAX
 10
273.0499877929688
 20
209.5499939918518
  9
$UNITMODE
 70
     0
  9
$VISRETAIN
 70
     1
  9
$PLINEGEN
 70
     0
  9
$PSLTSCALE
 70
     1
  9
$TREEDEPTH
 70
  3020
  9
$CMLSTYLE
  2
Standard
  9
$CMLJUST
 70
     0
  9
$CMLSCALE
 40
20.0
  9
$PROXYGRAPHICS
 70
     1
  9
$MEASUREMENT
 70
     1
  9
$CELWEIGHT
370
    -1
  9
$ENDCAPS
280
     0
  9
$JOINSTYLE
280
     0
  9
$LWDISPLAY
290
     1
  9
$INSUNITS
 70
     4
  9
$HYPERLINKBASE
  1

  9
$STYLESHEET
  1

  9
$XEDIT
290
     1
  9
$CEPSNTYPE
380
     0
  9
$PSTYLEMODE
290
     0
  9
$FINGERPRINTGUID
  2
{35BD88C3-9548-11D2-9A29-0060089B3A3F}
  9
$VERSIONGUID
  2
{E438C103-7960-47C1-8803-94F7A1A8CB34}
  9
$EXTNAMES
290
     1
  9
$PSVPSCALE
 40
0.0
  9
$OLESTARTUP
290
     0
  0
ENDSEC
  0
SECTION
  2
CLASSES
  0
CLASS
  1
ACDBDICTIONARYWDFLT
  2
AcDbDictionaryWithDefault
  3
AutoCAD 2000
 90
        0
280
     0
281
     0
  0
CLASS
  1
ACDBPLACEHOLDER
  2
AcDbPlaceHolder
  3
AutoCAD 2000
 90
        0
280
     0
281
     0
  0
CLASS
  1
LAYOUT
  2
AcDbLayout
  3
AutoCAD 2000
 90
        0
280
     0
281
     0
  0
CLASS
  1
DICTIONARYVAR
  2
AcDbDictionaryVar
  3
AutoCAD 2000
 90
        0
280
     0
281
     0
  0
CLASS
  1
DIMASSOC
  2
AcDbDimAssoc
  3
"AcDbDimAssoc|Product Desc:     AcDim ARX App For Dimension|Company:          Autodesk, Inc.|WEB Address:      www.autodesk.com"
 90
        0
280
     0
281
     0
  0
ENDSEC
  0
SECTION
  2
TABLES
  0
TABLE
  2
VPORT
  5
8
330
0
100
AcDbSymbolTable
 70
     1
  0
VPORT
  5
34C
330
8
100
AcDbSymbolTableRecord
100
AcDbViewportTableRecord
  2
*Active
 70
     0
 10
0.0
 20
0.0
 11
1.0
 21
1.0
 12
79.36978427247205
 22
92.02269757240455
 13
0.0
 23
0.0
 14
10.0
 24
10.0
 15
10.0
 25
10.0
 16
0.0
 26
0.0
 36
1.0
 17
0.0
 27
0.0
 37
0.0
 40
91.45073979409869
 41
1.841563786008231
 42
50.0
 43
0.0
 44
0.0
 50
0.0
 51
0.0
 71
     0
 72
   100
 73
     1
 74
     3
 75
     0
 76
     0
 77
     0
 78
     0
281
     0
 65
     1
110
0.0
120
0.0
130
0.0
111
1.0
121
0.0
131
0.0
112
0.0
122
1.0
132
0.0
 79
     0
146
0.0
  0
ENDTAB
  0
TABLE
  2
LTYPE
  5
5
330
0
100
AcDbSymbolTable
 70
     4
  0
LTYPE
  5
14
330
5
100
AcDbSymbolTableRecord
100
AcDbLinetypeTableRecord
  2
ByBlock
 70
     0
  3

 72
    65
 73
     0
 40
0.0
  0
LTYPE
  5
15
330
5
100
AcDbSymbolTableRecord
100
AcDbLinetypeTableRecord
  2
ByLayer
 70
     0
  3

 72
    65
 73
     0
 40
0.0
  0
LTYPE
  5
16
330
5
100
AcDbSymbolTableRecord
100
AcDbLinetypeTableRecord
  2
Continuous
 70
     0
  3
Solid line
 72
    65
 73
     0
 40
0.0
  0
LTYPE
  5
91
330
5
100
AcDbSymbolTableRecord
100
AcDbLinetypeTableRecord
  2
ACAD_ISO08W100
 70
     0
  3
ISO long-dash short-dash ____ __ ____ __ ____ _
 72
    65
 73
     4
 40
36.0
 49
24.0
 74
     0
 49
-3.0
 74
     0
 49
6.0
 74
     0
 49
-3.0
 74
     0
  0
LTYPE
  5
92
330
5
100
AcDbSymbolTableRecord
100
AcDbLinetypeTableRecord
  2
ACAD_ISO09W100
 70
     0
  3
ISO long-dash double-short-dash ____ __ __ ____
 72
    65
 73
     6
 40
45.0
 49
24.0
 74
     0
 49
-3.0
 74
     0
 49
6.0
 74
     0
 49
-3.0
 74
     0
 49
6.0
 74
     0
 49
-3.0
 74
     0
  0
LTYPE
  5
93
330
5
100
AcDbSymbolTableRecord
100
AcDbLinetypeTableRecord
  2
ACAD_ISO02W100
 70
     0
  3
ISO dash __ __ __ __ __ __ __ __ __ __ __ __ __
 72
    65
 73
     2
 40
15.0
 49
12.0
 74
     0
 49
-3.0
 74
     0
  0
ENDTAB
  0
TABLE
  2
LAYER
  5
2
330
0
100
AcDbSymbolTable
 70
    11
  0
LAYER
  5
10
330
2
100
AcDbSymbolTableRecord
100
AcDbLayerTableRecord
  2
0
 70
     0
 62
    -7
  6
Continuous
370
    -3
390
F
  0
LAYER
  5
94
330
2
100
AcDbSymbolTableRecord
100
AcDbLayerTableRecord
  2
轮廓线
 70
     0
 62
    -7
  6
Continuous
370
    35
390
F
  0
LAYER
  5
95
330
2
100
AcDbSymbolTableRecord
100
AcDbLayerTableRecord
  2
点划线
 70
     0
 62
    -1
  6
ACAD_ISO08W100
370
    13
390
F
  0
LAYER
  5
96
330
2
100
AcDbSymbolTableRecord
100
AcDbLayerTableRecord
  2
双点划线
 70
     0
 62
    -3
  6
ACAD_ISO09W100
370
    -3
390
F
  0
LAYER
  5
97
330
2
100
AcDbSymbolTableRecord
100
AcDbLayerTableRecord
  2
隐藏线
 70
     0
 62
   -44
  6
ACAD_ISO02W100
370
    13
390
F
  0
LAYER
  5
98
330
2
100
AcDbSymbolTableRecord
100
AcDbLayerTableRecord
  2
剖面线
 70
     0
 62
  -142
  6
Continuous
370
    13
390
F
  0
LAYER
  5
99
330
2
100
AcDbSymbolTableRecord
100
AcDbLayerTableRecord
  2
波浪线
 70
     0
 62
    -7
  6
Continuous
370
    13
390
F
  0
LAYER
  5
9A
330
2
100
AcDbSymbolTableRecord
100
AcDbLayerTableRecord
  2
尺寸层
 70
     0
 62
    -5
  6
Continuous
370
    13
390
F
  0
LAYER
  5
9B
330
2
100
AcDbSymbolTableRecord
100
AcDbLayerTableRecord
  2
文本层
 70
     0
 62
  -212
  6
Continuous
370
    13
390
F
  0
LAYER
  5
9C
330
2
100
AcDbSymbolTableRecord
100
AcDbLayerTableRecord
  2
其它层
 70
     0
 62
    -7
  6
Continuous
370
    -3
390
F
  0
LAYER
  5
12D
330
2
100
AcDbSymbolTableRecord
100
AcDbLayerTableRecord
  2
Defpoints
 70
     0
 62
    -7
  6
Continuous
290
     0
370
    -3
390
F
  0
ENDTAB
  0
TABLE
  2
STYLE
  5
3
330
0
100
AcDbSymbolTable
 70
     4
  0
STYLE
  5
11
330
3
100
AcDbSymbolTableRecord
100
AcDbTextStyleTableRecord
  2
Standard
 70
     0
 40
0.0
 41
1.0
 50
0.0
 71
     0
 42
2.5
  3
txt
  4

  0
STYLE
  5
90
330
3
100
AcDbSymbolTableRecord
100
AcDbTextStyleTableRecord
  2

 70
     1
 40
0.0
 41
1.0
 50
0.0
 71
     0
 42
2.5
  3
ltypeshp.shx
  4

  0
STYLE
  5
9D
330
3
100
AcDbSymbolTableRecord
100
AcDbTextStyleTableRecord
  2
汉字
 70
     0
 40
0.0
 41
0.7
 50
0.0
 71
     0
 42
2.5
  3
SIMFANG.TTF
  4

1001
ACAD
1000
FangSong_GB2312
1071
    34353
  0
STYLE
  5
9F
330
3
100
AcDbSymbolTableRecord
100
AcDbTextStyleTableRecord
  2
数字与字母
 70
     0
 40
0.0
 41
0.7
 50
0.0
 71
     0
 42
2.5
  3
romant.shx
  4

  0
ENDTAB
  0
TABLE
  2
VIEW
  5
6
330
0
100
AcDbSymbolTable
 70
     0
  0
ENDTAB
  0
TABLE
  2
UCS
  5
7
330
0
100
AcDbSymbolTable
 70
     0
  0
ENDTAB
  0
TABLE
  2
APPID
  5
9
330
0
100
AcDbSymbolTable
 70
     1
  0
APPID
  5
12
330
9
100
AcDbSymbolTableRecord
100
AcDbRegAppTableRecord
  2
ACAD
 70
     0
  0
ENDTAB
  0
TABLE
  2
DIMSTYLE
  5
A
330
0
100
AcDbSymbolTable
 70
     3
100
AcDbDimStyleTable
 71
     2
340
27
340
A1
  0
DIMSTYLE
105
27
102
{ACAD_REACTORS
330
12C
330
149
330
161
330
179
330
191
330
1A9
330
1C1
330
1D9
330
1F1
330
209
330
221
330
239
330
251
330
269
330
281
330
299
330
2B1
330
2C9
330
2E1
330
2F9
330
31B
102
}
330
A
100
AcDbSymbolTableRecord
100
AcDbDimStyleTableRecord
  2
ISO-25
 70
     0
 41
0.5
 42
0.625
 43
3.75
 44
1.25
 73
     0
 74
     0
 77
     1
 78
     8
140
1.0
141
2.5
143
0.03937007874016
144
1.0
146
1.0
147
0.625
171
     3
172
     1
176
     0
177
     0
178
     0
271
     2
272
     2
273
     2
274
     3
277
     2
278
    44
283
     0
284
     8
289
     3
340
11
371
    -2
372
    -2
341
0
342
0
343
0
344
0
  0
DIMSTYLE
105
A1
330
A
100
AcDbSymbolTableRecord
100
AcDbDimStyleTableRecord
  2
机械标注
 70
     0
 41
3.5
 43
7.5
 44
2.5
 73
     0
 74
     1
 77
     1
 78
     8
140
5.0
141
2.5
143
0.03937007874016
144
1.0
146
1.0
147
0.625
171
     3
172
     1
176
     0
177
     0
178
     0
271
     1
272
     1
273
     2
274
     3
277
     2
278
    46
283
     0
284
     8
289
     3
340
9F
371
    -2
372
    -2
341
0
342
0
343
0
344
0
  0
DIMSTYLE
105
A2
330
A
100
AcDbSymbolTableRecord
100
AcDbDimStyleTableRecord
  2
机械标注$2
 70
     0
 41
3.5
 43
7.5
 44
2.5
 73
     1
 74
     1
 77
     1
 78
     8
140
5.0
141
2.5
143
0.03937007874016
144
1.0
146
1.0
147
0.625
171
     3
172
     1
176
     0
177
     0
178
     0
271
     1
272
     1
273
     2
274
     3
277
     2
278
    46
283
     0
284
     8
289
     3
340
9F
371
    -2
372
    -2
341
0
342
0
343
0
344
0
  0
ENDTAB
  0
TABLE
  2
BLOCK_RECORD
  5
1
330
0
100
AcDbSymbolTable
 70
    22
  0
BLOCK_RECORD
  5
1F
330
1
100
AcDbSymbolTableRecord
100
AcDbBlockTableRecord
  2
*Model_Space
340
22
  0
BLOCK_RECORD
  5
5E
330
1
100
AcDbSymbolTableRecord
100
AcDbBlockTableRecord
  2
*Paper_Space
340
5F
  0
BLOCK_RECORD
  5
59
330
1
100
AcDbSymbolTableRecord
100
AcDbBlockTableRecord
  2
*Paper_Space0
340
5A
  0
BLOCK_RECORD
  5
12E
330
1
100
AcDbSymbolTableRecord
100
AcDbBlockTableRecord
  2
*D1
340
0
  0
BLOCK_RECORD
  5
14A
330
1
100
AcDbSymbolTableRecord
100
AcDbBlockTableRecord
  2
*D2
340
0
  0
BLOCK_RECORD
  5
162
330
1
100
AcDbSymbolTableRecord
100
AcDbBlockTableRecord
  2
*D3
340
0
  0
BLOCK_RECORD
  5
17A
330
1
100
AcDbSymbolTableRecord
100
AcDbBlockTableRecord
  2
*D4
340
0
  0
BLOCK_RECORD
  5
192
330
1
100
AcDbSymbolTableRecord
100
AcDbBlockTableRecord
  2
*D5
340
0
  0
BLOCK_RECORD
  5
1AA
330
1
100
AcDbSymbolTableRecord
100
AcDbBlockTableRecord
  2
*D6
340
0
  0
BLOCK_RECORD
  5
1C2
330
1
100
AcDbSymbolTableRecord
100
AcDbBlockTableRecord
  2
*D7
340
0
  0
BLOCK_RECORD
  5
1DA
330
1
100
AcDbSymbolTableRecord
100
AcDbBlockTableRecord
  2
*D8
340
0
  0
BLOCK_RECORD
  5
1F2
330
1
100
AcDbSymbolTableRecord
100
AcDbBlockTableRecord
  2
*D9
340
0
  0
BLOCK_RECORD
  5
20A
330
1
100
AcDbSymbolTableRecord
100
AcDbBlockTableRecord
  2
*D10
340
0
  0
BLOCK_RECORD
  5
222
330
1
100
AcDbSymbolTableRecord
100
AcDbBlockTableRecord
  2
*D11
340
0
  0
BLOCK_RECORD
  5
23A
330
1
100
AcDbSymbolTableRecord
100
AcDbBlockTableRecord
  2
*D12
340
0
  0
BLOCK_RECORD
  5
252
330
1
100
AcDbSymbolTableRecord
100
AcDbBlockTableRecord
  2
*D13
340
0
  0
BLOCK_RECORD
  5
26A
330
1
100
AcDbSymbolTableRecord
100
AcDbBlockTableRecord
  2
*D14
340
0
  0
BLOCK_RECORD
  5
282
330
1
100
AcDbSymbolTableRecord
100
AcDbBlockTableRecord
  2
*D15
340
0
  0
BLOCK_RECORD
  5
29A
330
1
100
AcDbSymbolTableRecord
100
AcDbBlockTableRecord
  2
*D16
340
0
  0
BLOCK_RECORD
  5
2B2
330
1
100
AcDbSymbolTableRecord
100
AcDbBlockTableRecord
  2
*D17
340
0
  0
BLOCK_RECORD
  5
2CA
330
1
100
AcDbSymbolTableRecord
100
AcDbBlockTableRecord
  2
*D18
340
0
  0
BLOCK_RECORD
  5
2E2
330
1
100
AcDbSymbolTableRecord
100
AcDbBlockTableRecord
  2
*D19
340
0
  0
BLOCK_RECORD
  5
2FA
330
1
100
AcDbSymbolTableRecord
100
AcDbBlockTableRecord
  2
*D20
340
0
  0
BLOCK_RECORD
  5
31C
330
1
100
AcDbSymbolTableRecord
100
AcDbBlockTableRecord
  2
*D21
340
0
  0
ENDTAB
  0
ENDSEC
  0
SECTION
  2
BLOCKS
  0
BLOCK
  5
20
330
1F
100
AcDbEntity
  8
0
100
AcDbBlockBegin
  2
*Model_Space
 70
     0
 10
0.0
 20
0.0
 30
0.0
  3
*Model_Space
  1

  0
ENDBLK
  5
21
330
1F
100
AcDbEntity
  8
0
100
AcDbBlockEnd
  0
BLOCK
  5
5B
330
59
100
AcDbEntity
  8
0
100
AcDbBlockBegin
  2
*Paper_Space0
 70
     0
 10
0.0
 20
0.0
 30
0.0
  3
*Paper_Space0
  1

  0
VIEWPORT
  5
74
330
59
100
AcDbEntity
  8
0
100
AcDbViewport
 10
133.3499908447266
 20
101.5999970436096
 30
0.0
 40
402.4920940625619
 41
218.5599527535252
 68
     0
 69
     0
 12
133.3499908447266
 22
101.5999970436096
 13
0.0
 23
0.0
 14
0.5
 24
0.5
 15
0.5
 25
0.5
 16
0.0
 26
0.0
 36
1.0
 17
0.0
 27
0.0
 37
0.0
 42
50.0
 43
0.0
 44
0.0
 45
218.5599527535252
 50
0.0
 51
0.0
 72
   100
 90
    32800
  1

281
     0
 71
     1
 74
     0
110
0.0
120
0.0
130
0.0
111
1.0
121
0.0
131
0.0
112
0.0
122
1.0
132
0.0
 79
     0
146
0.0
348
0
340
0
345
0
346
0
  0
VIEWPORT
  5
76
330
59
100
AcDbEntity
  8
0
100
AcDbViewport
 10
133.3499939441681
 20
101.5999939441681
 30
0.0
 40
213.3599903106689
 41
162.5599903106689
 68
     0
 69
     0
 12
79.24300412692423
 22
87.69569878154253
 13
0.0
 23
0.0
 14
10.0
 24
10.0
 15
10.0
 25
10.0
 16
0.0
 26
0.0
 36
1.0
 17
0.0
 27
0.0
 37
0.0
 42
50.0
 43
0.0
 44
0.0
 45
96.93141767336779
 50
0.0
 51
0.0
 72
   100
 90
    32864
  1

281
     0
 71
     1
 74
     0
110
0.0
120
0.0
130
0.0
111
1.0
121
0.0
131
0.0
112
0.0
122
1.0
132
0.0
 79
     0
146
0.0
348
0
340
0
345
0
346
0
  0
ENDBLK
  5
5C
330
59
100
AcDbEntity
  8
0
100
AcDbBlockEnd
  0
BLOCK
  5
60
330
5E
100
AcDbEntity
 67
     1
  8
0
100
AcDbBlockBegin
  2
*Paper_Space
 70
     0
 10
0.0
 20
0.0
 30
0.0
  3
*Paper_Space
  1

  0
ENDBLK
  5
61
330
5E
100
AcDbEntity
 67
     1
  8
0
100
AcDbBlockEnd
  0
BLOCK
  5
13A
330
12E
100
AcDbEntity
  8
0
100
AcDbBlockBegin
  2
*D1
 70
     1
 10
0.0
 20
0.0
 30
0.0
  3
*D1
  1

  0
LINE
  5
13D
330
12E
100
AcDbEntity
  8
文本层
370
    -2
 62
     0
100
AcDbLine
 10
33.36673077600926
 20
81.30065042620561
 30
0.0
 11
27.41030668069482
 21
81.30065042620562
 31
0.0
  0
LINE
  5
13E
330
12E
100
AcDbEntity
  8
文本层
370
    -2
 62
     0
100
AcDbLine
 10
33.36673077600926
 20
79.30065042620561
 30
0.0
 11
27.41030668069482
 21
79.30065042620562
 31
0.0
  0
LINE
  5
13F
330
12E
100
AcDbEntity
  8
文本层
370
    -2
 62
     0
100
AcDbLine
 10
28.66030668069482
 20
81.80065042620562
 30
0.0
 11
28.66030668069482
 21
82.30065042620562
 31
0.0
  0
LINE
  5
140
330
12E
100
AcDbEntity
  8
文本层
370
    -2
 62
     0
100
AcDbLine
 10
28.66030668069482
 20
78.80065042620562
 30
0.0
 11
28.66030668069482
 21
78.30065042620562
 31
0.0
  0
LINE
  5
141
330
12E
100
AcDbEntity
  8
文本层
370
    -2
 62
     0
100
AcDbLine
 10
28.66030668069482
 20
81.30065042620562
 30
0.0
 11
28.66030668069482
 21
79.30065042620562
 31
0.0
  0
SOLID
  5
142
330
12E
100
AcDbEntity
  8
文本层
 62
     0
100
AcDbTrace
 38
0.0
 10
28.57697334736148
 20
81.80065042620562
 11
28.74364001402815
 21
81.80065042620562
 12
28.66030668069482
 22
81.30065042620562
 13
28.66030668069482
 23
81.30065042620562
  0
SOLID
  5
143
330
12E
100
AcDbEntity
  8
文本层
 62
     0
100
AcDbTrace
 38
0.0
 10
28.57697334736148
 20
78.80065042620562
 11
28.74364001402815
 21
78.80065042620562
 12
28.66030668069482
 22
79.30065042620562
 13
28.66030668069482
 23
79.30065042620562
  0
MTEXT
  5
144
330
12E
100
AcDbEntity
  8
文本层
 62
     0
100
AcDbMText
 10
27.5353066806948
 20
80.30065042620562
 30
0.0
210
0.0
220
0.0
230
1.0
 11
6.123031769111886E-17
 21
1.0
 31
0.0
 40
1.0
 41
0.0
 71
     5
 72
     1
  1
2
  7
Standard
 73
     1
 44
1.0
  0
POINT
  5
145
330
12E
100
AcDbEntity
  8
Defpoints
 62
     0
100
AcDbPoint
 10
33.99173077600926
 20
81.30065042620561
 30
0.0
 50
0.0
  0
POINT
  5
146
330
12E
100
AcDbEntity
  8
Defpoints
 62
     0
100
AcDbPoint
 10
33.99173077600926
 20
79.30065042620561
 30
0.0
 50
0.0
  0
POINT
  5
147
330
12E
100
AcDbEntity
  8
Defpoints
 62
     0
100
AcDbPoint
 10
28.66030668069482
 20
79.30065042620562
 30
0.0
 50
0.0
  0
ENDBLK
  5
13B
330
12E
100
AcDbEntity
  8
0
100
AcDbBlockEnd
  0
BLOCK
  5
154
330
14A
100
AcDbEntity
  8
0
100
AcDbBlockBegin
  2
*D2
 70
     1
 10
0.0
 20
0.0
 30
0.0
  3
*D2
  1

  0
LINE
  5
157
330
14A
100
AcDbEntity
  8
文本层
370
    -2
 62
     0
100
AcDbLine
 10
40.36673077600926
 20
86.30065042620561
 30
0.0
 11
23.81175001874348
 21
86.30065042620562
 31
0.0
  0
LINE
  5
158
330
14A
100
AcDbEntity
  8
文本层
370
    -2
 62
     0
100
AcDbLine
 10
40.36673077600926
 20
74.30065042620561
 30
0.0
 11
23.81175001874348
 21
74.30065042620562
 31
0.0
  0
LINE
  5
159
330
14A
100
AcDbEntity
  8
文本层
370
    -2
 62
     0
100
AcDbLine
 10
25.06175001874348
 20
85.80065042620562
 30
0.0
 11
25.06175001874348
 21
74.80065042620562
 31
0.0
  0
SOLID
  5
15A
330
14A
100
AcDbEntity
  8
文本层
 62
     0
100
AcDbTrace
 38
0.0
 10
24.97841668541015
 20
85.80065042620562
 11
25.14508335207681
 21
85.80065042620562
 12
25.06175001874348
 22
86.30065042620562
 13
25.06175001874348
 23
86.30065042620562
  0
SOLID
  5
15B
330
14A
100
AcDbEntity
  8
文本层
 62
     0
100
AcDbTrace
 38
0.0
 10
24.97841668541015
 20
74.80065042620562
 11
25.14508335207681
 21
74.80065042620562
 12
25.06175001874348
 22
74.30065042620562
 13
25.06175001874348
 23
74.30065042620562
  0
MTEXT
  5
15C
330
14A
100
AcDbEntity
  8
文本层
 62
     0
100
AcDbMText
 10
23.93675001874347
 20
80.30065042620562
 30
0.0
210
0.0
220
0.0
230
1.0
 11
6.123031769111886E-17
 21
1.0
 31
0.0
 40
1.0
 41
0.0
 71
     5
 72
     1
  1
12
  7
Standard
 73
     1
 44
1.0
  0
POINT
  5
15D
330
14A
100
AcDbEntity
  8
Defpoints
 62
     0
100
AcDbPoint
 10
40.99173077600926
 20
86.30065042620561
 30
0.0
 50
0.0
  0
POINT
  5
15E
330
14A
100
AcDbEntity
  8
Defpoints
 62
     0
100
AcDbPoint
 10
40.99173077600926
 20
74.30065042620561
 30
0.0
 50
0.0
  0
POINT
  5
15F
330
14A
100
AcDbEntity
  8
Defpoints
 62
     0
100
AcDbPoint
 10
25.06175001874348
 20
74.30065042620562
 30
0.0
 50
0.0
  0
ENDBLK
  5
155
330
14A
100
AcDbEntity
  8
0
100
AcDbBlockEnd
  0
BLOCK
  5
16C
330
162
100
AcDbEntity
  8
0
100
AcDbBlockBegin
  2
*D3
 70
     1
 10
0.0
 20
0.0
 30
0.0
  3
*D3
  1

  0
LINE
  5
16F
330
162
100
AcDbEntity
  8
文本层
370
    -2
 62
     0
100
AcDbLine
 10
44.36673077600926
 20
90.30065042620561
 30
0.0
 11
19.25930401496311
 21
90.30065042620562
 31
0.0
  0
LINE
  5
170
330
162
100
AcDbEntity
  8
文本层
370
    -2
 62
     0
100
AcDbLine
 10
44.36673077600926
 20
70.30065042620561
 30
0.0
 11
19.25930401496311
 21
70.30065042620562
 31
0.0
  0
LINE
  5
171
330
162
100
AcDbEntity
  8
文本层
370
    -2
 62
     0
100
AcDbLine
 10
20.50930401496311
 20
89.80065042620562
 30
0.0
 11
20.50930401496311
 21
70.80065042620562
 31
0.0
  0
SOLID
  5
172
330
162
100
AcDbEntity
  8
文本层
 62
     0
100
AcDbTrace
 38
0.0
 10
20.42597068162978
 20
89.80065042620562
 11
20.59263734829645
 21
89.80065042620562
 12
20.50930401496311
 22
90.30065042620562
 13
20.50930401496311
 23
90.30065042620562
  0
SOLID
  5
173
330
162
100
AcDbEntity
  8
文本层
 62
     0
100
AcDbTrace
 38
0.0
 10
20.42597068162977
 20
70.80065042620562
 11
20.59263734829644
 21
70.80065042620562
 12
20.50930401496311
 22
70.30065042620562
 13
20.50930401496311
 23
70.30065042620562
  0
MTEXT
  5
174
330
162
100
AcDbEntity
  8
文本层
 62
     0
100
AcDbMText
 10
19.3843040149631
 20
80.30065042620562
 30
0.0
210
0.0
220
0.0
230
1.0
 11
6.123031769111886E-17
 21
1.0
 31
0.0
 40
1.0
 41
0.0
 71
     5
 72
     1
  1
20
  7
Standard
 73
     1
 44
1.0
  0
POINT
  5
175
330
162
100
AcDbEntity
  8
Defpoints
 62
     0
100
AcDbPoint
 10
44.99173077600926
 20
90.30065042620561
 30
0.0
 50
0.0
  0
POINT
  5
176
330
162
100
AcDbEntity
  8
Defpoints
 62
     0
100
AcDbPoint
 10
44.99173077600926
 20
70.30065042620561
 30
0.0
 50
0.0
  0
POINT
  5
177
330
162
100
AcDbEntity
  8
Defpoints
 62
     0
100
AcDbPoint
 10
20.50930401496311
 20
70.30065042620562
 30
0.0
 50
0.0
  0
ENDBLK
  5
16D
330
162
100
AcDbEntity
  8
0
100
AcDbBlockEnd
  0
BLOCK
  5
184
330
17A
100
AcDbEntity
  8
0
100
AcDbBlockBegin
  2
*D4
 70
     1
 10
0.0
 20
0.0
 30
0.0
  3
*D4
  1

  0
LINE
  5
187
330
17A
100
AcDbEntity
  8
文本层
370
    -2
 62
     0
100
AcDbLine
 10
44.99173077600926
 20
90.92565042620561
 30
0.0
 11
44.99173077600926
 21
99.12944265200306
 31
0.0
  0
LINE
  5
188
330
17A
100
AcDbEntity
  8
文本层
370
    -2
 62
     0
100
AcDbLine
 10
48.99173077600926
 20
90.92565042620561
 30
0.0
 11
48.99173077600926
 21
99.12944265200306
 31
0.0
  0
LINE
  5
189
330
17A
100
AcDbEntity
  8
文本层
370
    -2
 62
     0
100
AcDbLine
 10
45.49173077600926
 20
97.87944265200306
 30
0.0
 11
48.49173077600926
 21
97.87944265200306
 31
0.0
  0
SOLID
  5
18A
330
17A
100
AcDbEntity
  8
文本层
 62
     0
100
AcDbTrace
 38
0.0
 10
45.49173077600926
 20
97.96277598533639
 11
45.49173077600926
 21
97.79610931866974
 12
44.99173077600926
 22
97.87944265200306
 13
44.99173077600926
 23
97.87944265200306
  0
SOLID
  5
18B
330
17A
100
AcDbEntity
  8
文本层
 62
     0
100
AcDbTrace
 38
0.0
 10
48.49173077600926
 20
97.96277598533639
 11
48.49173077600926
 21
97.79610931866974
 12
48.99173077600926
 22
97.87944265200306
 13
48.99173077600926
 23
97.87944265200306
  0
MTEXT
  5
18C
330
17A
100
AcDbEntity
  8
文本层
 62
     0
100
AcDbMText
 10
46.99173077600926
 20
99.00444265200306
 30
0.0
210
0.0
220
0.0
230
1.0
 11
1.0
 21
0.0
 31
0.0
 40
1.0
 41
0.0
 71
     5
 72
     1
  1
4
  7
Standard
 73
     1
 44
1.0
  0
POINT
  5
18D
330
17A
100
AcDbEntity
  8
Defpoints
 62
     0
100
AcDbPoint
 10
44.99173077600926
 20
90.30065042620561
 30
0.0
 50
0.0
  0
POINT
  5
18E
330
17A
100
AcDbEntity
  8
Defpoints
 62
     0
100
AcDbPoint
 10
48.99173077600926
 20
90.30065042620561
 30
0.0
 50
0.0
  0
POINT
  5
18F
330
17A
100
AcDbEntity
  8
Defpoints
 62
     0
100
AcDbPoint
 10
48.99173077600926
 20
97.87944265200306
 30
0.0
 50
0.0
  0
ENDBLK
  5
185
330
17A
100
AcDbEntity
  8
0
100
AcDbBlockEnd
  0
BLOCK
  5
19C
330
192
100
AcDbEntity
  8
0
100
AcDbBlockBegin
  2
*D5
 70
     1
 10
0.0
 20
0.0
 30
0.0
  3
*D5
  1

  0
LINE
  5
19F
330
192
100
AcDbEntity
  8
文本层
370
    -2
 62
     0
100
AcDbLine
 10
48.99173077600926
 20
90.92565042620561
 30
0.0
 11
48.99173077600926
 21
99.12944265200306
 31
0.0
  0
LINE
  5
1A0
330
192
100
AcDbEntity
  8
文本层
370
    -2
 62
     0
100
AcDbLine
 10
51.99173077600926
 20
90.92565042620561
 30
0.0
 11
51.99173077600926
 21
99.12944265200306
 31
0.0
  0
LINE
  5
1A1
330
192
100
AcDbEntity
  8
文本层
370
    -2
 62
     0
100
AcDbLine
 10
49.49173077600926
 20
97.87944265200306
 30
0.0
 11
51.49173077600926
 21
97.87944265200306
 31
0.0
  0
SOLID
  5
1A2
330
192
100
AcDbEntity
  8
文本层
 62
     0
100
AcDbTrace
 38
0.0
 10
49.49173077600926
 20
97.96277598533639
 11
49.49173077600926
 21
97.79610931866974
 12
48.99173077600926
 22
97.87944265200306
 13
48.99173077600926
 23
97.87944265200306
  0
SOLID
  5
1A3
330
192
100
AcDbEntity
  8
文本层
 62
     0
100
AcDbTrace
 38
0.0
 10
51.49173077600926
 20
97.96277598533639
 11
51.49173077600926
 21
97.79610931866974
 12
51.99173077600926
 22
97.87944265200306
 13
51.99173077600926
 23
97.87944265200306
  0
MTEXT
  5
1A4
330
192
100
AcDbEntity
  8
文本层
 62
     0
100
AcDbMText
 10
50.49173077600926
 20
99.00444265200306
 30
0.0
210
0.0
220
0.0
230
1.0
 11
1.0
 21
0.0
 31
0.0
 40
1.0
 41
0.0
 71
     5
 72
     1
  1
3
  7
Standard
 73
     1
 44
1.0
  0
POINT
  5
1A5
330
192
100
AcDbEntity
  8
Defpoints
 62
     0
100
AcDbPoint
 10
48.99173077600926
 20
90.30065042620561
 30
0.0
 50
0.0
  0
POINT
  5
1A6
330
192
100
AcDbEntity
  8
Defpoints
 62
     0
100
AcDbPoint
 10
51.99173077600926
 20
90.30065042620561
 30
0.0
 50
0.0
  0
POINT
  5
1A7
330
192
100
AcDbEntity
  8
Defpoints
 62
     0
100
AcDbPoint
 10
51.99173077600926
 20
97.87944265200306
 30
0.0
 50
0.0
  0
ENDBLK
  5
19D
330
192
100
AcDbEntity
  8
0
100
AcDbBlockEnd
  0
BLOCK
  5
1B4
330
1AA
100
AcDbEntity
  8
0
100
AcDbBlockBegin
  2
*D6
 70
     1
 10
0.0
 20
0.0
 30
0.0
  3
*D6
  1

  0
LINE
  5
1B7
330
1AA
100
AcDbEntity
  8
文本层
370
    -2
 62
     0
100
AcDbLine
 10
51.99173077600926
 20
90.92565042620561
 30
0.0
 11
51.99173077600926
 21
99.12944265200306
 31
0.0
  0
LINE
  5
1B8
330
1AA
100
AcDbEntity
  8
文本层
370
    -2
 62
     0
100
AcDbLine
 10
55.99173077600926
 20
90.92565042620561
 30
0.0
 11
55.99173077600926
 21
99.12944265200306
 31
0.0
  0
LINE
  5
1B9
330
1AA
100
AcDbEntity
  8
文本层
370
    -2
 62
     0
100
AcDbLine
 10
52.49173077600926
 20
97.87944265200306
 30
0.0
 11
55.49173077600926
 21
97.87944265200306
 31
0.0
  0
SOLID
  5
1BA
330
1AA
100
AcDbEntity
  8
文本层
 62
     0
100
AcDbTrace
 38
0.0
 10
52.49173077600926
 20
97.96277598533639
 11
52.49173077600926
 21
97.79610931866974
 12
51.99173077600926
 22
97.87944265200306
 13
51.99173077600926
 23
97.87944265200306
  0
SOLID
  5
1BB
330
1AA
100
AcDbEntity
  8
文本层
 62
     0
100
AcDbTrace
 38
0.0
 10
55.49173077600926
 20
97.96277598533639
 11
55.49173077600926
 21
97.79610931866974
 12
55.99173077600926
 22
97.87944265200306
 13
55.99173077600926
 23
97.87944265200306
  0
MTEXT
  5
1BC
330
1AA
100
AcDbEntity
  8
文本层
 62
     0
100
AcDbMText
 10
53.99173077600926
 20
99.00444265200306
 30
0.0
210
0.0
220
0.0
230
1.0
 11
1.0
 21
0.0
 31
0.0
 40
1.0
 41
0.0
 71
     5
 72
     1
  1
4
  7
Standard
 73
     1
 44
1.0
  0
POINT
  5
1BD
330
1AA
100
AcDbEntity
  8
Defpoints
 62
     0
100
AcDbPoint
 10
51.99173077600926
 20
90.30065042620561
 30
0.0
 50
0.0
  0
POINT
  5
1BE
330
1AA
100
AcDbEntity
  8
Defpoints
 62
     0
100
AcDbPoint
 10
55.99173077600926
 20
90.30065042620561
 30
0.0
 50
0.0
  0
POINT
  5
1BF
330
1AA
100
AcDbEntity
  8
Defpoints
 62
     0
100
AcDbPoint
 10
55.99173077600926
 20
97.87944265200306
 30
0.0
 50
0.0
  0
ENDBLK
  5
1B5
330
1AA
100
AcDbEntity
  8
0
100
AcDbBlockEnd
  0
BLOCK
  5
1CC
330
1C2
100
AcDbEntity
  8
0
100
AcDbBlockBegin
  2
*D7
 70
     1
 10
0.0
 20
0.0
 30
0.0
  3
*D7
  1

  0
LINE
  5
1CF
330
1C2
100
AcDbEntity
  8
文本层
370
    -2
 62
     0
100
AcDbLine
 10
55.99173077600926
 20
90.92565042620561
 30
0.0
 11
55.99173077600926
 21
99.12944265200306
 31
0.0
  0
LINE
  5
1D0
330
1C2
100
AcDbEntity
  8
文本层
370
    -2
 62
     0
100
AcDbLine
 10
58.99173077600926
 20
90.92565042620561
 30
0.0
 11
58.99173077600926
 21
99.12944265200306
 31
0.0
  0
LINE
  5
1D1
330
1C2
100
AcDbEntity
  8
文本层
370
    -2
 62
     0
100
AcDbLine
 10
56.49173077600926
 20
97.87944265200306
 30
0.0
 11
58.49173077600926
 21
97.87944265200306
 31
0.0
  0
SOLID
  5
1D2
330
1C2
100
AcDbEntity
  8
文本层
 62
     0
100
AcDbTrace
 38
0.0
 10
56.49173077600926
 20
97.96277598533639
 11
56.49173077600926
 21
97.79610931866974
 12
55.99173077600926
 22
97.87944265200306
 13
55.99173077600926
 23
97.87944265200306
  0
SOLID
  5
1D3
330
1C2
100
AcDbEntity
  8
文本层
 62
     0
100
AcDbTrace
 38
0.0
 10
58.49173077600926
 20
97.96277598533639
 11
58.49173077600926
 21
97.79610931866974
 12
58.99173077600926
 22
97.87944265200306
 13
58.99173077600926
 23
97.87944265200306
  0
MTEXT
  5
1D4
330
1C2
100
AcDbEntity
  8
文本层
 62
     0
100
AcDbMText
 10
57.49173077600926
 20
99.00444265200306
 30
0.0
210
0.0
220
0.0
230
1.0
 11
1.0
 21
0.0
 31
0.0
 40
1.0
 41
0.0
 71
     5
 72
     1
  1
3
  7
Standard
 73
     1
 44
1.0
  0
POINT
  5
1D5
330
1C2
100
AcDbEntity
  8
Defpoints
 62
     0
100
AcDbPoint
 10
55.99173077600926
 20
90.30065042620561
 30
0.0
 50
0.0
  0
POINT
  5
1D6
330
1C2
100
AcDbEntity
  8
Defpoints
 62
     0
100
AcDbPoint
 10
58.99173077600926
 20
90.30065042620561
 30
0.0
 50
0.0
  0
POINT
  5
1D7
330
1C2
100
AcDbEntity
  8
Defpoints
 62
     0
100
AcDbPoint
 10
58.99173077600926
 20
97.87944265200306
 30
0.0
 50
0.0
  0
ENDBLK
  5
1CD
330
1C2
100
AcDbEntity
  8
0
100
AcDbBlockEnd
  0
BLOCK
  5
1E4
330
1DA
100
AcDbEntity
  8
0
100
AcDbBlockBegin
  2
*D8
 70
     1
 10
0.0
 20
0.0
 30
0.0
  3
*D8
  1

  0
LINE
  5
1E7
330
1DA
100
AcDbEntity
  8
文本层
370
    -2
 62
     0
100
AcDbLine
 10
58.99173077600926
 20
90.92565042620561
 30
0.0
 11
58.99173077600926
 21
99.12944265200306
 31
0.0
  0
LINE
  5
1E8
330
1DA
100
AcDbEntity
  8
文本层
370
    -2
 62
     0
100
AcDbLine
 10
62.99173077600926
 20
90.92565042620561
 30
0.0
 11
62.99173077600926
 21
99.12944265200306
 31
0.0
  0
LINE
  5
1E9
330
1DA
100
AcDbEntity
  8
文本层
370
    -2
 62
     0
100
AcDbLine
 10
59.49173077600926
 20
97.87944265200306
 30
0.0
 11
62.49173077600926
 21
97.87944265200306
 31
0.0
  0
SOLID
  5
1EA
330
1DA
100
AcDbEntity
  8
文本层
 62
     0
100
AcDbTrace
 38
0.0
 10
59.49173077600926
 20
97.96277598533639
 11
59.49173077600926
 21
97.79610931866974
 12
58.99173077600926
 22
97.87944265200306
 13
58.99173077600926
 23
97.87944265200306
  0
SOLID
  5
1EB
330
1DA
100
AcDbEntity
  8
文本层
 62
     0
100
AcDbTrace
 38
0.0
 10
62.49173077600926
 20
97.96277598533639
 11
62.49173077600926
 21
97.79610931866974
 12
62.99173077600926
 22
97.87944265200306
 13
62.99173077600926
 23
97.87944265200306
  0
MTEXT
  5
1EC
330
1DA
100
AcDbEntity
  8
文本层
 62
     0
100
AcDbMText
 10
60.99173077600926
 20
99.00444265200306
 30
0.0
210
0.0
220
0.0
230
1.0
 11
1.0
 21
0.0
 31
0.0
 40
1.0
 41
0.0
 71
     5
 72
     1
  1
4
  7
Standard
 73
     1
 44
1.0
  0
POINT
  5
1ED
330
1DA
100
AcDbEntity
  8
Defpoints
 62
     0
100
AcDbPoint
 10
58.99173077600926
 20
90.30065042620561
 30
0.0
 50
0.0
  0
POINT
  5
1EE
330
1DA
100
AcDbEntity
  8
Defpoints
 62
     0
100
AcDbPoint
 10
62.99173077600926
 20
90.30065042620561
 30
0.0
 50
0.0
  0
POINT
  5
1EF
330
1DA
100
AcDbEntity
  8
Defpoints
 62
     0
100
AcDbPoint
 10
62.99173077600926
 20
97.87944265200306
 30
0.0
 50
0.0
  0
ENDBLK
  5
1E5
330
1DA
100
AcDbEntity
  8
0
100
AcDbBlockEnd
  0
BLOCK
  5
1FC
330
1F2
100
AcDbEntity
  8
0
100
AcDbBlockBegin
  2
*D9
 70
     1
 10
0.0
 20
0.0
 30
0.0
  3
*D9
  1

  0
LINE
  5
1FF
330
1F2
100
AcDbEntity
  8
文本层
370
    -2
 62
     0
100
AcDbLine
 10
33.99173077600926
 20
81.92565042620561
 30
0.0
 11
33.99173077600926
 21
104.2849451278276
 31
0.0
  0
LINE
  5
200
330
1F2
100
AcDbEntity
  8
文本层
370
    -2
 62
     0
100
AcDbLine
 10
62.99173077600926
 20
96.56522119265065
 30
0.0
 11
62.99173077600926
 21
104.2849451278276
 31
0.0
  0
LINE
  5
201
330
1F2
100
AcDbEntity
  8
文本层
370
    -2
 62
     0
100
AcDbLine
 10
34.49173077600926
 20
103.0349451278276
 30
0.0
 11
62.49173077600926
 21
103.0349451278276
 31
0.0
  0
SOLID
  5
202
330
1F2
100
AcDbEntity
  8
文本层
 62
     0
100
AcDbTrace
 38
0.0
 10
34.49173077600926
 20
103.1182784611609
 11
34.49173077600926
 21
102.9516117944943
 12
33.99173077600926
 22
103.0349451278276
 13
33.99173077600926
 23
103.0349451278276
  0
SOLID
  5
203
330
1F2
100
AcDbEntity
  8
文本层
 62
     0
100
AcDbTrace
 38
0.0
 10
62.49173077600926
 20
103.1182784611609
 11
62.49173077600926
 21
102.9516117944943
 12
62.99173077600926
 22
103.0349451278276
 13
62.99173077600926
 23
103.0349451278276
  0
MTEXT
  5
204
330
1F2
100
AcDbEntity
  8
文本层
 62
     0
100
AcDbMText
 10
48.49173077600926
 20
104.1599451278276
 30
0.0
210
0.0
220
0.0
230
1.0
 11
1.0
 21
0.0
 31
0.0
 40
1.0
 41
0.0
 71
     5
 72
     1
  1
29
  7
Standard
 73
     1
 44
1.0
  0
POINT
  5
205
330
1F2
100
AcDbEntity
  8
Defpoints
 62
     0
100
AcDbPoint
 10
33.99173077600926
 20
81.30065042620561
 30
0.0
 50
0.0
  0
POINT
  5
206
330
1F2
100
AcDbEntity
  8
Defpoints
 62
     0
100
AcDbPoint
 10
62.99173077600926
 20
95.94022119265065
 30
0.0
 50
0.0
  0
POINT
  5
207
330
1F2
100
AcDbEntity
  8
Defpoints
 62
     0
100
AcDbPoint
 10
62.99173077600926
 20
103.0349451278276
 30
0.0
 50
0.0
  0
ENDBLK
  5
1FD
330
1F2
100
AcDbEntity
  8
0
100
AcDbBlockEnd
  0
BLOCK
  5
214
330
20A
100
AcDbEntity
  8
0
100
AcDbBlockBegin
  2
*D10
 70
     1
 10
0.0
 20
0.0
 30
0.0
  3
*D10
  1

  0
LINE
  5
217
330
20A
100
AcDbEntity
  8
文本层
370
    -2
 62
     0
100
AcDbLine
 10
62.99173077600926
 20
95.65254653910434
 30
0.0
 11
62.99173077600926
 21
104.2849451278276
 31
0.0
  0
LINE
  5
218
330
20A
100
AcDbEntity
  8
文本层
370
    -2
 62
     0
100
AcDbLine
 10
67.99173077600926
 20
87.92565042620561
 30
0.0
 11
67.99173077600926
 21
104.2849451278276
 31
0.0
  0
LINE
  5
219
330
20A
100
AcDbEntity
  8
文本层
370
    -2
 62
     0
100
AcDbLine
 10
63.49173077600926
 20
103.0349451278276
 30
0.0
 11
67.49173077600926
 21
103.0349451278276
 31
0.0
  0
SOLID
  5
21A
330
20A
100
AcDbEntity
  8
文本层
 62
     0
100
AcDbTrace
 38
0.0
 10
63.49173077600926
 20
103.1182784611609
 11
63.49173077600926
 21
102.9516117944943
 12
62.99173077600926
 22
103.0349451278276
 13
62.99173077600926
 23
103.0349451278276
  0
SOLID
  5
21B
330
20A
100
AcDbEntity
  8
文本层
 62
     0
100
AcDbTrace
 38
0.0
 10
67.49173077600926
 20
103.1182784611609
 11
67.49173077600926
 21
102.9516117944943
 12
67.99173077600926
 22
103.0349451278276
 13
67.99173077600926
 23
103.0349451278276
  0
MTEXT
  5
21C
330
20A
100
AcDbEntity
  8
文本层
 62
     0
100
AcDbMText
 10
65.49173077600926
 20
104.1599451278276
 30
0.0
210
0.0
220
0.0
230
1.0
 11
1.0
 21
0.0
 31
0.0
 40
1.0
 41
0.0
 71
     5
 72
     1
  1
5
  7
Standard
 73
     1
 44
1.0
  0
POINT
  5
21D
330
20A
100
AcDbEntity
  8
Defpoints
 62
     0
100
AcDbPoint
 10
62.99173077600926
 20
95.02754653910434
 30
0.0
 50
0.0
  0
POINT
  5
21E
330
20A
100
AcDbEntity
  8
Defpoints
 62
     0
100
AcDbPoint
 10
67.99173077600926
 20
87.30065042620561
 30
0.0
 50
0.0
  0
POINT
  5
21F
330
20A
100
AcDbEntity
  8
Defpoints
 62
     0
100
AcDbPoint
 10
67.99173077600926
 20
103.0349451278276
 30
0.0
 50
0.0
  0
ENDBLK
  5
215
330
20A
100
AcDbEntity
  8
0
100
AcDbBlockEnd
  0
BLOCK
  5
22C
330
222
100
AcDbEntity
  8
0
100
AcDbBlockBegin
  2
*D11
 70
     1
 10
0.0
 20
0.0
 30
0.0
  3
*D11
  1

  0
LINE
  5
22F
330
222
100
AcDbEntity
  8
文本层
370
    -2
 62
     0
100
AcDbLine
 10
33.99173077600926
 20
78.67565042620561
 30
0.0
 11
33.99173077600926
 21
63.61465425293289
 31
0.0
  0
LINE
  5
230
330
222
100
AcDbEntity
  8
文本层
370
    -2
 62
     0
100
AcDbLine
 10
40.99173077600926
 20
73.67565042620561
 30
0.0
 11
40.99173077600926
 21
63.61465425293289
 31
0.0
  0
LINE
  5
231
330
222
100
AcDbEntity
  8
文本层
370
    -2
 62
     0
100
AcDbLine
 10
34.49173077600926
 20
64.86465425293289
 30
0.0
 11
40.49173077600926
 21
64.86465425293289
 31
0.0
  0
SOLID
  5
232
330
222
100
AcDbEntity
  8
文本层
 62
     0
100
AcDbTrace
 38
0.0
 10
34.49173077600926
 20
64.94798758626622
 11
34.49173077600926
 21
64.78132091959957
 12
33.99173077600926
 22
64.86465425293289
 13
33.99173077600926
 23
64.86465425293289
  0
SOLID
  5
233
330
222
100
AcDbEntity
  8
文本层
 62
     0
100
AcDbTrace
 38
0.0
 10
40.49173077600926
 20
64.94798758626622
 11
40.49173077600926
 21
64.78132091959957
 12
40.99173077600926
 22
64.86465425293289
 13
40.99173077600926
 23
64.86465425293289
  0
MTEXT
  5
234
330
222
100
AcDbEntity
  8
文本层
 62
     0
100
AcDbMText
 10
37.49173077600926
 20
65.98965425293289
 30
0.0
210
0.0
220
0.0
230
1.0
 11
1.0
 21
0.0
 31
0.0
 40
1.0
 41
0.0
 71
     5
 72
     1
  1
7
  7
Standard
 73
     1
 44
1.0
  0
POINT
  5
235
330
222
100
AcDbEntity
  8
Defpoints
 62
     0
100
AcDbPoint
 10
33.99173077600926
 20
79.30065042620561
 30
0.0
 50
0.0
  0
POINT
  5
236
330
222
100
AcDbEntity
  8
Defpoints
 62
     0
100
AcDbPoint
 10
40.99173077600926
 20
74.30065042620561
 30
0.0
 50
0.0
  0
POINT
  5
237
330
222
100
AcDbEntity
  8
Defpoints
 62
     0
100
AcDbPoint
 10
40.99173077600926
 20
64.86465425293289
 30
0.0
 50
0.0
  0
ENDBLK
  5
22D
330
222
100
AcDbEntity
  8
0
100
AcDbBlockEnd
  0
BLOCK
  5
244
330
23A
100
AcDbEntity
  8
0
100
AcDbBlockBegin
  2
*D12
 70
     1
 10
0.0
 20
0.0
 30
0.0
  3
*D12
  1

  0
LINE
  5
247
330
23A
100
AcDbEntity
  8
文本层
370
    -2
 62
     0
100
AcDbLine
 10
33.99173077600926
 20
75.56149244742622
 30
0.0
 11
33.99173077600926
 21
58.53143994473597
 31
0.0
  0
LINE
  5
248
330
23A
100
AcDbEntity
  8
文本层
370
    -2
 62
     0
100
AcDbLine
 10
113.9917307760093
 20
76.67565042620561
 30
0.0
 11
113.9917307760093
 21
58.53143994473597
 31
0.0
  0
LINE
  5
249
330
23A
100
AcDbEntity
  8
文本层
370
    -2
 62
     0
100
AcDbLine
 10
34.49173077600926
 20
59.78143994473597
 30
0.0
 11
113.4917307760093
 21
59.78143994473597
 31
0.0
  0
SOLID
  5
24A
330
23A
100
AcDbEntity
  8
文本层
 62
     0
100
AcDbTrace
 38
0.0
 10
34.49173077600926
 20
59.86477327806931
 11
34.49173077600926
 21
59.69810661140264
 12
33.99173077600926
 22
59.78143994473597
 13
33.99173077600926
 23
59.78143994473597
  0
SOLID
  5
24B
330
23A
100
AcDbEntity
  8
文本层
 62
     0
100
AcDbTrace
 38
0.0
 10
113.4917307760093
 20
59.86477327806931
 11
113.4917307760093
 21
59.69810661140264
 12
113.9917307760093
 22
59.78143994473597
 13
113.9917307760093
 23
59.78143994473597
  0
MTEXT
  5
24C
330
23A
100
AcDbEntity
  8
文本层
 62
     0
100
AcDbMText
 10
73.99173077600926
 20
60.90643994473597
 30
0.0
210
0.0
220
0.0
230
1.0
 11
1.0
 21
0.0
 31
0.0
 40
1.0
 41
0.0
 71
     5
 72
     1
  1
80
  7
Standard
 73
     1
 44
1.0
  0
POINT
  5
24D
330
23A
100
AcDbEntity
  8
Defpoints
 62
     0
100
AcDbPoint
 10
33.99173077600926
 20
76.18649244742622
 30
0.0
 50
0.0
  0
POINT
  5
24E
330
23A
100
AcDbEntity
  8
Defpoints
 62
     0
100
AcDbPoint
 10
113.9917307760093
 20
77.30065042620561
 30
0.0
 50
0.0
  0
POINT
  5
24F
330
23A
100
AcDbEntity
  8
Defpoints
 62
     0
100
AcDbPoint
 10
113.9917307760093
 20
59.78143994473597
 30
0.0
 50
0.0
  0
ENDBLK
  5
245
330
23A
100
AcDbEntity
  8
0
100
AcDbBlockEnd
  0
BLOCK
  5
25C
330
252
100
AcDbEntity
  8
0
100
AcDbBlockBegin
  2
*D13
 70
     1
 10
0.0
 20
0.0
 30
0.0
  3
*D13
  1

  0
LINE
  5
25F
330
252
100
AcDbEntity
  8
文本层
370
    -2
 62
     0
100
AcDbLine
 10
91.99173077600926
 20
72.67565042620561
 30
0.0
 11
91.99173077600926
 21
64.59954323042894
 31
0.0
  0
LINE
  5
260
330
252
100
AcDbEntity
  8
文本层
370
    -2
 62
     0
100
AcDbLine
 10
113.9917307760093
 20
66.97854518547079
 30
0.0
 11
113.9917307760093
 21
64.59954323042894
 31
0.0
  0
LINE
  5
261
330
252
100
AcDbEntity
  8
文本层
370
    -2
 62
     0
100
AcDbLine
 10
92.49173077600926
 20
65.84954323042894
 30
0.0
 11
113.4917307760093
 21
65.84954323042894
 31
0.0
  0
SOLID
  5
262
330
252
100
AcDbEntity
  8
文本层
 62
     0
100
AcDbTrace
 38
0.0
 10
92.49173077600926
 20
65.93287656376226
 11
92.49173077600926
 21
65.76620989709561
 12
91.99173077600926
 22
65.84954323042894
 13
91.99173077600926
 23
65.84954323042894
  0
SOLID
  5
263
330
252
100
AcDbEntity
  8
文本层
 62
     0
100
AcDbTrace
 38
0.0
 10
113.4917307760093
 20
65.93287656376226
 11
113.4917307760093
 21
65.76620989709561
 12
113.9917307760093
 22
65.84954323042894
 13
113.9917307760093
 23
65.84954323042894
  0
MTEXT
  5
264
330
252
100
AcDbEntity
  8
文本层
 62
     0
100
AcDbMText
 10
102.9917307760093
 20
66.97454323042894
 30
0.0
210
0.0
220
0.0
230
1.0
 11
1.0
 21
0.0
 31
0.0
 40
1.0
 41
0.0
 71
     5
 72
     1
  1
22
  7
Standard
 73
     1
 44
1.0
  0
POINT
  5
265
330
252
100
AcDbEntity
  8
Defpoints
 62
     0
100
AcDbPoint
 10
91.99173077600926
 20
73.30065042620561
 30
0.0
 50
0.0
  0
POINT
  5
266
330
252
100
AcDbEntity
  8
Defpoints
 62
     0
100
AcDbPoint
 10
113.9917307760093
 20
67.60354518547079
 30
0.0
 50
0.0
  0
POINT
  5
267
330
252
100
AcDbEntity
  8
Defpoints
 62
     0
100
AcDbPoint
 10
113.9917307760093
 20
65.84954323042894
 30
0.0
 50
0.0
  0
ENDBLK
  5
25D
330
252
100
AcDbEntity
  8
0
100
AcDbBlockEnd
  0
BLOCK
  5
274
330
26A
100
AcDbEntity
  8
0
100
AcDbBlockBegin
  2
*D14
 70
     1
 10
0.0
 20
0.0
 30
0.0
  3
*D14
  1

  0
LINE
  5
277
330
26A
100
AcDbEntity
  8
文本层
370
    -2
 62
     0
100
AcDbLine
 10
91.99173077600926
 20
87.92565042620561
 30
0.0
 11
91.99173077600926
 21
95.24521360138189
 31
0.0
  0
LINE
  5
278
330
26A
100
AcDbEntity
  8
文本层
370
    -2
 62
     0
100
AcDbLine
 10
102.9917307760093
 20
87.92565042620561
 30
0.0
 11
102.9917307760093
 21
95.24521360138189
 31
0.0
  0
LINE
  5
279
330
26A
100
AcDbEntity
  8
文本层
370
    -2
 62
     0
100
AcDbLine
 10
92.49173077600926
 20
93.99521360138189
 30
0.0
 11
102.4917307760093
 21
93.99521360138189
 31
0.0
  0
SOLID
  5
27A
330
26A
100
AcDbEntity
  8
文本层
 62
     0
100
AcDbTrace
 38
0.0
 10
92.49173077600926
 20
94.07854693471522
 11
92.49173077600926
 21
93.91188026804856
 12
91.99173077600926
 22
93.99521360138189
 13
91.99173077600926
 23
93.99521360138189
  0
SOLID
  5
27B
330
26A
100
AcDbEntity
  8
文本层
 62
     0
100
AcDbTrace
 38
0.0
 10
102.4917307760093
 20
94.07854693471522
 11
102.4917307760093
 21
93.91188026804856
 12
102.9917307760093
 22
93.99521360138189
 13
102.9917307760093
 23
93.99521360138189
  0
MTEXT
  5
27C
330
26A
100
AcDbEntity
  8
文本层
 62
     0
100
AcDbMText
 10
97.49173077600926
 20
95.12021360138189
 30
0.0
210
0.0
220
0.0
230
1.0
 11
1.0
 21
0.0
 31
0.0
 40
1.0
 41
0.0
 71
     5
 72
     1
  1
11
  7
Standard
 73
     1
 44
1.0
  0
POINT
  5
27D
330
26A
100
AcDbEntity
  8
Defpoints
 62
     0
100
AcDbPoint
 10
91.99173077600926
 20
87.30065042620561
 30
0.0
 50
0.0
  0
POINT
  5
27E
330
26A
100
AcDbEntity
  8
Defpoints
 62
     0
100
AcDbPoint
 10
102.9917307760093
 20
87.30065042620561
 30
0.0
 50
0.0
  0
POINT
  5
27F
330
26A
100
AcDbEntity
  8
Defpoints
 62
     0
100
AcDbPoint
 10
102.9917307760093
 20
93.99521360138189
 30
0.0
 50
0.0
  0
ENDBLK
  5
275
330
26A
100
AcDbEntity
  8
0
100
AcDbBlockEnd
  0
BLOCK
  5
28C
330
282
100
AcDbEntity
  8
0
100
AcDbBlockBegin
  2
*D15
 70
     1
 10
0.0
 20
0.0
 30
0.0
  3
*D15
  1

  0
LINE
  5
28F
330
282
100
AcDbEntity
  8
文本层
370
    -2
 62
     0
100
AcDbLine
 10
112.6167307760093
 20
85.30065042620561
 30
0.0
 11
121.1260996700989
 21
85.30065042620561
 31
0.0
  0
LINE
  5
290
330
282
100
AcDbEntity
  8
文本层
370
    -2
 62
     0
100
AcDbLine
 10
112.6167307760093
 20
75.30065042620561
 30
0.0
 11
121.1260996700989
 21
75.30065042620561
 31
0.0
  0
LINE
  5
291
330
282
100
AcDbEntity
  8
文本层
370
    -2
 62
     0
100
AcDbLine
 10
119.8760996700989
 20
84.80065042620561
 30
0.0
 11
119.8760996700989
 21
75.80065042620561
 31
0.0
  0
SOLID
  5
292
330
282
100
AcDbEntity
  8
文本层
 62
     0
100
AcDbTrace
 38
0.0
 10
119.7927663367655
 20
84.80065042620561
 11
119.9594330034322
 21
84.80065042620561
 12
119.8760996700989
 22
85.30065042620561
 13
119.8760996700989
 23
85.30065042620561
  0
SOLID
  5
293
330
282
100
AcDbEntity
  8
文本层
 62
     0
100
AcDbTrace
 38
0.0
 10
119.7927663367655
 20
75.80065042620561
 11
119.9594330034322
 21
75.80065042620561
 12
119.8760996700989
 22
75.30065042620561
 13
119.8760996700989
 23
75.30065042620561
  0
MTEXT
  5
294
330
282
100
AcDbEntity
  8
文本层
 62
     0
100
AcDbMText
 10
118.7510996700988
 20
80.30065042620562
 30
0.0
210
0.0
220
0.0
230
1.0
 11
6.123031769111886E-17
 21
1.0
 31
0.0
 40
1.0
 41
0.0
 71
     5
 72
     1
  1
10
  7
Standard
 73
     1
 44
1.0
  0
POINT
  5
295
330
282
100
AcDbEntity
  8
Defpoints
 62
     0
100
AcDbPoint
 10
111.9917307760093
 20
85.30065042620561
 30
0.0
 50
0.0
  0
POINT
  5
296
330
282
100
AcDbEntity
  8
Defpoints
 62
     0
100
AcDbPoint
 10
111.9917307760093
 20
75.30065042620561
 30
0.0
 50
0.0
  0
POINT
  5
297
330
282
100
AcDbEntity
  8
Defpoints
 62
     0
100
AcDbPoint
 10
119.8760996700989
 20
75.30065042620561
 30
0.0
 50
0.0
  0
ENDBLK
  5
28D
330
282
100
AcDbEntity
  8
0
100
AcDbBlockEnd
  0
BLOCK
  5
2A4
330
29A
100
AcDbEntity
  8
0
100
AcDbBlockBegin
  2
*D16
 70
     1
 10
0.0
 20
0.0
 30
0.0
  3
*D16
  1

  0
LINE
  5
2A7
330
29A
100
AcDbEntity
  8
文本层
370
    -2
 62
     0
100
AcDbLine
 10
103.6167307760093
 20
87.30065042620561
 30
0.0
 11
128.0627595276576
 21
87.30065042620561
 31
0.0
  0
LINE
  5
2A8
330
29A
100
AcDbEntity
  8
文本层
370
    -2
 62
     0
100
AcDbLine
 10
103.6167307760093
 20
73.30065042620561
 30
0.0
 11
128.0627595276576
 21
73.30065042620561
 31
0.0
  0
LINE
  5
2A9
330
29A
100
AcDbEntity
  8
文本层
370
    -2
 62
     0
100
AcDbLine
 10
126.8127595276576
 20
86.80065042620561
 30
0.0
 11
126.8127595276576
 21
73.80065042620561
 31
0.0
  0
SOLID
  5
2AA
330
29A
100
AcDbEntity
  8
文本层
 62
     0
100
AcDbTrace
 38
0.0
 10
126.7294261943243
 20
86.80065042620561
 11
126.8960928609909
 21
86.80065042620561
 12
126.8127595276576
 22
87.30065042620561
 13
126.8127595276576
 23
87.30065042620561
  0
SOLID
  5
2AB
330
29A
100
AcDbEntity
  8
文本层
 62
     0
100
AcDbTrace
 38
0.0
 10
126.7294261943243
 20
73.80065042620561
 11
126.8960928609909
 21
73.80065042620561
 12
126.8127595276576
 22
73.30065042620561
 13
126.8127595276576
 23
73.30065042620561
  0
MTEXT
  5
2AC
330
29A
100
AcDbEntity
  8
文本层
 62
     0
100
AcDbMText
 10
125.6877595276576
 20
80.30065042620562
 30
0.0
210
0.0
220
0.0
230
1.0
 11
6.123031769111886E-17
 21
1.0
 31
0.0
 40
1.0
 41
0.0
 71
     5
 72
     1
  1
14
  7
Standard
 73
     1
 44
1.0
  0
POINT
  5
2AD
330
29A
100
AcDbEntity
  8
Defpoints
 62
     0
100
AcDbPoint
 10
102.9917307760093
 20
87.30065042620561
 30
0.0
 50
0.0
  0
POINT
  5
2AE
330
29A
100
AcDbEntity
  8
Defpoints
 62
     0
100
AcDbPoint
 10
102.9917307760093
 20
73.30065042620561
 30
0.0
 50
0.0
  0
POINT
  5
2AF
330
29A
100
AcDbEntity
  8
Defpoints
 62
     0
100
AcDbPoint
 10
126.8127595276576
 20
73.30065042620561
 30
0.0
 50
0.0
  0
ENDBLK
  5
2A5
330
29A
100
AcDbEntity
  8
0
100
AcDbBlockEnd
  0
BLOCK
  5
2BC
330
2B2
100
AcDbEntity
  8
0
100
AcDbBlockBegin
  2
*D17
 70
     1
 10
0.0
 20
0.0
 30
0.0
  3
*D17
  1

  0
LINE
  5
2BF
330
2B2
100
AcDbEntity
  8
文本层
370
    -2
 62
     0
100
AcDbLine
 10
79.36673077600926
 20
89.30065042620561
 30
0.0
 11
78.38878965042946
 21
89.30065042620561
 31
0.0
  0
LINE
  5
2C0
330
2B2
100
AcDbEntity
  8
文本层
370
    -2
 62
     0
100
AcDbLine
 10
79.36673077600926
 20
71.30065042620561
 30
0.0
 11
78.38878965042946
 21
71.30065042620561
 31
0.0
  0
LINE
  5
2C1
330
2B2
100
AcDbEntity
  8
文本层
370
    -2
 62
     0
100
AcDbLine
 10
79.63878965042946
 20
88.80065042620561
 30
0.0
 11
79.63878965042946
 21
71.80065042620561
 31
0.0
  0
SOLID
  5
2C2
330
2B2
100
AcDbEntity
  8
文本层
 62
     0
100
AcDbTrace
 38
0.0
 10
79.55545631709613
 20
88.80065042620561
 11
79.72212298376279
 21
88.80065042620561
 12
79.63878965042946
 22
89.30065042620561
 13
79.63878965042946
 23
89.30065042620561
  0
SOLID
  5
2C3
330
2B2
100
AcDbEntity
  8
文本层
 62
     0
100
AcDbTrace
 38
0.0
 10
79.55545631709613
 20
71.80065042620561
 11
79.72212298376279
 21
71.80065042620561
 12
79.63878965042946
 22
71.30065042620561
 13
79.63878965042946
 23
71.30065042620561
  0
MTEXT
  5
2C4
330
2B2
100
AcDbEntity
  8
文本层
 62
     0
100
AcDbMText
 10
78.51378965042944
 20
80.30065042620562
 30
0.0
210
0.0
220
0.0
230
1.0
 11
6.123031769111886E-17
 21
1.0
 31
0.0
 40
1.0
 41
0.0
 71
     5
 72
     1
  1
18
  7
Standard
 73
     1
 44
1.0
  0
POINT
  5
2C5
330
2B2
100
AcDbEntity
  8
Defpoints
 62
     0
100
AcDbPoint
 10
79.99173077600926
 20
89.30065042620561
 30
0.0
 50
0.0
  0
POINT
  5
2C6
330
2B2
100
AcDbEntity
  8
Defpoints
 62
     0
100
AcDbPoint
 10
79.99173077600926
 20
71.30065042620561
 30
0.0
 50
0.0
  0
POINT
  5
2C7
330
2B2
100
AcDbEntity
  8
Defpoints
 62
     0
100
AcDbPoint
 10
79.63878965042946
 20
71.30065042620561
 30
0.0
 50
0.0
  0
ENDBLK
  5
2BD
330
2B2
100
AcDbEntity
  8
0
100
AcDbBlockEnd
  0
BLOCK
  5
2D4
330
2CA
100
AcDbEntity
  8
0
100
AcDbBlockBegin
  2
*D18
 70
     1
 10
0.0
 20
0.0
 30
0.0
  3
*D18
  1

  0
LINE
  5
2D7
330
2CA
100
AcDbEntity
  8
文本层
370
    -2
 62
     0
100
AcDbLine
 10
64.86673077600926
 20
87.30065042620561
 30
0.0
 11
64.24173077600926
 21
87.30065042620561
 31
0.0
  0
LINE
  5
2D8
330
2CA
100
AcDbEntity
  8
文本层
370
    -2
 62
     0
100
AcDbLine
 10
64.86673077600926
 20
73.30065042620561
 30
0.0
 11
64.24173077600926
 21
73.30065042620561
 31
0.0
  0
LINE
  5
2D9
330
2CA
100
AcDbEntity
  8
文本层
370
    -2
 62
     0
100
AcDbLine
 10
65.49173077600926
 20
86.80065042620561
 30
0.0
 11
65.49173077600926
 21
73.80065042620561
 31
0.0
  0
SOLID
  5
2DA
330
2CA
100
AcDbEntity
  8
文本层
 62
     0
100
AcDbTrace
 38
0.0
 10
65.40839744267593
 20
86.80065042620561
 11
65.57506410934259
 21
86.80065042620561
 12
65.49173077600926
 22
87.30065042620561
 13
65.49173077600926
 23
87.30065042620561
  0
SOLID
  5
2DB
330
2CA
100
AcDbEntity
  8
文本层
 62
     0
100
AcDbTrace
 38
0.0
 10
65.40839744267593
 20
73.80065042620561
 11
65.57506410934259
 21
73.80065042620561
 12
65.49173077600926
 22
73.30065042620561
 13
65.49173077600926
 23
73.30065042620561
  0
MTEXT
  5
2DC
330
2CA
100
AcDbEntity
  8
文本层
 62
     0
100
AcDbMText
 10
64.36673077600925
 20
80.30065042620562
 30
0.0
210
0.0
220
0.0
230
1.0
 11
6.123031769111886E-17
 21
1.0
 31
0.0
 40
1.0
 41
0.0
 71
     5
 72
     1
  1
14
  7
Standard
 73
     1
 44
1.0
  0
POINT
  5
2DD
330
2CA
100
AcDbEntity
  8
Defpoints
 62
     0
100
AcDbPoint
 10
65.49173077600926
 20
87.30065042620561
 30
0.0
 50
0.0
  0
POINT
  5
2DE
330
2CA
100
AcDbEntity
  8
Defpoints
 62
     0
100
AcDbPoint
 10
65.49173077600926
 20
73.30065042620561
 30
0.0
 50
0.0
  0
POINT
  5
2DF
330
2CA
100
AcDbEntity
  8
Defpoints
 62
     0
100
AcDbPoint
 10
65.49173077600926
 20
73.30065042620561
 30
0.0
 50
0.0
  0
ENDBLK
  5
2D5
330
2CA
100
AcDbEntity
  8
0
100
AcDbBlockEnd
  0
BLOCK
  5
2EC
330
2E2
100
AcDbEntity
  8
0
100
AcDbBlockBegin
  2
*D19
 70
     1
 10
0.0
 20
0.0
 30
0.0
  3
*D19
  1

  0
LINE
  5
333
330
2E2
100
AcDbEntity
  8
文本层
370
    -2
 62
     0
100
AcDbLine
 10
94.93367251425086
 20
107.4730093653911
 30
0.0
 11
101.5984178406795
 21
100.8082640389624
 31
0.0
  0
LINE
  5
334
330
2E2
100
AcDbEntity
  8
文本层
370
    -2
 62
     0
100
AcDbLine
 10
100.9336725142508
 20
113.473009365391
 30
0.0
 11
107.5984178406795
 21
106.8082640389624
 31
0.0
  0
LINE
  5
335
330
2E2
100
AcDbEntity
  8
文本层
370
    -2
 62
     0
100
AcDbLine
 10
101.0680877547896
 20
102.0457009060389
 30
0.0
 11
106.360980973603
 21
107.3385941248523
 31
0.0
  0
SOLID
  5
336
330
2E2
100
AcDbEntity
  8
文本层
 62
     0
100
AcDbTrace
 38
0.0
 10
101.0091621896907
 20
102.1046264711377
 11
101.1270133198885
 21
101.98677534094
 12
100.7145343641963
 22
101.6921475154456
 13
100.7145343641963
 23
101.6921475154456
  0
SOLID
  5
337
330
2E2
100
AcDbEntity
  8
文本层
 62
     0
100
AcDbTrace
 38
0.0
 10
106.3020554085042
 20
107.3975196899512
 11
106.4199065387019
 21
107.2796685597534
 12
106.7145343641963
 22
107.6921475154456
 13
106.7145343641963
 23
107.6921475154456
  0
MTEXT
  5
338
330
2E2
100
AcDbEntity
  8
文本层
 62
     0
100
AcDbMText
 10
102.9190392353615
 20
105.4876426442804
 30
0.0
210
0.0
220
0.0
230
1.0
 11
0.7071067811865476
 21
0.7071067811865475
 31
0.0
 40
1.0
 41
0.0
 71
     5
 72
     1
  1
{\f??|b0|i0|c0|p54;8}
  7
Standard
 73
     1
 44
1.0
  0
POINT
  5
339
330
2E2
100
AcDbEntity
  8
Defpoints
 62
     0
100
AcDbPoint
 10
94.49173077600926
 20
107.9149511036326
 30
0.0
 50
0.0
  0
POINT
  5
33A
330
2E2
100
AcDbEntity
  8
Defpoints
 62
     0
100
AcDbPoint
 10
100.4917307760092
 20
113.9149511036326
 30
0.0
 50
0.0
  0
POINT
  5
33B
330
2E2
100
AcDbEntity
  8
Defpoints
 62
     0
100
AcDbPoint
 10
106.7145343641963
 20
107.6921475154456
 30
0.0
 50
0.0
  0
ENDBLK
  5
2ED
330
2E2
100
AcDbEntity
  8
0
100
AcDbBlockEnd
  0
BLOCK
  5
303
330
2FA
100
AcDbEntity
  8
0
100
AcDbBlockBegin
  2
*D20
 70
     1
 10
0.0
 20
0.0
 30
0.0
  3
*D20
  1

  0
LINE
  5
306
330
2FA
100
AcDbEntity
  8
文本层
370
    -2
 62
     0
100
AcDbLine
 10
107.478336771925
 20
114.8572633192136
 30
0.0
 11
103.537691972341
 21
113.3016545230902
 31
0.0
  0
LINE
  5
307
330
2FA
100
AcDbEntity
  8
文本层
370
    -2
 62
     0
100
AcDbLine
 10
91.44576957967747
 20
108.5282476841751
 30
0.0
 11
90.9806956414981
 21
108.3446551134476
 31
0.0
  0
MTEXT
  5
308
330
2FA
100
AcDbEntity
  8
文本层
 62
     0
100
AcDbMText
 10
105.3987385426454
 20
115.245806301677
 30
0.0
210
0.0
220
0.0
230
1.0
 11
0.9301478763587355
 21
0.3671851414550082
 31
0.0
 40
1.0
 41
0.0
 71
     5
 72
     1
  1
\U+220512
  7
Standard
 73
     1
 44
1.0
  0
LINE
  5
309
330
2FA
100
AcDbEntity
  8
文本层
370
    -2
 62
     0
100
AcDbLine
 10
91.91084351785685
 20
108.7118402549026
 30
0.0
 11
103.0726180341617
 21
113.1180619523627
 31
0.0
  0
SOLID
  5
30A
330
2FA
100
AcDbEntity
  8
文本层
 62
     0
100
AcDbTrace
 38
0.0
 10
91.41517081788956
 20
108.605760007205
 11
91.47636834146539
 21
108.4507353611452
 12
91.91084351785685
 22
108.7118402549026
 13
91.91084351785685
 23
108.7118402549026
  0
SOLID
  5
30B
330
2FA
100
AcDbEntity
  8
文本层
 62
     0
100
AcDbTrace
 38
0.0
 10
103.5070932105531
 20
113.3791668461201
 11
103.5682907341289
 21
113.2241422000603
 12
103.0726180341617
 22
113.1180619523627
 13
103.0726180341617
 23
113.1180619523627
  0
POINT
  5
30C
330
2FA
100
AcDbEntity
  8
Defpoints
 62
     0
100
AcDbPoint
 10
103.0726180341617
 20
113.1180619523627
 30
0.0
 50
0.0
  0
POINT
  5
30D
330
2FA
100
AcDbEntity
  8
Defpoints
 62
     0
100
AcDbPoint
 10
91.91084351785685
 20
108.7118402549026
 30
0.0
 50
0.0
  0
ENDBLK
  5
304
330
2FA
100
AcDbEntity
  8
0
100
AcDbBlockEnd
  0
BLOCK
  5
326
330
31C
100
AcDbEntity
  8
0
100
AcDbBlockBegin
  2
*D21
 70
     1
 10
0.0
 20
0.0
 30
0.0
  3
*D21
  1

  0
LINE
  5
33C
330
31C
100
AcDbEntity
  8
文本层
370
    -2
 62
     0
100
AcDbLine
 10
94.04978903776768
 20
113.473009365391
 30
0.0
 11
86.92696161048502
 21
106.3501819381084
 31
0.0
  0
LINE
  5
33D
330
31C
100
AcDbEntity
  8
文本层
370
    -2
 62
     0
100
AcDbLine
 10
100.0497890377677
 20
107.4730093653911
 30
0.0
 11
92.92696161048501
 21
100.3501819381084
 31
0.0
  0
LINE
  5
33E
330
31C
100
AcDbEntity
  8
文本层
370
    -2
 62
     0
100
AcDbLine
 10
88.16439847756148
 20
106.8805120239983
 30
0.0
 11
93.45729169637491
 21
101.5876188051848
 31
0.0
  0
SOLID
  5
33F
330
31C
100
AcDbEntity
  8
文本层
 62
     0
100
AcDbTrace
 38
0.0
 10
88.22332404266037
 20
106.9394375890972
 11
88.1054729124626
 21
106.8215864588994
 12
87.8108450869682
 22
107.2340654145916
 13
87.8108450869682
 23
107.2340654145916
  0
SOLID
  5
340
330
31C
100
AcDbEntity
  8
文本层
 62
     0
100
AcDbTrace
 38
0.0
 10
93.5162172614738
 20
101.6465443702837
 11
93.39836613127603
 21
101.528693240086
 12
93.81084508696819
 22
101.2340654145916
 13
93.81084508696819
 23
101.2340654145916
  0
MTEXT
  5
341
330
31C
100
AcDbEntity
  8
文本层
 62
     0
100
AcDbMText
 10
91.60634021580304
 20
105.0295605434264
 30
0.0
210
0.0
220
0.0
230
1.0
 11
0.7071067811865476
 21
-0.7071067811865475
 31
0.0
 40
1.0
 41
0.0
 71
     5
 72
     1
  1
{\f??|b0|i0|c0|p54;8}
  7
Standard
 73
     1
 44
1.0
  0
POINT
  5
342
330
31C
100
AcDbEntity
  8
Defpoints
 62
     0
100
AcDbPoint
 10
94.49173077600928
 20
113.9149511036326
 30
0.0
 50
0.0
  0
POINT
  5
343
330
31C
100
AcDbEntity
  8
Defpoints
 62
     0
100
AcDbPoint
 10
100.4917307760093
 20
107.9149511036326
 30
0.0
 50
0.0
  0
POINT
  5
344
330
31C
100
AcDbEntity
  8
Defpoints
 62
     0
100
AcDbPoint
 10
93.81084508696819
 20
101.2340654145916
 30
0.0
 50
0.0
  0
ENDBLK
  5
327
330
31C
100
AcDbEntity
  8
0
100
AcDbBlockEnd
  0
ENDSEC
  0
SECTION
  2
ENTITIES
  0
LINE
  5
A9
330
1F
100
AcDbEntity
  8
点划线
100
AcDbLine
 10
116.9917307760093
 20
80.30065042620561
 30
0.0
 11
30.99173077600926
 21
80.30065042620561
 31
0.0
  0
LINE
  5
AD
102
{ACAD_REACTORS
330
148
330
160
330
208
102
}
330
1F
100
AcDbEntity
  8
轮廓线
100
AcDbLine
 10
33.99173077600926
 20
81.30065042620561
 30
0.0
 11
40.99173077600926
 21
86.30065042620561
 31
0.0
  0
LINE
  5
AE
330
1F
100
AcDbEntity
  8
轮廓线
100
AcDbLine
 10
40.99173077600926
 20
86.30065042620561
 30
0.0
 11
44.99173077600926
 21
86.30065042620561
 31
0.0
  0
LINE
  5
AF
102
{ACAD_REACTORS
330
178
330
190
102
}
330
1F
100
AcDbEntity
  8
轮廓线
100
AcDbLine
 10
44.99173077600926
 20
86.30065042620561
 30
0.0
 11
44.99173077600926
 21
90.30065042620561
 31
0.0
  0
LINE
  5
B0
102
{ACAD_REACTORS
330
190
330
1A8
102
}
330
1F
100
AcDbEntity
  8
轮廓线
100
AcDbLine
 10
44.99173077600926
 20
90.30065042620561
 30
0.0
 11
48.99173077600926
 21
90.30065042620561
 31
0.0
  0
LINE
  5
B1
330
1F
100
AcDbEntity
  8
轮廓线
100
AcDbLine
 10
48.99173077600926
 20
90.30065042620561
 30
0.0
 11
48.99173077600926
 21
88.30065042620561
 31
0.0
  0
LINE
  5
B4
330
1F
100
AcDbEntity
  8
轮廓线
100
AcDbLine
 10
48.99173077600926
 20
88.30065042620561
 30
0.0
 11
51.99173077600926
 21
88.30065042620561
 31
0.0
  0
LINE
  5
B5
330
1F
100
AcDbEntity
  8
轮廓线
100
AcDbLine
 10
51.99173077600926
 20
88.30065042620561
 30
0.0
 11
51.99173077600926
 21
90.30065042620561
 31
0.0
  0
LINE
  5
B6
102
{ACAD_REACTORS
330
1A8
330
1C0
330
1D8
102
}
330
1F
100
AcDbEntity
  8
轮廓线
100
AcDbLine
 10
51.99173077600926
 20
90.30065042620561
 30
0.0
 11
55.99173077600926
 21
90.30065042620561
 31
0.0
  0
LINE
  5
B7
330
1F
100
AcDbEntity
  8
轮廓线
100
AcDbLine
 10
55.99173077600926
 20
90.30065042620561
 30
0.0
 11
55.99173077600926
 21
88.30065042620561
 31
0.0
  0
LINE
  5
B8
330
1F
100
AcDbEntity
  8
轮廓线
100
AcDbLine
 10
55.99173077600926
 20
88.30065042620561
 30
0.0
 11
58.99173077600926
 21
88.30065042620561
 31
0.0
  0
LINE
  5
B9
330
1F
100
AcDbEntity
  8
轮廓线
100
AcDbLine
 10
58.99173077600926
 20
88.30065042620561
 30
0.0
 11
58.99173077600926
 21
90.30065042620561
 31
0.0
  0
LINE
  5
BA
102
{ACAD_REACTORS
330
1D8
330
1F0
102
}
330
1F
100
AcDbEntity
  8
轮廓线
100
AcDbLine
 10
58.99173077600926
 20
90.30065042620561
 30
0.0
 11
62.99173077600926
 21
90.30065042620561
 31
0.0
  0
LINE
  5
BB
330
1F
100
AcDbEntity
  8
轮廓线
100
AcDbLine
 10
62.99173077600926
 20
90.30065042620561
 30
0.0
 11
62.99173077600926
 21
87.30065042620561
 31
0.0
  0
LINE
  5
BC
102
{ACAD_REACTORS
330
2E0
102
}
330
1F
100
AcDbEntity
  8
轮廓线
100
AcDbLine
 10
62.99173077600926
 20
87.30065042620561
 30
0.0
 11
67.99173077600926
 21
87.30065042620561
 31
0.0
  0
LINE
  5
BD
102
{ACAD_REACTORS
330
220
330
312
102
}
330
1F
100
AcDbEntity
  8
轮廓线
100
AcDbLine
 10
67.99173077600926
 20
87.30065042620561
 30
0.0
 11
69.99173077600926
 21
89.30065042620561
 31
0.0
  0
LINE
  5
BE
102
{ACAD_REACTORS
330
2C8
102
}
330
1F
100
AcDbEntity
  8
轮廓线
100
AcDbLine
 10
69.99173077600926
 20
89.30065042620561
 30
0.0
 11
89.99173077600926
 21
89.30065042620561
 31
0.0
  0
LINE
  5
BF
330
1F
100
AcDbEntity
  8
轮廓线
100
AcDbLine
 10
89.99173077600926
 20
89.30065042620561
 30
0.0
 11
91.99173077600926
 21
87.30065042620561
 31
0.0
  0
LINE
  5
C0
330
1F
100
AcDbEntity
  8
轮廓线
100
AcDbLine
 10
91.99173077600926
 20
87.30065042620561
 30
0.0
 11
102.9917307760093
 21
87.30065042620561
 31
0.0
  0
LINE
  5
C1
330
1F
100
AcDbEntity
  8
轮廓线
100
AcDbLine
 10
102.9917307760093
 20
87.30065042620561
 30
0.0
 11
102.9917307760093
 21
85.30065042620561
 31
0.0
  0
LINE
  5
C2
102
{ACAD_REACTORS
330
298
330
316
102
}
330
1F
100
AcDbEntity
  8
轮廓线
100
AcDbLine
 10
102.9917307760093
 20
85.30065042620561
 30
0.0
 11
111.9917307760093
 21
85.30065042620561
 31
0.0
  0
LINE
  5
C3
330
1F
100
AcDbEntity
  8
轮廓线
100
AcDbLine
 10
111.9917307760093
 20
85.30065042620561
 30
0.0
 11
113.9917307760093
 21
83.30065042620561
 31
0.0
  0
LINE
  5
C4
330
1F
100
AcDbEntity
  8
轮廓线
100
AcDbLine
 10
113.9917307760093
 20
83.30065042620561
 30
0.0
 11
113.9917307760093
 21
81.30065042620561
 31
0.0
  0
LINE
  5
C5
330
1F
100
AcDbEntity
  8
轮廓线
100
AcDbLine
 10
113.9917307760093
 20
81.30065042620561
 30
0.0
 11
113.9917307760093
 21
80.30065042620561
 31
0.0
  0
LINE
  5
C7
330
1F
100
AcDbEntity
  8
轮廓线
100
AcDbLine
 10
40.99173077600926
 20
86.30065042620561
 30
0.0
 11
40.99173077600926
 21
80.30065042620561
 31
0.0
  0
LINE
  5
C8
330
1F
100
AcDbEntity
  8
轮廓线
100
AcDbLine
 10
44.99173077600926
 20
86.30065042620561
 30
0.0
 11
44.99173077600926
 21
80.30065042620561
 31
0.0
  0
LINE
  5
C9
330
1F
100
AcDbEntity
  8
轮廓线
100
AcDbLine
 10
48.99173077600926
 20
88.30065042620561
 30
0.0
 11
48.99173077600926
 21
80.30065042620561
 31
0.0
  0
LINE
  5
CA
330
1F
100
AcDbEntity
  8
轮廓线
100
AcDbLine
 10
51.99173077600926
 20
88.30065042620561
 30
0.0
 11
51.99173077600926
 21
80.30065042620561
 31
0.0
  0
LINE
  5
CB
330
1F
100
AcDbEntity
  8
轮廓线
100
AcDbLine
 10
55.99173077600926
 20
88.30065042620561
 30
0.0
 11
55.99173077600926
 21
80.30065042620561
 31
0.0
  0
LINE
  5
CC
330
1F
100
AcDbEntity
  8
轮廓线
100
AcDbLine
 10
58.99173077600926
 20
88.30065042620561
 30
0.0
 11
58.99173077600926
 21
80.30065042620561
 31
0.0
  0
LINE
  5
CD
330
1F
100
AcDbEntity
  8
轮廓线
100
AcDbLine
 10
62.99173077600926
 20
87.30065042620561
 30
0.0
 11
62.99173077600926
 21
80.30065042620561
 31
0.0
  0
LINE
  5
CE
330
1F
100
AcDbEntity
  8
轮廓线
100
AcDbLine
 10
67.99173077600926
 20
87.30065042620561
 30
0.0
 11
67.99173077600926
 21
80.30065042620561
 31
0.0
  0
LINE
  5
CF
330
1F
100
AcDbEntity
  8
轮廓线
100
AcDbLine
 10
69.99173077600926
 20
89.30065042620561
 30
0.0
 11
69.99173077600926
 21
80.30065042620561
 31
0.0
  0
LINE
  5
D0
330
1F
100
AcDbEntity
  8
轮廓线
100
AcDbLine
 10
89.99173077600926
 20
89.30065042620561
 30
0.0
 11
89.99173077600926
 21
80.30065042620561
 31
0.0
  0
LINE
  5
D1
330
1F
100
AcDbEntity
  8
轮廓线
100
AcDbLine
 10
91.99173077600926
 20
87.30065042620561
 30
0.0
 11
91.99173077600926
 21
80.30065042620561
 31
0.0
  0
LINE
  5
D2
330
1F
100
AcDbEntity
  8
轮廓线
100
AcDbLine
 10
102.9917307760093
 20
85.30065042620561
 30
0.0
 11
102.9917307760093
 21
80.30065042620561
 31
0.0
  0
LINE
  5
D3
330
1F
100
AcDbEntity
  8
轮廓线
100
AcDbLine
 10
111.9917307760093
 20
85.30065042620561
 30
0.0
 11
111.9917307760093
 21
80.30065042620561
 31
0.0
  0
LINE
  5
D5
330
1F
100
AcDbEntity
  8
轮廓线
100
AcDbLine
 10
91.99173077600926
 20
81.30065042620561
 30
0.0
 11
102.9917307760093
 21
81.30065042620561
 31
0.0
  0
LINE
  5
D6
102
{ACAD_REACTORS
330
280
330
2B0
102
}
330
1F
100
AcDbEntity
  8
轮廓线
100
AcDbLine
 10
91.99173077600926
 20
81.30065042620561
 30
0.0
 11
102.9917307760093
 21
87.30065042620561
 31
0.0
  0
LINE
  5
D7
102
{ACAD_REACTORS
330
280
102
}
330
1F
100
AcDbEntity
  8
轮廓线
100
AcDbLine
 10
91.99173077600926
 20
87.30065042620561
 30
0.0
 11
102.9917307760093
 21
81.30065042620561
 31
0.0
  0
LINE
  5
D8
330
1F
100
AcDbEntity
  8
轮廓线
100
AcDbLine
 10
91.99173077600926
 20
73.30065042620561
 30
0.0
 11
102.9917307760093
 21
79.30065042620561
 31
0.0
  0
LINE
  5
D9
330
1F
100
AcDbEntity
  8
轮廓线
100
AcDbLine
 10
91.99173077600926
 20
79.30065042620561
 30
0.0
 11
102.9917307760093
 21
73.30065042620561
 31
0.0
  0
LINE
  5
DA
330
1F
100
AcDbEntity
  8
轮廓线
100
AcDbLine
 10
91.99173077600926
 20
79.30065042620561
 30
0.0
 11
102.9917307760093
 21
79.30065042620561
 31
0.0
  0
LINE
  5
DB
102
{ACAD_REACTORS
330
268
330
2B0
102
}
330
1F
100
AcDbEntity
  8
轮廓线
100
AcDbLine
 10
91.99173077600926
 20
73.30065042620561
 30
0.0
 11
102.9917307760093
 21
73.30065042620561
 31
0.0
  0
LINE
  5
DC
102
{ACAD_REACTORS
330
148
330
160
330
238
102
}
330
1F
100
AcDbEntity
  8
轮廓线
100
AcDbLine
 10
33.99173077600926
 20
79.30065042620561
 30
0.0
 11
40.99173077600926
 21
74.30065042620561
 31
0.0
  0
LINE
  5
DE
330
1F
100
AcDbEntity
  8
轮廓线
100
AcDbLine
 10
67.99173077600926
 20
73.30065042620561
 30
0.0
 11
69.99173077600926
 21
71.30065042620561
 31
0.0
  0
LINE
  5
DF
330
1F
100
AcDbEntity
  8
轮廓线
100
AcDbLine
 10
51.99173077600926
 20
70.30065042620561
 30
0.0
 11
55.99173077600926
 21
70.30065042620561
 31
0.0
  0
LINE
  5
E0
330
1F
100
AcDbEntity
  8
轮廓线
100
AcDbLine
 10
51.99173077600926
 20
72.30065042620561
 30
0.0
 11
51.99173077600926
 21
80.30065042620561
 31
0.0
  0
LINE
  5
E1
330
1F
100
AcDbEntity
  8
轮廓线
100
AcDbLine
 10
48.99173077600926
 20
72.30065042620561
 30
0.0
 11
48.99173077600926
 21
80.30065042620561
 31
0.0
  0
LINE
  5
E2
330
1F
100
AcDbEntity
  8
轮廓线
100
AcDbLine
 10
44.99173077600926
 20
74.30065042620561
 30
0.0
 11
44.99173077600926
 21
70.30065042620561
 31
0.0
  0
LINE
  5
E3
330
1F
100
AcDbEntity
  8
轮廓线
100
AcDbLine
 10
44.99173077600926
 20
74.30065042620561
 30
0.0
 11
44.99173077600926
 21
80.30065042620561
 31
0.0
  0
LINE
  5
E4
330
1F
100
AcDbEntity
  8
轮廓线
100
AcDbLine
 10
40.99173077600926
 20
74.30065042620561
 30
0.0
 11
40.99173077600926
 21
80.30065042620561
 31
0.0
  0
LINE
  5
E5
330
1F
100
AcDbEntity
  8
轮廓线
100
AcDbLine
 10
40.99173077600926
 20
74.30065042620561
 30
0.0
 11
44.99173077600926
 21
74.30065042620561
 31
0.0
  0
LINE
  5
E6
102
{ACAD_REACTORS
330
178
102
}
330
1F
100
AcDbEntity
  8
轮廓线
100
AcDbLine
 10
44.99173077600926
 20
70.30065042620561
 30
0.0
 11
48.99173077600926
 21
70.30065042620561
 31
0.0
  0
LINE
  5
E7
330
1F
100
AcDbEntity
  8
轮廓线
100
AcDbLine
 10
48.99173077600926
 20
72.30065042620561
 30
0.0
 11
51.99173077600926
 21
72.30065042620561
 31
0.0
  0
LINE
  5
E8
330
1F
100
AcDbEntity
  8
轮廓线
100
AcDbLine
 10
48.99173077600926
 20
70.30065042620561
 30
0.0
 11
48.99173077600926
 21
72.30065042620561
 31
0.0
  0
LINE
  5
E9
330
1F
100
AcDbEntity
  8
轮廓线
100
AcDbLine
 10
51.99173077600926
 20
72.30065042620561
 30
0.0
 11
51.99173077600926
 21
70.30065042620561
 31
0.0
  0
LINE
  5
EA
330
1F
100
AcDbEntity
  8
轮廓线
100
AcDbLine
 10
67.99173077600926
 20
73.30065042620561
 30
0.0
 11
67.99173077600926
 21
80.30065042620561
 31
0.0
  0
LINE
  5
EB
330
1F
100
AcDbEntity
  8
轮廓线
100
AcDbLine
 10
62.99173077600926
 20
73.30065042620561
 30
0.0
 11
62.99173077600926
 21
80.30065042620561
 31
0.0
  0
LINE
  5
EC
330
1F
100
AcDbEntity
  8
轮廓线
100
AcDbLine
 10
58.99173077600926
 20
72.30065042620561
 30
0.0
 11
58.99173077600926
 21
80.30065042620561
 31
0.0
  0
LINE
  5
ED
330
1F
100
AcDbEntity
  8
轮廓线
100
AcDbLine
 10
55.99173077600926
 20
72.30065042620561
 30
0.0
 11
55.99173077600926
 21
80.30065042620561
 31
0.0
  0
LINE
  5
EE
330
1F
100
AcDbEntity
  8
轮廓线
100
AcDbLine
 10
58.99173077600926
 20
70.30065042620561
 30
0.0
 11
62.99173077600926
 21
70.30065042620561
 31
0.0
  0
LINE
  5
EF
330
1F
100
AcDbEntity
  8
轮廓线
100
AcDbLine
 10
55.99173077600926
 20
72.30065042620561
 30
0.0
 11
58.99173077600926
 21
72.30065042620561
 31
0.0
  0
LINE
  5
F0
330
1F
100
AcDbEntity
  8
轮廓线
100
AcDbLine
 10
55.99173077600926
 20
70.30065042620561
 30
0.0
 11
55.99173077600926
 21
72.30065042620561
 31
0.0
  0
LINE
  5
F1
330
1F
100
AcDbEntity
  8
轮廓线
100
AcDbLine
 10
58.99173077600926
 20
72.30065042620561
 30
0.0
 11
58.99173077600926
 21
70.30065042620561
 31
0.0
  0
LINE
  5
F2
102
{ACAD_REACTORS
330
2E0
102
}
330
1F
100
AcDbEntity
  8
轮廓线
100
AcDbLine
 10
62.99173077600926
 20
73.30065042620561
 30
0.0
 11
67.99173077600926
 21
73.30065042620561
 31
0.0
  0
LINE
  5
F3
330
1F
100
AcDbEntity
  8
轮廓线
100
AcDbLine
 10
62.99173077600926
 20
70.30065042620561
 30
0.0
 11
62.99173077600926
 21
73.30065042620561
 31
0.0
  0
LINE
  5
F4
102
{ACAD_REACTORS
330
2C8
102
}
330
1F
100
AcDbEntity
  8
轮廓线
100
AcDbLine
 10
69.99173077600926
 20
71.30065042620561
 30
0.0
 11
89.99173077600926
 21
71.30065042620561
 31
0.0
  0
LINE
  5
F5
330
1F
100
AcDbEntity
  8
轮廓线
100
AcDbLine
 10
69.99173077600926
 20
71.30065042620561
 30
0.0
 11
69.99173077600926
 21
80.30065042620561
 31
0.0
  0
LINE
  5
F6
330
1F
100
AcDbEntity
  8
轮廓线
100
AcDbLine
 10
91.99173077600926
 20
73.30065042620561
 30
0.0
 11
91.99173077600926
 21
80.30065042620561
 31
0.0
  0
LINE
  5
F7
330
1F
100
AcDbEntity
  8
轮廓线
100
AcDbLine
 10
89.99173077600926
 20
71.30065042620561
 30
0.0
 11
89.99173077600926
 21
80.30065042620561
 31
0.0
  0
LINE
  5
F8
102
{ACAD_REACTORS
330
31A
102
}
330
1F
100
AcDbEntity
  8
轮廓线
100
AcDbLine
 10
89.99173077600926
 20
71.30065042620561
 30
0.0
 11
91.99173077600926
 21
73.30065042620561
 31
0.0
  0
LINE
  5
F9
330
1F
100
AcDbEntity
  8
轮廓线
100
AcDbLine
 10
102.9917307760093
 20
73.30065042620561
 30
0.0
 11
102.9917307760093
 21
75.30065042620561
 31
0.0
  0
LINE
  5
FA
102
{ACAD_REACTORS
330
298
102
}
330
1F
100
AcDbEntity
  8
轮廓线
100
AcDbLine
 10
102.9917307760093
 20
75.30065042620561
 30
0.0
 11
111.9917307760093
 21
75.30065042620561
 31
0.0
  0
LINE
  5
FB
330
1F
100
AcDbEntity
  8
轮廓线
100
AcDbLine
 10
102.9917307760093
 20
75.30065042620561
 30
0.0
 11
102.9917307760093
 21
80.30065042620561
 31
0.0
  0
LINE
  5
FC
330
1F
100
AcDbEntity
  8
轮廓线
100
AcDbLine
 10
111.9917307760093
 20
75.30065042620561
 30
0.0
 11
111.9917307760093
 21
80.30065042620561
 31
0.0
  0
LINE
  5
FD
330
1F
100
AcDbEntity
  8
轮廓线
100
AcDbLine
 10
113.9917307760093
 20
79.30065042620561
 30
0.0
 11
113.9917307760093
 21
80.30065042620561
 31
0.0
  0
LINE
  5
FE
330
1F
100
AcDbEntity
  8
轮廓线
100
AcDbLine
 10
111.9917307760093
 20
75.30065042620561
 30
0.0
 11
113.9917307760093
 21
77.30065042620561
 31
0.0
  0
LINE
  5
FF
102
{ACAD_REACTORS
330
250
102
}
330
1F
100
AcDbEntity
  8
轮廓线
100
AcDbLine
 10
113.9917307760093
 20
77.30065042620561
 30
0.0
 11
113.9917307760093
 21
79.30065042620561
 31
0.0
  0
LINE
  5
101
102
{ACAD_REACTORS
330
124
102
}
330
1F
100
AcDbEntity
  8
点划线
100
AcDbLine
 10
97.49173077600926
 20
101.9149511036326
 30
0.0
 11
97.49173077600926
 21
119.9149511036326
 31
0.0
  0
LINE
  5
102
102
{ACAD_REACTORS
330
124
102
}
330
1F
100
AcDbEntity
  8
点划线
100
AcDbLine
 10
88.49173077600926
 20
110.9149511036326
 30
0.0
 11
106.4917307760093
 21
110.9149511036326
 31
0.0
  0
CIRCLE
  5
103
102
{ACAD_REACTORS
330
30E
102
}
330
1F
100
AcDbEntity
  8
轮廓线
100
AcDbCircle
 10
97.49173077600926
 20
110.9149511036326
 30
0.0
 40
6.0
  0
LWPOLYLINE
  5
104
102
{ACAD_REACTORS
330
124
330
2F8
102
}
330
1F
100
AcDbEntity
  8
轮廓线
100
AcDbPolyline
 90
        2
 70
     0
 43
0.0
 10
91.99173077600926
 20
110.4149511036326
 10
96.99173077600926
 20
105.4149511036326
  0
LWPOLYLINE
  5
109
102
{ACAD_REACTORS
330
124
330
332
102
}
330
1F
100
AcDbEntity
  8
轮廓线
100
AcDbPolyline
 90
        2
 70
     0
 43
0.0
 10
96.99173077600926
 20
116.4149511036326
 10
91.99173077600926
 20
111.4149511036326
  0
LWPOLYLINE
  5
10A
102
{ACAD_REACTORS
330
124
330
2F8
102
}
330
1F
100
AcDbEntity
  8
轮廓线
100
AcDbPolyline
 90
        2
 70
     0
 43
0.0
 10
102.9917307760093
 20
111.4149511036326
 10
97.99173077600926
 20
116.4149511036326
  0
LWPOLYLINE
  5
10B
102
{ACAD_REACTORS
330
124
330
332
102
}
330
1F
100
AcDbEntity
  8
轮廓线
100
AcDbPolyline
 90
        2
 70
     0
 43
0.0
 10
97.99173077600926
 20
105.4149511036326
 10
102.9917307760093
 20
110.4149511036326
  0
LINE
  5
10C
102
{ACAD_REACTORS
330
124
102
}
330
1F
100
AcDbEntity
  8
轮廓线
100
AcDbLine
 10
96.99173077600926
 20
116.4149511036326
 30
0.0
 11
97.99173077600926
 21
116.4149511036326
 31
0.0
  0
LINE
  5
10D
102
{ACAD_REACTORS
330
124
102
}
330
1F
100
AcDbEntity
  8
轮廓线
100
AcDbLine
 10
91.99173077600926
 20
111.4149511036326
 30
0.0
 11
91.99173077600926
 21
110.4149511036326
 31
0.0
  0
LINE
  5
10E
102
{ACAD_REACTORS
330
124
102
}
330
1F
100
AcDbEntity
  8
轮廓线
100
AcDbLine
 10
102.9917307760093
 20
111.4149511036326
 30
0.0
 11
102.9917307760093
 21
110.4149511036326
 31
0.0
  0
LINE
  5
10F
102
{ACAD_REACTORS
330
124
102
}
330
1F
100
AcDbEntity
  8
轮廓线
100
AcDbLine
 10
96.99173077600926
 20
105.4149511036326
 30
0.0
 11
97.99173077600926
 21
105.4149511036326
 31
0.0
  0
HATCH
  5
124
330
1F
100
AcDbEntity
  8
剖面线
100
AcDbHatch
 10
0.0
 20
0.0
 30
0.0
210
0.0
220
0.0
230
1.0
  2
_USER
 70
     0
 71
     1
 91
        4
 92
        7
 72
     0
 73
     1
 93
        5
 10
97.49173077600926
 20
116.4149511036326
 10
96.99173077600928
 20
116.4149511036326
 10
91.99173077600926
 20
111.4149511036326
 10
91.99173077600926
 20
110.9149511036326
 10
97.49173077600926
 20
110.9149511036326
 97
        5
330
10C
330
109
330
10D
330
102
330
101
 92
        7
 72
     0
 73
     1
 93
        5
 10
97.49173077600926
 20
110.9149511036326
 10
102.9917307760093
 20
110.9149511036326
 10
102.9917307760093
 20
111.4149511036326
 10
97.99173077600931
 20
116.4149511036326
 10
97.49173077600926
 20
116.4149511036326
 97
        5
330
10C
330
101
330
102
330
10E
330
10A
 92
        7
 72
     0
 73
     1
 93
        5
 10
97.49173077600926
 20
105.4149511036326
 10
97.99173077600928
 20
105.4149511036326
 10
102.9917307760093
 20
110.4149511036326
 10
102.9917307760093
 20
110.9149511036326
 10
97.49173077600926
 20
110.9149511036326
 97
        5
330
10E
330
102
330
101
330
10F
330
10B
 92
        7
 72
     0
 73
     1
 93
        5
 10
97.49173077600926
 20
110.9149511036326
 10
91.99173077600926
 20
110.9149511036326
 10
91.99173077600926
 20
110.4149511036326
 10
96.99173077600926
 20
105.4149511036326
 10
97.49173077600926
 20
105.4149511036326
 97
        5
330
102
330
10D
330
104
330
10F
330
101
 75
     0
 76
     0
 52
30.0
 41
1.0
 77
     0
 78
     1
 53
30.0
 43
0.0
 44
0.0
 45
-0.4999999999999999
 46
0.8660254037844387
 79
     0
 47
0.03651202590970868
 98
        4
 10
96.55515112099974
 20
113.1050172759278
 10
98.8210229279976
 20
112.5573368786539
 10
98.38246696300612
 20
109.5998627997218
 10
96.26278054555124
 20
109.015670368591
  0
LINE
  5
12A
330
1F
100
AcDbEntity
  8
轮廓线
100
AcDbLine
 10
33.99173077600926
 20
80.30065042620561
 30
0.0
 11
33.99173077600926
 21
81.30065042620561
 31
0.0
  0
LINE
  5
12B
330
1F
100
AcDbEntity
  8
轮廓线
100
AcDbLine
 10
33.99173077600926
 20
80.30065042620561
 30
0.0
 11
33.99173077600926
 21
79.30065042620561
 31
0.0
  0
DIMENSION
  5
12C
102
{ACAD_REACTORS
330
148
102
}
102
{ACAD_XDICTIONARY
360
13C
102
}
330
1F
100
AcDbEntity
  8
文本层
100
AcDbDimension
  2
*D1
 10
28.66030668069482
 20
79.30065042620562
 30
0.0
 11
27.5353066806948
 21
80.30065042620562
 31
0.0
 70
    32
 71
     5
 42
2.0
  3
ISO-25
100
AcDbAlignedDimension
 13
33.99173077600926
 23
81.30065042620561
 33
0.0
 14
33.99173077600926
 24
79.30065042620561
 34
0.0
 52
0.0
 50
90.0
100
AcDbRotatedDimension
  0
DIMENSION
  5
149
102
{ACAD_REACTORS
330
160
102
}
102
{ACAD_XDICTIONARY
360
156
102
}
330
1F
100
AcDbEntity
  8
文本层
100
AcDbDimension
  2
*D2
 10
25.06175001874348
 20
74.30065042620562
 30
0.0
 11
23.93675001874347
 21
80.30065042620562
 31
0.0
 70
    32
 71
     5
 42
12.0
  3
ISO-25
100
AcDbAlignedDimension
 13
40.99173077600926
 23
86.30065042620561
 33
0.0
 14
40.99173077600926
 24
74.30065042620561
 34
0.0
 52
0.0
 50
90.0
100
AcDbRotatedDimension
  0
DIMENSION
  5
161
102
{ACAD_REACTORS
330
178
102
}
102
{ACAD_XDICTIONARY
360
16E
102
}
330
1F
100
AcDbEntity
  8
文本层
100
AcDbDimension
  2
*D3
 10
20.50930401496311
 20
70.30065042620562
 30
0.0
 11
19.3843040149631
 21
80.30065042620562
 31
0.0
 70
    32
 71
     5
 42
20.0
  3
ISO-25
100
AcDbAlignedDimension
 13
44.99173077600926
 23
90.30065042620561
 33
0.0
 14
44.99173077600926
 24
70.30065042620561
 34
0.0
 52
0.0
 50
90.0
100
AcDbRotatedDimension
  0
DIMENSION
  5
179
102
{ACAD_REACTORS
330
190
102
}
102
{ACAD_XDICTIONARY
360
186
102
}
330
1F
100
AcDbEntity
  8
文本层
100
AcDbDimension
  2
*D4
 10
48.99173077600926
 20
97.87944265200306
 30
0.0
 11
46.99173077600926
 21
99.00444265200306
 31
0.0
 70
    32
 71
     5
 42
4.0
  3
ISO-25
100
AcDbAlignedDimension
 13
44.99173077600926
 23
90.30065042620561
 33
0.0
 14
48.99173077600926
 24
90.30065042620561
 34
0.0
 52
0.0
100
AcDbRotatedDimension
  0
DIMENSION
  5
191
102
{ACAD_REACTORS
330
1A8
102
}
102
{ACAD_XDICTIONARY
360
19E
102
}
330
1F
100
AcDbEntity
  8
文本层
100
AcDbDimension
  2
*D5
 10
51.99173077600926
 20
97.87944265200306
 30
0.0
 11
50.49173077600926
 21
99.00444265200306
 31
0.0
 70
    32
 71
     5
 42
3.0
  3
ISO-25
100
AcDbAlignedDimension
 13
48.99173077600926
 23
90.30065042620561
 33
0.0
 14
51.99173077600926
 24
90.30065042620561
 34
0.0
 52
0.0
100
AcDbRotatedDimension
1001
ACAD
1000
DSTYLE
1002
{
1070
   279
1070
     1
1002
}
  0
DIMENSION
  5
1A9
102
{ACAD_REACTORS
330
1C0
102
}
102
{ACAD_XDICTIONARY
360
1B6
102
}
330
1F
100
AcDbEntity
  8
文本层
100
AcDbDimension
  2
*D6
 10
55.99173077600926
 20
97.87944265200306
 30
0.0
 11
53.99173077600926
 21
99.00444265200306
 31
0.0
 70
    32
 71
     5
 42
4.0
  3
ISO-25
100
AcDbAlignedDimension
 13
51.99173077600926
 23
90.30065042620561
 33
0.0
 14
55.99173077600926
 24
90.30065042620561
 34
0.0
 52
0.0
100
AcDbRotatedDimension
1001
ACAD
1000
DSTYLE
1002
{
1070
   279
1070
     1
1002
}
  0
DIMENSION
  5
1C1
102
{ACAD_REACTORS
330
1D8
102
}
102
{ACAD_XDICTIONARY
360
1CE
102
}
330
1F
100
AcDbEntity
  8
文本层
100
AcDbDimension
  2
*D7
 10
58.99173077600926
 20
97.87944265200306
 30
0.0
 11
57.49173077600926
 21
99.00444265200306
 31
0.0
 70
    32
 71
     5
 42
3.0
  3
ISO-25
100
AcDbAlignedDimension
 13
55.99173077600926
 23
90.30065042620561
 33
0.0
 14
58.99173077600926
 24
90.30065042620561
 34
0.0
 52
0.0
100
AcDbRotatedDimension
1001
ACAD
1000
DSTYLE
1002
{
1070
   279
1070
     1
1002
}
  0
DIMENSION
  5
1D9
102
{ACAD_REACTORS
330
1F0
102
}
102
{ACAD_XDICTIONARY
360
1E6
102
}
330
1F
100
AcDbEntity
  8
文本层
100
AcDbDimension
  2
*D8
 10
62.99173077600926
 20
97.87944265200306
 30
0.0
 11
60.99173077600926
 21
99.00444265200306
 31
0.0
 70
    32
 71
     5
 42
4.0
  3
ISO-25
100
AcDbAlignedDimension
 13
58.99173077600926
 23
90.30065042620561
 33
0.0
 14
62.99173077600926
 24
90.30065042620561
 34
0.0
 52
0.0
100
AcDbRotatedDimension
1001
ACAD
1000
DSTYLE
1002
{
1070
   279
1070
     1
1002
}
  0
DIMENSION
  5
1F1
102
{ACAD_REACTORS
330
208
102
}
102
{ACAD_XDICTIONARY
360
1FE
102
}
330
1F
100
AcDbEntity
  8
文本层
100
AcDbDimension
  2
*D9
 10
62.99173077600926
 20
103.0349451278276
 30
0.0
 11
48.49173077600926
 21
104.1599451278276
 31
0.0
 70
    32
 71
     5
 42
29.0
  3
ISO-25
100
AcDbAlignedDimension
 13
33.99173077600926
 23
81.30065042620561
 33
0.0
 14
62.99173077600926
 24
95.94022119265065
 34
0.0
 52
0.0
100
AcDbRotatedDimension
  0
DIMENSION
  5
209
102
{ACAD_REACTORS
330
220
102
}
102
{ACAD_XDICTIONARY
360
216
102
}
330
1F
100
AcDbEntity
  8
文本层
100
AcDbDimension
  2
*D10
 10
67.99173077600926
 20
103.0349451278276
 30
0.0
 11
65.49173077600926
 21
104.1599451278276
 31
0.0
 70
    32
 71
     5
 42
5.0
  3
ISO-25
100
AcDbAlignedDimension
 13
62.99173077600926
 23
95.02754653910434
 33
0.0
 14
67.99173077600926
 24
87.30065042620561
 34
0.0
 52
0.0
100
AcDbRotatedDimension
  0
DIMENSION
  5
221
102
{ACAD_REACTORS
330
238
102
}
102
{ACAD_XDICTIONARY
360
22E
102
}
330
1F
100
AcDbEntity
  8
文本层
100
AcDbDimension
  2
*D11
 10
40.99173077600926
 20
64.86465425293289
 30
0.0
 11
37.49173077600926
 21
65.98965425293289
 31
0.0
 70
    32
 71
     5
 42
7.0
  3
ISO-25
100
AcDbAlignedDimension
 13
33.99173077600926
 23
79.30065042620561
 33
0.0
 14
40.99173077600926
 24
74.30065042620561
 34
0.0
 52
0.0
100
AcDbRotatedDimension
  0
DIMENSION
  5
239
102
{ACAD_REACTORS
330
250
102
}
102
{ACAD_XDICTIONARY
360
246
102
}
330
1F
100
AcDbEntity
  8
文本层
100
AcDbDimension
  2
*D12
 10
113.9917307760093
 20
59.78143994473597
 30
0.0
 11
73.99173077600926
 21
60.90643994473597
 31
0.0
 70
    32
 71
     5
 42
80.0
  3
ISO-25
100
AcDbAlignedDimension
 13
33.99173077600926
 23
76.18649244742622
 33
0.0
 14
113.9917307760093
 24
77.30065042620561
 34
0.0
 52
0.0
100
AcDbRotatedDimension
  0
DIMENSION
  5
251
102
{ACAD_REACTORS
330
268
102
}
102
{ACAD_XDICTIONARY
360
25E
102
}
330
1F
100
AcDbEntity
  8
文本层
100
AcDbDimension
  2
*D13
 10
113.9917307760093
 20
65.84954323042894
 30
0.0
 11
102.9917307760093
 21
66.97454323042894
 31
0.0
 70
    32
 71
     5
 42
22.0
  3
ISO-25
100
AcDbAlignedDimension
 13
91.99173077600926
 23
73.30065042620561
 33
0.0
 14
113.9917307760093
 24
67.60354518547079
 34
0.0
 52
0.0
100
AcDbRotatedDimension
  0
DIMENSION
  5
269
102
{ACAD_REACTORS
330
280
102
}
102
{ACAD_XDICTIONARY
360
276
102
}
330
1F
100
AcDbEntity
  8
文本层
100
AcDbDimension
  2
*D14
 10
102.9917307760093
 20
93.99521360138189
 30
0.0
 11
97.49173077600926
 21
95.12021360138189
 31
0.0
 70
    32
 71
     5
 42
11.0
  3
ISO-25
100
AcDbAlignedDimension
 13
91.99173077600926
 23
87.30065042620561
 33
0.0
 14
102.9917307760093
 24
87.30065042620561
 34
0.0
 52
0.0
100
AcDbRotatedDimension
  0
DIMENSION
  5
281
102
{ACAD_REACTORS
330
298
102
}
102
{ACAD_XDICTIONARY
360
28E
102
}
330
1F
100
AcDbEntity
  8
文本层
100
AcDbDimension
  2
*D15
 10
119.8760996700989
 20
75.30065042620561
 30
0.0
 11
118.7510996700988
 21
80.30065042620562
 31
0.0
 70
    32
 71
     5
 42
10.0
  3
ISO-25
100
AcDbAlignedDimension
 13
111.9917307760093
 23
85.30065042620561
 33
0.0
 14
111.9917307760093
 24
75.30065042620561
 34
0.0
 52
0.0
 50
90.0
100
AcDbRotatedDimension
  0
DIMENSION
  5
299
102
{ACAD_REACTORS
330
2B0
102
}
102
{ACAD_XDICTIONARY
360
2A6
102
}
330
1F
100
AcDbEntity
  8
文本层
100
AcDbDimension
  2
*D16
 10
126.8127595276576
 20
73.30065042620561
 30
0.0
 11
125.6877595276576
 21
80.30065042620562
 31
0.0
 70
    32
 71
     5
 42
14.0
  3
ISO-25
100
AcDbAlignedDimension
 13
102.9917307760093
 23
87.30065042620561
 33
0.0
 14
102.9917307760093
 24
73.30065042620561
 34
0.0
 52
0.0
 50
90.0
100
AcDbRotatedDimension
  0
DIMENSION
  5
2B1
102
{ACAD_REACTORS
330
2C8
102
}
102
{ACAD_XDICTIONARY
360
2BE
102
}
330
1F
100
AcDbEntity
  8
文本层
100
AcDbDimension
  2
*D17
 10
79.63878965042946
 20
71.30065042620561
 30
0.0
 11
78.51378965042944
 21
80.30065042620562
 31
0.0
 70
    32
 71
     5
 42
18.0
  3
ISO-25
100
AcDbAlignedDimension
 13
79.99173077600926
 23
89.30065042620561
 33
0.0
 14
79.99173077600926
 24
71.30065042620561
 34
0.0
 52
0.0
 50
90.0
100
AcDbRotatedDimension
  0
DIMENSION
  5
2C9
102
{ACAD_REACTORS
330
2E0
102
}
102
{ACAD_XDICTIONARY
360
2D6
102
}
330
1F
100
AcDbEntity
  8
文本层
100
AcDbDimension
  2
*D18
 10
65.49173077600926
 20
73.30065042620561
 30
0.0
 11
64.36673077600925
 21
80.30065042620562
 31
0.0
 70
    32
 71
     5
 42
14.0
  3
ISO-25
100
AcDbAlignedDimension
 13
65.49173077600926
 23
87.30065042620561
 33
0.0
 14
65.49173077600926
 24
73.30065042620561
 34
0.0
 52
0.0
 50
90.0
100
AcDbRotatedDimension
  0
DIMENSION
  5
2E1
102
{ACAD_REACTORS
330
2F8
102
}
102
{ACAD_XDICTIONARY
360
2EE
102
}
330
1F
100
AcDbEntity
  8
文本层
100
AcDbDimension
  2
*D19
 10
106.7145343641963
 20
107.6921475154456
 30
0.0
 11
102.9190392353615
 21
105.4876426442804
 31
0.0
 70
    33
  1
{\f??|b0|i0|c0|p54;8}
 71
     5
 42
8.485281374238554
  3
ISO-25
100
AcDbAlignedDimension
 13
94.49173077600926
 23
107.9149511036326
 33
0.0
 14
100.4917307760093
 24
113.9149511036326
 34
0.0
 50
0.0
  0
DIMENSION
  5
2F9
102
{ACAD_REACTORS
330
30E
102
}
102
{ACAD_XDICTIONARY
360
305
102
}
330
1F
100
AcDbEntity
  8
文本层
100
AcDbDimension
  2
*D20
 10
91.91084351785685
 20
108.7118402549026
 30
0.0
 11
105.8118218267822
 21
114.1993899407734
 31
0.0
 70
   163
 71
     5
 42
12.0
  3
ISO-25
100
AcDbDiametricDimension
 15
103.0726180341617
 25
113.1180619523627
 35
0.0
 40
0.0
1001
ACAD
1000
DSTYLE
1002
{
1070
   288
1070
     1
1002
}
  0
LEADER
  5
30F
102
{ACAD_REACTORS
330
312
102
}
102
{ACAD_XDICTIONARY
360
311
102
}
330
1F
100
AcDbEntity
  8
文本层
100
AcDbLeader
  3
ISO-25
 71
     1
 73
     0
 72
     0
 40
1.0
 41
1.666666666666667
 76
     3
 10
68.99173077600926
 20
88.30065042620561
 30
0.0
 10
71.8479686132915
 20
96.09579002853025
 30
0.0
 10
74.75757166273982
 20
96.09579002853025
 30
0.0
210
0.0
220
0.0
230
1.0
211
1.0
221
0.0
231
0.0
212
0.0
222
0.0
232
0.0
213
0.0
223
-0.5
233
0.0
340
310
1001
ACAD
1000
DSTYLE
1002
{
1070
   147
1040
0.625
1070
    77
1070
     0
1002
}
  0
MTEXT
  5
310
102
{ACAD_REACTORS
330
30F
102
}
330
1F
100
AcDbEntity
  8
文本层
100
AcDbMText
 10
75.38257166273982
 20
96.59579002853025
 30
0.0
210
0.0
220
0.0
230
1.0
 11
1.0
 21
0.0
 31
0.0
 40
1.0
 41
0.0
 71
     1
 72
     1
  1
C2
  7
Standard
 73
     1
 44
1.0
  0
LEADER
  5
313
102
{ACAD_REACTORS
330
316
102
}
102
{ACAD_XDICTIONARY
360
315
102
}
330
1F
100
AcDbEntity
  8
文本层
100
AcDbLeader
  3
ISO-25
 71
     1
 73
     0
 72
     0
 40
1.0
 41
1.666666666666667
 76
     3
 10
111.9917307760093
 20
85.30065042620561
 30
0.0
 10
115.0529928469361
 20
90.60291186833439
 30
0.0
 10
117.358810195814
 20
90.60291186833439
 30
0.0
210
0.0
220
0.0
230
1.0
211
1.0
221
0.0
231
0.0
212
0.0
222
0.0
232
0.0
213
0.0
223
-0.5
233
0.0
340
314
1001
ACAD
1000
DSTYLE
1002
{
1070
   147
1040
0.625
1070
    77
1070
     0
1002
}
  0
MTEXT
  5
314
102
{ACAD_REACTORS
330
313
102
}
330
1F
100
AcDbEntity
  8
文本层
100
AcDbMText
 10
117.983810195814
 20
91.10291186833439
 30
0.0
210
0.0
220
0.0
230
1.0
 11
1.0
 21
0.0
 31
0.0
 40
1.0
 41
1.0
 71
     1
 72
     1
  1
C2
  7
Standard
 73
     1
 44
1.0
  0
LEADER
  5
317
102
{ACAD_REACTORS
330
31A
102
}
102
{ACAD_XDICTIONARY
360
319
102
}
330
1F
100
AcDbEntity
  8
文本层
100
AcDbLeader
  3
ISO-25
 71
     1
 73
     0
 72
     0
 74
     1
 40
1.0
 41
1.666666666666667
 76
     3
 10
90.99173077600926
 20
72.30065042620561
 30
0.0
 10
87.69778621394208
 20
66.59537108739005
 30
0.0
 10
86.53368082837122
 20
66.59537108739005
 30
0.0
210
0.0
220
0.0
230
1.0
211
1.0
221
0.0
231
0.0
212
0.0
222
0.0
232
0.0
213
0.0
223
0.5
233
0.0
340
318
1001
ACAD
1000
DSTYLE
1002
{
1070
   147
1040
0.625
1070
    77
1070
     0
1002
}
  0
MTEXT
  5
318
102
{ACAD_REACTORS
330
317
102
}
330
1F
100
AcDbEntity
  8
文本层
100
AcDbMText
 10
85.90868082837122
 20
66.09537108739005
 30
0.0
210
0.0
220
0.0
230
1.0
 11
1.0
 21
0.0
 31
0.0
 40
1.0
 41
1.0
 71
     9
 72
     1
  1
C2
  7
Standard
 73
     1
 44
1.0
  0
DIMENSION
  5
31B
102
{ACAD_REACTORS
330
332
102
}
102
{ACAD_XDICTIONARY
360
328
102
}
330
1F
100
AcDbEntity
  8
文本层
100
AcDbDimension
  2
*D21
 10
93.81084508696819
 20
101.2340654145916
 30
0.0
 11
91.60634021580304
 21
105.0295605434264
 31
0.0
 70
    33
  1
{\f??|b0|i0|c0|p54;8}
 71
     5
 42
8.485281374238554
  3
ISO-25
100
AcDbAlignedDimension
 13
94.49173077600926
 23
113.9149511036326
 33
0.0
 14
100.4917307760093
 24
107.9149511036326
 34
0.0
 50
0.0
  0
VIEWPORT
  5
349
330
5E
100
AcDbEntity
 67
     1
  8
0
100
AcDbViewport
 10
133.3499908447266
 20
101.5999970436096
 30
0.0
 40
420.6540395483951
 41
228.4221935424805
 68
     1
 69
     1
 12
133.3499908447266
 22
101.5999970436096
 13
0.0
 23
0.0
 14
10.0
 24
10.0
 15
10.0
 25
10.0
 16
0.0
 26
0.0
 36
1.0
 17
0.0
 27
0.0
 37
0.0
 42
50.0
 43
0.0
 44
0.0
 45
228.4221935424805
 50
0.0
 51
0.0
 72
   100
 90
    32800
  1

281
     0
 71
     1
 74
     0
110
0.0
120
0.0
130
0.0
111
1.0
121
0.0
131
0.0
112
0.0
122
1.0
132
0.0
 79
     0
146
0.0
348
0
340
0
345
0
346
0
  0
VIEWPORT
  5
34B
330
5E
100
AcDbEntity
 67
     1
  8
文本层
100
AcDbViewport
 10
133.3499939441681
 20
101.5999939441681
 30
0.0
 40
213.3599903106689
 41
162.5599903106689
 68
     1
 69
     2
 12
73.48022504416321
 22
89.21928442341658
 13
0.0
 23
0.0
 14
10.0
 24
10.0
 15
10.0
 25
10.0
 16
0.0
 26
0.0
 36
1.0
 17
0.0
 27
0.0
 37
0.0
 42
50.0
 43
0.0
 44
0.0
 45
84.29816592865701
 50
0.0
 51
0.0
 72
   100
 90
    32864
  1

281
     0
 71
     1
 74
     0
110
0.0
120
0.0
130
0.0
111
1.0
121
0.0
131
0.0
112
0.0
122
1.0
132
0.0
 79
     0
146
0.0
348
0
340
0
345
0
346
0
  0
ENDSEC
  0
SECTION
  2
OBJECTS
  0
DICTIONARY
  5
C
330
0
100
AcDbDictionary
281
     1
  3
ACAD_GROUP
350
D
  3
ACAD_LAYOUT
350
1A
  3
ACAD_MLINESTYLE
350
17
  3
ACAD_PLOTSETTINGS
350
19
  3
ACAD_PLOTSTYLENAME
350
E
  3
AcDbVariableDictionary
350
67
  0
DICTIONARY
  5
D
102
{ACAD_REACTORS
330
C
102
}
330
C
100
AcDbDictionary
281
     1
  0
ACDBDICTIONARYWDFLT
  5
E
102
{ACAD_REACTORS
330
C
102
}
330
C
100
AcDbDictionary
281
     1
  3
Normal
350
F
100
AcDbDictionaryWithDefault
340
F
  0
ACDBPLACEHOLDER
  5
F
102
{ACAD_REACTORS
330
E
102
}
330
E
  0
DICTIONARY
  5
17
102
{ACAD_REACTORS
330
C
102
}
330
C
100
AcDbDictionary
281
     1
  3
Standard
350
18
  0
MLINESTYLE
  5
18
102
{ACAD_REACTORS
330
17
102
}
330
17
100
AcDbMlineStyle
  2
STANDARD
 70
     0
  3

 62
   256
 51
90.0
 52
90.0
 71
     2
 49
0.5
 62
   256
  6
BYLAYER
 49
-0.5
 62
   256
  6
BYLAYER
  0
DICTIONARY
  5
19
102
{ACAD_REACTORS
330
C
102
}
330
C
100
AcDbDictionary
281
     1
  0
DICTIONARY
  5
1A
102
{ACAD_REACTORS
330
C
102
}
330
C
100
AcDbDictionary
281
     1
  3
Model
350
22
  3
布局1
350
5A
  3
布局2
350
5F
  0
LAYOUT
  5
22
102
{ACAD_REACTORS
330
1A
102
}
330
1A
100
AcDbPlotSettings
  1

  2
none_device
  4
ANSI_A_(8.50_x_11.00_Inches)
  6

 40
6.349999904632568
 41
19.04999923706055
 42
6.350006103515625
 43
19.04998779296875
 44
215.8999938964844
 45
279.3999938964844
 46
0.0
 47
0.0
 48
0.0
 49
0.0
140
0.0
141
0.0
  6

142
1.0
143
57.07986212157697
 70
 11952
 72
     0
 73
     1
 74
     0
  7

 75
     0
147
0.01751931351673652
148
-2282.040442273535
149
2.561166666666503
100
AcDbLayout
  1
Model
 70
     1
 71
     0
 10
0.0
 20
0.0
 11
12.0
 21
9.0
 12
0.0
 22
0.0
 32
0.0
 14
0.0
 24
0.0
 34
0.0
 15
0.0
 25
0.0
 35
0.0
146
0.0
 13
0.0
 23
0.0
 33
0.0
 16
1.0
 26
0.0
 36
0.0
 17
0.0
 27
1.0
 37
0.0
 76
     0
330
1F
  0
LAYOUT
  5
5A
102
{ACAD_REACTORS
330
1A
102
}
330
1A
100
AcDbPlotSettings
  1

  2
none_device
  4
Letter_(8.50_x_11.00_Inches)
  6

 40
6.349999904632568
 41
6.349999904632568
 42
6.350006103515625
 43
6.350006103515625
 44
215.8999938964844
 45
279.3999938964844
 46
0.0
 47
0.0
 48
0.0
 49
0.0
140
0.0
141
0.0
  6

142
1.0
143
1.0
 70
   688
 72
     1
 73
     1
 74
     5
  7

 75
    16
147
1.0
148
0.0
149
0.0
100
AcDbLayout
  1
布局1
 70
     1
 71
     1
 10
-6.350006103515625
 20
-6.349999904632568
 11
273.0499877929688
 21
209.5499939918518
 12
0.0
 22
0.0
 32
0.0
 14
26.66999878883362
 24
20.31999878883363
 34
0.0
 15
240.0299890995026
 25
182.8799890995026
 35
0.0
146
0.0
 13
0.0
 23
0.0
 33
0.0
 16
1.0
 26
0.0
 36
0.0
 17
0.0
 27
1.0
 37
0.0
 76
     0
330
59
331
76
  0
LAYOUT
  5
5F
102
{ACAD_REACTORS
330
1A
102
}
330
1A
100
AcDbPlotSettings
  1

  2
none_device
  4
Letter_(8.50_x_11.00_Inches)
  6

 40
6.349999904632568
 41
6.349999904632568
 42
6.350006103515625
 43
6.350006103515625
 44
215.8999938964844
 45
279.3999938964844
 46
0.0
 47
0.0
 48
0.0
 49
0.0
140
0.0
141
0.0
  6

142
1.0
143
1.0
 70
   688
 72
     1
 73
     1
 74
     5
  7

 75
    16
147
1.0
148
0.0
149
0.0
100
AcDbLayout
  1
布局2
 70
     1
 71
     2
 10
-6.350006103515625
 20
-6.349999904632568
 11
273.0499877929688
 21
209.5499939918518
 12
0.0
 22
0.0
 32
0.0
 14
26.66999878883362
 24
20.31999878883363
 34
0.0
 15
240.0299890995026
 25
182.8799890995026
 35
0.0
146
0.0
 13
0.0
 23
0.0
 33
0.0
 16
1.0
 26
0.0
 36
0.0
 17
0.0
 27
1.0
 37
0.0
 76
     0
330
5E
331
349
  0
DICTIONARY
  5
67
102
{ACAD_REACTORS
330
C
102
}
330
C
100
AcDbDictionary
281
     1
  3
DIMASSOC
350
68
  3
HIDETEXT
350
6C
  0
DICTIONARYVAR
  5
68
102
{ACAD_REACTORS
330
67
102
}
330
67
100
DictionaryVariables
280
     0
  1
2
  0
DICTIONARYVAR
  5
6C
102
{ACAD_REACTORS
330
67
102
}
330
67
100
DictionaryVariables
280
     0
  1
1
  0
DICTIONARY
  5
13C
330
12C
100
AcDbDictionary
280
     1
281
     1
  3
ACAD_DIMASSOC
360
148
  0
DICTIONARY
  5
156
330
149
100
AcDbDictionary
280
     1
281
     1
  3
ACAD_DIMASSOC
360
160
  0
DICTIONARY
  5
16E
330
161
100
AcDbDictionary
280
     1
281
     1
  3
ACAD_DIMASSOC
360
178
  0
DICTIONARY
  5
186
330
179
100
AcDbDictionary
280
     1
281
     1
  3
ACAD_DIMASSOC
360
190
  0
DICTIONARY
  5
19E
330
191
100
AcDbDictionary
280
     1
281
     1
  3
ACAD_DIMASSOC
360
1A8
  0
DICTIONARY
  5
1B6
330
1A9
100
AcDbDictionary
280
     1
281
     1
  3
ACAD_DIMASSOC
360
1C0
  0
DICTIONARY
  5
1CE
330
1C1
100
AcDbDictionary
280
     1
281
     1
  3
ACAD_DIMASSOC
360
1D8
  0
DICTIONARY
  5
1E6
330
1D9
100
AcDbDictionary
280
     1
281
     1
  3
ACAD_DIMASSOC
360
1F0
  0
DICTIONARY
  5
1FE
330
1F1
100
AcDbDictionary
280
     1
281
     1
  3
ACAD_DIMASSOC
360
208
  0
DICTIONARY
  5
216
330
209
100
AcDbDictionary
280
     1
281
     1
  3
ACAD_DIMASSOC
360
220
  0
DICTIONARY
  5
22E
330
221
100
AcDbDictionary
280
     1
281
     1
  3
ACAD_DIMASSOC
360
238
  0
DICTIONARY
  5
246
330
239
100
AcDbDictionary
280
     1
281
     1
  3
ACAD_DIMASSOC
360
250
  0
DICTIONARY
  5
25E
330
251
100
AcDbDictionary
280
     1
281
     1
  3
ACAD_DIMASSOC
360
268
  0
DICTIONARY
  5
276
330
269
100
AcDbDictionary
280
     1
281
     1
  3
ACAD_DIMASSOC
360
280
  0
DICTIONARY
  5
28E
330
281
100
AcDbDictionary
280
     1
281
     1
  3
ACAD_DIMASSOC
360
298
  0
DICTIONARY
  5
2A6
330
299
100
AcDbDictionary
280
     1
281
     1
  3
ACAD_DIMASSOC
360
2B0
  0
DICTIONARY
  5
2BE
330
2B1
100
AcDbDictionary
280
     1
281
     1
  3
ACAD_DIMASSOC
360
2C8
  0
DICTIONARY
  5
2D6
330
2C9
100
AcDbDictionary
280
     1
281
     1
  3
ACAD_DIMASSOC
360
2E0
  0
DICTIONARY
  5
2EE
330
2E1
100
AcDbDictionary
280
     1
281
     1
  3
ACAD_DIMASSOC
360
2F8
  0
DICTIONARY
  5
305
330
2F9
100
AcDbDictionary
280
     1
281
     1
  3
ACAD_DIMASSOC
360
30E
  0
DICTIONARY
  5
311
330
30F
100
AcDbDictionary
280
     1
281
     1
  3
ACAD_DIMASSOC
360
312
  0
DICTIONARY
  5
315
330
313
100
AcDbDictionary
280
     1
281
     1
  3
ACAD_DIMASSOC
360
316
  0
DICTIONARY
  5
319
330
317
100
AcDbDictionary
280
     1
281
     1
  3
ACAD_DIMASSOC
360
31A
  0
DICTIONARY
  5
328
330
31B
100
AcDbDictionary
280
     1
281
     1
  3
ACAD_DIMASSOC
360
332
  0
ENDSEC
  0
SECTION
  2
THUMBNAILIMAGE
 90
    18627
310
BF4800000201030100005000000002530100005C480000000000000000000000000000000000000000000000000000000000000000000000000000000000000000000000000000000000000000000000000000000000000000000000000000000000000000000028000000B400000061000000010008000000000034440000
310
00000000000000000001000000000000FFFFFF00FFFFFF0000000000FFFFFF00FFFFFF00FFFFFF00FFFFFF00FFFFFF00FFFFFF00FFFFFF00FFFFFF00330000006600000099000000CC000000FF00000000330000333300006633000099330000CC330000FF33000000660000336600006666000099660000CC660000FF6600
310
0000990000339900006699000099990000CC990000FF99000000CC000033CC000066CC000099CC0000CCCC0000FFCC000000FF000033FF000066FF000099FF0000CCFF0000FFFF000000003300330033006600330099003300CC003300FF00330000333300333333006633330099333300CC333300FF333300006633003366
310
33006666330099663300CC663300FF66330000993300339933006699330099993300CC993300FF99330000CC330033CC330066CC330099CC3300CCCC3300FFCC330000FF330033FF330066FF330099FF3300CCFF3300FFFF330000006600330066006600660099006600CC006600FF00660000336600333366006633660099
310
336600CC336600FF33660000666600336666006666660099666600CC666600FF66660000996600339966006699660099996600CC996600FF99660000CC660033CC660066CC660099CC6600CCCC6600FFCC660000FF660033FF660066FF660099FF6600CCFF6600FFFF660000009900330099006600990099009900CC009900
310
FF00990000339900333399006633990099339900CC339900FF33990000669900336699006666990099669900CC669900FF66990000999900339999006699990099999900CC999900FF99990000CC990033CC990066CC990099CC9900CCCC9900FFCC990000FF990033FF990066FF990099FF9900CCFF9900FFFF99000000CC
310
003300CC006600CC009900CC00CC00CC00FF00CC000033CC003333CC006633CC009933CC00CC33CC00FF33CC000066CC003366CC006666CC009966CC00CC66CC00FF66CC000099CC003399CC006699CC009999CC00CC99CC00FF99CC0000CCCC0033CCCC0066CCCC0099CCCC00CCCCCC00FFCCCC0000FFCC0033FFCC0066FF
310
CC0099FFCC00CCFFCC00FFFFCC000000FF003300FF006600FF009900FF00CC00FF00FF00FF000033FF003333FF006633FF009933FF00CC33FF00FF33FF000066FF003366FF006666FF009966FF00CC66FF00FF66FF000099FF003399FF006699FF009999FF00CC99FF00FF99FF0000CCFF0033CCFF0066CCFF0099CCFF00CC
310
CCFF00FFCCFF0000FFFF0033FFFF0066FFFF0099FFFF00CCFFFF0000000000FFFFFF000D0D0D001A1A1A00282828003535350043434300505050005D5D5D006B6B6B00787878008686860093939300A1A1A100AEAEAE00BBBBBB00C9C9C900D6D6D600E4E4E400F1F1F10000000000FFFFFF00FFFFFF00FFFFFF00FFFFFF00
310
FFFFFF00FFFFFF00FFFFFF00FFFFFF00FFFFFF00FFFFFF0000000000000000000000000000000000000000000000000000000000000000000000000000000000000000000000000000000000000000000000000000000000000000000000000000000000000000000000000000000000000000000000000000000000000000
310
00000000000000000000000000000000000000000000000000000000000000000000000000000000000000000000000000000000000000000000000000000000000000000000000000000000000000000000000000000000000000000000000000000000000000000000000000000000000000000000000000000000000000
310
00000000000000000000000000000000000000000000000000000000000000000000000000000000000000000000000000000000000000000000000000000000000000000000000000000000000000000000000000000000000000000000000000000000000000000000000000000000000000000000000000000000000000
310
00000000000000000000000000000000000000000000000000000000000000000000000000000000000000000000000000000000000000000000000000000000000000000000000000000000000000000000000000000000000000000000000000000000000000000000000000000000000000000000000000000000000000
310
00000000000000000000000000000000000000000000000000000000000000000000000000000000000000000000000000000000000000000000000000000000000000000000000000000000000000000000000000000000000000000000000000000000000000000000000000000000000000000000000000000000000000
310
00000000000000000000000000000000000000000000000000000000000000000000000000000000000000000000000000000000000000000000000000000000000000000000000000000000000000000000000000000000000000000000000000000000000000000000000000000000000000000000000000000000000000
310
00000000000000000000000000000000000000000000000000000000000000000000000000000000000000000000000000000000000000000000000000000000000000000000000000000000000000000000000000000000000000000000000000000000000000000000000000000000000000000000000000000000000000
310
00000000000000000000000000000000000000000000000000000000000000000000000000000000000000000000000000000000000000000000000000000000000000000000000000000000000000000000000000000000000000000000000000000000000000000000000000000000000000000000000000000000000000
310
00000000000000000000000000000000000000000000000000000000000000000000000000000000000000000000000000000000000000000000000000000000000000000000000000000000000000000000000000000000000000000000000000000000000000000000000000000000000000000000000000000000000000
310
00000000000000000000000000000000000000000000000000000000000000000000000000000000000000000000000000000000000000000000000000000000000000000000000000000000000000000000000000000000000000000000000000000000000000000000000000000000000000000000000000000000000000
310
00000000000000000000000000000000000000000000000000000000000000000000000000000000000000000000000000000000000000000000000000000000000000000000000000000000000000000000000000000000000000000000000000000000000000000000000000000000000000000000000000000000000000
310
00000000000000000000000000000000000000000000000000000000000000000000000000000000000000000000000000000000000000000000000000000000000000000000000000000000000000000000000000000000000000000000000000000000000000000000000000000000000000000000000000000000000000
310
00000000000000000000000000000000000000000000000000000000000000000000000000000000000000000000000000000000000000000000000000000000000000000000000000000000000000000000000000000000000000000000000000000000000000000000000000000000000000000000000000000000000000
310
00000000000000000000000000000000000000000000000000000000000000000000000000000000000000000000000000000000000000000000000000000000000000000000000000000000000000000000000000000000000000000000000000000000000000000000000000000000000000000000000000000000000000
310
00000000000000000000000000000000000000000000000000000000000000000000000000000000000000000000000000000000000000000000000000000000000000000000000000000000000000000000000000000000000000000000000000000000000000000000000000000000000000000000000000000000000000
310
00000000000000000000000000000000000000000000000000000000000000000000000000000000000000000000000000000000000000000000000000000000000000000000000000000000000000000000000000000000000000000000000000000000000000000000000000000000000000000000000000000000000000
310
00000000000000000000000000000000000000000000000000000000000000000000000000000000000000000000000000000000000000000000000000000000000000000000000000000000000000000000000000000000000000000000000000000000000000000000000000000000000000000000000000000000000000
310
00000000000000000000000000000000000000000000000000000000000000000000000000000000000000000000000000000000000000000000000000000000000000000000000000000000000000000000000000000000000000000000000000000000000000000000000000000000000000000000000000000000000000
310
00000000000000000000000000000000000000000000000000000000000000000000000000000000000000000000000000000000000000000000000000000000000000000000000000000000000000000000000000000000000000000000000000000000000000000000000000000000000000000000009E00000000000000
310
00000000000000000000000000000000000000000000000000000000000000000000000000000000000000000000000000000000000000000000000000000000000000000000000000000000009E00000000000000000000000000000000000000000000000000000000000000000000000000000000000000000000000000
310
0000000000000000000000000000000000000000000000000000000000000000000000000000000000000000009E9E9E9E9E9E9E9E9E9E9E9E9E9E9E9E9E9E9E9E9E9E9E9E9E9E9E9E9E9E9E9E9E9E9E9E9E9E9E9E9E9E9E9E9E9E9E9E9E9E9E9E9E9E9E9E9E9E9E9E9E9E9E9E9E9E9E9E9E9E9E9E9E9E9E9E9E9E9E9E9E9E
310
9E9E9E9E000000000000000000000000000000000000000000000000000000000000000000000000000000000000000000000000000000000000000000000000000000000000000000000000000000000000000000000000000000000000000000009E00000000000000000000000000000000000000000000000000000000
310
000000000000000000000000009E9E9E000000000000000000000000000000000000000000000000000000000000000000000000000000009E00000000000000000000000000000000000000000000000000000000000000000000000000000000000000000000000000000000000000000000000000000000000000000000
310
0000000000000000000000000000000000000000000000009E00000000000000000000000000000000000000000000000000000000000000000000000000000000009E9E9E000000000000000000000000000000000000000000000000000000000000000000000000000000009E0000000000000000000000000000000000
310
00000000000000000000000000000000000000000000000000000000000000000000000000000000000000000000000000000000000000000000000000000000000000000000000000000000009E00000000000000000000000000000000000000000000000000000000000000000000000000000000000000000000000000
310
00000000000000000000000000000000000000000000000000000000000000000000009E00000000000000000000000000000000000000000000000000000000000000000000000000000000000000000000000000000000000000000000000000000000000000000000000000000000000000000000000000000000000000
310
0000009E000000000000009E000000000000000000000000000000000000000000000000000000000000000000000000000000000000000000000000000000000000000000000000000000000000000000000000000000009E0000000000000000000000000000000000000000000000000000000000000000000000000000
310
00000000000000000000000000000000000000000000000000000000000000000000000000000000000000000000000000000000000000009E9E9E9E9E9E9E9E9E00000000000000000000000000000000000000000000000000000000000000000000000000000000000000000000000000000000009E0000000000000000
310
00000000000000000000000000009E000000000000000000000000000000000000000000000000000000000000000000000000000000000000000000000000000000000000000000000000000000000000000000000000000000000000000000000000000000000000000000009E9E00009E00009E9E000000000000000000
310
00000000000000000000000000000000000000000000000000000000000000000000000000000000000000009E000000000000000000000000000000000000000000009E0000000000000000000000000000000000000000000000000000000000000000000000000000000000000000000000000000000000000000000000
310
00000000000000000000000000000000000000000000000000000000000000000000009E0000009E0000009E0000000000000000000000000000000000000000000000000000000000000000000000000000000000000000009E9E9E9E000000009E9E9E9E9E9E9E9E9E9E9E9E9E9E9E9E9E9E9E9E9E9E9E9E000000000000
310
000000000000000000000000000000000000000000000000000000000000000000000000000000000000000000000000000000000000000000000000000000000000000000000000000000000000000000000000000000009E000000000000009E000000000000000000000000000000000000000000000000000000000000
310
0000000000000000000000000000009E9E00009E0000009E000000000000000000009E9E000000000000000000009E0000000000000000000000000000000000000000000000000000000000000000000000000000000000000000000000000000000000000000000000000000000000000000000000000000000000000000
310
00000000000000000000000000009E000000000000009E000000000000000000000000000000000000000000000000000000000000000000000000000000000000000000000000009E0000009E000000000000000000000000000000000000000000009E000000000000000000000000000000000000000000000000000000
310
000000000000000000000000000000000000000000000000000000000000000000000000000000000000000000000000000000000000000000000000000000000000009E000000000000009E000000F5F5F5F5F50000F5F5F5F5F5F50000F5F5F5F5F50000000000000000000000000000000000000000000000000000009E
310
00009E000000000000000000000000000000000000000000009E000000000000000000000000000000000000000000000000000000000000000000000000000000000000000000000000000000000000000000000000000000000000000000000000000000000000009E9E9E9E9E9E9E9E9E9E9E9E9E9E9E9E9E9E9E9E9E9E
310
9E9E9E9EF5F5F5F5F5F5F5F5F5F5F5F5F5F5F5F5F5F5F5F5F5F50000000000F5F5F5F5F5F5F5F5F5F5F5F5F5F5F5F5F5F5F5F5F5F5F5F59E000000000000000000000000000000000000000000009E000000000000000000000000000000000000000000000000000000000000000000000000000000000000000000000000
310
00000000000000000000000000000000000000000000000000000000000000009E000000000000000000000000009E000000000000009E0000F5F5F5F5F5F5F5F5F5F5F5F5F5F5F5F5F5F5F5F5F5F5000000F5F5F5F5F5F5F5F5F5F5F5F5F5F5F5F5F5F5F5F5F5F5F5F5F5F5F5000000000000000000000000000000000000
310
000000009E00000000000000000000000000000000000000000000000000000000000000000000000000000000000000000000000000000000000000000000000000000000000000000000000000000000000000009E000000000000000000000000009E000000000000009E0000F5F5F500F5F5F5F5F5F50000F5F5F5F5F5
310
F500F5F5F5F5F5F5F5F5F5F5F5F5F5F5F5F5F5F5F5F5F5F5F5F5F5F5F5F5F5F5F5F5F5F5F5F5F5F5F5F5F5F5F5F5F5F50000000000000000009E000000000000000000000000000000000000000000000000000000000000000000000000000000000000000000000000000000000000000000000000000000000000000000
310
00000000000000000000009E000000000000000000000000009E000000000000F5F5F5F5F5F5F500F5F5F5F5F5F50000F5F5F5F5F5F500F5F5F5F5F5F5F5F5F5F5F500000000000000009E000000000000000000F5F5F5F5F5F5F5F5F5F5F5F5F5F5F59E9E9E9E9E9E9E9E9E9E9E9E9E9E9E9E9E9E9E9E9E9E9E9E9E9E9E00
310
000000000000000000000000000000000000000000000000000000000000000000000000000000000000000000000000000000000000000000000000000000009E00009E9E9E9E9E9E9E9E9E9E9E9E9E9E9E9E9E9EF5F5F5F5F5F5F500F5F5F5F5F5F50000F5F5F5F5F5F500F5F5F5F5F5F5F5F5F5F5F50000000000000000
310
9E000000000000000000F5F5F5F5F5F5F5F5F5F5F5F5F5F5F5F5F5F5F5F5F5F5F5F5F5F59E000000000000000000000000009E0000000000000000000000000000000000000000000000000000000000000000000000000000000000000000000000000000000000000000000000000000000000009E000000009E00000000
310
000000009E000000F5F5F5F5F5F5F5F5F5F500F5F5F5F5F5F50000F5F5F5F5F5F500F5F5F5009EF5F5F5F5F5F500000000000000009E000000000000000000F5F5F5F5F5F5F5F5F5F5F5F5F5F5F5F5F5F5F5F5F5F5F5F5F5F5F59E9E9E9E9E9E9E9E00000000009E0000000000000000000000000000000000000000000000
310
000000000000000000000000000000000000000000000000000000000000000000000000000000000000009E000000009E00000000000000009E0000F5F5F5F5F5F5F500F5F5F500F5F5F5F5F5F50000F5F5F5F5F5F500F5F5F5009EF5F5F5F5F5F500000000000000009E000000000000000000F5F5F5F5F5F5F5F5F5F5F5
310
F5F5F5F5F5F5F5F5F5F5F5F5F5F5F5F500000000009E9E0000000000009E0000000000000000000000000000000000000000000000000000000000000000000000000000000000000000000000000000000000000000000000000000000000009E000000009E00000000000000009EF5F5F5F5F5F5F5F5F500F5F5F500F5F5
310
F5F5F5F50000F5F5F5F5F5F500F5F5F5009EF5F5F5F5F5F500000000000000009E000000000000000000F5F5F5F5F5F5F5F5F5F5F5F5F5F5F5F5F5000000000000F5F5F5F5F500000000009E0000000000009E0000000000000000000000000000000000000000000000000000000000000000000000000000000000000000
310
000000000000000000000000000000000000000000009E000000009E00000000000000009EF5F5F5F5F500F5F5F500F5F5F500F5F5F5F5F5F50000F5F5F5F5F5F500F5F5F5009EF5F5F5F5F5F500000000000000009E000000000000000000F5F5F5F5F5F5F5F5F5F5F5F5F5F5F5F5F5000000000000F5F5F5F5F500000000
310
009E0000000000009E0000000000000000000000000000000000000000000000000000000000000000000000000000000000000000000000000000000000000000000000000000000000009E000000009E0000009E000000F5F5F5F5F5F50000F5F5F500F5F5F500F5F5F5F5F5F50000F5F5F5F5F5F500F5F5F5009EF5F5F5
310
F5F5F500000000000000009E000000000000000000F5F5F5F5F5F5F5F5F5F5F5F5F5F5F5F5F5000000000000F5F5F5F5F500000000009E0000000000009E000000000000000000000000000000000000000000000000000000000000000000000000000000000000000000000000000000000000000000000000000000009E
310
9E9E00009E9E9E009E9E9E9E9E9EF5F5F5F5F5000000F5F5F500F5F5F500F5F5F5F5F5F50000F5F5F5F5F5F500F5F59E9E9EF5F5F5F5F5F50000000000009E9E9E000000000000000000F5F5F5F5F5F5F5F5F5F5F5F5F5F5F5F5F5000000000000F5F5F5F5F50000009E9E9E000000009E9E9E000000000000000000000000
310
000000000000000000000000000000000000000000000000000000000000000000000000000000000000000000000000000000009E9E9E00009E9E9E009E9E9E00BEBEF5F5F5BEBEBEBEBEF5F5F5BEF5F5F5BEF5F5F5F5F5F5BEBEF5F5F5F5F5F500F5F5F59E9EF5F5F5F5F5F5BEBEBEBEBEBE9E9E9EBEBEBEBEBEBEBE0000
310
F5F5F5F5F5BEBEF5F5BEBEBEBEBEF5F5F5BEBEBEBEBEBEF5F5F5F5F5BEBE009E9E9E000000009E9E9E0000000000000000000000000000000000000000000000000000000000000000000000000000000000000000000000000000000000000000000000000000000000009E000000009E009E9E9E9E9E9EF5F5F5F5F50000
310
00F5F5F500F5F5F500F5F5F5F5F5F50000F5F5F5F5F5F500F5F5F5009EF5F5F5F5F5F500000000000000009E000000000000000000F5F5F5F5F5F5F5F5F5F5F5F5F5F5F5F5F5000000000000F5F5F5F5F500000000009E0000000000009E000000000000000000000000000000000000000000000000000000000000000000
310
0000000000000000000000000000000000000000000000000000000000000000009E000000009E0000009E000000F5F5F5F5F5F50000F5F5F500F5F5F500F5F5F5F5F5F50000F5F5F5F5F5F500F5F5F5009EF5F5F5F5F5F500000000000000009E000000000000000000F5F5F5F5F5F5F5F5F5F5F5F5F5F5F5F5F500000000
310
0000F5F5F5F5F500000000009E0000000000009E0000000000000000000000000000000000000000000000000000000000000000000000000000000000000000000000000000000000000000000000000000000000009E000000009E00000000000000009EF5F5F5F5F5F5F5F5F500F5F5F500F5F5F5F5F5F50000F5F5F5F5
310
F5F500F5F5F5009EF5F5F5F5F5F500000000000000009E000000000000000000F5F5F5F5F5F5F5F5F5F5F5F5F5F5F5F5F5000000000000F5F5F5F5F500000000009E0000000000009E000000000000000000000000000000000000000000000000000000000000000000000000000000000000000000000000000000000000
310
0000000000000000000000009E000000009E00000000000000009E00F5F5F5F5F5F5F5F500F5F5F500F5F5F5F5F5F50000F5F5F5F5F5F500F5F5F5009EF5F5F5F5F5F500000000000000009E000000000000000000F5F5F5F5F500F5F5F5F5F5F5F500F5F5F5F5F5F5F5F5F5F5F5F5F5F5000000009E9E0000000000009E00
310
00000000000000000000000000000000000000000000000000000000000000000000000000000000000000000000000000000000000000000000000000000000009E000000009E00000000000000009E000000F5F5F5F5F5F5F5F5F5F500F5F5F5F5F5F50000F5F5F5F5F5F500F5F5F5009EF5F5F5F5F5F500000000000000
310
009E000000000000000000F5F5F5F5F5F5F5F5F5F5F5F5F5F5F5F5F5F5F5F5F5F5F5F5F5F5F59E9E9E9E9E9E9E9E00000000009E0000000000000000000000000000000000000000000000000000000000000000000000000000000000000000000000000000000000000000000000000000000000009E00009E9E9E9E9E9E
310
9E9E9E9E9E9E9E9E9E9EF5F5F5F5F5F5F5F5F500F5F5F5F5F5F50000F5F5F5F5F5F500F5F5F5F5F5F5F5F5F5F5F500000000000000009E000000000000000000F5F5F5F5F5F5F5F5F5F5F5F5F5F5F5F5F5F5F5F5F5F5F5F5F5F500000000000000000000000000009E00000000000000000000000000000000000000000000
310
00000000000000000000000000000000000000000000000000000000000000000000000000000000000000009E000000000000000000000000009E000000000000F5F5F5F5F5F5F500F5F5F5F5F5F50000F5F5F5F5F5F500F5F5F5F5F5F5F5F5F5F5F500000000000000009E000000000000000000F5F5F5F5F5F5F5F5F5F5
310
F5F5F5F5F5F5F59E9E9E9E9E9E9E9E9E9E9E9E9E9E9E9E9E9E9E9E9E9E9E9E9E00000000000000000000000000000000000000000000000000000000000000000000000000000000000000000000000000000000000000000000000000000000009E000000000000000000000000009E00000000000000000000F5F5F500F5
310
F5F5F5F5F50000F5F5F5F5F5F500F5F5F5F5F5F5F59EF5F5F5F5F5F5F5F5F5F5F5F5F5F5F5F5F5F5F5F5F5F5F5F5F5F5F5F5F5F5F5F5F5F5F5F5F5000000000000000000009E000000000000000000000000000000000000000000000000000000000000000000000000000000000000000000000000000000000000000000
310
00000000000000000000000000000000000000000000009E000000000000000000000000009E00000000000000000000F5F5F5F5F5F5F5F5F5F5F5F5F5F5F5F5F5F5F5F5F5F50000009EF59EF5F5F5F5F5F5F5F5F5F5F5F5F5F5F5F5F5F5F5F5F5F5F5F500000000000000000000009E000000000000000000009E00000000
310
0000000000000000000000000000000000000000000000000000000000000000000000000000000000000000000000000000000000000000000000000000000000000000000000000000009E9E9E9E9E9E9E9E9E9E9E9E9E9E9E9E9E9E9E9E9E9E9E9E9E9EF5F5F5F5F5F5F5F5F5F5F5F5F5F5F5F5F5F5F5F5F5F50000009E
310
009EF5F5F5F5F5F5F5F5F5F5F5F5F5F5F5F5F5F5F5F5F5F5F59E00000000000000000000009E00000000000000000000009E0000009E9E000000000000000000000000000000000000000000000000000000000000000000000000000000000000000000000000000000000000000000000000000000000000000000000000
310
000000000000000000000000000000009E0000000000000000000000F5F5F5F5F50000F5F5F5F5F5F50000F5F5F5F5F5000000009E00009E000000000000000000000000000000000000000000009E00000000000000000000009E00000000000000000000009E9E9E9E9E9E00000000000000000000000000000000000000
310
0000000000000000000000000000000000000000000000000000000000000000000000000000000000000000000000000000000000000000000000000000000000000000009E00000000000000000000009E0000009E00009E000000009E00009E0000009E000000009E00009E000000000000000000000000000000000000
310
000000009E00000000000000000000009E0000000000000000000000000000000000000000000000000000000000000000000000000000000000000000000000000000000000000000000000000000000000000000000000000000000000000000000000000000000000000000000000000000000000000000009E00000000
310
000000000000009E0000009E00009E000000009E00009E0000009E000000009E0000009E0000000000000000000000000000000000000000009E00000000000000000000009E000000000000000000000000000000000000000000000000000000000000000000000000000000000000000000000000000000000000000000
310
0000000000000000000000000000000000000000000000000000000000000000000000000000000000000000000000009E00000000000000000000009E0000009E00009E000000009E00009E0000009E000000009E0000009E0000000000000000000000000000000000000000009E9E9E9E9E9E9E9E9E9E9E9E9E00000000
310
00000000000000000000000000000000000000000000000000000000000000000000000000000000000000000000000000000000000000000000000000000000000000000000000000000000000000000000000000000000000000000000000000000000009E00000000000000000000009E0000009E00009E000000009E00
310
009E0000009E000000009E000000009E00000000000000000000000000000000000000009E000000009E9E00000000009E000000000000000000000000000000000000000000000000000000000000000000000000000000000000000000000000000000000000000000000000000000000000000000000000000000000000
310
0000000000000000000000000000000000000000000000000000009E00000000000000000000009E0000009E00009E000000009E00009E0000009E000000009E000000009E9E9E9E9E9E00000000000000000000000000000000000000009E9E00000000000000000000000000000000000000000000000000000000000000
310
00000000000000000000000000000000000000000000000000000000000000000000000000000000000000000000000000000000000000000000000000000000000000000000000000000000000000009E00000000000000000000009E0000009E00009E000000009E00009E0000009E000000009E000000000000009E9E9E
310
00000000000000000000000000000000000000000000000000000000000000000000000000000000000000000000000000000000000000000000000000000000000000000000000000000000000000000000000000000000000000000000000000000000000000000000000000000000000000000000000000000000000000
310
0000000000009E00000000000000000000009E9E9E9E9E9E9E9E9E9E9E9E9E9E9E9E9E9E9E9E000000009E000000000000000000000000000000000000000000000000000000000000000000000000000000000000000000000000000000000000000000000000000000000000000000000000000000000000000000000000
310
00000000000000000000000000000000000000000000000000000000000000000000000000000000000000000000000000000000000000000000009E00000000000000000000009E009E009E9E9E9E009E9E009E9E9E9E009E009E000000009E00000000000000000000000000000000000000000000000000000000000000
310
000000000000000000000000000000000000000000000000000000000000000000000000000000000000000000000000000000000000000000000000000000000000000000000000000000000000000000000000000000000000000000000000000000000000000000000000000000009E000000000000000000000000009E
310
00009E9E0000009E00009E9E00009E009E000000009E000000000000000000000000000000000000000000000000000000000000000000000000000000000000000000000000000000000000000000000000000000000000000000000000000000000000000000000000000000000000000000000000000000000000000000
310
00000000000000000000000000000000000000000000000000000000000000000000000000009E0000000000000000000000000000000000000000000000000000000000009E000000009E00000000000000000000000000000000000000000000000000009E00000000000000009E00000000000000000000000000000000
310
000000000000000000000000000000000000000000000000000000000000000000000000000000000000000000000000000000000000000000000000000000000000000000000000000000000000000000000000000000000000009E0000000000000000000000000000000000000000000000000000000000009E00000000
310
9E00000000000000000000000000000000000000000000000000009E9E000000BE00009E9E000000000000000000000000000000000000000000000000000000000000000000000000000000000000000000000000000000000000000000000000000000000000000000000000000000000000000000000000000000000000
310
00000000000000000000000000000000009E9E00000000000000000000000000000000000000000000000000000000009E9E0000009E000000000000000000000000000000000000000000000000009E00009E0000BE009E9E9E00000000000000000000000000000000000000000000000000000000000000000000000000
310
000000000000000000000000000000000000000000000000000000000000000000000000000000000000000000000000000000000000000000000000000000000000000000009E9E9E9E9E9E9E9E9E9E9E9E9E9E9E9E9E9E9E9E9E9E9E9E9E9E9E9E9E9E9E9E9E9E9E9E9E0000000000000000000000000000000000000000
310
000000009E000000009E00BE9E0000009E000000000000000000000000000000000000000000000000000000000000000000000000000000000000000000000000000000000000000000000000000000000000000000000000000000000000000000000000000000000000000000000000000000000000000000009E000000
310
00000000000000000000009E9E9E000000000000000000000000009E009E9E009E00000000000000000000000000000000000000000000009E9E9E00F5F5F5F5F5F5F5F5F5009E0000000000000000000000000000000000000000000000000000000000000000000000000000000000000000000000000000000000000000
310
000000000000000000000000000000000000000000000000000000000000000000000000000000000000000000000000000000000000000000000000000000000000000000000000000000000000000000000000000000000000000000000000000000000000000000000000009E9E9EF5F5F5F5F5F5F5F5F5F59E9E9E0000
310
00000000000000000000000000000000000000000000000000000000000000000000000000000000000000000000000000000000000000000000000000000000000000000000000000000000000000000000000000000000000000000000000000000000000000000000000000000000000000000000000000000000000000
310
00000000000000000000000000000000000000000000000000000000000000009E009E0000F5F5F5F5F5F5F59EF5F5F59E9E009E000000000000000000000000000000000000000000000000000000000000000000000000000000000000000000000000000000000000000000000000000000000000000000000000000000
310
000000000000000000000000000000000000000000000000000000000000000000000000000000000000000000000000000000000000000000000000000000000000000000000000000000000000000000000000009E9E0000F5F5F5F5F5F5F5BE209EF5F5F5F5F5009E9E9E00000000000000000000000000000000000000
310
00000000000000000000000000000000000000000000000000000000000000000000000000000000000000000000000000000000000000000000000000000000000000000000000000000000000000000000000000000000000000000000000000000000000000000000000000000000000000000000000000000000000000
310
000000000000000000000000009E009EF5F5F5F5F520BE20209EF5F5F5F500009E00000000000000000000000000000000000000000000000000000000000000000000000000000000000000000000000000000000000000000000000000000000000000000000000000000000000000000000000000000000000000000000
310
000000000000000000000000000000000000000000000000000000000000000000000000000000000000000000000000000000000000000000000000000000000000009EF5F5F5F5F52020BE20202020F5F5F5009E000000000000000000000000000000000000000000000000000000000000000000000000000000000000
310
000000000000000000000000000000000000000000000000000000000000000000000000000000000000000000000000000000000000000000000000000000000000000000000000000000000000000000000000000000000000000000000000000000000000000000000000000000000000000000000000F5F5F5F5F59E9E
310
20BE20202020F5F5F59E000000000000000000000000000000000000000000000000000000000000000000000000000000000000000000000000000000000000000000000000000000000000000000000000000000000000000000000000000000000000000000000000000000000000000000000000000000000000000000
310
0000000000000000000000000000000000000000000000000000000000000000000000000000000000000000BEBEBEF5F5F5F5BE209EBE9EBE20BEF5F5F5BEBE000000000000000000000000000000000000000000000000000000000000000000000000000000000000000000000000000000000000000000000000000000
310
000000000000000000000000000000000000000000000000000000000000000000000000000000000000000000000000000000000000000000000000000000000000000000000000000000000000000000000000000000000000000000000000000000F5F5F5F5F5F52020BE209E9E9E9EF5F5000000000000000000000000
310
00000000000000000000000000000000000000000000000000000000000000000000000000000000000000000000000000000000000000000000000000000000000000000000000000000000000000000000000000000000000000000000000000000000000000000000000000000000000000000000000000000000000000
310
00000000000000000000000000000000000000000000000000F5F5F5F5F5F52020BE2020209E9E9EF50000000000000000000000000000000000000000000000000000000000000000000000000000000000000000000000000000000000000000000000000000000000000000000000000000000000000000000000000000
310
00000000000000000000000000000000000000000000000000000000000000000000000000000000000000000000000000000000000000000000000000000000000000000000000000000000000000F5F5F5F5F5F520BE20209EF5F5F59E9E0000000000000000000000000000000000000000000000000000000000000000
310
00000000000000000000000000000000000000000000000000000000000000000000000000000000000000000000000000000000000000000000000000000000000000000000000000000000000000000000000000000000000000000000000000000000000000000000000000000000000000000000000000000000000000
310
0000000000F5F5F5F5F5F5F5BE2020F5F5F5F59E9E9E9E0000000000000000000000000000000000000000000000000000000000000000000000000000000000000000000000000000000000000000000000000000000000000000000000000000000000000000000000000000000000000000000000000000000000000000
310
0000000000000000000000000000000000000000000000000000000000000000000000000000000000000000000000000000000000000000000000F5F5F5F5F5F5F520F5F5F5F5F59E9E9E00000000000000000000000000000000000000000000000000000000000000000000000000000000000000000000000000000000
310
0000000000000000000000000000000000000000000000000000000000000000000000000000000000000000000000000000000000000000000000000000000000000000000000000000000000000000000000000000000000000000000000000000000000000000000000000000000000F5F5F5F5F5F5F5F5F5F5F5000000
310
00000000000000000000000000000000000000000000000000000000000000000000000000000000000000000000000000000000000000000000000000000000000000000000000000000000000000000000000000000000000000000000000000000000000000000000000000000000000000000000000000000000000000
310
00000000000000000000000000000000000000000000000000000000000000000000000000000000F5F5F5F5F5F5F5F500000000000000000000000000000000000000000000000000000000000000000000000000000000000000000000000000000000000000000000000000000000000000000000000000000000000000
310
00000000000000000000000000000000000000000000000000000000000000000000000000000000000000000000000000000000000000000000000000000000000000000000000000000000000000000000000000000000000000000000000000BE0000000000000000000000000000000000000000000000000000000000
310
00000000000000000000000000000000000000000000000000000000000000000000000000000000000000000000000000000000000000000000000000000000000000000000000000000000000000000000000000000000000000000000000000000000000000000000000000000000000000000000000000000000000000
310
0000000000000000000000000000000000000000000000BE00000000000000000000000000000000000000000000000000000000000000000000000000000000000000000000000000000000000000000000000000000000000000000000000000000000000000000000000000000000000000000000000000000000000000
310
00000000000000000000000000000000000000000000000000000000000000000000000000000000000000000000000000000000000000000000000000000000000000000000000000000000000000000000000000000000000000000000000000000000000000000000000000000000000000000000000000000000000000
310
00000000000000000000000000000000000000000000000000000000000000000000000000000000000000000000000000000000000000000000000000000000000000000000000000000000000000000000000000000000000000000000000000000000000000000000000000000000000000000000000000000000000000
310
00000000000000000000000000000000000000000000000000000000000000000000000000000000000000000000000000000000000000000000000000000000000000000000000000000000000000000000000000000000000000000000000000000000000000000000000000000000000000000000000000000000000000
310
00000000000000000000000000000000000000000000000000000000000000000000000000000000000000000000000000000000000000000000000000000000000000000000000000000000000000000000000000000000000000000000000000000000000000000000000000000000000000000000000000000000000000
310
00000000000000000000000000000000000000000000000000000000000000000000000000000000000000000000000000000000000000000000000000000000000000000000000000000000000000000000000000000000000000000000000000000000000000000000000000000000000000000000000000000000000000
310
00000000000000000000000000000000000000000000000000000000000000000000000000000000000000000000000000000000000000000000000000000000000000000000000000000000000000000000000000000000000000000000000000000000000000000000000000000000000000000000000000000000000000
310
00000000000000000000000000000000000000000000000000000000000000000000000000000000000000000000000000000000000000000000000000000000000000000000000000000000000000000000000000000000000000000000000000000000000000000000000000000000000000000000000000000000000000
310
00000000000000000000000000000000000000000000000000000000000000000000000000000000000000000000000000000000000000000000000000000000000000000000000000000000000000000000000000000000000000000000000000000000000000000000000000000000000000000000000000000000000000
310
00000000000000000000000000000000000000000000000000000000000000000000000000000000000000000000000000000000000000000000000000000000000000000000000000000000000000000000000000000000000000000000000000000000000000000000000000000000000000000000000000000000000000
310
00000000000000000000000000000000000000000000000000000000000000000000000000000000000000000000000000000000000000000000000000000000000000000000000000000000000000000000000000000000000000000000000000000000000000000000000000000000000000000000000000000000000000
310
00000000000000000000000000000000000000000000000000000000000000000000000000000000000000000000000000000000000000000000000000000000000000000000000000000000000000000000000000000000000000000000000000000000000000000000000000000000000000000000000000000000000000
310
00000000000000000000000000000000000000000000000000000000000000000000000000000000000000000000000000000000000000000000000000000000000000000000000000000000000000000000000000000000000000000000000000000000000000000000000000000000000000000000000000000000000000
310
00000000000000000000000000000000000000000000000000000000000000000000000000000000000000000000000000000000000000000000000000000000000000000000000000000000000000000000000000000000000000000000000000000000000000000000000000000000000000000000000000000000000000
310
00000000000000000000000000000000000000000000000000000000000000000000000000000000000000000000000000000000000000000000000000000000000000000000000000000000000000000000000000000000000000000000000000000000000000000000000000000000000000000000000000000000000000
310
00000000000000000000000000000000000000000000000000000000000000000000000000000000000000000000000000000000000000000000000000000000000000000000000000000000000000000000000000000000000000000000000000000000000000000000000000000000000000000000000000000000000000
310
00000000000000000000000000000000000000000000000000000000000000000000000000000000000000000000000000000000000000000000000000000000000000000000000000000000000000000000000000000000000000000000000000000000000000000000000000000000000000000000000000000000000000
310
00000000000000000000000000000000000000000000000000000000000000000000000000000000000000000000000000000000000000000000000000000000000000000000000000000000000000000000000000000000000000000000000000000000000000000000000000000000000000000000000000000000000000
310
00000000000000000000000000000000000000000000000000000000000000000000000000000000000000000000000000000000000000000000000000000000000000000000000000000000000000000000000000000000000000000000000000000000000000000000000000000000000000000000000000000000000000
310
00000000000000000000000000000000000000000000000000000000000000000000000000000000000000000000000000000000000000000000000000000000000000000000000000000000000000000000000000000000000000000000000000000000000000000000000000000000000000000000000000000000000000
310
00000000000000000000000000000000000000000000000000000000000000000000000000000000000000000000000000000000000000000000000000000000000000000000000000000000000000000000000000000000000000000000000000000000000000000000000000000000000000000000000000000000000000
310
00000000000000000000000000000000000000000000000000000000000000000000000000000000000000000000000000000000000000000000000000000000000000000000000000000000000000000000000000000000000000000000000000000000000000000000000000000000000000000000000000000000000000
310
00000000000000000000000000000000000000000000000000000000000000000000000000000000000000000000000000000000000000000000000000000000000000000000000000000000000000000000000000000000000000000000000000000000000000000000000000000000000000000000000000000000000000
310
00000000000000000000000000000000000000000000000000000000000000000000000000000000000000000000000000000000000000000000000000000000000000000000000000000000000000000000000000000000000000000000000000000000000000000000000000000000000000000000000000000000000000
310
00000000000000000000000000000000000000000000000000000000000000000000000000000000000000000000000000000000000000000000000000000000000000000000000000000000000000000000000000000000000000000000000000000000000000000000000000000000000000000000000000000000000000
310
00000000000000000000000000000000000000000000000000000000000000000000000000000000000000000000000000000000000000000000000000000000000000000000000000000000000000000000000000000000000000000000000000000000000000000000000000000000000000000000000000000000000000
310
00000000000000000000000000000000000000000000000000000000000000000000000000000000000000000000000000000000000000000000000000000000000000000000000000000000000000000000000000000000000000000000000000000000000000000000000000000000000000000000000000000000000000
310
00000000000000000000000000000000000000000000000000000000000000000000000000000000000000000000000000000000000000000000000000000000000000000000000000000000000000000000000000
  0
ENDSEC
  0
EOF
