999
LibreDWG 
  0
SECTION
  2
HEADER
  9
$ACADVER
  1
AC1015
  9
$ACADMAINTVER
 70
    13
  9
$DWGCODEPAGE
  3
ANSI_936
  9
$INSBASE
 10
0.0
 20
0.0
 30
0.0
  9
$EXTMIN
 10
-34.0492726805597
 20
36.57928506002011
 30
0.0
  9
$EXTMAX
 10
264.4985875472761
 20
167.5731104766509
 30
0.0
  9
$LIMMIN
 10
0.0
 20
0.0
  9
$LIMMAX
 10
300.0
 20
200.0
  9
$ORTHOMODE
 70
     0
  9
$REGENMODE
 70
     1
  9
$FILLMODE
 70
     1
  9
$QTEXTMODE
 70
     0
  9
$MIRRTEXT
 70
     1
  9
$LTSCALE
 40
1.0
  9
$ATTMODE
 70
     1
  9
$TEXTSIZE
 40
2.5
  9
$TRACEWID
 40
1.0
  9
$TEXTSTYLE
  7
数字与字母
  9
$CLAYER
  8
文本层
  9
$CELTYPE
  6
ByLayer
  9
$CECOLOR
 62
   256
  9
$CELTSCALE
 40
1.0
  9
$DISPSILH
 70
     0
  9
$DIMSCALE
 40
1.0
  9
$DIMASZ
 40
3.5
  9
$DIMEXO
 40
0.0
  9
$DIMDLI
 40
7.5
  9
$DIMRND
 40
0.0
  9
$DIMDLE
 40
0.0
  9
$DIMEXE
 40
2.5
  9
$DIMTP
 40
0.0
  9
$DIMTM
 40
0.0
  9
$DIMTXT
 40
5.0
  9
$DIMCEN
 40
2.5
  9
$DIMTSZ
 40
0.0
  9
$DIMTOL
 70
     0
  9
$DIMLIM
 70
     0
  9
$DIMTIH
 70
     0
  9
$DIMTOH
 70
     1
  9
$DIMSE1
 70
     0
  9
$DIMSE2
 70
     0
  9
$DIMTAD
 70
     1
  9
$DIMZIN
 70
     8
  9
$DIMBLK
  1

  9
$DIMASO
 70
     1
  9
$DIMSHO
 70
     1
  9
$DIMPOST
  1

  9
$DIMAPOST
  1

  9
$DIMALT
 70
     0
  9
$DIMALTD
 70
     3
  9
$DIMALTF
 40
0.03937007874016
  9
$DIMLFAC
 40
1.0
  9
$DIMTOFL
 70
     1
  9
$DIMTVP
 40
0.0
  9
$DIMTIX
 70
     0
  9
$DIMSOXD
 70
     0
  9
$DIMSAH
 70
     0
  9
$DIMBLK1
  1

  9
$DIMBLK2
  1

  9
$DIMSTYLE
  2
机械标注
  9
$DIMCLRD
 70
     0
  9
$DIMCLRE
 70
     0
  9
$DIMCLRT
 70
     0
  9
$DIMTFAC
 40
1.0
  9
$DIMGAP
 40
0.625
  9
$DIMJUST
 70
     0
  9
$DIMSD1
 70
     0
  9
$DIMSD2
 70
     0
  9
$DIMTOLJ
 70
     0
  9
$DIMTZIN
 70
     8
  9
$DIMALTZ
 70
     0
  9
$DIMALTTZ
 70
     0
  9
$DIMUPT
 70
     0
  9
$DIMDEC
 70
     1
  9
$DIMTDEC
 70
     1
  9
$DIMALTU
 70
     2
  9
$DIMALTTD
 70
     3
  9
$DIMTXSTY
  7
数字与字母
  9
$DIMAUNIT
 70
     0
  9
$DIMADEC
 70
     0
  9
$DIMALTRND
 40
0.0
  9
$DIMAZIN
 70
     0
  9
$DIMDSEP
 70
    46
  9
$DIMATFIT
 70
     3
  9
$DIMFRAC
 70
     0
  9
$DIMLDRBLK
  1

  9
$DIMLUNIT
 70
     2
  9
$DIMLWD
 70
    -2
  9
$DIMLWE
 70
    -2
  9
$DIMTMOVE
 70
     0
  9
$LUNITS
 70
     2
  9
$LUPREC
 70
     1
  9
$AXISMODE
 70
     0
  9
$AXISUNIT
 10
0.0
 20
0.0
  9
$SKETCHINC
 40
1.0
  9
$FILLETRAD
 40
3.0
  9
$AUNITS
 70
     0
  9
$AUPREC
 70
     1
  9
$MENU
  1
.
  9
$ELEVATION
 40
0.0
  9
$PELEVATION
 40
0.0
  9
$THICKNESS
 40
0.0
  9
$LIMCHECK
 70
     0
  9
$CHAMFERA
 40
10.0
  9
$CHAMFERB
 40
10.0
  9
$CHAMFERC
 40
1.5
  9
$CHAMFERD
 40
0.7853981633974483
  9
$SKPOLY
 70
     0
  9
$TDCREATE
 40
2451911.603956590
  9
$TDUCREATE
 40
2451911.315956590
  9
$TDUPDATE
 40
2453619.315326550
  9
$TDUUPDATE
 40
2453619.027326550
  9
$TDINDWG
 40
0.039720710
  9
$TDUSRTIMER
 40
0.039720710
  9
$USRTIMER
 70
     1
  9
$ANGBASE
 50
0.0
  9
$ANGDIR
 70
     0
  9
$PDMODE
 70
     0
  9
$PDSIZE
 40
0.0
  9
$PLINEWID
 40
0.0
  9
$SPLFRAME
 70
     0
  9
$SPLINETYPE
 70
     6
  9
$SPLINESEGS
 70
     8
  9
$HANDSEED
  5
309
  9
$SURFTAB1
 70
     6
  9
$SURFTAB2
 70
     6
  9
$SURFTYPE
 70
     6
  9
$SURFU
 70
     6
  9
$SURFV
 70
     6
  9
$UCSBASE
  2

  9
$UCSNAME
  2

  9
$UCSORG
 10
0.0
 20
0.0
 30
0.0
  9
$UCSXDIR
 10
1.0
 20
0.0
 30
0.0
  9
$UCSYDIR
 10
0.0
 20
1.0
 30
0.0
  9
$UCSORTHOREF
  2

  9
$UCSORTHOVIEW
 70
     0
  9
$UCSORGTOP
 10
0.0
 20
0.0
 30
0.0
  9
$UCSORGBOTTOM
 10
0.0
 20
0.0
 30
0.0
  9
$UCSORGLEFT
 10
0.0
 20
0.0
 30
0.0
  9
$UCSORGRIGHT
 10
0.0
 20
0.0
 30
0.0
  9
$UCSORGFRONT
 10
0.0
 20
0.0
 30
0.0
  9
$UCSORGBACK
 10
0.0
 20
0.0
 30
0.0
  9
$PUCSBASE
  2

  9
$PUCSNAME
  2

  9
$PUCSORG
 10
0.0
 20
0.0
 30
0.0
  9
$PUCSXDIR
 10
1.0
 20
0.0
 30
0.0
  9
$PUCSYDIR
 10
0.0
 20
1.0
 30
0.0
  9
$PUCSORTHOREF
  2

  9
$PUCSORTHOVIEW
 70
     0
  9
$PUCSORGTOP
 10
0.0
 20
0.0
 30
0.0
  9
$PUCSORGBOTTOM
 10
0.0
 20
0.0
 30
0.0
  9
$PUCSORGLEFT
 10
0.0
 20
0.0
 30
0.0
  9
$PUCSORGRIGHT
 10
0.0
 20
0.0
 30
0.0
  9
$PUCSORGFRONT
 10
0.0
 20
0.0
 30
0.0
  9
$PUCSORGBACK
 10
0.0
 20
0.0
 30
0.0
  9
$USERI1
 70
     0
  9
$USERI2
 70
     0
  9
$USERI3
 70
     0
  9
$USERI4
 70
     0
  9
$USERI5
 70
     0
  9
$USERR1
 40
0.0
  9
$USERR2
 40
0.0
  9
$USERR3
 40
0.0
  9
$USERR4
 40
0.0
  9
$USERR5
 40
0.0
  9
$WORLDVIEW
 70
     1
  9
$SHADEDGE
 70
     3
  9
$SHADEDIF
 70
    70
  9
$TILEMODE
 70
     1
  9
$MAXACTVP
 70
    64
  9
$PINSBASE
 10
0.0
 20
0.0
 30
0.0
  9
$PLIMCHECK
 70
     0
  9
$PEXTMIN
 10
26.66999878883362
 20
20.31999878883363
 30
0.0
  9
$PEXTMAX
 10
240.0299890995026
 20
182.8799890995026
 30
0.0
  9
$PLIMMIN
 10
-6.350006103515625
 20
-6.349999904632568
  9
$PLIMMAX
 10
273.0499877929688
 20
209.5499939918518
  9
$UNITMODE
 70
     0
  9
$VISRETAIN
 70
     1
  9
$PLINEGEN
 70
     0
  9
$PSLTSCALE
 70
     1
  9
$TREEDEPTH
 70
  3020
  9
$CMLSTYLE
  2
Standard
  9
$CMLJUST
 70
     0
  9
$CMLSCALE
 40
20.0
  9
$PROXYGRAPHICS
 70
     1
  9
$MEASUREMENT
 70
     1
  9
$CELWEIGHT
370
    -1
  9
$ENDCAPS
280
     0
  9
$JOINSTYLE
280
     0
  9
$LWDISPLAY
290
     1
  9
$INSUNITS
 70
     4
  9
$HYPERLINKBASE
  1

  9
$STYLESHEET
  1

  9
$XEDIT
290
     1
  9
$CEPSNTYPE
380
     0
  9
$PSTYLEMODE
290
     0
  9
$FINGERPRINTGUID
  2
{35BD88C3-9548-11D2-9A29-0060089B3A3F}
  9
$VERSIONGUID
  2
{E39D5E74-4733-4638-87A7-FAE183406658}
  9
$EXTNAMES
290
     1
  9
$PSVPSCALE
 40
0.0
  9
$OLESTARTUP
290
     0
  0
ENDSEC
  0
SECTION
  2
CLASSES
  0
CLASS
  1
ACDBDICTIONARYWDFLT
  2
AcDbDictionaryWithDefault
  3
AutoCAD 2000
 90
        0
280
     0
281
     0
  0
CLASS
  1
ACDBPLACEHOLDER
  2
AcDbPlaceHolder
  3
AutoCAD 2000
 90
        0
280
     0
281
     0
  0
CLASS
  1
LAYOUT
  2
AcDbLayout
  3
AutoCAD 2000
 90
        0
280
     0
281
     0
  0
CLASS
  1
DICTIONARYVAR
  2
AcDbDictionaryVar
  3
AutoCAD 2000
 90
        0
280
     0
281
     0
  0
CLASS
  1
DIMASSOC
  2
AcDbDimAssoc
  3
"AcDbDimAssoc|Product Desc:     AcDim ARX App For Dimension|Company:          Autodesk, Inc.|WEB Address:      www.autodesk.com"
 90
        0
280
     0
281
     0
  0
ENDSEC
  0
SECTION
  2
TABLES
  0
TABLE
  2
VPORT
  5
8
330
0
100
AcDbSymbolTable
 70
     1
  0
VPORT
  5
308
330
8
100
AcDbSymbolTableRecord
100
AcDbViewportTableRecord
  2
*Active
 70
     0
 10
0.0
 20
0.0
 11
1.0
 21
1.0
 12
136.4502691083968
 22
104.77238638068
 13
0.0
 23
0.0
 14
10.0
 24
10.0
 15
10.0
 25
10.0
 16
0.0
 26
0.0
 36
1.0
 17
0.0
 27
0.0
 37
0.0
 40
211.7453595146625
 41
1.841563786008231
 42
50.0
 43
0.0
 44
0.0
 50
0.0
 51
0.0
 71
     0
 72
   100
 73
     1
 74
     3
 75
     0
 76
     0
 77
     0
 78
     0
281
     0
 65
     1
110
0.0
120
0.0
130
0.0
111
1.0
121
0.0
131
0.0
112
0.0
122
1.0
132
0.0
 79
     0
146
0.0
  0
ENDTAB
  0
TABLE
  2
LTYPE
  5
5
330
0
100
AcDbSymbolTable
 70
     4
  0
LTYPE
  5
14
330
5
100
AcDbSymbolTableRecord
100
AcDbLinetypeTableRecord
  2
ByBlock
 70
     0
  3

 72
    65
 73
     0
 40
0.0
  0
LTYPE
  5
15
330
5
100
AcDbSymbolTableRecord
100
AcDbLinetypeTableRecord
  2
ByLayer
 70
     0
  3

 72
    65
 73
     0
 40
0.0
  0
LTYPE
  5
16
330
5
100
AcDbSymbolTableRecord
100
AcDbLinetypeTableRecord
  2
Continuous
 70
     0
  3
Solid line
 72
    65
 73
     0
 40
0.0
  0
LTYPE
  5
91
330
5
100
AcDbSymbolTableRecord
100
AcDbLinetypeTableRecord
  2
ACAD_ISO08W100
 70
     0
  3
ISO long-dash short-dash ____ __ ____ __ ____ _
 72
    65
 73
     4
 40
36.0
 49
24.0
 74
     0
 49
-3.0
 74
     0
 49
6.0
 74
     0
 49
-3.0
 74
     0
  0
LTYPE
  5
92
330
5
100
AcDbSymbolTableRecord
100
AcDbLinetypeTableRecord
  2
ACAD_ISO09W100
 70
     0
  3
ISO long-dash double-short-dash ____ __ __ ____
 72
    65
 73
     6
 40
45.0
 49
24.0
 74
     0
 49
-3.0
 74
     0
 49
6.0
 74
     0
 49
-3.0
 74
     0
 49
6.0
 74
     0
 49
-3.0
 74
     0
  0
LTYPE
  5
93
330
5
100
AcDbSymbolTableRecord
100
AcDbLinetypeTableRecord
  2
ACAD_ISO02W100
 70
     0
  3
ISO dash __ __ __ __ __ __ __ __ __ __ __ __ __
 72
    65
 73
     2
 40
15.0
 49
12.0
 74
     0
 49
-3.0
 74
     0
  0
ENDTAB
  0
TABLE
  2
LAYER
  5
2
330
0
100
AcDbSymbolTable
 70
    11
  0
LAYER
  5
10
330
2
100
AcDbSymbolTableRecord
100
AcDbLayerTableRecord
  2
0
 70
     0
 62
    -7
  6
Continuous
370
    -3
390
F
  0
LAYER
  5
94
330
2
100
AcDbSymbolTableRecord
100
AcDbLayerTableRecord
  2
轮廓线
 70
     0
 62
    -7
  6
Continuous
370
    35
390
F
  0
LAYER
  5
95
330
2
100
AcDbSymbolTableRecord
100
AcDbLayerTableRecord
  2
点划线
 70
     0
 62
    -1
  6
ACAD_ISO08W100
370
    13
390
F
  0
LAYER
  5
96
330
2
100
AcDbSymbolTableRecord
100
AcDbLayerTableRecord
  2
双点划线
 70
     0
 62
    -3
  6
ACAD_ISO09W100
370
    -3
390
F
  0
LAYER
  5
97
330
2
100
AcDbSymbolTableRecord
100
AcDbLayerTableRecord
  2
隐藏线
 70
     0
 62
   -44
  6
ACAD_ISO02W100
370
    13
390
F
  0
LAYER
  5
98
330
2
100
AcDbSymbolTableRecord
100
AcDbLayerTableRecord
  2
剖面线
 70
     0
 62
  -142
  6
Continuous
370
    13
390
F
  0
LAYER
  5
99
330
2
100
AcDbSymbolTableRecord
100
AcDbLayerTableRecord
  2
波浪线
 70
     0
 62
    -7
  6
Continuous
370
    13
390
F
  0
LAYER
  5
9A
330
2
100
AcDbSymbolTableRecord
100
AcDbLayerTableRecord
  2
尺寸层
 70
     0
 62
    -5
  6
Continuous
370
    13
390
F
  0
LAYER
  5
9B
330
2
100
AcDbSymbolTableRecord
100
AcDbLayerTableRecord
  2
文本层
 70
     0
 62
  -212
  6
Continuous
370
    13
390
F
  0
LAYER
  5
9C
330
2
100
AcDbSymbolTableRecord
100
AcDbLayerTableRecord
  2
其它层
 70
     0
 62
    -7
  6
Continuous
370
    -3
390
F
  0
LAYER
  5
126
330
2
100
AcDbSymbolTableRecord
100
AcDbLayerTableRecord
  2
Defpoints
 70
     0
 62
    -7
  6
Continuous
290
     0
370
    -3
390
F
  0
ENDTAB
  0
TABLE
  2
STYLE
  5
3
330
0
100
AcDbSymbolTable
 70
     4
  0
STYLE
  5
11
330
3
100
AcDbSymbolTableRecord
100
AcDbTextStyleTableRecord
  2
Standard
 70
     0
 40
0.0
 41
1.0
 50
0.0
 71
     0
 42
2.5
  3
txt
  4

  0
STYLE
  5
90
330
3
100
AcDbSymbolTableRecord
100
AcDbTextStyleTableRecord
  2

 70
     1
 40
0.0
 41
1.0
 50
0.0
 71
     0
 42
2.5
  3
ltypeshp.shx
  4

  0
STYLE
  5
9D
330
3
100
AcDbSymbolTableRecord
100
AcDbTextStyleTableRecord
  2
汉字
 70
     0
 40
0.0
 41
0.7
 50
0.0
 71
     0
 42
2.5
  3
SIMFANG.TTF
  4

1001
ACAD
1000
FangSong_GB2312
1071
    34353
  0
STYLE
  5
9F
330
3
100
AcDbSymbolTableRecord
100
AcDbTextStyleTableRecord
  2
数字与字母
 70
     0
 40
0.0
 41
0.7
 50
0.0
 71
     0
 42
2.5
  3
romant.shx
  4

  0
ENDTAB
  0
TABLE
  2
VIEW
  5
6
330
0
100
AcDbSymbolTable
 70
     0
  0
ENDTAB
  0
TABLE
  2
UCS
  5
7
330
0
100
AcDbSymbolTable
 70
     0
  0
ENDTAB
  0
TABLE
  2
APPID
  5
9
330
0
100
AcDbSymbolTable
 70
     1
  0
APPID
  5
12
330
9
100
AcDbSymbolTableRecord
100
AcDbRegAppTableRecord
  2
ACAD
 70
     0
  0
ENDTAB
  0
TABLE
  2
DIMSTYLE
  5
A
330
0
100
AcDbSymbolTable
 70
     3
100
AcDbDimStyleTable
 71
     2
340
A1
340
27
  0
DIMSTYLE
105
27
330
A
100
AcDbSymbolTableRecord
100
AcDbDimStyleTableRecord
  2
ISO-25
 70
     0
 41
2.5
 42
0.625
 43
3.75
 44
1.25
 73
     0
 74
     0
 77
     1
 78
     8
140
2.5
141
2.5
143
0.03937007874016
144
1.0
146
1.0
147
0.625
171
     3
172
     1
176
     0
177
     0
178
     0
271
     2
272
     2
273
     2
274
     3
277
     2
278
    44
283
     0
284
     8
289
     3
340
11
371
    -2
372
    -2
341
0
342
0
343
0
344
0
  0
DIMSTYLE
105
A1
102
{ACAD_REACTORS
330
125
330
13E
330
156
330
16E
330
18A
330
1A6
330
1C2
330
1DA
330
1F2
330
20A
330
228
330
240
330
258
330
26A
330
27C
330
28E
330
2A2
330
2B6
330
2CA
330
2DC
102
}
330
A
100
AcDbSymbolTableRecord
100
AcDbDimStyleTableRecord
  2
机械标注
 70
     0
 41
3.5
 43
7.5
 44
2.5
 73
     0
 74
     1
 77
     1
 78
     8
140
5.0
141
2.5
143
0.03937007874016
144
1.0
146
1.0
147
0.625
171
     3
172
     1
176
     0
177
     0
178
     0
271
     1
272
     1
273
     2
274
     3
277
     2
278
    46
283
     0
284
     8
289
     3
340
9F
371
    -2
372
    -2
341
0
342
0
343
0
344
0
  0
DIMSTYLE
105
A2
330
A
100
AcDbSymbolTableRecord
100
AcDbDimStyleTableRecord
  2
机械标注$2
 70
     0
 41
3.5
 43
7.5
 44
2.5
 73
     1
 74
     1
 77
     1
 78
     8
140
5.0
141
2.5
143
0.03937007874016
144
1.0
146
1.0
147
0.625
171
     3
172
     1
176
     0
177
     0
178
     0
271
     1
272
     1
273
     2
274
     3
277
     2
278
    46
283
     0
284
     8
289
     3
340
9F
371
    -2
372
    -2
341
0
342
0
343
0
344
0
  0
ENDTAB
  0
TABLE
  2
BLOCK_RECORD
  5
1
330
0
100
AcDbSymbolTable
 70
    21
  0
BLOCK_RECORD
  5
1F
330
1
100
AcDbSymbolTableRecord
100
AcDbBlockTableRecord
  2
*Model_Space
340
22
  0
BLOCK_RECORD
  5
5E
330
1
100
AcDbSymbolTableRecord
100
AcDbBlockTableRecord
  2
*Paper_Space
340
5F
  0
BLOCK_RECORD
  5
59
330
1
100
AcDbSymbolTableRecord
100
AcDbBlockTableRecord
  2
*Paper_Space0
340
5A
  0
BLOCK_RECORD
  5
127
330
1
100
AcDbSymbolTableRecord
100
AcDbBlockTableRecord
  2
*D1
340
0
  0
BLOCK_RECORD
  5
13F
330
1
100
AcDbSymbolTableRecord
100
AcDbBlockTableRecord
  2
*D2
340
0
  0
BLOCK_RECORD
  5
157
330
1
100
AcDbSymbolTableRecord
100
AcDbBlockTableRecord
  2
*D3
340
0
  0
BLOCK_RECORD
  5
16F
330
1
100
AcDbSymbolTableRecord
100
AcDbBlockTableRecord
  2
*D4
340
0
  0
BLOCK_RECORD
  5
18B
330
1
100
AcDbSymbolTableRecord
100
AcDbBlockTableRecord
  2
*D5
340
0
  0
BLOCK_RECORD
  5
1A7
330
1
100
AcDbSymbolTableRecord
100
AcDbBlockTableRecord
  2
*D6
340
0
  0
BLOCK_RECORD
  5
1C3
330
1
100
AcDbSymbolTableRecord
100
AcDbBlockTableRecord
  2
*D7
340
0
  0
BLOCK_RECORD
  5
1DB
330
1
100
AcDbSymbolTableRecord
100
AcDbBlockTableRecord
  2
*D8
340
0
  0
BLOCK_RECORD
  5
1F3
330
1
100
AcDbSymbolTableRecord
100
AcDbBlockTableRecord
  2
*D9
340
0
  0
BLOCK_RECORD
  5
20B
330
1
100
AcDbSymbolTableRecord
100
AcDbBlockTableRecord
  2
*D10
340
0
  0
BLOCK_RECORD
  5
229
330
1
100
AcDbSymbolTableRecord
100
AcDbBlockTableRecord
  2
*D11
340
0
  0
BLOCK_RECORD
  5
241
330
1
100
AcDbSymbolTableRecord
100
AcDbBlockTableRecord
  2
*D12
340
0
  0
BLOCK_RECORD
  5
259
330
1
100
AcDbSymbolTableRecord
100
AcDbBlockTableRecord
  2
*D13
340
0
  0
BLOCK_RECORD
  5
26B
330
1
100
AcDbSymbolTableRecord
100
AcDbBlockTableRecord
  2
*D14
340
0
  0
BLOCK_RECORD
  5
27D
330
1
100
AcDbSymbolTableRecord
100
AcDbBlockTableRecord
  2
*D15
340
0
  0
BLOCK_RECORD
  5
28F
330
1
100
AcDbSymbolTableRecord
100
AcDbBlockTableRecord
  2
*D16
340
0
  0
BLOCK_RECORD
  5
2A3
330
1
100
AcDbSymbolTableRecord
100
AcDbBlockTableRecord
  2
*D17
340
0
  0
BLOCK_RECORD
  5
2B7
330
1
100
AcDbSymbolTableRecord
100
AcDbBlockTableRecord
  2
*D18
340
0
  0
BLOCK_RECORD
  5
2CB
330
1
100
AcDbSymbolTableRecord
100
AcDbBlockTableRecord
  2
*D19
340
0
  0
BLOCK_RECORD
  5
2DD
330
1
100
AcDbSymbolTableRecord
100
AcDbBlockTableRecord
  2
*D20
340
0
  0
ENDTAB
  0
ENDSEC
  0
SECTION
  2
BLOCKS
  0
BLOCK
  5
20
330
1F
100
AcDbEntity
  8
0
100
AcDbBlockBegin
  2
*Model_Space
 70
     0
 10
0.0
 20
0.0
 30
0.0
  3
*Model_Space
  1

  0
ENDBLK
  5
21
330
1F
100
AcDbEntity
  8
0
100
AcDbBlockEnd
  0
BLOCK
  5
5B
330
59
100
AcDbEntity
  8
0
100
AcDbBlockBegin
  2
*Paper_Space0
 70
     0
 10
0.0
 20
0.0
 30
0.0
  3
*Paper_Space0
  1

  0
VIEWPORT
  5
74
330
59
100
AcDbEntity
  8
0
100
AcDbViewport
 10
133.3499908447266
 20
101.5999970436096
 30
0.0
 40
402.4920940625619
 41
218.5599527535252
 68
     0
 69
     0
 12
133.3499908447266
 22
101.5999970436096
 13
0.0
 23
0.0
 14
0.5
 24
0.5
 15
0.5
 25
0.5
 16
0.0
 26
0.0
 36
1.0
 17
0.0
 27
0.0
 37
0.0
 42
50.0
 43
0.0
 44
0.0
 45
218.5599527535252
 50
0.0
 51
0.0
 72
   100
 90
    32800
  1

281
     0
 71
     1
 74
     0
110
0.0
120
0.0
130
0.0
111
1.0
121
0.0
131
0.0
112
0.0
122
1.0
132
0.0
 79
     0
146
0.0
348
0
340
0
345
0
346
0
  0
VIEWPORT
  5
76
330
59
100
AcDbEntity
  8
0
100
AcDbViewport
 10
133.3499939441681
 20
101.5999939441681
 30
0.0
 40
213.3599903106689
 41
162.5599903106689
 68
     0
 69
     0
 12
117.6355517222834
 22
92.29857870920088
 13
0.0
 23
0.0
 14
10.0
 24
10.0
 15
10.0
 25
10.0
 16
0.0
 26
0.0
 36
1.0
 17
0.0
 27
0.0
 37
0.0
 42
50.0
 43
0.0
 44
0.0
 45
237.106012873484
 50
0.0
 51
0.0
 72
   100
 90
    32864
  1

281
     0
 71
     1
 74
     0
110
0.0
120
0.0
130
0.0
111
1.0
121
0.0
131
0.0
112
0.0
122
1.0
132
0.0
 79
     0
146
0.0
348
0
340
0
345
0
346
0
  0
ENDBLK
  5
5C
330
59
100
AcDbEntity
  8
0
100
AcDbBlockEnd
  0
BLOCK
  5
60
330
5E
100
AcDbEntity
 67
     1
  8
0
100
AcDbBlockBegin
  2
*Paper_Space
 70
     0
 10
0.0
 20
0.0
 30
0.0
  3
*Paper_Space
  1

  0
ENDBLK
  5
61
330
5E
100
AcDbEntity
 67
     1
  8
0
100
AcDbBlockEnd
  0
BLOCK
  5
131
330
127
100
AcDbEntity
  8
0
100
AcDbBlockBegin
  2
*D1
 70
     1
 10
0.0
 20
0.0
 30
0.0
  3
*D1
  1

  0
LINE
  5
134
330
127
100
AcDbEntity
  8
文本层
370
    -2
 62
     0
100
AcDbLine
 10
10.58127942115465
 20
119.5731104766509
 30
0.0
 11
-7.833201769839089
 21
119.5731104766509
 31
0.0
  0
LINE
  5
135
330
127
100
AcDbEntity
  8
文本层
370
    -2
 62
     0
100
AcDbLine
 10
10.58127942115465
 20
89.57311047665087
 30
0.0
 11
-7.833201769839096
 21
89.57311047665087
 31
0.0
  0
LINE
  5
136
330
127
100
AcDbEntity
  8
文本层
370
    -2
 62
     0
100
AcDbLine
 10
-5.333201769839089
 20
116.0731104766509
 30
0.0
 11
-5.333201769839095
 21
93.07311047665087
 31
0.0
  0
SOLID
  5
137
330
127
100
AcDbEntity
  8
文本层
 62
     0
100
AcDbTrace
 38
0.0
 10
-5.916535103172422
 20
116.0731104766509
 11
-4.749868436505756
 21
116.0731104766509
 12
-5.333201769839088
 22
119.5731104766509
 13
-5.333201769839088
 23
119.5731104766509
  0
SOLID
  5
138
330
127
100
AcDbEntity
  8
文本层
 62
     0
100
AcDbTrace
 38
0.0
 10
-5.916535103172428
 20
93.07311047665087
 11
-4.749868436505762
 21
93.07311047665087
 12
-5.333201769839095
 22
89.57311047665087
 13
-5.333201769839095
 23
89.57311047665087
  0
MTEXT
  5
139
330
127
100
AcDbEntity
  8
文本层
 62
     0
100
AcDbMText
 10
-8.458201769839107
 20
104.5731104766509
 30
0.0
210
0.0
220
0.0
230
1.0
 11
6.123031769111886E-17
 21
1.0
 31
0.0
 40
5.0
 41
0.0
 71
     5
 72
     1
  1
30
  7
数字与字母
 73
     1
 44
1.0
  0
POINT
  5
13A
330
127
100
AcDbEntity
  8
Defpoints
 62
     0
100
AcDbPoint
 10
10.58127942115465
 20
119.5731104766509
 30
0.0
 50
0.0
  0
POINT
  5
13B
330
127
100
AcDbEntity
  8
Defpoints
 62
     0
100
AcDbPoint
 10
10.58127942115465
 20
89.57311047665087
 30
0.0
 50
0.0
  0
POINT
  5
13C
330
127
100
AcDbEntity
  8
Defpoints
 62
     0
100
AcDbPoint
 10
-5.333201769839095
 20
89.57311047665087
 30
0.0
 50
0.0
  0
ENDBLK
  5
132
330
127
100
AcDbEntity
  8
0
100
AcDbBlockEnd
  0
BLOCK
  5
149
330
13F
100
AcDbEntity
  8
0
100
AcDbBlockBegin
  2
*D2
 70
     1
 10
0.0
 20
0.0
 30
0.0
  3
*D2
  1

  0
LINE
  5
14C
330
13F
100
AcDbEntity
  8
文本层
370
    -2
 62
     0
100
AcDbLine
 10
4.581279421154647
 20
124.0731104766509
 30
0.0
 11
-18.31057952791729
 21
124.0731104766509
 31
0.0
  0
LINE
  5
14D
330
13F
100
AcDbEntity
  8
文本层
370
    -2
 62
     0
100
AcDbLine
 10
4.581279421154647
 20
85.07311047665087
 30
0.0
 11
-18.3105795279173
 21
85.07311047665087
 31
0.0
  0
LINE
  5
14E
330
13F
100
AcDbEntity
  8
文本层
370
    -2
 62
     0
100
AcDbLine
 10
-15.81057952791729
 20
120.5731104766509
 30
0.0
 11
-15.8105795279173
 21
88.57311047665087
 31
0.0
  0
SOLID
  5
14F
330
13F
100
AcDbEntity
  8
文本层
 62
     0
100
AcDbTrace
 38
0.0
 10
-16.39391286125062
 20
120.5731104766509
 11
-15.22724619458396
 21
120.5731104766509
 12
-15.81057952791729
 22
124.0731104766509
 13
-15.81057952791729
 23
124.0731104766509
  0
SOLID
  5
150
330
13F
100
AcDbEntity
  8
文本层
 62
     0
100
AcDbTrace
 38
0.0
 10
-16.39391286125063
 20
88.57311047665087
 11
-15.22724619458396
 21
88.57311047665087
 12
-15.8105795279173
 22
85.07311047665087
 13
-15.8105795279173
 23
85.07311047665087
  0
MTEXT
  5
151
330
13F
100
AcDbEntity
  8
文本层
 62
     0
100
AcDbMText
 10
-18.93557952791731
 20
104.5731104766509
 30
0.0
210
0.0
220
0.0
230
1.0
 11
6.123031769111886E-17
 21
1.0
 31
0.0
 40
5.0
 41
0.0
 71
     5
 72
     1
  1
39
  7
数字与字母
 73
     1
 44
1.0
  0
POINT
  5
152
330
13F
100
AcDbEntity
  8
Defpoints
 62
     0
100
AcDbPoint
 10
4.581279421154647
 20
124.0731104766509
 30
0.0
 50
0.0
  0
POINT
  5
153
330
13F
100
AcDbEntity
  8
Defpoints
 62
     0
100
AcDbPoint
 10
4.581279421154647
 20
85.07311047665087
 30
0.0
 50
0.0
  0
POINT
  5
154
330
13F
100
AcDbEntity
  8
Defpoints
 62
     0
100
AcDbPoint
 10
-15.8105795279173
 20
85.07311047665087
 30
0.0
 50
0.0
  0
ENDBLK
  5
14A
330
13F
100
AcDbEntity
  8
0
100
AcDbBlockEnd
  0
BLOCK
  5
161
330
157
100
AcDbEntity
  8
0
100
AcDbBlockBegin
  2
*D3
 70
     1
 10
0.0
 20
0.0
 30
0.0
  3
*D3
  1

  0
LINE
  5
164
330
157
100
AcDbEntity
  8
文本层
370
    -2
 62
     0
100
AcDbLine
 10
22.58127942115465
 20
131.5731104766509
 30
0.0
 11
-30.92427268055967
 21
131.5731104766509
 31
0.0
  0
LINE
  5
165
330
157
100
AcDbEntity
  8
文本层
370
    -2
 62
     0
100
AcDbLine
 10
22.58127942115465
 20
77.57311047665087
 30
0.0
 11
-30.92427268055968
 21
77.57311047665087
 31
0.0
  0
LINE
  5
166
330
157
100
AcDbEntity
  8
文本层
370
    -2
 62
     0
100
AcDbLine
 10
-28.42427268055967
 20
128.0731104766509
 30
0.0
 11
-28.42427268055968
 21
81.07311047665087
 31
0.0
  0
SOLID
  5
167
330
157
100
AcDbEntity
  8
文本层
 62
     0
100
AcDbTrace
 38
0.0
 10
-29.007606013893
 20
128.0731104766509
 11
-27.84093934722634
 21
128.0731104766509
 12
-28.42427268055967
 22
131.5731104766509
 13
-28.42427268055967
 23
131.5731104766509
  0
SOLID
  5
168
330
157
100
AcDbEntity
  8
文本层
 62
     0
100
AcDbTrace
 38
0.0
 10
-29.00760601389301
 20
81.07311047665087
 11
-27.84093934722635
 21
81.07311047665087
 12
-28.42427268055968
 22
77.57311047665087
 13
-28.42427268055968
 23
77.57311047665087
  0
MTEXT
  5
169
330
157
100
AcDbEntity
  8
文本层
 62
     0
100
AcDbMText
 10
-31.54927268055969
 20
104.5731104766509
 30
0.0
210
0.0
220
0.0
230
1.0
 11
6.123031769111886E-17
 21
1.0
 31
0.0
 40
5.0
 41
0.0
 71
     5
 72
     1
  1
54
  7
数字与字母
 73
     1
 44
1.0
  0
POINT
  5
16A
330
157
100
AcDbEntity
  8
Defpoints
 62
     0
100
AcDbPoint
 10
22.58127942115465
 20
131.5731104766509
 30
0.0
 50
0.0
  0
POINT
  5
16B
330
157
100
AcDbEntity
  8
Defpoints
 62
     0
100
AcDbPoint
 10
22.58127942115465
 20
77.57311047665087
 30
0.0
 50
0.0
  0
POINT
  5
16C
330
157
100
AcDbEntity
  8
Defpoints
 62
     0
100
AcDbPoint
 10
-28.42427268055968
 20
77.57311047665087
 30
0.0
 50
0.0
  0
ENDBLK
  5
162
330
157
100
AcDbEntity
  8
0
100
AcDbBlockEnd
  0
BLOCK
  5
17B
330
16F
100
AcDbEntity
  8
0
100
AcDbBlockBegin
  2
*D4
 70
     1
 10
0.0
 20
0.0
 30
0.0
  3
*D4
  1

  0
LINE
  5
17E
330
16F
100
AcDbEntity
  8
文本层
370
    -2
 62
     0
100
AcDbLine
 10
4.581279421154647
 20
85.07311047665087
 30
0.0
 11
4.581279421154647
 21
63.62244822947056
 31
0.0
  0
LINE
  5
17F
330
16F
100
AcDbEntity
  8
文本层
370
    -2
 62
     0
100
AcDbLine
 10
10.58127942115465
 20
85.07311047665087
 30
0.0
 11
10.58127942115465
 21
63.62244822947056
 31
0.0
  0
LINE
  5
180
330
16F
100
AcDbEntity
  8
文本层
370
    -2
 62
     0
100
AcDbLine
 10
1.081279421154647
 20
66.12244822947056
 30
0.0
 11
-2.418720578845353
 21
66.12244822947056
 31
0.0
  0
LINE
  5
181
330
16F
100
AcDbEntity
  8
文本层
370
    -2
 62
     0
100
AcDbLine
 10
14.08127942115465
 20
66.12244822947056
 30
0.0
 11
17.58127942115465
 21
66.12244822947056
 31
0.0
  0
LINE
  5
182
330
16F
100
AcDbEntity
  8
文本层
370
    -2
 62
     0
100
AcDbLine
 10
4.581279421154647
 20
66.12244822947056
 30
0.0
 11
10.58127942115465
 21
66.12244822947056
 31
0.0
  0
SOLID
  5
183
330
16F
100
AcDbEntity
  8
文本层
 62
     0
100
AcDbTrace
 38
0.0
 10
1.081279421154647
 20
66.70578156280389
 11
1.081279421154647
 21
65.53911489613724
 12
4.581279421154647
 22
66.12244822947056
 13
4.581279421154647
 23
66.12244822947056
  0
SOLID
  5
184
330
16F
100
AcDbEntity
  8
文本层
 62
     0
100
AcDbTrace
 38
0.0
 10
14.08127942115465
 20
66.70578156280389
 11
14.08127942115465
 21
65.53911489613724
 12
10.58127942115465
 22
66.12244822947056
 13
10.58127942115465
 23
66.12244822947056
  0
MTEXT
  5
185
330
16F
100
AcDbEntity
  8
文本层
 62
     0
100
AcDbMText
 10
7.581279421154646
 20
69.24744822947056
 30
0.0
210
0.0
220
0.0
230
1.0
 11
1.0
 21
0.0
 31
0.0
 40
5.0
 41
0.0
 71
     5
 72
     1
  1
6
  7
数字与字母
 73
     1
 44
1.0
  0
POINT
  5
186
330
16F
100
AcDbEntity
  8
Defpoints
 62
     0
100
AcDbPoint
 10
4.581279421154647
 20
85.07311047665087
 30
0.0
 50
0.0
  0
POINT
  5
187
330
16F
100
AcDbEntity
  8
Defpoints
 62
     0
100
AcDbPoint
 10
10.58127942115465
 20
85.07311047665087
 30
0.0
 50
0.0
  0
POINT
  5
188
330
16F
100
AcDbEntity
  8
Defpoints
 62
     0
100
AcDbPoint
 10
10.58127942115465
 20
66.12244822947056
 30
0.0
 50
0.0
  0
ENDBLK
  5
17C
330
16F
100
AcDbEntity
  8
0
100
AcDbBlockEnd
  0
BLOCK
  5
197
330
18B
100
AcDbEntity
  8
0
100
AcDbBlockBegin
  2
*D5
 70
     1
 10
0.0
 20
0.0
 30
0.0
  3
*D5
  1

  0
LINE
  5
19A
330
18B
100
AcDbEntity
  8
文本层
370
    -2
 62
     0
100
AcDbLine
 10
10.58127942115465
 20
85.07311047665087
 30
0.0
 11
10.58127942115465
 21
63.62244822947056
 31
0.0
  0
LINE
  5
19B
330
18B
100
AcDbEntity
  8
文本层
370
    -2
 62
     0
100
AcDbLine
 10
16.58127942115465
 20
85.07311047665087
 30
0.0
 11
16.58127942115465
 21
63.62244822947056
 31
0.0
  0
LINE
  5
19C
330
18B
100
AcDbEntity
  8
文本层
370
    -2
 62
     0
100
AcDbLine
 10
7.081279421154646
 20
66.12244822947056
 30
0.0
 11
3.581279421154646
 21
66.12244822947056
 31
0.0
  0
LINE
  5
19D
330
18B
100
AcDbEntity
  8
文本层
370
    -2
 62
     0
100
AcDbLine
 10
20.08127942115465
 20
66.12244822947056
 30
0.0
 11
23.58127942115465
 21
66.12244822947056
 31
0.0
  0
LINE
  5
19E
330
18B
100
AcDbEntity
  8
文本层
370
    -2
 62
     0
100
AcDbLine
 10
10.58127942115465
 20
66.12244822947056
 30
0.0
 11
16.58127942115465
 21
66.12244822947056
 31
0.0
  0
SOLID
  5
19F
330
18B
100
AcDbEntity
  8
文本层
 62
     0
100
AcDbTrace
 38
0.0
 10
7.081279421154646
 20
66.70578156280389
 11
7.081279421154646
 21
65.53911489613724
 12
10.58127942115465
 22
66.12244822947056
 13
10.58127942115465
 23
66.12244822947056
  0
SOLID
  5
1A0
330
18B
100
AcDbEntity
  8
文本层
 62
     0
100
AcDbTrace
 38
0.0
 10
20.08127942115465
 20
66.70578156280389
 11
20.08127942115465
 21
65.53911489613724
 12
16.58127942115465
 22
66.12244822947056
 13
16.58127942115465
 23
66.12244822947056
  0
MTEXT
  5
1A1
330
18B
100
AcDbEntity
  8
文本层
 62
     0
100
AcDbMText
 10
13.58127942115465
 20
69.24744822947056
 30
0.0
210
0.0
220
0.0
230
1.0
 11
1.0
 21
0.0
 31
0.0
 40
5.0
 41
0.0
 71
     5
 72
     1
  1
6
  7
数字与字母
 73
     1
 44
1.0
  0
POINT
  5
1A2
330
18B
100
AcDbEntity
  8
Defpoints
 62
     0
100
AcDbPoint
 10
10.58127942115465
 20
85.07311047665087
 30
0.0
 50
0.0
  0
POINT
  5
1A3
330
18B
100
AcDbEntity
  8
Defpoints
 62
     0
100
AcDbPoint
 10
16.58127942115465
 20
85.07311047665087
 30
0.0
 50
0.0
  0
POINT
  5
1A4
330
18B
100
AcDbEntity
  8
Defpoints
 62
     0
100
AcDbPoint
 10
16.58127942115465
 20
66.12244822947056
 30
0.0
 50
0.0
  0
ENDBLK
  5
198
330
18B
100
AcDbEntity
  8
0
100
AcDbBlockEnd
  0
BLOCK
  5
1B3
330
1A7
100
AcDbEntity
  8
0
100
AcDbBlockBegin
  2
*D6
 70
     1
 10
0.0
 20
0.0
 30
0.0
  3
*D6
  1

  0
LINE
  5
1B6
330
1A7
100
AcDbEntity
  8
文本层
370
    -2
 62
     0
100
AcDbLine
 10
16.58127942115465
 20
85.07311047665087
 30
0.0
 11
16.58127942115465
 21
63.62244822947056
 31
0.0
  0
LINE
  5
1B7
330
1A7
100
AcDbEntity
  8
文本层
370
    -2
 62
     0
100
AcDbLine
 10
22.58127942115465
 20
85.07311047665087
 30
0.0
 11
22.58127942115465
 21
63.62244822947056
 31
0.0
  0
LINE
  5
1B8
330
1A7
100
AcDbEntity
  8
文本层
370
    -2
 62
     0
100
AcDbLine
 10
13.08127942115465
 20
66.12244822947056
 30
0.0
 11
9.581279421154647
 21
66.12244822947056
 31
0.0
  0
LINE
  5
1B9
330
1A7
100
AcDbEntity
  8
文本层
370
    -2
 62
     0
100
AcDbLine
 10
26.08127942115465
 20
66.12244822947056
 30
0.0
 11
29.58127942115465
 21
66.12244822947056
 31
0.0
  0
LINE
  5
1BA
330
1A7
100
AcDbEntity
  8
文本层
370
    -2
 62
     0
100
AcDbLine
 10
16.58127942115465
 20
66.12244822947056
 30
0.0
 11
22.58127942115465
 21
66.12244822947056
 31
0.0
  0
SOLID
  5
1BB
330
1A7
100
AcDbEntity
  8
文本层
 62
     0
100
AcDbTrace
 38
0.0
 10
13.08127942115465
 20
66.70578156280389
 11
13.08127942115465
 21
65.53911489613724
 12
16.58127942115465
 22
66.12244822947056
 13
16.58127942115465
 23
66.12244822947056
  0
SOLID
  5
1BC
330
1A7
100
AcDbEntity
  8
文本层
 62
     0
100
AcDbTrace
 38
0.0
 10
26.08127942115465
 20
66.70578156280389
 11
26.08127942115465
 21
65.53911489613724
 12
22.58127942115465
 22
66.12244822947056
 13
22.58127942115465
 23
66.12244822947056
  0
MTEXT
  5
1BD
330
1A7
100
AcDbEntity
  8
文本层
 62
     0
100
AcDbMText
 10
19.58127942115465
 20
69.24744822947056
 30
0.0
210
0.0
220
0.0
230
1.0
 11
1.0
 21
0.0
 31
0.0
 40
5.0
 41
0.0
 71
     5
 72
     1
  1
6
  7
数字与字母
 73
     1
 44
1.0
  0
POINT
  5
1BE
330
1A7
100
AcDbEntity
  8
Defpoints
 62
     0
100
AcDbPoint
 10
16.58127942115465
 20
85.07311047665087
 30
0.0
 50
0.0
  0
POINT
  5
1BF
330
1A7
100
AcDbEntity
  8
Defpoints
 62
     0
100
AcDbPoint
 10
22.58127942115465
 20
85.07311047665087
 30
0.0
 50
0.0
  0
POINT
  5
1C0
330
1A7
100
AcDbEntity
  8
Defpoints
 62
     0
100
AcDbPoint
 10
22.58127942115465
 20
66.12244822947056
 30
0.0
 50
0.0
  0
ENDBLK
  5
1B4
330
1A7
100
AcDbEntity
  8
0
100
AcDbBlockEnd
  0
BLOCK
  5
1CD
330
1C3
100
AcDbEntity
  8
0
100
AcDbBlockBegin
  2
*D7
 70
     1
 10
0.0
 20
0.0
 30
0.0
  3
*D7
  1

  0
LINE
  5
1D0
330
1C3
100
AcDbEntity
  8
文本层
370
    -2
 62
     0
100
AcDbLine
 10
34.58127942115467
 20
95.57311047665087
 30
0.0
 11
34.58127942115467
 21
82.52523320270549
 31
0.0
  0
LINE
  5
1D1
330
1C3
100
AcDbEntity
  8
文本层
370
    -2
 62
     0
100
AcDbLine
 10
73.58127942115465
 20
95.57311047665087
 30
0.0
 11
73.58127942115465
 21
82.52523320270549
 31
0.0
  0
LINE
  5
1D2
330
1C3
100
AcDbEntity
  8
文本层
370
    -2
 62
     0
100
AcDbLine
 10
38.08127942115467
 20
85.02523320270549
 30
0.0
 11
70.08127942115465
 21
85.02523320270549
 31
0.0
  0
SOLID
  5
1D3
330
1C3
100
AcDbEntity
  8
文本层
 62
     0
100
AcDbTrace
 38
0.0
 10
38.08127942115467
 20
85.60856653603882
 11
38.08127942115467
 21
84.44189986937216
 12
34.58127942115467
 22
85.02523320270549
 13
34.58127942115467
 23
85.02523320270549
  0
SOLID
  5
1D4
330
1C3
100
AcDbEntity
  8
文本层
 62
     0
100
AcDbTrace
 38
0.0
 10
70.08127942115465
 20
85.60856653603882
 11
70.08127942115465
 21
84.44189986937216
 12
73.58127942115465
 22
85.02523320270549
 13
73.58127942115465
 23
85.02523320270549
  0
MTEXT
  5
1D5
330
1C3
100
AcDbEntity
  8
文本层
 62
     0
100
AcDbMText
 10
54.08127942115466
 20
88.15023320270549
 30
0.0
210
0.0
220
0.0
230
1.0
 11
1.0
 21
0.0
 31
0.0
 40
5.0
 41
0.0
 71
     5
 72
     1
  1
39
  7
数字与字母
 73
     1
 44
1.0
  0
POINT
  5
1D6
330
1C3
100
AcDbEntity
  8
Defpoints
 62
     0
100
AcDbPoint
 10
34.58127942115467
 20
95.57311047665087
 30
0.0
 50
0.0
  0
POINT
  5
1D7
330
1C3
100
AcDbEntity
  8
Defpoints
 62
     0
100
AcDbPoint
 10
73.58127942115465
 20
95.57311047665087
 30
0.0
 50
0.0
  0
POINT
  5
1D8
330
1C3
100
AcDbEntity
  8
Defpoints
 62
     0
100
AcDbPoint
 10
73.58127942115465
 20
85.02523320270549
 30
0.0
 50
0.0
  0
ENDBLK
  5
1CE
330
1C3
100
AcDbEntity
  8
0
100
AcDbBlockEnd
  0
BLOCK
  5
1E5
330
1DB
100
AcDbEntity
  8
0
100
AcDbBlockBegin
  2
*D8
 70
     1
 10
0.0
 20
0.0
 30
0.0
  3
*D8
  1

  0
LINE
  5
1E8
330
1DB
100
AcDbEntity
  8
文本层
370
    -2
 62
     0
100
AcDbLine
 10
4.581279421154647
 20
74.34777935306072
 30
0.0
 11
4.581279421154646
 21
44.92070506612637
 31
0.0
  0
LINE
  5
1E9
330
1DB
100
AcDbEntity
  8
文本层
370
    -2
 62
     0
100
AcDbLine
 10
73.58127942115465
 20
60.57311047665087
 30
0.0
 11
73.58127942115465
 21
44.92070506612637
 31
0.0
  0
LINE
  5
1EA
330
1DB
100
AcDbEntity
  8
文本层
370
    -2
 62
     0
100
AcDbLine
 10
8.081279421154646
 20
47.42070506612637
 30
0.0
 11
70.08127942115465
 21
47.42070506612637
 31
0.0
  0
SOLID
  5
1EB
330
1DB
100
AcDbEntity
  8
文本层
 62
     0
100
AcDbTrace
 38
0.0
 10
8.081279421154646
 20
48.00403839945971
 11
8.081279421154646
 21
46.83737173279304
 12
4.581279421154646
 22
47.42070506612637
 13
4.581279421154646
 23
47.42070506612637
  0
SOLID
  5
1EC
330
1DB
100
AcDbEntity
  8
文本层
 62
     0
100
AcDbTrace
 38
0.0
 10
70.08127942115465
 20
48.00403839945971
 11
70.08127942115465
 21
46.83737173279304
 12
73.58127942115465
 22
47.42070506612637
 13
73.58127942115465
 23
47.42070506612637
  0
MTEXT
  5
1ED
330
1DB
100
AcDbEntity
  8
文本层
 62
     0
100
AcDbMText
 10
39.08127942115465
 20
50.54570506612637
 30
0.0
210
0.0
220
0.0
230
1.0
 11
1.0
 21
0.0
 31
0.0
 40
5.0
 41
0.0
 71
     5
 72
     1
  1
69
  7
数字与字母
 73
     1
 44
1.0
  0
POINT
  5
1EE
330
1DB
100
AcDbEntity
  8
Defpoints
 62
     0
100
AcDbPoint
 10
4.581279421154647
 20
74.34777935306072
 30
0.0
 50
0.0
  0
POINT
  5
1EF
330
1DB
100
AcDbEntity
  8
Defpoints
 62
     0
100
AcDbPoint
 10
73.58127942115465
 20
60.57311047665087
 30
0.0
 50
0.0
  0
POINT
  5
1F0
330
1DB
100
AcDbEntity
  8
Defpoints
 62
     0
100
AcDbPoint
 10
73.58127942115465
 20
47.42070506612637
 30
0.0
 50
0.0
  0
ENDBLK
  5
1E6
330
1DB
100
AcDbEntity
  8
0
100
AcDbBlockEnd
  0
BLOCK
  5
1FD
330
1F3
100
AcDbEntity
  8
0
100
AcDbBlockBegin
  2
*D9
 70
     1
 10
0.0
 20
0.0
 30
0.0
  3
*D9
  1

  0
LINE
  5
200
330
1F3
100
AcDbEntity
  8
文本层
370
    -2
 62
     0
100
AcDbLine
 10
64.58127942115465
 20
148.5731104766509
 30
0.0
 11
64.58127942115465
 21
163.139479426481
 31
0.0
  0
LINE
  5
201
330
1F3
100
AcDbEntity
  8
文本层
370
    -2
 62
     0
100
AcDbLine
 10
73.58127942115465
 20
148.5731104766509
 30
0.0
 11
73.58127942115465
 21
163.139479426481
 31
0.0
  0
LINE
  5
202
330
1F3
100
AcDbEntity
  8
文本层
370
    -2
 62
     0
100
AcDbLine
 10
68.08127942115465
 20
160.639479426481
 30
0.0
 11
70.08127942115465
 21
160.639479426481
 31
0.0
  0
SOLID
  5
203
330
1F3
100
AcDbEntity
  8
文本层
 62
     0
100
AcDbTrace
 38
0.0
 10
68.08127942115465
 20
161.2228127598144
 11
68.08127942115465
 21
160.0561460931477
 12
64.58127942115465
 22
160.639479426481
 13
64.58127942115465
 23
160.639479426481
  0
SOLID
  5
204
330
1F3
100
AcDbEntity
  8
文本层
 62
     0
100
AcDbTrace
 38
0.0
 10
70.08127942115465
 20
161.2228127598144
 11
70.08127942115465
 21
160.0561460931477
 12
73.58127942115465
 22
160.639479426481
 13
73.58127942115465
 23
160.639479426481
  0
MTEXT
  5
205
330
1F3
100
AcDbEntity
  8
文本层
 62
     0
100
AcDbMText
 10
69.08127942115465
 20
163.764479426481
 30
0.0
210
0.0
220
0.0
230
1.0
 11
1.0
 21
0.0
 31
0.0
 40
5.0
 41
0.0
 71
     5
 72
     1
  1
9
  7
数字与字母
 73
     1
 44
1.0
  0
POINT
  5
206
330
1F3
100
AcDbEntity
  8
Defpoints
 62
     0
100
AcDbPoint
 10
64.58127942115465
 20
148.5731104766509
 30
0.0
 50
0.0
  0
POINT
  5
207
330
1F3
100
AcDbEntity
  8
Defpoints
 62
     0
100
AcDbPoint
 10
73.58127942115465
 20
148.5731104766509
 30
0.0
 50
0.0
  0
POINT
  5
208
330
1F3
100
AcDbEntity
  8
Defpoints
 62
     0
100
AcDbPoint
 10
73.58127942115465
 20
160.639479426481
 30
0.0
 50
0.0
  0
ENDBLK
  5
1FE
330
1F3
100
AcDbEntity
  8
0
100
AcDbBlockEnd
  0
BLOCK
  5
218
330
20B
100
AcDbEntity
  8
0
100
AcDbBlockBegin
  2
*D10
 70
     1
 10
0.0
 20
0.0
 30
0.0
  3
*D10
  1

  0
LINE
  5
21B
330
20B
100
AcDbEntity
  8
文本层
370
    -2
 62
     0
100
AcDbLine
 10
56.76067732649392
 20
142.0731104766509
 30
0.0
 11
89.48793054467012
 21
142.0731104766508
 31
0.0
  0
LINE
  5
21C
330
20B
100
AcDbEntity
  8
文本层
370
    -2
 62
     0
100
AcDbLine
 10
73.58127942115465
 20
134.5731104766509
 30
0.0
 11
89.48793054467012
 21
134.5731104766509
 31
0.0
  0
LINE
  5
21D
330
20B
100
AcDbEntity
  8
文本层
370
    -2
 62
     0
100
AcDbLine
 10
86.98793054467012
 20
145.5731104766508
 30
0.0
 11
86.98793054467012
 21
149.0731104766508
 31
0.0
  0
LINE
  5
21E
330
20B
100
AcDbEntity
  8
文本层
370
    -2
 62
     0
100
AcDbLine
 10
86.98793054467012
 20
131.0731104766509
 30
0.0
 11
86.98793054467012
 21
127.5731104766509
 31
0.0
  0
LINE
  5
21F
330
20B
100
AcDbEntity
  8
文本层
370
    -2
 62
     0
100
AcDbLine
 10
86.98793054467012
 20
127.5731104766509
 30
0.0
 11
78.86293054467012
 21
127.5731104766509
 31
0.0
  0
LINE
  5
220
330
20B
100
AcDbEntity
  8
文本层
370
    -2
 62
     0
100
AcDbLine
 10
86.98793054467012
 20
142.0731104766508
 30
0.0
 11
86.98793054467012
 21
134.5731104766509
 31
0.0
  0
SOLID
  5
221
330
20B
100
AcDbEntity
  8
文本层
 62
     0
100
AcDbTrace
 38
0.0
 10
86.40459721133679
 20
145.5731104766508
 11
87.57126387800345
 21
145.5731104766508
 12
86.98793054467012
 22
142.0731104766508
 13
86.98793054467012
 23
142.0731104766508
  0
SOLID
  5
222
330
20B
100
AcDbEntity
  8
文本层
 62
     0
100
AcDbTrace
 38
0.0
 10
86.40459721133679
 20
131.0731104766509
 11
87.57126387800345
 21
131.0731104766509
 12
86.98793054467012
 22
134.5731104766509
 13
86.98793054467012
 23
134.5731104766509
  0
MTEXT
  5
223
330
20B
100
AcDbEntity
  8
文本层
 62
     0
100
AcDbMText
 10
82.61293054467011
 20
130.6981104766509
 30
0.0
210
0.0
220
0.0
230
1.0
 11
1.0
 21
0.0
 31
0.0
 40
5.0
 41
0.0
 71
     5
 72
     1
  1
7.5
  7
数字与字母
 73
     1
 44
1.0
  0
POINT
  5
224
330
20B
100
AcDbEntity
  8
Defpoints
 62
     0
100
AcDbPoint
 10
56.76067732649392
 20
142.0731104766509
 30
0.0
 50
0.0
  0
POINT
  5
225
330
20B
100
AcDbEntity
  8
Defpoints
 62
     0
100
AcDbPoint
 10
73.58127942115465
 20
134.5731104766509
 30
0.0
 50
0.0
  0
POINT
  5
226
330
20B
100
AcDbEntity
  8
Defpoints
 62
     0
100
AcDbPoint
 10
86.98793054467012
 20
134.5731104766509
 30
0.0
 50
0.0
  0
ENDBLK
  5
219
330
20B
100
AcDbEntity
  8
0
100
AcDbBlockEnd
  0
BLOCK
  5
233
330
229
100
AcDbEntity
  8
0
100
AcDbBlockBegin
  2
*D11
 70
     1
 10
0.0
 20
0.0
 30
0.0
  3
*D11
  1

  0
LINE
  5
236
330
229
100
AcDbEntity
  8
文本层
370
    -2
 62
     0
100
AcDbLine
 10
73.58127942115465
 20
134.5731104766509
 30
0.0
 11
98.3962123490618
 21
134.5731104766509
 31
0.0
  0
LINE
  5
237
330
229
100
AcDbEntity
  8
文本层
370
    -2
 62
     0
100
AcDbLine
 10
73.58127942115465
 20
74.57311047665087
 30
0.0
 11
98.39621234906178
 21
74.57311047665085
 31
0.0
  0
LINE
  5
238
330
229
100
AcDbEntity
  8
文本层
370
    -2
 62
     0
100
AcDbLine
 10
95.8962123490618
 20
131.0731104766509
 30
0.0
 11
95.89621234906178
 21
78.07311047665087
 31
0.0
  0
SOLID
  5
239
330
229
100
AcDbEntity
  8
文本层
 62
     0
100
AcDbTrace
 38
0.0
 10
95.31287901572847
 20
131.0731104766509
 11
96.47954568239513
 21
131.0731104766509
 12
95.8962123490618
 22
134.5731104766509
 13
95.8962123490618
 23
134.5731104766509
  0
SOLID
  5
23A
330
229
100
AcDbEntity
  8
文本层
 62
     0
100
AcDbTrace
 38
0.0
 10
95.31287901572846
 20
78.07311047665087
 11
96.47954568239511
 21
78.07311047665085
 12
95.89621234906178
 22
74.57311047665087
 13
95.89621234906178
 23
74.57311047665087
  0
MTEXT
  5
23B
330
229
100
AcDbEntity
  8
文本层
 62
     0
100
AcDbMText
 10
92.77121234906177
 20
104.5731104766509
 30
0.0
210
0.0
220
0.0
230
1.0
 11
6.123031769111886E-17
 21
1.0
 31
0.0
 40
5.0
 41
0.0
 71
     5
 72
     1
  1
60
  7
数字与字母
 73
     1
 44
1.0
  0
POINT
  5
23C
330
229
100
AcDbEntity
  8
Defpoints
 62
     0
100
AcDbPoint
 10
73.58127942115465
 20
134.5731104766509
 30
0.0
 50
0.0
  0
POINT
  5
23D
330
229
100
AcDbEntity
  8
Defpoints
 62
     0
100
AcDbPoint
 10
73.58127942115465
 20
74.57311047665087
 30
0.0
 50
0.0
  0
POINT
  5
23E
330
229
100
AcDbEntity
  8
Defpoints
 62
     0
100
AcDbPoint
 10
95.89621234906178
 20
74.57311047665087
 30
0.0
 50
0.0
  0
ENDBLK
  5
234
330
229
100
AcDbEntity
  8
0
100
AcDbBlockEnd
  0
BLOCK
  5
24B
330
241
100
AcDbEntity
  8
0
100
AcDbBlockBegin
  2
*D12
 70
     1
 10
0.0
 20
0.0
 30
0.0
  3
*D12
  1

  0
LINE
  5
2F8
330
241
100
AcDbEntity
  8
文本层
370
    -2
 62
     0
100
AcDbLine
 10
73.58127942115465
 20
148.5731104766509
 30
0.0
 11
109.1916683837939
 21
148.5731104766509
 31
0.0
  0
LINE
  5
2F9
330
241
100
AcDbEntity
  8
文本层
370
    -2
 62
     0
100
AcDbLine
 10
73.58127942115465
 20
60.57311047665087
 30
0.0
 11
109.1916683837939
 21
60.57311047665086
 31
0.0
  0
LINE
  5
2FA
330
241
100
AcDbEntity
  8
文本层
370
    -2
 62
     0
100
AcDbLine
 10
106.6916683837939
 20
145.0731104766509
 30
0.0
 11
106.6916683837939
 21
64.07311047665085
 31
0.0
  0
SOLID
  5
2FB
330
241
100
AcDbEntity
  8
文本层
 62
     0
100
AcDbTrace
 38
0.0
 10
106.1083350504605
 20
145.0731104766509
 11
107.2750017171272
 21
145.0731104766509
 12
106.6916683837939
 22
148.5731104766509
 13
106.6916683837939
 23
148.5731104766509
  0
SOLID
  5
2FC
330
241
100
AcDbEntity
  8
文本层
 62
     0
100
AcDbTrace
 38
0.0
 10
106.1083350504605
 20
64.07311047665085
 11
107.2750017171272
 21
64.07311047665085
 12
106.6916683837939
 22
60.57311047665086
 13
106.6916683837939
 23
60.57311047665086
  0
MTEXT
  5
2FD
330
241
100
AcDbEntity
  8
文本层
 62
     0
100
AcDbMText
 10
103.5666683837938
 20
104.5731104766509
 30
0.0
210
0.0
220
0.0
230
1.0
 11
6.123031769111886E-17
 21
1.0
 31
0.0
 40
5.0
 41
0.0
 71
     5
 72
     1
  1
{\f仿宋_GB2312|b0|i0|c134|p49;98}
  7
数字与字母
 73
     1
 44
1.0
  0
POINT
  5
2FE
330
241
100
AcDbEntity
  8
Defpoints
 62
     0
100
AcDbPoint
 10
73.58127942115465
 20
148.5731104766509
 30
0.0
 50
0.0
  0
POINT
  5
2FF
330
241
100
AcDbEntity
  8
Defpoints
 62
     0
100
AcDbPoint
 10
73.58127942115465
 20
60.57311047665087
 30
0.0
 50
0.0
  0
POINT
  5
300
330
241
100
AcDbEntity
  8
Defpoints
 62
     0
100
AcDbPoint
 10
106.6916683837939
 20
60.57311047665086
 30
0.0
 50
0.0
  0
ENDBLK
  5
24C
330
241
100
AcDbEntity
  8
0
100
AcDbBlockEnd
  0
BLOCK
  5
260
330
259
100
AcDbEntity
  8
0
100
AcDbBlockBegin
  2
*D13
 70
     1
 10
0.0
 20
0.0
 30
0.0
  3
*D13
  1

  0
LINE
  5
263
330
259
100
AcDbEntity
  8
文本层
370
    -2
 62
     0
100
AcDbLine
 10
47.06621854372699
 20
150.2301827178069
 30
0.0
 11
53.85788521039365
 21
150.2301827178069
 31
0.0
  0
LINE
  5
264
330
259
100
AcDbEntity
  8
文本层
370
    -2
 62
     0
100
AcDbLine
 10
53.85788521039365
 20
150.2301827178069
 30
0.0
 11
61.16545672384272
 21
145.350764009674
 31
0.0
  0
MTEXT
  5
265
330
259
100
AcDbEntity
  8
文本层
 62
     0
100
AcDbMText
 10
50.14955187706035
 20
153.3551827178069
 30
0.0
210
0.0
220
0.0
230
1.0
 11
1.0
 21
0.0
 31
0.0
 40
5.0
 41
0.0
 71
     5
 72
     1
  1
R3
  7
数字与字母
 73
     1
 44
1.0
  0
SOLID
  5
266
330
259
100
AcDbEntity
  8
文本层
 62
     0
100
AcDbTrace
 38
0.0
 10
61.48938584570324
 20
145.8358904898712
 11
60.84152760198219
 21
144.8656375294769
 12
64.07621560502548
 22
143.4071892785109
 13
64.07621560502548
 23
143.4071892785109
  0
POINT
  5
267
330
259
100
AcDbEntity
  8
Defpoints
 62
     0
100
AcDbPoint
 10
64.07621560502548
 20
143.4071892785109
 30
0.0
 50
0.0
  0
POINT
  5
268
330
259
100
AcDbEntity
  8
Defpoints
 62
     0
100
AcDbPoint
 10
61.58127942115462
 20
145.0731104766507
 30
0.0
 50
0.0
  0
ENDBLK
  5
261
330
259
100
AcDbEntity
  8
0
100
AcDbBlockEnd
  0
BLOCK
  5
272
330
26B
100
AcDbEntity
  8
0
100
AcDbBlockBegin
  2
*D14
 70
     1
 10
0.0
 20
0.0
 30
0.0
  3
*D14
  1

  0
LINE
  5
275
330
26B
100
AcDbEntity
  8
文本层
370
    -2
 62
     0
100
AcDbLine
 10
15.43128154523816
 20
142.8666704059039
 30
0.0
 11
22.22294821190484
 21
142.8666704059039
 31
0.0
  0
LINE
  5
276
330
26B
100
AcDbEntity
  8
文本层
370
    -2
 62
     0
100
AcDbLine
 10
22.22294821190484
 20
142.8666704059039
 30
0.0
 11
25.52402996935133
 21
135.0338638060539
 31
0.0
  0
MTEXT
  5
277
330
26B
100
AcDbEntity
  8
文本层
 62
     0
100
AcDbMText
 10
18.51461487857151
 20
145.9916704059038
 30
0.0
210
0.0
220
0.0
230
1.0
 11
1.0
 21
0.0
 31
0.0
 40
5.0
 41
0.0
 71
     5
 72
     1
  1
R3
  7
数字与字母
 73
     1
 44
1.0
  0
SOLID
  5
278
330
26B
100
AcDbEntity
  8
文本层
 62
     0
100
AcDbTrace
 38
0.0
 10
26.06157552032142
 20
135.2604086325453
 11
24.98648441838123
 21
134.8073189795624
 12
26.88329892829988
 22
131.8085905002332
 13
26.88329892829988
 23
131.8085905002332
  0
POINT
  5
279
330
26B
100
AcDbEntity
  8
Defpoints
 62
     0
100
AcDbPoint
 10
26.88329892829988
 20
131.8085905002332
 30
0.0
 50
0.0
  0
POINT
  5
27A
330
26B
100
AcDbEntity
  8
Defpoints
 62
     0
100
AcDbPoint
 10
25.71821124920108
 20
134.573110476651
 30
0.0
 50
0.0
  0
ENDBLK
  5
273
330
26B
100
AcDbEntity
  8
0
100
AcDbBlockEnd
  0
BLOCK
  5
284
330
27D
100
AcDbEntity
  8
0
100
AcDbBlockBegin
  2
*D15
 70
     1
 10
0.0
 20
0.0
 30
0.0
  3
*D15
  1

  0
LINE
  5
287
330
27D
100
AcDbEntity
  8
文本层
370
    -2
 62
     0
100
AcDbLine
 10
65.26400995640741
 20
122.0939666813434
 30
0.0
 11
53.30567662307407
 21
122.0939666813434
 31
0.0
  0
LINE
  5
288
330
27D
100
AcDbEntity
  8
文本层
370
    -2
 62
     0
100
AcDbLine
 10
53.30567662307407
 20
122.0939666813434
 30
0.0
 11
38.42488835994813
 21
128.6950859411783
 31
0.0
  0
MTEXT
  5
289
330
27D
100
AcDbEntity
  8
文本层
 62
     0
100
AcDbMText
 10
59.59734328974075
 20
125.2189666813434
 30
0.0
210
0.0
220
0.0
230
1.0
 11
1.0
 21
0.0
 31
0.0
 40
5.0
 41
0.0
 71
     5
 72
     1
  1
R7.5
  7
数字与字母
 73
     1
 44
1.0
  0
SOLID
  5
28A
330
27D
100
AcDbEntity
  8
文本层
 62
     0
100
AcDbTrace
 38
0.0
 10
38.66142644852505
 20
129.2283096376043
 11
38.1883502713712
 21
128.1618622447524
 12
35.22554618139242
 22
130.1143144726399
 13
35.22554618139242
 23
130.1143144726399
  0
POINT
  5
28B
330
27D
100
AcDbEntity
  8
Defpoints
 62
     0
100
AcDbPoint
 10
35.22554618139242
 20
130.1143144726399
 30
0.0
 50
0.0
  0
POINT
  5
28C
330
27D
100
AcDbEntity
  8
Defpoints
 62
     0
100
AcDbPoint
 10
42.08127942115459
 20
127.0731104766509
 30
0.0
 50
0.0
  0
ENDBLK
  5
285
330
27D
100
AcDbEntity
  8
0
100
AcDbBlockEnd
  0
BLOCK
  5
297
330
28F
100
AcDbEntity
  8
0
100
AcDbBlockBegin
  2
*D16
 70
     1
 10
0.0
 20
0.0
 30
0.0
  3
*D16
  1

  0
LINE
  5
29A
330
28F
100
AcDbEntity
  8
文本层
370
    -2
 62
     0
100
AcDbLine
 10
138.7018798588128
 20
155.8035039580633
 30
0.0
 11
148.4935465254794
 21
155.8035039580633
 31
0.0
  0
LINE
  5
29B
330
28F
100
AcDbEntity
  8
文本层
370
    -2
 62
     0
100
AcDbLine
 10
148.4935465254794
 20
155.8035039580633
 30
0.0
 11
160.9300249636538
 21
143.2660022986884
 31
0.0
  0
MTEXT
  5
29C
330
28F
100
AcDbEntity
  8
文本层
 62
     0
100
AcDbMText
 10
143.2852131921461
 20
158.9285039580634
 30
0.0
210
0.0
220
0.0
230
1.0
 11
1.0
 21
0.0
 31
0.0
 40
5.0
 41
0.0
 71
     5
 72
     1
  1
R51
  7
数字与字母
 73
     1
 44
1.0
  0
LINE
  5
29D
330
28F
100
AcDbEntity
  8
文本层
370
    -2
 62
     0
100
AcDbLine
 10
199.3111417067621
 20
104.5731104766509
 30
0.0
 11
163.3948673233029
 21
140.781137686264
 31
0.0
  0
SOLID
  5
29E
330
28F
100
AcDbEntity
  8
文本层
 62
     0
100
AcDbTrace
 38
0.0
 10
161.3441690657245
 20
143.67680935863
 11
160.515880861583
 21
142.8551952387469
 12
163.3948673233029
 22
140.781137686264
 13
163.3948673233029
 23
140.781137686264
  0
POINT
  5
29F
330
28F
100
AcDbEntity
  8
Defpoints
 62
     0
100
AcDbPoint
 10
163.3948673233029
 20
140.781137686264
 30
0.0
 50
0.0
  0
POINT
  5
2A0
330
28F
100
AcDbEntity
  8
Defpoints
 62
     0
100
AcDbPoint
 10
199.3111417067621
 20
104.5731104766509
 30
0.0
 50
0.0
  0
ENDBLK
  5
298
330
28F
100
AcDbEntity
  8
0
100
AcDbBlockEnd
  0
BLOCK
  5
2AB
330
2A3
100
AcDbEntity
  8
0
100
AcDbBlockBegin
  2
*D17
 70
     1
 10
0.0
 20
0.0
 30
0.0
  3
*D17
  1

  0
LINE
  5
2AE
330
2A3
100
AcDbEntity
  8
文本层
370
    -2
 62
     0
100
AcDbLine
 10
263.5230630013702
 20
158.2339241843214
 30
0.0
 11
251.5647296680369
 21
158.2339241843214
 31
0.0
  0
LINE
  5
2AF
330
2A3
100
AcDbEntity
  8
文本层
370
    -2
 62
     0
100
AcDbLine
 10
251.5647296680369
 20
158.2339241843214
 30
0.0
 11
241.2641061943464
 21
147.0380394345586
 31
0.0
  0
MTEXT
  5
2B0
330
2A3
100
AcDbEntity
  8
文本层
 62
     0
100
AcDbMText
 10
257.8563963347035
 20
161.3589241843214
 30
0.0
210
0.0
220
0.0
230
1.0
 11
1.0
 21
0.0
 31
0.0
 40
5.0
 41
0.0
 71
     5
 72
     1
  1
R5.2
  7
数字与字母
 73
     1
 44
1.0
  0
LINE
  5
2B1
330
2A3
100
AcDbEntity
  8
文本层
370
    -2
 62
     0
100
AcDbLine
 10
235.3735875472755
 20
140.6355563171647
 30
0.0
 11
238.8943573133409
 21
144.4623278356071
 31
0.0
  0
SOLID
  5
2B2
330
2A3
100
AcDbEntity
  8
文本层
 62
     0
100
AcDbTrace
 38
0.0
 10
240.8348209278545
 20
147.4329975813928
 11
241.6933914608383
 21
146.6430812877243
 12
238.8943573133409
 22
144.4623278356071
 13
238.8943573133409
 23
144.4623278356071
  0
POINT
  5
2B3
330
2A3
100
AcDbEntity
  8
Defpoints
 62
     0
100
AcDbPoint
 10
238.8943573133409
 20
144.4623278356071
 30
0.0
 50
0.0
  0
POINT
  5
2B4
330
2A3
100
AcDbEntity
  8
Defpoints
 62
     0
100
AcDbPoint
 10
235.3735875472755
 20
140.6355563171647
 30
0.0
 50
0.0
  0
ENDBLK
  5
2AC
330
2A3
100
AcDbEntity
  8
0
100
AcDbBlockEnd
  0
BLOCK
  5
2BF
330
2B7
100
AcDbEntity
  8
0
100
AcDbBlockBegin
  2
*D18
 70
     1
 10
0.0
 20
0.0
 30
0.0
  3
*D18
  1

  0
LINE
  5
2C2
330
2B7
100
AcDbEntity
  8
文本层
370
    -2
 62
     0
100
AcDbLine
 10
264.4985875472758
 20
68.51066463613694
 30
0.0
 11
254.3735875472758
 21
68.51066463613695
 31
0.0
  0
LINE
  5
2C3
330
2B7
100
AcDbEntity
  8
文本层
370
    -2
 62
     0
100
AcDbLine
 10
254.3735875472758
 20
68.51066463613695
 30
0.0
 11
250.8735875472758
 21
68.51066463613694
 31
0.0
  0
MTEXT
  5
2C4
330
2B7
100
AcDbEntity
  8
文本层
 62
     0
100
AcDbMText
 10
259.7485875472758
 20
71.63566463613694
 30
0.0
210
0.0
220
0.0
230
1.0
 11
1.0
 21
0.0
 31
0.0
 40
5.0
 41
0.0
 71
     5
 72
     1
  1
R12
  7
数字与字母
 73
     1
 44
1.0
  0
LINE
  5
2C5
330
2B7
100
AcDbEntity
  8
文本层
370
    -2
 62
     0
100
AcDbLine
 10
235.3735875472757
 20
68.51066463613692
 30
0.0
 11
247.3735875472758
 21
68.51066463613694
 31
0.0
  0
SOLID
  5
2C6
330
2B7
100
AcDbEntity
  8
文本层
 62
     0
100
AcDbTrace
 38
0.0
 10
250.8735875472758
 20
69.09399796947027
 11
250.8735875472758
 21
67.92733130280361
 12
247.3735875472758
 22
68.51066463613694
 13
247.3735875472758
 23
68.51066463613694
  0
POINT
  5
2C7
330
2B7
100
AcDbEntity
  8
Defpoints
 62
     0
100
AcDbPoint
 10
247.3735875472758
 20
68.51066463613694
 30
0.0
 50
0.0
  0
POINT
  5
2C8
330
2B7
100
AcDbEntity
  8
Defpoints
 62
     0
100
AcDbPoint
 10
235.3735875472757
 20
68.51066463613692
 30
0.0
 50
0.0
  0
ENDBLK
  5
2C0
330
2B7
100
AcDbEntity
  8
0
100
AcDbBlockEnd
  0
BLOCK
  5
2D2
330
2CB
100
AcDbEntity
  8
0
100
AcDbBlockBegin
  2
*D19
 70
     1
 10
0.0
 20
0.0
 30
0.0
  3
*D19
  1

  0
LINE
  5
2D5
330
2CB
100
AcDbEntity
  8
文本层
370
    -2
 62
     0
100
AcDbLine
 10
205.3818140458059
 20
38.07200902393031
 30
0.0
 11
217.3401473791393
 21
38.07200902393031
 31
0.0
  0
LINE
  5
2D6
330
2CB
100
AcDbEntity
  8
文本层
370
    -2
 62
     0
100
AcDbLine
 10
217.3401473791393
 20
38.07200902393031
 30
0.0
 11
224.5431358503511
 21
57.07752936842098
 31
0.0
  0
MTEXT
  5
2D7
330
2CB
100
AcDbEntity
  8
文本层
 62
     0
100
AcDbMText
 10
211.0484807124726
 20
41.19700902393031
 30
0.0
210
0.0
220
0.0
230
1.0
 11
1.0
 21
0.0
 31
0.0
 40
5.0
 41
0.0
 71
     5
 72
     1
  1
R7.5
  7
数字与字母
 73
     1
 44
1.0
  0
SOLID
  5
2D8
330
2CB
100
AcDbEntity
  8
文本层
 62
     0
100
AcDbTrace
 38
0.0
 10
223.9976635252635
 20
57.28426040223398
 11
225.0886081754386
 21
56.87079833460798
 12
225.7835220532291
 22
60.35036331894611
 13
225.7835220532291
 23
60.35036331894611
  0
POINT
  5
2D9
330
2CB
100
AcDbEntity
  8
Defpoints
 62
     0
100
AcDbPoint
 10
225.7835220532291
 20
60.35036331894611
 30
0.0
 50
0.0
  0
POINT
  5
2DA
330
2CB
100
AcDbEntity
  8
Defpoints
 62
     0
100
AcDbPoint
 10
223.1255516184906
 20
53.33714771067825
 30
0.0
 50
0.0
  0
ENDBLK
  5
2D3
330
2CB
100
AcDbEntity
  8
0
100
AcDbBlockEnd
  0
BLOCK
  5
2E7
330
2DD
100
AcDbEntity
  8
0
100
AcDbBlockBegin
  2
*D20
 70
     1
 10
0.0
 20
0.0
 30
0.0
  3
*D20
  1

  0
LINE
  5
2EA
330
2DD
100
AcDbEntity
  8
文本层
370
    -2
 62
     0
100
AcDbLine
 10
33.08127942115465
 20
112.0731104766509
 30
0.0
 11
27.27866988251981
 21
112.0731104766509
 31
0.0
  0
LINE
  5
2EB
330
2DD
100
AcDbEntity
  8
文本层
370
    -2
 62
     0
100
AcDbLine
 10
33.08127942115465
 20
97.07311047665088
 30
0.0
 11
27.27866988251981
 21
97.0731104766509
 31
0.0
  0
LINE
  5
2EC
330
2DD
100
AcDbEntity
  8
文本层
370
    -2
 62
     0
100
AcDbLine
 10
29.77866988251981
 20
108.5731104766509
 30
0.0
 11
29.77866988251981
 21
100.5731104766509
 31
0.0
  0
SOLID
  5
2ED
330
2DD
100
AcDbEntity
  8
文本层
 62
     0
100
AcDbTrace
 38
0.0
 10
29.19533654918648
 20
108.5731104766509
 11
30.36200321585314
 21
108.5731104766509
 12
29.77866988251981
 22
112.0731104766509
 13
29.77866988251981
 23
112.0731104766509
  0
SOLID
  5
2EE
330
2DD
100
AcDbEntity
  8
文本层
 62
     0
100
AcDbTrace
 38
0.0
 10
29.19533654918648
 20
100.5731104766509
 11
30.36200321585314
 21
100.5731104766509
 12
29.77866988251981
 22
97.0731104766509
 13
29.77866988251981
 23
97.0731104766509
  0
MTEXT
  5
2EF
330
2DD
100
AcDbEntity
  8
文本层
 62
     0
100
AcDbMText
 10
26.65366988251979
 20
104.5731104766509
 30
0.0
210
0.0
220
0.0
230
1.0
 11
6.123031769111886E-17
 21
1.0
 31
0.0
 40
5.0
 41
0.0
 71
     5
 72
     1
  1
15
  7
数字与字母
 73
     1
 44
1.0
  0
POINT
  5
2F0
330
2DD
100
AcDbEntity
  8
Defpoints
 62
     0
100
AcDbPoint
 10
33.08127942115465
 20
112.0731104766509
 30
0.0
 50
0.0
  0
POINT
  5
2F1
330
2DD
100
AcDbEntity
  8
Defpoints
 62
     0
100
AcDbPoint
 10
33.08127942115465
 20
97.07311047665088
 30
0.0
 50
0.0
  0
POINT
  5
2F2
330
2DD
100
AcDbEntity
  8
Defpoints
 62
     0
100
AcDbPoint
 10
29.77866988251981
 20
97.0731104766509
 30
0.0
 50
0.0
  0
ENDBLK
  5
2E8
330
2DD
100
AcDbEntity
  8
0
100
AcDbBlockEnd
  0
ENDSEC
  0
SECTION
  2
ENTITIES
  0
CIRCLE
  5
A9
330
1F
100
AcDbEntity
  8
轮廓线
100
AcDbCircle
 10
199.3111417067619
 20
104.5731104766509
 30
0.0
 40
7.5
  0
CIRCLE
  5
AA
330
1F
100
AcDbEntity
  8
轮廓线
370
    -3
100
AcDbCircle
 10
199.3111417067619
 20
104.5731104766509
 30
0.0
 40
9.0
  0
CIRCLE
  5
AB
330
1F
100
AcDbEntity
  8
轮廓线
100
AcDbCircle
 10
199.3111417067619
 20
104.5731104766509
 30
0.0
 40
15.0
  0
CIRCLE
  5
AC
330
1F
100
AcDbEntity
  8
轮廓线
100
AcDbCircle
 10
199.3111417067619
 20
104.5731104766509
 30
0.0
 40
19.5
  0
CIRCLE
  5
AD
330
1F
100
AcDbEntity
  8
轮廓线
100
AcDbCircle
 10
199.3111417067619
 20
104.5731104766509
 30
0.0
 40
27.0
  0
CIRCLE
  5
AE
330
1F
100
AcDbEntity
  8
轮廓线
100
AcDbCircle
 10
199.3111417067619
 20
104.5731104766509
 30
0.0
 40
30.0
  0
ARC
  5
AF
330
1F
100
AcDbEntity
  8
轮廓线
100
AcDbCircle
 10
199.3111417067619
 20
104.5731104766509
 30
0.0
 40
49.0
100
AcDbArc
 50
155.0710552788674
 51
204.9289447211324
  0
CIRCLE
  5
B0
102
{ACAD_REACTORS
330
2A1
102
}
330
1F
100
AcDbEntity
  8
点划线
100
AcDbCircle
 10
199.3111417067619
 20
104.5731104766509
 30
0.0
 40
51.0
  0
CIRCLE
  5
B1
330
1F
100
AcDbEntity
  8
轮廓线
100
AcDbCircle
 10
235.3735875472758
 20
68.51066463613694
 30
0.0
 40
5.2
  0
CIRCLE
  5
B2
102
{ACAD_REACTORS
330
2C9
102
}
330
1F
100
AcDbEntity
  8
轮廓线
100
AcDbCircle
 10
235.3735875472758
 20
68.51066463613694
 30
0.0
 40
12.0
  0
ARC
  5
B3
102
{ACAD_REACTORS
330
2DB
102
}
330
1F
100
AcDbEntity
  8
轮廓线
100
AcDbCircle
 10
223.1255516184906
 20
53.33714771067801
 30
0.0
 40
7.5
100
AcDbArc
 50
51.08959285134103
 51
114.9289447211324
  0
ARC
  5
B4
330
1F
100
AcDbEntity
  8
轮廓线
100
AcDbCircle
 10
250.5471044727347
 20
80.75870056492207
 30
0.0
 40
7.5
100
AcDbArc
 50
155.0710552788675
 51
218.9104071486588
  0
ARC
  5
B5
330
1F
100
AcDbEntity
  8
轮廓线
100
AcDbCircle
 10
223.1255516184906
 20
155.8090732426236
 30
0.0
 40
7.5
100
AcDbArc
 50
245.0710552788676
 51
308.9104071486589
  0
CIRCLE
  5
B6
330
1F
100
AcDbEntity
  8
轮廓线
100
AcDbCircle
 10
235.3735875472758
 20
140.6355563171647
 30
0.0
 40
12.0
  0
CIRCLE
  5
B7
102
{ACAD_REACTORS
330
2B5
102
}
330
1F
100
AcDbEntity
  8
轮廓线
100
AcDbCircle
 10
235.3735875472758
 20
140.6355563171647
 30
0.0
 40
5.2
  0
ARC
  5
B8
330
1F
100
AcDbEntity
  8
轮廓线
100
AcDbCircle
 10
250.5471044727347
 20
128.3875203883796
 30
0.0
 40
7.5
100
AcDbArc
 50
141.0895928513411
 51
204.9289447211326
  0
ARC
  5
B9
330
1F
100
AcDbEntity
  8
轮廓线
100
AcDbCircle
 10
148.0751789407891
 20
128.3875203883797
 30
0.0
 40
7.5
100
AcDbArc
 50
335.0710552788674
 51
38.910407148659
  0
CIRCLE
  5
BA
330
1F
100
AcDbEntity
  8
轮廓线
100
AcDbCircle
 10
163.248695866248
 20
140.6355563171648
 30
0.0
 40
12.0
  0
CIRCLE
  5
BB
330
1F
100
AcDbEntity
  8
轮廓线
100
AcDbCircle
 10
163.248695866248
 20
140.6355563171648
 30
0.0
 40
5.2
  0
ARC
  5
BC
330
1F
100
AcDbEntity
  8
轮廓线
100
AcDbCircle
 10
175.4967317950332
 20
155.8090732426237
 30
0.0
 40
7.5
100
AcDbArc
 50
231.0895928513411
 51
294.9289447211324
  0
ARC
  5
BD
330
1F
100
AcDbEntity
  8
轮廓线
100
AcDbCircle
 10
175.496731795033
 20
53.33714771067805
 30
0.0
 40
7.5
100
AcDbArc
 50
65.07105527886759
 51
128.9104071486588
  0
CIRCLE
  5
BE
330
1F
100
AcDbEntity
  8
轮廓线
100
AcDbCircle
 10
163.2486958662479
 20
68.51066463613699
 30
0.0
 40
12.0
  0
CIRCLE
  5
BF
330
1F
100
AcDbEntity
  8
轮廓线
100
AcDbCircle
 10
163.2486958662479
 20
68.51066463613699
 30
0.0
 40
5.2
  0
ARC
  5
C0
330
1F
100
AcDbEntity
  8
轮廓线
100
AcDbCircle
 10
148.075178940789
 20
80.75870056492215
 30
0.0
 40
7.5
100
AcDbArc
 50
321.0895928513411
 51
24.92894472113234
  0
ARC
  5
C1
330
1F
100
AcDbEntity
  8
轮廓线
100
AcDbCircle
 10
199.3111417067619
 20
104.5731104766509
 30
0.0
 40
49.0
100
AcDbArc
 50
65.0710552788675
 51
114.9289447211325
  0
ARC
  5
C2
330
1F
100
AcDbEntity
  8
轮廓线
100
AcDbCircle
 10
199.3111417067619
 20
104.5731104766509
 30
0.0
 40
49.0
100
AcDbArc
 50
335.0710552788674
 51
24.92894472113248
  0
ARC
  5
C3
330
1F
100
AcDbEntity
  8
轮廓线
100
AcDbCircle
 10
199.3111417067619
 20
104.5731104766509
 30
0.0
 40
49.0
100
AcDbArc
 50
245.0710552788674
 51
294.9289447211325
  0
LINE
  5
C4
330
1F
100
AcDbEntity
  8
点划线
100
AcDbLine
 10
79.58127942115465
 20
104.5731104766509
 30
0.0
 11
-1.418720578845353
 21
104.5731104766509
 31
0.0
  0
LINE
  5
C5
330
1F
100
AcDbEntity
  8
点划线
100
AcDbLine
 10
199.3111417067619
 20
47.57311047665087
 30
0.0
 11
199.3111417067619
 21
161.5731104766509
 31
0.0
  0
LWPOLYLINE
  5
CC
102
{ACAD_REACTORS
330
120
330
209
330
257
330
269
102
}
330
1F
100
AcDbEntity
  8
轮廓线
100
AcDbPolyline
 90
        6
 70
     0
 43
0.0
 10
73.58127942115465
 20
134.5731104766509
 42
0.0
 10
73.58127942115465
 20
148.5731104766509
 42
0.0
 10
64.58127942115465
 20
148.5731104766509
 42
0.0
 10
64.58127942115465
 20
145.0731104766509
 42
-0.4142135623730952
 10
61.58127942115465
 20
142.0731104766509
 42
0.0
 10
46.58127942115465
 20
142.0731104766509
 42
0.0
  0
LINE
  5
CD
102
{ACAD_REACTORS
330
120
102
}
330
1F
100
AcDbEntity
  8
轮廓线
100
AcDbLine
 10
4.581279421154647
 20
104.5731104766509
 30
0.0
 11
4.581279421154647
 21
124.0731104766509
 31
0.0
  0
LINE
  5
CE
102
{ACAD_REACTORS
330
120
330
155
102
}
330
1F
100
AcDbEntity
  8
轮廓线
100
AcDbLine
 10
4.581279421154647
 20
124.0731104766509
 30
0.0
 11
10.58127942115465
 21
124.0731104766509
 31
0.0
  0
LINE
  5
CF
102
{ACAD_REACTORS
330
120
330
13D
102
}
330
1F
100
AcDbEntity
  8
轮廓线
100
AcDbLine
 10
10.58127942115465
 20
124.0731104766509
 30
0.0
 11
10.58127942115465
 21
119.5731104766509
 31
0.0
  0
LINE
  5
D0
102
{ACAD_REACTORS
330
120
102
}
330
1F
100
AcDbEntity
  8
轮廓线
100
AcDbLine
 10
10.58127942115465
 20
119.5731104766509
 30
0.0
 11
16.58127942115465
 21
119.5731104766509
 31
0.0
  0
LINE
  5
D1
102
{ACAD_REACTORS
330
120
102
}
330
1F
100
AcDbEntity
  8
轮廓线
100
AcDbLine
 10
16.58127942115465
 20
119.5731104766509
 30
0.0
 11
16.58127942115465
 21
124.0731104766509
 31
0.0
  0
LINE
  5
D2
102
{ACAD_REACTORS
330
120
102
}
330
1F
100
AcDbEntity
  8
轮廓线
100
AcDbLine
 10
16.58127942115465
 20
124.0731104766509
 30
0.0
 11
22.58127942115465
 21
124.0731104766509
 31
0.0
  0
LINE
  5
D3
102
{ACAD_REACTORS
330
120
330
16D
102
}
330
1F
100
AcDbEntity
  8
轮廓线
100
AcDbLine
 10
22.58127942115465
 20
124.0731104766509
 30
0.0
 11
22.58127942115465
 21
131.5731104766509
 31
0.0
  0
LINE
  5
D4
102
{ACAD_REACTORS
330
120
102
}
330
1F
100
AcDbEntity
  8
轮廓线
100
AcDbLine
 10
22.58127942115465
 20
131.5731104766509
 30
0.0
 11
25.71821124920108
 21
131.5731104766509
 31
0.0
  0
LINE
  5
D5
330
1F
100
AcDbEntity
  8
轮廓线
100
AcDbLine
 10
73.58127942115465
 20
104.5731104766509
 30
0.0
 11
73.58127942115465
 21
134.5731104766509
 31
0.0
  0
LINE
  5
D6
102
{ACAD_REACTORS
330
120
330
227
330
23F
102
}
330
1F
100
AcDbEntity
  8
轮廓线
100
AcDbLine
 10
73.58127942115465
 20
134.5731104766509
 30
0.0
 11
42.08127942115465
 21
134.5731104766509
 31
0.0
  0
ARC
  5
D7
102
{ACAD_REACTORS
330
120
330
28D
102
}
330
1F
100
AcDbEntity
  8
轮廓线
100
AcDbCircle
 10
42.08127942115465
 20
127.0731104766509
 30
0.0
 40
7.5
100
AcDbArc
 50
90.0
 51
180.0
  0
LINE
  5
D8
102
{ACAD_REACTORS
330
120
102
}
330
1F
100
AcDbEntity
  8
轮廓线
100
AcDbLine
 10
34.58127942115465
 20
127.0731104766509
 30
0.0
 11
34.58127942115465
 21
104.5731104766509
 31
0.0
  0
ARC
  5
D9
102
{ACAD_REACTORS
330
120
102
}
330
1F
100
AcDbEntity
  8
轮廓线
100
AcDbCircle
 10
42.08127942115465
 20
127.0731104766509
 30
0.0
 40
15.0
100
AcDbArc
 50
90.0
 51
155.3756816478359
  0
ARC
  5
DA
102
{ACAD_REACTORS
330
120
330
27B
102
}
330
1F
100
AcDbEntity
  8
轮廓线
100
AcDbCircle
 10
25.71821124920108
 20
134.5731104766509
 30
0.0
 40
3.0
100
AcDbArc
 50
270.0
 51
335.375681647836
  0
LINE
  5
DB
102
{ACAD_REACTORS
330
2F7
102
}
330
1F
100
AcDbEntity
  8
轮廓线
100
AcDbLine
 10
33.08127942115466
 20
112.0731104766509
 30
0.0
 11
6.081279421154643
 21
112.0731104766509
 31
0.0
  0
LINE
  5
DC
102
{ACAD_REACTORS
330
120
102
}
330
1F
100
AcDbEntity
  8
轮廓线
370
    -3
100
AcDbLine
 10
34.58127942115465
 20
113.5731104766509
 30
0.0
 11
4.581279421154651
 21
113.5731104766509
 31
0.0
  0
LINE
  5
DD
102
{ACAD_REACTORS
330
120
102
}
330
1F
100
AcDbEntity
  8
轮廓线
100
AcDbLine
 10
46.58127942115465
 20
142.0731104766509
 30
0.0
 11
42.08127942115465
 21
142.0731104766509
 31
0.0
  0
LINE
  5
DE
102
{ACAD_REACTORS
330
2F3
102
}
330
1F
100
AcDbEntity
  8
轮廓线
100
AcDbLine
 10
33.08127942115465
 20
112.0731104766509
 30
0.0
 11
34.58127942115465
 21
113.5731104766509
 31
0.0
  0
LINE
  5
DF
330
1F
100
AcDbEntity
  8
轮廓线
100
AcDbLine
 10
6.081279421154647
 20
112.0731104766509
 30
0.0
 11
4.581279421154647
 21
113.5731104766509
 31
0.0
  0
LINE
  5
E0
330
1F
100
AcDbEntity
  8
轮廓线
100
AcDbLine
 10
6.081279421154643
 20
112.0731104766509
 30
0.0
 11
6.081279421154647
 21
104.5731104766509
 31
0.0
  0
LINE
  5
E1
330
1F
100
AcDbEntity
  8
轮廓线
100
AcDbLine
 10
33.08127942115466
 20
112.0731104766509
 30
0.0
 11
33.08127942115468
 21
104.5731104766509
 31
0.0
  0
LINE
  5
E2
102
{ACAD_REACTORS
330
120
102
}
330
1F
100
AcDbEntity
  8
轮廓线
100
AcDbLine
 10
73.58127942115465
 20
74.57311047665087
 30
0.0
 11
42.08127942115465
 21
74.57311047665087
 31
0.0
  0
LWPOLYLINE
  5
E3
102
{ACAD_REACTORS
330
120
330
1F1
102
}
330
1F
100
AcDbEntity
  8
轮廓线
100
AcDbPolyline
 90
        6
 70
     0
 43
0.0
 10
73.58127942115465
 20
74.57311047665087
 42
0.0
 10
73.58127942115465
 20
60.57311047665087
 42
0.0
 10
64.58127942115465
 20
60.57311047665087
 42
0.0
 10
64.58127942115465
 20
64.07311047665087
 42
0.4142135623730952
 10
61.58127942115465
 20
67.07311047665087
 42
0.0
 10
46.58127942115465
 20
67.07311047665087
 42
0.0
  0
LINE
  5
E4
102
{ACAD_REACTORS
330
120
330
1D9
102
}
330
1F
100
AcDbEntity
  8
轮廓线
370
    -3
100
AcDbLine
 10
34.58127942115465
 20
95.57311047665087
 30
0.0
 11
4.581279421154651
 21
95.57311047665087
 31
0.0
  0
LINE
  5
E5
330
1F
100
AcDbEntity
  8
轮廓线
100
AcDbLine
 10
33.08127942115466
 20
97.07311047665088
 30
0.0
 11
6.081279421154643
 21
97.07311047665087
 31
0.0
  0
LINE
  5
E6
102
{ACAD_REACTORS
330
120
330
189
330
1A5
102
}
330
1F
100
AcDbEntity
  8
轮廓线
100
AcDbLine
 10
4.581279421154647
 20
85.07311047665087
 30
0.0
 11
10.58127942115465
 21
85.07311047665087
 31
0.0
  0
LINE
  5
E7
102
{ACAD_REACTORS
330
120
330
155
102
}
330
1F
100
AcDbEntity
  8
轮廓线
100
AcDbLine
 10
4.581279421154647
 20
104.5731104766509
 30
0.0
 11
4.581279421154647
 21
85.07311047665087
 31
0.0
  0
LINE
  5
E8
330
1F
100
AcDbEntity
  8
轮廓线
100
AcDbLine
 10
6.081279421154643
 20
97.07311047665087
 30
0.0
 11
6.081279421154647
 21
104.5731104766509
 31
0.0
  0
LINE
  5
E9
330
1F
100
AcDbEntity
  8
轮廓线
100
AcDbLine
 10
6.081279421154647
 20
97.07311047665087
 30
0.0
 11
4.581279421154647
 21
95.57311047665087
 31
0.0
  0
ARC
  5
EA
102
{ACAD_REACTORS
330
120
102
}
330
1F
100
AcDbEntity
  8
轮廓线
100
AcDbCircle
 10
25.71821124920108
 20
74.57311047665087
 30
0.0
 40
3.0
100
AcDbArc
 50
24.62431835216408
 51
90.00000000000001
  0
ARC
  5
EB
102
{ACAD_REACTORS
330
120
102
}
330
1F
100
AcDbEntity
  8
轮廓线
100
AcDbCircle
 10
42.08127942115465
 20
82.07311047665087
 30
0.0
 40
7.5
100
AcDbArc
 50
180.0
 51
270.0
  0
LINE
  5
EC
102
{ACAD_REACTORS
330
120
330
16D
330
1C1
102
}
330
1F
100
AcDbEntity
  8
轮廓线
100
AcDbLine
 10
22.58127942115465
 20
85.07311047665087
 30
0.0
 11
22.58127942115465
 21
77.57311047665087
 31
0.0
  0
LINE
  5
ED
102
{ACAD_REACTORS
330
120
330
1A5
330
1C1
102
}
330
1F
100
AcDbEntity
  8
轮廓线
100
AcDbLine
 10
16.58127942115465
 20
85.07311047665087
 30
0.0
 11
22.58127942115465
 21
85.07311047665087
 31
0.0
  0
LINE
  5
EE
102
{ACAD_REACTORS
330
120
102
}
330
1F
100
AcDbEntity
  8
轮廓线
100
AcDbLine
 10
16.58127942115465
 20
89.57311047665087
 30
0.0
 11
16.58127942115465
 21
85.07311047665087
 31
0.0
  0
LINE
  5
EF
102
{ACAD_REACTORS
330
120
102
}
330
1F
100
AcDbEntity
  8
轮廓线
100
AcDbLine
 10
10.58127942115465
 20
85.07311047665087
 30
0.0
 11
10.58127942115465
 21
89.57311047665087
 31
0.0
  0
LINE
  5
F0
102
{ACAD_REACTORS
330
120
330
13D
102
}
330
1F
100
AcDbEntity
  8
轮廓线
100
AcDbLine
 10
10.58127942115465
 20
89.57311047665087
 30
0.0
 11
16.58127942115465
 21
89.57311047665087
 31
0.0
  0
LINE
  5
F1
102
{ACAD_REACTORS
330
120
102
}
330
1F
100
AcDbEntity
  8
轮廓线
100
AcDbLine
 10
34.58127942115465
 20
82.07311047665087
 30
0.0
 11
34.58127942115465
 21
104.5731104766509
 31
0.0
  0
LINE
  5
F2
330
1F
100
AcDbEntity
  8
轮廓线
100
AcDbLine
 10
33.08127942115466
 20
97.07311047665088
 30
0.0
 11
33.08127942115468
 21
104.5731104766509
 31
0.0
  0
LINE
  5
F3
102
{ACAD_REACTORS
330
1D9
330
2F3
102
}
330
1F
100
AcDbEntity
  8
轮廓线
100
AcDbLine
 10
33.08127942115465
 20
97.07311047665088
 30
0.0
 11
34.58127942115465
 21
95.57311047665088
 31
0.0
  0
ARC
  5
F4
102
{ACAD_REACTORS
330
120
102
}
330
1F
100
AcDbEntity
  8
轮廓线
100
AcDbCircle
 10
42.08127942115465
 20
82.07311047665087
 30
0.0
 40
15.0
100
AcDbArc
 50
204.6243183521641
 51
270.0
  0
LINE
  5
F5
102
{ACAD_REACTORS
330
120
102
}
330
1F
100
AcDbEntity
  8
轮廓线
100
AcDbLine
 10
22.58127942115465
 20
77.57311047665087
 30
0.0
 11
25.71821124920108
 21
77.57311047665087
 31
0.0
  0
LINE
  5
F6
102
{ACAD_REACTORS
330
120
102
}
330
1F
100
AcDbEntity
  8
轮廓线
100
AcDbLine
 10
46.58127942115465
 20
67.07311047665087
 30
0.0
 11
42.08127942115465
 21
67.07311047665087
 31
0.0
  0
LINE
  5
F7
102
{ACAD_REACTORS
330
23F
102
}
330
1F
100
AcDbEntity
  8
轮廓线
100
AcDbLine
 10
73.58127942115465
 20
104.5731104766509
 30
0.0
 11
73.58127942115465
 21
74.57311047665087
 31
0.0
  0
HATCH
  5
120
330
1F
100
AcDbEntity
  8
剖面线
100
AcDbHatch
 10
0.0
 20
0.0
 30
0.0
210
0.0
220
0.0
230
1.0
  2
ANSI31
 70
     0
 71
     1
 91
        2
 92
        7
 72
     1
 73
     1
 93
       20
 10
42.08127942115465
 20
134.5731104766509
 42
0.0
 10
73.58127942115465
 20
134.5731104766509
 42
0.0
 10
73.58127942115463
 20
148.5731104766509
 42
0.0
 10
64.58127942115465
 20
148.5731104766509
 42
0.0
 10
64.58127942115465
 20
145.0731104766509
 42
-0.4142135623730952
 10
61.58127942115465
 20
142.0731104766509
 42
0.0
 10
46.58127942115465
 20
142.0731104766509
 42
0.0
 10
42.08127942115465
 20
142.0731104766509
 42
0.2932527545971437
 10
28.44538927786
 20
133.3231104766509
 42
-0.2932527545971438
 10
25.71821124920107
 20
131.5731104766509
 42
0.0
 10
22.58127942115465
 20
131.5731104766509
 42
0.0
 10
22.58127942115465
 20
124.0731104766509
 42
0.0
 10
16.58127942115465
 20
124.0731104766509
 42
0.0
 10
16.58127942115465
 20
119.5731104766509
 42
0.0
 10
10.58127942115465
 20
119.5731104766509
 42
0.0
 10
10.58127942115465
 20
124.0731104766509
 42
0.0
 10
4.581279421154648
 20
124.0731104766509
 42
0.0
 10
4.581279421154648
 20
113.5731104766509
 42
0.0
 10
34.58127942115465
 20
113.5731104766509
 42
0.0
 10
34.58127942115465
 20
127.0731104766509
 42
-0.4142135623730951
 97
       16
330
D6
330
CC
330
DD
330
D9
330
DA
330
D4
330
D3
330
D2
330
D1
330
D0
330
CF
330
CE
330
CD
330
DC
330
D8
330
D7
 92
        7
 72
     1
 73
     1
 93
       20
 10
34.58127942115465
 20
95.57311047665087
 42
0.0
 10
4.581279421154647
 20
95.57311047665088
 42
0.0
 10
4.581279421154647
 20
85.07311047665087
 42
0.0
 10
10.58127942115465
 20
85.07311047665087
 42
0.0
 10
10.58127942115465
 20
89.57311047665087
 42
0.0
 10
16.58127942115465
 20
89.57311047665087
 42
0.0
 10
16.58127942115465
 20
85.07311047665087
 42
0.0
 10
22.58127942115465
 20
85.07311047665087
 42
0.0
 10
22.58127942115465
 20
77.57311047665087
 42
0.0
 10
25.71821124920108
 20
77.57311047665087
 42
-0.2932527545971436
 10
28.44538927786
 20
75.82311047665087
 42
0.2932527545971436
 10
42.08127942115465
 20
67.07311047665087
 42
0.0
 10
46.58127942115465
 20
67.07311047665087
 42
0.0
 10
61.58127942115465
 20
67.07311047665087
 42
-0.4142135623730952
 10
64.58127942115465
 20
64.07311047665087
 42
0.0
 10
64.58127942115465
 20
60.57311047665087
 42
0.0
 10
73.58127942115463
 20
60.57311047665087
 42
0.0
 10
73.58127942115465
 20
74.57311047665087
 42
0.0
 10
42.08127942115465
 20
74.57311047665087
 42
-0.4142135623730951
 10
34.58127942115465
 20
82.07311047665087
 42
0.0
 97
       16
330
E4
330
E7
330
E6
330
EF
330
F0
330
EE
330
ED
330
EC
330
F5
330
EA
330
F4
330
F6
330
E3
330
E2
330
EB
330
F1
 75
     0
 76
     1
 52
0.0
 41
1.0
 77
     0
 78
     1
 53
45.0
 43
0.0
 44
0.0
 45
-2.245064030267288
 46
2.245064030267288
 79
     0
 47
0.3125383830875467
 98
        2
 10
31.19792253339119
 20
130.655733290285
 10
29.19845223660957
 20
83.96719209027285
  0
LINE
  5
124
330
1F
100
AcDbEntity
  8
点划线
100
AcDbLine
 10
142.3111417067619
 20
104.5731104766509
 30
0.0
 11
256.3111417067619
 21
104.5731104766509
 31
0.0
  0
DIMENSION
  5
125
102
{ACAD_REACTORS
330
13D
102
}
102
{ACAD_XDICTIONARY
360
133
102
}
330
1F
100
AcDbEntity
  8
文本层
100
AcDbDimension
  2
*D1
 10
-5.333201769839095
 20
89.57311047665087
 30
0.0
 11
-8.458201769839107
 21
104.5731104766509
 31
0.0
 70
    32
 71
     5
 42
30.0
  3
机械标注
100
AcDbAlignedDimension
 13
10.58127942115465
 23
119.5731104766509
 33
0.0
 14
10.58127942115465
 24
89.57311047665087
 34
0.0
 52
0.0
 50
90.0
100
AcDbRotatedDimension
  0
DIMENSION
  5
13E
102
{ACAD_REACTORS
330
155
102
}
102
{ACAD_XDICTIONARY
360
14B
102
}
330
1F
100
AcDbEntity
  8
文本层
100
AcDbDimension
  2
*D2
 10
-15.8105795279173
 20
85.07311047665087
 30
0.0
 11
-18.93557952791731
 21
104.5731104766509
 31
0.0
 70
    32
 71
     5
 42
39.0
  3
机械标注
100
AcDbAlignedDimension
 13
4.581279421154647
 23
124.0731104766509
 33
0.0
 14
4.581279421154647
 24
85.07311047665087
 34
0.0
 52
0.0
 50
90.0
100
AcDbRotatedDimension
  0
DIMENSION
  5
156
102
{ACAD_REACTORS
330
16D
102
}
102
{ACAD_XDICTIONARY
360
163
102
}
330
1F
100
AcDbEntity
  8
文本层
100
AcDbDimension
  2
*D3
 10
-28.42427268055968
 20
77.57311047665087
 30
0.0
 11
-31.54927268055969
 21
104.5731104766509
 31
0.0
 70
    32
 71
     5
 42
54.0
  3
机械标注
100
AcDbAlignedDimension
 13
22.58127942115465
 23
131.5731104766509
 33
0.0
 14
22.58127942115465
 24
77.57311047665087
 34
0.0
 52
0.0
 50
90.0
100
AcDbRotatedDimension
  0
DIMENSION
  5
16E
102
{ACAD_REACTORS
330
189
102
}
102
{ACAD_XDICTIONARY
360
17D
102
}
330
1F
100
AcDbEntity
  8
文本层
100
AcDbDimension
  2
*D4
 10
10.58127942115465
 20
66.12244822947056
 30
0.0
 11
7.581279421154646
 21
69.24744822947056
 31
0.0
 70
    32
 71
     5
 42
6.0
  3
机械标注
100
AcDbAlignedDimension
 13
4.581279421154647
 23
85.07311047665087
 33
0.0
 14
10.58127942115465
 24
85.07311047665087
 34
0.0
 52
0.0
100
AcDbRotatedDimension
  0
DIMENSION
  5
18A
102
{ACAD_REACTORS
330
1A5
102
}
102
{ACAD_XDICTIONARY
360
199
102
}
330
1F
100
AcDbEntity
  8
文本层
100
AcDbDimension
  2
*D5
 10
16.58127942115465
 20
66.12244822947056
 30
0.0
 11
13.58127942115465
 21
69.24744822947056
 31
0.0
 70
    32
 71
     5
 42
6.0
  3
机械标注
100
AcDbAlignedDimension
 13
10.58127942115465
 23
85.07311047665087
 33
0.0
 14
16.58127942115465
 24
85.07311047665087
 34
0.0
 52
0.0
100
AcDbRotatedDimension
1001
ACAD
1000
DSTYLE
1002
{
1070
   279
1070
     1
1002
}
  0
DIMENSION
  5
1A6
102
{ACAD_REACTORS
330
1C1
102
}
102
{ACAD_XDICTIONARY
360
1B5
102
}
330
1F
100
AcDbEntity
  8
文本层
100
AcDbDimension
  2
*D6
 10
22.58127942115465
 20
66.12244822947056
 30
0.0
 11
19.58127942115465
 21
69.24744822947056
 31
0.0
 70
    32
 71
     5
 42
6.0
  3
机械标注
100
AcDbAlignedDimension
 13
16.58127942115465
 23
85.07311047665087
 33
0.0
 14
22.58127942115465
 24
85.07311047665087
 34
0.0
 52
0.0
100
AcDbRotatedDimension
1001
ACAD
1000
DSTYLE
1002
{
1070
   279
1070
     1
1002
}
  0
DIMENSION
  5
1C2
102
{ACAD_REACTORS
330
1D9
102
}
102
{ACAD_XDICTIONARY
360
1CF
102
}
330
1F
100
AcDbEntity
  8
文本层
100
AcDbDimension
  2
*D7
 10
73.58127942115465
 20
85.02523320270549
 30
0.0
 11
54.08127942115466
 21
88.15023320270549
 31
0.0
 70
    32
 71
     5
 42
38.99999999999998
  3
机械标注
100
AcDbAlignedDimension
 13
34.58127942115467
 23
95.57311047665087
 33
0.0
 14
73.58127942115465
 24
95.57311047665087
 34
0.0
 52
0.0
100
AcDbRotatedDimension
  0
DIMENSION
  5
1DA
102
{ACAD_REACTORS
330
1F1
102
}
102
{ACAD_XDICTIONARY
360
1E7
102
}
330
1F
100
AcDbEntity
  8
文本层
100
AcDbDimension
  2
*D8
 10
73.58127942115465
 20
47.42070506612637
 30
0.0
 11
39.08127942115465
 21
50.54570506612637
 31
0.0
 70
    32
 71
     5
 42
69.0
  3
机械标注
100
AcDbAlignedDimension
 13
4.581279421154647
 23
74.34777935306072
 33
0.0
 14
73.58127942115465
 24
60.57311047665087
 34
0.0
 52
0.0
100
AcDbRotatedDimension
  0
DIMENSION
  5
1F2
102
{ACAD_REACTORS
330
209
102
}
102
{ACAD_XDICTIONARY
360
1FF
102
}
330
1F
100
AcDbEntity
  8
文本层
100
AcDbDimension
  2
*D9
 10
73.58127942115465
 20
160.639479426481
 30
0.0
 11
69.08127942115465
 21
163.764479426481
 31
0.0
 70
    32
 71
     5
 42
9.0
  3
机械标注
100
AcDbAlignedDimension
 13
64.58127942115465
 23
148.5731104766509
 33
0.0
 14
73.58127942115465
 24
148.5731104766509
 34
0.0
 52
0.0
100
AcDbRotatedDimension
  0
DIMENSION
  5
20A
102
{ACAD_REACTORS
330
227
102
}
102
{ACAD_XDICTIONARY
360
21A
102
}
330
1F
100
AcDbEntity
  8
文本层
100
AcDbDimension
  2
*D10
 10
86.98793054467012
 20
134.5731104766509
 30
0.0
 11
82.61293054467011
 21
130.6981104766509
 31
0.0
 70
    32
 71
     5
 42
7.499999999999972
  3
机械标注
100
AcDbAlignedDimension
 13
56.76067732649392
 23
142.0731104766509
 33
0.0
 14
73.58127942115465
 24
134.5731104766509
 34
0.0
 52
0.0
 50
90.0
100
AcDbRotatedDimension
  0
DIMENSION
  5
228
102
{ACAD_REACTORS
330
23F
102
}
102
{ACAD_XDICTIONARY
360
235
102
}
330
1F
100
AcDbEntity
  8
文本层
100
AcDbDimension
  2
*D11
 10
95.89621234906178
 20
74.57311047665087
 30
0.0
 11
92.77121234906177
 21
104.5731104766509
 31
0.0
 70
    32
 71
     5
 42
60.00000000000001
  3
机械标注
100
AcDbAlignedDimension
 13
73.58127942115465
 23
134.5731104766509
 33
0.0
 14
73.58127942115465
 24
74.57311047665087
 34
0.0
 52
0.0
 50
90.0
100
AcDbRotatedDimension
  0
DIMENSION
  5
240
102
{ACAD_REACTORS
330
257
102
}
102
{ACAD_XDICTIONARY
360
24D
102
}
330
1F
100
AcDbEntity
  8
文本层
100
AcDbDimension
  2
*D12
 10
106.6916683837939
 20
60.57311047665086
 30
0.0
 11
103.5666683837938
 21
104.5731104766509
 31
0.0
 70
    32
  1
{\f仿宋_GB2312|b0|i0|c134|p49;98}
 71
     5
 42
88.00000000000001
  3
机械标注
100
AcDbAlignedDimension
 13
73.58127942115465
 23
148.5731104766509
 33
0.0
 14
73.58127942115465
 24
60.57311047665087
 34
0.0
 52
0.0
 50
90.0
100
AcDbRotatedDimension
  0
DIMENSION
  5
258
102
{ACAD_REACTORS
330
269
102
}
102
{ACAD_XDICTIONARY
360
262
102
}
330
1F
100
AcDbEntity
  8
文本层
100
AcDbDimension
  2
*D13
 10
61.58127942115462
 20
145.0731104766507
 30
0.0
 11
53.85788521039368
 21
150.2301827178068
 31
0.0
 70
   164
 71
     5
 42
2.999999999999915
  3
机械标注
100
AcDbRadialDimension
 15
64.07621560502548
 25
143.4071892785109
 35
0.0
 40
0.0
1001
ACAD
1000
DSTYLE
1002
{
1070
   279
1070
     1
1070
   288
1070
     1
1002
}
  0
DIMENSION
  5
26A
102
{ACAD_REACTORS
330
27B
102
}
102
{ACAD_XDICTIONARY
360
274
102
}
330
1F
100
AcDbEntity
  8
文本层
100
AcDbDimension
  2
*D14
 10
25.71821124920108
 20
134.573110476651
 30
0.0
 11
22.22294821190484
 21
142.8666704059039
 31
0.0
 70
   164
 71
     5
 42
3.000000000000114
  3
机械标注
100
AcDbRadialDimension
 15
26.88329892829988
 25
131.8085905002332
 35
0.0
 40
0.0
1001
ACAD
1000
DSTYLE
1002
{
1070
   279
1070
     1
1070
   288
1070
     1
1002
}
  0
DIMENSION
  5
27C
102
{ACAD_REACTORS
330
28D
102
}
102
{ACAD_XDICTIONARY
360
286
102
}
330
1F
100
AcDbEntity
  8
文本层
100
AcDbDimension
  2
*D15
 10
42.08127942115459
 20
127.0731104766509
 30
0.0
 11
53.30567662307408
 21
122.0939666813434
 31
0.0
 70
   164
 71
     5
 42
7.499999999999943
  3
机械标注
100
AcDbRadialDimension
 15
35.22554618139242
 25
130.1143144726399
 35
0.0
 40
0.0
1001
ACAD
1000
DSTYLE
1002
{
1070
   279
1070
     1
1070
   288
1070
     1
1002
}
  0
DIMENSION
  5
28E
102
{ACAD_REACTORS
330
2A1
102
}
102
{ACAD_XDICTIONARY
360
299
102
}
330
1F
100
AcDbEntity
  8
文本层
100
AcDbDimension
  2
*D16
 10
199.3111417067621
 20
104.5731104766509
 30
0.0
 11
143.2852131921461
 21
155.8035039580634
 31
0.0
 70
   164
 71
     5
 42
51.00000000000013
  3
机械标注
100
AcDbRadialDimension
 15
163.3948673233029
 25
140.781137686264
 35
0.0
 40
0.0
1001
ACAD
1000
DSTYLE
1002
{
1070
   288
1070
     1
1002
}
  0
DIMENSION
  5
2A2
102
{ACAD_REACTORS
330
2B5
102
}
102
{ACAD_XDICTIONARY
360
2AD
102
}
330
1F
100
AcDbEntity
  8
文本层
100
AcDbDimension
  2
*D17
 10
235.3735875472755
 20
140.6355563171647
 30
0.0
 11
257.8563963347035
 21
158.2339241843214
 31
0.0
 70
   164
 71
     5
 42
5.200000000000216
  3
机械标注
100
AcDbRadialDimension
 15
238.8943573133409
 25
144.4623278356071
 35
0.0
 40
0.0
1001
ACAD
1000
DSTYLE
1002
{
1070
   288
1070
     1
1002
}
  0
DIMENSION
  5
2B6
102
{ACAD_REACTORS
330
2C9
102
}
102
{ACAD_XDICTIONARY
360
2C1
102
}
330
1F
100
AcDbEntity
  8
文本层
100
AcDbDimension
  2
*D18
 10
235.3735875472757
 20
68.51066463613692
 30
0.0
 11
259.7485875472758
 21
71.63566463613694
 31
0.0
 70
    36
 71
     5
 42
12.00000000000011
  3
机械标注
100
AcDbRadialDimension
 15
247.3735875472758
 25
68.51066463613694
 35
0.0
 40
0.0
1001
ACAD
1000
DSTYLE
1002
{
1070
   288
1070
     1
1002
}
  0
DIMENSION
  5
2CA
102
{ACAD_REACTORS
330
2DB
102
}
102
{ACAD_XDICTIONARY
360
2D4
102
}
330
1F
100
AcDbEntity
  8
文本层
100
AcDbDimension
  2
*D19
 10
223.1255516184906
 20
53.33714771067825
 30
0.0
 11
217.3401473791393
 21
38.07200902393031
 31
0.0
 70
   164
 71
     5
 42
7.499999999999716
  3
机械标注
100
AcDbRadialDimension
 15
225.7835220532291
 25
60.35036331894611
 35
0.0
 40
0.0
1001
ACAD
1000
DSTYLE
1002
{
1070
   279
1070
     1
1070
   288
1070
     1
1002
}
  0
DIMENSION
  5
2DC
102
{ACAD_REACTORS
330
2F3
102
}
102
{ACAD_XDICTIONARY
360
2E9
102
}
330
1F
100
AcDbEntity
  8
文本层
100
AcDbDimension
  2
*D20
 10
29.77866988251981
 20
97.0731104766509
 30
0.0
 11
26.65366988251979
 21
104.5731104766509
 31
0.0
 70
    32
 71
     5
 42
14.99999999999997
  3
机械标注
100
AcDbAlignedDimension
 13
33.08127942115465
 23
112.0731104766509
 33
0.0
 14
33.08127942115465
 24
97.07311047665088
 34
0.0
 52
0.0
 50
90.0
100
AcDbRotatedDimension
  0
LEADER
  5
2F4
102
{ACAD_REACTORS
330
2F7
102
}
102
{ACAD_XDICTIONARY
360
2F6
102
}
330
1F
100
AcDbEntity
  8
文本层
100
AcDbLeader
  3
机械标注
 71
     1
 73
     0
 72
     0
 40
5.000000000000001
 41
11.0
 76
     3
 10
6.081279421154643
 20
112.0731104766509
 30
0.0
 10
8.823078020640594
 20
107.32417599822
 30
0.0
 10
10.9647321168834
 20
107.32417599822
 30
0.0
210
0.0
220
0.0
230
1.0
211
1.0
221
0.0
231
0.0
212
0.0
222
0.0
232
0.0
213
0.0
223
-2.5
233
0.0
340
2F5
1001
ACAD
1000
DSTYLE
1002
{
1070
   147
1040
0.625
1070
    77
1070
     0
1002
}
  0
MTEXT
  5
2F5
102
{ACAD_REACTORS
330
2F4
102
}
330
1F
100
AcDbEntity
  8
文本层
100
AcDbMText
 10
11.5897321168834
 20
109.82417599822
 30
0.0
210
0.0
220
0.0
230
1.0
 11
1.0
 21
0.0
 31
0.0
 40
5.0
 41
3.5
 71
     1
 72
     1
  1
C1.5
  7
数字与字母
 73
     1
 44
1.0
  0
VIEWPORT
  5
305
330
5E
100
AcDbEntity
 67
     1
  8
0
100
AcDbViewport
 10
133.3499908447266
 20
101.5999970436096
 30
0.0
 40
420.6540395483951
 41
228.4221935424805
 68
     1
 69
     1
 12
133.3499908447266
 22
101.5999970436096
 13
0.0
 23
0.0
 14
10.0
 24
10.0
 15
10.0
 25
10.0
 16
0.0
 26
0.0
 36
1.0
 17
0.0
 27
0.0
 37
0.0
 42
50.0
 43
0.0
 44
0.0
 45
228.4221935424805
 50
0.0
 51
0.0
 72
   100
 90
    32800
  1

281
     0
 71
     1
 74
     0
110
0.0
120
0.0
130
0.0
111
1.0
121
0.0
131
0.0
112
0.0
122
1.0
132
0.0
 79
     0
146
0.0
348
0
340
0
345
0
346
0
  0
VIEWPORT
  5
307
330
5E
100
AcDbEntity
 67
     1
  8
文本层
100
AcDbViewport
 10
133.3499939441681
 20
101.5999939441681
 30
0.0
 40
213.3599903106689
 41
162.5599903106689
 68
     1
 69
     2
 12
115.2246574333582
 22
102.0761977683355
 13
0.0
 23
0.0
 14
10.0
 24
10.0
 15
10.0
 25
10.0
 16
0.0
 26
0.0
 36
1.0
 17
0.0
 27
0.0
 37
0.0
 42
50.0
 43
0.0
 44
0.0
 45
230.4844804784894
 50
0.0
 51
0.0
 72
   100
 90
    32864
  1

281
     0
 71
     1
 74
     0
110
0.0
120
0.0
130
0.0
111
1.0
121
0.0
131
0.0
112
0.0
122
1.0
132
0.0
 79
     0
146
0.0
348
0
340
0
345
0
346
0
  0
ENDSEC
  0
SECTION
  2
OBJECTS
  0
DICTIONARY
  5
C
330
0
100
AcDbDictionary
281
     1
  3
ACAD_GROUP
350
D
  3
ACAD_LAYOUT
350
1A
  3
ACAD_MLINESTYLE
350
17
  3
ACAD_PLOTSETTINGS
350
19
  3
ACAD_PLOTSTYLENAME
350
E
  3
AcDbVariableDictionary
350
67
  0
DICTIONARY
  5
D
102
{ACAD_REACTORS
330
C
102
}
330
C
100
AcDbDictionary
281
     1
  0
ACDBDICTIONARYWDFLT
  5
E
102
{ACAD_REACTORS
330
C
102
}
330
C
100
AcDbDictionary
281
     1
  3
Normal
350
F
100
AcDbDictionaryWithDefault
340
F
  0
ACDBPLACEHOLDER
  5
F
102
{ACAD_REACTORS
330
E
102
}
330
E
  0
DICTIONARY
  5
17
102
{ACAD_REACTORS
330
C
102
}
330
C
100
AcDbDictionary
281
     1
  3
Standard
350
18
  0
MLINESTYLE
  5
18
102
{ACAD_REACTORS
330
17
102
}
330
17
100
AcDbMlineStyle
  2
STANDARD
 70
     0
  3

 62
   256
 51
90.0
 52
90.0
 71
     2
 49
0.5
 62
   256
  6
BYLAYER
 49
-0.5
 62
   256
  6
BYLAYER
  0
DICTIONARY
  5
19
102
{ACAD_REACTORS
330
C
102
}
330
C
100
AcDbDictionary
281
     1
  0
DICTIONARY
  5
1A
102
{ACAD_REACTORS
330
C
102
}
330
C
100
AcDbDictionary
281
     1
  3
Model
350
22
  3
布局1
350
5A
  3
布局2
350
5F
  0
LAYOUT
  5
22
102
{ACAD_REACTORS
330
1A
102
}
330
1A
100
AcDbPlotSettings
  1

  2
none_device
  4
ANSI_A_(8.50_x_11.00_Inches)
  6

 40
6.349999904632568
 41
19.04999923706055
 42
6.350006103515625
 43
19.04998779296875
 44
215.8999938964844
 45
279.3999938964844
 46
0.0
 47
0.0
 48
0.0
 49
0.0
140
0.0
141
0.0
  6

142
1.0
143
57.07986212157697
 70
 11952
 72
     0
 73
     1
 74
     0
  7

 75
     0
147
0.01751931351673652
148
-2282.040442273535
149
2.561166666666503
100
AcDbLayout
  1
Model
 70
     1
 71
     0
 10
0.0
 20
0.0
 11
12.0
 21
9.0
 12
0.0
 22
0.0
 32
0.0
 14
0.0
 24
0.0
 34
0.0
 15
0.0
 25
0.0
 35
0.0
146
0.0
 13
0.0
 23
0.0
 33
0.0
 16
1.0
 26
0.0
 36
0.0
 17
0.0
 27
1.0
 37
0.0
 76
     0
330
1F
  0
LAYOUT
  5
5A
102
{ACAD_REACTORS
330
1A
102
}
330
1A
100
AcDbPlotSettings
  1

  2
none_device
  4
Letter_(8.50_x_11.00_Inches)
  6

 40
6.349999904632568
 41
6.349999904632568
 42
6.350006103515625
 43
6.350006103515625
 44
215.8999938964844
 45
279.3999938964844
 46
0.0
 47
0.0
 48
0.0
 49
0.0
140
0.0
141
0.0
  6

142
1.0
143
1.0
 70
   688
 72
     1
 73
     1
 74
     5
  7

 75
    16
147
1.0
148
0.0
149
0.0
100
AcDbLayout
  1
布局1
 70
     1
 71
     1
 10
-6.350006103515625
 20
-6.349999904632568
 11
273.0499877929688
 21
209.5499939918518
 12
0.0
 22
0.0
 32
0.0
 14
26.66999878883362
 24
20.31999878883363
 34
0.0
 15
240.0299890995026
 25
182.8799890995026
 35
0.0
146
0.0
 13
0.0
 23
0.0
 33
0.0
 16
1.0
 26
0.0
 36
0.0
 17
0.0
 27
1.0
 37
0.0
 76
     0
330
59
331
76
  0
LAYOUT
  5
5F
102
{ACAD_REACTORS
330
1A
102
}
330
1A
100
AcDbPlotSettings
  1

  2
none_device
  4
Letter_(8.50_x_11.00_Inches)
  6

 40
6.349999904632568
 41
6.349999904632568
 42
6.350006103515625
 43
6.350006103515625
 44
215.8999938964844
 45
279.3999938964844
 46
0.0
 47
0.0
 48
0.0
 49
0.0
140
0.0
141
0.0
  6

142
1.0
143
1.0
 70
   688
 72
     1
 73
     1
 74
     5
  7

 75
    16
147
1.0
148
0.0
149
0.0
100
AcDbLayout
  1
布局2
 70
     1
 71
     2
 10
-6.350006103515625
 20
-6.349999904632568
 11
273.0499877929688
 21
209.5499939918518
 12
0.0
 22
0.0
 32
0.0
 14
26.66999878883362
 24
20.31999878883363
 34
0.0
 15
240.0299890995026
 25
182.8799890995026
 35
0.0
146
0.0
 13
0.0
 23
0.0
 33
0.0
 16
1.0
 26
0.0
 36
0.0
 17
0.0
 27
1.0
 37
0.0
 76
     0
330
5E
331
305
  0
DICTIONARY
  5
67
102
{ACAD_REACTORS
330
C
102
}
330
C
100
AcDbDictionary
281
     1
  3
DIMASSOC
350
68
  3
HIDETEXT
350
6C
  0
DICTIONARYVAR
  5
68
102
{ACAD_REACTORS
330
67
102
}
330
67
100
DictionaryVariables
280
     0
  1
2
  0
DICTIONARYVAR
  5
6C
102
{ACAD_REACTORS
330
67
102
}
330
67
100
DictionaryVariables
280
     0
  1
1
  0
DICTIONARY
  5
133
330
125
100
AcDbDictionary
280
     1
281
     1
  3
ACAD_DIMASSOC
360
13D
  0
DICTIONARY
  5
14B
330
13E
100
AcDbDictionary
280
     1
281
     1
  3
ACAD_DIMASSOC
360
155
  0
DICTIONARY
  5
163
330
156
100
AcDbDictionary
280
     1
281
     1
  3
ACAD_DIMASSOC
360
16D
  0
DICTIONARY
  5
17D
330
16E
100
AcDbDictionary
280
     1
281
     1
  3
ACAD_DIMASSOC
360
189
  0
DICTIONARY
  5
199
330
18A
100
AcDbDictionary
280
     1
281
     1
  3
ACAD_DIMASSOC
360
1A5
  0
DICTIONARY
  5
1B5
330
1A6
100
AcDbDictionary
280
     1
281
     1
  3
ACAD_DIMASSOC
360
1C1
  0
DICTIONARY
  5
1CF
330
1C2
100
AcDbDictionary
280
     1
281
     1
  3
ACAD_DIMASSOC
360
1D9
  0
DICTIONARY
  5
1E7
330
1DA
100
AcDbDictionary
280
     1
281
     1
  3
ACAD_DIMASSOC
360
1F1
  0
DICTIONARY
  5
1FF
330
1F2
100
AcDbDictionary
280
     1
281
     1
  3
ACAD_DIMASSOC
360
209
  0
DICTIONARY
  5
21A
330
20A
100
AcDbDictionary
280
     1
281
     1
  3
ACAD_DIMASSOC
360
227
  0
DICTIONARY
  5
235
330
228
100
AcDbDictionary
280
     1
281
     1
  3
ACAD_DIMASSOC
360
23F
  0
DICTIONARY
  5
24D
330
240
100
AcDbDictionary
280
     1
281
     1
  3
ACAD_DIMASSOC
360
257
  0
DICTIONARY
  5
262
330
258
100
AcDbDictionary
280
     1
281
     1
  3
ACAD_DIMASSOC
360
269
  0
DICTIONARY
  5
274
330
26A
100
AcDbDictionary
280
     1
281
     1
  3
ACAD_DIMASSOC
360
27B
  0
DICTIONARY
  5
286
330
27C
100
AcDbDictionary
280
     1
281
     1
  3
ACAD_DIMASSOC
360
28D
  0
DICTIONARY
  5
299
330
28E
100
AcDbDictionary
280
     1
281
     1
  3
ACAD_DIMASSOC
360
2A1
  0
DICTIONARY
  5
2AD
330
2A2
100
AcDbDictionary
280
     1
281
     1
  3
ACAD_DIMASSOC
360
2B5
  0
DICTIONARY
  5
2C1
330
2B6
100
AcDbDictionary
280
     1
281
     1
  3
ACAD_DIMASSOC
360
2C9
  0
DICTIONARY
  5
2D4
330
2CA
100
AcDbDictionary
280
     1
281
     1
  3
ACAD_DIMASSOC
360
2DB
  0
DICTIONARY
  5
2E9
330
2DC
100
AcDbDictionary
280
     1
281
     1
  3
ACAD_DIMASSOC
360
2F3
  0
DICTIONARY
  5
2F6
330
2F4
100
AcDbDictionary
280
     1
281
     1
  3
ACAD_DIMASSOC
360
2F7
  0
ENDSEC
  0
SECTION
  2
THUMBNAILIMAGE
 90
    18627
310
BF4800000201030100005000000002530100005C480000000000000000000000000000000000000000000000000000000000000000000000000000000000000000000000000000000000000000000000000000000000000000000000000000000000000000000028000000B400000061000000010008000000000034440000
310
00000000000000000001000000000000FFFFFF00FFFFFF0000000000FFFFFF00FFFFFF00FFFFFF00FFFFFF00FFFFFF00FFFFFF00FFFFFF00FFFFFF00330000006600000099000000CC000000FF00000000330000333300006633000099330000CC330000FF33000000660000336600006666000099660000CC660000FF6600
310
0000990000339900006699000099990000CC990000FF99000000CC000033CC000066CC000099CC0000CCCC0000FFCC000000FF000033FF000066FF000099FF0000CCFF0000FFFF000000003300330033006600330099003300CC003300FF00330000333300333333006633330099333300CC333300FF333300006633003366
310
33006666330099663300CC663300FF66330000993300339933006699330099993300CC993300FF99330000CC330033CC330066CC330099CC3300CCCC3300FFCC330000FF330033FF330066FF330099FF3300CCFF3300FFFF330000006600330066006600660099006600CC006600FF00660000336600333366006633660099
310
336600CC336600FF33660000666600336666006666660099666600CC666600FF66660000996600339966006699660099996600CC996600FF99660000CC660033CC660066CC660099CC6600CCCC6600FFCC660000FF660033FF660066FF660099FF6600CCFF6600FFFF660000009900330099006600990099009900CC009900
310
FF00990000339900333399006633990099339900CC339900FF33990000669900336699006666990099669900CC669900FF66990000999900339999006699990099999900CC999900FF99990000CC990033CC990066CC990099CC9900CCCC9900FFCC990000FF990033FF990066FF990099FF9900CCFF9900FFFF99000000CC
310
003300CC006600CC009900CC00CC00CC00FF00CC000033CC003333CC006633CC009933CC00CC33CC00FF33CC000066CC003366CC006666CC009966CC00CC66CC00FF66CC000099CC003399CC006699CC009999CC00CC99CC00FF99CC0000CCCC0033CCCC0066CCCC0099CCCC00CCCCCC00FFCCCC0000FFCC0033FFCC0066FF
310
CC0099FFCC00CCFFCC00FFFFCC000000FF003300FF006600FF009900FF00CC00FF00FF00FF000033FF003333FF006633FF009933FF00CC33FF00FF33FF000066FF003366FF006666FF009966FF00CC66FF00FF66FF000099FF003399FF006699FF009999FF00CC99FF00FF99FF0000CCFF0033CCFF0066CCFF0099CCFF00CC
310
CCFF00FFCCFF0000FFFF0033FFFF0066FFFF0099FFFF00CCFFFF0000000000FFFFFF000D0D0D001A1A1A00282828003535350043434300505050005D5D5D006B6B6B00787878008686860093939300A1A1A100AEAEAE00BBBBBB00C9C9C900D6D6D600E4E4E400F1F1F10000000000FFFFFF00FFFFFF00FFFFFF00FFFFFF00
310
FFFFFF00FFFFFF00FFFFFF00FFFFFF00FFFFFF00FFFFFF0000000000000000000000000000000000000000000000000000000000000000000000000000000000000000000000000000000000000000000000000000000000000000000000000000000000000000000000000000000000000000000000000000000000000000
310
00000000000000000000000000000000000000000000000000000000000000000000000000000000000000000000000000000000000000000000000000000000000000000000000000000000000000000000000000000000000000000000000000000000000000000000000000000000000000000000000000000000000000
310
00000000000000000000000000000000000000000000000000000000000000000000000000000000000000000000000000000000000000000000000000000000000000000000000000000000000000000000000000000000000000000000000000000000000000000000000000000000000000000000000000000000000000
310
00000000000000000000000000000000000000000000000000000000000000000000000000000000000000000000000000000000000000000000000000000000000000000000000000000000000000000000000000000000000000000000000000000000000000000000000000000000000000000000000000000000000000
310
00000000000000000000000000000000000000000000000000000000000000000000000000000000000000000000000000000000000000000000000000000000000000000000000000000000000000000000000000000000000000000000000000000000000000000000000000000000000000000000000000000000000000
310
00000000000000000000000000000000000000000000000000000000000000000000000000000000000000000000000000000000000000000000000000000000000000000000000000000000000000000000000000000000000000000000000000000000000000000000000000000000000000000000000000000000000000
310
00000000000000000000000000000000000000000000000000000000000000000000000000000000000000000000000000000000000000000000000000000000000000000000000000000000000000000000000000000000000000000000000000000000000000000000000000000000000000000000000000000000000000
310
00000000000000000000000000000000000000000000000000000000000000000000000000000000000000000000000000000000000000000000000000000000000000000000000000000000000000000000000000000000000000000000000000000000000000000000000000000000000000000000000000000000000000
310
00000000000000000000000000000000000000000000000000000000000000000000000000000000000000000000000000000000000000000000000000000000000000000000000000000000000000000000000000000000000000000000000000000000000000000000000000000000000000000000000000000000000000
310
00000000000000000000000000000000000000000000000000000000000000000000000000000000000000000000000000000000000000000000000000000000000000000000000000000000000000000000000000000000000000000000000000000000000000000000000000000000000000000000000000000000000000
310
00000000000000000000000000000000000000000000000000000000000000000000000000000000000000000000000000000000000000000000000000000000000000000000000000000000000000000000000000000000000000000000000000000000000000000000000000000000000000000000000000000000000000
310
00000000000000000000000000000000000000000000000000000000000000000000000000000000000000000000000000000000000000000000000000000000000000000000000000000000000000000000000000000000000000000000000000000000000000000000000000000000000000000000000000000000000000
310
00000000000000000000000000000000000000000000000000000000000000000000000000000000000000000000000000000000000000000000000000000000000000000000000000000000000000000000000000000000000000000000000000000000000000000000000000000000000000000000000000000000000000
310
00000000000000000000000000000000000000000000000000000000000000000000000000000000000000000000000000000000000000000000000000000000000000000000000000000000000000000000000000000000000000000000000000000000000000000000000000000000000000000000000000000000000000
310
00000000000000000000000000000000000000000000000000000000000000000000000000000000000000000000000000000000000000000000000000000000000000000000000000000000000000000000000000000000000000000000000000000000000000000000000000000000000000000000000000000000000000
310
00000000000000000000000000000000000000000000000000000000000000000000000000000000000000000000000000000000000000000000000000000000000000000000000000000000000000000000000000000000000000000000000000000000000000000000000000000000000000000000000000000000000000
310
00000000000000000000000000000000000000000000000000000000000000000000000000000000000000000000000000000000000000000000000000000000000000000000000000000000000000000000000000000000000000000000000000000000000000000000000000000000000000000000000000000000000000
310
00000000000000000000000000000000000000000000000000000000000000000000000000000000000000000000000000000000000000000000000000000000000000000000000000000000000000000000000000000000000000000000000000000000000000000000000000000000000000000000000000000000000000
310
00000000000000000000000000000000000000000000000000000000000000000000000000000000000000000000000000000000000000000000000000000000000000000000000000000000000000000000000000000000000000000000000000000000000000000000000000000000000000000000000000000000000000
310
00000000000000000000000000000000000000000000000000000000000000000000000000000000000000000000000000000000000000000000000000000000000000000000000000000000000000000000000000000000000000000000000000000000000000000000000000000000000000000000000000000000000000
310
00000000000000000000000000000000000000000000000000000000000000000000000000000000000000000000000000000000000000000000000000000000000000000000000000000000000000000000000000000000000000000000000000000000000000000000000000000000000000000000000000000000000000
310
00000000000000000000000000000000000000000000000000000000000000000000000000000000000000000000000000000000000000000000000000000000000000000000000000000000000000000000000000000000000000000000000000000000000000000000000000000000000000000000000000000000000000
310
00000000000000000000000000000000000000000000000000000000000000000000000000000000000000000000000000000000000000000000000000000000000000000000000000000000000000000000000000000000000000000000000000000000000000000000000000000000000000000000000000000000000000
310
00000000000000000000000000000000000000000000000000000000000000000000000000000000000000000000000000000000000000000000000000000000000000000000000000000000000000000000000000000000000000000000000000000000000000000000000000000000000000000000000000000000000000
310
00000000000000000000000000000000000000000000000000000000000000000000000000000000000000000000000000000000000000000000000000000000000000000000000000000000000000000000000000000000000000000000000000000000000000000000000000000000000000000000000000000000000000
310
00000000000000000000000000000000000000000000000000000000000000000000000000000000000000000000000000000000000000000000000000000000000000000000000000000000000000000000000000000000000000000000000000000000000000000000000000000000000000000000000000000000000000
310
00000000000000000000000000000000000000000000000000000000000000000000000000000000000000000000000000000000000000000000000000000000000000000000000000000000000000000000009E9E9E9E9E9E9E00000000000000000000000000000000000000000000000000000000000000000000000000
310
00000000000000000000000000000000000000000000000000000000000000000000000000000000000000000000000000000000000000000000000000000000000000000000000000000000000000000000000000000000000000000000000000000000000000000000000000000000000000000000000000000000000000
310
0000000000000000009E9E9E9E9E9E9E000000000000000000000000000000000000000000000000000000000000000000000000000000000000000000000000000000000000000000000000000000000000000000000000000000000000000000000000000000000000000000000000000000000000000000000000000000
310
00000000000000000000000000000000000000000000000000000000000000000000000000000000000000000000000000000000000000000000000000009E9E9E9E9E9E009E000000000000000000000000000000000000000000000000000000000000000000000000000000000000000000000000000000000000000000
310
00000000000000000000000000000000000000000000009E000000000000000000000000000000000000000000000000000000000000009E0000000000000000000000000000000000000000000000000000000000000000000000000000000000000000000000000000000000000000000000000000000000009E00000000
310
000000000000000000000000000000000000000000000000000000000000000000000000000000000000000000000000000000000000000000000000000000000000000000000000000000009E9E9E9E9E9E9E9E9E9E9E9E9E9E9E9E9E9E9E9E9E9E9E9E9E9E9E9E9E9E9E9E9E000000000000000000000000000000000000
310
0000000000000000000000000000000000000000000000000000000000000000000000000000BE000000000000000000009E0000000000000000000000000000000000000000000000000000000000000000000000000000000000000000000000000000000000000000000000000000000000000000000000000000000000
310
00009E00000000000000000000000000009E9E9E00000000000000000000000000009E0000000000000000000000000000000000000000000000000000000000000000000000000000000000000000000000000000000000000000BE000000000000000000009E000000000000000000000000000000000000000000000000
310
000000000000000000000000000000000000000000000000000000000000000000000000000000000000000000000000000000000000009E00000000000000000000000000009E9E9E00000000000000000000000000009E000000000000000000000000000000000000000000000000000000000000000000000000000000
310
0000000000000000000000000000000000BE000000000000000000009E000000000000000000000000000000000000000000000000000000000000000000000000000000000000000000000000000000000000000000000000000000000000000000000000000000000000009E00000000000000000000000000009E9E9E00
310
000000000000000000000000009E00000000000000000000000000000000000000000000000000000000000000000000000000F5F5F5F5F5F5F5000000000000F5F5F5F5F5F5BEF5F5F5F5F5F5F50000009E9E00F5F5F5F5F5F5F5000000000000000000000000000000000000000000000000000000000000000000000000
310
000000000000000000000000000000000000000000000000000000000000000000009E000000000000000000000000000000000000000000000000000000000000009E0000000000000000000000000000000000000000000000000000000000000000000000F5F5F5F5F5F5F5F5F5F50000F5F5F5F5F5F5F5F5F5BEF5F5F5
310
F5F5F5F5F5F5F5009EF5F5F5F5F5F5F5F5F5F500000000000000000000000000000000000000000000000000000000000000000000000000000000000000000000000000000000000000000000000000000000000000009E0000000000000000000000000000000000000000000000000000F5F5F5F5F59EF5000000000000
310
000000000000000000000000000000000000000000000000000000F5F5F5F5F5F5F5F5F5F5F5F5F5F5F5F5F5F5F5F5F5F5BEF5F5F5F5F5F5F5F5F5F5F5F59EF5F5F5F5F5F5F5F5F500000000000000000000000000000000000000000000000000000000000000000000000000000000000000000000000000000000000000
310
000000000000000000000000009E0000000000000000000000000000000000000000000000000000F520F520F59E9E9E9E9E9E9E9E9E9E9E9E9E9E9E9E9E000000000000000000000000000000000000F5F5F5F5F5F5F5F5F5F5F5F5F5F5F5F5F5F500000000BE00000000F5F5F5F5F5F5F5F59EF5F5F5F5F5F5F5F5F5F500
310
0000000000000000000000000000000000000000000000000000000000000000000000000000000000000000000000000000000000000000000000000000000000009E00009E009E00009E0000000000000000000000000000000000F5F5F520F520F5F5000000000000000000000000009E00000000000000000000000000
310
0000000000F5F5F5F5F5F5F5F5F5F5F5F5F5F5F5F500000000000000BE00000000000000F5F5F5F5F5F5F5F5F5F5F5F5F5F5F5F5000000000000000000000000000000000000000000000000000000000000000000000000000000000000000000000000000000000000000000000000000000009E9E9E9E9E9E9E9E9E9E9E
310
9E9E9E9E000000F5F5F5F5F5F5F5F5F5F5F5F520F5F520F520F5000000000000000000000000009E000000000000000000000000000000000000F5F5F5F5F5F5F5F5F5F5F5F5F5F5000000000000000000BE000000000000000000F5F5F5F5F5F5F5F5F5F5F5F5F5F500000000000000000000000000000000000000000000
310
000000000000000000000000000000000000000000000000000000000000000000000000000000000000009E9E9E9E9E9E9E9E9E9E9E9E9E00F5F5F52020F520F520F520F5F520F52020F50020F5F5000000000000000000000000009E000000000000000000000000000000000000F5F5F5F5F5F5F5F5F5F5F5F5F5F50000
310
00000000000000BE000000000000000000F5F5F5F5F5F5F5F5F5F5F5F5F5F59E0000000000000000000000000000000000000000000000000000000000000000000000000000000000000000000000000000000000000000000000000000000000009E9E9E9E9E9E9E9E9E0000F5F520F5F52020F520F520F520F5F520F520
310
2020F520F5000000000000000000000000009E000000000000000000000000000000000000F5F5F5F5F5F5F5F5F5F5F5F5F5F5000000000000000000BE000000000000000000F5F5F5F5F5F5F59E9E9E9E9E9E9E9E9E9E9E9E9E9E000000000000000000000000000000000000000000000000000000000000000000000000
310
0000000000000000000000000000000000000000000000009E9E9E9E9E9E9E9E9E0000F520F52000F5202020202020202020F520F520F520F5F5000000000000000000000000009E000000000000000000000000000000000000F5F5F5F5F5F5F5F5F5F5F5F5F5F5000000000000F5F5F5BEF5F5F5000000000000F5F5F5F5
310
F5F5F5F5F5F5F5F5F5F500009E9E9E9E9E0000000000000000000000000000000000000000000000000000000000000000000000000000000000000000000000000000000000000000000000009E00009E009E00009EF5F520F5202020F5F520F520F520F520F520F520F520F59E9E9E9E9E9E9E9E9E9E9E9E0000009E0000
310
00000000000000000000000000000000F5F5F5F5F5F5F5F5F5F5F5F5F5F5000000F5F5F5F5F5F5BEF5F5F5F5F5F5F5000000F5F5F5F5F5F5F5F5F5F5F5F5F500009E9E9E9E9E000000000000000000000000000000000000000000000000000000000000000000000000000000000000000000000000000000000000000000
310
0000009E00009E009E00009EF5F52020F5F52020F5F5F5F5F5F5F5F5F5F5F5F5F5F5F5F5F500000000000000009E000000009E00000000000000000000000000000000000000F5F5F5F5F5F5F5F5F5F5F5F5F500F5F5F5F5F5F5F5F5BEF5F5F5F5F5F5F5F5F500F5F5F5F5F5F5F5F5F5F5F5F5F50000000000000000000000
310
000000000000000000000000000000000000000000000000000000000000000000000000000000009E9E9E9E9E9E9E9E9E9E9E9E9E9E9E9E9E9E9E9E9E9E9E9E9E20F5F52020F5F5F5F500000000000000000000000000F5F5F500000000000000009E000000009E00000000000000000000000000000000000000F5F5F5F5
310
F5F5F5F5F5F5F5F500F5F5F5F5F5F5F5F5F5BEF5F5F5F5F5F5F5F5F5F5F5F5F5F5F5F5F5F5F5F5F5F5F5000000000000000000000000000000000000000000000000000000000000000000000000000000000000000000000000000000009E00000000000000000000000000009E00009E009E00F59EF52000002020F50000
310
00000000000000000000000000F5F5F500000000000000009E000000009E0000000000000000000000000000000000000000F5F5F5F5F5F5F5F5F5F5F5F5F5F5F5F5F5F5F5F5F5BEF5F5F5F5F5F5F5F5F5F5F5F5F5F5F5F5F5F5F5F5F5F5000000000000000000000000000000000000000000000000000000000000000000
310
00000000000000000000000000000000000000009E00000000000000000000000000009EF5F59E009EF5F59E20002000209EF5000000000000000000000000000000F59EF500000000000000009E000000009E0000000000000000000000000000000000000000F5F5F5F5F5F5F5F5F500F5F5F5F5F5F5F5F5F5F5F5BEF5F5
310
F5F5F5F5F5F5F5F5F5F500F5F5F5F5F5F5F5F5F500000000000000000000000000000000000000000000000000000000000000000000000000000000000000000000000000000000009E0000009E9E9E9E9E9E9E9E9E9E9E9EF5209EF59E20F59EF5200020F59E9E9E9E9E9E9E9E9E9E9E9E9E9E9E9E9E9E9EF50000000000
310
0000009E000000009E00000000000000000000000000000000000000F5F5F5F5000000000000F5F5F5F5F5F5F5F5F5F5F5F5BEF5F5F5F5F5F5F5F5F5F5F5F5F50000000000F5F5F5F5F5000000000000000000000000000000000000000000000000000000000000000000000000000000000000000000000000000000009E
310
00000000009E00000000000000F5F520F520F5F5F520F520002000209EF500000000009E9E9E9E000000000000F59EF500000000000000009E000000009E00000000000000000000000000000000000000F5F5F5F50000000000F5F5F5F5F5F5F5F5F5F5F5F5F5BEF5F5F5F5F5F5F5F5F5F5F5F5F5000000000000F5F5F5F5
310
000000000000000000000000000000000000000000000000000000000000000000000000000000000000000000000000000000009E000000009E9E00009E9E9E9E9E9E9E9E9E9E2020F5002000200020F59EF500000000009E9E9E9E000000000000F59EF500000000000000009E000000009E000000000000000000000000
310
00000000000000F5F5F5F50000000000F5F5F5F5F5F5F5F5F5F5F5F5F5BEF5F5F5F5F5F5F5F5F5F5F5F5F5F50000000000F5F5F5F5000000000000000000000000000000000000000000000000000000000000000000000000000000000000000000000000000000009E00000000009E0000009E9E0000F5F5200020F52020
310
000020002000209EF50000000000009E9E9E000000000000F59EF500000000000000009E000000009E000000000000000000000000000000000000F5F5F5F50000000000F5F5F5F5F5F5F5F5F5F5F5F5F5F5BEF5F5F5F5F5F5F5F5F5F5F5F5F5F5000000000000F5F5F5000000000000000000000000000000000000000000
310
000000000000000000000000000000000000000000000000000000000000009E00000000009E0000009E9E0000F520F52000200020202000200020F59EF5000000000000000000000000000000F59EF500000000000000009E000000009E000000000000000000000000000000000000F5F5F5F50000000000F5F5F5F5F5F5
310
F5F5F5F5F5F5F5F5BE00F5F5F5F5F5F5F5F5F5F5F5F5F5F50000000000F5F5F5000000000000000000000000000000000000000000000000000000000000000000000000000000000000000000000000000000009E00000000009E0000009E000000F5F520F520F520F520F520F520F5209EF5000000000000000000000000
310
000000F59EF500000000000000009E000000009E000000000000000000000000000000000000F5F5F5000000000000F5F5F5F5F5F5F5F5F5F5F5F5F5F5BEF5F5F5F5F5F5F5F5F5F5F5F5F5F5F50000000000F5F5F5F50000000000000000000000000000000000000000000000000000000000000000000000000000000000
310
000000000000000000009E00000000009E0000009E000000F5F5F5F5F5F5F5F5F5F5F59E9E9E9EF5F5000000000000000000000000000000F5F5F500000000000000009E000000009E000000000000000000000000000000000000F5F5F5000000000000F5F5F5F5F5F5F5F5F5F5F5F5F5F5BEF5F5F5F5F5F5F5F5F5F5F5F5
310
F5F5F50000000000F5F5F5F50000000000000000000000000000000000000000000000000000000000000000000000000000000000000000000000000000009E00000000009E0000009E000000F5F5F5F5F5F5F5F5F5F5F5F59E9EF5F5F5000000000000000000000000000000F5F5F500000000000000009E000000009E00
310
0000000000000000000000000000000000F5F5F5000000000000F5F5F5F5F5F5F5F5F5F5F5F5F5F5F5F5F5F5F5F5F5F5F5F5F5F5F5F5F5F5000000000000F5F5F50000000000000000000000000000000000000000000000000000000000000000000000000000000000000000000000009E9E9E9E00009E9E9E9E009E9E9E
310
000000F5F5F5F50000000000009E9E9E9EF5F5F5000000000000000000000000000000F5F5F500000000009E9E9E9E009E9E9E9E000000000000000000000000000000000000F5F5F5000000000000F5F5F5F5F5F5F5F5F5F5F5F5F5F5BE00F5F5F5F5F5F5F5F5F500F5F5F5F5000000000000F5F5F5000000000000000000
310
000000000000000000000000000000000000000000000000000000000000000000000000000000009E9E9E00009E9E9E9E009E9E9E00BEBEBEBEBEBE9E9E9E9E9E9E9E9E9E9EBEBEBEBEBEBEBEBEBE00BEBEBE00BEBEBEBEBEBEBEBE000000009E9E9E9E009E9E9E9E000000000000000000000000000000BEBEBEBEBEBEBE
310
BEBEBEBEBEF5BEBEBEBEBEBEBEBEBEBEBEBEBE9EBEBEBEBEBEBEBEBEBEBEBEBEBEBEF5BEBEBE00BEBEBEBEBEBEBEBE0000000000000000000000000000000000000000000000000000000000000000000000000000000000000000009E9E9E9E00009E9E9E9E009E9E9E000000F5F5F59E9E9E9E009E9E9E9E9E9EF5F5F500
310
0000000000000000000000000000F5F5F500000000009E9E9E9E000000009E000000000000000000000000000000000000F5F5F5000000000000F5F5F5F5F5F5F5F5F5F5F5F5F59EBE00F5F5F5F5F5F5F5F5F500F5F5F5F5000000000000F5F5F5000000000000000000000000000000000000000000000000000000000000
310
0000000000000000000000000000000000000000009E00000000009E0000009E000000F5F5F59E9E9E9EF59E9EF5F59E9EF5F5F5000000000000000000000000000000F5F5F500000000000000009E000000009E000000000000000000000000000000000000F5F5F5000000000000F5F5F5F5F5F5F5F5F5F5F5F59EF5F5F5
310
F5F5F5F5F5F5F5F5F5F5F5F5F5F5000000000000F5F5F50000000000000000000000000000000000000000000000000000000000000000000000000000000000000000000000000000009E00000000009E0000009E000000F5F59EF5F5F5F5F5F5F5F59E9E9E9EF5F5000000000000000000000000000000F5F5F500000000
310
000000009E000000009E000000000000000000000000000000000000F5F5F5000000000000F5F5F5F5F5F5F5F5F5F5F59EF5F5BEF5F5F5F5F5F5F5F5F5F5F5F5F5F5F50000000000F5F5F5F5000000000000000000000000000000000000000000000000000000000000000000000000000000000000000000000000000000
310
9E00000000009E0000009E000000F5F520F520F520F520F520F520F520F5F5000000000000000000000000000000F5F5F500000000000000009E000000009E000000000000000000000000000000000000F5F5F5F50000000000F5F5F5F5F5F5F5F5F5F59EF5F5F5BEF5F5F5F5F5F5F5F5F5F5F5F5F5F5F50000000000F5F5
310
F5F50000000000000000000000000000000000000000000000000000000000000000000000000000000000000000000000000000009E00000000009E0000009E9E0000F520F52000200020002000200020F520F5000000000000000000000000000000F5F5F500000000000000009E000000009E0000000000000000000000
310
00000000000000F5F5F5F50000000000F5F5F5F5F5F5F5F5F59EF5F5F5F5BEF5F5F5F5F5F5F5F5F5F5F5F5F5F5F50000000000F5F5F5000000000000000000000000000000000000000000000000000000000000000000000000000000000000000000000000000000009E00000000009E0000009E9E0000F5F52020F520F5
310
0020002000200020F5F5000000000000000000000000000000F5F5F500000000000000009E000000009E000000000000000000000000000000000000F5F5F5F5000000000000F5F5F5F5F5F5F59EF5F5F5F5F5BEF5F5F5F5F5F5F5F5F5F5F5F5F5F5000000000000F5F5F50000000000000000000000000000000000000000
310
00000000000000000000000000000000000000000000000000000000000000009E000000009E9E00009E9E9E9E9E9E9E9E9E9EF520F5002000200020F520F5000000000000000000000000000000F5F5F500000000000000009E000000009E00000000000000000000000000000000000000F5F5F5F50000000000F5F5F5F5
310
F5F59EF5F5F5F5F5F5BEF5F5F5F5F5F5F5F5F5F5F5F5F5F50000000000F5F5F5F5000000000000000000000000000000000000000000000000000000000000000000000000000000000000000000000000000000009E00000000009E00000000000000F520F5F520F5F520F5F52000200020F5F50000000000009E9E9E9E9E
310
9E9E0000F5F5F500000000000000009E000000009E00000000000000000000000000000000000000F5F5F5F50000000000F5F5F5F5F59EF5F5F5F5F5F5F5BEF5F5F5F5F5F5F5F5F5F5F5F5F5000000000000F5F5F5F50000000000000000000000000000000000000000000000000000000000000000000000000000000000
310
00000000000000000000009E0000009E9E9E9E9E9E9E9E9E9E9E9E20F5F5F5F5F520F5F5200020F520F5000000009E9E009E9E9E009E9E0000F5F5F500000000000000009E000000009E00000000000000000000000000000000000000F5F5F5F5000000000000F5F5F59EF5F5F5F5F5F5F5F5BEF5F5F5F5F5F5F5F5F5F5F5
310
F5F50000000000F5F5F5F500000000000000000000000000000000000000000000000000000000000000000000000000000000000000000000000000000000009E0000000000000000000000000000F5F5F5F500F5F5F520F500200020F5F5009E9E9E0000009E9E9E009E9E0000F5F5F59E9E9E9E9E0000009E000000009E
310
0000000000000000000000000000000000000000F5F5F5F5F5F5F5F5F500F59EF5F5F5F5F5F5F5F5F5BEF5F5F5F5F5F5F5F5F5F5F5F5F5F5F5F5F5F5F5F5F5F500000000000000000000000000000000000000000000000000000000000000000000000000000000000000000000000000000000009E000000000000000000
310
000000000000000000000000F5F520F5F520F59E9E9E9E00000000000000000000000000F5F5F59E9E9E9E9E0000009E000000009E0000000000000000000000000000000000000000F5F5F5F5F5F5F5F5F5F59EF5F5F5F5F5F5F5F5F5F5BEF5F5F5F5F5F5F5F5F5F5F5F5F5F5F5F5F5F5F5F5F5F500000000000000000000
310
0000000000000000000000000000000000000000000000000000000000000000000000000000000000009E9E9E9E9E9E9E9E9E9E9E9E9E9E9E9E9E9E9E9E9E9E9E9E9E209EF5F520F5F5F5F500000000000000000000000000F5F5F59E9E9E9E9E0000009E000000009E00000000000000000000000000000000000000F5F5
310
F5F5F5F5F5F5F5F59EF500F5F5F5F5F5F5F5F5F5BEF5F5F5F5F5F5F5F5F5F5F5F5F5F5F5F5F5F5F5F5F5F5F5000000000000000000000000000000000000000000000000000000000000000000000000000000000000000000000000000000000000000000000000000000000000000000000000000000F5F59E20F50020F5
310
20F5F5F5F5F5F5F5F5F5F5F5F5F5F5F5F5F59E9E009E9E0000009E000000009E00000000000000000000000000000000000000F5F5F5F5F5F5F5F5F59EF5F5F500F5F5F5F5F5F5F5F5BEF5F5F5F5F5F5F5F50000F5F5F5F5F5F5F5F5F5F5F5F5F5000000000000000000000000000000000000000000000000000000000000
310
000000000000000000000000000000000000000000000000000000000000000000000000000000000000000000009E9EF520F50020F52020F520F5F520F520F520F520F5209E9E9E9E9E9E9E9E9E9E9E9E0000009E000000000000000000000000000000000000F5F5F5F5F5F5F5F5F59EF5F5F5F5000000F5F5F5F5F5F5BE
310
F5F5F5F5F5F5000000F5F5F5F5F5F5F5F5F5F5F5F5F5F5000000000000000000000000000000000000000000000000000000000000000000000000000000000000000000000000000000000000000000000000000000000000000000000000000000009E00F5F520F50020F52020F520F5F520F520F520F52020F5F5000000
310
009E00000000000000009E000000000000000000000000000000000000F5F5F5F5F5F5F5F59EF5F5F5F5F50000000000000000F5BEF5F500000000000000F5F5F5F5F5F5F5F5F5F5F5F5F5F5000000000000000000000000000000000000000000000000000000000000000000000000000000000000000000000000000000
310
000000000000000000000000000000000000000000000000009E00F5F5F520F5F520F52020202020F520F520F52020F520F5000000009E00000000000000009E000000000000000000000000000000000000F5F5F5F5F5F5F59EF5F5F5F5F5F5000000000000000000BE000000000000000000F5F5F5F5F5F5F59EF5F5F5F5
310
F5F50000000000000000000000000000000000000000000000000000000000000000000000000000000000000000000000000000000000000000000000000000000000000000000000009E9E9E9E000000F5F5F520F5F520F520F520F59E9E9E9E9E9E9E9E9E9E9E9E9E9E9E9E000000000000009E00000000000000000000
310
0000000000000000F5F5F5F5F5F59E9EF5F5F5F5F5F5000000000000000000BE000000000000000000F5F5F5F5F5F5F5F59EF5F5F5F5F5000000000000000000000000000000000000000000000000000000000000000000000000000000000000000000000000000000000000000000000000000000000000000000000000
310
9E9E9E9E0000000000F5F5F5F5F5F5F5F5F5F5F5F59E9E202000F520F5000000009E00000000000000009E000000000000000000000000000000000000F5F5F5F5F59E9EF5F5F5F5F5F5F5000000000000000000BE000000000000000000F5F5F5F5F5F5F5F5F59EF5F5F5F500000000000000000000000000000000000000
310
00000000000000000000000000000000000000000000000000000000000000000000000000000000000000000000000000000000009E9E9E9E000000000000000000000000000000009E9EF5F52020F5F5F5000000009E00000000000000009E000000000000000000000000000000000000F5F5F5F59EF5F5F5F5F5F5F5F5
310
F5F5F5F5000000000000BE00000000000000F5F5F5F5F5F5F5F5F5F5F59E9EF5F5F50000000000000000000000000000000000000000000000000000000000000000000000000000000000000000000000000000000000000000000000000000000000000000000000009E9E9E9E0000000000000000000000000000009E00
310
00F59E20F5209E9E9E9E9E9E9E9E9E9E9E9E9E9E9E9E9E000000000000000000000000000000000000F5F59EF5F5F5F5F5F5F5F5F5F5F5F5F5F5F5F5000000BE00000000F5F5F5F5F5F5F5F5F5F5F5F5F5F5F5F59EF5F500000000000000000000000000000000000000000000000000000000000000000000000000000000
310
000000000000000000000000000000000000000000000000000000000000000000000000000000000000000000009E9E9E9E9E000000F59EF5F5F59EF5000000000000000000000000000000000000000000000000000000000000000000F59EF5F5F5F5F5F5F5F5F5F5F5F5F5F5F5F5F5F5F5F5BEF5F5F5F5F5F5F5F5F5F5
310
F5F5F5F5F5F5F5F5F5F5F59E000000000000000000000000000000000000000000000000000000000000000000000000000000000000000000000000000000000000000000000000000000000000000000000000000000000000000000000000000000009E9E9E00000000009E0000009E0000000000000000000000000000
310
00000000000000000000000000000000000000009EF5F5F5F5F5F5F5F5F5F50000F5F5F5F5F5F5F5F5F5BEF5F5F5F5F5F5F5F5F5000000F5F5F5F5F5F5F5F5F59E0000000000000000000000000000000000000000000000000000000000000000000000000000000000000000000000000000000000000000000000000000
310
000000000000000000000000000000000000000000000000009E9E9E9E00000000009E0000009E00000000000000000000000000000000000000000000000000000000009E9E9E9E9E00000000F5F5F5F5F500000000000000F5F5F5F5F5F5BEF5F5F5F5F5F50000000000000000F5F5F5F5F50000009E0000000000000000
310
0000000000000000000000000000000000000000000000000000000000000000000000000000000000000000000000000000000000000000000000000000000000000000000000000000000000000000000000000000009E0000009E00000000000000000000000000000000000000000000000000000000009E9E9E9E0000
310
000000000000000000000000000000000000000000BE00000000000000000000000000000000000000000000009E9E9E9E9E9E9E000000000000000000000000000000000000000000000000000000000000000000000000000000000000000000000000000000000000000000000000000000000000000000000000000000
310
000000000000000000000000009E9E9E9E9E00000000000000000000000000000000000000000000000000000000009E9E9E9E0000000000000000000000000000000000000000000000BE0000000000000000000000000000000000000000000000009E9E9E9E9E9E00000000000000000000000000000000000000000000
310
0000000000000000000000000000000000000000000000000000000000000000000000000000000000000000000000000000000000000000000000000000000000009E9E9E9E9E00000000000000000000000000000000000000000000000000000000009E9E9E9E0000000000000000000000000000000000000000000000
310
BE0000000000000000000000000000000000000000000000009E9E9E009E9E00000000000000000000000000000000000000000000000000000000000000000000000000000000000000000000000000000000000000000000000000000000000000000000000000000000000000000000000000000000009E9E0000000000
310
0000000000000000000000000000000000000000000000000000000000000000000000000000000000000000000000000000000000000000000000000000000000000000000000000000000000009E9E9E009E9E00000000000000000000000000000000000000000000000000000000000000000000000000000000000000
310
000000000000000000000000000000000000000000000000000000000000000000000000000000000000000000009E9E00000000000000000000000000000000000000000000000000000000000000000000000000000000000000000000000000000000000000000000000000000000000000000000000000000000000000
310
00000000000000000000000000000000000000000000000000000000000000000000000000000000000000000000000000000000000000000000000000000000000000000000000000000000000000000000000000000000000000000000000000000000000000000000000000000000000000000000000000000000000000
310
00000000000000000000000000000000000000000000000000000000000000000000000000000000000000000000000000000000000000000000000000000000000000000000000000000000000000000000000000000000000000000000000000000000000000000000000000000000000000000000000000000000000000
310
00000000000000000000000000000000000000000000000000000000000000000000000000000000000000000000000000000000000000000000000000000000000000000000000000000000000000000000000000000000000000000000000000000000000000000000000000000000000000000000000000000000000000
310
00000000000000000000000000000000000000000000000000000000000000000000000000000000000000000000000000000000000000000000000000000000000000000000000000000000000000000000000000000000000000000000000000000000000000000000000000000000000000000000000000000000000000
310
00000000000000000000000000000000000000000000000000000000000000000000000000000000000000000000000000000000000000000000000000000000000000000000000000000000000000000000000000000000000000000000000000000000000000000000000000000000000000000000000000000000000000
310
00000000000000000000000000000000000000000000000000000000000000000000000000000000000000000000000000000000000000000000000000000000000000000000000000000000000000000000000000000000000000000000000000000000000000000000000000000000000000000000000000000000000000
310
00000000000000000000000000000000000000000000000000000000000000000000000000000000000000000000000000000000000000000000000000000000000000000000000000000000000000000000000000000000000000000000000000000000000000000000000000000000000000000000000000000000000000
310
00000000000000000000000000000000000000000000000000000000000000000000000000000000000000000000000000000000000000000000000000000000000000000000000000000000000000000000000000000000000000000000000000000000000000000000000000000000000000000000000000000000000000
310
00000000000000000000000000000000000000000000000000000000000000000000000000000000000000000000000000000000000000000000000000000000000000000000000000000000000000000000000000000000000000000000000000000000000000000000000000000000000000000000000000000000000000
310
00000000000000000000000000000000000000000000000000000000000000000000000000000000000000000000000000000000000000000000000000000000000000000000000000000000000000000000000000000000000000000000000000000000000000000000000000000000000000000000000000000000000000
310
00000000000000000000000000000000000000000000000000000000000000000000000000000000000000000000000000000000000000000000000000000000000000000000000000000000000000000000000000000000000000000000000000000000000000000000000000000000000000000000000000000000000000
310
00000000000000000000000000000000000000000000000000000000000000000000000000000000000000000000000000000000000000000000000000000000000000000000000000000000000000000000000000000000000000000000000000000000000000000000000000000000000000000000000000000000000000
310
00000000000000000000000000000000000000000000000000000000000000000000000000000000000000000000000000000000000000000000000000000000000000000000000000000000000000000000000000000000000000000000000000000000000000000000000000000000000000000000000000000000000000
310
00000000000000000000000000000000000000000000000000000000000000000000000000000000000000000000000000000000000000000000000000000000000000000000000000000000000000000000000000000000000000000000000000000000000000000000000000000000000000000000000000000000000000
310
00000000000000000000000000000000000000000000000000000000000000000000000000000000000000000000000000000000000000000000000000000000000000000000000000000000000000000000000000000000000000000000000000000000000000000000000000000000000000000000000000000000000000
310
00000000000000000000000000000000000000000000000000000000000000000000000000000000000000000000000000000000000000000000000000000000000000000000000000000000000000000000000000000000000000000000000000000000000000000000000000000000000000000000000000000000000000
310
00000000000000000000000000000000000000000000000000000000000000000000000000000000000000000000000000000000000000000000000000000000000000000000000000000000000000000000000000000000000000000000000000000000000000000000000000000000000000000000000000000000000000
310
00000000000000000000000000000000000000000000000000000000000000000000000000000000000000000000000000000000000000000000000000000000000000000000000000000000000000000000000000000000000000000000000000000000000000000000000000000000000000000000000000000000000000
310
00000000000000000000000000000000000000000000000000000000000000000000000000000000000000000000000000000000000000000000000000000000000000000000000000000000000000000000000000000000000000000000000000000000000000000000000000000000000000000000000000000000000000
310
00000000000000000000000000000000000000000000000000000000000000000000000000000000000000000000000000000000000000000000000000000000000000000000000000000000000000000000000000000000000000000000000000000000000000000000000000000000000000000000000000000000000000
310
00000000000000000000000000000000000000000000000000000000000000000000000000000000000000000000000000000000000000000000000000000000000000000000000000000000000000000000000000000000000000000000000000000000000000000000000000000000000000000000000000000000000000
310
00000000000000000000000000000000000000000000000000000000000000000000000000000000000000000000000000000000000000000000000000000000000000000000000000000000000000000000000000000000000000000000000000000000000000000000000000000000000000000000000000000000000000
310
00000000000000000000000000000000000000000000000000000000000000000000000000000000000000000000000000000000000000000000000000000000000000000000000000000000000000000000000000000000000000000000000000000000000000000000000000000000000000000000000000000000000000
310
00000000000000000000000000000000000000000000000000000000000000000000000000000000000000000000000000000000000000000000000000000000000000000000000000000000000000000000000000000000000000000000000000000000000000000000000000000000000000000000000000000000000000
310
00000000000000000000000000000000000000000000000000000000000000000000000000000000000000000000000000000000000000000000000000000000000000000000000000000000000000000000000000000000000000000000000000000000000000000000000000000000000000000000000000000000000000
310
00000000000000000000000000000000000000000000000000000000000000000000000000000000000000000000000000000000000000000000000000000000000000000000000000000000000000000000000000000000000000000000000000000000000000000000000000000000000000000000000000000000000000
310
00000000000000000000000000000000000000000000000000000000000000000000000000000000000000000000000000000000000000000000000000000000000000000000000000000000000000000000000000000000000000000000000000000000000000000000000000000000000000000000000000000000000000
310
00000000000000000000000000000000000000000000000000000000000000000000000000000000000000000000000000000000000000000000000000000000000000000000000000000000000000000000000000000000000000000000000000000000000000000000000000000000000000000000000000000000000000
310
00000000000000000000000000000000000000000000000000000000000000000000000000000000000000000000000000000000000000000000000000000000000000000000000000000000000000000000000000
  0
ENDSEC
  0
EOF
