999
LibreDWG 
  0
SECTION
  2
HEADER
  9
$ACADVER
  1
AC1015
  9
$ACADMAINTVER
 70
    13
  9
$DWGCODEPAGE
  3
ANSI_936
  9
$INSBASE
 10
0.0
 20
0.0
 30
0.0
  9
$EXTMIN
 10
63.17688093424886
 20
50.68899286415331
 30
-0.001525820700358338
  9
$EXTMAX
 10
328.240357316379
 20
278.337799742047
 30
3.49246036535078E-08
  9
$LIMMIN
 10
0.0
 20
0.0
  9
$LIMMAX
 10
420.0
 20
297.0
  9
$ORTHOMODE
 70
     1
  9
$REGENMODE
 70
     1
  9
$FILLMODE
 70
     1
  9
$QTEXTMODE
 70
     0
  9
$MIRRTEXT
 70
     1
  9
$LTSCALE
 40
1.0
  9
$ATTMODE
 70
     1
  9
$TEXTSIZE
 40
2.5
  9
$TRACEWID
 40
1.0
  9
$TEXTSTYLE
  7
数字与字母
  9
$CLAYER
  8
文本层
  9
$CELTYPE
  6
ByLayer
  9
$CECOLOR
 62
   256
  9
$CELTSCALE
 40
1.0
  9
$DISPSILH
 70
     0
  9
$DIMSCALE
 40
1.0
  9
$DIMASZ
 40
3.5
  9
$DIMEXO
 40
0.0
  9
$DIMDLI
 40
7.5
  9
$DIMRND
 40
0.0
  9
$DIMDLE
 40
0.0
  9
$DIMEXE
 40
2.5
  9
$DIMTP
 40
0.0
  9
$DIMTM
 40
0.0
  9
$DIMTXT
 40
5.0
  9
$DIMCEN
 40
2.5
  9
$DIMTSZ
 40
0.0
  9
$DIMTOL
 70
     0
  9
$DIMLIM
 70
     0
  9
$DIMTIH
 70
     0
  9
$DIMTOH
 70
     1
  9
$DIMSE1
 70
     0
  9
$DIMSE2
 70
     0
  9
$DIMTAD
 70
     1
  9
$DIMZIN
 70
     8
  9
$DIMBLK
  1

  9
$DIMASO
 70
     1
  9
$DIMSHO
 70
     1
  9
$DIMPOST
  1

  9
$DIMAPOST
  1

  9
$DIMALT
 70
     0
  9
$DIMALTD
 70
     3
  9
$DIMALTF
 40
0.03937007874016
  9
$DIMLFAC
 40
1.0
  9
$DIMTOFL
 70
     1
  9
$DIMTVP
 40
0.0
  9
$DIMTIX
 70
     0
  9
$DIMSOXD
 70
     0
  9
$DIMSAH
 70
     0
  9
$DIMBLK1
  1

  9
$DIMBLK2
  1

  9
$DIMSTYLE
  2
机械标注
  9
$DIMCLRD
 70
     0
  9
$DIMCLRE
 70
     0
  9
$DIMCLRT
 70
     0
  9
$DIMTFAC
 40
1.0
  9
$DIMGAP
 40
0.625
  9
$DIMJUST
 70
     0
  9
$DIMSD1
 70
     0
  9
$DIMSD2
 70
     0
  9
$DIMTOLJ
 70
     0
  9
$DIMTZIN
 70
     8
  9
$DIMALTZ
 70
     0
  9
$DIMALTTZ
 70
     0
  9
$DIMUPT
 70
     0
  9
$DIMDEC
 70
     1
  9
$DIMTDEC
 70
     1
  9
$DIMALTU
 70
     2
  9
$DIMALTTD
 70
     3
  9
$DIMTXSTY
  7
数字与字母
  9
$DIMAUNIT
 70
     0
  9
$DIMADEC
 70
     0
  9
$DIMALTRND
 40
0.0
  9
$DIMAZIN
 70
     0
  9
$DIMDSEP
 70
    46
  9
$DIMATFIT
 70
     3
  9
$DIMFRAC
 70
     0
  9
$DIMLDRBLK
  1

  9
$DIMLUNIT
 70
     2
  9
$DIMLWD
 70
    -2
  9
$DIMLWE
 70
    -2
  9
$DIMTMOVE
 70
     0
  9
$LUNITS
 70
     2
  9
$LUPREC
 70
     1
  9
$AXISMODE
 70
     0
  9
$AXISUNIT
 10
0.0
 20
0.0
  9
$SKETCHINC
 40
1.0
  9
$FILLETRAD
 40
0.0
  9
$AUNITS
 70
     0
  9
$AUPREC
 70
     1
  9
$MENU
  1
.
  9
$ELEVATION
 40
0.0
  9
$PELEVATION
 40
0.0
  9
$THICKNESS
 40
0.0
  9
$LIMCHECK
 70
     0
  9
$CHAMFERA
 40
10.0
  9
$CHAMFERB
 40
10.0
  9
$CHAMFERC
 40
1.5
  9
$CHAMFERD
 40
0.7853981633974483
  9
$SKPOLY
 70
     0
  9
$TDCREATE
 40
2451911.603956590
  9
$TDUCREATE
 40
2451911.315956590
  9
$TDUPDATE
 40
2453618.499207540
  9
$TDUUPDATE
 40
2453618.211207540
  9
$TDINDWG
 40
0.051494550
  9
$TDUSRTIMER
 40
0.051494550
  9
$USRTIMER
 70
     1
  9
$ANGBASE
 50
0.0
  9
$ANGDIR
 70
     0
  9
$PDMODE
 70
     0
  9
$PDSIZE
 40
0.0
  9
$PLINEWID
 40
0.0
  9
$SPLFRAME
 70
     0
  9
$SPLINETYPE
 70
     6
  9
$SPLINESEGS
 70
     8
  9
$HANDSEED
  5
398
  9
$SURFTAB1
 70
     6
  9
$SURFTAB2
 70
     6
  9
$SURFTYPE
 70
     6
  9
$SURFU
 70
     6
  9
$SURFV
 70
     6
  9
$UCSBASE
  2

  9
$UCSNAME
  2

  9
$UCSORG
 10
0.0
 20
0.0
 30
0.0
  9
$UCSXDIR
 10
1.0
 20
0.0
 30
0.0
  9
$UCSYDIR
 10
0.0
 20
1.0
 30
0.0
  9
$UCSORTHOREF
  2

  9
$UCSORTHOVIEW
 70
     0
  9
$UCSORGTOP
 10
0.0
 20
0.0
 30
0.0
  9
$UCSORGBOTTOM
 10
0.0
 20
0.0
 30
0.0
  9
$UCSORGLEFT
 10
0.0
 20
0.0
 30
0.0
  9
$UCSORGRIGHT
 10
0.0
 20
0.0
 30
0.0
  9
$UCSORGFRONT
 10
0.0
 20
0.0
 30
0.0
  9
$UCSORGBACK
 10
0.0
 20
0.0
 30
0.0
  9
$PUCSBASE
  2

  9
$PUCSNAME
  2

  9
$PUCSORG
 10
0.0
 20
0.0
 30
0.0
  9
$PUCSXDIR
 10
1.0
 20
0.0
 30
0.0
  9
$PUCSYDIR
 10
0.0
 20
1.0
 30
0.0
  9
$PUCSORTHOREF
  2

  9
$PUCSORTHOVIEW
 70
     0
  9
$PUCSORGTOP
 10
0.0
 20
0.0
 30
0.0
  9
$PUCSORGBOTTOM
 10
0.0
 20
0.0
 30
0.0
  9
$PUCSORGLEFT
 10
0.0
 20
0.0
 30
0.0
  9
$PUCSORGRIGHT
 10
0.0
 20
0.0
 30
0.0
  9
$PUCSORGFRONT
 10
0.0
 20
0.0
 30
0.0
  9
$PUCSORGBACK
 10
0.0
 20
0.0
 30
0.0
  9
$USERI1
 70
     0
  9
$USERI2
 70
     0
  9
$USERI3
 70
     0
  9
$USERI4
 70
     0
  9
$USERI5
 70
     0
  9
$USERR1
 40
0.0
  9
$USERR2
 40
0.0
  9
$USERR3
 40
0.0
  9
$USERR4
 40
0.0
  9
$USERR5
 40
0.0
  9
$WORLDVIEW
 70
     1
  9
$SHADEDGE
 70
     3
  9
$SHADEDIF
 70
    70
  9
$TILEMODE
 70
     1
  9
$MAXACTVP
 70
    64
  9
$PINSBASE
 10
0.0
 20
0.0
 30
0.0
  9
$PLIMCHECK
 70
     0
  9
$PEXTMIN
 10
26.66999878883362
 20
20.31999878883363
 30
0.0
  9
$PEXTMAX
 10
240.0299890995026
 20
182.8799890995026
 30
0.0
  9
$PLIMMIN
 10
-6.350006103515625
 20
-6.349999904632568
  9
$PLIMMAX
 10
273.0499877929688
 20
209.5499939918518
  9
$UNITMODE
 70
     0
  9
$VISRETAIN
 70
     1
  9
$PLINEGEN
 70
     0
  9
$PSLTSCALE
 70
     1
  9
$TREEDEPTH
 70
  3020
  9
$CMLSTYLE
  2
Standard
  9
$CMLJUST
 70
     0
  9
$CMLSCALE
 40
20.0
  9
$PROXYGRAPHICS
 70
     1
  9
$MEASUREMENT
 70
     1
  9
$CELWEIGHT
370
    -1
  9
$ENDCAPS
280
     0
  9
$JOINSTYLE
280
     0
  9
$LWDISPLAY
290
     1
  9
$INSUNITS
 70
     4
  9
$HYPERLINKBASE
  1

  9
$STYLESHEET
  1

  9
$XEDIT
290
     1
  9
$CEPSNTYPE
380
     0
  9
$PSTYLEMODE
290
     0
  9
$FINGERPRINTGUID
  2
{35BD88C3-9548-11D2-9A29-0060089B3A3F}
  9
$VERSIONGUID
  2
{ECAC102E-92F4-4E81-A4DB-20A5EA228B45}
  9
$EXTNAMES
290
     1
  9
$PSVPSCALE
 40
0.0
  9
$OLESTARTUP
290
     0
  0
ENDSEC
  0
SECTION
  2
CLASSES
  0
CLASS
  1
ACDBDICTIONARYWDFLT
  2
AcDbDictionaryWithDefault
  3
AutoCAD 2000
 90
        0
280
     0
281
     0
  0
CLASS
  1
ACDBPLACEHOLDER
  2
AcDbPlaceHolder
  3
AutoCAD 2000
 90
        0
280
     0
281
     0
  0
CLASS
  1
LAYOUT
  2
AcDbLayout
  3
AutoCAD 2000
 90
        0
280
     0
281
     0
  0
CLASS
  1
DICTIONARYVAR
  2
AcDbDictionaryVar
  3
AutoCAD 2000
 90
        0
280
     0
281
     0
  0
CLASS
  1
DIMASSOC
  2
AcDbDimAssoc
  3
"AcDbDimAssoc|Product Desc:     AcDim ARX App For Dimension|Company:          Autodesk, Inc.|WEB Address:      www.autodesk.com"
 90
        0
280
     0
281
     0
  0
ENDSEC
  0
SECTION
  2
TABLES
  0
TABLE
  2
VPORT
  5
8
330
0
100
AcDbSymbolTable
 70
     1
  0
VPORT
  5
397
330
8
100
AcDbSymbolTableRecord
100
AcDbViewportTableRecord
  2
*Active
 70
     0
 10
0.0
 20
0.0
 11
1.0
 21
1.0
 12
210.0
 22
148.5
 13
0.0
 23
0.0
 14
10.0
 24
10.0
 15
10.0
 25
10.0
 16
0.0
 26
0.0
 36
1.0
 17
0.0
 27
0.0
 37
0.0
 40
300.7358490566038
 41
1.855042016806723
 42
50.0
 43
0.0
 44
0.0
 50
0.0
 51
0.0
 71
     0
 72
   100
 73
     1
 74
     3
 75
     0
 76
     0
 77
     0
 78
     0
281
     0
 65
     1
110
0.0
120
0.0
130
0.0
111
1.0
121
0.0
131
0.0
112
0.0
122
1.0
132
0.0
 79
     0
146
0.0
  0
ENDTAB
  0
TABLE
  2
LTYPE
  5
5
330
0
100
AcDbSymbolTable
 70
     4
  0
LTYPE
  5
14
330
5
100
AcDbSymbolTableRecord
100
AcDbLinetypeTableRecord
  2
ByBlock
 70
     0
  3

 72
    65
 73
     0
 40
0.0
  0
LTYPE
  5
15
330
5
100
AcDbSymbolTableRecord
100
AcDbLinetypeTableRecord
  2
ByLayer
 70
     0
  3

 72
    65
 73
     0
 40
0.0
  0
LTYPE
  5
16
330
5
100
AcDbSymbolTableRecord
100
AcDbLinetypeTableRecord
  2
Continuous
 70
     0
  3
Solid line
 72
    65
 73
     0
 40
0.0
  0
LTYPE
  5
91
330
5
100
AcDbSymbolTableRecord
100
AcDbLinetypeTableRecord
  2
ACAD_ISO08W100
 70
     0
  3
ISO long-dash short-dash ____ __ ____ __ ____ _
 72
    65
 73
     4
 40
36.0
 49
24.0
 74
     0
 49
-3.0
 74
     0
 49
6.0
 74
     0
 49
-3.0
 74
     0
  0
LTYPE
  5
92
330
5
100
AcDbSymbolTableRecord
100
AcDbLinetypeTableRecord
  2
ACAD_ISO09W100
 70
     0
  3
ISO long-dash double-short-dash ____ __ __ ____
 72
    65
 73
     6
 40
45.0
 49
24.0
 74
     0
 49
-3.0
 74
     0
 49
6.0
 74
     0
 49
-3.0
 74
     0
 49
6.0
 74
     0
 49
-3.0
 74
     0
  0
LTYPE
  5
93
330
5
100
AcDbSymbolTableRecord
100
AcDbLinetypeTableRecord
  2
ACAD_ISO02W100
 70
     0
  3
ISO dash __ __ __ __ __ __ __ __ __ __ __ __ __
 72
    65
 73
     2
 40
15.0
 49
12.0
 74
     0
 49
-3.0
 74
     0
  0
ENDTAB
  0
TABLE
  2
LAYER
  5
2
330
0
100
AcDbSymbolTable
 70
    11
  0
LAYER
  5
10
330
2
100
AcDbSymbolTableRecord
100
AcDbLayerTableRecord
  2
0
 70
     0
 62
    -7
  6
Continuous
370
    -3
390
F
  0
LAYER
  5
94
330
2
100
AcDbSymbolTableRecord
100
AcDbLayerTableRecord
  2
轮廓线
 70
     0
 62
    -7
  6
Continuous
370
    35
390
F
  0
LAYER
  5
95
330
2
100
AcDbSymbolTableRecord
100
AcDbLayerTableRecord
  2
点划线
 70
     0
 62
    -1
  6
ACAD_ISO08W100
370
    13
390
F
  0
LAYER
  5
96
330
2
100
AcDbSymbolTableRecord
100
AcDbLayerTableRecord
  2
双点划线
 70
     0
 62
    -3
  6
ACAD_ISO09W100
370
    -3
390
F
  0
LAYER
  5
97
330
2
100
AcDbSymbolTableRecord
100
AcDbLayerTableRecord
  2
隐藏线
 70
     0
 62
   -44
  6
ACAD_ISO02W100
370
    13
390
F
  0
LAYER
  5
98
330
2
100
AcDbSymbolTableRecord
100
AcDbLayerTableRecord
  2
剖面线
 70
     0
 62
  -142
  6
Continuous
370
    13
390
F
  0
LAYER
  5
99
330
2
100
AcDbSymbolTableRecord
100
AcDbLayerTableRecord
  2
波浪线
 70
     0
 62
    -7
  6
Continuous
370
    13
390
F
  0
LAYER
  5
9A
330
2
100
AcDbSymbolTableRecord
100
AcDbLayerTableRecord
  2
尺寸层
 70
     0
 62
    -5
  6
Continuous
370
    13
390
F
  0
LAYER
  5
9B
330
2
100
AcDbSymbolTableRecord
100
AcDbLayerTableRecord
  2
文本层
 70
     0
 62
  -212
  6
Continuous
370
    13
390
F
  0
LAYER
  5
9C
330
2
100
AcDbSymbolTableRecord
100
AcDbLayerTableRecord
  2
其它层
 70
     0
 62
    -7
  6
Continuous
370
    -3
390
F
  0
LAYER
  5
153
330
2
100
AcDbSymbolTableRecord
100
AcDbLayerTableRecord
  2
Defpoints
 70
     0
 62
    -7
  6
Continuous
290
     0
370
    -3
390
F
  0
ENDTAB
  0
TABLE
  2
STYLE
  5
3
330
0
100
AcDbSymbolTable
 70
     4
  0
STYLE
  5
11
330
3
100
AcDbSymbolTableRecord
100
AcDbTextStyleTableRecord
  2
Standard
 70
     0
 40
0.0
 41
1.0
 50
0.0
 71
     0
 42
2.5
  3
txt
  4

  0
STYLE
  5
90
330
3
100
AcDbSymbolTableRecord
100
AcDbTextStyleTableRecord
  2

 70
     1
 40
0.0
 41
1.0
 50
0.0
 71
     0
 42
2.5
  3
ltypeshp.shx
  4

  0
STYLE
  5
9D
330
3
100
AcDbSymbolTableRecord
100
AcDbTextStyleTableRecord
  2
汉字
 70
     0
 40
0.0
 41
0.7
 50
0.0
 71
     0
 42
2.5
  3
SIMFANG.TTF
  4

1001
ACAD
1000
FangSong_GB2312
1071
    34353
  0
STYLE
  5
9F
330
3
100
AcDbSymbolTableRecord
100
AcDbTextStyleTableRecord
  2
数字与字母
 70
     0
 40
0.0
 41
0.7
 50
0.0
 71
     0
 42
2.5
  3
romant.shx
  4

  0
ENDTAB
  0
TABLE
  2
VIEW
  5
6
330
0
100
AcDbSymbolTable
 70
     0
  0
ENDTAB
  0
TABLE
  2
UCS
  5
7
330
0
100
AcDbSymbolTable
 70
     0
  0
ENDTAB
  0
TABLE
  2
APPID
  5
9
330
0
100
AcDbSymbolTable
 70
     1
  0
APPID
  5
12
330
9
100
AcDbSymbolTableRecord
100
AcDbRegAppTableRecord
  2
ACAD
 70
     0
  0
ENDTAB
  0
TABLE
  2
DIMSTYLE
  5
A
330
0
100
AcDbSymbolTable
 70
     3
100
AcDbDimStyleTable
 71
     2
340
A1
340
27
  0
DIMSTYLE
105
27
330
A
100
AcDbSymbolTableRecord
100
AcDbDimStyleTableRecord
  2
ISO-25
 70
     0
 41
2.5
 42
0.625
 43
3.75
 44
1.25
 73
     0
 74
     0
 77
     1
 78
     8
140
2.5
141
2.5
143
0.03937007874016
144
1.0
146
1.0
147
0.625
171
     3
172
     1
176
     0
177
     0
178
     0
271
     2
272
     2
273
     2
274
     3
277
     2
278
    44
283
     0
284
     8
289
     3
340
11
371
    -2
372
    -2
341
0
342
0
343
0
344
0
  0
DIMSTYLE
105
A1
102
{ACAD_REACTORS
330
152
330
174
330
190
330
1AC
330
1C4
330
1DC
330
1F4
330
20C
330
2A7
330
2B4
330
2CC
330
2E4
330
2FC
102
}
330
A
100
AcDbSymbolTableRecord
100
AcDbDimStyleTableRecord
  2
机械标注
 70
     0
 41
3.5
 43
7.5
 44
2.5
 73
     0
 74
     1
 77
     1
 78
     8
140
5.0
141
2.5
143
0.03937007874016
144
1.0
146
1.0
147
0.625
171
     3
172
     1
176
     0
177
     0
178
     0
271
     1
272
     1
273
     2
274
     3
277
     2
278
    46
283
     0
284
     8
289
     3
340
9F
371
    -2
372
    -2
341
0
342
0
343
0
344
0
  0
DIMSTYLE
105
A2
330
A
100
AcDbSymbolTableRecord
100
AcDbDimStyleTableRecord
  2
机械标注$2
 70
     0
 41
3.5
 43
7.5
 44
2.5
 73
     1
 74
     1
 77
     1
 78
     8
140
5.0
141
2.5
143
0.03937007874016
144
1.0
146
1.0
147
0.625
171
     3
172
     1
176
     0
177
     0
178
     0
271
     1
272
     1
273
     2
274
     3
277
     2
278
    46
283
     0
284
     8
289
     3
340
9F
371
    -2
372
    -2
341
0
342
0
343
0
344
0
  0
ENDTAB
  0
TABLE
  2
BLOCK_RECORD
  5
1
330
0
100
AcDbSymbolTable
 70
    14
  0
BLOCK_RECORD
  5
1F
330
1
100
AcDbSymbolTableRecord
100
AcDbBlockTableRecord
  2
*Model_Space
340
22
  0
BLOCK_RECORD
  5
5E
330
1
100
AcDbSymbolTableRecord
100
AcDbBlockTableRecord
  2
*Paper_Space
340
5F
  0
BLOCK_RECORD
  5
59
330
1
100
AcDbSymbolTableRecord
100
AcDbBlockTableRecord
  2
*Paper_Space0
340
5A
  0
BLOCK_RECORD
  5
154
330
1
100
AcDbSymbolTableRecord
100
AcDbBlockTableRecord
  2
*D1
340
0
  0
BLOCK_RECORD
  5
175
330
1
100
AcDbSymbolTableRecord
100
AcDbBlockTableRecord
  2
*D2
340
0
  0
BLOCK_RECORD
  5
191
330
1
100
AcDbSymbolTableRecord
100
AcDbBlockTableRecord
  2
*D3
340
0
  0
BLOCK_RECORD
  5
1AD
330
1
100
AcDbSymbolTableRecord
100
AcDbBlockTableRecord
  2
*D4
340
0
  0
BLOCK_RECORD
  5
1C5
330
1
100
AcDbSymbolTableRecord
100
AcDbBlockTableRecord
  2
*D5
340
0
  0
BLOCK_RECORD
  5
1DD
330
1
100
AcDbSymbolTableRecord
100
AcDbBlockTableRecord
  2
*D6
340
0
  0
BLOCK_RECORD
  5
1F5
330
1
100
AcDbSymbolTableRecord
100
AcDbBlockTableRecord
  2
*D7
340
0
  0
BLOCK_RECORD
  5
20D
330
1
100
AcDbSymbolTableRecord
100
AcDbBlockTableRecord
  2
*D8
340
0
  0
BLOCK_RECORD
  5
2A8
330
1
100
AcDbSymbolTableRecord
100
AcDbBlockTableRecord
  2
*D9
340
0
  0
BLOCK_RECORD
  5
2B5
330
1
100
AcDbSymbolTableRecord
100
AcDbBlockTableRecord
  2
*D10
340
0
  0
BLOCK_RECORD
  5
2CD
330
1
100
AcDbSymbolTableRecord
100
AcDbBlockTableRecord
  2
*D11
340
0
  0
BLOCK_RECORD
  5
2E5
330
1
100
AcDbSymbolTableRecord
100
AcDbBlockTableRecord
  2
*D12
340
0
  0
BLOCK_RECORD
  5
2FD
330
1
100
AcDbSymbolTableRecord
100
AcDbBlockTableRecord
  2
*D13
340
0
  0
ENDTAB
  0
ENDSEC
  0
SECTION
  2
BLOCKS
  0
BLOCK
  5
20
330
1F
100
AcDbEntity
  8
0
100
AcDbBlockBegin
  2
*Model_Space
 70
     0
 10
0.0
 20
0.0
 30
0.0
  3
*Model_Space
  1

  0
ENDBLK
  5
21
330
1F
100
AcDbEntity
  8
0
100
AcDbBlockEnd
  0
BLOCK
  5
5B
330
59
100
AcDbEntity
  8
0
100
AcDbBlockBegin
  2
*Paper_Space0
 70
     0
 10
0.0
 20
0.0
 30
0.0
  3
*Paper_Space0
  1

  0
VIEWPORT
  5
74
330
59
100
AcDbEntity
  8
0
100
AcDbViewport
 10
134.8228915879863
 20
101.5999970436096
 30
0.0
 40
405.4378955490815
 41
218.5599527535252
 68
     0
 69
     0
 12
134.8228915879863
 22
101.5999970436096
 13
0.0
 23
0.0
 14
0.5
 24
0.5
 15
0.5
 25
0.5
 16
0.0
 26
0.0
 36
1.0
 17
0.0
 27
0.0
 37
0.0
 42
50.0
 43
0.0
 44
0.0
 45
218.5599527535252
 50
0.0
 51
0.0
 72
   100
 90
    32800
  1

281
     0
 71
     1
 74
     0
110
0.0
120
0.0
130
0.0
111
1.0
121
0.0
131
0.0
112
0.0
122
1.0
132
0.0
 79
     0
146
0.0
348
0
340
0
345
0
346
0
  0
VIEWPORT
  5
76
330
59
100
AcDbEntity
  8
0
100
AcDbViewport
 10
133.3499939441681
 20
101.5999939441681
 30
0.0
 40
213.3599903106689
 41
162.5599903106689
 68
     0
 69
     0
 12
236.9618437026537
 22
152.9483575124989
 13
0.0
 23
0.0
 14
10.0
 24
10.0
 15
10.0
 25
10.0
 16
0.0
 26
0.0
 36
1.0
 17
0.0
 27
0.0
 37
0.0
 42
50.0
 43
0.0
 44
0.0
 45
295.1066165157423
 50
0.0
 51
0.0
 72
   100
 90
    32864
  1

281
     0
 71
     1
 74
     0
110
0.0
120
0.0
130
0.0
111
1.0
121
0.0
131
0.0
112
0.0
122
1.0
132
0.0
 79
     0
146
0.0
348
0
340
0
345
0
346
0
  0
ENDBLK
  5
5C
330
59
100
AcDbEntity
  8
0
100
AcDbBlockEnd
  0
BLOCK
  5
60
330
5E
100
AcDbEntity
 67
     1
  8
0
100
AcDbBlockBegin
  2
*Paper_Space
 70
     0
 10
0.0
 20
0.0
 30
0.0
  3
*Paper_Space
  1

  0
ENDBLK
  5
61
330
5E
100
AcDbEntity
 67
     1
  8
0
100
AcDbBlockEnd
  0
BLOCK
  5
15E
330
154
100
AcDbEntity
  8
0
100
AcDbBlockBegin
  2
*D1
 70
     1
 10
0.0
 20
0.0
 30
0.0
  3
*D1
  1

  0
LINE
  5
338
330
154
100
AcDbEntity
  8
文本层
370
    -2
 62
     0
100
AcDbLine
 10
73.37046542726944
 20
211.8422829159561
 30
0.0
 11
73.37046542726944
 21
241.5653813695706
 31
0.0
  0
LINE
  5
339
330
154
100
AcDbEntity
  8
文本层
370
    -2
 62
     0
100
AcDbLine
 10
98.37046542726944
 20
218.342282915956
 30
0.0
 11
98.37046542726944
 21
241.5653813695706
 31
0.0
  0
LINE
  5
33A
330
154
100
AcDbEntity
  8
文本层
370
    -2
 62
     0
100
AcDbLine
 10
76.87046542726944
 20
239.0653813695706
 30
0.0
 11
94.87046542726944
 21
239.0653813695706
 31
0.0
  0
SOLID
  5
33B
330
154
100
AcDbEntity
  8
文本层
 62
     0
100
AcDbTrace
 38
0.0
 10
76.87046542726944
 20
239.6487147029039
 11
76.87046542726944
 21
238.4820480362372
 12
73.37046542726944
 22
239.0653813695706
 13
73.37046542726944
 23
239.0653813695706
  0
SOLID
  5
33C
330
154
100
AcDbEntity
  8
文本层
 62
     0
100
AcDbTrace
 38
0.0
 10
94.87046542726944
 20
239.6487147029039
 11
94.87046542726944
 21
238.4820480362372
 12
98.37046542726944
 22
239.0653813695706
 13
98.37046542726944
 23
239.0653813695706
  0
MTEXT
  5
33D
330
154
100
AcDbEntity
  8
文本层
 62
     0
100
AcDbMText
 10
85.87046542726944
 20
242.1903813695706
 30
0.0
210
0.0
220
0.0
230
1.0
 11
1.0
 21
0.0
 31
0.0
 40
5.0
 41
0.0
 71
     5
 72
     1
  1
25
  7
数字与字母
 73
     1
 44
1.0
  0
POINT
  5
33E
330
154
100
AcDbEntity
  8
Defpoints
 62
     0
100
AcDbPoint
 10
73.37046542726944
 20
211.8422829159561
 30
0.0
 50
0.0
  0
POINT
  5
33F
330
154
100
AcDbEntity
  8
Defpoints
 62
     0
100
AcDbPoint
 10
98.37046542726944
 20
218.342282915956
 30
0.0
 50
0.0
  0
POINT
  5
340
330
154
100
AcDbEntity
  8
Defpoints
 62
     0
100
AcDbPoint
 10
98.37046542726944
 20
239.0653813695706
 30
0.0
 50
0.0
  0
ENDBLK
  5
15F
330
154
100
AcDbEntity
  8
0
100
AcDbBlockEnd
  0
BLOCK
  5
181
330
175
100
AcDbEntity
  8
0
100
AcDbBlockBegin
  2
*D2
 70
     1
 10
0.0
 20
0.0
 30
0.0
  3
*D2
  1

  0
LINE
  5
35E
330
175
100
AcDbEntity
  8
文本层
370
    -2
 62
     0
100
AcDbLine
 10
95.37046542726942
 20
213.342282915956
 30
0.0
 11
95.37046542726942
 21
231.2323795093263
 31
0.0
  0
LINE
  5
35F
330
175
100
AcDbEntity
  8
文本层
370
    -2
 62
     0
100
AcDbLine
 10
98.37046542726944
 20
218.342282915956
 30
0.0
 11
98.37046542726944
 21
231.2323795093263
 31
0.0
  0
LINE
  5
360
330
175
100
AcDbEntity
  8
文本层
370
    -2
 62
     0
100
AcDbLine
 10
91.87046542726942
 20
228.7323795093263
 30
0.0
 11
88.37046542726942
 21
228.7323795093263
 31
0.0
  0
LINE
  5
361
330
175
100
AcDbEntity
  8
文本层
370
    -2
 62
     0
100
AcDbLine
 10
101.8704654272694
 20
228.7323795093263
 30
0.0
 11
108.9537987606028
 21
228.7323795093263
 31
0.0
  0
LINE
  5
362
330
175
100
AcDbEntity
  8
文本层
370
    -2
 62
     0
100
AcDbLine
 10
95.37046542726942
 20
228.7323795093263
 30
0.0
 11
98.37046542726944
 21
228.7323795093263
 31
0.0
  0
SOLID
  5
363
330
175
100
AcDbEntity
  8
文本层
 62
     0
100
AcDbTrace
 38
0.0
 10
91.87046542726942
 20
229.3157128426596
 11
91.87046542726942
 21
228.1490461759929
 12
95.37046542726942
 22
228.7323795093263
 13
95.37046542726942
 23
228.7323795093263
  0
SOLID
  5
364
330
175
100
AcDbEntity
  8
文本层
 62
     0
100
AcDbTrace
 38
0.0
 10
101.8704654272694
 20
229.3157128426596
 11
101.8704654272694
 21
228.1490461759929
 12
98.37046542726944
 22
228.7323795093263
 13
98.37046542726944
 23
228.7323795093263
  0
MTEXT
  5
365
330
175
100
AcDbEntity
  8
文本层
 62
     0
100
AcDbMText
 10
107.1621320939361
 20
231.8573795093263
 30
0.0
210
0.0
220
0.0
230
1.0
 11
1.0
 21
0.0
 31
0.0
 40
5.0
 41
0.0
 71
     5
 72
     1
  1
3
  7
数字与字母
 73
     1
 44
1.0
  0
POINT
  5
366
330
175
100
AcDbEntity
  8
Defpoints
 62
     0
100
AcDbPoint
 10
95.37046542726942
 20
213.342282915956
 30
0.0
 50
0.0
  0
POINT
  5
367
330
175
100
AcDbEntity
  8
Defpoints
 62
     0
100
AcDbPoint
 10
98.37046542726944
 20
218.342282915956
 30
0.0
 50
0.0
  0
POINT
  5
368
330
175
100
AcDbEntity
  8
Defpoints
 62
     0
100
AcDbPoint
 10
98.37046542726944
 20
228.7323795093263
 30
0.0
 50
0.0
  0
ENDBLK
  5
182
330
175
100
AcDbEntity
  8
0
100
AcDbBlockEnd
  0
BLOCK
  5
19D
330
191
100
AcDbEntity
  8
0
100
AcDbBlockBegin
  2
*D3
 70
     1
 10
0.0
 20
0.0
 30
0.0
  3
*D3
  1

  0
LINE
  5
353
330
191
100
AcDbEntity
  8
文本层
370
    -2
 62
     0
100
AcDbLine
 10
123.3704654272694
 20
218.342282915956
 30
0.0
 11
123.3704654272694
 21
231.2893335012041
 31
0.0
  0
LINE
  5
354
330
191
100
AcDbEntity
  8
文本层
370
    -2
 62
     0
100
AcDbLine
 10
126.3704654272694
 20
215.5270459774106
 30
0.0
 11
126.3704654272694
 21
231.2893335012041
 31
0.0
  0
LINE
  5
355
330
191
100
AcDbEntity
  8
文本层
370
    -2
 62
     0
100
AcDbLine
 10
119.8704654272694
 20
228.7893335012041
 30
0.0
 11
116.3704654272694
 21
228.7893335012041
 31
0.0
  0
LINE
  5
356
330
191
100
AcDbEntity
  8
文本层
370
    -2
 62
     0
100
AcDbLine
 10
129.8704654272694
 20
228.7893335012041
 30
0.0
 11
136.9537987606028
 21
228.7893335012041
 31
0.0
  0
LINE
  5
357
330
191
100
AcDbEntity
  8
文本层
370
    -2
 62
     0
100
AcDbLine
 10
123.3704654272694
 20
228.7893335012041
 30
0.0
 11
126.3704654272694
 21
228.7893335012041
 31
0.0
  0
SOLID
  5
358
330
191
100
AcDbEntity
  8
文本层
 62
     0
100
AcDbTrace
 38
0.0
 10
119.8704654272694
 20
229.3726668345374
 11
119.8704654272694
 21
228.2060001678707
 12
123.3704654272694
 22
228.7893335012041
 13
123.3704654272694
 23
228.7893335012041
  0
SOLID
  5
359
330
191
100
AcDbEntity
  8
文本层
 62
     0
100
AcDbTrace
 38
0.0
 10
129.8704654272694
 20
229.3726668345374
 11
129.8704654272694
 21
228.2060001678707
 12
126.3704654272694
 22
228.7893335012041
 13
126.3704654272694
 23
228.7893335012041
  0
MTEXT
  5
35A
330
191
100
AcDbEntity
  8
文本层
 62
     0
100
AcDbMText
 10
135.1621320939361
 20
231.9143335012041
 30
0.0
210
0.0
220
0.0
230
1.0
 11
1.0
 21
0.0
 31
0.0
 40
5.0
 41
0.0
 71
     5
 72
     1
  1
3
  7
数字与字母
 73
     1
 44
1.0
  0
POINT
  5
35B
330
191
100
AcDbEntity
  8
Defpoints
 62
     0
100
AcDbPoint
 10
123.3704654272694
 20
218.342282915956
 30
0.0
 50
0.0
  0
POINT
  5
35C
330
191
100
AcDbEntity
  8
Defpoints
 62
     0
100
AcDbPoint
 10
126.3704654272694
 20
215.5270459774106
 30
0.0
 50
0.0
  0
POINT
  5
35D
330
191
100
AcDbEntity
  8
Defpoints
 62
     0
100
AcDbPoint
 10
126.3704654272694
 20
228.7893335012041
 30
0.0
 50
0.0
  0
ENDBLK
  5
19E
330
191
100
AcDbEntity
  8
0
100
AcDbBlockEnd
  0
BLOCK
  5
1B7
330
1AD
100
AcDbEntity
  8
0
100
AcDbBlockBegin
  2
*D4
 70
     1
 10
0.0
 20
0.0
 30
0.0
  3
*D4
  1

  0
LINE
  5
34A
330
1AD
100
AcDbEntity
  8
文本层
370
    -2
 62
     0
100
AcDbLine
 10
123.3704654272694
 20
218.342282915956
 30
0.0
 11
123.3704654272694
 21
242.10637042076
 31
0.0
  0
LINE
  5
34B
330
1AD
100
AcDbEntity
  8
文本层
370
    -2
 62
     0
100
AcDbLine
 10
178.3704654272695
 20
213.0270459774106
 30
0.0
 11
178.3704654272695
 21
242.10637042076
 31
0.0
  0
LINE
  5
34C
330
1AD
100
AcDbEntity
  8
文本层
370
    -2
 62
     0
100
AcDbLine
 10
126.8704654272694
 20
239.60637042076
 30
0.0
 11
174.8704654272695
 21
239.60637042076
 31
0.0
  0
SOLID
  5
34D
330
1AD
100
AcDbEntity
  8
文本层
 62
     0
100
AcDbTrace
 38
0.0
 10
126.8704654272694
 20
240.1897037540933
 11
126.8704654272694
 21
239.0230370874266
 12
123.3704654272694
 22
239.60637042076
 13
123.3704654272694
 23
239.60637042076
  0
SOLID
  5
34E
330
1AD
100
AcDbEntity
  8
文本层
 62
     0
100
AcDbTrace
 38
0.0
 10
174.8704654272695
 20
240.1897037540933
 11
174.8704654272695
 21
239.0230370874266
 12
178.3704654272695
 22
239.60637042076
 13
178.3704654272695
 23
239.60637042076
  0
MTEXT
  5
34F
330
1AD
100
AcDbEntity
  8
文本层
 62
     0
100
AcDbMText
 10
150.8704654272694
 20
242.73137042076
 30
0.0
210
0.0
220
0.0
230
1.0
 11
1.0
 21
0.0
 31
0.0
 40
5.0
 41
0.0
 71
     5
 72
     1
  1
55
  7
数字与字母
 73
     1
 44
1.0
  0
POINT
  5
350
330
1AD
100
AcDbEntity
  8
Defpoints
 62
     0
100
AcDbPoint
 10
123.3704654272694
 20
218.342282915956
 30
0.0
 50
0.0
  0
POINT
  5
351
330
1AD
100
AcDbEntity
  8
Defpoints
 62
     0
100
AcDbPoint
 10
178.3704654272695
 20
213.0270459774106
 30
0.0
 50
0.0
  0
POINT
  5
352
330
1AD
100
AcDbEntity
  8
Defpoints
 62
     0
100
AcDbPoint
 10
178.3704654272695
 20
239.60637042076
 30
0.0
 50
0.0
  0
ENDBLK
  5
1B8
330
1AD
100
AcDbEntity
  8
0
100
AcDbBlockEnd
  0
BLOCK
  5
1CF
330
1C5
100
AcDbEntity
  8
0
100
AcDbBlockBegin
  2
*D5
 70
     1
 10
0.0
 20
0.0
 30
0.0
  3
*D5
  1

  0
LINE
  5
341
330
1C5
100
AcDbEntity
  8
文本层
370
    -2
 62
     0
100
AcDbLine
 10
178.3704654272695
 20
213.0270459774106
 30
0.0
 11
178.3704654272695
 21
242.10637042076
 31
0.0
  0
LINE
  5
342
330
1C5
100
AcDbEntity
  8
文本层
370
    -2
 62
     0
100
AcDbLine
 10
203.3901056753093
 20
214.3986578320335
 30
0.0
 11
203.3901056753093
 21
242.10637042076
 31
0.0
  0
LINE
  5
343
330
1C5
100
AcDbEntity
  8
文本层
370
    -2
 62
     0
100
AcDbLine
 10
181.8704654272695
 20
239.60637042076
 30
0.0
 11
199.8901056753093
 21
239.60637042076
 31
0.0
  0
SOLID
  5
344
330
1C5
100
AcDbEntity
  8
文本层
 62
     0
100
AcDbTrace
 38
0.0
 10
181.8704654272695
 20
240.1897037540933
 11
181.8704654272695
 21
239.0230370874266
 12
178.3704654272695
 22
239.60637042076
 13
178.3704654272695
 23
239.60637042076
  0
SOLID
  5
345
330
1C5
100
AcDbEntity
  8
文本层
 62
     0
100
AcDbTrace
 38
0.0
 10
199.8901056753093
 20
240.1897037540933
 11
199.8901056753093
 21
239.0230370874266
 12
203.3901056753093
 22
239.60637042076
 13
203.3901056753093
 23
239.60637042076
  0
MTEXT
  5
346
330
1C5
100
AcDbEntity
  8
文本层
 62
     0
100
AcDbMText
 10
190.8802855512894
 20
242.73137042076
 30
0.0
210
0.0
220
0.0
230
1.0
 11
1.0
 21
0.0
 31
0.0
 40
5.0
 41
0.0
 71
     5
 72
     1
  1
25
  7
数字与字母
 73
     1
 44
1.0
  0
POINT
  5
347
330
1C5
100
AcDbEntity
  8
Defpoints
 62
     0
100
AcDbPoint
 10
178.3704654272695
 20
213.0270459774106
 30
0.0
 50
0.0
  0
POINT
  5
348
330
1C5
100
AcDbEntity
  8
Defpoints
 62
     0
100
AcDbPoint
 10
203.3901056753093
 20
214.3986578320335
 30
0.0
 50
0.0
  0
POINT
  5
349
330
1C5
100
AcDbEntity
  8
Defpoints
 62
     0
100
AcDbPoint
 10
203.3901056753093
 20
239.60637042076
 30
0.0
 50
0.0
  0
ENDBLK
  5
1D0
330
1C5
100
AcDbEntity
  8
0
100
AcDbBlockEnd
  0
BLOCK
  5
1E7
330
1DD
100
AcDbEntity
  8
0
100
AcDbBlockBegin
  2
*D6
 70
     1
 10
0.0
 20
0.0
 30
0.0
  3
*D6
  1

  0
LINE
  5
31D
330
1DD
100
AcDbEntity
  8
文本层
370
    -2
 62
     0
100
AcDbLine
 10
203.3901056753093
 20
214.3986578320335
 30
0.0
 11
203.3901056753093
 21
242.10637042076
 31
0.0
  0
LINE
  5
31E
330
1DD
100
AcDbEntity
  8
文本层
370
    -2
 62
     0
100
AcDbLine
 10
228.3704654272695
 20
211.5270459774106
 30
0.0
 11
228.3704654272695
 21
242.10637042076
 31
0.0
  0
LINE
  5
31F
330
1DD
100
AcDbEntity
  8
文本层
370
    -2
 62
     0
100
AcDbLine
 10
206.8901056753093
 20
239.60637042076
 30
0.0
 11
224.8704654272695
 21
239.60637042076
 31
0.0
  0
SOLID
  5
320
330
1DD
100
AcDbEntity
  8
文本层
 62
     0
100
AcDbTrace
 38
0.0
 10
206.8901056753093
 20
240.1897037540933
 11
206.8901056753093
 21
239.0230370874266
 12
203.3901056753093
 22
239.60637042076
 13
203.3901056753093
 23
239.60637042076
  0
SOLID
  5
321
330
1DD
100
AcDbEntity
  8
文本层
 62
     0
100
AcDbTrace
 38
0.0
 10
224.8704654272695
 20
240.1897037540933
 11
224.8704654272695
 21
239.0230370874266
 12
228.3704654272695
 22
239.60637042076
 13
228.3704654272695
 23
239.60637042076
  0
MTEXT
  5
322
330
1DD
100
AcDbEntity
  8
文本层
 62
     0
100
AcDbMText
 10
215.8802855512894
 20
242.73137042076
 30
0.0
210
0.0
220
0.0
230
1.0
 11
1.0
 21
0.0
 31
0.0
 40
5.0
 41
0.0
 71
     5
 72
     1
  1
25
  7
数字与字母
 73
     1
 44
1.0
  0
POINT
  5
323
330
1DD
100
AcDbEntity
  8
Defpoints
 62
     0
100
AcDbPoint
 10
203.3901056753093
 20
214.3986578320335
 30
0.0
 50
0.0
  0
POINT
  5
324
330
1DD
100
AcDbEntity
  8
Defpoints
 62
     0
100
AcDbPoint
 10
228.3704654272695
 20
211.5270459774106
 30
0.0
 50
0.0
  0
POINT
  5
325
330
1DD
100
AcDbEntity
  8
Defpoints
 62
     0
100
AcDbPoint
 10
228.3704654272695
 20
239.60637042076
 30
0.0
 50
0.0
  0
ENDBLK
  5
1E8
330
1DD
100
AcDbEntity
  8
0
100
AcDbBlockEnd
  0
BLOCK
  5
1FF
330
1F5
100
AcDbEntity
  8
0
100
AcDbBlockBegin
  2
*D7
 70
     1
 10
0.0
 20
0.0
 30
0.0
  3
*D7
  1

  0
LINE
  5
386
330
1F5
100
AcDbEntity
  8
文本层
370
    -2
 62
     0
100
AcDbLine
 10
228.3704654272695
 20
211.5270459774106
 30
0.0
 11
228.3704654272695
 21
242.10637042076
 31
0.0
  0
LINE
  5
387
330
1F5
100
AcDbEntity
  8
文本层
370
    -2
 62
     0
100
AcDbLine
 10
313.3704654272694
 20
209.342282915956
 30
0.0
 11
313.3704654272694
 21
242.10637042076
 31
0.0
  0
LINE
  5
388
330
1F5
100
AcDbEntity
  8
文本层
370
    -2
 62
     0
100
AcDbLine
 10
231.8704654272695
 20
239.60637042076
 30
0.0
 11
309.8704654272694
 21
239.60637042076
 31
0.0
  0
SOLID
  5
389
330
1F5
100
AcDbEntity
  8
文本层
 62
     0
100
AcDbTrace
 38
0.0
 10
231.8704654272695
 20
240.1897037540933
 11
231.8704654272695
 21
239.0230370874266
 12
228.3704654272695
 22
239.60637042076
 13
228.3704654272695
 23
239.60637042076
  0
SOLID
  5
38A
330
1F5
100
AcDbEntity
  8
文本层
 62
     0
100
AcDbTrace
 38
0.0
 10
309.8704654272694
 20
240.1897037540933
 11
309.8704654272694
 21
239.0230370874266
 12
313.3704654272694
 22
239.60637042076
 13
313.3704654272694
 23
239.60637042076
  0
MTEXT
  5
38B
330
1F5
100
AcDbEntity
  8
文本层
 62
     0
100
AcDbMText
 10
270.8704654272694
 20
242.73137042076
 30
0.0
210
0.0
220
0.0
230
1.0
 11
1.0
 21
0.0
 31
0.0
 40
5.0
 41
0.0
 71
     5
 72
     1
  1
85
  7
数字与字母
 73
     1
 44
1.0
  0
POINT
  5
38C
330
1F5
100
AcDbEntity
  8
Defpoints
 62
     0
100
AcDbPoint
 10
228.3704654272695
 20
211.5270459774106
 30
0.0
 50
0.0
  0
POINT
  5
38D
330
1F5
100
AcDbEntity
  8
Defpoints
 62
     0
100
AcDbPoint
 10
313.3704654272694
 20
209.342282915956
 30
0.0
 50
0.0
  0
POINT
  5
38E
330
1F5
100
AcDbEntity
  8
Defpoints
 62
     0
100
AcDbPoint
 10
313.3704654272694
 20
239.60637042076
 30
0.0
 50
0.0
  0
ENDBLK
  5
200
330
1F5
100
AcDbEntity
  8
0
100
AcDbBlockEnd
  0
BLOCK
  5
219
330
20D
100
AcDbEntity
  8
0
100
AcDbBlockBegin
  2
*D8
 70
     1
 10
0.0
 20
0.0
 30
0.0
  3
*D8
  1

  0
LINE
  5
37B
330
20D
100
AcDbEntity
  8
文本层
370
    -2
 62
     0
100
AcDbLine
 10
228.3704654272695
 20
211.5270459774106
 30
0.0
 11
228.3704654272695
 21
230.4455028942648
 31
0.0
  0
LINE
  5
37C
330
20D
100
AcDbEntity
  8
文本层
370
    -2
 62
     0
100
AcDbLine
 10
230.3704654272694
 20
210.842282915956
 30
0.0
 11
230.3704654272694
 21
230.4455028942648
 31
0.0
  0
LINE
  5
37D
330
20D
100
AcDbEntity
  8
文本层
370
    -2
 62
     0
100
AcDbLine
 10
224.8704654272695
 20
227.9455028942648
 30
0.0
 11
221.3704654272695
 21
227.9455028942648
 31
0.0
  0
LINE
  5
37E
330
20D
100
AcDbEntity
  8
文本层
370
    -2
 62
     0
100
AcDbLine
 10
233.8704654272694
 20
227.9455028942648
 30
0.0
 11
240.9537987606028
 21
227.9455028942648
 31
0.0
  0
LINE
  5
37F
330
20D
100
AcDbEntity
  8
文本层
370
    -2
 62
     0
100
AcDbLine
 10
228.3704654272695
 20
227.9455028942648
 30
0.0
 11
230.3704654272694
 21
227.9455028942648
 31
0.0
  0
SOLID
  5
380
330
20D
100
AcDbEntity
  8
文本层
 62
     0
100
AcDbTrace
 38
0.0
 10
224.8704654272695
 20
228.5288362275981
 11
224.8704654272695
 21
227.3621695609314
 12
228.3704654272695
 22
227.9455028942648
 13
228.3704654272695
 23
227.9455028942648
  0
SOLID
  5
381
330
20D
100
AcDbEntity
  8
文本层
 62
     0
100
AcDbTrace
 38
0.0
 10
233.8704654272694
 20
228.5288362275981
 11
233.8704654272694
 21
227.3621695609314
 12
230.3704654272694
 22
227.9455028942648
 13
230.3704654272694
 23
227.9455028942648
  0
MTEXT
  5
382
330
20D
100
AcDbEntity
  8
文本层
 62
     0
100
AcDbMText
 10
239.1621320939361
 20
231.0705028942648
 30
0.0
210
0.0
220
0.0
230
1.0
 11
1.0
 21
0.0
 31
0.0
 40
5.0
 41
0.0
 71
     5
 72
     1
  1
2
  7
数字与字母
 73
     1
 44
1.0
  0
POINT
  5
383
330
20D
100
AcDbEntity
  8
Defpoints
 62
     0
100
AcDbPoint
 10
228.3704654272695
 20
211.5270459774106
 30
0.0
 50
0.0
  0
POINT
  5
384
330
20D
100
AcDbEntity
  8
Defpoints
 62
     0
100
AcDbPoint
 10
230.3704654272694
 20
210.842282915956
 30
0.0
 50
0.0
  0
POINT
  5
385
330
20D
100
AcDbEntity
  8
Defpoints
 62
     0
100
AcDbPoint
 10
230.3704654272694
 20
227.9455028942648
 30
0.0
 50
0.0
  0
ENDBLK
  5
21A
330
20D
100
AcDbEntity
  8
0
100
AcDbBlockEnd
  0
BLOCK
  5
2B2
330
2A8
100
AcDbEntity
  8
0
100
AcDbBlockBegin
  2
*D9
 70
     1
 10
0.0
 20
0.0
 30
0.0
  3
*D9
  1

  0
LINE
  5
314
330
2A8
100
AcDbEntity
  8
文本层
370
    -2
 62
     0
100
AcDbLine
 10
73.37046542726944
 20
211.8422829159561
 30
0.0
 11
73.37046542726944
 21
258.2876003593479
 31
0.0
  0
LINE
  5
315
330
2A8
100
AcDbEntity
  8
文本层
370
    -2
 62
     0
100
AcDbLine
 10
313.3704654272694
 20
213.070407052915
 30
0.0
 11
313.3704654272694
 21
258.2876003593479
 31
0.0
  0
LINE
  5
316
330
2A8
100
AcDbEntity
  8
文本层
370
    -2
 62
     0
100
AcDbLine
 10
76.87046542726944
 20
255.7876003593479
 30
0.0
 11
309.8704654272694
 21
255.7876003593479
 31
0.0
  0
SOLID
  5
317
330
2A8
100
AcDbEntity
  8
文本层
 62
     0
100
AcDbTrace
 38
0.0
 10
76.87046542726944
 20
256.3709336926813
 11
76.87046542726944
 21
255.2042670260146
 12
73.37046542726944
 22
255.7876003593479
 13
73.37046542726944
 23
255.7876003593479
  0
SOLID
  5
318
330
2A8
100
AcDbEntity
  8
文本层
 62
     0
100
AcDbTrace
 38
0.0
 10
309.8704654272694
 20
256.3709336926813
 11
309.8704654272694
 21
255.2042670260146
 12
313.3704654272694
 22
255.7876003593479
 13
313.3704654272694
 23
255.7876003593479
  0
MTEXT
  5
319
330
2A8
100
AcDbEntity
  8
文本层
 62
     0
100
AcDbMText
 10
193.3704654272694
 20
258.9126003593479
 30
0.0
210
0.0
220
0.0
230
1.0
 11
1.0
 21
0.0
 31
0.0
 40
5.0
 41
0.0
 71
     5
 72
     1
  1
240
  7
数字与字母
 73
     1
 44
1.0
  0
POINT
  5
31A
330
2A8
100
AcDbEntity
  8
Defpoints
 62
     0
100
AcDbPoint
 10
73.37046542726944
 20
211.8422829159561
 30
0.0
 50
0.0
  0
POINT
  5
31B
330
2A8
100
AcDbEntity
  8
Defpoints
 62
     0
100
AcDbPoint
 10
313.3704654272694
 20
213.070407052915
 30
0.0
 50
0.0
  0
POINT
  5
31C
330
2A8
100
AcDbEntity
  8
Defpoints
 62
     0
100
AcDbPoint
 10
313.3704654272694
 20
255.7876003593479
 30
0.0
 50
0.0
  0
ENDBLK
  5
2B3
330
2A8
100
AcDbEntity
  8
0
100
AcDbBlockEnd
  0
BLOCK
  5
2BF
330
2B5
100
AcDbEntity
  8
0
100
AcDbBlockBegin
  2
*D10
 70
     1
 10
0.0
 20
0.0
 30
0.0
  3
*D10
  1

  0
LINE
  5
326
330
2B5
100
AcDbEntity
  8
文本层
370
    -2
 62
     0
100
AcDbLine
 10
125.8704654272694
 20
95.09856873122408
 30
0.0
 11
125.8704654272694
 21
50.68899286415331
 31
0.0
  0
LINE
  5
327
330
2B5
100
AcDbEntity
  8
文本层
370
    -2
 62
     0
100
AcDbLine
 10
170.8704654272694
 20
94.58598024003174
 30
0.0
 11
170.8704654272694
 21
50.68899286415331
 31
0.0
  0
LINE
  5
328
330
2B5
100
AcDbEntity
  8
文本层
370
    -2
 62
     0
100
AcDbLine
 10
129.3704654272694
 20
53.18899286415331
 30
0.0
 11
167.3704654272694
 21
53.18899286415331
 31
0.0
  0
SOLID
  5
329
330
2B5
100
AcDbEntity
  8
文本层
 62
     0
100
AcDbTrace
 38
0.0
 10
129.3704654272694
 20
53.77232619748664
 11
129.3704654272694
 21
52.60565953081997
 12
125.8704654272694
 22
53.18899286415331
 13
125.8704654272694
 23
53.18899286415331
  0
SOLID
  5
32A
330
2B5
100
AcDbEntity
  8
文本层
 62
     0
100
AcDbTrace
 38
0.0
 10
167.3704654272694
 20
53.77232619748664
 11
167.3704654272694
 21
52.60565953081997
 12
170.8704654272694
 22
53.18899286415331
 13
170.8704654272694
 23
53.18899286415331
  0
MTEXT
  5
32B
330
2B5
100
AcDbEntity
  8
文本层
 62
     0
100
AcDbMText
 10
148.3704654272694
 20
56.31399286415331
 30
0.0
210
0.0
220
0.0
230
1.0
 11
1.0
 21
0.0
 31
0.0
 40
5.0
 41
0.0
 71
     5
 72
     1
  1
45
  7
数字与字母
 73
     1
 44
1.0
  0
POINT
  5
32C
330
2B5
100
AcDbEntity
  8
Defpoints
 62
     0
100
AcDbPoint
 10
125.8704654272694
 20
95.09856873122408
 30
0.0
 50
0.0
  0
POINT
  5
32D
330
2B5
100
AcDbEntity
  8
Defpoints
 62
     0
100
AcDbPoint
 10
170.8704654272694
 20
94.58598024003174
 30
0.0
 50
0.0
  0
POINT
  5
32E
330
2B5
100
AcDbEntity
  8
Defpoints
 62
     0
100
AcDbPoint
 10
170.8704654272694
 20
53.18899286415331
 30
0.0
 50
0.0
  0
ENDBLK
  5
2C0
330
2B5
100
AcDbEntity
  8
0
100
AcDbBlockEnd
  0
BLOCK
  5
2D7
330
2CD
100
AcDbEntity
  8
0
100
AcDbBlockBegin
  2
*D11
 70
     1
 10
0.0
 20
0.0
 30
0.0
  3
*D11
  1

  0
LINE
  5
369
330
2CD
100
AcDbEntity
  8
文本层
370
    -2
 62
     0
100
AcDbLine
 10
270.8704654272694
 20
95.09856873122408
 30
0.0
 11
270.8704654272694
 21
50.68899286415331
 31
0.0
  0
LINE
  5
36A
330
2CD
100
AcDbEntity
  8
文本层
370
    -2
 62
     0
100
AcDbLine
 10
305.8704654272694
 20
94.88213842399446
 30
0.0
 11
305.8704654272694
 21
50.68899286415331
 31
0.0
  0
LINE
  5
36B
330
2CD
100
AcDbEntity
  8
文本层
370
    -2
 62
     0
100
AcDbLine
 10
274.3704654272694
 20
53.18899286415331
 30
0.0
 11
302.3704654272694
 21
53.18899286415331
 31
0.0
  0
SOLID
  5
36C
330
2CD
100
AcDbEntity
  8
文本层
 62
     0
100
AcDbTrace
 38
0.0
 10
274.3704654272694
 20
53.77232619748664
 11
274.3704654272694
 21
52.60565953081997
 12
270.8704654272694
 22
53.18899286415331
 13
270.8704654272694
 23
53.18899286415331
  0
SOLID
  5
36D
330
2CD
100
AcDbEntity
  8
文本层
 62
     0
100
AcDbTrace
 38
0.0
 10
302.3704654272694
 20
53.77232619748664
 11
302.3704654272694
 21
52.60565953081997
 12
305.8704654272694
 22
53.18899286415331
 13
305.8704654272694
 23
53.18899286415331
  0
MTEXT
  5
36E
330
2CD
100
AcDbEntity
  8
文本层
 62
     0
100
AcDbMText
 10
288.3704654272694
 20
56.31399286415331
 30
0.0
210
0.0
220
0.0
230
1.0
 11
1.0
 21
0.0
 31
0.0
 40
5.0
 41
0.0
 71
     5
 72
     1
  1
35
  7
数字与字母
 73
     1
 44
1.0
  0
POINT
  5
36F
330
2CD
100
AcDbEntity
  8
Defpoints
 62
     0
100
AcDbPoint
 10
270.8704654272694
 20
95.09856873122408
 30
0.0
 50
0.0
  0
POINT
  5
370
330
2CD
100
AcDbEntity
  8
Defpoints
 62
     0
100
AcDbPoint
 10
305.8704654272694
 20
94.88213842399446
 30
0.0
 50
0.0
  0
POINT
  5
371
330
2CD
100
AcDbEntity
  8
Defpoints
 62
     0
100
AcDbPoint
 10
305.8704654272694
 20
53.18899286415331
 30
0.0
 50
0.0
  0
ENDBLK
  5
2D8
330
2CD
100
AcDbEntity
  8
0
100
AcDbBlockEnd
  0
BLOCK
  5
2EF
330
2E5
100
AcDbEntity
  8
0
100
AcDbBlockBegin
  2
*D12
 70
     1
 10
0.0
 20
0.0
 30
0.0
  3
*D12
  1

  0
LINE
  5
32F
330
2E5
100
AcDbEntity
  8
文本层
370
    -2
 62
     0
100
AcDbLine
 10
174.5559039919235
 20
103.0985687312241
 30
0.0
 11
194.3354353344805
 21
103.0985687312241
 31
0.0
  0
LINE
  5
330
330
2E5
100
AcDbEntity
  8
文本层
370
    -2
 62
     0
100
AcDbLine
 10
174.5559039919235
 20
87.09856873122406
 30
0.0
 11
194.3354353344805
 21
87.09856873122406
 31
0.0
  0
LINE
  5
331
330
2E5
100
AcDbEntity
  8
文本层
370
    -2
 62
     0
100
AcDbLine
 10
191.8354353344805
 20
99.59856873122408
 30
0.0
 11
191.8354353344805
 21
90.59856873122406
 31
0.0
  0
SOLID
  5
332
330
2E5
100
AcDbEntity
  8
文本层
 62
     0
100
AcDbTrace
 38
0.0
 10
191.2521020011472
 20
99.59856873122408
 11
192.4187686678139
 21
99.59856873122408
 12
191.8354353344805
 22
103.0985687312241
 13
191.8354353344805
 23
103.0985687312241
  0
SOLID
  5
333
330
2E5
100
AcDbEntity
  8
文本层
 62
     0
100
AcDbTrace
 38
0.0
 10
191.2521020011472
 20
90.59856873122406
 11
192.4187686678139
 21
90.59856873122406
 12
191.8354353344805
 22
87.09856873122406
 13
191.8354353344805
 23
87.09856873122406
  0
MTEXT
  5
334
330
2E5
100
AcDbEntity
  8
文本层
 62
     0
100
AcDbMText
 10
188.7104353344805
 20
95.09856873122409
 30
0.0
210
0.0
220
0.0
230
1.0
 11
6.123031769111886E-17
 21
1.0
 31
0.0
 40
5.0
 41
0.0
 71
     5
 72
     1
  1
16
  7
数字与字母
 73
     1
 44
1.0
  0
POINT
  5
335
330
2E5
100
AcDbEntity
  8
Defpoints
 62
     0
100
AcDbPoint
 10
174.5559039919235
 20
103.0985687312241
 30
0.0
 50
0.0
  0
POINT
  5
336
330
2E5
100
AcDbEntity
  8
Defpoints
 62
     0
100
AcDbPoint
 10
174.5559039919235
 20
87.09856873122406
 30
0.0
 50
0.0
  0
POINT
  5
337
330
2E5
100
AcDbEntity
  8
Defpoints
 62
     0
100
AcDbPoint
 10
191.8354353344805
 20
87.09856873122406
 30
0.0
 50
0.0
  0
ENDBLK
  5
2F0
330
2E5
100
AcDbEntity
  8
0
100
AcDbBlockEnd
  0
BLOCK
  5
307
330
2FD
100
AcDbEntity
  8
0
100
AcDbBlockBegin
  2
*D13
 70
     1
 10
0.0
 20
0.0
 30
0.0
  3
*D13
  1

  0
LINE
  5
372
330
2FD
100
AcDbEntity
  8
文本层
370
    -2
 62
     0
100
AcDbLine
 10
309.9492494556084
 20
101.0985687312241
 30
0.0
 11
328.2373593799286
 21
101.0985687312241
 31
0.0
  0
LINE
  5
373
330
2FD
100
AcDbEntity
  8
文本层
370
    -2
 62
     0
100
AcDbLine
 10
309.9492494556084
 20
89.09856873122408
 30
0.0
 11
328.2373593799286
 21
89.09856873122408
 31
0.0
  0
LINE
  5
374
330
2FD
100
AcDbEntity
  8
文本层
370
    -2
 62
     0
100
AcDbLine
 10
325.7373593799286
 20
97.59856873122408
 30
0.0
 11
325.7373593799286
 21
92.59856873122408
 31
0.0
  0
SOLID
  5
375
330
2FD
100
AcDbEntity
  8
文本层
 62
     0
100
AcDbTrace
 38
0.0
 10
325.1540260465953
 20
97.59856873122408
 11
326.320692713262
 21
97.59856873122408
 12
325.7373593799286
 22
101.0985687312241
 13
325.7373593799286
 23
101.0985687312241
  0
SOLID
  5
376
330
2FD
100
AcDbEntity
  8
文本层
 62
     0
100
AcDbTrace
 38
0.0
 10
325.1540260465953
 20
92.59856873122408
 11
326.320692713262
 21
92.59856873122408
 12
325.7373593799286
 22
89.09856873122408
 13
325.7373593799286
 23
89.09856873122408
  0
MTEXT
  5
377
330
2FD
100
AcDbEntity
  8
文本层
 62
     0
100
AcDbMText
 10
322.6123593799286
 20
95.09856873122413
 30
0.0
210
0.0
220
0.0
230
1.0
 11
6.123031769111886E-17
 21
1.0
 31
0.0
 40
5.0
 41
0.0
 71
     5
 72
     1
  1
12
  7
数字与字母
 73
     1
 44
1.0
  0
POINT
  5
378
330
2FD
100
AcDbEntity
  8
Defpoints
 62
     0
100
AcDbPoint
 10
309.9492494556084
 20
101.0985687312241
 30
0.0
 50
0.0
  0
POINT
  5
379
330
2FD
100
AcDbEntity
  8
Defpoints
 62
     0
100
AcDbPoint
 10
309.9492494556084
 20
89.09856873122408
 30
0.0
 50
0.0
  0
POINT
  5
37A
330
2FD
100
AcDbEntity
  8
Defpoints
 62
     0
100
AcDbPoint
 10
325.7373593799286
 20
89.09856873122408
 30
0.0
 50
0.0
  0
ENDBLK
  5
308
330
2FD
100
AcDbEntity
  8
0
100
AcDbBlockEnd
  0
ENDSEC
  0
SECTION
  2
ENTITIES
  0
LINE
  5
A9
330
1F
100
AcDbEntity
  8
点划线
100
AcDbLine
 10
63.20078914568239
 20
190.5270459774106
 30
0.0
 11
321.6802137081399
 21
190.5270459774106
 31
0.0
  0
LINE
  5
BD
102
{ACAD_REACTORS
330
16A
102
}
330
1F
100
AcDbEntity
  8
轮廓线
100
AcDbLine
 10
73.37046542726944
 20
190.842282915956
 30
0.0
 11
73.37046542726944
 21
211.8422829159561
 31
0.0
  0
LINE
  5
BE
102
{ACAD_REACTORS
330
18F
102
}
330
1F
100
AcDbEntity
  8
轮廓线
100
AcDbLine
 10
74.87046542726944
 20
213.3422829159561
 30
0.0
 11
95.37046542726942
 21
213.342282915956
 31
0.0
  0
LINE
  5
BF
330
1F
100
AcDbEntity
  8
轮廓线
100
AcDbLine
 10
95.37046542726942
 20
213.342282915956
 30
0.0
 11
95.37046542726944
 21
190.842282915956
 31
0.0
  0
LINE
  5
C0
330
1F
100
AcDbEntity
  8
轮廓线
100
AcDbLine
 10
98.37046542726944
 20
190.842282915956
 30
0.0
 11
98.37046542726944
 21
218.342282915956
 31
0.0
  0
LINE
  5
C1
102
{ACAD_REACTORS
330
16A
330
1AB
102
}
330
1F
100
AcDbEntity
  8
轮廓线
100
AcDbLine
 10
98.37046542726944
 20
218.342282915956
 30
0.0
 11
123.3704654272694
 21
218.342282915956
 31
0.0
  0
LINE
  5
C2
330
1F
100
AcDbEntity
  8
轮廓线
100
AcDbLine
 10
123.3704654272694
 20
218.342282915956
 30
0.0
 11
123.3704654272694
 21
190.842282915956
 31
0.0
  0
LINE
  5
C8
102
{ACAD_REACTORS
330
1F3
330
20B
102
}
330
1F
100
AcDbEntity
  8
轮廓线
100
AcDbLine
 10
228.3704654272695
 20
211.5270459774106
 30
0.0
 11
228.3704654272694
 21
190.842282915956
 31
0.0
  0
LINE
  5
C9
330
1F
100
AcDbEntity
  8
轮廓线
100
AcDbLine
 10
230.3704654272694
 20
190.842282915956
 30
0.0
 11
230.3704654272694
 21
210.842282915956
 31
0.0
  0
LINE
  5
CA
102
{ACAD_REACTORS
330
227
102
}
330
1F
100
AcDbEntity
  8
轮廓线
100
AcDbLine
 10
230.3704654272694
 20
210.842282915956
 30
0.0
 11
311.8704654272694
 21
210.842282915956
 31
0.0
  0
LINE
  5
CB
102
{ACAD_REACTORS
330
20B
102
}
330
1F
100
AcDbEntity
  8
轮廓线
100
AcDbLine
 10
313.3704654272694
 20
209.342282915956
 30
0.0
 11
313.3704654272694
 21
190.842282915956
 31
0.0
  0
LINE
  5
CC
330
1F
100
AcDbEntity
  8
轮廓线
100
AcDbLine
 10
95.37046542726942
 20
212.342282915956
 30
0.0
 11
98.37046542726944
 21
212.342282915956
 31
0.0
  0
LINE
  5
CE
330
1F
100
AcDbEntity
  8
轮廓线
100
AcDbLine
 10
230.3704654272694
 20
210.342282915956
 30
0.0
 11
228.3704654272694
 21
210.342282915956
 31
0.0
  0
LINE
  5
D6
330
1F
100
AcDbEntity
  8
轮廓线
100
AcDbLine
 10
126.3704654272694
 20
190.5270459774106
 30
0.0
 11
126.3704654272694
 21
215.5270459774106
 31
0.0
  0
LINE
  5
D7
102
{ACAD_REACTORS
330
1AB
102
}
330
1F
100
AcDbEntity
  8
轮廓线
100
AcDbLine
 10
126.3704654272694
 20
215.5270459774106
 30
0.0
 11
169.0403384083473
 21
215.5270459774106
 31
0.0
  0
LINE
  5
D9
330
1F
100
AcDbEntity
  8
轮廓线
100
AcDbLine
 10
126.3704654272694
 20
214.5270459774106
 30
0.0
 11
123.3704654272694
 21
214.5270459774106
 31
0.0
  0
LINE
  5
DC
330
1F
100
AcDbEntity
  8
轮廓线
100
AcDbLine
 10
178.3704654272695
 20
213.0270459774106
 30
0.0
 11
178.3704654272694
 21
190.5270459774106
 31
0.0
  0
LINE
  5
DD
330
1F
100
AcDbEntity
  8
轮廓线
100
AcDbLine
 10
178.3704654272695
 20
213.0270459774106
 30
0.0
 11
169.0403384083473
 21
215.5270459774106
 31
0.0
  0
LINE
  5
DE
102
{ACAD_REACTORS
330
1C3
330
1DB
102
}
330
1F
100
AcDbEntity
  8
轮廓线
100
AcDbLine
 10
178.3704654272695
 20
213.0270459774106
 30
0.0
 11
226.8704654272695
 21
213.0270459774106
 31
0.0
  0
LINE
  5
DF
330
1F
100
AcDbEntity
  8
轮廓线
100
AcDbLine
 10
73.37046542726944
 20
211.8422829159561
 30
0.0
 11
74.87046542726944
 21
213.3422829159561
 31
0.0
  0
LINE
  5
E0
330
1F
100
AcDbEntity
  8
轮廓线
100
AcDbLine
 10
313.3704654272694
 20
209.342282915956
 30
0.0
 11
311.8704654272694
 21
210.842282915956
 31
0.0
  0
LINE
  5
E1
330
1F
100
AcDbEntity
  8
轮廓线
100
AcDbLine
 10
228.3704654272695
 20
211.5270459774106
 30
0.0
 11
226.8704654272695
 21
213.0270459774106
 31
0.0
  0
LINE
  5
E2
330
1F
100
AcDbEntity
  8
轮廓线
100
AcDbLine
 10
311.8704654272694
 20
210.842282915956
 30
0.0
 11
311.8704654272694
 21
190.5270459774106
 31
0.0
  0
LINE
  5
E3
330
1F
100
AcDbEntity
  8
轮廓线
100
AcDbLine
 10
226.8704654272695
 20
213.0270459774106
 30
0.0
 11
226.8704654272695
 21
190.5270459774106
 31
0.0
  0
LINE
  5
E4
330
1F
100
AcDbEntity
  8
轮廓线
100
AcDbLine
 10
74.87046542726944
 20
213.3422829159561
 30
0.0
 11
74.87046542726944
 21
190.5270459774106
 31
0.0
  0
LINE
  5
E5
330
1F
100
AcDbEntity
  8
轮廓线
100
AcDbLine
 10
178.3704654272694
 20
168.0270459774102
 30
0.0
 11
226.8704654272694
 21
168.0270459774101
 31
0.0
  0
LINE
  5
E6
330
1F
100
AcDbEntity
  8
轮廓线
100
AcDbLine
 10
74.87046542726938
 20
167.711809038865
 30
0.0
 11
74.87046542726944
 21
190.5270459774105
 31
0.0
  0
LINE
  5
E7
330
1F
100
AcDbEntity
  8
轮廓线
100
AcDbLine
 10
73.37046542726944
 20
190.211809038865
 30
0.0
 11
73.37046542726938
 21
169.211809038865
 31
0.0
  0
LINE
  5
E8
330
1F
100
AcDbEntity
  8
轮廓线
100
AcDbLine
 10
178.3704654272694
 20
168.0270459774102
 30
0.0
 11
178.3704654272694
 21
190.5270459774102
 31
0.0
  0
LINE
  5
E9
330
1F
100
AcDbEntity
  8
轮廓线
100
AcDbLine
 10
126.3704654272694
 20
190.5270459774104
 30
0.0
 11
126.3704654272694
 21
165.5270459774104
 31
0.0
  0
LINE
  5
EA
330
1F
100
AcDbEntity
  8
轮廓线
100
AcDbLine
 10
123.3704654272694
 20
162.7118090388649
 30
0.0
 11
123.3704654272694
 21
190.2118090388649
 31
0.0
  0
LINE
  5
EB
330
1F
100
AcDbEntity
  8
轮廓线
100
AcDbLine
 10
98.37046542726944
 20
190.211809038865
 30
0.0
 11
98.37046542726937
 21
162.711809038865
 31
0.0
  0
LINE
  5
EC
330
1F
100
AcDbEntity
  8
轮廓线
100
AcDbLine
 10
95.37046542726937
 20
167.711809038865
 30
0.0
 11
95.37046542726944
 21
190.211809038865
 31
0.0
  0
LINE
  5
ED
330
1F
100
AcDbEntity
  8
轮廓线
100
AcDbLine
 10
74.87046542726938
 20
167.711809038865
 30
0.0
 11
95.37046542726937
 21
167.711809038865
 31
0.0
  0
LINE
  5
EE
330
1F
100
AcDbEntity
  8
轮廓线
100
AcDbLine
 10
73.37046542726938
 20
169.211809038865
 30
0.0
 11
74.87046542726938
 21
167.711809038865
 31
0.0
  0
LINE
  5
EF
330
1F
100
AcDbEntity
  8
轮廓线
100
AcDbLine
 10
126.3704654272694
 20
165.5270459774104
 30
0.0
 11
169.0403384083472
 21
165.5270459774103
 31
0.0
  0
LINE
  5
F0
330
1F
100
AcDbEntity
  8
轮廓线
100
AcDbLine
 10
98.37046542726937
 20
162.711809038865
 30
0.0
 11
123.3704654272694
 21
162.7118090388649
 31
0.0
  0
LINE
  5
F1
330
1F
100
AcDbEntity
  8
轮廓线
100
AcDbLine
 10
95.37046542726937
 20
168.711809038865
 30
0.0
 11
98.37046542726938
 21
168.711809038865
 31
0.0
  0
LINE
  5
F2
330
1F
100
AcDbEntity
  8
轮廓线
100
AcDbLine
 10
126.3704654272694
 20
166.5270459774104
 30
0.0
 11
123.3704654272694
 21
166.5270459774104
 31
0.0
  0
LINE
  5
F3
330
1F
100
AcDbEntity
  8
轮廓线
100
AcDbLine
 10
178.3704654272694
 20
168.0270459774102
 30
0.0
 11
169.0403384083472
 21
165.5270459774103
 31
0.0
  0
LINE
  5
F4
330
1F
100
AcDbEntity
  8
轮廓线
100
AcDbLine
 10
226.8704654272694
 20
168.0270459774101
 30
0.0
 11
226.8704654272695
 21
190.5270459774101
 31
0.0
  0
LINE
  5
F5
330
1F
100
AcDbEntity
  8
轮廓线
100
AcDbLine
 10
311.8704654272694
 20
170.2118090388644
 30
0.0
 11
311.8704654272694
 21
190.5270459774099
 31
0.0
  0
LINE
  5
F6
330
1F
100
AcDbEntity
  8
轮廓线
100
AcDbLine
 10
228.3704654272694
 20
169.5270459774101
 30
0.0
 11
228.3704654272694
 21
190.2118090388646
 31
0.0
  0
LINE
  5
F7
330
1F
100
AcDbEntity
  8
轮廓线
100
AcDbLine
 10
313.3704654272694
 20
171.7118090388644
 30
0.0
 11
313.3704654272694
 21
190.2118090388644
 31
0.0
  0
LINE
  5
F8
330
1F
100
AcDbEntity
  8
轮廓线
100
AcDbLine
 10
230.3704654272694
 20
190.2118090388646
 30
0.0
 11
230.3704654272694
 21
170.2118090388646
 31
0.0
  0
LINE
  5
F9
330
1F
100
AcDbEntity
  8
轮廓线
100
AcDbLine
 10
230.3704654272694
 20
170.2118090388646
 30
0.0
 11
311.8704654272694
 21
170.2118090388644
 31
0.0
  0
LINE
  5
FA
330
1F
100
AcDbEntity
  8
轮廓线
100
AcDbLine
 10
228.3704654272694
 20
169.5270459774101
 30
0.0
 11
226.8704654272694
 21
168.0270459774101
 31
0.0
  0
LINE
  5
FB
330
1F
100
AcDbEntity
  8
轮廓线
100
AcDbLine
 10
230.3704654272694
 20
170.7118090388646
 30
0.0
 11
228.3704654272694
 21
170.7118090388646
 31
0.0
  0
LINE
  5
FC
330
1F
100
AcDbEntity
  8
轮廓线
100
AcDbLine
 10
313.3704654272694
 20
171.7118090388644
 30
0.0
 11
311.8704654272694
 21
170.2118090388644
 31
0.0
  0
LINE
  5
FE
330
1F
100
AcDbEntity
  8
点划线
100
AcDbLine
 10
136.3704654272694
 20
176.5270459774106
 30
0.0
 11
136.3704654272694
 21
204.5270459774106
 31
0.0
  0
LINE
  5
FF
330
1F
100
AcDbEntity
  8
点划线
100
AcDbLine
 10
165.3704654272694
 20
176.5270459774106
 30
0.0
 11
165.3704654272694
 21
204.5270459774106
 31
0.0
  0
LINE
  5
103
330
1F
100
AcDbEntity
  8
轮廓线
100
AcDbLine
 10
136.3704654272694
 20
198.5270459774106
 30
0.0
 11
165.3704654272694
 21
198.5270459774106
 31
0.0
  0
LINE
  5
104
330
1F
100
AcDbEntity
  8
轮廓线
100
AcDbLine
 10
136.3704654272694
 20
182.5270459774106
 30
0.0
 11
165.3704654272694
 21
182.5270459774106
 31
0.0
  0
ARC
  5
106
330
1F
100
AcDbEntity
  8
轮廓线
100
AcDbCircle
 10
165.3704654272694
 20
190.5270459774106
 30
0.0
 40
8.0
100
AcDbArc
 50
270.0
 51
90.0
  0
ARC
  5
107
330
1F
100
AcDbEntity
  8
轮廓线
100
AcDbCircle
 10
136.3704654272694
 20
190.5270459774106
 30
0.0
 40
8.0
100
AcDbArc
 50
90.0
 51
270.0
  0
LINE
  5
110
330
1F
100
AcDbEntity
  8
点划线
100
AcDbLine
 10
302.3704654272695
 20
178.5270459774106
 30
0.0
 11
302.3704654272695
 21
202.5270459774106
 31
0.0
  0
LINE
  5
111
330
1F
100
AcDbEntity
  8
点划线
100
AcDbLine
 10
279.3704654272694
 20
178.5270459774106
 30
0.0
 11
279.3704654272694
 21
202.5270459774106
 31
0.0
  0
LINE
  5
112
330
1F
100
AcDbEntity
  8
轮廓线
100
AcDbLine
 10
279.3704654272694
 20
196.5270459774106
 30
0.0
 11
302.3704654272694
 21
196.5270459774106
 31
0.0
  0
LINE
  5
113
330
1F
100
AcDbEntity
  8
轮廓线
100
AcDbLine
 10
279.3704654272694
 20
184.5270459774106
 30
0.0
 11
302.3704654272694
 21
184.5270459774106
 31
0.0
  0
ARC
  5
114
330
1F
100
AcDbEntity
  8
轮廓线
100
AcDbCircle
 10
279.3704654272694
 20
190.5270459774106
 30
0.0
 40
6.0
100
AcDbArc
 50
90.0
 51
270.0
  0
ARC
  5
115
330
1F
100
AcDbEntity
  8
轮廓线
100
AcDbCircle
 10
302.3704654272694
 20
190.5270459774106
 30
0.0
 40
6.0
100
AcDbArc
 50
270.0
 51
90.0
  0
LINE
  5
116
330
1F
100
AcDbEntity
  8
轮廓线
100
AcDbLine
 10
313.3704654272694
 20
190.842282915956
 30
0.0
 11
313.3704654272694
 21
190.2118090388644
 31
0.0
  0
LINE
  5
117
330
1F
100
AcDbEntity
  8
轮廓线
100
AcDbLine
 10
228.3704654272694
 20
190.842282915956
 30
0.0
 11
228.3704654272694
 21
190.2118090388646
 31
0.0
  0
LINE
  5
118
330
1F
100
AcDbEntity
  8
轮廓线
100
AcDbLine
 10
230.3704654272694
 20
190.842282915956
 30
0.0
 11
230.3704654272694
 21
190.2118090388646
 31
0.0
  0
LINE
  5
119
330
1F
100
AcDbEntity
  8
轮廓线
100
AcDbLine
 10
123.3704654272694
 20
190.842282915956
 30
0.0
 11
123.3704654272694
 21
190.2118090388649
 31
0.0
  0
LINE
  5
11A
330
1F
100
AcDbEntity
  8
轮廓线
100
AcDbLine
 10
98.37046542726944
 20
190.842282915956
 30
0.0
 11
98.37046542726944
 21
190.211809038865
 31
0.0
  0
LINE
  5
11B
330
1F
100
AcDbEntity
  8
轮廓线
100
AcDbLine
 10
95.37046542726944
 20
190.842282915956
 30
0.0
 11
95.37046542726944
 21
190.211809038865
 31
0.0
  0
LINE
  5
11C
330
1F
100
AcDbEntity
  8
轮廓线
100
AcDbLine
 10
73.37046542726944
 20
190.842282915956
 30
0.0
 11
73.37046542726944
 21
190.211809038865
 31
0.0
  0
LINE
  5
11D
102
{ACAD_REACTORS
330
151
102
}
330
1F
100
AcDbEntity
  8
点划线
100
AcDbLine
 10
150.8704654272694
 20
64.09856873122408
 30
0.0
 11
150.8704654272694
 21
126.0985687312241
 31
0.0
  0
LINE
  5
11E
102
{ACAD_REACTORS
330
151
330
2CB
102
}
330
1F
100
AcDbEntity
  8
点划线
100
AcDbLine
 10
119.8704654272694
 20
95.09856873122408
 30
0.0
 11
176.8704654272694
 21
95.09856873122408
 31
0.0
  0
LINE
  5
11F
102
{ACAD_REACTORS
330
151
102
}
330
1F
100
AcDbEntity
  8
点划线
100
AcDbLine
 10
290.8704654272694
 20
69.09856873122408
 30
0.0
 11
290.8704654272694
 21
121.0985687312241
 31
0.0
  0
ARC
  5
120
102
{ACAD_REACTORS
330
151
330
2CB
330
2FB
102
}
330
1F
100
AcDbEntity
  8
轮廓线
100
AcDbCircle
 10
150.8704654272694
 20
95.09856873122408
 30
0.0
 40
25.0
100
AcDbArc
 50
18.66292488494248
 51
341.3370751150575
  0
ARC
  5
121
102
{ACAD_REACTORS
330
151
330
2E3
330
313
102
}
330
1F
100
AcDbEntity
  8
轮廓线
100
AcDbCircle
 10
290.8704654272694
 20
95.09856873122408
 30
0.0
 40
20.0
100
AcDbArc
 50
17.45760312372208
 51
342.5423968762779
  0
LINE
  5
126
102
{ACAD_REACTORS
330
151
102
}
330
1F
100
AcDbEntity
  8
轮廓线
100
AcDbLine
 10
174.5559039919235
 20
103.0985687312241
 30
0.0
 11
170.8704654272694
 21
103.0985687312241
 31
0.0
  0
LINE
  5
127
102
{ACAD_REACTORS
330
151
102
}
330
1F
100
AcDbEntity
  8
轮廓线
100
AcDbLine
 10
170.8704654272694
 20
103.0985687312241
 30
0.0
 11
170.8704654272694
 21
87.09856873122408
 31
0.0
  0
LINE
  5
128
102
{ACAD_REACTORS
330
151
102
}
330
1F
100
AcDbEntity
  8
轮廓线
100
AcDbLine
 10
170.8704654272694
 20
87.09856873122408
 30
0.0
 11
174.5559039919235
 21
87.09856873122408
 31
0.0
  0
LINE
  5
12D
102
{ACAD_REACTORS
330
151
102
}
330
1F
100
AcDbEntity
  8
轮廓线
100
AcDbLine
 10
309.9492494556084
 20
101.0985687312241
 30
0.0
 11
305.8704654272694
 21
101.0985687312241
 31
0.0
  0
LINE
  5
12E
102
{ACAD_REACTORS
330
151
102
}
330
1F
100
AcDbEntity
  8
轮廓线
100
AcDbLine
 10
305.8704654272694
 20
101.0985687312241
 30
0.0
 11
305.8704654272694
 21
89.09856873122408
 31
0.0
  0
LINE
  5
12F
102
{ACAD_REACTORS
330
151
102
}
330
1F
100
AcDbEntity
  8
轮廓线
100
AcDbLine
 10
305.8704654272694
 20
89.09856873122408
 30
0.0
 11
309.9492494556084
 21
89.09856873122408
 31
0.0
  0
LINE
  5
130
102
{ACAD_REACTORS
330
151
330
2E3
102
}
330
1F
100
AcDbEntity
  8
点划线
100
AcDbLine
 10
264.8704654272694
 20
95.09856873122408
 30
0.0
 11
311.8704654272694
 21
95.09856873122408
 31
0.0
  0
HATCH
  5
151
330
1F
100
AcDbEntity
  8
剖面线
100
AcDbHatch
 10
0.0
 20
0.0
 30
0.0
210
0.0
220
0.0
230
1.0
  2
ANSI31
 70
     0
 71
     1
 91
        8
 92
        7
 72
     1
 73
     1
 93
        5
 10
150.8704654272694
 20
95.09856873122408
 42
0.0
 10
170.8704654272694
 20
95.09856873122408
 42
0.0
 10
170.8704654272694
 20
103.0985687312241
 42
0.0
 10
174.5559039919235
 20
103.0985687312241
 42
0.3217247593866166
 10
150.8704654272694
 20
120.0985687312241
 42
0.0
 97
        5
330
11D
330
11E
330
127
330
126
330
120
 92
        7
 72
     1
 73
     1
 93
        3
 10
150.8704654272694
 20
120.0985687312241
 42
0.4142135623730952
 10
125.8704654272694
 20
95.09856873122408
 42
0.0
 10
150.8704654272694
 20
95.09856873122408
 42
0.0
 97
        3
330
120
330
11E
330
11D
 92
        7
 72
     1
 73
     1
 93
        3
 10
125.8704654272694
 20
95.09856873122408
 42
0.4142135623730958
 10
150.8704654272694
 20
70.09856873122402
 42
0.0
 10
150.8704654272694
 20
95.09856873122406
 42
0.0
 97
        3
330
11E
330
120
330
11D
 92
        7
 72
     1
 73
     1
 93
        5
 10
150.8704654272694
 20
70.09856873122408
 42
0.3217247593866165
 10
174.5559039919235
 20
87.09856873122408
 42
0.0
 10
170.8704654272694
 20
87.09856873122408
 42
0.0
 10
170.8704654272694
 20
95.09856873122408
 42
0.0
 10
150.8704654272694
 20
95.09856873122408
 42
0.0
 97
        5
330
128
330
127
330
11E
330
11D
330
120
 92
        7
 72
     1
 73
     1
 93
        3
 10
290.8704654272694
 20
115.0985687312241
 42
0.4142135623730944
 10
270.8704654272695
 20
95.09856873122408
 42
0.0
 10
290.8704654272694
 20
95.09856873122406
 42
0.0
 97
        3
330
121
330
130
330
11F
 92
        7
 72
     1
 73
     1
 93
        3
 10
270.8704654272695
 20
95.09856873122408
 42
0.4142135623730938
 10
290.8704654272694
 20
75.09856873122413
 42
0.0
 10
290.8704654272694
 20
95.09856873122409
 42
0.0
 97
        3
330
130
330
121
330
11F
 92
        7
 72
     1
 73
     1
 93
        5
 10
290.8704654272694
 20
75.09856873122409
 42
0.3275382217185397
 10
309.9492494556084
 20
89.09856873122408
 42
0.0
 10
305.8704654272694
 20
89.09856873122408
 42
0.0
 10
305.8704654272694
 20
95.09856873122408
 42
0.0
 10
290.8704654272694
 20
95.09856873122408
 42
0.0
 97
        5
330
12F
330
12E
330
130
330
11F
330
121
 92
        7
 72
     1
 73
     1
 93
        5
 10
305.8704654272694
 20
95.09856873122408
 42
0.0
 10
305.8704654272694
 20
101.0985687312241
 42
0.0
 10
309.9492494556084
 20
101.0985687312241
 42
0.3275382217185397
 10
290.8704654272694
 20
115.0985687312241
 42
0.0
 10
290.8704654272694
 20
95.09856873122406
 42
0.0
 97
        5
330
11F
330
130
330
12E
330
12D
330
121
 75
     0
 76
     1
 52
0.0
 41
1.5
 77
     0
 78
     1
 53
45.0
 43
0.0
 44
58.41935662879962
 45
-3.367596045400932
 46
3.367596045400933
 79
     0
 47
0.2672238354808666
 98
        8
 10
160.1664719842665
 20
105.3357138981221
 10
143.2152861293825
 20
104.6300967983168
 10
141.0963870857033
 20
86.989674204621
 10
156.6349744440745
 20
83.22638347246289
 10
283.7646969059438
 20
102.7146693314972
 10
283.4972149485561
 20
88.55180612881179
 10
295.5339186179185
 20
86.94846292656291
 10
297.4062949174518
 20
101.1113261292484
  0
DIMENSION
  5
152
102
{ACAD_REACTORS
330
16A
102
}
102
{ACAD_XDICTIONARY
360
160
102
}
330
1F
100
AcDbEntity
  8
文本层
100
AcDbDimension
  2
*D1
 10
98.37046542726944
 20
239.0653813695706
 30
0.0
 11
85.87046542726944
 21
242.1903813695706
 31
0.0
 70
    32
 71
     5
 42
25.0
  3
机械标注
100
AcDbAlignedDimension
 13
73.37046542726944
 23
211.8422829159561
 33
0.0
 14
98.37046542726944
 24
218.342282915956
 34
0.0
 52
0.0
100
AcDbRotatedDimension
  0
DIMENSION
  5
174
102
{ACAD_REACTORS
330
18F
102
}
102
{ACAD_XDICTIONARY
360
183
102
}
330
1F
100
AcDbEntity
  8
文本层
100
AcDbDimension
  2
*D2
 10
98.37046542726944
 20
228.7323795093263
 30
0.0
 11
107.1621320939361
 21
231.8573795093263
 31
0.0
 70
    32
 71
     5
 42
3.000000000000014
  3
机械标注
100
AcDbAlignedDimension
 13
95.37046542726942
 23
213.342282915956
 33
0.0
 14
98.37046542726944
 24
218.342282915956
 34
0.0
 52
0.0
100
AcDbRotatedDimension
  0
DIMENSION
  5
190
102
{ACAD_REACTORS
330
1AB
102
}
102
{ACAD_XDICTIONARY
360
19F
102
}
330
1F
100
AcDbEntity
  8
文本层
100
AcDbDimension
  2
*D3
 10
126.3704654272694
 20
228.7893335012041
 30
0.0
 11
135.1621320939361
 21
231.9143335012041
 31
0.0
 70
    32
 71
     5
 42
3.0
  3
机械标注
100
AcDbAlignedDimension
 13
123.3704654272694
 23
218.342282915956
 33
0.0
 14
126.3704654272694
 24
215.5270459774106
 34
0.0
 52
0.0
100
AcDbRotatedDimension
  0
DIMENSION
  5
1AC
102
{ACAD_REACTORS
330
1C3
102
}
102
{ACAD_XDICTIONARY
360
1B9
102
}
330
1F
100
AcDbEntity
  8
文本层
100
AcDbDimension
  2
*D4
 10
178.3704654272695
 20
239.60637042076
 30
0.0
 11
150.8704654272694
 21
242.73137042076
 31
0.0
 70
    32
 71
     5
 42
55.00000000000003
  3
机械标注
100
AcDbAlignedDimension
 13
123.3704654272694
 23
218.342282915956
 33
0.0
 14
178.3704654272695
 24
213.0270459774106
 34
0.0
 52
0.0
100
AcDbRotatedDimension
  0
DIMENSION
  5
1C4
102
{ACAD_REACTORS
330
1DB
102
}
102
{ACAD_XDICTIONARY
360
1D1
102
}
330
1F
100
AcDbEntity
  8
文本层
100
AcDbDimension
  2
*D5
 10
203.3901056753093
 20
239.60637042076
 30
0.0
 11
190.8802855512894
 21
242.73137042076
 31
0.0
 70
    32
 71
     5
 42
25.01964024803985
  3
机械标注
100
AcDbAlignedDimension
 13
178.3704654272695
 23
213.0270459774106
 33
0.0
 14
203.3901056753093
 24
214.3986578320335
 34
0.0
 52
0.0
100
AcDbRotatedDimension
1001
ACAD
1000
DSTYLE
1002
{
1070
   279
1070
     1
1002
}
  0
DIMENSION
  5
1DC
102
{ACAD_REACTORS
330
1F3
102
}
102
{ACAD_XDICTIONARY
360
1E9
102
}
330
1F
100
AcDbEntity
  8
文本层
100
AcDbDimension
  2
*D6
 10
228.3704654272695
 20
239.60637042076
 30
0.0
 11
215.8802855512894
 21
242.73137042076
 31
0.0
 70
    32
 71
     5
 42
24.98035975196015
  3
机械标注
100
AcDbAlignedDimension
 13
203.3901056753093
 23
214.3986578320335
 33
0.0
 14
228.3704654272695
 24
211.5270459774106
 34
0.0
 52
0.0
100
AcDbRotatedDimension
1001
ACAD
1000
DSTYLE
1002
{
1070
   279
1070
     1
1002
}
  0
DIMENSION
  5
1F4
102
{ACAD_REACTORS
330
20B
102
}
102
{ACAD_XDICTIONARY
360
201
102
}
330
1F
100
AcDbEntity
  8
文本层
100
AcDbDimension
  2
*D7
 10
313.3704654272694
 20
239.60637042076
 30
0.0
 11
270.8704654272694
 21
242.73137042076
 31
0.0
 70
    32
 71
     5
 42
84.99999999999997
  3
机械标注
100
AcDbAlignedDimension
 13
228.3704654272695
 23
211.5270459774106
 33
0.0
 14
313.3704654272694
 24
209.342282915956
 34
0.0
 52
0.0
100
AcDbRotatedDimension
1001
ACAD
1000
DSTYLE
1002
{
1070
   279
1070
     1
1002
}
  0
DIMENSION
  5
20C
102
{ACAD_REACTORS
330
227
102
}
102
{ACAD_XDICTIONARY
360
21B
102
}
330
1F
100
AcDbEntity
  8
文本层
100
AcDbDimension
  2
*D8
 10
230.3704654272694
 20
227.9455028942648
 30
0.0
 11
239.1621320939361
 21
231.0705028942648
 31
0.0
 70
    32
 71
     5
 42
1.999999999999972
  3
机械标注
100
AcDbAlignedDimension
 13
228.3704654272695
 23
211.5270459774106
 33
0.0
 14
230.3704654272694
 24
210.842282915956
 34
0.0
 52
0.0
100
AcDbRotatedDimension
  0
DIMENSION
  5
2A7
330
1F
100
AcDbEntity
  8
文本层
100
AcDbDimension
  2
*D9
 10
313.3704654272694
 20
255.7876003593479
 30
0.0
 11
193.3704654272694
 21
258.9126003593479
 31
0.0
 70
    32
 71
     5
 42
240.0
  3
机械标注
100
AcDbAlignedDimension
 13
73.37046542726944
 23
211.8422829159561
 33
0.0
 14
313.3704654272694
 24
213.070407052915
 34
0.0
 52
0.0
100
AcDbRotatedDimension
  0
DIMENSION
  5
2B4
102
{ACAD_REACTORS
330
2CB
102
}
102
{ACAD_XDICTIONARY
360
2C1
102
}
330
1F
100
AcDbEntity
  8
文本层
100
AcDbDimension
  2
*D10
 10
170.8704654272694
 20
53.18899286415331
 30
0.0
 11
148.3704654272694
 21
56.31399286415331
 31
0.0
 70
    32
 71
     5
 42
44.99999999999997
  3
机械标注
100
AcDbAlignedDimension
 13
125.8704654272694
 23
95.09856873122408
 33
0.0
 14
170.8704654272694
 24
94.58598024003174
 34
0.0
 52
0.0
100
AcDbRotatedDimension
  0
DIMENSION
  5
2CC
102
{ACAD_REACTORS
330
2E3
102
}
102
{ACAD_XDICTIONARY
360
2D9
102
}
330
1F
100
AcDbEntity
  8
文本层
100
AcDbDimension
  2
*D11
 10
305.8704654272694
 20
53.18899286415331
 30
0.0
 11
288.3704654272694
 21
56.31399286415331
 31
0.0
 70
    32
 71
     5
 42
35.0
  3
机械标注
100
AcDbAlignedDimension
 13
270.8704654272694
 23
95.09856873122408
 33
0.0
 14
305.8704654272694
 24
94.88213842399446
 34
0.0
 52
0.0
100
AcDbRotatedDimension
  0
DIMENSION
  5
2E4
102
{ACAD_REACTORS
330
2FB
102
}
102
{ACAD_XDICTIONARY
360
2F1
102
}
330
1F
100
AcDbEntity
  8
文本层
100
AcDbDimension
  2
*D12
 10
191.8354353344805
 20
87.09856873122406
 30
0.0
 11
188.7104353344805
 21
95.09856873122409
 31
0.0
 70
    32
 71
     5
 42
16.00000000000001
  3
机械标注
100
AcDbAlignedDimension
 13
174.5559039919235
 23
103.0985687312241
 33
0.0
 14
174.5559039919235
 24
87.09856873122406
 34
0.0
 52
0.0
 50
90.0
100
AcDbRotatedDimension
  0
DIMENSION
  5
2FC
102
{ACAD_REACTORS
330
313
102
}
102
{ACAD_XDICTIONARY
360
309
102
}
330
1F
100
AcDbEntity
  8
文本层
100
AcDbDimension
  2
*D13
 10
325.7373593799286
 20
89.09856873122408
 30
0.0
 11
322.6123593799286
 21
95.09856873122413
 31
0.0
 70
    32
 71
     5
 42
12.0
  3
机械标注
100
AcDbAlignedDimension
 13
309.9492494556084
 23
101.0985687312241
 33
0.0
 14
309.9492494556084
 24
89.09856873122408
 34
0.0
 52
0.0
 50
90.0
100
AcDbRotatedDimension
  0
VIEWPORT
  5
393
330
5E
100
AcDbEntity
 67
     1
  8
0
100
AcDbViewport
 10
133.3499908447266
 20
101.5999970436096
 30
0.0
 40
423.7327665924585
 41
228.4221935424805
 68
     1
 69
     1
 12
133.3499908447266
 22
101.5999970436096
 13
0.0
 23
0.0
 14
10.0
 24
10.0
 15
10.0
 25
10.0
 16
0.0
 26
0.0
 36
1.0
 17
0.0
 27
0.0
 37
0.0
 42
50.0
 43
0.0
 44
0.0
 45
228.4221935424805
 50
0.0
 51
0.0
 72
   100
 90
    32800
  1

281
     0
 71
     1
 74
     0
110
0.0
120
0.0
130
0.0
111
1.0
121
0.0
131
0.0
112
0.0
122
1.0
132
0.0
 79
     0
146
0.0
348
0
340
0
345
0
346
0
  0
VIEWPORT
  5
395
330
5E
100
AcDbEntity
 67
     1
  8
文本层
100
AcDbViewport
 10
133.3499939441681
 20
101.5999939441681
 30
0.0
 40
213.3599903106689
 41
162.5599903106689
 68
     1
 69
     2
 12
195.7086191253139
 22
164.5133963031001
 13
0.0
 23
0.0
 14
10.0
 24
10.0
 15
10.0
 25
10.0
 16
0.0
 26
0.0
 36
1.0
 17
0.0
 27
0.0
 37
0.0
 42
50.0
 43
0.0
 44
0.0
 45
231.7019013623666
 50
0.0
 51
0.0
 72
   100
 90
    32864
  1

281
     0
 71
     1
 74
     0
110
0.0
120
0.0
130
0.0
111
1.0
121
0.0
131
0.0
112
0.0
122
1.0
132
0.0
 79
     0
146
0.0
348
0
340
0
345
0
346
0
  0
ENDSEC
  0
SECTION
  2
OBJECTS
  0
DICTIONARY
  5
C
330
0
100
AcDbDictionary
281
     1
  3
ACAD_GROUP
350
D
  3
ACAD_LAYOUT
350
1A
  3
ACAD_MLINESTYLE
350
17
  3
ACAD_PLOTSETTINGS
350
19
  3
ACAD_PLOTSTYLENAME
350
E
  3
AcDbVariableDictionary
350
67
  0
DICTIONARY
  5
D
102
{ACAD_REACTORS
330
C
102
}
330
C
100
AcDbDictionary
281
     1
  0
ACDBDICTIONARYWDFLT
  5
E
102
{ACAD_REACTORS
330
C
102
}
330
C
100
AcDbDictionary
281
     1
  3
Normal
350
F
100
AcDbDictionaryWithDefault
340
F
  0
ACDBPLACEHOLDER
  5
F
102
{ACAD_REACTORS
330
E
102
}
330
E
  0
DICTIONARY
  5
17
102
{ACAD_REACTORS
330
C
102
}
330
C
100
AcDbDictionary
281
     1
  3
Standard
350
18
  0
MLINESTYLE
  5
18
102
{ACAD_REACTORS
330
17
102
}
330
17
100
AcDbMlineStyle
  2
STANDARD
 70
     0
  3

 62
   256
 51
90.0
 52
90.0
 71
     2
 49
0.5
 62
   256
  6
BYLAYER
 49
-0.5
 62
   256
  6
BYLAYER
  0
DICTIONARY
  5
19
102
{ACAD_REACTORS
330
C
102
}
330
C
100
AcDbDictionary
281
     1
  0
DICTIONARY
  5
1A
102
{ACAD_REACTORS
330
C
102
}
330
C
100
AcDbDictionary
281
     1
  3
Model
350
22
  3
布局1
350
5A
  3
布局2
350
5F
  0
LAYOUT
  5
22
102
{ACAD_REACTORS
330
1A
102
}
330
1A
100
AcDbPlotSettings
  1

  2
none_device
  4
ANSI_A_(8.50_x_11.00_Inches)
  6

 40
6.349999904632568
 41
19.04999923706055
 42
6.350006103515625
 43
19.04998779296875
 44
215.8999938964844
 45
279.3999938964844
 46
0.0
 47
0.0
 48
0.0
 49
0.0
140
0.0
141
0.0
  6

142
1.0
143
57.07986212157697
 70
 11952
 72
     0
 73
     1
 74
     0
  7

 75
     0
147
0.01751931351673652
148
-2282.040442273535
149
2.561166666666503
100
AcDbLayout
  1
Model
 70
     1
 71
     0
 10
0.0
 20
0.0
 11
12.0
 21
9.0
 12
0.0
 22
0.0
 32
0.0
 14
0.0
 24
0.0
 34
0.0
 15
0.0
 25
0.0
 35
0.0
146
0.0
 13
0.0
 23
0.0
 33
0.0
 16
1.0
 26
0.0
 36
0.0
 17
0.0
 27
1.0
 37
0.0
 76
     0
330
1F
  0
LAYOUT
  5
5A
102
{ACAD_REACTORS
330
1A
102
}
330
1A
100
AcDbPlotSettings
  1

  2
none_device
  4
Letter_(8.50_x_11.00_Inches)
  6

 40
6.349999904632568
 41
6.349999904632568
 42
6.350006103515625
 43
6.350006103515625
 44
215.8999938964844
 45
279.3999938964844
 46
0.0
 47
0.0
 48
0.0
 49
0.0
140
0.0
141
0.0
  6

142
1.0
143
1.0
 70
   688
 72
     1
 73
     1
 74
     5
  7

 75
    16
147
1.0
148
0.0
149
0.0
100
AcDbLayout
  1
布局1
 70
     1
 71
     1
 10
-6.350006103515625
 20
-6.349999904632568
 11
273.0499877929688
 21
209.5499939918518
 12
0.0
 22
0.0
 32
0.0
 14
26.66999878883362
 24
20.31999878883363
 34
0.0
 15
240.0299890995026
 25
182.8799890995026
 35
0.0
146
0.0
 13
0.0
 23
0.0
 33
0.0
 16
1.0
 26
0.0
 36
0.0
 17
0.0
 27
1.0
 37
0.0
 76
     0
330
59
331
74
  0
LAYOUT
  5
5F
102
{ACAD_REACTORS
330
1A
102
}
330
1A
100
AcDbPlotSettings
  1

  2
none_device
  4
Letter_(8.50_x_11.00_Inches)
  6

 40
6.349999904632568
 41
6.349999904632568
 42
6.350006103515625
 43
6.350006103515625
 44
215.8999938964844
 45
279.3999938964844
 46
0.0
 47
0.0
 48
0.0
 49
0.0
140
0.0
141
0.0
  6

142
1.0
143
1.0
 70
   688
 72
     1
 73
     1
 74
     5
  7

 75
    16
147
1.0
148
0.0
149
0.0
100
AcDbLayout
  1
布局2
 70
     1
 71
     2
 10
-6.350006103515625
 20
-6.349999904632568
 11
273.0499877929688
 21
209.5499939918518
 12
0.0
 22
0.0
 32
0.0
 14
26.66999878883362
 24
20.31999878883363
 34
0.0
 15
240.0299890995026
 25
182.8799890995026
 35
0.0
146
0.0
 13
0.0
 23
0.0
 33
0.0
 16
1.0
 26
0.0
 36
0.0
 17
0.0
 27
1.0
 37
0.0
 76
     0
330
5E
331
393
  0
DICTIONARY
  5
67
102
{ACAD_REACTORS
330
C
102
}
330
C
100
AcDbDictionary
281
     1
  3
DIMASSOC
350
68
  3
HIDETEXT
350
6C
  0
DICTIONARYVAR
  5
68
102
{ACAD_REACTORS
330
67
102
}
330
67
100
DictionaryVariables
280
     0
  1
2
  0
DICTIONARYVAR
  5
6C
102
{ACAD_REACTORS
330
67
102
}
330
67
100
DictionaryVariables
280
     0
  1
1
  0
DICTIONARY
  5
160
330
152
100
AcDbDictionary
280
     1
281
     1
  3
ACAD_DIMASSOC
360
16A
  0
DICTIONARY
  5
183
330
174
100
AcDbDictionary
280
     1
281
     1
  3
ACAD_DIMASSOC
360
18F
  0
DICTIONARY
  5
19F
330
190
100
AcDbDictionary
280
     1
281
     1
  3
ACAD_DIMASSOC
360
1AB
  0
DICTIONARY
  5
1B9
330
1AC
100
AcDbDictionary
280
     1
281
     1
  3
ACAD_DIMASSOC
360
1C3
  0
DICTIONARY
  5
1D1
330
1C4
100
AcDbDictionary
280
     1
281
     1
  3
ACAD_DIMASSOC
360
1DB
  0
DICTIONARY
  5
1E9
330
1DC
100
AcDbDictionary
280
     1
281
     1
  3
ACAD_DIMASSOC
360
1F3
  0
DICTIONARY
  5
201
330
1F4
100
AcDbDictionary
280
     1
281
     1
  3
ACAD_DIMASSOC
360
20B
  0
DICTIONARY
  5
21B
330
20C
100
AcDbDictionary
280
     1
281
     1
  3
ACAD_DIMASSOC
360
227
  0
DICTIONARY
  5
2C1
330
2B4
100
AcDbDictionary
280
     1
281
     1
  3
ACAD_DIMASSOC
360
2CB
  0
DICTIONARY
  5
2D9
330
2CC
100
AcDbDictionary
280
     1
281
     1
  3
ACAD_DIMASSOC
360
2E3
  0
DICTIONARY
  5
2F1
330
2E4
100
AcDbDictionary
280
     1
281
     1
  3
ACAD_DIMASSOC
360
2FB
  0
DICTIONARY
  5
309
330
2FC
100
AcDbDictionary
280
     1
281
     1
  3
ACAD_DIMASSOC
360
313
  0
ENDSEC
  0
SECTION
  2
THUMBNAILIMAGE
 90
    18627
310
BF4800000201030100005000000002530100005C480000000000000000000000000000000000000000000000000000000000000000000000000000000000000000000000000000000000000000000000000000000000000000000000000000000000000000000028000000B400000061000000010008000000000034440000
310
00000000000000000001000000000000FFFFFF00FFFFFF0000000000FFFFFF00FFFFFF00FFFFFF00FFFFFF00FFFFFF00FFFFFF00FFFFFF00FFFFFF00330000006600000099000000CC000000FF00000000330000333300006633000099330000CC330000FF33000000660000336600006666000099660000CC660000FF6600
310
0000990000339900006699000099990000CC990000FF99000000CC000033CC000066CC000099CC0000CCCC0000FFCC000000FF000033FF000066FF000099FF0000CCFF0000FFFF000000003300330033006600330099003300CC003300FF00330000333300333333006633330099333300CC333300FF333300006633003366
310
33006666330099663300CC663300FF66330000993300339933006699330099993300CC993300FF99330000CC330033CC330066CC330099CC3300CCCC3300FFCC330000FF330033FF330066FF330099FF3300CCFF3300FFFF330000006600330066006600660099006600CC006600FF00660000336600333366006633660099
310
336600CC336600FF33660000666600336666006666660099666600CC666600FF66660000996600339966006699660099996600CC996600FF99660000CC660033CC660066CC660099CC6600CCCC6600FFCC660000FF660033FF660066FF660099FF6600CCFF6600FFFF660000009900330099006600990099009900CC009900
310
FF00990000339900333399006633990099339900CC339900FF33990000669900336699006666990099669900CC669900FF66990000999900339999006699990099999900CC999900FF99990000CC990033CC990066CC990099CC9900CCCC9900FFCC990000FF990033FF990066FF990099FF9900CCFF9900FFFF99000000CC
310
003300CC006600CC009900CC00CC00CC00FF00CC000033CC003333CC006633CC009933CC00CC33CC00FF33CC000066CC003366CC006666CC009966CC00CC66CC00FF66CC000099CC003399CC006699CC009999CC00CC99CC00FF99CC0000CCCC0033CCCC0066CCCC0099CCCC00CCCCCC00FFCCCC0000FFCC0033FFCC0066FF
310
CC0099FFCC00CCFFCC00FFFFCC000000FF003300FF006600FF009900FF00CC00FF00FF00FF000033FF003333FF006633FF009933FF00CC33FF00FF33FF000066FF003366FF006666FF009966FF00CC66FF00FF66FF000099FF003399FF006699FF009999FF00CC99FF00FF99FF0000CCFF0033CCFF0066CCFF0099CCFF00CC
310
CCFF00FFCCFF0000FFFF0033FFFF0066FFFF0099FFFF00CCFFFF0000000000FFFFFF000D0D0D001A1A1A00282828003535350043434300505050005D5D5D006B6B6B00787878008686860093939300A1A1A100AEAEAE00BBBBBB00C9C9C900D6D6D600E4E4E400F1F1F10000000000FFFFFF00FFFFFF00FFFFFF00FFFFFF00
310
FFFFFF00FFFFFF00FFFFFF00FFFFFF00FFFFFF00FFFFFF0000000000000000000000000000000000000000000000000000000000000000000000000000000000000000000000000000000000000000000000000000000000000000000000000000000000000000000000000000000000000000000000000000000000000000
310
00000000000000000000000000000000000000000000000000000000000000000000000000000000000000000000000000000000000000000000000000000000000000000000000000000000000000000000000000000000000000000000000000000000000000000000000000000000000000000000000000000000000000
310
00000000000000000000000000000000000000000000000000000000000000000000000000000000000000000000000000000000000000000000000000000000000000000000000000000000000000000000000000000000000000000000000000000000000000000000000000000000000000000000000000000000000000
310
00000000000000000000000000000000000000000000000000000000000000000000000000000000000000000000000000000000000000000000000000000000000000000000000000000000000000000000000000000000000000000000000000000000000000000000000000000000000000000000000000000000000000
310
00000000000000000000000000000000000000000000000000000000000000000000000000000000000000000000000000000000000000000000000000000000000000000000000000000000000000000000000000000000000000000000000000000000000000000000000000000000000000000000000000000000000000
310
00000000000000000000000000000000000000000000000000000000000000000000000000000000000000000000000000000000000000000000000000000000000000000000000000000000000000000000000000000000000000000000000000000000000000000000000000000000000000000000000000000000000000
310
00000000000000000000000000000000000000000000000000000000000000000000000000000000000000000000000000000000000000000000000000000000000000000000000000000000000000000000000000000000000000000000000000000000000000000000000000000000000000000000000000000000000000
310
00000000000000000000000000000000000000000000000000000000000000000000000000000000000000000000000000000000000000000000000000000000000000000000000000000000000000000000000000000000000000000000000000000000000000000000000000000000000000000000000000000000000000
310
00000000000000000000000000000000000000000000000000000000000000000000000000000000000000000000000000000000000000000000000000000000000000000000000000000000000000000000000000000000000000000000000000000000000000000000000000000000000000000000000000000000000000
310
00000000000000000000000000000000000000000000000000000000000000000000000000000000000000000000000000000000000000000000000000000000000000000000000000000000000000000000000000000000000000000000000000000000000000000000000000000000000000000000000000000000000000
310
00000000000000000000000000000000000000000000000000000000000000000000000000000000000000000000000000000000000000000000000000000000000000000000000000000000000000000000000000000000000000000000000000000000000000000000000000000000000000000000000000000000000000
310
00000000000000000000000000000000000000000000000000000000000000000000000000000000000000000000000000000000000000000000000000000000000000000000000000000000000000000000000000000000000000000000000000000000000000000000000000000000000000000000000000000000000000
310
00000000000000000000000000000000000000000000000000000000000000000000000000000000000000000000000000000000000000000000000000000000000000000000000000000000000000000000000000000000000000000000000000000000000000000000000000000000000000000000000000000000000000
310
00000000000000000000000000000000000000000000000000000000000000000000000000000000000000000000000000000000000000000000000000000000000000000000000000000000000000000000000000000000000000000000000000000000000000000000000000000000000000000000000000000000000000
310
00000000000000000000000000000000000000000000000000000000000000000000000000000000000000000000000000000000000000000000000000000000000000000000000000000000000000000000000000000000000000000000000000000000000000000000000000000000000000000000000000000000000000
310
00000000000000000000000000000000000000000000000000000000000000000000000000000000000000000000000000000000000000000000000000000000000000000000000000000000000000000000000000000000000000000000000000000000000000000000000000000000000000000000000000000000000000
310
00000000000000000000000000000000000000000000000000000000000000000000000000000000000000000000000000000000000000000000000000000000000000000000000000000000000000000000000000000000000000000000000000000000000000000000000000000000000000000000000000000000000000
310
00000000000000000000000000000000000000000000000000000000000000000000000000000000000000000000000000000000000000000000000000000000000000000000000000000000000000000000000000000000000000000000000000000000000000000000000000000000000000000000000000000000000000
310
00000000000000000000000000000000000000000000000000000000000000000000000000000000000000000000000000000000000000000000000000000000000000000000000000000000000000000000000000000000000000000000000000000000000000000000000000000000000000000000000000000000000000
310
00000000000000000000000000000000000000000000000000000000000000000000000000000000000000000000000000000000000000000000000000000000000000000000000000000000000000000000000000000000000000000000000000000000000000000000000000000000000000000000000000000000000000
310
00000000000000000000000000000000000000000000000000000000000000000000000000000000000000000000000000000000000000000000000000000000000000000000000000000000000000000000000000000000000000000000000000000000000000000000000000000000000000000000000000000000000000
310
00000000000000000000000000000000000000000000000000000000000000000000000000000000000000000000000000000000000000000000000000000000000000000000000000000000000000000000000000000000000000000000000000000000000000000000000000000000000000000000000000000000000000
310
00000000000000000000000000000000000000000000000000000000000000000000000000000000000000000000000000000000000000000000000000000000000000000000000000000000000000000000000000000000000000000000000000000000000000000000000000000000000000000000000000000000000000
310
00000000000000000000000000000000000000000000000000000000000000000000000000000000000000000000000000000000000000000000000000000000000000000000000000000000000000000000000000000000000000000000000000000000000000000000000000000000000000000000000000000000000000
310
0000000000000000000000000000000000000000000000000000000000000000000000000000000000000000000000000000000000000000000000000000000000000000000000000000000000000000000000000000000000000000000000000000009E9E00000000000000000000009E9E00000000000000000000000000
310
0000000000000000000000000000000000009E9E00000000000000009E9E00000000000000000000000000000000000000000000000000000000000000000000000000000000000000000000000000000000000000000000000000000000000000000000000000000000000000000000000000000000000000000000000000
310
000000000000000000000000000000000000000000000000009E9E9E9E9E9E9E9E9E9E9E9E9E9E9E000000000000000000000000000000000000000000000000000000000000009E9E9E9E9E9E9E9E9E9E9E9E0000000000000000000000000000000000000000000000000000000000000000000000000000000000000000
310
0000000000000000000000000000000000000000000000000000000000000000000000000000000000000000000000000000000000000000000000000000000000000000000000000000000000009E00000000009E9E9E00000000009E000000000000000000000000000000000000000000000000000000000000009E0000
310
00009E9E9E0000009E00000000000000000000000000000000000000000000000000000000000000000000000000000000000000000000000000000000000000000000000000000000000000000000000000000000000000000000000000000000000000000000000000000000000000000000000000000000000000000000
310
000000009E000000000000000000000000009E000000000000000000000000000000000000000000000000000000000000009E000000000000000000009E0000000000000000000000000000000000000000000000000000000000000000000000000000000000000000000000000000000000000000000000000000000000
310
0000000000000000000000000000000000000000000000000000000000000000000000000000000000000000000000000000000000000000009E00000000000000BE00000000009E000000000000000000000000000000000000000000000000000000000000009E000000000000000000009E000000000000000000000000
310
00000000000000000000000000000000000000000000000000000000000000000000000000000000000000000000000000000000000000000000000000000000000000000000000000000000000000000000000000000000000000000000000000000000000000000000000000009E000000F5F5F5F5BEF5F50000009E0000
310
00000000000000000000000000000000000000000000000000000000009E000000000000000000009E0000000000000000000000000000000000000000000000000000000000000000000000000000000000000000000000000000000000000000000000000000000000000000000000000000000000000000000000000000
310
0000000000000000000000000000000000000000000000000000000000000000000000009E0000F5F5F520F520F5F5F5F5F59E000000000000000000000000000000000000000000000000000000000000009E0000000000BE000000009E000000000000000000000000000000000000000000000000000000000000000000
310
00000000000000000000000000000000000000000000000000000000000000000000000000000000000000000000000000000000000000000000000000000000000000000000000000000000000000000000000000000000009E00F520F520F5202020F520F5F5F50000000000000000000000000000000000000000000000
310
00000000000000009E0000F5F5F5BEF5F500009E0000000000000000000000000000000000000000000000000000000000000000000000000000000000000000000000000000000000000000000000000000000000000000000000000000000000000000000000000000000000000000000000000000000000000000000000
310
0000000000000000000000000000009EF520F520F52000BE2020F520F5F5F50000000000000000000000000000000000000000000000000000000000009E00F520F520BE20F5F5F59E000000000000000000000000000000000000000000000000000000000000000000000000000000000000000000000000000000000000
310
0000000000000000000000000000000000000000000000000000000000000000000000000000000000000000000000000000000000000000000000000000000000000000F520F520F5200020BE002020F52020F50000000000000000000000000000000000000000000000000000000000009EF520F520F520F520F5F5F5F5
310
00000000000000000000000000000000000000000000000000000000000000000000000000000000000000000000000000000000000000000000000000000000000000000000000000000000000000000000000000000000000000000000000000000000000000000000000000000000000000000000000000F5F520002000
310
20002000002020F5F520F50000000000000000000000000000000000000000000000000000000000F520F520F520BE20002020F5F5F500000000000000000000000000000000000000000000000000000000000000000000000000000000000000000000000000000000000000000000000000000000000000000000000000
310
00000000000000000000000000000000000000000000000000000000000000000000000000000000000000000000F520F5002000200020BE2000200020F5F5F59E9E9E9E9E000000000000000000000000000000000000000000000000F5F520002000200020000020F5F5F500000000000000000000000000000000000000
310
000000000000000000000000000000000000000000000000000000000000000000000000000000000000000000000000000000000000000000000000000000000000000000000000000000000000000000000000000000000000000000000000000000F520200020000020002000200020F520F500000000009E0000000000
310
000000000000000000000000000000000000F520F500200020BE200020F5F5209E9E9E9E9E9E0000000000000000000000000000000000000000000000000000000000000000000000000000000000000000000000000000000000000000000000000000000000000000000000000000000000000000000000000000000000
310
00000000000000000000000000000000000000000000000000F5F520200020000020BE2000200020F5F50000009E9E9E0000000000000000000000000000000000000000000000F52020200020002000200020F5F5F500009E9E9E000000000000000000000000000000000000000000000000000000000000000000000000
310
0000000000000000000000000000000000000000000000000000000000000000000000000000000000000000000000000000000000000000000000000000000000000000000000000000000000BEBE2020BE20BE20BEBE20BE20BE20F520F5BE00009E9E9E00000000000000000000000000000000000000000000BEBEBE20
310
BE20BE20BE20BE20F520F5BE00009E9E9E0000000000000000000000000000000000000000000000000000000000000000000000000000000000000000000000000000000000000000000000000000000000000000000000000000000000000000000000000000000000000000000000000000000000000000000000000000
310
00000000F5F520200020002020BE2000200020F5F50000009E9E9E0000000000000000000000000000000000000000000000F5F5F5200020002000200020F5F5F500009E9E9E000000000000000000000000000000000000000000000000000000000000000000000000000000000000000000000000000000000000000000
310
000000000000000000000000000000000000000000000000000000000000000000000000000000000000000000000000000000000000000000F5F5F52020002020002000200020F520F500000000009E0000000000000000000000000000000000000000000000F520F50020002020000020F520F59E9E9E9E9E9E00000000
310
0000000000000000000000000000000000000000000000000000000000000000000000000000000000000000000000000000000000000000000000000000000000000000000000000000000000000000000000000000000000000000000000000000000000000000000000000000F520F5002020200020BE2020000020F520
310
F59E9E9E9E9E000000000000000000000000000000000000000000000000F520F5200020BE20200020F520F5F500000000000000000000000000000000000000000000000000000000000000000000000000000000000000000000000000000000000000000000000000000000000000000000000000000000000000000000
310
00000000000000000000000000000000000000000000000000000000000000000000000000F520F5002000200020002020000020F5F50000000000000000000000000000000000000000000000000000000000F5F520F5200020000020F520F5F5000000000000000000000000000000000000000000000000000000000000
310
000000000000000000000000000000000000000000000000000000000000000000000000000000000000000000000000000000000000000000000000000000000000000000000000000000000000000000000000000000000000F5F520F520000020BE2020F520F5F5F5000000000000000000000000000000000000000000
310
00000000000000000000F5F520F520BE2020F520F5F5000000000000000000000000000000000000000000000000000000000000000000000000000000000000000000000000000000000000000000000000000000000000000000000000000000000000000000000000000000000000000000000000000000000000000000
310
0000000000000000000000000000000000F5F520F520000020002020F520F5000000000000000000000000000000000000000000000000000000000000000000F5F520F52020F520F5F50000000000000000000000000000000000000000000000000000000000000000000000000000000000000000000000000000000000
310
0000000000000000000000000000000000000000000000000000000000000000000000000000000000000000000000000000000000000000000000000000000000000000000000F5F520F520F5BE20F52020F50000000000000000000000000000000000000000000000000000000000000000000000F5F5F5BEF5F5F50000
310
0000000000000000000000000000000000000000000000000000000000000000000000000000000000000000000000000000000000000000000000000000000000000000000000000000000000000000000000000000000000000000000000000000000000000000000000000000000000000000000000000000000000F5F5
310
F5F520BE20F5F5F5000000000000000000000000000000000000000000000000000000000000000000000000000000BE00000000000000000000000000000000000000000000000000000000000000000000000000000000000000000000000000000000000000000000000000000000000000000000000000000000000000
310
00000000000000000000000000000000000000000000000000000000000000000000000000000000000000000000000000000000F5F5F5F5BEF5F5F500000000000000000000000000000000000000000000000000000000000000000000000000000000000000000000000000000000000000000000000000000000000000
310
00000000000000000000000000000000000000000000000000000000000000000000000000000000000000000000000000000000000000000000000000000000000000000000000000000000000000000000000000000000000000000000000000000000000000000000000000BE0000000000000000000000000000000000
310
00000000000000000000000000000000000000000000000000000000000000000000000000000000000000000000000000000000000000000000000000000000000000000000000000000000000000000000000000000000000000000000000000000000000000000000000000000000000000000000000000000000000000
310
00000000000000000000000000000000000000000000000000000000000000000000000000000000000000000000000000000000000000000000000000000000000000000000000000000000000000000000000000000000000000000000000000000000000000000000000000000000000000000000000000000000000000
310
00000000000000000000000000000000000000000000000000000000000000000000000000000000000000000000000000000000000000000000000000000000000000000000000000000000000000000000000000000000000000000000000000000000000000000000000000000000000000000000000000000000000000
310
00000000000000000000000000000000000000000000000000000000000000000000000000000000000000000000000000000000000000000000000000000000000000000000000000000000000000000000000000000000000000000000000000000000000000000000000000000000000000000000000000000000000000
310
00000000000000000000000000000000000000000000000000000000000000000000000000000000000000000000000000000000000000000000000000000000000000000000000000000000000000000000000000000000000000000000000000000000000000000000000000000000000000000000000000000000000000
310
00000000000000000000000000000000000000000000000000000000000000000000000000000000000000000000000000000000000000000000000000000000000000000000000000000000000000000000000000000000000000000000000000000000000000000000000000000000000000000000000000000000000000
310
00000000000000000000000000000000000000000000000000000000000000000000000000000000000000000000000000000000000000000000000000000000000000000000000000000000000000000000000000000000000000000000000000000000000000000000000000000000000000000000000000000000000000
310
00000000000000000000000000000000000000000000000000000000000000000000000000000000000000000000000000000000000000000000000000000000000000000000000000000000000000000000000000000000000000000000000000000000000000000000000000000000000000000000000000000000000000
310
00000000000000000000000000000000000000000000000000000000000000000000000000000000000000000000000000000000000000000000000000000000000000000000000000000000000000000000000000000000000000000000000000000000000000000000000000000000000000000000000000000000000000
310
00000000000000000000000000000000000000000000000000000000000000000000000000000000000000000000000000000000000000000000000000000000000000000000000000000000000000000000000000000000000000000000000000000000000000000000000000000000000000000000000000000000000000
310
00000000000000000000000000000000000000000000000000000000000000000000000000000000000000000000000000000000000000000000000000000000000000000000000000000000000000000000000000000000000000000000000000000000000000000000000000000000000000000000000000000000000000
310
00000000000000000000000000000000000000000000000000000000000000000000000000000000000000000000000000000000000000000000000000000000000000000000000000000000000000000000000000000000000000000000000000000000000000000000000000000000000000000000000000000000000000
310
00000000000000000000000000000000000000000000000000000000000000000000000000000000000000000000000000000000000000000000000000000000000000000000000000000000000000000000000000000000000000000000000000000000000000000000000000000000000000000000000000000000000000
310
00000000000000000000000000000000000000000000000000000000000000000000000000000000000000000000000000000000000000000000000000000000000000000000000000000000000000000000000000000000000000000000000000000000000000000000000000000000000000000000000000000000000000
310
00000000000000000000000000000000000000000000000000000000000000000000000000000000000000000000000000000000000000000000000000000000000000000000000000000000000000000000000000000000000000000000000000000000000000000000000000000000000000000000000000000000000000
310
00000000000000000000000000000000000000000000000000000000000000000000000000000000F5F5F5F5F5F5F5F5F5F5F5F5F5F5F5F5F5F5F5F5F5F5F5F5000000000000000000000000000000000000000000000000000000000000000000000000000000000000000000000000000000000000000000000000000000
310
00000000000000000000000000000000000000000000000000000000000000000000000000000000000000000000000000000000000000000000000000000000000000000000000000000000000000000000000000F5F5F5F5F5F5F5F5F5F5F5F5F5F5F5F5F5F5F5F5F5F5F5F5F5F5F5F5F5F5F5F5F5F5F5F5F5F5F5F5F5F5
310
F5F5F5F5F5F5F5F50000000000000000000000000000000000000000000000000000000000000000000000000000000000000000000000000000000000000000000000000000000000000000000000000000000000000000000000000000000000000000000000000000000000000000000000000000000000000000000000
310
00000000000000000000F5F5F5F5F5F5F5F5F5F5F5F5F5F5F5F5F5F5F5F5F5F5F5F5F5F5F5F5F5F5F5F5F5F5F5F5F5F5F5F5F5F5F5F5F5F5F5F5F5F5F5F5F5F5F5F5F5F5F5F5F5F5F5F5F5F5F5F5F5F5F5F5F5F5F5F5F5F5F50000000000000000000000000000000000000000000000000000000000000000000000000000
310
000000000000000000000000000000000000000000000000000000000000000000000000000000000000000000000000000000000000000000000000000000F5F5F5F5F5F5F5F5F5F5F50000000000F5F5F5F500000000000000000000000000F5F5F5F5F5F5F5F5F5F5F5F5F5F5F5F5F5F5F5F5F5F5F5F5F5F5F5F5F5F5F5
310
F5F5F5F5F5F5F5F5F5F5F5F5F5F5F5F500000000000000000000000000000000000000000000000000000000000000000000000000000000000000000000000000000000000000000000000000000000000000000000000000000000000000000000000000000000000000000000000000000000F5F5F500000000F5F5F5F5
310
0000000000F5F5F5F500000000000000000000000000F5F5F500000000000000000000000000F5F5F5F5F5F5F5F5F5F5F5F5F5F5F5F5F5F5F5F5F5F5F5F5F5F5F5F5F5F5F500000000000000000000000000000000000000000000000000000000000000000000000000000000000000000000000000000000000000000000
310
000000000000000000000000000000000000000000000000000000000000000000000000000000000000F5F5F500000000F5F5F5F50000000000F5F5F5F500BE0000000000000000BE0000F5F5F500000000000000000000000000F5F5F5F50000000000000000000000000000000000000000000000F5F5F5F50000000000
310
0000000000000000000000000000000000000000000000000000000000000000000000000000000000000000000000000000000000000000000000000000000000000000000000000000000000000000000000000000000000000000000000F5F5F500000000F5F5F5F50000000000F5F5F5F5F5F5F5F5F5F5F5F5F5F5F5F5
310
F5F5F5F500000000000000000000000000F5F5F5F50000000000000000000000000000BE000000000000BE00F5F5F5F500000000000000000000000000000000000000000000000000000000000000000000000000000000000000000000000000000000000000000000000000000000000000000000000000000000000000
310
000000000000000000000000000000000000000000F5F5F500000000F5F5F5F50000000000F5F5F5F5F5F5F5F5F5F5F5F5F5F5F5F5F5F5F5F500000000000000000000000000F5F5F5F50000000000000000000000F5F5F5F5F5F5F5F5F5F5F5F5F5F5F5F50000000000000000000000000000000000000000000000000000
310
0000000000000000000000000000000000000000000000000000000000000000000000000000000000000000000000000000000000000000000000000000000000000000000000000000F5F5F500000000F5F5F5F50000000000F5F5F5F5F5F5F5F5F5F5F5F5F5F5F5F5F5F5F5F500000000000000000000000000F5F5F5F5
310
0000000000000000000000F5F5F5F5F5F5F5F5F5F5F5F5F5F5F5F500000000000000000000000000000000000000000000000000000000000000000000000000000000000000000000000000000000000000000000000000000000000000000000000000000000000000000000000000000000000000000000000000BEBEBE
310
F5F5F5BEBEBEBEF5F5F5F5BEBEBEBEBEF5F5F5F5F5BEBEBEBEBEBEBEBEBEBEF5F5F5F5F5BEBEBEBEBEBEBEBEBEBEBEBEBEF5F5F5F5BEBEBEBEBEBEBEBEBEBEBEF5F5F5F5F5F5F5F5F5F5F5F5F5F5F5F5BE00000000000000000000000000000000000000000000000000000000000000000000000000000000000000000000
310
0000000000000000000000000000000000000000000000000000000000000000000000000000000000000000000000000000000000F5F5F500000000F5F5F5F50000000000F5F5F5F5F5BE0000000000000000BEF5F5F5F5F500000000000000000000000000F5F5F5F50000000000000000000000F5F5F5F5F5F5F5F5F5F5
310
F5F5F5F5F5F500000000000000000000000000000000000000000000000000000000000000000000000000000000000000000000000000000000000000000000000000000000000000000000000000000000000000000000000000000000000000000000000000000000F5F5F500000000F5F5F5F50000000000F5F5F5F5F5
310
F5F5F5F5F5F5F5F5F5F5F5F5F5F5F500000000000000000000000000F5F5F5F50000000000000000000000F5F5F5F5F5F5F5F5F5F5F5F5F5F5F5F50000000000000000000000000000000000000000000000000000000000000000000000000000000000000000000000000000000000000000000000000000000000000000
310
0000000000000000000000000000000000000000000000000000000000000000F5F5F500000000F5F5F5F50000000000F5F5F5F5F5F5F5F5F5F5F5F5F5F5F5F5F5F5F5F500000000000000000000000000F5F5F5F5000000000000000000000000F5F5F5F5F5F5F5F5F5F5F5F5F5F5F5000000000000000000000000000000
310
00000000000000000000000000000000000000000000000000000000000000000000000000000000000000000000000000000000000000000000000000000000000000000000000000000000000000000000000000F5F5F500000000F5F5F5F50000000000F5F5F5F5F5F5F5F5F5F5F5F5F5F5F5F5F5F5F5F5000000000000
310
00000000000000F5F5F5F50000000000000000000000000000BE000000000000BE00F5F5F5F50000000000000000000000000000000000000000000000000000000000000000000000000000000000000000000000000000000000000000000000000000000000000000000000000000000000000000000000000000000000
310
0000000000000000000000F5F5F500000000F5F5F5F50000000000F5F5F5F500BE0000000000000000BE0000F5F5F500000000000000000000000000F5F5F5F50000000000000000000000000000000000000000000000F5F5F5F5000000000000000000000000000000000000000000000000000000000000000000000000
310
00000000000000000000000000000000000000000000000000000000000000000000000000000000000000000000000000000000000000000000000000000000F5F5F500000000F5F5F5F50000000000F5F5F5F500000000000000000000000000F5F5F500000000000000000000000000F5F5F5F5F5F5F5F5F5F5F5F5F5F5
310
F5F5F5F5F5F5F5F5F5F5F5F5F5F5F5F5F500000000000000000000000000000000000000000000000000000000000000000000000000000000000000000000000000000000000000000000000000000000000000000000000000000000000000000000000000000000000000000000000000000000F5F5F5F5F5F5F5F5F5F5
310
F50000000000F5F5F5F5F5F5F5F5F5F5F5F5F5F5F5F5F5F5F5F5F5F5F5F5F5F5F5F5F5F5F5F5F5F5F5F5F5F5F5F5F5F5F5F5F5F5F5F5F5F5F5F5F5F5F5F5F5F5F5F5F5F5F5F5000000000000000000000000000000000000000000000000000000000000000000000000000000000000000000000000000000000000000000
310
00000000000000000000000000000000000000000000000000000000000000000000000000000000000000F5F5F5F5F5F5F5F5F5F5F5F5F5F5F5F5F5F5F5F5F5F5F5F5F5F5F5F5F5F5F5F5F5F5F5F5F5F5F5F5F5F59EF5F5F5F5F5F5F5F5F5F5F5F5F5F5F5F5F5F5F5F5F5F5F5F5F5F5F5F5F5F5F5F5F5F5F5F50000000000
310
00000000000000000000000000000000000000000000000000000000000000000000000000000000000000000000000000000000000000000000000000000000000000000000000000000000000000000000000000000000000000000000000000F5F5F5F5F5F5F5F5F5F5F5F5F5F5F5F5F5F5F5F5F5F5F5F5F5F5F5F5F5F5
310
F5F5F5F5F5F5F5F5F5F5F59EF5F5F5F5F5F5F5F59E00000000000000000000000000000000000000000000000000009E00000000000000000000000000000000000000000000000000000000000000000000000000000000000000000000000000000000000000000000000000000000000000000000000000000000000000
310
00000000000000000000000000000000000000000000009E0000000000009EF5F5F5F5F5F5F5F5F59E0000000000000000000000000000009E000000000000009E000000000000009E9E00000000000000000000000000000000000000000000000000009E0000000000000000000000000000000000000000000000000000
310
000000000000000000000000000000000000000000000000000000000000000000000000000000000000000000000000000000000000000000000000000000000000000000000000000000009E0000000000009E9E000000000000009E9E0000000000000000000000000000009E000000000000009E000000000000009E9E
310
00000000000000000000000000000000000000000000000000009E00000000000000000000000000000000000000000000000000000000000000000000000000000000000000000000000000000000000000000000000000000000000000000000000000000000000000000000000000000000000000000000000000000000
310
00009E00000000009E9E9E9E00000000009E9E9E9E00000000000000000000000000009E000000000000009E00000000009E9E9E9E9E9E9E00000000000000000000000000000000000000000000009E0000000000000000000000000000000000000000000000000000000000000000000000000000000000000000000000
310
000000000000000000000000000000000000000000000000000000000000000000000000000000000000000000000000000000000000009E0000009E9E9E9E9E9E9E9E009E9E9E9E9E9E9E9E0000000000000000000000009E000000000000009E0000000000009E9E9E9E9E9E000000000000000000000000000000000000
310
00000000009E0000000000000000000000000000000000000000000000000000000000000000000000000000000000000000000000000000000000000000000000000000000000000000000000000000000000000000000000000000000000000000000000000000000000009E000000000000009E009E9E000000009E0000
310
9E9E0000000000000000000000009E000000000000009E000000000000009E00009E9E00000000000000000000000000000000000000000000009E0000000000000000000000000000000000000000000000000000000000000000000000000000000000000000000000000000000000000000000000000000000000000000
310
000000000000000000000000000000000000000000000000000000000000000000009E000000000000009E000000000000009E000000000000000000000000000000009E000000000000009E000000000000009E0000000000000000000000000000000000000000000000000000009E000000000000000000000000000000
310
0000000000000000000000000000000000000000000000000000000000000000000000000000000000000000000000000000000000000000000000000000000000000000000000000000000000000000000000000000009E9E9E9E9E9E9E9E9E000000000000009E9E9E9E9E9E9E9E9E9E9E9E9E9E9E9E9E9E9E9E9E9E9E9E
310
9E9E9E9E9E9E9E9E9E9E9E9E9E9E9E9E9E9E9E9E9E9E9E9E9E9E9E9E9E9E9E9E9E9E9E9E9E9E0000000000000000000000000000000000000000000000000000000000000000000000000000000000000000000000000000000000000000000000000000000000000000000000000000000000000000000000000000000000
310
000000000000000000000000009E00009E9E9E00009E000000000000009E000000000000009E9E000000000000009E00009E9E9E00009E00009E9E9E00009E0000000000000000000000009E9E9E0000000000000000000000009E000000000000000000000000000000000000000000000000000000000000000000000000
310
0000000000000000000000000000000000000000000000000000000000000000000000000000000000000000000000000000000000000000000000000000000000009E00009E9E000000000000000000000000000000000000009E9E000000000000000000009E9E9E00000000009E9E9E0000000000000000000000000000
310
009E9E9E0000000000000000000000009E0000000000000000000000000000000000000000000000000000000000000000000000000000000000000000000000000000000000000000000000000000000000000000000000000000000000000000000000000000000000000000000000000000000000009E00000000000000
310
0000000000000000000000000000000000000000000000000000000000000000000000000000000000000000000000000000000000000000000000000000000000000000009E000000000000000000000000000000000000000000000000000000000000000000000000000000000000000000000000000000000000000000
310
0000000000000000000000000000000000000000000000000000000000000000000000000000000000000000009E000000000000000000000000000000000000000000000000000000000000000000000000000000000000000000000000000000000000000000000000000000000000000000000000000000009E00000000
310
00000000000000000000000000000000000000000000000000000000000000000000000000000000000000000000000000000000000000000000000000000000000000000000000000000000000000000000000000000000000000000000000000009E9E9E9E9E9E9E9E9E9E9E9E9E9E9E9E9E9E9E9E9E9E9E9E9E9E9E9E9E
310
9E9E9E9E9E9E9E9E9E9E9E9E9E9E9E9E9E9E9E9E9E9E9E9E9E9E9E9E9E9E9E9E9E9E9E9E9E9E9E9E9E9E9E9E9E9E9E9E9E000000000000000000000000000000000000000000000000000000000000000000000000000000000000000000000000000000000000000000000000000000000000000000000000000000000000
310
0000000000000000000000000000000000000000000000009E0000000000000000000000000000000000000000000000000000000000000000000000009E9E9E9E0000000000000000000000000000000000000000000000000000000000000000000000009E00000000000000000000000000000000000000000000000000
310
0000000000000000000000000000000000000000000000000000000000000000000000000000000000000000000000000000000000000000000000000000000000000000000000000000000000000000000000000000000000000000000000000000000000000000000000000000000000009E9E9E9E000000000000000000
310
00000000000000000000000000000000000000000000000000000000000000000000000000000000000000000000000000000000000000000000000000000000000000000000000000000000000000000000000000000000000000000000000000000000000000000000000000000000000000000000000000000000000000
310
00000000000000000000000000000000000000000000000000000000000000000000000000000000000000000000000000000000000000000000000000000000000000000000000000000000000000000000000000000000000000000000000000000000000000000000000000000000000000000000000000000000000000
310
00000000000000000000000000000000000000000000000000000000000000000000000000000000000000000000000000000000000000000000000000000000000000000000000000000000000000000000000000000000000000000000000000000000000000000000000000000000000000000000000000000000000000
310
00000000000000000000000000000000000000000000000000000000000000000000000000000000000000000000000000000000000000000000000000000000000000000000000000000000000000000000000000000000000000000000000000000000000000000000000000000000000000000000000000000000000000
310
00000000000000000000000000000000000000000000000000000000000000000000000000000000000000000000000000000000000000000000000000000000000000000000000000000000000000000000000000000000000000000000000000000000000000000000000000000000000000000000000000000000000000
310
00000000000000000000000000000000000000000000000000000000000000000000000000000000000000000000000000000000000000000000000000000000000000000000000000000000000000000000000000000000000000000000000000000000000000000000000000000000000000000000000000000000000000
310
00000000000000000000000000000000000000000000000000000000000000000000000000000000000000000000000000000000000000000000000000000000000000000000000000000000000000000000000000000000000000000000000000000000000000000000000000000000000000000000000000000000000000
310
00000000000000000000000000000000000000000000000000000000000000000000000000000000000000000000000000000000000000000000000000000000000000000000000000000000000000000000000000000000000000000000000000000000000000000000000000000000000000000000000000000000000000
310
00000000000000000000000000000000000000000000000000000000000000000000000000000000000000000000000000000000000000000000000000000000000000000000000000000000000000000000000000000000000000000000000000000000000000000000000000000000000000000000000000000000000000
310
00000000000000000000000000000000000000000000000000000000000000000000000000000000000000000000000000000000000000000000000000000000000000000000000000000000000000000000000000000000000000000000000000000000000000000000000000000000000000000000000000000000000000
310
00000000000000000000000000000000000000000000000000000000000000000000000000000000000000000000000000000000000000000000000000000000000000000000000000000000000000000000000000000000000000000000000000000000000000000000000000000000000000000000000000000000000000
310
00000000000000000000000000000000000000000000000000000000000000000000000000000000000000000000000000000000000000000000000000000000000000000000000000000000000000000000000000000000000000000000000000000000000000000000000000000000000000000000000000000000000000
310
00000000000000000000000000000000000000000000000000000000000000000000000000000000000000000000000000000000000000000000000000000000000000000000000000000000000000000000000000000000000000000000000000000000000000000000000000000000000000000000000000000000000000
310
00000000000000000000000000000000000000000000000000000000000000000000000000000000000000000000000000000000000000000000000000000000000000000000000000000000000000000000000000000000000000000000000000000000000000000000000000000000000000000000000000000000000000
310
00000000000000000000000000000000000000000000000000000000000000000000000000000000000000000000000000000000000000000000000000000000000000000000000000000000000000000000000000000000000000000000000000000000000000000000000000000000000000000000000000000000000000
310
00000000000000000000000000000000000000000000000000000000000000000000000000000000000000000000000000000000000000000000000000000000000000000000000000000000000000000000000000000000000000000000000000000000000000000000000000000000000000000000000000000000000000
310
00000000000000000000000000000000000000000000000000000000000000000000000000000000000000000000000000000000000000000000000000000000000000000000000000000000000000000000000000000000000000000000000000000000000000000000000000000000000000000000000000000000000000
310
00000000000000000000000000000000000000000000000000000000000000000000000000000000000000000000000000000000000000000000000000000000000000000000000000000000000000000000000000
  0
ENDSEC
  0
EOF
