999
LibreDWG 
  0
SECTION
  2
HEADER
  9
$ACADVER
  1
AC1015
  9
$ACADMAINTVER
 70
    13
  9
$DWGCODEPAGE
  3
ANSI_936
  9
$INSBASE
 10
0.0
 20
0.0
 30
0.0
  9
$EXTMIN
 10
82.16136642792218
 20
39.01025464317092
 30
-0.001525820700358338
  9
$EXTMAX
 10
286.8081673267393
 20
273.5746733691774
 30
3.49246036535078E-08
  9
$LIMMIN
 10
0.0
 20
0.0
  9
$LIMMAX
 10
420.0
 20
297.0
  9
$ORTHOMODE
 70
     0
  9
$REGENMODE
 70
     1
  9
$FILLMODE
 70
     1
  9
$QTEXTMODE
 70
     0
  9
$MIRRTEXT
 70
     1
  9
$LTSCALE
 40
1.0
  9
$ATTMODE
 70
     1
  9
$TEXTSIZE
 40
2.5
  9
$TRACEWID
 40
1.0
  9
$TEXTSTYLE
  7
数字与字母
  9
$CLAYER
  8
文本层
  9
$CELTYPE
  6
ByLayer
  9
$CECOLOR
 62
   256
  9
$CELTSCALE
 40
1.0
  9
$DISPSILH
 70
     0
  9
$DIMSCALE
 40
1.0
  9
$DIMASZ
 40
3.5
  9
$DIMEXO
 40
0.0
  9
$DIMDLI
 40
7.5
  9
$DIMRND
 40
0.0
  9
$DIMDLE
 40
0.0
  9
$DIMEXE
 40
2.5
  9
$DIMTP
 40
0.0
  9
$DIMTM
 40
0.0
  9
$DIMTXT
 40
5.0
  9
$DIMCEN
 40
2.5
  9
$DIMTSZ
 40
0.0
  9
$DIMTOL
 70
     0
  9
$DIMLIM
 70
     0
  9
$DIMTIH
 70
     0
  9
$DIMTOH
 70
     1
  9
$DIMSE1
 70
     0
  9
$DIMSE2
 70
     0
  9
$DIMTAD
 70
     1
  9
$DIMZIN
 70
     8
  9
$DIMBLK
  1

  9
$DIMASO
 70
     1
  9
$DIMSHO
 70
     1
  9
$DIMPOST
  1

  9
$DIMAPOST
  1

  9
$DIMALT
 70
     0
  9
$DIMALTD
 70
     3
  9
$DIMALTF
 40
0.03937007874016
  9
$DIMLFAC
 40
1.0
  9
$DIMTOFL
 70
     1
  9
$DIMTVP
 40
0.0
  9
$DIMTIX
 70
     0
  9
$DIMSOXD
 70
     0
  9
$DIMSAH
 70
     0
  9
$DIMBLK1
  1

  9
$DIMBLK2
  1

  9
$DIMSTYLE
  2
机械标注
  9
$DIMCLRD
 70
     0
  9
$DIMCLRE
 70
     0
  9
$DIMCLRT
 70
     0
  9
$DIMTFAC
 40
1.0
  9
$DIMGAP
 40
0.625
  9
$DIMJUST
 70
     0
  9
$DIMSD1
 70
     0
  9
$DIMSD2
 70
     0
  9
$DIMTOLJ
 70
     0
  9
$DIMTZIN
 70
     8
  9
$DIMALTZ
 70
     0
  9
$DIMALTTZ
 70
     0
  9
$DIMUPT
 70
     0
  9
$DIMDEC
 70
     1
  9
$DIMTDEC
 70
     1
  9
$DIMALTU
 70
     2
  9
$DIMALTTD
 70
     3
  9
$DIMTXSTY
  7
数字与字母
  9
$DIMAUNIT
 70
     0
  9
$DIMADEC
 70
     0
  9
$DIMALTRND
 40
0.0
  9
$DIMAZIN
 70
     0
  9
$DIMDSEP
 70
    46
  9
$DIMATFIT
 70
     3
  9
$DIMFRAC
 70
     0
  9
$DIMLDRBLK
  1

  9
$DIMLUNIT
 70
     2
  9
$DIMLWD
 70
    -2
  9
$DIMLWE
 70
    -2
  9
$DIMTMOVE
 70
     0
  9
$LUNITS
 70
     2
  9
$LUPREC
 70
     1
  9
$AXISMODE
 70
     0
  9
$AXISUNIT
 10
0.0
 20
0.0
  9
$SKETCHINC
 40
1.0
  9
$FILLETRAD
 40
10.0
  9
$AUNITS
 70
     0
  9
$AUPREC
 70
     1
  9
$MENU
  1
.
  9
$ELEVATION
 40
0.0
  9
$PELEVATION
 40
0.0
  9
$THICKNESS
 40
0.0
  9
$LIMCHECK
 70
     0
  9
$CHAMFERA
 40
10.0
  9
$CHAMFERB
 40
10.0
  9
$CHAMFERC
 40
20.0
  9
$CHAMFERD
 40
0.0
  9
$SKPOLY
 70
     0
  9
$TDCREATE
 40
2451911.603956590
  9
$TDUCREATE
 40
2451911.315956590
  9
$TDUPDATE
 40
2453618.448825590
  9
$TDUUPDATE
 40
2453618.160825590
  9
$TDINDWG
 40
0.067386390
  9
$TDUSRTIMER
 40
0.067386390
  9
$USRTIMER
 70
     1
  9
$ANGBASE
 50
0.0
  9
$ANGDIR
 70
     0
  9
$PDMODE
 70
     0
  9
$PDSIZE
 40
0.0
  9
$PLINEWID
 40
0.0
  9
$SPLFRAME
 70
     0
  9
$SPLINETYPE
 70
     6
  9
$SPLINESEGS
 70
     8
  9
$HANDSEED
  5
357
  9
$SURFTAB1
 70
     6
  9
$SURFTAB2
 70
     6
  9
$SURFTYPE
 70
     6
  9
$SURFU
 70
     6
  9
$SURFV
 70
     6
  9
$UCSBASE
  2

  9
$UCSNAME
  2

  9
$UCSORG
 10
0.0
 20
0.0
 30
0.0
  9
$UCSXDIR
 10
1.0
 20
0.0
 30
0.0
  9
$UCSYDIR
 10
0.0
 20
1.0
 30
0.0
  9
$UCSORTHOREF
  2

  9
$UCSORTHOVIEW
 70
     0
  9
$UCSORGTOP
 10
0.0
 20
0.0
 30
0.0
  9
$UCSORGBOTTOM
 10
0.0
 20
0.0
 30
0.0
  9
$UCSORGLEFT
 10
0.0
 20
0.0
 30
0.0
  9
$UCSORGRIGHT
 10
0.0
 20
0.0
 30
0.0
  9
$UCSORGFRONT
 10
0.0
 20
0.0
 30
0.0
  9
$UCSORGBACK
 10
0.0
 20
0.0
 30
0.0
  9
$PUCSBASE
  2

  9
$PUCSNAME
  2

  9
$PUCSORG
 10
0.0
 20
0.0
 30
0.0
  9
$PUCSXDIR
 10
1.0
 20
0.0
 30
0.0
  9
$PUCSYDIR
 10
0.0
 20
1.0
 30
0.0
  9
$PUCSORTHOREF
  2

  9
$PUCSORTHOVIEW
 70
     0
  9
$PUCSORGTOP
 10
0.0
 20
0.0
 30
0.0
  9
$PUCSORGBOTTOM
 10
0.0
 20
0.0
 30
0.0
  9
$PUCSORGLEFT
 10
0.0
 20
0.0
 30
0.0
  9
$PUCSORGRIGHT
 10
0.0
 20
0.0
 30
0.0
  9
$PUCSORGFRONT
 10
0.0
 20
0.0
 30
0.0
  9
$PUCSORGBACK
 10
0.0
 20
0.0
 30
0.0
  9
$USERI1
 70
     0
  9
$USERI2
 70
     0
  9
$USERI3
 70
     0
  9
$USERI4
 70
     0
  9
$USERI5
 70
     0
  9
$USERR1
 40
0.0
  9
$USERR2
 40
0.0
  9
$USERR3
 40
0.0
  9
$USERR4
 40
0.0
  9
$USERR5
 40
0.0
  9
$WORLDVIEW
 70
     1
  9
$SHADEDGE
 70
     3
  9
$SHADEDIF
 70
    70
  9
$TILEMODE
 70
     1
  9
$MAXACTVP
 70
    64
  9
$PINSBASE
 10
0.0
 20
0.0
 30
0.0
  9
$PLIMCHECK
 70
     0
  9
$PEXTMIN
 10
26.66999878883362
 20
20.31999878883363
 30
0.0
  9
$PEXTMAX
 10
240.0299890995026
 20
182.8799890995026
 30
0.0
  9
$PLIMMIN
 10
-6.350006103515625
 20
-6.349999904632568
  9
$PLIMMAX
 10
273.0499877929688
 20
209.5499939918518
  9
$UNITMODE
 70
     0
  9
$VISRETAIN
 70
     1
  9
$PLINEGEN
 70
     0
  9
$PSLTSCALE
 70
     1
  9
$TREEDEPTH
 70
  3020
  9
$CMLSTYLE
  2
Standard
  9
$CMLJUST
 70
     0
  9
$CMLSCALE
 40
20.0
  9
$PROXYGRAPHICS
 70
     1
  9
$MEASUREMENT
 70
     1
  9
$CELWEIGHT
370
    -1
  9
$ENDCAPS
280
     0
  9
$JOINSTYLE
280
     0
  9
$LWDISPLAY
290
     1
  9
$INSUNITS
 70
     4
  9
$HYPERLINKBASE
  1

  9
$STYLESHEET
  1

  9
$XEDIT
290
     1
  9
$CEPSNTYPE
380
     0
  9
$PSTYLEMODE
290
     0
  9
$FINGERPRINTGUID
  2
{35BD88C3-9548-11D2-9A29-0060089B3A3F}
  9
$VERSIONGUID
  2
{5257EA22-9F88-42A8-B673-E521795E02F2}
  9
$EXTNAMES
290
     1
  9
$PSVPSCALE
 40
0.0
  9
$OLESTARTUP
290
     0
  0
ENDSEC
  0
SECTION
  2
CLASSES
  0
CLASS
  1
ACDBDICTIONARYWDFLT
  2
AcDbDictionaryWithDefault
  3
AutoCAD 2000
 90
        0
280
     0
281
     0
  0
CLASS
  1
ACDBPLACEHOLDER
  2
AcDbPlaceHolder
  3
AutoCAD 2000
 90
        0
280
     0
281
     0
  0
CLASS
  1
LAYOUT
  2
AcDbLayout
  3
AutoCAD 2000
 90
        0
280
     0
281
     0
  0
CLASS
  1
DICTIONARYVAR
  2
AcDbDictionaryVar
  3
AutoCAD 2000
 90
        0
280
     0
281
     0
  0
CLASS
  1
DIMASSOC
  2
AcDbDimAssoc
  3
"AcDbDimAssoc|Product Desc:     AcDim ARX App For Dimension|Company:          Autodesk, Inc.|WEB Address:      www.autodesk.com"
 90
        0
280
     0
281
     0
  0
ENDSEC
  0
SECTION
  2
TABLES
  0
TABLE
  2
VPORT
  5
8
330
0
100
AcDbSymbolTable
 70
     1
  0
VPORT
  5
356
330
8
100
AcDbSymbolTableRecord
100
AcDbViewportTableRecord
  2
*Active
 70
     0
 10
0.0
 20
0.0
 11
1.0
 21
1.0
 12
210.0
 22
148.5
 13
0.0
 23
0.0
 14
10.0
 24
10.0
 15
10.0
 25
10.0
 16
0.0
 26
0.0
 36
1.0
 17
0.0
 27
0.0
 37
0.0
 40
300.7358490566038
 41
1.855042016806723
 42
50.0
 43
0.0
 44
0.0
 50
0.0
 51
0.0
 71
     0
 72
   100
 73
     1
 74
     3
 75
     0
 76
     0
 77
     0
 78
     0
281
     0
 65
     1
110
0.0
120
0.0
130
0.0
111
1.0
121
0.0
131
0.0
112
0.0
122
1.0
132
0.0
 79
     0
146
0.0
  0
ENDTAB
  0
TABLE
  2
LTYPE
  5
5
330
0
100
AcDbSymbolTable
 70
     4
  0
LTYPE
  5
14
330
5
100
AcDbSymbolTableRecord
100
AcDbLinetypeTableRecord
  2
ByBlock
 70
     0
  3

 72
    65
 73
     0
 40
0.0
  0
LTYPE
  5
15
330
5
100
AcDbSymbolTableRecord
100
AcDbLinetypeTableRecord
  2
ByLayer
 70
     0
  3

 72
    65
 73
     0
 40
0.0
  0
LTYPE
  5
16
330
5
100
AcDbSymbolTableRecord
100
AcDbLinetypeTableRecord
  2
Continuous
 70
     0
  3
Solid line
 72
    65
 73
     0
 40
0.0
  0
LTYPE
  5
91
330
5
100
AcDbSymbolTableRecord
100
AcDbLinetypeTableRecord
  2
ACAD_ISO08W100
 70
     0
  3
ISO long-dash short-dash ____ __ ____ __ ____ _
 72
    65
 73
     4
 40
36.0
 49
24.0
 74
     0
 49
-3.0
 74
     0
 49
6.0
 74
     0
 49
-3.0
 74
     0
  0
LTYPE
  5
92
330
5
100
AcDbSymbolTableRecord
100
AcDbLinetypeTableRecord
  2
ACAD_ISO09W100
 70
     0
  3
ISO long-dash double-short-dash ____ __ __ ____
 72
    65
 73
     6
 40
45.0
 49
24.0
 74
     0
 49
-3.0
 74
     0
 49
6.0
 74
     0
 49
-3.0
 74
     0
 49
6.0
 74
     0
 49
-3.0
 74
     0
  0
LTYPE
  5
93
330
5
100
AcDbSymbolTableRecord
100
AcDbLinetypeTableRecord
  2
ACAD_ISO02W100
 70
     0
  3
ISO dash __ __ __ __ __ __ __ __ __ __ __ __ __
 72
    65
 73
     2
 40
15.0
 49
12.0
 74
     0
 49
-3.0
 74
     0
  0
ENDTAB
  0
TABLE
  2
LAYER
  5
2
330
0
100
AcDbSymbolTable
 70
    11
  0
LAYER
  5
10
330
2
100
AcDbSymbolTableRecord
100
AcDbLayerTableRecord
  2
0
 70
     0
 62
    -7
  6
Continuous
370
    -3
390
F
  0
LAYER
  5
94
330
2
100
AcDbSymbolTableRecord
100
AcDbLayerTableRecord
  2
轮廓线
 70
     0
 62
    -7
  6
Continuous
370
    35
390
F
  0
LAYER
  5
95
330
2
100
AcDbSymbolTableRecord
100
AcDbLayerTableRecord
  2
点划线
 70
     0
 62
    -1
  6
ACAD_ISO08W100
370
    13
390
F
  0
LAYER
  5
96
330
2
100
AcDbSymbolTableRecord
100
AcDbLayerTableRecord
  2
双点划线
 70
     0
 62
    -3
  6
ACAD_ISO09W100
370
    -3
390
F
  0
LAYER
  5
97
330
2
100
AcDbSymbolTableRecord
100
AcDbLayerTableRecord
  2
隐藏线
 70
     0
 62
   -44
  6
ACAD_ISO02W100
370
    13
390
F
  0
LAYER
  5
98
330
2
100
AcDbSymbolTableRecord
100
AcDbLayerTableRecord
  2
剖面线
 70
     0
 62
  -142
  6
Continuous
370
    13
390
F
  0
LAYER
  5
99
330
2
100
AcDbSymbolTableRecord
100
AcDbLayerTableRecord
  2
波浪线
 70
     0
 62
    -7
  6
Continuous
370
    13
390
F
  0
LAYER
  5
9A
330
2
100
AcDbSymbolTableRecord
100
AcDbLayerTableRecord
  2
尺寸层
 70
     0
 62
    -5
  6
Continuous
370
    13
390
F
  0
LAYER
  5
9B
330
2
100
AcDbSymbolTableRecord
100
AcDbLayerTableRecord
  2
文本层
 70
     0
 62
  -212
  6
Continuous
370
    13
390
F
  0
LAYER
  5
9C
330
2
100
AcDbSymbolTableRecord
100
AcDbLayerTableRecord
  2
其它层
 70
     0
 62
    -7
  6
Continuous
370
    -3
390
F
  0
LAYER
  5
DD
330
2
100
AcDbSymbolTableRecord
100
AcDbLayerTableRecord
  2
Defpoints
 70
     0
 62
    -7
  6
Continuous
290
     0
370
    -3
390
F
  0
ENDTAB
  0
TABLE
  2
STYLE
  5
3
330
0
100
AcDbSymbolTable
 70
     4
  0
STYLE
  5
11
330
3
100
AcDbSymbolTableRecord
100
AcDbTextStyleTableRecord
  2
Standard
 70
     0
 40
0.0
 41
1.0
 50
0.0
 71
     0
 42
2.5
  3
txt
  4

  0
STYLE
  5
90
330
3
100
AcDbSymbolTableRecord
100
AcDbTextStyleTableRecord
  2

 70
     1
 40
0.0
 41
1.0
 50
0.0
 71
     0
 42
2.5
  3
ltypeshp.shx
  4

  0
STYLE
  5
9D
330
3
100
AcDbSymbolTableRecord
100
AcDbTextStyleTableRecord
  2
汉字
 70
     0
 40
0.0
 41
0.7
 50
0.0
 71
     0
 42
2.5
  3
SIMFANG.TTF
  4

1001
ACAD
1000
FangSong_GB2312
1071
    34353
  0
STYLE
  5
9F
330
3
100
AcDbSymbolTableRecord
100
AcDbTextStyleTableRecord
  2
数字与字母
 70
     0
 40
0.0
 41
0.7
 50
0.0
 71
     0
 42
2.5
  3
romant.shx
  4

  0
ENDTAB
  0
TABLE
  2
VIEW
  5
6
330
0
100
AcDbSymbolTable
 70
     0
  0
ENDTAB
  0
TABLE
  2
UCS
  5
7
330
0
100
AcDbSymbolTable
 70
     0
  0
ENDTAB
  0
TABLE
  2
APPID
  5
9
330
0
100
AcDbSymbolTable
 70
     1
  0
APPID
  5
12
330
9
100
AcDbSymbolTableRecord
100
AcDbRegAppTableRecord
  2
ACAD
 70
     0
  0
ENDTAB
  0
TABLE
  2
DIMSTYLE
  5
A
330
0
100
AcDbSymbolTable
 70
     3
100
AcDbDimStyleTable
 71
     2
340
A1
340
27
  0
DIMSTYLE
105
27
330
A
100
AcDbSymbolTableRecord
100
AcDbDimStyleTableRecord
  2
ISO-25
 70
     0
 41
2.5
 42
0.625
 43
3.75
 44
1.25
 73
     0
 74
     0
 77
     1
 78
     8
140
2.5
141
2.5
143
0.03937007874016
144
1.0
146
1.0
147
0.625
171
     3
172
     1
176
     0
177
     0
178
     0
271
     2
272
     2
273
     2
274
     3
277
     2
278
    44
283
     0
284
     8
289
     3
340
11
371
    -2
372
    -2
341
0
342
0
343
0
344
0
  0
DIMSTYLE
105
A1
102
{ACAD_REACTORS
330
DC
330
F5
330
10D
330
13F
330
160
330
174
330
186
330
19A
330
1AE
330
1C0
330
1D4
330
1E8
330
1FC
330
20E
330
240
330
269
102
}
330
A
100
AcDbSymbolTableRecord
100
AcDbDimStyleTableRecord
  2
机械标注
 70
     0
 41
3.5
 43
7.5
 44
2.5
 73
     0
 74
     1
 77
     1
 78
     8
140
5.0
141
2.5
143
0.03937007874016
144
1.0
146
1.0
147
0.625
171
     3
172
     1
176
     0
177
     0
178
     0
271
     1
272
     1
273
     2
274
     3
277
     2
278
    46
283
     0
284
     8
289
     3
340
9F
371
    -2
372
    -2
341
0
342
0
343
0
344
0
  0
DIMSTYLE
105
A2
102
{ACAD_REACTORS
330
125
102
}
330
A
100
AcDbSymbolTableRecord
100
AcDbDimStyleTableRecord
  2
机械标注$2
 70
     0
 41
3.5
 43
7.5
 44
2.5
 73
     1
 74
     1
 77
     1
 78
     8
140
5.0
141
2.5
143
0.03937007874016
144
1.0
146
1.0
147
0.625
171
     3
172
     1
176
     0
177
     0
178
     0
271
     1
272
     1
273
     2
274
     3
277
     2
278
    46
283
     0
284
     8
289
     3
340
9F
371
    -2
372
    -2
341
0
342
0
343
0
344
0
  0
ENDTAB
  0
TABLE
  2
BLOCK_RECORD
  5
1
330
0
100
AcDbSymbolTable
 70
    22
  0
BLOCK_RECORD
  5
1F
330
1
100
AcDbSymbolTableRecord
100
AcDbBlockTableRecord
  2
*Model_Space
340
22
  0
BLOCK_RECORD
  5
5E
330
1
100
AcDbSymbolTableRecord
100
AcDbBlockTableRecord
  2
*Paper_Space
340
5F
  0
BLOCK_RECORD
  5
59
330
1
100
AcDbSymbolTableRecord
100
AcDbBlockTableRecord
  2
*Paper_Space0
340
5A
  0
BLOCK_RECORD
  5
DE
330
1
100
AcDbSymbolTableRecord
100
AcDbBlockTableRecord
  2
*D1
340
0
  0
BLOCK_RECORD
  5
F6
330
1
100
AcDbSymbolTableRecord
100
AcDbBlockTableRecord
  2
*D2
340
0
  0
BLOCK_RECORD
  5
10E
330
1
100
AcDbSymbolTableRecord
100
AcDbBlockTableRecord
  2
*D3
340
0
  0
BLOCK_RECORD
  5
126
330
1
100
AcDbSymbolTableRecord
100
AcDbBlockTableRecord
  2
*D4
340
0
  0
BLOCK_RECORD
  5
140
330
1
100
AcDbSymbolTableRecord
100
AcDbBlockTableRecord
  2
*D5
340
0
  0
BLOCK_RECORD
  5
150
330
1
100
AcDbSymbolTableRecord
100
AcDbBlockTableRecord
  2
*D6
340
0
  0
BLOCK_RECORD
  5
161
330
1
100
AcDbSymbolTableRecord
100
AcDbBlockTableRecord
  2
*D7
340
0
  0
BLOCK_RECORD
  5
175
330
1
100
AcDbSymbolTableRecord
100
AcDbBlockTableRecord
  2
*D8
340
0
  0
BLOCK_RECORD
  5
187
330
1
100
AcDbSymbolTableRecord
100
AcDbBlockTableRecord
  2
*D9
340
0
  0
BLOCK_RECORD
  5
19B
330
1
100
AcDbSymbolTableRecord
100
AcDbBlockTableRecord
  2
*D10
340
0
  0
BLOCK_RECORD
  5
1AF
330
1
100
AcDbSymbolTableRecord
100
AcDbBlockTableRecord
  2
*D11
340
0
  0
BLOCK_RECORD
  5
1C1
330
1
100
AcDbSymbolTableRecord
100
AcDbBlockTableRecord
  2
*D12
340
0
  0
BLOCK_RECORD
  5
1D5
330
1
100
AcDbSymbolTableRecord
100
AcDbBlockTableRecord
  2
*D13
340
0
  0
BLOCK_RECORD
  5
1E9
330
1
100
AcDbSymbolTableRecord
100
AcDbBlockTableRecord
  2
*D14
340
0
  0
BLOCK_RECORD
  5
1FD
330
1
100
AcDbSymbolTableRecord
100
AcDbBlockTableRecord
  2
*D15
340
0
  0
BLOCK_RECORD
  5
20F
330
1
100
AcDbSymbolTableRecord
100
AcDbBlockTableRecord
  2
*D16
340
0
  0
BLOCK_RECORD
  5
21F
330
1
100
AcDbSymbolTableRecord
100
AcDbBlockTableRecord
  2
*D17
340
0
  0
BLOCK_RECORD
  5
230
330
1
100
AcDbSymbolTableRecord
100
AcDbBlockTableRecord
  2
*D18
340
0
  0
BLOCK_RECORD
  5
241
330
1
100
AcDbSymbolTableRecord
100
AcDbBlockTableRecord
  2
*D19
340
0
  0
BLOCK_RECORD
  5
252
330
1
100
AcDbSymbolTableRecord
100
AcDbBlockTableRecord
  2
*D20
340
0
  0
BLOCK_RECORD
  5
26A
330
1
100
AcDbSymbolTableRecord
100
AcDbBlockTableRecord
  2
*D21
340
0
  0
ENDTAB
  0
ENDSEC
  0
SECTION
  2
BLOCKS
  0
BLOCK
  5
20
330
1F
100
AcDbEntity
  8
0
100
AcDbBlockBegin
  2
*Model_Space
 70
     0
 10
0.0
 20
0.0
 30
0.0
  3
*Model_Space
  1

  0
ENDBLK
  5
21
330
1F
100
AcDbEntity
  8
0
100
AcDbBlockEnd
  0
BLOCK
  5
5B
330
59
100
AcDbEntity
  8
0
100
AcDbBlockBegin
  2
*Paper_Space0
 70
     0
 10
0.0
 20
0.0
 30
0.0
  3
*Paper_Space0
  1

  0
VIEWPORT
  5
74
330
59
100
AcDbEntity
  8
0
100
AcDbViewport
 10
134.8228915879863
 20
101.5999970436096
 30
0.0
 40
405.4378955490815
 41
218.5599527535252
 68
     0
 69
     0
 12
134.8228915879863
 22
101.5999970436096
 13
0.0
 23
0.0
 14
0.5
 24
0.5
 15
0.5
 25
0.5
 16
0.0
 26
0.0
 36
1.0
 17
0.0
 27
0.0
 37
0.0
 42
50.0
 43
0.0
 44
0.0
 45
218.5599527535252
 50
0.0
 51
0.0
 72
   100
 90
    32800
  1

281
     0
 71
     1
 74
     0
110
0.0
120
0.0
130
0.0
111
1.0
121
0.0
131
0.0
112
0.0
122
1.0
132
0.0
 79
     0
146
0.0
348
0
340
0
345
0
346
0
  0
VIEWPORT
  5
76
330
59
100
AcDbEntity
  8
0
100
AcDbViewport
 10
133.3499939441681
 20
101.5999939441681
 30
0.0
 40
213.3599903106689
 41
162.5599903106689
 68
     0
 69
     0
 12
210.0
 22
148.5
 13
0.0
 23
0.0
 14
10.0
 24
10.0
 15
10.0
 25
10.0
 16
0.0
 26
0.0
 36
1.0
 17
0.0
 27
0.0
 37
0.0
 42
50.0
 43
0.0
 44
0.0
 45
323.8170928200298
 50
0.0
 51
0.0
 72
   100
 90
    32864
  1

281
     0
 71
     1
 74
     0
110
0.0
120
0.0
130
0.0
111
1.0
121
0.0
131
0.0
112
0.0
122
1.0
132
0.0
 79
     0
146
0.0
348
0
340
0
345
0
346
0
  0
ENDBLK
  5
5C
330
59
100
AcDbEntity
  8
0
100
AcDbBlockEnd
  0
BLOCK
  5
60
330
5E
100
AcDbEntity
 67
     1
  8
0
100
AcDbBlockBegin
  2
*Paper_Space
 70
     0
 10
0.0
 20
0.0
 30
0.0
  3
*Paper_Space
  1

  0
ENDBLK
  5
61
330
5E
100
AcDbEntity
 67
     1
  8
0
100
AcDbBlockEnd
  0
BLOCK
  5
E8
330
DE
100
AcDbEntity
  8
0
100
AcDbBlockBegin
  2
*D1
 70
     1
 10
0.0
 20
0.0
 30
0.0
  3
*D1
  1

  0
LINE
  5
2C1
330
DE
100
AcDbEntity
  8
文本层
370
    -2
 62
     0
100
AcDbLine
 10
175.0363693391211
 20
102.0917339011746
 30
0.0
 11
104.8034478542026
 21
102.0917339011746
 31
0.0
  0
LINE
  5
2C2
330
DE
100
AcDbEntity
  8
文本层
370
    -2
 62
     0
100
AcDbLine
 10
175.0363693391211
 20
157.0917339011746
 30
0.0
 11
104.8034478542026
 21
157.0917339011746
 31
0.0
  0
LINE
  5
2C3
330
DE
100
AcDbEntity
  8
文本层
370
    -2
 62
     0
100
AcDbLine
 10
107.3034478542026
 20
105.5917339011746
 30
0.0
 11
107.3034478542026
 21
153.5917339011746
 31
0.0
  0
SOLID
  5
2C4
330
DE
100
AcDbEntity
  8
文本层
 62
     0
100
AcDbTrace
 38
0.0
 10
106.7201145208692
 20
105.5917339011746
 11
107.8867811875359
 21
105.5917339011746
 12
107.3034478542026
 22
102.0917339011746
 13
107.3034478542026
 23
102.0917339011746
  0
SOLID
  5
2C5
330
DE
100
AcDbEntity
  8
文本层
 62
     0
100
AcDbTrace
 38
0.0
 10
106.7201145208692
 20
153.5917339011746
 11
107.8867811875359
 21
153.5917339011746
 12
107.3034478542026
 22
157.0917339011746
 13
107.3034478542026
 23
157.0917339011746
  0
MTEXT
  5
2C6
330
DE
100
AcDbEntity
  8
文本层
 62
     0
100
AcDbMText
 10
104.1784478542026
 20
129.5917339011746
 30
0.0
210
0.0
220
0.0
230
1.0
 11
6.123031769111886E-17
 21
1.0
 31
0.0
 40
5.0
 41
0.0
 71
     5
 72
     1
  1
55
  7
数字与字母
 73
     1
 44
1.0
  0
POINT
  5
2C7
330
DE
100
AcDbEntity
  8
Defpoints
 62
     0
100
AcDbPoint
 10
175.0363693391211
 20
102.0917339011746
 30
0.0
 50
0.0
  0
POINT
  5
2C8
330
DE
100
AcDbEntity
  8
Defpoints
 62
     0
100
AcDbPoint
 10
175.0363693391211
 20
157.0917339011746
 30
0.0
 50
0.0
  0
POINT
  5
2C9
330
DE
100
AcDbEntity
  8
Defpoints
 62
     0
100
AcDbPoint
 10
107.3034478542026
 20
157.0917339011746
 30
0.0
 50
0.0
  0
ENDBLK
  5
E9
330
DE
100
AcDbEntity
  8
0
100
AcDbBlockEnd
  0
BLOCK
  5
100
330
F6
100
AcDbEntity
  8
0
100
AcDbBlockBegin
  2
*D2
 70
     1
 10
0.0
 20
0.0
 30
0.0
  3
*D2
  1

  0
LINE
  5
2B8
330
F6
100
AcDbEntity
  8
文本层
370
    -2
 62
     0
100
AcDbLine
 10
130.6500630401521
 20
157.0917339011746
 30
0.0
 11
104.8034478542026
 21
157.0917339011746
 31
0.0
  0
LINE
  5
2B9
330
F6
100
AcDbEntity
  8
文本层
370
    -2
 62
     0
100
AcDbLine
 10
175.0363693391211
 20
193.0917339011746
 30
0.0
 11
104.8034478542026
 21
193.0917339011746
 31
0.0
  0
LINE
  5
2BA
330
F6
100
AcDbEntity
  8
文本层
370
    -2
 62
     0
100
AcDbLine
 10
107.3034478542026
 20
160.5917339011746
 30
0.0
 11
107.3034478542026
 21
189.5917339011746
 31
0.0
  0
SOLID
  5
2BB
330
F6
100
AcDbEntity
  8
文本层
 62
     0
100
AcDbTrace
 38
0.0
 10
106.7201145208692
 20
160.5917339011746
 11
107.8867811875359
 21
160.5917339011746
 12
107.3034478542026
 22
157.0917339011746
 13
107.3034478542026
 23
157.0917339011746
  0
SOLID
  5
2BC
330
F6
100
AcDbEntity
  8
文本层
 62
     0
100
AcDbTrace
 38
0.0
 10
106.7201145208692
 20
189.5917339011746
 11
107.8867811875359
 21
189.5917339011746
 12
107.3034478542026
 22
193.0917339011746
 13
107.3034478542026
 23
193.0917339011746
  0
MTEXT
  5
2BD
330
F6
100
AcDbEntity
  8
文本层
 62
     0
100
AcDbMText
 10
104.1784478542025
 20
175.0917339011746
 30
0.0
210
0.0
220
0.0
230
1.0
 11
6.123031769111886E-17
 21
1.0
 31
0.0
 40
5.0
 41
0.0
 71
     5
 72
     1
  1
36
  7
数字与字母
 73
     1
 44
1.0
  0
POINT
  5
2BE
330
F6
100
AcDbEntity
  8
Defpoints
 62
     0
100
AcDbPoint
 10
130.6500630401521
 20
157.0917339011746
 30
0.0
 50
0.0
  0
POINT
  5
2BF
330
F6
100
AcDbEntity
  8
Defpoints
 62
     0
100
AcDbPoint
 10
175.0363693391211
 20
193.0917339011746
 30
0.0
 50
0.0
  0
POINT
  5
2C0
330
F6
100
AcDbEntity
  8
Defpoints
 62
     0
100
AcDbPoint
 10
107.3034478542026
 20
193.0917339011746
 30
0.0
 50
0.0
  0
ENDBLK
  5
101
330
F6
100
AcDbEntity
  8
0
100
AcDbBlockEnd
  0
BLOCK
  5
118
330
10E
100
AcDbEntity
  8
0
100
AcDbBlockBegin
  2
*D3
 70
     1
 10
0.0
 20
0.0
 30
0.0
  3
*D3
  1

  0
LINE
  5
2AF
330
10E
100
AcDbEntity
  8
文本层
370
    -2
 62
     0
100
AcDbLine
 10
175.0363693391211
 20
102.0917339011746
 30
0.0
 11
85.28636642792219
 21
102.0917339011746
 31
0.0
  0
LINE
  5
2B0
330
10E
100
AcDbEntity
  8
文本层
370
    -2
 62
     0
100
AcDbLine
 10
175.0363693391211
 20
262.0917339011746
 30
0.0
 11
85.28636642792222
 21
262.0917339011747
 31
0.0
  0
LINE
  5
2B1
330
10E
100
AcDbEntity
  8
文本层
370
    -2
 62
     0
100
AcDbLine
 10
87.78636642792219
 20
105.5917339011746
 30
0.0
 11
87.78636642792222
 21
258.5917339011747
 31
0.0
  0
SOLID
  5
2B2
330
10E
100
AcDbEntity
  8
文本层
 62
     0
100
AcDbTrace
 38
0.0
 10
87.20303309458886
 20
105.5917339011746
 11
88.36969976125552
 21
105.5917339011746
 12
87.78636642792219
 22
102.0917339011746
 13
87.78636642792219
 23
102.0917339011746
  0
SOLID
  5
2B3
330
10E
100
AcDbEntity
  8
文本层
 62
     0
100
AcDbTrace
 38
0.0
 10
87.20303309458889
 20
258.5917339011747
 11
88.36969976125555
 21
258.5917339011747
 12
87.78636642792222
 22
262.0917339011747
 13
87.78636642792222
 23
262.0917339011747
  0
MTEXT
  5
2B4
330
10E
100
AcDbEntity
  8
文本层
 62
     0
100
AcDbMText
 10
84.66136642792218
 20
182.0917339011747
 30
0.0
210
0.0
220
0.0
230
1.0
 11
6.123031769111886E-17
 21
1.0
 31
0.0
 40
5.0
 41
0.0
 71
     5
 72
     1
  1
160
  7
数字与字母
 73
     1
 44
1.0
  0
POINT
  5
2B5
330
10E
100
AcDbEntity
  8
Defpoints
 62
     0
100
AcDbPoint
 10
175.0363693391211
 20
102.0917339011746
 30
0.0
 50
0.0
  0
POINT
  5
2B6
330
10E
100
AcDbEntity
  8
Defpoints
 62
     0
100
AcDbPoint
 10
175.0363693391211
 20
262.0917339011746
 30
0.0
 50
0.0
  0
POINT
  5
2B7
330
10E
100
AcDbEntity
  8
Defpoints
 62
     0
100
AcDbPoint
 10
87.78636642792222
 20
262.0917339011747
 30
0.0
 50
0.0
  0
ENDBLK
  5
119
330
10E
100
AcDbEntity
  8
0
100
AcDbBlockEnd
  0
BLOCK
  5
131
330
126
100
AcDbEntity
  8
0
100
AcDbBlockBegin
  2
*D4
 70
     1
 10
0.0
 20
0.0
 30
0.0
  3
*D4
  1

  0
ARC
  5
2A0
330
126
100
AcDbEntity
  8
文本层
370
    -2
 62
     0
100
AcDbCircle
 10
175.0363693391211
 20
102.0917339011746
 30
0.0
 40
39.03666686090966
100
AcDbArc
 50
5.1388213807252
 51
24.83124513111022
  0
ARC
  5
2A1
330
126
100
AcDbEntity
  8
文本层
370
    -2
 62
     0
100
AcDbCircle
 10
175.0363693391211
 20
102.0917339011746
 30
0.0
 40
39.03666686090966
100
AcDbArc
 50
35.45426633272984
 51
54.86117861927472
  0
SOLID
  5
2A2
330
126
100
AcDbEntity
  8
文本层
 62
     0
100
AcDbTrace
 38
0.0
 10
214.4988793119552
 20
105.6143657896643
 11
213.333385558287
 21
105.5620645346944
 12
214.0730362000308
 22
102.0917339011746
 13
214.0730362000308
 23
102.0917339011746
  0
SOLID
  5
2A3
330
126
100
AcDbEntity
  8
文本层
 62
     0
100
AcDbTrace
 38
0.0
 10
197.1902719368635
 20
133.5227575193571
 11
197.8183130291514
 21
134.5059540905009
 12
194.5547027695759
 22
135.8984790817925
 13
194.5547027695759
 23
135.8984790817925
  0
MTEXT
  5
2A4
330
126
100
AcDbEntity
  8
文本层
 62
     0
100
AcDbMText
 10
208.843114519739
 20
121.6100673316294
 30
0.0
210
0.0
220
0.0
230
1.0
 11
1.0
 21
0.0
 31
0.0
 40
5.0
 41
0.0
 71
     5
 72
     1
  1
60°
  7
数字与字母
 73
     1
 44
1.0
  0
POINT
  5
2A5
330
126
100
AcDbEntity
  8
Defpoints
 62
     0
100
AcDbPoint
 10
211.7188371283957
 20
115.4430602958993
 30
0.0
 50
0.0
  0
POINT
  5
2A6
330
126
100
AcDbEntity
  8
Defpoints
 62
     0
100
AcDbPoint
 10
175.0363693391211
 20
102.0917339011746
 30
0.0
 50
0.0
  0
POINT
  5
2A7
330
126
100
AcDbEntity
  8
Defpoints
 62
     0
100
AcDbPoint
 10
121.0363693391211
 20
102.0917339011746
 30
0.0
 50
0.0
  0
POINT
  5
2A8
330
126
100
AcDbEntity
  8
Defpoints
 62
     0
100
AcDbPoint
 10
266.036369339121
 20
102.0917339011746
 30
0.0
 50
0.0
  0
POINT
  5
2A9
330
126
100
AcDbEntity
  8
Defpoints
 62
     0
100
AcDbPoint
 10
220.0363693391211
 20
180.0340202417741
 30
0.0
 50
0.0
  0
ENDBLK
  5
132
330
126
100
AcDbEntity
  8
0
100
AcDbBlockEnd
  0
BLOCK
  5
146
330
140
100
AcDbEntity
  8
0
100
AcDbBlockBegin
  2
*D5
 70
     1
 10
0.0
 20
0.0
 30
0.0
  3
*D5
  1

  0
LINE
  5
31F
330
140
100
AcDbEntity
  8
文本层
370
    -2
 62
     0
100
AcDbLine
 10
186.4217912483589
 20
141.2164580180394
 30
0.0
 11
191.9408495031688
 21
160.1820820700688
 31
0.0
  0
MTEXT
  5
320
330
140
100
AcDbEntity
  8
文本层
 62
     0
100
AcDbMText
 10
184.9463854555374
 20
147.3305569315577
 30
0.0
210
0.0
220
0.0
230
1.0
 11
0.2794128952735148
 21
0.9601710441139495
 31
0.0
 40
5.0
 41
0.0
 71
     5
 72
     1
  1
R64
  7
数字与字母
 73
     1
 44
1.0
  0
SOLID
  5
321
330
140
100
AcDbEntity
  8
文本层
 62
     0
100
AcDbTrace
 38
0.0
 10
191.3807497274357
 20
160.3450729256451
 11
192.500949278902
 21
160.0190912144926
 12
192.9187946366261
 22
163.5426807244677
 13
192.9187946366261
 23
163.5426807244677
  0
POINT
  5
322
330
140
100
AcDbEntity
  8
Defpoints
 62
     0
100
AcDbPoint
 10
192.9187946366261
 20
163.5426807244677
 30
0.0
 50
0.0
  0
POINT
  5
323
330
140
100
AcDbEntity
  8
Defpoints
 62
     0
100
AcDbPoint
 10
175.0363693391211
 20
102.0917339011746
 30
0.0
 50
0.0
  0
ENDBLK
  5
147
330
140
100
AcDbEntity
  8
0
100
AcDbBlockEnd
  0
BLOCK
  5
157
330
150
100
AcDbEntity
  8
0
100
AcDbBlockBegin
  2
*D6
 70
     1
 10
0.0
 20
0.0
 30
0.0
  3
*D6
  1

  0
LINE
  5
15A
330
150
100
AcDbEntity
  8
文本层
370
    -2
 62
     0
100
AcDbLine
 10
154.1298979707658
 20
143.9730887209099
 30
0.0
 11
162.4464618289678
 21
132.4016901195113
 31
0.0
  0
MTEXT
  5
15B
330
150
100
AcDbEntity
  8
文本层
 62
     0
100
AcDbMText
 10
159.8044349088153
 20
141.4322462349003
 30
0.0
210
0.0
220
0.0
230
1.0
 11
0.5836185163650506
 21
-0.8120279720279699
 31
0.0
 40
5.0
 41
0.0
 71
     5
 72
     1
  1
R20
  7
数字与字母
 73
     1
 44
1.0
  0
SOLID
  5
15C
330
150
100
AcDbEntity
  8
文本层
 62
     0
100
AcDbTrace
 38
0.0
 10
162.9201448126508
 20
132.7421342540576
 11
161.9727788452848
 21
132.061245984965
 12
164.4891266362455
 22
129.5595922174134
 13
164.4891266362455
 23
129.5595922174134
  0
POINT
  5
15D
330
150
100
AcDbEntity
  8
Defpoints
 62
     0
100
AcDbPoint
 10
164.4891266362455
 20
129.5595922174134
 30
0.0
 50
0.0
  0
POINT
  5
15E
330
150
100
AcDbEntity
  8
Defpoints
 62
     0
100
AcDbPoint
 10
152.8167563089444
 20
145.8001516579728
 30
0.0
 50
0.0
  0
ENDBLK
  5
158
330
150
100
AcDbEntity
  8
0
100
AcDbBlockEnd
  0
BLOCK
  5
169
330
161
100
AcDbEntity
  8
0
100
AcDbBlockBegin
  2
*D7
 70
     1
 10
0.0
 20
0.0
 30
0.0
  3
*D7
  1

  0
LINE
  5
2FB
330
161
100
AcDbEntity
  8
文本层
370
    -2
 62
     0
100
AcDbLine
 10
223.7843219359038
 20
56.16902423315616
 30
0.0
 11
213.6593219359036
 21
56.16902423315619
 31
0.0
  0
LINE
  5
2FC
330
161
100
AcDbEntity
  8
文本层
370
    -2
 62
     0
100
AcDbLine
 10
213.6593219359036
 20
56.16902423315619
 30
0.0
 11
206.2538677821888
 21
64.97411287076582
 31
0.0
  0
MTEXT
  5
2FD
330
161
100
AcDbEntity
  8
文本层
 62
     0
100
AcDbMText
 10
219.0343219359038
 20
59.29402423315614
 30
0.0
210
0.0
220
0.0
230
1.0
 11
1.0
 21
0.0
 31
0.0
 40
5.0
 41
0.0
 71
     5
 72
     1
  1
R45
  7
数字与字母
 73
     1
 44
1.0
  0
LINE
  5
2FE
330
161
100
AcDbEntity
  8
文本层
370
    -2
 62
     0
100
AcDbLine
 10
175.0363693391211
 20
102.0917339011746
 30
0.0
 11
204.0010586161943
 21
67.65270407914583
 31
0.0
  0
SOLID
  5
2FF
330
161
100
AcDbEntity
  8
文本层
 62
     0
100
AcDbTrace
 38
0.0
 10
206.7002996502522
 20
65.34958106509825
 11
205.8074359141255
 21
64.59864467643337
 12
204.0010586161943
 22
67.65270407914583
 13
204.0010586161943
 23
67.65270407914583
  0
POINT
  5
300
330
161
100
AcDbEntity
  8
Defpoints
 62
     0
100
AcDbPoint
 10
204.0010586161943
 20
67.65270407914583
 30
0.0
 50
0.0
  0
POINT
  5
301
330
161
100
AcDbEntity
  8
Defpoints
 62
     0
100
AcDbPoint
 10
175.0363693391211
 20
102.0917339011746
 30
0.0
 50
0.0
  0
ENDBLK
  5
16A
330
161
100
AcDbEntity
  8
0
100
AcDbBlockEnd
  0
BLOCK
  5
17C
330
175
100
AcDbEntity
  8
0
100
AcDbBlockBegin
  2
*D8
 70
     1
 10
0.0
 20
0.0
 30
0.0
  3
*D8
  1

  0
LINE
  5
349
330
175
100
AcDbEntity
  8
文本层
370
    -2
 62
     0
100
AcDbLine
 10
238.7379269496843
 20
69.67172345727872
 30
0.0
 11
228.6129269496843
 21
69.67172345727873
 31
0.0
  0
LINE
  5
34A
330
175
100
AcDbEntity
  8
文本层
370
    -2
 62
     0
100
AcDbLine
 10
228.6129269496843
 20
69.67172345727873
 30
0.0
 11
221.7275555120076
 21
83.99196580070543
 31
0.0
  0
MTEXT
  5
34B
330
175
100
AcDbEntity
  8
文本层
 62
     0
100
AcDbMText
 10
233.9879269496843
 20
72.79672345727873
 30
0.0
210
0.0
220
0.0
230
1.0
 11
1.0
 21
0.0
 31
0.0
 40
5.0
 41
0.0
 71
     5
 72
     1
  1
R10
  7
数字与字母
 73
     1
 44
1.0
  0
SOLID
  5
34C
330
175
100
AcDbEntity
  8
文本层
 62
     0
100
AcDbTrace
 38
0.0
 10
222.2532769240186
 20
84.2447399582669
 11
221.2018340999966
 21
83.73919164314395
 12
220.2109105666388
 22
87.14629427277158
 13
220.2109105666388
 23
87.14629427277158
  0
POINT
  5
34D
330
175
100
AcDbEntity
  8
Defpoints
 62
     0
100
AcDbPoint
 10
220.2109105666388
 20
87.14629427277158
 30
0.0
 50
0.0
  0
POINT
  5
34E
330
175
100
AcDbEntity
  8
Defpoints
 62
     0
100
AcDbPoint
 10
224.5441818391211
 20
78.13392720972553
 30
0.0
 50
0.0
  0
ENDBLK
  5
17D
330
175
100
AcDbEntity
  8
0
100
AcDbBlockEnd
  0
BLOCK
  5
18F
330
187
100
AcDbEntity
  8
0
100
AcDbBlockBegin
  2
*D9
 70
     1
 10
0.0
 20
0.0
 30
0.0
  3
*D9
  1

  0
LINE
  5
342
330
187
100
AcDbEntity
  8
文本层
370
    -2
 62
     0
100
AcDbLine
 10
270.9456937929055
 20
69.67172345727897
 30
0.0
 11
260.8206937929055
 21
69.67172345727897
 31
0.0
  0
LINE
  5
343
330
187
100
AcDbEntity
  8
文本层
370
    -2
 62
     0
100
AcDbLine
 10
260.8206937929055
 20
69.67172345727897
 30
0.0
 11
251.0275029622065
 21
84.2462102486363
 31
0.0
  0
MTEXT
  5
344
330
187
100
AcDbEntity
  8
文本层
 62
     0
100
AcDbMText
 10
266.1956937929055
 20
72.79672345727899
 30
0.0
210
0.0
220
0.0
230
1.0
 11
1.0
 21
0.0
 31
0.0
 40
5.0
 41
0.0
 71
     5
 72
     1
  1
R18
  7
数字与字母
 73
     1
 44
1.0
  0
LINE
  5
345
330
187
100
AcDbEntity
  8
文本层
370
    -2
 62
     0
100
AcDbLine
 10
239.0363693391211
 20
102.0917339011746
 30
0.0
 11
249.0754579537972
 21
87.15129549439837
 31
0.0
  0
SOLID
  5
346
330
187
100
AcDbEntity
  8
文本层
 62
     0
100
AcDbTrace
 38
0.0
 10
251.5116838365002
 20
84.5715510833712
 11
250.5433220879128
 21
83.92086941390143
 12
249.0754579537972
 22
87.15129549439837
 13
249.0754579537972
 23
87.15129549439837
  0
POINT
  5
347
330
187
100
AcDbEntity
  8
Defpoints
 62
     0
100
AcDbPoint
 10
249.0754579537972
 20
87.15129549439837
 30
0.0
 50
0.0
  0
POINT
  5
348
330
187
100
AcDbEntity
  8
Defpoints
 62
     0
100
AcDbPoint
 10
239.0363693391211
 20
102.0917339011746
 30
0.0
 50
0.0
  0
ENDBLK
  5
190
330
187
100
AcDbEntity
  8
0
100
AcDbBlockEnd
  0
BLOCK
  5
1A3
330
19B
100
AcDbEntity
  8
0
100
AcDbBlockBegin
  2
*D10
 70
     1
 10
0.0
 20
0.0
 30
0.0
  3
*D10
  1

  0
LINE
  5
33B
330
19B
100
AcDbEntity
  8
文本层
370
    -2
 62
     0
100
AcDbLine
 10
271.0631930852427
 20
85.47275386831195
 30
0.0
 11
264.2715264185761
 21
85.47275386831195
 31
0.0
  0
LINE
  5
33C
330
19B
100
AcDbEntity
  8
文本层
370
    -2
 62
     0
100
AcDbLine
 10
264.2715264185761
 20
85.47275386831195
 30
0.0
 11
249.4758710185831
 21
95.21664810647336
 31
0.0
  0
MTEXT
  5
33D
330
19B
100
AcDbEntity
  8
文本层
 62
     0
100
AcDbMText
 10
267.9798597519094
 20
88.59775386831198
 30
0.0
210
0.0
220
0.0
230
1.0
 11
1.0
 21
0.0
 31
0.0
 40
5.0
 41
0.0
 71
     5
 72
     1
  1
R9
  7
数字与字母
 73
     1
 44
1.0
  0
LINE
  5
33E
330
19B
100
AcDbEntity
  8
文本层
370
    -2
 62
     0
100
AcDbLine
 10
239.0363693391211
 20
102.0917339011746
 30
0.0
 11
246.5528105483337
 21
97.14167212898975
 31
0.0
  0
SOLID
  5
33F
330
19B
100
AcDbEntity
  8
文本层
 62
     0
100
AcDbTrace
 38
0.0
 10
249.7967083556692
 20
95.70382485151494
 11
249.1550336814971
 21
94.72947136143178
 12
246.5528105483337
 22
97.14167212898975
 13
246.5528105483337
 23
97.14167212898975
  0
POINT
  5
340
330
19B
100
AcDbEntity
  8
Defpoints
 62
     0
100
AcDbPoint
 10
246.5528105483337
 20
97.14167212898975
 30
0.0
 50
0.0
  0
POINT
  5
341
330
19B
100
AcDbEntity
  8
Defpoints
 62
     0
100
AcDbPoint
 10
239.0363693391211
 20
102.0917339011746
 30
0.0
 50
0.0
  0
ENDBLK
  5
1A4
330
19B
100
AcDbEntity
  8
0
100
AcDbBlockEnd
  0
BLOCK
  5
1B6
330
1AF
100
AcDbEntity
  8
0
100
AcDbBlockBegin
  2
*D11
 70
     1
 10
0.0
 20
0.0
 30
0.0
  3
*D11
  1

  0
LINE
  5
319
330
1AF
100
AcDbEntity
  8
文本层
370
    -2
 62
     0
100
AcDbLine
 10
215.6299968843869
 20
192.9148074116532
 30
0.0
 11
205.5049968843869
 21
192.9148074116532
 31
0.0
  0
LINE
  5
31A
330
1AF
100
AcDbEntity
  8
文本层
370
    -2
 62
     0
100
AcDbLine
 10
205.5049968843869
 20
192.9148074116532
 30
0.0
 11
199.0563230559004
 21
184.5883518018118
 31
0.0
  0
MTEXT
  5
31B
330
1AF
100
AcDbEntity
  8
文本层
 62
     0
100
AcDbMText
 10
210.8799968843869
 20
196.0398074116532
 30
0.0
210
0.0
220
0.0
230
1.0
 11
1.0
 21
0.0
 31
0.0
 40
5.0
 41
0.0
 71
     5
 72
     1
  1
R10
  7
数字与字母
 73
     1
 44
1.0
  0
SOLID
  5
31C
330
1AF
100
AcDbEntity
  8
文本层
 62
     0
100
AcDbTrace
 38
0.0
 10
198.5951315289603
 20
184.9455354426137
 11
199.5175145828404
 21
184.23116816101
 12
196.9132212110892
 22
181.8212026401714
 13
196.9132212110892
 23
181.8212026401714
  0
POINT
  5
31D
330
1AF
100
AcDbEntity
  8
Defpoints
 62
     0
100
AcDbPoint
 10
196.9132212110892
 20
181.8212026401714
 30
0.0
 50
0.0
  0
POINT
  5
31E
330
1AF
100
AcDbEntity
  8
Defpoints
 62
     0
100
AcDbPoint
 10
203.0363693391211
 20
189.7273431020012
 30
0.0
 50
0.0
  0
ENDBLK
  5
1B7
330
1AF
100
AcDbEntity
  8
0
100
AcDbBlockEnd
  0
BLOCK
  5
1C9
330
1C1
100
AcDbEntity
  8
0
100
AcDbBlockBegin
  2
*D12
 70
     1
 10
0.0
 20
0.0
 30
0.0
  3
*D12
  1

  0
LINE
  5
312
330
1C1
100
AcDbEntity
  8
文本层
370
    -2
 62
     0
100
AcDbLine
 10
211.5214988021181
 20
205.6844519946716
 30
0.0
 11
201.3964988021181
 21
205.6844519946716
 31
0.0
  0
LINE
  5
313
330
1C1
100
AcDbEntity
  8
文本层
370
    -2
 62
     0
100
AcDbLine
 10
201.3964988021181
 20
205.6844519946716
 30
0.0
 11
194.4363496609934
 21
202.3594608884666
 31
0.0
  0
MTEXT
  5
314
330
1C1
100
AcDbEntity
  8
文本层
 62
     0
100
AcDbMText
 10
206.7714988021181
 20
208.8094519946716
 30
0.0
210
0.0
220
0.0
230
1.0
 11
1.0
 21
0.0
 31
0.0
 40
5.0
 41
0.0
 71
     5
 72
     1
  1
R18
  7
数字与字母
 73
     1
 44
1.0
  0
LINE
  5
315
330
1C1
100
AcDbEntity
  8
文本层
370
    -2
 62
     0
100
AcDbLine
 10
175.0363693391211
 20
193.0917339011746
 30
0.0
 11
191.2782133295259
 21
200.8507611463493
 31
0.0
  0
SOLID
  5
316
330
1C1
100
AcDbEntity
  8
文本层
 62
     0
100
AcDbTrace
 38
0.0
 10
194.1848997039739
 20
202.8858169437112
 11
194.687799618013
 21
201.833104833222
 12
191.2782133295259
 22
200.8507611463493
 13
191.2782133295259
 23
200.8507611463493
  0
POINT
  5
317
330
1C1
100
AcDbEntity
  8
Defpoints
 62
     0
100
AcDbPoint
 10
191.2782133295259
 20
200.8507611463493
 30
0.0
 50
0.0
  0
POINT
  5
318
330
1C1
100
AcDbEntity
  8
Defpoints
 62
     0
100
AcDbPoint
 10
175.0363693391211
 20
193.0917339011746
 30
0.0
 50
0.0
  0
ENDBLK
  5
1CA
330
1C1
100
AcDbEntity
  8
0
100
AcDbBlockEnd
  0
BLOCK
  5
1DD
330
1D5
100
AcDbEntity
  8
0
100
AcDbBlockBegin
  2
*D13
 70
     1
 10
0.0
 20
0.0
 30
0.0
  3
*D13
  1

  0
LINE
  5
30B
330
1D5
100
AcDbEntity
  8
文本层
370
    -2
 62
     0
100
AcDbLine
 10
204.536166740465
 20
218.7581354843547
 30
0.0
 11
197.7445000737983
 21
218.7581354843547
 31
0.0
  0
LINE
  5
30C
330
1D5
100
AcDbEntity
  8
文本层
370
    -2
 62
     0
100
AcDbLine
 10
197.7445000737983
 20
218.7581354843547
 30
0.0
 11
183.3192052203807
 21
202.4536049622452
 31
0.0
  0
MTEXT
  5
30D
330
1D5
100
AcDbEntity
  8
文本层
 62
     0
100
AcDbMText
 10
201.4528334071317
 20
221.8831354843547
 30
0.0
210
0.0
220
0.0
230
1.0
 11
1.0
 21
0.0
 31
0.0
 40
5.0
 41
0.0
 71
     5
 72
     1
  1
R9
  7
数字与字母
 73
     1
 44
1.0
  0
LINE
  5
30E
330
1D5
100
AcDbEntity
  8
文本层
370
    -2
 62
     0
100
AcDbLine
 10
175.0363693391211
 20
193.0917339011747
 30
0.0
 11
181.000011173628
 21
199.8322810651454
 31
0.0
  0
SOLID
  5
30F
330
1D5
100
AcDbEntity
  8
文本层
 62
     0
100
AcDbTrace
 38
0.0
 10
182.8823179041974
 20
202.8401373033707
 11
183.756092536564
 21
202.0670726211198
 12
181.000011173628
 22
199.8322810651454
 13
181.000011173628
 23
199.8322810651454
  0
POINT
  5
310
330
1D5
100
AcDbEntity
  8
Defpoints
 62
     0
100
AcDbPoint
 10
181.000011173628
 20
199.8322810651454
 30
0.0
 50
0.0
  0
POINT
  5
311
330
1D5
100
AcDbEntity
  8
Defpoints
 62
     0
100
AcDbPoint
 10
175.0363693391211
 20
193.0917339011747
 30
0.0
 50
0.0
  0
ENDBLK
  5
1DE
330
1D5
100
AcDbEntity
  8
0
100
AcDbBlockEnd
  0
BLOCK
  5
1F1
330
1E9
100
AcDbEntity
  8
0
100
AcDbBlockBegin
  2
*D14
 70
     1
 10
0.0
 20
0.0
 30
0.0
  3
*D14
  1

  0
LINE
  5
334
330
1E9
100
AcDbEntity
  8
文本层
370
    -2
 62
     0
100
AcDbLine
 10
192.076493782264
 20
267.9496733691774
 30
0.0
 11
185.2848271155972
 21
267.9496733691774
 31
0.0
  0
LINE
  5
335
330
1E9
100
AcDbEntity
  8
文本层
370
    -2
 62
     0
100
AcDbLine
 10
185.2848271155972
 20
267.9496733691774
 30
0.0
 11
180.8707846066569
 21
263.2731252078262
 31
0.0
  0
MTEXT
  5
336
330
1E9
100
AcDbEntity
  8
文本层
 62
     0
100
AcDbMText
 10
188.9931604489307
 20
271.0746733691774
 30
0.0
210
0.0
220
0.0
230
1.0
 11
1.0
 21
0.0
 31
0.0
 40
5.0
 41
0.0
 71
     5
 72
     1
  1
R5
  7
数字与字母
 73
     1
 44
1.0
  0
LINE
  5
337
330
1E9
100
AcDbEntity
  8
文本层
370
    -2
 62
     0
100
AcDbLine
 10
175.0363693391211
 20
257.0917339011746
 30
0.0
 11
178.4683783200245
 21
260.7278464344991
 31
0.0
  0
SOLID
  5
338
330
1E9
100
AcDbEntity
  8
文本层
 62
     0
100
AcDbTrace
 38
0.0
 10
180.4465714777691
 20
263.6735262555982
 11
181.2949977355447
 21
262.8727241600541
 12
178.4683783200245
 22
260.7278464344991
 13
178.4683783200245
 23
260.7278464344991
  0
POINT
  5
339
330
1E9
100
AcDbEntity
  8
Defpoints
 62
     0
100
AcDbPoint
 10
178.4683783200245
 20
260.7278464344991
 30
0.0
 50
0.0
  0
POINT
  5
33A
330
1E9
100
AcDbEntity
  8
Defpoints
 62
     0
100
AcDbPoint
 10
175.0363693391211
 20
257.0917339011746
 30
0.0
 50
0.0
  0
ENDBLK
  5
1F2
330
1E9
100
AcDbEntity
  8
0
100
AcDbBlockEnd
  0
BLOCK
  5
204
330
1FD
100
AcDbEntity
  8
0
100
AcDbBlockBegin
  2
*D15
 70
     1
 10
0.0
 20
0.0
 30
0.0
  3
*D15
  1

  0
LINE
  5
32E
330
1FD
100
AcDbEntity
  8
文本层
370
    -2
 62
     0
100
AcDbLine
 10
147.3703639984643
 20
218.450447108116
 30
0.0
 11
157.4953639984643
 21
218.450447108116
 31
0.0
  0
LINE
  5
32F
330
1FD
100
AcDbEntity
  8
文本层
370
    -2
 62
     0
100
AcDbLine
 10
157.4953639984643
 20
218.450447108116
 30
0.0
 11
165.9074137017462
 21
213.6572805884676
 31
0.0
  0
MTEXT
  5
330
330
1FD
100
AcDbEntity
  8
文本层
 62
     0
100
AcDbMText
 10
152.1203639984642
 20
221.575447108116
 30
0.0
210
0.0
220
0.0
230
1.0
 11
1.0
 21
0.0
 31
0.0
 40
5.0
 41
0.0
 71
     5
 72
     1
  1
R10
  7
数字与字母
 73
     1
 44
1.0
  0
SOLID
  5
331
330
1FD
100
AcDbEntity
  8
文本层
 62
     0
100
AcDbTrace
 38
0.0
 10
166.196204749889
 20
214.1641114362761
 11
165.6186226536033
 21
213.1504497406591
 12
168.9483987885973
 22
211.9245342996103
 13
168.9483987885973
 23
211.9245342996103
  0
POINT
  5
332
330
1FD
100
AcDbEntity
  8
Defpoints
 62
     0
100
AcDbPoint
 10
168.9483987885973
 20
211.9245342996103
 30
0.0
 50
0.0
  0
POINT
  5
333
330
1FD
100
AcDbEntity
  8
Defpoints
 62
     0
100
AcDbPoint
 10
160.2598699690226
 20
216.8752379820597
 30
0.0
 50
0.0
  0
ENDBLK
  5
205
330
1FD
100
AcDbEntity
  8
0
100
AcDbBlockEnd
  0
BLOCK
  5
215
330
20F
100
AcDbEntity
  8
0
100
AcDbBlockBegin
  2
*D16
 70
     1
 10
0.0
 20
0.0
 30
0.0
  3
*D16
  1

  0
LINE
  5
329
330
20F
100
AcDbEntity
  8
文本层
370
    -2
 62
     0
100
AcDbLine
 10
151.5995744203826
 20
240.5389501338903
 30
0.0
 11
180.6676333479596
 21
246.9323568639595
 31
0.0
  0
MTEXT
  5
32A
330
20F
100
AcDbEntity
  8
文本层
 62
     0
100
AcDbMText
 10
156.1778115642646
 20
244.7456108825577
 30
0.0
210
0.0
220
0.0
230
1.0
 11
0.9766555081765935
 21
0.2148115880215029
 31
0.0
 40
5.0
 41
0.0
 71
     5
 72
     1
  1
R40
  7
数字与字母
 73
     1
 44
1.0
  0
SOLID
  5
32B
330
20F
100
AcDbEntity
  8
文本层
 62
     0
100
AcDbTrace
 38
0.0
 10
180.5423265882804
 20
247.5020725770625
 11
180.7929401076388
 21
246.3626411508565
 12
184.0859276265776
 22
247.6841974220348
 13
184.0859276265776
 23
247.6841974220348
  0
POINT
  5
32C
330
20F
100
AcDbEntity
  8
Defpoints
 62
     0
100
AcDbPoint
 10
184.0859276265776
 20
247.6841974220348
 30
0.0
 50
0.0
  0
POINT
  5
32D
330
20F
100
AcDbEntity
  8
Defpoints
 62
     0
100
AcDbPoint
 10
145.0197072995138
 20
239.0917339011746
 30
0.0
 50
0.0
  0
ENDBLK
  5
216
330
20F
100
AcDbEntity
  8
0
100
AcDbBlockEnd
  0
BLOCK
  5
226
330
21F
100
AcDbEntity
  8
0
100
AcDbBlockBegin
  2
*D17
 70
     1
 10
0.0
 20
0.0
 30
0.0
  3
*D17
  1

  0
LINE
  5
229
330
21F
100
AcDbEntity
  8
文本层
370
    -2
 62
     0
100
AcDbLine
 10
154.1298979707657
 20
143.9730887209098
 30
0.0
 11
162.4464618289678
 21
132.4016901195113
 31
0.0
  0
MTEXT
  5
22A
330
21F
100
AcDbEntity
  8
文本层
 62
     0
100
AcDbMText
 10
159.8044349088153
 20
141.4322462349003
 30
0.0
210
0.0
220
0.0
230
1.0
 11
0.5836185163650549
 21
-0.8120279720279668
 31
0.0
 40
5.0
 41
0.0
 71
     5
 72
     1
  1
R20
  7
数字与字母
 73
     1
 44
1.0
  0
SOLID
  5
22B
330
21F
100
AcDbEntity
  8
文本层
 62
     0
100
AcDbTrace
 38
0.0
 10
162.9201448126508
 20
132.7421342540576
 11
161.9727788452848
 21
132.061245984965
 12
164.4891266362455
 22
129.5595922174134
 13
164.4891266362455
 23
129.5595922174134
  0
POINT
  5
22C
330
21F
100
AcDbEntity
  8
Defpoints
 62
     0
100
AcDbPoint
 10
164.4891266362455
 20
129.5595922174134
 30
0.0
 50
0.0
  0
POINT
  5
22D
330
21F
100
AcDbEntity
  8
Defpoints
 62
     0
100
AcDbPoint
 10
152.8167563089443
 20
145.8001516579727
 30
0.0
 50
0.0
  0
ENDBLK
  5
227
330
21F
100
AcDbEntity
  8
0
100
AcDbBlockEnd
  0
BLOCK
  5
237
330
230
100
AcDbEntity
  8
0
100
AcDbBlockBegin
  2
*D18
 70
     1
 10
0.0
 20
0.0
 30
0.0
  3
*D18
  1

  0
LINE
  5
23A
330
230
100
AcDbEntity
  8
文本层
370
    -2
 62
     0
100
AcDbLine
 10
154.1298979707659
 20
143.9730887209099
 30
0.0
 11
162.4464618289678
 21
132.4016901195113
 31
0.0
  0
MTEXT
  5
23B
330
230
100
AcDbEntity
  8
文本层
 62
     0
100
AcDbMText
 10
159.8044349088155
 20
141.4322462349003
 30
0.0
210
0.0
220
0.0
230
1.0
 11
0.5836185163650462
 21
-0.8120279720279728
 31
0.0
 40
5.0
 41
0.0
 71
     5
 72
     1
  1
R20
  7
数字与字母
 73
     1
 44
1.0
  0
SOLID
  5
23C
330
230
100
AcDbEntity
  8
文本层
 62
     0
100
AcDbTrace
 38
0.0
 10
162.9201448126508
 20
132.7421342540576
 11
161.9727788452848
 21
132.061245984965
 12
164.4891266362455
 22
129.5595922174134
 13
164.4891266362455
 23
129.5595922174134
  0
POINT
  5
23D
330
230
100
AcDbEntity
  8
Defpoints
 62
     0
100
AcDbPoint
 10
164.4891266362455
 20
129.5595922174134
 30
0.0
 50
0.0
  0
POINT
  5
23E
330
230
100
AcDbEntity
  8
Defpoints
 62
     0
100
AcDbPoint
 10
152.8167563089446
 20
145.8001516579728
 30
0.0
 50
0.0
  0
ENDBLK
  5
238
330
230
100
AcDbEntity
  8
0
100
AcDbBlockEnd
  0
BLOCK
  5
248
330
241
100
AcDbEntity
  8
0
100
AcDbBlockBegin
  2
*D19
 70
     1
 10
0.0
 20
0.0
 30
0.0
  3
*D19
  1

  0
LINE
  5
324
330
241
100
AcDbEntity
  8
文本层
370
    -2
 62
     0
100
AcDbLine
 10
137.5303864690312
 20
154.2763482595462
 30
0.0
 11
146.7308712954163
 21
141.4750905445309
 31
0.0
  0
MTEXT
  5
325
330
241
100
AcDbEntity
  8
文本层
 62
     0
100
AcDbMText
 10
143.2049234070807
 20
151.7355057735365
 30
0.0
210
0.0
220
0.0
230
1.0
 11
0.5836185163650361
 21
-0.8120279720279802
 31
0.0
 40
5.0
 41
0.0
 71
     5
 72
     1
  1
R20
  7
数字与字母
 73
     1
 44
1.0
  0
SOLID
  5
326
330
241
100
AcDbEntity
  8
文本层
 62
     0
100
AcDbTrace
 38
0.0
 10
147.2045542790993
 20
141.8155346790772
 11
146.2571883117333
 21
141.1346464099847
 12
148.7735361026939
 22
138.632992642433
 13
148.7735361026939
 23
138.632992642433
  0
POINT
  5
327
330
241
100
AcDbEntity
  8
Defpoints
 62
     0
100
AcDbPoint
 10
148.7735361026939
 20
138.632992642433
 30
0.0
 50
0.0
  0
POINT
  5
328
330
241
100
AcDbEntity
  8
Defpoints
 62
     0
100
AcDbPoint
 10
137.101165775393
 20
154.8735520829928
 30
0.0
 50
0.0
  0
ENDBLK
  5
249
330
241
100
AcDbEntity
  8
0
100
AcDbBlockEnd
  0
BLOCK
  5
25C
330
252
100
AcDbEntity
  8
0
100
AcDbBlockBegin
  2
*D20
 70
     1
 10
0.0
 20
0.0
 30
0.0
  3
*D20
  1

  0
LINE
  5
25F
330
252
100
AcDbEntity
  8
文本层
370
    -2
 62
     0
100
AcDbLine
 10
148.9808247518159
 20
45.83450576593751
 30
0.0
 11
158.7724914184825
 21
45.83450576593751
 31
0.0
  0
LINE
  5
260
330
252
100
AcDbEntity
  8
文本层
370
    -2
 62
     0
100
AcDbLine
 10
158.7724914184825
 20
45.83450576593751
 30
0.0
 11
163.5413595213004
 21
52.87069059991726
 31
0.0
  0
LINE
  5
261
330
252
100
AcDbEntity
  8
文本层
370
    -2
 62
     0
100
AcDbLine
 10
217.9625602240449
 20
133.1659763523922
 30
0.0
 11
219.9262117957934
 21
136.0632289310897
 31
0.0
  0
MTEXT
  5
262
330
252
100
AcDbEntity
  8
文本层
 62
     0
100
AcDbMText
 10
153.5641580851492
 20
48.95950576593749
 30
0.0
210
0.0
220
0.0
230
1.0
 11
1.0
 21
0.0
 31
0.0
 40
5.0
 41
0.0
 71
     5
 72
     1
  1
\U+220590
  7
数字与字母
 73
     1
 44
1.0
  0
LINE
  5
263
330
252
100
AcDbEntity
  8
文本层
370
    -2
 62
     0
100
AcDbLine
 10
215.9989086522964
 20
130.2687237736946
 30
0.0
 11
165.5050110930489
 21
55.76794317861482
 31
0.0
  0
SOLID
  5
264
330
252
100
AcDbEntity
  8
文本层
 62
     0
100
AcDbTrace
 38
0.0
 10
217.479684794262
 20
133.4932516143503
 11
218.4454356538278
 21
132.8387010904341
 12
215.9989086522964
 22
130.2687237736946
 13
215.9989086522964
 23
130.2687237736946
  0
SOLID
  5
265
330
252
100
AcDbEntity
  8
文本层
 62
     0
100
AcDbTrace
 38
0.0
 10
163.0584840915174
 20
53.19796586187535
 11
164.0242349510833
 21
52.54341533795917
 12
165.5050110930489
 22
55.76794317861482
 13
165.5050110930489
 23
55.76794317861482
  0
POINT
  5
266
330
252
100
AcDbEntity
  8
Defpoints
 62
     0
100
AcDbPoint
 10
165.5050110930489
 20
55.76794317861482
 30
0.0
 50
0.0
  0
POINT
  5
267
330
252
100
AcDbEntity
  8
Defpoints
 62
     0
100
AcDbPoint
 10
215.9989086522964
 20
130.2687237736946
 30
0.0
 50
0.0
  0
ENDBLK
  5
25D
330
252
100
AcDbEntity
  8
0
100
AcDbBlockEnd
  0
BLOCK
  5
274
330
26A
100
AcDbEntity
  8
0
100
AcDbBlockBegin
  2
*D21
 70
     1
 10
0.0
 20
0.0
 30
0.0
  3
*D21
  1

  0
LINE
  5
302
330
26A
100
AcDbEntity
  8
文本层
370
    -2
 62
     0
100
AcDbLine
 10
115.6955599805883
 20
60.52167909410309
 30
0.0
 11
125.4872266472549
 21
60.52167909410309
 31
0.0
  0
LINE
  5
303
330
26A
100
AcDbEntity
  8
文本层
370
    -2
 62
     0
100
AcDbLine
 10
125.4872266472549
 20
60.52167909410309
 30
0.0
 11
155.1179049678799
 21
85.38081600024547
 31
0.0
  0
LINE
  5
304
330
26A
100
AcDbEntity
  8
文本层
370
    -2
 62
     0
100
AcDbLine
 10
194.9548337103622
 20
118.8026518021037
 30
0.0
 11
197.6361654526447
 21
121.0521984426134
 31
0.0
  0
MTEXT
  5
305
330
26A
100
AcDbEntity
  8
文本层
 62
     0
100
AcDbMText
 10
120.2788933139216
 20
63.64667909410309
 30
0.0
210
0.0
220
0.0
230
1.0
 11
1.0
 21
0.0
 31
0.0
 40
5.0
 41
0.0
 71
     5
 72
     1
  1
\U+220545
  7
数字与字母
 73
     1
 44
1.0
  0
LINE
  5
306
330
26A
100
AcDbEntity
  8
文本层
370
    -2
 62
     0
100
AcDbLine
 10
192.2735019680797
 20
116.553105161594
 30
0.0
 11
157.7992367101623
 21
87.63036264075517
 31
0.0
  0
SOLID
  5
307
330
26A
100
AcDbEntity
  8
文本层
 62
     0
100
AcDbTrace
 38
0.0
 10
194.5799092702773
 20
119.2495404258175
 11
195.3297581504472
 21
118.3557631783899
 12
192.2735019680797
 22
116.553105161594
 13
192.2735019680797
 23
116.553105161594
  0
SOLID
  5
308
330
26A
100
AcDbEntity
  8
文本层
 62
     0
100
AcDbTrace
 38
0.0
 10
154.7429805277949
 20
85.82770462395922
 11
155.4928294079648
 21
84.93392737653173
 12
157.7992367101623
 22
87.63036264075517
 13
157.7992367101623
 23
87.63036264075517
  0
POINT
  5
309
330
26A
100
AcDbEntity
  8
Defpoints
 62
     0
100
AcDbPoint
 10
157.7992367101623
 20
87.63036264075517
 30
0.0
 50
0.0
  0
POINT
  5
30A
330
26A
100
AcDbEntity
  8
Defpoints
 62
     0
100
AcDbPoint
 10
192.2735019680797
 20
116.553105161594
 30
0.0
 50
0.0
  0
ENDBLK
  5
275
330
26A
100
AcDbEntity
  8
0
100
AcDbBlockEnd
  0
ENDSEC
  0
SECTION
  2
ENTITIES
  0
LINE
  5
A9
102
{ACAD_REACTORS
330
13E
102
}
330
1F
100
AcDbEntity
  8
点划线
100
AcDbLine
 10
121.0363693391211
 20
102.0917339011746
 30
0.0
 11
266.0363693391211
 21
102.0917339011746
 31
0.0
  0
LINE
  5
AA
330
1F
100
AcDbEntity
  8
点划线
100
AcDbLine
 10
175.0363693391211
 20
271.0917339011746
 30
0.0
 11
175.0363693391211
 21
48.09173390117462
 31
0.0
  0
LINE
  5
AB
330
1F
100
AcDbEntity
  8
点划线
100
AcDbLine
 10
148.0363693391211
 20
157.0917339011746
 30
0.0
 11
244.855774137261
 21
157.0917339011746
 31
0.0
  0
LINE
  5
AC
102
{ACAD_REACTORS
330
10C
102
}
330
1F
100
AcDbEntity
  8
点划线
100
AcDbLine
 10
148.0363693391211
 20
193.0917339011746
 30
0.0
 11
202.0363693391211
 21
193.0917339011746
 31
0.0
  0
ARC
  5
AE
102
{ACAD_REACTORS
330
173
102
}
330
1F
100
AcDbEntity
  8
轮廓线
100
AcDbCircle
 10
175.0363693391211
 20
102.0917339011746
 30
0.0
 40
45.0
100
AcDbArc
 50
125.7054543678147
 51
334.1767447633265
  0
CIRCLE
  5
AF
102
{ACAD_REACTORS
330
280
102
}
330
1F
100
AcDbEntity
  8
轮廓线
100
AcDbCircle
 10
175.0363693391211
 20
102.0917339011746
 30
0.0
 40
22.5
  0
ARC
  5
B2
102
{ACAD_REACTORS
330
1D3
102
}
330
1F
100
AcDbEntity
  8
轮廓线
100
AcDbCircle
 10
175.0363693391211
 20
193.0917339011746
 30
0.0
 40
18.0
100
AcDbArc
 50
0.0
 51
180.0
  0
ARC
  5
B4
102
{ACAD_REACTORS
330
F4
102
}
330
1F
100
AcDbEntity
  8
轮廓线
100
AcDbCircle
 10
175.0363693391211
 20
157.0917339011746
 30
0.0
 40
9.0
100
AcDbArc
 50
180.0
 51
0.0
  0
ARC
  5
B5
102
{ACAD_REACTORS
330
1E7
102
}
330
1F
100
AcDbEntity
  8
轮廓线
100
AcDbCircle
 10
175.0363693391211
 20
193.0917339011746
 30
0.0
 40
9.0
100
AcDbArc
 50
0.0
 51
180.0
  0
LINE
  5
B6
330
1F
100
AcDbEntity
  8
轮廓线
100
AcDbLine
 10
166.0363693391211
 20
193.0917339011746
 30
0.0
 11
166.0363693391211
 21
157.0917339011746
 31
0.0
  0
LINE
  5
B7
330
1F
100
AcDbEntity
  8
轮廓线
100
AcDbLine
 10
184.0363693391211
 20
193.0917339011746
 30
0.0
 11
184.0363693391211
 21
157.0917339011746
 31
0.0
  0
LINE
  5
B8
330
1F
100
AcDbEntity
  8
轮廓线
100
AcDbLine
 10
193.0363693391211
 20
193.0917339011746
 30
0.0
 11
193.0363693391211
 21
189.7273431020012
 31
0.0
  0
LINE
  5
B9
330
1F
100
AcDbEntity
  8
轮廓线
100
AcDbLine
 10
157.0363693391211
 20
193.0917339011746
 30
0.0
 11
157.0363693391211
 21
157.0917339011746
 31
0.0
  0
ARC
  5
BA
102
{ACAD_REACTORS
330
250
102
}
330
1F
100
AcDbEntity
  8
轮廓线
100
AcDbCircle
 10
137.101165775393
 20
154.8735520829928
 30
0.0
 40
20.0
100
AcDbArc
 50
305.7054543678146
 51
6.367723317274387
  0
LINE
  5
BC
102
{ACAD_REACTORS
330
F4
330
124
330
13E
102
}
330
1F
100
AcDbEntity
  8
点划线
100
AcDbLine
 10
175.0363693391211
 20
102.0917339011746
 30
0.0
 11
220.0363693391211
 21
180.0340202417741
 31
0.0
  0
ARC
  5
BF
102
{ACAD_REACTORS
330
14E
102
}
330
1F
100
AcDbEntity
  8
点划线
100
AcDbCircle
 10
175.0363693391211
 20
102.0917339011746
 30
0.0
 40
64.0
100
AcDbArc
 50
345.7432424888723
 51
77.5430726170156
  0
CIRCLE
  5
C1
330
1F
100
AcDbEntity
  8
轮廓线
100
AcDbCircle
 10
207.0363693391211
 20
157.5173597433787
 30
0.0
 40
9.0
  0
CIRCLE
  5
C2
102
{ACAD_REACTORS
330
1AD
102
}
330
1F
100
AcDbEntity
  8
轮廓线
100
AcDbCircle
 10
239.0363693391211
 20
102.0917339011746
 30
0.0
 40
9.0
  0
ARC
  5
C3
102
{ACAD_REACTORS
330
199
102
}
330
1F
100
AcDbEntity
  8
轮廓线
100
AcDbCircle
 10
239.0363693391211
 20
102.0917339011746
 30
0.0
 40
18.0
100
AcDbArc
 50
238.8300633270269
 51
0.0
  0
ARC
  5
C4
102
{ACAD_REACTORS
330
185
102
}
330
1F
100
AcDbEntity
  8
轮廓线
100
AcDbCircle
 10
224.5441818391211
 20
78.13392720972553
 30
0.0
 40
10.0
100
AcDbArc
 50
58.83006332702689
 51
154.1767447633266
  0
ARC
  5
C5
330
1F
100
AcDbEntity
  8
轮廓线
100
AcDbCircle
 10
175.0363693391211
 20
102.0917339011746
 30
0.0
 40
55.00000000000002
100
AcDbArc
 50
0.0
 51
60.00000000000002
  0
ARC
  5
C6
330
1F
100
AcDbEntity
  8
轮廓线
100
AcDbCircle
 10
175.0363693391211
 20
102.0917339011746
 30
0.0
 40
73.00000000000001
100
AcDbArc
 50
0.0
 51
60.00000000000001
  0
ARC
  5
C7
330
1F
100
AcDbEntity
  8
轮廓线
100
AcDbCircle
 10
175.0363693391211
 20
102.0917339011746
 30
0.0
 40
82.00000000000003
100
AcDbArc
 50
0.0
 51
72.28106812659294
  0
ARC
  5
C8
102
{ACAD_REACTORS
330
1BF
102
}
330
1F
100
AcDbEntity
  8
轮廓线
100
AcDbCircle
 10
203.0363693391211
 20
189.7273431020012
 30
0.0
 40
10.0
100
AcDbArc
 50
180.0
 51
252.2810681265929
  0
CIRCLE
  5
CC
102
{ACAD_REACTORS
330
124
330
1FB
102
}
330
1F
100
AcDbEntity
  8
轮廓线
100
AcDbCircle
 10
175.0363693391211
 20
257.0917339011746
 30
0.0
 40
5.0
  0
ARC
  5
CE
102
{ACAD_REACTORS
330
21D
102
}
330
1F
100
AcDbEntity
  8
轮廓线
100
AcDbCircle
 10
145.0197072995138
 20
239.0917339011746
 30
0.0
 40
40.0
100
AcDbArc
 50
333.6195248935546
 51
30.94972307885933
  0
ARC
  5
CF
330
1F
100
AcDbEntity
  8
轮廓线
100
AcDbCircle
 10
205.0530313787283
 20
239.0917339011746
 30
0.0
 40
40.0
100
AcDbArc
 50
149.0502769211407
 51
206.3804751064453
  0
ARC
  5
D2
330
1F
100
AcDbEntity
  8
轮廓线
100
AcDbCircle
 10
189.8128687092195
 20
216.8752379820597
 30
0.0
 40
10.0
100
AcDbArc
 50
153.6195248935549
 51
238.1476489823567
  0
ARC
  5
D3
102
{ACAD_REACTORS
330
20D
102
}
330
1F
100
AcDbEntity
  8
轮廓线
100
AcDbCircle
 10
160.2598699690226
 20
216.8752379820597
 30
0.0
 40
10.0
100
AcDbArc
 50
301.8523510176433
 51
26.38047510644547
  0
DIMENSION
  5
DC
102
{ACAD_REACTORS
330
F4
102
}
102
{ACAD_XDICTIONARY
360
EA
102
}
330
1F
100
AcDbEntity
  8
文本层
100
AcDbDimension
  2
*D1
 10
107.3034478542026
 20
157.0917339011746
 30
0.0
 11
104.1784478542026
 21
129.5917339011746
 31
0.0
 70
    32
 71
     5
 42
54.99999999999999
  3
机械标注
100
AcDbAlignedDimension
 13
175.0363693391211
 23
102.0917339011746
 33
0.0
 14
175.0363693391211
 24
157.0917339011746
 34
0.0
 52
0.0
 50
90.0
100
AcDbRotatedDimension
  0
DIMENSION
  5
F5
102
{ACAD_REACTORS
330
10C
102
}
102
{ACAD_XDICTIONARY
360
102
102
}
330
1F
100
AcDbEntity
  8
文本层
100
AcDbDimension
  2
*D2
 10
107.3034478542026
 20
193.0917339011746
 30
0.0
 11
104.1784478542025
 21
175.0917339011746
 31
0.0
 70
    32
 71
     5
 42
36.0
  3
机械标注
100
AcDbAlignedDimension
 13
130.6500630401521
 23
157.0917339011746
 33
0.0
 14
175.0363693391211
 24
193.0917339011746
 34
0.0
 52
0.0
 50
90.0
100
AcDbRotatedDimension
  0
DIMENSION
  5
10D
102
{ACAD_REACTORS
330
124
102
}
102
{ACAD_XDICTIONARY
360
11A
102
}
330
1F
100
AcDbEntity
  8
文本层
100
AcDbDimension
  2
*D3
 10
87.78636642792222
 20
262.0917339011747
 30
0.0
 11
84.66136642792218
 21
182.0917339011747
 31
0.0
 70
    32
 71
     5
 42
160.0
  3
机械标注
100
AcDbAlignedDimension
 13
175.0363693391211
 23
102.0917339011746
 33
0.0
 14
175.0363693391211
 24
262.0917339011746
 34
0.0
 52
0.0
 50
90.0
100
AcDbRotatedDimension
  0
DIMENSION
  5
125
102
{ACAD_REACTORS
330
13E
102
}
102
{ACAD_XDICTIONARY
360
133
102
}
330
1F
100
AcDbEntity
  8
文本层
100
AcDbDimension
  2
*D4
 10
211.7188371283957
 20
115.4430602958993
 30
0.0
 11
208.843114519739
 21
121.6100673316295
 31
0.0
 70
    34
 71
     5
 42
1.047197551196598
  3
机械标注$2
100
AcDb2LineAngularDimension
 13
121.0363693391211
 23
102.0917339011746
 33
0.0
 14
266.0363693391211
 24
102.0917339011746
 34
0.0
 15
175.0363693391211
 25
102.0917339011746
 35
0.0
 16
220.0363693391211
 26
180.0340202417741
 36
0.0
  0
DIMENSION
  5
13F
102
{ACAD_REACTORS
330
14E
102
}
102
{ACAD_XDICTIONARY
360
148
102
}
330
1F
100
AcDbEntity
  8
文本层
100
AcDbDimension
  2
*D5
 10
175.0363693391211
 20
102.0917339011746
 30
0.0
 11
187.9469199683935
 21
146.457391633828
 31
0.0
 70
   164
 71
     5
 42
64.00000000000028
  3
机械标注
100
AcDbRadialDimension
 15
192.9187946366261
 25
163.5426807244677
 35
0.0
 40
0.0
1001
ACAD
1000
DSTYLE
1002
{
1070
   288
1070
     1
1002
}
  0
DIMENSION
  5
160
102
{ACAD_REACTORS
330
173
102
}
102
{ACAD_XDICTIONARY
360
16B
102
}
330
1F
100
AcDbEntity
  8
文本层
100
AcDbDimension
  2
*D7
 10
175.0363693391211
 20
102.0917339011746
 30
0.0
 11
219.0343219359038
 21
56.16902423315614
 31
0.0
 70
   164
 71
     5
 42
44.99999999999986
  3
机械标注
100
AcDbRadialDimension
 15
204.0010586161943
 25
67.65270407914583
 35
0.0
 40
0.0
1001
ACAD
1000
DSTYLE
1002
{
1070
   288
1070
     1
1002
}
  0
DIMENSION
  5
174
102
{ACAD_REACTORS
330
185
102
}
102
{ACAD_XDICTIONARY
360
17E
102
}
330
1F
100
AcDbEntity
  8
文本层
100
AcDbDimension
  2
*D8
 10
224.5441818391211
 20
78.13392720972553
 30
0.0
 11
228.6129269496843
 21
69.67172345727874
 31
0.0
 70
   164
 71
     5
 42
9.999999999999886
  3
机械标注
100
AcDbRadialDimension
 15
220.2109105666388
 25
87.14629427277158
 35
0.0
 40
0.0
1001
ACAD
1000
DSTYLE
1002
{
1070
   279
1070
     1
1070
   288
1070
     1
1002
}
  0
DIMENSION
  5
186
102
{ACAD_REACTORS
330
199
102
}
102
{ACAD_XDICTIONARY
360
191
102
}
330
1F
100
AcDbEntity
  8
文本层
100
AcDbDimension
  2
*D9
 10
239.0363693391211
 20
102.0917339011746
 30
0.0
 11
266.1956937929055
 21
69.67172345727899
 31
0.0
 70
   164
 71
     5
 42
17.99999999999987
  3
机械标注
100
AcDbRadialDimension
 15
249.0754579537972
 25
87.15129549439837
 35
0.0
 40
0.0
1001
ACAD
1000
DSTYLE
1002
{
1070
   288
1070
     1
1002
}
  0
DIMENSION
  5
19A
102
{ACAD_REACTORS
330
1AD
102
}
102
{ACAD_XDICTIONARY
360
1A5
102
}
330
1F
100
AcDbEntity
  8
文本层
100
AcDbDimension
  2
*D10
 10
239.0363693391211
 20
102.0917339011746
 30
0.0
 11
267.9798597519094
 21
85.47275386831198
 31
0.0
 70
   164
 71
     5
 42
8.999999999999744
  3
机械标注
100
AcDbRadialDimension
 15
246.5528105483337
 25
97.14167212898975
 35
0.0
 40
0.0
1001
ACAD
1000
DSTYLE
1002
{
1070
   288
1070
     1
1002
}
  0
DIMENSION
  5
1AE
102
{ACAD_REACTORS
330
1BF
102
}
102
{ACAD_XDICTIONARY
360
1B8
102
}
330
1F
100
AcDbEntity
  8
文本层
100
AcDbDimension
  2
*D11
 10
203.0363693391211
 20
189.7273431020012
 30
0.0
 11
205.5049968843869
 21
192.9148074116532
 31
0.0
 70
   164
 71
     5
 42
10.00000000000011
  3
机械标注
100
AcDbRadialDimension
 15
196.9132212110892
 25
181.8212026401714
 35
0.0
 40
0.0
1001
ACAD
1000
DSTYLE
1002
{
1070
   279
1070
     1
1070
   288
1070
     1
1002
}
  0
DIMENSION
  5
1C0
102
{ACAD_REACTORS
330
1D3
102
}
102
{ACAD_XDICTIONARY
360
1CB
102
}
330
1F
100
AcDbEntity
  8
文本层
100
AcDbDimension
  2
*D12
 10
175.0363693391211
 20
193.0917339011746
 30
0.0
 11
206.7714988021181
 21
205.6844519946716
 31
0.0
 70
   164
 71
     5
 42
18.00000000000034
  3
机械标注
100
AcDbRadialDimension
 15
191.2782133295259
 25
200.8507611463493
 35
0.0
 40
0.0
1001
ACAD
1000
DSTYLE
1002
{
1070
   288
1070
     1
1002
}
  0
DIMENSION
  5
1D4
102
{ACAD_REACTORS
330
1E7
102
}
102
{ACAD_XDICTIONARY
360
1DF
102
}
330
1F
100
AcDbEntity
  8
文本层
100
AcDbDimension
  2
*D13
 10
175.0363693391211
 20
193.0917339011747
 30
0.0
 11
201.4528334071317
 21
218.7581354843547
 31
0.0
 70
   164
 71
     5
 42
8.999999999999716
  3
机械标注
100
AcDbRadialDimension
 15
181.000011173628
 25
199.8322810651454
 35
0.0
 40
0.0
1001
ACAD
1000
DSTYLE
1002
{
1070
   288
1070
     1
1002
}
  0
DIMENSION
  5
1E8
102
{ACAD_REACTORS
330
1FB
102
}
102
{ACAD_XDICTIONARY
360
1F3
102
}
330
1F
100
AcDbEntity
  8
文本层
100
AcDbDimension
  2
*D14
 10
175.0363693391211
 20
257.0917339011746
 30
0.0
 11
188.9931604489307
 21
267.9496733691774
 31
0.0
 70
   164
 71
     5
 42
5.000000000000171
  3
机械标注
100
AcDbRadialDimension
 15
178.4683783200245
 25
260.7278464344991
 35
0.0
 40
0.0
1001
ACAD
1000
DSTYLE
1002
{
1070
   288
1070
     1
1002
}
  0
DIMENSION
  5
1FC
102
{ACAD_REACTORS
330
20D
102
}
102
{ACAD_XDICTIONARY
360
206
102
}
330
1F
100
AcDbEntity
  8
文本层
100
AcDbDimension
  2
*D15
 10
160.2598699690226
 20
216.8752379820597
 30
0.0
 11
157.4953639984643
 21
218.450447108116
 31
0.0
 70
   164
 71
     5
 42
9.999999999999929
  3
机械标注
100
AcDbRadialDimension
 15
168.9483987885973
 25
211.9245342996103
 35
0.0
 40
0.0
1001
ACAD
1000
DSTYLE
1002
{
1070
   279
1070
     1
1070
   288
1070
     1
1002
}
  0
DIMENSION
  5
20E
102
{ACAD_REACTORS
330
21D
102
}
102
{ACAD_XDICTIONARY
360
217
102
}
330
1F
100
AcDbEntity
  8
文本层
100
AcDbDimension
  2
*D16
 10
145.0197072995138
 20
239.0917339011746
 30
0.0
 11
156.8490977768318
 21
241.6935624195058
 31
0.0
 70
   164
 71
     5
 42
40.00000000000009
  3
机械标注
100
AcDbRadialDimension
 15
184.0859276265776
 25
247.6841974220348
 35
0.0
 40
0.0
1001
ACAD
1000
DSTYLE
1002
{
1070
   288
1070
     1
1002
}
  0
DIMENSION
  5
240
102
{ACAD_REACTORS
330
250
102
}
102
{ACAD_XDICTIONARY
360
24A
102
}
330
1F
100
AcDbEntity
  8
文本层
100
AcDbDimension
  2
*D19
 10
137.101165775393
 20
154.8735520829928
 30
0.0
 11
140.6673359944933
 21
149.9116979098958
 31
0.0
 70
   164
 71
     5
 42
20.00000000000027
  3
机械标注
100
AcDbRadialDimension
 15
148.7735361026939
 25
138.632992642433
 35
0.0
 40
0.0
1001
ACAD
1000
DSTYLE
1002
{
1070
   279
1070
     1
1070
   288
1070
     1
1002
}
  0
DIMENSION
  5
269
102
{ACAD_REACTORS
330
280
102
}
102
{ACAD_XDICTIONARY
360
276
102
}
330
1F
100
AcDbEntity
  8
文本层
100
AcDbDimension
  2
*D21
 10
192.2735019680797
 20
116.553105161594
 30
0.0
 11
120.2788933139216
 21
60.52167909410309
 31
0.0
 70
   163
 71
     5
 42
44.99999999999991
  3
机械标注
100
AcDbDiametricDimension
 15
157.7992367101623
 25
87.63036264075517
 35
0.0
 40
0.0
1001
ACAD
1000
DSTYLE
1002
{
1070
   288
1070
     1
1002
}
  0
VIEWPORT
  5
353
330
5E
100
AcDbEntity
 67
     1
  8
0
100
AcDbViewport
 10
133.3499908447266
 20
101.5999970436096
 30
0.0
 40
423.7327665924585
 41
228.4221935424805
 68
     1
 69
     1
 12
133.3499908447266
 22
101.5999970436096
 13
0.0
 23
0.0
 14
10.0
 24
10.0
 15
10.0
 25
10.0
 16
0.0
 26
0.0
 36
1.0
 17
0.0
 27
0.0
 37
0.0
 42
50.0
 43
0.0
 44
0.0
 45
228.4221935424805
 50
0.0
 51
0.0
 72
   100
 90
    32800
  1

281
     0
 71
     1
 74
     0
110
0.0
120
0.0
130
0.0
111
1.0
121
0.0
131
0.0
112
0.0
122
1.0
132
0.0
 79
     0
146
0.0
348
0
340
0
345
0
346
0
  0
VIEWPORT
  5
355
330
5E
100
AcDbEntity
 67
     1
  8
文本层
100
AcDbViewport
 10
133.3499939441681
 20
101.5999939441681
 30
0.0
 40
213.3599903106689
 41
162.5599903106689
 68
     1
 69
     2
 12
184.4847668773307
 22
156.2924640061742
 13
0.0
 23
0.0
 14
10.0
 24
10.0
 15
10.0
 25
10.0
 16
0.0
 26
0.0
 36
1.0
 17
0.0
 27
0.0
 37
0.0
 42
50.0
 43
0.0
 44
0.0
 45
238.7406398309206
 50
0.0
 51
0.0
 72
   100
 90
    32864
  1

281
     0
 71
     1
 74
     0
110
0.0
120
0.0
130
0.0
111
1.0
121
0.0
131
0.0
112
0.0
122
1.0
132
0.0
 79
     0
146
0.0
348
0
340
0
345
0
346
0
  0
ENDSEC
  0
SECTION
  2
OBJECTS
  0
DICTIONARY
  5
C
330
0
100
AcDbDictionary
281
     1
  3
ACAD_GROUP
350
D
  3
ACAD_LAYOUT
350
1A
  3
ACAD_MLINESTYLE
350
17
  3
ACAD_PLOTSETTINGS
350
19
  3
ACAD_PLOTSTYLENAME
350
E
  3
AcDbVariableDictionary
350
67
  0
DICTIONARY
  5
D
102
{ACAD_REACTORS
330
C
102
}
330
C
100
AcDbDictionary
281
     1
  0
ACDBDICTIONARYWDFLT
  5
E
102
{ACAD_REACTORS
330
C
102
}
330
C
100
AcDbDictionary
281
     1
  3
Normal
350
F
100
AcDbDictionaryWithDefault
340
F
  0
ACDBPLACEHOLDER
  5
F
102
{ACAD_REACTORS
330
E
102
}
330
E
  0
DICTIONARY
  5
17
102
{ACAD_REACTORS
330
C
102
}
330
C
100
AcDbDictionary
281
     1
  3
Standard
350
18
  0
MLINESTYLE
  5
18
102
{ACAD_REACTORS
330
17
102
}
330
17
100
AcDbMlineStyle
  2
STANDARD
 70
     0
  3

 62
   256
 51
90.0
 52
90.0
 71
     2
 49
0.5
 62
   256
  6
BYLAYER
 49
-0.5
 62
   256
  6
BYLAYER
  0
DICTIONARY
  5
19
102
{ACAD_REACTORS
330
C
102
}
330
C
100
AcDbDictionary
281
     1
  0
DICTIONARY
  5
1A
102
{ACAD_REACTORS
330
C
102
}
330
C
100
AcDbDictionary
281
     1
  3
Model
350
22
  3
布局1
350
5A
  3
布局2
350
5F
  0
LAYOUT
  5
22
102
{ACAD_REACTORS
330
1A
102
}
330
1A
100
AcDbPlotSettings
  1

  2
none_device
  4
ANSI_A_(8.50_x_11.00_Inches)
  6

 40
6.349999904632568
 41
19.04999923706055
 42
6.350006103515625
 43
19.04998779296875
 44
215.8999938964844
 45
279.3999938964844
 46
0.0
 47
0.0
 48
0.0
 49
0.0
140
0.0
141
0.0
  6

142
1.0
143
57.07986212157697
 70
 11952
 72
     0
 73
     1
 74
     0
  7

 75
     0
147
0.01751931351673652
148
-2282.040442273535
149
2.561166666666503
100
AcDbLayout
  1
Model
 70
     1
 71
     0
 10
0.0
 20
0.0
 11
12.0
 21
9.0
 12
0.0
 22
0.0
 32
0.0
 14
0.0
 24
0.0
 34
0.0
 15
0.0
 25
0.0
 35
0.0
146
0.0
 13
0.0
 23
0.0
 33
0.0
 16
1.0
 26
0.0
 36
0.0
 17
0.0
 27
1.0
 37
0.0
 76
     0
330
1F
  0
LAYOUT
  5
5A
102
{ACAD_REACTORS
330
1A
102
}
330
1A
100
AcDbPlotSettings
  1

  2
none_device
  4
Letter_(8.50_x_11.00_Inches)
  6

 40
6.349999904632568
 41
6.349999904632568
 42
6.350006103515625
 43
6.350006103515625
 44
215.8999938964844
 45
279.3999938964844
 46
0.0
 47
0.0
 48
0.0
 49
0.0
140
0.0
141
0.0
  6

142
1.0
143
1.0
 70
   688
 72
     1
 73
     1
 74
     5
  7

 75
    16
147
1.0
148
0.0
149
0.0
100
AcDbLayout
  1
布局1
 70
     1
 71
     1
 10
-6.350006103515625
 20
-6.349999904632568
 11
273.0499877929688
 21
209.5499939918518
 12
0.0
 22
0.0
 32
0.0
 14
26.66999878883362
 24
20.31999878883363
 34
0.0
 15
240.0299890995026
 25
182.8799890995026
 35
0.0
146
0.0
 13
0.0
 23
0.0
 33
0.0
 16
1.0
 26
0.0
 36
0.0
 17
0.0
 27
1.0
 37
0.0
 76
     0
330
59
331
74
  0
LAYOUT
  5
5F
102
{ACAD_REACTORS
330
1A
102
}
330
1A
100
AcDbPlotSettings
  1

  2
none_device
  4
Letter_(8.50_x_11.00_Inches)
  6

 40
6.349999904632568
 41
6.349999904632568
 42
6.350006103515625
 43
6.350006103515625
 44
215.8999938964844
 45
279.3999938964844
 46
0.0
 47
0.0
 48
0.0
 49
0.0
140
0.0
141
0.0
  6

142
1.0
143
1.0
 70
   688
 72
     1
 73
     1
 74
     5
  7

 75
    16
147
1.0
148
0.0
149
0.0
100
AcDbLayout
  1
布局2
 70
     1
 71
     2
 10
-6.350006103515625
 20
-6.349999904632568
 11
273.0499877929688
 21
209.5499939918518
 12
0.0
 22
0.0
 32
0.0
 14
26.66999878883362
 24
20.31999878883363
 34
0.0
 15
240.0299890995026
 25
182.8799890995026
 35
0.0
146
0.0
 13
0.0
 23
0.0
 33
0.0
 16
1.0
 26
0.0
 36
0.0
 17
0.0
 27
1.0
 37
0.0
 76
     0
330
5E
331
353
  0
DICTIONARY
  5
67
102
{ACAD_REACTORS
330
C
102
}
330
C
100
AcDbDictionary
281
     1
  3
DIMASSOC
350
68
  3
HIDETEXT
350
6C
  0
DICTIONARYVAR
  5
68
102
{ACAD_REACTORS
330
67
102
}
330
67
100
DictionaryVariables
280
     0
  1
2
  0
DICTIONARYVAR
  5
6C
102
{ACAD_REACTORS
330
67
102
}
330
67
100
DictionaryVariables
280
     0
  1
1
  0
DICTIONARY
  5
EA
330
DC
100
AcDbDictionary
280
     1
281
     1
  3
ACAD_DIMASSOC
360
F4
  0
DICTIONARY
  5
102
330
F5
100
AcDbDictionary
280
     1
281
     1
  3
ACAD_DIMASSOC
360
10C
  0
DICTIONARY
  5
11A
330
10D
100
AcDbDictionary
280
     1
281
     1
  3
ACAD_DIMASSOC
360
124
  0
DICTIONARY
  5
133
330
125
100
AcDbDictionary
280
     1
281
     1
  3
ACAD_DIMASSOC
360
13E
  0
DICTIONARY
  5
148
330
13F
100
AcDbDictionary
280
     1
281
     1
  3
ACAD_DIMASSOC
360
14E
  0
DICTIONARY
  5
16B
330
160
100
AcDbDictionary
280
     1
281
     1
  3
ACAD_DIMASSOC
360
173
  0
DICTIONARY
  5
17E
330
174
100
AcDbDictionary
280
     1
281
     1
  3
ACAD_DIMASSOC
360
185
  0
DICTIONARY
  5
191
330
186
100
AcDbDictionary
280
     1
281
     1
  3
ACAD_DIMASSOC
360
199
  0
DICTIONARY
  5
1A5
330
19A
100
AcDbDictionary
280
     1
281
     1
  3
ACAD_DIMASSOC
360
1AD
  0
DICTIONARY
  5
1B8
330
1AE
100
AcDbDictionary
280
     1
281
     1
  3
ACAD_DIMASSOC
360
1BF
  0
DICTIONARY
  5
1CB
330
1C0
100
AcDbDictionary
280
     1
281
     1
  3
ACAD_DIMASSOC
360
1D3
  0
DICTIONARY
  5
1DF
330
1D4
100
AcDbDictionary
280
     1
281
     1
  3
ACAD_DIMASSOC
360
1E7
  0
DICTIONARY
  5
1F3
330
1E8
100
AcDbDictionary
280
     1
281
     1
  3
ACAD_DIMASSOC
360
1FB
  0
DICTIONARY
  5
206
330
1FC
100
AcDbDictionary
280
     1
281
     1
  3
ACAD_DIMASSOC
360
20D
  0
DICTIONARY
  5
217
330
20E
100
AcDbDictionary
280
     1
281
     1
  3
ACAD_DIMASSOC
360
21D
  0
DICTIONARY
  5
24A
330
240
100
AcDbDictionary
280
     1
281
     1
  3
ACAD_DIMASSOC
360
250
  0
DICTIONARY
  5
276
330
269
100
AcDbDictionary
280
     1
281
     1
  3
ACAD_DIMASSOC
360
280
  0
ENDSEC
  0
SECTION
  2
THUMBNAILIMAGE
 90
    18627
310
BF4800000201030100005000000002530100005C480000000000000000000000000000000000000000000000000000000000000000000000000000000000000000000000000000000000000000000000000000000000000000000000000000000000000000000028000000B400000061000000010008000000000034440000
310
00000000000000000001000000000000FFFFFF00FFFFFF0000000000FFFFFF00FFFFFF00FFFFFF00FFFFFF00FFFFFF00FFFFFF00FFFFFF00FFFFFF00330000006600000099000000CC000000FF00000000330000333300006633000099330000CC330000FF33000000660000336600006666000099660000CC660000FF6600
310
0000990000339900006699000099990000CC990000FF99000000CC000033CC000066CC000099CC0000CCCC0000FFCC000000FF000033FF000066FF000099FF0000CCFF0000FFFF000000003300330033006600330099003300CC003300FF00330000333300333333006633330099333300CC333300FF333300006633003366
310
33006666330099663300CC663300FF66330000993300339933006699330099993300CC993300FF99330000CC330033CC330066CC330099CC3300CCCC3300FFCC330000FF330033FF330066FF330099FF3300CCFF3300FFFF330000006600330066006600660099006600CC006600FF00660000336600333366006633660099
310
336600CC336600FF33660000666600336666006666660099666600CC666600FF66660000996600339966006699660099996600CC996600FF99660000CC660033CC660066CC660099CC6600CCCC6600FFCC660000FF660033FF660066FF660099FF6600CCFF6600FFFF660000009900330099006600990099009900CC009900
310
FF00990000339900333399006633990099339900CC339900FF33990000669900336699006666990099669900CC669900FF66990000999900339999006699990099999900CC999900FF99990000CC990033CC990066CC990099CC9900CCCC9900FFCC990000FF990033FF990066FF990099FF9900CCFF9900FFFF99000000CC
310
003300CC006600CC009900CC00CC00CC00FF00CC000033CC003333CC006633CC009933CC00CC33CC00FF33CC000066CC003366CC006666CC009966CC00CC66CC00FF66CC000099CC003399CC006699CC009999CC00CC99CC00FF99CC0000CCCC0033CCCC0066CCCC0099CCCC00CCCCCC00FFCCCC0000FFCC0033FFCC0066FF
310
CC0099FFCC00CCFFCC00FFFFCC000000FF003300FF006600FF009900FF00CC00FF00FF00FF000033FF003333FF006633FF009933FF00CC33FF00FF33FF000066FF003366FF006666FF009966FF00CC66FF00FF66FF000099FF003399FF006699FF009999FF00CC99FF00FF99FF0000CCFF0033CCFF0066CCFF0099CCFF00CC
310
CCFF00FFCCFF0000FFFF0033FFFF0066FFFF0099FFFF00CCFFFF0000000000FFFFFF000D0D0D001A1A1A00282828003535350043434300505050005D5D5D006B6B6B00787878008686860093939300A1A1A100AEAEAE00BBBBBB00C9C9C900D6D6D600E4E4E400F1F1F10000000000FFFFFF00FFFFFF00FFFFFF00FFFFFF00
310
FFFFFF00FFFFFF00FFFFFF00FFFFFF00FFFFFF00FFFFFF0000000000000000000000000000000000000000000000000000000000000000000000000000000000000000000000000000000000000000000000000000000000000000000000000000000000000000000000000000000000000000000000000000000000000000
310
00000000000000000000000000000000000000000000000000000000000000000000000000000000000000000000000000000000000000000000000000000000000000000000000000000000000000000000000000000000000000000000000000000000000000000000000000000000000000000000000000000000000000
310
00000000000000000000000000000000000000000000000000000000000000000000000000000000000000000000000000000000000000000000000000000000000000000000000000000000000000000000000000000000000000000000000000000000000000000000000000000000000000000000000000000000000000
310
00000000000000000000000000000000000000000000000000000000000000000000000000000000000000000000000000000000000000000000000000000000000000000000000000000000000000000000000000000000000000000000000000000000000000000000000000000000000000000000000000000000000000
310
00000000000000000000000000000000000000000000000000000000000000000000000000000000000000000000000000000000000000000000000000000000000000000000000000000000000000000000000000000000000000000000000000000000000000000000000000000000000000000000000000000000000000
310
00000000000000000000000000000000000000000000000000000000000000000000000000000000000000000000000000000000000000000000000000000000000000000000000000000000000000000000000000000000000000000000000000000000000000000000000000000000000000000000000000000000000000
310
00000000000000000000000000000000000000000000000000000000000000000000000000000000000000000000000000000000000000000000000000000000000000000000000000000000000000000000000000000000000000000000000000000000000000000000000000000000000000000000000000000000000000
310
00000000000000000000000000000000000000000000000000000000000000000000000000000000000000000000000000000000000000000000000000000000000000000000000000000000000000000000000000000000000000000000000000000000000000000000000000000000000000000000000000000000000000
310
00000000000000000000000000000000000000000000000000000000000000000000000000000000000000000000000000000000000000000000000000000000000000000000000000000000000000000000000000000000000000000000000000000000000000000000000000000000000000000000000000000000000000
310
00000000000000000000000000000000000000000000000000000000000000000000000000000000000000000000000000000000000000000000000000000000000000000000000000000000000000000000000000000000000000000000000000000000000000000000000000000000000000000000000000000000000000
310
00000000000000000000000000000000000000000000000000000000000000000000000000000000000000000000000000000000000000000000000000000000000000000000000000000000000000000000000000000000000000000000000000000000000000000000000000000000000000000000000000000000000000
310
00000000000000000000000000000000000000000000000000000000000000000000000000000000000000000000000000000000000000000000000000000000000000000000000000000000000000000000000000000000000000000000000000000000000000000000000000000000000000000000000000000000000000
310
00000000000000000000000000000000000000000000000000000000000000000000000000000000000000000000000000000000000000000000000000000000000000000000000000000000000000000000000000000000000000000000000000000000000000000000000000000000000000000000000000000000000000
310
00000000000000000000000000000000000000000000000000000000000000000000000000000000000000000000000000000000000000000000000000000000000000000000000000000000000000000000000000000000000000000000000000000000000000000000000000000000000000000000000000000000000000
310
00000000000000000000000000000000000000000000000000000000000000000000000000000000000000000000000000000000000000000000000000000000000000000000000000000000000000000000000000000000000000000000000000000000000000000000000000000000000000000000000000000000000000
310
00000000000000000000000000000000000000000000000000000000000000000000000000000000000000000000000000000000000000000000000000000000000000000000000000000000000000000000000000000000000000000000000000000000000000000000000000000000000000000000000000000000000000
310
00000000000000000000000000000000000000000000000000000000000000000000000000000000000000000000000000000000000000000000000000000000000000000000000000000000000000000000000000000000000000000000000000000000000000000000000000000000000000000000000000000000000000
310
00000000000000000000000000000000000000000000000000000000000000000000000000000000000000000000000000000000000000000000000000000000000000000000000000000000000000000000000000000000000000000000000000000000000000000000000000000000000000000000000000000000000000
310
00000000000000000000000000000000000000000000000000000000000000000000000000000000000000000000000000000000000000000000000000000000000000000000000000000000000000000000000000000000000000000000000000000000000000000000000000000000000000000000000000000000000000
310
00000000000000000000000000000000000000000000000000000000000000000000000000000000000000000000000000000000000000000000000000000000000000000000000000000000000000000000000000000000000000000000000000000000000000000000000000000000000000000000000000000000000000
310
00000000000000000000000000000000000000000000000000000000000000000000000000000000000000000000000000000000000000000000000000000000000000000000000000000000000000000000000000000000000000000000000000000000000000000000000000000000000000000000000000000000000000
310
00000000000000000000000000000000000000000000000000000000000000000000000000000000000000000000000000000000000000000000000000000000000000000000000000000000000000000000000000000000000000000000000000000000000000000000000000000000000000000000000000000000000000
310
00000000000000000000000000000000000000000000000000000000000000000000000000000000000000000000000000000000000000000000000000000000000000000000000000000000000000000000000000000000000000000000000000000000000000000000000000000000000000000000000000000000000000
310
00000000000000000000000000000000000000000000000000000000000000000000000000000000000000000000000000000000000000000000000000BE0000000000000000000000000000000000000000000000000000000000000000000000000000000000000000000000000000000000000000000000000000000000
310
000000000000000000000000000000000000000000000000000000000000000000000000000000000000000000000000000000000000000000000000000000000000000000000000000000000000000000000000000000000000000000000000000000000000000000000000000000000000BE000000000000000000000000
310
00000000000000000000000000000000000000000000000000000000000000000000000000000000000000000000000000000000000000000000000000000000000000000000000000000000000000000000000000000000000000000000000000000000000000000000000000000000000000000000000000000000000000
310
000000000000000000000000000000000000000000000000000000000000000000000000F5F5F5F5BEF5F5F5F500000000000000000000000000000000000000000000000000000000000000000000000000000000000000000000000000000000000000000000000000000000000000000000000000000000000000000000
310
0000000000000000000000000000000000000000000000000000000000000000000000000000000000000000000000000000000000000000000000000000000000000000000000000000000000000000000000000000F5F5F5F5F5F5F5BEF5F5F5F5F5F5F500000000009E9E9E9E0000000000000000000000000000000000
310
00000000000000000000000000000000000000000000000000000000000000000000000000000000000000000000000000000000000000000000000000000000000000000000000000000000000000000000000000000000000000000000000000000000000000000000000000000000000000000000000000000000000000
310
9E9E9E9E000000000000F5F5F5F5F5F5F5F5F5BEF5F5F5F5F5F5F5F5F5009E9E9E9E9E9E00000000000000000000000000000000000000000000000000000000000000000000000000000000000000000000000000000000000000000000000000000000000000000000000000000000000000000000000000000000000000
310
00000000000000000000000000000000000000000000000000000000000000000000000000000000000000000000000000000000009E9E9E9E9E00000000F5F5F5F5F5F500000000BE00000000F5F5F5F5F59E0000000000000000000000000000000000000000000000000000000000000000000000000000000000000000
310
00000000000000000000000000000000000000000000000000000000000000000000000000000000000000000000000000000000000000000000000000000000000000000000000000000000000000000000000000000000000000000000000000000000000000000000009E9E9E009E9E00F5F5F5F5F5F50000000000BE00
310
00000000F5F5F5F59EF5F50000000000000000000000000000000000000000000000000000000000000000000000000000000000000000000000000000000000000000000000000000000000000000000000000000000000000000000000000000000000000000000000000000000000000000000000000000000000000000
310
0000000000000000000000000000000000000000000000000000000000000000000000000000009EF5F5F5F500000000000000BE00000000000000F59EF5F5F5F50000009E9E9E9E9E0000000000009E9E9E9E0000000000000000000000000000000000000000000000000000000000000000000000000000000000000000
310
0000000000000000000000000000000000000000000000000000000000000000000000000000000000000000000000000000000000000000000000000000000000000000000000000000000000000000000000000000000000000000F59EF5F50000000000000000BE000000000000009EF5F5F5F5F50000009E9E9E9E9E00
310
000000009E9E9E9E9E00000000000000000000000000000000000000000000000000000000000000000000000000000000000000000000000000000000000000000000000000000000000000000000000000000000000000000000000000000000000000000000000000000000000000000000000000000000000000000000
310
0000000000000000000000000000000000F5F5F59EF5000000000000F5F5BEF5F5F50000009E000000F5F5F500009E009E9E9E9E00000000009E9E9E9E9E0000000000000000000000000000000000000000000000000000000000000000000000000000000000000000000000000000000000000000000000000000000000
310
000000000000000000000000000000000000000000000000000000000000000000000000000000000000000000000000000000000000000000000000000000000000000000F5F5F5F5F59E9E0000F5F5F5F5F5BEF5F5F5F5F59E0000000000F5F5F5009E000000F5F5000000009E0000000000000000000000000000000000
310
0000000000000000000000000000000000000000000000000000000000000000000000000000000000000000000000000000000000000000000000000000000000000000000000000000000000000000000000000000000000000000000000000000000000000000000000000000000000000000000000000000F5F5F5F500
310
00009EF5F5F5F5F5F5BEF5F5F5F59EF50000000000F5F5F59E0000F5F5F5F5F5F5009E0000000000000000000000000000000000000000000000000000000000000000000000000000000000000000000000000000000000000000000000000000000000000000000000000000000000000000000000000000000000000000
310
000000000000000000000000000000000000000000000000000000000000000000000000000000000000000000000000F5F5F500000000F59EF5F5F50000BE000000F59EF5F500000000F5F5F59EF5F5F5F5F5F5F5F59E9E0000009E9E9E000000000000000000000000000000000000000000000000000000000000000000
310
00000000000000000000000000000000000000000000000000000000000000000000000000000000000000000000000000000000000000000000000000000000000000000000000000000000000000000000000000000000000000000000000000000000F5F5F50000000000F5F59EF5000000BE0000009EF5F5F500000000
310
00F5F5F5F5F5F5F5BEF5F59EF5F5F59E9E9E9E9E0000000000000000000000000000000000000000000000000000000000000000000000000000000000000000000000000000000000000000000000000000000000000000000000000000000000000000000000000000000000000000000000000000000000000000000000
310
0000000000000000000000000000000000000000000000000000F5F5F50000000000F5F5F59E000000BE00009E0000F5F5F5000000000000F5F5F5F5F5F5F5F59EF59E9EF5009E9E9E000000000000000000000000000000000000000000000000000000000000000000000000000000000000000000000000000000000000
310
00000000000000000000000000000000000000000000000000000000000000000000000000000000000000000000000000000000000000000000000000000000000000000000000000000000000000F5F5F500000000F5F5F500009E9E00BE009E000000F5F5F50000000000000000F5F5F5F5F59EF59EF5F5F50000000000
310
00000000000000000000000000000000000000000000000000000000000000000000000000000000000000000000000000000000000000000000000000000000000000000000000000000000000000000000000000000000000000000000000000000000000000000000000000000000000000000000000000000000000000
310
0000000000F5F5F500000000F5F5F5000000009EBE9E0000000000F5F5F500000000000000F5F5F5F5F59E9EF5F5F5F5F5000000000000000000000000000000000000000000000000000000000000000000000000000000000000000000000000000000000000000000000000000000000000000000000000000000000000
310
00000000000000000000000000000000000000000000000000000000000000000000000000000000000000009E9E9E9E9E9E9E9E9E9E9E9E9E9E9E9E9E9E9E9E9E9E9E9E9E9E9E9E9E9EBEBEBEBEBEBEBEBEBEBEBEBE9EBEBEBEF5F5F5BE9E9EF5F5F5F5F5F59E000000000000000000000000000000000000000000000000
310
00000000000000000000000000000000000000000000000000000000000000000000000000000000000000000000000000000000000000000000000000000000000000000000000000000000000000000000000000000000000000000000000000009E00000000009E9E0000000000F5F5F500000000F5F5F50000000000BE
310
9E0000000000F5F5F50000009E000000F5F5F500BEF5F5F5F5F5F5F5000000000000000000000000000000000000000000000000000000000000000000000000000000000000000000000000000000000000000000000000000000000000000000000000000000000000000000000000000000000000000000000000000000
310
0000000000000000000000000000000000000000000000009E0000000000009E0000000000F5F5F500000000F5F5F50000000000BEBE9E000000F5F5F5000000009E000000F5F5F5F5F5F5F5F5F5F5F5F500000000000000000000000000000000000000000000000000000000000000000000000000000000000000000000
310
00000000000000000000000000000000000000000000000000000000000000000000000000000000000000000000000000000000000000000000000000000000000000000000000000000000009E0000000000009E0000000000F5F5F50000000000F5F5F500000000BE00BE9E9E00F5F5F5000000009E000000F5F5F5F5F5
310
F5F5F5F5F5F500000000000000000000000000000000000000000000000000000000000000000000000000000000000000000000000000000000000000000000000000000000000000000000000000000000000000000000000000000000000000000000000000000000000000000000000000000000000000000000000000
310
0000009E0000000000009E0000000000F5F5F5F500000000F5F5F5F5000000BE00BE00009EF5F5000000009E000000F5F5F5F5F5F5F5F5F5F5F5F50000000000000000000000000000000000000000000000000000000000000000000000000000000000000000000000000000000000000000000000000000000000000000
310
00000000000000000000000000000000000000000000000000000000000000000000000000000000000000000000000000000000000000009E0000000000009E0000000000F5F5F5F500000000F5F5F5F5F50000BE0000BE00F59E9E000000009E000000F5F5F5F500BEF5F5F5F5F5F5000000000000000000000000000000
310
000000000000000000000000000000000000000000000000000000000000000000000000000000000000000000000000000000000000000000000000000000000000000000000000000000000000000000000000000000000000000000000000000000000000000000000000009E0000000000009E000000000000F5F5F5F5
310
00000000F5F5F5F5F5F5BEF5F5F5BEF5F59E9E009E9E9E0000F5F5F5F500BE00F5F5F5F5F5F50000000000000000000000000000000000000000000000000000000000000000000000000000000000000000000000000000000000000000000000000000000000000000000000000000000000000000000000000000000000
310
00000000000000000000000000000000000000000000000000000000000000000000009E0000000000009E000000000000F5F5F5F50000000000F5F5F5F5F5BEF5F5F5BEF5000000009E9E9E0000F5F5F5F500BEF5F5F500F5F5F5000000000000000000000000000000000000000000000000000000000000000000000000
310
000000000000000000000000000000000000000000000000000000000000000000000000000000000000000000000000000000000000000000000000000000000000000000000000000000000000000000000000000000009E000000009E9E9E00000000000000F5F5F500000000000000F5F5F5BEF5F5F5F5BE0000009E00
310
00000000F5F5F50000BEF5F5F5F5F5F5000000000000000000000000000000000000000000000000000000000000000000000000000000000000000000000000000000000000000000000000000000000000000000000000000000000000000000000000000000000000000000000000000000000000000000000000000000
310
00000000000000000000000000009E000000009E9E9E0000000000000000F5F5F5000000000000000000BE00000000BE00009E000000000000F5F5F500BE00F5F5F5F5F5F500000000000000000000000000000000000000000000000000000000000000000000000000000000000000000000000000000000000000000000
310
000000000000000000000000000000000000000000000000000000000000000000000000000000000000000000000000000000000000000000000000000000000000009E000000009E9E9E0000000000000000F5F5F5F5F500000000000000BE0000000000BE9E000000000000F5F5F50000BE00F5F5F5F5F5F50000000000
310
0000000000000000000000000000000000000000000000000000000000000000000000000000000000000000000000000000000000000000000000000000000000000000000000000000000000000000000000000000000000000000000000000000000000000000000000000000000000000000000000009E000000000000
310
9E0000000000000000F5F5F5F5F5F5000000000000BE000000000000BE9E000000F5F5F5F5F500BE00F5F5F5F5F5F50000000000000000000000000000000000000000000000000000000000000000000000000000000000000000000000000000000000000000000000000000000000000000000000000000000000000000
310
000000000000000000000000000000000000000000000000000000000000000000000000000000000000000000009E0000000000009E000000000000000000F5F5F59EF5F50000000000BE000000000000BE000000F5F5F5F5F5F5BE00F5F5F5F5F5F5F5000000000000000000000000000000000000000000000000000000
310
0000000000000000000000000000000000000000000000000000000000000000000000000000000000000000000000000000000000000000000000000000000000000000000000000000000000000000000000000000000000000000000000000000009E0000000000009E00000000000000000000009EF5F5F50000000000
310
BE009E9E9E000000BEF5F5F5F5F5F5F5BE00F5F5F5F5F5F5F5000000000000000000000000000000000000000000000000000000000000000000000000000000000000000000000000000000000000000000000000000000000000000000000000000000000000000000000000000000000000000000000000000000000000
310
000000000000000000000000000000000000000000000000009E0000000000009E000000000000000000009E00F5F5F5000000F5F5F5F59E9E9E000000F5F5F5F5F5F500BE00F5F5F5F5F5F5F5F500000000000000000000000000000000000000000000000000000000000000000000000000000000000000000000000000
310
0000000000000000000000000000000000000000000000000000000000000000000000000000000000000000000000000000000000000000000000000000000000000000000000000000000000009E0000000000009E0000000000000000009E9E9E00F5F5F500F5F5F5F5F5F59E9E9E00F5F5F5F5F5F5F5F500F5F5F5F5F5
310
F5F5F5F5000000000000000000000000000000000000000000000000000000000000000000000000000000000000000000000000000000000000000000000000000000000000000000000000000000000000000000000000000000000000000000000000000000000000000000000000000000000000000000000000000000
310
000000009E0000000000009E0000000000000000009E9E9E00F5F5F500F5F5F5F5F5F59E9E9E00F5F5F5F5F5F5F5F5F5F5F5F5F5F5F5F5F50000000000000000000000000000000000000000000000000000000000000000000000000000000000000000000000000000000000000000000000000000000000000000000000
310
0000000000000000000000000000000000000000000000000000000000000000000000000000000000000000000000000000000000000000009E00000000009E9E00000000000000009E9E9E9E00F5F5F500F5F5F5BE00F5F5F59E00F5F5F5BE00F5F5F5F5F5F5F5F5F5F5F500000000000000000000000000000000000000
310
00000000000000000000000000000000000000000000000000000000000000000000000000000000000000000000000000000000000000000000000000000000000000000000000000000000000000000000000000000000000000000000000000000000000000000000000000009E00000000009E9E9E9E9E9E9E9E9E9E9E
310
9E9E9E9EF5F5F5F5F5F59E9EBEF5F5F5BE9EF5F5F5BEBEF5F5F5F5F5F5F5F5F5F5BEBE0000000000000000000000000000000000000000000000000000000000000000000000000000000000000000000000000000000000000000000000000000000000000000000000000000000000000000000000000000000000000000
310
0000000000000000000000000000000000000000000000000000000000000000000000009E00000000009E9E0000000000000000000000000000F5F5F5F5F500BE00F5F5F5009EF5F5F5F5F5F5F5F5F5F5F5F5F5F5000000000000000000000000000000000000000000000000000000000000000000000000000000000000
310
00000000000000000000000000000000000000000000000000000000000000000000000000000000000000000000000000000000000000000000000000000000000000000000000000000000000000000000000000000000009E0000000000009E0000000000000000000000000000F5F5F5F5F500BE00F5F5F5BE9EF5F5F5
310
F5F5F5F5F5F5F5F5F5F5F50000000000000000000000000000000000000000000000000000000000000000000000000000000000000000000000000000000000000000000000000000000000000000000000000000000000000000000000000000000000000000000000000000000000000000000000000000000000000000
310
0000000000000000000000000000009E0000000000009E0000000000000000000000000000F5F5F5F5F500BE00F5F5F5000000F5F5F5F5F5F500F5F5F5F5F500000000000000000000000000000000000000000000000000000000000000000000000000000000000000000000000000000000000000000000000000000000
310
00000000000000000000000000000000000000000000000000000000000000000000000000000000000000000000000000000000000000000000000000000000000000009E0000000000009E0000000000000000000000000000F5F5F5F5F500BE00F5F5F50000000000F5F5F5F5F5F5F5F5F5000000000000000000000000
310
000000000000000000000000000000000000000000000000000000000000000000000000000000000000000000000000000000000000000000000000000000000000000000000000000000000000000000000000000000000000000000000000000000000000000000000000000000000000000000000000009E000000009E
310
9E9E0000000000000000000000000000F5F5F5F5F500BE00F5F5F50000000000F5F5F5F5F5F5F500000000000000000000000000000000000000000000000000000000000000000000000000000000000000000000000000000000000000000000000000000000000000000000000000000000000000000000000000000000
310
000000000000000000000000000000000000000000000000000000000000000000000000000000000000000000009E9E000000009E9E9E0000000000000000000000000000F5F5F5F5F500BE00F5F5F50000F5F5F5F5F5F5F5F500000000000000000000000000000000000000000000000000000000000000000000000000
310
00000000000000000000000000000000000000000000000000000000000000000000000000000000000000000000000000000000000000000000000000000000000000000000000000000000000000000000000000000000000000000000000000009E9E9E0000000000009E0000000000000000000000000000F5F5F5F5F5
310
00BE00F5F5F500F5F5F5F5F5F5000000BE0000000000000000000000000000000000000000000000000000000000000000000000000000000000000000000000000000000000000000000000000000000000000000000000000000000000000000000000000000000000000000000000000000000000000000000000000000
310
0000000000000000000000000000000000000000000000009E9E9E0000000000009E0000000000000000000000000000F5F5F5F5F500BE00F5F5F500F59E9EF5000000000000000000000000000000000000000000000000000000000000000000000000000000000000000000000000000000000000000000000000000000
310
00000000000000000000000000000000000000000000000000000000000000000000000000000000000000000000000000000000000000000000000000000000000000000000000000000000009E9E9E0000000000009E0000000000000000000000000000F5F5F5F5F500BE00F5F5F500F5F59E0000000000000000000000
310
00000000000000000000000000000000000000000000000000000000000000000000000000000000000000000000000000000000000000000000000000000000000000000000000000000000000000000000000000000000000000000000000000000000000000000000000000000000000000000000000000000000000000
310
00000000009E00000000009E9E0000000000000000000000000000F5F5F5F5F500BE00F5F5F5F5F5F5009E000000000000000000000000000000000000000000000000000000000000000000000000000000000000000000000000000000000000000000000000000000000000000000000000000000000000000000000000
310
000000000000000000000000000000000000000000000000000000000000000000000000000000000000000000000000000000000000000000009E00000000009E9E9E9E9E9E9E9E9E9E9E9E9E9E9E9EF5F5F5F5F59E9EBEF5F5F5F5F5F5BEBE9E9E9E9E000000000000000000000000000000000000000000000000000000
310
0000000000000000000000000000000000000000000000000000000000000000000000000000000000000000000000000000000000000000000000000000000000000000000000000000000000000000000000000000000000000000000000000000000000000000000000000000009E000000000000000000000000000000
310
000000000000F5F5F5F5F5F5BE9E9EF5F5F5F5F500009E9E9E9E0000000000000000000000000000000000000000000000000000000000000000000000000000000000000000000000000000000000000000000000000000000000000000000000000000000000000000000000000000000000000000000000000000000000
310
000000000000000000000000000000000000000000000000000000000000000000000000009E000000000000000000000000000000000000000000F5F5F5F5F5F5F5F59E9E9EF5F5F500009E9E9E9E000000000000000000000000000000000000000000000000000000000000000000000000000000000000000000000000
310
0000000000000000000000000000000000000000000000000000000000000000000000000000000000000000000000000000000000000000000000000000000000000000000000000000000000000000000000000000000000009E00000000000000000000000000000000000000000000F5F5F5F5F5F5F5F59EF59E9E9E00
310
00000000000000000000000000000000000000000000000000000000000000000000000000000000000000000000000000000000000000000000000000000000000000000000000000000000000000000000000000000000000000000000000000000000000000000000000000000000000000000000000000000000000000
310
000000000000000000000000000000009E00000000000000000000000000000000000000000000F5F5F5F5F5F5F5F5F59EF5F5009E9E9E9E9E00000000000000000000000000000000000000000000000000000000000000000000000000000000000000000000000000000000000000000000000000000000000000000000
310
0000000000000000000000000000000000000000000000000000000000000000000000000000000000000000000000000000000000000000000000000000000000000000009E00000000000000000000000000000000000000000000F5F5F5F5F5F5F5F5F5F59E0000009E9E9E9E0000000000000000000000000000000000
310
00000000000000000000000000000000000000000000000000000000000000000000000000000000000000000000000000000000000000000000000000000000000000000000000000000000000000000000000000000000000000000000000000000000000000000000000000000000000000000000000000009E00000000
310
00000000000000000000000000000000000000F5F59EF5F5F5F5F5F5009E00009E9E9E9E00000000000000000000000000000000000000000000000000000000000000000000000000000000000000000000000000000000000000000000000000000000000000000000000000000000000000000000000000000000000000
310
0000000000000000000000000000000000000000000000000000000000000000000000000000000000000000000000009E0000000000000000000000000000000000000000000000009EF5F5F5F5F5F50000009E00000000000000000000000000000000000000000000000000000000000000000000000000000000000000
310
00000000000000000000000000000000000000000000000000000000000000000000000000000000000000000000000000000000000000000000000000000000000000000000000000000000000000000000000000000000000000000000000000000000009E0000000000000000000000000000000000009E9E9E9E9E9EF5
310
F5F5F5F5F5F5000000009E9E9E000000000000000000000000000000000000000000000000000000000000000000000000000000000000000000000000000000000000000000000000000000000000000000000000000000000000000000000000000000000000000000000000000000000000000000000000000000000000
310
0000000000000000000000000000000000000000000000000000009E0000000000000000000000000000000000009E9E9E9E0000F5F5F5F5F5F5F5000000009E9E9E00000000000000000000000000000000000000000000000000000000000000000000000000000000000000000000000000000000000000000000000000
310
00000000000000000000000000000000000000000000000000000000000000000000000000000000000000000000000000000000000000000000000000000000000000000000000000000000000000009E0000000000000000000000000000000000009E9E9E9E0000F5F5F5BEF5F5F5000000009E9E9E0000000000000000
310
00000000000000000000000000000000000000000000000000000000000000000000000000000000000000000000000000000000000000000000000000000000000000000000000000000000000000000000000000000000000000000000000000000000000000000000000000000000000000000000000000000000000000
310
0000000000009E0000000000000000000000000000000000000000000000F5F5F500BE00F5F5F500000000000000000000000000000000000000000000000000000000000000000000000000000000000000000000000000000000000000000000000000000000000000000000000000000000000000000000000000000000
310
00000000000000000000000000000000000000000000000000000000000000000000000000000000000000000000000000000000000000000000009E0000000000000000000000000000000000000000000000F5F5F500BE00F5F5F50000000000000000000000000000000000000000000000000000000000000000000000
310
000000000000000000000000000000000000000000000000000000000000000000000000000000000000000000000000000000000000000000000000000000000000000000000000000000000000000000000000000000000000000000000000000000000000000000000000000000009E0000000000000000000000000000
310
000000000000000000F5F5F500BE00F5F5F500000000000000000000000000000000000000000000000000000000000000000000000000000000000000000000000000000000000000000000000000000000000000000000000000000000000000000000000000000000000000000000000000000000000000000000000000
310
00000000000000000000000000000000000000000000000000000000000000000000000000009E0000000000000000000000000000000000000000000000F5F5F500BE00F5F5F50000000000000000000000000000000000000000000000000000000000000000000000000000000000000000000000000000000000000000
310
000000000000000000000000000000000000000000000000000000000000000000000000000000000000000000000000000000000000000000000000000000000000000000000000000000000000000000000000000000000000009E0000000000000000000000000000000000009E009E9E9EF5F5F500BE00F5F5F5000000
310
00000000000000000000000000000000000000000000000000000000000000000000000000000000000000000000000000000000000000000000000000000000000000000000000000000000000000000000000000000000000000000000000000000000000000000000000000000000000000000000000000000000000000
310
00000000000000000000000000000000009E00000000000000000000000000000000000000009E9E9E9E9E9E9EBE00F5F5F50000000000000000000000000000000000000000000000000000000000000000000000000000000000000000000000000000000000000000000000000000000000000000000000000000000000
310
000000000000000000000000000000000000000000000000000000000000000000000000000000000000000000000000000000000000000000000000000000000000000000009E00000000000000000000000000000000000000009E9E9E9EF5F5F59E9E9EF5F5000000000000000000000000000000000000000000000000
310
0000000000000000000000000000000000000000000000000000000000000000000000000000000000000000000000000000000000000000000000000000000000000000000000000000000000000000000000000000000000000000000000000000000000000000000000000000000000000000000000000000009E000000
310
0000000000000000000000000000000000009E9E9EF5F5F5F5F59E9EF50000000000000000000000000000000000000000000000000000000000000000000000000000000000000000000000000000000000000000000000000000000000000000000000000000000000000000000000000000000000000000000000000000
310
000000000000000000000000000000000000000000000000000000000000000000000000000000000000000000000000009E000000000000000000000000000000000000000000000000F5F5F5F5F5F5F5F5000000000000000000000000000000000000000000000000000000000000000000000000000000000000000000
310
0000000000000000000000000000000000000000000000000000000000000000000000000000000000000000000000000000000000000000000000000000000000000000000000000000000000000000000000000000000000000000000000000000000000009E000000000000000000000000000000000000000000000000
310
00F5F5F5F5F5F5F50000000000000000000000000000000000000000000000000000000000000000000000000000000000000000000000000000000000000000000000000000000000000000000000000000000000000000000000000000000000000000000000000000000000000000000000000000000000000000000000
310
000000000000000000000000000000000000000000000000000000009E00000000000000000000000000000000000000000000000000F5F59EF5F5F500000000000000000000000000000000000000000000000000000000000000000000000000000000000000000000000000000000000000000000000000000000000000
310
00000000000000000000000000000000000000000000000000000000000000000000000000000000000000000000000000000000000000000000000000000000000000000000000000000000000000009E9E9E9E9E9E9E9E9E9E9E9E9E9E9E9E9E9E9E9E9E9E9E9E9E9E9EF5F5F59EF5F50000000000000000000000000000
310
00000000000000000000000000000000000000000000000000000000000000000000000000000000000000000000000000000000000000000000000000000000000000000000000000000000000000000000000000000000000000000000000000000000000000000000000000000000000000000000000000000000000000
310
000000000000000000000000000000000000000000000000000000000000000000F5F5F5F59E0000000000000000000000000000000000000000000000000000000000000000000000000000000000000000000000000000000000000000000000000000000000000000000000000000000000000000000000000000000000
310
00000000000000000000000000000000000000000000000000000000000000000000000000000000000000000000000000000000000000000000000000000000000000000000000000000000000000000000000000000000BE00009E9E9E9E0000000000000000000000000000000000000000000000000000000000000000
310
00000000000000000000000000000000000000000000000000000000000000000000000000000000000000000000000000000000000000000000000000000000000000000000000000000000000000000000000000000000000000000000000000000000000000000000000000000000000000000000000000000000000000
310
0000000000000000000000000000BE0000009E9E9E00000000000000000000000000000000000000000000000000000000000000000000000000000000000000000000000000000000000000000000000000000000000000000000000000000000000000000000000000000000000000000000000000000000000000000000
310
00000000000000000000000000000000000000000000000000000000000000000000000000000000000000000000000000000000000000000000000000000000000000000000009E9E9E0000000000000000000000000000000000000000000000000000000000000000000000000000000000000000000000000000000000
310
00000000000000000000000000000000000000000000000000000000000000000000000000000000000000000000000000000000000000000000000000000000000000000000000000000000000000000000000000000000000000000000000000000000000000000000000000000000000000000000000000000000000000
310
00000000000000000000000000000000000000000000000000000000000000000000000000000000000000000000000000000000000000000000000000000000000000000000000000000000000000000000000000000000000000000000000000000000000000000000000000000000000000000000000000000000000000
310
00000000000000000000000000000000000000000000000000000000000000000000000000000000000000000000000000000000000000000000000000000000000000000000000000000000000000000000000000000000000000000000000000000000000000000000000000000000000000000000000000000000000000
310
00000000000000000000000000000000000000000000000000000000000000000000000000000000000000000000000000000000000000000000000000000000000000000000000000000000000000000000000000000000000000000000000000000000000000000000000000000000000000000000000000000000000000
310
00000000000000000000000000000000000000000000000000000000000000000000000000000000000000000000000000000000000000000000000000000000000000000000000000000000000000000000000000000000000000000000000000000000000000000000000000000000000000000000000000000000000000
310
00000000000000000000000000000000000000000000000000000000000000000000000000000000000000000000000000000000000000000000000000000000000000000000000000000000000000000000000000000000000000000000000000000000000000000000000000000000000000000000000000000000000000
310
00000000000000000000000000000000000000000000000000000000000000000000000000000000000000000000000000000000000000000000000000000000000000000000000000000000000000000000000000000000000000000000000000000000000000000000000000000000000000000000000000000000000000
310
00000000000000000000000000000000000000000000000000000000000000000000000000000000000000000000000000000000000000000000000000000000000000000000000000000000000000000000000000000000000000000000000000000000000000000000000000000000000000000000000000000000000000
310
00000000000000000000000000000000000000000000000000000000000000000000000000000000000000000000000000000000000000000000000000000000000000000000000000000000000000000000000000000000000000000000000000000000000000000000000000000000000000000000000000000000000000
310
00000000000000000000000000000000000000000000000000000000000000000000000000000000000000000000000000000000000000000000000000000000000000000000000000000000000000000000000000000000000000000000000000000000000000000000000000000000000000000000000000000000000000
310
00000000000000000000000000000000000000000000000000000000000000000000000000000000000000000000000000000000000000000000000000000000000000000000000000000000000000000000000000000000000000000000000000000000000000000000000000000000000000000000000000000000000000
310
00000000000000000000000000000000000000000000000000000000000000000000000000000000000000000000000000000000000000000000000000000000000000000000000000000000000000000000000000
  0
ENDSEC
  0
EOF
